<svg xmlns="http://www.w3.org/2000/svg" width="960" height="960" viewBox="0 0 960 960" shape-rendering="crispEdges"><path fill="#000" d="M0 0h960v960h-960z"/><path fill="#a59e92" d="M0 0h48v48h-48zM0 48h48v48h-48zM0 96h48v48h-48zM0 144h48v48h-48zM0 192h48v48h-48zM0 240h48v48h-48zM0 288h48v48h-48zM0 336h48v48h-48zM0 384h48v48h-48zM0 432h48v48h-48zM0 480h48v48h-48zM0 528h48v48h-48zM0 576h48v48h-48zM0 624h48v48h-48zM0 672h48v48h-48zM0 720h48v48h-48zM0 768h48v48h-48zM0 816h48v48h-48zM0 864h48v48h-48zM0 912h48v48h-48zM48 0h48v48h-48zM48 96h48v48h-48zM48 192h48v48h-48zM48 288h48v48h-48zM48 384h48v48h-48zM48 480h48v48h-48zM48 576h48v48h-48zM48 672h48v48h-48zM48 768h48v48h-48zM48 864h48v48h-48zM96 0h48v48h-48zM96 48h48v48h-48zM96 96h48v48h-48zM96 144h48v48h-48zM96 192h48v48h-48zM96 240h48v48h-48zM96 288h48v48h-48zM96 336h48v48h-48zM96 384h48v48h-48zM96 432h48v48h-48zM96 480h48v48h-48zM96 528h48v48h-48zM96 576h48v48h-48zM96 624h48v48h-48zM96 672h48v48h-48zM96 720h48v48h-48zM96 768h48v48h-48zM96 816h48v48h-48zM96 864h48v48h-48zM96 912h48v48h-48zM144 0h48v48h-48zM144 96h48v48h-48zM144 192h48v48h-48zM144 288h48v48h-48zM144 384h48v48h-48zM144 480h48v48h-48zM144 576h48v48h-48zM144 672h48v48h-48zM144 768h48v48h-48zM144 864h48v48h-48zM192 0h48v48h-48zM192 48h48v48h-48zM192 96h48v48h-48zM192 144h48v48h-48zM192 192h48v48h-48zM192 240h48v48h-48zM192 288h48v48h-48zM192 336h48v48h-48zM192 384h48v48h-48zM192 432h48v48h-48zM192 480h48v48h-48zM192 528h48v48h-48zM192 576h48v48h-48zM192 624h48v48h-48zM192 672h48v48h-48zM192 720h48v48h-48zM192 768h48v48h-48zM192 816h48v48h-48zM192 864h48v48h-48zM192 912h48v48h-48zM240 0h48v48h-48zM240 96h48v48h-48zM240 192h48v48h-48zM240 288h48v48h-48zM240 384h48v48h-48zM240 480h48v48h-48zM240 576h48v48h-48zM240 672h48v48h-48zM240 768h48v48h-48zM240 864h48v48h-48zM288 0h48v48h-48zM288 48h48v48h-48zM288 96h48v48h-48zM288 144h48v48h-48zM288 192h48v48h-48zM288 240h48v48h-48zM288 288h48v48h-48zM288 336h48v48h-48zM288 384h48v48h-48zM288 432h48v48h-48zM288 480h48v48h-48zM288 528h48v48h-48zM288 576h48v48h-48zM288 624h48v48h-48zM288 672h48v48h-48zM288 720h48v48h-48zM288 768h48v48h-48zM288 816h48v48h-48zM288 864h48v48h-48zM288 912h48v48h-48zM336 0h48v48h-48zM336 96h48v48h-48zM336 192h48v48h-48zM336 288h48v48h-48zM336 384h48v48h-48zM336 480h48v48h-48zM336 576h48v48h-48zM336 672h48v48h-48zM336 768h48v48h-48zM336 864h48v48h-48zM384 0h48v48h-48zM384 48h48v48h-48zM384 96h48v48h-48zM384 144h48v48h-48zM384 192h48v48h-48zM384 240h48v48h-48zM384 288h48v48h-48zM384 336h48v48h-48zM384 384h48v48h-48zM384 432h48v48h-48zM384 480h48v48h-48zM384 528h48v48h-48zM384 576h48v48h-48zM384 624h48v48h-48zM384 672h48v48h-48zM384 720h48v48h-48zM384 768h48v48h-48zM384 816h48v48h-48zM384 864h48v48h-48zM384 912h48v48h-48zM432 0h48v48h-48zM432 96h48v48h-48zM432 192h48v48h-48zM432 288h48v48h-48zM432 384h48v48h-48zM432 480h48v48h-48zM432 576h48v48h-48zM432 672h48v48h-48zM432 768h48v48h-48zM432 864h48v48h-48z"/><path fill="#1d4167" d="M12 0h12v12h-12zM36 0h12v12h-12zM24 12h12v12h-12zM24 24h12v12h-12zM12 36h12v12h-12zM36 36h12v12h-12zM48 0h12v12h-12zM84 0h12v12h-12zM60 12h12v12h-12zM72 12h12v12h-12zM72 24h12v12h-12zM48 36h12v12h-12zM84 36h12v12h-12zM96 0h12v12h-12zM108 0h12v12h-12zM132 0h12v12h-12zM96 12h12v12h-12zM120 12h12v12h-12zM108 24h12v12h-12zM96 36h12v12h-12zM144 12h12v12h-12zM156 12h12v12h-12zM144 24h12v12h-12zM180 24h12v12h-12zM216 0h12v12h-12zM228 12h12v12h-12zM192 24h12v12h-12zM204 36h12v12h-12zM252 0h12v12h-12zM276 0h12v12h-12zM252 36h12v12h-12zM276 36h12v12h-12zM288 0h12v12h-12zM324 0h12v12h-12zM312 12h12v12h-12zM300 24h12v12h-12zM312 24h12v12h-12zM288 36h12v12h-12zM324 36h12v12h-12zM348 0h12v12h-12zM360 0h12v12h-12zM360 12h12v12h-12zM348 36h12v12h-12zM396 0h12v12h-12zM420 0h12v12h-12zM384 12h12v12h-12zM420 24h12v12h-12zM384 36h12v12h-12zM408 36h12v12h-12zM444 0h12v12h-12zM468 0h12v12h-12zM432 12h12v12h-12zM444 12h12v12h-12zM456 24h12v12h-12zM468 24h12v12h-12zM432 36h12v12h-12zM456 36h12v12h-12zM600 0h24v24h-24zM576 24h24v24h-24zM600 24h24v24h-24zM624 48h24v24h-24zM648 48h24v24h-24zM624 72h24v24h-24zM768 0h24v24h-24zM816 0h24v24h-24zM840 0h24v24h-24zM792 24h24v24h-24zM840 24h24v24h-24zM816 48h24v24h-24zM840 72h24v24h-24zM12 48h12v12h-12zM36 48h12v12h-12zM0 60h12v12h-12zM12 60h12v12h-12zM24 72h12v12h-12zM36 72h12v12h-12zM0 84h12v12h-12zM24 84h12v12h-12zM48 48h12v12h-12zM72 48h12v12h-12zM84 60h12v12h-12zM48 72h12v12h-12zM60 84h12v12h-12zM84 84h12v12h-12zM96 48h12v12h-12zM108 60h12v12h-12zM120 72h12v12h-12zM132 84h12v12h-12zM144 48h12v12h-12zM180 48h12v12h-12zM156 72h12v12h-12zM168 72h12v12h-12zM144 84h12v12h-12zM180 84h12v12h-12zM192 48h12v12h-12zM228 48h12v12h-12zM192 72h12v12h-12zM228 72h12v12h-12zM264 48h12v12h-12zM276 48h12v12h-12zM264 60h12v12h-12zM276 60h12v12h-12zM240 72h12v12h-12zM252 72h12v12h-12zM240 84h12v12h-12zM252 84h12v12h-12zM300 48h12v12h-12zM312 48h12v12h-12zM288 60h12v12h-12zM312 60h12v12h-12zM300 72h12v12h-12zM324 72h12v12h-12zM300 84h12v12h-12zM312 84h12v12h-12zM372 48h12v12h-12zM372 60h12v12h-12zM336 72h12v12h-12zM336 84h12v12h-12zM384 48h12v12h-12zM396 48h12v12h-12zM384 60h12v12h-12zM396 60h12v12h-12zM408 72h12v12h-12zM420 72h12v12h-12zM408 84h12v12h-12zM420 84h12v12h-12zM432 48h12v12h-12zM468 48h12v12h-12zM444 60h12v12h-12zM456 72h12v12h-12zM432 84h12v12h-12zM468 84h12v12h-12zM12 96h12v12h-12zM24 96h12v12h-12zM0 108h12v12h-12zM24 108h12v12h-12zM12 120h12v12h-12zM36 120h12v12h-12zM12 132h12v12h-12zM24 132h12v12h-12zM48 96h12v12h-12zM60 108h12v12h-12zM48 120h12v12h-12zM72 120h12v12h-12zM48 132h12v12h-12zM60 132h12v12h-12zM84 132h12v12h-12zM96 108h12v12h-12zM108 108h12v12h-12zM96 120h12v12h-12zM132 120h12v12h-12zM156 96h12v12h-12zM180 96h12v12h-12zM144 108h12v12h-12zM168 108h12v12h-12zM156 120h12v12h-12zM180 120h12v12h-12zM144 132h12v12h-12zM168 132h12v12h-12zM192 96h12v12h-12zM216 96h12v12h-12zM228 108h12v12h-12zM192 120h12v12h-12zM204 132h12v12h-12zM228 132h12v12h-12zM240 96h12v12h-12zM252 96h12v12h-12zM240 108h12v12h-12zM252 108h12v12h-12zM264 120h12v12h-12zM276 120h12v12h-12zM264 132h12v12h-12zM276 132h12v12h-12zM288 96h12v12h-12zM324 96h12v12h-12zM300 108h12v12h-12zM312 120h12v12h-12zM288 132h12v12h-12zM324 132h12v12h-12zM360 96h12v12h-12zM372 108h12v12h-12zM336 120h12v12h-12zM348 132h12v12h-12zM384 96h12v12h-12zM408 96h12v12h-12zM420 96h12v12h-12zM396 108h12v12h-12zM420 108h12v12h-12zM408 120h12v12h-12zM420 132h12v12h-12zM432 96h12v12h-12zM456 96h12v12h-12zM468 108h12v12h-12zM432 120h12v12h-12zM444 132h12v12h-12zM468 132h12v12h-12zM24 144h12v12h-12zM0 156h12v12h-12zM12 156h12v12h-12zM36 156h12v12h-12zM0 168h12v12h-12zM24 168h12v12h-12zM36 168h12v12h-12zM12 180h12v12h-12zM60 144h12v12h-12zM72 144h12v12h-12zM72 156h12v12h-12zM60 180h12v12h-12zM108 144h12v12h-12zM132 144h12v12h-12zM120 156h12v12h-12zM120 168h12v12h-12zM108 180h12v12h-12zM132 180h12v12h-12zM144 144h12v12h-12zM180 144h12v12h-12zM156 156h12v12h-12zM168 168h12v12h-12zM144 180h12v12h-12zM180 180h12v12h-12zM204 144h12v12h-12zM228 144h12v12h-12zM192 156h12v12h-12zM228 168h12v12h-12zM192 180h12v12h-12zM216 180h12v12h-12zM264 144h12v12h-12zM252 156h12v12h-12zM276 156h12v12h-12zM240 168h12v12h-12zM264 168h12v12h-12zM252 180h12v12h-12zM288 144h12v12h-12zM324 144h12v12h-12zM300 156h12v12h-12zM312 168h12v12h-12zM288 180h12v12h-12zM324 180h12v12h-12zM348 144h12v12h-12zM372 144h12v12h-12zM348 180h12v12h-12zM372 180h12v12h-12zM408 144h12v12h-12zM420 144h12v12h-12zM408 156h12v12h-12zM420 156h12v12h-12zM384 168h12v12h-12zM396 168h12v12h-12zM384 180h12v12h-12zM396 180h12v12h-12zM468 144h12v12h-12zM468 156h12v12h-12zM432 168h12v12h-12zM432 180h12v12h-12zM36 192h12v12h-12zM24 204h12v12h-12zM12 216h12v12h-12zM0 228h12v12h-12zM48 192h12v12h-12zM84 192h12v12h-12zM60 204h12v12h-12zM72 204h12v12h-12zM48 216h12v12h-12zM84 216h12v12h-12zM96 192h12v12h-12zM120 192h12v12h-12zM132 192h12v12h-12zM108 204h12v12h-12zM132 204h12v12h-12zM120 216h12v12h-12zM132 228h12v12h-12zM144 192h12v12h-12zM156 204h12v12h-12zM144 216h12v12h-12zM168 216h12v12h-12zM144 228h12v12h-12zM156 228h12v12h-12zM180 228h12v12h-12zM204 192h12v12h-12zM228 192h12v12h-12zM216 204h12v12h-12zM216 216h12v12h-12zM204 228h12v12h-12zM228 228h12v12h-12zM258 210h12v12h-12zM288 192h12v12h-12zM324 192h12v12h-12zM300 204h12v12h-12zM312 204h12v12h-12zM288 228h12v12h-12zM324 228h12v12h-12zM336 192h12v12h-12zM360 192h12v12h-12zM372 204h12v12h-12zM336 216h12v12h-12zM348 228h12v12h-12zM372 228h12v12h-12zM408 192h12v12h-12zM420 192h12v12h-12zM384 228h12v12h-12zM396 228h12v12h-12zM432 192h12v12h-12zM456 192h12v12h-12zM468 204h12v12h-12zM432 216h12v12h-12zM444 228h12v12h-12zM468 228h12v12h-12zM600 192h24v24h-24zM576 216h24v24h-24zM624 216h24v24h-24zM648 216h24v24h-24zM576 240h24v24h-24zM600 240h24v24h-24zM648 240h24v24h-24zM624 264h24v24h-24zM792 192h24v24h-24zM840 192h24v24h-24zM768 216h24v24h-24zM840 240h24v24h-24zM768 264h24v24h-24zM816 264h24v24h-24zM0 240h12v12h-12zM12 240h12v12h-12zM36 240h12v12h-12zM0 252h12v12h-12zM24 252h12v12h-12zM12 264h12v12h-12zM0 276h12v12h-12zM48 240h12v12h-12zM60 240h12v12h-12zM72 276h12v12h-12zM84 276h12v12h-12zM96 240h12v12h-12zM108 240h12v12h-12zM132 240h12v12h-12zM96 252h12v12h-12zM120 252h12v12h-12zM108 264h12v12h-12zM96 276h12v12h-12zM144 240h12v12h-12zM168 240h12v12h-12zM180 240h12v12h-12zM156 252h12v12h-12zM180 252h12v12h-12zM168 264h12v12h-12zM180 276h12v12h-12zM204 240h12v12h-12zM216 240h12v12h-12zM216 252h12v12h-12zM204 276h12v12h-12zM276 240h12v12h-12zM264 252h12v12h-12zM252 264h12v12h-12zM276 264h12v12h-12zM240 276h12v12h-12zM264 276h12v12h-12zM276 276h12v12h-12zM288 240h12v12h-12zM324 240h12v12h-12zM300 252h12v12h-12zM312 252h12v12h-12zM300 264h12v12h-12zM288 276h12v12h-12zM324 276h12v12h-12zM348 240h12v12h-12zM360 240h12v12h-12zM348 276h12v12h-12zM360 276h12v12h-12zM384 240h12v12h-12zM420 240h12v12h-12zM396 264h12v12h-12zM408 264h12v12h-12zM384 276h12v12h-12zM420 276h12v12h-12zM432 240h12v12h-12zM468 240h12v12h-12zM456 252h12v12h-12zM444 264h12v12h-12zM432 276h12v12h-12zM468 276h12v12h-12zM0 288h12v12h-12zM12 288h12v12h-12zM24 324h12v12h-12zM36 324h12v12h-12zM48 288h12v12h-12zM84 288h12v12h-12zM48 324h12v12h-12zM84 324h12v12h-12zM96 288h12v12h-12zM120 288h12v12h-12zM108 300h12v12h-12zM132 300h12v12h-12zM96 312h12v12h-12zM120 312h12v12h-12zM108 324h12v12h-12zM132 324h12v12h-12zM156 288h12v12h-12zM168 288h12v12h-12zM168 300h12v12h-12zM156 324h12v12h-12zM216 288h12v12h-12zM228 300h12v12h-12zM192 312h12v12h-12zM204 324h12v12h-12zM240 288h12v12h-12zM276 288h12v12h-12zM252 300h12v12h-12zM264 300h12v12h-12zM240 312h12v12h-12zM276 312h12v12h-12zM300 288h12v12h-12zM312 312h12v12h-12zM300 324h12v12h-12zM312 324h12v12h-12zM336 288h12v12h-12zM372 288h12v12h-12zM348 300h12v12h-12zM360 300h12v12h-12zM348 312h12v12h-12zM360 312h12v12h-12zM336 324h12v12h-12zM372 324h12v12h-12zM384 288h12v12h-12zM408 288h12v12h-12zM420 288h12v12h-12zM396 300h12v12h-12zM420 300h12v12h-12zM408 312h12v12h-12zM420 324h12v12h-12zM456 288h12v12h-12zM468 300h12v12h-12zM432 312h12v12h-12zM444 324h12v12h-12zM0 336h12v12h-12zM12 336h12v12h-12zM36 336h12v12h-12zM0 348h12v12h-12zM24 348h12v12h-12zM12 360h12v12h-12zM0 372h12v12h-12zM48 336h12v12h-12zM48 348h12v12h-12zM84 360h12v12h-12zM84 372h12v12h-12zM132 336h12v12h-12zM120 348h12v12h-12zM108 360h12v12h-12zM132 360h12v12h-12zM96 372h12v12h-12zM120 372h12v12h-12zM132 372h12v12h-12zM144 336h12v12h-12zM168 336h12v12h-12zM156 348h12v12h-12zM180 348h12v12h-12zM144 360h12v12h-12zM168 360h12v12h-12zM156 372h12v12h-12zM180 372h12v12h-12zM192 336h12v12h-12zM228 336h12v12h-12zM192 360h12v12h-12zM228 360h12v12h-12zM252 336h12v12h-12zM240 348h12v12h-12zM276 360h12v12h-12zM264 372h12v12h-12zM300 348h12v12h-12zM312 348h12v12h-12zM300 360h12v12h-12zM312 360h12v12h-12zM336 336h12v12h-12zM372 336h12v12h-12zM348 348h12v12h-12zM360 348h12v12h-12zM336 360h12v12h-12zM372 360h12v12h-12zM384 336h12v12h-12zM420 336h12v12h-12zM396 348h12v12h-12zM396 360h12v12h-12zM408 360h12v12h-12zM384 372h12v12h-12zM420 372h12v12h-12zM432 336h12v12h-12zM444 336h12v12h-12zM456 372h12v12h-12zM468 372h12v12h-12zM12 384h12v12h-12zM36 384h12v12h-12zM24 396h12v12h-12zM24 408h12v12h-12zM12 420h12v12h-12zM36 420h12v12h-12zM60 396h12v12h-12zM72 396h12v12h-12zM60 408h12v12h-12zM72 408h12v12h-12zM120 384h12v12h-12zM120 396h12v12h-12zM132 396h12v12h-12zM96 408h12v12h-12zM108 408h12v12h-12zM108 420h12v12h-12zM156 384h12v12h-12zM168 384h12v12h-12zM156 420h12v12h-12zM168 420h12v12h-12zM192 384h12v12h-12zM228 384h12v12h-12zM204 396h12v12h-12zM204 408h12v12h-12zM216 408h12v12h-12zM192 420h12v12h-12zM228 420h12v12h-12zM252 384h12v12h-12zM264 408h12v12h-12zM252 420h12v12h-12zM264 420h12v12h-12zM300 384h12v12h-12zM288 396h12v12h-12zM312 396h12v12h-12zM324 396h12v12h-12zM288 408h12v12h-12zM300 408h12v12h-12zM324 408h12v12h-12zM312 420h12v12h-12zM336 384h12v12h-12zM348 384h12v12h-12zM336 396h12v12h-12zM348 396h12v12h-12zM360 408h12v12h-12zM372 408h12v12h-12zM360 420h12v12h-12zM372 420h12v12h-12zM408 384h12v12h-12zM420 384h12v12h-12zM408 396h12v12h-12zM420 396h12v12h-12zM384 408h12v12h-12zM396 408h12v12h-12zM384 420h12v12h-12zM396 420h12v12h-12zM432 384h12v12h-12zM456 384h12v12h-12zM468 396h12v12h-12zM432 408h12v12h-12zM444 420h12v12h-12zM468 420h12v12h-12zM576 384h24v24h-24zM648 384h24v24h-24zM576 456h24v24h-24zM648 456h24v24h-24zM840 384h24v24h-24zM816 408h24v24h-24zM792 432h24v24h-24zM768 456h24v24h-24zM0 432h12v12h-12zM12 444h12v12h-12zM0 456h12v12h-12zM24 456h12v12h-12zM0 468h12v12h-12zM12 468h12v12h-12zM36 468h12v12h-12zM48 432h12v12h-12zM60 432h12v12h-12zM72 468h12v12h-12zM84 468h12v12h-12zM96 432h12v12h-12zM120 432h12v12h-12zM132 444h12v12h-12zM96 456h12v12h-12zM108 468h12v12h-12zM132 468h12v12h-12zM144 432h12v12h-12zM180 432h12v12h-12zM156 444h12v12h-12zM168 456h12v12h-12zM144 468h12v12h-12zM180 468h12v12h-12zM192 432h12v12h-12zM228 432h12v12h-12zM192 456h12v12h-12zM228 456h12v12h-12zM240 432h12v12h-12zM252 444h12v12h-12zM264 456h12v12h-12zM276 468h12v12h-12zM312 432h12v12h-12zM288 444h12v12h-12zM300 444h12v12h-12zM324 444h12v12h-12zM288 456h12v12h-12zM312 456h12v12h-12zM324 456h12v12h-12zM300 468h12v12h-12zM336 432h12v12h-12zM336 444h12v12h-12zM372 456h12v12h-12zM372 468h12v12h-12zM384 432h12v12h-12zM396 444h12v12h-12zM408 456h12v12h-12zM420 468h12v12h-12zM432 432h12v12h-12zM456 432h12v12h-12zM468 444h12v12h-12zM432 456h12v12h-12zM444 468h12v12h-12zM468 468h12v12h-12zM12 480h12v12h-12zM36 480h12v12h-12zM0 492h12v12h-12zM24 492h12v12h-12zM12 504h12v12h-12zM36 504h12v12h-12zM0 516h12v12h-12zM24 516h12v12h-12zM72 480h12v12h-12zM72 492h12v12h-12zM84 492h12v12h-12zM48 504h12v12h-12zM60 504h12v12h-12zM60 516h12v12h-12zM96 480h12v12h-12zM132 480h12v12h-12zM108 492h12v12h-12zM120 492h12v12h-12zM96 516h12v12h-12zM132 516h12v12h-12zM144 480h12v12h-12zM156 492h12v12h-12zM144 504h12v12h-12zM168 504h12v12h-12zM144 516h12v12h-12zM156 516h12v12h-12zM180 516h12v12h-12zM192 480h12v12h-12zM216 480h12v12h-12zM216 492h12v12h-12zM228 492h12v12h-12zM192 504h12v12h-12zM204 504h12v12h-12zM204 516h12v12h-12zM228 516h12v12h-12zM252 480h12v12h-12zM276 480h12v12h-12zM240 492h12v12h-12zM276 504h12v12h-12zM240 516h12v12h-12zM264 516h12v12h-12zM300 480h12v12h-12zM312 480h12v12h-12zM312 492h12v12h-12zM300 516h12v12h-12zM360 480h12v12h-12zM372 480h12v12h-12zM360 492h12v12h-12zM372 492h12v12h-12zM336 504h12v12h-12zM348 504h12v12h-12zM336 516h12v12h-12zM348 516h12v12h-12zM384 480h12v12h-12zM408 480h12v12h-12zM420 492h12v12h-12zM384 504h12v12h-12zM396 516h12v12h-12zM420 516h12v12h-12zM432 492h12v12h-12zM468 492h12v12h-12zM432 504h12v12h-12zM444 504h12v12h-12zM0 528h12v12h-12zM36 528h12v12h-12zM12 540h12v12h-12zM24 540h12v12h-12zM0 552h12v12h-12zM36 552h12v12h-12zM60 528h12v12h-12zM72 552h12v12h-12zM60 564h12v12h-12zM72 564h12v12h-12zM108 528h12v12h-12zM132 528h12v12h-12zM120 540h12v12h-12zM120 552h12v12h-12zM108 564h12v12h-12zM132 564h12v12h-12zM156 528h12v12h-12zM144 540h12v12h-12zM168 540h12v12h-12zM180 540h12v12h-12zM144 552h12v12h-12zM156 552h12v12h-12zM180 552h12v12h-12zM168 564h12v12h-12zM210 546h12v12h-12zM258 546h12v12h-12zM288 528h12v12h-12zM324 528h12v12h-12zM300 540h12v12h-12zM312 540h12v12h-12zM300 552h12v12h-12zM312 552h12v12h-12zM288 564h12v12h-12zM324 564h12v12h-12zM348 528h12v12h-12zM336 540h12v12h-12zM360 540h12v12h-12zM372 540h12v12h-12zM336 552h12v12h-12zM348 552h12v12h-12zM372 552h12v12h-12zM360 564h12v12h-12zM384 528h12v12h-12zM408 528h12v12h-12zM420 540h12v12h-12zM384 552h12v12h-12zM396 564h12v12h-12zM420 564h12v12h-12zM432 528h12v12h-12zM468 528h12v12h-12zM444 540h12v12h-12zM456 540h12v12h-12zM432 564h12v12h-12zM468 564h12v12h-12zM0 576h12v12h-12zM24 576h12v12h-12zM36 576h12v12h-12zM12 588h12v12h-12zM36 588h12v12h-12zM24 600h12v12h-12zM36 612h12v12h-12zM48 588h12v12h-12zM60 588h12v12h-12zM48 600h12v12h-12zM84 600h12v12h-12zM96 588h12v12h-12zM108 588h12v12h-12zM96 600h12v12h-12zM132 600h12v12h-12zM168 576h12v12h-12zM180 576h12v12h-12zM144 612h12v12h-12zM156 612h12v12h-12zM216 576h12v12h-12zM228 588h12v12h-12zM192 600h12v12h-12zM204 612h12v12h-12zM252 576h12v12h-12zM276 576h12v12h-12zM252 612h12v12h-12zM276 612h12v12h-12zM288 576h12v12h-12zM312 576h12v12h-12zM300 588h12v12h-12zM324 588h12v12h-12zM288 600h12v12h-12zM312 600h12v12h-12zM300 612h12v12h-12zM324 612h12v12h-12zM348 576h12v12h-12zM372 576h12v12h-12zM360 588h12v12h-12zM360 600h12v12h-12zM348 612h12v12h-12zM372 612h12v12h-12zM384 576h12v12h-12zM408 576h12v12h-12zM396 588h12v12h-12zM420 588h12v12h-12zM384 600h12v12h-12zM408 600h12v12h-12zM396 612h12v12h-12zM420 612h12v12h-12zM432 576h12v12h-12zM468 576h12v12h-12zM444 588h12v12h-12zM456 588h12v12h-12zM444 600h12v12h-12zM432 612h12v12h-12zM468 612h12v12h-12zM600 576h24v24h-24zM648 576h24v24h-24zM576 600h24v24h-24zM648 624h24v24h-24zM576 648h24v24h-24zM624 648h24v24h-24zM768 576h24v24h-24zM840 576h24v24h-24zM792 600h24v24h-24zM816 600h24v24h-24zM768 648h24v24h-24zM840 648h24v24h-24zM12 624h12v12h-12zM36 624h12v12h-12zM0 636h12v12h-12zM24 636h12v12h-12zM12 648h12v12h-12zM36 648h12v12h-12zM0 660h12v12h-12zM24 660h12v12h-12zM48 624h12v12h-12zM84 624h12v12h-12zM60 648h12v12h-12zM72 648h12v12h-12zM48 660h12v12h-12zM84 660h12v12h-12zM108 624h12v12h-12zM132 624h12v12h-12zM96 636h12v12h-12zM132 648h12v12h-12zM96 660h12v12h-12zM120 660h12v12h-12zM144 636h12v12h-12zM156 636h12v12h-12zM144 648h12v12h-12zM180 648h12v12h-12zM192 624h12v12h-12zM228 624h12v12h-12zM204 636h12v12h-12zM216 636h12v12h-12zM216 648h12v12h-12zM192 660h12v12h-12zM228 660h12v12h-12zM252 624h12v12h-12zM276 624h12v12h-12zM240 636h12v12h-12zM276 648h12v12h-12zM240 660h12v12h-12zM264 660h12v12h-12zM288 624h12v12h-12zM324 624h12v12h-12zM300 636h12v12h-12zM312 636h12v12h-12zM288 660h12v12h-12zM324 660h12v12h-12zM348 624h12v12h-12zM336 636h12v12h-12zM360 636h12v12h-12zM348 648h12v12h-12zM372 648h12v12h-12zM360 660h12v12h-12zM384 624h12v12h-12zM408 624h12v12h-12zM420 636h12v12h-12zM384 648h12v12h-12zM396 660h12v12h-12zM420 660h12v12h-12zM432 624h12v12h-12zM468 624h12v12h-12zM456 636h12v12h-12zM444 648h12v12h-12zM456 648h12v12h-12zM432 660h12v12h-12zM468 660h12v12h-12zM0 672h12v12h-12zM36 672h12v12h-12zM12 684h12v12h-12zM24 684h12v12h-12zM24 696h12v12h-12zM0 708h12v12h-12zM36 708h12v12h-12zM60 672h12v12h-12zM72 672h12v12h-12zM60 708h12v12h-12zM72 708h12v12h-12zM96 672h12v12h-12zM132 672h12v12h-12zM108 684h12v12h-12zM120 684h12v12h-12zM120 696h12v12h-12zM96 708h12v12h-12zM132 708h12v12h-12zM180 672h12v12h-12zM168 684h12v12h-12zM156 696h12v12h-12zM180 696h12v12h-12zM144 708h12v12h-12zM168 708h12v12h-12zM180 708h12v12h-12zM192 672h12v12h-12zM204 672h12v12h-12zM228 672h12v12h-12zM192 684h12v12h-12zM216 684h12v12h-12zM204 696h12v12h-12zM192 708h12v12h-12zM252 672h12v12h-12zM240 684h12v12h-12zM276 696h12v12h-12zM264 708h12v12h-12zM300 672h12v12h-12zM324 672h12v12h-12zM288 684h12v12h-12zM300 684h12v12h-12zM312 696h12v12h-12zM324 696h12v12h-12zM288 708h12v12h-12zM312 708h12v12h-12zM360 672h12v12h-12zM336 684h12v12h-12zM348 684h12v12h-12zM372 684h12v12h-12zM336 696h12v12h-12zM360 696h12v12h-12zM372 696h12v12h-12zM348 708h12v12h-12zM396 672h12v12h-12zM408 672h12v12h-12zM408 684h12v12h-12zM396 708h12v12h-12zM456 672h12v12h-12zM468 672h12v12h-12zM456 684h12v12h-12zM468 684h12v12h-12zM432 696h12v12h-12zM444 696h12v12h-12zM432 708h12v12h-12zM444 708h12v12h-12zM0 720h12v12h-12zM36 720h12v12h-12zM12 732h12v12h-12zM24 732h12v12h-12zM0 756h12v12h-12zM36 756h12v12h-12zM48 720h12v12h-12zM84 720h12v12h-12zM72 732h12v12h-12zM60 744h12v12h-12zM48 756h12v12h-12zM84 756h12v12h-12zM96 720h12v12h-12zM132 720h12v12h-12zM120 732h12v12h-12zM108 744h12v12h-12zM120 744h12v12h-12zM96 756h12v12h-12zM132 756h12v12h-12zM144 720h12v12h-12zM156 732h12v12h-12zM168 744h12v12h-12zM180 756h12v12h-12zM216 720h12v12h-12zM216 732h12v12h-12zM228 732h12v12h-12zM192 744h12v12h-12zM204 744h12v12h-12zM204 756h12v12h-12zM252 720h12v12h-12zM240 732h12v12h-12zM264 732h12v12h-12zM252 744h12v12h-12zM276 744h12v12h-12zM264 756h12v12h-12zM288 720h12v12h-12zM312 720h12v12h-12zM300 732h12v12h-12zM324 732h12v12h-12zM288 744h12v12h-12zM312 744h12v12h-12zM300 756h12v12h-12zM324 756h12v12h-12zM348 720h12v12h-12zM360 720h12v12h-12zM336 732h12v12h-12zM360 732h12v12h-12zM348 744h12v12h-12zM372 744h12v12h-12zM348 756h12v12h-12zM360 756h12v12h-12zM384 720h12v12h-12zM396 720h12v12h-12zM384 732h12v12h-12zM396 732h12v12h-12zM408 744h12v12h-12zM420 744h12v12h-12zM408 756h12v12h-12zM420 756h12v12h-12zM444 732h12v12h-12zM456 732h12v12h-12zM444 744h12v12h-12zM456 744h12v12h-12zM12 768h12v12h-12zM24 768h12v12h-12zM0 780h12v12h-12zM24 780h12v12h-12zM12 792h12v12h-12zM36 792h12v12h-12zM12 804h12v12h-12zM24 804h12v12h-12zM60 768h12v12h-12zM84 768h12v12h-12zM48 780h12v12h-12zM72 780h12v12h-12zM60 792h12v12h-12zM84 792h12v12h-12zM48 804h12v12h-12zM72 804h12v12h-12zM108 768h12v12h-12zM96 780h12v12h-12zM120 780h12v12h-12zM132 780h12v12h-12zM96 792h12v12h-12zM108 792h12v12h-12zM132 792h12v12h-12zM120 804h12v12h-12zM156 768h12v12h-12zM168 768h12v12h-12zM144 780h12v12h-12zM168 780h12v12h-12zM156 792h12v12h-12zM180 792h12v12h-12zM156 804h12v12h-12zM168 804h12v12h-12zM216 768h12v12h-12zM192 780h12v12h-12zM204 780h12v12h-12zM228 780h12v12h-12zM192 792h12v12h-12zM216 792h12v12h-12zM228 792h12v12h-12zM204 804h12v12h-12zM240 768h12v12h-12zM276 768h12v12h-12zM252 780h12v12h-12zM264 780h12v12h-12zM240 804h12v12h-12zM276 804h12v12h-12zM300 768h12v12h-12zM288 780h12v12h-12zM312 780h12v12h-12zM324 780h12v12h-12zM288 792h12v12h-12zM300 792h12v12h-12zM324 792h12v12h-12zM312 804h12v12h-12zM336 768h12v12h-12zM372 768h12v12h-12zM348 780h12v12h-12zM360 792h12v12h-12zM336 804h12v12h-12zM372 804h12v12h-12zM384 768h12v12h-12zM420 768h12v12h-12zM384 804h12v12h-12zM420 804h12v12h-12zM432 768h12v12h-12zM444 780h12v12h-12zM432 792h12v12h-12zM456 792h12v12h-12zM432 804h12v12h-12zM444 804h12v12h-12zM468 804h12v12h-12zM600 768h24v24h-24zM624 816h24v24h-24zM600 840h24v24h-24zM624 840h24v24h-24zM840 768h24v24h-24zM840 792h24v24h-24zM768 816h24v24h-24zM768 840h24v24h-24zM36 816h12v12h-12zM24 828h12v12h-12zM12 840h12v12h-12zM36 840h12v12h-12zM0 852h12v12h-12zM24 852h12v12h-12zM36 852h12v12h-12zM60 816h12v12h-12zM72 816h12v12h-12zM72 828h12v12h-12zM60 852h12v12h-12zM96 816h12v12h-12zM132 816h12v12h-12zM108 828h12v12h-12zM120 828h12v12h-12zM96 852h12v12h-12zM132 852h12v12h-12zM144 816h12v12h-12zM180 816h12v12h-12zM156 828h12v12h-12zM168 828h12v12h-12zM156 840h12v12h-12zM168 840h12v12h-12zM144 852h12v12h-12zM180 852h12v12h-12zM210 834h12v12h-12zM240 816h12v12h-12zM264 816h12v12h-12zM252 828h12v12h-12zM276 828h12v12h-12zM240 840h12v12h-12zM264 840h12v12h-12zM252 852h12v12h-12zM276 852h12v12h-12zM300 816h12v12h-12zM312 816h12v12h-12zM312 828h12v12h-12zM300 852h12v12h-12zM336 816h12v12h-12zM360 816h12v12h-12zM372 816h12v12h-12zM348 828h12v12h-12zM372 828h12v12h-12zM360 840h12v12h-12zM372 852h12v12h-12zM384 816h12v12h-12zM408 816h12v12h-12zM396 828h12v12h-12zM420 828h12v12h-12zM384 840h12v12h-12zM408 840h12v12h-12zM396 852h12v12h-12zM420 852h12v12h-12zM444 816h12v12h-12zM432 828h12v12h-12zM468 840h12v12h-12zM456 852h12v12h-12zM0 864h12v12h-12zM36 864h12v12h-12zM12 876h12v12h-12zM24 876h12v12h-12zM0 900h12v12h-12zM36 900h12v12h-12zM72 864h12v12h-12zM84 864h12v12h-12zM48 900h12v12h-12zM60 900h12v12h-12zM96 864h12v12h-12zM108 876h12v12h-12zM120 888h12v12h-12zM132 900h12v12h-12zM144 864h12v12h-12zM168 864h12v12h-12zM180 876h12v12h-12zM144 888h12v12h-12zM156 900h12v12h-12zM180 900h12v12h-12zM192 864h12v12h-12zM228 864h12v12h-12zM192 888h12v12h-12zM228 888h12v12h-12zM252 864h12v12h-12zM240 876h12v12h-12zM264 876h12v12h-12zM252 888h12v12h-12zM276 888h12v12h-12zM264 900h12v12h-12zM312 864h12v12h-12zM312 876h12v12h-12zM324 876h12v12h-12zM288 888h12v12h-12zM300 888h12v12h-12zM300 900h12v12h-12zM372 864h12v12h-12zM372 876h12v12h-12zM336 888h12v12h-12zM336 900h12v12h-12zM384 864h12v12h-12zM408 864h12v12h-12zM396 876h12v12h-12zM420 876h12v12h-12zM384 888h12v12h-12zM408 888h12v12h-12zM396 900h12v12h-12zM420 900h12v12h-12zM432 864h12v12h-12zM468 864h12v12h-12zM444 876h12v12h-12zM456 876h12v12h-12zM432 900h12v12h-12zM468 900h12v12h-12zM36 912h12v12h-12zM36 924h12v12h-12zM0 936h12v12h-12zM0 948h12v12h-12zM48 912h12v12h-12zM60 924h12v12h-12zM72 936h12v12h-12zM84 948h12v12h-12zM96 912h12v12h-12zM132 912h12v12h-12zM108 924h12v12h-12zM120 924h12v12h-12zM96 948h12v12h-12zM132 948h12v12h-12zM156 912h12v12h-12zM180 912h12v12h-12zM156 948h12v12h-12zM180 948h12v12h-12zM192 912h12v12h-12zM228 912h12v12h-12zM192 948h12v12h-12zM228 948h12v12h-12zM276 912h12v12h-12zM276 924h12v12h-12zM240 936h12v12h-12zM240 948h12v12h-12zM312 912h12v12h-12zM312 924h12v12h-12zM324 924h12v12h-12zM288 936h12v12h-12zM300 936h12v12h-12zM300 948h12v12h-12zM348 912h12v12h-12zM372 912h12v12h-12zM360 924h12v12h-12zM360 936h12v12h-12zM348 948h12v12h-12zM372 948h12v12h-12zM384 912h12v12h-12zM408 912h12v12h-12zM420 912h12v12h-12zM396 924h12v12h-12zM420 924h12v12h-12zM408 936h12v12h-12zM420 948h12v12h-12zM456 912h12v12h-12zM468 912h12v12h-12zM432 948h12v12h-12zM444 948h12v12h-12zM480 192h24v24h-24zM552 192h24v24h-24zM528 216h24v24h-24zM504 240h24v24h-24zM480 264h24v24h-24zM552 264h24v24h-24zM612 324h24v24h-24zM804 516h24v24h-24zM504 792h24v24h-24zM528 792h24v24h-24zM504 816h24v24h-24zM528 816h24v24h-24zM708 516h24v24h-24zM900 324h24v24h-24zM480 576h24v24h-24zM552 576h24v24h-24zM504 600h24v24h-24zM528 600h24v24h-24zM504 624h24v24h-24zM480 648h24v24h-24zM552 648h24v24h-24zM480 384h24v24h-24zM504 384h24v24h-24zM528 456h24v24h-24zM552 456h24v24h-24zM804 324h24v24h-24z"/><path fill="#fff" d="M144 288h48v48h-48zM96 336h48v48h-48zM48 384h48v48h-48zM48 336h48v48h-48zM48 288h48v48h-48zM96 240h48v48h-48zM144 192h48v48h-48zM192 144h48v48h-48zM240 96h48v48h-48zM288 48h48v48h-48zM240 48h48v48h-48zM240 144h48v48h-48zM288 144h48v48h-48zM144 144h48v48h-48zM96 144h48v48h-48zM48 144h48v48h-48zM0 144h48v48h-48zM192 192h48v48h-48zM144 240h48v48h-48zM96 288h48v48h-48zM192 240h48v48h-48zM240 192h48v48h-48zM336 96h48v48h-48zM384 48h48v48h-48zM432 0h48v48h-48zM384 0h48v48h-48zM336 0h48v48h-48zM288 0h48v48h-48zM240 0h48v48h-48zM192 0h48v48h-48zM144 0h48v48h-48zM96 0h48v48h-48zM48 0h48v48h-48zM96 48h48v48h-48zM144 96h48v48h-48zM192 48h48v48h-48zM336 192h48v48h-48zM384 240h48v48h-48zM432 288h48v48h-48zM384 336h48v48h-48zM336 336h48v48h-48zM288 336h48v48h-48zM240 336h48v48h-48zM240 288h48v48h-48zM240 240h48v48h-48zM336 144h48v48h-48zM384 144h48v48h-48zM432 144h48v48h-48zM912 144h48v48h-48zM864 144h48v48h-48zM816 144h48v48h-48zM768 144h48v48h-48zM720 144h48v48h-48zM672 144h48v48h-48zM624 144h48v48h-48zM576 144h48v48h-48zM528 144h48v48h-48zM480 144h48v48h-48zM576 192h48v48h-48zM528 240h48v48h-48zM576 240h48v48h-48zM624 240h48v48h-48zM672 240h48v48h-48zM720 240h48v48h-48zM768 288h48v48h-48zM816 336h48v48h-48zM864 384h48v48h-48zM912 432h48v48h-48zM912 384h48v48h-48zM912 336h48v48h-48zM912 288h48v48h-48zM912 240h48v48h-48zM912 192h48v48h-48zM912 96h48v48h-48zM720 192h48v48h-48zM768 240h48v48h-48zM816 288h48v48h-48zM864 336h48v48h-48zM624 96h48v48h-48zM624 192h48v48h-48zM672 288h48v48h-48zM720 336h48v48h-48zM672 336h48v48h-48zM624 336h48v48h-48zM768 336h48v48h-48zM816 240h48v48h-48zM672 384h48v48h-48zM624 432h48v48h-48zM144 624h48v48h-48zM96 576h48v48h-48zM48 528h48v48h-48zM48 576h48v48h-48zM48 624h48v48h-48zM96 672h48v48h-48zM144 720h48v48h-48zM192 768h48v48h-48zM240 816h48v48h-48zM288 864h48v48h-48zM240 864h48v48h-48zM240 768h48v48h-48zM288 768h48v48h-48zM144 768h48v48h-48zM96 768h48v48h-48zM48 768h48v48h-48zM0 768h48v48h-48zM192 720h48v48h-48zM144 672h48v48h-48zM96 624h48v48h-48zM192 672h48v48h-48zM240 720h48v48h-48zM336 816h48v48h-48zM384 864h48v48h-48zM432 912h48v48h-48zM384 912h48v48h-48zM336 912h48v48h-48zM288 912h48v48h-48zM240 912h48v48h-48zM192 912h48v48h-48zM144 912h48v48h-48zM96 912h48v48h-48zM48 912h48v48h-48zM96 864h48v48h-48zM144 816h48v48h-48zM192 864h48v48h-48zM336 720h48v48h-48zM384 672h48v48h-48zM432 624h48v48h-48zM384 576h48v48h-48zM336 576h48v48h-48zM288 576h48v48h-48zM240 576h48v48h-48zM240 624h48v48h-48zM240 672h48v48h-48zM336 768h48v48h-48zM384 768h48v48h-48zM432 768h48v48h-48zM912 768h48v48h-48zM864 768h48v48h-48zM816 768h48v48h-48zM768 768h48v48h-48zM720 768h48v48h-48zM672 768h48v48h-48zM624 768h48v48h-48zM576 768h48v48h-48zM528 768h48v48h-48zM480 768h48v48h-48zM576 720h48v48h-48zM528 672h48v48h-48zM576 672h48v48h-48zM624 672h48v48h-48zM672 672h48v48h-48zM720 672h48v48h-48zM768 624h48v48h-48zM816 576h48v48h-48zM864 528h48v48h-48zM912 480h48v48h-48zM912 528h48v48h-48zM912 576h48v48h-48zM912 624h48v48h-48zM912 672h48v48h-48zM912 720h48v48h-48zM912 816h48v48h-48zM720 720h48v48h-48zM768 672h48v48h-48zM816 624h48v48h-48zM864 576h48v48h-48zM624 816h48v48h-48zM624 720h48v48h-48zM672 624h48v48h-48zM720 576h48v48h-48zM672 576h48v48h-48zM624 576h48v48h-48zM768 576h48v48h-48zM816 672h48v48h-48zM672 528h48v48h-48zM624 480h48v48h-48z"/></svg>