<svg xmlns="http://www.w3.org/2000/svg" width="960" height="960" viewBox="0 0 960 960" shape-rendering="crispEdges"><path fill="#000" d="M0 0h960v960h-960z"/><path fill="#ffbe0a" d="M480 24h24v24h-24zM480 120h24v24h-24zM480 216h24v24h-24zM480 312h24v24h-24zM480 408h24v24h-24zM480 504h24v24h-24zM480 600h24v24h-24zM480 696h24v24h-24zM480 792h24v24h-24zM480 888h24v24h-24zM504 24h24v24h-24zM504 120h24v24h-24zM504 216h24v24h-24zM504 312h24v24h-24zM504 408h24v24h-24zM504 504h24v24h-24zM504 600h24v24h-24zM504 696h24v24h-24zM504 792h24v24h-24zM504 888h24v24h-24zM528 24h24v24h-24zM528 120h24v24h-24zM528 216h24v24h-24zM528 312h24v24h-24zM528 408h24v24h-24zM528 504h24v24h-24zM528 600h24v24h-24zM528 696h24v24h-24zM528 792h24v24h-24zM528 888h24v24h-24zM552 24h24v24h-24zM552 120h24v24h-24zM552 216h24v24h-24zM552 312h24v24h-24zM552 408h24v24h-24zM552 504h24v24h-24zM552 600h24v24h-24zM552 696h24v24h-24zM552 792h24v24h-24zM552 888h24v24h-24zM576 24h24v24h-24zM576 120h24v24h-24zM576 216h24v24h-24zM576 312h24v24h-24zM576 408h24v24h-24zM576 504h24v24h-24zM576 600h24v24h-24zM576 696h24v24h-24zM576 792h24v24h-24zM576 888h24v24h-24zM600 24h24v24h-24zM600 120h24v24h-24zM600 216h24v24h-24zM600 312h24v24h-24zM600 408h24v24h-24zM600 504h24v24h-24zM600 600h24v24h-24zM600 696h24v24h-24zM600 792h24v24h-24zM600 888h24v24h-24zM624 24h24v24h-24zM624 120h24v24h-24zM624 216h24v24h-24zM624 312h24v24h-24zM624 408h24v24h-24zM624 504h24v24h-24zM624 600h24v24h-24zM624 696h24v24h-24zM624 792h24v24h-24zM624 888h24v24h-24zM648 24h24v24h-24zM648 120h24v24h-24zM648 216h24v24h-24zM648 312h24v24h-24zM648 408h24v24h-24zM648 504h24v24h-24zM648 600h24v24h-24zM648 696h24v24h-24zM648 792h24v24h-24zM648 888h24v24h-24zM672 24h24v24h-24zM672 120h24v24h-24zM672 216h24v24h-24zM672 312h24v24h-24zM672 408h24v24h-24zM672 504h24v24h-24zM672 600h24v24h-24zM672 696h24v24h-24zM672 792h24v24h-24zM672 888h24v24h-24zM696 24h24v24h-24zM696 120h24v24h-24zM696 216h24v24h-24zM696 312h24v24h-24zM696 408h24v24h-24zM696 504h24v24h-24zM696 600h24v24h-24zM696 696h24v24h-24zM696 792h24v24h-24zM696 888h24v24h-24zM720 24h24v24h-24zM720 120h24v24h-24zM720 216h24v24h-24zM720 312h24v24h-24zM720 408h24v24h-24zM720 504h24v24h-24zM720 600h24v24h-24zM720 696h24v24h-24zM720 792h24v24h-24zM720 888h24v24h-24zM744 24h24v24h-24zM744 120h24v24h-24zM744 216h24v24h-24zM744 312h24v24h-24zM744 408h24v24h-24zM744 504h24v24h-24zM744 600h24v24h-24zM744 696h24v24h-24zM744 792h24v24h-24zM744 888h24v24h-24zM768 24h24v24h-24zM768 120h24v24h-24zM768 216h24v24h-24zM768 312h24v24h-24zM768 408h24v24h-24zM768 504h24v24h-24zM768 600h24v24h-24zM768 696h24v24h-24zM768 792h24v24h-24zM768 888h24v24h-24zM792 24h24v24h-24zM792 120h24v24h-24zM792 216h24v24h-24zM792 312h24v24h-24zM792 408h24v24h-24zM792 504h24v24h-24zM792 600h24v24h-24zM792 696h24v24h-24zM792 792h24v24h-24zM792 888h24v24h-24zM816 24h24v24h-24zM816 120h24v24h-24zM816 216h24v24h-24zM816 312h24v24h-24zM816 408h24v24h-24zM816 504h24v24h-24zM816 600h24v24h-24zM816 696h24v24h-24zM816 792h24v24h-24zM816 888h24v24h-24zM840 24h24v24h-24zM840 120h24v24h-24zM840 216h24v24h-24zM840 312h24v24h-24zM840 408h24v24h-24zM840 504h24v24h-24zM840 600h24v24h-24zM840 696h24v24h-24zM840 792h24v24h-24zM840 888h24v24h-24zM864 24h24v24h-24zM864 120h24v24h-24zM864 216h24v24h-24zM864 312h24v24h-24zM864 408h24v24h-24zM864 504h24v24h-24zM864 600h24v24h-24zM864 696h24v24h-24zM864 792h24v24h-24zM864 888h24v24h-24zM888 24h24v24h-24zM888 120h24v24h-24zM888 216h24v24h-24zM888 312h24v24h-24zM888 408h24v24h-24zM888 504h24v24h-24zM888 600h24v24h-24zM888 696h24v24h-24zM888 792h24v24h-24zM888 888h24v24h-24zM912 24h24v24h-24zM912 120h24v24h-24zM912 216h24v24h-24zM912 312h24v24h-24zM912 408h24v24h-24zM912 504h24v24h-24zM912 600h24v24h-24zM912 696h24v24h-24zM912 792h24v24h-24zM912 888h24v24h-24zM936 24h24v24h-24zM936 120h24v24h-24zM936 216h24v24h-24zM936 312h24v24h-24zM936 408h24v24h-24zM936 504h24v24h-24zM936 600h24v24h-24zM936 696h24v24h-24zM936 792h24v24h-24zM936 888h24v24h-24z"/><path fill="#7da4ba" d="M6 6h12v12h-12zM30 30h12v12h-12zM6 54h12v12h-12zM54 54h12v12h-12zM6 78h12v12h-12zM30 78h12v12h-12zM78 78h12v12h-12zM222 6h12v12h-12zM198 30h12v12h-12zM270 54h12v12h-12zM246 78h12v12h-12zM438 6h12v12h-12zM438 30h12v12h-12zM462 30h12v12h-12zM390 54h12v12h-12zM414 54h12v12h-12zM414 78h12v12h-12zM486 30h12v12h-12zM510 30h12v12h-12zM486 54h12v12h-12zM558 54h12v12h-12zM654 6h12v12h-12zM630 30h12v12h-12zM606 54h12v12h-12zM654 54h12v12h-12zM582 78h12v12h-12zM630 78h12v12h-12zM654 78h12v12h-12zM678 6h12v12h-12zM726 6h12v12h-12zM726 30h12v12h-12zM750 30h12v12h-12zM678 54h12v12h-12zM702 54h12v12h-12zM702 78h12v12h-12zM750 78h12v12h-12zM798 6h12v12h-12zM822 6h12v12h-12zM798 78h12v12h-12zM822 78h12v12h-12zM894 6h12v12h-12zM942 6h12v12h-12zM894 78h12v12h-12zM942 78h12v12h-12zM486 102h12v12h-12zM558 102h12v12h-12zM510 126h12v12h-12zM534 126h12v12h-12zM534 150h12v12h-12zM486 174h12v12h-12zM558 174h12v12h-12zM582 126h12v12h-12zM606 126h12v12h-12zM582 150h12v12h-12zM654 150h12v12h-12zM726 102h12v12h-12zM750 102h12v12h-12zM678 174h12v12h-12zM702 174h12v12h-12zM846 246h12v12h-12zM798 102h12v12h-12zM822 102h12v12h-12zM798 126h12v12h-12zM846 126h12v12h-12zM774 150h12v12h-12zM822 150h12v12h-12zM798 174h12v12h-12zM822 174h12v12h-12zM870 126h12v12h-12zM894 126h12v12h-12zM870 150h12v12h-12zM942 150h12v12h-12zM6 198h12v12h-12zM30 198h12v12h-12zM54 270h12v12h-12zM78 270h12v12h-12zM246 198h12v12h-12zM198 222h12v12h-12zM222 222h12v12h-12zM270 222h12v12h-12zM198 246h12v12h-12zM246 246h12v12h-12zM270 246h12v12h-12zM222 270h12v12h-12zM414 198h12v12h-12zM390 222h12v12h-12zM414 222h12v12h-12zM438 246h12v12h-12zM462 246h12v12h-12zM438 270h12v12h-12zM510 198h12v12h-12zM534 198h12v12h-12zM510 270h12v12h-12zM534 270h12v12h-12zM582 198h12v12h-12zM654 198h12v12h-12zM606 222h12v12h-12zM630 222h12v12h-12zM606 246h12v12h-12zM582 270h12v12h-12zM654 270h12v12h-12zM678 198h12v12h-12zM702 198h12v12h-12zM750 198h12v12h-12zM678 222h12v12h-12zM726 222h12v12h-12zM702 246h12v12h-12zM678 270h12v12h-12zM798 198h12v12h-12zM774 222h12v12h-12zM846 246h12v12h-12zM822 270h12v12h-12zM942 198h12v12h-12zM942 222h12v12h-12zM870 246h12v12h-12zM870 270h12v12h-12zM54 294h12v12h-12zM6 318h12v12h-12zM30 318h12v12h-12zM78 318h12v12h-12zM6 342h12v12h-12zM54 342h12v12h-12zM78 342h12v12h-12zM30 366h12v12h-12zM102 294h12v12h-12zM150 294h12v12h-12zM174 294h12v12h-12zM126 318h12v12h-12zM174 318h12v12h-12zM150 342h12v12h-12zM174 366h12v12h-12zM198 294h12v12h-12zM246 294h12v12h-12zM222 318h12v12h-12zM270 318h12v12h-12zM198 342h12v12h-12zM246 342h12v12h-12zM222 366h12v12h-12zM270 366h12v12h-12zM366 438h12v12h-12zM318 294h12v12h-12zM342 294h12v12h-12zM318 318h12v12h-12zM366 318h12v12h-12zM294 342h12v12h-12zM342 342h12v12h-12zM318 366h12v12h-12zM342 366h12v12h-12zM414 294h12v12h-12zM390 318h12v12h-12zM438 318h12v12h-12zM462 318h12v12h-12zM390 342h12v12h-12zM414 342h12v12h-12zM462 342h12v12h-12zM438 366h12v12h-12zM6 390h12v12h-12zM78 390h12v12h-12zM54 414h12v12h-12zM30 438h12v12h-12zM6 462h12v12h-12zM78 462h12v12h-12zM150 390h12v12h-12zM174 414h12v12h-12zM102 438h12v12h-12zM126 462h12v12h-12zM246 390h12v12h-12zM198 414h12v12h-12zM222 414h12v12h-12zM270 414h12v12h-12zM198 438h12v12h-12zM246 438h12v12h-12zM270 438h12v12h-12zM222 462h12v12h-12zM294 390h12v12h-12zM318 390h12v12h-12zM294 414h12v12h-12zM318 414h12v12h-12zM342 438h12v12h-12zM366 438h12v12h-12zM342 462h12v12h-12zM366 462h12v12h-12zM390 390h12v12h-12zM462 390h12v12h-12zM390 462h12v12h-12zM462 462h12v12h-12zM630 390h12v12h-12zM654 390h12v12h-12zM582 462h12v12h-12zM606 462h12v12h-12zM810 426h12v12h-12zM30 486h12v12h-12zM78 486h12v12h-12zM6 510h12v12h-12zM54 510h12v12h-12zM30 534h12v12h-12zM78 534h12v12h-12zM6 558h12v12h-12zM54 558h12v12h-12zM126 486h12v12h-12zM102 510h12v12h-12zM174 534h12v12h-12zM150 558h12v12h-12zM222 486h12v12h-12zM198 510h12v12h-12zM246 510h12v12h-12zM270 510h12v12h-12zM198 534h12v12h-12zM222 534h12v12h-12zM270 534h12v12h-12zM246 558h12v12h-12zM318 486h12v12h-12zM342 486h12v12h-12zM294 510h12v12h-12zM342 510h12v12h-12zM318 534h12v12h-12zM366 534h12v12h-12zM318 558h12v12h-12zM342 558h12v12h-12zM414 486h12v12h-12zM438 534h12v12h-12zM414 558h12v12h-12zM438 558h12v12h-12zM54 582h12v12h-12zM78 582h12v12h-12zM54 606h12v12h-12zM78 606h12v12h-12zM6 630h12v12h-12zM30 630h12v12h-12zM6 654h12v12h-12zM30 654h12v12h-12zM222 582h12v12h-12zM246 582h12v12h-12zM198 606h12v12h-12zM246 606h12v12h-12zM222 630h12v12h-12zM270 630h12v12h-12zM222 654h12v12h-12zM246 654h12v12h-12zM438 582h12v12h-12zM390 606h12v12h-12zM414 606h12v12h-12zM462 606h12v12h-12zM390 630h12v12h-12zM438 630h12v12h-12zM462 630h12v12h-12zM414 654h12v12h-12zM510 606h12v12h-12zM534 606h12v12h-12zM510 630h12v12h-12zM534 630h12v12h-12zM582 582h12v12h-12zM654 582h12v12h-12zM606 606h12v12h-12zM630 606h12v12h-12zM582 654h12v12h-12zM654 654h12v12h-12zM726 582h12v12h-12zM678 606h12v12h-12zM702 606h12v12h-12zM750 606h12v12h-12zM678 630h12v12h-12zM726 630h12v12h-12zM750 630h12v12h-12zM702 654h12v12h-12zM774 582h12v12h-12zM798 606h12v12h-12zM774 630h12v12h-12zM822 630h12v12h-12zM774 654h12v12h-12zM798 654h12v12h-12zM846 654h12v12h-12zM870 582h12v12h-12zM942 582h12v12h-12zM894 606h12v12h-12zM894 630h12v12h-12zM918 630h12v12h-12zM870 654h12v12h-12zM942 654h12v12h-12zM486 678h12v12h-12zM486 702h12v12h-12zM558 726h12v12h-12zM558 750h12v12h-12zM582 678h12v12h-12zM606 702h12v12h-12zM582 726h12v12h-12zM630 726h12v12h-12zM582 750h12v12h-12zM606 750h12v12h-12zM654 750h12v12h-12zM750 678h12v12h-12zM726 702h12v12h-12zM702 726h12v12h-12zM678 750h12v12h-12zM798 678h12v12h-12zM822 678h12v12h-12zM798 750h12v12h-12zM822 750h12v12h-12zM918 678h12v12h-12zM870 702h12v12h-12zM894 702h12v12h-12zM942 702h12v12h-12zM870 726h12v12h-12zM918 726h12v12h-12zM942 726h12v12h-12zM894 750h12v12h-12zM6 774h12v12h-12zM78 774h12v12h-12zM6 846h12v12h-12zM78 846h12v12h-12zM198 774h12v12h-12zM270 774h12v12h-12zM198 822h12v12h-12zM270 822h12v12h-12zM414 774h12v12h-12zM462 774h12v12h-12zM390 798h12v12h-12zM462 822h12v12h-12zM390 846h12v12h-12zM438 846h12v12h-12zM486 774h12v12h-12zM558 774h12v12h-12zM510 798h12v12h-12zM534 798h12v12h-12zM486 822h12v12h-12zM558 822h12v12h-12zM606 774h12v12h-12zM582 798h12v12h-12zM630 798h12v12h-12zM606 822h12v12h-12zM654 822h12v12h-12zM630 846h12v12h-12zM678 774h12v12h-12zM726 774h12v12h-12zM726 798h12v12h-12zM750 798h12v12h-12zM678 822h12v12h-12zM702 822h12v12h-12zM702 846h12v12h-12zM750 846h12v12h-12zM774 774h12v12h-12zM798 774h12v12h-12zM822 846h12v12h-12zM846 846h12v12h-12zM870 798h12v12h-12zM942 798h12v12h-12zM870 822h12v12h-12zM942 822h12v12h-12zM510 870h12v12h-12zM558 870h12v12h-12zM486 894h12v12h-12zM510 894h12v12h-12zM534 918h12v12h-12zM558 918h12v12h-12zM486 942h12v12h-12zM534 942h12v12h-12zM606 870h12v12h-12zM654 870h12v12h-12zM582 894h12v12h-12zM630 894h12v12h-12zM606 918h12v12h-12zM654 918h12v12h-12zM582 942h12v12h-12zM630 942h12v12h-12zM678 894h12v12h-12zM750 894h12v12h-12zM678 918h12v12h-12zM750 918h12v12h-12zM774 870h12v12h-12zM846 870h12v12h-12zM798 894h12v12h-12zM822 894h12v12h-12zM798 918h12v12h-12zM822 918h12v12h-12zM774 942h12v12h-12zM846 942h12v12h-12zM894 870h12v12h-12zM870 894h12v12h-12zM918 894h12v12h-12zM894 918h12v12h-12zM942 918h12v12h-12zM918 942h12v12h-12zM870 486h12v12h-12zM894 510h12v12h-12zM870 534h12v12h-12zM918 534h12v12h-12zM870 558h12v12h-12zM894 558h12v12h-12zM942 558h12v12h-12zM150 582h12v12h-12zM174 582h12v12h-12zM150 606h12v12h-12zM174 606h12v12h-12zM102 630h12v12h-12zM126 630h12v12h-12zM102 654h12v12h-12zM126 654h12v12h-12zM318 6h12v12h-12zM294 30h12v12h-12zM366 54h12v12h-12zM342 78h12v12h-12zM714 426h12v12h-12zM150 102h12v12h-12zM102 126h12v12h-12zM126 126h12v12h-12zM174 126h12v12h-12zM102 150h12v12h-12zM150 150h12v12h-12zM174 150h12v12h-12zM126 174h12v12h-12zM414 102h12v12h-12zM438 102h12v12h-12zM414 174h12v12h-12zM438 174h12v12h-12zM870 390h12v12h-12zM894 414h12v12h-12zM870 438h12v12h-12zM918 438h12v12h-12zM870 462h12v12h-12zM894 462h12v12h-12zM942 462h12v12h-12zM294 870h12v12h-12zM366 870h12v12h-12zM294 918h12v12h-12zM366 918h12v12h-12z"/><path fill="#fff" d="M156 312h12v12h-12zM156 324h12v12h-12zM156 336h12v12h-12zM156 348h12v12h-12zM156 360h12v12h-12zM156 372h12v12h-12zM156 384h12v12h-12zM156 396h12v12h-12zM156 408h12v12h-12zM156 420h12v12h-12zM156 432h12v12h-12zM156 444h12v12h-12zM156 456h12v12h-12zM156 468h12v12h-12zM156 480h12v12h-12zM156 492h12v12h-12zM156 504h12v12h-12zM156 516h12v12h-12zM156 528h12v12h-12zM156 540h12v12h-12zM156 552h12v12h-12zM156 564h12v12h-12zM156 576h12v12h-12zM156 588h12v12h-12zM156 600h12v12h-12zM156 612h12v12h-12zM168 612h12v12h-12zM168 600h12v12h-12zM168 588h12v12h-12zM168 576h12v12h-12zM168 564h12v12h-12zM168 552h12v12h-12zM168 540h12v12h-12zM168 528h12v12h-12zM168 516h12v12h-12zM168 504h12v12h-12zM168 492h12v12h-12zM168 480h12v12h-12zM168 468h12v12h-12zM168 456h12v12h-12zM168 444h12v12h-12zM168 432h12v12h-12zM168 420h12v12h-12zM168 408h12v12h-12zM168 396h12v12h-12zM168 384h12v12h-12zM168 372h12v12h-12zM168 360h12v12h-12zM168 348h12v12h-12zM168 336h12v12h-12zM168 324h12v12h-12zM168 312h12v12h-12zM168 300h12v12h-12zM168 288h12v12h-12zM168 276h12v12h-12zM180 276h12v12h-12zM192 276h12v12h-12zM204 276h12v12h-12zM216 276h12v12h-12zM228 276h12v12h-12zM240 276h12v12h-12zM252 276h12v12h-12zM264 276h12v12h-12zM276 276h12v12h-12zM288 276h12v12h-12zM300 276h12v12h-12zM312 276h12v12h-12zM324 276h12v12h-12zM336 276h12v12h-12zM348 276h12v12h-12zM336 288h12v12h-12zM324 300h12v12h-12zM312 312h12v12h-12zM324 324h12v12h-12zM336 336h12v12h-12zM348 348h12v12h-12zM360 336h12v12h-12zM360 324h12v12h-12zM360 312h12v12h-12zM360 300h12v12h-12zM360 288h12v12h-12zM360 276h12v12h-12zM360 264h12v12h-12zM360 252h12v12h-12zM360 240h12v12h-12zM360 228h12v12h-12zM360 216h12v12h-12zM360 204h12v12h-12zM360 192h12v12h-12zM360 180h12v12h-12zM348 192h12v12h-12zM336 204h12v12h-12zM324 216h12v12h-12zM312 228h12v12h-12zM300 240h12v12h-12zM288 252h12v12h-12zM276 264h12v12h-12zM252 288h12v12h-12zM240 300h12v12h-12zM228 312h12v12h-12zM216 324h12v12h-12zM204 336h12v12h-12zM192 348h12v12h-12zM180 360h12v12h-12zM144 396h12v12h-12zM132 408h12v12h-12zM120 420h12v12h-12zM108 432h12v12h-12zM96 444h12v12h-12zM84 456h12v12h-12zM72 468h12v12h-12zM60 480h12v12h-12zM48 492h12v12h-12zM36 504h12v12h-12zM24 516h12v12h-12zM12 528h12v12h-12zM12 516h12v12h-12zM12 504h12v12h-12zM12 492h12v12h-12zM12 480h12v12h-12zM12 468h12v12h-12zM12 456h12v12h-12zM12 444h12v12h-12zM12 432h12v12h-12zM12 420h12v12h-12zM12 408h12v12h-12zM12 396h12v12h-12zM12 384h12v12h-12zM12 372h12v12h-12zM12 360h12v12h-12zM12 348h12v12h-12zM12 336h12v12h-12zM12 324h12v12h-12zM12 312h12v12h-12zM12 300h12v12h-12zM12 288h12v12h-12zM12 276h12v12h-12zM12 264h12v12h-12zM12 252h12v12h-12zM12 240h12v12h-12zM12 228h12v12h-12zM12 216h12v12h-12zM12 204h12v12h-12zM12 192h12v12h-12zM12 180h12v12h-12zM24 180h12v12h-12zM36 180h12v12h-12zM48 180h12v12h-12zM60 180h12v12h-12zM72 180h12v12h-12zM84 180h12v12h-12zM96 180h12v12h-12zM108 180h12v12h-12zM120 180h12v12h-12zM132 180h12v12h-12zM144 180h12v12h-12zM156 180h12v12h-12zM168 180h12v12h-12zM180 180h12v12h-12zM192 180h12v12h-12zM204 180h12v12h-12zM216 180h12v12h-12zM228 180h12v12h-12zM240 180h12v12h-12zM252 180h12v12h-12zM264 180h12v12h-12zM276 180h12v12h-12zM264 192h12v12h-12zM252 204h12v12h-12zM240 216h12v12h-12zM228 228h12v12h-12zM216 240h12v12h-12zM204 252h12v12h-12zM192 264h12v12h-12zM156 300h12v12h-12zM144 312h12v12h-12zM132 324h12v12h-12zM120 336h12v12h-12zM108 348h12v12h-12zM96 360h12v12h-12zM84 372h12v12h-12zM72 384h12v12h-12zM60 396h12v12h-12zM48 408h12v12h-12zM36 420h12v12h-12zM48 432h12v12h-12zM60 444h12v12h-12zM72 456h12v12h-12zM84 468h12v12h-12zM96 480h12v12h-12zM108 492h12v12h-12zM120 504h12v12h-12zM132 516h12v12h-12zM144 528h12v12h-12zM180 564h12v12h-12zM192 576h12v12h-12zM204 588h12v12h-12zM216 600h12v12h-12zM228 612h12v12h-12zM228 624h12v12h-12zM228 636h12v12h-12zM228 648h12v12h-12zM228 660h12v12h-12zM228 672h12v12h-12zM228 684h12v12h-12zM228 696h12v12h-12zM228 708h12v12h-12zM228 720h12v12h-12zM228 732h12v12h-12zM228 744h12v12h-12zM228 756h12v12h-12zM228 768h12v12h-12zM228 780h12v12h-12zM228 792h12v12h-12zM216 792h12v12h-12zM204 792h12v12h-12zM192 792h12v12h-12zM180 792h12v12h-12zM180 780h12v12h-12zM180 768h12v12h-12zM180 756h12v12h-12zM180 744h12v12h-12zM180 732h12v12h-12zM180 720h12v12h-12zM180 708h12v12h-12zM180 696h12v12h-12zM180 684h12v12h-12zM180 672h12v12h-12zM180 660h12v12h-12zM180 648h12v12h-12zM180 636h12v12h-12zM180 624h12v12h-12zM180 612h12v12h-12zM180 600h12v12h-12zM180 588h12v12h-12zM180 576h12v12h-12zM180 552h12v12h-12zM180 540h12v12h-12zM180 528h12v12h-12zM168 696h12v12h-12zM156 684h12v12h-12zM144 672h12v12h-12zM132 660h12v12h-12zM132 648h12v12h-12zM132 636h12v12h-12zM132 624h12v12h-12zM132 612h12v12h-12zM132 600h12v12h-12zM132 588h12v12h-12zM132 576h12v12h-12zM132 564h12v12h-12zM144 564h12v12h-12zM192 516h12v12h-12zM204 504h12v12h-12zM216 492h12v12h-12zM228 480h12v12h-12zM240 468h12v12h-12zM252 456h12v12h-12zM264 444h12v12h-12zM276 432h12v12h-12zM288 420h12v12h-12zM300 408h12v12h-12zM312 396h12v12h-12zM324 384h12v12h-12zM336 372h12v12h-12zM348 360h12v12h-12zM360 348h12v12h-12zM372 336h12v12h-12zM384 324h12v12h-12zM396 312h12v12h-12zM408 300h12v12h-12zM420 288h12v12h-12zM432 276h12v12h-12zM444 264h12v12h-12zM300 396h12v12h-12zM288 396h12v12h-12zM276 396h12v12h-12zM264 396h12v12h-12zM252 396h12v12h-12zM240 396h12v12h-12zM228 396h12v12h-12zM216 396h12v12h-12zM204 396h12v12h-12zM192 396h12v12h-12zM180 396h12v12h-12zM132 396h12v12h-12zM120 396h12v12h-12zM108 396h12v12h-12zM96 396h12v12h-12zM84 396h12v12h-12zM72 396h12v12h-12zM48 396h12v12h-12zM36 396h12v12h-12zM24 396h12v12h-12zM0 396h12v12h-12zM0 384h12v12h-12zM0 372h12v12h-12zM0 360h12v12h-12zM0 348h12v12h-12zM0 336h12v12h-12zM0 324h12v12h-12zM0 312h12v12h-12zM0 300h12v12h-12zM0 288h12v12h-12zM0 276h12v12h-12zM0 264h12v12h-12zM0 252h12v12h-12zM0 240h12v12h-12zM0 228h12v12h-12zM0 216h12v12h-12zM0 204h12v12h-12zM0 192h12v12h-12zM0 180h12v12h-12zM0 168h12v12h-12zM0 156h12v12h-12zM12 168h12v12h-12zM36 192h12v12h-12zM48 204h12v12h-12zM60 216h12v12h-12zM72 228h12v12h-12zM84 240h12v12h-12zM96 252h12v12h-12zM108 264h12v12h-12zM120 276h12v12h-12zM132 288h12v12h-12zM144 300h12v12h-12zM180 336h12v12h-12zM204 360h12v12h-12zM216 372h12v12h-12zM228 384h12v12h-12zM252 408h12v12h-12zM264 420h12v12h-12zM288 444h12v12h-12zM300 456h12v12h-12zM300 468h12v12h-12zM300 480h12v12h-12zM300 492h12v12h-12zM300 504h12v12h-12zM300 516h12v12h-12zM300 528h12v12h-12zM300 540h12v12h-12zM300 552h12v12h-12zM300 564h12v12h-12zM300 576h12v12h-12zM300 588h12v12h-12zM300 600h12v12h-12zM300 612h12v12h-12zM300 624h12v12h-12zM300 636h12v12h-12zM300 648h12v12h-12zM300 660h12v12h-12zM300 672h12v12h-12zM300 684h12v12h-12zM300 696h12v12h-12zM300 708h12v12h-12zM300 720h12v12h-12zM300 732h12v12h-12zM300 744h12v12h-12zM300 756h12v12h-12zM300 768h12v12h-12zM300 780h12v12h-12zM300 792h12v12h-12zM300 804h12v12h-12zM300 816h12v12h-12zM288 816h12v12h-12zM276 816h12v12h-12zM264 816h12v12h-12zM252 816h12v12h-12zM240 816h12v12h-12zM228 828h12v12h-12zM216 840h12v12h-12zM204 828h12v12h-12zM192 816h12v12h-12zM180 804h12v12h-12zM168 792h12v12h-12zM156 780h12v12h-12zM144 768h12v12h-12zM132 756h12v12h-12zM120 744h12v12h-12zM132 744h12v12h-12zM132 732h12v12h-12zM132 720h12v12h-12zM132 708h12v12h-12zM132 696h12v12h-12zM132 684h12v12h-12zM132 672h12v12h-12zM144 612h12v12h-12zM192 612h12v12h-12zM204 612h12v12h-12zM216 612h12v12h-12zM240 612h12v12h-12zM252 612h12v12h-12zM264 612h12v12h-12zM276 612h12v12h-12zM288 612h12v12h-12zM312 612h12v12h-12zM324 612h12v12h-12zM336 612h12v12h-12zM348 612h12v12h-12zM360 612h12v12h-12zM372 612h12v12h-12zM384 612h12v12h-12zM396 612h12v12h-12zM408 612h12v12h-12zM420 612h12v12h-12zM432 612h12v12h-12zM444 612h12v12h-12zM456 612h12v12h-12zM468 612h12v12h-12zM468 624h12v12h-12zM468 636h12v12h-12zM468 648h12v12h-12zM468 660h12v12h-12zM468 672h12v12h-12zM468 684h12v12h-12zM468 696h12v12h-12zM468 708h12v12h-12zM468 720h12v12h-12zM468 732h12v12h-12zM468 744h12v12h-12zM468 756h12v12h-12zM468 768h12v12h-12zM468 780h12v12h-12zM468 792h12v12h-12zM468 804h12v12h-12zM468 816h12v12h-12zM468 828h12v12h-12zM468 840h12v12h-12zM468 852h12v12h-12zM468 864h12v12h-12zM456 864h12v12h-12zM444 864h12v12h-12zM432 864h12v12h-12zM420 864h12v12h-12zM408 864h12v12h-12zM396 864h12v12h-12zM384 864h12v12h-12zM372 864h12v12h-12zM360 864h12v12h-12zM348 864h12v12h-12zM336 864h12v12h-12zM324 864h12v12h-12zM312 864h12v12h-12zM324 876h12v12h-12zM336 888h12v12h-12zM348 900h12v12h-12zM360 912h12v12h-12zM372 924h12v12h-12zM384 936h12v12h-12zM396 948h12v12h-12zM408 936h12v12h-12zM420 924h12v12h-12zM432 912h12v12h-12zM432 900h12v12h-12zM432 888h12v12h-12zM432 876h12v12h-12zM432 852h12v12h-12zM432 840h12v12h-12zM432 828h12v12h-12zM432 816h12v12h-12zM432 804h12v12h-12zM432 792h12v12h-12zM432 780h12v12h-12zM420 780h12v12h-12zM408 780h12v12h-12zM396 780h12v12h-12zM384 780h12v12h-12zM372 780h12v12h-12zM360 780h12v12h-12zM348 780h12v12h-12zM336 780h12v12h-12zM324 780h12v12h-12zM312 780h12v12h-12zM288 780h12v12h-12zM276 780h12v12h-12zM264 780h12v12h-12zM252 780h12v12h-12zM240 780h12v12h-12zM216 780h12v12h-12zM204 780h12v12h-12zM192 780h12v12h-12zM168 780h12v12h-12zM144 780h12v12h-12zM132 780h12v12h-12zM120 780h12v12h-12zM108 780h12v12h-12zM96 780h12v12h-12zM84 780h12v12h-12zM72 780h12v12h-12zM60 780h12v12h-12zM48 780h12v12h-12zM60 792h12v12h-12zM72 804h12v12h-12zM84 816h12v12h-12zM96 828h12v12h-12zM108 840h12v12h-12zM120 852h12v12h-12zM132 864h12v12h-12zM144 876h12v12h-12zM156 888h12v12h-12zM168 876h12v12h-12zM180 864h12v12h-12zM180 852h12v12h-12zM180 840h12v12h-12zM180 828h12v12h-12zM180 816h12v12h-12zM168 624h12v12h-12zM144 600h12v12h-12zM120 576h12v12h-12zM108 564h12v12h-12zM96 552h12v12h-12zM84 540h12v12h-12zM72 528h12v12h-12zM72 516h12v12h-12zM72 504h12v12h-12zM72 492h12v12h-12zM72 480h12v12h-12zM72 444h12v12h-12zM72 432h12v12h-12zM72 420h12v12h-12zM72 408h12v12h-12zM72 372h12v12h-12zM72 360h12v12h-12zM72 348h12v12h-12zM72 336h12v12h-12zM72 324h12v12h-12zM72 312h12v12h-12zM72 300h12v12h-12zM72 288h12v12h-12zM72 276h12v12h-12zM72 264h12v12h-12zM72 252h12v12h-12zM72 240h12v12h-12zM72 216h12v12h-12zM72 204h12v12h-12zM84 204h12v12h-12zM96 204h12v12h-12zM108 204h12v12h-12zM120 204h12v12h-12zM132 204h12v12h-12zM144 204h12v12h-12zM156 204h12v12h-12zM168 204h12v12h-12zM180 204h12v12h-12zM192 204h12v12h-12zM204 204h12v12h-12zM216 204h12v12h-12zM228 204h12v12h-12zM240 204h12v12h-12zM264 204h12v12h-12zM276 204h12v12h-12zM288 204h12v12h-12zM300 204h12v12h-12zM312 204h12v12h-12zM324 204h12v12h-12zM312 216h12v12h-12zM300 228h12v12h-12zM288 240h12v12h-12zM276 252h12v12h-12zM264 264h12v12h-12zM240 288h12v12h-12zM228 300h12v12h-12zM216 312h12v12h-12zM204 324h12v12h-12zM192 336h12v12h-12zM180 348h12v12h-12zM144 384h12v12h-12zM120 408h12v12h-12zM108 420h12v12h-12zM96 432h12v12h-12zM84 444h12v12h-12zM60 468h12v12h-12zM48 480h12v12h-12zM36 492h12v12h-12zM24 504h12v12h-12zM24 492h12v12h-12zM24 480h12v12h-12zM24 468h12v12h-12zM24 456h12v12h-12zM24 444h12v12h-12zM24 432h12v12h-12zM24 420h12v12h-12zM24 408h12v12h-12zM24 384h12v12h-12zM24 372h12v12h-12zM24 360h12v12h-12zM24 348h12v12h-12zM24 336h12v12h-12zM24 324h12v12h-12zM24 312h12v12h-12zM24 300h12v12h-12zM24 288h12v12h-12zM24 276h12v12h-12zM24 264h12v12h-12zM24 252h12v12h-12zM24 240h12v12h-12zM24 228h12v12h-12zM24 216h12v12h-12zM24 204h12v12h-12zM24 192h12v12h-12zM24 168h12v12h-12zM24 156h12v12h-12zM24 144h12v12h-12zM792 312h12v12h-12zM792 324h12v12h-12zM792 336h12v12h-12zM792 348h12v12h-12zM792 360h12v12h-12zM792 372h12v12h-12zM792 384h12v12h-12zM792 396h12v12h-12zM792 408h12v12h-12zM792 420h12v12h-12zM792 432h12v12h-12zM792 444h12v12h-12zM792 456h12v12h-12zM792 468h12v12h-12zM792 480h12v12h-12zM792 492h12v12h-12zM792 504h12v12h-12zM792 516h12v12h-12zM792 528h12v12h-12zM792 540h12v12h-12zM792 552h12v12h-12zM792 564h12v12h-12zM792 576h12v12h-12zM792 588h12v12h-12zM792 600h12v12h-12zM792 612h12v12h-12zM780 612h12v12h-12zM780 600h12v12h-12zM780 588h12v12h-12zM780 576h12v12h-12zM780 564h12v12h-12zM780 552h12v12h-12zM780 540h12v12h-12zM780 528h12v12h-12zM780 516h12v12h-12zM780 504h12v12h-12zM780 492h12v12h-12zM780 480h12v12h-12zM780 468h12v12h-12zM780 456h12v12h-12zM780 444h12v12h-12zM780 432h12v12h-12zM780 420h12v12h-12zM780 408h12v12h-12zM780 396h12v12h-12zM780 384h12v12h-12zM780 372h12v12h-12zM780 360h12v12h-12zM780 348h12v12h-12zM780 336h12v12h-12zM780 324h12v12h-12zM780 312h12v12h-12zM780 300h12v12h-12zM780 288h12v12h-12zM780 276h12v12h-12zM768 276h12v12h-12zM756 276h12v12h-12zM744 276h12v12h-12zM732 276h12v12h-12zM720 276h12v12h-12zM708 276h12v12h-12zM696 276h12v12h-12zM684 276h12v12h-12zM672 276h12v12h-12zM660 276h12v12h-12zM648 276h12v12h-12zM636 276h12v12h-12zM624 276h12v12h-12zM612 276h12v12h-12zM600 276h12v12h-12zM612 288h12v12h-12zM624 300h12v12h-12zM636 312h12v12h-12zM624 324h12v12h-12zM612 336h12v12h-12zM600 348h12v12h-12zM588 336h12v12h-12zM588 324h12v12h-12zM588 312h12v12h-12zM588 300h12v12h-12zM588 288h12v12h-12zM588 276h12v12h-12zM588 264h12v12h-12zM588 252h12v12h-12zM588 240h12v12h-12zM588 228h12v12h-12zM588 216h12v12h-12zM588 204h12v12h-12zM588 192h12v12h-12zM588 180h12v12h-12zM600 192h12v12h-12zM612 204h12v12h-12zM624 216h12v12h-12zM636 228h12v12h-12zM648 240h12v12h-12zM660 252h12v12h-12zM672 264h12v12h-12zM696 288h12v12h-12zM708 300h12v12h-12zM720 312h12v12h-12zM732 324h12v12h-12zM744 336h12v12h-12zM756 348h12v12h-12zM768 360h12v12h-12zM804 396h12v12h-12zM816 408h12v12h-12zM828 420h12v12h-12zM840 432h12v12h-12zM852 444h12v12h-12zM864 456h12v12h-12zM876 468h12v12h-12zM888 480h12v12h-12zM900 492h12v12h-12zM912 504h12v12h-12zM924 516h12v12h-12zM936 528h12v12h-12zM936 516h12v12h-12zM936 504h12v12h-12zM936 492h12v12h-12zM936 480h12v12h-12zM936 468h12v12h-12zM936 456h12v12h-12zM936 444h12v12h-12zM936 432h12v12h-12zM936 420h12v12h-12zM936 408h12v12h-12zM936 396h12v12h-12zM936 384h12v12h-12zM936 372h12v12h-12zM936 360h12v12h-12zM936 348h12v12h-12zM936 336h12v12h-12zM936 324h12v12h-12zM936 312h12v12h-12zM936 300h12v12h-12zM936 288h12v12h-12zM936 276h12v12h-12zM936 264h12v12h-12zM936 252h12v12h-12zM936 240h12v12h-12zM936 228h12v12h-12zM936 216h12v12h-12zM936 204h12v12h-12zM936 192h12v12h-12zM936 180h12v12h-12zM924 180h12v12h-12zM912 180h12v12h-12zM900 180h12v12h-12zM888 180h12v12h-12zM876 180h12v12h-12zM864 180h12v12h-12zM852 180h12v12h-12zM840 180h12v12h-12zM828 180h12v12h-12zM816 180h12v12h-12zM804 180h12v12h-12zM792 180h12v12h-12zM780 180h12v12h-12zM768 180h12v12h-12zM756 180h12v12h-12zM744 180h12v12h-12zM732 180h12v12h-12zM720 180h12v12h-12zM708 180h12v12h-12zM696 180h12v12h-12zM684 180h12v12h-12zM672 180h12v12h-12zM684 192h12v12h-12zM696 204h12v12h-12zM708 216h12v12h-12zM720 228h12v12h-12zM732 240h12v12h-12zM744 252h12v12h-12zM756 264h12v12h-12zM792 300h12v12h-12zM804 312h12v12h-12zM816 324h12v12h-12zM828 336h12v12h-12zM840 348h12v12h-12zM852 360h12v12h-12zM864 372h12v12h-12zM876 384h12v12h-12zM888 396h12v12h-12zM900 408h12v12h-12zM912 420h12v12h-12zM900 432h12v12h-12zM888 444h12v12h-12zM876 456h12v12h-12zM864 468h12v12h-12zM852 480h12v12h-12zM840 492h12v12h-12zM828 504h12v12h-12zM816 516h12v12h-12zM804 528h12v12h-12zM768 564h12v12h-12zM756 576h12v12h-12zM744 588h12v12h-12zM732 600h12v12h-12zM720 612h12v12h-12zM720 624h12v12h-12zM720 636h12v12h-12zM720 648h12v12h-12zM720 660h12v12h-12zM720 672h12v12h-12zM720 684h12v12h-12zM720 696h12v12h-12zM720 708h12v12h-12zM720 720h12v12h-12zM720 732h12v12h-12zM720 744h12v12h-12zM720 756h12v12h-12zM720 768h12v12h-12zM720 780h12v12h-12zM720 792h12v12h-12zM732 792h12v12h-12zM744 792h12v12h-12zM756 792h12v12h-12zM768 792h12v12h-12zM768 780h12v12h-12zM768 768h12v12h-12zM768 756h12v12h-12zM768 744h12v12h-12zM768 732h12v12h-12zM768 720h12v12h-12zM768 708h12v12h-12zM768 696h12v12h-12zM768 684h12v12h-12zM768 672h12v12h-12zM768 660h12v12h-12zM768 648h12v12h-12zM768 636h12v12h-12zM768 624h12v12h-12zM768 612h12v12h-12zM768 600h12v12h-12zM768 588h12v12h-12zM768 576h12v12h-12zM768 552h12v12h-12zM768 540h12v12h-12zM768 528h12v12h-12zM780 696h12v12h-12zM792 684h12v12h-12zM804 672h12v12h-12zM816 660h12v12h-12zM816 648h12v12h-12zM816 636h12v12h-12zM816 624h12v12h-12zM816 612h12v12h-12zM816 600h12v12h-12zM816 588h12v12h-12zM816 576h12v12h-12zM816 564h12v12h-12zM804 564h12v12h-12zM756 516h12v12h-12zM744 504h12v12h-12zM732 492h12v12h-12zM720 480h12v12h-12zM708 468h12v12h-12zM696 456h12v12h-12zM684 444h12v12h-12zM672 432h12v12h-12zM660 420h12v12h-12zM648 408h12v12h-12zM636 396h12v12h-12zM624 384h12v12h-12zM612 372h12v12h-12zM600 360h12v12h-12zM588 348h12v12h-12zM576 336h12v12h-12zM564 324h12v12h-12zM552 312h12v12h-12zM540 300h12v12h-12zM528 288h12v12h-12zM516 276h12v12h-12zM504 264h12v12h-12zM648 396h12v12h-12zM660 396h12v12h-12zM672 396h12v12h-12zM684 396h12v12h-12zM696 396h12v12h-12zM708 396h12v12h-12zM720 396h12v12h-12zM732 396h12v12h-12zM744 396h12v12h-12zM756 396h12v12h-12zM768 396h12v12h-12zM816 396h12v12h-12zM828 396h12v12h-12zM840 396h12v12h-12zM852 396h12v12h-12zM864 396h12v12h-12zM876 396h12v12h-12zM900 396h12v12h-12zM912 396h12v12h-12zM924 396h12v12h-12zM948 396h12v12h-12zM948 384h12v12h-12zM948 372h12v12h-12zM948 360h12v12h-12zM948 348h12v12h-12zM948 336h12v12h-12zM948 324h12v12h-12zM948 312h12v12h-12zM948 300h12v12h-12zM948 288h12v12h-12zM948 276h12v12h-12zM948 264h12v12h-12zM948 252h12v12h-12zM948 240h12v12h-12zM948 228h12v12h-12zM948 216h12v12h-12zM948 204h12v12h-12zM948 192h12v12h-12zM948 180h12v12h-12zM948 168h12v12h-12zM948 156h12v12h-12zM936 168h12v12h-12zM912 192h12v12h-12zM900 204h12v12h-12zM888 216h12v12h-12zM876 228h12v12h-12zM864 240h12v12h-12zM852 252h12v12h-12zM840 264h12v12h-12zM828 276h12v12h-12zM816 288h12v12h-12zM804 300h12v12h-12zM768 336h12v12h-12zM744 360h12v12h-12zM732 372h12v12h-12zM720 384h12v12h-12zM696 408h12v12h-12zM684 420h12v12h-12zM660 444h12v12h-12zM648 456h12v12h-12zM648 468h12v12h-12zM648 480h12v12h-12zM648 492h12v12h-12zM648 504h12v12h-12zM648 516h12v12h-12zM648 528h12v12h-12zM648 540h12v12h-12zM648 552h12v12h-12zM648 564h12v12h-12zM648 576h12v12h-12zM648 588h12v12h-12zM648 600h12v12h-12zM648 612h12v12h-12zM648 624h12v12h-12zM648 636h12v12h-12zM648 648h12v12h-12zM648 660h12v12h-12zM648 672h12v12h-12zM648 684h12v12h-12zM648 696h12v12h-12zM648 708h12v12h-12zM648 720h12v12h-12zM648 732h12v12h-12zM648 744h12v12h-12zM648 756h12v12h-12zM648 768h12v12h-12zM648 780h12v12h-12zM648 792h12v12h-12zM648 804h12v12h-12zM648 816h12v12h-12zM660 816h12v12h-12zM672 816h12v12h-12zM684 816h12v12h-12zM696 816h12v12h-12zM708 816h12v12h-12zM720 828h12v12h-12zM732 840h12v12h-12zM744 828h12v12h-12zM756 816h12v12h-12zM768 804h12v12h-12zM780 792h12v12h-12zM792 780h12v12h-12zM804 768h12v12h-12zM816 756h12v12h-12zM828 744h12v12h-12zM816 744h12v12h-12zM816 732h12v12h-12zM816 720h12v12h-12zM816 708h12v12h-12zM816 696h12v12h-12zM816 684h12v12h-12zM816 672h12v12h-12zM804 612h12v12h-12zM756 612h12v12h-12zM744 612h12v12h-12zM732 612h12v12h-12zM708 612h12v12h-12zM696 612h12v12h-12zM684 612h12v12h-12zM672 612h12v12h-12zM660 612h12v12h-12zM636 612h12v12h-12zM624 612h12v12h-12zM612 612h12v12h-12zM600 612h12v12h-12zM588 612h12v12h-12zM576 612h12v12h-12zM564 612h12v12h-12zM552 612h12v12h-12zM540 612h12v12h-12zM528 612h12v12h-12zM516 612h12v12h-12zM504 612h12v12h-12zM492 612h12v12h-12zM480 612h12v12h-12zM480 624h12v12h-12zM480 636h12v12h-12zM480 648h12v12h-12zM480 660h12v12h-12zM480 672h12v12h-12zM480 684h12v12h-12zM480 696h12v12h-12zM480 708h12v12h-12zM480 720h12v12h-12zM480 732h12v12h-12zM480 744h12v12h-12zM480 756h12v12h-12zM480 768h12v12h-12zM480 780h12v12h-12zM480 792h12v12h-12zM480 804h12v12h-12zM480 816h12v12h-12zM480 828h12v12h-12zM480 840h12v12h-12zM480 852h12v12h-12zM480 864h12v12h-12zM492 864h12v12h-12zM504 864h12v12h-12zM516 864h12v12h-12zM528 864h12v12h-12zM540 864h12v12h-12zM552 864h12v12h-12zM564 864h12v12h-12zM576 864h12v12h-12zM588 864h12v12h-12zM600 864h12v12h-12zM612 864h12v12h-12zM624 864h12v12h-12zM636 864h12v12h-12zM624 876h12v12h-12zM612 888h12v12h-12zM600 900h12v12h-12zM588 912h12v12h-12zM576 924h12v12h-12zM564 936h12v12h-12zM552 948h12v12h-12zM540 936h12v12h-12zM528 924h12v12h-12zM516 912h12v12h-12zM516 900h12v12h-12zM516 888h12v12h-12zM516 876h12v12h-12zM516 852h12v12h-12zM516 840h12v12h-12zM516 828h12v12h-12zM516 816h12v12h-12zM516 804h12v12h-12zM516 792h12v12h-12zM516 780h12v12h-12zM528 780h12v12h-12zM540 780h12v12h-12zM552 780h12v12h-12zM564 780h12v12h-12zM576 780h12v12h-12zM588 780h12v12h-12zM600 780h12v12h-12zM612 780h12v12h-12zM624 780h12v12h-12zM636 780h12v12h-12zM660 780h12v12h-12zM672 780h12v12h-12zM684 780h12v12h-12zM696 780h12v12h-12zM708 780h12v12h-12zM732 780h12v12h-12zM744 780h12v12h-12zM756 780h12v12h-12zM780 780h12v12h-12zM804 780h12v12h-12zM816 780h12v12h-12zM828 780h12v12h-12zM840 780h12v12h-12zM852 780h12v12h-12zM864 780h12v12h-12zM876 780h12v12h-12zM888 780h12v12h-12zM900 780h12v12h-12zM888 792h12v12h-12zM876 804h12v12h-12zM864 816h12v12h-12zM852 828h12v12h-12zM840 840h12v12h-12zM828 852h12v12h-12zM816 864h12v12h-12zM804 876h12v12h-12zM792 888h12v12h-12zM780 876h12v12h-12zM768 864h12v12h-12zM768 852h12v12h-12zM768 840h12v12h-12zM768 828h12v12h-12zM768 816h12v12h-12zM780 624h12v12h-12zM804 600h12v12h-12zM828 576h12v12h-12zM840 564h12v12h-12zM852 552h12v12h-12zM864 540h12v12h-12zM876 528h12v12h-12zM876 516h12v12h-12zM876 504h12v12h-12zM876 492h12v12h-12zM876 480h12v12h-12zM876 444h12v12h-12zM876 432h12v12h-12zM876 420h12v12h-12zM876 408h12v12h-12zM876 372h12v12h-12zM876 360h12v12h-12zM876 348h12v12h-12zM876 336h12v12h-12zM876 324h12v12h-12zM876 312h12v12h-12zM876 300h12v12h-12zM876 288h12v12h-12zM876 276h12v12h-12zM876 264h12v12h-12zM876 252h12v12h-12zM876 240h12v12h-12zM876 216h12v12h-12zM876 204h12v12h-12zM864 204h12v12h-12zM852 204h12v12h-12zM840 204h12v12h-12zM828 204h12v12h-12zM816 204h12v12h-12zM804 204h12v12h-12zM792 204h12v12h-12zM780 204h12v12h-12zM768 204h12v12h-12zM756 204h12v12h-12zM744 204h12v12h-12zM732 204h12v12h-12zM720 204h12v12h-12zM708 204h12v12h-12zM684 204h12v12h-12zM672 204h12v12h-12zM660 204h12v12h-12zM648 204h12v12h-12zM636 204h12v12h-12zM624 204h12v12h-12zM636 216h12v12h-12zM648 228h12v12h-12zM660 240h12v12h-12zM672 252h12v12h-12zM684 264h12v12h-12zM708 288h12v12h-12zM720 300h12v12h-12zM732 312h12v12h-12zM744 324h12v12h-12zM756 336h12v12h-12zM768 348h12v12h-12zM804 384h12v12h-12zM828 408h12v12h-12zM840 420h12v12h-12zM852 432h12v12h-12zM864 444h12v12h-12zM888 468h12v12h-12zM900 480h12v12h-12zM912 492h12v12h-12zM924 504h12v12h-12zM924 492h12v12h-12zM924 480h12v12h-12zM924 468h12v12h-12zM924 456h12v12h-12zM924 444h12v12h-12zM924 432h12v12h-12zM924 420h12v12h-12zM924 408h12v12h-12zM924 384h12v12h-12zM924 372h12v12h-12zM924 360h12v12h-12zM924 348h12v12h-12zM924 336h12v12h-12zM924 324h12v12h-12zM924 312h12v12h-12zM924 300h12v12h-12zM924 288h12v12h-12zM924 276h12v12h-12zM924 264h12v12h-12zM924 252h12v12h-12zM924 240h12v12h-12zM924 228h12v12h-12zM924 216h12v12h-12zM924 204h12v12h-12zM924 192h12v12h-12zM924 168h12v12h-12zM924 156h12v12h-12zM924 144h12v12h-12z"/></svg>