<svg xmlns="http://www.w3.org/2000/svg" width="960" height="960" viewBox="0 0 960 960" shape-rendering="crispEdges"><path fill="#fff" d="M0 0h960v960h-960z"/><path fill="#00b3d6" d="M480 96h96v96h-96zM480 288h96v96h-96zM480 480h96v96h-96zM480 672h96v96h-96zM480 864h96v96h-96zM576 96h96v96h-96zM576 288h96v96h-96zM576 480h96v96h-96zM576 672h96v96h-96zM576 864h96v96h-96zM672 96h96v96h-96zM672 288h96v96h-96zM672 480h96v96h-96zM672 672h96v96h-96zM672 864h96v96h-96zM768 96h96v96h-96zM768 288h96v96h-96zM768 480h96v96h-96zM768 672h96v96h-96zM768 864h96v96h-96zM864 96h96v96h-96zM864 288h96v96h-96zM864 480h96v96h-96zM864 672h96v96h-96zM864 864h96v96h-96z"/><path fill="#b8bea2" d="M24 0h24v24h-24zM72 0h24v24h-24zM0 24h24v24h-24zM24 24h24v24h-24zM48 48h24v24h-24zM72 48h24v24h-24zM0 72h24v24h-24zM48 72h24v24h-24zM192 24h24v24h-24zM264 24h24v24h-24zM192 48h24v24h-24zM264 48h24v24h-24zM384 0h24v24h-24zM456 0h24v24h-24zM408 24h24v24h-24zM432 48h24v24h-24zM384 72h24v24h-24zM456 72h24v24h-24zM504 0h24v24h-24zM528 0h24v24h-24zM504 72h24v24h-24zM528 72h24v24h-24zM576 0h24v24h-24zM648 0h24v24h-24zM624 24h24v24h-24zM600 48h24v24h-24zM576 72h24v24h-24zM648 72h24v24h-24zM696 0h24v24h-24zM720 48h24v24h-24zM696 72h24v24h-24zM720 72h24v24h-24zM792 0h24v24h-24zM840 0h24v24h-24zM768 24h24v24h-24zM792 24h24v24h-24zM816 48h24v24h-24zM840 48h24v24h-24zM768 72h24v24h-24zM816 72h24v24h-24zM864 0h24v24h-24zM864 24h24v24h-24zM936 48h24v24h-24zM936 72h24v24h-24zM528 96h24v24h-24zM552 96h24v24h-24zM480 168h24v24h-24zM504 168h24v24h-24zM600 96h24v24h-24zM576 120h24v24h-24zM600 120h24v24h-24zM624 144h24v24h-24zM648 144h24v24h-24zM624 168h24v24h-24zM672 96h24v24h-24zM696 96h24v24h-24zM720 168h24v24h-24zM744 168h24v24h-24zM768 96h24v24h-24zM792 96h24v24h-24zM840 96h24v24h-24zM768 120h24v24h-24zM816 120h24v24h-24zM792 144h24v24h-24zM768 168h24v24h-24zM864 96h24v24h-24zM888 120h24v24h-24zM912 144h24v24h-24zM936 168h24v24h-24zM72 192h24v24h-24zM48 216h24v24h-24zM24 240h24v24h-24zM0 264h24v24h-24zM192 192h24v24h-24zM264 192h24v24h-24zM216 216h24v24h-24zM240 240h24v24h-24zM192 264h24v24h-24zM264 264h24v24h-24zM384 192h24v24h-24zM432 192h24v24h-24zM456 216h24v24h-24zM384 240h24v24h-24zM408 264h24v24h-24zM456 264h24v24h-24zM480 192h24v24h-24zM504 192h24v24h-24zM528 264h24v24h-24zM552 264h24v24h-24zM648 192h24v24h-24zM624 216h24v24h-24zM600 240h24v24h-24zM576 264h24v24h-24zM672 192h24v24h-24zM672 216h24v24h-24zM744 240h24v24h-24zM744 264h24v24h-24zM768 192h24v24h-24zM840 192h24v24h-24zM816 216h24v24h-24zM792 240h24v24h-24zM816 240h24v24h-24zM768 264h24v24h-24zM840 264h24v24h-24zM888 192h24v24h-24zM912 240h24v24h-24zM888 264h24v24h-24zM912 264h24v24h-24zM480 288h24v24h-24zM528 288h24v24h-24zM552 312h24v24h-24zM480 336h24v24h-24zM504 360h24v24h-24zM552 360h24v24h-24zM624 288h24v24h-24zM600 312h24v24h-24zM648 312h24v24h-24zM576 336h24v24h-24zM624 336h24v24h-24zM600 360h24v24h-24zM720 288h24v24h-24zM672 312h24v24h-24zM696 312h24v24h-24zM744 312h24v24h-24zM672 336h24v24h-24zM720 336h24v24h-24zM744 336h24v24h-24zM696 360h24v24h-24zM792 288h24v24h-24zM840 288h24v24h-24zM768 312h24v24h-24zM792 312h24v24h-24zM816 336h24v24h-24zM840 336h24v24h-24zM768 360h24v24h-24zM816 360h24v24h-24zM888 288h24v24h-24zM912 288h24v24h-24zM888 360h24v24h-24zM912 360h24v24h-24zM0 408h24v24h-24zM72 408h24v24h-24zM0 432h24v24h-24zM72 432h24v24h-24zM264 384h24v24h-24zM240 408h24v24h-24zM216 432h24v24h-24zM192 456h24v24h-24zM408 384h24v24h-24zM432 384h24v24h-24zM408 456h24v24h-24zM432 456h24v24h-24zM480 384h24v24h-24zM504 384h24v24h-24zM480 408h24v24h-24zM504 408h24v24h-24zM528 432h24v24h-24zM552 432h24v24h-24zM528 456h24v24h-24zM552 456h24v24h-24zM600 384h24v24h-24zM576 408h24v24h-24zM648 432h24v24h-24zM624 456h24v24h-24zM672 384h24v24h-24zM744 384h24v24h-24zM720 408h24v24h-24zM696 432h24v24h-24zM672 456h24v24h-24zM744 456h24v24h-24zM840 528h24v24h-24zM792 384h24v24h-24zM816 384h24v24h-24zM792 408h24v24h-24zM840 408h24v24h-24zM768 432h24v24h-24zM816 432h24v24h-24zM792 456h24v24h-24zM816 456h24v24h-24zM888 384h24v24h-24zM936 384h24v24h-24zM888 456h24v24h-24zM936 456h24v24h-24zM24 480h24v24h-24zM0 504h24v24h-24zM48 504h24v24h-24zM24 528h24v24h-24zM72 528h24v24h-24zM48 552h24v24h-24zM144 480h24v24h-24zM96 504h24v24h-24zM120 504h24v24h-24zM168 504h24v24h-24zM96 528h24v24h-24zM144 528h24v24h-24zM168 528h24v24h-24zM120 552h24v24h-24zM240 480h24v24h-24zM264 480h24v24h-24zM192 552h24v24h-24zM216 552h24v24h-24zM288 480h24v24h-24zM360 480h24v24h-24zM312 528h24v24h-24zM336 528h24v24h-24zM288 552h24v24h-24zM360 552h24v24h-24zM384 480h24v24h-24zM408 504h24v24h-24zM432 528h24v24h-24zM456 552h24v24h-24zM0 576h24v24h-24zM24 600h24v24h-24zM0 624h24v24h-24zM48 624h24v24h-24zM0 648h24v24h-24zM24 648h24v24h-24zM72 648h24v24h-24zM96 576h24v24h-24zM168 576h24v24h-24zM120 624h24v24h-24zM144 624h24v24h-24zM96 648h24v24h-24zM168 648h24v24h-24zM192 576h24v24h-24zM240 576h24v24h-24zM216 600h24v24h-24zM264 600h24v24h-24zM192 624h24v24h-24zM240 624h24v24h-24zM216 648h24v24h-24zM264 648h24v24h-24zM288 576h24v24h-24zM336 576h24v24h-24zM360 600h24v24h-24zM288 624h24v24h-24zM312 648h24v24h-24zM360 648h24v24h-24zM384 600h24v24h-24zM456 600h24v24h-24zM384 624h24v24h-24zM408 624h24v24h-24zM600 576h24v24h-24zM624 576h24v24h-24zM624 600h24v24h-24zM600 648h24v24h-24zM840 576h24v24h-24zM816 600h24v24h-24zM792 624h24v24h-24zM768 648h24v24h-24zM24 672h24v24h-24zM0 696h24v24h-24zM48 696h24v24h-24zM72 696h24v24h-24zM0 720h24v24h-24zM24 720h24v24h-24zM72 720h24v24h-24zM48 744h24v24h-24zM120 672h24v24h-24zM144 672h24v24h-24zM120 744h24v24h-24zM144 744h24v24h-24zM192 696h24v24h-24zM264 696h24v24h-24zM192 720h24v24h-24zM264 720h24v24h-24zM312 672h24v24h-24zM336 672h24v24h-24zM312 744h24v24h-24zM336 744h24v24h-24zM384 672h24v24h-24zM456 672h24v24h-24zM384 744h24v24h-24zM456 744h24v24h-24zM0 768h24v24h-24zM72 768h24v24h-24zM24 792h24v24h-24zM24 816h24v24h-24zM48 816h24v24h-24zM0 840h24v24h-24zM72 840h24v24h-24zM120 768h24v24h-24zM144 816h24v24h-24zM120 840h24v24h-24zM144 840h24v24h-24zM192 768h24v24h-24zM240 768h24v24h-24zM240 792h24v24h-24zM264 792h24v24h-24zM192 816h24v24h-24zM216 816h24v24h-24zM216 840h24v24h-24zM264 840h24v24h-24zM288 792h24v24h-24zM360 792h24v24h-24zM288 816h24v24h-24zM312 816h24v24h-24zM408 792h24v24h-24zM432 792h24v24h-24zM408 816h24v24h-24zM432 816h24v24h-24zM600 768h24v24h-24zM576 792h24v24h-24zM600 792h24v24h-24zM624 816h24v24h-24zM648 816h24v24h-24zM624 840h24v24h-24zM768 768h24v24h-24zM792 768h24v24h-24zM768 792h24v24h-24zM792 792h24v24h-24zM816 816h24v24h-24zM840 816h24v24h-24zM816 840h24v24h-24zM840 840h24v24h-24zM48 864h24v24h-24zM0 888h24v24h-24zM24 888h24v24h-24zM72 888h24v24h-24zM0 912h24v24h-24zM48 912h24v24h-24zM72 912h24v24h-24zM24 936h24v24h-24zM120 864h24v24h-24zM168 864h24v24h-24zM96 888h24v24h-24zM144 888h24v24h-24zM120 912h24v24h-24zM168 912h24v24h-24zM96 936h24v24h-24zM144 936h24v24h-24zM192 864h24v24h-24zM240 864h24v24h-24zM264 888h24v24h-24zM192 912h24v24h-24zM216 936h24v24h-24zM264 936h24v24h-24zM336 864h24v24h-24zM336 888h24v24h-24zM360 888h24v24h-24zM288 912h24v24h-24zM312 912h24v24h-24zM312 936h24v24h-24zM408 864h24v24h-24zM432 864h24v24h-24zM432 888h24v24h-24zM408 936h24v24h-24zM936 672h24v24h-24zM912 696h24v24h-24zM888 720h24v24h-24zM864 744h24v24h-24zM480 576h24v24h-24zM552 576h24v24h-24zM480 648h24v24h-24zM552 648h24v24h-24zM840 672h24v24h-24zM816 696h24v24h-24zM792 720h24v24h-24zM768 744h24v24h-24zM96 288h24v24h-24zM168 288h24v24h-24zM120 312h24v24h-24zM144 336h24v24h-24zM96 360h24v24h-24zM168 360h24v24h-24zM600 672h24v24h-24zM576 696h24v24h-24zM600 696h24v24h-24zM624 720h24v24h-24zM648 720h24v24h-24zM624 744h24v24h-24zM504 672h24v24h-24zM528 672h24v24h-24zM528 696h24v24h-24zM504 744h24v24h-24zM864 864h24v24h-24zM888 864h24v24h-24zM864 888h24v24h-24zM888 888h24v24h-24zM912 912h24v24h-24zM936 912h24v24h-24zM912 936h24v24h-24zM936 936h24v24h-24z"/><path fill="#000" d="M432 192h48v48h-48zM384 192h48v48h-48zM336 192h48v48h-48zM288 192h48v48h-48zM240 192h48v48h-48zM192 240h48v48h-48zM144 288h48v48h-48zM96 240h48v48h-48zM48 192h48v48h-48zM0 144h48v48h-48zM0 192h48v48h-48zM0 240h48v48h-48zM0 288h48v48h-48zM0 336h48v48h-48zM0 384h48v48h-48zM48 336h48v48h-48zM0 96h48v48h-48zM48 144h48v48h-48zM96 192h48v48h-48zM144 240h48v48h-48zM192 288h48v48h-48zM240 288h48v48h-48zM144 192h48v48h-48zM96 144h48v48h-48zM144 144h48v48h-48zM144 96h48v48h-48zM144 48h48v48h-48zM144 0h48v48h-48zM192 0h48v48h-48zM240 0h48v48h-48zM288 0h48v48h-48zM336 0h48v48h-48zM384 0h48v48h-48zM384 48h48v48h-48zM384 96h48v48h-48zM384 144h48v48h-48zM384 240h48v48h-48zM384 288h48v48h-48zM384 336h48v48h-48zM336 96h48v48h-48zM336 144h48v48h-48zM288 144h48v48h-48zM240 144h48v48h-48zM192 144h48v48h-48zM192 192h48v48h-48zM192 336h48v48h-48zM192 384h48v48h-48zM144 384h48v48h-48zM96 384h48v48h-48zM48 384h48v48h-48zM864 384h48v48h-48zM864 336h48v48h-48zM864 288h48v48h-48zM864 240h48v48h-48zM864 192h48v48h-48zM864 144h48v48h-48zM864 96h48v48h-48zM816 96h48v48h-48zM768 96h48v48h-48zM720 96h48v48h-48zM672 96h48v48h-48zM624 96h48v48h-48zM576 96h48v48h-48zM528 96h48v48h-48zM480 96h48v48h-48zM480 144h48v48h-48zM480 192h48v48h-48zM480 240h48v48h-48zM480 288h48v48h-48zM480 336h48v48h-48zM480 384h48v48h-48zM480 432h48v48h-48zM528 432h48v48h-48zM576 432h48v48h-48zM528 384h48v48h-48zM528 336h48v48h-48zM528 288h48v48h-48zM528 240h48v48h-48zM528 192h48v48h-48zM528 144h48v48h-48zM576 48h48v48h-48zM576 144h48v48h-48zM672 48h48v48h-48zM720 0h48v48h-48zM720 48h48v48h-48zM720 144h48v48h-48zM720 192h48v48h-48zM720 240h48v48h-48zM720 288h48v48h-48zM672 288h48v48h-48zM624 288h48v48h-48zM576 288h48v48h-48zM576 240h48v48h-48zM576 192h48v48h-48zM624 192h48v48h-48zM672 192h48v48h-48zM768 192h48v48h-48zM816 192h48v48h-48zM864 432h48v48h-48zM864 48h48v48h-48zM816 48h48v48h-48zM768 144h48v48h-48zM672 240h48v48h-48zM576 336h48v48h-48zM576 384h48v48h-48zM624 144h48v48h-48zM672 144h48v48h-48zM672 336h48v48h-48zM672 384h48v48h-48zM672 432h48v48h-48zM432 720h48v48h-48zM384 720h48v48h-48zM336 720h48v48h-48zM288 720h48v48h-48zM240 720h48v48h-48zM192 672h48v48h-48zM144 624h48v48h-48zM96 672h48v48h-48zM48 720h48v48h-48zM0 768h48v48h-48zM0 720h48v48h-48zM0 672h48v48h-48zM0 624h48v48h-48zM0 576h48v48h-48zM0 528h48v48h-48zM48 576h48v48h-48zM0 816h48v48h-48zM48 768h48v48h-48zM96 720h48v48h-48zM144 672h48v48h-48zM192 624h48v48h-48zM240 624h48v48h-48zM144 720h48v48h-48zM96 768h48v48h-48zM144 768h48v48h-48zM144 816h48v48h-48zM144 864h48v48h-48zM144 912h48v48h-48zM192 912h48v48h-48zM240 912h48v48h-48zM288 912h48v48h-48zM336 912h48v48h-48zM384 912h48v48h-48zM384 864h48v48h-48zM384 816h48v48h-48zM384 768h48v48h-48zM384 672h48v48h-48zM384 624h48v48h-48zM384 576h48v48h-48zM336 816h48v48h-48zM336 768h48v48h-48zM288 768h48v48h-48zM240 768h48v48h-48zM192 768h48v48h-48zM192 720h48v48h-48zM192 576h48v48h-48zM192 528h48v48h-48zM144 528h48v48h-48zM96 528h48v48h-48zM48 528h48v48h-48zM864 528h48v48h-48zM864 576h48v48h-48zM864 624h48v48h-48zM864 672h48v48h-48zM864 720h48v48h-48zM864 768h48v48h-48zM864 816h48v48h-48zM816 816h48v48h-48zM768 816h48v48h-48zM720 816h48v48h-48zM672 816h48v48h-48zM624 816h48v48h-48zM576 816h48v48h-48zM528 816h48v48h-48zM480 816h48v48h-48zM480 768h48v48h-48zM480 720h48v48h-48zM480 672h48v48h-48zM480 624h48v48h-48zM480 576h48v48h-48zM480 528h48v48h-48zM480 480h48v48h-48zM528 480h48v48h-48zM576 480h48v48h-48zM528 528h48v48h-48zM528 576h48v48h-48zM528 624h48v48h-48zM528 672h48v48h-48zM528 720h48v48h-48zM528 768h48v48h-48zM576 864h48v48h-48zM576 768h48v48h-48zM672 864h48v48h-48zM720 912h48v48h-48zM720 864h48v48h-48zM720 768h48v48h-48zM720 720h48v48h-48zM720 672h48v48h-48zM720 624h48v48h-48zM672 624h48v48h-48zM624 624h48v48h-48zM576 624h48v48h-48zM576 672h48v48h-48zM576 720h48v48h-48zM624 720h48v48h-48zM672 720h48v48h-48zM768 720h48v48h-48zM816 720h48v48h-48zM864 480h48v48h-48zM864 864h48v48h-48zM816 864h48v48h-48zM768 768h48v48h-48zM672 672h48v48h-48zM576 576h48v48h-48zM576 528h48v48h-48zM624 768h48v48h-48zM672 768h48v48h-48zM672 576h48v48h-48zM672 528h48v48h-48zM672 480h48v48h-48z"/></svg>