<svg xmlns="http://www.w3.org/2000/svg" width="960" height="960" viewBox="0 0 960 960" shape-rendering="crispEdges"><path fill="#000" d="M0 0h960v960h-960z"/><path fill="#6fa8be" d="M0 0h48v48h-48zM0 96h48v48h-48zM0 192h48v48h-48zM0 288h48v48h-48zM0 384h48v48h-48zM0 480h48v48h-48zM0 576h48v48h-48zM0 672h48v48h-48zM0 768h48v48h-48zM0 864h48v48h-48zM48 0h48v48h-48zM48 96h48v48h-48zM48 192h48v48h-48zM48 288h48v48h-48zM48 384h48v48h-48zM48 480h48v48h-48zM48 576h48v48h-48zM48 672h48v48h-48zM48 768h48v48h-48zM48 864h48v48h-48zM96 0h48v48h-48zM96 96h48v48h-48zM96 192h48v48h-48zM96 288h48v48h-48zM96 384h48v48h-48zM96 480h48v48h-48zM96 576h48v48h-48zM96 672h48v48h-48zM96 768h48v48h-48zM96 864h48v48h-48zM144 0h48v48h-48zM144 96h48v48h-48zM144 192h48v48h-48zM144 288h48v48h-48zM144 384h48v48h-48zM144 480h48v48h-48zM144 576h48v48h-48zM144 672h48v48h-48zM144 768h48v48h-48zM144 864h48v48h-48zM192 0h48v48h-48zM192 96h48v48h-48zM192 192h48v48h-48zM192 288h48v48h-48zM192 384h48v48h-48zM192 480h48v48h-48zM192 576h48v48h-48zM192 672h48v48h-48zM192 768h48v48h-48zM192 864h48v48h-48zM240 0h48v48h-48zM240 96h48v48h-48zM240 192h48v48h-48zM240 288h48v48h-48zM240 384h48v48h-48zM240 480h48v48h-48zM240 576h48v48h-48zM240 672h48v48h-48zM240 768h48v48h-48zM240 864h48v48h-48zM288 0h48v48h-48zM288 96h48v48h-48zM288 192h48v48h-48zM288 288h48v48h-48zM288 384h48v48h-48zM288 480h48v48h-48zM288 576h48v48h-48zM288 672h48v48h-48zM288 768h48v48h-48zM288 864h48v48h-48zM336 0h48v48h-48zM336 96h48v48h-48zM336 192h48v48h-48zM336 288h48v48h-48zM336 384h48v48h-48zM336 480h48v48h-48zM336 576h48v48h-48zM336 672h48v48h-48zM336 768h48v48h-48zM336 864h48v48h-48zM384 0h48v48h-48zM384 96h48v48h-48zM384 192h48v48h-48zM384 288h48v48h-48zM384 384h48v48h-48zM384 480h48v48h-48zM384 576h48v48h-48zM384 672h48v48h-48zM384 768h48v48h-48zM384 864h48v48h-48zM432 0h48v48h-48zM432 96h48v48h-48zM432 192h48v48h-48zM432 288h48v48h-48zM432 384h48v48h-48zM432 480h48v48h-48zM432 576h48v48h-48zM432 672h48v48h-48zM432 768h48v48h-48zM432 864h48v48h-48zM480 0h48v48h-48zM480 96h48v48h-48zM480 192h48v48h-48zM480 288h48v48h-48zM480 384h48v48h-48zM480 480h48v48h-48zM480 576h48v48h-48zM480 672h48v48h-48zM480 768h48v48h-48zM480 864h48v48h-48zM528 0h48v48h-48zM528 96h48v48h-48zM528 192h48v48h-48zM528 288h48v48h-48zM528 384h48v48h-48zM528 480h48v48h-48zM528 576h48v48h-48zM528 672h48v48h-48zM528 768h48v48h-48zM528 864h48v48h-48zM576 0h48v48h-48zM576 96h48v48h-48zM576 192h48v48h-48zM576 288h48v48h-48zM576 384h48v48h-48zM576 480h48v48h-48zM576 576h48v48h-48zM576 672h48v48h-48zM576 768h48v48h-48zM576 864h48v48h-48zM624 0h48v48h-48zM624 96h48v48h-48zM624 192h48v48h-48zM624 288h48v48h-48zM624 384h48v48h-48zM624 480h48v48h-48zM624 576h48v48h-48zM624 672h48v48h-48zM624 768h48v48h-48zM624 864h48v48h-48zM672 0h48v48h-48zM672 96h48v48h-48zM672 192h48v48h-48zM672 288h48v48h-48zM672 384h48v48h-48zM672 480h48v48h-48zM672 576h48v48h-48zM672 672h48v48h-48zM672 768h48v48h-48zM672 864h48v48h-48zM720 0h48v48h-48zM720 96h48v48h-48zM720 192h48v48h-48zM720 288h48v48h-48zM720 384h48v48h-48zM720 480h48v48h-48zM720 576h48v48h-48zM720 672h48v48h-48zM720 768h48v48h-48zM720 864h48v48h-48zM768 0h48v48h-48zM768 96h48v48h-48zM768 192h48v48h-48zM768 288h48v48h-48zM768 384h48v48h-48zM768 480h48v48h-48zM768 576h48v48h-48zM768 672h48v48h-48zM768 768h48v48h-48zM768 864h48v48h-48zM816 0h48v48h-48zM816 96h48v48h-48zM816 192h48v48h-48zM816 288h48v48h-48zM816 384h48v48h-48zM816 480h48v48h-48zM816 576h48v48h-48zM816 672h48v48h-48zM816 768h48v48h-48zM816 864h48v48h-48zM864 0h48v48h-48zM864 96h48v48h-48zM864 192h48v48h-48zM864 288h48v48h-48zM864 384h48v48h-48zM864 480h48v48h-48zM864 576h48v48h-48zM864 672h48v48h-48zM864 768h48v48h-48zM864 864h48v48h-48zM912 0h48v48h-48zM912 96h48v48h-48zM912 192h48v48h-48zM912 288h48v48h-48zM912 384h48v48h-48zM912 480h48v48h-48zM912 576h48v48h-48zM912 672h48v48h-48zM912 768h48v48h-48zM912 864h48v48h-48z"/><path fill="#fc723b" d="M29 0h3v12h-3zM24 5h12v3h-12zM41 12h3v12h-3zM36 17h12v3h-12zM5 24h3v12h-3zM0 29h12v3h-12zM17 36h3v12h-3zM12 41h12v3h-12zM77 0h3v12h-3zM72 5h12v3h-12zM65 12h3v12h-3zM60 17h12v3h-12zM89 12h3v12h-3zM84 17h12v3h-12zM53 24h3v12h-3zM48 29h12v3h-12zM77 24h3v12h-3zM72 29h12v3h-12zM65 36h3v12h-3zM60 41h12v3h-12zM101 0h3v12h-3zM96 5h12v3h-12zM101 12h3v12h-3zM96 17h12v3h-12zM137 24h3v12h-3zM132 29h12v3h-12zM137 36h3v12h-3zM132 41h12v3h-12zM161 0h3v12h-3zM156 5h12v3h-12zM149 12h3v12h-3zM144 17h12v3h-12zM185 24h3v12h-3zM180 29h12v3h-12zM173 36h3v12h-3zM168 41h12v3h-12zM221 0h3v12h-3zM216 5h12v3h-12zM197 12h3v12h-3zM192 17h12v3h-12zM209 12h3v12h-3zM204 17h12v3h-12zM233 12h3v12h-3zM228 17h12v3h-12zM197 24h3v12h-3zM192 29h12v3h-12zM221 24h3v12h-3zM216 29h12v3h-12zM233 24h3v12h-3zM228 29h12v3h-12zM209 36h3v12h-3zM204 41h12v3h-12zM257 0h3v12h-3zM252 5h12v3h-12zM281 0h3v12h-3zM276 5h12v3h-12zM245 12h3v12h-3zM240 17h12v3h-12zM257 12h3v12h-3zM252 17h12v3h-12zM269 24h3v12h-3zM264 29h12v3h-12zM281 24h3v12h-3zM276 29h12v3h-12zM245 36h3v12h-3zM240 41h12v3h-12zM269 36h3v12h-3zM264 41h12v3h-12zM317 0h3v12h-3zM312 5h12v3h-12zM329 12h3v12h-3zM324 17h12v3h-12zM293 24h3v12h-3zM288 29h12v3h-12zM305 36h3v12h-3zM300 41h12v3h-12zM353 0h3v12h-3zM348 5h12v3h-12zM341 12h3v12h-3zM336 17h12v3h-12zM353 12h3v12h-3zM348 17h12v3h-12zM365 24h3v12h-3zM360 29h12v3h-12zM377 24h3v12h-3zM372 29h12v3h-12zM365 36h3v12h-3zM360 41h12v3h-12zM389 0h3v12h-3zM384 5h12v3h-12zM425 0h3v12h-3zM420 5h12v3h-12zM401 12h3v12h-3zM396 17h12v3h-12zM413 12h3v12h-3zM408 17h12v3h-12zM413 24h3v12h-3zM408 29h12v3h-12zM389 36h3v12h-3zM384 41h12v3h-12zM425 36h3v12h-3zM420 41h12v3h-12zM461 0h3v12h-3zM456 5h12v3h-12zM449 12h3v12h-3zM444 17h12v3h-12zM473 12h3v12h-3zM468 17h12v3h-12zM437 24h3v12h-3zM432 29h12v3h-12zM461 24h3v12h-3zM456 29h12v3h-12zM449 36h3v12h-3zM444 41h12v3h-12zM497 0h3v12h-3zM492 5h12v3h-12zM509 24h3v12h-3zM504 29h12v3h-12zM497 36h3v12h-3zM492 41h12v3h-12zM509 36h3v12h-3zM504 41h12v3h-12zM581 0h3v12h-3zM576 5h12v3h-12zM617 0h3v12h-3zM612 5h12v3h-12zM593 12h3v12h-3zM588 17h12v3h-12zM605 24h3v12h-3zM600 29h12v3h-12zM581 36h3v12h-3zM576 41h12v3h-12zM617 36h3v12h-3zM612 41h12v3h-12zM677 0h3v12h-3zM672 5h12v3h-12zM701 0h3v12h-3zM696 5h12v3h-12zM701 12h3v12h-3zM696 17h12v3h-12zM713 12h3v12h-3zM708 17h12v3h-12zM677 24h3v12h-3zM672 29h12v3h-12zM689 24h3v12h-3zM684 29h12v3h-12zM689 36h3v12h-3zM684 41h12v3h-12zM713 36h3v12h-3zM708 41h12v3h-12zM785 0h3v12h-3zM780 5h12v3h-12zM773 12h3v12h-3zM768 17h12v3h-12zM797 12h3v12h-3zM792 17h12v3h-12zM809 12h3v12h-3zM804 17h12v3h-12zM773 24h3v12h-3zM768 29h12v3h-12zM785 24h3v12h-3zM780 29h12v3h-12zM809 24h3v12h-3zM804 29h12v3h-12zM797 36h3v12h-3zM792 41h12v3h-12zM881 0h3v12h-3zM876 5h12v3h-12zM905 0h3v12h-3zM900 5h12v3h-12zM893 12h3v12h-3zM888 17h12v3h-12zM893 24h3v12h-3zM888 29h12v3h-12zM881 36h3v12h-3zM876 41h12v3h-12zM905 36h3v12h-3zM900 41h12v3h-12zM5 48h3v12h-3zM0 53h12v3h-12zM41 48h3v12h-3zM36 53h12v3h-12zM17 60h3v12h-3zM12 65h12v3h-12zM29 60h3v12h-3zM24 65h12v3h-12zM17 72h3v12h-3zM12 77h12v3h-12zM29 72h3v12h-3zM24 77h12v3h-12zM5 84h3v12h-3zM0 89h12v3h-12zM41 84h3v12h-3zM36 89h12v3h-12zM77 48h3v12h-3zM72 53h12v3h-12zM89 48h3v12h-3zM84 53h12v3h-12zM53 84h3v12h-3zM48 89h12v3h-12zM65 84h3v12h-3zM60 89h12v3h-12zM101 48h3v12h-3zM96 53h12v3h-12zM101 60h3v12h-3zM96 65h12v3h-12zM137 72h3v12h-3zM132 77h12v3h-12zM137 84h3v12h-3zM132 89h12v3h-12zM149 60h3v12h-3zM144 65h12v3h-12zM185 60h3v12h-3zM180 65h12v3h-12zM149 72h3v12h-3zM144 77h12v3h-12zM185 72h3v12h-3zM180 77h12v3h-12zM197 48h3v12h-3zM192 53h12v3h-12zM197 60h3v12h-3zM192 65h12v3h-12zM233 72h3v12h-3zM228 77h12v3h-12zM233 84h3v12h-3zM228 89h12v3h-12zM245 60h3v12h-3zM240 65h12v3h-12zM281 60h3v12h-3zM276 65h12v3h-12zM245 72h3v12h-3zM240 77h12v3h-12zM257 72h3v12h-3zM252 77h12v3h-12zM305 48h3v12h-3zM300 53h12v3h-12zM293 60h3v12h-3zM288 65h12v3h-12zM305 60h3v12h-3zM300 65h12v3h-12zM317 72h3v12h-3zM312 77h12v3h-12zM329 72h3v12h-3zM324 77h12v3h-12zM317 84h3v12h-3zM312 89h12v3h-12zM353 48h3v12h-3zM348 53h12v3h-12zM365 48h3v12h-3zM360 53h12v3h-12zM365 60h3v12h-3zM360 65h12v3h-12zM353 84h3v12h-3zM348 89h12v3h-12zM389 48h3v12h-3zM384 53h12v3h-12zM389 60h3v12h-3zM384 65h12v3h-12zM425 72h3v12h-3zM420 77h12v3h-12zM425 84h3v12h-3zM420 89h12v3h-12zM437 48h3v12h-3zM432 53h12v3h-12zM473 48h3v12h-3zM468 53h12v3h-12zM449 60h3v12h-3zM444 65h12v3h-12zM461 60h3v12h-3zM456 65h12v3h-12zM449 72h3v12h-3zM444 77h12v3h-12zM461 72h3v12h-3zM456 77h12v3h-12zM437 84h3v12h-3zM432 89h12v3h-12zM473 84h3v12h-3zM468 89h12v3h-12zM41 96h3v12h-3zM36 101h12v3h-12zM29 108h3v12h-3zM24 113h12v3h-12zM17 120h3v12h-3zM12 125h12v3h-12zM5 132h3v12h-3zM0 137h12v3h-12zM53 96h3v12h-3zM48 101h12v3h-12zM89 96h3v12h-3zM84 101h12v3h-12zM65 108h3v12h-3zM60 113h12v3h-12zM77 108h3v12h-3zM72 113h12v3h-12zM53 120h3v12h-3zM48 125h12v3h-12zM89 120h3v12h-3zM84 125h12v3h-12zM125 96h3v12h-3zM120 101h12v3h-12zM137 108h3v12h-3zM132 113h12v3h-12zM101 120h3v12h-3zM96 125h12v3h-12zM113 132h3v12h-3zM108 137h12v3h-12zM149 96h3v12h-3zM144 101h12v3h-12zM185 96h3v12h-3zM180 101h12v3h-12zM161 108h3v12h-3zM156 113h12v3h-12zM173 108h3v12h-3zM168 113h12v3h-12zM149 132h3v12h-3zM144 137h12v3h-12zM185 132h3v12h-3zM180 137h12v3h-12zM209 96h3v12h-3zM204 101h12v3h-12zM221 96h3v12h-3zM216 101h12v3h-12zM197 108h3v12h-3zM192 113h12v3h-12zM221 108h3v12h-3zM216 113h12v3h-12zM209 120h3v12h-3zM204 125h12v3h-12zM233 120h3v12h-3zM228 125h12v3h-12zM209 132h3v12h-3zM204 137h12v3h-12zM221 132h3v12h-3zM216 137h12v3h-12zM245 96h3v12h-3zM240 101h12v3h-12zM281 96h3v12h-3zM276 101h12v3h-12zM257 108h3v12h-3zM252 113h12v3h-12zM257 120h3v12h-3zM252 125h12v3h-12zM269 120h3v12h-3zM264 125h12v3h-12zM245 132h3v12h-3zM240 137h12v3h-12zM281 132h3v12h-3zM276 137h12v3h-12zM317 96h3v12h-3zM312 101h12v3h-12zM317 108h3v12h-3zM312 113h12v3h-12zM329 108h3v12h-3zM324 113h12v3h-12zM293 120h3v12h-3zM288 125h12v3h-12zM305 120h3v12h-3zM300 125h12v3h-12zM305 132h3v12h-3zM300 137h12v3h-12zM341 96h3v12h-3zM336 101h12v3h-12zM365 96h3v12h-3zM360 101h12v3h-12zM377 108h3v12h-3zM372 113h12v3h-12zM341 120h3v12h-3zM336 125h12v3h-12zM353 132h3v12h-3zM348 137h12v3h-12zM377 132h3v12h-3zM372 137h12v3h-12zM389 96h3v12h-3zM384 101h12v3h-12zM401 108h3v12h-3zM396 113h12v3h-12zM389 120h3v12h-3zM384 125h12v3h-12zM413 120h3v12h-3zM408 125h12v3h-12zM389 132h3v12h-3zM384 137h12v3h-12zM401 132h3v12h-3zM396 137h12v3h-12zM425 132h3v12h-3zM420 137h12v3h-12zM449 96h3v12h-3zM444 101h12v3h-12zM461 96h3v12h-3zM456 101h12v3h-12zM449 132h3v12h-3zM444 137h12v3h-12zM461 132h3v12h-3zM456 137h12v3h-12zM485 96h3v12h-3zM480 101h12v3h-12zM509 96h3v12h-3zM504 101h12v3h-12zM521 96h3v12h-3zM516 101h12v3h-12zM497 108h3v12h-3zM492 113h12v3h-12zM521 108h3v12h-3zM516 113h12v3h-12zM509 120h3v12h-3zM504 125h12v3h-12zM521 132h3v12h-3zM516 137h12v3h-12zM593 96h3v12h-3zM588 101h12v3h-12zM617 96h3v12h-3zM612 101h12v3h-12zM593 132h3v12h-3zM588 137h12v3h-12zM617 132h3v12h-3zM612 137h12v3h-12zM701 96h3v12h-3zM696 101h12v3h-12zM713 96h3v12h-3zM708 101h12v3h-12zM677 132h3v12h-3zM672 137h12v3h-12zM689 132h3v12h-3zM684 137h12v3h-12zM797 96h3v12h-3zM792 101h12v3h-12zM809 96h3v12h-3zM804 101h12v3h-12zM773 132h3v12h-3zM768 137h12v3h-12zM785 132h3v12h-3zM780 137h12v3h-12zM881 96h3v12h-3zM876 101h12v3h-12zM869 108h3v12h-3zM864 113h12v3h-12zM881 108h3v12h-3zM876 113h12v3h-12zM893 120h3v12h-3zM888 125h12v3h-12zM905 120h3v12h-3zM900 125h12v3h-12zM893 132h3v12h-3zM888 137h12v3h-12zM17 144h3v12h-3zM12 149h12v3h-12zM41 144h3v12h-3zM36 149h12v3h-12zM17 180h3v12h-3zM12 185h12v3h-12zM41 180h3v12h-3zM36 185h12v3h-12zM53 144h3v12h-3zM48 149h12v3h-12zM65 156h3v12h-3zM60 161h12v3h-12zM77 168h3v12h-3zM72 173h12v3h-12zM89 180h3v12h-3zM84 185h12v3h-12zM101 144h3v12h-3zM96 149h12v3h-12zM137 144h3v12h-3zM132 149h12v3h-12zM125 156h3v12h-3zM120 161h12v3h-12zM113 168h3v12h-3zM108 173h12v3h-12zM125 168h3v12h-3zM120 173h12v3h-12zM101 180h3v12h-3zM96 185h12v3h-12zM137 180h3v12h-3zM132 185h12v3h-12zM149 144h3v12h-3zM144 149h12v3h-12zM185 144h3v12h-3zM180 149h12v3h-12zM161 156h3v12h-3zM156 161h12v3h-12zM173 156h3v12h-3zM168 161h12v3h-12zM149 168h3v12h-3zM144 173h12v3h-12zM185 168h3v12h-3zM180 173h12v3h-12zM209 144h3v12h-3zM204 149h12v3h-12zM233 144h3v12h-3zM228 149h12v3h-12zM221 156h3v12h-3zM216 161h12v3h-12zM221 168h3v12h-3zM216 173h12v3h-12zM209 180h3v12h-3zM204 185h12v3h-12zM233 180h3v12h-3zM228 185h12v3h-12zM281 216h3v12h-3zM276 221h12v3h-12zM257 144h3v12h-3zM252 149h12v3h-12zM269 144h3v12h-3zM264 149h12v3h-12zM257 156h3v12h-3zM252 161h12v3h-12zM281 156h3v12h-3zM276 161h12v3h-12zM245 168h3v12h-3zM240 173h12v3h-12zM269 168h3v12h-3zM264 173h12v3h-12zM257 180h3v12h-3zM252 185h12v3h-12zM269 180h3v12h-3zM264 185h12v3h-12zM329 144h3v12h-3zM324 149h12v3h-12zM317 156h3v12h-3zM312 161h12v3h-12zM305 168h3v12h-3zM300 173h12v3h-12zM293 180h3v12h-3zM288 185h12v3h-12zM353 144h3v12h-3zM348 149h12v3h-12zM377 144h3v12h-3zM372 149h12v3h-12zM341 156h3v12h-3zM336 161h12v3h-12zM353 156h3v12h-3zM348 161h12v3h-12zM365 168h3v12h-3zM360 173h12v3h-12zM377 168h3v12h-3zM372 173h12v3h-12zM341 180h3v12h-3zM336 185h12v3h-12zM365 180h3v12h-3zM360 185h12v3h-12zM413 144h3v12h-3zM408 149h12v3h-12zM401 156h3v12h-3zM396 161h12v3h-12zM425 156h3v12h-3zM420 161h12v3h-12zM389 168h3v12h-3zM384 173h12v3h-12zM413 168h3v12h-3zM408 173h12v3h-12zM401 180h3v12h-3zM396 185h12v3h-12zM437 144h3v12h-3zM432 149h12v3h-12zM473 144h3v12h-3zM468 149h12v3h-12zM449 168h3v12h-3zM444 173h12v3h-12zM461 168h3v12h-3zM456 173h12v3h-12zM437 180h3v12h-3zM432 185h12v3h-12zM473 180h3v12h-3zM468 185h12v3h-12zM5 192h3v12h-3zM0 197h12v3h-12zM17 204h3v12h-3zM12 209h12v3h-12zM5 216h3v12h-3zM0 221h12v3h-12zM29 216h3v12h-3zM24 221h12v3h-12zM5 228h3v12h-3zM0 233h12v3h-12zM17 228h3v12h-3zM12 233h12v3h-12zM41 228h3v12h-3zM36 233h12v3h-12zM77 192h3v12h-3zM72 197h12v3h-12zM77 204h3v12h-3zM72 209h12v3h-12zM89 204h3v12h-3zM84 209h12v3h-12zM53 216h3v12h-3zM48 221h12v3h-12zM65 216h3v12h-3zM60 221h12v3h-12zM65 228h3v12h-3zM60 233h12v3h-12zM125 192h3v12h-3zM120 197h12v3h-12zM137 192h3v12h-3zM132 197h12v3h-12zM125 204h3v12h-3zM120 209h12v3h-12zM137 204h3v12h-3zM132 209h12v3h-12zM101 216h3v12h-3zM96 221h12v3h-12zM113 216h3v12h-3zM108 221h12v3h-12zM101 228h3v12h-3zM96 233h12v3h-12zM113 228h3v12h-3zM108 233h12v3h-12zM161 192h3v12h-3zM156 197h12v3h-12zM185 192h3v12h-3zM180 197h12v3h-12zM149 204h3v12h-3zM144 209h12v3h-12zM185 216h3v12h-3zM180 221h12v3h-12zM149 228h3v12h-3zM144 233h12v3h-12zM173 228h3v12h-3zM168 233h12v3h-12zM197 192h3v12h-3zM192 197h12v3h-12zM209 204h3v12h-3zM204 209h12v3h-12zM197 216h3v12h-3zM192 221h12v3h-12zM221 216h3v12h-3zM216 221h12v3h-12zM197 228h3v12h-3zM192 233h12v3h-12zM209 228h3v12h-3zM204 233h12v3h-12zM233 228h3v12h-3zM228 233h12v3h-12zM281 192h3v12h-3zM276 197h12v3h-12zM269 204h3v12h-3zM264 209h12v3h-12zM257 216h3v12h-3zM252 221h12v3h-12zM245 228h3v12h-3zM240 233h12v3h-12zM305 192h3v12h-3zM300 197h12v3h-12zM329 192h3v12h-3zM324 197h12v3h-12zM293 204h3v12h-3zM288 209h12v3h-12zM329 216h3v12h-3zM324 221h12v3h-12zM293 228h3v12h-3zM288 233h12v3h-12zM317 228h3v12h-3zM312 233h12v3h-12zM341 192h3v12h-3zM336 197h12v3h-12zM377 192h3v12h-3zM372 197h12v3h-12zM353 204h3v12h-3zM348 209h12v3h-12zM365 204h3v12h-3zM360 209h12v3h-12zM341 228h3v12h-3zM336 233h12v3h-12zM377 228h3v12h-3zM372 233h12v3h-12zM413 192h3v12h-3zM408 197h12v3h-12zM401 204h3v12h-3zM396 209h12v3h-12zM425 204h3v12h-3zM420 209h12v3h-12zM389 216h3v12h-3zM384 221h12v3h-12zM413 216h3v12h-3zM408 221h12v3h-12zM401 228h3v12h-3zM396 233h12v3h-12zM473 264h3v12h-3zM468 269h12v3h-12zM449 192h3v12h-3zM444 197h12v3h-12zM461 192h3v12h-3zM456 197h12v3h-12zM449 204h3v12h-3zM444 209h12v3h-12zM473 204h3v12h-3zM468 209h12v3h-12zM437 216h3v12h-3zM432 221h12v3h-12zM461 216h3v12h-3zM456 221h12v3h-12zM449 228h3v12h-3zM444 233h12v3h-12zM461 228h3v12h-3zM456 233h12v3h-12zM497 192h3v12h-3zM492 197h12v3h-12zM509 192h3v12h-3zM504 197h12v3h-12zM485 204h3v12h-3zM480 209h12v3h-12zM509 204h3v12h-3zM504 209h12v3h-12zM497 216h3v12h-3zM492 221h12v3h-12zM521 216h3v12h-3zM516 221h12v3h-12zM497 228h3v12h-3zM492 233h12v3h-12zM509 228h3v12h-3zM504 233h12v3h-12zM581 192h3v12h-3zM576 197h12v3h-12zM617 192h3v12h-3zM612 197h12v3h-12zM593 204h3v12h-3zM588 209h12v3h-12zM593 216h3v12h-3zM588 221h12v3h-12zM605 216h3v12h-3zM600 221h12v3h-12zM581 228h3v12h-3zM576 233h12v3h-12zM617 228h3v12h-3zM612 233h12v3h-12zM677 204h3v12h-3zM672 209h12v3h-12zM713 204h3v12h-3zM708 209h12v3h-12zM677 216h3v12h-3zM672 221h12v3h-12zM689 216h3v12h-3zM684 221h12v3h-12zM785 192h3v12h-3zM780 197h12v3h-12zM773 204h3v12h-3zM768 209h12v3h-12zM785 204h3v12h-3zM780 209h12v3h-12zM797 216h3v12h-3zM792 221h12v3h-12zM809 216h3v12h-3zM804 221h12v3h-12zM797 228h3v12h-3zM792 233h12v3h-12zM881 204h3v12h-3zM876 209h12v3h-12zM893 204h3v12h-3zM888 209h12v3h-12zM881 216h3v12h-3zM876 221h12v3h-12zM893 216h3v12h-3zM888 221h12v3h-12zM5 240h3v12h-3zM0 245h12v3h-12zM41 240h3v12h-3zM36 245h12v3h-12zM29 252h3v12h-3zM24 257h12v3h-12zM17 264h3v12h-3zM12 269h12v3h-12zM29 264h3v12h-3zM24 269h12v3h-12zM5 276h3v12h-3zM0 281h12v3h-12zM41 276h3v12h-3zM36 281h12v3h-12zM65 240h3v12h-3zM60 245h12v3h-12zM77 240h3v12h-3zM72 245h12v3h-12zM77 252h3v12h-3zM72 257h12v3h-12zM65 276h3v12h-3zM60 281h12v3h-12zM101 252h3v12h-3zM96 257h12v3h-12zM137 252h3v12h-3zM132 257h12v3h-12zM101 264h3v12h-3zM96 269h12v3h-12zM137 264h3v12h-3zM132 269h12v3h-12zM161 240h3v12h-3zM156 245h12v3h-12zM185 240h3v12h-3zM180 245h12v3h-12zM149 252h3v12h-3zM144 257h12v3h-12zM185 264h3v12h-3zM180 269h12v3h-12zM149 276h3v12h-3zM144 281h12v3h-12zM173 276h3v12h-3zM168 281h12v3h-12zM221 240h3v12h-3zM216 245h12v3h-12zM233 252h3v12h-3zM228 257h12v3h-12zM197 264h3v12h-3zM192 269h12v3h-12zM209 276h3v12h-3zM204 281h12v3h-12zM269 240h3v12h-3zM264 245h12v3h-12zM269 252h3v12h-3zM264 257h12v3h-12zM281 252h3v12h-3zM276 257h12v3h-12zM245 264h3v12h-3zM240 269h12v3h-12zM257 264h3v12h-3zM252 269h12v3h-12zM257 276h3v12h-3zM252 281h12v3h-12zM293 240h3v12h-3zM288 245h12v3h-12zM317 240h3v12h-3zM312 245h12v3h-12zM305 252h3v12h-3zM300 257h12v3h-12zM329 252h3v12h-3zM324 257h12v3h-12zM293 264h3v12h-3zM288 269h12v3h-12zM317 264h3v12h-3zM312 269h12v3h-12zM305 276h3v12h-3zM300 281h12v3h-12zM329 276h3v12h-3zM324 281h12v3h-12zM341 240h3v12h-3zM336 245h12v3h-12zM377 240h3v12h-3zM372 245h12v3h-12zM353 252h3v12h-3zM348 257h12v3h-12zM365 252h3v12h-3zM360 257h12v3h-12zM341 276h3v12h-3zM336 281h12v3h-12zM377 276h3v12h-3zM372 281h12v3h-12zM389 240h3v12h-3zM384 245h12v3h-12zM401 240h3v12h-3zM396 245h12v3h-12zM413 276h3v12h-3zM408 281h12v3h-12zM425 276h3v12h-3zM420 281h12v3h-12zM449 240h3v12h-3zM444 245h12v3h-12zM461 240h3v12h-3zM456 245h12v3h-12zM437 252h3v12h-3zM432 257h12v3h-12zM461 252h3v12h-3zM456 257h12v3h-12zM449 264h3v12h-3zM444 269h12v3h-12zM473 264h3v12h-3zM468 269h12v3h-12zM449 276h3v12h-3zM444 281h12v3h-12zM461 276h3v12h-3zM456 281h12v3h-12zM5 288h3v12h-3zM0 293h12v3h-12zM41 288h3v12h-3zM36 293h12v3h-12zM5 324h3v12h-3zM0 329h12v3h-12zM41 324h3v12h-3zM36 329h12v3h-12zM137 288h3v12h-3zM132 293h12v3h-12zM125 300h3v12h-3zM120 305h12v3h-12zM113 312h3v12h-3zM108 317h12v3h-12zM137 312h3v12h-3zM132 317h12v3h-12zM101 324h3v12h-3zM96 329h12v3h-12zM125 324h3v12h-3zM120 329h12v3h-12zM137 324h3v12h-3zM132 329h12v3h-12zM209 288h3v12h-3zM204 293h12v3h-12zM233 288h3v12h-3zM228 293h12v3h-12zM221 300h3v12h-3zM216 305h12v3h-12zM221 312h3v12h-3zM216 317h12v3h-12zM209 324h3v12h-3zM204 329h12v3h-12zM233 324h3v12h-3zM228 329h12v3h-12zM305 288h3v12h-3zM300 293h12v3h-12zM293 300h3v12h-3zM288 305h12v3h-12zM329 312h3v12h-3zM324 317h12v3h-12zM317 324h3v12h-3zM312 329h12v3h-12zM389 300h3v12h-3zM384 305h12v3h-12zM425 300h3v12h-3zM420 305h12v3h-12zM389 312h3v12h-3zM384 317h12v3h-12zM401 312h3v12h-3zM396 317h12v3h-12zM497 288h3v12h-3zM492 293h12v3h-12zM509 312h3v12h-3zM504 317h12v3h-12zM497 324h3v12h-3zM492 329h12v3h-12zM509 324h3v12h-3zM504 329h12v3h-12zM557 288h3v12h-3zM552 293h12v3h-12zM533 300h3v12h-3zM528 305h12v3h-12zM545 300h3v12h-3zM540 305h12v3h-12zM569 300h3v12h-3zM564 305h12v3h-12zM533 312h3v12h-3zM528 317h12v3h-12zM557 312h3v12h-3zM552 317h12v3h-12zM569 312h3v12h-3zM564 317h12v3h-12zM545 324h3v12h-3zM540 329h12v3h-12zM593 288h3v12h-3zM588 293h12v3h-12zM617 288h3v12h-3zM612 293h12v3h-12zM605 300h3v12h-3zM600 305h12v3h-12zM605 312h3v12h-3zM600 317h12v3h-12zM593 324h3v12h-3zM588 329h12v3h-12zM617 324h3v12h-3zM612 329h12v3h-12zM653 288h3v12h-3zM648 293h12v3h-12zM665 288h3v12h-3zM660 293h12v3h-12zM653 300h3v12h-3zM648 305h12v3h-12zM665 300h3v12h-3zM660 305h12v3h-12zM629 312h3v12h-3zM624 317h12v3h-12zM641 312h3v12h-3zM636 317h12v3h-12zM629 324h3v12h-3zM624 329h12v3h-12zM641 324h3v12h-3zM636 329h12v3h-12zM689 288h3v12h-3zM684 293h12v3h-12zM713 288h3v12h-3zM708 293h12v3h-12zM677 300h3v12h-3zM672 305h12v3h-12zM701 300h3v12h-3zM696 305h12v3h-12zM689 312h3v12h-3zM684 317h12v3h-12zM713 312h3v12h-3zM708 317h12v3h-12zM677 324h3v12h-3zM672 329h12v3h-12zM701 324h3v12h-3zM696 329h12v3h-12zM725 300h3v12h-3zM720 305h12v3h-12zM737 300h3v12h-3zM732 305h12v3h-12zM725 312h3v12h-3zM720 317h12v3h-12zM761 312h3v12h-3zM756 317h12v3h-12zM785 288h3v12h-3zM780 293h12v3h-12zM809 288h3v12h-3zM804 293h12v3h-12zM773 300h3v12h-3zM768 305h12v3h-12zM785 300h3v12h-3zM780 305h12v3h-12zM797 312h3v12h-3zM792 317h12v3h-12zM809 312h3v12h-3zM804 317h12v3h-12zM773 324h3v12h-3zM768 329h12v3h-12zM797 324h3v12h-3zM792 329h12v3h-12zM845 288h3v12h-3zM840 293h12v3h-12zM845 300h3v12h-3zM840 305h12v3h-12zM857 300h3v12h-3zM852 305h12v3h-12zM821 312h3v12h-3zM816 317h12v3h-12zM833 312h3v12h-3zM828 317h12v3h-12zM833 324h3v12h-3zM828 329h12v3h-12zM869 288h3v12h-3zM864 293h12v3h-12zM905 288h3v12h-3zM900 293h12v3h-12zM881 300h3v12h-3zM876 305h12v3h-12zM893 300h3v12h-3zM888 305h12v3h-12zM893 312h3v12h-3zM888 317h12v3h-12zM869 324h3v12h-3zM864 329h12v3h-12zM905 324h3v12h-3zM900 329h12v3h-12zM953 288h3v12h-3zM948 293h12v3h-12zM953 300h3v12h-3zM948 305h12v3h-12zM917 312h3v12h-3zM912 317h12v3h-12zM917 324h3v12h-3zM912 329h12v3h-12zM521 336h3v12h-3zM516 341h12v3h-12zM509 348h3v12h-3zM504 353h12v3h-12zM497 360h3v12h-3zM492 365h12v3h-12zM485 372h3v12h-3zM480 377h12v3h-12zM533 336h3v12h-3zM528 341h12v3h-12zM545 348h3v12h-3zM540 353h12v3h-12zM533 360h3v12h-3zM528 365h12v3h-12zM557 360h3v12h-3zM552 365h12v3h-12zM533 372h3v12h-3zM528 377h12v3h-12zM545 372h3v12h-3zM540 377h12v3h-12zM569 372h3v12h-3zM564 377h12v3h-12zM581 336h3v12h-3zM576 341h12v3h-12zM617 336h3v12h-3zM612 341h12v3h-12zM581 360h3v12h-3zM576 365h12v3h-12zM617 360h3v12h-3zM612 365h12v3h-12zM641 336h3v12h-3zM636 341h12v3h-12zM653 336h3v12h-3zM648 341h12v3h-12zM653 348h3v12h-3zM648 353h12v3h-12zM641 372h3v12h-3zM636 377h12v3h-12zM677 348h3v12h-3zM672 353h12v3h-12zM713 348h3v12h-3zM708 353h12v3h-12zM677 360h3v12h-3zM672 365h12v3h-12zM713 360h3v12h-3zM708 365h12v3h-12zM737 336h3v12h-3zM732 341h12v3h-12zM761 336h3v12h-3zM756 341h12v3h-12zM725 348h3v12h-3zM720 353h12v3h-12zM761 360h3v12h-3zM756 365h12v3h-12zM725 372h3v12h-3zM720 377h12v3h-12zM749 372h3v12h-3zM744 377h12v3h-12zM797 336h3v12h-3zM792 341h12v3h-12zM809 336h3v12h-3zM804 341h12v3h-12zM773 372h3v12h-3zM768 377h12v3h-12zM785 372h3v12h-3zM780 377h12v3h-12zM833 336h3v12h-3zM828 341h12v3h-12zM857 336h3v12h-3zM852 341h12v3h-12zM821 348h3v12h-3zM816 353h12v3h-12zM857 360h3v12h-3zM852 365h12v3h-12zM821 372h3v12h-3zM816 377h12v3h-12zM845 372h3v12h-3zM840 377h12v3h-12zM869 348h3v12h-3zM864 353h12v3h-12zM881 348h3v12h-3zM876 353h12v3h-12zM869 360h3v12h-3zM864 365h12v3h-12zM905 360h3v12h-3zM900 365h12v3h-12zM917 336h3v12h-3zM912 341h12v3h-12zM929 348h3v12h-3zM924 353h12v3h-12zM941 360h3v12h-3zM936 365h12v3h-12zM953 372h3v12h-3zM948 377h12v3h-12zM5 384h3v12h-3zM0 389h12v3h-12zM41 384h3v12h-3zM36 389h12v3h-12zM29 396h3v12h-3zM24 401h12v3h-12zM17 408h3v12h-3zM12 413h12v3h-12zM29 408h3v12h-3zM24 413h12v3h-12zM5 420h3v12h-3zM0 425h12v3h-12zM41 420h3v12h-3zM36 425h12v3h-12zM101 384h3v12h-3zM96 389h12v3h-12zM125 384h3v12h-3zM120 389h12v3h-12zM137 396h3v12h-3zM132 401h12v3h-12zM101 408h3v12h-3zM96 413h12v3h-12zM113 420h3v12h-3zM108 425h12v3h-12zM137 420h3v12h-3zM132 425h12v3h-12zM209 384h3v12h-3zM204 389h12v3h-12zM221 384h3v12h-3zM216 389h12v3h-12zM197 396h3v12h-3zM192 401h12v3h-12zM221 396h3v12h-3zM216 401h12v3h-12zM209 408h3v12h-3zM204 413h12v3h-12zM233 408h3v12h-3zM228 413h12v3h-12zM209 420h3v12h-3zM204 425h12v3h-12zM221 420h3v12h-3zM216 425h12v3h-12zM293 384h3v12h-3zM288 389h12v3h-12zM329 384h3v12h-3zM324 389h12v3h-12zM305 408h3v12h-3zM300 413h12v3h-12zM317 408h3v12h-3zM312 413h12v3h-12zM293 420h3v12h-3zM288 425h12v3h-12zM329 420h3v12h-3zM324 425h12v3h-12zM413 384h3v12h-3zM408 389h12v3h-12zM425 384h3v12h-3zM420 389h12v3h-12zM389 420h3v12h-3zM384 425h12v3h-12zM401 420h3v12h-3zM396 425h12v3h-12zM497 384h3v12h-3zM492 389h12v3h-12zM485 396h3v12h-3zM480 401h12v3h-12zM497 396h3v12h-3zM492 401h12v3h-12zM509 408h3v12h-3zM504 413h12v3h-12zM521 408h3v12h-3zM516 413h12v3h-12zM509 420h3v12h-3zM504 425h12v3h-12zM545 384h3v12h-3zM540 389h12v3h-12zM569 384h3v12h-3zM564 389h12v3h-12zM533 396h3v12h-3zM528 401h12v3h-12zM569 408h3v12h-3zM564 413h12v3h-12zM533 420h3v12h-3zM528 425h12v3h-12zM557 420h3v12h-3zM552 425h12v3h-12zM593 384h3v12h-3zM588 389h12v3h-12zM617 384h3v12h-3zM612 389h12v3h-12zM593 420h3v12h-3zM588 425h12v3h-12zM617 420h3v12h-3zM612 425h12v3h-12zM653 384h3v12h-3zM648 389h12v3h-12zM665 396h3v12h-3zM660 401h12v3h-12zM629 408h3v12h-3zM624 413h12v3h-12zM641 420h3v12h-3zM636 425h12v3h-12zM689 384h3v12h-3zM684 389h12v3h-12zM677 396h3v12h-3zM672 401h12v3h-12zM713 408h3v12h-3zM708 413h12v3h-12zM701 420h3v12h-3zM696 425h12v3h-12zM725 384h3v12h-3zM720 389h12v3h-12zM725 396h3v12h-3zM720 401h12v3h-12zM761 408h3v12h-3zM756 413h12v3h-12zM761 420h3v12h-3zM756 425h12v3h-12zM773 384h3v12h-3zM768 389h12v3h-12zM809 384h3v12h-3zM804 389h12v3h-12zM797 396h3v12h-3zM792 401h12v3h-12zM785 408h3v12h-3zM780 413h12v3h-12zM773 420h3v12h-3zM768 425h12v3h-12zM809 420h3v12h-3zM804 425h12v3h-12zM821 384h3v12h-3zM816 389h12v3h-12zM857 384h3v12h-3zM852 389h12v3h-12zM833 408h3v12h-3zM828 413h12v3h-12zM845 408h3v12h-3zM840 413h12v3h-12zM821 420h3v12h-3zM816 425h12v3h-12zM857 420h3v12h-3zM852 425h12v3h-12zM869 384h3v12h-3zM864 389h12v3h-12zM905 384h3v12h-3zM900 389h12v3h-12zM881 408h3v12h-3zM876 413h12v3h-12zM893 408h3v12h-3zM888 413h12v3h-12zM869 420h3v12h-3zM864 425h12v3h-12zM905 420h3v12h-3zM900 425h12v3h-12zM935 402h3v12h-3zM930 407h12v3h-12zM521 504h3v12h-3zM516 509h12v3h-12zM497 432h3v12h-3zM492 437h12v3h-12zM509 432h3v12h-3zM504 437h12v3h-12zM497 444h3v12h-3zM492 449h12v3h-12zM521 444h3v12h-3zM516 449h12v3h-12zM485 456h3v12h-3zM480 461h12v3h-12zM509 456h3v12h-3zM504 461h12v3h-12zM497 468h3v12h-3zM492 473h12v3h-12zM509 468h3v12h-3zM504 473h12v3h-12zM533 432h3v12h-3zM528 437h12v3h-12zM545 432h3v12h-3zM540 437h12v3h-12zM557 468h3v12h-3zM552 473h12v3h-12zM569 468h3v12h-3zM564 473h12v3h-12zM617 432h3v12h-3zM612 437h12v3h-12zM605 444h3v12h-3zM600 449h12v3h-12zM593 456h3v12h-3zM588 461h12v3h-12zM581 468h3v12h-3zM576 473h12v3h-12zM641 432h3v12h-3zM636 437h12v3h-12zM653 432h3v12h-3zM648 437h12v3h-12zM641 468h3v12h-3zM636 473h12v3h-12zM653 468h3v12h-3zM648 473h12v3h-12zM701 432h3v12h-3zM696 437h12v3h-12zM713 432h3v12h-3zM708 437h12v3h-12zM701 444h3v12h-3zM696 449h12v3h-12zM713 444h3v12h-3zM708 449h12v3h-12zM677 456h3v12h-3zM672 461h12v3h-12zM689 456h3v12h-3zM684 461h12v3h-12zM677 468h3v12h-3zM672 473h12v3h-12zM689 468h3v12h-3zM684 473h12v3h-12zM737 432h3v12h-3zM732 437h12v3h-12zM725 444h3v12h-3zM720 449h12v3h-12zM761 456h3v12h-3zM756 461h12v3h-12zM749 468h3v12h-3zM744 473h12v3h-12zM773 432h3v12h-3zM768 437h12v3h-12zM809 432h3v12h-3zM804 437h12v3h-12zM785 444h3v12h-3zM780 449h12v3h-12zM797 444h3v12h-3zM792 449h12v3h-12zM785 456h3v12h-3zM780 461h12v3h-12zM797 456h3v12h-3zM792 461h12v3h-12zM773 468h3v12h-3zM768 473h12v3h-12zM809 468h3v12h-3zM804 473h12v3h-12zM857 432h3v12h-3zM852 437h12v3h-12zM845 444h3v12h-3zM840 449h12v3h-12zM833 456h3v12h-3zM828 461h12v3h-12zM821 468h3v12h-3zM816 473h12v3h-12zM869 432h3v12h-3zM864 437h12v3h-12zM881 432h3v12h-3zM876 437h12v3h-12zM893 468h3v12h-3zM888 473h12v3h-12zM905 468h3v12h-3zM900 473h12v3h-12zM935 450h3v12h-3zM930 455h12v3h-12zM5 480h3v12h-3zM0 485h12v3h-12zM41 480h3v12h-3zM36 485h12v3h-12zM5 504h3v12h-3zM0 509h12v3h-12zM41 504h3v12h-3zM36 509h12v3h-12zM113 480h3v12h-3zM108 485h12v3h-12zM137 480h3v12h-3zM132 485h12v3h-12zM101 492h3v12h-3zM96 497h12v3h-12zM137 504h3v12h-3zM132 509h12v3h-12zM101 516h3v12h-3zM96 521h12v3h-12zM125 516h3v12h-3zM120 521h12v3h-12zM197 492h3v12h-3zM192 497h12v3h-12zM233 492h3v12h-3zM228 497h12v3h-12zM197 504h3v12h-3zM192 509h12v3h-12zM209 504h3v12h-3zM204 509h12v3h-12zM305 492h3v12h-3zM300 497h12v3h-12zM317 492h3v12h-3zM312 497h12v3h-12zM305 504h3v12h-3zM300 509h12v3h-12zM317 504h3v12h-3zM312 509h12v3h-12zM401 480h3v12h-3zM396 485h12v3h-12zM389 492h3v12h-3zM384 497h12v3h-12zM413 492h3v12h-3zM408 497h12v3h-12zM401 504h3v12h-3zM396 509h12v3h-12zM425 504h3v12h-3zM420 509h12v3h-12zM413 516h3v12h-3zM408 521h12v3h-12zM497 480h3v12h-3zM492 485h12v3h-12zM485 492h3v12h-3zM480 497h12v3h-12zM497 492h3v12h-3zM492 497h12v3h-12zM509 504h3v12h-3zM504 509h12v3h-12zM521 504h3v12h-3zM516 509h12v3h-12zM509 516h3v12h-3zM504 521h12v3h-12zM533 480h3v12h-3zM528 485h12v3h-12zM569 480h3v12h-3zM564 485h12v3h-12zM545 492h3v12h-3zM540 497h12v3h-12zM545 504h3v12h-3zM540 509h12v3h-12zM557 504h3v12h-3zM552 509h12v3h-12zM533 516h3v12h-3zM528 521h12v3h-12zM569 516h3v12h-3zM564 521h12v3h-12zM605 480h3v12h-3zM600 485h12v3h-12zM617 492h3v12h-3zM612 497h12v3h-12zM581 504h3v12h-3zM576 509h12v3h-12zM593 516h3v12h-3zM588 521h12v3h-12zM641 492h3v12h-3zM636 497h12v3h-12zM653 492h3v12h-3zM648 497h12v3h-12zM641 504h3v12h-3zM636 509h12v3h-12zM653 504h3v12h-3zM648 509h12v3h-12zM689 480h3v12h-3zM684 485h12v3h-12zM701 480h3v12h-3zM696 485h12v3h-12zM689 516h3v12h-3zM684 521h12v3h-12zM701 516h3v12h-3zM696 521h12v3h-12zM725 480h3v12h-3zM720 485h12v3h-12zM761 480h3v12h-3zM756 485h12v3h-12zM737 492h3v12h-3zM732 497h12v3h-12zM749 492h3v12h-3zM744 497h12v3h-12zM725 516h3v12h-3zM720 521h12v3h-12zM761 516h3v12h-3zM756 521h12v3h-12zM809 480h3v12h-3zM804 485h12v3h-12zM809 492h3v12h-3zM804 497h12v3h-12zM773 504h3v12h-3zM768 509h12v3h-12zM773 516h3v12h-3zM768 521h12v3h-12zM821 480h3v12h-3zM816 485h12v3h-12zM833 480h3v12h-3zM828 485h12v3h-12zM821 492h3v12h-3zM816 497h12v3h-12zM833 492h3v12h-3zM828 497h12v3h-12zM845 504h3v12h-3zM840 509h12v3h-12zM857 504h3v12h-3zM852 509h12v3h-12zM845 516h3v12h-3zM840 521h12v3h-12zM857 516h3v12h-3zM852 521h12v3h-12zM881 480h3v12h-3zM876 485h12v3h-12zM905 480h3v12h-3zM900 485h12v3h-12zM893 492h3v12h-3zM888 497h12v3h-12zM893 504h3v12h-3zM888 509h12v3h-12zM881 516h3v12h-3zM876 521h12v3h-12zM905 516h3v12h-3zM900 521h12v3h-12zM929 480h3v12h-3zM924 485h12v3h-12zM953 480h3v12h-3zM948 485h12v3h-12zM917 492h3v12h-3zM912 497h12v3h-12zM941 492h3v12h-3zM936 497h12v3h-12zM929 504h3v12h-3zM924 509h12v3h-12zM953 504h3v12h-3zM948 509h12v3h-12zM917 516h3v12h-3zM912 521h12v3h-12zM941 516h3v12h-3zM936 521h12v3h-12zM497 528h3v12h-3zM492 533h12v3h-12zM521 528h3v12h-3zM516 533h12v3h-12zM485 540h3v12h-3zM480 545h12v3h-12zM509 540h3v12h-3zM504 545h12v3h-12zM497 552h3v12h-3zM492 557h12v3h-12zM521 552h3v12h-3zM516 557h12v3h-12zM485 564h3v12h-3zM480 569h12v3h-12zM509 564h3v12h-3zM504 569h12v3h-12zM533 528h3v12h-3zM528 533h12v3h-12zM569 528h3v12h-3zM564 533h12v3h-12zM545 540h3v12h-3zM540 545h12v3h-12zM557 540h3v12h-3zM552 545h12v3h-12zM533 552h3v12h-3zM528 557h12v3h-12zM569 552h3v12h-3zM564 557h12v3h-12zM593 528h3v12h-3zM588 533h12v3h-12zM581 540h3v12h-3zM576 545h12v3h-12zM605 540h3v12h-3zM600 545h12v3h-12zM617 540h3v12h-3zM612 545h12v3h-12zM581 552h3v12h-3zM576 557h12v3h-12zM593 552h3v12h-3zM588 557h12v3h-12zM617 552h3v12h-3zM612 557h12v3h-12zM605 564h3v12h-3zM600 569h12v3h-12zM641 528h3v12h-3zM636 533h12v3h-12zM629 540h3v12h-3zM624 545h12v3h-12zM665 552h3v12h-3zM660 557h12v3h-12zM653 564h3v12h-3zM648 569h12v3h-12zM677 528h3v12h-3zM672 533h12v3h-12zM713 528h3v12h-3zM708 533h12v3h-12zM677 564h3v12h-3zM672 569h12v3h-12zM713 564h3v12h-3zM708 569h12v3h-12zM761 528h3v12h-3zM756 533h12v3h-12zM749 540h3v12h-3zM744 545h12v3h-12zM737 552h3v12h-3zM732 557h12v3h-12zM725 564h3v12h-3zM720 569h12v3h-12zM797 528h3v12h-3zM792 533h12v3h-12zM785 540h3v12h-3zM780 545h12v3h-12zM809 540h3v12h-3zM804 545h12v3h-12zM773 552h3v12h-3zM768 557h12v3h-12zM797 552h3v12h-3zM792 557h12v3h-12zM785 564h3v12h-3zM780 569h12v3h-12zM845 528h3v12h-3zM840 533h12v3h-12zM821 540h3v12h-3zM816 545h12v3h-12zM833 540h3v12h-3zM828 545h12v3h-12zM857 540h3v12h-3zM852 545h12v3h-12zM821 552h3v12h-3zM816 557h12v3h-12zM845 552h3v12h-3zM840 557h12v3h-12zM857 552h3v12h-3zM852 557h12v3h-12zM833 564h3v12h-3zM828 569h12v3h-12zM869 528h3v12h-3zM864 533h12v3h-12zM881 528h3v12h-3zM876 533h12v3h-12zM869 540h3v12h-3zM864 545h12v3h-12zM881 540h3v12h-3zM876 545h12v3h-12zM893 552h3v12h-3zM888 557h12v3h-12zM905 552h3v12h-3zM900 557h12v3h-12zM893 564h3v12h-3zM888 569h12v3h-12zM905 564h3v12h-3zM900 569h12v3h-12zM941 528h3v12h-3zM936 533h12v3h-12zM953 528h3v12h-3zM948 533h12v3h-12zM917 564h3v12h-3zM912 569h12v3h-12zM929 564h3v12h-3zM924 569h12v3h-12zM17 576h3v12h-3zM12 581h12v3h-12zM29 576h3v12h-3zM24 581h12v3h-12zM5 588h3v12h-3zM0 593h12v3h-12zM29 588h3v12h-3zM24 593h12v3h-12zM17 600h3v12h-3zM12 605h12v3h-12zM41 600h3v12h-3zM36 605h12v3h-12zM17 612h3v12h-3zM12 617h12v3h-12zM29 612h3v12h-3zM24 617h12v3h-12zM113 576h3v12h-3zM108 581h12v3h-12zM125 576h3v12h-3zM120 581h12v3h-12zM113 612h3v12h-3zM108 617h12v3h-12zM125 612h3v12h-3zM120 617h12v3h-12zM197 576h3v12h-3zM192 581h12v3h-12zM233 576h3v12h-3zM228 581h12v3h-12zM197 600h3v12h-3zM192 605h12v3h-12zM233 600h3v12h-3zM228 605h12v3h-12zM293 576h3v12h-3zM288 581h12v3h-12zM317 576h3v12h-3zM312 581h12v3h-12zM305 588h3v12h-3zM300 593h12v3h-12zM329 588h3v12h-3zM324 593h12v3h-12zM293 600h3v12h-3zM288 605h12v3h-12zM317 600h3v12h-3zM312 605h12v3h-12zM305 612h3v12h-3zM300 617h12v3h-12zM329 612h3v12h-3zM324 617h12v3h-12zM413 576h3v12h-3zM408 581h12v3h-12zM401 588h3v12h-3zM396 593h12v3h-12zM425 588h3v12h-3zM420 593h12v3h-12zM389 600h3v12h-3zM384 605h12v3h-12zM413 600h3v12h-3zM408 605h12v3h-12zM401 612h3v12h-3zM396 617h12v3h-12zM497 576h3v12h-3zM492 581h12v3h-12zM521 576h3v12h-3zM516 581h12v3h-12zM509 588h3v12h-3zM504 593h12v3h-12zM509 600h3v12h-3zM504 605h12v3h-12zM497 612h3v12h-3zM492 617h12v3h-12zM521 612h3v12h-3zM516 617h12v3h-12zM545 576h3v12h-3zM540 581h12v3h-12zM569 576h3v12h-3zM564 581h12v3h-12zM533 588h3v12h-3zM528 593h12v3h-12zM557 588h3v12h-3zM552 593h12v3h-12zM545 600h3v12h-3zM540 605h12v3h-12zM569 600h3v12h-3zM564 605h12v3h-12zM533 612h3v12h-3zM528 617h12v3h-12zM557 612h3v12h-3zM552 617h12v3h-12zM593 576h3v12h-3zM588 581h12v3h-12zM581 588h3v12h-3zM576 593h12v3h-12zM593 588h3v12h-3zM588 593h12v3h-12zM605 600h3v12h-3zM600 605h12v3h-12zM617 600h3v12h-3zM612 605h12v3h-12zM605 612h3v12h-3zM600 617h12v3h-12zM629 576h3v12h-3zM624 581h12v3h-12zM653 576h3v12h-3zM648 581h12v3h-12zM653 588h3v12h-3zM648 593h12v3h-12zM665 588h3v12h-3zM660 593h12v3h-12zM629 600h3v12h-3zM624 605h12v3h-12zM641 600h3v12h-3zM636 605h12v3h-12zM641 612h3v12h-3zM636 617h12v3h-12zM665 612h3v12h-3zM660 617h12v3h-12zM677 576h3v12h-3zM672 581h12v3h-12zM689 576h3v12h-3zM684 581h12v3h-12zM701 612h3v12h-3zM696 617h12v3h-12zM713 612h3v12h-3zM708 617h12v3h-12zM725 576h3v12h-3zM720 581h12v3h-12zM761 576h3v12h-3zM756 581h12v3h-12zM737 588h3v12h-3zM732 593h12v3h-12zM737 600h3v12h-3zM732 605h12v3h-12zM749 600h3v12h-3zM744 605h12v3h-12zM725 612h3v12h-3zM720 617h12v3h-12zM761 612h3v12h-3zM756 617h12v3h-12zM785 576h3v12h-3zM780 581h12v3h-12zM797 576h3v12h-3zM792 581h12v3h-12zM785 612h3v12h-3zM780 617h12v3h-12zM797 612h3v12h-3zM792 617h12v3h-12zM857 576h3v12h-3zM852 581h12v3h-12zM845 588h3v12h-3zM840 593h12v3h-12zM833 600h3v12h-3zM828 605h12v3h-12zM821 612h3v12h-3zM816 617h12v3h-12zM869 588h3v12h-3zM864 593h12v3h-12zM905 588h3v12h-3zM900 593h12v3h-12zM869 600h3v12h-3zM864 605h12v3h-12zM881 600h3v12h-3zM876 605h12v3h-12zM941 576h3v12h-3zM936 581h12v3h-12zM941 588h3v12h-3zM936 593h12v3h-12zM953 588h3v12h-3zM948 593h12v3h-12zM917 600h3v12h-3zM912 605h12v3h-12zM929 600h3v12h-3zM924 605h12v3h-12zM929 612h3v12h-3zM924 617h12v3h-12zM41 624h3v12h-3zM36 629h12v3h-12zM41 636h3v12h-3zM36 641h12v3h-12zM5 648h3v12h-3zM0 653h12v3h-12zM5 660h3v12h-3zM0 665h12v3h-12zM65 624h3v12h-3zM60 629h12v3h-12zM89 624h3v12h-3zM84 629h12v3h-12zM53 636h3v12h-3zM48 641h12v3h-12zM89 648h3v12h-3zM84 653h12v3h-12zM53 660h3v12h-3zM48 665h12v3h-12zM77 660h3v12h-3zM72 665h12v3h-12zM101 636h3v12h-3zM96 641h12v3h-12zM137 636h3v12h-3zM132 641h12v3h-12zM101 648h3v12h-3zM96 653h12v3h-12zM113 648h3v12h-3zM108 653h12v3h-12zM149 624h3v12h-3zM144 629h12v3h-12zM185 624h3v12h-3zM180 629h12v3h-12zM161 636h3v12h-3zM156 641h12v3h-12zM173 636h3v12h-3zM168 641h12v3h-12zM149 648h3v12h-3zM144 653h12v3h-12zM185 648h3v12h-3zM180 653h12v3h-12zM209 624h3v12h-3zM204 629h12v3h-12zM197 636h3v12h-3zM192 641h12v3h-12zM221 636h3v12h-3zM216 641h12v3h-12zM233 636h3v12h-3zM228 641h12v3h-12zM197 648h3v12h-3zM192 653h12v3h-12zM209 648h3v12h-3zM204 653h12v3h-12zM233 648h3v12h-3zM228 653h12v3h-12zM221 660h3v12h-3zM216 665h12v3h-12zM269 624h3v12h-3zM264 629h12v3h-12zM269 636h3v12h-3zM264 641h12v3h-12zM281 636h3v12h-3zM276 641h12v3h-12zM245 648h3v12h-3zM240 653h12v3h-12zM257 648h3v12h-3zM252 653h12v3h-12zM257 660h3v12h-3zM252 665h12v3h-12zM305 624h3v12h-3zM300 629h12v3h-12zM329 624h3v12h-3zM324 629h12v3h-12zM293 636h3v12h-3zM288 641h12v3h-12zM305 636h3v12h-3zM300 641h12v3h-12zM317 648h3v12h-3zM312 653h12v3h-12zM329 648h3v12h-3zM324 653h12v3h-12zM293 660h3v12h-3zM288 665h12v3h-12zM317 660h3v12h-3zM312 665h12v3h-12zM341 624h3v12h-3zM336 629h12v3h-12zM377 624h3v12h-3zM372 629h12v3h-12zM353 636h3v12h-3zM348 641h12v3h-12zM365 636h3v12h-3zM360 641h12v3h-12zM341 660h3v12h-3zM336 665h12v3h-12zM377 660h3v12h-3zM372 665h12v3h-12zM389 624h3v12h-3zM384 629h12v3h-12zM413 624h3v12h-3zM408 629h12v3h-12zM401 636h3v12h-3zM396 641h12v3h-12zM425 636h3v12h-3zM420 641h12v3h-12zM389 648h3v12h-3zM384 653h12v3h-12zM413 648h3v12h-3zM408 653h12v3h-12zM401 660h3v12h-3zM396 665h12v3h-12zM425 660h3v12h-3zM420 665h12v3h-12zM437 624h3v12h-3zM432 629h12v3h-12zM473 624h3v12h-3zM468 629h12v3h-12zM449 636h3v12h-3zM444 641h12v3h-12zM461 648h3v12h-3zM456 653h12v3h-12zM437 660h3v12h-3zM432 665h12v3h-12zM473 660h3v12h-3zM468 665h12v3h-12zM29 672h3v12h-3zM24 677h12v3h-12zM29 684h3v12h-3zM24 689h12v3h-12zM41 684h3v12h-3zM36 689h12v3h-12zM5 696h3v12h-3zM0 701h12v3h-12zM17 696h3v12h-3zM12 701h12v3h-12zM17 708h3v12h-3zM12 713h12v3h-12zM53 672h3v12h-3zM48 677h12v3h-12zM65 684h3v12h-3zM60 689h12v3h-12zM77 696h3v12h-3zM72 701h12v3h-12zM89 708h3v12h-3zM84 713h12v3h-12zM101 672h3v12h-3zM96 677h12v3h-12zM137 672h3v12h-3zM132 677h12v3h-12zM113 684h3v12h-3zM108 689h12v3h-12zM125 684h3v12h-3zM120 689h12v3h-12zM125 696h3v12h-3zM120 701h12v3h-12zM101 708h3v12h-3zM96 713h12v3h-12zM137 708h3v12h-3zM132 713h12v3h-12zM149 672h3v12h-3zM144 677h12v3h-12zM185 672h3v12h-3zM180 677h12v3h-12zM173 684h3v12h-3zM168 689h12v3h-12zM161 696h3v12h-3zM156 701h12v3h-12zM149 708h3v12h-3zM144 713h12v3h-12zM185 708h3v12h-3zM180 713h12v3h-12zM209 672h3v12h-3zM204 677h12v3h-12zM197 684h3v12h-3zM192 689h12v3h-12zM233 696h3v12h-3zM228 701h12v3h-12zM221 708h3v12h-3zM216 713h12v3h-12zM257 672h3v12h-3zM252 677h12v3h-12zM269 672h3v12h-3zM264 677h12v3h-12zM257 708h3v12h-3zM252 713h12v3h-12zM269 708h3v12h-3zM264 713h12v3h-12zM329 672h3v12h-3zM324 677h12v3h-12zM329 684h3v12h-3zM324 689h12v3h-12zM293 696h3v12h-3zM288 701h12v3h-12zM293 708h3v12h-3zM288 713h12v3h-12zM341 672h3v12h-3zM336 677h12v3h-12zM353 684h3v12h-3zM348 689h12v3h-12zM365 696h3v12h-3zM360 701h12v3h-12zM377 708h3v12h-3zM372 713h12v3h-12zM401 672h3v12h-3zM396 677h12v3h-12zM389 684h3v12h-3zM384 689h12v3h-12zM413 684h3v12h-3zM408 689h12v3h-12zM401 696h3v12h-3zM396 701h12v3h-12zM425 696h3v12h-3zM420 701h12v3h-12zM413 708h3v12h-3zM408 713h12v3h-12zM437 672h3v12h-3zM432 677h12v3h-12zM449 672h3v12h-3zM444 677h12v3h-12zM437 684h3v12h-3zM432 689h12v3h-12zM449 684h3v12h-3zM444 689h12v3h-12zM461 696h3v12h-3zM456 701h12v3h-12zM473 696h3v12h-3zM468 701h12v3h-12zM461 708h3v12h-3zM456 713h12v3h-12zM473 708h3v12h-3zM468 713h12v3h-12zM485 672h3v12h-3zM480 677h12v3h-12zM497 672h3v12h-3zM492 677h12v3h-12zM521 672h3v12h-3zM516 677h12v3h-12zM485 684h3v12h-3zM480 689h12v3h-12zM509 684h3v12h-3zM504 689h12v3h-12zM497 696h3v12h-3zM492 701h12v3h-12zM485 708h3v12h-3zM480 713h12v3h-12zM581 672h3v12h-3zM576 677h12v3h-12zM617 672h3v12h-3zM612 677h12v3h-12zM581 708h3v12h-3zM576 713h12v3h-12zM617 708h3v12h-3zM612 713h12v3h-12zM677 672h3v12h-3zM672 677h12v3h-12zM713 672h3v12h-3zM708 677h12v3h-12zM689 684h3v12h-3zM684 689h12v3h-12zM701 684h3v12h-3zM696 689h12v3h-12zM677 696h3v12h-3zM672 701h12v3h-12zM713 696h3v12h-3zM708 701h12v3h-12zM809 672h3v12h-3zM804 677h12v3h-12zM809 684h3v12h-3zM804 689h12v3h-12zM773 696h3v12h-3zM768 701h12v3h-12zM773 708h3v12h-3zM768 713h12v3h-12zM887 690h3v12h-3zM882 695h12v3h-12zM5 720h3v12h-3zM0 725h12v3h-12zM41 720h3v12h-3zM36 725h12v3h-12zM29 732h3v12h-3zM24 737h12v3h-12zM17 744h3v12h-3zM12 749h12v3h-12zM29 744h3v12h-3zM24 749h12v3h-12zM5 756h3v12h-3zM0 761h12v3h-12zM41 756h3v12h-3zM36 761h12v3h-12zM53 720h3v12h-3zM48 725h12v3h-12zM89 720h3v12h-3zM84 725h12v3h-12zM65 732h3v12h-3zM60 737h12v3h-12zM77 744h3v12h-3zM72 749h12v3h-12zM53 756h3v12h-3zM48 761h12v3h-12zM89 756h3v12h-3zM84 761h12v3h-12zM125 720h3v12h-3zM120 725h12v3h-12zM137 732h3v12h-3zM132 737h12v3h-12zM101 744h3v12h-3zM96 749h12v3h-12zM113 756h3v12h-3zM108 761h12v3h-12zM149 720h3v12h-3zM144 725h12v3h-12zM161 720h3v12h-3zM156 725h12v3h-12zM173 756h3v12h-3zM168 761h12v3h-12zM185 756h3v12h-3zM180 761h12v3h-12zM209 720h3v12h-3zM204 725h12v3h-12zM233 720h3v12h-3zM228 725h12v3h-12zM221 732h3v12h-3zM216 737h12v3h-12zM221 744h3v12h-3zM216 749h12v3h-12zM209 756h3v12h-3zM204 761h12v3h-12zM233 756h3v12h-3zM228 761h12v3h-12zM257 720h3v12h-3zM252 725h12v3h-12zM269 720h3v12h-3zM264 725h12v3h-12zM245 732h3v12h-3zM240 737h12v3h-12zM269 732h3v12h-3zM264 737h12v3h-12zM257 744h3v12h-3zM252 749h12v3h-12zM281 744h3v12h-3zM276 749h12v3h-12zM257 756h3v12h-3zM252 761h12v3h-12zM269 756h3v12h-3zM264 761h12v3h-12zM293 720h3v12h-3zM288 725h12v3h-12zM329 720h3v12h-3zM324 725h12v3h-12zM305 732h3v12h-3zM300 737h12v3h-12zM317 732h3v12h-3zM312 737h12v3h-12zM293 756h3v12h-3zM288 761h12v3h-12zM329 756h3v12h-3zM324 761h12v3h-12zM341 720h3v12h-3zM336 725h12v3h-12zM353 732h3v12h-3zM348 737h12v3h-12zM341 744h3v12h-3zM336 749h12v3h-12zM365 744h3v12h-3zM360 749h12v3h-12zM341 756h3v12h-3zM336 761h12v3h-12zM353 756h3v12h-3zM348 761h12v3h-12zM377 756h3v12h-3zM372 761h12v3h-12zM401 720h3v12h-3zM396 725h12v3h-12zM413 744h3v12h-3zM408 749h12v3h-12zM401 756h3v12h-3zM396 761h12v3h-12zM413 756h3v12h-3zM408 761h12v3h-12zM437 732h3v12h-3zM432 737h12v3h-12zM449 732h3v12h-3zM444 737h12v3h-12zM437 744h3v12h-3zM432 749h12v3h-12zM473 744h3v12h-3zM468 749h12v3h-12zM29 768h3v12h-3zM24 773h12v3h-12zM41 780h3v12h-3zM36 785h12v3h-12zM5 792h3v12h-3zM0 797h12v3h-12zM17 804h3v12h-3zM12 809h12v3h-12zM65 768h3v12h-3zM60 773h12v3h-12zM89 768h3v12h-3zM84 773h12v3h-12zM77 780h3v12h-3zM72 785h12v3h-12zM77 792h3v12h-3zM72 797h12v3h-12zM65 804h3v12h-3zM60 809h12v3h-12zM89 804h3v12h-3zM84 809h12v3h-12zM101 768h3v12h-3zM96 773h12v3h-12zM125 768h3v12h-3zM120 773h12v3h-12zM125 780h3v12h-3zM120 785h12v3h-12zM137 780h3v12h-3zM132 785h12v3h-12zM101 792h3v12h-3zM96 797h12v3h-12zM113 792h3v12h-3zM108 797h12v3h-12zM113 804h3v12h-3zM108 809h12v3h-12zM137 804h3v12h-3zM132 809h12v3h-12zM149 768h3v12h-3zM144 773h12v3h-12zM149 780h3v12h-3zM144 785h12v3h-12zM185 792h3v12h-3zM180 797h12v3h-12zM185 804h3v12h-3zM180 809h12v3h-12zM197 768h3v12h-3zM192 773h12v3h-12zM233 768h3v12h-3zM228 773h12v3h-12zM209 780h3v12h-3zM204 785h12v3h-12zM221 780h3v12h-3zM216 785h12v3h-12zM197 804h3v12h-3zM192 809h12v3h-12zM233 804h3v12h-3zM228 809h12v3h-12zM281 768h3v12h-3zM276 773h12v3h-12zM281 780h3v12h-3zM276 785h12v3h-12zM245 792h3v12h-3zM240 797h12v3h-12zM245 804h3v12h-3zM240 809h12v3h-12zM305 768h3v12h-3zM300 773h12v3h-12zM317 792h3v12h-3zM312 797h12v3h-12zM305 804h3v12h-3zM300 809h12v3h-12zM317 804h3v12h-3zM312 809h12v3h-12zM377 840h3v12h-3zM372 845h12v3h-12zM353 768h3v12h-3zM348 773h12v3h-12zM365 768h3v12h-3zM360 773h12v3h-12zM353 780h3v12h-3zM348 785h12v3h-12zM377 780h3v12h-3zM372 785h12v3h-12zM341 792h3v12h-3zM336 797h12v3h-12zM365 792h3v12h-3zM360 797h12v3h-12zM353 804h3v12h-3zM348 809h12v3h-12zM365 804h3v12h-3zM360 809h12v3h-12zM389 768h3v12h-3zM384 773h12v3h-12zM425 768h3v12h-3zM420 773h12v3h-12zM401 780h3v12h-3zM396 785h12v3h-12zM413 792h3v12h-3zM408 797h12v3h-12zM389 804h3v12h-3zM384 809h12v3h-12zM425 804h3v12h-3zM420 809h12v3h-12zM449 768h3v12h-3zM444 773h12v3h-12zM473 768h3v12h-3zM468 773h12v3h-12zM461 780h3v12h-3zM456 785h12v3h-12zM461 792h3v12h-3zM456 797h12v3h-12zM449 804h3v12h-3zM444 809h12v3h-12zM473 804h3v12h-3zM468 809h12v3h-12zM497 768h3v12h-3zM492 773h12v3h-12zM485 780h3v12h-3zM480 785h12v3h-12zM509 780h3v12h-3zM504 785h12v3h-12zM521 780h3v12h-3zM516 785h12v3h-12zM485 792h3v12h-3zM480 797h12v3h-12zM497 792h3v12h-3zM492 797h12v3h-12zM521 792h3v12h-3zM516 797h12v3h-12zM509 804h3v12h-3zM504 809h12v3h-12zM581 768h3v12h-3zM576 773h12v3h-12zM605 768h3v12h-3zM600 773h12v3h-12zM605 780h3v12h-3zM600 785h12v3h-12zM617 780h3v12h-3zM612 785h12v3h-12zM581 792h3v12h-3zM576 797h12v3h-12zM593 792h3v12h-3zM588 797h12v3h-12zM593 804h3v12h-3zM588 809h12v3h-12zM617 804h3v12h-3zM612 809h12v3h-12zM713 768h3v12h-3zM708 773h12v3h-12zM713 780h3v12h-3zM708 785h12v3h-12zM677 792h3v12h-3zM672 797h12v3h-12zM677 804h3v12h-3zM672 809h12v3h-12zM773 780h3v12h-3zM768 785h12v3h-12zM809 780h3v12h-3zM804 785h12v3h-12zM773 792h3v12h-3zM768 797h12v3h-12zM809 792h3v12h-3zM804 797h12v3h-12zM869 768h3v12h-3zM864 773h12v3h-12zM893 768h3v12h-3zM888 773h12v3h-12zM881 780h3v12h-3zM876 785h12v3h-12zM905 780h3v12h-3zM900 785h12v3h-12zM869 792h3v12h-3zM864 797h12v3h-12zM893 792h3v12h-3zM888 797h12v3h-12zM881 804h3v12h-3zM876 809h12v3h-12zM905 804h3v12h-3zM900 809h12v3h-12zM5 816h3v12h-3zM0 821h12v3h-12zM5 828h3v12h-3zM0 833h12v3h-12zM41 840h3v12h-3zM36 845h12v3h-12zM41 852h3v12h-3zM36 857h12v3h-12zM77 816h3v12h-3zM72 821h12v3h-12zM89 816h3v12h-3zM84 821h12v3h-12zM77 828h3v12h-3zM72 833h12v3h-12zM89 828h3v12h-3zM84 833h12v3h-12zM53 840h3v12h-3zM48 845h12v3h-12zM65 840h3v12h-3zM60 845h12v3h-12zM53 852h3v12h-3zM48 857h12v3h-12zM65 852h3v12h-3zM60 857h12v3h-12zM113 816h3v12h-3zM108 821h12v3h-12zM101 828h3v12h-3zM96 833h12v3h-12zM113 828h3v12h-3zM108 833h12v3h-12zM125 840h3v12h-3zM120 845h12v3h-12zM137 840h3v12h-3zM132 845h12v3h-12zM125 852h3v12h-3zM120 857h12v3h-12zM161 816h3v12h-3zM156 821h12v3h-12zM185 816h3v12h-3zM180 821h12v3h-12zM173 828h3v12h-3zM168 833h12v3h-12zM173 840h3v12h-3zM168 845h12v3h-12zM161 852h3v12h-3zM156 857h12v3h-12zM185 852h3v12h-3zM180 857h12v3h-12zM209 816h3v12h-3zM204 821h12v3h-12zM221 840h3v12h-3zM216 845h12v3h-12zM209 852h3v12h-3zM204 857h12v3h-12zM221 852h3v12h-3zM216 857h12v3h-12zM269 816h3v12h-3zM264 821h12v3h-12zM257 828h3v12h-3zM252 833h12v3h-12zM281 828h3v12h-3zM276 833h12v3h-12zM245 840h3v12h-3zM240 845h12v3h-12zM269 840h3v12h-3zM264 845h12v3h-12zM257 852h3v12h-3zM252 857h12v3h-12zM305 816h3v12h-3zM300 821h12v3h-12zM317 816h3v12h-3zM312 821h12v3h-12zM317 828h3v12h-3zM312 833h12v3h-12zM305 852h3v12h-3zM300 857h12v3h-12zM341 828h3v12h-3zM336 833h12v3h-12zM377 828h3v12h-3zM372 833h12v3h-12zM341 840h3v12h-3zM336 845h12v3h-12zM353 840h3v12h-3zM348 845h12v3h-12zM425 816h3v12h-3zM420 821h12v3h-12zM425 828h3v12h-3zM420 833h12v3h-12zM389 840h3v12h-3zM384 845h12v3h-12zM389 852h3v12h-3zM384 857h12v3h-12zM437 816h3v12h-3zM432 821h12v3h-12zM461 816h3v12h-3zM456 821h12v3h-12zM473 828h3v12h-3zM468 833h12v3h-12zM437 840h3v12h-3zM432 845h12v3h-12zM449 852h3v12h-3zM444 857h12v3h-12zM473 852h3v12h-3zM468 857h12v3h-12zM5 876h3v12h-3zM0 881h12v3h-12zM41 876h3v12h-3zM36 881h12v3h-12zM5 888h3v12h-3zM0 893h12v3h-12zM17 888h3v12h-3zM12 893h12v3h-12zM53 864h3v12h-3zM48 869h12v3h-12zM89 864h3v12h-3zM84 869h12v3h-12zM65 876h3v12h-3zM60 881h12v3h-12zM77 876h3v12h-3zM72 881h12v3h-12zM65 888h3v12h-3zM60 893h12v3h-12zM53 900h3v12h-3zM48 905h12v3h-12zM89 900h3v12h-3zM84 905h12v3h-12zM113 864h3v12h-3zM108 869h12v3h-12zM137 864h3v12h-3zM132 869h12v3h-12zM101 876h3v12h-3zM96 881h12v3h-12zM113 876h3v12h-3zM108 881h12v3h-12zM125 888h3v12h-3zM120 893h12v3h-12zM137 888h3v12h-3zM132 893h12v3h-12zM101 900h3v12h-3zM96 905h12v3h-12zM125 900h3v12h-3zM120 905h12v3h-12zM149 864h3v12h-3zM144 869h12v3h-12zM185 864h3v12h-3zM180 869h12v3h-12zM161 876h3v12h-3zM156 881h12v3h-12zM173 888h3v12h-3zM168 893h12v3h-12zM149 900h3v12h-3zM144 905h12v3h-12zM185 900h3v12h-3zM180 905h12v3h-12zM197 864h3v12h-3zM192 869h12v3h-12zM221 864h3v12h-3zM216 869h12v3h-12zM233 876h3v12h-3zM228 881h12v3h-12zM197 888h3v12h-3zM192 893h12v3h-12zM209 900h3v12h-3zM204 905h12v3h-12zM233 900h3v12h-3zM228 905h12v3h-12zM257 864h3v12h-3zM252 869h12v3h-12zM269 864h3v12h-3zM264 869h12v3h-12zM257 900h3v12h-3zM252 905h12v3h-12zM269 900h3v12h-3zM264 905h12v3h-12zM293 864h3v12h-3zM288 869h12v3h-12zM329 864h3v12h-3zM324 869h12v3h-12zM317 876h3v12h-3zM312 881h12v3h-12zM305 888h3v12h-3zM300 893h12v3h-12zM293 900h3v12h-3zM288 905h12v3h-12zM329 900h3v12h-3zM324 905h12v3h-12zM365 864h3v12h-3zM360 869h12v3h-12zM353 876h3v12h-3zM348 881h12v3h-12zM377 876h3v12h-3zM372 881h12v3h-12zM341 888h3v12h-3zM336 893h12v3h-12zM365 888h3v12h-3zM360 893h12v3h-12zM353 900h3v12h-3zM348 905h12v3h-12zM401 864h3v12h-3zM396 869h12v3h-12zM389 876h3v12h-3zM384 881h12v3h-12zM413 876h3v12h-3zM408 881h12v3h-12zM425 876h3v12h-3zM420 881h12v3h-12zM389 888h3v12h-3zM384 893h12v3h-12zM401 888h3v12h-3zM396 893h12v3h-12zM425 888h3v12h-3zM420 893h12v3h-12zM413 900h3v12h-3zM408 905h12v3h-12zM437 864h3v12h-3zM432 869h12v3h-12zM473 864h3v12h-3zM468 869h12v3h-12zM437 888h3v12h-3zM432 893h12v3h-12zM473 888h3v12h-3zM468 893h12v3h-12zM521 864h3v12h-3zM516 869h12v3h-12zM509 876h3v12h-3zM504 881h12v3h-12zM497 888h3v12h-3zM492 893h12v3h-12zM521 888h3v12h-3zM516 893h12v3h-12zM485 900h3v12h-3zM480 905h12v3h-12zM509 900h3v12h-3zM504 905h12v3h-12zM521 900h3v12h-3zM516 905h12v3h-12zM593 864h3v12h-3zM588 869h12v3h-12zM617 864h3v12h-3zM612 869h12v3h-12zM581 876h3v12h-3zM576 881h12v3h-12zM617 888h3v12h-3zM612 893h12v3h-12zM581 900h3v12h-3zM576 905h12v3h-12zM605 900h3v12h-3zM600 905h12v3h-12zM713 864h3v12h-3zM708 869h12v3h-12zM701 876h3v12h-3zM696 881h12v3h-12zM689 888h3v12h-3zM684 893h12v3h-12zM713 888h3v12h-3zM708 893h12v3h-12zM677 900h3v12h-3zM672 905h12v3h-12zM701 900h3v12h-3zM696 905h12v3h-12zM713 900h3v12h-3zM708 905h12v3h-12zM785 864h3v12h-3zM780 869h12v3h-12zM809 864h3v12h-3zM804 869h12v3h-12zM773 876h3v12h-3zM768 881h12v3h-12zM797 876h3v12h-3zM792 881h12v3h-12zM785 888h3v12h-3zM780 893h12v3h-12zM809 888h3v12h-3zM804 893h12v3h-12zM773 900h3v12h-3zM768 905h12v3h-12zM797 900h3v12h-3zM792 905h12v3h-12zM881 864h3v12h-3zM876 869h12v3h-12zM869 876h3v12h-3zM864 881h12v3h-12zM893 876h3v12h-3zM888 881h12v3h-12zM881 888h3v12h-3zM876 893h12v3h-12zM905 888h3v12h-3zM900 893h12v3h-12zM893 900h3v12h-3zM888 905h12v3h-12zM5 912h3v12h-3zM0 917h12v3h-12zM5 924h3v12h-3zM0 929h12v3h-12zM41 936h3v12h-3zM36 941h12v3h-12zM41 948h3v12h-3zM36 953h12v3h-12zM77 912h3v12h-3zM72 917h12v3h-12zM89 912h3v12h-3zM84 917h12v3h-12zM77 924h3v12h-3zM72 929h12v3h-12zM89 924h3v12h-3zM84 929h12v3h-12zM53 936h3v12h-3zM48 941h12v3h-12zM65 936h3v12h-3zM60 941h12v3h-12zM53 948h3v12h-3zM48 953h12v3h-12zM65 948h3v12h-3zM60 953h12v3h-12zM101 912h3v12h-3zM96 917h12v3h-12zM113 912h3v12h-3zM108 917h12v3h-12zM137 912h3v12h-3zM132 917h12v3h-12zM101 924h3v12h-3zM96 929h12v3h-12zM125 924h3v12h-3zM120 929h12v3h-12zM113 936h3v12h-3zM108 941h12v3h-12zM101 948h3v12h-3zM96 953h12v3h-12zM149 912h3v12h-3zM144 917h12v3h-12zM161 912h3v12h-3zM156 917h12v3h-12zM185 912h3v12h-3zM180 917h12v3h-12zM149 924h3v12h-3zM144 929h12v3h-12zM173 924h3v12h-3zM168 929h12v3h-12zM161 936h3v12h-3zM156 941h12v3h-12zM149 948h3v12h-3zM144 953h12v3h-12zM233 912h3v12h-3zM228 917h12v3h-12zM233 924h3v12h-3zM228 929h12v3h-12zM197 936h3v12h-3zM192 941h12v3h-12zM197 948h3v12h-3zM192 953h12v3h-12zM257 924h3v12h-3zM252 929h12v3h-12zM269 924h3v12h-3zM264 929h12v3h-12zM257 936h3v12h-3zM252 941h12v3h-12zM269 936h3v12h-3zM264 941h12v3h-12zM317 912h3v12h-3zM312 917h12v3h-12zM329 924h3v12h-3zM324 929h12v3h-12zM293 936h3v12h-3zM288 941h12v3h-12zM305 948h3v12h-3zM300 953h12v3h-12zM341 912h3v12h-3zM336 917h12v3h-12zM353 924h3v12h-3zM348 929h12v3h-12zM341 936h3v12h-3zM336 941h12v3h-12zM365 936h3v12h-3zM360 941h12v3h-12zM341 948h3v12h-3zM336 953h12v3h-12zM353 948h3v12h-3zM348 953h12v3h-12zM377 948h3v12h-3zM372 953h12v3h-12zM389 912h3v12h-3zM384 917h12v3h-12zM425 912h3v12h-3zM420 917h12v3h-12zM401 924h3v12h-3zM396 929h12v3h-12zM413 936h3v12h-3zM408 941h12v3h-12zM389 948h3v12h-3zM384 953h12v3h-12zM425 948h3v12h-3zM420 953h12v3h-12zM437 912h3v12h-3zM432 917h12v3h-12zM473 912h3v12h-3zM468 917h12v3h-12zM449 936h3v12h-3zM444 941h12v3h-12zM461 936h3v12h-3zM456 941h12v3h-12zM437 948h3v12h-3zM432 953h12v3h-12zM473 948h3v12h-3zM468 953h12v3h-12zM113 432h3v12h-3zM108 437h12v3h-12zM137 432h3v12h-3zM132 437h12v3h-12zM101 444h3v12h-3zM96 449h12v3h-12zM137 456h3v12h-3zM132 461h12v3h-12zM101 468h3v12h-3zM96 473h12v3h-12zM125 468h3v12h-3zM120 473h12v3h-12zM653 144h3v12h-3zM648 149h12v3h-12zM665 144h3v12h-3zM660 149h12v3h-12zM629 180h3v12h-3zM624 185h12v3h-12zM641 180h3v12h-3zM636 185h12v3h-12zM533 192h3v12h-3zM528 197h12v3h-12zM569 192h3v12h-3zM564 197h12v3h-12zM545 204h3v12h-3zM540 209h12v3h-12zM545 216h3v12h-3zM540 221h12v3h-12zM557 216h3v12h-3zM552 221h12v3h-12zM533 228h3v12h-3zM528 233h12v3h-12zM569 228h3v12h-3zM564 233h12v3h-12zM833 204h3v12h-3zM828 209h12v3h-12zM845 204h3v12h-3zM840 209h12v3h-12zM833 216h3v12h-3zM828 221h12v3h-12zM845 216h3v12h-3zM840 221h12v3h-12zM833 912h3v12h-3zM828 917h12v3h-12zM857 912h3v12h-3zM852 917h12v3h-12zM821 924h3v12h-3zM816 929h12v3h-12zM845 924h3v12h-3zM840 929h12v3h-12zM833 936h3v12h-3zM828 941h12v3h-12zM857 936h3v12h-3zM852 941h12v3h-12zM821 948h3v12h-3zM816 953h12v3h-12zM845 948h3v12h-3zM840 953h12v3h-12zM545 624h3v12h-3zM540 629h12v3h-12zM569 624h3v12h-3zM564 629h12v3h-12zM533 636h3v12h-3zM528 641h12v3h-12zM557 636h3v12h-3zM552 641h12v3h-12zM545 648h3v12h-3zM540 653h12v3h-12zM569 648h3v12h-3zM564 653h12v3h-12zM533 660h3v12h-3zM528 665h12v3h-12zM557 660h3v12h-3zM552 665h12v3h-12zM197 528h3v12h-3zM192 533h12v3h-12zM233 528h3v12h-3zM228 533h12v3h-12zM197 552h3v12h-3zM192 557h12v3h-12zM233 552h3v12h-3zM228 557h12v3h-12zM929 912h3v12h-3zM924 917h12v3h-12zM917 924h3v12h-3zM912 929h12v3h-12zM941 924h3v12h-3zM936 929h12v3h-12zM929 936h3v12h-3zM924 941h12v3h-12zM953 936h3v12h-3zM948 941h12v3h-12zM941 948h3v12h-3zM936 953h12v3h-12zM293 336h3v12h-3zM288 341h12v3h-12zM329 336h3v12h-3zM324 341h12v3h-12zM305 360h3v12h-3zM300 365h12v3h-12zM317 360h3v12h-3zM312 365h12v3h-12zM293 372h3v12h-3zM288 377h12v3h-12zM329 372h3v12h-3zM324 377h12v3h-12zM785 48h3v12h-3zM780 53h12v3h-12zM773 60h3v12h-3zM768 65h12v3h-12zM797 60h3v12h-3zM792 65h12v3h-12zM809 60h3v12h-3zM804 65h12v3h-12zM773 72h3v12h-3zM768 77h12v3h-12zM785 72h3v12h-3zM780 77h12v3h-12zM809 72h3v12h-3zM804 77h12v3h-12zM797 84h3v12h-3zM792 89h12v3h-12zM149 432h3v12h-3zM144 437h12v3h-12zM173 432h3v12h-3zM168 437h12v3h-12zM185 444h3v12h-3zM180 449h12v3h-12zM149 456h3v12h-3zM144 461h12v3h-12zM161 468h3v12h-3zM156 473h12v3h-12zM185 468h3v12h-3zM180 473h12v3h-12zM881 48h3v12h-3zM876 53h12v3h-12zM905 48h3v12h-3zM900 53h12v3h-12zM893 60h3v12h-3zM888 65h12v3h-12zM893 72h3v12h-3zM888 77h12v3h-12zM881 84h3v12h-3zM876 89h12v3h-12zM905 84h3v12h-3zM900 89h12v3h-12zM761 768h3v12h-3zM756 773h12v3h-12zM761 780h3v12h-3zM756 785h12v3h-12zM725 792h3v12h-3zM720 797h12v3h-12zM725 804h3v12h-3zM720 809h12v3h-12zM533 96h3v12h-3zM528 101h12v3h-12zM557 96h3v12h-3zM552 101h12v3h-12zM569 96h3v12h-3zM564 101h12v3h-12zM545 108h3v12h-3zM540 113h12v3h-12zM569 108h3v12h-3zM564 113h12v3h-12zM557 120h3v12h-3zM552 125h12v3h-12zM569 132h3v12h-3zM564 137h12v3h-12zM833 624h3v12h-3zM828 629h12v3h-12zM845 624h3v12h-3zM840 629h12v3h-12zM833 660h3v12h-3zM828 665h12v3h-12zM845 660h3v12h-3zM840 665h12v3h-12zM53 336h3v12h-3zM48 341h12v3h-12zM89 336h3v12h-3zM84 341h12v3h-12zM77 348h3v12h-3zM72 353h12v3h-12zM65 360h3v12h-3zM60 365h12v3h-12zM77 360h3v12h-3zM72 365h12v3h-12zM53 372h3v12h-3zM48 377h12v3h-12zM89 372h3v12h-3zM84 377h12v3h-12zM629 0h3v12h-3zM624 5h12v3h-12zM653 0h3v12h-3zM648 5h12v3h-12zM653 12h3v12h-3zM648 17h12v3h-12zM665 12h3v12h-3zM660 17h12v3h-12zM629 24h3v12h-3zM624 29h12v3h-12zM641 24h3v12h-3zM636 29h12v3h-12zM641 36h3v12h-3zM636 41h12v3h-12zM665 36h3v12h-3zM660 41h12v3h-12zM653 96h3v12h-3zM648 101h12v3h-12zM665 96h3v12h-3zM660 101h12v3h-12zM629 132h3v12h-3zM624 137h12v3h-12zM641 132h3v12h-3zM636 137h12v3h-12zM401 432h3v12h-3zM396 437h12v3h-12zM389 444h3v12h-3zM384 449h12v3h-12zM413 444h3v12h-3zM408 449h12v3h-12zM401 456h3v12h-3zM396 461h12v3h-12zM425 456h3v12h-3zM420 461h12v3h-12zM413 468h3v12h-3zM408 473h12v3h-12zM677 624h3v12h-3zM672 629h12v3h-12zM713 624h3v12h-3zM708 629h12v3h-12zM689 636h3v12h-3zM684 641h12v3h-12zM689 648h3v12h-3zM684 653h12v3h-12zM701 648h3v12h-3zM696 653h12v3h-12zM677 660h3v12h-3zM672 665h12v3h-12zM713 660h3v12h-3zM708 665h12v3h-12zM341 288h3v12h-3zM336 293h12v3h-12zM377 288h3v12h-3zM372 293h12v3h-12zM353 312h3v12h-3zM348 317h12v3h-12zM365 312h3v12h-3zM360 317h12v3h-12zM341 324h3v12h-3zM336 329h12v3h-12zM377 324h3v12h-3zM372 329h12v3h-12zM833 96h3v12h-3zM828 101h12v3h-12zM821 108h3v12h-3zM816 113h12v3h-12zM833 108h3v12h-3zM828 113h12v3h-12zM845 120h3v12h-3zM840 125h12v3h-12zM857 120h3v12h-3zM852 125h12v3h-12zM845 132h3v12h-3zM840 137h12v3h-12zM833 0h3v12h-3zM828 5h12v3h-12zM857 0h3v12h-3zM852 5h12v3h-12zM845 12h3v12h-3zM840 17h12v3h-12zM845 24h3v12h-3zM840 29h12v3h-12zM833 36h3v12h-3zM828 41h12v3h-12zM857 36h3v12h-3zM852 41h12v3h-12zM581 48h3v12h-3zM576 53h12v3h-12zM605 48h3v12h-3zM600 53h12v3h-12zM617 48h3v12h-3zM612 53h12v3h-12zM593 60h3v12h-3zM588 65h12v3h-12zM617 60h3v12h-3zM612 65h12v3h-12zM605 72h3v12h-3zM600 77h12v3h-12zM617 84h3v12h-3zM612 89h12v3h-12zM713 912h3v12h-3zM708 917h12v3h-12zM701 924h3v12h-3zM696 929h12v3h-12zM689 936h3v12h-3zM684 941h12v3h-12zM713 936h3v12h-3zM708 941h12v3h-12zM677 948h3v12h-3zM672 953h12v3h-12zM701 948h3v12h-3zM696 953h12v3h-12zM713 948h3v12h-3zM708 953h12v3h-12zM929 48h3v12h-3zM924 53h12v3h-12zM917 60h3v12h-3zM912 65h12v3h-12zM929 60h3v12h-3zM924 65h12v3h-12zM941 72h3v12h-3zM936 77h12v3h-12zM953 72h3v12h-3zM948 77h12v3h-12zM941 84h3v12h-3zM936 89h12v3h-12zM545 240h3v12h-3zM540 245h12v3h-12zM557 240h3v12h-3zM552 245h12v3h-12zM533 252h3v12h-3zM528 257h12v3h-12zM557 252h3v12h-3zM552 257h12v3h-12zM545 264h3v12h-3zM540 269h12v3h-12zM569 264h3v12h-3zM564 269h12v3h-12zM545 276h3v12h-3zM540 281h12v3h-12zM557 276h3v12h-3zM552 281h12v3h-12zM929 0h3v12h-3zM924 5h12v3h-12zM953 0h3v12h-3zM948 5h12v3h-12zM941 12h3v12h-3zM936 17h12v3h-12zM941 24h3v12h-3zM936 29h12v3h-12zM929 36h3v12h-3zM924 41h12v3h-12zM953 36h3v12h-3zM948 41h12v3h-12zM161 384h3v12h-3zM156 389h12v3h-12zM173 384h3v12h-3zM168 389h12v3h-12zM149 396h3v12h-3zM144 401h12v3h-12zM173 396h3v12h-3zM168 401h12v3h-12zM161 408h3v12h-3zM156 413h12v3h-12zM185 408h3v12h-3zM180 413h12v3h-12zM161 420h3v12h-3zM156 425h12v3h-12zM173 420h3v12h-3zM168 425h12v3h-12zM545 144h3v12h-3zM540 149h12v3h-12zM569 144h3v12h-3zM564 149h12v3h-12zM545 180h3v12h-3zM540 185h12v3h-12zM569 180h3v12h-3zM564 185h12v3h-12z"/><path fill="#fff" d="M48 720h48v48h-48zM0 720h48v48h-48zM48 672h48v48h-48zM96 624h48v48h-48zM144 576h48v48h-48zM192 528h48v48h-48zM144 480h48v48h-48zM96 432h48v48h-48zM96 384h48v48h-48zM96 480h48v48h-48zM96 528h48v48h-48zM96 576h48v48h-48zM96 672h48v48h-48zM96 720h48v48h-48zM96 768h48v48h-48zM96 816h48v48h-48zM96 864h48v48h-48zM144 816h48v48h-48zM192 768h48v48h-48zM192 720h48v48h-48zM192 672h48v48h-48zM192 624h48v48h-48zM192 576h48v48h-48zM192 480h48v48h-48zM192 432h48v48h-48zM192 384h48v48h-48zM240 384h48v48h-48zM288 384h48v48h-48zM336 384h48v48h-48zM384 384h48v48h-48zM432 384h48v48h-48zM384 432h48v48h-48zM336 480h48v48h-48zM288 528h48v48h-48zM240 576h48v48h-48zM144 528h48v48h-48zM48 432h48v48h-48zM48 384h48v48h-48zM48 336h48v48h-48zM48 288h48v48h-48zM48 240h48v48h-48zM48 192h48v48h-48zM48 480h48v48h-48zM48 528h48v48h-48zM48 576h48v48h-48zM48 624h48v48h-48zM144 624h48v48h-48zM240 624h48v48h-48zM288 624h48v48h-48zM288 576h48v48h-48zM336 528h48v48h-48zM384 480h48v48h-48zM336 432h48v48h-48zM240 336h48v48h-48zM192 288h48v48h-48zM192 336h48v48h-48zM144 384h48v48h-48zM96 336h48v48h-48zM0 240h48v48h-48zM864 720h48v48h-48zM912 720h48v48h-48zM864 672h48v48h-48zM816 624h48v48h-48zM768 576h48v48h-48zM720 528h48v48h-48zM768 480h48v48h-48zM816 432h48v48h-48zM816 384h48v48h-48zM816 480h48v48h-48zM816 528h48v48h-48zM816 576h48v48h-48zM816 672h48v48h-48zM816 720h48v48h-48zM816 768h48v48h-48zM816 816h48v48h-48zM816 864h48v48h-48zM768 816h48v48h-48zM720 768h48v48h-48zM720 720h48v48h-48zM720 672h48v48h-48zM720 624h48v48h-48zM720 576h48v48h-48zM720 480h48v48h-48zM720 432h48v48h-48zM720 384h48v48h-48zM672 384h48v48h-48zM624 384h48v48h-48zM576 384h48v48h-48zM528 384h48v48h-48zM480 384h48v48h-48zM528 432h48v48h-48zM576 480h48v48h-48zM624 528h48v48h-48zM672 576h48v48h-48zM768 528h48v48h-48zM864 432h48v48h-48zM864 384h48v48h-48zM864 336h48v48h-48zM864 288h48v48h-48zM864 240h48v48h-48zM864 192h48v48h-48zM864 480h48v48h-48zM864 528h48v48h-48zM864 576h48v48h-48zM864 624h48v48h-48zM768 624h48v48h-48zM672 624h48v48h-48zM624 624h48v48h-48zM624 576h48v48h-48zM576 528h48v48h-48zM528 480h48v48h-48zM576 432h48v48h-48zM672 336h48v48h-48zM720 288h48v48h-48zM720 336h48v48h-48zM768 384h48v48h-48zM816 336h48v48h-48zM912 240h48v48h-48z"/></svg>