<svg xmlns="http://www.w3.org/2000/svg" width="960" height="960" viewBox="0 0 960 960" shape-rendering="crispEdges"><path fill="#fff" d="M0 0h960v960h-960z"/><path fill="#3b5e55" d="M0 0h24v24h-24zM0 24h24v24h-24zM0 48h24v24h-24zM0 72h24v24h-24zM0 96h24v24h-24zM0 120h24v24h-24zM0 144h24v24h-24zM0 168h24v24h-24zM0 192h24v24h-24zM0 216h24v24h-24zM0 240h24v24h-24zM0 264h24v24h-24zM0 288h24v24h-24zM0 312h24v24h-24zM0 336h24v24h-24zM0 360h24v24h-24zM0 384h24v24h-24zM0 408h24v24h-24zM0 432h24v24h-24zM0 456h24v24h-24zM48 0h24v24h-24zM48 24h24v24h-24zM48 48h24v24h-24zM48 72h24v24h-24zM48 96h24v24h-24zM48 120h24v24h-24zM48 144h24v24h-24zM48 168h24v24h-24zM48 192h24v24h-24zM48 216h24v24h-24zM48 240h24v24h-24zM48 264h24v24h-24zM48 288h24v24h-24zM48 312h24v24h-24zM48 336h24v24h-24zM48 360h24v24h-24zM48 384h24v24h-24zM48 408h24v24h-24zM48 432h24v24h-24zM48 456h24v24h-24zM96 0h24v24h-24zM96 24h24v24h-24zM96 48h24v24h-24zM96 72h24v24h-24zM96 96h24v24h-24zM96 120h24v24h-24zM96 144h24v24h-24zM96 168h24v24h-24zM96 192h24v24h-24zM96 216h24v24h-24zM96 240h24v24h-24zM96 264h24v24h-24zM96 288h24v24h-24zM96 312h24v24h-24zM96 336h24v24h-24zM96 360h24v24h-24zM96 384h24v24h-24zM96 408h24v24h-24zM96 432h24v24h-24zM96 456h24v24h-24zM144 0h24v24h-24zM144 24h24v24h-24zM144 48h24v24h-24zM144 72h24v24h-24zM144 96h24v24h-24zM144 120h24v24h-24zM144 144h24v24h-24zM144 168h24v24h-24zM144 192h24v24h-24zM144 216h24v24h-24zM144 240h24v24h-24zM144 264h24v24h-24zM144 288h24v24h-24zM144 312h24v24h-24zM144 336h24v24h-24zM144 360h24v24h-24zM144 384h24v24h-24zM144 408h24v24h-24zM144 432h24v24h-24zM144 456h24v24h-24zM192 0h24v24h-24zM192 24h24v24h-24zM192 48h24v24h-24zM192 72h24v24h-24zM192 96h24v24h-24zM192 120h24v24h-24zM192 144h24v24h-24zM192 168h24v24h-24zM192 192h24v24h-24zM192 216h24v24h-24zM192 240h24v24h-24zM192 264h24v24h-24zM192 288h24v24h-24zM192 312h24v24h-24zM192 336h24v24h-24zM192 360h24v24h-24zM192 384h24v24h-24zM192 408h24v24h-24zM192 432h24v24h-24zM192 456h24v24h-24zM240 0h24v24h-24zM240 24h24v24h-24zM240 48h24v24h-24zM240 72h24v24h-24zM240 96h24v24h-24zM240 120h24v24h-24zM240 144h24v24h-24zM240 168h24v24h-24zM240 192h24v24h-24zM240 216h24v24h-24zM240 240h24v24h-24zM240 264h24v24h-24zM240 288h24v24h-24zM240 312h24v24h-24zM240 336h24v24h-24zM240 360h24v24h-24zM240 384h24v24h-24zM240 408h24v24h-24zM240 432h24v24h-24zM240 456h24v24h-24zM288 0h24v24h-24zM288 24h24v24h-24zM288 48h24v24h-24zM288 72h24v24h-24zM288 96h24v24h-24zM288 120h24v24h-24zM288 144h24v24h-24zM288 168h24v24h-24zM288 192h24v24h-24zM288 216h24v24h-24zM288 240h24v24h-24zM288 264h24v24h-24zM288 288h24v24h-24zM288 312h24v24h-24zM288 336h24v24h-24zM288 360h24v24h-24zM288 384h24v24h-24zM288 408h24v24h-24zM288 432h24v24h-24zM288 456h24v24h-24zM336 0h24v24h-24zM336 24h24v24h-24zM336 48h24v24h-24zM336 72h24v24h-24zM336 96h24v24h-24zM336 120h24v24h-24zM336 144h24v24h-24zM336 168h24v24h-24zM336 192h24v24h-24zM336 216h24v24h-24zM336 240h24v24h-24zM336 264h24v24h-24zM336 288h24v24h-24zM336 312h24v24h-24zM336 336h24v24h-24zM336 360h24v24h-24zM336 384h24v24h-24zM336 408h24v24h-24zM336 432h24v24h-24zM336 456h24v24h-24zM384 0h24v24h-24zM384 24h24v24h-24zM384 48h24v24h-24zM384 72h24v24h-24zM384 96h24v24h-24zM384 120h24v24h-24zM384 144h24v24h-24zM384 168h24v24h-24zM384 192h24v24h-24zM384 216h24v24h-24zM384 240h24v24h-24zM384 264h24v24h-24zM384 288h24v24h-24zM384 312h24v24h-24zM384 336h24v24h-24zM384 360h24v24h-24zM384 384h24v24h-24zM384 408h24v24h-24zM384 432h24v24h-24zM384 456h24v24h-24zM432 0h24v24h-24zM432 24h24v24h-24zM432 48h24v24h-24zM432 72h24v24h-24zM432 96h24v24h-24zM432 120h24v24h-24zM432 144h24v24h-24zM432 168h24v24h-24zM432 192h24v24h-24zM432 216h24v24h-24zM432 240h24v24h-24zM432 264h24v24h-24zM432 288h24v24h-24zM432 312h24v24h-24zM432 336h24v24h-24zM432 360h24v24h-24zM432 384h24v24h-24zM432 408h24v24h-24zM432 432h24v24h-24zM432 456h24v24h-24zM480 480h24v24h-24zM480 504h24v24h-24zM480 528h24v24h-24zM480 552h24v24h-24zM480 576h24v24h-24zM480 600h24v24h-24zM480 624h24v24h-24zM480 648h24v24h-24zM480 672h24v24h-24zM480 696h24v24h-24zM480 720h24v24h-24zM480 744h24v24h-24zM480 768h24v24h-24zM480 792h24v24h-24zM480 816h24v24h-24zM480 840h24v24h-24zM480 864h24v24h-24zM480 888h24v24h-24zM480 912h24v24h-24zM480 936h24v24h-24zM528 480h24v24h-24zM528 504h24v24h-24zM528 528h24v24h-24zM528 552h24v24h-24zM528 576h24v24h-24zM528 600h24v24h-24zM528 624h24v24h-24zM528 648h24v24h-24zM528 672h24v24h-24zM528 696h24v24h-24zM528 720h24v24h-24zM528 744h24v24h-24zM528 768h24v24h-24zM528 792h24v24h-24zM528 816h24v24h-24zM528 840h24v24h-24zM528 864h24v24h-24zM528 888h24v24h-24zM528 912h24v24h-24zM528 936h24v24h-24zM576 480h24v24h-24zM576 504h24v24h-24zM576 528h24v24h-24zM576 552h24v24h-24zM576 576h24v24h-24zM576 600h24v24h-24zM576 624h24v24h-24zM576 648h24v24h-24zM576 672h24v24h-24zM576 696h24v24h-24zM576 720h24v24h-24zM576 744h24v24h-24zM576 768h24v24h-24zM576 792h24v24h-24zM576 816h24v24h-24zM576 840h24v24h-24zM576 864h24v24h-24zM576 888h24v24h-24zM576 912h24v24h-24zM576 936h24v24h-24zM624 480h24v24h-24zM624 504h24v24h-24zM624 528h24v24h-24zM624 552h24v24h-24zM624 576h24v24h-24zM624 600h24v24h-24zM624 624h24v24h-24zM624 648h24v24h-24zM624 672h24v24h-24zM624 696h24v24h-24zM624 720h24v24h-24zM624 744h24v24h-24zM624 768h24v24h-24zM624 792h24v24h-24zM624 816h24v24h-24zM624 840h24v24h-24zM624 864h24v24h-24zM624 888h24v24h-24zM624 912h24v24h-24zM624 936h24v24h-24zM672 480h24v24h-24zM672 504h24v24h-24zM672 528h24v24h-24zM672 552h24v24h-24zM672 576h24v24h-24zM672 600h24v24h-24zM672 624h24v24h-24zM672 648h24v24h-24zM672 672h24v24h-24zM672 696h24v24h-24zM672 720h24v24h-24zM672 744h24v24h-24zM672 768h24v24h-24zM672 792h24v24h-24zM672 816h24v24h-24zM672 840h24v24h-24zM672 864h24v24h-24zM672 888h24v24h-24zM672 912h24v24h-24zM672 936h24v24h-24zM720 480h24v24h-24zM720 504h24v24h-24zM720 528h24v24h-24zM720 552h24v24h-24zM720 576h24v24h-24zM720 600h24v24h-24zM720 624h24v24h-24zM720 648h24v24h-24zM720 672h24v24h-24zM720 696h24v24h-24zM720 720h24v24h-24zM720 744h24v24h-24zM720 768h24v24h-24zM720 792h24v24h-24zM720 816h24v24h-24zM720 840h24v24h-24zM720 864h24v24h-24zM720 888h24v24h-24zM720 912h24v24h-24zM720 936h24v24h-24zM768 480h24v24h-24zM768 504h24v24h-24zM768 528h24v24h-24zM768 552h24v24h-24zM768 576h24v24h-24zM768 600h24v24h-24zM768 624h24v24h-24zM768 648h24v24h-24zM768 672h24v24h-24zM768 696h24v24h-24zM768 720h24v24h-24zM768 744h24v24h-24zM768 768h24v24h-24zM768 792h24v24h-24zM768 816h24v24h-24zM768 840h24v24h-24zM768 864h24v24h-24zM768 888h24v24h-24zM768 912h24v24h-24zM768 936h24v24h-24zM816 480h24v24h-24zM816 504h24v24h-24zM816 528h24v24h-24zM816 552h24v24h-24zM816 576h24v24h-24zM816 600h24v24h-24zM816 624h24v24h-24zM816 648h24v24h-24zM816 672h24v24h-24zM816 696h24v24h-24zM816 720h24v24h-24zM816 744h24v24h-24zM816 768h24v24h-24zM816 792h24v24h-24zM816 816h24v24h-24zM816 840h24v24h-24zM816 864h24v24h-24zM816 888h24v24h-24zM816 912h24v24h-24zM816 936h24v24h-24zM864 480h24v24h-24zM864 504h24v24h-24zM864 528h24v24h-24zM864 552h24v24h-24zM864 576h24v24h-24zM864 600h24v24h-24zM864 624h24v24h-24zM864 648h24v24h-24zM864 672h24v24h-24zM864 696h24v24h-24zM864 720h24v24h-24zM864 744h24v24h-24zM864 768h24v24h-24zM864 792h24v24h-24zM864 816h24v24h-24zM864 840h24v24h-24zM864 864h24v24h-24zM864 888h24v24h-24zM864 912h24v24h-24zM864 936h24v24h-24zM912 480h24v24h-24zM912 504h24v24h-24zM912 528h24v24h-24zM912 552h24v24h-24zM912 576h24v24h-24zM912 600h24v24h-24zM912 624h24v24h-24zM912 648h24v24h-24zM912 672h24v24h-24zM912 696h24v24h-24zM912 720h24v24h-24zM912 744h24v24h-24zM912 768h24v24h-24zM912 792h24v24h-24zM912 816h24v24h-24zM912 840h24v24h-24zM912 864h24v24h-24zM912 888h24v24h-24zM912 912h24v24h-24zM912 936h24v24h-24z"/><path fill="#c21952" d="M54 6h12v12h-12zM54 30h12v12h-12zM78 30h12v12h-12zM6 54h12v12h-12zM30 54h12v12h-12zM30 78h12v12h-12zM198 6h12v12h-12zM270 6h12v12h-12zM222 30h12v12h-12zM222 54h12v12h-12zM246 54h12v12h-12zM198 78h12v12h-12zM270 78h12v12h-12zM414 6h12v12h-12zM390 30h12v12h-12zM462 54h12v12h-12zM438 78h12v12h-12zM534 6h12v12h-12zM486 30h12v12h-12zM510 30h12v12h-12zM558 30h12v12h-12zM486 54h12v12h-12zM534 54h12v12h-12zM558 54h12v12h-12zM510 78h12v12h-12zM606 6h12v12h-12zM630 6h12v12h-12zM630 30h12v12h-12zM606 78h12v12h-12zM702 30h12v12h-12zM726 30h12v12h-12zM702 54h12v12h-12zM726 54h12v12h-12zM774 6h12v12h-12zM846 6h12v12h-12zM798 30h12v12h-12zM822 30h12v12h-12zM822 54h12v12h-12zM774 78h12v12h-12zM846 78h12v12h-12zM870 6h12v12h-12zM942 6h12v12h-12zM894 30h12v12h-12zM918 30h12v12h-12zM894 54h12v12h-12zM918 54h12v12h-12zM870 78h12v12h-12zM942 78h12v12h-12zM486 102h12v12h-12zM510 126h12v12h-12zM486 150h12v12h-12zM534 150h12v12h-12zM486 174h12v12h-12zM510 174h12v12h-12zM558 174h12v12h-12zM630 102h12v12h-12zM582 126h12v12h-12zM606 126h12v12h-12zM654 126h12v12h-12zM582 150h12v12h-12zM630 150h12v12h-12zM654 150h12v12h-12zM606 174h12v12h-12zM750 246h12v12h-12zM702 102h12v12h-12zM726 102h12v12h-12zM702 126h12v12h-12zM750 126h12v12h-12zM678 150h12v12h-12zM726 150h12v12h-12zM702 174h12v12h-12zM726 174h12v12h-12zM774 102h12v12h-12zM822 102h12v12h-12zM798 126h12v12h-12zM846 126h12v12h-12zM774 150h12v12h-12zM822 150h12v12h-12zM798 174h12v12h-12zM846 174h12v12h-12zM918 102h12v12h-12zM894 126h12v12h-12zM942 126h12v12h-12zM870 150h12v12h-12zM918 150h12v12h-12zM894 174h12v12h-12zM54 198h12v12h-12zM30 222h12v12h-12zM78 222h12v12h-12zM6 246h12v12h-12zM54 246h12v12h-12zM30 270h12v12h-12zM270 342h12v12h-12zM222 198h12v12h-12zM246 198h12v12h-12zM222 222h12v12h-12zM270 222h12v12h-12zM198 246h12v12h-12zM246 246h12v12h-12zM222 270h12v12h-12zM246 270h12v12h-12zM390 198h12v12h-12zM438 198h12v12h-12zM462 222h12v12h-12zM390 246h12v12h-12zM414 270h12v12h-12zM462 270h12v12h-12zM534 198h12v12h-12zM558 198h12v12h-12zM534 222h12v12h-12zM558 222h12v12h-12zM486 246h12v12h-12zM510 246h12v12h-12zM486 270h12v12h-12zM510 270h12v12h-12zM582 198h12v12h-12zM654 198h12v12h-12zM606 246h12v12h-12zM630 246h12v12h-12zM582 270h12v12h-12zM654 270h12v12h-12zM750 198h12v12h-12zM726 222h12v12h-12zM702 246h12v12h-12zM750 246h12v12h-12zM678 270h12v12h-12zM726 270h12v12h-12zM750 270h12v12h-12zM774 198h12v12h-12zM846 198h12v12h-12zM798 222h12v12h-12zM822 222h12v12h-12zM774 270h12v12h-12zM846 270h12v12h-12zM894 198h12v12h-12zM942 198h12v12h-12zM918 222h12v12h-12zM918 246h12v12h-12zM894 270h12v12h-12zM942 270h12v12h-12zM30 294h12v12h-12zM6 318h12v12h-12zM30 318h12v12h-12zM54 342h12v12h-12zM78 342h12v12h-12zM54 366h12v12h-12zM126 294h12v12h-12zM150 294h12v12h-12zM150 318h12v12h-12zM126 366h12v12h-12zM198 294h12v12h-12zM246 294h12v12h-12zM222 318h12v12h-12zM270 318h12v12h-12zM198 342h12v12h-12zM246 342h12v12h-12zM222 366h12v12h-12zM270 366h12v12h-12zM294 294h12v12h-12zM342 294h12v12h-12zM366 318h12v12h-12zM294 342h12v12h-12zM318 366h12v12h-12zM366 366h12v12h-12zM390 294h12v12h-12zM462 294h12v12h-12zM414 342h12v12h-12zM438 342h12v12h-12zM390 366h12v12h-12zM462 366h12v12h-12zM30 390h12v12h-12zM6 414h12v12h-12zM78 438h12v12h-12zM54 462h12v12h-12zM126 390h12v12h-12zM102 414h12v12h-12zM150 414h12v12h-12zM126 438h12v12h-12zM174 438h12v12h-12zM150 462h12v12h-12zM270 534h12v12h-12zM222 390h12v12h-12zM246 390h12v12h-12zM222 414h12v12h-12zM270 414h12v12h-12zM198 438h12v12h-12zM246 438h12v12h-12zM222 462h12v12h-12zM246 462h12v12h-12zM318 390h12v12h-12zM342 438h12v12h-12zM318 462h12v12h-12zM342 462h12v12h-12zM390 390h12v12h-12zM438 390h12v12h-12zM462 390h12v12h-12zM414 414h12v12h-12zM462 414h12v12h-12zM438 438h12v12h-12zM462 462h12v12h-12zM606 414h12v12h-12zM630 414h12v12h-12zM606 438h12v12h-12zM630 438h12v12h-12zM774 390h12v12h-12zM798 390h12v12h-12zM822 462h12v12h-12zM846 462h12v12h-12zM54 486h12v12h-12zM30 510h12v12h-12zM78 510h12v12h-12zM6 534h12v12h-12zM54 534h12v12h-12zM30 558h12v12h-12zM102 486h12v12h-12zM174 486h12v12h-12zM126 534h12v12h-12zM150 534h12v12h-12zM102 558h12v12h-12zM174 558h12v12h-12zM246 486h12v12h-12zM222 510h12v12h-12zM270 510h12v12h-12zM198 534h12v12h-12zM246 534h12v12h-12zM222 558h12v12h-12zM294 486h12v12h-12zM342 486h12v12h-12zM366 510h12v12h-12zM294 534h12v12h-12zM318 558h12v12h-12zM366 558h12v12h-12zM414 486h12v12h-12zM462 486h12v12h-12zM390 510h12v12h-12zM414 510h12v12h-12zM438 534h12v12h-12zM462 534h12v12h-12zM390 558h12v12h-12zM438 558h12v12h-12zM54 582h12v12h-12zM78 582h12v12h-12zM6 654h12v12h-12zM30 654h12v12h-12zM198 582h12v12h-12zM222 582h12v12h-12zM246 654h12v12h-12zM270 654h12v12h-12zM438 582h12v12h-12zM462 582h12v12h-12zM438 606h12v12h-12zM462 606h12v12h-12zM390 630h12v12h-12zM414 630h12v12h-12zM390 654h12v12h-12zM414 654h12v12h-12zM486 582h12v12h-12zM558 582h12v12h-12zM510 606h12v12h-12zM534 606h12v12h-12zM510 630h12v12h-12zM486 654h12v12h-12zM558 654h12v12h-12zM654 582h12v12h-12zM630 606h12v12h-12zM606 630h12v12h-12zM582 654h12v12h-12zM702 582h12v12h-12zM750 582h12v12h-12zM678 606h12v12h-12zM702 606h12v12h-12zM726 630h12v12h-12zM750 630h12v12h-12zM678 654h12v12h-12zM726 654h12v12h-12zM774 582h12v12h-12zM822 582h12v12h-12zM822 606h12v12h-12zM846 606h12v12h-12zM774 630h12v12h-12zM798 630h12v12h-12zM798 654h12v12h-12zM846 654h12v12h-12zM894 582h12v12h-12zM918 630h12v12h-12zM894 654h12v12h-12zM918 654h12v12h-12zM486 678h12v12h-12zM510 702h12v12h-12zM534 726h12v12h-12zM558 750h12v12h-12zM582 678h12v12h-12zM654 678h12v12h-12zM582 726h12v12h-12zM654 726h12v12h-12zM678 678h12v12h-12zM726 678h12v12h-12zM750 678h12v12h-12zM702 702h12v12h-12zM750 702h12v12h-12zM726 726h12v12h-12zM750 750h12v12h-12zM822 678h12v12h-12zM846 678h12v12h-12zM774 750h12v12h-12zM798 750h12v12h-12zM870 678h12v12h-12zM942 678h12v12h-12zM918 702h12v12h-12zM894 726h12v12h-12zM918 726h12v12h-12zM870 750h12v12h-12zM942 750h12v12h-12zM6 774h12v12h-12zM78 774h12v12h-12zM30 798h12v12h-12zM30 822h12v12h-12zM54 822h12v12h-12zM6 846h12v12h-12zM78 846h12v12h-12zM198 774h12v12h-12zM246 774h12v12h-12zM222 798h12v12h-12zM270 798h12v12h-12zM198 822h12v12h-12zM246 822h12v12h-12zM222 846h12v12h-12zM270 846h12v12h-12zM426 810h12v12h-12zM486 798h12v12h-12zM558 798h12v12h-12zM486 822h12v12h-12zM510 822h12v12h-12zM606 774h12v12h-12zM654 774h12v12h-12zM582 798h12v12h-12zM654 822h12v12h-12zM582 846h12v12h-12zM630 846h12v12h-12zM678 774h12v12h-12zM702 774h12v12h-12zM678 798h12v12h-12zM702 798h12v12h-12zM726 822h12v12h-12zM750 822h12v12h-12zM726 846h12v12h-12zM750 846h12v12h-12zM774 774h12v12h-12zM846 774h12v12h-12zM774 822h12v12h-12zM846 822h12v12h-12zM894 774h12v12h-12zM870 798h12v12h-12zM894 798h12v12h-12zM918 822h12v12h-12zM942 822h12v12h-12zM918 846h12v12h-12zM534 870h12v12h-12zM510 894h12v12h-12zM558 894h12v12h-12zM486 918h12v12h-12zM534 918h12v12h-12zM510 942h12v12h-12zM582 870h12v12h-12zM606 894h12v12h-12zM630 918h12v12h-12zM654 942h12v12h-12zM678 870h12v12h-12zM750 870h12v12h-12zM702 918h12v12h-12zM726 918h12v12h-12zM678 942h12v12h-12zM750 942h12v12h-12zM774 870h12v12h-12zM798 870h12v12h-12zM822 942h12v12h-12zM846 942h12v12h-12zM870 870h12v12h-12zM942 870h12v12h-12zM870 942h12v12h-12zM942 942h12v12h-12zM870 294h12v12h-12zM894 294h12v12h-12zM918 366h12v12h-12zM942 366h12v12h-12zM390 102h12v12h-12zM438 102h12v12h-12zM462 126h12v12h-12zM390 150h12v12h-12zM414 174h12v12h-12zM462 174h12v12h-12zM654 294h12v12h-12zM630 318h12v12h-12zM606 342h12v12h-12zM654 342h12v12h-12zM582 366h12v12h-12zM630 366h12v12h-12zM654 366h12v12h-12zM102 870h12v12h-12zM150 870h12v12h-12zM126 894h12v12h-12zM174 894h12v12h-12zM102 918h12v12h-12zM150 918h12v12h-12zM126 942h12v12h-12zM174 942h12v12h-12zM198 678h12v12h-12zM246 678h12v12h-12zM222 702h12v12h-12zM270 702h12v12h-12zM198 726h12v12h-12zM246 726h12v12h-12zM222 750h12v12h-12zM270 750h12v12h-12zM6 678h12v12h-12zM78 678h12v12h-12zM30 702h12v12h-12zM30 726h12v12h-12zM54 726h12v12h-12zM6 750h12v12h-12zM78 750h12v12h-12zM870 486h12v12h-12zM894 486h12v12h-12zM918 558h12v12h-12zM942 558h12v12h-12z"/><path fill="#000" d="M72 120h12v12h-12zM60 132h12v12h-12zM48 144h12v12h-12zM36 156h12v12h-12zM24 168h12v12h-12zM24 180h12v12h-12zM24 192h12v12h-12zM24 204h12v12h-12zM24 216h12v12h-12zM24 228h12v12h-12zM24 240h12v12h-12zM24 252h12v12h-12zM24 264h12v12h-12zM24 276h12v12h-12zM24 288h12v12h-12zM24 300h12v12h-12zM24 312h12v12h-12zM24 324h12v12h-12zM24 336h12v12h-12zM24 348h12v12h-12zM24 360h12v12h-12zM24 372h12v12h-12zM24 384h12v12h-12zM24 396h12v12h-12zM24 408h12v12h-12zM24 420h12v12h-12zM24 432h12v12h-12zM36 420h12v12h-12zM48 408h12v12h-12zM60 396h12v12h-12zM72 384h12v12h-12zM84 372h12v12h-12zM96 360h12v12h-12zM108 348h12v12h-12zM120 336h12v12h-12zM132 324h12v12h-12zM144 312h12v12h-12zM156 300h12v12h-12zM168 288h12v12h-12zM180 276h12v12h-12zM192 264h12v12h-12zM204 252h12v12h-12zM216 240h12v12h-12zM228 228h12v12h-12zM240 216h12v12h-12zM252 204h12v12h-12zM264 192h12v12h-12zM276 180h12v12h-12zM288 168h12v12h-12zM288 180h12v12h-12zM288 192h12v12h-12zM288 204h12v12h-12zM288 216h12v12h-12zM288 228h12v12h-12zM288 240h12v12h-12zM288 252h12v12h-12zM288 264h12v12h-12zM288 276h12v12h-12zM288 288h12v12h-12zM288 300h12v12h-12zM288 312h12v12h-12zM288 324h12v12h-12zM288 336h12v12h-12zM288 348h12v12h-12zM288 360h12v12h-12zM288 372h12v12h-12zM288 384h12v12h-12zM288 396h12v12h-12zM288 408h12v12h-12zM276 408h12v12h-12zM264 408h12v12h-12zM252 408h12v12h-12zM240 408h12v12h-12zM228 408h12v12h-12zM216 408h12v12h-12zM204 408h12v12h-12zM192 408h12v12h-12zM180 408h12v12h-12zM168 408h12v12h-12zM156 408h12v12h-12zM144 408h12v12h-12zM132 408h12v12h-12zM120 408h12v12h-12zM108 408h12v12h-12zM96 408h12v12h-12zM84 408h12v12h-12zM72 408h12v12h-12zM60 408h12v12h-12zM48 420h12v12h-12zM36 432h12v12h-12zM24 444h12v12h-12zM12 456h12v12h-12zM24 456h12v12h-12zM36 456h12v12h-12zM48 456h12v12h-12zM60 456h12v12h-12zM72 456h12v12h-12zM84 456h12v12h-12zM96 456h12v12h-12zM108 456h12v12h-12zM120 456h12v12h-12zM132 456h12v12h-12zM144 456h12v12h-12zM156 456h12v12h-12zM168 456h12v12h-12zM180 456h12v12h-12zM192 456h12v12h-12zM204 456h12v12h-12zM216 456h12v12h-12zM228 456h12v12h-12zM240 456h12v12h-12zM240 444h12v12h-12zM240 432h12v12h-12zM240 420h12v12h-12zM240 396h12v12h-12zM228 384h12v12h-12zM216 372h12v12h-12zM204 360h12v12h-12zM192 348h12v12h-12zM180 336h12v12h-12zM168 324h12v12h-12zM156 312h12v12h-12zM144 300h12v12h-12zM132 288h12v12h-12zM132 276h12v12h-12zM132 264h12v12h-12zM132 252h12v12h-12zM132 240h12v12h-12zM132 228h12v12h-12zM132 216h12v12h-12zM132 204h12v12h-12zM132 192h12v12h-12zM132 180h12v12h-12zM132 168h12v12h-12zM132 156h12v12h-12zM132 144h12v12h-12zM132 132h12v12h-12zM132 120h12v12h-12zM132 108h12v12h-12zM132 96h12v12h-12zM132 84h12v12h-12zM132 72h12v12h-12zM132 60h12v12h-12zM132 48h12v12h-12zM132 36h12v12h-12zM132 24h12v12h-12zM132 12h12v12h-12zM132 0h12v12h-12zM120 0h12v12h-12zM108 0h12v12h-12zM96 0h12v12h-12zM84 0h12v12h-12zM72 0h12v12h-12zM60 0h12v12h-12zM48 0h12v12h-12zM36 0h12v12h-12zM24 0h12v12h-12zM36 12h12v12h-12zM48 24h12v12h-12zM60 36h12v12h-12zM72 48h12v12h-12zM84 60h12v12h-12zM96 72h12v12h-12zM108 84h12v12h-12zM120 96h12v12h-12zM144 120h12v12h-12zM156 132h12v12h-12zM168 144h12v12h-12zM180 156h12v12h-12zM192 168h12v12h-12zM204 180h12v12h-12zM216 192h12v12h-12zM228 204h12v12h-12zM252 228h12v12h-12zM264 240h12v12h-12zM276 252h12v12h-12zM300 276h12v12h-12zM312 288h12v12h-12zM324 300h12v12h-12zM336 312h12v12h-12zM348 324h12v12h-12zM144 96h12v12h-12zM156 96h12v12h-12zM168 96h12v12h-12zM180 96h12v12h-12zM192 96h12v12h-12zM204 96h12v12h-12zM216 96h12v12h-12zM228 96h12v12h-12zM240 96h12v12h-12zM252 96h12v12h-12zM264 96h12v12h-12zM276 96h12v12h-12zM288 96h12v12h-12zM300 96h12v12h-12zM312 96h12v12h-12zM324 96h12v12h-12zM336 96h12v12h-12zM348 96h12v12h-12zM360 96h12v12h-12zM372 96h12v12h-12zM384 96h12v12h-12zM156 108h12v12h-12zM156 120h12v12h-12zM156 144h12v12h-12zM156 156h12v12h-12zM156 168h12v12h-12zM156 180h12v12h-12zM156 192h12v12h-12zM156 204h12v12h-12zM156 216h12v12h-12zM156 228h12v12h-12zM156 240h12v12h-12zM156 252h12v12h-12zM156 264h12v12h-12zM156 276h12v12h-12zM156 288h12v12h-12zM168 312h12v12h-12zM180 324h12v12h-12zM192 336h12v12h-12zM204 348h12v12h-12zM216 360h12v12h-12zM228 372h12v12h-12zM240 384h12v12h-12zM252 396h12v12h-12zM276 420h12v12h-12zM180 300h12v12h-12zM192 288h12v12h-12zM204 276h12v12h-12zM180 252h12v12h-12zM168 240h12v12h-12zM144 216h12v12h-12zM120 192h12v12h-12zM108 180h12v12h-12zM96 168h12v12h-12zM84 156h12v12h-12zM72 144h12v12h-12zM48 120h12v12h-12zM36 108h12v12h-12zM24 96h12v12h-12zM12 84h12v12h-12zM0 72h12v12h-12zM216 288h12v12h-12zM228 300h12v12h-12zM240 312h12v12h-12zM252 324h12v12h-12zM264 336h12v12h-12zM276 348h12v12h-12zM300 372h12v12h-12zM312 384h12v12h-12zM324 372h12v12h-12zM336 360h12v12h-12zM348 348h12v12h-12zM336 336h12v12h-12zM324 324h12v12h-12zM312 312h12v12h-12zM300 300h12v12h-12zM276 276h12v12h-12zM264 264h12v12h-12zM252 252h12v12h-12zM240 240h12v12h-12zM216 216h12v12h-12zM204 204h12v12h-12zM192 192h12v12h-12zM180 180h12v12h-12zM168 168h12v12h-12zM144 168h12v12h-12zM120 168h12v12h-12zM108 168h12v12h-12zM120 180h12v12h-12zM144 204h12v12h-12zM168 228h12v12h-12zM180 240h12v12h-12zM192 252h12v12h-12zM204 264h12v12h-12zM216 276h12v12h-12zM192 276h12v12h-12zM168 276h12v12h-12zM144 276h12v12h-12zM120 276h12v12h-12zM108 276h12v12h-12zM96 276h12v12h-12zM84 276h12v12h-12zM72 276h12v12h-12zM60 276h12v12h-12zM48 276h12v12h-12zM36 276h12v12h-12zM48 288h12v12h-12zM60 300h12v12h-12zM72 312h12v12h-12zM84 324h12v12h-12zM96 336h12v12h-12zM120 360h12v12h-12zM132 372h12v12h-12zM144 384h12v12h-12zM156 396h12v12h-12zM180 420h12v12h-12zM192 432h12v12h-12zM204 444h12v12h-12zM72 300h12v12h-12zM72 288h12v12h-12zM72 264h12v12h-12zM72 252h12v12h-12zM72 240h12v12h-12zM72 228h12v12h-12zM72 216h12v12h-12zM72 204h12v12h-12zM72 192h12v12h-12zM72 180h12v12h-12zM72 168h12v12h-12zM72 156h12v12h-12zM72 132h12v12h-12zM72 108h12v12h-12zM72 96h12v12h-12zM72 84h12v12h-12zM84 72h12v12h-12zM96 60h12v12h-12zM108 48h12v12h-12zM120 36h12v12h-12zM144 12h12v12h-12zM156 12h12v12h-12zM168 12h12v12h-12zM180 12h12v12h-12zM192 12h12v12h-12zM204 12h12v12h-12zM216 12h12v12h-12zM228 12h12v12h-12zM240 12h12v12h-12zM252 12h12v12h-12zM252 24h12v12h-12zM252 36h12v12h-12zM252 48h12v12h-12zM252 60h12v12h-12zM252 72h12v12h-12zM252 84h12v12h-12zM252 108h12v12h-12zM252 120h12v12h-12zM252 132h12v12h-12zM252 144h12v12h-12zM252 156h12v12h-12zM252 168h12v12h-12zM252 180h12v12h-12zM252 192h12v12h-12zM252 216h12v12h-12zM252 240h12v12h-12zM252 264h12v12h-12zM252 276h12v12h-12zM252 288h12v12h-12zM252 300h12v12h-12zM252 312h12v12h-12zM252 336h12v12h-12zM252 348h12v12h-12zM252 360h12v12h-12zM240 264h12v12h-12zM228 252h12v12h-12zM204 228h12v12h-12zM192 216h12v12h-12zM180 204h12v12h-12zM168 192h12v12h-12zM120 144h12v12h-12zM108 132h12v12h-12zM264 288h12v12h-12zM276 300h12v12h-12zM300 324h12v12h-12zM312 336h12v12h-12zM324 348h12v12h-12zM348 372h12v12h-12zM360 384h12v12h-12zM372 396h12v12h-12zM384 408h12v12h-12zM384 396h12v12h-12zM384 384h12v12h-12zM384 372h12v12h-12zM384 360h12v12h-12zM384 348h12v12h-12zM384 336h12v12h-12zM384 324h12v12h-12zM384 312h12v12h-12zM384 300h12v12h-12zM384 288h12v12h-12zM384 276h12v12h-12zM384 264h12v12h-12zM384 252h12v12h-12zM384 240h12v12h-12zM384 228h12v12h-12zM384 216h12v12h-12zM384 204h12v12h-12zM384 192h12v12h-12zM384 180h12v12h-12zM384 168h12v12h-12zM384 156h12v12h-12zM384 144h12v12h-12zM384 132h12v12h-12zM384 120h12v12h-12zM384 108h12v12h-12zM384 84h12v12h-12zM384 72h12v12h-12zM372 72h12v12h-12zM360 72h12v12h-12zM348 72h12v12h-12zM336 72h12v12h-12zM324 72h12v12h-12zM336 84h12v12h-12zM360 108h12v12h-12zM372 120h12v12h-12zM396 144h12v12h-12zM408 156h12v12h-12zM420 168h12v12h-12zM432 180h12v12h-12zM420 180h12v12h-12zM420 192h12v12h-12zM420 204h12v12h-12zM420 216h12v12h-12zM420 228h12v12h-12zM420 240h12v12h-12zM420 252h12v12h-12zM420 264h12v12h-12zM420 276h12v12h-12zM420 288h12v12h-12zM420 300h12v12h-12zM420 312h12v12h-12zM420 324h12v12h-12zM420 336h12v12h-12zM420 348h12v12h-12zM420 360h12v12h-12zM420 372h12v12h-12zM420 384h12v12h-12zM420 396h12v12h-12zM420 408h12v12h-12zM420 420h12v12h-12zM420 432h12v12h-12zM420 444h12v12h-12zM420 156h12v12h-12zM420 144h12v12h-12zM420 132h12v12h-12zM420 120h12v12h-12zM420 108h12v12h-12zM420 96h12v12h-12zM420 84h12v12h-12zM420 72h12v12h-12zM420 60h12v12h-12zM420 48h12v12h-12zM420 36h12v12h-12zM420 24h12v12h-12zM408 24h12v12h-12zM396 24h12v12h-12zM384 24h12v12h-12zM372 24h12v12h-12zM360 24h12v12h-12zM348 24h12v12h-12zM336 24h12v12h-12zM324 24h12v12h-12zM312 24h12v12h-12zM300 24h12v12h-12zM288 24h12v12h-12zM276 24h12v12h-12zM264 24h12v12h-12zM240 24h12v12h-12zM228 24h12v12h-12zM216 24h12v12h-12zM204 24h12v12h-12zM192 24h12v12h-12zM180 24h12v12h-12zM168 24h12v12h-12zM156 24h12v12h-12zM144 24h12v12h-12zM120 24h12v12h-12zM108 24h12v12h-12zM96 24h12v12h-12zM84 24h12v12h-12zM72 24h12v12h-12zM60 24h12v12h-12zM36 24h12v12h-12zM24 24h12v12h-12zM12 24h12v12h-12zM72 828h12v12h-12zM60 816h12v12h-12zM48 804h12v12h-12zM36 792h12v12h-12zM24 780h12v12h-12zM24 768h12v12h-12zM24 756h12v12h-12zM24 744h12v12h-12zM24 732h12v12h-12zM24 720h12v12h-12zM24 708h12v12h-12zM24 696h12v12h-12zM24 684h12v12h-12zM24 672h12v12h-12zM24 660h12v12h-12zM24 648h12v12h-12zM24 636h12v12h-12zM24 624h12v12h-12zM24 612h12v12h-12zM24 600h12v12h-12zM24 588h12v12h-12zM24 576h12v12h-12zM24 564h12v12h-12zM24 552h12v12h-12zM24 540h12v12h-12zM24 528h12v12h-12zM24 516h12v12h-12zM36 528h12v12h-12zM48 540h12v12h-12zM60 552h12v12h-12zM72 564h12v12h-12zM84 576h12v12h-12zM96 588h12v12h-12zM108 600h12v12h-12zM120 612h12v12h-12zM132 624h12v12h-12zM144 636h12v12h-12zM156 648h12v12h-12zM168 660h12v12h-12zM180 672h12v12h-12zM192 684h12v12h-12zM204 696h12v12h-12zM216 708h12v12h-12zM228 720h12v12h-12zM240 732h12v12h-12zM252 744h12v12h-12zM264 756h12v12h-12zM276 768h12v12h-12zM288 780h12v12h-12zM288 768h12v12h-12zM288 756h12v12h-12zM288 744h12v12h-12zM288 732h12v12h-12zM288 720h12v12h-12zM288 708h12v12h-12zM288 696h12v12h-12zM288 684h12v12h-12zM288 672h12v12h-12zM288 660h12v12h-12zM288 648h12v12h-12zM288 636h12v12h-12zM288 624h12v12h-12zM288 612h12v12h-12zM288 600h12v12h-12zM288 588h12v12h-12zM288 576h12v12h-12zM288 564h12v12h-12zM288 552h12v12h-12zM288 540h12v12h-12zM276 540h12v12h-12zM264 540h12v12h-12zM252 540h12v12h-12zM240 540h12v12h-12zM228 540h12v12h-12zM216 540h12v12h-12zM204 540h12v12h-12zM192 540h12v12h-12zM180 540h12v12h-12zM168 540h12v12h-12zM156 540h12v12h-12zM144 540h12v12h-12zM132 540h12v12h-12zM120 540h12v12h-12zM108 540h12v12h-12zM96 540h12v12h-12zM84 540h12v12h-12zM72 540h12v12h-12zM60 540h12v12h-12zM48 528h12v12h-12zM36 516h12v12h-12zM24 504h12v12h-12zM12 492h12v12h-12zM24 492h12v12h-12zM36 492h12v12h-12zM48 492h12v12h-12zM60 492h12v12h-12zM72 492h12v12h-12zM84 492h12v12h-12zM96 492h12v12h-12zM108 492h12v12h-12zM120 492h12v12h-12zM132 492h12v12h-12zM144 492h12v12h-12zM156 492h12v12h-12zM168 492h12v12h-12zM180 492h12v12h-12zM192 492h12v12h-12zM204 492h12v12h-12zM216 492h12v12h-12zM228 492h12v12h-12zM240 492h12v12h-12zM240 504h12v12h-12zM240 516h12v12h-12zM240 528h12v12h-12zM240 552h12v12h-12zM228 564h12v12h-12zM216 576h12v12h-12zM204 588h12v12h-12zM192 600h12v12h-12zM180 612h12v12h-12zM168 624h12v12h-12zM156 636h12v12h-12zM144 648h12v12h-12zM132 660h12v12h-12zM132 672h12v12h-12zM132 684h12v12h-12zM132 696h12v12h-12zM132 708h12v12h-12zM132 720h12v12h-12zM132 732h12v12h-12zM132 744h12v12h-12zM132 756h12v12h-12zM132 768h12v12h-12zM132 780h12v12h-12zM132 792h12v12h-12zM132 804h12v12h-12zM132 816h12v12h-12zM132 828h12v12h-12zM132 840h12v12h-12zM132 852h12v12h-12zM132 864h12v12h-12zM132 876h12v12h-12zM132 888h12v12h-12zM132 900h12v12h-12zM132 912h12v12h-12zM132 924h12v12h-12zM132 936h12v12h-12zM132 948h12v12h-12zM120 948h12v12h-12zM108 948h12v12h-12zM96 948h12v12h-12zM84 948h12v12h-12zM72 948h12v12h-12zM60 948h12v12h-12zM48 948h12v12h-12zM36 948h12v12h-12zM24 948h12v12h-12zM36 936h12v12h-12zM48 924h12v12h-12zM60 912h12v12h-12zM72 900h12v12h-12zM84 888h12v12h-12zM96 876h12v12h-12zM108 864h12v12h-12zM120 852h12v12h-12zM144 828h12v12h-12zM156 816h12v12h-12zM168 804h12v12h-12zM180 792h12v12h-12zM192 780h12v12h-12zM204 768h12v12h-12zM216 756h12v12h-12zM228 744h12v12h-12zM252 720h12v12h-12zM264 708h12v12h-12zM276 696h12v12h-12zM300 672h12v12h-12zM312 660h12v12h-12zM324 648h12v12h-12zM336 636h12v12h-12zM348 624h12v12h-12zM144 852h12v12h-12zM156 852h12v12h-12zM168 852h12v12h-12zM180 852h12v12h-12zM192 852h12v12h-12zM204 852h12v12h-12zM216 852h12v12h-12zM228 852h12v12h-12zM240 852h12v12h-12zM252 852h12v12h-12zM264 852h12v12h-12zM276 852h12v12h-12zM288 852h12v12h-12zM300 852h12v12h-12zM312 852h12v12h-12zM324 852h12v12h-12zM336 852h12v12h-12zM348 852h12v12h-12zM360 852h12v12h-12zM372 852h12v12h-12zM384 852h12v12h-12zM156 840h12v12h-12zM156 828h12v12h-12zM156 804h12v12h-12zM156 792h12v12h-12zM156 780h12v12h-12zM156 768h12v12h-12zM156 756h12v12h-12zM156 744h12v12h-12zM156 732h12v12h-12zM156 720h12v12h-12zM156 708h12v12h-12zM156 696h12v12h-12zM156 684h12v12h-12zM156 672h12v12h-12zM156 660h12v12h-12zM168 636h12v12h-12zM180 624h12v12h-12zM192 612h12v12h-12zM204 600h12v12h-12zM216 588h12v12h-12zM228 576h12v12h-12zM240 564h12v12h-12zM252 552h12v12h-12zM276 528h12v12h-12zM180 648h12v12h-12zM192 660h12v12h-12zM204 672h12v12h-12zM180 696h12v12h-12zM168 708h12v12h-12zM144 732h12v12h-12zM120 756h12v12h-12zM108 768h12v12h-12zM96 780h12v12h-12zM84 792h12v12h-12zM72 804h12v12h-12zM48 828h12v12h-12zM36 840h12v12h-12zM24 852h12v12h-12zM12 864h12v12h-12zM0 876h12v12h-12zM216 660h12v12h-12zM228 648h12v12h-12zM240 636h12v12h-12zM252 624h12v12h-12zM264 612h12v12h-12zM276 600h12v12h-12zM300 576h12v12h-12zM312 564h12v12h-12zM324 576h12v12h-12zM336 588h12v12h-12zM348 600h12v12h-12zM336 612h12v12h-12zM324 624h12v12h-12zM312 636h12v12h-12zM300 648h12v12h-12zM276 672h12v12h-12zM264 684h12v12h-12zM252 696h12v12h-12zM240 708h12v12h-12zM216 732h12v12h-12zM204 744h12v12h-12zM192 756h12v12h-12zM180 768h12v12h-12zM168 780h12v12h-12zM144 780h12v12h-12zM120 780h12v12h-12zM108 780h12v12h-12zM120 768h12v12h-12zM144 744h12v12h-12zM168 720h12v12h-12zM180 708h12v12h-12zM192 696h12v12h-12zM204 684h12v12h-12zM216 672h12v12h-12zM192 672h12v12h-12zM168 672h12v12h-12zM144 672h12v12h-12zM120 672h12v12h-12zM108 672h12v12h-12zM96 672h12v12h-12zM84 672h12v12h-12zM72 672h12v12h-12zM60 672h12v12h-12zM48 672h12v12h-12zM36 672h12v12h-12zM48 660h12v12h-12zM60 648h12v12h-12zM72 636h12v12h-12zM84 624h12v12h-12zM96 612h12v12h-12zM120 588h12v12h-12zM132 576h12v12h-12zM144 564h12v12h-12zM156 552h12v12h-12zM180 528h12v12h-12zM192 516h12v12h-12zM204 504h12v12h-12zM72 648h12v12h-12zM72 660h12v12h-12zM72 684h12v12h-12zM72 696h12v12h-12zM72 708h12v12h-12zM72 720h12v12h-12zM72 732h12v12h-12zM72 744h12v12h-12zM72 756h12v12h-12zM72 768h12v12h-12zM72 780h12v12h-12zM72 792h12v12h-12zM72 816h12v12h-12zM72 840h12v12h-12zM72 852h12v12h-12zM72 864h12v12h-12zM84 876h12v12h-12zM96 888h12v12h-12zM108 900h12v12h-12zM120 912h12v12h-12zM144 936h12v12h-12zM156 936h12v12h-12zM168 936h12v12h-12zM180 936h12v12h-12zM192 936h12v12h-12zM204 936h12v12h-12zM216 936h12v12h-12zM228 936h12v12h-12zM240 936h12v12h-12zM252 936h12v12h-12zM252 924h12v12h-12zM252 912h12v12h-12zM252 900h12v12h-12zM252 888h12v12h-12zM252 876h12v12h-12zM252 864h12v12h-12zM252 840h12v12h-12zM252 828h12v12h-12zM252 816h12v12h-12zM252 804h12v12h-12zM252 792h12v12h-12zM252 780h12v12h-12zM252 768h12v12h-12zM252 756h12v12h-12zM252 732h12v12h-12zM252 708h12v12h-12zM252 684h12v12h-12zM252 672h12v12h-12zM252 660h12v12h-12zM252 648h12v12h-12zM252 636h12v12h-12zM252 612h12v12h-12zM252 600h12v12h-12zM252 588h12v12h-12zM240 684h12v12h-12zM228 696h12v12h-12zM204 720h12v12h-12zM192 732h12v12h-12zM180 744h12v12h-12zM168 756h12v12h-12zM120 804h12v12h-12zM108 816h12v12h-12zM264 660h12v12h-12zM276 648h12v12h-12zM300 624h12v12h-12zM312 612h12v12h-12zM324 600h12v12h-12zM348 576h12v12h-12zM360 564h12v12h-12zM372 552h12v12h-12zM384 540h12v12h-12zM384 552h12v12h-12zM384 564h12v12h-12zM384 576h12v12h-12zM384 588h12v12h-12zM384 600h12v12h-12zM384 612h12v12h-12zM384 624h12v12h-12zM384 636h12v12h-12zM384 648h12v12h-12zM384 660h12v12h-12zM384 672h12v12h-12zM384 684h12v12h-12zM384 696h12v12h-12zM384 708h12v12h-12zM384 720h12v12h-12zM384 732h12v12h-12zM384 744h12v12h-12zM384 756h12v12h-12zM384 768h12v12h-12zM384 780h12v12h-12zM384 792h12v12h-12zM384 804h12v12h-12zM384 816h12v12h-12zM384 828h12v12h-12zM384 840h12v12h-12zM384 864h12v12h-12zM384 876h12v12h-12zM372 876h12v12h-12zM360 876h12v12h-12zM348 876h12v12h-12zM336 876h12v12h-12zM324 876h12v12h-12zM336 864h12v12h-12zM360 840h12v12h-12zM372 828h12v12h-12zM396 804h12v12h-12zM408 792h12v12h-12zM420 780h12v12h-12zM432 768h12v12h-12zM420 768h12v12h-12zM420 756h12v12h-12zM420 744h12v12h-12zM420 732h12v12h-12zM420 720h12v12h-12zM420 708h12v12h-12zM420 696h12v12h-12zM420 684h12v12h-12zM420 672h12v12h-12zM420 660h12v12h-12zM420 648h12v12h-12zM420 636h12v12h-12zM420 624h12v12h-12zM420 612h12v12h-12zM420 600h12v12h-12zM420 588h12v12h-12zM420 576h12v12h-12zM420 564h12v12h-12zM420 552h12v12h-12zM420 540h12v12h-12zM420 528h12v12h-12zM420 516h12v12h-12zM420 504h12v12h-12zM420 792h12v12h-12zM420 804h12v12h-12zM420 816h12v12h-12zM420 828h12v12h-12zM420 840h12v12h-12zM420 852h12v12h-12zM420 864h12v12h-12zM420 876h12v12h-12zM420 888h12v12h-12zM420 900h12v12h-12zM420 912h12v12h-12zM420 924h12v12h-12zM408 924h12v12h-12zM396 924h12v12h-12zM384 924h12v12h-12zM372 924h12v12h-12zM360 924h12v12h-12zM348 924h12v12h-12zM336 924h12v12h-12zM324 924h12v12h-12zM312 924h12v12h-12zM300 924h12v12h-12zM288 924h12v12h-12zM276 924h12v12h-12zM264 924h12v12h-12zM240 924h12v12h-12zM228 924h12v12h-12zM216 924h12v12h-12zM204 924h12v12h-12zM192 924h12v12h-12zM180 924h12v12h-12zM168 924h12v12h-12zM156 924h12v12h-12zM144 924h12v12h-12zM120 924h12v12h-12zM108 924h12v12h-12zM96 924h12v12h-12zM84 924h12v12h-12zM72 924h12v12h-12zM60 924h12v12h-12zM36 924h12v12h-12zM24 924h12v12h-12zM12 924h12v12h-12zM876 120h12v12h-12zM888 132h12v12h-12zM900 144h12v12h-12zM912 156h12v12h-12zM924 168h12v12h-12zM924 180h12v12h-12zM924 192h12v12h-12zM924 204h12v12h-12zM924 216h12v12h-12zM924 228h12v12h-12zM924 240h12v12h-12zM924 252h12v12h-12zM924 264h12v12h-12zM924 276h12v12h-12zM924 288h12v12h-12zM924 300h12v12h-12zM924 312h12v12h-12zM924 324h12v12h-12zM924 336h12v12h-12zM924 348h12v12h-12zM924 360h12v12h-12zM924 372h12v12h-12zM924 384h12v12h-12zM924 396h12v12h-12zM924 408h12v12h-12zM924 420h12v12h-12zM924 432h12v12h-12zM912 420h12v12h-12zM900 408h12v12h-12zM888 396h12v12h-12zM876 384h12v12h-12zM864 372h12v12h-12zM852 360h12v12h-12zM840 348h12v12h-12zM828 336h12v12h-12zM816 324h12v12h-12zM804 312h12v12h-12zM792 300h12v12h-12zM780 288h12v12h-12zM768 276h12v12h-12zM756 264h12v12h-12zM744 252h12v12h-12zM732 240h12v12h-12zM720 228h12v12h-12zM708 216h12v12h-12zM696 204h12v12h-12zM684 192h12v12h-12zM672 180h12v12h-12zM660 168h12v12h-12zM660 180h12v12h-12zM660 192h12v12h-12zM660 204h12v12h-12zM660 216h12v12h-12zM660 228h12v12h-12zM660 240h12v12h-12zM660 252h12v12h-12zM660 264h12v12h-12zM660 276h12v12h-12zM660 288h12v12h-12zM660 300h12v12h-12zM660 312h12v12h-12zM660 324h12v12h-12zM660 336h12v12h-12zM660 348h12v12h-12zM660 360h12v12h-12zM660 372h12v12h-12zM660 384h12v12h-12zM660 396h12v12h-12zM660 408h12v12h-12zM672 408h12v12h-12zM684 408h12v12h-12zM696 408h12v12h-12zM708 408h12v12h-12zM720 408h12v12h-12zM732 408h12v12h-12zM744 408h12v12h-12zM756 408h12v12h-12zM768 408h12v12h-12zM780 408h12v12h-12zM792 408h12v12h-12zM804 408h12v12h-12zM816 408h12v12h-12zM828 408h12v12h-12zM840 408h12v12h-12zM852 408h12v12h-12zM864 408h12v12h-12zM876 408h12v12h-12zM888 408h12v12h-12zM900 420h12v12h-12zM912 432h12v12h-12zM924 444h12v12h-12zM936 456h12v12h-12zM924 456h12v12h-12zM912 456h12v12h-12zM900 456h12v12h-12zM888 456h12v12h-12zM876 456h12v12h-12zM864 456h12v12h-12zM852 456h12v12h-12zM840 456h12v12h-12zM828 456h12v12h-12zM816 456h12v12h-12zM804 456h12v12h-12zM792 456h12v12h-12zM780 456h12v12h-12zM768 456h12v12h-12zM756 456h12v12h-12zM744 456h12v12h-12zM732 456h12v12h-12zM720 456h12v12h-12zM708 456h12v12h-12zM708 444h12v12h-12zM708 432h12v12h-12zM708 420h12v12h-12zM708 396h12v12h-12zM720 384h12v12h-12zM732 372h12v12h-12zM744 360h12v12h-12zM756 348h12v12h-12zM768 336h12v12h-12zM780 324h12v12h-12zM792 312h12v12h-12zM804 300h12v12h-12zM816 288h12v12h-12zM816 276h12v12h-12zM816 264h12v12h-12zM816 252h12v12h-12zM816 240h12v12h-12zM816 228h12v12h-12zM816 216h12v12h-12zM816 204h12v12h-12zM816 192h12v12h-12zM816 180h12v12h-12zM816 168h12v12h-12zM816 156h12v12h-12zM816 144h12v12h-12zM816 132h12v12h-12zM816 120h12v12h-12zM816 108h12v12h-12zM816 96h12v12h-12zM816 84h12v12h-12zM816 72h12v12h-12zM816 60h12v12h-12zM816 48h12v12h-12zM816 36h12v12h-12zM816 24h12v12h-12zM816 12h12v12h-12zM816 0h12v12h-12zM828 0h12v12h-12zM840 0h12v12h-12zM852 0h12v12h-12zM864 0h12v12h-12zM876 0h12v12h-12zM888 0h12v12h-12zM900 0h12v12h-12zM912 0h12v12h-12zM924 0h12v12h-12zM912 12h12v12h-12zM900 24h12v12h-12zM888 36h12v12h-12zM876 48h12v12h-12zM864 60h12v12h-12zM852 72h12v12h-12zM840 84h12v12h-12zM828 96h12v12h-12zM804 120h12v12h-12zM792 132h12v12h-12zM780 144h12v12h-12zM768 156h12v12h-12zM756 168h12v12h-12zM744 180h12v12h-12zM732 192h12v12h-12zM720 204h12v12h-12zM696 228h12v12h-12zM684 240h12v12h-12zM672 252h12v12h-12zM648 276h12v12h-12zM636 288h12v12h-12zM624 300h12v12h-12zM612 312h12v12h-12zM600 324h12v12h-12zM804 96h12v12h-12zM792 96h12v12h-12zM780 96h12v12h-12zM768 96h12v12h-12zM756 96h12v12h-12zM744 96h12v12h-12zM732 96h12v12h-12zM720 96h12v12h-12zM708 96h12v12h-12zM696 96h12v12h-12zM684 96h12v12h-12zM672 96h12v12h-12zM660 96h12v12h-12zM648 96h12v12h-12zM636 96h12v12h-12zM624 96h12v12h-12zM612 96h12v12h-12zM600 96h12v12h-12zM588 96h12v12h-12zM576 96h12v12h-12zM564 96h12v12h-12zM792 108h12v12h-12zM792 120h12v12h-12zM792 144h12v12h-12zM792 156h12v12h-12zM792 168h12v12h-12zM792 180h12v12h-12zM792 192h12v12h-12zM792 204h12v12h-12zM792 216h12v12h-12zM792 228h12v12h-12zM792 240h12v12h-12zM792 252h12v12h-12zM792 264h12v12h-12zM792 276h12v12h-12zM792 288h12v12h-12zM780 312h12v12h-12zM768 324h12v12h-12zM756 336h12v12h-12zM744 348h12v12h-12zM732 360h12v12h-12zM720 372h12v12h-12zM708 384h12v12h-12zM696 396h12v12h-12zM672 420h12v12h-12zM768 300h12v12h-12zM756 288h12v12h-12zM744 276h12v12h-12zM768 252h12v12h-12zM780 240h12v12h-12zM804 216h12v12h-12zM828 192h12v12h-12zM840 180h12v12h-12zM852 168h12v12h-12zM864 156h12v12h-12zM876 144h12v12h-12zM900 120h12v12h-12zM912 108h12v12h-12zM924 96h12v12h-12zM936 84h12v12h-12zM948 72h12v12h-12zM732 288h12v12h-12zM720 300h12v12h-12zM708 312h12v12h-12zM696 324h12v12h-12zM684 336h12v12h-12zM672 348h12v12h-12zM648 372h12v12h-12zM636 384h12v12h-12zM624 372h12v12h-12zM612 360h12v12h-12zM600 348h12v12h-12zM612 336h12v12h-12zM624 324h12v12h-12zM636 312h12v12h-12zM648 300h12v12h-12zM672 276h12v12h-12zM684 264h12v12h-12zM696 252h12v12h-12zM708 240h12v12h-12zM732 216h12v12h-12zM744 204h12v12h-12zM756 192h12v12h-12zM768 180h12v12h-12zM780 168h12v12h-12zM804 168h12v12h-12zM828 168h12v12h-12zM840 168h12v12h-12zM828 180h12v12h-12zM804 204h12v12h-12zM780 228h12v12h-12zM768 240h12v12h-12zM756 252h12v12h-12zM744 264h12v12h-12zM732 276h12v12h-12zM756 276h12v12h-12zM780 276h12v12h-12zM804 276h12v12h-12zM828 276h12v12h-12zM840 276h12v12h-12zM852 276h12v12h-12zM864 276h12v12h-12zM876 276h12v12h-12zM888 276h12v12h-12zM900 276h12v12h-12zM912 276h12v12h-12zM900 288h12v12h-12zM888 300h12v12h-12zM876 312h12v12h-12zM864 324h12v12h-12zM852 336h12v12h-12zM828 360h12v12h-12zM816 372h12v12h-12zM804 384h12v12h-12zM792 396h12v12h-12zM768 420h12v12h-12zM756 432h12v12h-12zM744 444h12v12h-12zM876 300h12v12h-12zM876 288h12v12h-12zM876 264h12v12h-12zM876 252h12v12h-12zM876 240h12v12h-12zM876 228h12v12h-12zM876 216h12v12h-12zM876 204h12v12h-12zM876 192h12v12h-12zM876 180h12v12h-12zM876 168h12v12h-12zM876 156h12v12h-12zM876 132h12v12h-12zM876 108h12v12h-12zM876 96h12v12h-12zM876 84h12v12h-12zM864 72h12v12h-12zM852 60h12v12h-12zM840 48h12v12h-12zM828 36h12v12h-12zM804 12h12v12h-12zM792 12h12v12h-12zM780 12h12v12h-12zM768 12h12v12h-12zM756 12h12v12h-12zM744 12h12v12h-12zM732 12h12v12h-12zM720 12h12v12h-12zM708 12h12v12h-12zM696 12h12v12h-12zM696 24h12v12h-12zM696 36h12v12h-12zM696 48h12v12h-12zM696 60h12v12h-12zM696 72h12v12h-12zM696 84h12v12h-12zM696 108h12v12h-12zM696 120h12v12h-12zM696 132h12v12h-12zM696 144h12v12h-12zM696 156h12v12h-12zM696 168h12v12h-12zM696 180h12v12h-12zM696 192h12v12h-12zM696 216h12v12h-12zM696 240h12v12h-12zM696 264h12v12h-12zM696 276h12v12h-12zM696 288h12v12h-12zM696 300h12v12h-12zM696 312h12v12h-12zM696 336h12v12h-12zM696 348h12v12h-12zM696 360h12v12h-12zM708 264h12v12h-12zM720 252h12v12h-12zM744 228h12v12h-12zM756 216h12v12h-12zM768 204h12v12h-12zM780 192h12v12h-12zM828 144h12v12h-12zM840 132h12v12h-12zM684 288h12v12h-12zM672 300h12v12h-12zM648 324h12v12h-12zM636 336h12v12h-12zM624 348h12v12h-12zM600 372h12v12h-12zM588 384h12v12h-12zM576 396h12v12h-12zM564 408h12v12h-12zM564 396h12v12h-12zM564 384h12v12h-12zM564 372h12v12h-12zM564 360h12v12h-12zM564 348h12v12h-12zM564 336h12v12h-12zM564 324h12v12h-12zM564 312h12v12h-12zM564 300h12v12h-12zM564 288h12v12h-12zM564 276h12v12h-12zM564 264h12v12h-12zM564 252h12v12h-12zM564 240h12v12h-12zM564 228h12v12h-12zM564 216h12v12h-12zM564 204h12v12h-12zM564 192h12v12h-12zM564 180h12v12h-12zM564 168h12v12h-12zM564 156h12v12h-12zM564 144h12v12h-12zM564 132h12v12h-12zM564 120h12v12h-12zM564 108h12v12h-12zM564 84h12v12h-12zM564 72h12v12h-12zM576 72h12v12h-12zM588 72h12v12h-12zM600 72h12v12h-12zM612 72h12v12h-12zM624 72h12v12h-12zM612 84h12v12h-12zM588 108h12v12h-12zM576 120h12v12h-12zM552 144h12v12h-12zM540 156h12v12h-12zM528 168h12v12h-12zM516 180h12v12h-12zM528 180h12v12h-12zM528 192h12v12h-12zM528 204h12v12h-12zM528 216h12v12h-12zM528 228h12v12h-12zM528 240h12v12h-12zM528 252h12v12h-12zM528 264h12v12h-12zM528 276h12v12h-12zM528 288h12v12h-12zM528 300h12v12h-12zM528 312h12v12h-12zM528 324h12v12h-12zM528 336h12v12h-12zM528 348h12v12h-12zM528 360h12v12h-12zM528 372h12v12h-12zM528 384h12v12h-12zM528 396h12v12h-12zM528 408h12v12h-12zM528 420h12v12h-12zM528 432h12v12h-12zM528 444h12v12h-12zM528 156h12v12h-12zM528 144h12v12h-12zM528 132h12v12h-12zM528 120h12v12h-12zM528 108h12v12h-12zM528 96h12v12h-12zM528 84h12v12h-12zM528 72h12v12h-12zM528 60h12v12h-12zM528 48h12v12h-12zM528 36h12v12h-12zM528 24h12v12h-12zM540 24h12v12h-12zM552 24h12v12h-12zM564 24h12v12h-12zM576 24h12v12h-12zM588 24h12v12h-12zM600 24h12v12h-12zM612 24h12v12h-12zM624 24h12v12h-12zM636 24h12v12h-12zM648 24h12v12h-12zM660 24h12v12h-12zM672 24h12v12h-12zM684 24h12v12h-12zM708 24h12v12h-12zM720 24h12v12h-12zM732 24h12v12h-12zM744 24h12v12h-12zM756 24h12v12h-12zM768 24h12v12h-12zM780 24h12v12h-12zM792 24h12v12h-12zM804 24h12v12h-12zM828 24h12v12h-12zM840 24h12v12h-12zM852 24h12v12h-12zM864 24h12v12h-12zM876 24h12v12h-12zM888 24h12v12h-12zM912 24h12v12h-12zM924 24h12v12h-12zM936 24h12v12h-12zM876 828h12v12h-12zM888 816h12v12h-12zM900 804h12v12h-12zM912 792h12v12h-12zM924 780h12v12h-12zM924 768h12v12h-12zM924 756h12v12h-12zM924 744h12v12h-12zM924 732h12v12h-12zM924 720h12v12h-12zM924 708h12v12h-12zM924 696h12v12h-12zM924 684h12v12h-12zM924 672h12v12h-12zM924 660h12v12h-12zM924 648h12v12h-12zM924 636h12v12h-12zM924 624h12v12h-12zM924 612h12v12h-12zM924 600h12v12h-12zM924 588h12v12h-12zM924 576h12v12h-12zM924 564h12v12h-12zM924 552h12v12h-12zM924 540h12v12h-12zM924 528h12v12h-12zM924 516h12v12h-12zM912 528h12v12h-12zM900 540h12v12h-12zM888 552h12v12h-12zM876 564h12v12h-12zM864 576h12v12h-12zM852 588h12v12h-12zM840 600h12v12h-12zM828 612h12v12h-12zM816 624h12v12h-12zM804 636h12v12h-12zM792 648h12v12h-12zM780 660h12v12h-12zM768 672h12v12h-12zM756 684h12v12h-12zM744 696h12v12h-12zM732 708h12v12h-12zM720 720h12v12h-12zM708 732h12v12h-12zM696 744h12v12h-12zM684 756h12v12h-12zM672 768h12v12h-12zM660 780h12v12h-12zM660 768h12v12h-12zM660 756h12v12h-12zM660 744h12v12h-12zM660 732h12v12h-12zM660 720h12v12h-12zM660 708h12v12h-12zM660 696h12v12h-12zM660 684h12v12h-12zM660 672h12v12h-12zM660 660h12v12h-12zM660 648h12v12h-12zM660 636h12v12h-12zM660 624h12v12h-12zM660 612h12v12h-12zM660 600h12v12h-12zM660 588h12v12h-12zM660 576h12v12h-12zM660 564h12v12h-12zM660 552h12v12h-12zM660 540h12v12h-12zM672 540h12v12h-12zM684 540h12v12h-12zM696 540h12v12h-12zM708 540h12v12h-12zM720 540h12v12h-12zM732 540h12v12h-12zM744 540h12v12h-12zM756 540h12v12h-12zM768 540h12v12h-12zM780 540h12v12h-12zM792 540h12v12h-12zM804 540h12v12h-12zM816 540h12v12h-12zM828 540h12v12h-12zM840 540h12v12h-12zM852 540h12v12h-12zM864 540h12v12h-12zM876 540h12v12h-12zM888 540h12v12h-12zM900 528h12v12h-12zM912 516h12v12h-12zM924 504h12v12h-12zM936 492h12v12h-12zM924 492h12v12h-12zM912 492h12v12h-12zM900 492h12v12h-12zM888 492h12v12h-12zM876 492h12v12h-12zM864 492h12v12h-12zM852 492h12v12h-12zM840 492h12v12h-12zM828 492h12v12h-12zM816 492h12v12h-12zM804 492h12v12h-12zM792 492h12v12h-12zM780 492h12v12h-12zM768 492h12v12h-12zM756 492h12v12h-12zM744 492h12v12h-12zM732 492h12v12h-12zM720 492h12v12h-12zM708 492h12v12h-12zM708 504h12v12h-12zM708 516h12v12h-12zM708 528h12v12h-12zM708 552h12v12h-12zM720 564h12v12h-12zM732 576h12v12h-12zM744 588h12v12h-12zM756 600h12v12h-12zM768 612h12v12h-12zM780 624h12v12h-12zM792 636h12v12h-12zM804 648h12v12h-12zM816 660h12v12h-12zM816 672h12v12h-12zM816 684h12v12h-12zM816 696h12v12h-12zM816 708h12v12h-12zM816 720h12v12h-12zM816 732h12v12h-12zM816 744h12v12h-12zM816 756h12v12h-12zM816 768h12v12h-12zM816 780h12v12h-12zM816 792h12v12h-12zM816 804h12v12h-12zM816 816h12v12h-12zM816 828h12v12h-12zM816 840h12v12h-12zM816 852h12v12h-12zM816 864h12v12h-12zM816 876h12v12h-12zM816 888h12v12h-12zM816 900h12v12h-12zM816 912h12v12h-12zM816 924h12v12h-12zM816 936h12v12h-12zM816 948h12v12h-12zM828 948h12v12h-12zM840 948h12v12h-12zM852 948h12v12h-12zM864 948h12v12h-12zM876 948h12v12h-12zM888 948h12v12h-12zM900 948h12v12h-12zM912 948h12v12h-12zM924 948h12v12h-12zM912 936h12v12h-12zM900 924h12v12h-12zM888 912h12v12h-12zM876 900h12v12h-12zM864 888h12v12h-12zM852 876h12v12h-12zM840 864h12v12h-12zM828 852h12v12h-12zM804 828h12v12h-12zM792 816h12v12h-12zM780 804h12v12h-12zM768 792h12v12h-12zM756 780h12v12h-12zM744 768h12v12h-12zM732 756h12v12h-12zM720 744h12v12h-12zM696 720h12v12h-12zM684 708h12v12h-12zM672 696h12v12h-12zM648 672h12v12h-12zM636 660h12v12h-12zM624 648h12v12h-12zM612 636h12v12h-12zM600 624h12v12h-12zM804 852h12v12h-12zM792 852h12v12h-12zM780 852h12v12h-12zM768 852h12v12h-12zM756 852h12v12h-12zM744 852h12v12h-12zM732 852h12v12h-12zM720 852h12v12h-12zM708 852h12v12h-12zM696 852h12v12h-12zM684 852h12v12h-12zM672 852h12v12h-12zM660 852h12v12h-12zM648 852h12v12h-12zM636 852h12v12h-12zM624 852h12v12h-12zM612 852h12v12h-12zM600 852h12v12h-12zM588 852h12v12h-12zM576 852h12v12h-12zM564 852h12v12h-12zM792 840h12v12h-12zM792 828h12v12h-12zM792 804h12v12h-12zM792 792h12v12h-12zM792 780h12v12h-12zM792 768h12v12h-12zM792 756h12v12h-12zM792 744h12v12h-12zM792 732h12v12h-12zM792 720h12v12h-12zM792 708h12v12h-12zM792 696h12v12h-12zM792 684h12v12h-12zM792 672h12v12h-12zM792 660h12v12h-12zM780 636h12v12h-12zM768 624h12v12h-12zM756 612h12v12h-12zM744 600h12v12h-12zM732 588h12v12h-12zM720 576h12v12h-12zM708 564h12v12h-12zM696 552h12v12h-12zM672 528h12v12h-12zM768 648h12v12h-12zM756 660h12v12h-12zM744 672h12v12h-12zM768 696h12v12h-12zM780 708h12v12h-12zM804 732h12v12h-12zM828 756h12v12h-12zM840 768h12v12h-12zM852 780h12v12h-12zM864 792h12v12h-12zM876 804h12v12h-12zM900 828h12v12h-12zM912 840h12v12h-12zM924 852h12v12h-12zM936 864h12v12h-12zM948 876h12v12h-12zM732 660h12v12h-12zM720 648h12v12h-12zM708 636h12v12h-12zM696 624h12v12h-12zM684 612h12v12h-12zM672 600h12v12h-12zM648 576h12v12h-12zM636 564h12v12h-12zM624 576h12v12h-12zM612 588h12v12h-12zM600 600h12v12h-12zM612 612h12v12h-12zM624 624h12v12h-12zM636 636h12v12h-12zM648 648h12v12h-12zM672 672h12v12h-12zM684 684h12v12h-12zM696 696h12v12h-12zM708 708h12v12h-12zM732 732h12v12h-12zM744 744h12v12h-12zM756 756h12v12h-12zM768 768h12v12h-12zM780 780h12v12h-12zM804 780h12v12h-12zM828 780h12v12h-12zM840 780h12v12h-12zM828 768h12v12h-12zM804 744h12v12h-12zM780 720h12v12h-12zM768 708h12v12h-12zM756 696h12v12h-12zM744 684h12v12h-12zM732 672h12v12h-12zM756 672h12v12h-12zM780 672h12v12h-12zM804 672h12v12h-12zM828 672h12v12h-12zM840 672h12v12h-12zM852 672h12v12h-12zM864 672h12v12h-12zM876 672h12v12h-12zM888 672h12v12h-12zM900 672h12v12h-12zM912 672h12v12h-12zM900 660h12v12h-12zM888 648h12v12h-12zM876 636h12v12h-12zM864 624h12v12h-12zM852 612h12v12h-12zM828 588h12v12h-12zM816 576h12v12h-12zM804 564h12v12h-12zM792 552h12v12h-12zM768 528h12v12h-12zM756 516h12v12h-12zM744 504h12v12h-12zM876 648h12v12h-12zM876 660h12v12h-12zM876 684h12v12h-12zM876 696h12v12h-12zM876 708h12v12h-12zM876 720h12v12h-12zM876 732h12v12h-12zM876 744h12v12h-12zM876 756h12v12h-12zM876 768h12v12h-12zM876 780h12v12h-12zM876 792h12v12h-12zM876 816h12v12h-12zM876 840h12v12h-12zM876 852h12v12h-12zM876 864h12v12h-12zM864 876h12v12h-12zM852 888h12v12h-12zM840 900h12v12h-12zM828 912h12v12h-12zM804 936h12v12h-12zM792 936h12v12h-12zM780 936h12v12h-12zM768 936h12v12h-12zM756 936h12v12h-12zM744 936h12v12h-12zM732 936h12v12h-12zM720 936h12v12h-12zM708 936h12v12h-12zM696 936h12v12h-12zM696 924h12v12h-12zM696 912h12v12h-12zM696 900h12v12h-12zM696 888h12v12h-12zM696 876h12v12h-12zM696 864h12v12h-12zM696 840h12v12h-12zM696 828h12v12h-12zM696 816h12v12h-12zM696 804h12v12h-12zM696 792h12v12h-12zM696 780h12v12h-12zM696 768h12v12h-12zM696 756h12v12h-12zM696 732h12v12h-12zM696 708h12v12h-12zM696 684h12v12h-12zM696 672h12v12h-12zM696 660h12v12h-12zM696 648h12v12h-12zM696 636h12v12h-12zM696 612h12v12h-12zM696 600h12v12h-12zM696 588h12v12h-12zM708 684h12v12h-12zM720 696h12v12h-12zM744 720h12v12h-12zM756 732h12v12h-12zM768 744h12v12h-12zM780 756h12v12h-12zM828 804h12v12h-12zM840 816h12v12h-12zM684 660h12v12h-12zM672 648h12v12h-12zM648 624h12v12h-12zM636 612h12v12h-12zM624 600h12v12h-12zM600 576h12v12h-12zM588 564h12v12h-12zM576 552h12v12h-12zM564 540h12v12h-12zM564 552h12v12h-12zM564 564h12v12h-12zM564 576h12v12h-12zM564 588h12v12h-12zM564 600h12v12h-12zM564 612h12v12h-12zM564 624h12v12h-12zM564 636h12v12h-12zM564 648h12v12h-12zM564 660h12v12h-12zM564 672h12v12h-12zM564 684h12v12h-12zM564 696h12v12h-12zM564 708h12v12h-12zM564 720h12v12h-12zM564 732h12v12h-12zM564 744h12v12h-12zM564 756h12v12h-12zM564 768h12v12h-12zM564 780h12v12h-12zM564 792h12v12h-12zM564 804h12v12h-12zM564 816h12v12h-12zM564 828h12v12h-12zM564 840h12v12h-12zM564 864h12v12h-12zM564 876h12v12h-12zM576 876h12v12h-12zM588 876h12v12h-12zM600 876h12v12h-12zM612 876h12v12h-12zM624 876h12v12h-12zM612 864h12v12h-12zM588 840h12v12h-12zM576 828h12v12h-12zM552 804h12v12h-12zM540 792h12v12h-12zM528 780h12v12h-12zM516 768h12v12h-12zM528 768h12v12h-12zM528 756h12v12h-12zM528 744h12v12h-12zM528 732h12v12h-12zM528 720h12v12h-12zM528 708h12v12h-12zM528 696h12v12h-12zM528 684h12v12h-12zM528 672h12v12h-12zM528 660h12v12h-12zM528 648h12v12h-12zM528 636h12v12h-12zM528 624h12v12h-12zM528 612h12v12h-12zM528 600h12v12h-12zM528 588h12v12h-12zM528 576h12v12h-12zM528 564h12v12h-12zM528 552h12v12h-12zM528 540h12v12h-12zM528 528h12v12h-12zM528 516h12v12h-12zM528 504h12v12h-12zM528 792h12v12h-12zM528 804h12v12h-12zM528 816h12v12h-12zM528 828h12v12h-12zM528 840h12v12h-12zM528 852h12v12h-12zM528 864h12v12h-12zM528 876h12v12h-12zM528 888h12v12h-12zM528 900h12v12h-12zM528 912h12v12h-12zM528 924h12v12h-12zM540 924h12v12h-12zM552 924h12v12h-12zM564 924h12v12h-12zM576 924h12v12h-12zM588 924h12v12h-12zM600 924h12v12h-12zM612 924h12v12h-12zM624 924h12v12h-12zM636 924h12v12h-12zM648 924h12v12h-12zM660 924h12v12h-12zM672 924h12v12h-12zM684 924h12v12h-12zM708 924h12v12h-12zM720 924h12v12h-12zM732 924h12v12h-12zM744 924h12v12h-12zM756 924h12v12h-12zM768 924h12v12h-12zM780 924h12v12h-12zM792 924h12v12h-12zM804 924h12v12h-12zM828 924h12v12h-12zM840 924h12v12h-12zM852 924h12v12h-12zM864 924h12v12h-12zM876 924h12v12h-12zM888 924h12v12h-12zM912 924h12v12h-12zM924 924h12v12h-12zM936 924h12v12h-12z"/></svg>