<svg xmlns="http://www.w3.org/2000/svg" width="960" height="960" viewBox="0 0 960 960" shape-rendering="crispEdges"><path fill="#fff" d="M0 0h960v960h-960z"/><path fill="#f8e66d" d="M0 0h48v48h-48zM0 96h48v48h-48zM0 192h48v48h-48zM0 288h48v48h-48zM0 384h48v48h-48zM48 48h48v48h-48zM48 144h48v48h-48zM48 240h48v48h-48zM48 336h48v48h-48zM48 432h48v48h-48zM96 0h48v48h-48zM96 96h48v48h-48zM96 192h48v48h-48zM96 288h48v48h-48zM96 384h48v48h-48zM144 48h48v48h-48zM144 144h48v48h-48zM144 240h48v48h-48zM144 336h48v48h-48zM144 432h48v48h-48zM192 0h48v48h-48zM192 96h48v48h-48zM192 192h48v48h-48zM192 288h48v48h-48zM192 384h48v48h-48zM240 48h48v48h-48zM240 144h48v48h-48zM240 240h48v48h-48zM240 336h48v48h-48zM240 432h48v48h-48zM288 0h48v48h-48zM288 96h48v48h-48zM288 192h48v48h-48zM288 288h48v48h-48zM288 384h48v48h-48zM336 48h48v48h-48zM336 144h48v48h-48zM336 240h48v48h-48zM336 336h48v48h-48zM336 432h48v48h-48zM384 0h48v48h-48zM384 96h48v48h-48zM384 192h48v48h-48zM384 288h48v48h-48zM384 384h48v48h-48zM432 48h48v48h-48zM432 144h48v48h-48zM432 240h48v48h-48zM432 336h48v48h-48zM432 432h48v48h-48zM480 0h48v48h-48zM480 96h48v48h-48zM480 192h48v48h-48zM480 288h48v48h-48zM480 384h48v48h-48zM528 48h48v48h-48zM528 144h48v48h-48zM528 240h48v48h-48zM528 336h48v48h-48zM528 432h48v48h-48zM576 0h48v48h-48zM576 96h48v48h-48zM576 192h48v48h-48zM576 288h48v48h-48zM576 384h48v48h-48zM624 48h48v48h-48zM624 144h48v48h-48zM624 240h48v48h-48zM624 336h48v48h-48zM624 432h48v48h-48zM672 0h48v48h-48zM672 96h48v48h-48zM672 192h48v48h-48zM672 288h48v48h-48zM672 384h48v48h-48zM720 48h48v48h-48zM720 144h48v48h-48zM720 240h48v48h-48zM720 336h48v48h-48zM720 432h48v48h-48zM768 0h48v48h-48zM768 96h48v48h-48zM768 192h48v48h-48zM768 288h48v48h-48zM768 384h48v48h-48zM816 48h48v48h-48zM816 144h48v48h-48zM816 240h48v48h-48zM816 336h48v48h-48zM816 432h48v48h-48zM864 0h48v48h-48zM864 96h48v48h-48zM864 192h48v48h-48zM864 288h48v48h-48zM864 384h48v48h-48zM912 48h48v48h-48zM912 144h48v48h-48zM912 240h48v48h-48zM912 336h48v48h-48zM912 432h48v48h-48z"/><path fill="#9d2f83" d="M9 0h6v24h-6zM0 9h24v6h-24zM33 24h6v24h-6zM24 33h24v6h-24zM57 48h6v24h-6zM48 57h24v6h-24zM81 72h6v24h-6zM72 81h24v6h-24zM192 0h24v24h-24zM264 0h24v24h-24zM216 24h24v24h-24zM240 48h24v24h-24zM192 72h24v24h-24zM264 72h24v24h-24zM408 0h24v24h-24zM384 24h24v24h-24zM432 24h24v24h-24zM408 48h24v24h-24zM456 48h24v24h-24zM432 72h24v24h-24zM486 30h12v12h-12zM558 30h12v12h-12zM486 54h12v12h-12zM558 54h12v12h-12zM624 0h24v24h-24zM648 0h24v24h-24zM624 24h24v24h-24zM648 24h24v24h-24zM576 48h24v24h-24zM600 48h24v24h-24zM576 72h24v24h-24zM600 72h24v24h-24zM750 6h12v12h-12zM726 30h12v12h-12zM702 54h12v12h-12zM678 78h12v12h-12zM777 0h6v24h-6zM768 9h24v6h-24zM849 0h6v24h-6zM840 9h24v6h-24zM777 48h6v24h-6zM768 57h24v6h-24zM849 48h6v24h-6zM840 57h24v6h-24zM888 0h24v24h-24zM912 0h24v24h-24zM864 24h24v24h-24zM912 24h24v24h-24zM888 48h24v24h-24zM936 48h24v24h-24zM888 72h24v24h-24zM912 72h24v24h-24zM489 96h6v24h-6zM480 105h24v6h-24zM489 120h6v24h-6zM480 129h24v6h-24zM561 144h6v24h-6zM552 153h24v6h-24zM561 168h6v24h-6zM552 177h24v6h-24zM585 96h6v24h-6zM576 105h24v6h-24zM633 96h6v24h-6zM624 105h24v6h-24zM609 120h6v24h-6zM600 129h24v6h-24zM657 120h6v24h-6zM648 129h24v6h-24zM585 144h6v24h-6zM576 153h24v6h-24zM633 144h6v24h-6zM624 153h24v6h-24zM609 168h6v24h-6zM600 177h24v6h-24zM657 168h6v24h-6zM648 177h24v6h-24zM720 96h24v24h-24zM744 96h24v24h-24zM720 120h24v24h-24zM744 120h24v24h-24zM672 144h24v24h-24zM696 144h24v24h-24zM672 168h24v24h-24zM696 168h24v24h-24zM801 96h6v24h-6zM792 105h24v6h-24zM849 96h6v24h-6zM840 105h24v6h-24zM777 120h6v24h-6zM768 129h24v6h-24zM849 144h6v24h-6zM840 153h24v6h-24zM777 168h6v24h-6zM768 177h24v6h-24zM825 168h6v24h-6zM816 177h24v6h-24zM888 96h24v24h-24zM864 120h24v24h-24zM912 120h24v24h-24zM936 120h24v24h-24zM864 144h24v24h-24zM888 144h24v24h-24zM936 144h24v24h-24zM912 168h24v24h-24zM48 192h24v24h-24zM72 192h24v24h-24zM48 216h24v24h-24zM72 216h24v24h-24zM0 240h24v24h-24zM24 240h24v24h-24zM0 264h24v24h-24zM24 264h24v24h-24zM192 192h24v24h-24zM216 216h24v24h-24zM240 240h24v24h-24zM264 264h24v24h-24zM465 336h6v24h-6zM456 345h24v6h-24zM417 192h6v24h-6zM408 201h24v6h-24zM441 192h6v24h-6zM432 201h24v6h-24zM417 216h6v24h-6zM408 225h24v6h-24zM465 216h6v24h-6zM456 225h24v6h-24zM393 240h6v24h-6zM384 249h24v6h-24zM441 240h6v24h-6zM432 249h24v6h-24zM417 264h6v24h-6zM408 273h24v6h-24zM441 264h6v24h-6zM432 273h24v6h-24zM489 192h6v24h-6zM480 201h24v6h-24zM489 216h6v24h-6zM480 225h24v6h-24zM561 240h6v24h-6zM552 249h24v6h-24zM561 264h6v24h-6zM552 273h24v6h-24zM600 192h24v24h-24zM648 192h24v24h-24zM576 216h24v24h-24zM648 240h24v24h-24zM576 264h24v24h-24zM624 264h24v24h-24zM729 192h6v24h-6zM720 201h24v6h-24zM681 216h6v24h-6zM672 225h24v6h-24zM705 216h6v24h-6zM696 225h24v6h-24zM753 216h6v24h-6zM744 225h24v6h-24zM681 240h6v24h-6zM672 249h24v6h-24zM729 240h6v24h-6zM720 249h24v6h-24zM753 240h6v24h-6zM744 249h24v6h-24zM705 264h6v24h-6zM696 273h24v6h-24zM846 198h12v12h-12zM822 222h12v12h-12zM798 246h12v12h-12zM774 270h12v12h-12zM873 192h6v24h-6zM864 201h24v6h-24zM945 192h6v24h-6zM936 201h24v6h-24zM897 216h6v24h-6zM888 225h24v6h-24zM897 240h6v24h-6zM888 249h24v6h-24zM921 240h6v24h-6zM912 249h24v6h-24zM873 264h6v24h-6zM864 273h24v6h-24zM945 264h6v24h-6zM936 273h24v6h-24zM489 288h6v24h-6zM480 297h24v6h-24zM537 288h6v24h-6zM528 297h24v6h-24zM513 312h6v24h-6zM504 321h24v6h-24zM561 312h6v24h-6zM552 321h24v6h-24zM489 336h6v24h-6zM480 345h24v6h-24zM537 336h6v24h-6zM528 345h24v6h-24zM513 360h6v24h-6zM504 369h24v6h-24zM561 360h6v24h-6zM552 369h24v6h-24zM582 294h12v12h-12zM630 294h12v12h-12zM630 318h12v12h-12zM654 318h12v12h-12zM582 342h12v12h-12zM606 342h12v12h-12zM606 366h12v12h-12zM654 366h12v12h-12zM729 288h6v24h-6zM720 297h24v6h-24zM705 312h6v24h-6zM696 321h24v6h-24zM753 312h6v24h-6zM744 321h24v6h-24zM681 336h6v24h-6zM672 345h24v6h-24zM729 336h6v24h-6zM720 345h24v6h-24zM705 360h6v24h-6zM696 369h24v6h-24zM825 288h6v24h-6zM816 297h24v6h-24zM849 312h6v24h-6zM840 321h24v6h-24zM777 336h6v24h-6zM768 345h24v6h-24zM801 360h6v24h-6zM792 369h24v6h-24zM936 288h24v24h-24zM912 312h24v24h-24zM888 336h24v24h-24zM864 360h24v24h-24zM6 390h12v12h-12zM54 390h12v12h-12zM78 414h12v12h-12zM6 438h12v12h-12zM30 462h12v12h-12zM78 462h12v12h-12zM225 384h6v24h-6zM216 393h24v6h-24zM273 384h6v24h-6zM264 393h24v6h-24zM201 408h6v24h-6zM192 417h24v6h-24zM273 432h6v24h-6zM264 441h24v6h-24zM201 456h6v24h-6zM192 465h24v6h-24zM249 456h6v24h-6zM240 465h24v6h-24zM384 384h24v24h-24zM456 384h24v24h-24zM408 408h24v24h-24zM432 432h24v24h-24zM384 456h24v24h-24zM456 456h24v24h-24zM510 390h12v12h-12zM486 414h12v12h-12zM558 438h12v12h-12zM534 462h12v12h-12zM576 408h24v24h-24zM600 408h24v24h-24zM576 432h24v24h-24zM648 432h24v24h-24zM678 390h12v12h-12zM750 390h12v12h-12zM702 414h12v12h-12zM726 414h12v12h-12zM702 438h12v12h-12zM678 462h12v12h-12zM750 462h12v12h-12zM798 390h12v12h-12zM846 390h12v12h-12zM774 414h12v12h-12zM822 414h12v12h-12zM798 438h12v12h-12zM846 438h12v12h-12zM774 462h12v12h-12zM822 462h12v12h-12zM870 390h12v12h-12zM894 390h12v12h-12zM870 414h12v12h-12zM894 414h12v12h-12zM918 438h12v12h-12zM942 438h12v12h-12zM918 462h12v12h-12zM942 462h12v12h-12zM24 504h24v24h-24zM48 504h24v24h-24zM24 528h24v24h-24zM48 528h24v24h-24zM120 480h24v24h-24zM144 480h24v24h-24zM96 504h24v24h-24zM144 504h24v24h-24zM120 528h24v24h-24zM168 528h24v24h-24zM120 552h24v24h-24zM144 552h24v24h-24zM225 504h6v24h-6zM216 513h24v6h-24zM249 504h6v24h-6zM240 513h24v6h-24zM225 528h6v24h-6zM216 537h24v6h-24zM249 528h6v24h-6zM240 537h24v6h-24zM294 486h12v12h-12zM342 486h12v12h-12zM366 510h12v12h-12zM294 534h12v12h-12zM318 558h12v12h-12zM366 558h12v12h-12zM414 486h12v12h-12zM438 534h12v12h-12zM414 558h12v12h-12zM438 558h12v12h-12zM9 576h6v24h-6zM0 585h24v6h-24zM81 576h6v24h-6zM72 585h24v6h-24zM57 600h6v24h-6zM48 609h24v6h-24zM33 624h6v24h-6zM24 633h24v6h-24zM9 648h6v24h-6zM0 657h24v6h-24zM81 648h6v24h-6zM72 657h24v6h-24zM105 576h6v24h-6zM96 585h24v6h-24zM129 600h6v24h-6zM120 609h24v6h-24zM105 624h6v24h-6zM96 633h24v6h-24zM153 624h6v24h-6zM144 633h24v6h-24zM105 648h6v24h-6zM96 657h24v6h-24zM129 648h6v24h-6zM120 657h24v6h-24zM177 648h6v24h-6zM168 657h24v6h-24zM225 576h6v24h-6zM216 585h24v6h-24zM273 576h6v24h-6zM264 585h24v6h-24zM225 648h6v24h-6zM216 657h24v6h-24zM273 648h6v24h-6zM264 657h24v6h-24zM366 582h12v12h-12zM366 606h12v12h-12zM294 630h12v12h-12zM294 654h12v12h-12zM390 582h12v12h-12zM414 582h12v12h-12zM390 606h12v12h-12zM414 606h12v12h-12zM438 630h12v12h-12zM462 630h12v12h-12zM438 654h12v12h-12zM462 654h12v12h-12zM606 606h12v12h-12zM630 606h12v12h-12zM606 630h12v12h-12zM630 630h12v12h-12zM822 582h12v12h-12zM798 606h12v12h-12zM846 606h12v12h-12zM774 630h12v12h-12zM822 630h12v12h-12zM798 654h12v12h-12zM24 672h24v24h-24zM48 672h24v24h-24zM24 744h24v24h-24zM48 744h24v24h-24zM153 672h6v24h-6zM144 681h24v6h-24zM177 672h6v24h-6zM168 681h24v6h-24zM153 696h6v24h-6zM144 705h24v6h-24zM177 696h6v24h-6zM168 705h24v6h-24zM105 720h6v24h-6zM96 729h24v6h-24zM129 720h6v24h-6zM120 729h24v6h-24zM105 744h6v24h-6zM96 753h24v6h-24zM129 744h6v24h-6zM120 753h24v6h-24zM201 672h6v24h-6zM192 681h24v6h-24zM201 696h6v24h-6zM192 705h24v6h-24zM273 720h6v24h-6zM264 729h24v6h-24zM273 744h6v24h-6zM264 753h24v6h-24zM294 678h12v12h-12zM366 678h12v12h-12zM294 750h12v12h-12zM366 750h12v12h-12zM408 672h24v24h-24zM432 672h24v24h-24zM408 744h24v24h-24zM432 744h24v24h-24zM9 768h6v24h-6zM0 777h24v6h-24zM81 768h6v24h-6zM72 777h24v6h-24zM33 816h6v24h-6zM24 825h24v6h-24zM57 816h6v24h-6zM48 825h24v6h-24zM9 840h6v24h-6zM0 849h24v6h-24zM81 840h6v24h-6zM72 849h24v6h-24zM138 810h12v12h-12zM216 768h24v24h-24zM192 792h24v24h-24zM240 792h24v24h-24zM216 816h24v24h-24zM264 816h24v24h-24zM240 840h24v24h-24zM297 768h6v24h-6zM288 777h24v6h-24zM345 768h6v24h-6zM336 777h24v6h-24zM345 792h6v24h-6zM336 801h24v6h-24zM369 792h6v24h-6zM360 801h24v6h-24zM297 816h6v24h-6zM288 825h24v6h-24zM321 816h6v24h-6zM312 825h24v6h-24zM321 840h6v24h-6zM312 849h24v6h-24zM369 840h6v24h-6zM360 849h24v6h-24zM408 768h24v24h-24zM432 768h24v24h-24zM432 792h24v24h-24zM408 840h24v24h-24zM585 768h6v24h-6zM576 777h24v6h-24zM657 768h6v24h-6zM648 777h24v6h-24zM633 792h6v24h-6zM624 801h24v6h-24zM609 816h6v24h-6zM600 825h24v6h-24zM585 840h6v24h-6zM576 849h24v6h-24zM657 840h6v24h-6zM648 849h24v6h-24zM777 792h6v24h-6zM768 801h24v6h-24zM849 792h6v24h-6zM840 801h24v6h-24zM777 816h6v24h-6zM768 825h24v6h-24zM801 816h6v24h-6zM792 825h24v6h-24zM9 864h6v24h-6zM0 873h24v6h-24zM81 864h6v24h-6zM72 873h24v6h-24zM33 888h6v24h-6zM24 897h24v6h-24zM57 888h6v24h-6zM48 897h24v6h-24zM9 936h6v24h-6zM0 945h24v6h-24zM81 936h6v24h-6zM72 945h24v6h-24zM120 864h24v24h-24zM96 888h24v24h-24zM144 888h24v24h-24zM168 888h24v24h-24zM96 912h24v24h-24zM120 912h24v24h-24zM168 912h24v24h-24zM144 936h24v24h-24zM198 870h12v12h-12zM270 870h12v12h-12zM222 918h12v12h-12zM246 918h12v12h-12zM198 942h12v12h-12zM270 942h12v12h-12zM294 870h12v12h-12zM366 870h12v12h-12zM342 894h12v12h-12zM318 918h12v12h-12zM294 942h12v12h-12zM366 942h12v12h-12zM414 870h12v12h-12zM438 870h12v12h-12zM438 894h12v12h-12zM414 942h12v12h-12zM153 288h6v24h-6zM144 297h24v6h-24zM177 288h6v24h-6zM168 297h24v6h-24zM153 312h6v24h-6zM144 321h24v6h-24zM177 312h6v24h-6zM168 321h24v6h-24zM105 336h6v24h-6zM96 345h24v6h-24zM129 336h6v24h-6zM120 345h24v6h-24zM105 360h6v24h-6zM96 369h24v6h-24zM129 360h6v24h-6zM120 369h24v6h-24zM486 678h12v12h-12zM510 678h12v12h-12zM486 702h12v12h-12zM510 702h12v12h-12zM534 726h12v12h-12zM558 726h12v12h-12zM534 750h12v12h-12zM558 750h12v12h-12zM288 0h24v24h-24zM360 0h24v24h-24zM312 24h24v24h-24zM336 48h24v24h-24zM288 72h24v24h-24zM360 72h24v24h-24zM888 480h24v24h-24zM936 480h24v24h-24zM864 504h24v24h-24zM912 504h24v24h-24zM888 528h24v24h-24zM936 528h24v24h-24zM864 552h24v24h-24zM912 552h24v24h-24zM489 864h6v24h-6zM480 873h24v6h-24zM561 864h6v24h-6zM552 873h24v6h-24zM537 888h6v24h-6zM528 897h24v6h-24zM513 912h6v24h-6zM504 921h24v6h-24zM489 936h6v24h-6zM480 945h24v6h-24zM561 936h6v24h-6zM552 945h24v6h-24zM777 480h6v24h-6zM768 489h24v6h-24zM801 480h6v24h-6zM792 489h24v6h-24zM777 504h6v24h-6zM768 513h24v6h-24zM801 504h6v24h-6zM792 513h24v6h-24zM825 528h6v24h-6zM816 537h24v6h-24zM849 528h6v24h-6zM840 537h24v6h-24zM825 552h6v24h-6zM816 561h24v6h-24zM849 552h6v24h-6zM840 561h24v6h-24zM870 894h12v12h-12zM942 894h12v12h-12zM870 918h12v12h-12zM894 918h12v12h-12zM774 894h12v12h-12zM846 894h12v12h-12zM774 918h12v12h-12zM798 918h12v12h-12z"/><path fill="#000" d="M240 72h24v24h-24zM216 72h24v24h-24zM192 72h24v24h-24zM168 72h24v24h-24zM144 72h24v24h-24zM168 48h24v24h-24zM192 24h24v24h-24zM216 0h24v24h-24zM120 96h24v24h-24zM144 96h24v24h-24zM168 96h24v24h-24zM192 96h24v24h-24zM216 96h24v24h-24zM240 96h24v24h-24zM264 96h24v24h-24zM288 96h24v24h-24zM312 96h24v24h-24zM336 96h24v24h-24zM312 120h24v24h-24zM288 144h24v24h-24zM264 168h24v24h-24zM240 192h24v24h-24zM216 216h24v24h-24zM192 240h24v24h-24zM168 264h24v24h-24zM144 288h24v24h-24zM120 312h24v24h-24zM96 336h24v24h-24zM72 360h24v24h-24zM48 384h24v24h-24zM24 408h24v24h-24zM24 384h24v24h-24zM24 360h24v24h-24zM24 336h24v24h-24zM24 312h24v24h-24zM24 288h24v24h-24zM24 264h24v24h-24zM24 240h24v24h-24zM24 216h24v24h-24zM24 192h24v24h-24zM24 168h24v24h-24zM24 144h24v24h-24zM24 120h24v24h-24zM48 144h24v24h-24zM48 168h24v24h-24zM48 192h24v24h-24zM48 216h24v24h-24zM48 240h24v24h-24zM48 264h24v24h-24zM72 288h24v24h-24zM96 312h24v24h-24zM120 336h24v24h-24zM144 360h24v24h-24zM168 336h24v24h-24zM192 312h24v24h-24zM216 288h24v24h-24zM240 264h24v24h-24zM264 240h24v24h-24zM288 216h24v24h-24zM288 192h24v24h-24zM288 168h24v24h-24zM288 120h24v24h-24zM336 72h24v24h-24zM312 72h24v24h-24zM288 72h24v24h-24zM264 72h24v24h-24zM120 72h24v24h-24zM96 72h24v24h-24zM72 72h24v24h-24zM72 96h24v24h-24zM72 120h24v24h-24zM72 144h24v24h-24zM72 168h24v24h-24zM72 192h24v24h-24zM72 216h24v24h-24zM72 240h24v24h-24zM72 264h24v24h-24zM96 240h24v24h-24zM120 216h24v24h-24zM144 192h24v24h-24zM168 168h24v24h-24zM192 144h24v24h-24zM216 120h24v24h-24zM96 264h24v24h-24zM120 264h24v24h-24zM144 264h24v24h-24zM192 264h24v24h-24zM216 264h24v24h-24zM264 264h24v24h-24zM288 264h24v24h-24zM312 264h24v24h-24zM336 264h24v24h-24zM360 264h24v24h-24zM384 264h24v24h-24zM360 240h24v24h-24zM336 216h24v24h-24zM312 192h24v24h-24zM264 144h24v24h-24zM240 120h24v24h-24zM96 96h24v24h-24zM48 96h24v24h-24zM96 144h24v24h-24zM120 168h24v24h-24zM168 216h24v24h-24zM360 72h24v24h-24zM384 48h24v24h-24zM408 24h24v24h-24zM384 24h24v24h-24zM360 24h24v24h-24zM336 24h24v24h-24zM312 24h24v24h-24zM288 24h24v24h-24zM264 24h24v24h-24zM240 48h24v24h-24zM168 120h24v24h-24zM144 144h24v24h-24zM96 192h24v24h-24zM120 192h24v24h-24zM168 192h24v24h-24zM192 192h24v24h-24zM216 192h24v24h-24zM264 192h24v24h-24zM336 192h24v24h-24zM360 192h24v24h-24zM384 192h24v24h-24zM408 192h24v24h-24zM432 192h24v24h-24zM456 192h24v24h-24zM312 144h24v24h-24zM336 120h24v24h-24zM360 96h24v24h-24zM384 72h24v24h-24zM360 48h24v24h-24zM312 0h24v24h-24zM288 0h24v24h-24zM264 0h24v24h-24zM240 0h24v24h-24zM240 24h24v24h-24zM120 120h24v24h-24zM120 144h24v24h-24zM168 144h24v24h-24zM216 144h24v24h-24zM240 144h24v24h-24zM336 144h24v24h-24zM360 144h24v24h-24zM384 144h24v24h-24zM408 144h24v24h-24zM432 144h24v24h-24zM432 168h24v24h-24zM432 216h24v24h-24zM432 240h24v24h-24zM432 264h24v24h-24zM432 288h24v24h-24zM432 312h24v24h-24zM432 336h24v24h-24zM432 360h24v24h-24zM432 384h24v24h-24zM432 408h24v24h-24zM432 432h24v24h-24zM432 456h24v24h-24zM408 432h24v24h-24zM384 408h24v24h-24zM360 384h24v24h-24zM336 360h24v24h-24zM312 336h24v24h-24zM288 312h24v24h-24zM264 288h24v24h-24zM264 216h24v24h-24zM264 120h24v24h-24zM216 168h24v24h-24zM144 240h24v24h-24zM96 288h24v24h-24zM72 312h24v24h-24zM48 336h24v24h-24zM48 312h24v24h-24zM48 288h24v24h-24zM96 216h24v24h-24zM144 168h24v24h-24zM192 168h24v24h-24zM0 192h24v24h-24zM528 288h24v24h-24zM552 264h24v24h-24zM552 240h24v24h-24zM552 216h24v24h-24zM552 192h24v24h-24zM528 192h24v24h-24zM576 192h24v24h-24zM600 192h24v24h-24zM624 192h24v24h-24zM648 192h24v24h-24zM672 192h24v24h-24zM696 192h24v24h-24zM672 168h24v24h-24zM648 144h24v24h-24zM624 120h24v24h-24zM600 96h24v24h-24zM576 72h24v24h-24zM552 48h24v24h-24zM528 24h24v24h-24zM504 0h24v24h-24zM720 216h24v24h-24zM744 240h24v24h-24zM768 264h24v24h-24zM792 288h24v24h-24zM816 312h24v24h-24zM840 336h24v24h-24zM864 360h24v24h-24zM840 360h24v24h-24zM816 360h24v24h-24zM792 360h24v24h-24zM768 360h24v24h-24zM744 360h24v24h-24zM720 360h24v24h-24zM696 360h24v24h-24zM672 360h24v24h-24zM648 360h24v24h-24zM624 384h24v24h-24zM600 408h24v24h-24zM576 432h24v24h-24zM600 432h24v24h-24zM624 432h24v24h-24zM648 432h24v24h-24zM672 432h24v24h-24zM696 432h24v24h-24zM720 432h24v24h-24zM744 432h24v24h-24zM768 432h24v24h-24zM792 432h24v24h-24zM816 432h24v24h-24zM840 432h24v24h-24zM864 432h24v24h-24zM864 408h24v24h-24zM864 384h24v24h-24zM864 336h24v24h-24zM864 312h24v24h-24zM864 288h24v24h-24zM864 264h24v24h-24zM864 240h24v24h-24zM864 216h24v24h-24zM864 192h24v24h-24zM864 168h24v24h-24zM864 144h24v24h-24zM864 120h24v24h-24zM840 144h24v24h-24zM816 168h24v24h-24zM792 192h24v24h-24zM768 216h24v24h-24zM720 264h24v24h-24zM696 288h24v24h-24zM672 312h24v24h-24zM888 96h24v24h-24zM864 72h24v24h-24zM840 48h24v24h-24zM816 72h24v24h-24zM792 96h24v24h-24zM768 120h24v24h-24zM744 144h24v24h-24zM720 168h24v24h-24zM672 216h24v24h-24zM648 240h24v24h-24zM624 264h24v24h-24zM600 288h24v24h-24zM576 312h24v24h-24zM600 336h24v24h-24zM576 336h24v24h-24zM552 336h24v24h-24zM528 336h24v24h-24zM504 336h24v24h-24zM480 336h24v24h-24zM504 312h24v24h-24zM576 240h24v24h-24zM600 216h24v24h-24zM648 168h24v24h-24zM672 144h24v24h-24zM696 120h24v24h-24zM720 96h24v24h-24zM744 72h24v24h-24zM768 48h24v24h-24zM768 72h24v24h-24zM768 96h24v24h-24zM768 144h24v24h-24zM768 168h24v24h-24zM768 192h24v24h-24zM648 336h24v24h-24zM624 360h24v24h-24zM600 384h24v24h-24zM576 408h24v24h-24zM624 408h24v24h-24zM648 408h24v24h-24zM672 408h24v24h-24zM696 408h24v24h-24zM720 408h24v24h-24zM744 408h24v24h-24zM768 408h24v24h-24zM792 408h24v24h-24zM816 408h24v24h-24zM840 408h24v24h-24zM888 408h24v24h-24zM912 408h24v24h-24zM816 384h24v24h-24zM816 336h24v24h-24zM816 288h24v24h-24zM816 264h24v24h-24zM816 240h24v24h-24zM816 216h24v24h-24zM816 192h24v24h-24zM840 168h24v24h-24zM888 168h24v24h-24zM912 168h24v24h-24zM936 168h24v24h-24zM912 192h24v24h-24zM888 216h24v24h-24zM840 264h24v24h-24zM840 288h24v24h-24zM840 312h24v24h-24zM792 264h24v24h-24zM768 240h24v24h-24zM744 216h24v24h-24zM720 192h24v24h-24zM696 168h24v24h-24zM720 144h24v24h-24zM720 240h24v24h-24zM720 288h24v24h-24zM720 312h24v24h-24zM720 120h24v24h-24zM696 144h24v24h-24zM624 216h24v24h-24zM624 240h24v24h-24zM624 288h24v24h-24zM624 312h24v24h-24zM624 336h24v24h-24zM720 384h24v24h-24zM768 336h24v24h-24zM792 312h24v24h-24zM744 384h24v24h-24zM768 384h24v24h-24zM792 384h24v24h-24zM840 384h24v24h-24zM888 384h24v24h-24zM912 384h24v24h-24zM888 360h24v24h-24zM744 168h24v24h-24zM792 120h24v24h-24zM744 120h24v24h-24zM816 120h24v24h-24zM840 120h24v24h-24zM888 120h24v24h-24zM912 120h24v24h-24zM912 144h24v24h-24zM912 216h24v24h-24zM912 240h24v24h-24zM912 264h24v24h-24zM888 144h24v24h-24zM840 192h24v24h-24zM792 240h24v24h-24zM744 288h24v24h-24zM792 168h24v24h-24zM240 864h24v24h-24zM216 864h24v24h-24zM192 864h24v24h-24zM168 864h24v24h-24zM144 864h24v24h-24zM168 888h24v24h-24zM192 912h24v24h-24zM216 936h24v24h-24zM120 840h24v24h-24zM144 840h24v24h-24zM168 840h24v24h-24zM192 840h24v24h-24zM216 840h24v24h-24zM240 840h24v24h-24zM264 840h24v24h-24zM288 840h24v24h-24zM312 840h24v24h-24zM336 840h24v24h-24zM312 816h24v24h-24zM288 792h24v24h-24zM264 768h24v24h-24zM240 744h24v24h-24zM216 720h24v24h-24zM192 696h24v24h-24zM168 672h24v24h-24zM144 648h24v24h-24zM120 624h24v24h-24zM96 600h24v24h-24zM72 576h24v24h-24zM48 552h24v24h-24zM24 528h24v24h-24zM24 552h24v24h-24zM24 576h24v24h-24zM24 600h24v24h-24zM24 624h24v24h-24zM24 648h24v24h-24zM24 672h24v24h-24zM24 696h24v24h-24zM24 720h24v24h-24zM24 744h24v24h-24zM24 768h24v24h-24zM24 792h24v24h-24zM24 816h24v24h-24zM48 792h24v24h-24zM48 768h24v24h-24zM48 744h24v24h-24zM48 720h24v24h-24zM48 696h24v24h-24zM48 672h24v24h-24zM72 648h24v24h-24zM96 624h24v24h-24zM120 600h24v24h-24zM144 576h24v24h-24zM168 600h24v24h-24zM192 624h24v24h-24zM216 648h24v24h-24zM240 672h24v24h-24zM264 696h24v24h-24zM288 720h24v24h-24zM288 744h24v24h-24zM288 768h24v24h-24zM288 816h24v24h-24zM336 864h24v24h-24zM312 864h24v24h-24zM288 864h24v24h-24zM264 864h24v24h-24zM120 864h24v24h-24zM96 864h24v24h-24zM72 864h24v24h-24zM72 840h24v24h-24zM72 816h24v24h-24zM72 792h24v24h-24zM72 768h24v24h-24zM72 744h24v24h-24zM72 720h24v24h-24zM72 696h24v24h-24zM72 672h24v24h-24zM96 696h24v24h-24zM120 720h24v24h-24zM144 744h24v24h-24zM168 768h24v24h-24zM192 792h24v24h-24zM216 816h24v24h-24zM96 672h24v24h-24zM120 672h24v24h-24zM144 672h24v24h-24zM192 672h24v24h-24zM216 672h24v24h-24zM264 672h24v24h-24zM288 672h24v24h-24zM312 672h24v24h-24zM336 672h24v24h-24zM360 672h24v24h-24zM384 672h24v24h-24zM360 696h24v24h-24zM336 720h24v24h-24zM312 744h24v24h-24zM264 792h24v24h-24zM240 816h24v24h-24zM96 840h24v24h-24zM48 840h24v24h-24zM96 792h24v24h-24zM120 768h24v24h-24zM168 720h24v24h-24zM360 864h24v24h-24zM384 888h24v24h-24zM408 912h24v24h-24zM384 912h24v24h-24zM360 912h24v24h-24zM336 912h24v24h-24zM312 912h24v24h-24zM288 912h24v24h-24zM264 912h24v24h-24zM240 888h24v24h-24zM168 816h24v24h-24zM144 792h24v24h-24zM96 744h24v24h-24zM120 744h24v24h-24zM168 744h24v24h-24zM192 744h24v24h-24zM216 744h24v24h-24zM264 744h24v24h-24zM336 744h24v24h-24zM360 744h24v24h-24zM384 744h24v24h-24zM408 744h24v24h-24zM432 744h24v24h-24zM456 744h24v24h-24zM312 792h24v24h-24zM336 816h24v24h-24zM360 840h24v24h-24zM384 864h24v24h-24zM360 888h24v24h-24zM312 936h24v24h-24zM288 936h24v24h-24zM264 936h24v24h-24zM240 936h24v24h-24zM240 912h24v24h-24zM120 816h24v24h-24zM120 792h24v24h-24zM168 792h24v24h-24zM216 792h24v24h-24zM240 792h24v24h-24zM336 792h24v24h-24zM360 792h24v24h-24zM384 792h24v24h-24zM408 792h24v24h-24zM432 792h24v24h-24zM432 768h24v24h-24zM432 720h24v24h-24zM432 696h24v24h-24zM432 672h24v24h-24zM432 648h24v24h-24zM432 624h24v24h-24zM432 600h24v24h-24zM432 576h24v24h-24zM432 552h24v24h-24zM432 528h24v24h-24zM432 504h24v24h-24zM432 480h24v24h-24zM408 504h24v24h-24zM384 528h24v24h-24zM360 552h24v24h-24zM336 576h24v24h-24zM312 600h24v24h-24zM288 624h24v24h-24zM264 648h24v24h-24zM264 720h24v24h-24zM264 816h24v24h-24zM216 768h24v24h-24zM144 696h24v24h-24zM96 648h24v24h-24zM72 624h24v24h-24zM48 600h24v24h-24zM48 624h24v24h-24zM48 648h24v24h-24zM96 720h24v24h-24zM144 768h24v24h-24zM192 768h24v24h-24zM0 744h24v24h-24zM528 648h24v24h-24zM552 672h24v24h-24zM552 696h24v24h-24zM552 720h24v24h-24zM552 744h24v24h-24zM528 744h24v24h-24zM576 744h24v24h-24zM600 744h24v24h-24zM624 744h24v24h-24zM648 744h24v24h-24zM672 744h24v24h-24zM696 744h24v24h-24zM672 768h24v24h-24zM648 792h24v24h-24zM624 816h24v24h-24zM600 840h24v24h-24zM576 864h24v24h-24zM552 888h24v24h-24zM528 912h24v24h-24zM504 936h24v24h-24zM720 720h24v24h-24zM744 696h24v24h-24zM768 672h24v24h-24zM792 648h24v24h-24zM816 624h24v24h-24zM840 600h24v24h-24zM864 576h24v24h-24zM840 576h24v24h-24zM816 576h24v24h-24zM792 576h24v24h-24zM768 576h24v24h-24zM744 576h24v24h-24zM720 576h24v24h-24zM696 576h24v24h-24zM672 576h24v24h-24zM648 576h24v24h-24zM624 552h24v24h-24zM600 528h24v24h-24zM576 504h24v24h-24zM600 504h24v24h-24zM624 504h24v24h-24zM648 504h24v24h-24zM672 504h24v24h-24zM696 504h24v24h-24zM720 504h24v24h-24zM744 504h24v24h-24zM768 504h24v24h-24zM792 504h24v24h-24zM816 504h24v24h-24zM840 504h24v24h-24zM864 504h24v24h-24zM864 528h24v24h-24zM864 552h24v24h-24zM864 600h24v24h-24zM864 624h24v24h-24zM864 648h24v24h-24zM864 672h24v24h-24zM864 696h24v24h-24zM864 720h24v24h-24zM864 744h24v24h-24zM864 768h24v24h-24zM864 792h24v24h-24zM864 816h24v24h-24zM840 792h24v24h-24zM816 768h24v24h-24zM792 744h24v24h-24zM768 720h24v24h-24zM720 672h24v24h-24zM696 648h24v24h-24zM672 624h24v24h-24zM888 840h24v24h-24zM864 864h24v24h-24zM840 888h24v24h-24zM816 864h24v24h-24zM792 840h24v24h-24zM768 816h24v24h-24zM744 792h24v24h-24zM720 768h24v24h-24zM672 720h24v24h-24zM648 696h24v24h-24zM624 672h24v24h-24zM600 648h24v24h-24zM576 624h24v24h-24zM600 600h24v24h-24zM576 600h24v24h-24zM552 600h24v24h-24zM528 600h24v24h-24zM504 600h24v24h-24zM480 600h24v24h-24zM504 624h24v24h-24zM576 696h24v24h-24zM600 720h24v24h-24zM648 768h24v24h-24zM672 792h24v24h-24zM696 816h24v24h-24zM720 840h24v24h-24zM744 864h24v24h-24zM768 888h24v24h-24zM768 864h24v24h-24zM768 840h24v24h-24zM768 792h24v24h-24zM768 768h24v24h-24zM768 744h24v24h-24zM648 600h24v24h-24zM624 576h24v24h-24zM600 552h24v24h-24zM576 528h24v24h-24zM624 528h24v24h-24zM648 528h24v24h-24zM672 528h24v24h-24zM696 528h24v24h-24zM720 528h24v24h-24zM744 528h24v24h-24zM768 528h24v24h-24zM792 528h24v24h-24zM816 528h24v24h-24zM840 528h24v24h-24zM888 528h24v24h-24zM912 528h24v24h-24zM816 552h24v24h-24zM816 600h24v24h-24zM816 648h24v24h-24zM816 672h24v24h-24zM816 696h24v24h-24zM816 720h24v24h-24zM816 744h24v24h-24zM840 768h24v24h-24zM888 768h24v24h-24zM912 768h24v24h-24zM936 768h24v24h-24zM912 744h24v24h-24zM888 720h24v24h-24zM840 672h24v24h-24zM840 648h24v24h-24zM840 624h24v24h-24zM792 672h24v24h-24zM768 696h24v24h-24zM744 720h24v24h-24zM720 744h24v24h-24zM696 768h24v24h-24zM720 792h24v24h-24zM720 696h24v24h-24zM720 648h24v24h-24zM720 624h24v24h-24zM720 816h24v24h-24zM696 792h24v24h-24zM624 720h24v24h-24zM624 696h24v24h-24zM624 648h24v24h-24zM624 624h24v24h-24zM624 600h24v24h-24zM720 552h24v24h-24zM768 600h24v24h-24zM792 624h24v24h-24zM744 552h24v24h-24zM768 552h24v24h-24zM792 552h24v24h-24zM840 552h24v24h-24zM888 552h24v24h-24zM912 552h24v24h-24zM888 576h24v24h-24zM744 768h24v24h-24zM792 816h24v24h-24zM744 816h24v24h-24zM816 816h24v24h-24zM840 816h24v24h-24zM888 816h24v24h-24zM912 816h24v24h-24zM912 792h24v24h-24zM912 720h24v24h-24zM912 696h24v24h-24zM912 672h24v24h-24zM888 792h24v24h-24zM840 744h24v24h-24zM792 696h24v24h-24zM744 648h24v24h-24zM792 768h24v24h-24z"/></svg>