<svg xmlns="http://www.w3.org/2000/svg" width="960" height="960" viewBox="0 0 960 960" shape-rendering="crispEdges"><path fill="#fff" d="M0 0h960v960h-960z"/><path fill="#f8e66d" d="M0 24h24v24h-24zM0 72h24v24h-24zM0 120h24v24h-24zM0 168h24v24h-24zM0 216h24v24h-24zM0 264h24v24h-24zM0 312h24v24h-24zM0 360h24v24h-24zM0 408h24v24h-24zM0 456h24v24h-24zM0 504h24v24h-24zM0 552h24v24h-24zM0 600h24v24h-24zM0 648h24v24h-24zM0 696h24v24h-24zM0 744h24v24h-24zM0 792h24v24h-24zM0 840h24v24h-24zM0 888h24v24h-24zM0 936h24v24h-24zM24 0h24v24h-24zM24 24h24v24h-24zM24 48h24v24h-24zM24 72h24v24h-24zM24 96h24v24h-24zM24 120h24v24h-24zM24 144h24v24h-24zM24 168h24v24h-24zM24 192h24v24h-24zM24 216h24v24h-24zM24 240h24v24h-24zM24 264h24v24h-24zM24 288h24v24h-24zM24 312h24v24h-24zM24 336h24v24h-24zM24 360h24v24h-24zM24 384h24v24h-24zM24 408h24v24h-24zM24 432h24v24h-24zM24 456h24v24h-24zM24 480h24v24h-24zM24 504h24v24h-24zM24 528h24v24h-24zM24 552h24v24h-24zM24 576h24v24h-24zM24 600h24v24h-24zM24 624h24v24h-24zM24 648h24v24h-24zM24 672h24v24h-24zM24 696h24v24h-24zM24 720h24v24h-24zM24 744h24v24h-24zM24 768h24v24h-24zM24 792h24v24h-24zM24 816h24v24h-24zM24 840h24v24h-24zM24 864h24v24h-24zM24 888h24v24h-24zM24 912h24v24h-24zM24 936h24v24h-24zM48 24h24v24h-24zM48 72h24v24h-24zM48 120h24v24h-24zM48 168h24v24h-24zM48 216h24v24h-24zM48 264h24v24h-24zM48 312h24v24h-24zM48 360h24v24h-24zM48 408h24v24h-24zM48 456h24v24h-24zM48 504h24v24h-24zM48 552h24v24h-24zM48 600h24v24h-24zM48 648h24v24h-24zM48 696h24v24h-24zM48 744h24v24h-24zM48 792h24v24h-24zM48 840h24v24h-24zM48 888h24v24h-24zM48 936h24v24h-24zM72 0h24v24h-24zM72 24h24v24h-24zM72 48h24v24h-24zM72 72h24v24h-24zM72 96h24v24h-24zM72 120h24v24h-24zM72 144h24v24h-24zM72 168h24v24h-24zM72 192h24v24h-24zM72 216h24v24h-24zM72 240h24v24h-24zM72 264h24v24h-24zM72 288h24v24h-24zM72 312h24v24h-24zM72 336h24v24h-24zM72 360h24v24h-24zM72 384h24v24h-24zM72 408h24v24h-24zM72 432h24v24h-24zM72 456h24v24h-24zM72 480h24v24h-24zM72 504h24v24h-24zM72 528h24v24h-24zM72 552h24v24h-24zM72 576h24v24h-24zM72 600h24v24h-24zM72 624h24v24h-24zM72 648h24v24h-24zM72 672h24v24h-24zM72 696h24v24h-24zM72 720h24v24h-24zM72 744h24v24h-24zM72 768h24v24h-24zM72 792h24v24h-24zM72 816h24v24h-24zM72 840h24v24h-24zM72 864h24v24h-24zM72 888h24v24h-24zM72 912h24v24h-24zM72 936h24v24h-24zM96 24h24v24h-24zM96 72h24v24h-24zM96 120h24v24h-24zM96 168h24v24h-24zM96 216h24v24h-24zM96 264h24v24h-24zM96 312h24v24h-24zM96 360h24v24h-24zM96 408h24v24h-24zM96 456h24v24h-24zM96 504h24v24h-24zM96 552h24v24h-24zM96 600h24v24h-24zM96 648h24v24h-24zM96 696h24v24h-24zM96 744h24v24h-24zM96 792h24v24h-24zM96 840h24v24h-24zM96 888h24v24h-24zM96 936h24v24h-24zM120 0h24v24h-24zM120 24h24v24h-24zM120 48h24v24h-24zM120 72h24v24h-24zM120 96h24v24h-24zM120 120h24v24h-24zM120 144h24v24h-24zM120 168h24v24h-24zM120 192h24v24h-24zM120 216h24v24h-24zM120 240h24v24h-24zM120 264h24v24h-24zM120 288h24v24h-24zM120 312h24v24h-24zM120 336h24v24h-24zM120 360h24v24h-24zM120 384h24v24h-24zM120 408h24v24h-24zM120 432h24v24h-24zM120 456h24v24h-24zM120 480h24v24h-24zM120 504h24v24h-24zM120 528h24v24h-24zM120 552h24v24h-24zM120 576h24v24h-24zM120 600h24v24h-24zM120 624h24v24h-24zM120 648h24v24h-24zM120 672h24v24h-24zM120 696h24v24h-24zM120 720h24v24h-24zM120 744h24v24h-24zM120 768h24v24h-24zM120 792h24v24h-24zM120 816h24v24h-24zM120 840h24v24h-24zM120 864h24v24h-24zM120 888h24v24h-24zM120 912h24v24h-24zM120 936h24v24h-24zM144 24h24v24h-24zM144 72h24v24h-24zM144 120h24v24h-24zM144 168h24v24h-24zM144 216h24v24h-24zM144 264h24v24h-24zM144 312h24v24h-24zM144 360h24v24h-24zM144 408h24v24h-24zM144 456h24v24h-24zM144 504h24v24h-24zM144 552h24v24h-24zM144 600h24v24h-24zM144 648h24v24h-24zM144 696h24v24h-24zM144 744h24v24h-24zM144 792h24v24h-24zM144 840h24v24h-24zM144 888h24v24h-24zM144 936h24v24h-24zM168 0h24v24h-24zM168 24h24v24h-24zM168 48h24v24h-24zM168 72h24v24h-24zM168 96h24v24h-24zM168 120h24v24h-24zM168 144h24v24h-24zM168 168h24v24h-24zM168 192h24v24h-24zM168 216h24v24h-24zM168 240h24v24h-24zM168 264h24v24h-24zM168 288h24v24h-24zM168 312h24v24h-24zM168 336h24v24h-24zM168 360h24v24h-24zM168 384h24v24h-24zM168 408h24v24h-24zM168 432h24v24h-24zM168 456h24v24h-24zM168 480h24v24h-24zM168 504h24v24h-24zM168 528h24v24h-24zM168 552h24v24h-24zM168 576h24v24h-24zM168 600h24v24h-24zM168 624h24v24h-24zM168 648h24v24h-24zM168 672h24v24h-24zM168 696h24v24h-24zM168 720h24v24h-24zM168 744h24v24h-24zM168 768h24v24h-24zM168 792h24v24h-24zM168 816h24v24h-24zM168 840h24v24h-24zM168 864h24v24h-24zM168 888h24v24h-24zM168 912h24v24h-24zM168 936h24v24h-24zM192 24h24v24h-24zM192 72h24v24h-24zM192 120h24v24h-24zM192 168h24v24h-24zM192 216h24v24h-24zM192 264h24v24h-24zM192 312h24v24h-24zM192 360h24v24h-24zM192 408h24v24h-24zM192 456h24v24h-24zM192 504h24v24h-24zM192 552h24v24h-24zM192 600h24v24h-24zM192 648h24v24h-24zM192 696h24v24h-24zM192 744h24v24h-24zM192 792h24v24h-24zM192 840h24v24h-24zM192 888h24v24h-24zM192 936h24v24h-24zM216 0h24v24h-24zM216 24h24v24h-24zM216 48h24v24h-24zM216 72h24v24h-24zM216 96h24v24h-24zM216 120h24v24h-24zM216 144h24v24h-24zM216 168h24v24h-24zM216 192h24v24h-24zM216 216h24v24h-24zM216 240h24v24h-24zM216 264h24v24h-24zM216 288h24v24h-24zM216 312h24v24h-24zM216 336h24v24h-24zM216 360h24v24h-24zM216 384h24v24h-24zM216 408h24v24h-24zM216 432h24v24h-24zM216 456h24v24h-24zM216 480h24v24h-24zM216 504h24v24h-24zM216 528h24v24h-24zM216 552h24v24h-24zM216 576h24v24h-24zM216 600h24v24h-24zM216 624h24v24h-24zM216 648h24v24h-24zM216 672h24v24h-24zM216 696h24v24h-24zM216 720h24v24h-24zM216 744h24v24h-24zM216 768h24v24h-24zM216 792h24v24h-24zM216 816h24v24h-24zM216 840h24v24h-24zM216 864h24v24h-24zM216 888h24v24h-24zM216 912h24v24h-24zM216 936h24v24h-24zM240 24h24v24h-24zM240 72h24v24h-24zM240 120h24v24h-24zM240 168h24v24h-24zM240 216h24v24h-24zM240 264h24v24h-24zM240 312h24v24h-24zM240 360h24v24h-24zM240 408h24v24h-24zM240 456h24v24h-24zM240 504h24v24h-24zM240 552h24v24h-24zM240 600h24v24h-24zM240 648h24v24h-24zM240 696h24v24h-24zM240 744h24v24h-24zM240 792h24v24h-24zM240 840h24v24h-24zM240 888h24v24h-24zM240 936h24v24h-24zM264 0h24v24h-24zM264 24h24v24h-24zM264 48h24v24h-24zM264 72h24v24h-24zM264 96h24v24h-24zM264 120h24v24h-24zM264 144h24v24h-24zM264 168h24v24h-24zM264 192h24v24h-24zM264 216h24v24h-24zM264 240h24v24h-24zM264 264h24v24h-24zM264 288h24v24h-24zM264 312h24v24h-24zM264 336h24v24h-24zM264 360h24v24h-24zM264 384h24v24h-24zM264 408h24v24h-24zM264 432h24v24h-24zM264 456h24v24h-24zM264 480h24v24h-24zM264 504h24v24h-24zM264 528h24v24h-24zM264 552h24v24h-24zM264 576h24v24h-24zM264 600h24v24h-24zM264 624h24v24h-24zM264 648h24v24h-24zM264 672h24v24h-24zM264 696h24v24h-24zM264 720h24v24h-24zM264 744h24v24h-24zM264 768h24v24h-24zM264 792h24v24h-24zM264 816h24v24h-24zM264 840h24v24h-24zM264 864h24v24h-24zM264 888h24v24h-24zM264 912h24v24h-24zM264 936h24v24h-24zM288 24h24v24h-24zM288 72h24v24h-24zM288 120h24v24h-24zM288 168h24v24h-24zM288 216h24v24h-24zM288 264h24v24h-24zM288 312h24v24h-24zM288 360h24v24h-24zM288 408h24v24h-24zM288 456h24v24h-24zM288 504h24v24h-24zM288 552h24v24h-24zM288 600h24v24h-24zM288 648h24v24h-24zM288 696h24v24h-24zM288 744h24v24h-24zM288 792h24v24h-24zM288 840h24v24h-24zM288 888h24v24h-24zM288 936h24v24h-24zM312 0h24v24h-24zM312 24h24v24h-24zM312 48h24v24h-24zM312 72h24v24h-24zM312 96h24v24h-24zM312 120h24v24h-24zM312 144h24v24h-24zM312 168h24v24h-24zM312 192h24v24h-24zM312 216h24v24h-24zM312 240h24v24h-24zM312 264h24v24h-24zM312 288h24v24h-24zM312 312h24v24h-24zM312 336h24v24h-24zM312 360h24v24h-24zM312 384h24v24h-24zM312 408h24v24h-24zM312 432h24v24h-24zM312 456h24v24h-24zM312 480h24v24h-24zM312 504h24v24h-24zM312 528h24v24h-24zM312 552h24v24h-24zM312 576h24v24h-24zM312 600h24v24h-24zM312 624h24v24h-24zM312 648h24v24h-24zM312 672h24v24h-24zM312 696h24v24h-24zM312 720h24v24h-24zM312 744h24v24h-24zM312 768h24v24h-24zM312 792h24v24h-24zM312 816h24v24h-24zM312 840h24v24h-24zM312 864h24v24h-24zM312 888h24v24h-24zM312 912h24v24h-24zM312 936h24v24h-24zM336 24h24v24h-24zM336 72h24v24h-24zM336 120h24v24h-24zM336 168h24v24h-24zM336 216h24v24h-24zM336 264h24v24h-24zM336 312h24v24h-24zM336 360h24v24h-24zM336 408h24v24h-24zM336 456h24v24h-24zM336 504h24v24h-24zM336 552h24v24h-24zM336 600h24v24h-24zM336 648h24v24h-24zM336 696h24v24h-24zM336 744h24v24h-24zM336 792h24v24h-24zM336 840h24v24h-24zM336 888h24v24h-24zM336 936h24v24h-24zM360 0h24v24h-24zM360 24h24v24h-24zM360 48h24v24h-24zM360 72h24v24h-24zM360 96h24v24h-24zM360 120h24v24h-24zM360 144h24v24h-24zM360 168h24v24h-24zM360 192h24v24h-24zM360 216h24v24h-24zM360 240h24v24h-24zM360 264h24v24h-24zM360 288h24v24h-24zM360 312h24v24h-24zM360 336h24v24h-24zM360 360h24v24h-24zM360 384h24v24h-24zM360 408h24v24h-24zM360 432h24v24h-24zM360 456h24v24h-24zM360 480h24v24h-24zM360 504h24v24h-24zM360 528h24v24h-24zM360 552h24v24h-24zM360 576h24v24h-24zM360 600h24v24h-24zM360 624h24v24h-24zM360 648h24v24h-24zM360 672h24v24h-24zM360 696h24v24h-24zM360 720h24v24h-24zM360 744h24v24h-24zM360 768h24v24h-24zM360 792h24v24h-24zM360 816h24v24h-24zM360 840h24v24h-24zM360 864h24v24h-24zM360 888h24v24h-24zM360 912h24v24h-24zM360 936h24v24h-24zM384 24h24v24h-24zM384 72h24v24h-24zM384 120h24v24h-24zM384 168h24v24h-24zM384 216h24v24h-24zM384 264h24v24h-24zM384 312h24v24h-24zM384 360h24v24h-24zM384 408h24v24h-24zM384 456h24v24h-24zM384 504h24v24h-24zM384 552h24v24h-24zM384 600h24v24h-24zM384 648h24v24h-24zM384 696h24v24h-24zM384 744h24v24h-24zM384 792h24v24h-24zM384 840h24v24h-24zM384 888h24v24h-24zM384 936h24v24h-24zM408 0h24v24h-24zM408 24h24v24h-24zM408 48h24v24h-24zM408 72h24v24h-24zM408 96h24v24h-24zM408 120h24v24h-24zM408 144h24v24h-24zM408 168h24v24h-24zM408 192h24v24h-24zM408 216h24v24h-24zM408 240h24v24h-24zM408 264h24v24h-24zM408 288h24v24h-24zM408 312h24v24h-24zM408 336h24v24h-24zM408 360h24v24h-24zM408 384h24v24h-24zM408 408h24v24h-24zM408 432h24v24h-24zM408 456h24v24h-24zM408 480h24v24h-24zM408 504h24v24h-24zM408 528h24v24h-24zM408 552h24v24h-24zM408 576h24v24h-24zM408 600h24v24h-24zM408 624h24v24h-24zM408 648h24v24h-24zM408 672h24v24h-24zM408 696h24v24h-24zM408 720h24v24h-24zM408 744h24v24h-24zM408 768h24v24h-24zM408 792h24v24h-24zM408 816h24v24h-24zM408 840h24v24h-24zM408 864h24v24h-24zM408 888h24v24h-24zM408 912h24v24h-24zM408 936h24v24h-24zM432 24h24v24h-24zM432 72h24v24h-24zM432 120h24v24h-24zM432 168h24v24h-24zM432 216h24v24h-24zM432 264h24v24h-24zM432 312h24v24h-24zM432 360h24v24h-24zM432 408h24v24h-24zM432 456h24v24h-24zM432 504h24v24h-24zM432 552h24v24h-24zM432 600h24v24h-24zM432 648h24v24h-24zM432 696h24v24h-24zM432 744h24v24h-24zM432 792h24v24h-24zM432 840h24v24h-24zM432 888h24v24h-24zM432 936h24v24h-24zM456 0h24v24h-24zM456 24h24v24h-24zM456 48h24v24h-24zM456 72h24v24h-24zM456 96h24v24h-24zM456 120h24v24h-24zM456 144h24v24h-24zM456 168h24v24h-24zM456 192h24v24h-24zM456 216h24v24h-24zM456 240h24v24h-24zM456 264h24v24h-24zM456 288h24v24h-24zM456 312h24v24h-24zM456 336h24v24h-24zM456 360h24v24h-24zM456 384h24v24h-24zM456 408h24v24h-24zM456 432h24v24h-24zM456 456h24v24h-24zM456 480h24v24h-24zM456 504h24v24h-24zM456 528h24v24h-24zM456 552h24v24h-24zM456 576h24v24h-24zM456 600h24v24h-24zM456 624h24v24h-24zM456 648h24v24h-24zM456 672h24v24h-24zM456 696h24v24h-24zM456 720h24v24h-24zM456 744h24v24h-24zM456 768h24v24h-24zM456 792h24v24h-24zM456 816h24v24h-24zM456 840h24v24h-24zM456 864h24v24h-24zM456 888h24v24h-24zM456 912h24v24h-24zM456 936h24v24h-24zM480 24h24v24h-24zM480 72h24v24h-24zM480 120h24v24h-24zM480 168h24v24h-24zM480 216h24v24h-24zM480 264h24v24h-24zM480 312h24v24h-24zM480 360h24v24h-24zM480 408h24v24h-24zM480 456h24v24h-24zM480 504h24v24h-24zM480 552h24v24h-24zM480 600h24v24h-24zM480 648h24v24h-24zM480 696h24v24h-24zM480 744h24v24h-24zM480 792h24v24h-24zM480 840h24v24h-24zM480 888h24v24h-24zM480 936h24v24h-24zM504 0h24v24h-24zM504 24h24v24h-24zM504 48h24v24h-24zM504 72h24v24h-24zM504 96h24v24h-24zM504 120h24v24h-24zM504 144h24v24h-24zM504 168h24v24h-24zM504 192h24v24h-24zM504 216h24v24h-24zM504 240h24v24h-24zM504 264h24v24h-24zM504 288h24v24h-24zM504 312h24v24h-24zM504 336h24v24h-24zM504 360h24v24h-24zM504 384h24v24h-24zM504 408h24v24h-24zM504 432h24v24h-24zM504 456h24v24h-24zM504 480h24v24h-24zM504 504h24v24h-24zM504 528h24v24h-24zM504 552h24v24h-24zM504 576h24v24h-24zM504 600h24v24h-24zM504 624h24v24h-24zM504 648h24v24h-24zM504 672h24v24h-24zM504 696h24v24h-24zM504 720h24v24h-24zM504 744h24v24h-24zM504 768h24v24h-24zM504 792h24v24h-24zM504 816h24v24h-24zM504 840h24v24h-24zM504 864h24v24h-24zM504 888h24v24h-24zM504 912h24v24h-24zM504 936h24v24h-24zM528 24h24v24h-24zM528 72h24v24h-24zM528 120h24v24h-24zM528 168h24v24h-24zM528 216h24v24h-24zM528 264h24v24h-24zM528 312h24v24h-24zM528 360h24v24h-24zM528 408h24v24h-24zM528 456h24v24h-24zM528 504h24v24h-24zM528 552h24v24h-24zM528 600h24v24h-24zM528 648h24v24h-24zM528 696h24v24h-24zM528 744h24v24h-24zM528 792h24v24h-24zM528 840h24v24h-24zM528 888h24v24h-24zM528 936h24v24h-24zM552 0h24v24h-24zM552 24h24v24h-24zM552 48h24v24h-24zM552 72h24v24h-24zM552 96h24v24h-24zM552 120h24v24h-24zM552 144h24v24h-24zM552 168h24v24h-24zM552 192h24v24h-24zM552 216h24v24h-24zM552 240h24v24h-24zM552 264h24v24h-24zM552 288h24v24h-24zM552 312h24v24h-24zM552 336h24v24h-24zM552 360h24v24h-24zM552 384h24v24h-24zM552 408h24v24h-24zM552 432h24v24h-24zM552 456h24v24h-24zM552 480h24v24h-24zM552 504h24v24h-24zM552 528h24v24h-24zM552 552h24v24h-24zM552 576h24v24h-24zM552 600h24v24h-24zM552 624h24v24h-24zM552 648h24v24h-24zM552 672h24v24h-24zM552 696h24v24h-24zM552 720h24v24h-24zM552 744h24v24h-24zM552 768h24v24h-24zM552 792h24v24h-24zM552 816h24v24h-24zM552 840h24v24h-24zM552 864h24v24h-24zM552 888h24v24h-24zM552 912h24v24h-24zM552 936h24v24h-24zM576 24h24v24h-24zM576 72h24v24h-24zM576 120h24v24h-24zM576 168h24v24h-24zM576 216h24v24h-24zM576 264h24v24h-24zM576 312h24v24h-24zM576 360h24v24h-24zM576 408h24v24h-24zM576 456h24v24h-24zM576 504h24v24h-24zM576 552h24v24h-24zM576 600h24v24h-24zM576 648h24v24h-24zM576 696h24v24h-24zM576 744h24v24h-24zM576 792h24v24h-24zM576 840h24v24h-24zM576 888h24v24h-24zM576 936h24v24h-24zM600 0h24v24h-24zM600 24h24v24h-24zM600 48h24v24h-24zM600 72h24v24h-24zM600 96h24v24h-24zM600 120h24v24h-24zM600 144h24v24h-24zM600 168h24v24h-24zM600 192h24v24h-24zM600 216h24v24h-24zM600 240h24v24h-24zM600 264h24v24h-24zM600 288h24v24h-24zM600 312h24v24h-24zM600 336h24v24h-24zM600 360h24v24h-24zM600 384h24v24h-24zM600 408h24v24h-24zM600 432h24v24h-24zM600 456h24v24h-24zM600 480h24v24h-24zM600 504h24v24h-24zM600 528h24v24h-24zM600 552h24v24h-24zM600 576h24v24h-24zM600 600h24v24h-24zM600 624h24v24h-24zM600 648h24v24h-24zM600 672h24v24h-24zM600 696h24v24h-24zM600 720h24v24h-24zM600 744h24v24h-24zM600 768h24v24h-24zM600 792h24v24h-24zM600 816h24v24h-24zM600 840h24v24h-24zM600 864h24v24h-24zM600 888h24v24h-24zM600 912h24v24h-24zM600 936h24v24h-24zM624 24h24v24h-24zM624 72h24v24h-24zM624 120h24v24h-24zM624 168h24v24h-24zM624 216h24v24h-24zM624 264h24v24h-24zM624 312h24v24h-24zM624 360h24v24h-24zM624 408h24v24h-24zM624 456h24v24h-24zM624 504h24v24h-24zM624 552h24v24h-24zM624 600h24v24h-24zM624 648h24v24h-24zM624 696h24v24h-24zM624 744h24v24h-24zM624 792h24v24h-24zM624 840h24v24h-24zM624 888h24v24h-24zM624 936h24v24h-24zM648 0h24v24h-24zM648 24h24v24h-24zM648 48h24v24h-24zM648 72h24v24h-24zM648 96h24v24h-24zM648 120h24v24h-24zM648 144h24v24h-24zM648 168h24v24h-24zM648 192h24v24h-24zM648 216h24v24h-24zM648 240h24v24h-24zM648 264h24v24h-24zM648 288h24v24h-24zM648 312h24v24h-24zM648 336h24v24h-24zM648 360h24v24h-24zM648 384h24v24h-24zM648 408h24v24h-24zM648 432h24v24h-24zM648 456h24v24h-24zM648 480h24v24h-24zM648 504h24v24h-24zM648 528h24v24h-24zM648 552h24v24h-24zM648 576h24v24h-24zM648 600h24v24h-24zM648 624h24v24h-24zM648 648h24v24h-24zM648 672h24v24h-24zM648 696h24v24h-24zM648 720h24v24h-24zM648 744h24v24h-24zM648 768h24v24h-24zM648 792h24v24h-24zM648 816h24v24h-24zM648 840h24v24h-24zM648 864h24v24h-24zM648 888h24v24h-24zM648 912h24v24h-24zM648 936h24v24h-24zM672 24h24v24h-24zM672 72h24v24h-24zM672 120h24v24h-24zM672 168h24v24h-24zM672 216h24v24h-24zM672 264h24v24h-24zM672 312h24v24h-24zM672 360h24v24h-24zM672 408h24v24h-24zM672 456h24v24h-24zM672 504h24v24h-24zM672 552h24v24h-24zM672 600h24v24h-24zM672 648h24v24h-24zM672 696h24v24h-24zM672 744h24v24h-24zM672 792h24v24h-24zM672 840h24v24h-24zM672 888h24v24h-24zM672 936h24v24h-24zM696 0h24v24h-24zM696 24h24v24h-24zM696 48h24v24h-24zM696 72h24v24h-24zM696 96h24v24h-24zM696 120h24v24h-24zM696 144h24v24h-24zM696 168h24v24h-24zM696 192h24v24h-24zM696 216h24v24h-24zM696 240h24v24h-24zM696 264h24v24h-24zM696 288h24v24h-24zM696 312h24v24h-24zM696 336h24v24h-24zM696 360h24v24h-24zM696 384h24v24h-24zM696 408h24v24h-24zM696 432h24v24h-24zM696 456h24v24h-24zM696 480h24v24h-24zM696 504h24v24h-24zM696 528h24v24h-24zM696 552h24v24h-24zM696 576h24v24h-24zM696 600h24v24h-24zM696 624h24v24h-24zM696 648h24v24h-24zM696 672h24v24h-24zM696 696h24v24h-24zM696 720h24v24h-24zM696 744h24v24h-24zM696 768h24v24h-24zM696 792h24v24h-24zM696 816h24v24h-24zM696 840h24v24h-24zM696 864h24v24h-24zM696 888h24v24h-24zM696 912h24v24h-24zM696 936h24v24h-24zM720 24h24v24h-24zM720 72h24v24h-24zM720 120h24v24h-24zM720 168h24v24h-24zM720 216h24v24h-24zM720 264h24v24h-24zM720 312h24v24h-24zM720 360h24v24h-24zM720 408h24v24h-24zM720 456h24v24h-24zM720 504h24v24h-24zM720 552h24v24h-24zM720 600h24v24h-24zM720 648h24v24h-24zM720 696h24v24h-24zM720 744h24v24h-24zM720 792h24v24h-24zM720 840h24v24h-24zM720 888h24v24h-24zM720 936h24v24h-24zM744 0h24v24h-24zM744 24h24v24h-24zM744 48h24v24h-24zM744 72h24v24h-24zM744 96h24v24h-24zM744 120h24v24h-24zM744 144h24v24h-24zM744 168h24v24h-24zM744 192h24v24h-24zM744 216h24v24h-24zM744 240h24v24h-24zM744 264h24v24h-24zM744 288h24v24h-24zM744 312h24v24h-24zM744 336h24v24h-24zM744 360h24v24h-24zM744 384h24v24h-24zM744 408h24v24h-24zM744 432h24v24h-24zM744 456h24v24h-24zM744 480h24v24h-24zM744 504h24v24h-24zM744 528h24v24h-24zM744 552h24v24h-24zM744 576h24v24h-24zM744 600h24v24h-24zM744 624h24v24h-24zM744 648h24v24h-24zM744 672h24v24h-24zM744 696h24v24h-24zM744 720h24v24h-24zM744 744h24v24h-24zM744 768h24v24h-24zM744 792h24v24h-24zM744 816h24v24h-24zM744 840h24v24h-24zM744 864h24v24h-24zM744 888h24v24h-24zM744 912h24v24h-24zM744 936h24v24h-24zM768 24h24v24h-24zM768 72h24v24h-24zM768 120h24v24h-24zM768 168h24v24h-24zM768 216h24v24h-24zM768 264h24v24h-24zM768 312h24v24h-24zM768 360h24v24h-24zM768 408h24v24h-24zM768 456h24v24h-24zM768 504h24v24h-24zM768 552h24v24h-24zM768 600h24v24h-24zM768 648h24v24h-24zM768 696h24v24h-24zM768 744h24v24h-24zM768 792h24v24h-24zM768 840h24v24h-24zM768 888h24v24h-24zM768 936h24v24h-24zM792 0h24v24h-24zM792 24h24v24h-24zM792 48h24v24h-24zM792 72h24v24h-24zM792 96h24v24h-24zM792 120h24v24h-24zM792 144h24v24h-24zM792 168h24v24h-24zM792 192h24v24h-24zM792 216h24v24h-24zM792 240h24v24h-24zM792 264h24v24h-24zM792 288h24v24h-24zM792 312h24v24h-24zM792 336h24v24h-24zM792 360h24v24h-24zM792 384h24v24h-24zM792 408h24v24h-24zM792 432h24v24h-24zM792 456h24v24h-24zM792 480h24v24h-24zM792 504h24v24h-24zM792 528h24v24h-24zM792 552h24v24h-24zM792 576h24v24h-24zM792 600h24v24h-24zM792 624h24v24h-24zM792 648h24v24h-24zM792 672h24v24h-24zM792 696h24v24h-24zM792 720h24v24h-24zM792 744h24v24h-24zM792 768h24v24h-24zM792 792h24v24h-24zM792 816h24v24h-24zM792 840h24v24h-24zM792 864h24v24h-24zM792 888h24v24h-24zM792 912h24v24h-24zM792 936h24v24h-24zM816 24h24v24h-24zM816 72h24v24h-24zM816 120h24v24h-24zM816 168h24v24h-24zM816 216h24v24h-24zM816 264h24v24h-24zM816 312h24v24h-24zM816 360h24v24h-24zM816 408h24v24h-24zM816 456h24v24h-24zM816 504h24v24h-24zM816 552h24v24h-24zM816 600h24v24h-24zM816 648h24v24h-24zM816 696h24v24h-24zM816 744h24v24h-24zM816 792h24v24h-24zM816 840h24v24h-24zM816 888h24v24h-24zM816 936h24v24h-24zM840 0h24v24h-24zM840 24h24v24h-24zM840 48h24v24h-24zM840 72h24v24h-24zM840 96h24v24h-24zM840 120h24v24h-24zM840 144h24v24h-24zM840 168h24v24h-24zM840 192h24v24h-24zM840 216h24v24h-24zM840 240h24v24h-24zM840 264h24v24h-24zM840 288h24v24h-24zM840 312h24v24h-24zM840 336h24v24h-24zM840 360h24v24h-24zM840 384h24v24h-24zM840 408h24v24h-24zM840 432h24v24h-24zM840 456h24v24h-24zM840 480h24v24h-24zM840 504h24v24h-24zM840 528h24v24h-24zM840 552h24v24h-24zM840 576h24v24h-24zM840 600h24v24h-24zM840 624h24v24h-24zM840 648h24v24h-24zM840 672h24v24h-24zM840 696h24v24h-24zM840 720h24v24h-24zM840 744h24v24h-24zM840 768h24v24h-24zM840 792h24v24h-24zM840 816h24v24h-24zM840 840h24v24h-24zM840 864h24v24h-24zM840 888h24v24h-24zM840 912h24v24h-24zM840 936h24v24h-24zM864 24h24v24h-24zM864 72h24v24h-24zM864 120h24v24h-24zM864 168h24v24h-24zM864 216h24v24h-24zM864 264h24v24h-24zM864 312h24v24h-24zM864 360h24v24h-24zM864 408h24v24h-24zM864 456h24v24h-24zM864 504h24v24h-24zM864 552h24v24h-24zM864 600h24v24h-24zM864 648h24v24h-24zM864 696h24v24h-24zM864 744h24v24h-24zM864 792h24v24h-24zM864 840h24v24h-24zM864 888h24v24h-24zM864 936h24v24h-24zM888 0h24v24h-24zM888 24h24v24h-24zM888 48h24v24h-24zM888 72h24v24h-24zM888 96h24v24h-24zM888 120h24v24h-24zM888 144h24v24h-24zM888 168h24v24h-24zM888 192h24v24h-24zM888 216h24v24h-24zM888 240h24v24h-24zM888 264h24v24h-24zM888 288h24v24h-24zM888 312h24v24h-24zM888 336h24v24h-24zM888 360h24v24h-24zM888 384h24v24h-24zM888 408h24v24h-24zM888 432h24v24h-24zM888 456h24v24h-24zM888 480h24v24h-24zM888 504h24v24h-24zM888 528h24v24h-24zM888 552h24v24h-24zM888 576h24v24h-24zM888 600h24v24h-24zM888 624h24v24h-24zM888 648h24v24h-24zM888 672h24v24h-24zM888 696h24v24h-24zM888 720h24v24h-24zM888 744h24v24h-24zM888 768h24v24h-24zM888 792h24v24h-24zM888 816h24v24h-24zM888 840h24v24h-24zM888 864h24v24h-24zM888 888h24v24h-24zM888 912h24v24h-24zM888 936h24v24h-24zM912 24h24v24h-24zM912 72h24v24h-24zM912 120h24v24h-24zM912 168h24v24h-24zM912 216h24v24h-24zM912 264h24v24h-24zM912 312h24v24h-24zM912 360h24v24h-24zM912 408h24v24h-24zM912 456h24v24h-24zM912 504h24v24h-24zM912 552h24v24h-24zM912 600h24v24h-24zM912 648h24v24h-24zM912 696h24v24h-24zM912 744h24v24h-24zM912 792h24v24h-24zM912 840h24v24h-24zM912 888h24v24h-24zM912 936h24v24h-24zM936 0h24v24h-24zM936 24h24v24h-24zM936 48h24v24h-24zM936 72h24v24h-24zM936 96h24v24h-24zM936 120h24v24h-24zM936 144h24v24h-24zM936 168h24v24h-24zM936 192h24v24h-24zM936 216h24v24h-24zM936 240h24v24h-24zM936 264h24v24h-24zM936 288h24v24h-24zM936 312h24v24h-24zM936 336h24v24h-24zM936 360h24v24h-24zM936 384h24v24h-24zM936 408h24v24h-24zM936 432h24v24h-24zM936 456h24v24h-24zM936 480h24v24h-24zM936 504h24v24h-24zM936 528h24v24h-24zM936 552h24v24h-24zM936 576h24v24h-24zM936 600h24v24h-24zM936 624h24v24h-24zM936 648h24v24h-24zM936 672h24v24h-24zM936 696h24v24h-24zM936 720h24v24h-24zM936 744h24v24h-24zM936 768h24v24h-24zM936 792h24v24h-24zM936 816h24v24h-24zM936 840h24v24h-24zM936 864h24v24h-24zM936 888h24v24h-24zM936 912h24v24h-24zM936 936h24v24h-24z"/><path fill="#3b5e55" d="M0 0h24v24h-24zM24 24h24v24h-24zM0 48h24v24h-24zM48 48h24v24h-24zM0 72h24v24h-24zM24 72h24v24h-24zM72 72h24v24h-24zM96 24h24v24h-24zM168 24h24v24h-24zM96 48h24v24h-24zM168 48h24v24h-24zM240 0h24v24h-24zM216 24h24v24h-24zM264 24h24v24h-24zM192 48h24v24h-24zM240 48h24v24h-24zM216 72h24v24h-24zM312 0h24v24h-24zM360 0h24v24h-24zM288 24h24v24h-24zM312 24h24v24h-24zM336 48h24v24h-24zM360 48h24v24h-24zM288 72h24v24h-24zM336 72h24v24h-24zM432 0h24v24h-24zM456 0h24v24h-24zM432 24h24v24h-24zM456 24h24v24h-24zM384 48h24v24h-24zM408 48h24v24h-24zM384 72h24v24h-24zM408 72h24v24h-24zM576 0h24v24h-24zM648 0h24v24h-24zM600 24h24v24h-24zM624 24h24v24h-24zM600 48h24v24h-24zM624 48h24v24h-24zM576 72h24v24h-24zM648 72h24v24h-24zM792 0h24v24h-24zM840 0h24v24h-24zM816 24h24v24h-24zM816 48h24v24h-24zM792 72h24v24h-24zM840 72h24v24h-24zM0 96h24v24h-24zM72 96h24v24h-24zM24 120h24v24h-24zM24 144h24v24h-24zM48 144h24v24h-24zM0 168h24v24h-24zM72 168h24v24h-24zM96 96h24v24h-24zM144 96h24v24h-24zM168 120h24v24h-24zM96 144h24v24h-24zM120 168h24v24h-24zM168 168h24v24h-24zM264 240h24v24h-24zM216 96h24v24h-24zM240 96h24v24h-24zM216 120h24v24h-24zM264 120h24v24h-24zM192 144h24v24h-24zM240 144h24v24h-24zM216 168h24v24h-24zM240 168h24v24h-24zM288 120h24v24h-24zM360 120h24v24h-24zM288 144h24v24h-24zM312 144h24v24h-24zM384 96h24v24h-24zM456 96h24v24h-24zM408 120h24v24h-24zM432 144h24v24h-24zM384 168h24v24h-24zM456 168h24v24h-24zM0 192h24v24h-24zM48 192h24v24h-24zM48 216h24v24h-24zM72 216h24v24h-24zM0 240h24v24h-24zM24 240h24v24h-24zM24 264h24v24h-24zM72 264h24v24h-24zM120 192h24v24h-24zM168 192h24v24h-24zM144 216h24v24h-24zM144 240h24v24h-24zM120 264h24v24h-24zM168 264h24v24h-24zM216 192h24v24h-24zM264 192h24v24h-24zM192 216h24v24h-24zM216 216h24v24h-24zM240 240h24v24h-24zM264 240h24v24h-24zM192 264h24v24h-24zM240 264h24v24h-24zM288 192h24v24h-24zM360 192h24v24h-24zM312 216h24v24h-24zM336 240h24v24h-24zM288 264h24v24h-24zM360 264h24v24h-24zM384 192h24v24h-24zM456 192h24v24h-24zM408 240h24v24h-24zM432 240h24v24h-24zM384 264h24v24h-24zM456 264h24v24h-24zM576 216h24v24h-24zM648 216h24v24h-24zM576 240h24v24h-24zM648 240h24v24h-24zM768 192h24v24h-24zM840 192h24v24h-24zM816 216h24v24h-24zM792 240h24v24h-24zM768 264h24v24h-24zM840 264h24v24h-24zM48 288h24v24h-24zM24 312h24v24h-24zM72 312h24v24h-24zM0 336h24v24h-24zM48 336h24v24h-24zM24 360h24v24h-24zM168 432h24v24h-24zM120 288h24v24h-24zM144 288h24v24h-24zM120 312h24v24h-24zM168 312h24v24h-24zM96 336h24v24h-24zM144 336h24v24h-24zM120 360h24v24h-24zM144 360h24v24h-24zM216 312h24v24h-24zM240 312h24v24h-24zM216 336h24v24h-24zM240 336h24v24h-24zM336 288h24v24h-24zM288 312h24v24h-24zM312 312h24v24h-24zM360 312h24v24h-24zM288 336h24v24h-24zM336 336h24v24h-24zM360 336h24v24h-24zM312 360h24v24h-24zM408 288h24v24h-24zM384 312h24v24h-24zM432 312h24v24h-24zM408 336h24v24h-24zM456 336h24v24h-24zM432 360h24v24h-24zM24 384h24v24h-24zM48 384h24v24h-24zM48 408h24v24h-24zM24 456h24v24h-24zM168 528h24v24h-24zM120 384h24v24h-24zM144 384h24v24h-24zM120 408h24v24h-24zM168 408h24v24h-24zM96 432h24v24h-24zM144 432h24v24h-24zM120 456h24v24h-24zM144 456h24v24h-24zM192 384h24v24h-24zM216 384h24v24h-24zM264 384h24v24h-24zM192 408h24v24h-24zM240 408h24v24h-24zM216 432h24v24h-24zM192 456h24v24h-24zM360 384h24v24h-24zM336 408h24v24h-24zM312 432h24v24h-24zM360 432h24v24h-24zM288 456h24v24h-24zM336 456h24v24h-24zM360 456h24v24h-24zM384 384h24v24h-24zM456 384h24v24h-24zM408 408h24v24h-24zM432 408h24v24h-24zM384 432h24v24h-24zM456 432h24v24h-24zM576 384h24v24h-24zM648 384h24v24h-24zM600 408h24v24h-24zM624 408h24v24h-24zM624 432h24v24h-24zM576 456h24v24h-24zM648 456h24v24h-24zM792 384h24v24h-24zM768 408h24v24h-24zM816 408h24v24h-24zM840 408h24v24h-24zM768 432h24v24h-24zM792 432h24v24h-24zM840 432h24v24h-24zM816 456h24v24h-24zM72 480h24v24h-24zM72 504h24v24h-24zM0 528h24v24h-24zM0 552h24v24h-24zM144 480h24v24h-24zM120 504h24v24h-24zM168 504h24v24h-24zM96 528h24v24h-24zM144 528h24v24h-24zM120 552h24v24h-24zM240 480h24v24h-24zM264 480h24v24h-24zM240 504h24v24h-24zM264 504h24v24h-24zM192 528h24v24h-24zM216 528h24v24h-24zM192 552h24v24h-24zM216 552h24v24h-24zM312 480h24v24h-24zM288 504h24v24h-24zM336 504h24v24h-24zM360 504h24v24h-24zM288 528h24v24h-24zM312 528h24v24h-24zM360 528h24v24h-24zM336 552h24v24h-24zM384 480h24v24h-24zM408 504h24v24h-24zM432 528h24v24h-24zM456 552h24v24h-24zM0 576h24v24h-24zM24 576h24v24h-24zM72 576h24v24h-24zM0 600h24v24h-24zM48 600h24v24h-24zM24 624h24v24h-24zM0 648h24v24h-24zM144 576h24v24h-24zM144 600h24v24h-24zM168 600h24v24h-24zM96 624h24v24h-24zM120 624h24v24h-24zM120 648h24v24h-24zM216 576h24v24h-24zM264 576h24v24h-24zM240 600h24v24h-24zM240 624h24v24h-24zM216 648h24v24h-24zM264 648h24v24h-24zM312 576h24v24h-24zM288 600h24v24h-24zM336 600h24v24h-24zM360 600h24v24h-24zM288 624h24v24h-24zM312 624h24v24h-24zM360 624h24v24h-24zM336 648h24v24h-24zM408 576h24v24h-24zM456 576h24v24h-24zM384 600h24v24h-24zM456 624h24v24h-24zM384 648h24v24h-24zM432 648h24v24h-24zM576 576h24v24h-24zM648 576h24v24h-24zM576 648h24v24h-24zM648 648h24v24h-24zM792 576h24v24h-24zM768 600h24v24h-24zM816 600h24v24h-24zM792 624h24v24h-24zM840 624h24v24h-24zM816 648h24v24h-24zM72 672h24v24h-24zM72 696h24v24h-24zM0 720h24v24h-24zM0 744h24v24h-24zM144 672h24v24h-24zM168 672h24v24h-24zM144 696h24v24h-24zM168 696h24v24h-24zM96 720h24v24h-24zM120 720h24v24h-24zM96 744h24v24h-24zM120 744h24v24h-24zM264 672h24v24h-24zM264 696h24v24h-24zM192 720h24v24h-24zM192 744h24v24h-24zM288 672h24v24h-24zM312 672h24v24h-24zM336 744h24v24h-24zM360 744h24v24h-24zM408 672h24v24h-24zM456 672h24v24h-24zM384 696h24v24h-24zM408 696h24v24h-24zM432 720h24v24h-24zM456 720h24v24h-24zM384 744h24v24h-24zM432 744h24v24h-24zM0 768h24v24h-24zM48 768h24v24h-24zM72 792h24v24h-24zM0 816h24v24h-24zM24 840h24v24h-24zM72 840h24v24h-24zM96 792h24v24h-24zM168 792h24v24h-24zM96 816h24v24h-24zM120 816h24v24h-24zM216 768h24v24h-24zM264 768h24v24h-24zM192 792h24v24h-24zM216 792h24v24h-24zM240 816h24v24h-24zM264 816h24v24h-24zM192 840h24v24h-24zM240 840h24v24h-24zM336 768h24v24h-24zM360 768h24v24h-24zM288 840h24v24h-24zM312 840h24v24h-24zM384 768h24v24h-24zM456 768h24v24h-24zM408 792h24v24h-24zM432 792h24v24h-24zM384 840h24v24h-24zM456 840h24v24h-24zM576 768h24v24h-24zM624 768h24v24h-24zM600 792h24v24h-24zM648 792h24v24h-24zM576 816h24v24h-24zM624 816h24v24h-24zM600 840h24v24h-24zM648 840h24v24h-24zM792 768h24v24h-24zM840 768h24v24h-24zM768 792h24v24h-24zM792 792h24v24h-24zM816 816h24v24h-24zM840 816h24v24h-24zM768 840h24v24h-24zM816 840h24v24h-24zM72 1008h24v24h-24zM24 864h24v24h-24zM48 864h24v24h-24zM24 888h24v24h-24zM72 888h24v24h-24zM0 912h24v24h-24zM48 912h24v24h-24zM24 936h24v24h-24zM48 936h24v24h-24zM96 888h24v24h-24zM168 888h24v24h-24zM96 912h24v24h-24zM120 912h24v24h-24zM192 864h24v24h-24zM216 864h24v24h-24zM264 864h24v24h-24zM192 888h24v24h-24zM240 888h24v24h-24zM216 912h24v24h-24zM192 936h24v24h-24zM288 864h24v24h-24zM360 864h24v24h-24zM312 888h24v24h-24zM336 888h24v24h-24zM312 912h24v24h-24zM288 936h24v24h-24zM360 936h24v24h-24zM408 864h24v24h-24zM456 864h24v24h-24zM432 888h24v24h-24zM432 912h24v24h-24zM408 936h24v24h-24zM456 936h24v24h-24zM888 576h24v24h-24zM864 600h24v24h-24zM912 600h24v24h-24zM888 624h24v24h-24zM936 624h24v24h-24zM912 648h24v24h-24zM672 120h24v24h-24zM744 120h24v24h-24zM672 144h24v24h-24zM744 144h24v24h-24zM696 384h24v24h-24zM672 408h24v24h-24zM720 408h24v24h-24zM744 408h24v24h-24zM672 432h24v24h-24zM696 432h24v24h-24zM744 432h24v24h-24zM720 456h24v24h-24zM888 96h24v24h-24zM936 96h24v24h-24zM912 120h24v24h-24zM912 144h24v24h-24zM888 168h24v24h-24zM936 168h24v24h-24zM504 384h24v24h-24zM480 408h24v24h-24zM528 408h24v24h-24zM504 432h24v24h-24zM552 432h24v24h-24zM528 456h24v24h-24zM792 672h24v24h-24zM768 696h24v24h-24zM816 696h24v24h-24zM792 720h24v24h-24zM840 720h24v24h-24zM816 744h24v24h-24zM480 768h24v24h-24zM552 768h24v24h-24zM504 792h24v24h-24zM528 792h24v24h-24zM480 840h24v24h-24zM552 840h24v24h-24zM504 864h24v24h-24zM552 864h24v24h-24zM528 888h24v24h-24zM528 912h24v24h-24zM504 936h24v24h-24zM552 936h24v24h-24z"/><path fill="#000" d="M168 432h24v24h-24zM168 408h24v24h-24zM168 384h24v24h-24zM192 384h24v24h-24zM216 384h24v24h-24zM240 384h24v24h-24zM264 384h24v24h-24zM288 384h24v24h-24zM312 384h24v24h-24zM336 384h24v24h-24zM360 384h24v24h-24zM384 384h24v24h-24zM360 360h24v24h-24zM336 336h24v24h-24zM312 312h24v24h-24zM288 288h24v24h-24zM264 264h24v24h-24zM240 240h24v24h-24zM216 216h24v24h-24zM192 192h24v24h-24zM168 168h24v24h-24zM168 192h24v24h-24zM168 216h24v24h-24zM168 240h24v24h-24zM168 264h24v24h-24zM168 288h24v24h-24zM168 312h24v24h-24zM168 336h24v24h-24zM168 360h24v24h-24zM192 360h24v24h-24zM192 336h24v24h-24zM192 312h24v24h-24zM192 288h24v24h-24zM192 264h24v24h-24zM192 240h24v24h-24zM192 216h24v24h-24zM192 168h24v24h-24zM192 144h24v24h-24zM192 120h24v24h-24zM192 96h24v24h-24zM216 96h24v24h-24zM240 96h24v24h-24zM264 96h24v24h-24zM288 96h24v24h-24zM288 120h24v24h-24zM288 144h24v24h-24zM288 168h24v24h-24zM288 192h24v24h-24zM288 216h24v24h-24zM288 240h24v24h-24zM288 264h24v24h-24zM288 312h24v24h-24zM288 336h24v24h-24zM288 360h24v24h-24zM288 408h24v24h-24zM288 432h24v24h-24zM288 456h24v24h-24zM312 432h24v24h-24zM336 408h24v24h-24zM144 384h24v24h-24zM120 384h24v24h-24zM96 384h24v24h-24zM72 384h24v24h-24zM48 384h24v24h-24zM24 384h24v24h-24zM0 384h24v24h-24zM24 360h24v24h-24zM48 336h24v24h-24zM48 312h24v24h-24zM48 288h24v24h-24zM48 264h24v24h-24zM48 240h24v24h-24zM48 216h24v24h-24zM48 192h24v24h-24zM48 168h24v24h-24zM48 144h24v24h-24zM48 120h24v24h-24zM48 96h24v24h-24zM72 144h24v24h-24zM96 168h24v24h-24zM120 192h24v24h-24zM144 216h24v24h-24zM216 288h24v24h-24zM240 312h24v24h-24zM264 336h24v24h-24zM360 432h24v24h-24zM312 360h24v24h-24zM312 336h24v24h-24zM312 288h24v24h-24zM312 264h24v24h-24zM312 240h24v24h-24zM312 216h24v24h-24zM312 192h24v24h-24zM312 168h24v24h-24zM312 144h24v24h-24zM312 120h24v24h-24zM312 96h24v24h-24zM312 72h24v24h-24zM312 48h24v24h-24zM312 24h24v24h-24zM312 0h24v24h-24zM336 24h24v24h-24zM360 48h24v24h-24zM384 48h24v24h-24zM408 48h24v24h-24zM408 72h24v24h-24zM408 96h24v24h-24zM408 120h24v24h-24zM408 144h24v24h-24zM408 168h24v24h-24zM408 192h24v24h-24zM408 216h24v24h-24zM408 240h24v24h-24zM408 264h24v24h-24zM408 288h24v24h-24zM408 312h24v24h-24zM408 336h24v24h-24zM408 360h24v24h-24zM408 384h24v24h-24zM408 408h24v24h-24zM288 72h24v24h-24zM288 48h24v24h-24zM288 24h24v24h-24zM264 48h24v24h-24zM240 72h24v24h-24zM168 144h24v24h-24zM144 168h24v24h-24zM96 216h24v24h-24zM72 192h24v24h-24zM72 168h24v24h-24zM72 120h24v24h-24zM72 96h24v24h-24zM96 96h24v24h-24zM120 96h24v24h-24zM144 96h24v24h-24zM168 96h24v24h-24zM336 96h24v24h-24zM360 96h24v24h-24zM384 96h24v24h-24zM408 432h24v24h-24zM384 408h24v24h-24zM336 360h24v24h-24zM264 288h24v24h-24zM240 264h24v24h-24zM216 240h24v24h-24zM120 144h24v24h-24zM96 120h24v24h-24zM48 72h24v24h-24zM24 48h24v24h-24zM48 24h24v24h-24zM72 0h24v24h-24zM96 24h24v24h-24zM120 48h24v24h-24zM144 72h24v24h-24zM216 144h24v24h-24zM240 168h24v24h-24zM216 192h24v24h-24zM216 168h24v24h-24zM120 240h24v24h-24zM120 168h24v24h-24zM264 168h24v24h-24zM336 240h24v24h-24zM360 264h24v24h-24zM384 288h24v24h-24zM240 144h24v24h-24zM216 120h24v24h-24zM168 72h24v24h-24zM144 48h24v24h-24zM120 24h24v24h-24zM96 0h24v24h-24zM168 504h24v24h-24zM168 528h24v24h-24zM168 552h24v24h-24zM192 552h24v24h-24zM216 552h24v24h-24zM240 552h24v24h-24zM264 552h24v24h-24zM288 552h24v24h-24zM312 552h24v24h-24zM336 552h24v24h-24zM360 552h24v24h-24zM384 552h24v24h-24zM360 576h24v24h-24zM336 600h24v24h-24zM312 624h24v24h-24zM288 648h24v24h-24zM264 672h24v24h-24zM240 696h24v24h-24zM216 720h24v24h-24zM192 744h24v24h-24zM168 768h24v24h-24zM168 744h24v24h-24zM168 720h24v24h-24zM168 696h24v24h-24zM168 672h24v24h-24zM168 648h24v24h-24zM168 624h24v24h-24zM168 600h24v24h-24zM168 576h24v24h-24zM192 576h24v24h-24zM192 600h24v24h-24zM192 624h24v24h-24zM192 648h24v24h-24zM192 672h24v24h-24zM192 696h24v24h-24zM192 720h24v24h-24zM192 768h24v24h-24zM192 792h24v24h-24zM192 816h24v24h-24zM192 840h24v24h-24zM216 840h24v24h-24zM240 840h24v24h-24zM264 840h24v24h-24zM288 840h24v24h-24zM288 816h24v24h-24zM288 792h24v24h-24zM288 768h24v24h-24zM288 744h24v24h-24zM288 720h24v24h-24zM288 696h24v24h-24zM288 672h24v24h-24zM288 624h24v24h-24zM288 600h24v24h-24zM288 576h24v24h-24zM288 528h24v24h-24zM288 504h24v24h-24zM288 480h24v24h-24zM312 504h24v24h-24zM336 528h24v24h-24zM144 552h24v24h-24zM120 552h24v24h-24zM96 552h24v24h-24zM72 552h24v24h-24zM48 552h24v24h-24zM24 552h24v24h-24zM0 552h24v24h-24zM24 576h24v24h-24zM48 600h24v24h-24zM48 624h24v24h-24zM48 648h24v24h-24zM48 672h24v24h-24zM48 696h24v24h-24zM48 720h24v24h-24zM48 744h24v24h-24zM48 768h24v24h-24zM48 792h24v24h-24zM48 816h24v24h-24zM48 840h24v24h-24zM72 792h24v24h-24zM96 768h24v24h-24zM120 744h24v24h-24zM144 720h24v24h-24zM216 648h24v24h-24zM240 624h24v24h-24zM264 600h24v24h-24zM360 504h24v24h-24zM312 576h24v24h-24zM312 600h24v24h-24zM312 648h24v24h-24zM312 672h24v24h-24zM312 696h24v24h-24zM312 720h24v24h-24zM312 744h24v24h-24zM312 768h24v24h-24zM312 792h24v24h-24zM312 816h24v24h-24zM312 840h24v24h-24zM312 864h24v24h-24zM312 888h24v24h-24zM312 912h24v24h-24zM312 936h24v24h-24zM336 912h24v24h-24zM360 888h24v24h-24zM384 888h24v24h-24zM408 888h24v24h-24zM408 864h24v24h-24zM408 840h24v24h-24zM408 816h24v24h-24zM408 792h24v24h-24zM408 768h24v24h-24zM408 744h24v24h-24zM408 720h24v24h-24zM408 696h24v24h-24zM408 672h24v24h-24zM408 648h24v24h-24zM408 624h24v24h-24zM408 600h24v24h-24zM408 576h24v24h-24zM408 552h24v24h-24zM408 528h24v24h-24zM288 864h24v24h-24zM288 888h24v24h-24zM288 912h24v24h-24zM264 888h24v24h-24zM240 864h24v24h-24zM168 792h24v24h-24zM144 768h24v24h-24zM96 720h24v24h-24zM72 744h24v24h-24zM72 768h24v24h-24zM72 816h24v24h-24zM72 840h24v24h-24zM96 840h24v24h-24zM120 840h24v24h-24zM144 840h24v24h-24zM168 840h24v24h-24zM336 840h24v24h-24zM360 840h24v24h-24zM384 840h24v24h-24zM408 504h24v24h-24zM384 528h24v24h-24zM336 576h24v24h-24zM264 648h24v24h-24zM240 672h24v24h-24zM216 696h24v24h-24zM120 792h24v24h-24zM96 816h24v24h-24zM48 864h24v24h-24zM24 888h24v24h-24zM48 912h24v24h-24zM72 936h24v24h-24zM96 912h24v24h-24zM120 888h24v24h-24zM144 864h24v24h-24zM216 792h24v24h-24zM240 768h24v24h-24zM216 744h24v24h-24zM216 768h24v24h-24zM120 696h24v24h-24zM120 768h24v24h-24zM264 768h24v24h-24zM336 696h24v24h-24zM360 672h24v24h-24zM384 648h24v24h-24zM240 792h24v24h-24zM216 816h24v24h-24zM168 864h24v24h-24zM144 888h24v24h-24zM120 912h24v24h-24zM96 936h24v24h-24zM768 432h24v24h-24zM768 408h24v24h-24zM768 384h24v24h-24zM744 384h24v24h-24zM720 384h24v24h-24zM696 384h24v24h-24zM672 384h24v24h-24zM648 384h24v24h-24zM624 384h24v24h-24zM600 384h24v24h-24zM576 384h24v24h-24zM552 384h24v24h-24zM576 360h24v24h-24zM600 336h24v24h-24zM624 312h24v24h-24zM648 288h24v24h-24zM672 264h24v24h-24zM696 240h24v24h-24zM720 216h24v24h-24zM744 192h24v24h-24zM768 168h24v24h-24zM768 192h24v24h-24zM768 216h24v24h-24zM768 240h24v24h-24zM768 264h24v24h-24zM768 288h24v24h-24zM768 312h24v24h-24zM768 336h24v24h-24zM768 360h24v24h-24zM744 360h24v24h-24zM744 336h24v24h-24zM744 312h24v24h-24zM744 288h24v24h-24zM744 264h24v24h-24zM744 240h24v24h-24zM744 216h24v24h-24zM744 168h24v24h-24zM744 144h24v24h-24zM744 120h24v24h-24zM744 96h24v24h-24zM720 96h24v24h-24zM696 96h24v24h-24zM672 96h24v24h-24zM648 96h24v24h-24zM648 120h24v24h-24zM648 144h24v24h-24zM648 168h24v24h-24zM648 192h24v24h-24zM648 216h24v24h-24zM648 240h24v24h-24zM648 264h24v24h-24zM648 312h24v24h-24zM648 336h24v24h-24zM648 360h24v24h-24zM648 408h24v24h-24zM648 432h24v24h-24zM648 456h24v24h-24zM624 432h24v24h-24zM600 408h24v24h-24zM792 384h24v24h-24zM816 384h24v24h-24zM840 384h24v24h-24zM864 384h24v24h-24zM888 384h24v24h-24zM912 384h24v24h-24zM936 384h24v24h-24zM912 360h24v24h-24zM888 336h24v24h-24zM888 312h24v24h-24zM888 288h24v24h-24zM888 264h24v24h-24zM888 240h24v24h-24zM888 216h24v24h-24zM888 192h24v24h-24zM888 168h24v24h-24zM888 144h24v24h-24zM888 120h24v24h-24zM888 96h24v24h-24zM864 144h24v24h-24zM840 168h24v24h-24zM816 192h24v24h-24zM792 216h24v24h-24zM720 288h24v24h-24zM696 312h24v24h-24zM672 336h24v24h-24zM576 432h24v24h-24zM624 360h24v24h-24zM624 336h24v24h-24zM624 288h24v24h-24zM624 264h24v24h-24zM624 240h24v24h-24zM624 216h24v24h-24zM624 192h24v24h-24zM624 168h24v24h-24zM624 144h24v24h-24zM624 120h24v24h-24zM624 96h24v24h-24zM624 72h24v24h-24zM624 48h24v24h-24zM624 24h24v24h-24zM624 0h24v24h-24zM600 24h24v24h-24zM576 48h24v24h-24zM552 48h24v24h-24zM528 48h24v24h-24zM528 72h24v24h-24zM528 96h24v24h-24zM528 120h24v24h-24zM528 144h24v24h-24zM528 168h24v24h-24zM528 192h24v24h-24zM528 216h24v24h-24zM528 240h24v24h-24zM528 264h24v24h-24zM528 288h24v24h-24zM528 312h24v24h-24zM528 336h24v24h-24zM528 360h24v24h-24zM528 384h24v24h-24zM528 408h24v24h-24zM648 72h24v24h-24zM648 48h24v24h-24zM648 24h24v24h-24zM672 48h24v24h-24zM696 72h24v24h-24zM768 144h24v24h-24zM792 168h24v24h-24zM840 216h24v24h-24zM864 192h24v24h-24zM864 168h24v24h-24zM864 120h24v24h-24zM864 96h24v24h-24zM840 96h24v24h-24zM816 96h24v24h-24zM792 96h24v24h-24zM768 96h24v24h-24zM600 96h24v24h-24zM576 96h24v24h-24zM552 96h24v24h-24zM528 432h24v24h-24zM552 408h24v24h-24zM600 360h24v24h-24zM672 288h24v24h-24zM696 264h24v24h-24zM720 240h24v24h-24zM816 144h24v24h-24zM840 120h24v24h-24zM888 72h24v24h-24zM912 48h24v24h-24zM888 24h24v24h-24zM864 0h24v24h-24zM840 24h24v24h-24zM816 48h24v24h-24zM792 72h24v24h-24zM720 144h24v24h-24zM696 168h24v24h-24zM720 192h24v24h-24zM720 168h24v24h-24zM816 240h24v24h-24zM816 168h24v24h-24zM672 168h24v24h-24zM600 240h24v24h-24zM576 264h24v24h-24zM552 288h24v24h-24zM696 144h24v24h-24zM720 120h24v24h-24zM768 72h24v24h-24zM792 48h24v24h-24zM816 24h24v24h-24zM840 0h24v24h-24zM768 504h24v24h-24zM768 528h24v24h-24zM768 552h24v24h-24zM744 552h24v24h-24zM720 552h24v24h-24zM696 552h24v24h-24zM672 552h24v24h-24zM648 552h24v24h-24zM624 552h24v24h-24zM600 552h24v24h-24zM576 552h24v24h-24zM552 552h24v24h-24zM576 576h24v24h-24zM600 600h24v24h-24zM624 624h24v24h-24zM648 648h24v24h-24zM672 672h24v24h-24zM696 696h24v24h-24zM720 720h24v24h-24zM744 744h24v24h-24zM768 768h24v24h-24zM768 744h24v24h-24zM768 720h24v24h-24zM768 696h24v24h-24zM768 672h24v24h-24zM768 648h24v24h-24zM768 624h24v24h-24zM768 600h24v24h-24zM768 576h24v24h-24zM744 576h24v24h-24zM744 600h24v24h-24zM744 624h24v24h-24zM744 648h24v24h-24zM744 672h24v24h-24zM744 696h24v24h-24zM744 720h24v24h-24zM744 768h24v24h-24zM744 792h24v24h-24zM744 816h24v24h-24zM744 840h24v24h-24zM720 840h24v24h-24zM696 840h24v24h-24zM672 840h24v24h-24zM648 840h24v24h-24zM648 816h24v24h-24zM648 792h24v24h-24zM648 768h24v24h-24zM648 744h24v24h-24zM648 720h24v24h-24zM648 696h24v24h-24zM648 672h24v24h-24zM648 624h24v24h-24zM648 600h24v24h-24zM648 576h24v24h-24zM648 528h24v24h-24zM648 504h24v24h-24zM648 480h24v24h-24zM624 504h24v24h-24zM600 528h24v24h-24zM792 552h24v24h-24zM816 552h24v24h-24zM840 552h24v24h-24zM864 552h24v24h-24zM888 552h24v24h-24zM912 552h24v24h-24zM936 552h24v24h-24zM912 576h24v24h-24zM888 600h24v24h-24zM888 624h24v24h-24zM888 648h24v24h-24zM888 672h24v24h-24zM888 696h24v24h-24zM888 720h24v24h-24zM888 744h24v24h-24zM888 768h24v24h-24zM888 792h24v24h-24zM888 816h24v24h-24zM888 840h24v24h-24zM864 792h24v24h-24zM840 768h24v24h-24zM816 744h24v24h-24zM792 720h24v24h-24zM720 648h24v24h-24zM696 624h24v24h-24zM672 600h24v24h-24zM576 504h24v24h-24zM624 576h24v24h-24zM624 600h24v24h-24zM624 648h24v24h-24zM624 672h24v24h-24zM624 696h24v24h-24zM624 720h24v24h-24zM624 744h24v24h-24zM624 768h24v24h-24zM624 792h24v24h-24zM624 816h24v24h-24zM624 840h24v24h-24zM624 864h24v24h-24zM624 888h24v24h-24zM624 912h24v24h-24zM624 936h24v24h-24zM600 912h24v24h-24zM576 888h24v24h-24zM552 888h24v24h-24zM528 888h24v24h-24zM528 864h24v24h-24zM528 840h24v24h-24zM528 816h24v24h-24zM528 792h24v24h-24zM528 768h24v24h-24zM528 744h24v24h-24zM528 720h24v24h-24zM528 696h24v24h-24zM528 672h24v24h-24zM528 648h24v24h-24zM528 624h24v24h-24zM528 600h24v24h-24zM528 576h24v24h-24zM528 552h24v24h-24zM528 528h24v24h-24zM648 864h24v24h-24zM648 888h24v24h-24zM648 912h24v24h-24zM672 888h24v24h-24zM696 864h24v24h-24zM768 792h24v24h-24zM792 768h24v24h-24zM840 720h24v24h-24zM864 744h24v24h-24zM864 768h24v24h-24zM864 816h24v24h-24zM864 840h24v24h-24zM840 840h24v24h-24zM816 840h24v24h-24zM792 840h24v24h-24zM768 840h24v24h-24zM600 840h24v24h-24zM576 840h24v24h-24zM552 840h24v24h-24zM528 504h24v24h-24zM552 528h24v24h-24zM600 576h24v24h-24zM672 648h24v24h-24zM696 672h24v24h-24zM720 696h24v24h-24zM816 792h24v24h-24zM840 816h24v24h-24zM888 864h24v24h-24zM912 888h24v24h-24zM888 912h24v24h-24zM864 936h24v24h-24zM840 912h24v24h-24zM816 888h24v24h-24zM792 864h24v24h-24zM720 792h24v24h-24zM696 768h24v24h-24zM720 744h24v24h-24zM720 768h24v24h-24zM816 696h24v24h-24zM816 768h24v24h-24zM672 768h24v24h-24zM600 696h24v24h-24zM576 672h24v24h-24zM552 648h24v24h-24zM696 792h24v24h-24zM720 816h24v24h-24zM768 864h24v24h-24zM792 888h24v24h-24zM816 912h24v24h-24zM840 936h24v24h-24z"/></svg>