<svg xmlns="http://www.w3.org/2000/svg" width="960" height="960" viewBox="0 0 960 960" shape-rendering="crispEdges"><path fill="#fff" d="M0 0h960v960h-960z"/><path fill="#60949a" d="M0 492h12v12h-12zM0 540h12v12h-12zM0 588h12v12h-12zM0 636h12v12h-12zM0 684h12v12h-12zM0 732h12v12h-12zM0 780h12v12h-12zM0 828h12v12h-12zM0 876h12v12h-12zM0 924h12v12h-12zM12 492h12v12h-12zM12 540h12v12h-12zM12 588h12v12h-12zM12 636h12v12h-12zM12 684h12v12h-12zM12 732h12v12h-12zM12 780h12v12h-12zM12 828h12v12h-12zM12 876h12v12h-12zM12 924h12v12h-12zM24 492h12v12h-12zM24 540h12v12h-12zM24 588h12v12h-12zM24 636h12v12h-12zM24 684h12v12h-12zM24 732h12v12h-12zM24 780h12v12h-12zM24 828h12v12h-12zM24 876h12v12h-12zM24 924h12v12h-12zM36 492h12v12h-12zM36 540h12v12h-12zM36 588h12v12h-12zM36 636h12v12h-12zM36 684h12v12h-12zM36 732h12v12h-12zM36 780h12v12h-12zM36 828h12v12h-12zM36 876h12v12h-12zM36 924h12v12h-12zM48 492h12v12h-12zM48 540h12v12h-12zM48 588h12v12h-12zM48 636h12v12h-12zM48 684h12v12h-12zM48 732h12v12h-12zM48 780h12v12h-12zM48 828h12v12h-12zM48 876h12v12h-12zM48 924h12v12h-12zM60 492h12v12h-12zM60 540h12v12h-12zM60 588h12v12h-12zM60 636h12v12h-12zM60 684h12v12h-12zM60 732h12v12h-12zM60 780h12v12h-12zM60 828h12v12h-12zM60 876h12v12h-12zM60 924h12v12h-12zM72 492h12v12h-12zM72 540h12v12h-12zM72 588h12v12h-12zM72 636h12v12h-12zM72 684h12v12h-12zM72 732h12v12h-12zM72 780h12v12h-12zM72 828h12v12h-12zM72 876h12v12h-12zM72 924h12v12h-12zM84 492h12v12h-12zM84 540h12v12h-12zM84 588h12v12h-12zM84 636h12v12h-12zM84 684h12v12h-12zM84 732h12v12h-12zM84 780h12v12h-12zM84 828h12v12h-12zM84 876h12v12h-12zM84 924h12v12h-12zM96 492h12v12h-12zM96 540h12v12h-12zM96 588h12v12h-12zM96 636h12v12h-12zM96 684h12v12h-12zM96 732h12v12h-12zM96 780h12v12h-12zM96 828h12v12h-12zM96 876h12v12h-12zM96 924h12v12h-12zM108 492h12v12h-12zM108 540h12v12h-12zM108 588h12v12h-12zM108 636h12v12h-12zM108 684h12v12h-12zM108 732h12v12h-12zM108 780h12v12h-12zM108 828h12v12h-12zM108 876h12v12h-12zM108 924h12v12h-12zM120 492h12v12h-12zM120 540h12v12h-12zM120 588h12v12h-12zM120 636h12v12h-12zM120 684h12v12h-12zM120 732h12v12h-12zM120 780h12v12h-12zM120 828h12v12h-12zM120 876h12v12h-12zM120 924h12v12h-12zM132 492h12v12h-12zM132 540h12v12h-12zM132 588h12v12h-12zM132 636h12v12h-12zM132 684h12v12h-12zM132 732h12v12h-12zM132 780h12v12h-12zM132 828h12v12h-12zM132 876h12v12h-12zM132 924h12v12h-12zM144 492h12v12h-12zM144 540h12v12h-12zM144 588h12v12h-12zM144 636h12v12h-12zM144 684h12v12h-12zM144 732h12v12h-12zM144 780h12v12h-12zM144 828h12v12h-12zM144 876h12v12h-12zM144 924h12v12h-12zM156 492h12v12h-12zM156 540h12v12h-12zM156 588h12v12h-12zM156 636h12v12h-12zM156 684h12v12h-12zM156 732h12v12h-12zM156 780h12v12h-12zM156 828h12v12h-12zM156 876h12v12h-12zM156 924h12v12h-12zM168 492h12v12h-12zM168 540h12v12h-12zM168 588h12v12h-12zM168 636h12v12h-12zM168 684h12v12h-12zM168 732h12v12h-12zM168 780h12v12h-12zM168 828h12v12h-12zM168 876h12v12h-12zM168 924h12v12h-12zM180 492h12v12h-12zM180 540h12v12h-12zM180 588h12v12h-12zM180 636h12v12h-12zM180 684h12v12h-12zM180 732h12v12h-12zM180 780h12v12h-12zM180 828h12v12h-12zM180 876h12v12h-12zM180 924h12v12h-12zM192 492h12v12h-12zM192 540h12v12h-12zM192 588h12v12h-12zM192 636h12v12h-12zM192 684h12v12h-12zM192 732h12v12h-12zM192 780h12v12h-12zM192 828h12v12h-12zM192 876h12v12h-12zM192 924h12v12h-12zM204 492h12v12h-12zM204 540h12v12h-12zM204 588h12v12h-12zM204 636h12v12h-12zM204 684h12v12h-12zM204 732h12v12h-12zM204 780h12v12h-12zM204 828h12v12h-12zM204 876h12v12h-12zM204 924h12v12h-12zM216 492h12v12h-12zM216 540h12v12h-12zM216 588h12v12h-12zM216 636h12v12h-12zM216 684h12v12h-12zM216 732h12v12h-12zM216 780h12v12h-12zM216 828h12v12h-12zM216 876h12v12h-12zM216 924h12v12h-12zM228 492h12v12h-12zM228 540h12v12h-12zM228 588h12v12h-12zM228 636h12v12h-12zM228 684h12v12h-12zM228 732h12v12h-12zM228 780h12v12h-12zM228 828h12v12h-12zM228 876h12v12h-12zM228 924h12v12h-12zM240 492h12v12h-12zM240 540h12v12h-12zM240 588h12v12h-12zM240 636h12v12h-12zM240 684h12v12h-12zM240 732h12v12h-12zM240 780h12v12h-12zM240 828h12v12h-12zM240 876h12v12h-12zM240 924h12v12h-12zM252 492h12v12h-12zM252 540h12v12h-12zM252 588h12v12h-12zM252 636h12v12h-12zM252 684h12v12h-12zM252 732h12v12h-12zM252 780h12v12h-12zM252 828h12v12h-12zM252 876h12v12h-12zM252 924h12v12h-12zM264 492h12v12h-12zM264 540h12v12h-12zM264 588h12v12h-12zM264 636h12v12h-12zM264 684h12v12h-12zM264 732h12v12h-12zM264 780h12v12h-12zM264 828h12v12h-12zM264 876h12v12h-12zM264 924h12v12h-12zM276 492h12v12h-12zM276 540h12v12h-12zM276 588h12v12h-12zM276 636h12v12h-12zM276 684h12v12h-12zM276 732h12v12h-12zM276 780h12v12h-12zM276 828h12v12h-12zM276 876h12v12h-12zM276 924h12v12h-12zM288 492h12v12h-12zM288 540h12v12h-12zM288 588h12v12h-12zM288 636h12v12h-12zM288 684h12v12h-12zM288 732h12v12h-12zM288 780h12v12h-12zM288 828h12v12h-12zM288 876h12v12h-12zM288 924h12v12h-12zM300 492h12v12h-12zM300 540h12v12h-12zM300 588h12v12h-12zM300 636h12v12h-12zM300 684h12v12h-12zM300 732h12v12h-12zM300 780h12v12h-12zM300 828h12v12h-12zM300 876h12v12h-12zM300 924h12v12h-12zM312 492h12v12h-12zM312 540h12v12h-12zM312 588h12v12h-12zM312 636h12v12h-12zM312 684h12v12h-12zM312 732h12v12h-12zM312 780h12v12h-12zM312 828h12v12h-12zM312 876h12v12h-12zM312 924h12v12h-12zM324 492h12v12h-12zM324 540h12v12h-12zM324 588h12v12h-12zM324 636h12v12h-12zM324 684h12v12h-12zM324 732h12v12h-12zM324 780h12v12h-12zM324 828h12v12h-12zM324 876h12v12h-12zM324 924h12v12h-12zM336 492h12v12h-12zM336 540h12v12h-12zM336 588h12v12h-12zM336 636h12v12h-12zM336 684h12v12h-12zM336 732h12v12h-12zM336 780h12v12h-12zM336 828h12v12h-12zM336 876h12v12h-12zM336 924h12v12h-12zM348 492h12v12h-12zM348 540h12v12h-12zM348 588h12v12h-12zM348 636h12v12h-12zM348 684h12v12h-12zM348 732h12v12h-12zM348 780h12v12h-12zM348 828h12v12h-12zM348 876h12v12h-12zM348 924h12v12h-12zM360 492h12v12h-12zM360 540h12v12h-12zM360 588h12v12h-12zM360 636h12v12h-12zM360 684h12v12h-12zM360 732h12v12h-12zM360 780h12v12h-12zM360 828h12v12h-12zM360 876h12v12h-12zM360 924h12v12h-12zM372 492h12v12h-12zM372 540h12v12h-12zM372 588h12v12h-12zM372 636h12v12h-12zM372 684h12v12h-12zM372 732h12v12h-12zM372 780h12v12h-12zM372 828h12v12h-12zM372 876h12v12h-12zM372 924h12v12h-12zM384 492h12v12h-12zM384 540h12v12h-12zM384 588h12v12h-12zM384 636h12v12h-12zM384 684h12v12h-12zM384 732h12v12h-12zM384 780h12v12h-12zM384 828h12v12h-12zM384 876h12v12h-12zM384 924h12v12h-12zM396 492h12v12h-12zM396 540h12v12h-12zM396 588h12v12h-12zM396 636h12v12h-12zM396 684h12v12h-12zM396 732h12v12h-12zM396 780h12v12h-12zM396 828h12v12h-12zM396 876h12v12h-12zM396 924h12v12h-12zM408 492h12v12h-12zM408 540h12v12h-12zM408 588h12v12h-12zM408 636h12v12h-12zM408 684h12v12h-12zM408 732h12v12h-12zM408 780h12v12h-12zM408 828h12v12h-12zM408 876h12v12h-12zM408 924h12v12h-12zM420 492h12v12h-12zM420 540h12v12h-12zM420 588h12v12h-12zM420 636h12v12h-12zM420 684h12v12h-12zM420 732h12v12h-12zM420 780h12v12h-12zM420 828h12v12h-12zM420 876h12v12h-12zM420 924h12v12h-12zM432 492h12v12h-12zM432 540h12v12h-12zM432 588h12v12h-12zM432 636h12v12h-12zM432 684h12v12h-12zM432 732h12v12h-12zM432 780h12v12h-12zM432 828h12v12h-12zM432 876h12v12h-12zM432 924h12v12h-12zM444 492h12v12h-12zM444 540h12v12h-12zM444 588h12v12h-12zM444 636h12v12h-12zM444 684h12v12h-12zM444 732h12v12h-12zM444 780h12v12h-12zM444 828h12v12h-12zM444 876h12v12h-12zM444 924h12v12h-12zM456 492h12v12h-12zM456 540h12v12h-12zM456 588h12v12h-12zM456 636h12v12h-12zM456 684h12v12h-12zM456 732h12v12h-12zM456 780h12v12h-12zM456 828h12v12h-12zM456 876h12v12h-12zM456 924h12v12h-12zM468 492h12v12h-12zM468 540h12v12h-12zM468 588h12v12h-12zM468 636h12v12h-12zM468 684h12v12h-12zM468 732h12v12h-12zM468 780h12v12h-12zM468 828h12v12h-12zM468 876h12v12h-12zM468 924h12v12h-12zM480 492h12v12h-12zM480 540h12v12h-12zM480 588h12v12h-12zM480 636h12v12h-12zM480 684h12v12h-12zM480 732h12v12h-12zM480 780h12v12h-12zM480 828h12v12h-12zM480 876h12v12h-12zM480 924h12v12h-12zM492 492h12v12h-12zM492 540h12v12h-12zM492 588h12v12h-12zM492 636h12v12h-12zM492 684h12v12h-12zM492 732h12v12h-12zM492 780h12v12h-12zM492 828h12v12h-12zM492 876h12v12h-12zM492 924h12v12h-12zM504 492h12v12h-12zM504 540h12v12h-12zM504 588h12v12h-12zM504 636h12v12h-12zM504 684h12v12h-12zM504 732h12v12h-12zM504 780h12v12h-12zM504 828h12v12h-12zM504 876h12v12h-12zM504 924h12v12h-12zM516 492h12v12h-12zM516 540h12v12h-12zM516 588h12v12h-12zM516 636h12v12h-12zM516 684h12v12h-12zM516 732h12v12h-12zM516 780h12v12h-12zM516 828h12v12h-12zM516 876h12v12h-12zM516 924h12v12h-12zM528 492h12v12h-12zM528 540h12v12h-12zM528 588h12v12h-12zM528 636h12v12h-12zM528 684h12v12h-12zM528 732h12v12h-12zM528 780h12v12h-12zM528 828h12v12h-12zM528 876h12v12h-12zM528 924h12v12h-12zM540 492h12v12h-12zM540 540h12v12h-12zM540 588h12v12h-12zM540 636h12v12h-12zM540 684h12v12h-12zM540 732h12v12h-12zM540 780h12v12h-12zM540 828h12v12h-12zM540 876h12v12h-12zM540 924h12v12h-12zM552 492h12v12h-12zM552 540h12v12h-12zM552 588h12v12h-12zM552 636h12v12h-12zM552 684h12v12h-12zM552 732h12v12h-12zM552 780h12v12h-12zM552 828h12v12h-12zM552 876h12v12h-12zM552 924h12v12h-12zM564 492h12v12h-12zM564 540h12v12h-12zM564 588h12v12h-12zM564 636h12v12h-12zM564 684h12v12h-12zM564 732h12v12h-12zM564 780h12v12h-12zM564 828h12v12h-12zM564 876h12v12h-12zM564 924h12v12h-12zM576 492h12v12h-12zM576 540h12v12h-12zM576 588h12v12h-12zM576 636h12v12h-12zM576 684h12v12h-12zM576 732h12v12h-12zM576 780h12v12h-12zM576 828h12v12h-12zM576 876h12v12h-12zM576 924h12v12h-12zM588 492h12v12h-12zM588 540h12v12h-12zM588 588h12v12h-12zM588 636h12v12h-12zM588 684h12v12h-12zM588 732h12v12h-12zM588 780h12v12h-12zM588 828h12v12h-12zM588 876h12v12h-12zM588 924h12v12h-12zM600 492h12v12h-12zM600 540h12v12h-12zM600 588h12v12h-12zM600 636h12v12h-12zM600 684h12v12h-12zM600 732h12v12h-12zM600 780h12v12h-12zM600 828h12v12h-12zM600 876h12v12h-12zM600 924h12v12h-12zM612 492h12v12h-12zM612 540h12v12h-12zM612 588h12v12h-12zM612 636h12v12h-12zM612 684h12v12h-12zM612 732h12v12h-12zM612 780h12v12h-12zM612 828h12v12h-12zM612 876h12v12h-12zM612 924h12v12h-12zM624 492h12v12h-12zM624 540h12v12h-12zM624 588h12v12h-12zM624 636h12v12h-12zM624 684h12v12h-12zM624 732h12v12h-12zM624 780h12v12h-12zM624 828h12v12h-12zM624 876h12v12h-12zM624 924h12v12h-12zM636 492h12v12h-12zM636 540h12v12h-12zM636 588h12v12h-12zM636 636h12v12h-12zM636 684h12v12h-12zM636 732h12v12h-12zM636 780h12v12h-12zM636 828h12v12h-12zM636 876h12v12h-12zM636 924h12v12h-12zM648 492h12v12h-12zM648 540h12v12h-12zM648 588h12v12h-12zM648 636h12v12h-12zM648 684h12v12h-12zM648 732h12v12h-12zM648 780h12v12h-12zM648 828h12v12h-12zM648 876h12v12h-12zM648 924h12v12h-12zM660 492h12v12h-12zM660 540h12v12h-12zM660 588h12v12h-12zM660 636h12v12h-12zM660 684h12v12h-12zM660 732h12v12h-12zM660 780h12v12h-12zM660 828h12v12h-12zM660 876h12v12h-12zM660 924h12v12h-12zM672 492h12v12h-12zM672 540h12v12h-12zM672 588h12v12h-12zM672 636h12v12h-12zM672 684h12v12h-12zM672 732h12v12h-12zM672 780h12v12h-12zM672 828h12v12h-12zM672 876h12v12h-12zM672 924h12v12h-12zM684 492h12v12h-12zM684 540h12v12h-12zM684 588h12v12h-12zM684 636h12v12h-12zM684 684h12v12h-12zM684 732h12v12h-12zM684 780h12v12h-12zM684 828h12v12h-12zM684 876h12v12h-12zM684 924h12v12h-12zM696 492h12v12h-12zM696 540h12v12h-12zM696 588h12v12h-12zM696 636h12v12h-12zM696 684h12v12h-12zM696 732h12v12h-12zM696 780h12v12h-12zM696 828h12v12h-12zM696 876h12v12h-12zM696 924h12v12h-12zM708 492h12v12h-12zM708 540h12v12h-12zM708 588h12v12h-12zM708 636h12v12h-12zM708 684h12v12h-12zM708 732h12v12h-12zM708 780h12v12h-12zM708 828h12v12h-12zM708 876h12v12h-12zM708 924h12v12h-12zM720 492h12v12h-12zM720 540h12v12h-12zM720 588h12v12h-12zM720 636h12v12h-12zM720 684h12v12h-12zM720 732h12v12h-12zM720 780h12v12h-12zM720 828h12v12h-12zM720 876h12v12h-12zM720 924h12v12h-12zM732 492h12v12h-12zM732 540h12v12h-12zM732 588h12v12h-12zM732 636h12v12h-12zM732 684h12v12h-12zM732 732h12v12h-12zM732 780h12v12h-12zM732 828h12v12h-12zM732 876h12v12h-12zM732 924h12v12h-12zM744 492h12v12h-12zM744 540h12v12h-12zM744 588h12v12h-12zM744 636h12v12h-12zM744 684h12v12h-12zM744 732h12v12h-12zM744 780h12v12h-12zM744 828h12v12h-12zM744 876h12v12h-12zM744 924h12v12h-12zM756 492h12v12h-12zM756 540h12v12h-12zM756 588h12v12h-12zM756 636h12v12h-12zM756 684h12v12h-12zM756 732h12v12h-12zM756 780h12v12h-12zM756 828h12v12h-12zM756 876h12v12h-12zM756 924h12v12h-12zM768 492h12v12h-12zM768 540h12v12h-12zM768 588h12v12h-12zM768 636h12v12h-12zM768 684h12v12h-12zM768 732h12v12h-12zM768 780h12v12h-12zM768 828h12v12h-12zM768 876h12v12h-12zM768 924h12v12h-12zM780 492h12v12h-12zM780 540h12v12h-12zM780 588h12v12h-12zM780 636h12v12h-12zM780 684h12v12h-12zM780 732h12v12h-12zM780 780h12v12h-12zM780 828h12v12h-12zM780 876h12v12h-12zM780 924h12v12h-12zM792 492h12v12h-12zM792 540h12v12h-12zM792 588h12v12h-12zM792 636h12v12h-12zM792 684h12v12h-12zM792 732h12v12h-12zM792 780h12v12h-12zM792 828h12v12h-12zM792 876h12v12h-12zM792 924h12v12h-12zM804 492h12v12h-12zM804 540h12v12h-12zM804 588h12v12h-12zM804 636h12v12h-12zM804 684h12v12h-12zM804 732h12v12h-12zM804 780h12v12h-12zM804 828h12v12h-12zM804 876h12v12h-12zM804 924h12v12h-12zM816 492h12v12h-12zM816 540h12v12h-12zM816 588h12v12h-12zM816 636h12v12h-12zM816 684h12v12h-12zM816 732h12v12h-12zM816 780h12v12h-12zM816 828h12v12h-12zM816 876h12v12h-12zM816 924h12v12h-12zM828 492h12v12h-12zM828 540h12v12h-12zM828 588h12v12h-12zM828 636h12v12h-12zM828 684h12v12h-12zM828 732h12v12h-12zM828 780h12v12h-12zM828 828h12v12h-12zM828 876h12v12h-12zM828 924h12v12h-12zM840 492h12v12h-12zM840 540h12v12h-12zM840 588h12v12h-12zM840 636h12v12h-12zM840 684h12v12h-12zM840 732h12v12h-12zM840 780h12v12h-12zM840 828h12v12h-12zM840 876h12v12h-12zM840 924h12v12h-12zM852 492h12v12h-12zM852 540h12v12h-12zM852 588h12v12h-12zM852 636h12v12h-12zM852 684h12v12h-12zM852 732h12v12h-12zM852 780h12v12h-12zM852 828h12v12h-12zM852 876h12v12h-12zM852 924h12v12h-12zM864 492h12v12h-12zM864 540h12v12h-12zM864 588h12v12h-12zM864 636h12v12h-12zM864 684h12v12h-12zM864 732h12v12h-12zM864 780h12v12h-12zM864 828h12v12h-12zM864 876h12v12h-12zM864 924h12v12h-12zM876 492h12v12h-12zM876 540h12v12h-12zM876 588h12v12h-12zM876 636h12v12h-12zM876 684h12v12h-12zM876 732h12v12h-12zM876 780h12v12h-12zM876 828h12v12h-12zM876 876h12v12h-12zM876 924h12v12h-12zM888 492h12v12h-12zM888 540h12v12h-12zM888 588h12v12h-12zM888 636h12v12h-12zM888 684h12v12h-12zM888 732h12v12h-12zM888 780h12v12h-12zM888 828h12v12h-12zM888 876h12v12h-12zM888 924h12v12h-12zM900 492h12v12h-12zM900 540h12v12h-12zM900 588h12v12h-12zM900 636h12v12h-12zM900 684h12v12h-12zM900 732h12v12h-12zM900 780h12v12h-12zM900 828h12v12h-12zM900 876h12v12h-12zM900 924h12v12h-12zM912 492h12v12h-12zM912 540h12v12h-12zM912 588h12v12h-12zM912 636h12v12h-12zM912 684h12v12h-12zM912 732h12v12h-12zM912 780h12v12h-12zM912 828h12v12h-12zM912 876h12v12h-12zM912 924h12v12h-12zM924 492h12v12h-12zM924 540h12v12h-12zM924 588h12v12h-12zM924 636h12v12h-12zM924 684h12v12h-12zM924 732h12v12h-12zM924 780h12v12h-12zM924 828h12v12h-12zM924 876h12v12h-12zM924 924h12v12h-12zM936 492h12v12h-12zM936 540h12v12h-12zM936 588h12v12h-12zM936 636h12v12h-12zM936 684h12v12h-12zM936 732h12v12h-12zM936 780h12v12h-12zM936 828h12v12h-12zM936 876h12v12h-12zM936 924h12v12h-12zM948 492h12v12h-12zM948 540h12v12h-12zM948 588h12v12h-12zM948 636h12v12h-12zM948 684h12v12h-12zM948 732h12v12h-12zM948 780h12v12h-12zM948 828h12v12h-12zM948 876h12v12h-12zM948 924h12v12h-12z"/><path fill="#f572f8" d="M9 0h6v24h-6zM0 9h24v6h-24zM81 0h6v24h-6zM72 9h24v6h-24zM57 24h6v24h-6zM48 33h24v6h-24zM33 48h6v24h-6zM24 57h24v6h-24zM57 48h6v24h-6zM48 57h24v6h-24zM9 72h6v24h-6zM0 81h24v6h-24zM81 72h6v24h-6zM72 81h24v6h-24zM201 0h6v24h-6zM192 9h24v6h-24zM273 0h6v24h-6zM264 9h24v6h-24zM225 24h6v24h-6zM216 33h24v6h-24zM249 24h6v24h-6zM240 33h24v6h-24zM249 48h6v24h-6zM240 57h24v6h-24zM201 72h6v24h-6zM192 81h24v6h-24zM273 72h6v24h-6zM264 81h24v6h-24zM393 0h6v24h-6zM384 9h24v6h-24zM417 24h6v24h-6zM408 33h24v6h-24zM393 48h6v24h-6zM384 57h24v6h-24zM441 48h6v24h-6zM432 57h24v6h-24zM393 72h6v24h-6zM384 81h24v6h-24zM417 72h6v24h-6zM408 81h24v6h-24zM465 72h6v24h-6zM456 81h24v6h-24zM633 0h6v24h-6zM624 9h24v6h-24zM585 24h6v24h-6zM576 33h24v6h-24zM609 24h6v24h-6zM600 33h24v6h-24zM657 24h6v24h-6zM648 33h24v6h-24zM585 48h6v24h-6zM576 57h24v6h-24zM633 48h6v24h-6zM624 57h24v6h-24zM657 48h6v24h-6zM648 57h24v6h-24zM609 72h6v24h-6zM600 81h24v6h-24zM777 0h6v24h-6zM768 9h24v6h-24zM801 0h6v24h-6zM792 9h24v6h-24zM825 72h6v24h-6zM816 81h24v6h-24zM849 72h6v24h-6zM840 81h24v6h-24zM33 192h6v24h-6zM24 201h24v6h-24zM9 216h6v24h-6zM0 225h24v6h-24zM33 216h6v24h-6zM24 225h24v6h-24zM57 240h6v24h-6zM48 249h24v6h-24zM81 240h6v24h-6zM72 249h24v6h-24zM57 264h6v24h-6zM48 273h24v6h-24zM225 192h6v24h-6zM216 201h24v6h-24zM273 192h6v24h-6zM264 201h24v6h-24zM225 264h6v24h-6zM216 273h24v6h-24zM273 264h6v24h-6zM264 273h24v6h-24zM417 192h6v24h-6zM408 201h24v6h-24zM393 216h6v24h-6zM384 225h24v6h-24zM465 240h6v24h-6zM456 249h24v6h-24zM441 264h6v24h-6zM432 273h24v6h-24zM633 192h6v24h-6zM624 201h24v6h-24zM609 216h6v24h-6zM600 225h24v6h-24zM657 216h6v24h-6zM648 225h24v6h-24zM585 240h6v24h-6zM576 249h24v6h-24zM633 240h6v24h-6zM624 249h24v6h-24zM609 264h6v24h-6zM600 273h24v6h-24zM801 192h6v24h-6zM792 201h24v6h-24zM777 216h6v24h-6zM768 225h24v6h-24zM825 216h6v24h-6zM816 225h24v6h-24zM801 240h6v24h-6zM792 249h24v6h-24zM849 240h6v24h-6zM840 249h24v6h-24zM825 264h6v24h-6zM816 273h24v6h-24zM9 384h6v24h-6zM0 393h24v6h-24zM33 408h6v24h-6zM24 417h24v6h-24zM9 432h6v24h-6zM0 441h24v6h-24zM57 432h6v24h-6zM48 441h24v6h-24zM9 456h6v24h-6zM0 465h24v6h-24zM33 456h6v24h-6zM24 465h24v6h-24zM81 456h6v24h-6zM72 465h24v6h-24zM201 384h6v24h-6zM192 393h24v6h-24zM273 384h6v24h-6zM264 393h24v6h-24zM225 432h6v24h-6zM216 441h24v6h-24zM249 432h6v24h-6zM240 441h24v6h-24zM201 456h6v24h-6zM192 465h24v6h-24zM273 456h6v24h-6zM264 465h24v6h-24zM393 384h6v24h-6zM384 393h24v6h-24zM465 384h6v24h-6zM456 393h24v6h-24zM417 408h6v24h-6zM408 417h24v6h-24zM441 408h6v24h-6zM432 417h24v6h-24zM441 432h6v24h-6zM432 441h24v6h-24zM393 456h6v24h-6zM384 465h24v6h-24zM465 456h6v24h-6zM456 465h24v6h-24zM585 384h6v24h-6zM576 393h24v6h-24zM657 384h6v24h-6zM648 393h24v6h-24zM609 432h6v24h-6zM600 441h24v6h-24zM633 432h6v24h-6zM624 441h24v6h-24zM585 456h6v24h-6zM576 465h24v6h-24zM657 456h6v24h-6zM648 465h24v6h-24zM813 420h6v24h-6zM804 429h24v6h-24zM9 576h6v24h-6zM0 585h24v6h-24zM33 600h6v24h-6zM24 609h24v6h-24zM57 624h6v24h-6zM48 633h24v6h-24zM81 648h6v24h-6zM72 657h24v6h-24zM201 576h6v24h-6zM192 585h24v6h-24zM273 576h6v24h-6zM264 585h24v6h-24zM225 600h6v24h-6zM216 609h24v6h-24zM249 600h6v24h-6zM240 609h24v6h-24zM201 648h6v24h-6zM192 657h24v6h-24zM273 648h6v24h-6zM264 657h24v6h-24zM417 576h6v24h-6zM408 585h24v6h-24zM465 576h6v24h-6zM456 585h24v6h-24zM393 600h6v24h-6zM384 609h24v6h-24zM417 600h6v24h-6zM408 609h24v6h-24zM441 624h6v24h-6zM432 633h24v6h-24zM465 624h6v24h-6zM456 633h24v6h-24zM393 648h6v24h-6zM384 657h24v6h-24zM441 648h6v24h-6zM432 657h24v6h-24zM633 576h6v24h-6zM624 585h24v6h-24zM609 600h6v24h-6zM600 609h24v6h-24zM657 600h6v24h-6zM648 609h24v6h-24zM585 624h6v24h-6zM576 633h24v6h-24zM633 624h6v24h-6zM624 633h24v6h-24zM609 648h6v24h-6zM600 657h24v6h-24zM825 576h6v24h-6zM816 585h24v6h-24zM849 600h6v24h-6zM840 609h24v6h-24zM777 624h6v24h-6zM768 633h24v6h-24zM801 648h6v24h-6zM792 657h24v6h-24zM9 768h6v24h-6zM0 777h24v6h-24zM81 768h6v24h-6zM72 777h24v6h-24zM33 792h6v24h-6zM24 801h24v6h-24zM57 792h6v24h-6zM48 801h24v6h-24zM9 840h6v24h-6zM0 849h24v6h-24zM81 840h6v24h-6zM72 849h24v6h-24zM237 804h6v24h-6zM228 813h24v6h-24zM429 804h6v24h-6zM420 813h24v6h-24zM609 768h6v24h-6zM600 777h24v6h-24zM585 792h6v24h-6zM576 801h24v6h-24zM633 792h6v24h-6zM624 801h24v6h-24zM609 816h6v24h-6zM600 825h24v6h-24zM657 816h6v24h-6zM648 825h24v6h-24zM633 840h6v24h-6zM624 849h24v6h-24zM777 768h6v24h-6zM768 777h24v6h-24zM777 792h6v24h-6zM768 801h24v6h-24zM849 816h6v24h-6zM840 825h24v6h-24zM849 840h6v24h-6zM840 849h24v6h-24zM525 36h6v24h-6zM516 45h24v6h-24zM813 900h6v24h-6zM804 909h24v6h-24zM45 516h6v24h-6zM36 525h24v6h-24zM909 612h6v24h-6zM900 621h24v6h-24zM237 708h6v24h-6zM228 717h24v6h-24zM333 516h6v24h-6zM324 525h24v6h-24zM717 324h6v24h-6zM708 333h24v6h-24zM813 324h6v24h-6zM804 333h24v6h-24zM621 516h6v24h-6zM612 525h24v6h-24zM909 324h6v24h-6zM900 333h24v6h-24zM45 708h6v24h-6zM36 717h24v6h-24zM525 900h6v24h-6zM516 909h24v6h-24zM909 804h6v24h-6zM900 813h24v6h-24zM525 228h6v24h-6zM516 237h24v6h-24zM525 324h6v24h-6zM516 333h24v6h-24zM333 36h6v24h-6zM324 45h24v6h-24z"/><path fill="#000" d="M0 384h96v96h-96zM96 384h96v96h-96zM192 384h96v96h-96zM96 288h96v96h-96zM192 192h96v96h-96zM288 96h96v96h-96zM384 0h96v96h-96zM288 192h96v96h-96zM384 96h96v96h-96zM192 96h96v96h-96zM96 96h96v96h-96zM96 192h96v96h-96zM288 288h96v96h-96zM576 96h96v96h-96zM480 96h96v96h-96zM672 96h96v96h-96zM768 192h96v96h-96zM864 192h96v96h-96zM768 96h96v96h-96zM864 0h96v96h-96zM768 0h96v96h-96zM672 192h96v96h-96zM672 288h96v96h-96zM576 384h96v96h-96zM0 480h96v96h-96zM96 480h96v96h-96zM192 480h96v96h-96zM96 576h96v96h-96zM192 672h96v96h-96zM288 768h96v96h-96zM384 864h96v96h-96zM288 672h96v96h-96zM384 768h96v96h-96zM192 768h96v96h-96zM96 768h96v96h-96zM96 672h96v96h-96zM288 576h96v96h-96zM576 768h96v96h-96zM480 768h96v96h-96zM672 768h96v96h-96zM768 672h96v96h-96zM864 672h96v96h-96zM768 768h96v96h-96zM864 864h96v96h-96zM768 864h96v96h-96zM672 672h96v96h-96zM672 576h96v96h-96zM576 480h96v96h-96z"/></svg>