<svg xmlns="http://www.w3.org/2000/svg" width="960" height="960" viewBox="0 0 960 960" shape-rendering="crispEdges"><path fill="#000" d="M0 0h960v960h-960z"/><path fill="#e69f41" d="M0 504h12v12h-12zM0 576h12v12h-12zM0 648h12v12h-12zM0 720h12v12h-12zM0 792h12v12h-12zM0 864h12v12h-12zM0 936h12v12h-12zM12 492h12v12h-12zM12 564h12v12h-12zM12 636h12v12h-12zM12 708h12v12h-12zM12 780h12v12h-12zM12 852h12v12h-12zM12 924h12v12h-12zM24 480h12v12h-12zM24 552h12v12h-12zM24 624h12v12h-12zM24 696h12v12h-12zM24 768h12v12h-12zM24 840h12v12h-12zM24 912h12v12h-12zM36 540h12v12h-12zM36 612h12v12h-12zM36 684h12v12h-12zM36 756h12v12h-12zM36 828h12v12h-12zM36 900h12v12h-12zM48 528h12v12h-12zM48 600h12v12h-12zM48 672h12v12h-12zM48 744h12v12h-12zM48 816h12v12h-12zM48 888h12v12h-12zM60 516h12v12h-12zM60 588h12v12h-12zM60 660h12v12h-12zM60 732h12v12h-12zM60 804h12v12h-12zM60 876h12v12h-12zM60 948h12v12h-12zM72 504h12v12h-12zM72 576h12v12h-12zM72 648h12v12h-12zM72 720h12v12h-12zM72 792h12v12h-12zM72 864h12v12h-12zM72 936h12v12h-12zM84 492h12v12h-12zM84 564h12v12h-12zM84 636h12v12h-12zM84 708h12v12h-12zM84 780h12v12h-12zM84 852h12v12h-12zM84 924h12v12h-12zM96 480h12v12h-12zM96 552h12v12h-12zM96 624h12v12h-12zM96 696h12v12h-12zM96 768h12v12h-12zM96 840h12v12h-12zM96 912h12v12h-12zM108 540h12v12h-12zM108 612h12v12h-12zM108 684h12v12h-12zM108 756h12v12h-12zM108 828h12v12h-12zM108 900h12v12h-12zM120 528h12v12h-12zM120 600h12v12h-12zM120 672h12v12h-12zM120 744h12v12h-12zM120 816h12v12h-12zM120 888h12v12h-12zM132 516h12v12h-12zM132 588h12v12h-12zM132 660h12v12h-12zM132 732h12v12h-12zM132 804h12v12h-12zM132 876h12v12h-12zM132 948h12v12h-12zM144 504h12v12h-12zM144 576h12v12h-12zM144 648h12v12h-12zM144 720h12v12h-12zM144 792h12v12h-12zM144 864h12v12h-12zM144 936h12v12h-12zM156 492h12v12h-12zM156 564h12v12h-12zM156 636h12v12h-12zM156 708h12v12h-12zM156 780h12v12h-12zM156 852h12v12h-12zM156 924h12v12h-12zM168 480h12v12h-12zM168 552h12v12h-12zM168 624h12v12h-12zM168 696h12v12h-12zM168 768h12v12h-12zM168 840h12v12h-12zM168 912h12v12h-12zM180 540h12v12h-12zM180 612h12v12h-12zM180 684h12v12h-12zM180 756h12v12h-12zM180 828h12v12h-12zM180 900h12v12h-12zM192 528h12v12h-12zM192 600h12v12h-12zM192 672h12v12h-12zM192 744h12v12h-12zM192 816h12v12h-12zM192 888h12v12h-12zM204 516h12v12h-12zM204 588h12v12h-12zM204 660h12v12h-12zM204 732h12v12h-12zM204 804h12v12h-12zM204 876h12v12h-12zM204 948h12v12h-12zM216 504h12v12h-12zM216 576h12v12h-12zM216 648h12v12h-12zM216 720h12v12h-12zM216 792h12v12h-12zM216 864h12v12h-12zM216 936h12v12h-12zM228 492h12v12h-12zM228 564h12v12h-12zM228 636h12v12h-12zM228 708h12v12h-12zM228 780h12v12h-12zM228 852h12v12h-12zM228 924h12v12h-12zM240 480h12v12h-12zM240 552h12v12h-12zM240 624h12v12h-12zM240 696h12v12h-12zM240 768h12v12h-12zM240 840h12v12h-12zM240 912h12v12h-12zM252 540h12v12h-12zM252 612h12v12h-12zM252 684h12v12h-12zM252 756h12v12h-12zM252 828h12v12h-12zM252 900h12v12h-12zM264 528h12v12h-12zM264 600h12v12h-12zM264 672h12v12h-12zM264 744h12v12h-12zM264 816h12v12h-12zM264 888h12v12h-12zM276 516h12v12h-12zM276 588h12v12h-12zM276 660h12v12h-12zM276 732h12v12h-12zM276 804h12v12h-12zM276 876h12v12h-12zM276 948h12v12h-12zM288 504h12v12h-12zM288 576h12v12h-12zM288 648h12v12h-12zM288 720h12v12h-12zM288 792h12v12h-12zM288 864h12v12h-12zM288 936h12v12h-12zM300 492h12v12h-12zM300 564h12v12h-12zM300 636h12v12h-12zM300 708h12v12h-12zM300 780h12v12h-12zM300 852h12v12h-12zM300 924h12v12h-12zM312 480h12v12h-12zM312 552h12v12h-12zM312 624h12v12h-12zM312 696h12v12h-12zM312 768h12v12h-12zM312 840h12v12h-12zM312 912h12v12h-12zM324 540h12v12h-12zM324 612h12v12h-12zM324 684h12v12h-12zM324 756h12v12h-12zM324 828h12v12h-12zM324 900h12v12h-12zM336 528h12v12h-12zM336 600h12v12h-12zM336 672h12v12h-12zM336 744h12v12h-12zM336 816h12v12h-12zM336 888h12v12h-12zM348 516h12v12h-12zM348 588h12v12h-12zM348 660h12v12h-12zM348 732h12v12h-12zM348 804h12v12h-12zM348 876h12v12h-12zM348 948h12v12h-12zM360 504h12v12h-12zM360 576h12v12h-12zM360 648h12v12h-12zM360 720h12v12h-12zM360 792h12v12h-12zM360 864h12v12h-12zM360 936h12v12h-12zM372 492h12v12h-12zM372 564h12v12h-12zM372 636h12v12h-12zM372 708h12v12h-12zM372 780h12v12h-12zM372 852h12v12h-12zM372 924h12v12h-12zM384 480h12v12h-12zM384 552h12v12h-12zM384 624h12v12h-12zM384 696h12v12h-12zM384 768h12v12h-12zM384 840h12v12h-12zM384 912h12v12h-12zM396 540h12v12h-12zM396 612h12v12h-12zM396 684h12v12h-12zM396 756h12v12h-12zM396 828h12v12h-12zM396 900h12v12h-12zM408 528h12v12h-12zM408 600h12v12h-12zM408 672h12v12h-12zM408 744h12v12h-12zM408 816h12v12h-12zM408 888h12v12h-12zM420 516h12v12h-12zM420 588h12v12h-12zM420 660h12v12h-12zM420 732h12v12h-12zM420 804h12v12h-12zM420 876h12v12h-12zM420 948h12v12h-12zM432 504h12v12h-12zM432 576h12v12h-12zM432 648h12v12h-12zM432 720h12v12h-12zM432 792h12v12h-12zM432 864h12v12h-12zM432 936h12v12h-12zM444 492h12v12h-12zM444 564h12v12h-12zM444 636h12v12h-12zM444 708h12v12h-12zM444 780h12v12h-12zM444 852h12v12h-12zM444 924h12v12h-12zM456 480h12v12h-12zM456 552h12v12h-12zM456 624h12v12h-12zM456 696h12v12h-12zM456 768h12v12h-12zM456 840h12v12h-12zM456 912h12v12h-12zM468 540h12v12h-12zM468 612h12v12h-12zM468 684h12v12h-12zM468 756h12v12h-12zM468 828h12v12h-12zM468 900h12v12h-12zM480 528h12v12h-12zM480 600h12v12h-12zM480 672h12v12h-12zM480 744h12v12h-12zM480 816h12v12h-12zM480 888h12v12h-12zM492 516h12v12h-12zM492 588h12v12h-12zM492 660h12v12h-12zM492 732h12v12h-12zM492 804h12v12h-12zM492 876h12v12h-12zM492 948h12v12h-12zM504 504h12v12h-12zM504 576h12v12h-12zM504 648h12v12h-12zM504 720h12v12h-12zM504 792h12v12h-12zM504 864h12v12h-12zM504 936h12v12h-12zM516 492h12v12h-12zM516 564h12v12h-12zM516 636h12v12h-12zM516 708h12v12h-12zM516 780h12v12h-12zM516 852h12v12h-12zM516 924h12v12h-12zM528 480h12v12h-12zM528 552h12v12h-12zM528 624h12v12h-12zM528 696h12v12h-12zM528 768h12v12h-12zM528 840h12v12h-12zM528 912h12v12h-12zM540 540h12v12h-12zM540 612h12v12h-12zM540 684h12v12h-12zM540 756h12v12h-12zM540 828h12v12h-12zM540 900h12v12h-12zM552 528h12v12h-12zM552 600h12v12h-12zM552 672h12v12h-12zM552 744h12v12h-12zM552 816h12v12h-12zM552 888h12v12h-12zM564 516h12v12h-12zM564 588h12v12h-12zM564 660h12v12h-12zM564 732h12v12h-12zM564 804h12v12h-12zM564 876h12v12h-12zM564 948h12v12h-12zM576 504h12v12h-12zM576 576h12v12h-12zM576 648h12v12h-12zM576 720h12v12h-12zM576 792h12v12h-12zM576 864h12v12h-12zM576 936h12v12h-12zM588 492h12v12h-12zM588 564h12v12h-12zM588 636h12v12h-12zM588 708h12v12h-12zM588 780h12v12h-12zM588 852h12v12h-12zM588 924h12v12h-12zM600 480h12v12h-12zM600 552h12v12h-12zM600 624h12v12h-12zM600 696h12v12h-12zM600 768h12v12h-12zM600 840h12v12h-12zM600 912h12v12h-12zM612 540h12v12h-12zM612 612h12v12h-12zM612 684h12v12h-12zM612 756h12v12h-12zM612 828h12v12h-12zM612 900h12v12h-12zM624 528h12v12h-12zM624 600h12v12h-12zM624 672h12v12h-12zM624 744h12v12h-12zM624 816h12v12h-12zM624 888h12v12h-12zM636 516h12v12h-12zM636 588h12v12h-12zM636 660h12v12h-12zM636 732h12v12h-12zM636 804h12v12h-12zM636 876h12v12h-12zM636 948h12v12h-12zM648 504h12v12h-12zM648 576h12v12h-12zM648 648h12v12h-12zM648 720h12v12h-12zM648 792h12v12h-12zM648 864h12v12h-12zM648 936h12v12h-12zM660 492h12v12h-12zM660 564h12v12h-12zM660 636h12v12h-12zM660 708h12v12h-12zM660 780h12v12h-12zM660 852h12v12h-12zM660 924h12v12h-12zM672 480h12v12h-12zM672 552h12v12h-12zM672 624h12v12h-12zM672 696h12v12h-12zM672 768h12v12h-12zM672 840h12v12h-12zM672 912h12v12h-12zM684 540h12v12h-12zM684 612h12v12h-12zM684 684h12v12h-12zM684 756h12v12h-12zM684 828h12v12h-12zM684 900h12v12h-12zM696 528h12v12h-12zM696 600h12v12h-12zM696 672h12v12h-12zM696 744h12v12h-12zM696 816h12v12h-12zM696 888h12v12h-12zM708 516h12v12h-12zM708 588h12v12h-12zM708 660h12v12h-12zM708 732h12v12h-12zM708 804h12v12h-12zM708 876h12v12h-12zM708 948h12v12h-12zM720 504h12v12h-12zM720 576h12v12h-12zM720 648h12v12h-12zM720 720h12v12h-12zM720 792h12v12h-12zM720 864h12v12h-12zM720 936h12v12h-12zM732 492h12v12h-12zM732 564h12v12h-12zM732 636h12v12h-12zM732 708h12v12h-12zM732 780h12v12h-12zM732 852h12v12h-12zM732 924h12v12h-12zM744 480h12v12h-12zM744 552h12v12h-12zM744 624h12v12h-12zM744 696h12v12h-12zM744 768h12v12h-12zM744 840h12v12h-12zM744 912h12v12h-12zM756 540h12v12h-12zM756 612h12v12h-12zM756 684h12v12h-12zM756 756h12v12h-12zM756 828h12v12h-12zM756 900h12v12h-12zM768 528h12v12h-12zM768 600h12v12h-12zM768 672h12v12h-12zM768 744h12v12h-12zM768 816h12v12h-12zM768 888h12v12h-12zM780 516h12v12h-12zM780 588h12v12h-12zM780 660h12v12h-12zM780 732h12v12h-12zM780 804h12v12h-12zM780 876h12v12h-12zM780 948h12v12h-12zM792 504h12v12h-12zM792 576h12v12h-12zM792 648h12v12h-12zM792 720h12v12h-12zM792 792h12v12h-12zM792 864h12v12h-12zM792 936h12v12h-12zM804 492h12v12h-12zM804 564h12v12h-12zM804 636h12v12h-12zM804 708h12v12h-12zM804 780h12v12h-12zM804 852h12v12h-12zM804 924h12v12h-12zM816 480h12v12h-12zM816 552h12v12h-12zM816 624h12v12h-12zM816 696h12v12h-12zM816 768h12v12h-12zM816 840h12v12h-12zM816 912h12v12h-12zM828 540h12v12h-12zM828 612h12v12h-12zM828 684h12v12h-12zM828 756h12v12h-12zM828 828h12v12h-12zM828 900h12v12h-12zM840 528h12v12h-12zM840 600h12v12h-12zM840 672h12v12h-12zM840 744h12v12h-12zM840 816h12v12h-12zM840 888h12v12h-12zM852 516h12v12h-12zM852 588h12v12h-12zM852 660h12v12h-12zM852 732h12v12h-12zM852 804h12v12h-12zM852 876h12v12h-12zM852 948h12v12h-12zM864 504h12v12h-12zM864 576h12v12h-12zM864 648h12v12h-12zM864 720h12v12h-12zM864 792h12v12h-12zM864 864h12v12h-12zM864 936h12v12h-12zM876 492h12v12h-12zM876 564h12v12h-12zM876 636h12v12h-12zM876 708h12v12h-12zM876 780h12v12h-12zM876 852h12v12h-12zM876 924h12v12h-12zM888 480h12v12h-12zM888 552h12v12h-12zM888 624h12v12h-12zM888 696h12v12h-12zM888 768h12v12h-12zM888 840h12v12h-12zM888 912h12v12h-12zM900 540h12v12h-12zM900 612h12v12h-12zM900 684h12v12h-12zM900 756h12v12h-12zM900 828h12v12h-12zM900 900h12v12h-12zM912 528h12v12h-12zM912 600h12v12h-12zM912 672h12v12h-12zM912 744h12v12h-12zM912 816h12v12h-12zM912 888h12v12h-12zM924 516h12v12h-12zM924 588h12v12h-12zM924 660h12v12h-12zM924 732h12v12h-12zM924 804h12v12h-12zM924 876h12v12h-12zM924 948h12v12h-12zM936 504h12v12h-12zM936 576h12v12h-12zM936 648h12v12h-12zM936 720h12v12h-12zM936 792h12v12h-12zM936 864h12v12h-12zM936 936h12v12h-12zM948 492h12v12h-12zM948 564h12v12h-12zM948 636h12v12h-12zM948 708h12v12h-12zM948 780h12v12h-12zM948 852h12v12h-12zM948 924h12v12h-12z"/><path fill="#80b2c6" d="M24 0h24v24h-24zM48 0h24v24h-24zM24 72h24v24h-24zM48 72h24v24h-24zM132 36h24v24h-24zM192 0h24v24h-24zM264 0h24v24h-24zM240 24h24v24h-24zM216 48h24v24h-24zM240 48h24v24h-24zM192 72h24v24h-24zM264 72h24v24h-24zM336 0h24v24h-24zM336 24h24v24h-24zM360 24h24v24h-24zM288 48h24v24h-24zM312 48h24v24h-24zM312 72h24v24h-24zM384 0h24v24h-24zM432 0h24v24h-24zM432 24h24v24h-24zM456 24h24v24h-24zM384 48h24v24h-24zM408 48h24v24h-24zM408 72h24v24h-24zM456 72h24v24h-24zM480 0h24v24h-24zM552 0h24v24h-24zM504 24h24v24h-24zM528 24h24v24h-24zM480 72h24v24h-24zM552 72h24v24h-24zM600 0h24v24h-24zM576 24h24v24h-24zM600 24h24v24h-24zM624 48h24v24h-24zM648 48h24v24h-24zM624 72h24v24h-24zM672 0h24v24h-24zM744 0h24v24h-24zM696 24h24v24h-24zM720 24h24v24h-24zM672 72h24v24h-24zM744 72h24v24h-24zM792 0h24v24h-24zM840 0h24v24h-24zM768 24h24v24h-24zM840 48h24v24h-24zM768 72h24v24h-24zM816 72h24v24h-24zM888 0h24v24h-24zM912 0h24v24h-24zM864 24h24v24h-24zM912 24h24v24h-24zM888 48h24v24h-24zM936 48h24v24h-24zM888 72h24v24h-24zM912 72h24v24h-24zM24 96h24v24h-24zM0 120h24v24h-24zM48 120h24v24h-24zM72 120h24v24h-24zM0 144h24v24h-24zM24 144h24v24h-24zM72 144h24v24h-24zM48 168h24v24h-24zM168 96h24v24h-24zM168 120h24v24h-24zM96 144h24v24h-24zM96 168h24v24h-24zM192 96h24v24h-24zM264 96h24v24h-24zM192 144h24v24h-24zM264 144h24v24h-24zM312 96h24v24h-24zM288 120h24v24h-24zM336 120h24v24h-24zM312 144h24v24h-24zM360 144h24v24h-24zM336 168h24v24h-24zM384 120h24v24h-24zM408 120h24v24h-24zM384 144h24v24h-24zM456 144h24v24h-24zM504 96h24v24h-24zM480 120h24v24h-24zM528 120h24v24h-24zM504 144h24v24h-24zM552 144h24v24h-24zM528 168h24v24h-24zM624 96h24v24h-24zM600 120h24v24h-24zM648 120h24v24h-24zM576 144h24v24h-24zM624 144h24v24h-24zM600 168h24v24h-24zM672 96h24v24h-24zM744 96h24v24h-24zM696 120h24v24h-24zM720 144h24v24h-24zM672 168h24v24h-24zM744 168h24v24h-24zM768 120h24v24h-24zM840 120h24v24h-24zM768 144h24v24h-24zM792 144h24v24h-24zM888 96h24v24h-24zM864 120h24v24h-24zM912 120h24v24h-24zM888 144h24v24h-24zM936 144h24v24h-24zM912 168h24v24h-24zM0 192h24v24h-24zM72 192h24v24h-24zM0 240h24v24h-24zM72 240h24v24h-24zM144 192h24v24h-24zM120 216h24v24h-24zM168 216h24v24h-24zM96 240h24v24h-24zM144 240h24v24h-24zM120 264h24v24h-24zM264 192h24v24h-24zM240 216h24v24h-24zM216 240h24v24h-24zM264 240h24v24h-24zM192 264h24v24h-24zM240 264h24v24h-24zM264 264h24v24h-24zM312 192h24v24h-24zM288 216h24v24h-24zM312 216h24v24h-24zM336 240h24v24h-24zM360 240h24v24h-24zM336 264h24v24h-24zM408 192h24v24h-24zM384 216h24v24h-24zM408 216h24v24h-24zM432 240h24v24h-24zM456 240h24v24h-24zM432 264h24v24h-24zM480 216h24v24h-24zM504 216h24v24h-24zM480 240h24v24h-24zM552 240h24v24h-24zM600 192h24v24h-24zM624 192h24v24h-24zM624 216h24v24h-24zM600 264h24v24h-24zM672 192h24v24h-24zM696 192h24v24h-24zM720 264h24v24h-24zM744 264h24v24h-24zM768 192h24v24h-24zM792 192h24v24h-24zM768 216h24v24h-24zM792 216h24v24h-24zM816 240h24v24h-24zM840 240h24v24h-24zM816 264h24v24h-24zM840 264h24v24h-24zM864 192h24v24h-24zM936 192h24v24h-24zM912 216h24v24h-24zM888 240h24v24h-24zM912 240h24v24h-24zM864 264h24v24h-24zM936 264h24v24h-24zM36 324h24v24h-24zM120 312h24v24h-24zM144 312h24v24h-24zM120 336h24v24h-24zM144 336h24v24h-24zM240 288h24v24h-24zM216 312h24v24h-24zM264 312h24v24h-24zM192 336h24v24h-24zM240 336h24v24h-24zM216 360h24v24h-24zM288 288h24v24h-24zM336 288h24v24h-24zM360 288h24v24h-24zM312 312h24v24h-24zM360 312h24v24h-24zM336 336h24v24h-24zM360 360h24v24h-24zM384 288h24v24h-24zM456 288h24v24h-24zM408 312h24v24h-24zM432 312h24v24h-24zM384 360h24v24h-24zM456 360h24v24h-24zM528 288h24v24h-24zM552 312h24v24h-24zM480 336h24v24h-24zM504 360h24v24h-24zM576 288h24v24h-24zM600 288h24v24h-24zM576 312h24v24h-24zM600 312h24v24h-24zM624 336h24v24h-24zM648 336h24v24h-24zM624 360h24v24h-24zM648 360h24v24h-24zM672 312h24v24h-24zM696 312h24v24h-24zM672 336h24v24h-24zM744 336h24v24h-24zM792 288h24v24h-24zM840 288h24v24h-24zM768 312h24v24h-24zM816 312h24v24h-24zM792 336h24v24h-24zM840 336h24v24h-24zM768 360h24v24h-24zM816 360h24v24h-24zM912 288h24v24h-24zM888 312h24v24h-24zM936 312h24v24h-24zM864 336h24v24h-24zM912 336h24v24h-24zM888 360h24v24h-24zM0 384h24v24h-24zM0 408h24v24h-24zM72 432h24v24h-24zM72 456h24v24h-24zM120 384h24v24h-24zM144 384h24v24h-24zM144 408h24v24h-24zM120 456h24v24h-24zM216 384h24v24h-24zM192 408h24v24h-24zM240 408h24v24h-24zM216 432h24v24h-24zM264 432h24v24h-24zM240 456h24v24h-24zM360 384h24v24h-24zM360 408h24v24h-24zM288 432h24v24h-24zM288 456h24v24h-24zM456 384h24v24h-24zM432 408h24v24h-24zM408 432h24v24h-24zM384 456h24v24h-24zM504 384h24v24h-24zM552 384h24v24h-24zM480 408h24v24h-24zM528 408h24v24h-24zM504 432h24v24h-24zM552 432h24v24h-24zM480 456h24v24h-24zM528 456h24v24h-24zM648 528h24v24h-24zM600 384h24v24h-24zM624 384h24v24h-24zM600 408h24v24h-24zM648 408h24v24h-24zM576 432h24v24h-24zM624 432h24v24h-24zM600 456h24v24h-24zM624 456h24v24h-24zM672 384h24v24h-24zM744 384h24v24h-24zM720 408h24v24h-24zM696 432h24v24h-24zM672 456h24v24h-24zM744 456h24v24h-24zM768 384h24v24h-24zM840 384h24v24h-24zM792 408h24v24h-24zM816 432h24v24h-24zM768 456h24v24h-24zM840 456h24v24h-24zM912 384h24v24h-24zM912 408h24v24h-24zM936 408h24v24h-24zM864 432h24v24h-24zM888 432h24v24h-24zM888 456h24v24h-24zM0 576h24v24h-24zM24 576h24v24h-24zM0 600h24v24h-24zM24 600h24v24h-24zM48 624h24v24h-24zM72 624h24v24h-24zM48 648h24v24h-24zM72 648h24v24h-24zM192 576h24v24h-24zM264 576h24v24h-24zM192 624h24v24h-24zM264 624h24v24h-24zM384 576h24v24h-24zM456 576h24v24h-24zM408 600h24v24h-24zM432 600h24v24h-24zM432 624h24v24h-24zM384 648h24v24h-24zM456 648h24v24h-24zM624 576h24v24h-24zM648 600h24v24h-24zM576 624h24v24h-24zM600 648h24v24h-24zM768 576h24v24h-24zM792 600h24v24h-24zM816 624h24v24h-24zM840 648h24v24h-24zM0 768h24v24h-24zM72 768h24v24h-24zM48 792h24v24h-24zM24 816h24v24h-24zM48 816h24v24h-24zM0 840h24v24h-24zM72 840h24v24h-24zM264 768h24v24h-24zM240 792h24v24h-24zM216 816h24v24h-24zM264 816h24v24h-24zM192 840h24v24h-24zM240 840h24v24h-24zM264 840h24v24h-24zM384 768h24v24h-24zM408 792h24v24h-24zM432 816h24v24h-24zM456 840h24v24h-24zM576 768h24v24h-24zM600 792h24v24h-24zM624 816h24v24h-24zM648 840h24v24h-24zM768 768h24v24h-24zM768 792h24v24h-24zM840 816h24v24h-24zM840 840h24v24h-24zM648 624h24v24h-24zM600 480h24v24h-24zM624 480h24v24h-24zM600 504h24v24h-24zM648 504h24v24h-24zM576 528h24v24h-24zM624 528h24v24h-24zM600 552h24v24h-24zM624 552h24v24h-24zM288 576h24v24h-24zM360 576h24v24h-24zM312 600h24v24h-24zM336 600h24v24h-24zM336 624h24v24h-24zM288 648h24v24h-24zM360 648h24v24h-24zM480 672h24v24h-24zM504 696h24v24h-24zM528 720h24v24h-24zM552 744h24v24h-24zM264 864h24v24h-24zM240 888h24v24h-24zM216 912h24v24h-24zM264 912h24v24h-24zM192 936h24v24h-24zM240 936h24v24h-24zM264 936h24v24h-24zM672 864h24v24h-24zM672 888h24v24h-24zM744 912h24v24h-24zM744 936h24v24h-24zM0 672h24v24h-24zM72 672h24v24h-24zM48 696h24v24h-24zM24 720h24v24h-24zM48 720h24v24h-24zM0 744h24v24h-24zM72 744h24v24h-24zM0 864h24v24h-24zM72 864h24v24h-24zM48 888h24v24h-24zM24 912h24v24h-24zM48 912h24v24h-24zM0 936h24v24h-24zM72 936h24v24h-24zM672 576h24v24h-24zM696 600h24v24h-24zM720 624h24v24h-24zM744 648h24v24h-24z"/><path fill="#fff" d="M96 192h96v96h-96zM96 288h96v96h-96zM96 384h96v96h-96zM192 384h96v96h-96zM288 384h96v96h-96zM384 384h96v96h-96zM288 288h96v96h-96zM192 192h96v96h-96zM96 96h96v96h-96zM96 0h96v96h-96zM192 96h96v96h-96zM192 288h96v96h-96zM96 672h96v96h-96zM96 576h96v96h-96zM96 480h96v96h-96zM192 480h96v96h-96zM288 480h96v96h-96zM384 480h96v96h-96zM288 576h96v96h-96zM192 672h96v96h-96zM96 768h96v96h-96zM96 864h96v96h-96zM192 768h96v96h-96zM192 576h96v96h-96zM768 192h96v96h-96zM768 288h96v96h-96zM768 384h96v96h-96zM672 384h96v96h-96zM576 384h96v96h-96zM480 384h96v96h-96zM576 288h96v96h-96zM672 192h96v96h-96zM768 96h96v96h-96zM768 0h96v96h-96zM672 96h96v96h-96zM672 288h96v96h-96zM768 672h96v96h-96zM768 576h96v96h-96zM768 480h96v96h-96zM672 480h96v96h-96zM576 480h96v96h-96zM480 480h96v96h-96zM576 576h96v96h-96zM672 672h96v96h-96zM768 768h96v96h-96zM768 864h96v96h-96zM672 768h96v96h-96zM672 576h96v96h-96z"/></svg>