<svg xmlns="http://www.w3.org/2000/svg" width="960" height="960" viewBox="0 0 960 960" shape-rendering="crispEdges"><path fill="#000" d="M0 0h960v960h-960z"/><path fill="#f2cd9c" d="M0 48h48v48h-48zM0 192h48v48h-48zM0 336h48v48h-48zM48 0h48v48h-48zM48 48h48v48h-48zM48 96h48v48h-48zM48 144h48v48h-48zM48 192h48v48h-48zM48 240h48v48h-48zM48 288h48v48h-48zM48 336h48v48h-48zM48 384h48v48h-48zM48 432h48v48h-48zM96 48h48v48h-48zM96 192h48v48h-48zM96 336h48v48h-48zM144 48h48v48h-48zM144 192h48v48h-48zM144 336h48v48h-48zM192 0h48v48h-48zM192 48h48v48h-48zM192 96h48v48h-48zM192 144h48v48h-48zM192 192h48v48h-48zM192 240h48v48h-48zM192 288h48v48h-48zM192 336h48v48h-48zM192 384h48v48h-48zM192 432h48v48h-48zM240 48h48v48h-48zM240 192h48v48h-48zM240 336h48v48h-48zM288 48h48v48h-48zM288 192h48v48h-48zM288 336h48v48h-48zM336 0h48v48h-48zM336 48h48v48h-48zM336 96h48v48h-48zM336 144h48v48h-48zM336 192h48v48h-48zM336 240h48v48h-48zM336 288h48v48h-48zM336 336h48v48h-48zM336 384h48v48h-48zM336 432h48v48h-48zM384 48h48v48h-48zM384 192h48v48h-48zM384 336h48v48h-48zM432 48h48v48h-48zM432 192h48v48h-48zM432 336h48v48h-48z"/><path fill="#d91c5b" d="M6 6h12v12h-12zM78 6h12v12h-12zM6 54h12v12h-12zM78 54h12v12h-12zM270 6h12v12h-12zM246 30h12v12h-12zM222 54h12v12h-12zM270 54h12v12h-12zM198 78h12v12h-12zM246 78h12v12h-12zM270 78h12v12h-12zM390 6h12v12h-12zM438 6h12v12h-12zM462 6h12v12h-12zM414 30h12v12h-12zM462 30h12v12h-12zM438 54h12v12h-12zM462 78h12v12h-12zM606 6h12v12h-12zM654 6h12v12h-12zM630 30h12v12h-12zM630 54h12v12h-12zM606 78h12v12h-12zM654 78h12v12h-12zM774 6h12v12h-12zM774 30h12v12h-12zM846 54h12v12h-12zM846 78h12v12h-12zM6 198h12v12h-12zM30 198h12v12h-12zM54 270h12v12h-12zM78 270h12v12h-12zM246 198h12v12h-12zM222 222h12v12h-12zM270 222h12v12h-12zM198 246h12v12h-12zM246 246h12v12h-12zM222 270h12v12h-12zM414 198h12v12h-12zM462 198h12v12h-12zM390 222h12v12h-12zM438 222h12v12h-12zM414 246h12v12h-12zM462 246h12v12h-12zM390 270h12v12h-12zM438 270h12v12h-12zM582 198h12v12h-12zM630 198h12v12h-12zM654 198h12v12h-12zM606 222h12v12h-12zM654 222h12v12h-12zM630 246h12v12h-12zM654 270h12v12h-12zM798 198h12v12h-12zM822 198h12v12h-12zM798 270h12v12h-12zM822 270h12v12h-12zM6 390h12v12h-12zM78 390h12v12h-12zM6 438h12v12h-12zM78 438h12v12h-12zM198 390h12v12h-12zM222 414h12v12h-12zM198 438h12v12h-12zM246 438h12v12h-12zM198 462h12v12h-12zM222 462h12v12h-12zM270 462h12v12h-12zM390 390h12v12h-12zM462 390h12v12h-12zM414 414h12v12h-12zM438 414h12v12h-12zM390 462h12v12h-12zM462 462h12v12h-12zM582 390h12v12h-12zM654 390h12v12h-12zM582 462h12v12h-12zM654 462h12v12h-12zM774 390h12v12h-12zM846 390h12v12h-12zM774 462h12v12h-12zM846 462h12v12h-12zM6 486h12v12h-12zM78 486h12v12h-12zM30 510h12v12h-12zM54 534h12v12h-12zM6 558h12v12h-12zM78 558h12v12h-12zM102 510h12v12h-12zM174 510h12v12h-12zM102 534h12v12h-12zM126 534h12v12h-12zM222 510h12v12h-12zM246 510h12v12h-12zM222 534h12v12h-12zM246 534h12v12h-12zM294 486h12v12h-12zM366 486h12v12h-12zM318 510h12v12h-12zM342 510h12v12h-12zM318 534h12v12h-12zM294 558h12v12h-12zM366 558h12v12h-12zM438 486h12v12h-12zM462 486h12v12h-12zM390 558h12v12h-12zM414 558h12v12h-12zM486 486h12v12h-12zM558 486h12v12h-12zM510 510h12v12h-12zM534 510h12v12h-12zM510 534h12v12h-12zM486 558h12v12h-12zM558 558h12v12h-12zM606 486h12v12h-12zM630 486h12v12h-12zM630 510h12v12h-12zM606 558h12v12h-12zM702 486h12v12h-12zM750 486h12v12h-12zM678 510h12v12h-12zM726 510h12v12h-12zM702 534h12v12h-12zM750 534h12v12h-12zM678 558h12v12h-12zM726 558h12v12h-12zM774 486h12v12h-12zM846 486h12v12h-12zM798 510h12v12h-12zM822 510h12v12h-12zM774 558h12v12h-12zM846 558h12v12h-12zM894 486h12v12h-12zM942 486h12v12h-12zM870 510h12v12h-12zM894 510h12v12h-12zM918 534h12v12h-12zM942 534h12v12h-12zM870 558h12v12h-12zM918 558h12v12h-12zM30 582h12v12h-12zM6 606h12v12h-12zM54 606h12v12h-12zM78 606h12v12h-12zM6 630h12v12h-12zM30 630h12v12h-12zM78 630h12v12h-12zM54 654h12v12h-12zM102 606h12v12h-12zM174 606h12v12h-12zM102 630h12v12h-12zM126 630h12v12h-12zM270 726h12v12h-12zM222 582h12v12h-12zM246 582h12v12h-12zM222 606h12v12h-12zM270 606h12v12h-12zM198 630h12v12h-12zM246 630h12v12h-12zM222 654h12v12h-12zM246 654h12v12h-12zM294 582h12v12h-12zM366 582h12v12h-12zM318 606h12v12h-12zM342 606h12v12h-12zM294 654h12v12h-12zM366 654h12v12h-12zM390 582h12v12h-12zM462 582h12v12h-12zM414 630h12v12h-12zM438 630h12v12h-12zM390 654h12v12h-12zM462 654h12v12h-12zM486 582h12v12h-12zM558 582h12v12h-12zM510 606h12v12h-12zM534 606h12v12h-12zM486 654h12v12h-12zM558 654h12v12h-12zM582 582h12v12h-12zM654 582h12v12h-12zM630 606h12v12h-12zM606 630h12v12h-12zM630 630h12v12h-12zM582 654h12v12h-12zM654 654h12v12h-12zM678 606h12v12h-12zM702 606h12v12h-12zM678 630h12v12h-12zM750 630h12v12h-12zM774 582h12v12h-12zM774 606h12v12h-12zM846 630h12v12h-12zM846 654h12v12h-12zM870 582h12v12h-12zM918 582h12v12h-12zM942 582h12v12h-12zM894 606h12v12h-12zM942 606h12v12h-12zM918 630h12v12h-12zM942 654h12v12h-12zM54 678h12v12h-12zM78 702h12v12h-12zM6 726h12v12h-12zM30 750h12v12h-12zM102 702h12v12h-12zM126 702h12v12h-12zM102 726h12v12h-12zM174 726h12v12h-12zM222 678h12v12h-12zM246 726h12v12h-12zM222 750h12v12h-12zM246 750h12v12h-12zM318 678h12v12h-12zM366 678h12v12h-12zM294 702h12v12h-12zM342 702h12v12h-12zM318 726h12v12h-12zM366 726h12v12h-12zM294 750h12v12h-12zM342 750h12v12h-12zM414 678h12v12h-12zM438 726h12v12h-12zM414 750h12v12h-12zM438 750h12v12h-12zM510 678h12v12h-12zM558 678h12v12h-12zM486 702h12v12h-12zM558 726h12v12h-12zM486 750h12v12h-12zM534 750h12v12h-12zM606 678h12v12h-12zM654 678h12v12h-12zM582 702h12v12h-12zM630 702h12v12h-12zM606 726h12v12h-12zM654 726h12v12h-12zM582 750h12v12h-12zM630 750h12v12h-12zM678 702h12v12h-12zM750 702h12v12h-12zM678 726h12v12h-12zM702 726h12v12h-12zM846 678h12v12h-12zM822 702h12v12h-12zM798 726h12v12h-12zM774 750h12v12h-12zM870 678h12v12h-12zM942 678h12v12h-12zM870 726h12v12h-12zM942 726h12v12h-12zM30 774h12v12h-12zM6 798h12v12h-12zM78 822h12v12h-12zM54 846h12v12h-12zM102 798h12v12h-12zM174 798h12v12h-12zM102 822h12v12h-12zM174 822h12v12h-12zM198 774h12v12h-12zM222 774h12v12h-12zM270 774h12v12h-12zM198 798h12v12h-12zM246 798h12v12h-12zM222 822h12v12h-12zM198 846h12v12h-12zM318 774h12v12h-12zM342 822h12v12h-12zM318 846h12v12h-12zM342 846h12v12h-12zM462 774h12v12h-12zM438 798h12v12h-12zM414 822h12v12h-12zM462 822h12v12h-12zM390 846h12v12h-12zM438 846h12v12h-12zM462 846h12v12h-12zM510 798h12v12h-12zM534 798h12v12h-12zM510 822h12v12h-12zM534 822h12v12h-12zM582 774h12v12h-12zM630 774h12v12h-12zM654 774h12v12h-12zM606 798h12v12h-12zM654 798h12v12h-12zM630 822h12v12h-12zM654 846h12v12h-12zM702 774h12v12h-12zM726 774h12v12h-12zM678 798h12v12h-12zM726 798h12v12h-12zM702 822h12v12h-12zM750 822h12v12h-12zM702 846h12v12h-12zM726 846h12v12h-12zM846 774h12v12h-12zM822 798h12v12h-12zM798 822h12v12h-12zM774 846h12v12h-12zM894 774h12v12h-12zM918 822h12v12h-12zM894 846h12v12h-12zM918 846h12v12h-12zM6 894h12v12h-12zM78 894h12v12h-12zM6 918h12v12h-12zM30 918h12v12h-12zM126 870h12v12h-12zM174 870h12v12h-12zM102 894h12v12h-12zM126 894h12v12h-12zM150 918h12v12h-12zM174 918h12v12h-12zM102 942h12v12h-12zM150 942h12v12h-12zM198 870h12v12h-12zM246 870h12v12h-12zM270 894h12v12h-12zM198 918h12v12h-12zM222 942h12v12h-12zM270 942h12v12h-12zM342 870h12v12h-12zM366 870h12v12h-12zM294 942h12v12h-12zM318 942h12v12h-12zM438 870h12v12h-12zM390 894h12v12h-12zM414 894h12v12h-12zM462 894h12v12h-12zM390 918h12v12h-12zM438 918h12v12h-12zM462 918h12v12h-12zM414 942h12v12h-12zM522 906h12v12h-12zM582 870h12v12h-12zM654 870h12v12h-12zM606 918h12v12h-12zM630 918h12v12h-12zM582 942h12v12h-12zM654 942h12v12h-12zM678 870h12v12h-12zM702 870h12v12h-12zM678 894h12v12h-12zM702 894h12v12h-12zM726 918h12v12h-12zM750 918h12v12h-12zM726 942h12v12h-12zM750 942h12v12h-12zM822 870h12v12h-12zM774 894h12v12h-12zM798 894h12v12h-12zM846 894h12v12h-12zM774 918h12v12h-12zM822 918h12v12h-12zM846 918h12v12h-12zM798 942h12v12h-12zM918 870h12v12h-12zM918 894h12v12h-12zM942 894h12v12h-12zM870 918h12v12h-12zM894 918h12v12h-12zM894 942h12v12h-12zM486 390h12v12h-12zM558 390h12v12h-12zM510 414h12v12h-12zM534 414h12v12h-12zM510 438h12v12h-12zM486 462h12v12h-12zM558 462h12v12h-12zM366 102h12v12h-12zM342 126h12v12h-12zM318 150h12v12h-12zM366 150h12v12h-12zM294 174h12v12h-12zM342 174h12v12h-12zM366 174h12v12h-12zM414 294h12v12h-12zM462 294h12v12h-12zM390 318h12v12h-12zM438 318h12v12h-12zM414 342h12v12h-12zM462 342h12v12h-12zM390 366h12v12h-12zM438 366h12v12h-12zM678 294h12v12h-12zM726 294h12v12h-12zM750 294h12v12h-12zM702 318h12v12h-12zM750 318h12v12h-12zM726 342h12v12h-12zM750 366h12v12h-12zM486 294h12v12h-12zM558 294h12v12h-12zM510 318h12v12h-12zM534 318h12v12h-12zM486 366h12v12h-12zM558 366h12v12h-12zM774 102h12v12h-12zM774 126h12v12h-12zM846 150h12v12h-12zM846 174h12v12h-12zM894 102h12v12h-12zM918 102h12v12h-12zM894 174h12v12h-12zM918 174h12v12h-12z"/><path fill="#fff" d="M288 888h24v24h-24zM264 864h24v24h-24zM240 840h24v24h-24zM216 816h24v24h-24zM240 816h24v24h-24zM264 816h24v24h-24zM288 816h24v24h-24zM312 816h24v24h-24zM336 816h24v24h-24zM360 816h24v24h-24zM384 816h24v24h-24zM408 816h24v24h-24zM432 816h24v24h-24zM432 840h24v24h-24zM432 864h24v24h-24zM432 888h24v24h-24zM408 864h24v24h-24zM384 840h24v24h-24zM336 792h24v24h-24zM312 768h24v24h-24zM288 744h24v24h-24zM264 720h24v24h-24zM240 696h24v24h-24zM216 672h24v24h-24zM240 672h24v24h-24zM264 672h24v24h-24zM288 672h24v24h-24zM312 672h24v24h-24zM336 672h24v24h-24zM360 672h24v24h-24zM384 672h24v24h-24zM192 672h24v24h-24zM192 648h24v24h-24zM192 624h24v24h-24zM192 600h24v24h-24zM192 576h24v24h-24zM192 552h24v24h-24zM192 528h24v24h-24zM192 504h24v24h-24zM192 480h24v24h-24zM192 456h24v24h-24zM192 432h24v24h-24zM192 408h24v24h-24zM192 384h24v24h-24zM192 360h24v24h-24zM192 336h24v24h-24zM192 312h24v24h-24zM192 288h24v24h-24zM192 264h24v24h-24zM192 240h24v24h-24zM192 216h24v24h-24zM192 192h24v24h-24zM192 168h24v24h-24zM192 144h24v24h-24zM216 600h24v24h-24zM240 600h24v24h-24zM264 600h24v24h-24zM288 600h24v24h-24zM312 600h24v24h-24zM288 624h24v24h-24zM240 576h24v24h-24zM216 552h24v24h-24zM168 600h24v24h-24zM144 624h24v24h-24zM120 648h24v24h-24zM96 672h24v24h-24zM72 696h24v24h-24zM72 720h24v24h-24zM72 744h24v24h-24zM72 768h24v24h-24zM72 792h24v24h-24zM72 672h24v24h-24zM72 648h24v24h-24zM72 624h24v24h-24zM72 600h24v24h-24zM72 576h24v24h-24zM72 552h24v24h-24zM72 528h24v24h-24zM72 504h24v24h-24zM72 480h24v24h-24zM72 456h24v24h-24zM72 432h24v24h-24zM48 432h24v24h-24zM24 432h24v24h-24zM0 432h24v24h-24zM24 408h24v24h-24zM48 384h24v24h-24zM72 360h24v24h-24zM96 336h24v24h-24zM120 312h24v24h-24zM144 288h24v24h-24zM168 264h24v24h-24zM216 216h24v24h-24zM240 192h24v24h-24zM264 168h24v24h-24zM288 144h24v24h-24zM312 120h24v24h-24zM336 96h24v24h-24zM360 72h24v24h-24zM384 48h24v24h-24zM408 24h24v24h-24zM408 48h24v24h-24zM408 72h24v24h-24zM408 96h24v24h-24zM408 120h24v24h-24zM408 144h24v24h-24zM408 168h24v24h-24zM408 192h24v24h-24zM408 216h24v24h-24zM408 240h24v24h-24zM408 264h24v24h-24zM408 288h24v24h-24zM408 312h24v24h-24zM408 336h24v24h-24zM408 360h24v24h-24zM408 384h24v24h-24zM408 408h24v24h-24zM408 432h24v24h-24zM408 456h24v24h-24zM384 480h24v24h-24zM360 504h24v24h-24zM336 528h24v24h-24zM312 552h24v24h-24zM288 576h24v24h-24zM240 624h24v24h-24zM432 432h24v24h-24zM456 408h24v24h-24zM456 384h24v24h-24zM456 360h24v24h-24zM456 336h24v24h-24zM456 312h24v24h-24zM456 288h24v24h-24zM456 264h24v24h-24zM456 240h24v24h-24zM456 216h24v24h-24zM456 192h24v24h-24zM456 168h24v24h-24zM456 144h24v24h-24zM456 120h24v24h-24zM456 96h24v24h-24zM456 72h24v24h-24zM456 48h24v24h-24zM456 24h24v24h-24zM456 0h24v24h-24zM432 24h24v24h-24zM384 72h24v24h-24zM360 96h24v24h-24zM336 120h24v24h-24zM312 144h24v24h-24zM288 168h24v24h-24zM264 192h24v24h-24zM240 216h24v24h-24zM216 240h24v24h-24zM168 288h24v24h-24zM144 312h24v24h-24zM168 312h24v24h-24zM216 312h24v24h-24zM240 312h24v24h-24zM264 312h24v24h-24zM288 312h24v24h-24zM312 312h24v24h-24zM336 312h24v24h-24zM360 312h24v24h-24zM384 312h24v24h-24zM360 336h24v24h-24zM360 360h24v24h-24zM360 384h24v24h-24zM360 408h24v24h-24zM360 432h24v24h-24zM360 456h24v24h-24zM360 480h24v24h-24zM360 528h24v24h-24zM312 528h24v24h-24zM288 528h24v24h-24zM264 528h24v24h-24zM240 528h24v24h-24zM216 528h24v24h-24zM168 528h24v24h-24zM144 528h24v24h-24zM120 528h24v24h-24zM96 528h24v24h-24zM48 528h24v24h-24zM24 528h24v24h-24zM24 504h24v24h-24zM24 480h24v24h-24zM24 456h24v24h-24zM24 384h24v24h-24zM24 360h24v24h-24zM24 336h24v24h-24zM24 312h24v24h-24zM24 288h24v24h-24zM24 264h24v24h-24zM24 240h24v24h-24zM24 216h24v24h-24zM24 192h24v24h-24zM24 168h24v24h-24zM24 144h24v24h-24zM24 120h24v24h-24zM24 96h24v24h-24zM48 96h24v24h-24zM72 96h24v24h-24zM96 96h24v24h-24zM120 96h24v24h-24zM144 96h24v24h-24zM168 96h24v24h-24zM192 96h24v24h-24zM216 96h24v24h-24zM240 96h24v24h-24zM264 96h24v24h-24zM264 120h24v24h-24zM264 144h24v24h-24zM264 216h24v24h-24zM264 240h24v24h-24zM264 264h24v24h-24zM264 288h24v24h-24zM264 336h24v24h-24zM264 360h24v24h-24zM264 384h24v24h-24zM264 408h24v24h-24zM264 432h24v24h-24zM264 456h24v24h-24zM264 480h24v24h-24zM264 504h24v24h-24zM240 552h24v24h-24zM216 576h24v24h-24zM168 624h24v24h-24zM144 648h24v24h-24zM120 672h24v24h-24zM96 696h24v24h-24zM48 744h24v24h-24zM24 768h24v24h-24zM0 792h24v24h-24zM0 768h24v24h-24zM0 744h24v24h-24zM0 720h24v24h-24zM0 696h24v24h-24zM0 672h24v24h-24zM0 648h24v24h-24zM0 624h24v24h-24zM0 600h24v24h-24zM0 576h24v24h-24zM0 552h24v24h-24zM0 528h24v24h-24zM48 480h24v24h-24zM96 432h24v24h-24zM120 408h24v24h-24zM144 384h24v24h-24zM168 360h24v24h-24zM240 288h24v24h-24zM288 240h24v24h-24zM312 216h24v24h-24zM336 192h24v24h-24zM360 168h24v24h-24zM384 144h24v24h-24zM384 120h24v24h-24zM384 96h24v24h-24zM336 48h24v24h-24zM312 24h24v24h-24zM288 0h24v24h-24zM264 0h24v24h-24zM240 0h24v24h-24zM240 24h24v24h-24zM240 48h24v24h-24zM240 72h24v24h-24zM240 120h24v24h-24zM240 144h24v24h-24zM240 168h24v24h-24zM240 240h24v24h-24zM240 264h24v24h-24zM240 336h24v24h-24zM240 360h24v24h-24zM240 384h24v24h-24zM240 408h24v24h-24zM240 432h24v24h-24zM648 888h24v24h-24zM672 864h24v24h-24zM696 840h24v24h-24zM720 816h24v24h-24zM696 816h24v24h-24zM672 816h24v24h-24zM648 816h24v24h-24zM624 816h24v24h-24zM600 816h24v24h-24zM576 816h24v24h-24zM552 816h24v24h-24zM528 816h24v24h-24zM504 816h24v24h-24zM504 840h24v24h-24zM504 864h24v24h-24zM504 888h24v24h-24zM528 864h24v24h-24zM552 840h24v24h-24zM600 792h24v24h-24zM624 768h24v24h-24zM648 744h24v24h-24zM672 720h24v24h-24zM696 696h24v24h-24zM720 672h24v24h-24zM696 672h24v24h-24zM672 672h24v24h-24zM648 672h24v24h-24zM624 672h24v24h-24zM600 672h24v24h-24zM576 672h24v24h-24zM552 672h24v24h-24zM744 672h24v24h-24zM744 648h24v24h-24zM744 624h24v24h-24zM744 600h24v24h-24zM744 576h24v24h-24zM744 552h24v24h-24zM744 528h24v24h-24zM744 504h24v24h-24zM744 480h24v24h-24zM744 456h24v24h-24zM744 432h24v24h-24zM744 408h24v24h-24zM744 384h24v24h-24zM744 360h24v24h-24zM744 336h24v24h-24zM744 312h24v24h-24zM744 288h24v24h-24zM744 264h24v24h-24zM744 240h24v24h-24zM744 216h24v24h-24zM744 192h24v24h-24zM744 168h24v24h-24zM744 144h24v24h-24zM720 600h24v24h-24zM696 600h24v24h-24zM672 600h24v24h-24zM648 600h24v24h-24zM624 600h24v24h-24zM648 624h24v24h-24zM696 576h24v24h-24zM720 552h24v24h-24zM768 600h24v24h-24zM792 624h24v24h-24zM816 648h24v24h-24zM840 672h24v24h-24zM864 696h24v24h-24zM864 720h24v24h-24zM864 744h24v24h-24zM864 768h24v24h-24zM864 792h24v24h-24zM864 672h24v24h-24zM864 648h24v24h-24zM864 624h24v24h-24zM864 600h24v24h-24zM864 576h24v24h-24zM864 552h24v24h-24zM864 528h24v24h-24zM864 504h24v24h-24zM864 480h24v24h-24zM864 456h24v24h-24zM864 432h24v24h-24zM888 432h24v24h-24zM912 432h24v24h-24zM936 432h24v24h-24zM912 408h24v24h-24zM888 384h24v24h-24zM864 360h24v24h-24zM840 336h24v24h-24zM816 312h24v24h-24zM792 288h24v24h-24zM768 264h24v24h-24zM720 216h24v24h-24zM696 192h24v24h-24zM672 168h24v24h-24zM648 144h24v24h-24zM624 120h24v24h-24zM600 96h24v24h-24zM576 72h24v24h-24zM552 48h24v24h-24zM528 24h24v24h-24zM528 48h24v24h-24zM528 72h24v24h-24zM528 96h24v24h-24zM528 120h24v24h-24zM528 144h24v24h-24zM528 168h24v24h-24zM528 192h24v24h-24zM528 216h24v24h-24zM528 240h24v24h-24zM528 264h24v24h-24zM528 288h24v24h-24zM528 312h24v24h-24zM528 336h24v24h-24zM528 360h24v24h-24zM528 384h24v24h-24zM528 408h24v24h-24zM528 432h24v24h-24zM528 456h24v24h-24zM552 480h24v24h-24zM576 504h24v24h-24zM600 528h24v24h-24zM624 552h24v24h-24zM648 576h24v24h-24zM696 624h24v24h-24zM504 432h24v24h-24zM480 408h24v24h-24zM480 384h24v24h-24zM480 360h24v24h-24zM480 336h24v24h-24zM480 312h24v24h-24zM480 288h24v24h-24zM480 264h24v24h-24zM480 240h24v24h-24zM480 216h24v24h-24zM480 192h24v24h-24zM480 168h24v24h-24zM480 144h24v24h-24zM480 120h24v24h-24zM480 96h24v24h-24zM480 72h24v24h-24zM480 48h24v24h-24zM480 24h24v24h-24zM480 0h24v24h-24zM504 24h24v24h-24zM552 72h24v24h-24zM576 96h24v24h-24zM600 120h24v24h-24zM624 144h24v24h-24zM648 168h24v24h-24zM672 192h24v24h-24zM696 216h24v24h-24zM720 240h24v24h-24zM768 288h24v24h-24zM792 312h24v24h-24zM768 312h24v24h-24zM720 312h24v24h-24zM696 312h24v24h-24zM672 312h24v24h-24zM648 312h24v24h-24zM624 312h24v24h-24zM600 312h24v24h-24zM576 312h24v24h-24zM552 312h24v24h-24zM576 336h24v24h-24zM576 360h24v24h-24zM576 384h24v24h-24zM576 408h24v24h-24zM576 432h24v24h-24zM576 456h24v24h-24zM576 480h24v24h-24zM576 528h24v24h-24zM624 528h24v24h-24zM648 528h24v24h-24zM672 528h24v24h-24zM696 528h24v24h-24zM720 528h24v24h-24zM768 528h24v24h-24zM792 528h24v24h-24zM816 528h24v24h-24zM840 528h24v24h-24zM888 528h24v24h-24zM912 528h24v24h-24zM912 504h24v24h-24zM912 480h24v24h-24zM912 456h24v24h-24zM912 384h24v24h-24zM912 360h24v24h-24zM912 336h24v24h-24zM912 312h24v24h-24zM912 288h24v24h-24zM912 264h24v24h-24zM912 240h24v24h-24zM912 216h24v24h-24zM912 192h24v24h-24zM912 168h24v24h-24zM912 144h24v24h-24zM912 120h24v24h-24zM912 96h24v24h-24zM888 96h24v24h-24zM864 96h24v24h-24zM840 96h24v24h-24zM816 96h24v24h-24zM792 96h24v24h-24zM768 96h24v24h-24zM744 96h24v24h-24zM720 96h24v24h-24zM696 96h24v24h-24zM672 96h24v24h-24zM672 120h24v24h-24zM672 144h24v24h-24zM672 216h24v24h-24zM672 240h24v24h-24zM672 264h24v24h-24zM672 288h24v24h-24zM672 336h24v24h-24zM672 360h24v24h-24zM672 384h24v24h-24zM672 408h24v24h-24zM672 432h24v24h-24zM672 456h24v24h-24zM672 480h24v24h-24zM672 504h24v24h-24zM696 552h24v24h-24zM720 576h24v24h-24zM768 624h24v24h-24zM792 648h24v24h-24zM816 672h24v24h-24zM840 696h24v24h-24zM888 744h24v24h-24zM912 768h24v24h-24zM936 792h24v24h-24zM936 768h24v24h-24zM936 744h24v24h-24zM936 720h24v24h-24zM936 696h24v24h-24zM936 672h24v24h-24zM936 648h24v24h-24zM936 624h24v24h-24zM936 600h24v24h-24zM936 576h24v24h-24zM936 552h24v24h-24zM936 528h24v24h-24zM888 480h24v24h-24zM840 432h24v24h-24zM816 408h24v24h-24zM792 384h24v24h-24zM768 360h24v24h-24zM696 288h24v24h-24zM648 240h24v24h-24zM624 216h24v24h-24zM600 192h24v24h-24zM576 168h24v24h-24zM552 144h24v24h-24zM552 120h24v24h-24zM552 96h24v24h-24zM600 48h24v24h-24zM624 24h24v24h-24zM648 0h24v24h-24zM672 0h24v24h-24zM696 0h24v24h-24zM696 24h24v24h-24zM696 48h24v24h-24zM696 72h24v24h-24zM696 120h24v24h-24zM696 144h24v24h-24zM696 168h24v24h-24zM696 240h24v24h-24zM696 264h24v24h-24zM696 336h24v24h-24zM696 360h24v24h-24zM696 384h24v24h-24zM696 408h24v24h-24zM696 432h24v24h-24z"/></svg>