<svg xmlns="http://www.w3.org/2000/svg" width="960" height="960" viewBox="0 0 960 960" shape-rendering="crispEdges"><path fill="#fff" d="M0 0h960v960h-960z"/><path fill="#486ca3" d="M12 0h12v12h-12zM12 12h12v12h-12zM12 24h12v12h-12zM12 36h12v12h-12zM12 48h12v12h-12zM12 60h12v12h-12zM12 72h12v12h-12zM12 84h12v12h-12zM12 96h12v12h-12zM12 108h12v12h-12zM12 120h12v12h-12zM12 132h12v12h-12zM12 144h12v12h-12zM12 156h12v12h-12zM12 168h12v12h-12zM12 180h12v12h-12zM12 192h12v12h-12zM12 204h12v12h-12zM12 216h12v12h-12zM12 228h12v12h-12zM12 240h12v12h-12zM12 252h12v12h-12zM12 264h12v12h-12zM12 276h12v12h-12zM12 288h12v12h-12zM12 300h12v12h-12zM12 312h12v12h-12zM12 324h12v12h-12zM12 336h12v12h-12zM12 348h12v12h-12zM12 360h12v12h-12zM12 372h12v12h-12zM12 384h12v12h-12zM12 396h12v12h-12zM12 408h12v12h-12zM12 420h12v12h-12zM12 432h12v12h-12zM12 444h12v12h-12zM12 456h12v12h-12zM12 468h12v12h-12zM12 480h12v12h-12zM12 492h12v12h-12zM12 504h12v12h-12zM12 516h12v12h-12zM12 528h12v12h-12zM12 540h12v12h-12zM12 552h12v12h-12zM12 564h12v12h-12zM12 576h12v12h-12zM12 588h12v12h-12zM12 600h12v12h-12zM12 612h12v12h-12zM12 624h12v12h-12zM12 636h12v12h-12zM12 648h12v12h-12zM12 660h12v12h-12zM12 672h12v12h-12zM12 684h12v12h-12zM12 696h12v12h-12zM12 708h12v12h-12zM12 720h12v12h-12zM12 732h12v12h-12zM12 744h12v12h-12zM12 756h12v12h-12zM12 768h12v12h-12zM12 780h12v12h-12zM12 792h12v12h-12zM12 804h12v12h-12zM12 816h12v12h-12zM12 828h12v12h-12zM12 840h12v12h-12zM12 852h12v12h-12zM12 864h12v12h-12zM12 876h12v12h-12zM12 888h12v12h-12zM12 900h12v12h-12zM12 912h12v12h-12zM12 924h12v12h-12zM12 936h12v12h-12zM12 948h12v12h-12zM36 0h12v12h-12zM36 12h12v12h-12zM36 24h12v12h-12zM36 36h12v12h-12zM36 48h12v12h-12zM36 60h12v12h-12zM36 72h12v12h-12zM36 84h12v12h-12zM36 96h12v12h-12zM36 108h12v12h-12zM36 120h12v12h-12zM36 132h12v12h-12zM36 144h12v12h-12zM36 156h12v12h-12zM36 168h12v12h-12zM36 180h12v12h-12zM36 192h12v12h-12zM36 204h12v12h-12zM36 216h12v12h-12zM36 228h12v12h-12zM36 240h12v12h-12zM36 252h12v12h-12zM36 264h12v12h-12zM36 276h12v12h-12zM36 288h12v12h-12zM36 300h12v12h-12zM36 312h12v12h-12zM36 324h12v12h-12zM36 336h12v12h-12zM36 348h12v12h-12zM36 360h12v12h-12zM36 372h12v12h-12zM36 384h12v12h-12zM36 396h12v12h-12zM36 408h12v12h-12zM36 420h12v12h-12zM36 432h12v12h-12zM36 444h12v12h-12zM36 456h12v12h-12zM36 468h12v12h-12zM36 480h12v12h-12zM36 492h12v12h-12zM36 504h12v12h-12zM36 516h12v12h-12zM36 528h12v12h-12zM36 540h12v12h-12zM36 552h12v12h-12zM36 564h12v12h-12zM36 576h12v12h-12zM36 588h12v12h-12zM36 600h12v12h-12zM36 612h12v12h-12zM36 624h12v12h-12zM36 636h12v12h-12zM36 648h12v12h-12zM36 660h12v12h-12zM36 672h12v12h-12zM36 684h12v12h-12zM36 696h12v12h-12zM36 708h12v12h-12zM36 720h12v12h-12zM36 732h12v12h-12zM36 744h12v12h-12zM36 756h12v12h-12zM36 768h12v12h-12zM36 780h12v12h-12zM36 792h12v12h-12zM36 804h12v12h-12zM36 816h12v12h-12zM36 828h12v12h-12zM36 840h12v12h-12zM36 852h12v12h-12zM36 864h12v12h-12zM36 876h12v12h-12zM36 888h12v12h-12zM36 900h12v12h-12zM36 912h12v12h-12zM36 924h12v12h-12zM36 936h12v12h-12zM36 948h12v12h-12zM60 0h12v12h-12zM60 12h12v12h-12zM60 24h12v12h-12zM60 36h12v12h-12zM60 48h12v12h-12zM60 60h12v12h-12zM60 72h12v12h-12zM60 84h12v12h-12zM60 96h12v12h-12zM60 108h12v12h-12zM60 120h12v12h-12zM60 132h12v12h-12zM60 144h12v12h-12zM60 156h12v12h-12zM60 168h12v12h-12zM60 180h12v12h-12zM60 192h12v12h-12zM60 204h12v12h-12zM60 216h12v12h-12zM60 228h12v12h-12zM60 240h12v12h-12zM60 252h12v12h-12zM60 264h12v12h-12zM60 276h12v12h-12zM60 288h12v12h-12zM60 300h12v12h-12zM60 312h12v12h-12zM60 324h12v12h-12zM60 336h12v12h-12zM60 348h12v12h-12zM60 360h12v12h-12zM60 372h12v12h-12zM60 384h12v12h-12zM60 396h12v12h-12zM60 408h12v12h-12zM60 420h12v12h-12zM60 432h12v12h-12zM60 444h12v12h-12zM60 456h12v12h-12zM60 468h12v12h-12zM60 480h12v12h-12zM60 492h12v12h-12zM60 504h12v12h-12zM60 516h12v12h-12zM60 528h12v12h-12zM60 540h12v12h-12zM60 552h12v12h-12zM60 564h12v12h-12zM60 576h12v12h-12zM60 588h12v12h-12zM60 600h12v12h-12zM60 612h12v12h-12zM60 624h12v12h-12zM60 636h12v12h-12zM60 648h12v12h-12zM60 660h12v12h-12zM60 672h12v12h-12zM60 684h12v12h-12zM60 696h12v12h-12zM60 708h12v12h-12zM60 720h12v12h-12zM60 732h12v12h-12zM60 744h12v12h-12zM60 756h12v12h-12zM60 768h12v12h-12zM60 780h12v12h-12zM60 792h12v12h-12zM60 804h12v12h-12zM60 816h12v12h-12zM60 828h12v12h-12zM60 840h12v12h-12zM60 852h12v12h-12zM60 864h12v12h-12zM60 876h12v12h-12zM60 888h12v12h-12zM60 900h12v12h-12zM60 912h12v12h-12zM60 924h12v12h-12zM60 936h12v12h-12zM60 948h12v12h-12zM84 0h12v12h-12zM84 12h12v12h-12zM84 24h12v12h-12zM84 36h12v12h-12zM84 48h12v12h-12zM84 60h12v12h-12zM84 72h12v12h-12zM84 84h12v12h-12zM84 96h12v12h-12zM84 108h12v12h-12zM84 120h12v12h-12zM84 132h12v12h-12zM84 144h12v12h-12zM84 156h12v12h-12zM84 168h12v12h-12zM84 180h12v12h-12zM84 192h12v12h-12zM84 204h12v12h-12zM84 216h12v12h-12zM84 228h12v12h-12zM84 240h12v12h-12zM84 252h12v12h-12zM84 264h12v12h-12zM84 276h12v12h-12zM84 288h12v12h-12zM84 300h12v12h-12zM84 312h12v12h-12zM84 324h12v12h-12zM84 336h12v12h-12zM84 348h12v12h-12zM84 360h12v12h-12zM84 372h12v12h-12zM84 384h12v12h-12zM84 396h12v12h-12zM84 408h12v12h-12zM84 420h12v12h-12zM84 432h12v12h-12zM84 444h12v12h-12zM84 456h12v12h-12zM84 468h12v12h-12zM84 480h12v12h-12zM84 492h12v12h-12zM84 504h12v12h-12zM84 516h12v12h-12zM84 528h12v12h-12zM84 540h12v12h-12zM84 552h12v12h-12zM84 564h12v12h-12zM84 576h12v12h-12zM84 588h12v12h-12zM84 600h12v12h-12zM84 612h12v12h-12zM84 624h12v12h-12zM84 636h12v12h-12zM84 648h12v12h-12zM84 660h12v12h-12zM84 672h12v12h-12zM84 684h12v12h-12zM84 696h12v12h-12zM84 708h12v12h-12zM84 720h12v12h-12zM84 732h12v12h-12zM84 744h12v12h-12zM84 756h12v12h-12zM84 768h12v12h-12zM84 780h12v12h-12zM84 792h12v12h-12zM84 804h12v12h-12zM84 816h12v12h-12zM84 828h12v12h-12zM84 840h12v12h-12zM84 852h12v12h-12zM84 864h12v12h-12zM84 876h12v12h-12zM84 888h12v12h-12zM84 900h12v12h-12zM84 912h12v12h-12zM84 924h12v12h-12zM84 936h12v12h-12zM84 948h12v12h-12zM108 0h12v12h-12zM108 12h12v12h-12zM108 24h12v12h-12zM108 36h12v12h-12zM108 48h12v12h-12zM108 60h12v12h-12zM108 72h12v12h-12zM108 84h12v12h-12zM108 96h12v12h-12zM108 108h12v12h-12zM108 120h12v12h-12zM108 132h12v12h-12zM108 144h12v12h-12zM108 156h12v12h-12zM108 168h12v12h-12zM108 180h12v12h-12zM108 192h12v12h-12zM108 204h12v12h-12zM108 216h12v12h-12zM108 228h12v12h-12zM108 240h12v12h-12zM108 252h12v12h-12zM108 264h12v12h-12zM108 276h12v12h-12zM108 288h12v12h-12zM108 300h12v12h-12zM108 312h12v12h-12zM108 324h12v12h-12zM108 336h12v12h-12zM108 348h12v12h-12zM108 360h12v12h-12zM108 372h12v12h-12zM108 384h12v12h-12zM108 396h12v12h-12zM108 408h12v12h-12zM108 420h12v12h-12zM108 432h12v12h-12zM108 444h12v12h-12zM108 456h12v12h-12zM108 468h12v12h-12zM108 480h12v12h-12zM108 492h12v12h-12zM108 504h12v12h-12zM108 516h12v12h-12zM108 528h12v12h-12zM108 540h12v12h-12zM108 552h12v12h-12zM108 564h12v12h-12zM108 576h12v12h-12zM108 588h12v12h-12zM108 600h12v12h-12zM108 612h12v12h-12zM108 624h12v12h-12zM108 636h12v12h-12zM108 648h12v12h-12zM108 660h12v12h-12zM108 672h12v12h-12zM108 684h12v12h-12zM108 696h12v12h-12zM108 708h12v12h-12zM108 720h12v12h-12zM108 732h12v12h-12zM108 744h12v12h-12zM108 756h12v12h-12zM108 768h12v12h-12zM108 780h12v12h-12zM108 792h12v12h-12zM108 804h12v12h-12zM108 816h12v12h-12zM108 828h12v12h-12zM108 840h12v12h-12zM108 852h12v12h-12zM108 864h12v12h-12zM108 876h12v12h-12zM108 888h12v12h-12zM108 900h12v12h-12zM108 912h12v12h-12zM108 924h12v12h-12zM108 936h12v12h-12zM108 948h12v12h-12zM132 0h12v12h-12zM132 12h12v12h-12zM132 24h12v12h-12zM132 36h12v12h-12zM132 48h12v12h-12zM132 60h12v12h-12zM132 72h12v12h-12zM132 84h12v12h-12zM132 96h12v12h-12zM132 108h12v12h-12zM132 120h12v12h-12zM132 132h12v12h-12zM132 144h12v12h-12zM132 156h12v12h-12zM132 168h12v12h-12zM132 180h12v12h-12zM132 192h12v12h-12zM132 204h12v12h-12zM132 216h12v12h-12zM132 228h12v12h-12zM132 240h12v12h-12zM132 252h12v12h-12zM132 264h12v12h-12zM132 276h12v12h-12zM132 288h12v12h-12zM132 300h12v12h-12zM132 312h12v12h-12zM132 324h12v12h-12zM132 336h12v12h-12zM132 348h12v12h-12zM132 360h12v12h-12zM132 372h12v12h-12zM132 384h12v12h-12zM132 396h12v12h-12zM132 408h12v12h-12zM132 420h12v12h-12zM132 432h12v12h-12zM132 444h12v12h-12zM132 456h12v12h-12zM132 468h12v12h-12zM132 480h12v12h-12zM132 492h12v12h-12zM132 504h12v12h-12zM132 516h12v12h-12zM132 528h12v12h-12zM132 540h12v12h-12zM132 552h12v12h-12zM132 564h12v12h-12zM132 576h12v12h-12zM132 588h12v12h-12zM132 600h12v12h-12zM132 612h12v12h-12zM132 624h12v12h-12zM132 636h12v12h-12zM132 648h12v12h-12zM132 660h12v12h-12zM132 672h12v12h-12zM132 684h12v12h-12zM132 696h12v12h-12zM132 708h12v12h-12zM132 720h12v12h-12zM132 732h12v12h-12zM132 744h12v12h-12zM132 756h12v12h-12zM132 768h12v12h-12zM132 780h12v12h-12zM132 792h12v12h-12zM132 804h12v12h-12zM132 816h12v12h-12zM132 828h12v12h-12zM132 840h12v12h-12zM132 852h12v12h-12zM132 864h12v12h-12zM132 876h12v12h-12zM132 888h12v12h-12zM132 900h12v12h-12zM132 912h12v12h-12zM132 924h12v12h-12zM132 936h12v12h-12zM132 948h12v12h-12zM156 0h12v12h-12zM156 12h12v12h-12zM156 24h12v12h-12zM156 36h12v12h-12zM156 48h12v12h-12zM156 60h12v12h-12zM156 72h12v12h-12zM156 84h12v12h-12zM156 96h12v12h-12zM156 108h12v12h-12zM156 120h12v12h-12zM156 132h12v12h-12zM156 144h12v12h-12zM156 156h12v12h-12zM156 168h12v12h-12zM156 180h12v12h-12zM156 192h12v12h-12zM156 204h12v12h-12zM156 216h12v12h-12zM156 228h12v12h-12zM156 240h12v12h-12zM156 252h12v12h-12zM156 264h12v12h-12zM156 276h12v12h-12zM156 288h12v12h-12zM156 300h12v12h-12zM156 312h12v12h-12zM156 324h12v12h-12zM156 336h12v12h-12zM156 348h12v12h-12zM156 360h12v12h-12zM156 372h12v12h-12zM156 384h12v12h-12zM156 396h12v12h-12zM156 408h12v12h-12zM156 420h12v12h-12zM156 432h12v12h-12zM156 444h12v12h-12zM156 456h12v12h-12zM156 468h12v12h-12zM156 480h12v12h-12zM156 492h12v12h-12zM156 504h12v12h-12zM156 516h12v12h-12zM156 528h12v12h-12zM156 540h12v12h-12zM156 552h12v12h-12zM156 564h12v12h-12zM156 576h12v12h-12zM156 588h12v12h-12zM156 600h12v12h-12zM156 612h12v12h-12zM156 624h12v12h-12zM156 636h12v12h-12zM156 648h12v12h-12zM156 660h12v12h-12zM156 672h12v12h-12zM156 684h12v12h-12zM156 696h12v12h-12zM156 708h12v12h-12zM156 720h12v12h-12zM156 732h12v12h-12zM156 744h12v12h-12zM156 756h12v12h-12zM156 768h12v12h-12zM156 780h12v12h-12zM156 792h12v12h-12zM156 804h12v12h-12zM156 816h12v12h-12zM156 828h12v12h-12zM156 840h12v12h-12zM156 852h12v12h-12zM156 864h12v12h-12zM156 876h12v12h-12zM156 888h12v12h-12zM156 900h12v12h-12zM156 912h12v12h-12zM156 924h12v12h-12zM156 936h12v12h-12zM156 948h12v12h-12zM180 0h12v12h-12zM180 12h12v12h-12zM180 24h12v12h-12zM180 36h12v12h-12zM180 48h12v12h-12zM180 60h12v12h-12zM180 72h12v12h-12zM180 84h12v12h-12zM180 96h12v12h-12zM180 108h12v12h-12zM180 120h12v12h-12zM180 132h12v12h-12zM180 144h12v12h-12zM180 156h12v12h-12zM180 168h12v12h-12zM180 180h12v12h-12zM180 192h12v12h-12zM180 204h12v12h-12zM180 216h12v12h-12zM180 228h12v12h-12zM180 240h12v12h-12zM180 252h12v12h-12zM180 264h12v12h-12zM180 276h12v12h-12zM180 288h12v12h-12zM180 300h12v12h-12zM180 312h12v12h-12zM180 324h12v12h-12zM180 336h12v12h-12zM180 348h12v12h-12zM180 360h12v12h-12zM180 372h12v12h-12zM180 384h12v12h-12zM180 396h12v12h-12zM180 408h12v12h-12zM180 420h12v12h-12zM180 432h12v12h-12zM180 444h12v12h-12zM180 456h12v12h-12zM180 468h12v12h-12zM180 480h12v12h-12zM180 492h12v12h-12zM180 504h12v12h-12zM180 516h12v12h-12zM180 528h12v12h-12zM180 540h12v12h-12zM180 552h12v12h-12zM180 564h12v12h-12zM180 576h12v12h-12zM180 588h12v12h-12zM180 600h12v12h-12zM180 612h12v12h-12zM180 624h12v12h-12zM180 636h12v12h-12zM180 648h12v12h-12zM180 660h12v12h-12zM180 672h12v12h-12zM180 684h12v12h-12zM180 696h12v12h-12zM180 708h12v12h-12zM180 720h12v12h-12zM180 732h12v12h-12zM180 744h12v12h-12zM180 756h12v12h-12zM180 768h12v12h-12zM180 780h12v12h-12zM180 792h12v12h-12zM180 804h12v12h-12zM180 816h12v12h-12zM180 828h12v12h-12zM180 840h12v12h-12zM180 852h12v12h-12zM180 864h12v12h-12zM180 876h12v12h-12zM180 888h12v12h-12zM180 900h12v12h-12zM180 912h12v12h-12zM180 924h12v12h-12zM180 936h12v12h-12zM180 948h12v12h-12zM204 0h12v12h-12zM204 12h12v12h-12zM204 24h12v12h-12zM204 36h12v12h-12zM204 48h12v12h-12zM204 60h12v12h-12zM204 72h12v12h-12zM204 84h12v12h-12zM204 96h12v12h-12zM204 108h12v12h-12zM204 120h12v12h-12zM204 132h12v12h-12zM204 144h12v12h-12zM204 156h12v12h-12zM204 168h12v12h-12zM204 180h12v12h-12zM204 192h12v12h-12zM204 204h12v12h-12zM204 216h12v12h-12zM204 228h12v12h-12zM204 240h12v12h-12zM204 252h12v12h-12zM204 264h12v12h-12zM204 276h12v12h-12zM204 288h12v12h-12zM204 300h12v12h-12zM204 312h12v12h-12zM204 324h12v12h-12zM204 336h12v12h-12zM204 348h12v12h-12zM204 360h12v12h-12zM204 372h12v12h-12zM204 384h12v12h-12zM204 396h12v12h-12zM204 408h12v12h-12zM204 420h12v12h-12zM204 432h12v12h-12zM204 444h12v12h-12zM204 456h12v12h-12zM204 468h12v12h-12zM204 480h12v12h-12zM204 492h12v12h-12zM204 504h12v12h-12zM204 516h12v12h-12zM204 528h12v12h-12zM204 540h12v12h-12zM204 552h12v12h-12zM204 564h12v12h-12zM204 576h12v12h-12zM204 588h12v12h-12zM204 600h12v12h-12zM204 612h12v12h-12zM204 624h12v12h-12zM204 636h12v12h-12zM204 648h12v12h-12zM204 660h12v12h-12zM204 672h12v12h-12zM204 684h12v12h-12zM204 696h12v12h-12zM204 708h12v12h-12zM204 720h12v12h-12zM204 732h12v12h-12zM204 744h12v12h-12zM204 756h12v12h-12zM204 768h12v12h-12zM204 780h12v12h-12zM204 792h12v12h-12zM204 804h12v12h-12zM204 816h12v12h-12zM204 828h12v12h-12zM204 840h12v12h-12zM204 852h12v12h-12zM204 864h12v12h-12zM204 876h12v12h-12zM204 888h12v12h-12zM204 900h12v12h-12zM204 912h12v12h-12zM204 924h12v12h-12zM204 936h12v12h-12zM204 948h12v12h-12zM228 0h12v12h-12zM228 12h12v12h-12zM228 24h12v12h-12zM228 36h12v12h-12zM228 48h12v12h-12zM228 60h12v12h-12zM228 72h12v12h-12zM228 84h12v12h-12zM228 96h12v12h-12zM228 108h12v12h-12zM228 120h12v12h-12zM228 132h12v12h-12zM228 144h12v12h-12zM228 156h12v12h-12zM228 168h12v12h-12zM228 180h12v12h-12zM228 192h12v12h-12zM228 204h12v12h-12zM228 216h12v12h-12zM228 228h12v12h-12zM228 240h12v12h-12zM228 252h12v12h-12zM228 264h12v12h-12zM228 276h12v12h-12zM228 288h12v12h-12zM228 300h12v12h-12zM228 312h12v12h-12zM228 324h12v12h-12zM228 336h12v12h-12zM228 348h12v12h-12zM228 360h12v12h-12zM228 372h12v12h-12zM228 384h12v12h-12zM228 396h12v12h-12zM228 408h12v12h-12zM228 420h12v12h-12zM228 432h12v12h-12zM228 444h12v12h-12zM228 456h12v12h-12zM228 468h12v12h-12zM228 480h12v12h-12zM228 492h12v12h-12zM228 504h12v12h-12zM228 516h12v12h-12zM228 528h12v12h-12zM228 540h12v12h-12zM228 552h12v12h-12zM228 564h12v12h-12zM228 576h12v12h-12zM228 588h12v12h-12zM228 600h12v12h-12zM228 612h12v12h-12zM228 624h12v12h-12zM228 636h12v12h-12zM228 648h12v12h-12zM228 660h12v12h-12zM228 672h12v12h-12zM228 684h12v12h-12zM228 696h12v12h-12zM228 708h12v12h-12zM228 720h12v12h-12zM228 732h12v12h-12zM228 744h12v12h-12zM228 756h12v12h-12zM228 768h12v12h-12zM228 780h12v12h-12zM228 792h12v12h-12zM228 804h12v12h-12zM228 816h12v12h-12zM228 828h12v12h-12zM228 840h12v12h-12zM228 852h12v12h-12zM228 864h12v12h-12zM228 876h12v12h-12zM228 888h12v12h-12zM228 900h12v12h-12zM228 912h12v12h-12zM228 924h12v12h-12zM228 936h12v12h-12zM228 948h12v12h-12zM252 0h12v12h-12zM252 12h12v12h-12zM252 24h12v12h-12zM252 36h12v12h-12zM252 48h12v12h-12zM252 60h12v12h-12zM252 72h12v12h-12zM252 84h12v12h-12zM252 96h12v12h-12zM252 108h12v12h-12zM252 120h12v12h-12zM252 132h12v12h-12zM252 144h12v12h-12zM252 156h12v12h-12zM252 168h12v12h-12zM252 180h12v12h-12zM252 192h12v12h-12zM252 204h12v12h-12zM252 216h12v12h-12zM252 228h12v12h-12zM252 240h12v12h-12zM252 252h12v12h-12zM252 264h12v12h-12zM252 276h12v12h-12zM252 288h12v12h-12zM252 300h12v12h-12zM252 312h12v12h-12zM252 324h12v12h-12zM252 336h12v12h-12zM252 348h12v12h-12zM252 360h12v12h-12zM252 372h12v12h-12zM252 384h12v12h-12zM252 396h12v12h-12zM252 408h12v12h-12zM252 420h12v12h-12zM252 432h12v12h-12zM252 444h12v12h-12zM252 456h12v12h-12zM252 468h12v12h-12zM252 480h12v12h-12zM252 492h12v12h-12zM252 504h12v12h-12zM252 516h12v12h-12zM252 528h12v12h-12zM252 540h12v12h-12zM252 552h12v12h-12zM252 564h12v12h-12zM252 576h12v12h-12zM252 588h12v12h-12zM252 600h12v12h-12zM252 612h12v12h-12zM252 624h12v12h-12zM252 636h12v12h-12zM252 648h12v12h-12zM252 660h12v12h-12zM252 672h12v12h-12zM252 684h12v12h-12zM252 696h12v12h-12zM252 708h12v12h-12zM252 720h12v12h-12zM252 732h12v12h-12zM252 744h12v12h-12zM252 756h12v12h-12zM252 768h12v12h-12zM252 780h12v12h-12zM252 792h12v12h-12zM252 804h12v12h-12zM252 816h12v12h-12zM252 828h12v12h-12zM252 840h12v12h-12zM252 852h12v12h-12zM252 864h12v12h-12zM252 876h12v12h-12zM252 888h12v12h-12zM252 900h12v12h-12zM252 912h12v12h-12zM252 924h12v12h-12zM252 936h12v12h-12zM252 948h12v12h-12zM276 0h12v12h-12zM276 12h12v12h-12zM276 24h12v12h-12zM276 36h12v12h-12zM276 48h12v12h-12zM276 60h12v12h-12zM276 72h12v12h-12zM276 84h12v12h-12zM276 96h12v12h-12zM276 108h12v12h-12zM276 120h12v12h-12zM276 132h12v12h-12zM276 144h12v12h-12zM276 156h12v12h-12zM276 168h12v12h-12zM276 180h12v12h-12zM276 192h12v12h-12zM276 204h12v12h-12zM276 216h12v12h-12zM276 228h12v12h-12zM276 240h12v12h-12zM276 252h12v12h-12zM276 264h12v12h-12zM276 276h12v12h-12zM276 288h12v12h-12zM276 300h12v12h-12zM276 312h12v12h-12zM276 324h12v12h-12zM276 336h12v12h-12zM276 348h12v12h-12zM276 360h12v12h-12zM276 372h12v12h-12zM276 384h12v12h-12zM276 396h12v12h-12zM276 408h12v12h-12zM276 420h12v12h-12zM276 432h12v12h-12zM276 444h12v12h-12zM276 456h12v12h-12zM276 468h12v12h-12zM276 480h12v12h-12zM276 492h12v12h-12zM276 504h12v12h-12zM276 516h12v12h-12zM276 528h12v12h-12zM276 540h12v12h-12zM276 552h12v12h-12zM276 564h12v12h-12zM276 576h12v12h-12zM276 588h12v12h-12zM276 600h12v12h-12zM276 612h12v12h-12zM276 624h12v12h-12zM276 636h12v12h-12zM276 648h12v12h-12zM276 660h12v12h-12zM276 672h12v12h-12zM276 684h12v12h-12zM276 696h12v12h-12zM276 708h12v12h-12zM276 720h12v12h-12zM276 732h12v12h-12zM276 744h12v12h-12zM276 756h12v12h-12zM276 768h12v12h-12zM276 780h12v12h-12zM276 792h12v12h-12zM276 804h12v12h-12zM276 816h12v12h-12zM276 828h12v12h-12zM276 840h12v12h-12zM276 852h12v12h-12zM276 864h12v12h-12zM276 876h12v12h-12zM276 888h12v12h-12zM276 900h12v12h-12zM276 912h12v12h-12zM276 924h12v12h-12zM276 936h12v12h-12zM276 948h12v12h-12zM300 0h12v12h-12zM300 12h12v12h-12zM300 24h12v12h-12zM300 36h12v12h-12zM300 48h12v12h-12zM300 60h12v12h-12zM300 72h12v12h-12zM300 84h12v12h-12zM300 96h12v12h-12zM300 108h12v12h-12zM300 120h12v12h-12zM300 132h12v12h-12zM300 144h12v12h-12zM300 156h12v12h-12zM300 168h12v12h-12zM300 180h12v12h-12zM300 192h12v12h-12zM300 204h12v12h-12zM300 216h12v12h-12zM300 228h12v12h-12zM300 240h12v12h-12zM300 252h12v12h-12zM300 264h12v12h-12zM300 276h12v12h-12zM300 288h12v12h-12zM300 300h12v12h-12zM300 312h12v12h-12zM300 324h12v12h-12zM300 336h12v12h-12zM300 348h12v12h-12zM300 360h12v12h-12zM300 372h12v12h-12zM300 384h12v12h-12zM300 396h12v12h-12zM300 408h12v12h-12zM300 420h12v12h-12zM300 432h12v12h-12zM300 444h12v12h-12zM300 456h12v12h-12zM300 468h12v12h-12zM300 480h12v12h-12zM300 492h12v12h-12zM300 504h12v12h-12zM300 516h12v12h-12zM300 528h12v12h-12zM300 540h12v12h-12zM300 552h12v12h-12zM300 564h12v12h-12zM300 576h12v12h-12zM300 588h12v12h-12zM300 600h12v12h-12zM300 612h12v12h-12zM300 624h12v12h-12zM300 636h12v12h-12zM300 648h12v12h-12zM300 660h12v12h-12zM300 672h12v12h-12zM300 684h12v12h-12zM300 696h12v12h-12zM300 708h12v12h-12zM300 720h12v12h-12zM300 732h12v12h-12zM300 744h12v12h-12zM300 756h12v12h-12zM300 768h12v12h-12zM300 780h12v12h-12zM300 792h12v12h-12zM300 804h12v12h-12zM300 816h12v12h-12zM300 828h12v12h-12zM300 840h12v12h-12zM300 852h12v12h-12zM300 864h12v12h-12zM300 876h12v12h-12zM300 888h12v12h-12zM300 900h12v12h-12zM300 912h12v12h-12zM300 924h12v12h-12zM300 936h12v12h-12zM300 948h12v12h-12zM324 0h12v12h-12zM324 12h12v12h-12zM324 24h12v12h-12zM324 36h12v12h-12zM324 48h12v12h-12zM324 60h12v12h-12zM324 72h12v12h-12zM324 84h12v12h-12zM324 96h12v12h-12zM324 108h12v12h-12zM324 120h12v12h-12zM324 132h12v12h-12zM324 144h12v12h-12zM324 156h12v12h-12zM324 168h12v12h-12zM324 180h12v12h-12zM324 192h12v12h-12zM324 204h12v12h-12zM324 216h12v12h-12zM324 228h12v12h-12zM324 240h12v12h-12zM324 252h12v12h-12zM324 264h12v12h-12zM324 276h12v12h-12zM324 288h12v12h-12zM324 300h12v12h-12zM324 312h12v12h-12zM324 324h12v12h-12zM324 336h12v12h-12zM324 348h12v12h-12zM324 360h12v12h-12zM324 372h12v12h-12zM324 384h12v12h-12zM324 396h12v12h-12zM324 408h12v12h-12zM324 420h12v12h-12zM324 432h12v12h-12zM324 444h12v12h-12zM324 456h12v12h-12zM324 468h12v12h-12zM324 480h12v12h-12zM324 492h12v12h-12zM324 504h12v12h-12zM324 516h12v12h-12zM324 528h12v12h-12zM324 540h12v12h-12zM324 552h12v12h-12zM324 564h12v12h-12zM324 576h12v12h-12zM324 588h12v12h-12zM324 600h12v12h-12zM324 612h12v12h-12zM324 624h12v12h-12zM324 636h12v12h-12zM324 648h12v12h-12zM324 660h12v12h-12zM324 672h12v12h-12zM324 684h12v12h-12zM324 696h12v12h-12zM324 708h12v12h-12zM324 720h12v12h-12zM324 732h12v12h-12zM324 744h12v12h-12zM324 756h12v12h-12zM324 768h12v12h-12zM324 780h12v12h-12zM324 792h12v12h-12zM324 804h12v12h-12zM324 816h12v12h-12zM324 828h12v12h-12zM324 840h12v12h-12zM324 852h12v12h-12zM324 864h12v12h-12zM324 876h12v12h-12zM324 888h12v12h-12zM324 900h12v12h-12zM324 912h12v12h-12zM324 924h12v12h-12zM324 936h12v12h-12zM324 948h12v12h-12zM348 0h12v12h-12zM348 12h12v12h-12zM348 24h12v12h-12zM348 36h12v12h-12zM348 48h12v12h-12zM348 60h12v12h-12zM348 72h12v12h-12zM348 84h12v12h-12zM348 96h12v12h-12zM348 108h12v12h-12zM348 120h12v12h-12zM348 132h12v12h-12zM348 144h12v12h-12zM348 156h12v12h-12zM348 168h12v12h-12zM348 180h12v12h-12zM348 192h12v12h-12zM348 204h12v12h-12zM348 216h12v12h-12zM348 228h12v12h-12zM348 240h12v12h-12zM348 252h12v12h-12zM348 264h12v12h-12zM348 276h12v12h-12zM348 288h12v12h-12zM348 300h12v12h-12zM348 312h12v12h-12zM348 324h12v12h-12zM348 336h12v12h-12zM348 348h12v12h-12zM348 360h12v12h-12zM348 372h12v12h-12zM348 384h12v12h-12zM348 396h12v12h-12zM348 408h12v12h-12zM348 420h12v12h-12zM348 432h12v12h-12zM348 444h12v12h-12zM348 456h12v12h-12zM348 468h12v12h-12zM348 480h12v12h-12zM348 492h12v12h-12zM348 504h12v12h-12zM348 516h12v12h-12zM348 528h12v12h-12zM348 540h12v12h-12zM348 552h12v12h-12zM348 564h12v12h-12zM348 576h12v12h-12zM348 588h12v12h-12zM348 600h12v12h-12zM348 612h12v12h-12zM348 624h12v12h-12zM348 636h12v12h-12zM348 648h12v12h-12zM348 660h12v12h-12zM348 672h12v12h-12zM348 684h12v12h-12zM348 696h12v12h-12zM348 708h12v12h-12zM348 720h12v12h-12zM348 732h12v12h-12zM348 744h12v12h-12zM348 756h12v12h-12zM348 768h12v12h-12zM348 780h12v12h-12zM348 792h12v12h-12zM348 804h12v12h-12zM348 816h12v12h-12zM348 828h12v12h-12zM348 840h12v12h-12zM348 852h12v12h-12zM348 864h12v12h-12zM348 876h12v12h-12zM348 888h12v12h-12zM348 900h12v12h-12zM348 912h12v12h-12zM348 924h12v12h-12zM348 936h12v12h-12zM348 948h12v12h-12zM372 0h12v12h-12zM372 12h12v12h-12zM372 24h12v12h-12zM372 36h12v12h-12zM372 48h12v12h-12zM372 60h12v12h-12zM372 72h12v12h-12zM372 84h12v12h-12zM372 96h12v12h-12zM372 108h12v12h-12zM372 120h12v12h-12zM372 132h12v12h-12zM372 144h12v12h-12zM372 156h12v12h-12zM372 168h12v12h-12zM372 180h12v12h-12zM372 192h12v12h-12zM372 204h12v12h-12zM372 216h12v12h-12zM372 228h12v12h-12zM372 240h12v12h-12zM372 252h12v12h-12zM372 264h12v12h-12zM372 276h12v12h-12zM372 288h12v12h-12zM372 300h12v12h-12zM372 312h12v12h-12zM372 324h12v12h-12zM372 336h12v12h-12zM372 348h12v12h-12zM372 360h12v12h-12zM372 372h12v12h-12zM372 384h12v12h-12zM372 396h12v12h-12zM372 408h12v12h-12zM372 420h12v12h-12zM372 432h12v12h-12zM372 444h12v12h-12zM372 456h12v12h-12zM372 468h12v12h-12zM372 480h12v12h-12zM372 492h12v12h-12zM372 504h12v12h-12zM372 516h12v12h-12zM372 528h12v12h-12zM372 540h12v12h-12zM372 552h12v12h-12zM372 564h12v12h-12zM372 576h12v12h-12zM372 588h12v12h-12zM372 600h12v12h-12zM372 612h12v12h-12zM372 624h12v12h-12zM372 636h12v12h-12zM372 648h12v12h-12zM372 660h12v12h-12zM372 672h12v12h-12zM372 684h12v12h-12zM372 696h12v12h-12zM372 708h12v12h-12zM372 720h12v12h-12zM372 732h12v12h-12zM372 744h12v12h-12zM372 756h12v12h-12zM372 768h12v12h-12zM372 780h12v12h-12zM372 792h12v12h-12zM372 804h12v12h-12zM372 816h12v12h-12zM372 828h12v12h-12zM372 840h12v12h-12zM372 852h12v12h-12zM372 864h12v12h-12zM372 876h12v12h-12zM372 888h12v12h-12zM372 900h12v12h-12zM372 912h12v12h-12zM372 924h12v12h-12zM372 936h12v12h-12zM372 948h12v12h-12zM396 0h12v12h-12zM396 12h12v12h-12zM396 24h12v12h-12zM396 36h12v12h-12zM396 48h12v12h-12zM396 60h12v12h-12zM396 72h12v12h-12zM396 84h12v12h-12zM396 96h12v12h-12zM396 108h12v12h-12zM396 120h12v12h-12zM396 132h12v12h-12zM396 144h12v12h-12zM396 156h12v12h-12zM396 168h12v12h-12zM396 180h12v12h-12zM396 192h12v12h-12zM396 204h12v12h-12zM396 216h12v12h-12zM396 228h12v12h-12zM396 240h12v12h-12zM396 252h12v12h-12zM396 264h12v12h-12zM396 276h12v12h-12zM396 288h12v12h-12zM396 300h12v12h-12zM396 312h12v12h-12zM396 324h12v12h-12zM396 336h12v12h-12zM396 348h12v12h-12zM396 360h12v12h-12zM396 372h12v12h-12zM396 384h12v12h-12zM396 396h12v12h-12zM396 408h12v12h-12zM396 420h12v12h-12zM396 432h12v12h-12zM396 444h12v12h-12zM396 456h12v12h-12zM396 468h12v12h-12zM396 480h12v12h-12zM396 492h12v12h-12zM396 504h12v12h-12zM396 516h12v12h-12zM396 528h12v12h-12zM396 540h12v12h-12zM396 552h12v12h-12zM396 564h12v12h-12zM396 576h12v12h-12zM396 588h12v12h-12zM396 600h12v12h-12zM396 612h12v12h-12zM396 624h12v12h-12zM396 636h12v12h-12zM396 648h12v12h-12zM396 660h12v12h-12zM396 672h12v12h-12zM396 684h12v12h-12zM396 696h12v12h-12zM396 708h12v12h-12zM396 720h12v12h-12zM396 732h12v12h-12zM396 744h12v12h-12zM396 756h12v12h-12zM396 768h12v12h-12zM396 780h12v12h-12zM396 792h12v12h-12zM396 804h12v12h-12zM396 816h12v12h-12zM396 828h12v12h-12zM396 840h12v12h-12zM396 852h12v12h-12zM396 864h12v12h-12zM396 876h12v12h-12zM396 888h12v12h-12zM396 900h12v12h-12zM396 912h12v12h-12zM396 924h12v12h-12zM396 936h12v12h-12zM396 948h12v12h-12zM420 0h12v12h-12zM420 12h12v12h-12zM420 24h12v12h-12zM420 36h12v12h-12zM420 48h12v12h-12zM420 60h12v12h-12zM420 72h12v12h-12zM420 84h12v12h-12zM420 96h12v12h-12zM420 108h12v12h-12zM420 120h12v12h-12zM420 132h12v12h-12zM420 144h12v12h-12zM420 156h12v12h-12zM420 168h12v12h-12zM420 180h12v12h-12zM420 192h12v12h-12zM420 204h12v12h-12zM420 216h12v12h-12zM420 228h12v12h-12zM420 240h12v12h-12zM420 252h12v12h-12zM420 264h12v12h-12zM420 276h12v12h-12zM420 288h12v12h-12zM420 300h12v12h-12zM420 312h12v12h-12zM420 324h12v12h-12zM420 336h12v12h-12zM420 348h12v12h-12zM420 360h12v12h-12zM420 372h12v12h-12zM420 384h12v12h-12zM420 396h12v12h-12zM420 408h12v12h-12zM420 420h12v12h-12zM420 432h12v12h-12zM420 444h12v12h-12zM420 456h12v12h-12zM420 468h12v12h-12zM420 480h12v12h-12zM420 492h12v12h-12zM420 504h12v12h-12zM420 516h12v12h-12zM420 528h12v12h-12zM420 540h12v12h-12zM420 552h12v12h-12zM420 564h12v12h-12zM420 576h12v12h-12zM420 588h12v12h-12zM420 600h12v12h-12zM420 612h12v12h-12zM420 624h12v12h-12zM420 636h12v12h-12zM420 648h12v12h-12zM420 660h12v12h-12zM420 672h12v12h-12zM420 684h12v12h-12zM420 696h12v12h-12zM420 708h12v12h-12zM420 720h12v12h-12zM420 732h12v12h-12zM420 744h12v12h-12zM420 756h12v12h-12zM420 768h12v12h-12zM420 780h12v12h-12zM420 792h12v12h-12zM420 804h12v12h-12zM420 816h12v12h-12zM420 828h12v12h-12zM420 840h12v12h-12zM420 852h12v12h-12zM420 864h12v12h-12zM420 876h12v12h-12zM420 888h12v12h-12zM420 900h12v12h-12zM420 912h12v12h-12zM420 924h12v12h-12zM420 936h12v12h-12zM420 948h12v12h-12zM444 0h12v12h-12zM444 12h12v12h-12zM444 24h12v12h-12zM444 36h12v12h-12zM444 48h12v12h-12zM444 60h12v12h-12zM444 72h12v12h-12zM444 84h12v12h-12zM444 96h12v12h-12zM444 108h12v12h-12zM444 120h12v12h-12zM444 132h12v12h-12zM444 144h12v12h-12zM444 156h12v12h-12zM444 168h12v12h-12zM444 180h12v12h-12zM444 192h12v12h-12zM444 204h12v12h-12zM444 216h12v12h-12zM444 228h12v12h-12zM444 240h12v12h-12zM444 252h12v12h-12zM444 264h12v12h-12zM444 276h12v12h-12zM444 288h12v12h-12zM444 300h12v12h-12zM444 312h12v12h-12zM444 324h12v12h-12zM444 336h12v12h-12zM444 348h12v12h-12zM444 360h12v12h-12zM444 372h12v12h-12zM444 384h12v12h-12zM444 396h12v12h-12zM444 408h12v12h-12zM444 420h12v12h-12zM444 432h12v12h-12zM444 444h12v12h-12zM444 456h12v12h-12zM444 468h12v12h-12zM444 480h12v12h-12zM444 492h12v12h-12zM444 504h12v12h-12zM444 516h12v12h-12zM444 528h12v12h-12zM444 540h12v12h-12zM444 552h12v12h-12zM444 564h12v12h-12zM444 576h12v12h-12zM444 588h12v12h-12zM444 600h12v12h-12zM444 612h12v12h-12zM444 624h12v12h-12zM444 636h12v12h-12zM444 648h12v12h-12zM444 660h12v12h-12zM444 672h12v12h-12zM444 684h12v12h-12zM444 696h12v12h-12zM444 708h12v12h-12zM444 720h12v12h-12zM444 732h12v12h-12zM444 744h12v12h-12zM444 756h12v12h-12zM444 768h12v12h-12zM444 780h12v12h-12zM444 792h12v12h-12zM444 804h12v12h-12zM444 816h12v12h-12zM444 828h12v12h-12zM444 840h12v12h-12zM444 852h12v12h-12zM444 864h12v12h-12zM444 876h12v12h-12zM444 888h12v12h-12zM444 900h12v12h-12zM444 912h12v12h-12zM444 924h12v12h-12zM444 936h12v12h-12zM444 948h12v12h-12zM468 0h12v12h-12zM468 12h12v12h-12zM468 24h12v12h-12zM468 36h12v12h-12zM468 48h12v12h-12zM468 60h12v12h-12zM468 72h12v12h-12zM468 84h12v12h-12zM468 96h12v12h-12zM468 108h12v12h-12zM468 120h12v12h-12zM468 132h12v12h-12zM468 144h12v12h-12zM468 156h12v12h-12zM468 168h12v12h-12zM468 180h12v12h-12zM468 192h12v12h-12zM468 204h12v12h-12zM468 216h12v12h-12zM468 228h12v12h-12zM468 240h12v12h-12zM468 252h12v12h-12zM468 264h12v12h-12zM468 276h12v12h-12zM468 288h12v12h-12zM468 300h12v12h-12zM468 312h12v12h-12zM468 324h12v12h-12zM468 336h12v12h-12zM468 348h12v12h-12zM468 360h12v12h-12zM468 372h12v12h-12zM468 384h12v12h-12zM468 396h12v12h-12zM468 408h12v12h-12zM468 420h12v12h-12zM468 432h12v12h-12zM468 444h12v12h-12zM468 456h12v12h-12zM468 468h12v12h-12zM468 480h12v12h-12zM468 492h12v12h-12zM468 504h12v12h-12zM468 516h12v12h-12zM468 528h12v12h-12zM468 540h12v12h-12zM468 552h12v12h-12zM468 564h12v12h-12zM468 576h12v12h-12zM468 588h12v12h-12zM468 600h12v12h-12zM468 612h12v12h-12zM468 624h12v12h-12zM468 636h12v12h-12zM468 648h12v12h-12zM468 660h12v12h-12zM468 672h12v12h-12zM468 684h12v12h-12zM468 696h12v12h-12zM468 708h12v12h-12zM468 720h12v12h-12zM468 732h12v12h-12zM468 744h12v12h-12zM468 756h12v12h-12zM468 768h12v12h-12zM468 780h12v12h-12zM468 792h12v12h-12zM468 804h12v12h-12zM468 816h12v12h-12zM468 828h12v12h-12zM468 840h12v12h-12zM468 852h12v12h-12zM468 864h12v12h-12zM468 876h12v12h-12zM468 888h12v12h-12zM468 900h12v12h-12zM468 912h12v12h-12zM468 924h12v12h-12zM468 936h12v12h-12zM468 948h12v12h-12zM492 0h12v12h-12zM492 12h12v12h-12zM492 24h12v12h-12zM492 36h12v12h-12zM492 48h12v12h-12zM492 60h12v12h-12zM492 72h12v12h-12zM492 84h12v12h-12zM492 96h12v12h-12zM492 108h12v12h-12zM492 120h12v12h-12zM492 132h12v12h-12zM492 144h12v12h-12zM492 156h12v12h-12zM492 168h12v12h-12zM492 180h12v12h-12zM492 192h12v12h-12zM492 204h12v12h-12zM492 216h12v12h-12zM492 228h12v12h-12zM492 240h12v12h-12zM492 252h12v12h-12zM492 264h12v12h-12zM492 276h12v12h-12zM492 288h12v12h-12zM492 300h12v12h-12zM492 312h12v12h-12zM492 324h12v12h-12zM492 336h12v12h-12zM492 348h12v12h-12zM492 360h12v12h-12zM492 372h12v12h-12zM492 384h12v12h-12zM492 396h12v12h-12zM492 408h12v12h-12zM492 420h12v12h-12zM492 432h12v12h-12zM492 444h12v12h-12zM492 456h12v12h-12zM492 468h12v12h-12zM492 480h12v12h-12zM492 492h12v12h-12zM492 504h12v12h-12zM492 516h12v12h-12zM492 528h12v12h-12zM492 540h12v12h-12zM492 552h12v12h-12zM492 564h12v12h-12zM492 576h12v12h-12zM492 588h12v12h-12zM492 600h12v12h-12zM492 612h12v12h-12zM492 624h12v12h-12zM492 636h12v12h-12zM492 648h12v12h-12zM492 660h12v12h-12zM492 672h12v12h-12zM492 684h12v12h-12zM492 696h12v12h-12zM492 708h12v12h-12zM492 720h12v12h-12zM492 732h12v12h-12zM492 744h12v12h-12zM492 756h12v12h-12zM492 768h12v12h-12zM492 780h12v12h-12zM492 792h12v12h-12zM492 804h12v12h-12zM492 816h12v12h-12zM492 828h12v12h-12zM492 840h12v12h-12zM492 852h12v12h-12zM492 864h12v12h-12zM492 876h12v12h-12zM492 888h12v12h-12zM492 900h12v12h-12zM492 912h12v12h-12zM492 924h12v12h-12zM492 936h12v12h-12zM492 948h12v12h-12zM516 0h12v12h-12zM516 12h12v12h-12zM516 24h12v12h-12zM516 36h12v12h-12zM516 48h12v12h-12zM516 60h12v12h-12zM516 72h12v12h-12zM516 84h12v12h-12zM516 96h12v12h-12zM516 108h12v12h-12zM516 120h12v12h-12zM516 132h12v12h-12zM516 144h12v12h-12zM516 156h12v12h-12zM516 168h12v12h-12zM516 180h12v12h-12zM516 192h12v12h-12zM516 204h12v12h-12zM516 216h12v12h-12zM516 228h12v12h-12zM516 240h12v12h-12zM516 252h12v12h-12zM516 264h12v12h-12zM516 276h12v12h-12zM516 288h12v12h-12zM516 300h12v12h-12zM516 312h12v12h-12zM516 324h12v12h-12zM516 336h12v12h-12zM516 348h12v12h-12zM516 360h12v12h-12zM516 372h12v12h-12zM516 384h12v12h-12zM516 396h12v12h-12zM516 408h12v12h-12zM516 420h12v12h-12zM516 432h12v12h-12zM516 444h12v12h-12zM516 456h12v12h-12zM516 468h12v12h-12zM516 480h12v12h-12zM516 492h12v12h-12zM516 504h12v12h-12zM516 516h12v12h-12zM516 528h12v12h-12zM516 540h12v12h-12zM516 552h12v12h-12zM516 564h12v12h-12zM516 576h12v12h-12zM516 588h12v12h-12zM516 600h12v12h-12zM516 612h12v12h-12zM516 624h12v12h-12zM516 636h12v12h-12zM516 648h12v12h-12zM516 660h12v12h-12zM516 672h12v12h-12zM516 684h12v12h-12zM516 696h12v12h-12zM516 708h12v12h-12zM516 720h12v12h-12zM516 732h12v12h-12zM516 744h12v12h-12zM516 756h12v12h-12zM516 768h12v12h-12zM516 780h12v12h-12zM516 792h12v12h-12zM516 804h12v12h-12zM516 816h12v12h-12zM516 828h12v12h-12zM516 840h12v12h-12zM516 852h12v12h-12zM516 864h12v12h-12zM516 876h12v12h-12zM516 888h12v12h-12zM516 900h12v12h-12zM516 912h12v12h-12zM516 924h12v12h-12zM516 936h12v12h-12zM516 948h12v12h-12zM540 0h12v12h-12zM540 12h12v12h-12zM540 24h12v12h-12zM540 36h12v12h-12zM540 48h12v12h-12zM540 60h12v12h-12zM540 72h12v12h-12zM540 84h12v12h-12zM540 96h12v12h-12zM540 108h12v12h-12zM540 120h12v12h-12zM540 132h12v12h-12zM540 144h12v12h-12zM540 156h12v12h-12zM540 168h12v12h-12zM540 180h12v12h-12zM540 192h12v12h-12zM540 204h12v12h-12zM540 216h12v12h-12zM540 228h12v12h-12zM540 240h12v12h-12zM540 252h12v12h-12zM540 264h12v12h-12zM540 276h12v12h-12zM540 288h12v12h-12zM540 300h12v12h-12zM540 312h12v12h-12zM540 324h12v12h-12zM540 336h12v12h-12zM540 348h12v12h-12zM540 360h12v12h-12zM540 372h12v12h-12zM540 384h12v12h-12zM540 396h12v12h-12zM540 408h12v12h-12zM540 420h12v12h-12zM540 432h12v12h-12zM540 444h12v12h-12zM540 456h12v12h-12zM540 468h12v12h-12zM540 480h12v12h-12zM540 492h12v12h-12zM540 504h12v12h-12zM540 516h12v12h-12zM540 528h12v12h-12zM540 540h12v12h-12zM540 552h12v12h-12zM540 564h12v12h-12zM540 576h12v12h-12zM540 588h12v12h-12zM540 600h12v12h-12zM540 612h12v12h-12zM540 624h12v12h-12zM540 636h12v12h-12zM540 648h12v12h-12zM540 660h12v12h-12zM540 672h12v12h-12zM540 684h12v12h-12zM540 696h12v12h-12zM540 708h12v12h-12zM540 720h12v12h-12zM540 732h12v12h-12zM540 744h12v12h-12zM540 756h12v12h-12zM540 768h12v12h-12zM540 780h12v12h-12zM540 792h12v12h-12zM540 804h12v12h-12zM540 816h12v12h-12zM540 828h12v12h-12zM540 840h12v12h-12zM540 852h12v12h-12zM540 864h12v12h-12zM540 876h12v12h-12zM540 888h12v12h-12zM540 900h12v12h-12zM540 912h12v12h-12zM540 924h12v12h-12zM540 936h12v12h-12zM540 948h12v12h-12zM564 0h12v12h-12zM564 12h12v12h-12zM564 24h12v12h-12zM564 36h12v12h-12zM564 48h12v12h-12zM564 60h12v12h-12zM564 72h12v12h-12zM564 84h12v12h-12zM564 96h12v12h-12zM564 108h12v12h-12zM564 120h12v12h-12zM564 132h12v12h-12zM564 144h12v12h-12zM564 156h12v12h-12zM564 168h12v12h-12zM564 180h12v12h-12zM564 192h12v12h-12zM564 204h12v12h-12zM564 216h12v12h-12zM564 228h12v12h-12zM564 240h12v12h-12zM564 252h12v12h-12zM564 264h12v12h-12zM564 276h12v12h-12zM564 288h12v12h-12zM564 300h12v12h-12zM564 312h12v12h-12zM564 324h12v12h-12zM564 336h12v12h-12zM564 348h12v12h-12zM564 360h12v12h-12zM564 372h12v12h-12zM564 384h12v12h-12zM564 396h12v12h-12zM564 408h12v12h-12zM564 420h12v12h-12zM564 432h12v12h-12zM564 444h12v12h-12zM564 456h12v12h-12zM564 468h12v12h-12zM564 480h12v12h-12zM564 492h12v12h-12zM564 504h12v12h-12zM564 516h12v12h-12zM564 528h12v12h-12zM564 540h12v12h-12zM564 552h12v12h-12zM564 564h12v12h-12zM564 576h12v12h-12zM564 588h12v12h-12zM564 600h12v12h-12zM564 612h12v12h-12zM564 624h12v12h-12zM564 636h12v12h-12zM564 648h12v12h-12zM564 660h12v12h-12zM564 672h12v12h-12zM564 684h12v12h-12zM564 696h12v12h-12zM564 708h12v12h-12zM564 720h12v12h-12zM564 732h12v12h-12zM564 744h12v12h-12zM564 756h12v12h-12zM564 768h12v12h-12zM564 780h12v12h-12zM564 792h12v12h-12zM564 804h12v12h-12zM564 816h12v12h-12zM564 828h12v12h-12zM564 840h12v12h-12zM564 852h12v12h-12zM564 864h12v12h-12zM564 876h12v12h-12zM564 888h12v12h-12zM564 900h12v12h-12zM564 912h12v12h-12zM564 924h12v12h-12zM564 936h12v12h-12zM564 948h12v12h-12zM588 0h12v12h-12zM588 12h12v12h-12zM588 24h12v12h-12zM588 36h12v12h-12zM588 48h12v12h-12zM588 60h12v12h-12zM588 72h12v12h-12zM588 84h12v12h-12zM588 96h12v12h-12zM588 108h12v12h-12zM588 120h12v12h-12zM588 132h12v12h-12zM588 144h12v12h-12zM588 156h12v12h-12zM588 168h12v12h-12zM588 180h12v12h-12zM588 192h12v12h-12zM588 204h12v12h-12zM588 216h12v12h-12zM588 228h12v12h-12zM588 240h12v12h-12zM588 252h12v12h-12zM588 264h12v12h-12zM588 276h12v12h-12zM588 288h12v12h-12zM588 300h12v12h-12zM588 312h12v12h-12zM588 324h12v12h-12zM588 336h12v12h-12zM588 348h12v12h-12zM588 360h12v12h-12zM588 372h12v12h-12zM588 384h12v12h-12zM588 396h12v12h-12zM588 408h12v12h-12zM588 420h12v12h-12zM588 432h12v12h-12zM588 444h12v12h-12zM588 456h12v12h-12zM588 468h12v12h-12zM588 480h12v12h-12zM588 492h12v12h-12zM588 504h12v12h-12zM588 516h12v12h-12zM588 528h12v12h-12zM588 540h12v12h-12zM588 552h12v12h-12zM588 564h12v12h-12zM588 576h12v12h-12zM588 588h12v12h-12zM588 600h12v12h-12zM588 612h12v12h-12zM588 624h12v12h-12zM588 636h12v12h-12zM588 648h12v12h-12zM588 660h12v12h-12zM588 672h12v12h-12zM588 684h12v12h-12zM588 696h12v12h-12zM588 708h12v12h-12zM588 720h12v12h-12zM588 732h12v12h-12zM588 744h12v12h-12zM588 756h12v12h-12zM588 768h12v12h-12zM588 780h12v12h-12zM588 792h12v12h-12zM588 804h12v12h-12zM588 816h12v12h-12zM588 828h12v12h-12zM588 840h12v12h-12zM588 852h12v12h-12zM588 864h12v12h-12zM588 876h12v12h-12zM588 888h12v12h-12zM588 900h12v12h-12zM588 912h12v12h-12zM588 924h12v12h-12zM588 936h12v12h-12zM588 948h12v12h-12zM612 0h12v12h-12zM612 12h12v12h-12zM612 24h12v12h-12zM612 36h12v12h-12zM612 48h12v12h-12zM612 60h12v12h-12zM612 72h12v12h-12zM612 84h12v12h-12zM612 96h12v12h-12zM612 108h12v12h-12zM612 120h12v12h-12zM612 132h12v12h-12zM612 144h12v12h-12zM612 156h12v12h-12zM612 168h12v12h-12zM612 180h12v12h-12zM612 192h12v12h-12zM612 204h12v12h-12zM612 216h12v12h-12zM612 228h12v12h-12zM612 240h12v12h-12zM612 252h12v12h-12zM612 264h12v12h-12zM612 276h12v12h-12zM612 288h12v12h-12zM612 300h12v12h-12zM612 312h12v12h-12zM612 324h12v12h-12zM612 336h12v12h-12zM612 348h12v12h-12zM612 360h12v12h-12zM612 372h12v12h-12zM612 384h12v12h-12zM612 396h12v12h-12zM612 408h12v12h-12zM612 420h12v12h-12zM612 432h12v12h-12zM612 444h12v12h-12zM612 456h12v12h-12zM612 468h12v12h-12zM612 480h12v12h-12zM612 492h12v12h-12zM612 504h12v12h-12zM612 516h12v12h-12zM612 528h12v12h-12zM612 540h12v12h-12zM612 552h12v12h-12zM612 564h12v12h-12zM612 576h12v12h-12zM612 588h12v12h-12zM612 600h12v12h-12zM612 612h12v12h-12zM612 624h12v12h-12zM612 636h12v12h-12zM612 648h12v12h-12zM612 660h12v12h-12zM612 672h12v12h-12zM612 684h12v12h-12zM612 696h12v12h-12zM612 708h12v12h-12zM612 720h12v12h-12zM612 732h12v12h-12zM612 744h12v12h-12zM612 756h12v12h-12zM612 768h12v12h-12zM612 780h12v12h-12zM612 792h12v12h-12zM612 804h12v12h-12zM612 816h12v12h-12zM612 828h12v12h-12zM612 840h12v12h-12zM612 852h12v12h-12zM612 864h12v12h-12zM612 876h12v12h-12zM612 888h12v12h-12zM612 900h12v12h-12zM612 912h12v12h-12zM612 924h12v12h-12zM612 936h12v12h-12zM612 948h12v12h-12zM636 0h12v12h-12zM636 12h12v12h-12zM636 24h12v12h-12zM636 36h12v12h-12zM636 48h12v12h-12zM636 60h12v12h-12zM636 72h12v12h-12zM636 84h12v12h-12zM636 96h12v12h-12zM636 108h12v12h-12zM636 120h12v12h-12zM636 132h12v12h-12zM636 144h12v12h-12zM636 156h12v12h-12zM636 168h12v12h-12zM636 180h12v12h-12zM636 192h12v12h-12zM636 204h12v12h-12zM636 216h12v12h-12zM636 228h12v12h-12zM636 240h12v12h-12zM636 252h12v12h-12zM636 264h12v12h-12zM636 276h12v12h-12zM636 288h12v12h-12zM636 300h12v12h-12zM636 312h12v12h-12zM636 324h12v12h-12zM636 336h12v12h-12zM636 348h12v12h-12zM636 360h12v12h-12zM636 372h12v12h-12zM636 384h12v12h-12zM636 396h12v12h-12zM636 408h12v12h-12zM636 420h12v12h-12zM636 432h12v12h-12zM636 444h12v12h-12zM636 456h12v12h-12zM636 468h12v12h-12zM636 480h12v12h-12zM636 492h12v12h-12zM636 504h12v12h-12zM636 516h12v12h-12zM636 528h12v12h-12zM636 540h12v12h-12zM636 552h12v12h-12zM636 564h12v12h-12zM636 576h12v12h-12zM636 588h12v12h-12zM636 600h12v12h-12zM636 612h12v12h-12zM636 624h12v12h-12zM636 636h12v12h-12zM636 648h12v12h-12zM636 660h12v12h-12zM636 672h12v12h-12zM636 684h12v12h-12zM636 696h12v12h-12zM636 708h12v12h-12zM636 720h12v12h-12zM636 732h12v12h-12zM636 744h12v12h-12zM636 756h12v12h-12zM636 768h12v12h-12zM636 780h12v12h-12zM636 792h12v12h-12zM636 804h12v12h-12zM636 816h12v12h-12zM636 828h12v12h-12zM636 840h12v12h-12zM636 852h12v12h-12zM636 864h12v12h-12zM636 876h12v12h-12zM636 888h12v12h-12zM636 900h12v12h-12zM636 912h12v12h-12zM636 924h12v12h-12zM636 936h12v12h-12zM636 948h12v12h-12zM660 0h12v12h-12zM660 12h12v12h-12zM660 24h12v12h-12zM660 36h12v12h-12zM660 48h12v12h-12zM660 60h12v12h-12zM660 72h12v12h-12zM660 84h12v12h-12zM660 96h12v12h-12zM660 108h12v12h-12zM660 120h12v12h-12zM660 132h12v12h-12zM660 144h12v12h-12zM660 156h12v12h-12zM660 168h12v12h-12zM660 180h12v12h-12zM660 192h12v12h-12zM660 204h12v12h-12zM660 216h12v12h-12zM660 228h12v12h-12zM660 240h12v12h-12zM660 252h12v12h-12zM660 264h12v12h-12zM660 276h12v12h-12zM660 288h12v12h-12zM660 300h12v12h-12zM660 312h12v12h-12zM660 324h12v12h-12zM660 336h12v12h-12zM660 348h12v12h-12zM660 360h12v12h-12zM660 372h12v12h-12zM660 384h12v12h-12zM660 396h12v12h-12zM660 408h12v12h-12zM660 420h12v12h-12zM660 432h12v12h-12zM660 444h12v12h-12zM660 456h12v12h-12zM660 468h12v12h-12zM660 480h12v12h-12zM660 492h12v12h-12zM660 504h12v12h-12zM660 516h12v12h-12zM660 528h12v12h-12zM660 540h12v12h-12zM660 552h12v12h-12zM660 564h12v12h-12zM660 576h12v12h-12zM660 588h12v12h-12zM660 600h12v12h-12zM660 612h12v12h-12zM660 624h12v12h-12zM660 636h12v12h-12zM660 648h12v12h-12zM660 660h12v12h-12zM660 672h12v12h-12zM660 684h12v12h-12zM660 696h12v12h-12zM660 708h12v12h-12zM660 720h12v12h-12zM660 732h12v12h-12zM660 744h12v12h-12zM660 756h12v12h-12zM660 768h12v12h-12zM660 780h12v12h-12zM660 792h12v12h-12zM660 804h12v12h-12zM660 816h12v12h-12zM660 828h12v12h-12zM660 840h12v12h-12zM660 852h12v12h-12zM660 864h12v12h-12zM660 876h12v12h-12zM660 888h12v12h-12zM660 900h12v12h-12zM660 912h12v12h-12zM660 924h12v12h-12zM660 936h12v12h-12zM660 948h12v12h-12zM684 0h12v12h-12zM684 12h12v12h-12zM684 24h12v12h-12zM684 36h12v12h-12zM684 48h12v12h-12zM684 60h12v12h-12zM684 72h12v12h-12zM684 84h12v12h-12zM684 96h12v12h-12zM684 108h12v12h-12zM684 120h12v12h-12zM684 132h12v12h-12zM684 144h12v12h-12zM684 156h12v12h-12zM684 168h12v12h-12zM684 180h12v12h-12zM684 192h12v12h-12zM684 204h12v12h-12zM684 216h12v12h-12zM684 228h12v12h-12zM684 240h12v12h-12zM684 252h12v12h-12zM684 264h12v12h-12zM684 276h12v12h-12zM684 288h12v12h-12zM684 300h12v12h-12zM684 312h12v12h-12zM684 324h12v12h-12zM684 336h12v12h-12zM684 348h12v12h-12zM684 360h12v12h-12zM684 372h12v12h-12zM684 384h12v12h-12zM684 396h12v12h-12zM684 408h12v12h-12zM684 420h12v12h-12zM684 432h12v12h-12zM684 444h12v12h-12zM684 456h12v12h-12zM684 468h12v12h-12zM684 480h12v12h-12zM684 492h12v12h-12zM684 504h12v12h-12zM684 516h12v12h-12zM684 528h12v12h-12zM684 540h12v12h-12zM684 552h12v12h-12zM684 564h12v12h-12zM684 576h12v12h-12zM684 588h12v12h-12zM684 600h12v12h-12zM684 612h12v12h-12zM684 624h12v12h-12zM684 636h12v12h-12zM684 648h12v12h-12zM684 660h12v12h-12zM684 672h12v12h-12zM684 684h12v12h-12zM684 696h12v12h-12zM684 708h12v12h-12zM684 720h12v12h-12zM684 732h12v12h-12zM684 744h12v12h-12zM684 756h12v12h-12zM684 768h12v12h-12zM684 780h12v12h-12zM684 792h12v12h-12zM684 804h12v12h-12zM684 816h12v12h-12zM684 828h12v12h-12zM684 840h12v12h-12zM684 852h12v12h-12zM684 864h12v12h-12zM684 876h12v12h-12zM684 888h12v12h-12zM684 900h12v12h-12zM684 912h12v12h-12zM684 924h12v12h-12zM684 936h12v12h-12zM684 948h12v12h-12zM708 0h12v12h-12zM708 12h12v12h-12zM708 24h12v12h-12zM708 36h12v12h-12zM708 48h12v12h-12zM708 60h12v12h-12zM708 72h12v12h-12zM708 84h12v12h-12zM708 96h12v12h-12zM708 108h12v12h-12zM708 120h12v12h-12zM708 132h12v12h-12zM708 144h12v12h-12zM708 156h12v12h-12zM708 168h12v12h-12zM708 180h12v12h-12zM708 192h12v12h-12zM708 204h12v12h-12zM708 216h12v12h-12zM708 228h12v12h-12zM708 240h12v12h-12zM708 252h12v12h-12zM708 264h12v12h-12zM708 276h12v12h-12zM708 288h12v12h-12zM708 300h12v12h-12zM708 312h12v12h-12zM708 324h12v12h-12zM708 336h12v12h-12zM708 348h12v12h-12zM708 360h12v12h-12zM708 372h12v12h-12zM708 384h12v12h-12zM708 396h12v12h-12zM708 408h12v12h-12zM708 420h12v12h-12zM708 432h12v12h-12zM708 444h12v12h-12zM708 456h12v12h-12zM708 468h12v12h-12zM708 480h12v12h-12zM708 492h12v12h-12zM708 504h12v12h-12zM708 516h12v12h-12zM708 528h12v12h-12zM708 540h12v12h-12zM708 552h12v12h-12zM708 564h12v12h-12zM708 576h12v12h-12zM708 588h12v12h-12zM708 600h12v12h-12zM708 612h12v12h-12zM708 624h12v12h-12zM708 636h12v12h-12zM708 648h12v12h-12zM708 660h12v12h-12zM708 672h12v12h-12zM708 684h12v12h-12zM708 696h12v12h-12zM708 708h12v12h-12zM708 720h12v12h-12zM708 732h12v12h-12zM708 744h12v12h-12zM708 756h12v12h-12zM708 768h12v12h-12zM708 780h12v12h-12zM708 792h12v12h-12zM708 804h12v12h-12zM708 816h12v12h-12zM708 828h12v12h-12zM708 840h12v12h-12zM708 852h12v12h-12zM708 864h12v12h-12zM708 876h12v12h-12zM708 888h12v12h-12zM708 900h12v12h-12zM708 912h12v12h-12zM708 924h12v12h-12zM708 936h12v12h-12zM708 948h12v12h-12zM732 0h12v12h-12zM732 12h12v12h-12zM732 24h12v12h-12zM732 36h12v12h-12zM732 48h12v12h-12zM732 60h12v12h-12zM732 72h12v12h-12zM732 84h12v12h-12zM732 96h12v12h-12zM732 108h12v12h-12zM732 120h12v12h-12zM732 132h12v12h-12zM732 144h12v12h-12zM732 156h12v12h-12zM732 168h12v12h-12zM732 180h12v12h-12zM732 192h12v12h-12zM732 204h12v12h-12zM732 216h12v12h-12zM732 228h12v12h-12zM732 240h12v12h-12zM732 252h12v12h-12zM732 264h12v12h-12zM732 276h12v12h-12zM732 288h12v12h-12zM732 300h12v12h-12zM732 312h12v12h-12zM732 324h12v12h-12zM732 336h12v12h-12zM732 348h12v12h-12zM732 360h12v12h-12zM732 372h12v12h-12zM732 384h12v12h-12zM732 396h12v12h-12zM732 408h12v12h-12zM732 420h12v12h-12zM732 432h12v12h-12zM732 444h12v12h-12zM732 456h12v12h-12zM732 468h12v12h-12zM732 480h12v12h-12zM732 492h12v12h-12zM732 504h12v12h-12zM732 516h12v12h-12zM732 528h12v12h-12zM732 540h12v12h-12zM732 552h12v12h-12zM732 564h12v12h-12zM732 576h12v12h-12zM732 588h12v12h-12zM732 600h12v12h-12zM732 612h12v12h-12zM732 624h12v12h-12zM732 636h12v12h-12zM732 648h12v12h-12zM732 660h12v12h-12zM732 672h12v12h-12zM732 684h12v12h-12zM732 696h12v12h-12zM732 708h12v12h-12zM732 720h12v12h-12zM732 732h12v12h-12zM732 744h12v12h-12zM732 756h12v12h-12zM732 768h12v12h-12zM732 780h12v12h-12zM732 792h12v12h-12zM732 804h12v12h-12zM732 816h12v12h-12zM732 828h12v12h-12zM732 840h12v12h-12zM732 852h12v12h-12zM732 864h12v12h-12zM732 876h12v12h-12zM732 888h12v12h-12zM732 900h12v12h-12zM732 912h12v12h-12zM732 924h12v12h-12zM732 936h12v12h-12zM732 948h12v12h-12zM756 0h12v12h-12zM756 12h12v12h-12zM756 24h12v12h-12zM756 36h12v12h-12zM756 48h12v12h-12zM756 60h12v12h-12zM756 72h12v12h-12zM756 84h12v12h-12zM756 96h12v12h-12zM756 108h12v12h-12zM756 120h12v12h-12zM756 132h12v12h-12zM756 144h12v12h-12zM756 156h12v12h-12zM756 168h12v12h-12zM756 180h12v12h-12zM756 192h12v12h-12zM756 204h12v12h-12zM756 216h12v12h-12zM756 228h12v12h-12zM756 240h12v12h-12zM756 252h12v12h-12zM756 264h12v12h-12zM756 276h12v12h-12zM756 288h12v12h-12zM756 300h12v12h-12zM756 312h12v12h-12zM756 324h12v12h-12zM756 336h12v12h-12zM756 348h12v12h-12zM756 360h12v12h-12zM756 372h12v12h-12zM756 384h12v12h-12zM756 396h12v12h-12zM756 408h12v12h-12zM756 420h12v12h-12zM756 432h12v12h-12zM756 444h12v12h-12zM756 456h12v12h-12zM756 468h12v12h-12zM756 480h12v12h-12zM756 492h12v12h-12zM756 504h12v12h-12zM756 516h12v12h-12zM756 528h12v12h-12zM756 540h12v12h-12zM756 552h12v12h-12zM756 564h12v12h-12zM756 576h12v12h-12zM756 588h12v12h-12zM756 600h12v12h-12zM756 612h12v12h-12zM756 624h12v12h-12zM756 636h12v12h-12zM756 648h12v12h-12zM756 660h12v12h-12zM756 672h12v12h-12zM756 684h12v12h-12zM756 696h12v12h-12zM756 708h12v12h-12zM756 720h12v12h-12zM756 732h12v12h-12zM756 744h12v12h-12zM756 756h12v12h-12zM756 768h12v12h-12zM756 780h12v12h-12zM756 792h12v12h-12zM756 804h12v12h-12zM756 816h12v12h-12zM756 828h12v12h-12zM756 840h12v12h-12zM756 852h12v12h-12zM756 864h12v12h-12zM756 876h12v12h-12zM756 888h12v12h-12zM756 900h12v12h-12zM756 912h12v12h-12zM756 924h12v12h-12zM756 936h12v12h-12zM756 948h12v12h-12zM780 0h12v12h-12zM780 12h12v12h-12zM780 24h12v12h-12zM780 36h12v12h-12zM780 48h12v12h-12zM780 60h12v12h-12zM780 72h12v12h-12zM780 84h12v12h-12zM780 96h12v12h-12zM780 108h12v12h-12zM780 120h12v12h-12zM780 132h12v12h-12zM780 144h12v12h-12zM780 156h12v12h-12zM780 168h12v12h-12zM780 180h12v12h-12zM780 192h12v12h-12zM780 204h12v12h-12zM780 216h12v12h-12zM780 228h12v12h-12zM780 240h12v12h-12zM780 252h12v12h-12zM780 264h12v12h-12zM780 276h12v12h-12zM780 288h12v12h-12zM780 300h12v12h-12zM780 312h12v12h-12zM780 324h12v12h-12zM780 336h12v12h-12zM780 348h12v12h-12zM780 360h12v12h-12zM780 372h12v12h-12zM780 384h12v12h-12zM780 396h12v12h-12zM780 408h12v12h-12zM780 420h12v12h-12zM780 432h12v12h-12zM780 444h12v12h-12zM780 456h12v12h-12zM780 468h12v12h-12zM780 480h12v12h-12zM780 492h12v12h-12zM780 504h12v12h-12zM780 516h12v12h-12zM780 528h12v12h-12zM780 540h12v12h-12zM780 552h12v12h-12zM780 564h12v12h-12zM780 576h12v12h-12zM780 588h12v12h-12zM780 600h12v12h-12zM780 612h12v12h-12zM780 624h12v12h-12zM780 636h12v12h-12zM780 648h12v12h-12zM780 660h12v12h-12zM780 672h12v12h-12zM780 684h12v12h-12zM780 696h12v12h-12zM780 708h12v12h-12zM780 720h12v12h-12zM780 732h12v12h-12zM780 744h12v12h-12zM780 756h12v12h-12zM780 768h12v12h-12zM780 780h12v12h-12zM780 792h12v12h-12zM780 804h12v12h-12zM780 816h12v12h-12zM780 828h12v12h-12zM780 840h12v12h-12zM780 852h12v12h-12zM780 864h12v12h-12zM780 876h12v12h-12zM780 888h12v12h-12zM780 900h12v12h-12zM780 912h12v12h-12zM780 924h12v12h-12zM780 936h12v12h-12zM780 948h12v12h-12zM804 0h12v12h-12zM804 12h12v12h-12zM804 24h12v12h-12zM804 36h12v12h-12zM804 48h12v12h-12zM804 60h12v12h-12zM804 72h12v12h-12zM804 84h12v12h-12zM804 96h12v12h-12zM804 108h12v12h-12zM804 120h12v12h-12zM804 132h12v12h-12zM804 144h12v12h-12zM804 156h12v12h-12zM804 168h12v12h-12zM804 180h12v12h-12zM804 192h12v12h-12zM804 204h12v12h-12zM804 216h12v12h-12zM804 228h12v12h-12zM804 240h12v12h-12zM804 252h12v12h-12zM804 264h12v12h-12zM804 276h12v12h-12zM804 288h12v12h-12zM804 300h12v12h-12zM804 312h12v12h-12zM804 324h12v12h-12zM804 336h12v12h-12zM804 348h12v12h-12zM804 360h12v12h-12zM804 372h12v12h-12zM804 384h12v12h-12zM804 396h12v12h-12zM804 408h12v12h-12zM804 420h12v12h-12zM804 432h12v12h-12zM804 444h12v12h-12zM804 456h12v12h-12zM804 468h12v12h-12zM804 480h12v12h-12zM804 492h12v12h-12zM804 504h12v12h-12zM804 516h12v12h-12zM804 528h12v12h-12zM804 540h12v12h-12zM804 552h12v12h-12zM804 564h12v12h-12zM804 576h12v12h-12zM804 588h12v12h-12zM804 600h12v12h-12zM804 612h12v12h-12zM804 624h12v12h-12zM804 636h12v12h-12zM804 648h12v12h-12zM804 660h12v12h-12zM804 672h12v12h-12zM804 684h12v12h-12zM804 696h12v12h-12zM804 708h12v12h-12zM804 720h12v12h-12zM804 732h12v12h-12zM804 744h12v12h-12zM804 756h12v12h-12zM804 768h12v12h-12zM804 780h12v12h-12zM804 792h12v12h-12zM804 804h12v12h-12zM804 816h12v12h-12zM804 828h12v12h-12zM804 840h12v12h-12zM804 852h12v12h-12zM804 864h12v12h-12zM804 876h12v12h-12zM804 888h12v12h-12zM804 900h12v12h-12zM804 912h12v12h-12zM804 924h12v12h-12zM804 936h12v12h-12zM804 948h12v12h-12zM828 0h12v12h-12zM828 12h12v12h-12zM828 24h12v12h-12zM828 36h12v12h-12zM828 48h12v12h-12zM828 60h12v12h-12zM828 72h12v12h-12zM828 84h12v12h-12zM828 96h12v12h-12zM828 108h12v12h-12zM828 120h12v12h-12zM828 132h12v12h-12zM828 144h12v12h-12zM828 156h12v12h-12zM828 168h12v12h-12zM828 180h12v12h-12zM828 192h12v12h-12zM828 204h12v12h-12zM828 216h12v12h-12zM828 228h12v12h-12zM828 240h12v12h-12zM828 252h12v12h-12zM828 264h12v12h-12zM828 276h12v12h-12zM828 288h12v12h-12zM828 300h12v12h-12zM828 312h12v12h-12zM828 324h12v12h-12zM828 336h12v12h-12zM828 348h12v12h-12zM828 360h12v12h-12zM828 372h12v12h-12zM828 384h12v12h-12zM828 396h12v12h-12zM828 408h12v12h-12zM828 420h12v12h-12zM828 432h12v12h-12zM828 444h12v12h-12zM828 456h12v12h-12zM828 468h12v12h-12zM828 480h12v12h-12zM828 492h12v12h-12zM828 504h12v12h-12zM828 516h12v12h-12zM828 528h12v12h-12zM828 540h12v12h-12zM828 552h12v12h-12zM828 564h12v12h-12zM828 576h12v12h-12zM828 588h12v12h-12zM828 600h12v12h-12zM828 612h12v12h-12zM828 624h12v12h-12zM828 636h12v12h-12zM828 648h12v12h-12zM828 660h12v12h-12zM828 672h12v12h-12zM828 684h12v12h-12zM828 696h12v12h-12zM828 708h12v12h-12zM828 720h12v12h-12zM828 732h12v12h-12zM828 744h12v12h-12zM828 756h12v12h-12zM828 768h12v12h-12zM828 780h12v12h-12zM828 792h12v12h-12zM828 804h12v12h-12zM828 816h12v12h-12zM828 828h12v12h-12zM828 840h12v12h-12zM828 852h12v12h-12zM828 864h12v12h-12zM828 876h12v12h-12zM828 888h12v12h-12zM828 900h12v12h-12zM828 912h12v12h-12zM828 924h12v12h-12zM828 936h12v12h-12zM828 948h12v12h-12zM852 0h12v12h-12zM852 12h12v12h-12zM852 24h12v12h-12zM852 36h12v12h-12zM852 48h12v12h-12zM852 60h12v12h-12zM852 72h12v12h-12zM852 84h12v12h-12zM852 96h12v12h-12zM852 108h12v12h-12zM852 120h12v12h-12zM852 132h12v12h-12zM852 144h12v12h-12zM852 156h12v12h-12zM852 168h12v12h-12zM852 180h12v12h-12zM852 192h12v12h-12zM852 204h12v12h-12zM852 216h12v12h-12zM852 228h12v12h-12zM852 240h12v12h-12zM852 252h12v12h-12zM852 264h12v12h-12zM852 276h12v12h-12zM852 288h12v12h-12zM852 300h12v12h-12zM852 312h12v12h-12zM852 324h12v12h-12zM852 336h12v12h-12zM852 348h12v12h-12zM852 360h12v12h-12zM852 372h12v12h-12zM852 384h12v12h-12zM852 396h12v12h-12zM852 408h12v12h-12zM852 420h12v12h-12zM852 432h12v12h-12zM852 444h12v12h-12zM852 456h12v12h-12zM852 468h12v12h-12zM852 480h12v12h-12zM852 492h12v12h-12zM852 504h12v12h-12zM852 516h12v12h-12zM852 528h12v12h-12zM852 540h12v12h-12zM852 552h12v12h-12zM852 564h12v12h-12zM852 576h12v12h-12zM852 588h12v12h-12zM852 600h12v12h-12zM852 612h12v12h-12zM852 624h12v12h-12zM852 636h12v12h-12zM852 648h12v12h-12zM852 660h12v12h-12zM852 672h12v12h-12zM852 684h12v12h-12zM852 696h12v12h-12zM852 708h12v12h-12zM852 720h12v12h-12zM852 732h12v12h-12zM852 744h12v12h-12zM852 756h12v12h-12zM852 768h12v12h-12zM852 780h12v12h-12zM852 792h12v12h-12zM852 804h12v12h-12zM852 816h12v12h-12zM852 828h12v12h-12zM852 840h12v12h-12zM852 852h12v12h-12zM852 864h12v12h-12zM852 876h12v12h-12zM852 888h12v12h-12zM852 900h12v12h-12zM852 912h12v12h-12zM852 924h12v12h-12zM852 936h12v12h-12zM852 948h12v12h-12zM876 0h12v12h-12zM876 12h12v12h-12zM876 24h12v12h-12zM876 36h12v12h-12zM876 48h12v12h-12zM876 60h12v12h-12zM876 72h12v12h-12zM876 84h12v12h-12zM876 96h12v12h-12zM876 108h12v12h-12zM876 120h12v12h-12zM876 132h12v12h-12zM876 144h12v12h-12zM876 156h12v12h-12zM876 168h12v12h-12zM876 180h12v12h-12zM876 192h12v12h-12zM876 204h12v12h-12zM876 216h12v12h-12zM876 228h12v12h-12zM876 240h12v12h-12zM876 252h12v12h-12zM876 264h12v12h-12zM876 276h12v12h-12zM876 288h12v12h-12zM876 300h12v12h-12zM876 312h12v12h-12zM876 324h12v12h-12zM876 336h12v12h-12zM876 348h12v12h-12zM876 360h12v12h-12zM876 372h12v12h-12zM876 384h12v12h-12zM876 396h12v12h-12zM876 408h12v12h-12zM876 420h12v12h-12zM876 432h12v12h-12zM876 444h12v12h-12zM876 456h12v12h-12zM876 468h12v12h-12zM876 480h12v12h-12zM876 492h12v12h-12zM876 504h12v12h-12zM876 516h12v12h-12zM876 528h12v12h-12zM876 540h12v12h-12zM876 552h12v12h-12zM876 564h12v12h-12zM876 576h12v12h-12zM876 588h12v12h-12zM876 600h12v12h-12zM876 612h12v12h-12zM876 624h12v12h-12zM876 636h12v12h-12zM876 648h12v12h-12zM876 660h12v12h-12zM876 672h12v12h-12zM876 684h12v12h-12zM876 696h12v12h-12zM876 708h12v12h-12zM876 720h12v12h-12zM876 732h12v12h-12zM876 744h12v12h-12zM876 756h12v12h-12zM876 768h12v12h-12zM876 780h12v12h-12zM876 792h12v12h-12zM876 804h12v12h-12zM876 816h12v12h-12zM876 828h12v12h-12zM876 840h12v12h-12zM876 852h12v12h-12zM876 864h12v12h-12zM876 876h12v12h-12zM876 888h12v12h-12zM876 900h12v12h-12zM876 912h12v12h-12zM876 924h12v12h-12zM876 936h12v12h-12zM876 948h12v12h-12zM900 0h12v12h-12zM900 12h12v12h-12zM900 24h12v12h-12zM900 36h12v12h-12zM900 48h12v12h-12zM900 60h12v12h-12zM900 72h12v12h-12zM900 84h12v12h-12zM900 96h12v12h-12zM900 108h12v12h-12zM900 120h12v12h-12zM900 132h12v12h-12zM900 144h12v12h-12zM900 156h12v12h-12zM900 168h12v12h-12zM900 180h12v12h-12zM900 192h12v12h-12zM900 204h12v12h-12zM900 216h12v12h-12zM900 228h12v12h-12zM900 240h12v12h-12zM900 252h12v12h-12zM900 264h12v12h-12zM900 276h12v12h-12zM900 288h12v12h-12zM900 300h12v12h-12zM900 312h12v12h-12zM900 324h12v12h-12zM900 336h12v12h-12zM900 348h12v12h-12zM900 360h12v12h-12zM900 372h12v12h-12zM900 384h12v12h-12zM900 396h12v12h-12zM900 408h12v12h-12zM900 420h12v12h-12zM900 432h12v12h-12zM900 444h12v12h-12zM900 456h12v12h-12zM900 468h12v12h-12zM900 480h12v12h-12zM900 492h12v12h-12zM900 504h12v12h-12zM900 516h12v12h-12zM900 528h12v12h-12zM900 540h12v12h-12zM900 552h12v12h-12zM900 564h12v12h-12zM900 576h12v12h-12zM900 588h12v12h-12zM900 600h12v12h-12zM900 612h12v12h-12zM900 624h12v12h-12zM900 636h12v12h-12zM900 648h12v12h-12zM900 660h12v12h-12zM900 672h12v12h-12zM900 684h12v12h-12zM900 696h12v12h-12zM900 708h12v12h-12zM900 720h12v12h-12zM900 732h12v12h-12zM900 744h12v12h-12zM900 756h12v12h-12zM900 768h12v12h-12zM900 780h12v12h-12zM900 792h12v12h-12zM900 804h12v12h-12zM900 816h12v12h-12zM900 828h12v12h-12zM900 840h12v12h-12zM900 852h12v12h-12zM900 864h12v12h-12zM900 876h12v12h-12zM900 888h12v12h-12zM900 900h12v12h-12zM900 912h12v12h-12zM900 924h12v12h-12zM900 936h12v12h-12zM900 948h12v12h-12zM924 0h12v12h-12zM924 12h12v12h-12zM924 24h12v12h-12zM924 36h12v12h-12zM924 48h12v12h-12zM924 60h12v12h-12zM924 72h12v12h-12zM924 84h12v12h-12zM924 96h12v12h-12zM924 108h12v12h-12zM924 120h12v12h-12zM924 132h12v12h-12zM924 144h12v12h-12zM924 156h12v12h-12zM924 168h12v12h-12zM924 180h12v12h-12zM924 192h12v12h-12zM924 204h12v12h-12zM924 216h12v12h-12zM924 228h12v12h-12zM924 240h12v12h-12zM924 252h12v12h-12zM924 264h12v12h-12zM924 276h12v12h-12zM924 288h12v12h-12zM924 300h12v12h-12zM924 312h12v12h-12zM924 324h12v12h-12zM924 336h12v12h-12zM924 348h12v12h-12zM924 360h12v12h-12zM924 372h12v12h-12zM924 384h12v12h-12zM924 396h12v12h-12zM924 408h12v12h-12zM924 420h12v12h-12zM924 432h12v12h-12zM924 444h12v12h-12zM924 456h12v12h-12zM924 468h12v12h-12zM924 480h12v12h-12zM924 492h12v12h-12zM924 504h12v12h-12zM924 516h12v12h-12zM924 528h12v12h-12zM924 540h12v12h-12zM924 552h12v12h-12zM924 564h12v12h-12zM924 576h12v12h-12zM924 588h12v12h-12zM924 600h12v12h-12zM924 612h12v12h-12zM924 624h12v12h-12zM924 636h12v12h-12zM924 648h12v12h-12zM924 660h12v12h-12zM924 672h12v12h-12zM924 684h12v12h-12zM924 696h12v12h-12zM924 708h12v12h-12zM924 720h12v12h-12zM924 732h12v12h-12zM924 744h12v12h-12zM924 756h12v12h-12zM924 768h12v12h-12zM924 780h12v12h-12zM924 792h12v12h-12zM924 804h12v12h-12zM924 816h12v12h-12zM924 828h12v12h-12zM924 840h12v12h-12zM924 852h12v12h-12zM924 864h12v12h-12zM924 876h12v12h-12zM924 888h12v12h-12zM924 900h12v12h-12zM924 912h12v12h-12zM924 924h12v12h-12zM924 936h12v12h-12zM924 948h12v12h-12zM948 0h12v12h-12zM948 12h12v12h-12zM948 24h12v12h-12zM948 36h12v12h-12zM948 48h12v12h-12zM948 60h12v12h-12zM948 72h12v12h-12zM948 84h12v12h-12zM948 96h12v12h-12zM948 108h12v12h-12zM948 120h12v12h-12zM948 132h12v12h-12zM948 144h12v12h-12zM948 156h12v12h-12zM948 168h12v12h-12zM948 180h12v12h-12zM948 192h12v12h-12zM948 204h12v12h-12zM948 216h12v12h-12zM948 228h12v12h-12zM948 240h12v12h-12zM948 252h12v12h-12zM948 264h12v12h-12zM948 276h12v12h-12zM948 288h12v12h-12zM948 300h12v12h-12zM948 312h12v12h-12zM948 324h12v12h-12zM948 336h12v12h-12zM948 348h12v12h-12zM948 360h12v12h-12zM948 372h12v12h-12zM948 384h12v12h-12zM948 396h12v12h-12zM948 408h12v12h-12zM948 420h12v12h-12zM948 432h12v12h-12zM948 444h12v12h-12zM948 456h12v12h-12zM948 468h12v12h-12zM948 480h12v12h-12zM948 492h12v12h-12zM948 504h12v12h-12zM948 516h12v12h-12zM948 528h12v12h-12zM948 540h12v12h-12zM948 552h12v12h-12zM948 564h12v12h-12zM948 576h12v12h-12zM948 588h12v12h-12zM948 600h12v12h-12zM948 612h12v12h-12zM948 624h12v12h-12zM948 636h12v12h-12zM948 648h12v12h-12zM948 660h12v12h-12zM948 672h12v12h-12zM948 684h12v12h-12zM948 696h12v12h-12zM948 708h12v12h-12zM948 720h12v12h-12zM948 732h12v12h-12zM948 744h12v12h-12zM948 756h12v12h-12zM948 768h12v12h-12zM948 780h12v12h-12zM948 792h12v12h-12zM948 804h12v12h-12zM948 816h12v12h-12zM948 828h12v12h-12zM948 840h12v12h-12zM948 852h12v12h-12zM948 864h12v12h-12zM948 876h12v12h-12zM948 888h12v12h-12zM948 900h12v12h-12zM948 912h12v12h-12zM948 924h12v12h-12zM948 936h12v12h-12zM948 948h12v12h-12z"/><path fill="#f0b000" d="M33 0h6v24h-6zM24 9h24v6h-24zM9 24h6v24h-6zM0 33h24v6h-24zM57 24h6v24h-6zM48 33h24v6h-24zM33 48h6v24h-6zM24 57h24v6h-24zM81 48h6v24h-6zM72 57h24v6h-24zM57 72h6v24h-6zM48 81h24v6h-24zM225 0h6v24h-6zM216 9h24v6h-24zM249 48h6v24h-6zM240 57h24v6h-24zM225 72h6v24h-6zM216 81h24v6h-24zM249 72h6v24h-6zM240 81h24v6h-24zM417 0h6v24h-6zM408 9h24v6h-24zM465 0h6v24h-6zM456 9h24v6h-24zM393 24h6v24h-6zM384 33h24v6h-24zM441 24h6v24h-6zM432 33h24v6h-24zM417 48h6v24h-6zM408 57h24v6h-24zM465 48h6v24h-6zM456 57h24v6h-24zM393 72h6v24h-6zM384 81h24v6h-24zM441 72h6v24h-6zM432 81h24v6h-24zM489 0h6v24h-6zM480 9h24v6h-24zM561 0h6v24h-6zM552 9h24v6h-24zM537 24h6v24h-6zM528 33h24v6h-24zM513 48h6v24h-6zM504 57h24v6h-24zM537 48h6v24h-6zM528 57h24v6h-24zM489 72h6v24h-6zM480 81h24v6h-24zM561 72h6v24h-6zM552 81h24v6h-24zM585 24h6v24h-6zM576 33h24v6h-24zM609 24h6v24h-6zM600 33h24v6h-24zM585 48h6v24h-6zM576 57h24v6h-24zM657 48h6v24h-6zM648 57h24v6h-24zM681 0h6v24h-6zM672 9h24v6h-24zM705 24h6v24h-6zM696 33h24v6h-24zM729 48h6v24h-6zM720 57h24v6h-24zM753 72h6v24h-6zM744 81h24v6h-24zM801 0h6v24h-6zM792 9h24v6h-24zM825 48h6v24h-6zM816 57h24v6h-24zM801 72h6v24h-6zM792 81h24v6h-24zM825 72h6v24h-6zM816 81h24v6h-24zM909 36h6v24h-6zM900 45h24v6h-24zM489 96h6v24h-6zM480 105h24v6h-24zM537 96h6v24h-6zM528 105h24v6h-24zM561 120h6v24h-6zM552 129h24v6h-24zM489 144h6v24h-6zM480 153h24v6h-24zM513 168h6v24h-6zM504 177h24v6h-24zM561 168h6v24h-6zM552 177h24v6h-24zM657 240h6v24h-6zM648 249h24v6h-24zM609 96h6v24h-6zM600 105h24v6h-24zM633 96h6v24h-6zM624 105h24v6h-24zM609 120h6v24h-6zM600 129h24v6h-24zM657 120h6v24h-6zM648 129h24v6h-24zM585 144h6v24h-6zM576 153h24v6h-24zM633 144h6v24h-6zM624 153h24v6h-24zM609 168h6v24h-6zM600 177h24v6h-24zM633 168h6v24h-6zM624 177h24v6h-24zM681 96h6v24h-6zM672 105h24v6h-24zM753 96h6v24h-6zM744 105h24v6h-24zM681 168h6v24h-6zM672 177h24v6h-24zM753 168h6v24h-6zM744 177h24v6h-24zM849 96h6v24h-6zM840 105h24v6h-24zM849 120h6v24h-6zM840 129h24v6h-24zM777 144h6v24h-6zM768 153h24v6h-24zM777 168h6v24h-6zM768 177h24v6h-24zM873 96h6v24h-6zM864 105h24v6h-24zM945 96h6v24h-6zM936 105h24v6h-24zM921 120h6v24h-6zM912 129h24v6h-24zM897 144h6v24h-6zM888 153h24v6h-24zM873 168h6v24h-6zM864 177h24v6h-24zM945 168h6v24h-6zM936 177h24v6h-24zM33 192h6v24h-6zM24 201h24v6h-24zM57 192h6v24h-6zM48 201h24v6h-24zM9 216h6v24h-6zM0 225h24v6h-24zM57 216h6v24h-6zM48 225h24v6h-24zM33 240h6v24h-6zM24 249h24v6h-24zM81 240h6v24h-6zM72 249h24v6h-24zM33 264h6v24h-6zM24 273h24v6h-24zM57 264h6v24h-6zM48 273h24v6h-24zM273 336h6v24h-6zM264 345h24v6h-24zM225 192h6v24h-6zM216 201h24v6h-24zM249 192h6v24h-6zM240 201h24v6h-24zM225 216h6v24h-6zM216 225h24v6h-24zM273 216h6v24h-6zM264 225h24v6h-24zM201 240h6v24h-6zM192 249h24v6h-24zM249 240h6v24h-6zM240 249h24v6h-24zM225 264h6v24h-6zM216 273h24v6h-24zM249 264h6v24h-6zM240 273h24v6h-24zM417 192h6v24h-6zM408 201h24v6h-24zM465 192h6v24h-6zM456 201h24v6h-24zM441 216h6v24h-6zM432 225h24v6h-24zM441 240h6v24h-6zM432 249h24v6h-24zM417 264h6v24h-6zM408 273h24v6h-24zM465 264h6v24h-6zM456 273h24v6h-24zM537 192h6v24h-6zM528 201h24v6h-24zM513 216h6v24h-6zM504 225h24v6h-24zM561 216h6v24h-6zM552 225h24v6h-24zM489 240h6v24h-6zM480 249h24v6h-24zM537 240h6v24h-6zM528 249h24v6h-24zM513 264h6v24h-6zM504 273h24v6h-24zM585 192h6v24h-6zM576 201h24v6h-24zM657 192h6v24h-6zM648 201h24v6h-24zM585 240h6v24h-6zM576 249h24v6h-24zM657 240h6v24h-6zM648 249h24v6h-24zM681 192h6v24h-6zM672 201h24v6h-24zM753 192h6v24h-6zM744 201h24v6h-24zM681 264h6v24h-6zM672 273h24v6h-24zM753 264h6v24h-6zM744 273h24v6h-24zM777 216h6v24h-6zM768 225h24v6h-24zM849 216h6v24h-6zM840 225h24v6h-24zM777 240h6v24h-6zM768 249h24v6h-24zM801 240h6v24h-6zM792 249h24v6h-24zM897 192h6v24h-6zM888 201h24v6h-24zM921 192h6v24h-6zM912 201h24v6h-24zM921 216h6v24h-6zM912 225h24v6h-24zM897 264h6v24h-6zM888 273h24v6h-24zM489 288h6v24h-6zM480 297h24v6h-24zM561 288h6v24h-6zM552 297h24v6h-24zM513 312h6v24h-6zM504 321h24v6h-24zM537 312h6v24h-6zM528 321h24v6h-24zM489 360h6v24h-6zM480 369h24v6h-24zM561 360h6v24h-6zM552 369h24v6h-24zM585 288h6v24h-6zM576 297h24v6h-24zM657 288h6v24h-6zM648 297h24v6h-24zM633 312h6v24h-6zM624 321h24v6h-24zM609 336h6v24h-6zM600 345h24v6h-24zM585 360h6v24h-6zM576 369h24v6h-24zM657 360h6v24h-6zM648 369h24v6h-24zM681 288h6v24h-6zM672 297h24v6h-24zM729 288h6v24h-6zM720 297h24v6h-24zM753 288h6v24h-6zM744 297h24v6h-24zM705 312h6v24h-6zM696 321h24v6h-24zM753 312h6v24h-6zM744 321h24v6h-24zM729 336h6v24h-6zM720 345h24v6h-24zM753 360h6v24h-6zM744 369h24v6h-24zM801 288h6v24h-6zM792 297h24v6h-24zM849 288h6v24h-6zM840 297h24v6h-24zM825 312h6v24h-6zM816 321h24v6h-24zM825 336h6v24h-6zM816 345h24v6h-24zM801 360h6v24h-6zM792 369h24v6h-24zM849 360h6v24h-6zM840 369h24v6h-24zM897 288h6v24h-6zM888 297h24v6h-24zM921 288h6v24h-6zM912 297h24v6h-24zM897 360h6v24h-6zM888 369h24v6h-24zM921 360h6v24h-6zM912 369h24v6h-24zM9 384h6v24h-6zM0 393h24v6h-24zM81 384h6v24h-6zM72 393h24v6h-24zM33 408h6v24h-6zM24 417h24v6h-24zM57 408h6v24h-6zM48 417h24v6h-24zM33 432h6v24h-6zM24 441h24v6h-24zM57 432h6v24h-6zM48 441h24v6h-24zM9 456h6v24h-6zM0 465h24v6h-24zM81 456h6v24h-6zM72 465h24v6h-24zM225 384h6v24h-6zM216 393h24v6h-24zM201 408h6v24h-6zM192 417h24v6h-24zM273 432h6v24h-6zM264 441h24v6h-24zM249 456h6v24h-6zM240 465h24v6h-24zM417 384h6v24h-6zM408 393h24v6h-24zM393 408h6v24h-6zM384 417h24v6h-24zM465 432h6v24h-6zM456 441h24v6h-24zM441 456h6v24h-6zM432 465h24v6h-24zM489 384h6v24h-6zM480 393h24v6h-24zM561 384h6v24h-6zM552 393h24v6h-24zM513 408h6v24h-6zM504 417h24v6h-24zM537 408h6v24h-6zM528 417h24v6h-24zM513 432h6v24h-6zM504 441h24v6h-24zM489 456h6v24h-6zM480 465h24v6h-24zM561 456h6v24h-6zM552 465h24v6h-24zM585 384h6v24h-6zM576 393h24v6h-24zM657 384h6v24h-6zM648 393h24v6h-24zM609 432h6v24h-6zM600 441h24v6h-24zM633 432h6v24h-6zM624 441h24v6h-24zM585 456h6v24h-6zM576 465h24v6h-24zM657 456h6v24h-6zM648 465h24v6h-24zM705 384h6v24h-6zM696 393h24v6h-24zM729 384h6v24h-6zM720 393h24v6h-24zM681 408h6v24h-6zM672 417h24v6h-24zM729 408h6v24h-6zM720 417h24v6h-24zM705 432h6v24h-6zM696 441h24v6h-24zM753 432h6v24h-6zM744 441h24v6h-24zM705 456h6v24h-6zM696 465h24v6h-24zM729 456h6v24h-6zM720 465h24v6h-24zM801 384h6v24h-6zM792 393h24v6h-24zM849 384h6v24h-6zM840 393h24v6h-24zM777 408h6v24h-6zM768 417h24v6h-24zM849 432h6v24h-6zM840 441h24v6h-24zM777 456h6v24h-6zM768 465h24v6h-24zM825 456h6v24h-6zM816 465h24v6h-24zM897 384h6v24h-6zM888 393h24v6h-24zM945 384h6v24h-6zM936 393h24v6h-24zM873 408h6v24h-6zM864 417h24v6h-24zM921 408h6v24h-6zM912 417h24v6h-24zM897 432h6v24h-6zM888 441h24v6h-24zM945 432h6v24h-6zM936 441h24v6h-24zM873 456h6v24h-6zM864 465h24v6h-24zM921 456h6v24h-6zM912 465h24v6h-24zM537 480h6v24h-6zM528 489h24v6h-24zM489 504h6v24h-6zM480 513h24v6h-24zM513 504h6v24h-6zM504 513h24v6h-24zM561 504h6v24h-6zM552 513h24v6h-24zM489 528h6v24h-6zM480 537h24v6h-24zM537 528h6v24h-6zM528 537h24v6h-24zM561 528h6v24h-6zM552 537h24v6h-24zM513 552h6v24h-6zM504 561h24v6h-24zM585 480h6v24h-6zM576 489h24v6h-24zM585 504h6v24h-6zM576 513h24v6h-24zM657 528h6v24h-6zM648 537h24v6h-24zM657 552h6v24h-6zM648 561h24v6h-24zM729 480h6v24h-6zM720 489h24v6h-24zM705 504h6v24h-6zM696 513h24v6h-24zM753 504h6v24h-6zM744 513h24v6h-24zM681 528h6v24h-6zM672 537h24v6h-24zM729 528h6v24h-6zM720 537h24v6h-24zM705 552h6v24h-6zM696 561h24v6h-24zM801 504h6v24h-6zM792 513h24v6h-24zM825 504h6v24h-6zM816 513h24v6h-24zM801 528h6v24h-6zM792 537h24v6h-24zM825 528h6v24h-6zM816 537h24v6h-24zM897 480h6v24h-6zM888 489h24v6h-24zM945 480h6v24h-6zM936 489h24v6h-24zM921 504h6v24h-6zM912 513h24v6h-24zM921 528h6v24h-6zM912 537h24v6h-24zM897 552h6v24h-6zM888 561h24v6h-24zM945 552h6v24h-6zM936 561h24v6h-24zM33 576h6v24h-6zM24 585h24v6h-24zM57 576h6v24h-6zM48 585h24v6h-24zM33 648h6v24h-6zM24 657h24v6h-24zM57 648h6v24h-6zM48 657h24v6h-24zM201 576h6v24h-6zM192 585h24v6h-24zM249 576h6v24h-6zM240 585h24v6h-24zM249 600h6v24h-6zM240 609h24v6h-24zM273 600h6v24h-6zM264 609h24v6h-24zM201 624h6v24h-6zM192 633h24v6h-24zM225 624h6v24h-6zM216 633h24v6h-24zM225 648h6v24h-6zM216 657h24v6h-24zM273 648h6v24h-6zM264 657h24v6h-24zM393 576h6v24h-6zM384 585h24v6h-24zM465 576h6v24h-6zM456 585h24v6h-24zM417 600h6v24h-6zM408 609h24v6h-24zM441 600h6v24h-6zM432 609h24v6h-24zM393 648h6v24h-6zM384 657h24v6h-24zM465 648h6v24h-6zM456 657h24v6h-24zM561 576h6v24h-6zM552 585h24v6h-24zM537 600h6v24h-6zM528 609h24v6h-24zM513 624h6v24h-6zM504 633h24v6h-24zM489 648h6v24h-6zM480 657h24v6h-24zM585 576h6v24h-6zM576 585h24v6h-24zM657 576h6v24h-6zM648 585h24v6h-24zM609 600h6v24h-6zM600 609h24v6h-24zM633 600h6v24h-6zM624 609h24v6h-24zM633 624h6v24h-6zM624 633h24v6h-24zM585 648h6v24h-6zM576 657h24v6h-24zM657 648h6v24h-6zM648 657h24v6h-24zM705 576h6v24h-6zM696 585h24v6h-24zM753 576h6v24h-6zM744 585h24v6h-24zM681 600h6v24h-6zM672 609h24v6h-24zM753 624h6v24h-6zM744 633h24v6h-24zM681 648h6v24h-6zM672 657h24v6h-24zM729 648h6v24h-6zM720 657h24v6h-24zM777 576h6v24h-6zM768 585h24v6h-24zM801 576h6v24h-6zM792 585h24v6h-24zM849 576h6v24h-6zM840 585h24v6h-24zM777 600h6v24h-6zM768 609h24v6h-24zM825 600h6v24h-6zM816 609h24v6h-24zM801 624h6v24h-6zM792 633h24v6h-24zM777 648h6v24h-6zM768 657h24v6h-24zM897 600h6v24h-6zM888 609h24v6h-24zM921 600h6v24h-6zM912 609h24v6h-24zM897 624h6v24h-6zM888 633h24v6h-24zM921 624h6v24h-6zM912 633h24v6h-24zM513 672h6v24h-6zM504 681h24v6h-24zM489 696h6v24h-6zM480 705h24v6h-24zM537 696h6v24h-6zM528 705h24v6h-24zM561 696h6v24h-6zM552 705h24v6h-24zM489 720h6v24h-6zM480 729h24v6h-24zM513 720h6v24h-6zM504 729h24v6h-24zM561 720h6v24h-6zM552 729h24v6h-24zM537 744h6v24h-6zM528 753h24v6h-24zM657 672h6v24h-6zM648 681h24v6h-24zM633 696h6v24h-6zM624 705h24v6h-24zM609 720h6v24h-6zM600 729h24v6h-24zM585 744h6v24h-6zM576 753h24v6h-24zM681 672h6v24h-6zM672 681h24v6h-24zM753 672h6v24h-6zM744 681h24v6h-24zM705 696h6v24h-6zM696 705h24v6h-24zM729 696h6v24h-6zM720 705h24v6h-24zM705 720h6v24h-6zM696 729h24v6h-24zM681 744h6v24h-6zM672 753h24v6h-24zM753 744h6v24h-6zM744 753h24v6h-24zM801 672h6v24h-6zM792 681h24v6h-24zM849 672h6v24h-6zM840 681h24v6h-24zM825 696h6v24h-6zM816 705h24v6h-24zM825 720h6v24h-6zM816 729h24v6h-24zM801 744h6v24h-6zM792 753h24v6h-24zM849 744h6v24h-6zM840 753h24v6h-24zM873 672h6v24h-6zM864 681h24v6h-24zM897 672h6v24h-6zM888 681h24v6h-24zM945 672h6v24h-6zM936 681h24v6h-24zM873 696h6v24h-6zM864 705h24v6h-24zM921 696h6v24h-6zM912 705h24v6h-24zM897 720h6v24h-6zM888 729h24v6h-24zM873 744h6v24h-6zM864 753h24v6h-24zM9 768h6v24h-6zM0 777h24v6h-24zM57 768h6v24h-6zM48 777h24v6h-24zM33 792h6v24h-6zM24 801h24v6h-24zM81 792h6v24h-6zM72 801h24v6h-24zM9 816h6v24h-6zM0 825h24v6h-24zM57 816h6v24h-6zM48 825h24v6h-24zM33 840h6v24h-6zM24 849h24v6h-24zM81 840h6v24h-6zM72 849h24v6h-24zM201 768h6v24h-6zM192 777h24v6h-24zM273 768h6v24h-6zM264 777h24v6h-24zM249 792h6v24h-6zM240 801h24v6h-24zM225 816h6v24h-6zM216 825h24v6h-24zM201 840h6v24h-6zM192 849h24v6h-24zM273 840h6v24h-6zM264 849h24v6h-24zM417 768h6v24h-6zM408 777h24v6h-24zM465 768h6v24h-6zM456 777h24v6h-24zM393 792h6v24h-6zM384 801h24v6h-24zM441 792h6v24h-6zM432 801h24v6h-24zM417 816h6v24h-6zM408 825h24v6h-24zM465 816h6v24h-6zM456 825h24v6h-24zM393 840h6v24h-6zM384 849h24v6h-24zM441 840h6v24h-6zM432 849h24v6h-24zM489 792h6v24h-6zM480 801h24v6h-24zM513 792h6v24h-6zM504 801h24v6h-24zM489 816h6v24h-6zM480 825h24v6h-24zM561 816h6v24h-6zM552 825h24v6h-24zM609 768h6v24h-6zM600 777h24v6h-24zM657 768h6v24h-6zM648 777h24v6h-24zM585 792h6v24h-6zM576 801h24v6h-24zM657 816h6v24h-6zM648 825h24v6h-24zM585 840h6v24h-6zM576 849h24v6h-24zM633 840h6v24h-6zM624 849h24v6h-24zM681 768h6v24h-6zM672 777h24v6h-24zM705 792h6v24h-6zM696 801h24v6h-24zM681 816h6v24h-6zM672 825h24v6h-24zM729 816h6v24h-6zM720 825h24v6h-24zM681 840h6v24h-6zM672 849h24v6h-24zM705 840h6v24h-6zM696 849h24v6h-24zM753 840h6v24h-6zM744 849h24v6h-24zM849 768h6v24h-6zM840 777h24v6h-24zM825 792h6v24h-6zM816 801h24v6h-24zM801 816h6v24h-6zM792 825h24v6h-24zM849 816h6v24h-6zM840 825h24v6h-24zM777 840h6v24h-6zM768 849h24v6h-24zM825 840h6v24h-6zM816 849h24v6h-24zM849 840h6v24h-6zM840 849h24v6h-24zM873 792h6v24h-6zM864 801h24v6h-24zM945 792h6v24h-6zM936 801h24v6h-24zM873 816h6v24h-6zM864 825h24v6h-24zM897 816h6v24h-6zM888 825h24v6h-24zM561 1008h6v24h-6zM552 1017h24v6h-24zM513 864h6v24h-6zM504 873h24v6h-24zM537 864h6v24h-6zM528 873h24v6h-24zM513 888h6v24h-6zM504 897h24v6h-24zM561 888h6v24h-6zM552 897h24v6h-24zM489 912h6v24h-6zM480 921h24v6h-24zM537 912h6v24h-6zM528 921h24v6h-24zM513 936h6v24h-6zM504 945h24v6h-24zM537 936h6v24h-6zM528 945h24v6h-24zM657 1008h6v24h-6zM648 1017h24v6h-24zM609 864h6v24h-6zM600 873h24v6h-24zM633 864h6v24h-6zM624 873h24v6h-24zM609 888h6v24h-6zM600 897h24v6h-24zM657 888h6v24h-6zM648 897h24v6h-24zM585 912h6v24h-6zM576 921h24v6h-24zM633 912h6v24h-6zM624 921h24v6h-24zM609 936h6v24h-6zM600 945h24v6h-24zM633 936h6v24h-6zM624 945h24v6h-24zM729 864h6v24h-6zM720 873h24v6h-24zM729 888h6v24h-6zM720 897h24v6h-24zM753 888h6v24h-6zM744 897h24v6h-24zM681 912h6v24h-6zM672 921h24v6h-24zM705 912h6v24h-6zM696 921h24v6h-24zM705 936h6v24h-6zM696 945h24v6h-24zM777 864h6v24h-6zM768 873h24v6h-24zM849 864h6v24h-6zM840 873h24v6h-24zM825 888h6v24h-6zM816 897h24v6h-24zM801 912h6v24h-6zM792 921h24v6h-24zM777 936h6v24h-6zM768 945h24v6h-24zM849 936h6v24h-6zM840 945h24v6h-24zM921 864h6v24h-6zM912 873h24v6h-24zM945 888h6v24h-6zM936 897h24v6h-24zM873 912h6v24h-6zM864 921h24v6h-24zM897 936h6v24h-6zM888 945h24v6h-24zM297 864h6v24h-6zM288 873h24v6h-24zM369 864h6v24h-6zM360 873h24v6h-24zM345 888h6v24h-6zM336 897h24v6h-24zM321 912h6v24h-6zM312 921h24v6h-24zM297 936h6v24h-6zM288 945h24v6h-24zM369 936h6v24h-6zM360 945h24v6h-24zM297 576h6v24h-6zM288 585h24v6h-24zM345 576h6v24h-6zM336 585h24v6h-24zM345 600h6v24h-6zM336 609h24v6h-24zM369 600h6v24h-6zM360 609h24v6h-24zM297 624h6v24h-6zM288 633h24v6h-24zM321 624h6v24h-6zM312 633h24v6h-24zM321 648h6v24h-6zM312 657h24v6h-24zM369 648h6v24h-6zM360 657h24v6h-24zM33 672h6v24h-6zM24 681h24v6h-24zM57 672h6v24h-6zM48 681h24v6h-24zM33 744h6v24h-6zM24 753h24v6h-24zM57 744h6v24h-6zM48 753h24v6h-24zM393 96h6v24h-6zM384 105h24v6h-24zM441 96h6v24h-6zM432 105h24v6h-24zM465 120h6v24h-6zM456 129h24v6h-24zM393 144h6v24h-6zM384 153h24v6h-24zM417 168h6v24h-6zM408 177h24v6h-24zM465 168h6v24h-6zM456 177h24v6h-24zM321 384h6v24h-6zM312 393h24v6h-24zM297 408h6v24h-6zM288 417h24v6h-24zM369 432h6v24h-6zM360 441h24v6h-24zM345 456h6v24h-6zM336 465h24v6h-24zM201 480h6v24h-6zM192 489h24v6h-24zM249 480h6v24h-6zM240 489h24v6h-24zM249 504h6v24h-6zM240 513h24v6h-24zM273 504h6v24h-6zM264 513h24v6h-24zM201 528h6v24h-6zM192 537h24v6h-24zM225 528h6v24h-6zM216 537h24v6h-24zM225 552h6v24h-6zM216 561h24v6h-24zM273 552h6v24h-6zM264 561h24v6h-24zM105 576h6v24h-6zM96 585h24v6h-24zM153 576h6v24h-6zM144 585h24v6h-24zM153 600h6v24h-6zM144 609h24v6h-24zM177 600h6v24h-6zM168 609h24v6h-24zM105 624h6v24h-6zM96 633h24v6h-24zM129 624h6v24h-6zM120 633h24v6h-24zM129 648h6v24h-6zM120 657h24v6h-24zM177 648h6v24h-6zM168 657h24v6h-24z"/><path fill="#000" d="M168 408h24v24h-24zM168 432h24v24h-24zM168 456h24v24h-24zM168 480h24v24h-24zM168 504h24v24h-24zM168 528h24v24h-24zM168 552h24v24h-24zM168 576h24v24h-24zM168 600h24v24h-24zM168 624h24v24h-24zM144 648h24v24h-24zM120 672h24v24h-24zM96 696h24v24h-24zM72 720h24v24h-24zM96 720h24v24h-24zM120 720h24v24h-24zM144 720h24v24h-24zM144 696h24v24h-24zM144 672h24v24h-24zM144 624h24v24h-24zM144 600h24v24h-24zM144 576h24v24h-24zM144 552h24v24h-24zM144 528h24v24h-24zM144 504h24v24h-24zM144 480h24v24h-24zM144 456h24v24h-24zM144 432h24v24h-24zM144 408h24v24h-24zM144 384h24v24h-24zM144 360h24v24h-24zM144 336h24v24h-24zM120 360h24v24h-24zM96 384h24v24h-24zM72 408h24v24h-24zM48 432h24v24h-24zM48 456h24v24h-24zM48 480h24v24h-24zM48 504h24v24h-24zM48 528h24v24h-24zM48 552h24v24h-24zM48 576h24v24h-24zM48 600h24v24h-24zM72 576h24v24h-24zM96 552h24v24h-24zM120 528h24v24h-24zM192 456h24v24h-24zM216 432h24v24h-24zM240 408h24v24h-24zM264 384h24v24h-24zM288 360h24v24h-24zM312 336h24v24h-24zM336 312h24v24h-24zM360 288h24v24h-24zM384 264h24v24h-24zM408 240h24v24h-24zM432 216h24v24h-24zM456 192h24v24h-24zM432 192h24v24h-24zM408 192h24v24h-24zM384 192h24v24h-24zM360 192h24v24h-24zM336 192h24v24h-24zM312 192h24v24h-24zM288 192h24v24h-24zM264 192h24v24h-24zM240 192h24v24h-24zM216 192h24v24h-24zM192 192h24v24h-24zM168 168h24v24h-24zM144 144h24v24h-24zM120 120h24v24h-24zM96 96h24v24h-24zM72 72h24v24h-24zM96 72h24v24h-24zM120 72h24v24h-24zM144 72h24v24h-24zM168 72h24v24h-24zM192 72h24v24h-24zM216 72h24v24h-24zM240 72h24v24h-24zM264 72h24v24h-24zM288 72h24v24h-24zM312 72h24v24h-24zM336 72h24v24h-24zM360 72h24v24h-24zM384 72h24v24h-24zM408 96h24v24h-24zM432 120h24v24h-24zM456 144h24v24h-24zM432 168h24v24h-24zM384 216h24v24h-24zM360 240h24v24h-24zM336 264h24v24h-24zM312 288h24v24h-24zM288 312h24v24h-24zM264 336h24v24h-24zM240 360h24v24h-24zM216 384h24v24h-24zM192 408h24v24h-24zM120 480h24v24h-24zM96 504h24v24h-24zM72 528h24v24h-24zM96 600h24v24h-24zM120 624h24v24h-24zM168 672h24v24h-24zM192 696h24v24h-24zM216 720h24v24h-24zM240 744h24v24h-24zM264 768h24v24h-24zM288 792h24v24h-24zM312 816h24v24h-24zM336 840h24v24h-24zM336 816h24v24h-24zM336 792h24v24h-24zM312 792h24v24h-24zM264 792h24v24h-24zM240 792h24v24h-24zM216 792h24v24h-24zM192 792h24v24h-24zM168 792h24v24h-24zM144 792h24v24h-24zM120 792h24v24h-24zM96 792h24v24h-24zM72 792h24v24h-24zM48 792h24v24h-24zM24 792h24v24h-24zM0 792h24v24h-24zM24 768h24v24h-24zM48 744h24v24h-24zM192 600h24v24h-24zM216 576h24v24h-24zM240 552h24v24h-24zM264 528h24v24h-24zM288 504h24v24h-24zM312 480h24v24h-24zM312 456h24v24h-24zM312 432h24v24h-24zM312 408h24v24h-24zM312 384h24v24h-24zM312 360h24v24h-24zM312 312h24v24h-24zM312 264h24v24h-24zM312 240h24v24h-24zM312 216h24v24h-24zM288 168h24v24h-24zM264 144h24v24h-24zM240 120h24v24h-24zM216 96h24v24h-24zM168 48h24v24h-24zM144 24h24v24h-24zM144 48h24v24h-24zM144 96h24v24h-24zM144 120h24v24h-24zM144 168h24v24h-24zM144 192h24v24h-24zM144 216h24v24h-24zM144 240h24v24h-24zM144 264h24v24h-24zM144 288h24v24h-24zM144 312h24v24h-24zM288 288h24v24h-24zM264 288h24v24h-24zM240 288h24v24h-24zM216 288h24v24h-24zM192 288h24v24h-24zM168 288h24v24h-24zM120 288h24v24h-24zM192 528h24v24h-24zM216 552h24v24h-24zM240 576h24v24h-24zM264 600h24v24h-24zM288 624h24v24h-24zM312 648h24v24h-24zM288 672h24v24h-24zM264 696h24v24h-24zM240 720h24v24h-24zM216 744h24v24h-24zM192 768h24v24h-24zM144 816h24v24h-24zM120 840h24v24h-24zM96 864h24v24h-24zM96 840h24v24h-24zM96 816h24v24h-24zM96 768h24v24h-24zM96 744h24v24h-24zM96 672h24v24h-24zM96 648h24v24h-24zM96 624h24v24h-24zM96 576h24v24h-24zM96 528h24v24h-24zM96 480h24v24h-24zM96 456h24v24h-24zM96 432h24v24h-24zM96 408h24v24h-24zM96 360h24v24h-24zM96 336h24v24h-24zM96 312h24v24h-24zM96 288h24v24h-24zM96 264h24v24h-24zM96 240h24v24h-24zM96 216h24v24h-24zM96 192h24v24h-24zM96 168h24v24h-24zM120 144h24v24h-24zM168 96h24v24h-24zM216 48h24v24h-24zM240 24h24v24h-24zM264 0h24v24h-24zM288 0h24v24h-24zM288 24h24v24h-24zM288 48h24v24h-24zM288 96h24v24h-24zM288 120h24v24h-24zM288 144h24v24h-24zM288 216h24v24h-24zM288 240h24v24h-24zM288 264h24v24h-24zM72 288h24v24h-24zM48 288h24v24h-24zM24 288h24v24h-24zM0 288h24v24h-24zM24 264h24v24h-24zM48 240h24v24h-24zM72 216h24v24h-24zM120 168h24v24h-24zM168 120h24v24h-24zM168 144h24v24h-24zM168 192h24v24h-24zM168 216h24v24h-24zM168 240h24v24h-24zM168 264h24v24h-24zM216 312h24v24h-24zM240 336h24v24h-24zM240 384h24v24h-24zM264 360h24v24h-24zM288 336h24v24h-24zM336 288h24v24h-24zM360 264h24v24h-24zM384 240h24v24h-24zM408 216h24v24h-24zM456 168h24v24h-24zM768 408h24v24h-24zM768 432h24v24h-24zM768 456h24v24h-24zM768 480h24v24h-24zM768 504h24v24h-24zM768 528h24v24h-24zM768 552h24v24h-24zM768 576h24v24h-24zM768 600h24v24h-24zM768 624h24v24h-24zM792 648h24v24h-24zM816 672h24v24h-24zM840 696h24v24h-24zM864 720h24v24h-24zM840 720h24v24h-24zM816 720h24v24h-24zM792 720h24v24h-24zM792 696h24v24h-24zM792 672h24v24h-24zM792 624h24v24h-24zM792 600h24v24h-24zM792 576h24v24h-24zM792 552h24v24h-24zM792 528h24v24h-24zM792 504h24v24h-24zM792 480h24v24h-24zM792 456h24v24h-24zM792 432h24v24h-24zM792 408h24v24h-24zM792 384h24v24h-24zM792 360h24v24h-24zM792 336h24v24h-24zM816 360h24v24h-24zM840 384h24v24h-24zM864 408h24v24h-24zM888 432h24v24h-24zM888 456h24v24h-24zM888 480h24v24h-24zM888 504h24v24h-24zM888 528h24v24h-24zM888 552h24v24h-24zM888 576h24v24h-24zM888 600h24v24h-24zM864 576h24v24h-24zM840 552h24v24h-24zM816 528h24v24h-24zM744 456h24v24h-24zM720 432h24v24h-24zM696 408h24v24h-24zM672 384h24v24h-24zM648 360h24v24h-24zM624 336h24v24h-24zM600 312h24v24h-24zM576 288h24v24h-24zM552 264h24v24h-24zM528 240h24v24h-24zM504 216h24v24h-24zM480 192h24v24h-24zM504 192h24v24h-24zM528 192h24v24h-24zM552 192h24v24h-24zM576 192h24v24h-24zM600 192h24v24h-24zM624 192h24v24h-24zM648 192h24v24h-24zM672 192h24v24h-24zM696 192h24v24h-24zM720 192h24v24h-24zM744 192h24v24h-24zM768 168h24v24h-24zM792 144h24v24h-24zM816 120h24v24h-24zM840 96h24v24h-24zM864 72h24v24h-24zM840 72h24v24h-24zM816 72h24v24h-24zM792 72h24v24h-24zM768 72h24v24h-24zM744 72h24v24h-24zM720 72h24v24h-24zM696 72h24v24h-24zM672 72h24v24h-24zM648 72h24v24h-24zM624 72h24v24h-24zM600 72h24v24h-24zM576 72h24v24h-24zM552 72h24v24h-24zM528 96h24v24h-24zM504 120h24v24h-24zM480 144h24v24h-24zM504 168h24v24h-24zM552 216h24v24h-24zM576 240h24v24h-24zM600 264h24v24h-24zM624 288h24v24h-24zM648 312h24v24h-24zM672 336h24v24h-24zM696 360h24v24h-24zM720 384h24v24h-24zM744 408h24v24h-24zM816 480h24v24h-24zM840 504h24v24h-24zM864 528h24v24h-24zM840 600h24v24h-24zM816 624h24v24h-24zM768 672h24v24h-24zM744 696h24v24h-24zM720 720h24v24h-24zM696 744h24v24h-24zM672 768h24v24h-24zM648 792h24v24h-24zM624 816h24v24h-24zM600 840h24v24h-24zM600 816h24v24h-24zM600 792h24v24h-24zM624 792h24v24h-24zM672 792h24v24h-24zM696 792h24v24h-24zM720 792h24v24h-24zM744 792h24v24h-24zM768 792h24v24h-24zM792 792h24v24h-24zM816 792h24v24h-24zM840 792h24v24h-24zM864 792h24v24h-24zM888 792h24v24h-24zM912 792h24v24h-24zM936 792h24v24h-24zM912 768h24v24h-24zM888 744h24v24h-24zM744 600h24v24h-24zM720 576h24v24h-24zM696 552h24v24h-24zM672 528h24v24h-24zM648 504h24v24h-24zM624 480h24v24h-24zM624 456h24v24h-24zM624 432h24v24h-24zM624 408h24v24h-24zM624 384h24v24h-24zM624 360h24v24h-24zM624 312h24v24h-24zM624 264h24v24h-24zM624 240h24v24h-24zM624 216h24v24h-24zM648 168h24v24h-24zM672 144h24v24h-24zM696 120h24v24h-24zM720 96h24v24h-24zM768 48h24v24h-24zM792 24h24v24h-24zM792 48h24v24h-24zM792 96h24v24h-24zM792 120h24v24h-24zM792 168h24v24h-24zM792 192h24v24h-24zM792 216h24v24h-24zM792 240h24v24h-24zM792 264h24v24h-24zM792 288h24v24h-24zM792 312h24v24h-24zM648 288h24v24h-24zM672 288h24v24h-24zM696 288h24v24h-24zM720 288h24v24h-24zM744 288h24v24h-24zM768 288h24v24h-24zM816 288h24v24h-24zM744 528h24v24h-24zM720 552h24v24h-24zM696 576h24v24h-24zM672 600h24v24h-24zM648 624h24v24h-24zM624 648h24v24h-24zM648 672h24v24h-24zM672 696h24v24h-24zM696 720h24v24h-24zM720 744h24v24h-24zM744 768h24v24h-24zM792 816h24v24h-24zM816 840h24v24h-24zM840 864h24v24h-24zM840 840h24v24h-24zM840 816h24v24h-24zM840 768h24v24h-24zM840 744h24v24h-24zM840 672h24v24h-24zM840 648h24v24h-24zM840 624h24v24h-24zM840 576h24v24h-24zM840 528h24v24h-24zM840 480h24v24h-24zM840 456h24v24h-24zM840 432h24v24h-24zM840 408h24v24h-24zM840 360h24v24h-24zM840 336h24v24h-24zM840 312h24v24h-24zM840 288h24v24h-24zM840 264h24v24h-24zM840 240h24v24h-24zM840 216h24v24h-24zM840 192h24v24h-24zM840 168h24v24h-24zM816 144h24v24h-24zM768 96h24v24h-24zM720 48h24v24h-24zM696 24h24v24h-24zM672 0h24v24h-24zM648 0h24v24h-24zM648 24h24v24h-24zM648 48h24v24h-24zM648 96h24v24h-24zM648 120h24v24h-24zM648 144h24v24h-24zM648 216h24v24h-24zM648 240h24v24h-24zM648 264h24v24h-24zM864 288h24v24h-24zM888 288h24v24h-24zM912 288h24v24h-24zM936 288h24v24h-24zM912 264h24v24h-24zM888 240h24v24h-24zM864 216h24v24h-24zM816 168h24v24h-24zM768 120h24v24h-24zM768 144h24v24h-24zM768 192h24v24h-24zM768 216h24v24h-24zM768 240h24v24h-24zM768 264h24v24h-24zM720 312h24v24h-24zM696 336h24v24h-24zM696 384h24v24h-24zM672 360h24v24h-24zM648 336h24v24h-24zM600 288h24v24h-24zM576 264h24v24h-24zM552 240h24v24h-24zM528 216h24v24h-24zM480 168h24v24h-24z"/></svg>