<svg xmlns="http://www.w3.org/2000/svg" width="960" height="960" viewBox="0 0 960 960" shape-rendering="crispEdges"><path fill="#000" d="M0 0h960v960h-960z"/><path fill="#7540c9" d="M0 0h12v12h-12zM0 12h12v12h-12zM0 24h12v12h-12zM0 36h12v12h-12zM0 48h12v12h-12zM0 60h12v12h-12zM0 72h12v12h-12zM0 84h12v12h-12zM0 96h12v12h-12zM0 108h12v12h-12zM0 120h12v12h-12zM0 132h12v12h-12zM0 144h12v12h-12zM0 156h12v12h-12zM0 168h12v12h-12zM0 180h12v12h-12zM0 192h12v12h-12zM0 204h12v12h-12zM0 216h12v12h-12zM0 228h12v12h-12zM0 240h12v12h-12zM0 252h12v12h-12zM0 264h12v12h-12zM0 276h12v12h-12zM0 288h12v12h-12zM0 300h12v12h-12zM0 312h12v12h-12zM0 324h12v12h-12zM0 336h12v12h-12zM0 348h12v12h-12zM0 360h12v12h-12zM0 372h12v12h-12zM0 384h12v12h-12zM0 396h12v12h-12zM0 408h12v12h-12zM0 420h12v12h-12zM0 432h12v12h-12zM0 444h12v12h-12zM0 456h12v12h-12zM0 468h12v12h-12zM60 0h12v12h-12zM60 12h12v12h-12zM60 24h12v12h-12zM60 36h12v12h-12zM60 48h12v12h-12zM60 60h12v12h-12zM60 72h12v12h-12zM60 84h12v12h-12zM60 96h12v12h-12zM60 108h12v12h-12zM60 120h12v12h-12zM60 132h12v12h-12zM60 144h12v12h-12zM60 156h12v12h-12zM60 168h12v12h-12zM60 180h12v12h-12zM60 192h12v12h-12zM60 204h12v12h-12zM60 216h12v12h-12zM60 228h12v12h-12zM60 240h12v12h-12zM60 252h12v12h-12zM60 264h12v12h-12zM60 276h12v12h-12zM60 288h12v12h-12zM60 300h12v12h-12zM60 312h12v12h-12zM60 324h12v12h-12zM60 336h12v12h-12zM60 348h12v12h-12zM60 360h12v12h-12zM60 372h12v12h-12zM60 384h12v12h-12zM60 396h12v12h-12zM60 408h12v12h-12zM60 420h12v12h-12zM60 432h12v12h-12zM60 444h12v12h-12zM60 456h12v12h-12zM60 468h12v12h-12zM120 0h12v12h-12zM120 12h12v12h-12zM120 24h12v12h-12zM120 36h12v12h-12zM120 48h12v12h-12zM120 60h12v12h-12zM120 72h12v12h-12zM120 84h12v12h-12zM120 96h12v12h-12zM120 108h12v12h-12zM120 120h12v12h-12zM120 132h12v12h-12zM120 144h12v12h-12zM120 156h12v12h-12zM120 168h12v12h-12zM120 180h12v12h-12zM120 192h12v12h-12zM120 204h12v12h-12zM120 216h12v12h-12zM120 228h12v12h-12zM120 240h12v12h-12zM120 252h12v12h-12zM120 264h12v12h-12zM120 276h12v12h-12zM120 288h12v12h-12zM120 300h12v12h-12zM120 312h12v12h-12zM120 324h12v12h-12zM120 336h12v12h-12zM120 348h12v12h-12zM120 360h12v12h-12zM120 372h12v12h-12zM120 384h12v12h-12zM120 396h12v12h-12zM120 408h12v12h-12zM120 420h12v12h-12zM120 432h12v12h-12zM120 444h12v12h-12zM120 456h12v12h-12zM120 468h12v12h-12zM180 0h12v12h-12zM180 12h12v12h-12zM180 24h12v12h-12zM180 36h12v12h-12zM180 48h12v12h-12zM180 60h12v12h-12zM180 72h12v12h-12zM180 84h12v12h-12zM180 96h12v12h-12zM180 108h12v12h-12zM180 120h12v12h-12zM180 132h12v12h-12zM180 144h12v12h-12zM180 156h12v12h-12zM180 168h12v12h-12zM180 180h12v12h-12zM180 192h12v12h-12zM180 204h12v12h-12zM180 216h12v12h-12zM180 228h12v12h-12zM180 240h12v12h-12zM180 252h12v12h-12zM180 264h12v12h-12zM180 276h12v12h-12zM180 288h12v12h-12zM180 300h12v12h-12zM180 312h12v12h-12zM180 324h12v12h-12zM180 336h12v12h-12zM180 348h12v12h-12zM180 360h12v12h-12zM180 372h12v12h-12zM180 384h12v12h-12zM180 396h12v12h-12zM180 408h12v12h-12zM180 420h12v12h-12zM180 432h12v12h-12zM180 444h12v12h-12zM180 456h12v12h-12zM180 468h12v12h-12zM240 0h12v12h-12zM240 12h12v12h-12zM240 24h12v12h-12zM240 36h12v12h-12zM240 48h12v12h-12zM240 60h12v12h-12zM240 72h12v12h-12zM240 84h12v12h-12zM240 96h12v12h-12zM240 108h12v12h-12zM240 120h12v12h-12zM240 132h12v12h-12zM240 144h12v12h-12zM240 156h12v12h-12zM240 168h12v12h-12zM240 180h12v12h-12zM240 192h12v12h-12zM240 204h12v12h-12zM240 216h12v12h-12zM240 228h12v12h-12zM240 240h12v12h-12zM240 252h12v12h-12zM240 264h12v12h-12zM240 276h12v12h-12zM240 288h12v12h-12zM240 300h12v12h-12zM240 312h12v12h-12zM240 324h12v12h-12zM240 336h12v12h-12zM240 348h12v12h-12zM240 360h12v12h-12zM240 372h12v12h-12zM240 384h12v12h-12zM240 396h12v12h-12zM240 408h12v12h-12zM240 420h12v12h-12zM240 432h12v12h-12zM240 444h12v12h-12zM240 456h12v12h-12zM240 468h12v12h-12zM300 0h12v12h-12zM300 12h12v12h-12zM300 24h12v12h-12zM300 36h12v12h-12zM300 48h12v12h-12zM300 60h12v12h-12zM300 72h12v12h-12zM300 84h12v12h-12zM300 96h12v12h-12zM300 108h12v12h-12zM300 120h12v12h-12zM300 132h12v12h-12zM300 144h12v12h-12zM300 156h12v12h-12zM300 168h12v12h-12zM300 180h12v12h-12zM300 192h12v12h-12zM300 204h12v12h-12zM300 216h12v12h-12zM300 228h12v12h-12zM300 240h12v12h-12zM300 252h12v12h-12zM300 264h12v12h-12zM300 276h12v12h-12zM300 288h12v12h-12zM300 300h12v12h-12zM300 312h12v12h-12zM300 324h12v12h-12zM300 336h12v12h-12zM300 348h12v12h-12zM300 360h12v12h-12zM300 372h12v12h-12zM300 384h12v12h-12zM300 396h12v12h-12zM300 408h12v12h-12zM300 420h12v12h-12zM300 432h12v12h-12zM300 444h12v12h-12zM300 456h12v12h-12zM300 468h12v12h-12zM360 0h12v12h-12zM360 12h12v12h-12zM360 24h12v12h-12zM360 36h12v12h-12zM360 48h12v12h-12zM360 60h12v12h-12zM360 72h12v12h-12zM360 84h12v12h-12zM360 96h12v12h-12zM360 108h12v12h-12zM360 120h12v12h-12zM360 132h12v12h-12zM360 144h12v12h-12zM360 156h12v12h-12zM360 168h12v12h-12zM360 180h12v12h-12zM360 192h12v12h-12zM360 204h12v12h-12zM360 216h12v12h-12zM360 228h12v12h-12zM360 240h12v12h-12zM360 252h12v12h-12zM360 264h12v12h-12zM360 276h12v12h-12zM360 288h12v12h-12zM360 300h12v12h-12zM360 312h12v12h-12zM360 324h12v12h-12zM360 336h12v12h-12zM360 348h12v12h-12zM360 360h12v12h-12zM360 372h12v12h-12zM360 384h12v12h-12zM360 396h12v12h-12zM360 408h12v12h-12zM360 420h12v12h-12zM360 432h12v12h-12zM360 444h12v12h-12zM360 456h12v12h-12zM360 468h12v12h-12zM420 0h12v12h-12zM420 12h12v12h-12zM420 24h12v12h-12zM420 36h12v12h-12zM420 48h12v12h-12zM420 60h12v12h-12zM420 72h12v12h-12zM420 84h12v12h-12zM420 96h12v12h-12zM420 108h12v12h-12zM420 120h12v12h-12zM420 132h12v12h-12zM420 144h12v12h-12zM420 156h12v12h-12zM420 168h12v12h-12zM420 180h12v12h-12zM420 192h12v12h-12zM420 204h12v12h-12zM420 216h12v12h-12zM420 228h12v12h-12zM420 240h12v12h-12zM420 252h12v12h-12zM420 264h12v12h-12zM420 276h12v12h-12zM420 288h12v12h-12zM420 300h12v12h-12zM420 312h12v12h-12zM420 324h12v12h-12zM420 336h12v12h-12zM420 348h12v12h-12zM420 360h12v12h-12zM420 372h12v12h-12zM420 384h12v12h-12zM420 396h12v12h-12zM420 408h12v12h-12zM420 420h12v12h-12zM420 432h12v12h-12zM420 444h12v12h-12zM420 456h12v12h-12zM420 468h12v12h-12zM480 0h12v12h-12zM480 12h12v12h-12zM480 24h12v12h-12zM480 36h12v12h-12zM480 48h12v12h-12zM480 60h12v12h-12zM480 72h12v12h-12zM480 84h12v12h-12zM480 96h12v12h-12zM480 108h12v12h-12zM480 120h12v12h-12zM480 132h12v12h-12zM480 144h12v12h-12zM480 156h12v12h-12zM480 168h12v12h-12zM480 180h12v12h-12zM480 192h12v12h-12zM480 204h12v12h-12zM480 216h12v12h-12zM480 228h12v12h-12zM480 240h12v12h-12zM480 252h12v12h-12zM480 264h12v12h-12zM480 276h12v12h-12zM480 288h12v12h-12zM480 300h12v12h-12zM480 312h12v12h-12zM480 324h12v12h-12zM480 336h12v12h-12zM480 348h12v12h-12zM480 360h12v12h-12zM480 372h12v12h-12zM480 384h12v12h-12zM480 396h12v12h-12zM480 408h12v12h-12zM480 420h12v12h-12zM480 432h12v12h-12zM480 444h12v12h-12zM480 456h12v12h-12zM480 468h12v12h-12zM540 0h12v12h-12zM540 12h12v12h-12zM540 24h12v12h-12zM540 36h12v12h-12zM540 48h12v12h-12zM540 60h12v12h-12zM540 72h12v12h-12zM540 84h12v12h-12zM540 96h12v12h-12zM540 108h12v12h-12zM540 120h12v12h-12zM540 132h12v12h-12zM540 144h12v12h-12zM540 156h12v12h-12zM540 168h12v12h-12zM540 180h12v12h-12zM540 192h12v12h-12zM540 204h12v12h-12zM540 216h12v12h-12zM540 228h12v12h-12zM540 240h12v12h-12zM540 252h12v12h-12zM540 264h12v12h-12zM540 276h12v12h-12zM540 288h12v12h-12zM540 300h12v12h-12zM540 312h12v12h-12zM540 324h12v12h-12zM540 336h12v12h-12zM540 348h12v12h-12zM540 360h12v12h-12zM540 372h12v12h-12zM540 384h12v12h-12zM540 396h12v12h-12zM540 408h12v12h-12zM540 420h12v12h-12zM540 432h12v12h-12zM540 444h12v12h-12zM540 456h12v12h-12zM540 468h12v12h-12zM600 0h12v12h-12zM600 12h12v12h-12zM600 24h12v12h-12zM600 36h12v12h-12zM600 48h12v12h-12zM600 60h12v12h-12zM600 72h12v12h-12zM600 84h12v12h-12zM600 96h12v12h-12zM600 108h12v12h-12zM600 120h12v12h-12zM600 132h12v12h-12zM600 144h12v12h-12zM600 156h12v12h-12zM600 168h12v12h-12zM600 180h12v12h-12zM600 192h12v12h-12zM600 204h12v12h-12zM600 216h12v12h-12zM600 228h12v12h-12zM600 240h12v12h-12zM600 252h12v12h-12zM600 264h12v12h-12zM600 276h12v12h-12zM600 288h12v12h-12zM600 300h12v12h-12zM600 312h12v12h-12zM600 324h12v12h-12zM600 336h12v12h-12zM600 348h12v12h-12zM600 360h12v12h-12zM600 372h12v12h-12zM600 384h12v12h-12zM600 396h12v12h-12zM600 408h12v12h-12zM600 420h12v12h-12zM600 432h12v12h-12zM600 444h12v12h-12zM600 456h12v12h-12zM600 468h12v12h-12zM660 0h12v12h-12zM660 12h12v12h-12zM660 24h12v12h-12zM660 36h12v12h-12zM660 48h12v12h-12zM660 60h12v12h-12zM660 72h12v12h-12zM660 84h12v12h-12zM660 96h12v12h-12zM660 108h12v12h-12zM660 120h12v12h-12zM660 132h12v12h-12zM660 144h12v12h-12zM660 156h12v12h-12zM660 168h12v12h-12zM660 180h12v12h-12zM660 192h12v12h-12zM660 204h12v12h-12zM660 216h12v12h-12zM660 228h12v12h-12zM660 240h12v12h-12zM660 252h12v12h-12zM660 264h12v12h-12zM660 276h12v12h-12zM660 288h12v12h-12zM660 300h12v12h-12zM660 312h12v12h-12zM660 324h12v12h-12zM660 336h12v12h-12zM660 348h12v12h-12zM660 360h12v12h-12zM660 372h12v12h-12zM660 384h12v12h-12zM660 396h12v12h-12zM660 408h12v12h-12zM660 420h12v12h-12zM660 432h12v12h-12zM660 444h12v12h-12zM660 456h12v12h-12zM660 468h12v12h-12zM720 0h12v12h-12zM720 12h12v12h-12zM720 24h12v12h-12zM720 36h12v12h-12zM720 48h12v12h-12zM720 60h12v12h-12zM720 72h12v12h-12zM720 84h12v12h-12zM720 96h12v12h-12zM720 108h12v12h-12zM720 120h12v12h-12zM720 132h12v12h-12zM720 144h12v12h-12zM720 156h12v12h-12zM720 168h12v12h-12zM720 180h12v12h-12zM720 192h12v12h-12zM720 204h12v12h-12zM720 216h12v12h-12zM720 228h12v12h-12zM720 240h12v12h-12zM720 252h12v12h-12zM720 264h12v12h-12zM720 276h12v12h-12zM720 288h12v12h-12zM720 300h12v12h-12zM720 312h12v12h-12zM720 324h12v12h-12zM720 336h12v12h-12zM720 348h12v12h-12zM720 360h12v12h-12zM720 372h12v12h-12zM720 384h12v12h-12zM720 396h12v12h-12zM720 408h12v12h-12zM720 420h12v12h-12zM720 432h12v12h-12zM720 444h12v12h-12zM720 456h12v12h-12zM720 468h12v12h-12zM780 0h12v12h-12zM780 12h12v12h-12zM780 24h12v12h-12zM780 36h12v12h-12zM780 48h12v12h-12zM780 60h12v12h-12zM780 72h12v12h-12zM780 84h12v12h-12zM780 96h12v12h-12zM780 108h12v12h-12zM780 120h12v12h-12zM780 132h12v12h-12zM780 144h12v12h-12zM780 156h12v12h-12zM780 168h12v12h-12zM780 180h12v12h-12zM780 192h12v12h-12zM780 204h12v12h-12zM780 216h12v12h-12zM780 228h12v12h-12zM780 240h12v12h-12zM780 252h12v12h-12zM780 264h12v12h-12zM780 276h12v12h-12zM780 288h12v12h-12zM780 300h12v12h-12zM780 312h12v12h-12zM780 324h12v12h-12zM780 336h12v12h-12zM780 348h12v12h-12zM780 360h12v12h-12zM780 372h12v12h-12zM780 384h12v12h-12zM780 396h12v12h-12zM780 408h12v12h-12zM780 420h12v12h-12zM780 432h12v12h-12zM780 444h12v12h-12zM780 456h12v12h-12zM780 468h12v12h-12zM840 0h12v12h-12zM840 12h12v12h-12zM840 24h12v12h-12zM840 36h12v12h-12zM840 48h12v12h-12zM840 60h12v12h-12zM840 72h12v12h-12zM840 84h12v12h-12zM840 96h12v12h-12zM840 108h12v12h-12zM840 120h12v12h-12zM840 132h12v12h-12zM840 144h12v12h-12zM840 156h12v12h-12zM840 168h12v12h-12zM840 180h12v12h-12zM840 192h12v12h-12zM840 204h12v12h-12zM840 216h12v12h-12zM840 228h12v12h-12zM840 240h12v12h-12zM840 252h12v12h-12zM840 264h12v12h-12zM840 276h12v12h-12zM840 288h12v12h-12zM840 300h12v12h-12zM840 312h12v12h-12zM840 324h12v12h-12zM840 336h12v12h-12zM840 348h12v12h-12zM840 360h12v12h-12zM840 372h12v12h-12zM840 384h12v12h-12zM840 396h12v12h-12zM840 408h12v12h-12zM840 420h12v12h-12zM840 432h12v12h-12zM840 444h12v12h-12zM840 456h12v12h-12zM840 468h12v12h-12zM900 0h12v12h-12zM900 12h12v12h-12zM900 24h12v12h-12zM900 36h12v12h-12zM900 48h12v12h-12zM900 60h12v12h-12zM900 72h12v12h-12zM900 84h12v12h-12zM900 96h12v12h-12zM900 108h12v12h-12zM900 120h12v12h-12zM900 132h12v12h-12zM900 144h12v12h-12zM900 156h12v12h-12zM900 168h12v12h-12zM900 180h12v12h-12zM900 192h12v12h-12zM900 204h12v12h-12zM900 216h12v12h-12zM900 228h12v12h-12zM900 240h12v12h-12zM900 252h12v12h-12zM900 264h12v12h-12zM900 276h12v12h-12zM900 288h12v12h-12zM900 300h12v12h-12zM900 312h12v12h-12zM900 324h12v12h-12zM900 336h12v12h-12zM900 348h12v12h-12zM900 360h12v12h-12zM900 372h12v12h-12zM900 384h12v12h-12zM900 396h12v12h-12zM900 408h12v12h-12zM900 420h12v12h-12zM900 432h12v12h-12zM900 444h12v12h-12zM900 456h12v12h-12zM900 468h12v12h-12z"/><path fill="#e0dec7" d="M0 0h12v12h-12zM36 0h12v12h-12zM0 36h12v12h-12zM36 36h12v12h-12zM60 0h12v12h-12zM72 0h12v12h-12zM60 36h12v12h-12zM72 36h12v12h-12zM120 0h12v12h-12zM108 12h12v12h-12zM132 12h12v12h-12zM96 24h12v12h-12zM120 24h12v12h-12zM108 36h12v12h-12zM168 0h12v12h-12zM144 12h12v12h-12zM156 12h12v12h-12zM180 12h12v12h-12zM144 24h12v12h-12zM168 24h12v12h-12zM180 24h12v12h-12zM156 36h12v12h-12zM204 0h12v12h-12zM216 0h12v12h-12zM216 12h12v12h-12zM204 36h12v12h-12zM240 0h12v12h-12zM276 0h12v12h-12zM240 36h12v12h-12zM276 36h12v12h-12zM288 0h12v12h-12zM300 0h12v12h-12zM312 36h12v12h-12zM324 36h12v12h-12zM360 0h12v12h-12zM372 12h12v12h-12zM336 24h12v12h-12zM348 36h12v12h-12zM420 0h12v12h-12zM408 12h12v12h-12zM396 24h12v12h-12zM384 36h12v12h-12zM432 0h12v12h-12zM468 0h12v12h-12zM444 12h12v12h-12zM456 12h12v12h-12zM432 36h12v12h-12zM468 36h12v12h-12zM492 0h12v12h-12zM516 0h12v12h-12zM480 12h12v12h-12zM516 24h12v12h-12zM480 36h12v12h-12zM504 36h12v12h-12zM528 0h12v12h-12zM528 12h12v12h-12zM564 24h12v12h-12zM564 36h12v12h-12zM576 0h12v12h-12zM588 12h12v12h-12zM600 24h12v12h-12zM612 36h12v12h-12zM624 0h12v12h-12zM660 0h12v12h-12zM636 12h12v12h-12zM648 12h12v12h-12zM648 24h12v12h-12zM624 36h12v12h-12zM660 36h12v12h-12zM672 0h12v12h-12zM708 0h12v12h-12zM696 12h12v12h-12zM684 24h12v12h-12zM672 36h12v12h-12zM708 36h12v12h-12zM720 0h12v12h-12zM744 0h12v12h-12zM744 12h12v12h-12zM756 12h12v12h-12zM720 24h12v12h-12zM732 24h12v12h-12zM732 36h12v12h-12zM756 36h12v12h-12zM768 0h12v12h-12zM792 0h12v12h-12zM804 12h12v12h-12zM768 24h12v12h-12zM780 36h12v12h-12zM804 36h12v12h-12zM828 0h12v12h-12zM816 12h12v12h-12zM840 12h12v12h-12zM852 12h12v12h-12zM816 24h12v12h-12zM828 24h12v12h-12zM852 24h12v12h-12zM840 36h12v12h-12zM876 0h12v12h-12zM864 12h12v12h-12zM876 12h12v12h-12zM888 24h12v12h-12zM900 24h12v12h-12zM888 36h12v12h-12zM948 72h12v12h-12zM924 0h12v12h-12zM936 0h12v12h-12zM924 12h12v12h-12zM948 12h12v12h-12zM912 24h12v12h-12zM936 24h12v12h-12zM924 36h12v12h-12zM936 36h12v12h-12zM24 48h12v12h-12zM36 48h12v12h-12zM0 84h12v12h-12zM12 84h12v12h-12zM48 48h12v12h-12zM84 48h12v12h-12zM60 60h12v12h-12zM72 60h12v12h-12zM48 72h12v12h-12zM84 72h12v12h-12zM108 60h12v12h-12zM120 60h12v12h-12zM108 72h12v12h-12zM120 72h12v12h-12zM180 48h12v12h-12zM180 60h12v12h-12zM144 72h12v12h-12zM144 84h12v12h-12zM204 48h12v12h-12zM216 48h12v12h-12zM216 60h12v12h-12zM204 84h12v12h-12zM258 66h12v12h-12zM300 48h12v12h-12zM324 48h12v12h-12zM312 60h12v12h-12zM312 72h12v12h-12zM300 84h12v12h-12zM324 84h12v12h-12zM336 48h12v12h-12zM372 48h12v12h-12zM348 60h12v12h-12zM360 72h12v12h-12zM336 84h12v12h-12zM372 84h12v12h-12zM396 48h12v12h-12zM408 48h12v12h-12zM408 60h12v12h-12zM396 84h12v12h-12zM432 48h12v12h-12zM468 48h12v12h-12zM456 60h12v12h-12zM444 72h12v12h-12zM432 84h12v12h-12zM468 84h12v12h-12zM480 48h12v12h-12zM516 48h12v12h-12zM492 60h12v12h-12zM504 60h12v12h-12zM492 72h12v12h-12zM480 84h12v12h-12zM516 84h12v12h-12zM540 48h12v12h-12zM564 48h12v12h-12zM528 60h12v12h-12zM552 60h12v12h-12zM540 72h12v12h-12zM564 72h12v12h-12zM528 84h12v12h-12zM552 84h12v12h-12zM576 48h12v12h-12zM612 48h12v12h-12zM600 60h12v12h-12zM588 72h12v12h-12zM576 84h12v12h-12zM612 84h12v12h-12zM624 48h12v12h-12zM660 48h12v12h-12zM636 60h12v12h-12zM636 72h12v12h-12zM648 72h12v12h-12zM624 84h12v12h-12zM660 84h12v12h-12zM672 48h12v12h-12zM708 48h12v12h-12zM696 60h12v12h-12zM684 72h12v12h-12zM672 84h12v12h-12zM708 84h12v12h-12zM720 48h12v12h-12zM756 48h12v12h-12zM732 60h12v12h-12zM744 60h12v12h-12zM720 72h12v12h-12zM756 72h12v12h-12zM768 48h12v12h-12zM804 48h12v12h-12zM780 60h12v12h-12zM792 72h12v12h-12zM768 84h12v12h-12zM804 84h12v12h-12zM816 48h12v12h-12zM852 48h12v12h-12zM840 60h12v12h-12zM828 72h12v12h-12zM816 84h12v12h-12zM852 84h12v12h-12zM888 48h12v12h-12zM900 60h12v12h-12zM864 72h12v12h-12zM876 84h12v12h-12zM924 48h12v12h-12zM936 48h12v12h-12zM912 60h12v12h-12zM936 60h12v12h-12zM924 72h12v12h-12zM948 72h12v12h-12zM924 84h12v12h-12zM936 84h12v12h-12zM0 96h12v12h-12zM24 96h12v12h-12zM24 108h12v12h-12zM36 108h12v12h-12zM0 120h12v12h-12zM12 120h12v12h-12zM12 132h12v12h-12zM36 132h12v12h-12zM48 96h12v12h-12zM84 96h12v12h-12zM60 108h12v12h-12zM72 108h12v12h-12zM48 132h12v12h-12zM84 132h12v12h-12zM120 96h12v12h-12zM96 108h12v12h-12zM108 108h12v12h-12zM132 108h12v12h-12zM96 120h12v12h-12zM120 120h12v12h-12zM132 120h12v12h-12zM108 132h12v12h-12zM168 96h12v12h-12zM144 108h12v12h-12zM156 108h12v12h-12zM180 108h12v12h-12zM144 120h12v12h-12zM168 120h12v12h-12zM180 120h12v12h-12zM156 132h12v12h-12zM228 96h12v12h-12zM228 108h12v12h-12zM192 120h12v12h-12zM192 132h12v12h-12zM240 96h12v12h-12zM276 96h12v12h-12zM252 108h12v12h-12zM264 108h12v12h-12zM264 120h12v12h-12zM240 132h12v12h-12zM276 132h12v12h-12zM288 96h12v12h-12zM288 108h12v12h-12zM324 120h12v12h-12zM324 132h12v12h-12zM336 96h12v12h-12zM348 96h12v12h-12zM372 96h12v12h-12zM336 108h12v12h-12zM360 108h12v12h-12zM348 120h12v12h-12zM336 132h12v12h-12zM384 96h12v12h-12zM396 96h12v12h-12zM408 132h12v12h-12zM420 132h12v12h-12zM444 96h12v12h-12zM432 108h12v12h-12zM456 108h12v12h-12zM468 108h12v12h-12zM432 120h12v12h-12zM444 120h12v12h-12zM468 120h12v12h-12zM456 132h12v12h-12zM492 96h12v12h-12zM480 108h12v12h-12zM516 120h12v12h-12zM504 132h12v12h-12zM552 96h12v12h-12zM564 96h12v12h-12zM552 108h12v12h-12zM564 108h12v12h-12zM528 120h12v12h-12zM540 120h12v12h-12zM528 132h12v12h-12zM540 132h12v12h-12zM576 108h12v12h-12zM588 108h12v12h-12zM576 120h12v12h-12zM612 120h12v12h-12zM660 96h12v12h-12zM648 108h12v12h-12zM636 120h12v12h-12zM624 132h12v12h-12zM684 96h12v12h-12zM696 96h12v12h-12zM684 132h12v12h-12zM696 132h12v12h-12zM720 96h12v12h-12zM720 108h12v12h-12zM756 120h12v12h-12zM756 132h12v12h-12zM780 96h12v12h-12zM792 96h12v12h-12zM768 108h12v12h-12zM792 108h12v12h-12zM780 120h12v12h-12zM804 120h12v12h-12zM780 132h12v12h-12zM792 132h12v12h-12zM816 96h12v12h-12zM816 108h12v12h-12zM852 120h12v12h-12zM852 132h12v12h-12zM864 96h12v12h-12zM876 96h12v12h-12zM900 96h12v12h-12zM864 108h12v12h-12zM888 108h12v12h-12zM876 120h12v12h-12zM864 132h12v12h-12zM936 96h12v12h-12zM924 108h12v12h-12zM948 108h12v12h-12zM912 120h12v12h-12zM936 120h12v12h-12zM924 132h12v12h-12zM12 144h12v12h-12zM36 144h12v12h-12zM24 156h12v12h-12zM24 168h12v12h-12zM12 180h12v12h-12zM36 180h12v12h-12zM72 144h12v12h-12zM84 156h12v12h-12zM48 168h12v12h-12zM60 180h12v12h-12zM96 144h12v12h-12zM96 156h12v12h-12zM132 168h12v12h-12zM132 180h12v12h-12zM180 144h12v12h-12zM168 156h12v12h-12zM156 168h12v12h-12zM180 168h12v12h-12zM144 180h12v12h-12zM168 180h12v12h-12zM180 180h12v12h-12zM192 144h12v12h-12zM228 144h12v12h-12zM204 156h12v12h-12zM216 156h12v12h-12zM192 168h12v12h-12zM228 168h12v12h-12zM252 144h12v12h-12zM240 156h12v12h-12zM252 156h12v12h-12zM264 168h12v12h-12zM276 168h12v12h-12zM264 180h12v12h-12zM288 144h12v12h-12zM300 144h12v12h-12zM288 156h12v12h-12zM300 156h12v12h-12zM312 168h12v12h-12zM324 168h12v12h-12zM312 180h12v12h-12zM324 180h12v12h-12zM360 144h12v12h-12zM336 156h12v12h-12zM348 156h12v12h-12zM372 156h12v12h-12zM336 168h12v12h-12zM360 168h12v12h-12zM372 168h12v12h-12zM348 180h12v12h-12zM396 144h12v12h-12zM420 144h12v12h-12zM408 156h12v12h-12zM408 168h12v12h-12zM396 180h12v12h-12zM420 180h12v12h-12zM444 144h12v12h-12zM468 144h12v12h-12zM456 156h12v12h-12zM456 168h12v12h-12zM444 180h12v12h-12zM468 180h12v12h-12zM492 156h12v12h-12zM504 156h12v12h-12zM492 168h12v12h-12zM504 168h12v12h-12zM564 144h12v12h-12zM552 156h12v12h-12zM540 168h12v12h-12zM528 180h12v12h-12zM576 144h12v12h-12zM612 144h12v12h-12zM600 156h12v12h-12zM588 168h12v12h-12zM576 180h12v12h-12zM612 180h12v12h-12zM624 144h12v12h-12zM660 144h12v12h-12zM624 168h12v12h-12zM660 168h12v12h-12zM684 144h12v12h-12zM708 144h12v12h-12zM696 156h12v12h-12zM696 168h12v12h-12zM684 180h12v12h-12zM708 180h12v12h-12zM744 144h12v12h-12zM756 144h12v12h-12zM720 180h12v12h-12zM732 180h12v12h-12zM768 144h12v12h-12zM804 144h12v12h-12zM780 168h12v12h-12zM792 168h12v12h-12zM768 180h12v12h-12zM804 180h12v12h-12zM828 144h12v12h-12zM840 144h12v12h-12zM828 180h12v12h-12zM840 180h12v12h-12zM864 144h12v12h-12zM900 144h12v12h-12zM876 156h12v12h-12zM888 156h12v12h-12zM864 168h12v12h-12zM900 168h12v12h-12zM948 144h12v12h-12zM936 156h12v12h-12zM924 168h12v12h-12zM912 180h12v12h-12zM0 192h12v12h-12zM36 192h12v12h-12zM12 216h12v12h-12zM24 216h12v12h-12zM0 228h12v12h-12zM36 228h12v12h-12zM60 192h12v12h-12zM84 192h12v12h-12zM48 204h12v12h-12zM60 204h12v12h-12zM72 216h12v12h-12zM84 216h12v12h-12zM48 228h12v12h-12zM72 228h12v12h-12zM120 192h12v12h-12zM132 204h12v12h-12zM96 216h12v12h-12zM108 228h12v12h-12zM144 192h12v12h-12zM180 192h12v12h-12zM144 228h12v12h-12zM180 228h12v12h-12zM204 192h12v12h-12zM192 204h12v12h-12zM216 204h12v12h-12zM228 204h12v12h-12zM192 216h12v12h-12zM204 216h12v12h-12zM228 216h12v12h-12zM216 228h12v12h-12zM240 192h12v12h-12zM252 192h12v12h-12zM276 192h12v12h-12zM240 204h12v12h-12zM264 204h12v12h-12zM252 216h12v12h-12zM240 228h12v12h-12zM300 192h12v12h-12zM324 192h12v12h-12zM288 204h12v12h-12zM300 204h12v12h-12zM312 216h12v12h-12zM324 216h12v12h-12zM288 228h12v12h-12zM312 228h12v12h-12zM348 192h12v12h-12zM360 192h12v12h-12zM348 228h12v12h-12zM360 228h12v12h-12zM384 192h12v12h-12zM420 192h12v12h-12zM396 204h12v12h-12zM408 204h12v12h-12zM408 216h12v12h-12zM384 228h12v12h-12zM420 228h12v12h-12zM432 192h12v12h-12zM468 192h12v12h-12zM456 204h12v12h-12zM444 216h12v12h-12zM432 228h12v12h-12zM468 228h12v12h-12zM504 192h12v12h-12zM516 192h12v12h-12zM504 204h12v12h-12zM516 204h12v12h-12zM480 216h12v12h-12zM492 216h12v12h-12zM480 228h12v12h-12zM492 228h12v12h-12zM540 192h12v12h-12zM528 204h12v12h-12zM552 204h12v12h-12zM564 204h12v12h-12zM528 216h12v12h-12zM540 216h12v12h-12zM564 216h12v12h-12zM552 228h12v12h-12zM612 192h12v12h-12zM600 204h12v12h-12zM588 216h12v12h-12zM612 216h12v12h-12zM576 228h12v12h-12zM600 228h12v12h-12zM612 228h12v12h-12zM624 204h12v12h-12zM660 204h12v12h-12zM624 216h12v12h-12zM660 216h12v12h-12zM708 192h12v12h-12zM708 204h12v12h-12zM672 216h12v12h-12zM672 228h12v12h-12zM720 192h12v12h-12zM756 192h12v12h-12zM720 216h12v12h-12zM756 216h12v12h-12zM768 192h12v12h-12zM804 192h12v12h-12zM780 204h12v12h-12zM792 216h12v12h-12zM768 228h12v12h-12zM804 228h12v12h-12zM828 192h12v12h-12zM852 192h12v12h-12zM816 204h12v12h-12zM828 204h12v12h-12zM840 216h12v12h-12zM852 216h12v12h-12zM816 228h12v12h-12zM840 228h12v12h-12zM888 192h12v12h-12zM864 204h12v12h-12zM876 204h12v12h-12zM900 204h12v12h-12zM864 216h12v12h-12zM888 216h12v12h-12zM900 216h12v12h-12zM876 228h12v12h-12zM912 192h12v12h-12zM936 192h12v12h-12zM924 204h12v12h-12zM948 204h12v12h-12zM912 216h12v12h-12zM936 216h12v12h-12zM924 228h12v12h-12zM948 228h12v12h-12zM12 240h12v12h-12zM0 252h12v12h-12zM12 252h12v12h-12zM24 264h12v12h-12zM36 264h12v12h-12zM24 276h12v12h-12zM72 240h12v12h-12zM72 252h12v12h-12zM84 252h12v12h-12zM48 264h12v12h-12zM60 264h12v12h-12zM60 276h12v12h-12zM132 240h12v12h-12zM120 252h12v12h-12zM108 264h12v12h-12zM96 276h12v12h-12zM144 240h12v12h-12zM180 240h12v12h-12zM156 252h12v12h-12zM156 264h12v12h-12zM168 264h12v12h-12zM144 276h12v12h-12zM180 276h12v12h-12zM192 240h12v12h-12zM228 240h12v12h-12zM204 252h12v12h-12zM216 252h12v12h-12zM192 276h12v12h-12zM228 276h12v12h-12zM240 240h12v12h-12zM264 240h12v12h-12zM264 252h12v12h-12zM276 252h12v12h-12zM240 264h12v12h-12zM252 264h12v12h-12zM252 276h12v12h-12zM276 276h12v12h-12zM288 252h12v12h-12zM324 252h12v12h-12zM288 264h12v12h-12zM300 264h12v12h-12zM336 240h12v12h-12zM372 240h12v12h-12zM348 252h12v12h-12zM360 252h12v12h-12zM336 264h12v12h-12zM372 264h12v12h-12zM396 240h12v12h-12zM420 240h12v12h-12zM384 252h12v12h-12zM420 264h12v12h-12zM384 276h12v12h-12zM408 276h12v12h-12zM432 240h12v12h-12zM444 252h12v12h-12zM456 264h12v12h-12zM468 276h12v12h-12zM480 252h12v12h-12zM492 252h12v12h-12zM480 264h12v12h-12zM516 264h12v12h-12zM528 240h12v12h-12zM564 240h12v12h-12zM540 252h12v12h-12zM552 252h12v12h-12zM528 264h12v12h-12zM564 264h12v12h-12zM600 240h12v12h-12zM612 252h12v12h-12zM576 264h12v12h-12zM588 276h12v12h-12zM624 252h12v12h-12zM660 252h12v12h-12zM624 264h12v12h-12zM636 264h12v12h-12zM684 240h12v12h-12zM696 240h12v12h-12zM672 252h12v12h-12zM696 252h12v12h-12zM684 264h12v12h-12zM708 264h12v12h-12zM684 276h12v12h-12zM696 276h12v12h-12zM732 240h12v12h-12zM756 240h12v12h-12zM732 276h12v12h-12zM756 276h12v12h-12zM780 240h12v12h-12zM792 264h12v12h-12zM780 276h12v12h-12zM792 276h12v12h-12zM828 240h12v12h-12zM852 240h12v12h-12zM816 252h12v12h-12zM852 264h12v12h-12zM816 276h12v12h-12zM840 276h12v12h-12zM864 240h12v12h-12zM900 240h12v12h-12zM876 252h12v12h-12zM888 252h12v12h-12zM876 264h12v12h-12zM864 276h12v12h-12zM900 276h12v12h-12zM912 240h12v12h-12zM948 240h12v12h-12zM924 252h12v12h-12zM936 252h12v12h-12zM924 264h12v12h-12zM936 264h12v12h-12zM912 276h12v12h-12zM948 276h12v12h-12zM12 288h12v12h-12zM0 300h12v12h-12zM12 300h12v12h-12zM24 312h12v12h-12zM36 312h12v12h-12zM24 324h12v12h-12zM60 288h12v12h-12zM72 288h12v12h-12zM60 324h12v12h-12zM72 324h12v12h-12zM120 288h12v12h-12zM132 300h12v12h-12zM96 312h12v12h-12zM108 324h12v12h-12zM144 288h12v12h-12zM180 288h12v12h-12zM156 300h12v12h-12zM168 300h12v12h-12zM144 312h12v12h-12zM180 312h12v12h-12zM204 288h12v12h-12zM192 300h12v12h-12zM216 300h12v12h-12zM228 300h12v12h-12zM192 312h12v12h-12zM204 312h12v12h-12zM228 312h12v12h-12zM216 324h12v12h-12zM240 288h12v12h-12zM276 288h12v12h-12zM264 300h12v12h-12zM252 312h12v12h-12zM264 312h12v12h-12zM240 324h12v12h-12zM276 324h12v12h-12zM312 288h12v12h-12zM324 300h12v12h-12zM288 312h12v12h-12zM300 324h12v12h-12zM336 288h12v12h-12zM360 288h12v12h-12zM348 300h12v12h-12zM372 300h12v12h-12zM336 312h12v12h-12zM360 312h12v12h-12zM348 324h12v12h-12zM372 324h12v12h-12zM420 360h12v12h-12zM396 288h12v12h-12zM408 288h12v12h-12zM396 300h12v12h-12zM420 300h12v12h-12zM384 312h12v12h-12zM408 312h12v12h-12zM396 324h12v12h-12zM408 324h12v12h-12zM444 288h12v12h-12zM468 288h12v12h-12zM432 300h12v12h-12zM444 300h12v12h-12zM456 312h12v12h-12zM468 312h12v12h-12zM432 324h12v12h-12zM456 324h12v12h-12zM480 288h12v12h-12zM516 288h12v12h-12zM492 300h12v12h-12zM492 312h12v12h-12zM504 312h12v12h-12zM480 324h12v12h-12zM516 324h12v12h-12zM552 288h12v12h-12zM564 288h12v12h-12zM528 324h12v12h-12zM540 324h12v12h-12zM576 288h12v12h-12zM612 288h12v12h-12zM588 300h12v12h-12zM600 300h12v12h-12zM576 312h12v12h-12zM612 312h12v12h-12zM648 288h12v12h-12zM660 288h12v12h-12zM624 324h12v12h-12zM636 324h12v12h-12zM672 288h12v12h-12zM684 288h12v12h-12zM708 288h12v12h-12zM672 300h12v12h-12zM696 300h12v12h-12zM684 312h12v12h-12zM672 324h12v12h-12zM720 288h12v12h-12zM732 288h12v12h-12zM720 300h12v12h-12zM732 300h12v12h-12zM744 312h12v12h-12zM756 312h12v12h-12zM744 324h12v12h-12zM756 324h12v12h-12zM768 288h12v12h-12zM780 288h12v12h-12zM804 288h12v12h-12zM768 300h12v12h-12zM792 300h12v12h-12zM780 312h12v12h-12zM768 324h12v12h-12zM852 360h12v12h-12zM828 288h12v12h-12zM840 288h12v12h-12zM828 300h12v12h-12zM852 300h12v12h-12zM816 312h12v12h-12zM840 312h12v12h-12zM828 324h12v12h-12zM840 324h12v12h-12zM876 288h12v12h-12zM888 288h12v12h-12zM864 300h12v12h-12zM888 300h12v12h-12zM876 312h12v12h-12zM900 312h12v12h-12zM876 324h12v12h-12zM888 324h12v12h-12zM912 288h12v12h-12zM948 288h12v12h-12zM924 300h12v12h-12zM936 300h12v12h-12zM924 312h12v12h-12zM912 324h12v12h-12zM948 324h12v12h-12zM24 336h12v12h-12zM12 348h12v12h-12zM36 348h12v12h-12zM0 360h12v12h-12zM24 360h12v12h-12zM12 372h12v12h-12zM60 336h12v12h-12zM48 348h12v12h-12zM84 360h12v12h-12zM72 372h12v12h-12zM120 336h12v12h-12zM108 348h12v12h-12zM132 348h12v12h-12zM96 360h12v12h-12zM120 360h12v12h-12zM108 372h12v12h-12zM156 336h12v12h-12zM144 348h12v12h-12zM168 348h12v12h-12zM180 348h12v12h-12zM144 360h12v12h-12zM156 360h12v12h-12zM180 360h12v12h-12zM168 372h12v12h-12zM192 336h12v12h-12zM204 336h12v12h-12zM192 348h12v12h-12zM204 348h12v12h-12zM216 360h12v12h-12zM228 360h12v12h-12zM216 372h12v12h-12zM228 372h12v12h-12zM240 336h12v12h-12zM276 336h12v12h-12zM252 348h12v12h-12zM264 348h12v12h-12zM264 360h12v12h-12zM240 372h12v12h-12zM276 372h12v12h-12zM288 348h12v12h-12zM324 348h12v12h-12zM288 360h12v12h-12zM324 360h12v12h-12zM336 336h12v12h-12zM372 336h12v12h-12zM348 360h12v12h-12zM360 360h12v12h-12zM336 372h12v12h-12zM372 372h12v12h-12zM384 336h12v12h-12zM408 336h12v12h-12zM420 348h12v12h-12zM384 360h12v12h-12zM396 372h12v12h-12zM420 372h12v12h-12zM456 336h12v12h-12zM456 348h12v12h-12zM468 348h12v12h-12zM432 360h12v12h-12zM444 360h12v12h-12zM444 372h12v12h-12zM480 336h12v12h-12zM516 336h12v12h-12zM492 348h12v12h-12zM504 348h12v12h-12zM492 360h12v12h-12zM480 372h12v12h-12zM516 372h12v12h-12zM528 336h12v12h-12zM552 336h12v12h-12zM564 336h12v12h-12zM540 348h12v12h-12zM564 348h12v12h-12zM552 360h12v12h-12zM564 372h12v12h-12zM576 336h12v12h-12zM600 336h12v12h-12zM612 336h12v12h-12zM588 348h12v12h-12zM612 348h12v12h-12zM600 360h12v12h-12zM612 372h12v12h-12zM648 336h12v12h-12zM648 348h12v12h-12zM660 348h12v12h-12zM624 360h12v12h-12zM636 360h12v12h-12zM636 372h12v12h-12zM672 336h12v12h-12zM708 336h12v12h-12zM696 348h12v12h-12zM684 360h12v12h-12zM696 360h12v12h-12zM672 372h12v12h-12zM708 372h12v12h-12zM744 336h12v12h-12zM756 336h12v12h-12zM744 348h12v12h-12zM756 348h12v12h-12zM720 360h12v12h-12zM732 360h12v12h-12zM720 372h12v12h-12zM732 372h12v12h-12zM780 336h12v12h-12zM768 348h12v12h-12zM792 348h12v12h-12zM780 360h12v12h-12zM804 360h12v12h-12zM792 372h12v12h-12zM840 336h12v12h-12zM816 348h12v12h-12zM828 348h12v12h-12zM852 348h12v12h-12zM816 360h12v12h-12zM840 360h12v12h-12zM852 360h12v12h-12zM828 372h12v12h-12zM864 336h12v12h-12zM876 336h12v12h-12zM900 336h12v12h-12zM864 348h12v12h-12zM888 348h12v12h-12zM876 360h12v12h-12zM864 372h12v12h-12zM912 336h12v12h-12zM924 348h12v12h-12zM912 360h12v12h-12zM936 360h12v12h-12zM912 372h12v12h-12zM924 372h12v12h-12zM948 372h12v12h-12zM0 396h12v12h-12zM36 396h12v12h-12zM0 408h12v12h-12zM36 408h12v12h-12zM60 384h12v12h-12zM84 384h12v12h-12zM60 420h12v12h-12zM84 420h12v12h-12zM96 384h12v12h-12zM132 384h12v12h-12zM108 396h12v12h-12zM120 396h12v12h-12zM96 420h12v12h-12zM132 420h12v12h-12zM156 384h12v12h-12zM180 384h12v12h-12zM168 396h12v12h-12zM168 408h12v12h-12zM156 420h12v12h-12zM180 420h12v12h-12zM192 384h12v12h-12zM216 384h12v12h-12zM228 384h12v12h-12zM204 396h12v12h-12zM228 396h12v12h-12zM216 408h12v12h-12zM228 420h12v12h-12zM240 384h12v12h-12zM264 384h12v12h-12zM276 384h12v12h-12zM252 396h12v12h-12zM276 396h12v12h-12zM264 408h12v12h-12zM276 420h12v12h-12zM288 384h12v12h-12zM324 384h12v12h-12zM300 396h12v12h-12zM312 396h12v12h-12zM300 408h12v12h-12zM312 408h12v12h-12zM288 420h12v12h-12zM324 420h12v12h-12zM348 384h12v12h-12zM372 384h12v12h-12zM360 396h12v12h-12zM360 408h12v12h-12zM348 420h12v12h-12zM372 420h12v12h-12zM384 384h12v12h-12zM396 384h12v12h-12zM384 396h12v12h-12zM396 396h12v12h-12zM408 408h12v12h-12zM420 408h12v12h-12zM408 420h12v12h-12zM420 420h12v12h-12zM444 384h12v12h-12zM468 384h12v12h-12zM432 396h12v12h-12zM456 396h12v12h-12zM444 408h12v12h-12zM468 408h12v12h-12zM432 420h12v12h-12zM456 420h12v12h-12zM480 384h12v12h-12zM516 384h12v12h-12zM492 396h12v12h-12zM504 408h12v12h-12zM480 420h12v12h-12zM516 420h12v12h-12zM528 396h12v12h-12zM564 396h12v12h-12zM528 408h12v12h-12zM564 408h12v12h-12zM588 384h12v12h-12zM612 384h12v12h-12zM576 396h12v12h-12zM612 408h12v12h-12zM576 420h12v12h-12zM600 420h12v12h-12zM636 384h12v12h-12zM624 396h12v12h-12zM648 396h12v12h-12zM660 396h12v12h-12zM624 408h12v12h-12zM636 408h12v12h-12zM660 408h12v12h-12zM648 420h12v12h-12zM684 384h12v12h-12zM672 396h12v12h-12zM684 396h12v12h-12zM696 408h12v12h-12zM708 408h12v12h-12zM696 420h12v12h-12zM720 384h12v12h-12zM732 396h12v12h-12zM720 408h12v12h-12zM744 408h12v12h-12zM720 420h12v12h-12zM732 420h12v12h-12zM756 420h12v12h-12zM804 384h12v12h-12zM792 396h12v12h-12zM780 408h12v12h-12zM804 408h12v12h-12zM768 420h12v12h-12zM792 420h12v12h-12zM804 420h12v12h-12zM828 384h12v12h-12zM816 396h12v12h-12zM852 408h12v12h-12zM840 420h12v12h-12zM876 384h12v12h-12zM864 396h12v12h-12zM900 408h12v12h-12zM888 420h12v12h-12zM936 384h12v12h-12zM948 384h12v12h-12zM912 420h12v12h-12zM924 420h12v12h-12zM12 432h12v12h-12zM0 444h12v12h-12zM24 444h12v12h-12zM36 444h12v12h-12zM0 456h12v12h-12zM12 456h12v12h-12zM36 456h12v12h-12zM24 468h12v12h-12zM48 432h12v12h-12zM72 432h12v12h-12zM72 444h12v12h-12zM84 444h12v12h-12zM48 456h12v12h-12zM60 456h12v12h-12zM60 468h12v12h-12zM84 468h12v12h-12zM96 432h12v12h-12zM132 432h12v12h-12zM120 444h12v12h-12zM108 456h12v12h-12zM96 468h12v12h-12zM132 468h12v12h-12zM144 444h12v12h-12zM180 444h12v12h-12zM144 456h12v12h-12zM156 456h12v12h-12zM216 432h12v12h-12zM228 432h12v12h-12zM216 444h12v12h-12zM228 444h12v12h-12zM192 456h12v12h-12zM204 456h12v12h-12zM192 468h12v12h-12zM204 468h12v12h-12zM240 432h12v12h-12zM252 432h12v12h-12zM264 468h12v12h-12zM276 468h12v12h-12zM288 432h12v12h-12zM324 432h12v12h-12zM288 456h12v12h-12zM324 456h12v12h-12zM336 432h12v12h-12zM348 432h12v12h-12zM360 468h12v12h-12zM372 468h12v12h-12zM384 432h12v12h-12zM396 432h12v12h-12zM384 444h12v12h-12zM396 444h12v12h-12zM408 456h12v12h-12zM420 456h12v12h-12zM408 468h12v12h-12zM420 468h12v12h-12zM432 432h12v12h-12zM468 432h12v12h-12zM444 444h12v12h-12zM456 444h12v12h-12zM456 456h12v12h-12zM432 468h12v12h-12zM468 468h12v12h-12zM480 432h12v12h-12zM516 432h12v12h-12zM492 444h12v12h-12zM492 456h12v12h-12zM504 456h12v12h-12zM480 468h12v12h-12zM516 468h12v12h-12zM528 432h12v12h-12zM564 432h12v12h-12zM540 444h12v12h-12zM552 444h12v12h-12zM528 468h12v12h-12zM564 468h12v12h-12zM588 432h12v12h-12zM600 432h12v12h-12zM576 444h12v12h-12zM600 444h12v12h-12zM588 456h12v12h-12zM612 456h12v12h-12zM588 468h12v12h-12zM600 468h12v12h-12zM648 432h12v12h-12zM636 444h12v12h-12zM660 444h12v12h-12zM624 456h12v12h-12zM648 456h12v12h-12zM636 468h12v12h-12zM684 432h12v12h-12zM672 444h12v12h-12zM696 444h12v12h-12zM684 456h12v12h-12zM708 456h12v12h-12zM696 468h12v12h-12zM720 432h12v12h-12zM756 432h12v12h-12zM732 456h12v12h-12zM744 456h12v12h-12zM720 468h12v12h-12zM756 468h12v12h-12zM792 432h12v12h-12zM804 444h12v12h-12zM768 456h12v12h-12zM780 468h12v12h-12zM828 432h12v12h-12zM852 432h12v12h-12zM816 444h12v12h-12zM852 456h12v12h-12zM816 468h12v12h-12zM840 468h12v12h-12zM864 432h12v12h-12zM900 432h12v12h-12zM888 444h12v12h-12zM876 456h12v12h-12zM864 468h12v12h-12zM900 468h12v12h-12zM948 432h12v12h-12zM936 444h12v12h-12zM924 456h12v12h-12zM948 456h12v12h-12zM912 468h12v12h-12zM936 468h12v12h-12zM948 468h12v12h-12zM0 480h12v12h-12zM36 480h12v12h-12zM12 492h12v12h-12zM24 492h12v12h-12zM12 504h12v12h-12zM24 504h12v12h-12zM0 516h12v12h-12zM36 516h12v12h-12zM108 480h12v12h-12zM132 480h12v12h-12zM96 492h12v12h-12zM120 492h12v12h-12zM108 504h12v12h-12zM132 504h12v12h-12zM96 516h12v12h-12zM120 516h12v12h-12zM192 480h12v12h-12zM204 480h12v12h-12zM216 516h12v12h-12zM228 516h12v12h-12zM288 480h12v12h-12zM288 492h12v12h-12zM324 504h12v12h-12zM324 516h12v12h-12zM396 480h12v12h-12zM384 492h12v12h-12zM420 504h12v12h-12zM408 516h12v12h-12zM480 480h12v12h-12zM492 492h12v12h-12zM480 504h12v12h-12zM504 504h12v12h-12zM480 516h12v12h-12zM492 516h12v12h-12zM516 516h12v12h-12zM612 552h12v12h-12zM588 480h12v12h-12zM600 480h12v12h-12zM588 492h12v12h-12zM612 492h12v12h-12zM576 504h12v12h-12zM600 504h12v12h-12zM588 516h12v12h-12zM600 516h12v12h-12zM708 552h12v12h-12zM684 480h12v12h-12zM696 480h12v12h-12zM684 492h12v12h-12zM708 492h12v12h-12zM672 504h12v12h-12zM696 504h12v12h-12zM684 516h12v12h-12zM696 516h12v12h-12zM768 480h12v12h-12zM792 480h12v12h-12zM804 480h12v12h-12zM780 492h12v12h-12zM804 492h12v12h-12zM792 504h12v12h-12zM804 516h12v12h-12zM882 498h12v12h-12zM24 576h12v12h-12zM0 588h12v12h-12zM12 588h12v12h-12zM36 588h12v12h-12zM0 600h12v12h-12zM24 600h12v12h-12zM36 600h12v12h-12zM12 612h12v12h-12zM96 576h12v12h-12zM132 576h12v12h-12zM108 588h12v12h-12zM120 600h12v12h-12zM96 612h12v12h-12zM132 612h12v12h-12zM204 576h12v12h-12zM192 588h12v12h-12zM216 588h12v12h-12zM204 600h12v12h-12zM228 600h12v12h-12zM216 612h12v12h-12zM312 576h12v12h-12zM312 588h12v12h-12zM324 588h12v12h-12zM288 600h12v12h-12zM300 600h12v12h-12zM300 612h12v12h-12zM420 576h12v12h-12zM408 588h12v12h-12zM396 600h12v12h-12zM384 612h12v12h-12zM480 576h12v12h-12zM516 576h12v12h-12zM480 600h12v12h-12zM516 600h12v12h-12zM576 576h12v12h-12zM612 576h12v12h-12zM600 588h12v12h-12zM588 600h12v12h-12zM576 612h12v12h-12zM612 612h12v12h-12zM684 576h12v12h-12zM672 588h12v12h-12zM696 588h12v12h-12zM708 588h12v12h-12zM672 600h12v12h-12zM684 600h12v12h-12zM708 600h12v12h-12zM696 612h12v12h-12zM768 576h12v12h-12zM804 576h12v12h-12zM780 588h12v12h-12zM792 588h12v12h-12zM780 600h12v12h-12zM792 600h12v12h-12zM768 612h12v12h-12zM804 612h12v12h-12zM864 576h12v12h-12zM888 576h12v12h-12zM900 576h12v12h-12zM876 588h12v12h-12zM900 588h12v12h-12zM888 600h12v12h-12zM900 612h12v12h-12zM24 672h12v12h-12zM24 684h12v12h-12zM36 684h12v12h-12zM0 696h12v12h-12zM12 696h12v12h-12zM12 708h12v12h-12zM96 672h12v12h-12zM132 672h12v12h-12zM108 684h12v12h-12zM120 684h12v12h-12zM108 696h12v12h-12zM120 696h12v12h-12zM96 708h12v12h-12zM132 708h12v12h-12zM204 672h12v12h-12zM216 672h12v12h-12zM192 684h12v12h-12zM216 684h12v12h-12zM204 696h12v12h-12zM228 696h12v12h-12zM204 708h12v12h-12zM216 708h12v12h-12zM288 672h12v12h-12zM324 672h12v12h-12zM300 684h12v12h-12zM312 684h12v12h-12zM300 696h12v12h-12zM288 708h12v12h-12zM324 708h12v12h-12zM396 672h12v12h-12zM384 684h12v12h-12zM408 684h12v12h-12zM396 696h12v12h-12zM420 696h12v12h-12zM408 708h12v12h-12zM516 672h12v12h-12zM516 684h12v12h-12zM480 696h12v12h-12zM480 708h12v12h-12zM600 672h12v12h-12zM600 684h12v12h-12zM612 684h12v12h-12zM576 696h12v12h-12zM588 696h12v12h-12zM588 708h12v12h-12zM672 672h12v12h-12zM684 672h12v12h-12zM708 672h12v12h-12zM672 684h12v12h-12zM696 684h12v12h-12zM684 696h12v12h-12zM672 708h12v12h-12zM768 672h12v12h-12zM792 672h12v12h-12zM780 684h12v12h-12zM804 684h12v12h-12zM768 696h12v12h-12zM792 696h12v12h-12zM780 708h12v12h-12zM804 708h12v12h-12zM864 684h12v12h-12zM876 684h12v12h-12zM864 696h12v12h-12zM900 696h12v12h-12zM12 768h12v12h-12zM0 780h12v12h-12zM24 780h12v12h-12zM36 780h12v12h-12zM0 792h12v12h-12zM12 792h12v12h-12zM36 792h12v12h-12zM24 804h12v12h-12zM96 768h12v12h-12zM120 768h12v12h-12zM132 780h12v12h-12zM96 792h12v12h-12zM108 804h12v12h-12zM132 804h12v12h-12zM228 768h12v12h-12zM216 780h12v12h-12zM204 792h12v12h-12zM228 792h12v12h-12zM192 804h12v12h-12zM216 804h12v12h-12zM228 804h12v12h-12zM300 768h12v12h-12zM324 768h12v12h-12zM288 780h12v12h-12zM300 780h12v12h-12zM312 792h12v12h-12zM324 792h12v12h-12zM288 804h12v12h-12zM312 804h12v12h-12zM408 768h12v12h-12zM396 780h12v12h-12zM420 780h12v12h-12zM384 792h12v12h-12zM408 792h12v12h-12zM396 804h12v12h-12zM480 768h12v12h-12zM504 768h12v12h-12zM516 780h12v12h-12zM480 792h12v12h-12zM492 804h12v12h-12zM516 804h12v12h-12zM576 768h12v12h-12zM600 768h12v12h-12zM612 780h12v12h-12zM576 792h12v12h-12zM588 804h12v12h-12zM612 804h12v12h-12zM672 768h12v12h-12zM684 780h12v12h-12zM696 792h12v12h-12zM708 804h12v12h-12zM768 768h12v12h-12zM804 768h12v12h-12zM792 780h12v12h-12zM780 792h12v12h-12zM792 792h12v12h-12zM768 804h12v12h-12zM804 804h12v12h-12zM864 768h12v12h-12zM900 768h12v12h-12zM876 780h12v12h-12zM888 780h12v12h-12zM864 792h12v12h-12zM900 792h12v12h-12zM0 864h12v12h-12zM36 864h12v12h-12zM0 888h12v12h-12zM36 888h12v12h-12zM96 864h12v12h-12zM132 864h12v12h-12zM120 876h12v12h-12zM108 888h12v12h-12zM120 888h12v12h-12zM96 900h12v12h-12zM132 900h12v12h-12zM204 864h12v12h-12zM216 864h12v12h-12zM204 900h12v12h-12zM216 900h12v12h-12zM288 864h12v12h-12zM312 864h12v12h-12zM312 876h12v12h-12zM324 876h12v12h-12zM288 888h12v12h-12zM300 888h12v12h-12zM300 900h12v12h-12zM324 900h12v12h-12zM384 864h12v12h-12zM396 876h12v12h-12zM408 888h12v12h-12zM420 900h12v12h-12zM504 864h12v12h-12zM516 864h12v12h-12zM480 900h12v12h-12zM492 900h12v12h-12zM588 864h12v12h-12zM576 876h12v12h-12zM600 876h12v12h-12zM612 876h12v12h-12zM576 888h12v12h-12zM588 888h12v12h-12zM612 888h12v12h-12zM600 900h12v12h-12zM672 864h12v12h-12zM696 864h12v12h-12zM708 876h12v12h-12zM672 888h12v12h-12zM684 900h12v12h-12zM708 900h12v12h-12zM780 864h12v12h-12zM792 864h12v12h-12zM780 900h12v12h-12zM792 900h12v12h-12zM864 864h12v12h-12zM888 864h12v12h-12zM900 876h12v12h-12zM864 888h12v12h-12zM876 900h12v12h-12zM900 900h12v12h-12zM48 816h12v12h-12zM84 816h12v12h-12zM48 840h12v12h-12zM84 840h12v12h-12zM624 672h12v12h-12zM636 672h12v12h-12zM660 672h12v12h-12zM624 684h12v12h-12zM648 684h12v12h-12zM636 696h12v12h-12zM624 708h12v12h-12zM480 528h12v12h-12zM492 540h12v12h-12zM480 552h12v12h-12zM504 552h12v12h-12zM480 564h12v12h-12zM492 564h12v12h-12zM516 564h12v12h-12zM0 912h12v12h-12zM36 912h12v12h-12zM0 936h12v12h-12zM36 936h12v12h-12zM624 816h12v12h-12zM636 828h12v12h-12zM648 840h12v12h-12zM660 852h12v12h-12zM168 480h12v12h-12zM180 480h12v12h-12zM168 492h12v12h-12zM180 492h12v12h-12zM144 504h12v12h-12zM156 504h12v12h-12zM144 516h12v12h-12zM156 516h12v12h-12zM204 912h12v12h-12zM216 912h12v12h-12zM204 948h12v12h-12zM216 948h12v12h-12zM624 576h12v12h-12zM660 576h12v12h-12zM648 588h12v12h-12zM636 600h12v12h-12zM624 612h12v12h-12zM660 612h12v12h-12zM816 720h12v12h-12zM852 720h12v12h-12zM840 732h12v12h-12zM828 744h12v12h-12zM840 744h12v12h-12zM816 756h12v12h-12zM852 756h12v12h-12zM48 912h12v12h-12zM84 912h12v12h-12zM48 936h12v12h-12zM84 936h12v12h-12zM264 624h12v12h-12zM264 636h12v12h-12zM276 636h12v12h-12zM240 648h12v12h-12zM252 648h12v12h-12zM252 660h12v12h-12zM816 480h12v12h-12zM840 480h12v12h-12zM852 480h12v12h-12zM828 492h12v12h-12zM852 492h12v12h-12zM840 504h12v12h-12zM852 516h12v12h-12zM72 672h12v12h-12zM72 684h12v12h-12zM84 684h12v12h-12zM48 696h12v12h-12zM60 696h12v12h-12zM60 708h12v12h-12zM816 624h12v12h-12zM840 624h12v12h-12zM852 624h12v12h-12zM828 636h12v12h-12zM852 636h12v12h-12zM840 648h12v12h-12zM852 660h12v12h-12zM720 672h12v12h-12zM744 672h12v12h-12zM732 684h12v12h-12zM756 684h12v12h-12zM720 696h12v12h-12zM744 696h12v12h-12zM732 708h12v12h-12zM756 708h12v12h-12zM780 912h12v12h-12zM792 912h12v12h-12zM780 948h12v12h-12zM792 948h12v12h-12zM24 528h12v12h-12zM0 540h12v12h-12zM12 540h12v12h-12zM36 540h12v12h-12zM0 552h12v12h-12zM24 552h12v12h-12zM36 552h12v12h-12zM12 564h12v12h-12zM372 528h12v12h-12zM360 540h12v12h-12zM348 552h12v12h-12zM336 564h12v12h-12zM240 720h12v12h-12zM276 720h12v12h-12zM252 732h12v12h-12zM264 732h12v12h-12zM252 744h12v12h-12zM240 756h12v12h-12zM276 756h12v12h-12zM12 720h12v12h-12zM0 732h12v12h-12zM24 732h12v12h-12zM36 732h12v12h-12zM0 744h12v12h-12zM12 744h12v12h-12zM36 744h12v12h-12zM24 756h12v12h-12zM816 672h12v12h-12zM840 672h12v12h-12zM828 684h12v12h-12zM852 684h12v12h-12zM816 696h12v12h-12zM840 696h12v12h-12zM828 708h12v12h-12zM852 708h12v12h-12zM912 768h12v12h-12zM948 768h12v12h-12zM924 780h12v12h-12zM936 780h12v12h-12zM912 792h12v12h-12zM948 792h12v12h-12zM360 768h12v12h-12zM348 780h12v12h-12zM372 780h12v12h-12zM336 792h12v12h-12zM360 792h12v12h-12zM348 804h12v12h-12zM72 576h12v12h-12zM48 588h12v12h-12zM60 588h12v12h-12zM84 588h12v12h-12zM48 600h12v12h-12zM72 600h12v12h-12zM84 600h12v12h-12zM60 612h12v12h-12zM144 768h12v12h-12zM168 768h12v12h-12zM180 780h12v12h-12zM144 792h12v12h-12zM156 804h12v12h-12zM180 804h12v12h-12zM864 816h12v12h-12zM900 816h12v12h-12zM876 828h12v12h-12zM888 828h12v12h-12zM864 840h12v12h-12zM900 840h12v12h-12zM864 528h12v12h-12zM888 528h12v12h-12zM900 528h12v12h-12zM876 540h12v12h-12zM900 540h12v12h-12zM888 552h12v12h-12zM900 564h12v12h-12zM720 768h12v12h-12zM756 768h12v12h-12zM744 780h12v12h-12zM732 792h12v12h-12zM744 792h12v12h-12zM720 804h12v12h-12zM756 804h12v12h-12zM156 624h12v12h-12zM168 624h12v12h-12zM144 636h12v12h-12zM168 636h12v12h-12zM156 648h12v12h-12zM180 648h12v12h-12zM156 660h12v12h-12zM168 660h12v12h-12zM504 816h12v12h-12zM516 816h12v12h-12zM480 852h12v12h-12zM492 852h12v12h-12zM564 552h12v12h-12zM540 480h12v12h-12zM552 480h12v12h-12zM540 492h12v12h-12zM564 492h12v12h-12zM528 504h12v12h-12zM552 504h12v12h-12zM540 516h12v12h-12zM552 516h12v12h-12zM624 528h12v12h-12zM660 528h12v12h-12zM648 540h12v12h-12zM636 552h12v12h-12zM624 564h12v12h-12zM660 564h12v12h-12zM720 720h12v12h-12zM732 720h12v12h-12zM756 720h12v12h-12zM720 732h12v12h-12zM744 732h12v12h-12zM732 744h12v12h-12zM720 756h12v12h-12zM912 816h12v12h-12zM948 816h12v12h-12zM924 828h12v12h-12zM936 828h12v12h-12zM912 840h12v12h-12zM948 840h12v12h-12zM552 768h12v12h-12zM564 768h12v12h-12zM528 804h12v12h-12zM540 804h12v12h-12zM264 576h12v12h-12zM264 588h12v12h-12zM276 588h12v12h-12zM240 600h12v12h-12zM252 600h12v12h-12zM252 612h12v12h-12z"/><path fill="#fff" d="M48 336h48v48h-48zM0 288h48v48h-48zM48 288h48v48h-48zM96 288h48v48h-48zM144 288h48v48h-48zM192 288h48v48h-48zM240 288h48v48h-48zM288 288h48v48h-48zM192 240h48v48h-48zM144 192h48v48h-48zM144 144h48v48h-48zM144 96h48v48h-48zM144 48h48v48h-48zM96 96h48v48h-48zM48 144h48v48h-48zM144 240h48v48h-48zM96 240h48v48h-48zM48 240h48v48h-48zM240 240h48v48h-48zM288 240h48v48h-48zM288 336h48v48h-48zM96 144h48v48h-48zM48 96h48v48h-48zM144 336h48v48h-48zM144 384h48v48h-48zM144 432h48v48h-48zM96 48h48v48h-48zM192 144h48v48h-48zM240 192h48v48h-48zM336 240h48v48h-48zM336 192h48v48h-48zM336 144h48v48h-48zM336 96h48v48h-48zM336 48h48v48h-48zM288 48h48v48h-48zM240 48h48v48h-48zM192 48h48v48h-48zM240 96h48v48h-48zM288 144h48v48h-48zM384 240h48v48h-48zM384 192h48v48h-48zM384 144h48v48h-48zM384 96h48v48h-48zM384 48h48v48h-48zM384 0h48v48h-48zM48 576h48v48h-48zM0 624h48v48h-48zM48 624h48v48h-48zM96 624h48v48h-48zM144 624h48v48h-48zM192 624h48v48h-48zM240 624h48v48h-48zM288 624h48v48h-48zM192 672h48v48h-48zM144 720h48v48h-48zM144 768h48v48h-48zM144 816h48v48h-48zM144 864h48v48h-48zM96 816h48v48h-48zM48 768h48v48h-48zM144 672h48v48h-48zM96 672h48v48h-48zM48 672h48v48h-48zM240 672h48v48h-48zM288 672h48v48h-48zM288 576h48v48h-48zM96 768h48v48h-48zM48 816h48v48h-48zM144 576h48v48h-48zM144 528h48v48h-48zM144 480h48v48h-48zM96 864h48v48h-48zM192 768h48v48h-48zM240 720h48v48h-48zM336 672h48v48h-48zM336 720h48v48h-48zM336 768h48v48h-48zM336 816h48v48h-48zM336 864h48v48h-48zM288 864h48v48h-48zM240 864h48v48h-48zM192 864h48v48h-48zM240 816h48v48h-48zM288 768h48v48h-48zM384 672h48v48h-48zM384 720h48v48h-48zM384 768h48v48h-48zM384 816h48v48h-48zM384 864h48v48h-48zM384 912h48v48h-48zM864 336h48v48h-48zM912 288h48v48h-48zM864 288h48v48h-48zM816 288h48v48h-48zM768 288h48v48h-48zM720 288h48v48h-48zM672 288h48v48h-48zM624 288h48v48h-48zM720 240h48v48h-48zM768 192h48v48h-48zM768 144h48v48h-48zM768 96h48v48h-48zM768 48h48v48h-48zM816 96h48v48h-48zM864 144h48v48h-48zM768 240h48v48h-48zM816 240h48v48h-48zM864 240h48v48h-48zM672 240h48v48h-48zM624 240h48v48h-48zM624 336h48v48h-48zM816 144h48v48h-48zM864 96h48v48h-48zM768 336h48v48h-48zM768 384h48v48h-48zM768 432h48v48h-48zM816 48h48v48h-48zM720 144h48v48h-48zM672 192h48v48h-48zM576 240h48v48h-48zM576 192h48v48h-48zM576 144h48v48h-48zM576 96h48v48h-48zM576 48h48v48h-48zM624 48h48v48h-48zM672 48h48v48h-48zM720 48h48v48h-48zM672 96h48v48h-48zM624 144h48v48h-48zM528 240h48v48h-48zM528 192h48v48h-48zM528 144h48v48h-48zM528 96h48v48h-48zM528 48h48v48h-48zM528 0h48v48h-48zM864 576h48v48h-48zM912 624h48v48h-48zM864 624h48v48h-48zM816 624h48v48h-48zM768 624h48v48h-48zM720 624h48v48h-48zM672 624h48v48h-48zM624 624h48v48h-48zM720 672h48v48h-48zM768 720h48v48h-48zM768 768h48v48h-48zM768 816h48v48h-48zM768 864h48v48h-48zM816 816h48v48h-48zM864 768h48v48h-48zM768 672h48v48h-48zM816 672h48v48h-48zM864 672h48v48h-48zM672 672h48v48h-48zM624 672h48v48h-48zM624 576h48v48h-48zM816 768h48v48h-48zM864 816h48v48h-48zM768 576h48v48h-48zM768 528h48v48h-48zM768 480h48v48h-48zM816 864h48v48h-48zM720 768h48v48h-48zM672 720h48v48h-48zM576 672h48v48h-48zM576 720h48v48h-48zM576 768h48v48h-48zM576 816h48v48h-48zM576 864h48v48h-48zM624 864h48v48h-48zM672 864h48v48h-48zM720 864h48v48h-48zM672 816h48v48h-48zM624 768h48v48h-48zM528 672h48v48h-48zM528 720h48v48h-48zM528 768h48v48h-48zM528 816h48v48h-48zM528 864h48v48h-48zM528 912h48v48h-48z"/></svg>