<svg xmlns="http://www.w3.org/2000/svg" width="960" height="960" viewBox="0 0 960 960" shape-rendering="crispEdges"><path fill="#000" d="M0 0h960v960h-960z"/><path fill="#252fe9" d="M0 12h12v12h-12zM0 72h12v12h-12zM0 132h12v12h-12zM0 192h12v12h-12zM0 252h12v12h-12zM0 312h12v12h-12zM0 372h12v12h-12zM0 432h12v12h-12zM0 492h12v12h-12zM0 552h12v12h-12zM0 612h12v12h-12zM0 672h12v12h-12zM0 732h12v12h-12zM0 792h12v12h-12zM0 852h12v12h-12zM0 912h12v12h-12zM12 12h12v12h-12zM12 72h12v12h-12zM12 132h12v12h-12zM12 192h12v12h-12zM12 252h12v12h-12zM12 312h12v12h-12zM12 372h12v12h-12zM12 432h12v12h-12zM12 492h12v12h-12zM12 552h12v12h-12zM12 612h12v12h-12zM12 672h12v12h-12zM12 732h12v12h-12zM12 792h12v12h-12zM12 852h12v12h-12zM12 912h12v12h-12zM24 12h12v12h-12zM24 72h12v12h-12zM24 132h12v12h-12zM24 192h12v12h-12zM24 252h12v12h-12zM24 312h12v12h-12zM24 372h12v12h-12zM24 432h12v12h-12zM24 492h12v12h-12zM24 552h12v12h-12zM24 612h12v12h-12zM24 672h12v12h-12zM24 732h12v12h-12zM24 792h12v12h-12zM24 852h12v12h-12zM24 912h12v12h-12zM36 12h12v12h-12zM36 72h12v12h-12zM36 132h12v12h-12zM36 192h12v12h-12zM36 252h12v12h-12zM36 312h12v12h-12zM36 372h12v12h-12zM36 432h12v12h-12zM36 492h12v12h-12zM36 552h12v12h-12zM36 612h12v12h-12zM36 672h12v12h-12zM36 732h12v12h-12zM36 792h12v12h-12zM36 852h12v12h-12zM36 912h12v12h-12zM48 12h12v12h-12zM48 72h12v12h-12zM48 132h12v12h-12zM48 192h12v12h-12zM48 252h12v12h-12zM48 312h12v12h-12zM48 372h12v12h-12zM48 432h12v12h-12zM48 492h12v12h-12zM48 552h12v12h-12zM48 612h12v12h-12zM48 672h12v12h-12zM48 732h12v12h-12zM48 792h12v12h-12zM48 852h12v12h-12zM48 912h12v12h-12zM60 12h12v12h-12zM60 72h12v12h-12zM60 132h12v12h-12zM60 192h12v12h-12zM60 252h12v12h-12zM60 312h12v12h-12zM60 372h12v12h-12zM60 432h12v12h-12zM60 492h12v12h-12zM60 552h12v12h-12zM60 612h12v12h-12zM60 672h12v12h-12zM60 732h12v12h-12zM60 792h12v12h-12zM60 852h12v12h-12zM60 912h12v12h-12zM72 12h12v12h-12zM72 72h12v12h-12zM72 132h12v12h-12zM72 192h12v12h-12zM72 252h12v12h-12zM72 312h12v12h-12zM72 372h12v12h-12zM72 432h12v12h-12zM72 492h12v12h-12zM72 552h12v12h-12zM72 612h12v12h-12zM72 672h12v12h-12zM72 732h12v12h-12zM72 792h12v12h-12zM72 852h12v12h-12zM72 912h12v12h-12zM84 12h12v12h-12zM84 72h12v12h-12zM84 132h12v12h-12zM84 192h12v12h-12zM84 252h12v12h-12zM84 312h12v12h-12zM84 372h12v12h-12zM84 432h12v12h-12zM84 492h12v12h-12zM84 552h12v12h-12zM84 612h12v12h-12zM84 672h12v12h-12zM84 732h12v12h-12zM84 792h12v12h-12zM84 852h12v12h-12zM84 912h12v12h-12zM96 12h12v12h-12zM96 72h12v12h-12zM96 132h12v12h-12zM96 192h12v12h-12zM96 252h12v12h-12zM96 312h12v12h-12zM96 372h12v12h-12zM96 432h12v12h-12zM96 492h12v12h-12zM96 552h12v12h-12zM96 612h12v12h-12zM96 672h12v12h-12zM96 732h12v12h-12zM96 792h12v12h-12zM96 852h12v12h-12zM96 912h12v12h-12zM108 12h12v12h-12zM108 72h12v12h-12zM108 132h12v12h-12zM108 192h12v12h-12zM108 252h12v12h-12zM108 312h12v12h-12zM108 372h12v12h-12zM108 432h12v12h-12zM108 492h12v12h-12zM108 552h12v12h-12zM108 612h12v12h-12zM108 672h12v12h-12zM108 732h12v12h-12zM108 792h12v12h-12zM108 852h12v12h-12zM108 912h12v12h-12zM120 12h12v12h-12zM120 72h12v12h-12zM120 132h12v12h-12zM120 192h12v12h-12zM120 252h12v12h-12zM120 312h12v12h-12zM120 372h12v12h-12zM120 432h12v12h-12zM120 492h12v12h-12zM120 552h12v12h-12zM120 612h12v12h-12zM120 672h12v12h-12zM120 732h12v12h-12zM120 792h12v12h-12zM120 852h12v12h-12zM120 912h12v12h-12zM132 12h12v12h-12zM132 72h12v12h-12zM132 132h12v12h-12zM132 192h12v12h-12zM132 252h12v12h-12zM132 312h12v12h-12zM132 372h12v12h-12zM132 432h12v12h-12zM132 492h12v12h-12zM132 552h12v12h-12zM132 612h12v12h-12zM132 672h12v12h-12zM132 732h12v12h-12zM132 792h12v12h-12zM132 852h12v12h-12zM132 912h12v12h-12zM144 12h12v12h-12zM144 72h12v12h-12zM144 132h12v12h-12zM144 192h12v12h-12zM144 252h12v12h-12zM144 312h12v12h-12zM144 372h12v12h-12zM144 432h12v12h-12zM144 492h12v12h-12zM144 552h12v12h-12zM144 612h12v12h-12zM144 672h12v12h-12zM144 732h12v12h-12zM144 792h12v12h-12zM144 852h12v12h-12zM144 912h12v12h-12zM156 12h12v12h-12zM156 72h12v12h-12zM156 132h12v12h-12zM156 192h12v12h-12zM156 252h12v12h-12zM156 312h12v12h-12zM156 372h12v12h-12zM156 432h12v12h-12zM156 492h12v12h-12zM156 552h12v12h-12zM156 612h12v12h-12zM156 672h12v12h-12zM156 732h12v12h-12zM156 792h12v12h-12zM156 852h12v12h-12zM156 912h12v12h-12zM168 12h12v12h-12zM168 72h12v12h-12zM168 132h12v12h-12zM168 192h12v12h-12zM168 252h12v12h-12zM168 312h12v12h-12zM168 372h12v12h-12zM168 432h12v12h-12zM168 492h12v12h-12zM168 552h12v12h-12zM168 612h12v12h-12zM168 672h12v12h-12zM168 732h12v12h-12zM168 792h12v12h-12zM168 852h12v12h-12zM168 912h12v12h-12zM180 12h12v12h-12zM180 72h12v12h-12zM180 132h12v12h-12zM180 192h12v12h-12zM180 252h12v12h-12zM180 312h12v12h-12zM180 372h12v12h-12zM180 432h12v12h-12zM180 492h12v12h-12zM180 552h12v12h-12zM180 612h12v12h-12zM180 672h12v12h-12zM180 732h12v12h-12zM180 792h12v12h-12zM180 852h12v12h-12zM180 912h12v12h-12zM192 12h12v12h-12zM192 72h12v12h-12zM192 132h12v12h-12zM192 192h12v12h-12zM192 252h12v12h-12zM192 312h12v12h-12zM192 372h12v12h-12zM192 432h12v12h-12zM192 492h12v12h-12zM192 552h12v12h-12zM192 612h12v12h-12zM192 672h12v12h-12zM192 732h12v12h-12zM192 792h12v12h-12zM192 852h12v12h-12zM192 912h12v12h-12zM204 12h12v12h-12zM204 72h12v12h-12zM204 132h12v12h-12zM204 192h12v12h-12zM204 252h12v12h-12zM204 312h12v12h-12zM204 372h12v12h-12zM204 432h12v12h-12zM204 492h12v12h-12zM204 552h12v12h-12zM204 612h12v12h-12zM204 672h12v12h-12zM204 732h12v12h-12zM204 792h12v12h-12zM204 852h12v12h-12zM204 912h12v12h-12zM216 12h12v12h-12zM216 72h12v12h-12zM216 132h12v12h-12zM216 192h12v12h-12zM216 252h12v12h-12zM216 312h12v12h-12zM216 372h12v12h-12zM216 432h12v12h-12zM216 492h12v12h-12zM216 552h12v12h-12zM216 612h12v12h-12zM216 672h12v12h-12zM216 732h12v12h-12zM216 792h12v12h-12zM216 852h12v12h-12zM216 912h12v12h-12zM228 12h12v12h-12zM228 72h12v12h-12zM228 132h12v12h-12zM228 192h12v12h-12zM228 252h12v12h-12zM228 312h12v12h-12zM228 372h12v12h-12zM228 432h12v12h-12zM228 492h12v12h-12zM228 552h12v12h-12zM228 612h12v12h-12zM228 672h12v12h-12zM228 732h12v12h-12zM228 792h12v12h-12zM228 852h12v12h-12zM228 912h12v12h-12zM240 12h12v12h-12zM240 72h12v12h-12zM240 132h12v12h-12zM240 192h12v12h-12zM240 252h12v12h-12zM240 312h12v12h-12zM240 372h12v12h-12zM240 432h12v12h-12zM240 492h12v12h-12zM240 552h12v12h-12zM240 612h12v12h-12zM240 672h12v12h-12zM240 732h12v12h-12zM240 792h12v12h-12zM240 852h12v12h-12zM240 912h12v12h-12zM252 12h12v12h-12zM252 72h12v12h-12zM252 132h12v12h-12zM252 192h12v12h-12zM252 252h12v12h-12zM252 312h12v12h-12zM252 372h12v12h-12zM252 432h12v12h-12zM252 492h12v12h-12zM252 552h12v12h-12zM252 612h12v12h-12zM252 672h12v12h-12zM252 732h12v12h-12zM252 792h12v12h-12zM252 852h12v12h-12zM252 912h12v12h-12zM264 12h12v12h-12zM264 72h12v12h-12zM264 132h12v12h-12zM264 192h12v12h-12zM264 252h12v12h-12zM264 312h12v12h-12zM264 372h12v12h-12zM264 432h12v12h-12zM264 492h12v12h-12zM264 552h12v12h-12zM264 612h12v12h-12zM264 672h12v12h-12zM264 732h12v12h-12zM264 792h12v12h-12zM264 852h12v12h-12zM264 912h12v12h-12zM276 12h12v12h-12zM276 72h12v12h-12zM276 132h12v12h-12zM276 192h12v12h-12zM276 252h12v12h-12zM276 312h12v12h-12zM276 372h12v12h-12zM276 432h12v12h-12zM276 492h12v12h-12zM276 552h12v12h-12zM276 612h12v12h-12zM276 672h12v12h-12zM276 732h12v12h-12zM276 792h12v12h-12zM276 852h12v12h-12zM276 912h12v12h-12zM288 12h12v12h-12zM288 72h12v12h-12zM288 132h12v12h-12zM288 192h12v12h-12zM288 252h12v12h-12zM288 312h12v12h-12zM288 372h12v12h-12zM288 432h12v12h-12zM288 492h12v12h-12zM288 552h12v12h-12zM288 612h12v12h-12zM288 672h12v12h-12zM288 732h12v12h-12zM288 792h12v12h-12zM288 852h12v12h-12zM288 912h12v12h-12zM300 12h12v12h-12zM300 72h12v12h-12zM300 132h12v12h-12zM300 192h12v12h-12zM300 252h12v12h-12zM300 312h12v12h-12zM300 372h12v12h-12zM300 432h12v12h-12zM300 492h12v12h-12zM300 552h12v12h-12zM300 612h12v12h-12zM300 672h12v12h-12zM300 732h12v12h-12zM300 792h12v12h-12zM300 852h12v12h-12zM300 912h12v12h-12zM312 12h12v12h-12zM312 72h12v12h-12zM312 132h12v12h-12zM312 192h12v12h-12zM312 252h12v12h-12zM312 312h12v12h-12zM312 372h12v12h-12zM312 432h12v12h-12zM312 492h12v12h-12zM312 552h12v12h-12zM312 612h12v12h-12zM312 672h12v12h-12zM312 732h12v12h-12zM312 792h12v12h-12zM312 852h12v12h-12zM312 912h12v12h-12zM324 12h12v12h-12zM324 72h12v12h-12zM324 132h12v12h-12zM324 192h12v12h-12zM324 252h12v12h-12zM324 312h12v12h-12zM324 372h12v12h-12zM324 432h12v12h-12zM324 492h12v12h-12zM324 552h12v12h-12zM324 612h12v12h-12zM324 672h12v12h-12zM324 732h12v12h-12zM324 792h12v12h-12zM324 852h12v12h-12zM324 912h12v12h-12zM336 12h12v12h-12zM336 72h12v12h-12zM336 132h12v12h-12zM336 192h12v12h-12zM336 252h12v12h-12zM336 312h12v12h-12zM336 372h12v12h-12zM336 432h12v12h-12zM336 492h12v12h-12zM336 552h12v12h-12zM336 612h12v12h-12zM336 672h12v12h-12zM336 732h12v12h-12zM336 792h12v12h-12zM336 852h12v12h-12zM336 912h12v12h-12zM348 12h12v12h-12zM348 72h12v12h-12zM348 132h12v12h-12zM348 192h12v12h-12zM348 252h12v12h-12zM348 312h12v12h-12zM348 372h12v12h-12zM348 432h12v12h-12zM348 492h12v12h-12zM348 552h12v12h-12zM348 612h12v12h-12zM348 672h12v12h-12zM348 732h12v12h-12zM348 792h12v12h-12zM348 852h12v12h-12zM348 912h12v12h-12zM360 12h12v12h-12zM360 72h12v12h-12zM360 132h12v12h-12zM360 192h12v12h-12zM360 252h12v12h-12zM360 312h12v12h-12zM360 372h12v12h-12zM360 432h12v12h-12zM360 492h12v12h-12zM360 552h12v12h-12zM360 612h12v12h-12zM360 672h12v12h-12zM360 732h12v12h-12zM360 792h12v12h-12zM360 852h12v12h-12zM360 912h12v12h-12zM372 12h12v12h-12zM372 72h12v12h-12zM372 132h12v12h-12zM372 192h12v12h-12zM372 252h12v12h-12zM372 312h12v12h-12zM372 372h12v12h-12zM372 432h12v12h-12zM372 492h12v12h-12zM372 552h12v12h-12zM372 612h12v12h-12zM372 672h12v12h-12zM372 732h12v12h-12zM372 792h12v12h-12zM372 852h12v12h-12zM372 912h12v12h-12zM384 12h12v12h-12zM384 72h12v12h-12zM384 132h12v12h-12zM384 192h12v12h-12zM384 252h12v12h-12zM384 312h12v12h-12zM384 372h12v12h-12zM384 432h12v12h-12zM384 492h12v12h-12zM384 552h12v12h-12zM384 612h12v12h-12zM384 672h12v12h-12zM384 732h12v12h-12zM384 792h12v12h-12zM384 852h12v12h-12zM384 912h12v12h-12zM396 12h12v12h-12zM396 72h12v12h-12zM396 132h12v12h-12zM396 192h12v12h-12zM396 252h12v12h-12zM396 312h12v12h-12zM396 372h12v12h-12zM396 432h12v12h-12zM396 492h12v12h-12zM396 552h12v12h-12zM396 612h12v12h-12zM396 672h12v12h-12zM396 732h12v12h-12zM396 792h12v12h-12zM396 852h12v12h-12zM396 912h12v12h-12zM408 12h12v12h-12zM408 72h12v12h-12zM408 132h12v12h-12zM408 192h12v12h-12zM408 252h12v12h-12zM408 312h12v12h-12zM408 372h12v12h-12zM408 432h12v12h-12zM408 492h12v12h-12zM408 552h12v12h-12zM408 612h12v12h-12zM408 672h12v12h-12zM408 732h12v12h-12zM408 792h12v12h-12zM408 852h12v12h-12zM408 912h12v12h-12zM420 12h12v12h-12zM420 72h12v12h-12zM420 132h12v12h-12zM420 192h12v12h-12zM420 252h12v12h-12zM420 312h12v12h-12zM420 372h12v12h-12zM420 432h12v12h-12zM420 492h12v12h-12zM420 552h12v12h-12zM420 612h12v12h-12zM420 672h12v12h-12zM420 732h12v12h-12zM420 792h12v12h-12zM420 852h12v12h-12zM420 912h12v12h-12zM432 12h12v12h-12zM432 72h12v12h-12zM432 132h12v12h-12zM432 192h12v12h-12zM432 252h12v12h-12zM432 312h12v12h-12zM432 372h12v12h-12zM432 432h12v12h-12zM432 492h12v12h-12zM432 552h12v12h-12zM432 612h12v12h-12zM432 672h12v12h-12zM432 732h12v12h-12zM432 792h12v12h-12zM432 852h12v12h-12zM432 912h12v12h-12zM444 12h12v12h-12zM444 72h12v12h-12zM444 132h12v12h-12zM444 192h12v12h-12zM444 252h12v12h-12zM444 312h12v12h-12zM444 372h12v12h-12zM444 432h12v12h-12zM444 492h12v12h-12zM444 552h12v12h-12zM444 612h12v12h-12zM444 672h12v12h-12zM444 732h12v12h-12zM444 792h12v12h-12zM444 852h12v12h-12zM444 912h12v12h-12zM456 12h12v12h-12zM456 72h12v12h-12zM456 132h12v12h-12zM456 192h12v12h-12zM456 252h12v12h-12zM456 312h12v12h-12zM456 372h12v12h-12zM456 432h12v12h-12zM456 492h12v12h-12zM456 552h12v12h-12zM456 612h12v12h-12zM456 672h12v12h-12zM456 732h12v12h-12zM456 792h12v12h-12zM456 852h12v12h-12zM456 912h12v12h-12zM468 12h12v12h-12zM468 72h12v12h-12zM468 132h12v12h-12zM468 192h12v12h-12zM468 252h12v12h-12zM468 312h12v12h-12zM468 372h12v12h-12zM468 432h12v12h-12zM468 492h12v12h-12zM468 552h12v12h-12zM468 612h12v12h-12zM468 672h12v12h-12zM468 732h12v12h-12zM468 792h12v12h-12zM468 852h12v12h-12zM468 912h12v12h-12zM480 12h12v12h-12zM480 72h12v12h-12zM480 132h12v12h-12zM480 192h12v12h-12zM480 252h12v12h-12zM480 312h12v12h-12zM480 372h12v12h-12zM480 432h12v12h-12zM480 492h12v12h-12zM480 552h12v12h-12zM480 612h12v12h-12zM480 672h12v12h-12zM480 732h12v12h-12zM480 792h12v12h-12zM480 852h12v12h-12zM480 912h12v12h-12zM492 12h12v12h-12zM492 72h12v12h-12zM492 132h12v12h-12zM492 192h12v12h-12zM492 252h12v12h-12zM492 312h12v12h-12zM492 372h12v12h-12zM492 432h12v12h-12zM492 492h12v12h-12zM492 552h12v12h-12zM492 612h12v12h-12zM492 672h12v12h-12zM492 732h12v12h-12zM492 792h12v12h-12zM492 852h12v12h-12zM492 912h12v12h-12zM504 12h12v12h-12zM504 72h12v12h-12zM504 132h12v12h-12zM504 192h12v12h-12zM504 252h12v12h-12zM504 312h12v12h-12zM504 372h12v12h-12zM504 432h12v12h-12zM504 492h12v12h-12zM504 552h12v12h-12zM504 612h12v12h-12zM504 672h12v12h-12zM504 732h12v12h-12zM504 792h12v12h-12zM504 852h12v12h-12zM504 912h12v12h-12zM516 12h12v12h-12zM516 72h12v12h-12zM516 132h12v12h-12zM516 192h12v12h-12zM516 252h12v12h-12zM516 312h12v12h-12zM516 372h12v12h-12zM516 432h12v12h-12zM516 492h12v12h-12zM516 552h12v12h-12zM516 612h12v12h-12zM516 672h12v12h-12zM516 732h12v12h-12zM516 792h12v12h-12zM516 852h12v12h-12zM516 912h12v12h-12zM528 12h12v12h-12zM528 72h12v12h-12zM528 132h12v12h-12zM528 192h12v12h-12zM528 252h12v12h-12zM528 312h12v12h-12zM528 372h12v12h-12zM528 432h12v12h-12zM528 492h12v12h-12zM528 552h12v12h-12zM528 612h12v12h-12zM528 672h12v12h-12zM528 732h12v12h-12zM528 792h12v12h-12zM528 852h12v12h-12zM528 912h12v12h-12zM540 12h12v12h-12zM540 72h12v12h-12zM540 132h12v12h-12zM540 192h12v12h-12zM540 252h12v12h-12zM540 312h12v12h-12zM540 372h12v12h-12zM540 432h12v12h-12zM540 492h12v12h-12zM540 552h12v12h-12zM540 612h12v12h-12zM540 672h12v12h-12zM540 732h12v12h-12zM540 792h12v12h-12zM540 852h12v12h-12zM540 912h12v12h-12zM552 12h12v12h-12zM552 72h12v12h-12zM552 132h12v12h-12zM552 192h12v12h-12zM552 252h12v12h-12zM552 312h12v12h-12zM552 372h12v12h-12zM552 432h12v12h-12zM552 492h12v12h-12zM552 552h12v12h-12zM552 612h12v12h-12zM552 672h12v12h-12zM552 732h12v12h-12zM552 792h12v12h-12zM552 852h12v12h-12zM552 912h12v12h-12zM564 12h12v12h-12zM564 72h12v12h-12zM564 132h12v12h-12zM564 192h12v12h-12zM564 252h12v12h-12zM564 312h12v12h-12zM564 372h12v12h-12zM564 432h12v12h-12zM564 492h12v12h-12zM564 552h12v12h-12zM564 612h12v12h-12zM564 672h12v12h-12zM564 732h12v12h-12zM564 792h12v12h-12zM564 852h12v12h-12zM564 912h12v12h-12zM576 12h12v12h-12zM576 72h12v12h-12zM576 132h12v12h-12zM576 192h12v12h-12zM576 252h12v12h-12zM576 312h12v12h-12zM576 372h12v12h-12zM576 432h12v12h-12zM576 492h12v12h-12zM576 552h12v12h-12zM576 612h12v12h-12zM576 672h12v12h-12zM576 732h12v12h-12zM576 792h12v12h-12zM576 852h12v12h-12zM576 912h12v12h-12zM588 12h12v12h-12zM588 72h12v12h-12zM588 132h12v12h-12zM588 192h12v12h-12zM588 252h12v12h-12zM588 312h12v12h-12zM588 372h12v12h-12zM588 432h12v12h-12zM588 492h12v12h-12zM588 552h12v12h-12zM588 612h12v12h-12zM588 672h12v12h-12zM588 732h12v12h-12zM588 792h12v12h-12zM588 852h12v12h-12zM588 912h12v12h-12zM600 12h12v12h-12zM600 72h12v12h-12zM600 132h12v12h-12zM600 192h12v12h-12zM600 252h12v12h-12zM600 312h12v12h-12zM600 372h12v12h-12zM600 432h12v12h-12zM600 492h12v12h-12zM600 552h12v12h-12zM600 612h12v12h-12zM600 672h12v12h-12zM600 732h12v12h-12zM600 792h12v12h-12zM600 852h12v12h-12zM600 912h12v12h-12zM612 12h12v12h-12zM612 72h12v12h-12zM612 132h12v12h-12zM612 192h12v12h-12zM612 252h12v12h-12zM612 312h12v12h-12zM612 372h12v12h-12zM612 432h12v12h-12zM612 492h12v12h-12zM612 552h12v12h-12zM612 612h12v12h-12zM612 672h12v12h-12zM612 732h12v12h-12zM612 792h12v12h-12zM612 852h12v12h-12zM612 912h12v12h-12zM624 12h12v12h-12zM624 72h12v12h-12zM624 132h12v12h-12zM624 192h12v12h-12zM624 252h12v12h-12zM624 312h12v12h-12zM624 372h12v12h-12zM624 432h12v12h-12zM624 492h12v12h-12zM624 552h12v12h-12zM624 612h12v12h-12zM624 672h12v12h-12zM624 732h12v12h-12zM624 792h12v12h-12zM624 852h12v12h-12zM624 912h12v12h-12zM636 12h12v12h-12zM636 72h12v12h-12zM636 132h12v12h-12zM636 192h12v12h-12zM636 252h12v12h-12zM636 312h12v12h-12zM636 372h12v12h-12zM636 432h12v12h-12zM636 492h12v12h-12zM636 552h12v12h-12zM636 612h12v12h-12zM636 672h12v12h-12zM636 732h12v12h-12zM636 792h12v12h-12zM636 852h12v12h-12zM636 912h12v12h-12zM648 12h12v12h-12zM648 72h12v12h-12zM648 132h12v12h-12zM648 192h12v12h-12zM648 252h12v12h-12zM648 312h12v12h-12zM648 372h12v12h-12zM648 432h12v12h-12zM648 492h12v12h-12zM648 552h12v12h-12zM648 612h12v12h-12zM648 672h12v12h-12zM648 732h12v12h-12zM648 792h12v12h-12zM648 852h12v12h-12zM648 912h12v12h-12zM660 12h12v12h-12zM660 72h12v12h-12zM660 132h12v12h-12zM660 192h12v12h-12zM660 252h12v12h-12zM660 312h12v12h-12zM660 372h12v12h-12zM660 432h12v12h-12zM660 492h12v12h-12zM660 552h12v12h-12zM660 612h12v12h-12zM660 672h12v12h-12zM660 732h12v12h-12zM660 792h12v12h-12zM660 852h12v12h-12zM660 912h12v12h-12zM672 12h12v12h-12zM672 72h12v12h-12zM672 132h12v12h-12zM672 192h12v12h-12zM672 252h12v12h-12zM672 312h12v12h-12zM672 372h12v12h-12zM672 432h12v12h-12zM672 492h12v12h-12zM672 552h12v12h-12zM672 612h12v12h-12zM672 672h12v12h-12zM672 732h12v12h-12zM672 792h12v12h-12zM672 852h12v12h-12zM672 912h12v12h-12zM684 12h12v12h-12zM684 72h12v12h-12zM684 132h12v12h-12zM684 192h12v12h-12zM684 252h12v12h-12zM684 312h12v12h-12zM684 372h12v12h-12zM684 432h12v12h-12zM684 492h12v12h-12zM684 552h12v12h-12zM684 612h12v12h-12zM684 672h12v12h-12zM684 732h12v12h-12zM684 792h12v12h-12zM684 852h12v12h-12zM684 912h12v12h-12zM696 12h12v12h-12zM696 72h12v12h-12zM696 132h12v12h-12zM696 192h12v12h-12zM696 252h12v12h-12zM696 312h12v12h-12zM696 372h12v12h-12zM696 432h12v12h-12zM696 492h12v12h-12zM696 552h12v12h-12zM696 612h12v12h-12zM696 672h12v12h-12zM696 732h12v12h-12zM696 792h12v12h-12zM696 852h12v12h-12zM696 912h12v12h-12zM708 12h12v12h-12zM708 72h12v12h-12zM708 132h12v12h-12zM708 192h12v12h-12zM708 252h12v12h-12zM708 312h12v12h-12zM708 372h12v12h-12zM708 432h12v12h-12zM708 492h12v12h-12zM708 552h12v12h-12zM708 612h12v12h-12zM708 672h12v12h-12zM708 732h12v12h-12zM708 792h12v12h-12zM708 852h12v12h-12zM708 912h12v12h-12zM720 12h12v12h-12zM720 72h12v12h-12zM720 132h12v12h-12zM720 192h12v12h-12zM720 252h12v12h-12zM720 312h12v12h-12zM720 372h12v12h-12zM720 432h12v12h-12zM720 492h12v12h-12zM720 552h12v12h-12zM720 612h12v12h-12zM720 672h12v12h-12zM720 732h12v12h-12zM720 792h12v12h-12zM720 852h12v12h-12zM720 912h12v12h-12zM732 12h12v12h-12zM732 72h12v12h-12zM732 132h12v12h-12zM732 192h12v12h-12zM732 252h12v12h-12zM732 312h12v12h-12zM732 372h12v12h-12zM732 432h12v12h-12zM732 492h12v12h-12zM732 552h12v12h-12zM732 612h12v12h-12zM732 672h12v12h-12zM732 732h12v12h-12zM732 792h12v12h-12zM732 852h12v12h-12zM732 912h12v12h-12zM744 12h12v12h-12zM744 72h12v12h-12zM744 132h12v12h-12zM744 192h12v12h-12zM744 252h12v12h-12zM744 312h12v12h-12zM744 372h12v12h-12zM744 432h12v12h-12zM744 492h12v12h-12zM744 552h12v12h-12zM744 612h12v12h-12zM744 672h12v12h-12zM744 732h12v12h-12zM744 792h12v12h-12zM744 852h12v12h-12zM744 912h12v12h-12zM756 12h12v12h-12zM756 72h12v12h-12zM756 132h12v12h-12zM756 192h12v12h-12zM756 252h12v12h-12zM756 312h12v12h-12zM756 372h12v12h-12zM756 432h12v12h-12zM756 492h12v12h-12zM756 552h12v12h-12zM756 612h12v12h-12zM756 672h12v12h-12zM756 732h12v12h-12zM756 792h12v12h-12zM756 852h12v12h-12zM756 912h12v12h-12zM768 12h12v12h-12zM768 72h12v12h-12zM768 132h12v12h-12zM768 192h12v12h-12zM768 252h12v12h-12zM768 312h12v12h-12zM768 372h12v12h-12zM768 432h12v12h-12zM768 492h12v12h-12zM768 552h12v12h-12zM768 612h12v12h-12zM768 672h12v12h-12zM768 732h12v12h-12zM768 792h12v12h-12zM768 852h12v12h-12zM768 912h12v12h-12zM780 12h12v12h-12zM780 72h12v12h-12zM780 132h12v12h-12zM780 192h12v12h-12zM780 252h12v12h-12zM780 312h12v12h-12zM780 372h12v12h-12zM780 432h12v12h-12zM780 492h12v12h-12zM780 552h12v12h-12zM780 612h12v12h-12zM780 672h12v12h-12zM780 732h12v12h-12zM780 792h12v12h-12zM780 852h12v12h-12zM780 912h12v12h-12zM792 12h12v12h-12zM792 72h12v12h-12zM792 132h12v12h-12zM792 192h12v12h-12zM792 252h12v12h-12zM792 312h12v12h-12zM792 372h12v12h-12zM792 432h12v12h-12zM792 492h12v12h-12zM792 552h12v12h-12zM792 612h12v12h-12zM792 672h12v12h-12zM792 732h12v12h-12zM792 792h12v12h-12zM792 852h12v12h-12zM792 912h12v12h-12zM804 12h12v12h-12zM804 72h12v12h-12zM804 132h12v12h-12zM804 192h12v12h-12zM804 252h12v12h-12zM804 312h12v12h-12zM804 372h12v12h-12zM804 432h12v12h-12zM804 492h12v12h-12zM804 552h12v12h-12zM804 612h12v12h-12zM804 672h12v12h-12zM804 732h12v12h-12zM804 792h12v12h-12zM804 852h12v12h-12zM804 912h12v12h-12zM816 12h12v12h-12zM816 72h12v12h-12zM816 132h12v12h-12zM816 192h12v12h-12zM816 252h12v12h-12zM816 312h12v12h-12zM816 372h12v12h-12zM816 432h12v12h-12zM816 492h12v12h-12zM816 552h12v12h-12zM816 612h12v12h-12zM816 672h12v12h-12zM816 732h12v12h-12zM816 792h12v12h-12zM816 852h12v12h-12zM816 912h12v12h-12zM828 12h12v12h-12zM828 72h12v12h-12zM828 132h12v12h-12zM828 192h12v12h-12zM828 252h12v12h-12zM828 312h12v12h-12zM828 372h12v12h-12zM828 432h12v12h-12zM828 492h12v12h-12zM828 552h12v12h-12zM828 612h12v12h-12zM828 672h12v12h-12zM828 732h12v12h-12zM828 792h12v12h-12zM828 852h12v12h-12zM828 912h12v12h-12zM840 12h12v12h-12zM840 72h12v12h-12zM840 132h12v12h-12zM840 192h12v12h-12zM840 252h12v12h-12zM840 312h12v12h-12zM840 372h12v12h-12zM840 432h12v12h-12zM840 492h12v12h-12zM840 552h12v12h-12zM840 612h12v12h-12zM840 672h12v12h-12zM840 732h12v12h-12zM840 792h12v12h-12zM840 852h12v12h-12zM840 912h12v12h-12zM852 12h12v12h-12zM852 72h12v12h-12zM852 132h12v12h-12zM852 192h12v12h-12zM852 252h12v12h-12zM852 312h12v12h-12zM852 372h12v12h-12zM852 432h12v12h-12zM852 492h12v12h-12zM852 552h12v12h-12zM852 612h12v12h-12zM852 672h12v12h-12zM852 732h12v12h-12zM852 792h12v12h-12zM852 852h12v12h-12zM852 912h12v12h-12zM864 12h12v12h-12zM864 72h12v12h-12zM864 132h12v12h-12zM864 192h12v12h-12zM864 252h12v12h-12zM864 312h12v12h-12zM864 372h12v12h-12zM864 432h12v12h-12zM864 492h12v12h-12zM864 552h12v12h-12zM864 612h12v12h-12zM864 672h12v12h-12zM864 732h12v12h-12zM864 792h12v12h-12zM864 852h12v12h-12zM864 912h12v12h-12zM876 12h12v12h-12zM876 72h12v12h-12zM876 132h12v12h-12zM876 192h12v12h-12zM876 252h12v12h-12zM876 312h12v12h-12zM876 372h12v12h-12zM876 432h12v12h-12zM876 492h12v12h-12zM876 552h12v12h-12zM876 612h12v12h-12zM876 672h12v12h-12zM876 732h12v12h-12zM876 792h12v12h-12zM876 852h12v12h-12zM876 912h12v12h-12zM888 12h12v12h-12zM888 72h12v12h-12zM888 132h12v12h-12zM888 192h12v12h-12zM888 252h12v12h-12zM888 312h12v12h-12zM888 372h12v12h-12zM888 432h12v12h-12zM888 492h12v12h-12zM888 552h12v12h-12zM888 612h12v12h-12zM888 672h12v12h-12zM888 732h12v12h-12zM888 792h12v12h-12zM888 852h12v12h-12zM888 912h12v12h-12zM900 12h12v12h-12zM900 72h12v12h-12zM900 132h12v12h-12zM900 192h12v12h-12zM900 252h12v12h-12zM900 312h12v12h-12zM900 372h12v12h-12zM900 432h12v12h-12zM900 492h12v12h-12zM900 552h12v12h-12zM900 612h12v12h-12zM900 672h12v12h-12zM900 732h12v12h-12zM900 792h12v12h-12zM900 852h12v12h-12zM900 912h12v12h-12zM912 12h12v12h-12zM912 72h12v12h-12zM912 132h12v12h-12zM912 192h12v12h-12zM912 252h12v12h-12zM912 312h12v12h-12zM912 372h12v12h-12zM912 432h12v12h-12zM912 492h12v12h-12zM912 552h12v12h-12zM912 612h12v12h-12zM912 672h12v12h-12zM912 732h12v12h-12zM912 792h12v12h-12zM912 852h12v12h-12zM912 912h12v12h-12zM924 12h12v12h-12zM924 72h12v12h-12zM924 132h12v12h-12zM924 192h12v12h-12zM924 252h12v12h-12zM924 312h12v12h-12zM924 372h12v12h-12zM924 432h12v12h-12zM924 492h12v12h-12zM924 552h12v12h-12zM924 612h12v12h-12zM924 672h12v12h-12zM924 732h12v12h-12zM924 792h12v12h-12zM924 852h12v12h-12zM924 912h12v12h-12zM936 12h12v12h-12zM936 72h12v12h-12zM936 132h12v12h-12zM936 192h12v12h-12zM936 252h12v12h-12zM936 312h12v12h-12zM936 372h12v12h-12zM936 432h12v12h-12zM936 492h12v12h-12zM936 552h12v12h-12zM936 612h12v12h-12zM936 672h12v12h-12zM936 732h12v12h-12zM936 792h12v12h-12zM936 852h12v12h-12zM936 912h12v12h-12zM948 12h12v12h-12zM948 72h12v12h-12zM948 132h12v12h-12zM948 192h12v12h-12zM948 252h12v12h-12zM948 312h12v12h-12zM948 372h12v12h-12zM948 432h12v12h-12zM948 492h12v12h-12zM948 552h12v12h-12zM948 612h12v12h-12zM948 672h12v12h-12zM948 732h12v12h-12zM948 792h12v12h-12zM948 852h12v12h-12zM948 912h12v12h-12z"/><path fill="#c7dde6" d="M12 0h12v12h-12zM0 12h12v12h-12zM24 12h12v12h-12zM12 24h12v12h-12zM36 24h12v12h-12zM24 36h12v12h-12zM51 3h6v6h-6zM87 3h6v6h-6zM75 15h6v6h-6zM63 27h6v6h-6zM75 27h6v6h-6zM51 39h6v6h-6zM87 39h6v6h-6zM120 0h12v12h-12zM120 12h12v12h-12zM132 12h12v12h-12zM96 24h12v12h-12zM108 24h12v12h-12zM108 36h12v12h-12zM156 0h12v12h-12zM180 0h12v12h-12zM168 12h12v12h-12zM168 24h12v12h-12zM156 36h12v12h-12zM180 36h12v12h-12zM192 0h12v12h-12zM228 0h12v12h-12zM204 12h12v12h-12zM216 12h12v12h-12zM204 24h12v12h-12zM192 36h12v12h-12zM228 36h12v12h-12zM279 3h6v6h-6zM279 15h6v6h-6zM243 27h6v6h-6zM243 39h6v6h-6zM327 3h6v6h-6zM315 15h6v6h-6zM303 27h6v6h-6zM291 39h6v6h-6zM353 0h3v12h-3zM348 5h12v3h-12zM365 0h3v12h-3zM360 5h12v3h-12zM341 12h3v12h-3zM336 17h12v3h-12zM365 12h3v12h-3zM360 17h12v3h-12zM353 24h3v12h-3zM348 29h12v3h-12zM377 24h3v12h-3zM372 29h12v3h-12zM353 36h3v12h-3zM348 41h12v3h-12zM365 36h3v12h-3zM360 41h12v3h-12zM399 3h6v6h-6zM387 15h6v6h-6zM411 15h6v6h-6zM399 27h6v6h-6zM423 27h6v6h-6zM411 39h6v6h-6zM444 0h12v12h-12zM468 0h12v12h-12zM456 12h12v12h-12zM456 24h12v12h-12zM444 36h12v12h-12zM468 36h12v12h-12zM485 0h3v12h-3zM480 5h12v3h-12zM497 0h3v12h-3zM492 5h12v3h-12zM521 0h3v12h-3zM516 5h12v3h-12zM485 12h3v12h-3zM480 17h12v3h-12zM509 12h3v12h-3zM504 17h12v3h-12zM497 24h3v12h-3zM492 29h12v3h-12zM485 36h3v12h-3zM480 41h12v3h-12zM540 0h12v12h-12zM564 0h12v12h-12zM528 12h12v12h-12zM564 24h12v12h-12zM528 36h12v12h-12zM552 36h12v12h-12zM588 12h12v12h-12zM600 12h12v12h-12zM588 24h12v12h-12zM600 24h12v12h-12zM627 3h6v6h-6zM663 3h6v6h-6zM651 15h6v6h-6zM639 27h6v6h-6zM627 39h6v6h-6zM663 39h6v6h-6zM677 12h3v12h-3zM672 17h12v3h-12zM689 12h3v12h-3zM684 17h12v3h-12zM677 24h3v12h-3zM672 29h12v3h-12zM713 24h3v12h-3zM708 29h12v3h-12zM723 3h6v6h-6zM759 3h6v6h-6zM735 15h6v6h-6zM747 15h6v6h-6zM723 27h6v6h-6zM759 27h6v6h-6zM792 0h12v12h-12zM804 0h12v12h-12zM792 12h12v12h-12zM804 12h12v12h-12zM768 24h12v12h-12zM780 24h12v12h-12zM768 36h12v12h-12zM780 36h12v12h-12zM828 0h12v12h-12zM840 0h12v12h-12zM828 36h12v12h-12zM840 36h12v12h-12zM881 0h3v12h-3zM876 5h12v3h-12zM905 0h3v12h-3zM900 5h12v3h-12zM869 12h3v12h-3zM864 17h12v3h-12zM893 12h3v12h-3zM888 17h12v3h-12zM881 24h3v12h-3zM876 29h12v3h-12zM905 24h3v12h-3zM900 29h12v3h-12zM869 36h3v12h-3zM864 41h12v3h-12zM893 36h3v12h-3zM888 41h12v3h-12zM912 0h12v12h-12zM948 0h12v12h-12zM912 36h12v12h-12zM948 36h12v12h-12zM5 48h3v12h-3zM0 53h12v3h-12zM29 48h3v12h-3zM24 53h12v3h-12zM41 48h3v12h-3zM36 53h12v3h-12zM17 60h3v12h-3zM12 65h12v3h-12zM41 60h3v12h-3zM36 65h12v3h-12zM29 72h3v12h-3zM24 77h12v3h-12zM41 84h3v12h-3zM36 89h12v3h-12zM48 48h12v12h-12zM84 48h12v12h-12zM60 60h12v12h-12zM72 72h12v12h-12zM48 84h12v12h-12zM84 84h12v12h-12zM113 48h3v12h-3zM108 53h12v3h-12zM137 48h3v12h-3zM132 53h12v3h-12zM125 60h3v12h-3zM120 65h12v3h-12zM125 72h3v12h-3zM120 77h12v3h-12zM113 84h3v12h-3zM108 89h12v3h-12zM137 84h3v12h-3zM132 89h12v3h-12zM173 48h3v12h-3zM168 53h12v3h-12zM149 60h3v12h-3zM144 65h12v3h-12zM161 60h3v12h-3zM156 65h12v3h-12zM185 60h3v12h-3zM180 65h12v3h-12zM149 72h3v12h-3zM144 77h12v3h-12zM173 72h3v12h-3zM168 77h12v3h-12zM185 72h3v12h-3zM180 77h12v3h-12zM161 84h3v12h-3zM156 89h12v3h-12zM197 48h3v12h-3zM192 53h12v3h-12zM233 48h3v12h-3zM228 53h12v3h-12zM209 60h3v12h-3zM204 65h12v3h-12zM221 60h3v12h-3zM216 65h12v3h-12zM197 72h3v12h-3zM192 77h12v3h-12zM233 72h3v12h-3zM228 77h12v3h-12zM269 48h3v12h-3zM264 53h12v3h-12zM269 60h3v12h-3zM264 65h12v3h-12zM281 60h3v12h-3zM276 65h12v3h-12zM245 72h3v12h-3zM240 77h12v3h-12zM257 72h3v12h-3zM252 77h12v3h-12zM257 84h3v12h-3zM252 89h12v3h-12zM288 48h12v12h-12zM324 48h12v12h-12zM300 60h12v12h-12zM312 60h12v12h-12zM300 72h12v12h-12zM288 84h12v12h-12zM324 84h12v12h-12zM339 51h6v6h-6zM351 51h6v6h-6zM339 63h6v6h-6zM351 63h6v6h-6zM363 75h6v6h-6zM375 75h6v6h-6zM363 87h6v6h-6zM375 87h6v6h-6zM387 51h6v6h-6zM423 51h6v6h-6zM399 63h6v6h-6zM411 63h6v6h-6zM399 75h6v6h-6zM411 75h6v6h-6zM387 87h6v6h-6zM423 87h6v6h-6zM432 48h12v12h-12zM456 48h12v12h-12zM468 60h12v12h-12zM432 72h12v12h-12zM444 84h12v12h-12zM468 84h12v12h-12zM483 51h6v6h-6zM519 51h6v6h-6zM483 75h6v6h-6zM519 75h6v6h-6zM531 51h6v6h-6zM555 51h6v6h-6zM555 63h6v6h-6zM567 63h6v6h-6zM531 75h6v6h-6zM543 75h6v6h-6zM543 87h6v6h-6zM567 87h6v6h-6zM615 51h6v6h-6zM615 63h6v6h-6zM579 75h6v6h-6zM579 87h6v6h-6zM639 51h6v6h-6zM663 51h6v6h-6zM627 63h6v6h-6zM639 63h6v6h-6zM651 75h6v6h-6zM663 75h6v6h-6zM627 87h6v6h-6zM651 87h6v6h-6zM672 48h12v12h-12zM708 48h12v12h-12zM684 60h12v12h-12zM696 60h12v12h-12zM672 72h12v12h-12zM708 72h12v12h-12zM737 48h3v12h-3zM732 53h12v3h-12zM725 60h3v12h-3zM720 65h12v3h-12zM737 60h3v12h-3zM732 65h12v3h-12zM749 72h3v12h-3zM744 77h12v3h-12zM761 72h3v12h-3zM756 77h12v3h-12zM749 84h3v12h-3zM744 89h12v3h-12zM773 48h3v12h-3zM768 53h12v3h-12zM785 60h3v12h-3zM780 65h12v3h-12zM773 72h3v12h-3zM768 77h12v3h-12zM797 72h3v12h-3zM792 77h12v3h-12zM773 84h3v12h-3zM768 89h12v3h-12zM785 84h3v12h-3zM780 89h12v3h-12zM809 84h3v12h-3zM804 89h12v3h-12zM819 51h6v6h-6zM855 51h6v6h-6zM831 63h6v6h-6zM843 63h6v6h-6zM831 75h6v6h-6zM819 87h6v6h-6zM855 87h6v6h-6zM879 51h6v6h-6zM903 51h6v6h-6zM891 63h6v6h-6zM891 75h6v6h-6zM879 87h6v6h-6zM903 87h6v6h-6zM936 48h12v12h-12zM948 48h12v12h-12zM912 84h12v12h-12zM924 84h12v12h-12zM5 96h3v12h-3zM0 101h12v3h-12zM17 96h3v12h-3zM12 101h12v3h-12zM5 108h3v12h-3zM0 113h12v3h-12zM17 108h3v12h-3zM12 113h12v3h-12zM29 120h3v12h-3zM24 125h12v3h-12zM41 120h3v12h-3zM36 125h12v3h-12zM29 132h3v12h-3zM24 137h12v3h-12zM41 132h3v12h-3zM36 137h12v3h-12zM53 108h3v12h-3zM48 113h12v3h-12zM89 108h3v12h-3zM84 113h12v3h-12zM53 120h3v12h-3zM48 125h12v3h-12zM65 120h3v12h-3zM60 125h12v3h-12zM108 96h12v12h-12zM96 108h12v12h-12zM132 120h12v12h-12zM120 132h12v12h-12zM173 96h3v12h-3zM168 101h12v3h-12zM149 108h3v12h-3zM144 113h12v3h-12zM161 108h3v12h-3zM156 113h12v3h-12zM185 108h3v12h-3zM180 113h12v3h-12zM149 120h3v12h-3zM144 125h12v3h-12zM173 120h3v12h-3zM168 125h12v3h-12zM185 120h3v12h-3zM180 125h12v3h-12zM161 132h3v12h-3zM156 137h12v3h-12zM209 96h3v12h-3zM204 101h12v3h-12zM233 96h3v12h-3zM228 101h12v3h-12zM209 132h3v12h-3zM204 137h12v3h-12zM233 132h3v12h-3zM228 137h12v3h-12zM240 108h12v12h-12zM276 108h12v12h-12zM240 120h12v12h-12zM252 120h12v12h-12zM288 96h12v12h-12zM324 96h12v12h-12zM300 108h12v12h-12zM312 108h12v12h-12zM288 132h12v12h-12zM324 132h12v12h-12zM341 108h3v12h-3zM336 113h12v3h-12zM377 108h3v12h-3zM372 113h12v3h-12zM341 120h3v12h-3zM336 125h12v3h-12zM353 120h3v12h-3zM348 125h12v3h-12zM399 99h6v6h-6zM423 99h6v6h-6zM399 135h6v6h-6zM423 135h6v6h-6zM449 108h3v12h-3zM444 113h12v3h-12zM461 108h3v12h-3zM456 113h12v3h-12zM449 120h3v12h-3zM444 125h12v3h-12zM461 120h3v12h-3zM456 125h12v3h-12zM492 96h12v12h-12zM516 96h12v12h-12zM480 108h12v12h-12zM492 108h12v12h-12zM504 120h12v12h-12zM516 120h12v12h-12zM480 132h12v12h-12zM504 132h12v12h-12zM528 96h12v12h-12zM540 108h12v12h-12zM552 120h12v12h-12zM564 132h12v12h-12zM600 96h12v12h-12zM600 108h12v12h-12zM612 108h12v12h-12zM576 120h12v12h-12zM588 120h12v12h-12zM588 132h12v12h-12zM627 99h6v6h-6zM663 99h6v6h-6zM651 111h6v6h-6zM639 123h6v6h-6zM627 135h6v6h-6zM663 135h6v6h-6zM675 99h6v6h-6zM711 99h6v6h-6zM687 123h6v6h-6zM699 123h6v6h-6zM675 135h6v6h-6zM711 135h6v6h-6zM720 96h12v12h-12zM744 96h12v12h-12zM756 108h12v12h-12zM720 120h12v12h-12zM732 132h12v12h-12zM756 132h12v12h-12zM771 99h6v6h-6zM807 99h6v6h-6zM783 111h6v6h-6zM795 111h6v6h-6zM771 135h6v6h-6zM807 135h6v6h-6zM855 99h6v6h-6zM843 111h6v6h-6zM831 123h6v6h-6zM819 135h6v6h-6zM869 96h3v12h-3zM864 101h12v3h-12zM905 96h3v12h-3zM900 101h12v3h-12zM881 108h3v12h-3zM876 113h12v3h-12zM893 108h3v12h-3zM888 113h12v3h-12zM869 132h3v12h-3zM864 137h12v3h-12zM905 132h3v12h-3zM900 137h12v3h-12zM941 96h3v12h-3zM936 101h12v3h-12zM941 108h3v12h-3zM936 113h12v3h-12zM953 108h3v12h-3zM948 113h12v3h-12zM917 120h3v12h-3zM912 125h12v3h-12zM929 120h3v12h-3zM924 125h12v3h-12zM929 132h3v12h-3zM924 137h12v3h-12zM15 159h6v6h-6zM27 159h6v6h-6zM15 171h6v6h-6zM27 171h6v6h-6zM53 144h3v12h-3zM48 149h12v3h-12zM89 144h3v12h-3zM84 149h12v3h-12zM65 168h3v12h-3zM60 173h12v3h-12zM77 168h3v12h-3zM72 173h12v3h-12zM53 180h3v12h-3zM48 185h12v3h-12zM89 180h3v12h-3zM84 185h12v3h-12zM111 147h6v6h-6zM99 159h6v6h-6zM135 171h6v6h-6zM123 183h6v6h-6zM144 144h12v12h-12zM180 144h12v12h-12zM168 156h12v12h-12zM156 168h12v12h-12zM144 180h12v12h-12zM180 180h12v12h-12zM233 144h3v12h-3zM228 149h12v3h-12zM221 156h3v12h-3zM216 161h12v3h-12zM209 168h3v12h-3zM204 173h12v3h-12zM233 168h3v12h-3zM228 173h12v3h-12zM197 180h3v12h-3zM192 185h12v3h-12zM221 180h3v12h-3zM216 185h12v3h-12zM233 180h3v12h-3zM228 185h12v3h-12zM240 144h12v12h-12zM276 144h12v12h-12zM252 156h12v12h-12zM264 156h12v12h-12zM240 168h12v12h-12zM276 168h12v12h-12zM303 147h6v6h-6zM327 147h6v6h-6zM315 159h6v6h-6zM315 171h6v6h-6zM303 183h6v6h-6zM327 183h6v6h-6zM336 144h12v12h-12zM372 144h12v12h-12zM336 180h12v12h-12zM372 180h12v12h-12zM399 147h6v6h-6zM423 147h6v6h-6zM387 159h6v6h-6zM411 159h6v6h-6zM399 171h6v6h-6zM423 171h6v6h-6zM387 183h6v6h-6zM411 183h6v6h-6zM437 144h3v12h-3zM432 149h12v3h-12zM449 156h3v12h-3zM444 161h12v3h-12zM461 168h3v12h-3zM456 173h12v3h-12zM473 180h3v12h-3zM468 185h12v3h-12zM485 144h3v12h-3zM480 149h12v3h-12zM521 144h3v12h-3zM516 149h12v3h-12zM497 156h3v12h-3zM492 161h12v3h-12zM509 156h3v12h-3zM504 161h12v3h-12zM497 168h3v12h-3zM492 173h12v3h-12zM485 180h3v12h-3zM480 185h12v3h-12zM521 180h3v12h-3zM516 185h12v3h-12zM569 144h3v12h-3zM564 149h12v3h-12zM557 156h3v12h-3zM552 161h12v3h-12zM545 168h3v12h-3zM540 173h12v3h-12zM569 168h3v12h-3zM564 173h12v3h-12zM533 180h3v12h-3zM528 185h12v3h-12zM557 180h3v12h-3zM552 185h12v3h-12zM569 180h3v12h-3zM564 185h12v3h-12zM593 144h3v12h-3zM588 149h12v3h-12zM617 144h3v12h-3zM612 149h12v3h-12zM605 156h3v12h-3zM600 161h12v3h-12zM605 168h3v12h-3zM600 173h12v3h-12zM593 180h3v12h-3zM588 185h12v3h-12zM617 180h3v12h-3zM612 185h12v3h-12zM660 216h12v12h-12zM636 144h12v12h-12zM648 144h12v12h-12zM636 156h12v12h-12zM660 156h12v12h-12zM624 168h12v12h-12zM648 168h12v12h-12zM636 180h12v12h-12zM648 180h12v12h-12zM687 147h6v6h-6zM711 147h6v6h-6zM699 159h6v6h-6zM699 171h6v6h-6zM687 183h6v6h-6zM711 183h6v6h-6zM749 144h3v12h-3zM744 149h12v3h-12zM737 156h3v12h-3zM732 161h12v3h-12zM761 156h3v12h-3zM756 161h12v3h-12zM725 168h3v12h-3zM720 173h12v3h-12zM749 168h3v12h-3zM744 173h12v3h-12zM737 180h3v12h-3zM732 185h12v3h-12zM797 144h3v12h-3zM792 149h12v3h-12zM809 144h3v12h-3zM804 149h12v3h-12zM797 156h3v12h-3zM792 161h12v3h-12zM809 156h3v12h-3zM804 161h12v3h-12zM773 168h3v12h-3zM768 173h12v3h-12zM785 168h3v12h-3zM780 173h12v3h-12zM773 180h3v12h-3zM768 185h12v3h-12zM785 180h3v12h-3zM780 185h12v3h-12zM816 144h12v12h-12zM828 156h12v12h-12zM816 168h12v12h-12zM840 168h12v12h-12zM816 180h12v12h-12zM828 180h12v12h-12zM852 180h12v12h-12zM876 144h12v12h-12zM900 144h12v12h-12zM864 156h12v12h-12zM876 156h12v12h-12zM888 168h12v12h-12zM900 168h12v12h-12zM864 180h12v12h-12zM888 180h12v12h-12zM915 147h6v6h-6zM927 159h6v6h-6zM915 171h6v6h-6zM939 171h6v6h-6zM915 183h6v6h-6zM927 183h6v6h-6zM951 183h6v6h-6zM3 195h6v6h-6zM39 195h6v6h-6zM15 207h6v6h-6zM27 207h6v6h-6zM27 219h6v6h-6zM3 231h6v6h-6zM39 231h6v6h-6zM51 195h6v6h-6zM75 195h6v6h-6zM87 207h6v6h-6zM51 219h6v6h-6zM63 231h6v6h-6zM87 231h6v6h-6zM125 192h3v12h-3zM120 197h12v3h-12zM101 204h3v12h-3zM96 209h12v3h-12zM113 204h3v12h-3zM108 209h12v3h-12zM137 204h3v12h-3zM132 209h12v3h-12zM101 216h3v12h-3zM96 221h12v3h-12zM125 216h3v12h-3zM120 221h12v3h-12zM137 216h3v12h-3zM132 221h12v3h-12zM113 228h3v12h-3zM108 233h12v3h-12zM159 195h6v6h-6zM171 195h6v6h-6zM147 207h6v6h-6zM171 207h6v6h-6zM159 219h6v6h-6zM183 219h6v6h-6zM159 231h6v6h-6zM171 231h6v6h-6zM209 192h3v12h-3zM204 197h12v3h-12zM221 192h3v12h-3zM216 197h12v3h-12zM197 204h3v12h-3zM192 209h12v3h-12zM221 204h3v12h-3zM216 209h12v3h-12zM209 216h3v12h-3zM204 221h12v3h-12zM233 216h3v12h-3zM228 221h12v3h-12zM209 228h3v12h-3zM204 233h12v3h-12zM221 228h3v12h-3zM216 233h12v3h-12zM257 192h3v12h-3zM252 197h12v3h-12zM281 192h3v12h-3zM276 197h12v3h-12zM269 204h3v12h-3zM264 209h12v3h-12zM269 216h3v12h-3zM264 221h12v3h-12zM257 228h3v12h-3zM252 233h12v3h-12zM281 228h3v12h-3zM276 233h12v3h-12zM303 195h6v6h-6zM315 219h6v6h-6zM303 231h6v6h-6zM315 231h6v6h-6zM341 192h3v12h-3zM336 197h12v3h-12zM365 192h3v12h-3zM360 197h12v3h-12zM365 204h3v12h-3zM360 209h12v3h-12zM377 204h3v12h-3zM372 209h12v3h-12zM341 216h3v12h-3zM336 221h12v3h-12zM353 216h3v12h-3zM348 221h12v3h-12zM353 228h3v12h-3zM348 233h12v3h-12zM377 228h3v12h-3zM372 233h12v3h-12zM387 195h6v6h-6zM399 195h6v6h-6zM411 231h6v6h-6zM423 231h6v6h-6zM444 192h12v12h-12zM468 192h12v12h-12zM444 228h12v12h-12zM468 228h12v12h-12zM492 192h12v12h-12zM504 192h12v12h-12zM492 228h12v12h-12zM504 228h12v12h-12zM533 192h3v12h-3zM528 197h12v3h-12zM557 192h3v12h-3zM552 197h12v3h-12zM545 204h3v12h-3zM540 209h12v3h-12zM569 204h3v12h-3zM564 209h12v3h-12zM533 216h3v12h-3zM528 221h12v3h-12zM557 216h3v12h-3zM552 221h12v3h-12zM545 228h3v12h-3zM540 233h12v3h-12zM569 228h3v12h-3zM564 233h12v3h-12zM576 192h12v12h-12zM612 192h12v12h-12zM588 204h12v12h-12zM600 204h12v12h-12zM576 216h12v12h-12zM612 216h12v12h-12zM636 192h12v12h-12zM624 204h12v12h-12zM660 216h12v12h-12zM648 228h12v12h-12zM684 192h12v12h-12zM708 192h12v12h-12zM672 204h12v12h-12zM696 204h12v12h-12zM684 216h12v12h-12zM708 216h12v12h-12zM672 228h12v12h-12zM696 228h12v12h-12zM735 195h6v6h-6zM723 207h6v6h-6zM735 207h6v6h-6zM747 219h6v6h-6zM759 219h6v6h-6zM747 231h6v6h-6zM773 192h3v12h-3zM768 197h12v3h-12zM785 204h3v12h-3zM780 209h12v3h-12zM797 216h3v12h-3zM792 221h12v3h-12zM809 228h3v12h-3zM804 233h12v3h-12zM857 192h3v12h-3zM852 197h12v3h-12zM845 204h3v12h-3zM840 209h12v3h-12zM833 216h3v12h-3zM828 221h12v3h-12zM821 228h3v12h-3zM816 233h12v3h-12zM881 204h3v12h-3zM876 209h12v3h-12zM893 204h3v12h-3zM888 209h12v3h-12zM881 216h3v12h-3zM876 221h12v3h-12zM893 216h3v12h-3zM888 221h12v3h-12zM941 192h3v12h-3zM936 197h12v3h-12zM917 204h3v12h-3zM912 209h12v3h-12zM929 204h3v12h-3zM924 209h12v3h-12zM953 204h3v12h-3zM948 209h12v3h-12zM917 216h3v12h-3zM912 221h12v3h-12zM941 216h3v12h-3zM936 221h12v3h-12zM953 216h3v12h-3zM948 221h12v3h-12zM929 228h3v12h-3zM924 233h12v3h-12zM0 240h12v12h-12zM36 240h12v12h-12zM12 252h12v12h-12zM24 252h12v12h-12zM24 264h12v12h-12zM0 276h12v12h-12zM36 276h12v12h-12zM51 243h6v6h-6zM87 243h6v6h-6zM63 255h6v6h-6zM75 255h6v6h-6zM63 267h6v6h-6zM75 267h6v6h-6zM51 279h6v6h-6zM87 279h6v6h-6zM108 240h12v12h-12zM132 240h12v12h-12zM120 252h12v12h-12zM120 264h12v12h-12zM108 276h12v12h-12zM132 276h12v12h-12zM171 243h6v6h-6zM183 255h6v6h-6zM147 267h6v6h-6zM159 279h6v6h-6zM192 240h12v12h-12zM192 252h12v12h-12zM228 264h12v12h-12zM228 276h12v12h-12zM240 240h12v12h-12zM276 240h12v12h-12zM252 252h12v12h-12zM264 252h12v12h-12zM264 264h12v12h-12zM240 276h12v12h-12zM276 276h12v12h-12zM303 255h6v6h-6zM315 255h6v6h-6zM303 267h6v6h-6zM315 267h6v6h-6zM336 240h12v12h-12zM372 240h12v12h-12zM336 264h12v12h-12zM372 264h12v12h-12zM401 240h3v12h-3zM396 245h12v3h-12zM413 240h3v12h-3zM408 245h12v3h-12zM401 276h3v12h-3zM396 281h12v3h-12zM413 276h3v12h-3zM408 281h12v3h-12zM432 240h12v12h-12zM444 252h12v12h-12zM432 264h12v12h-12zM456 264h12v12h-12zM432 276h12v12h-12zM444 276h12v12h-12zM468 276h12v12h-12zM498 258h12v12h-12zM533 240h3v12h-3zM528 245h12v3h-12zM569 240h3v12h-3zM564 245h12v3h-12zM545 252h3v12h-3zM540 257h12v3h-12zM557 252h3v12h-3zM552 257h12v3h-12zM545 264h3v12h-3zM540 269h12v3h-12zM557 264h3v12h-3zM552 269h12v3h-12zM533 276h3v12h-3zM528 281h12v3h-12zM569 276h3v12h-3zM564 281h12v3h-12zM576 240h12v12h-12zM600 240h12v12h-12zM612 252h12v12h-12zM576 264h12v12h-12zM588 276h12v12h-12zM612 276h12v12h-12zM636 240h12v12h-12zM624 252h12v12h-12zM648 252h12v12h-12zM636 264h12v12h-12zM660 264h12v12h-12zM648 276h12v12h-12zM684 240h12v12h-12zM708 240h12v12h-12zM672 252h12v12h-12zM708 264h12v12h-12zM672 276h12v12h-12zM696 276h12v12h-12zM759 315h6v6h-6zM735 243h6v6h-6zM747 243h6v6h-6zM735 255h6v6h-6zM759 255h6v6h-6zM723 267h6v6h-6zM747 267h6v6h-6zM735 279h6v6h-6zM747 279h6v6h-6zM768 240h12v12h-12zM804 240h12v12h-12zM780 252h12v12h-12zM792 252h12v12h-12zM780 264h12v12h-12zM792 264h12v12h-12zM768 276h12v12h-12zM804 276h12v12h-12zM819 243h6v6h-6zM855 243h6v6h-6zM831 255h6v6h-6zM843 255h6v6h-6zM831 267h6v6h-6zM819 279h6v6h-6zM855 279h6v6h-6zM879 243h6v6h-6zM903 243h6v6h-6zM867 255h6v6h-6zM903 267h6v6h-6zM867 279h6v6h-6zM891 279h6v6h-6zM948 240h12v12h-12zM948 252h12v12h-12zM912 264h12v12h-12zM912 276h12v12h-12zM3 303h6v6h-6zM39 303h6v6h-6zM3 315h6v6h-6zM39 315h6v6h-6zM63 291h6v6h-6zM75 315h6v6h-6zM63 327h6v6h-6zM75 327h6v6h-6zM113 288h3v12h-3zM108 293h12v3h-12zM137 288h3v12h-3zM132 293h12v3h-12zM101 300h3v12h-3zM96 305h12v3h-12zM125 300h3v12h-3zM120 305h12v3h-12zM113 312h3v12h-3zM108 317h12v3h-12zM137 312h3v12h-3zM132 317h12v3h-12zM101 324h3v12h-3zM96 329h12v3h-12zM125 324h3v12h-3zM120 329h12v3h-12zM173 288h3v12h-3zM168 293h12v3h-12zM173 300h3v12h-3zM168 305h12v3h-12zM185 300h3v12h-3zM180 305h12v3h-12zM149 312h3v12h-3zM144 317h12v3h-12zM161 312h3v12h-3zM156 317h12v3h-12zM161 324h3v12h-3zM156 329h12v3h-12zM197 288h3v12h-3zM192 293h12v3h-12zM221 288h3v12h-3zM216 293h12v3h-12zM209 300h3v12h-3zM204 305h12v3h-12zM233 300h3v12h-3zM228 305h12v3h-12zM197 312h3v12h-3zM192 317h12v3h-12zM221 312h3v12h-3zM216 317h12v3h-12zM209 324h3v12h-3zM204 329h12v3h-12zM233 324h3v12h-3zM228 329h12v3h-12zM240 288h12v12h-12zM276 288h12v12h-12zM240 312h12v12h-12zM276 312h12v12h-12zM293 288h3v12h-3zM288 293h12v3h-12zM317 288h3v12h-3zM312 293h12v3h-12zM317 300h3v12h-3zM312 305h12v3h-12zM329 300h3v12h-3zM324 305h12v3h-12zM293 312h3v12h-3zM288 317h12v3h-12zM305 312h3v12h-3zM300 317h12v3h-12zM305 324h3v12h-3zM300 329h12v3h-12zM329 324h3v12h-3zM324 329h12v3h-12zM348 288h12v12h-12zM336 300h12v12h-12zM360 300h12v12h-12zM348 312h12v12h-12zM372 312h12v12h-12zM360 324h12v12h-12zM387 291h6v6h-6zM423 291h6v6h-6zM399 303h6v6h-6zM399 315h6v6h-6zM411 315h6v6h-6zM387 327h6v6h-6zM423 327h6v6h-6zM461 288h3v12h-3zM456 293h12v3h-12zM449 300h3v12h-3zM444 305h12v3h-12zM473 300h3v12h-3zM468 305h12v3h-12zM437 312h3v12h-3zM432 317h12v3h-12zM461 312h3v12h-3zM456 317h12v3h-12zM449 324h3v12h-3zM444 329h12v3h-12zM495 291h6v6h-6zM519 291h6v6h-6zM483 303h6v6h-6zM507 303h6v6h-6zM495 315h6v6h-6zM519 315h6v6h-6zM483 327h6v6h-6zM507 327h6v6h-6zM531 291h6v6h-6zM567 291h6v6h-6zM531 327h6v6h-6zM567 327h6v6h-6zM579 291h6v6h-6zM591 303h6v6h-6zM603 315h6v6h-6zM615 327h6v6h-6zM629 288h3v12h-3zM624 293h12v3h-12zM665 288h3v12h-3zM660 293h12v3h-12zM641 300h3v12h-3zM636 305h12v3h-12zM653 300h3v12h-3zM648 305h12v3h-12zM641 312h3v12h-3zM636 317h12v3h-12zM653 312h3v12h-3zM648 317h12v3h-12zM629 324h3v12h-3zM624 329h12v3h-12zM665 324h3v12h-3zM660 329h12v3h-12zM672 288h12v12h-12zM684 288h12v12h-12zM696 324h12v12h-12zM708 324h12v12h-12zM737 288h3v12h-3zM732 293h12v3h-12zM725 300h3v12h-3zM720 305h12v3h-12zM749 300h3v12h-3zM744 305h12v3h-12zM761 300h3v12h-3zM756 305h12v3h-12zM725 312h3v12h-3zM720 317h12v3h-12zM737 312h3v12h-3zM732 317h12v3h-12zM761 312h3v12h-3zM756 317h12v3h-12zM749 324h3v12h-3zM744 329h12v3h-12zM797 288h3v12h-3zM792 293h12v3h-12zM785 300h3v12h-3zM780 305h12v3h-12zM809 300h3v12h-3zM804 305h12v3h-12zM773 312h3v12h-3zM768 317h12v3h-12zM797 312h3v12h-3zM792 317h12v3h-12zM785 324h3v12h-3zM780 329h12v3h-12zM831 303h6v6h-6zM843 303h6v6h-6zM831 315h6v6h-6zM843 315h6v6h-6zM881 288h3v12h-3zM876 293h12v3h-12zM905 288h3v12h-3zM900 293h12v3h-12zM881 324h3v12h-3zM876 329h12v3h-12zM905 324h3v12h-3zM900 329h12v3h-12zM915 291h6v6h-6zM951 291h6v6h-6zM927 303h6v6h-6zM939 303h6v6h-6zM927 315h6v6h-6zM939 315h6v6h-6zM915 327h6v6h-6zM951 327h6v6h-6zM5 336h3v12h-3zM0 341h12v3h-12zM5 348h3v12h-3zM0 353h12v3h-12zM41 360h3v12h-3zM36 365h12v3h-12zM41 372h3v12h-3zM36 377h12v3h-12zM51 339h6v6h-6zM87 339h6v6h-6zM75 351h6v6h-6zM63 363h6v6h-6zM75 363h6v6h-6zM51 375h6v6h-6zM87 375h6v6h-6zM96 336h12v12h-12zM132 336h12v12h-12zM108 348h12v12h-12zM120 348h12v12h-12zM120 360h12v12h-12zM96 372h12v12h-12zM132 372h12v12h-12zM149 348h3v12h-3zM144 353h12v3h-12zM185 348h3v12h-3zM180 353h12v3h-12zM149 360h3v12h-3zM144 365h12v3h-12zM161 360h3v12h-3zM156 365h12v3h-12zM192 336h12v12h-12zM228 336h12v12h-12zM204 348h12v12h-12zM216 360h12v12h-12zM192 372h12v12h-12zM228 372h12v12h-12zM255 339h6v6h-6zM267 339h6v6h-6zM243 351h6v6h-6zM267 351h6v6h-6zM255 363h6v6h-6zM279 363h6v6h-6zM255 375h6v6h-6zM267 375h6v6h-6zM288 336h12v12h-12zM324 336h12v12h-12zM288 360h12v12h-12zM324 360h12v12h-12zM353 336h3v12h-3zM348 341h12v3h-12zM365 336h3v12h-3zM360 341h12v3h-12zM353 372h3v12h-3zM348 377h12v3h-12zM365 372h3v12h-3zM360 377h12v3h-12zM389 336h3v12h-3zM384 341h12v3h-12zM401 336h3v12h-3zM396 341h12v3h-12zM389 348h3v12h-3zM384 353h12v3h-12zM401 348h3v12h-3zM396 353h12v3h-12zM413 360h3v12h-3zM408 365h12v3h-12zM425 360h3v12h-3zM420 365h12v3h-12zM413 372h3v12h-3zM408 377h12v3h-12zM425 372h3v12h-3zM420 377h12v3h-12zM455 354h3v12h-3zM450 359h12v3h-12zM497 336h3v12h-3zM492 341h12v3h-12zM521 336h3v12h-3zM516 341h12v3h-12zM509 348h3v12h-3zM504 353h12v3h-12zM509 360h3v12h-3zM504 365h12v3h-12zM497 372h3v12h-3zM492 377h12v3h-12zM521 372h3v12h-3zM516 377h12v3h-12zM531 339h6v6h-6zM555 339h6v6h-6zM567 351h6v6h-6zM531 363h6v6h-6zM543 375h6v6h-6zM567 375h6v6h-6zM603 339h6v6h-6zM603 351h6v6h-6zM615 351h6v6h-6zM579 363h6v6h-6zM591 363h6v6h-6zM591 375h6v6h-6zM636 336h12v12h-12zM660 336h12v12h-12zM624 348h12v12h-12zM660 360h12v12h-12zM624 372h12v12h-12zM648 372h12v12h-12zM684 336h12v12h-12zM672 348h12v12h-12zM696 348h12v12h-12zM684 360h12v12h-12zM708 360h12v12h-12zM696 372h12v12h-12zM723 339h6v6h-6zM759 339h6v6h-6zM723 375h6v6h-6zM759 375h6v6h-6zM783 339h6v6h-6zM771 351h6v6h-6zM795 351h6v6h-6zM783 363h6v6h-6zM807 363h6v6h-6zM795 375h6v6h-6zM831 339h6v6h-6zM819 351h6v6h-6zM855 363h6v6h-6zM843 375h6v6h-6zM881 336h3v12h-3zM876 341h12v3h-12zM905 336h3v12h-3zM900 341h12v3h-12zM869 348h3v12h-3zM864 353h12v3h-12zM881 348h3v12h-3zM876 353h12v3h-12zM893 360h3v12h-3zM888 365h12v3h-12zM905 360h3v12h-3zM900 365h12v3h-12zM869 372h3v12h-3zM864 377h12v3h-12zM893 372h3v12h-3zM888 377h12v3h-12zM927 339h6v6h-6zM951 339h6v6h-6zM939 351h6v6h-6zM939 363h6v6h-6zM927 375h6v6h-6zM951 375h6v6h-6zM3 399h6v6h-6zM39 399h6v6h-6zM3 411h6v6h-6zM39 411h6v6h-6zM51 387h6v6h-6zM87 387h6v6h-6zM63 399h6v6h-6zM75 411h6v6h-6zM51 423h6v6h-6zM87 423h6v6h-6zM108 384h12v12h-12zM132 384h12v12h-12zM108 420h12v12h-12zM132 420h12v12h-12zM147 387h6v6h-6zM159 387h6v6h-6zM147 399h6v6h-6zM159 399h6v6h-6zM171 411h6v6h-6zM183 411h6v6h-6zM171 423h6v6h-6zM183 423h6v6h-6zM221 384h3v12h-3zM216 389h12v3h-12zM221 396h3v12h-3zM216 401h12v3h-12zM233 396h3v12h-3zM228 401h12v3h-12zM197 408h3v12h-3zM192 413h12v3h-12zM209 408h3v12h-3zM204 413h12v3h-12zM209 420h3v12h-3zM204 425h12v3h-12zM252 384h12v12h-12zM240 396h12v12h-12zM252 396h12v12h-12zM264 408h12v12h-12zM276 408h12v12h-12zM264 420h12v12h-12zM293 384h3v12h-3zM288 389h12v3h-12zM329 384h3v12h-3zM324 389h12v3h-12zM305 396h3v12h-3zM300 401h12v3h-12zM317 396h3v12h-3zM312 401h12v3h-12zM305 408h3v12h-3zM300 413h12v3h-12zM317 408h3v12h-3zM312 413h12v3h-12zM293 420h3v12h-3zM288 425h12v3h-12zM329 420h3v12h-3zM324 425h12v3h-12zM339 387h6v6h-6zM363 387h6v6h-6zM351 399h6v6h-6zM375 399h6v6h-6zM339 411h6v6h-6zM363 411h6v6h-6zM351 423h6v6h-6zM375 423h6v6h-6zM408 384h12v12h-12zM420 396h12v12h-12zM384 408h12v12h-12zM396 420h12v12h-12zM435 387h6v6h-6zM447 399h6v6h-6zM459 411h6v6h-6zM471 423h6v6h-6zM483 387h6v6h-6zM519 387h6v6h-6zM495 399h6v6h-6zM507 399h6v6h-6zM507 411h6v6h-6zM483 423h6v6h-6zM519 423h6v6h-6zM543 387h6v6h-6zM555 387h6v6h-6zM531 399h6v6h-6zM555 399h6v6h-6zM543 411h6v6h-6zM567 411h6v6h-6zM543 423h6v6h-6zM555 423h6v6h-6zM576 384h12v12h-12zM588 384h12v12h-12zM576 396h12v12h-12zM588 396h12v12h-12zM600 408h12v12h-12zM612 408h12v12h-12zM600 420h12v12h-12zM612 420h12v12h-12zM636 384h12v12h-12zM624 396h12v12h-12zM648 396h12v12h-12zM660 396h12v12h-12zM624 408h12v12h-12zM636 408h12v12h-12zM660 408h12v12h-12zM648 420h12v12h-12zM675 399h6v6h-6zM711 399h6v6h-6zM675 411h6v6h-6zM711 411h6v6h-6zM756 384h12v12h-12zM744 396h12v12h-12zM732 408h12v12h-12zM756 408h12v12h-12zM720 420h12v12h-12zM744 420h12v12h-12zM756 420h12v12h-12zM785 384h3v12h-3zM780 389h12v3h-12zM773 396h3v12h-3zM768 401h12v3h-12zM797 396h3v12h-3zM792 401h12v3h-12zM785 408h3v12h-3zM780 413h12v3h-12zM809 408h3v12h-3zM804 413h12v3h-12zM797 420h3v12h-3zM792 425h12v3h-12zM833 384h3v12h-3zM828 389h12v3h-12zM857 384h3v12h-3zM852 389h12v3h-12zM821 396h3v12h-3zM816 401h12v3h-12zM857 408h3v12h-3zM852 413h12v3h-12zM821 420h3v12h-3zM816 425h12v3h-12zM845 420h3v12h-3zM840 425h12v3h-12zM869 384h3v12h-3zM864 389h12v3h-12zM893 384h3v12h-3zM888 389h12v3h-12zM905 384h3v12h-3zM900 389h12v3h-12zM881 396h3v12h-3zM876 401h12v3h-12zM905 396h3v12h-3zM900 401h12v3h-12zM893 408h3v12h-3zM888 413h12v3h-12zM905 420h3v12h-3zM900 425h12v3h-12zM929 384h3v12h-3zM924 389h12v3h-12zM941 384h3v12h-3zM936 389h12v3h-12zM941 396h3v12h-3zM936 401h12v3h-12zM929 420h3v12h-3zM924 425h12v3h-12zM3 435h6v6h-6zM27 435h6v6h-6zM39 435h6v6h-6zM15 447h6v6h-6zM39 447h6v6h-6zM27 459h6v6h-6zM39 471h6v6h-6zM75 435h6v6h-6zM87 435h6v6h-6zM75 447h6v6h-6zM87 447h6v6h-6zM51 459h6v6h-6zM63 459h6v6h-6zM51 471h6v6h-6zM63 471h6v6h-6zM113 444h3v12h-3zM108 449h12v3h-12zM125 444h3v12h-3zM120 449h12v3h-12zM113 456h3v12h-3zM108 461h12v3h-12zM125 456h3v12h-3zM120 461h12v3h-12zM147 447h6v6h-6zM159 447h6v6h-6zM147 459h6v6h-6zM183 459h6v6h-6zM209 432h3v12h-3zM204 437h12v3h-12zM233 432h3v12h-3zM228 437h12v3h-12zM197 444h3v12h-3zM192 449h12v3h-12zM221 444h3v12h-3zM216 449h12v3h-12zM209 456h3v12h-3zM204 461h12v3h-12zM233 456h3v12h-3zM228 461h12v3h-12zM197 468h3v12h-3zM192 473h12v3h-12zM221 468h3v12h-3zM216 473h12v3h-12zM255 435h6v6h-6zM279 435h6v6h-6zM267 447h6v6h-6zM267 459h6v6h-6zM255 471h6v6h-6zM279 471h6v6h-6zM324 432h12v12h-12zM312 444h12v12h-12zM300 456h12v12h-12zM324 456h12v12h-12zM288 468h12v12h-12zM312 468h12v12h-12zM324 468h12v12h-12zM339 435h6v6h-6zM375 435h6v6h-6zM351 459h6v6h-6zM363 459h6v6h-6zM339 471h6v6h-6zM375 471h6v6h-6zM408 432h12v12h-12zM420 432h12v12h-12zM408 444h12v12h-12zM420 444h12v12h-12zM384 456h12v12h-12zM396 456h12v12h-12zM384 468h12v12h-12zM396 468h12v12h-12zM449 432h3v12h-3zM444 437h12v3h-12zM473 432h3v12h-3zM468 437h12v3h-12zM437 444h3v12h-3zM432 449h12v3h-12zM473 456h3v12h-3zM468 461h12v3h-12zM437 468h3v12h-3zM432 473h12v3h-12zM461 468h3v12h-3zM456 473h12v3h-12zM519 507h6v6h-6zM495 435h6v6h-6zM507 435h6v6h-6zM495 447h6v6h-6zM519 447h6v6h-6zM483 459h6v6h-6zM507 459h6v6h-6zM495 471h6v6h-6zM507 471h6v6h-6zM557 432h3v12h-3zM552 437h12v3h-12zM545 444h3v12h-3zM540 449h12v3h-12zM569 444h3v12h-3zM564 449h12v3h-12zM533 456h3v12h-3zM528 461h12v3h-12zM557 456h3v12h-3zM552 461h12v3h-12zM545 468h3v12h-3zM540 473h12v3h-12zM588 444h12v12h-12zM600 444h12v12h-12zM588 456h12v12h-12zM600 456h12v12h-12zM627 447h6v6h-6zM663 447h6v6h-6zM627 459h6v6h-6zM639 459h6v6h-6zM677 432h3v12h-3zM672 437h12v3h-12zM689 432h3v12h-3zM684 437h12v3h-12zM677 444h3v12h-3zM672 449h12v3h-12zM689 444h3v12h-3zM684 449h12v3h-12zM701 456h3v12h-3zM696 461h12v3h-12zM713 456h3v12h-3zM708 461h12v3h-12zM701 468h3v12h-3zM696 473h12v3h-12zM713 468h3v12h-3zM708 473h12v3h-12zM756 432h12v12h-12zM756 444h12v12h-12zM720 456h12v12h-12zM720 468h12v12h-12zM792 432h12v12h-12zM768 444h12v12h-12zM780 444h12v12h-12zM804 444h12v12h-12zM768 456h12v12h-12zM792 456h12v12h-12zM804 456h12v12h-12zM780 468h12v12h-12zM819 435h6v6h-6zM843 435h6v6h-6zM855 435h6v6h-6zM831 447h6v6h-6zM855 447h6v6h-6zM843 459h6v6h-6zM855 471h6v6h-6zM876 432h12v12h-12zM900 432h12v12h-12zM888 444h12v12h-12zM888 456h12v12h-12zM876 468h12v12h-12zM900 468h12v12h-12zM912 432h12v12h-12zM948 432h12v12h-12zM924 444h12v12h-12zM936 456h12v12h-12zM912 468h12v12h-12zM948 468h12v12h-12zM0 480h12v12h-12zM36 480h12v12h-12zM12 492h12v12h-12zM24 504h12v12h-12zM0 516h12v12h-12zM36 516h12v12h-12zM113 492h3v12h-3zM108 497h12v3h-12zM125 492h3v12h-3zM120 497h12v3h-12zM113 504h3v12h-3zM108 509h12v3h-12zM125 504h3v12h-3zM120 509h12v3h-12zM204 480h12v12h-12zM228 480h12v12h-12zM204 516h12v12h-12zM228 516h12v12h-12zM300 480h12v12h-12zM312 480h12v12h-12zM312 492h12v12h-12zM300 516h12v12h-12zM408 480h12v12h-12zM408 492h12v12h-12zM420 492h12v12h-12zM384 504h12v12h-12zM396 504h12v12h-12zM396 516h12v12h-12zM480 480h12v12h-12zM492 480h12v12h-12zM516 480h12v12h-12zM480 492h12v12h-12zM504 492h12v12h-12zM492 504h12v12h-12zM480 516h12v12h-12zM576 480h12v12h-12zM576 492h12v12h-12zM612 504h12v12h-12zM612 516h12v12h-12zM689 480h3v12h-3zM684 485h12v3h-12zM713 480h3v12h-3zM708 485h12v3h-12zM689 516h3v12h-3zM684 521h12v3h-12zM713 516h3v12h-3zM708 521h12v3h-12zM780 492h12v12h-12zM792 492h12v12h-12zM780 504h12v12h-12zM792 504h12v12h-12zM876 480h12v12h-12zM864 492h12v12h-12zM876 492h12v12h-12zM888 504h12v12h-12zM900 504h12v12h-12zM888 516h12v12h-12zM3 579h6v6h-6zM39 579h6v6h-6zM15 591h6v6h-6zM27 591h6v6h-6zM15 603h6v6h-6zM27 603h6v6h-6zM3 615h6v6h-6zM39 615h6v6h-6zM119 594h3v12h-3zM114 599h12v3h-12zM195 579h6v6h-6zM231 579h6v6h-6zM195 615h6v6h-6zM231 615h6v6h-6zM305 576h3v12h-3zM300 581h12v3h-12zM317 600h3v12h-3zM312 605h12v3h-12zM305 612h3v12h-3zM300 617h12v3h-12zM317 612h3v12h-3zM312 617h12v3h-12zM384 576h12v12h-12zM420 576h12v12h-12zM384 612h12v12h-12zM420 612h12v12h-12zM498 594h12v12h-12zM593 576h3v12h-3zM588 581h12v3h-12zM605 576h3v12h-3zM600 581h12v3h-12zM581 588h3v12h-3zM576 593h12v3h-12zM605 588h3v12h-3zM600 593h12v3h-12zM593 600h3v12h-3zM588 605h12v3h-12zM617 600h3v12h-3zM612 605h12v3h-12zM593 612h3v12h-3zM588 617h12v3h-12zM605 612h3v12h-3zM600 617h12v3h-12zM675 579h6v6h-6zM711 579h6v6h-6zM687 591h6v6h-6zM687 603h6v6h-6zM699 603h6v6h-6zM675 615h6v6h-6zM711 615h6v6h-6zM797 576h3v12h-3zM792 581h12v3h-12zM809 588h3v12h-3zM804 593h12v3h-12zM773 600h3v12h-3zM768 605h12v3h-12zM785 612h3v12h-3zM780 617h12v3h-12zM876 576h12v12h-12zM864 588h12v12h-12zM888 588h12v12h-12zM876 600h12v12h-12zM900 600h12v12h-12zM888 612h12v12h-12zM0 672h12v12h-12zM12 672h12v12h-12zM36 672h12v12h-12zM0 684h12v12h-12zM24 684h12v12h-12zM12 696h12v12h-12zM0 708h12v12h-12zM114 690h12v12h-12zM192 672h12v12h-12zM228 672h12v12h-12zM204 684h12v12h-12zM216 684h12v12h-12zM216 696h12v12h-12zM192 708h12v12h-12zM228 708h12v12h-12zM300 672h12v12h-12zM312 696h12v12h-12zM300 708h12v12h-12zM312 708h12v12h-12zM401 672h3v12h-3zM396 677h12v3h-12zM389 684h3v12h-3zM384 689h12v3h-12zM401 684h3v12h-3zM396 689h12v3h-12zM413 696h3v12h-3zM408 701h12v3h-12zM425 696h3v12h-3zM420 701h12v3h-12zM413 708h3v12h-3zM408 713h12v3h-12zM480 672h12v12h-12zM516 672h12v12h-12zM492 684h12v12h-12zM504 684h12v12h-12zM504 696h12v12h-12zM480 708h12v12h-12zM516 708h12v12h-12zM581 672h3v12h-3zM576 677h12v3h-12zM617 672h3v12h-3zM612 677h12v3h-12zM605 684h3v12h-3zM600 689h12v3h-12zM593 696h3v12h-3zM588 701h12v3h-12zM605 696h3v12h-3zM600 701h12v3h-12zM581 708h3v12h-3zM576 713h12v3h-12zM617 708h3v12h-3zM612 713h12v3h-12zM713 744h3v12h-3zM708 749h12v3h-12zM689 672h3v12h-3zM684 677h12v3h-12zM701 672h3v12h-3zM696 677h12v3h-12zM689 684h3v12h-3zM684 689h12v3h-12zM713 684h3v12h-3zM708 689h12v3h-12zM677 696h3v12h-3zM672 701h12v3h-12zM701 696h3v12h-3zM696 701h12v3h-12zM689 708h3v12h-3zM684 713h12v3h-12zM701 708h3v12h-3zM696 713h12v3h-12zM768 672h12v12h-12zM792 672h12v12h-12zM804 684h12v12h-12zM768 696h12v12h-12zM780 708h12v12h-12zM804 708h12v12h-12zM876 672h12v12h-12zM900 672h12v12h-12zM864 684h12v12h-12zM888 684h12v12h-12zM876 696h12v12h-12zM900 696h12v12h-12zM864 708h12v12h-12zM888 708h12v12h-12zM24 768h12v12h-12zM36 780h12v12h-12zM0 792h12v12h-12zM12 804h12v12h-12zM125 768h3v12h-3zM120 773h12v3h-12zM125 780h3v12h-3zM120 785h12v3h-12zM137 780h3v12h-3zM132 785h12v3h-12zM101 792h3v12h-3zM96 797h12v3h-12zM113 792h3v12h-3zM108 797h12v3h-12zM113 804h3v12h-3zM108 809h12v3h-12zM192 768h12v12h-12zM228 768h12v12h-12zM204 780h12v12h-12zM216 780h12v12h-12zM192 804h12v12h-12zM228 804h12v12h-12zM293 768h3v12h-3zM288 773h12v3h-12zM329 768h3v12h-3zM324 773h12v3h-12zM317 780h3v12h-3zM312 785h12v3h-12zM305 792h3v12h-3zM300 797h12v3h-12zM293 804h3v12h-3zM288 809h12v3h-12zM329 804h3v12h-3zM324 809h12v3h-12zM401 768h3v12h-3zM396 773h12v3h-12zM413 792h3v12h-3zM408 797h12v3h-12zM401 804h3v12h-3zM396 809h12v3h-12zM413 804h3v12h-3zM408 809h12v3h-12zM483 771h6v6h-6zM519 771h6v6h-6zM507 783h6v6h-6zM495 795h6v6h-6zM507 795h6v6h-6zM483 807h6v6h-6zM519 807h6v6h-6zM579 771h6v6h-6zM603 771h6v6h-6zM615 783h6v6h-6zM579 795h6v6h-6zM591 807h6v6h-6zM615 807h6v6h-6zM689 768h3v12h-3zM684 773h12v3h-12zM701 768h3v12h-3zM696 773h12v3h-12zM701 780h3v12h-3zM696 785h12v3h-12zM689 804h3v12h-3zM684 809h12v3h-12zM785 768h3v12h-3zM780 773h12v3h-12zM773 780h3v12h-3zM768 785h12v3h-12zM785 780h3v12h-3zM780 785h12v3h-12zM797 792h3v12h-3zM792 797h12v3h-12zM809 792h3v12h-3zM804 797h12v3h-12zM797 804h3v12h-3zM792 809h12v3h-12zM864 768h12v12h-12zM900 768h12v12h-12zM876 780h12v12h-12zM888 792h12v12h-12zM864 804h12v12h-12zM900 804h12v12h-12zM15 867h6v6h-6zM39 867h6v6h-6zM3 879h6v6h-6zM27 879h6v6h-6zM15 891h6v6h-6zM39 891h6v6h-6zM3 903h6v6h-6zM27 903h6v6h-6zM96 864h12v12h-12zM120 864h12v12h-12zM120 876h12v12h-12zM132 876h12v12h-12zM96 888h12v12h-12zM108 888h12v12h-12zM108 900h12v12h-12zM132 900h12v12h-12zM197 864h3v12h-3zM192 869h12v3h-12zM221 864h3v12h-3zM216 869h12v3h-12zM221 876h3v12h-3zM216 881h12v3h-12zM233 876h3v12h-3zM228 881h12v3h-12zM197 888h3v12h-3zM192 893h12v3h-12zM209 888h3v12h-3zM204 893h12v3h-12zM209 900h3v12h-3zM204 905h12v3h-12zM233 900h3v12h-3zM228 905h12v3h-12zM288 876h12v12h-12zM324 876h12v12h-12zM288 888h12v12h-12zM324 888h12v12h-12zM389 864h3v12h-3zM384 869h12v3h-12zM413 864h3v12h-3zM408 869h12v3h-12zM401 876h3v12h-3zM396 881h12v3h-12zM425 876h3v12h-3zM420 881h12v3h-12zM389 888h3v12h-3zM384 893h12v3h-12zM413 888h3v12h-3zM408 893h12v3h-12zM401 900h3v12h-3zM396 905h12v3h-12zM425 900h3v12h-3zM420 905h12v3h-12zM504 864h12v12h-12zM516 876h12v12h-12zM480 888h12v12h-12zM492 900h12v12h-12zM612 864h12v12h-12zM612 876h12v12h-12zM576 888h12v12h-12zM576 900h12v12h-12zM677 864h3v12h-3zM672 869h12v3h-12zM689 864h3v12h-3zM684 869h12v3h-12zM677 876h3v12h-3zM672 881h12v3h-12zM689 876h3v12h-3zM684 881h12v3h-12zM701 888h3v12h-3zM696 893h12v3h-12zM713 888h3v12h-3zM708 893h12v3h-12zM701 900h3v12h-3zM696 905h12v3h-12zM713 900h3v12h-3zM708 905h12v3h-12zM768 864h12v12h-12zM804 864h12v12h-12zM792 876h12v12h-12zM780 888h12v12h-12zM792 888h12v12h-12zM768 900h12v12h-12zM804 900h12v12h-12zM903 867h6v6h-6zM891 879h6v6h-6zM879 891h6v6h-6zM867 903h6v6h-6zM879 531h6v6h-6zM867 543h6v6h-6zM879 543h6v6h-6zM891 555h6v6h-6zM903 555h6v6h-6zM891 567h6v6h-6zM533 768h3v12h-3zM528 773h12v3h-12zM569 768h3v12h-3zM564 773h12v3h-12zM557 780h3v12h-3zM552 785h12v3h-12zM545 792h3v12h-3zM540 797h12v3h-12zM557 792h3v12h-3zM552 797h12v3h-12zM533 804h3v12h-3zM528 809h12v3h-12zM569 804h3v12h-3zM564 809h12v3h-12zM245 528h3v12h-3zM240 533h12v3h-12zM281 528h3v12h-3zM276 533h12v3h-12zM245 564h3v12h-3zM240 569h12v3h-12zM281 564h3v12h-3zM276 569h12v3h-12zM161 540h3v12h-3zM156 545h12v3h-12zM173 540h3v12h-3zM168 545h12v3h-12zM161 552h3v12h-3zM156 557h12v3h-12zM173 552h3v12h-3zM168 557h12v3h-12zM387 627h6v6h-6zM423 627h6v6h-6zM387 663h6v6h-6zM423 663h6v6h-6zM473 552h3v12h-3zM468 557h12v3h-12zM449 480h3v12h-3zM444 485h12v3h-12zM461 480h3v12h-3zM456 485h12v3h-12zM449 492h3v12h-3zM444 497h12v3h-12zM473 492h3v12h-3zM468 497h12v3h-12zM437 504h3v12h-3zM432 509h12v3h-12zM461 504h3v12h-3zM456 509h12v3h-12zM449 516h3v12h-3zM444 521h12v3h-12zM461 516h3v12h-3zM456 521h12v3h-12zM387 819h6v6h-6zM411 819h6v6h-6zM399 831h6v6h-6zM423 831h6v6h-6zM387 843h6v6h-6zM411 843h6v6h-6zM399 855h6v6h-6zM423 855h6v6h-6zM879 627h6v6h-6zM903 627h6v6h-6zM867 639h6v6h-6zM891 639h6v6h-6zM879 651h6v6h-6zM903 651h6v6h-6zM867 663h6v6h-6zM891 663h6v6h-6zM384 912h12v12h-12zM408 912h12v12h-12zM396 924h12v12h-12zM420 924h12v12h-12zM384 936h12v12h-12zM408 936h12v12h-12zM396 948h12v12h-12zM420 948h12v12h-12zM48 864h12v12h-12zM72 864h12v12h-12zM72 876h12v12h-12zM84 876h12v12h-12zM48 888h12v12h-12zM60 888h12v12h-12zM60 900h12v12h-12zM84 900h12v12h-12zM243 579h6v6h-6zM279 579h6v6h-6zM243 615h6v6h-6zM279 615h6v6h-6zM624 816h12v12h-12zM648 816h12v12h-12zM660 828h12v12h-12zM624 840h12v12h-12zM636 852h12v12h-12zM660 852h12v12h-12zM60 912h12v12h-12zM84 912h12v12h-12zM48 924h12v12h-12zM72 924h12v12h-12zM60 936h12v12h-12zM84 936h12v12h-12zM48 948h12v12h-12zM72 948h12v12h-12zM71 690h3v12h-3zM66 695h12v3h-12zM305 624h3v12h-3zM300 629h12v3h-12zM317 648h3v12h-3zM312 653h12v3h-12zM305 660h3v12h-3zM300 665h12v3h-12zM317 660h3v12h-3zM312 665h12v3h-12zM636 720h12v12h-12zM648 720h12v12h-12zM648 732h12v12h-12zM636 756h12v12h-12zM113 912h3v12h-3zM108 917h12v3h-12zM137 912h3v12h-3zM132 917h12v3h-12zM101 924h3v12h-3zM96 929h12v3h-12zM125 924h3v12h-3zM120 929h12v3h-12zM113 936h3v12h-3zM108 941h12v3h-12zM137 936h3v12h-3zM132 941h12v3h-12zM101 948h3v12h-3zM96 953h12v3h-12zM125 948h3v12h-3zM120 953h12v3h-12zM48 720h12v12h-12zM60 720h12v12h-12zM84 720h12v12h-12zM48 732h12v12h-12zM72 732h12v12h-12zM60 744h12v12h-12zM48 756h12v12h-12zM672 912h12v12h-12zM684 912h12v12h-12zM672 924h12v12h-12zM684 924h12v12h-12zM696 936h12v12h-12zM708 936h12v12h-12zM696 948h12v12h-12zM708 948h12v12h-12zM300 720h12v12h-12zM312 744h12v12h-12zM300 756h12v12h-12zM312 756h12v12h-12zM857 816h3v12h-3zM852 821h12v3h-12zM845 828h3v12h-3zM840 833h12v3h-12zM833 840h3v12h-3zM828 845h12v3h-12zM821 852h3v12h-3zM816 857h12v3h-12zM833 624h3v12h-3zM828 629h12v3h-12zM857 624h3v12h-3zM852 629h12v3h-12zM821 636h3v12h-3zM816 641h12v3h-12zM845 636h3v12h-3zM840 641h12v3h-12zM833 648h3v12h-3zM828 653h12v3h-12zM857 648h3v12h-3zM852 653h12v3h-12zM821 660h3v12h-3zM816 665h12v3h-12zM845 660h3v12h-3zM840 665h12v3h-12zM876 720h12v12h-12zM900 720h12v12h-12zM864 732h12v12h-12zM888 732h12v12h-12zM876 744h12v12h-12zM900 744h12v12h-12zM864 756h12v12h-12zM888 756h12v12h-12zM785 540h3v12h-3zM780 545h12v3h-12zM797 540h3v12h-3zM792 545h12v3h-12zM785 552h3v12h-3zM780 557h12v3h-12zM797 552h3v12h-3zM792 557h12v3h-12zM915 723h6v6h-6zM951 723h6v6h-6zM927 735h6v6h-6zM939 747h6v6h-6zM915 759h6v6h-6zM951 759h6v6h-6zM461 912h3v12h-3zM456 917h12v3h-12zM473 924h3v12h-3zM468 929h12v3h-12zM437 936h3v12h-3zM432 941h12v3h-12zM449 948h3v12h-3zM444 953h12v3h-12zM929 480h3v12h-3zM924 485h12v3h-12zM953 480h3v12h-3zM948 485h12v3h-12zM941 492h3v12h-3zM936 497h12v3h-12zM941 504h3v12h-3zM936 509h12v3h-12zM929 516h3v12h-3zM924 521h12v3h-12zM953 516h3v12h-3zM948 521h12v3h-12zM833 672h3v12h-3zM828 677h12v3h-12zM857 672h3v12h-3zM852 677h12v3h-12zM821 684h3v12h-3zM816 689h12v3h-12zM845 684h3v12h-3zM840 689h12v3h-12zM833 696h3v12h-3zM828 701h12v3h-12zM857 696h3v12h-3zM852 701h12v3h-12zM821 708h3v12h-3zM816 713h12v3h-12zM845 708h3v12h-3zM840 713h12v3h-12zM503 642h3v12h-3zM498 647h12v3h-12zM425 600h3v12h-3zM420 605h12v3h-12zM401 528h3v12h-3zM396 533h12v3h-12zM413 528h3v12h-3zM408 533h12v3h-12zM401 540h3v12h-3zM396 545h12v3h-12zM425 540h3v12h-3zM420 545h12v3h-12zM389 552h3v12h-3zM384 557h12v3h-12zM413 552h3v12h-3zM408 557h12v3h-12zM401 564h3v12h-3zM396 569h12v3h-12zM413 564h3v12h-3zM408 569h12v3h-12zM399 723h6v6h-6zM411 747h6v6h-6zM399 759h6v6h-6zM411 759h6v6h-6zM149 912h3v12h-3zM144 917h12v3h-12zM173 912h3v12h-3zM168 917h12v3h-12zM173 924h3v12h-3zM168 929h12v3h-12zM185 924h3v12h-3zM180 929h12v3h-12zM149 936h3v12h-3zM144 941h12v3h-12zM161 936h3v12h-3zM156 941h12v3h-12zM161 948h3v12h-3zM156 953h12v3h-12zM185 948h3v12h-3zM180 953h12v3h-12zM855 915h6v6h-6zM843 927h6v6h-6zM831 939h6v6h-6zM819 951h6v6h-6zM144 768h12v12h-12zM180 768h12v12h-12zM156 780h12v12h-12zM168 780h12v12h-12zM144 804h12v12h-12zM180 804h12v12h-12zM348 576h12v12h-12zM360 600h12v12h-12zM348 612h12v12h-12zM360 612h12v12h-12z"/><path fill="#fff" d="M96 480h96v96h-96zM96 576h96v96h-96zM192 672h96v96h-96zM288 768h96v96h-96zM288 672h96v96h-96zM288 576h96v96h-96zM288 480h96v96h-96zM288 864h96v96h-96zM192 864h96v96h-96zM96 864h96v96h-96zM96 768h96v96h-96zM96 672h96v96h-96zM96 384h96v96h-96zM96 288h96v96h-96zM192 384h96v96h-96zM0 576h96v96h-96zM768 480h96v96h-96zM768 576h96v96h-96zM672 672h96v96h-96zM576 768h96v96h-96zM576 672h96v96h-96zM576 576h96v96h-96zM576 480h96v96h-96zM576 864h96v96h-96zM672 864h96v96h-96zM768 864h96v96h-96zM768 768h96v96h-96zM768 672h96v96h-96zM768 384h96v96h-96zM768 288h96v96h-96zM672 384h96v96h-96zM864 576h96v96h-96z"/></svg>