<svg xmlns="http://www.w3.org/2000/svg" width="960" height="960" viewBox="0 0 960 960" shape-rendering="crispEdges"><path fill="#000" d="M0 0h960v960h-960z"/><path fill="#bcf1f1" d="M0 0h960v320h-960z"/><path fill="#de2b2e" d="M6 6h12v12h-12zM78 6h12v12h-12zM6 54h12v12h-12zM78 54h12v12h-12zM102 6h12v12h-12zM174 6h12v12h-12zM126 30h12v12h-12zM150 30h12v12h-12zM102 78h12v12h-12zM174 78h12v12h-12zM270 6h12v12h-12zM270 30h12v12h-12zM198 54h12v12h-12zM198 78h12v12h-12zM342 6h12v12h-12zM366 6h12v12h-12zM294 78h12v12h-12zM318 78h12v12h-12zM390 6h12v12h-12zM414 6h12v12h-12zM390 30h12v12h-12zM414 30h12v12h-12zM438 54h12v12h-12zM462 54h12v12h-12zM438 78h12v12h-12zM462 78h12v12h-12zM582 30h12v12h-12zM654 30h12v12h-12zM582 54h12v12h-12zM654 54h12v12h-12zM798 6h12v12h-12zM846 6h12v12h-12zM822 30h12v12h-12zM822 54h12v12h-12zM798 78h12v12h-12zM846 78h12v12h-12zM30 102h12v12h-12zM54 102h12v12h-12zM6 126h12v12h-12zM54 126h12v12h-12zM30 150h12v12h-12zM78 150h12v12h-12zM30 174h12v12h-12zM54 174h12v12h-12zM102 102h12v12h-12zM174 102h12v12h-12zM126 126h12v12h-12zM150 126h12v12h-12zM102 174h12v12h-12zM174 174h12v12h-12zM270 102h12v12h-12zM270 126h12v12h-12zM198 150h12v12h-12zM198 174h12v12h-12zM294 102h12v12h-12zM342 102h12v12h-12zM342 126h12v12h-12zM366 126h12v12h-12zM294 150h12v12h-12zM318 150h12v12h-12zM318 174h12v12h-12zM366 174h12v12h-12zM414 126h12v12h-12zM438 126h12v12h-12zM414 150h12v12h-12zM438 150h12v12h-12zM6 222h12v12h-12zM78 222h12v12h-12zM6 246h12v12h-12zM30 246h12v12h-12zM150 198h12v12h-12zM150 222h12v12h-12zM174 222h12v12h-12zM102 246h12v12h-12zM126 246h12v12h-12zM126 270h12v12h-12zM198 198h12v12h-12zM270 198h12v12h-12zM222 222h12v12h-12zM246 222h12v12h-12zM198 270h12v12h-12zM270 270h12v12h-12zM342 198h12v12h-12zM294 222h12v12h-12zM318 222h12v12h-12zM366 222h12v12h-12zM294 246h12v12h-12zM342 246h12v12h-12zM366 246h12v12h-12zM318 270h12v12h-12zM462 342h12v12h-12zM414 198h12v12h-12zM438 198h12v12h-12zM414 222h12v12h-12zM462 222h12v12h-12zM390 246h12v12h-12zM438 246h12v12h-12zM414 270h12v12h-12zM438 270h12v12h-12zM582 198h12v12h-12zM654 198h12v12h-12zM630 222h12v12h-12zM606 246h12v12h-12zM630 246h12v12h-12zM582 270h12v12h-12zM654 270h12v12h-12zM774 198h12v12h-12zM798 222h12v12h-12zM774 246h12v12h-12zM822 246h12v12h-12zM774 270h12v12h-12zM798 270h12v12h-12zM846 270h12v12h-12zM30 294h12v12h-12zM6 318h12v12h-12zM54 318h12v12h-12zM30 342h12v12h-12zM78 342h12v12h-12zM54 366h12v12h-12zM102 294h12v12h-12zM126 294h12v12h-12zM174 294h12v12h-12zM102 318h12v12h-12zM150 318h12v12h-12zM126 342h12v12h-12zM102 366h12v12h-12zM198 294h12v12h-12zM222 318h12v12h-12zM198 342h12v12h-12zM246 342h12v12h-12zM198 366h12v12h-12zM222 366h12v12h-12zM270 366h12v12h-12zM294 294h12v12h-12zM318 318h12v12h-12zM342 342h12v12h-12zM366 366h12v12h-12zM390 318h12v12h-12zM462 318h12v12h-12zM390 342h12v12h-12zM462 342h12v12h-12zM6 390h12v12h-12zM78 390h12v12h-12zM54 414h12v12h-12zM30 438h12v12h-12zM54 438h12v12h-12zM6 462h12v12h-12zM78 462h12v12h-12zM174 534h12v12h-12zM126 390h12v12h-12zM150 390h12v12h-12zM126 414h12v12h-12zM174 414h12v12h-12zM102 438h12v12h-12zM150 438h12v12h-12zM126 462h12v12h-12zM150 462h12v12h-12zM198 414h12v12h-12zM270 414h12v12h-12zM198 438h12v12h-12zM222 438h12v12h-12zM294 390h12v12h-12zM366 390h12v12h-12zM318 414h12v12h-12zM318 438h12v12h-12zM342 438h12v12h-12zM294 462h12v12h-12zM366 462h12v12h-12zM390 414h12v12h-12zM462 414h12v12h-12zM390 438h12v12h-12zM414 438h12v12h-12zM606 390h12v12h-12zM630 438h12v12h-12zM606 462h12v12h-12zM630 462h12v12h-12zM798 390h12v12h-12zM846 390h12v12h-12zM798 462h12v12h-12zM846 462h12v12h-12zM510 486h12v12h-12zM558 486h12v12h-12zM486 510h12v12h-12zM534 510h12v12h-12zM510 534h12v12h-12zM558 534h12v12h-12zM486 558h12v12h-12zM534 558h12v12h-12zM630 486h12v12h-12zM606 510h12v12h-12zM654 510h12v12h-12zM582 534h12v12h-12zM630 534h12v12h-12zM606 558h12v12h-12zM678 486h12v12h-12zM750 486h12v12h-12zM702 510h12v12h-12zM702 534h12v12h-12zM726 534h12v12h-12zM678 558h12v12h-12zM750 558h12v12h-12zM774 510h12v12h-12zM846 510h12v12h-12zM774 534h12v12h-12zM798 534h12v12h-12zM894 486h12v12h-12zM918 534h12v12h-12zM894 558h12v12h-12zM918 558h12v12h-12zM54 582h12v12h-12zM30 606h12v12h-12zM78 606h12v12h-12zM6 630h12v12h-12zM54 630h12v12h-12zM30 654h12v12h-12zM198 582h12v12h-12zM222 606h12v12h-12zM246 630h12v12h-12zM270 654h12v12h-12zM438 582h12v12h-12zM390 606h12v12h-12zM414 606h12v12h-12zM462 606h12v12h-12zM390 630h12v12h-12zM438 630h12v12h-12zM462 630h12v12h-12zM414 654h12v12h-12zM486 582h12v12h-12zM510 606h12v12h-12zM534 630h12v12h-12zM558 654h12v12h-12zM582 582h12v12h-12zM606 606h12v12h-12zM630 630h12v12h-12zM654 654h12v12h-12zM678 582h12v12h-12zM750 582h12v12h-12zM702 630h12v12h-12zM726 630h12v12h-12zM678 654h12v12h-12zM750 654h12v12h-12zM774 582h12v12h-12zM846 582h12v12h-12zM774 654h12v12h-12zM846 654h12v12h-12zM918 582h12v12h-12zM870 606h12v12h-12zM894 606h12v12h-12zM942 606h12v12h-12zM870 630h12v12h-12zM918 630h12v12h-12zM942 630h12v12h-12zM894 654h12v12h-12zM486 678h12v12h-12zM558 678h12v12h-12zM510 702h12v12h-12zM534 702h12v12h-12zM486 750h12v12h-12zM558 750h12v12h-12zM654 678h12v12h-12zM630 702h12v12h-12zM606 726h12v12h-12zM582 750h12v12h-12zM678 678h12v12h-12zM726 678h12v12h-12zM750 678h12v12h-12zM702 702h12v12h-12zM750 702h12v12h-12zM726 726h12v12h-12zM750 750h12v12h-12zM822 678h12v12h-12zM846 678h12v12h-12zM774 750h12v12h-12zM798 750h12v12h-12zM894 678h12v12h-12zM942 678h12v12h-12zM870 702h12v12h-12zM894 702h12v12h-12zM918 726h12v12h-12zM942 726h12v12h-12zM870 750h12v12h-12zM918 750h12v12h-12zM30 774h12v12h-12zM54 774h12v12h-12zM30 846h12v12h-12zM54 846h12v12h-12zM270 774h12v12h-12zM246 798h12v12h-12zM222 822h12v12h-12zM270 822h12v12h-12zM198 846h12v12h-12zM246 846h12v12h-12zM270 846h12v12h-12zM438 774h12v12h-12zM390 798h12v12h-12zM414 798h12v12h-12zM462 798h12v12h-12zM390 822h12v12h-12zM438 822h12v12h-12zM462 822h12v12h-12zM414 846h12v12h-12zM510 774h12v12h-12zM486 798h12v12h-12zM558 822h12v12h-12zM534 846h12v12h-12zM630 774h12v12h-12zM654 774h12v12h-12zM630 798h12v12h-12zM654 798h12v12h-12zM582 822h12v12h-12zM606 822h12v12h-12zM582 846h12v12h-12zM606 846h12v12h-12zM678 774h12v12h-12zM750 774h12v12h-12zM726 798h12v12h-12zM702 822h12v12h-12zM678 846h12v12h-12zM750 846h12v12h-12zM810 810h12v12h-12zM870 774h12v12h-12zM942 774h12v12h-12zM870 822h12v12h-12zM942 822h12v12h-12zM486 870h12v12h-12zM486 894h12v12h-12zM558 918h12v12h-12zM558 942h12v12h-12zM630 870h12v12h-12zM654 894h12v12h-12zM582 918h12v12h-12zM606 942h12v12h-12zM678 870h12v12h-12zM726 870h12v12h-12zM726 894h12v12h-12zM750 894h12v12h-12zM678 918h12v12h-12zM702 918h12v12h-12zM702 942h12v12h-12zM750 942h12v12h-12zM774 870h12v12h-12zM846 870h12v12h-12zM822 894h12v12h-12zM798 918h12v12h-12zM774 942h12v12h-12zM846 942h12v12h-12zM870 870h12v12h-12zM942 870h12v12h-12zM894 894h12v12h-12zM918 918h12v12h-12zM870 942h12v12h-12zM942 942h12v12h-12zM294 510h12v12h-12zM366 510h12v12h-12zM294 534h12v12h-12zM318 534h12v12h-12zM270 630h12v12h-12zM222 486h12v12h-12zM246 486h12v12h-12zM222 510h12v12h-12zM270 510h12v12h-12zM198 534h12v12h-12zM246 534h12v12h-12zM222 558h12v12h-12zM246 558h12v12h-12zM894 102h12v12h-12zM942 102h12v12h-12zM918 126h12v12h-12zM918 150h12v12h-12zM894 174h12v12h-12zM942 174h12v12h-12zM582 126h12v12h-12zM654 126h12v12h-12zM582 150h12v12h-12zM654 150h12v12h-12zM342 678h12v12h-12zM294 702h12v12h-12zM318 702h12v12h-12zM366 702h12v12h-12zM294 726h12v12h-12zM342 726h12v12h-12zM366 726h12v12h-12zM318 750h12v12h-12zM486 30h12v12h-12zM558 30h12v12h-12zM486 54h12v12h-12zM558 54h12v12h-12zM366 870h12v12h-12zM342 894h12v12h-12zM318 918h12v12h-12zM366 918h12v12h-12zM294 942h12v12h-12zM342 942h12v12h-12zM366 942h12v12h-12z"/><path fill="#fff" d="M72 264h24v24h-24zM96 240h24v24h-24zM120 264h24v24h-24zM144 288h24v24h-24zM168 312h24v24h-24zM192 336h24v24h-24zM168 336h24v24h-24zM144 336h24v24h-24zM120 336h24v24h-24zM96 336h24v24h-24zM72 336h24v24h-24zM48 336h24v24h-24zM24 336h24v24h-24zM0 336h24v24h-24zM0 312h24v24h-24zM0 288h24v24h-24zM0 264h24v24h-24zM0 240h24v24h-24zM0 216h24v24h-24zM0 192h24v24h-24zM0 168h24v24h-24zM0 144h24v24h-24zM0 120h24v24h-24zM0 96h24v24h-24zM0 72h24v24h-24zM0 48h24v24h-24zM0 24h24v24h-24zM24 264h24v24h-24zM48 240h24v24h-24zM72 216h24v24h-24zM96 192h24v24h-24zM120 168h24v24h-24zM144 144h24v24h-24zM168 120h24v24h-24zM192 96h24v24h-24zM216 72h24v24h-24zM240 48h24v24h-24zM192 120h24v24h-24zM216 120h24v24h-24zM240 120h24v24h-24zM264 120h24v24h-24zM288 120h24v24h-24zM312 120h24v24h-24zM336 120h24v24h-24zM360 120h24v24h-24zM384 120h24v24h-24zM408 120h24v24h-24zM432 120h24v24h-24zM432 96h24v24h-24zM432 72h24v24h-24zM408 96h24v24h-24zM360 144h24v24h-24zM336 168h24v24h-24zM312 192h24v24h-24zM312 168h24v24h-24zM312 144h24v24h-24zM288 144h24v24h-24zM264 168h24v24h-24zM288 192h24v24h-24zM312 216h24v24h-24zM336 240h24v24h-24zM360 264h24v24h-24zM384 288h24v24h-24zM336 264h24v24h-24zM312 264h24v24h-24zM288 264h24v24h-24zM264 264h24v24h-24zM240 264h24v24h-24zM216 264h24v24h-24zM192 264h24v24h-24zM168 264h24v24h-24zM144 264h24v24h-24zM96 264h24v24h-24zM72 288h24v24h-24zM72 312h24v24h-24zM72 360h24v24h-24zM72 384h24v24h-24zM72 240h24v24h-24zM72 192h24v24h-24zM72 168h24v24h-24zM72 144h24v24h-24zM72 120h24v24h-24zM48 120h24v24h-24zM24 120h24v24h-24zM96 120h24v24h-24zM120 120h24v24h-24zM144 120h24v24h-24zM240 144h24v24h-24zM240 168h24v24h-24zM216 192h24v24h-24zM240 216h24v24h-24zM264 240h24v24h-24zM312 288h24v24h-24zM336 312h24v24h-24zM360 336h24v24h-24zM384 360h24v24h-24zM192 168h24v24h-24zM168 144h24v24h-24zM120 96h24v24h-24zM96 72h24v24h-24zM120 72h24v24h-24zM144 72h24v24h-24zM168 72h24v24h-24zM192 72h24v24h-24zM216 48h24v24h-24zM216 24h24v24h-24zM216 96h24v24h-24zM216 144h24v24h-24zM216 168h24v24h-24zM216 216h24v24h-24zM216 240h24v24h-24zM216 288h24v24h-24zM216 312h24v24h-24zM168 360h24v24h-24zM168 288h24v24h-24zM168 384h24v24h-24zM168 408h24v24h-24zM168 432h24v24h-24zM168 456h24v24h-24zM192 456h24v24h-24zM216 456h24v24h-24zM240 456h24v24h-24zM264 456h24v24h-24zM240 432h24v24h-24zM216 408h24v24h-24zM192 384h24v24h-24zM120 312h24v24h-24zM96 288h24v24h-24zM120 288h24v24h-24zM192 288h24v24h-24zM240 288h24v24h-24zM240 240h24v24h-24zM240 192h24v24h-24zM264 96h24v24h-24zM288 72h24v24h-24zM288 48h24v24h-24zM288 24h24v24h-24zM264 24h24v24h-24zM240 24h24v24h-24zM192 24h24v24h-24zM168 24h24v24h-24zM144 48h24v24h-24zM96 96h24v24h-24zM72 672h24v24h-24zM96 696h24v24h-24zM120 672h24v24h-24zM144 648h24v24h-24zM168 624h24v24h-24zM192 600h24v24h-24zM168 600h24v24h-24zM144 600h24v24h-24zM120 600h24v24h-24zM96 600h24v24h-24zM72 600h24v24h-24zM48 600h24v24h-24zM24 600h24v24h-24zM0 600h24v24h-24zM0 624h24v24h-24zM0 648h24v24h-24zM0 672h24v24h-24zM0 696h24v24h-24zM0 720h24v24h-24zM0 744h24v24h-24zM0 768h24v24h-24zM0 792h24v24h-24zM0 816h24v24h-24zM0 840h24v24h-24zM0 864h24v24h-24zM0 888h24v24h-24zM0 912h24v24h-24zM24 672h24v24h-24zM48 696h24v24h-24zM72 720h24v24h-24zM96 744h24v24h-24zM120 768h24v24h-24zM144 792h24v24h-24zM168 816h24v24h-24zM192 840h24v24h-24zM216 864h24v24h-24zM240 888h24v24h-24zM192 816h24v24h-24zM216 816h24v24h-24zM240 816h24v24h-24zM264 816h24v24h-24zM288 816h24v24h-24zM312 816h24v24h-24zM336 816h24v24h-24zM360 816h24v24h-24zM384 816h24v24h-24zM408 816h24v24h-24zM432 816h24v24h-24zM432 840h24v24h-24zM432 864h24v24h-24zM408 840h24v24h-24zM360 792h24v24h-24zM336 768h24v24h-24zM312 744h24v24h-24zM312 768h24v24h-24zM312 792h24v24h-24zM288 792h24v24h-24zM264 768h24v24h-24zM288 744h24v24h-24zM312 720h24v24h-24zM336 696h24v24h-24zM360 672h24v24h-24zM384 648h24v24h-24zM336 672h24v24h-24zM312 672h24v24h-24zM288 672h24v24h-24zM264 672h24v24h-24zM240 672h24v24h-24zM216 672h24v24h-24zM192 672h24v24h-24zM168 672h24v24h-24zM144 672h24v24h-24zM96 672h24v24h-24zM72 648h24v24h-24zM72 624h24v24h-24zM72 576h24v24h-24zM72 552h24v24h-24zM72 696h24v24h-24zM72 744h24v24h-24zM72 768h24v24h-24zM72 792h24v24h-24zM72 816h24v24h-24zM48 816h24v24h-24zM24 816h24v24h-24zM96 816h24v24h-24zM120 816h24v24h-24zM144 816h24v24h-24zM240 792h24v24h-24zM240 768h24v24h-24zM216 744h24v24h-24zM240 720h24v24h-24zM264 696h24v24h-24zM312 648h24v24h-24zM336 624h24v24h-24zM360 600h24v24h-24zM384 576h24v24h-24zM192 768h24v24h-24zM168 792h24v24h-24zM120 840h24v24h-24zM96 864h24v24h-24zM120 864h24v24h-24zM144 864h24v24h-24zM168 864h24v24h-24zM192 864h24v24h-24zM216 888h24v24h-24zM216 912h24v24h-24zM216 840h24v24h-24zM216 792h24v24h-24zM216 768h24v24h-24zM216 720h24v24h-24zM216 696h24v24h-24zM216 648h24v24h-24zM216 624h24v24h-24zM168 576h24v24h-24zM168 648h24v24h-24zM168 552h24v24h-24zM168 528h24v24h-24zM168 504h24v24h-24zM168 480h24v24h-24zM192 480h24v24h-24zM216 480h24v24h-24zM240 480h24v24h-24zM264 480h24v24h-24zM240 504h24v24h-24zM216 528h24v24h-24zM192 552h24v24h-24zM120 624h24v24h-24zM96 648h24v24h-24zM120 648h24v24h-24zM192 648h24v24h-24zM240 648h24v24h-24zM240 696h24v24h-24zM240 744h24v24h-24zM264 840h24v24h-24zM288 864h24v24h-24zM288 888h24v24h-24zM288 912h24v24h-24zM264 912h24v24h-24zM240 912h24v24h-24zM192 912h24v24h-24zM168 912h24v24h-24zM144 888h24v24h-24zM96 840h24v24h-24zM864 264h24v24h-24zM840 240h24v24h-24zM816 264h24v24h-24zM792 288h24v24h-24zM768 312h24v24h-24zM744 336h24v24h-24zM768 336h24v24h-24zM792 336h24v24h-24zM816 336h24v24h-24zM840 336h24v24h-24zM864 336h24v24h-24zM888 336h24v24h-24zM912 336h24v24h-24zM936 336h24v24h-24zM936 312h24v24h-24zM936 288h24v24h-24zM936 264h24v24h-24zM936 240h24v24h-24zM936 216h24v24h-24zM936 192h24v24h-24zM936 168h24v24h-24zM936 144h24v24h-24zM936 120h24v24h-24zM936 96h24v24h-24zM936 72h24v24h-24zM936 48h24v24h-24zM936 24h24v24h-24zM912 264h24v24h-24zM888 240h24v24h-24zM864 216h24v24h-24zM840 192h24v24h-24zM816 168h24v24h-24zM792 144h24v24h-24zM768 120h24v24h-24zM744 96h24v24h-24zM720 72h24v24h-24zM696 48h24v24h-24zM744 120h24v24h-24zM720 120h24v24h-24zM696 120h24v24h-24zM672 120h24v24h-24zM648 120h24v24h-24zM624 120h24v24h-24zM600 120h24v24h-24zM576 120h24v24h-24zM552 120h24v24h-24zM528 120h24v24h-24zM504 120h24v24h-24zM504 96h24v24h-24zM504 72h24v24h-24zM528 96h24v24h-24zM576 144h24v24h-24zM600 168h24v24h-24zM624 192h24v24h-24zM624 168h24v24h-24zM624 144h24v24h-24zM648 144h24v24h-24zM672 168h24v24h-24zM648 192h24v24h-24zM624 216h24v24h-24zM600 240h24v24h-24zM576 264h24v24h-24zM552 288h24v24h-24zM600 264h24v24h-24zM624 264h24v24h-24zM648 264h24v24h-24zM672 264h24v24h-24zM696 264h24v24h-24zM720 264h24v24h-24zM744 264h24v24h-24zM768 264h24v24h-24zM792 264h24v24h-24zM840 264h24v24h-24zM864 288h24v24h-24zM864 312h24v24h-24zM864 360h24v24h-24zM864 384h24v24h-24zM864 240h24v24h-24zM864 192h24v24h-24zM864 168h24v24h-24zM864 144h24v24h-24zM864 120h24v24h-24zM888 120h24v24h-24zM912 120h24v24h-24zM840 120h24v24h-24zM816 120h24v24h-24zM792 120h24v24h-24zM696 144h24v24h-24zM696 168h24v24h-24zM720 192h24v24h-24zM696 216h24v24h-24zM672 240h24v24h-24zM624 288h24v24h-24zM600 312h24v24h-24zM576 336h24v24h-24zM552 360h24v24h-24zM744 168h24v24h-24zM768 144h24v24h-24zM816 96h24v24h-24zM840 72h24v24h-24zM816 72h24v24h-24zM792 72h24v24h-24zM768 72h24v24h-24zM744 72h24v24h-24zM720 48h24v24h-24zM720 24h24v24h-24zM720 96h24v24h-24zM720 144h24v24h-24zM720 168h24v24h-24zM720 216h24v24h-24zM720 240h24v24h-24zM720 288h24v24h-24zM720 312h24v24h-24zM768 360h24v24h-24zM768 288h24v24h-24zM768 384h24v24h-24zM768 408h24v24h-24zM768 432h24v24h-24zM768 456h24v24h-24zM744 456h24v24h-24zM720 456h24v24h-24zM696 456h24v24h-24zM672 456h24v24h-24zM696 432h24v24h-24zM720 408h24v24h-24zM744 384h24v24h-24zM816 312h24v24h-24zM840 288h24v24h-24zM816 288h24v24h-24zM744 288h24v24h-24zM696 288h24v24h-24zM696 240h24v24h-24zM696 192h24v24h-24zM672 96h24v24h-24zM648 72h24v24h-24zM648 48h24v24h-24zM648 24h24v24h-24zM672 24h24v24h-24zM696 24h24v24h-24zM744 24h24v24h-24zM768 24h24v24h-24zM792 48h24v24h-24zM840 96h24v24h-24zM864 672h24v24h-24zM840 696h24v24h-24zM816 672h24v24h-24zM792 648h24v24h-24zM768 624h24v24h-24zM744 600h24v24h-24zM768 600h24v24h-24zM792 600h24v24h-24zM816 600h24v24h-24zM840 600h24v24h-24zM864 600h24v24h-24zM888 600h24v24h-24zM912 600h24v24h-24zM936 600h24v24h-24zM936 624h24v24h-24zM936 648h24v24h-24zM936 672h24v24h-24zM936 696h24v24h-24zM936 720h24v24h-24zM936 744h24v24h-24zM936 768h24v24h-24zM936 792h24v24h-24zM936 816h24v24h-24zM936 840h24v24h-24zM936 864h24v24h-24zM936 888h24v24h-24zM936 912h24v24h-24zM912 672h24v24h-24zM888 696h24v24h-24zM864 720h24v24h-24zM840 744h24v24h-24zM816 768h24v24h-24zM792 792h24v24h-24zM768 816h24v24h-24zM744 840h24v24h-24zM720 864h24v24h-24zM696 888h24v24h-24zM744 816h24v24h-24zM720 816h24v24h-24zM696 816h24v24h-24zM672 816h24v24h-24zM648 816h24v24h-24zM624 816h24v24h-24zM600 816h24v24h-24zM576 816h24v24h-24zM552 816h24v24h-24zM528 816h24v24h-24zM504 816h24v24h-24zM504 840h24v24h-24zM504 864h24v24h-24zM528 840h24v24h-24zM576 792h24v24h-24zM600 768h24v24h-24zM624 744h24v24h-24zM624 768h24v24h-24zM624 792h24v24h-24zM648 792h24v24h-24zM672 768h24v24h-24zM648 744h24v24h-24zM624 720h24v24h-24zM600 696h24v24h-24zM576 672h24v24h-24zM552 648h24v24h-24zM600 672h24v24h-24zM624 672h24v24h-24zM648 672h24v24h-24zM672 672h24v24h-24zM696 672h24v24h-24zM720 672h24v24h-24zM744 672h24v24h-24zM768 672h24v24h-24zM792 672h24v24h-24zM840 672h24v24h-24zM864 648h24v24h-24zM864 624h24v24h-24zM864 576h24v24h-24zM864 552h24v24h-24zM864 696h24v24h-24zM864 744h24v24h-24zM864 768h24v24h-24zM864 792h24v24h-24zM864 816h24v24h-24zM888 816h24v24h-24zM912 816h24v24h-24zM840 816h24v24h-24zM816 816h24v24h-24zM792 816h24v24h-24zM696 792h24v24h-24zM696 768h24v24h-24zM720 744h24v24h-24zM696 720h24v24h-24zM672 696h24v24h-24zM624 648h24v24h-24zM600 624h24v24h-24zM576 600h24v24h-24zM552 576h24v24h-24zM744 768h24v24h-24zM768 792h24v24h-24zM816 840h24v24h-24zM840 864h24v24h-24zM816 864h24v24h-24zM792 864h24v24h-24zM768 864h24v24h-24zM744 864h24v24h-24zM720 888h24v24h-24zM720 912h24v24h-24zM720 840h24v24h-24zM720 792h24v24h-24zM720 768h24v24h-24zM720 720h24v24h-24zM720 696h24v24h-24zM720 648h24v24h-24zM720 624h24v24h-24zM768 576h24v24h-24zM768 648h24v24h-24zM768 552h24v24h-24zM768 528h24v24h-24zM768 504h24v24h-24zM768 480h24v24h-24zM744 480h24v24h-24zM720 480h24v24h-24zM696 480h24v24h-24zM672 480h24v24h-24zM696 504h24v24h-24zM720 528h24v24h-24zM744 552h24v24h-24zM816 624h24v24h-24zM840 648h24v24h-24zM816 648h24v24h-24zM744 648h24v24h-24zM696 648h24v24h-24zM696 696h24v24h-24zM696 744h24v24h-24zM672 840h24v24h-24zM648 864h24v24h-24zM648 888h24v24h-24zM648 912h24v24h-24zM672 912h24v24h-24zM696 912h24v24h-24zM744 912h24v24h-24zM768 912h24v24h-24zM792 888h24v24h-24zM840 840h24v24h-24z"/></svg>