<svg xmlns="http://www.w3.org/2000/svg" width="960" height="960" viewBox="0 0 960 960" shape-rendering="crispEdges"><path fill="#000" d="M0 0h960v960h-960z"/><path fill="#4f4f4f" d="M0 0h24v24h-24zM0 48h24v24h-24zM0 96h24v24h-24zM0 144h24v24h-24zM0 192h24v24h-24zM0 240h24v24h-24zM0 288h24v24h-24zM0 336h24v24h-24zM0 384h24v24h-24zM0 432h24v24h-24zM0 480h24v24h-24zM0 528h24v24h-24zM0 576h24v24h-24zM0 624h24v24h-24zM0 672h24v24h-24zM0 720h24v24h-24zM0 768h24v24h-24zM0 816h24v24h-24zM0 864h24v24h-24zM0 912h24v24h-24zM48 0h24v24h-24zM48 48h24v24h-24zM48 96h24v24h-24zM48 144h24v24h-24zM48 192h24v24h-24zM48 240h24v24h-24zM48 288h24v24h-24zM48 336h24v24h-24zM48 384h24v24h-24zM48 432h24v24h-24zM48 480h24v24h-24zM48 528h24v24h-24zM48 576h24v24h-24zM48 624h24v24h-24zM48 672h24v24h-24zM48 720h24v24h-24zM48 768h24v24h-24zM48 816h24v24h-24zM48 864h24v24h-24zM48 912h24v24h-24zM96 0h24v24h-24zM96 48h24v24h-24zM96 96h24v24h-24zM96 144h24v24h-24zM96 192h24v24h-24zM96 240h24v24h-24zM96 288h24v24h-24zM96 336h24v24h-24zM96 384h24v24h-24zM96 432h24v24h-24zM96 480h24v24h-24zM96 528h24v24h-24zM96 576h24v24h-24zM96 624h24v24h-24zM96 672h24v24h-24zM96 720h24v24h-24zM96 768h24v24h-24zM96 816h24v24h-24zM96 864h24v24h-24zM96 912h24v24h-24zM144 0h24v24h-24zM144 48h24v24h-24zM144 96h24v24h-24zM144 144h24v24h-24zM144 192h24v24h-24zM144 240h24v24h-24zM144 288h24v24h-24zM144 336h24v24h-24zM144 384h24v24h-24zM144 432h24v24h-24zM144 480h24v24h-24zM144 528h24v24h-24zM144 576h24v24h-24zM144 624h24v24h-24zM144 672h24v24h-24zM144 720h24v24h-24zM144 768h24v24h-24zM144 816h24v24h-24zM144 864h24v24h-24zM144 912h24v24h-24zM192 0h24v24h-24zM192 48h24v24h-24zM192 96h24v24h-24zM192 144h24v24h-24zM192 192h24v24h-24zM192 240h24v24h-24zM192 288h24v24h-24zM192 336h24v24h-24zM192 384h24v24h-24zM192 432h24v24h-24zM192 480h24v24h-24zM192 528h24v24h-24zM192 576h24v24h-24zM192 624h24v24h-24zM192 672h24v24h-24zM192 720h24v24h-24zM192 768h24v24h-24zM192 816h24v24h-24zM192 864h24v24h-24zM192 912h24v24h-24zM240 0h24v24h-24zM240 48h24v24h-24zM240 96h24v24h-24zM240 144h24v24h-24zM240 192h24v24h-24zM240 240h24v24h-24zM240 288h24v24h-24zM240 336h24v24h-24zM240 384h24v24h-24zM240 432h24v24h-24zM240 480h24v24h-24zM240 528h24v24h-24zM240 576h24v24h-24zM240 624h24v24h-24zM240 672h24v24h-24zM240 720h24v24h-24zM240 768h24v24h-24zM240 816h24v24h-24zM240 864h24v24h-24zM240 912h24v24h-24zM288 0h24v24h-24zM288 48h24v24h-24zM288 96h24v24h-24zM288 144h24v24h-24zM288 192h24v24h-24zM288 240h24v24h-24zM288 288h24v24h-24zM288 336h24v24h-24zM288 384h24v24h-24zM288 432h24v24h-24zM288 480h24v24h-24zM288 528h24v24h-24zM288 576h24v24h-24zM288 624h24v24h-24zM288 672h24v24h-24zM288 720h24v24h-24zM288 768h24v24h-24zM288 816h24v24h-24zM288 864h24v24h-24zM288 912h24v24h-24zM336 0h24v24h-24zM336 48h24v24h-24zM336 96h24v24h-24zM336 144h24v24h-24zM336 192h24v24h-24zM336 240h24v24h-24zM336 288h24v24h-24zM336 336h24v24h-24zM336 384h24v24h-24zM336 432h24v24h-24zM336 480h24v24h-24zM336 528h24v24h-24zM336 576h24v24h-24zM336 624h24v24h-24zM336 672h24v24h-24zM336 720h24v24h-24zM336 768h24v24h-24zM336 816h24v24h-24zM336 864h24v24h-24zM336 912h24v24h-24zM384 0h24v24h-24zM384 48h24v24h-24zM384 96h24v24h-24zM384 144h24v24h-24zM384 192h24v24h-24zM384 240h24v24h-24zM384 288h24v24h-24zM384 336h24v24h-24zM384 384h24v24h-24zM384 432h24v24h-24zM384 480h24v24h-24zM384 528h24v24h-24zM384 576h24v24h-24zM384 624h24v24h-24zM384 672h24v24h-24zM384 720h24v24h-24zM384 768h24v24h-24zM384 816h24v24h-24zM384 864h24v24h-24zM384 912h24v24h-24zM432 0h24v24h-24zM432 48h24v24h-24zM432 96h24v24h-24zM432 144h24v24h-24zM432 192h24v24h-24zM432 240h24v24h-24zM432 288h24v24h-24zM432 336h24v24h-24zM432 384h24v24h-24zM432 432h24v24h-24zM432 480h24v24h-24zM432 528h24v24h-24zM432 576h24v24h-24zM432 624h24v24h-24zM432 672h24v24h-24zM432 720h24v24h-24zM432 768h24v24h-24zM432 816h24v24h-24zM432 864h24v24h-24zM432 912h24v24h-24zM480 0h24v24h-24zM480 48h24v24h-24zM480 96h24v24h-24zM480 144h24v24h-24zM480 192h24v24h-24zM480 240h24v24h-24zM480 288h24v24h-24zM480 336h24v24h-24zM480 384h24v24h-24zM480 432h24v24h-24zM480 480h24v24h-24zM480 528h24v24h-24zM480 576h24v24h-24zM480 624h24v24h-24zM480 672h24v24h-24zM480 720h24v24h-24zM480 768h24v24h-24zM480 816h24v24h-24zM480 864h24v24h-24zM480 912h24v24h-24zM528 0h24v24h-24zM528 48h24v24h-24zM528 96h24v24h-24zM528 144h24v24h-24zM528 192h24v24h-24zM528 240h24v24h-24zM528 288h24v24h-24zM528 336h24v24h-24zM528 384h24v24h-24zM528 432h24v24h-24zM528 480h24v24h-24zM528 528h24v24h-24zM528 576h24v24h-24zM528 624h24v24h-24zM528 672h24v24h-24zM528 720h24v24h-24zM528 768h24v24h-24zM528 816h24v24h-24zM528 864h24v24h-24zM528 912h24v24h-24zM576 0h24v24h-24zM576 48h24v24h-24zM576 96h24v24h-24zM576 144h24v24h-24zM576 192h24v24h-24zM576 240h24v24h-24zM576 288h24v24h-24zM576 336h24v24h-24zM576 384h24v24h-24zM576 432h24v24h-24zM576 480h24v24h-24zM576 528h24v24h-24zM576 576h24v24h-24zM576 624h24v24h-24zM576 672h24v24h-24zM576 720h24v24h-24zM576 768h24v24h-24zM576 816h24v24h-24zM576 864h24v24h-24zM576 912h24v24h-24zM624 0h24v24h-24zM624 48h24v24h-24zM624 96h24v24h-24zM624 144h24v24h-24zM624 192h24v24h-24zM624 240h24v24h-24zM624 288h24v24h-24zM624 336h24v24h-24zM624 384h24v24h-24zM624 432h24v24h-24zM624 480h24v24h-24zM624 528h24v24h-24zM624 576h24v24h-24zM624 624h24v24h-24zM624 672h24v24h-24zM624 720h24v24h-24zM624 768h24v24h-24zM624 816h24v24h-24zM624 864h24v24h-24zM624 912h24v24h-24zM672 0h24v24h-24zM672 48h24v24h-24zM672 96h24v24h-24zM672 144h24v24h-24zM672 192h24v24h-24zM672 240h24v24h-24zM672 288h24v24h-24zM672 336h24v24h-24zM672 384h24v24h-24zM672 432h24v24h-24zM672 480h24v24h-24zM672 528h24v24h-24zM672 576h24v24h-24zM672 624h24v24h-24zM672 672h24v24h-24zM672 720h24v24h-24zM672 768h24v24h-24zM672 816h24v24h-24zM672 864h24v24h-24zM672 912h24v24h-24zM720 0h24v24h-24zM720 48h24v24h-24zM720 96h24v24h-24zM720 144h24v24h-24zM720 192h24v24h-24zM720 240h24v24h-24zM720 288h24v24h-24zM720 336h24v24h-24zM720 384h24v24h-24zM720 432h24v24h-24zM720 480h24v24h-24zM720 528h24v24h-24zM720 576h24v24h-24zM720 624h24v24h-24zM720 672h24v24h-24zM720 720h24v24h-24zM720 768h24v24h-24zM720 816h24v24h-24zM720 864h24v24h-24zM720 912h24v24h-24zM768 0h24v24h-24zM768 48h24v24h-24zM768 96h24v24h-24zM768 144h24v24h-24zM768 192h24v24h-24zM768 240h24v24h-24zM768 288h24v24h-24zM768 336h24v24h-24zM768 384h24v24h-24zM768 432h24v24h-24zM768 480h24v24h-24zM768 528h24v24h-24zM768 576h24v24h-24zM768 624h24v24h-24zM768 672h24v24h-24zM768 720h24v24h-24zM768 768h24v24h-24zM768 816h24v24h-24zM768 864h24v24h-24zM768 912h24v24h-24zM816 0h24v24h-24zM816 48h24v24h-24zM816 96h24v24h-24zM816 144h24v24h-24zM816 192h24v24h-24zM816 240h24v24h-24zM816 288h24v24h-24zM816 336h24v24h-24zM816 384h24v24h-24zM816 432h24v24h-24zM816 480h24v24h-24zM816 528h24v24h-24zM816 576h24v24h-24zM816 624h24v24h-24zM816 672h24v24h-24zM816 720h24v24h-24zM816 768h24v24h-24zM816 816h24v24h-24zM816 864h24v24h-24zM816 912h24v24h-24zM864 0h24v24h-24zM864 48h24v24h-24zM864 96h24v24h-24zM864 144h24v24h-24zM864 192h24v24h-24zM864 240h24v24h-24zM864 288h24v24h-24zM864 336h24v24h-24zM864 384h24v24h-24zM864 432h24v24h-24zM864 480h24v24h-24zM864 528h24v24h-24zM864 576h24v24h-24zM864 624h24v24h-24zM864 672h24v24h-24zM864 720h24v24h-24zM864 768h24v24h-24zM864 816h24v24h-24zM864 864h24v24h-24zM864 912h24v24h-24zM912 0h24v24h-24zM912 48h24v24h-24zM912 96h24v24h-24zM912 144h24v24h-24zM912 192h24v24h-24zM912 240h24v24h-24zM912 288h24v24h-24zM912 336h24v24h-24zM912 384h24v24h-24zM912 432h24v24h-24zM912 480h24v24h-24zM912 528h24v24h-24zM912 576h24v24h-24zM912 624h24v24h-24zM912 672h24v24h-24zM912 720h24v24h-24zM912 768h24v24h-24zM912 816h24v24h-24zM912 864h24v24h-24zM912 912h24v24h-24z"/><path fill="#e9aa58" d="M48 0h24v24h-24zM72 0h24v24h-24zM0 72h24v24h-24zM24 72h24v24h-24zM225 0h6v24h-6zM216 9h24v6h-24zM273 0h6v24h-6zM264 9h24v6h-24zM201 24h6v24h-6zM192 33h24v6h-24zM225 24h6v24h-6zM216 33h24v6h-24zM249 48h6v24h-6zM240 57h24v6h-24zM273 48h6v24h-6zM264 57h24v6h-24zM201 72h6v24h-6zM192 81h24v6h-24zM249 72h6v24h-6zM240 81h24v6h-24zM393 0h6v24h-6zM384 9h24v6h-24zM417 24h6v24h-6zM408 33h24v6h-24zM393 48h6v24h-6zM384 57h24v6h-24zM441 48h6v24h-6zM432 57h24v6h-24zM393 72h6v24h-6zM384 81h24v6h-24zM417 72h6v24h-6zM408 81h24v6h-24zM465 72h6v24h-6zM456 81h24v6h-24zM528 0h24v24h-24zM504 24h24v24h-24zM552 24h24v24h-24zM480 48h24v24h-24zM528 48h24v24h-24zM504 72h24v24h-24zM621 36h6v24h-6zM612 45h24v6h-24zM678 6h12v12h-12zM750 6h12v12h-12zM678 54h12v12h-12zM750 54h12v12h-12zM816 0h24v24h-24zM840 0h24v24h-24zM816 24h24v24h-24zM840 24h24v24h-24zM768 48h24v24h-24zM792 48h24v24h-24zM768 72h24v24h-24zM792 72h24v24h-24zM912 0h24v24h-24zM912 24h24v24h-24zM936 24h24v24h-24zM864 48h24v24h-24zM888 48h24v24h-24zM888 72h24v24h-24zM528 96h24v24h-24zM552 96h24v24h-24zM480 168h24v24h-24zM504 168h24v24h-24zM576 96h24v24h-24zM648 96h24v24h-24zM600 120h24v24h-24zM600 144h24v24h-24zM624 144h24v24h-24zM576 168h24v24h-24zM648 168h24v24h-24zM681 96h6v24h-6zM672 105h24v6h-24zM729 96h6v24h-6zM720 105h24v6h-24zM705 120h6v24h-6zM696 129h24v6h-24zM753 120h6v24h-6zM744 129h24v6h-24zM681 144h6v24h-6zM672 153h24v6h-24zM729 144h6v24h-6zM720 153h24v6h-24zM705 168h6v24h-6zM696 177h24v6h-24zM753 168h6v24h-6zM744 177h24v6h-24zM777 96h6v24h-6zM768 105h24v6h-24zM849 96h6v24h-6zM840 105h24v6h-24zM801 120h6v24h-6zM792 129h24v6h-24zM825 120h6v24h-6zM816 129h24v6h-24zM777 168h6v24h-6zM768 177h24v6h-24zM849 168h6v24h-6zM840 177h24v6h-24zM921 96h6v24h-6zM912 105h24v6h-24zM945 96h6v24h-6zM936 105h24v6h-24zM921 120h6v24h-6zM912 129h24v6h-24zM945 120h6v24h-6zM936 129h24v6h-24zM873 144h6v24h-6zM864 153h24v6h-24zM897 144h6v24h-6zM888 153h24v6h-24zM873 168h6v24h-6zM864 177h24v6h-24zM897 168h6v24h-6zM888 177h24v6h-24zM6 198h12v12h-12zM54 198h12v12h-12zM54 222h12v12h-12zM78 222h12v12h-12zM6 246h12v12h-12zM30 246h12v12h-12zM30 270h12v12h-12zM78 270h12v12h-12zM192 192h24v24h-24zM264 192h24v24h-24zM216 216h24v24h-24zM240 240h24v24h-24zM192 264h24v24h-24zM264 264h24v24h-24zM414 198h12v12h-12zM438 198h12v12h-12zM414 270h12v12h-12zM438 270h12v12h-12zM489 192h6v24h-6zM480 201h24v6h-24zM561 192h6v24h-6zM552 201h24v6h-24zM513 216h6v24h-6zM504 225h24v6h-24zM537 216h6v24h-6zM528 225h24v6h-24zM513 240h6v24h-6zM504 249h24v6h-24zM537 240h6v24h-6zM528 249h24v6h-24zM489 264h6v24h-6zM480 273h24v6h-24zM561 264h6v24h-6zM552 273h24v6h-24zM576 192h24v24h-24zM624 192h24v24h-24zM600 216h24v24h-24zM648 216h24v24h-24zM576 240h24v24h-24zM624 240h24v24h-24zM600 264h24v24h-24zM648 264h24v24h-24zM681 192h6v24h-6zM672 201h24v6h-24zM753 192h6v24h-6zM744 201h24v6h-24zM729 216h6v24h-6zM720 225h24v6h-24zM705 240h6v24h-6zM696 249h24v6h-24zM729 240h6v24h-6zM720 249h24v6h-24zM681 264h6v24h-6zM672 273h24v6h-24zM753 264h6v24h-6zM744 273h24v6h-24zM846 342h12v12h-12zM798 198h12v12h-12zM822 198h12v12h-12zM798 222h12v12h-12zM846 222h12v12h-12zM774 246h12v12h-12zM822 246h12v12h-12zM798 270h12v12h-12zM822 270h12v12h-12zM912 192h24v24h-24zM888 216h24v24h-24zM936 216h24v24h-24zM864 240h24v24h-24zM912 240h24v24h-24zM888 264h24v24h-24zM0 312h24v24h-24zM72 312h24v24h-24zM0 336h24v24h-24zM72 336h24v24h-24zM96 288h24v24h-24zM168 288h24v24h-24zM120 312h24v24h-24zM120 336h24v24h-24zM144 336h24v24h-24zM96 360h24v24h-24zM168 360h24v24h-24zM216 288h24v24h-24zM264 288h24v24h-24zM216 360h24v24h-24zM264 360h24v24h-24zM336 288h24v24h-24zM360 288h24v24h-24zM336 312h24v24h-24zM360 312h24v24h-24zM288 336h24v24h-24zM312 336h24v24h-24zM288 360h24v24h-24zM312 360h24v24h-24zM384 288h24v24h-24zM408 288h24v24h-24zM432 360h24v24h-24zM456 360h24v24h-24zM6 390h12v12h-12zM30 390h12v12h-12zM78 390h12v12h-12zM6 414h12v12h-12zM54 414h12v12h-12zM30 438h12v12h-12zM6 462h12v12h-12zM168 384h24v24h-24zM144 408h24v24h-24zM120 432h24v24h-24zM96 456h24v24h-24zM192 384h24v24h-24zM264 384h24v24h-24zM216 408h24v24h-24zM240 408h24v24h-24zM192 456h24v24h-24zM264 456h24v24h-24zM345 384h6v24h-6zM336 393h24v6h-24zM369 408h6v24h-6zM360 417h24v6h-24zM297 432h6v24h-6zM288 441h24v6h-24zM321 456h6v24h-6zM312 465h24v6h-24zM384 384h24v24h-24zM456 384h24v24h-24zM408 408h24v24h-24zM432 408h24v24h-24zM384 432h24v24h-24zM456 432h24v24h-24zM585 384h6v24h-6zM576 393h24v6h-24zM633 384h6v24h-6zM624 393h24v6h-24zM633 408h6v24h-6zM624 417h24v6h-24zM657 408h6v24h-6zM648 417h24v6h-24zM585 432h6v24h-6zM576 441h24v6h-24zM609 432h6v24h-6zM600 441h24v6h-24zM609 456h6v24h-6zM600 465h24v6h-24zM657 456h6v24h-6zM648 465h24v6h-24zM801 384h6v24h-6zM792 393h24v6h-24zM849 384h6v24h-6zM840 393h24v6h-24zM777 408h6v24h-6zM768 417h24v6h-24zM801 408h6v24h-6zM792 417h24v6h-24zM825 432h6v24h-6zM816 441h24v6h-24zM849 432h6v24h-6zM840 441h24v6h-24zM777 456h6v24h-6zM768 465h24v6h-24zM825 456h6v24h-6zM816 465h24v6h-24zM6 486h12v12h-12zM30 486h12v12h-12zM78 486h12v12h-12zM6 510h12v12h-12zM54 510h12v12h-12zM30 534h12v12h-12zM6 558h12v12h-12zM96 480h24v24h-24zM120 504h24v24h-24zM144 528h24v24h-24zM168 552h24v24h-24zM270 486h12v12h-12zM270 510h12v12h-12zM198 534h12v12h-12zM198 558h12v12h-12zM321 480h6v24h-6zM312 489h24v6h-24zM369 480h6v24h-6zM360 489h24v6h-24zM297 504h6v24h-6zM288 513h24v6h-24zM321 504h6v24h-6zM312 513h24v6h-24zM345 528h6v24h-6zM336 537h24v6h-24zM369 528h6v24h-6zM360 537h24v6h-24zM297 552h6v24h-6zM288 561h24v6h-24zM345 552h6v24h-6zM336 561h24v6h-24zM393 480h6v24h-6zM384 489h24v6h-24zM465 480h6v24h-6zM456 489h24v6h-24zM417 504h6v24h-6zM408 513h24v6h-24zM441 504h6v24h-6zM432 513h24v6h-24zM417 528h6v24h-6zM408 537h24v6h-24zM441 528h6v24h-6zM432 537h24v6h-24zM393 552h6v24h-6zM384 561h24v6h-24zM465 552h6v24h-6zM456 561h24v6h-24zM6 582h12v12h-12zM78 582h12v12h-12zM6 630h12v12h-12zM78 630h12v12h-12zM198 582h12v12h-12zM270 582h12v12h-12zM222 630h12v12h-12zM246 630h12v12h-12zM198 654h12v12h-12zM270 654h12v12h-12zM414 582h12v12h-12zM438 582h12v12h-12zM438 606h12v12h-12zM414 654h12v12h-12zM504 576h24v24h-24zM552 576h24v24h-24zM480 600h24v24h-24zM504 600h24v24h-24zM528 624h24v24h-24zM552 624h24v24h-24zM480 648h24v24h-24zM528 648h24v24h-24zM600 576h24v24h-24zM648 576h24v24h-24zM576 600h24v24h-24zM648 624h24v24h-24zM576 648h24v24h-24zM624 648h24v24h-24zM672 576h24v24h-24zM696 576h24v24h-24zM672 600h24v24h-24zM696 600h24v24h-24zM720 624h24v24h-24zM744 624h24v24h-24zM720 648h24v24h-24zM744 648h24v24h-24zM774 582h12v12h-12zM822 582h12v12h-12zM822 606h12v12h-12zM846 606h12v12h-12zM774 630h12v12h-12zM798 630h12v12h-12zM798 654h12v12h-12zM846 654h12v12h-12zM870 582h12v12h-12zM918 582h12v12h-12zM894 606h12v12h-12zM942 606h12v12h-12zM870 630h12v12h-12zM918 630h12v12h-12zM894 654h12v12h-12zM942 654h12v12h-12zM489 672h6v24h-6zM480 681h24v6h-24zM537 672h6v24h-6zM528 681h24v6h-24zM561 696h6v24h-6zM552 705h24v6h-24zM489 720h6v24h-6zM480 729h24v6h-24zM513 744h6v24h-6zM504 753h24v6h-24zM561 744h6v24h-6zM552 753h24v6h-24zM576 672h24v24h-24zM648 672h24v24h-24zM624 696h24v24h-24zM600 720h24v24h-24zM576 744h24v24h-24zM648 744h24v24h-24zM702 678h12v12h-12zM750 678h12v12h-12zM678 702h12v12h-12zM726 702h12v12h-12zM702 726h12v12h-12zM750 726h12v12h-12zM678 750h12v12h-12zM726 750h12v12h-12zM774 678h12v12h-12zM798 702h12v12h-12zM822 726h12v12h-12zM846 750h12v12h-12zM870 702h12v12h-12zM942 702h12v12h-12zM870 726h12v12h-12zM942 726h12v12h-12zM48 768h24v24h-24zM24 792h24v24h-24zM72 792h24v24h-24zM0 816h24v24h-24zM48 816h24v24h-24zM24 840h24v24h-24zM201 768h6v24h-6zM192 777h24v6h-24zM225 768h6v24h-6zM216 777h24v6h-24zM273 768h6v24h-6zM264 777h24v6h-24zM201 792h6v24h-6zM192 801h24v6h-24zM249 792h6v24h-6zM240 801h24v6h-24zM225 816h6v24h-6zM216 825h24v6h-24zM201 840h6v24h-6zM192 849h24v6h-24zM390 774h12v12h-12zM414 774h12v12h-12zM438 846h12v12h-12zM462 846h12v12h-12zM489 768h6v24h-6zM480 777h24v6h-24zM513 792h6v24h-6zM504 801h24v6h-24zM489 816h6v24h-6zM480 825h24v6h-24zM537 816h6v24h-6zM528 825h24v6h-24zM489 840h6v24h-6zM480 849h24v6h-24zM513 840h6v24h-6zM504 849h24v6h-24zM561 840h6v24h-6zM552 849h24v6h-24zM585 768h6v24h-6zM576 777h24v6h-24zM657 768h6v24h-6zM648 777h24v6h-24zM609 816h6v24h-6zM600 825h24v6h-24zM633 816h6v24h-6zM624 825h24v6h-24zM585 840h6v24h-6zM576 849h24v6h-24zM657 840h6v24h-6zM648 849h24v6h-24zM681 768h6v24h-6zM672 777h24v6h-24zM705 768h6v24h-6zM696 777h24v6h-24zM729 840h6v24h-6zM720 849h24v6h-24zM753 840h6v24h-6zM744 849h24v6h-24zM792 768h24v24h-24zM816 816h24v24h-24zM792 840h24v24h-24zM816 840h24v24h-24zM897 768h6v24h-6zM888 777h24v6h-24zM921 768h6v24h-6zM912 777h24v6h-24zM921 792h6v24h-6zM912 801h24v6h-24zM897 840h6v24h-6zM888 849h24v6h-24zM510 870h12v12h-12zM558 870h12v12h-12zM486 894h12v12h-12zM534 894h12v12h-12zM510 918h12v12h-12zM558 918h12v12h-12zM486 942h12v12h-12zM534 942h12v12h-12zM576 864h24v24h-24zM600 864h24v24h-24zM576 888h24v24h-24zM600 888h24v24h-24zM624 912h24v24h-24zM648 912h24v24h-24zM624 936h24v24h-24zM648 936h24v24h-24zM717 900h6v24h-6zM708 909h24v6h-24zM774 894h12v12h-12zM846 894h12v12h-12zM774 918h12v12h-12zM798 918h12v12h-12zM873 864h6v24h-6zM864 873h24v6h-24zM945 864h6v24h-6zM936 873h24v6h-24zM921 888h6v24h-6zM912 897h24v6h-24zM897 912h6v24h-6zM888 921h24v6h-24zM873 936h6v24h-6zM864 945h24v6h-24zM945 936h6v24h-6zM936 945h24v6h-24zM408 864h24v24h-24zM456 864h24v24h-24zM384 888h24v24h-24zM432 888h24v24h-24zM408 912h24v24h-24zM456 912h24v24h-24zM384 936h24v24h-24zM432 936h24v24h-24zM201 864h6v24h-6zM192 873h24v6h-24zM225 864h6v24h-6zM216 873h24v6h-24zM273 864h6v24h-6zM264 873h24v6h-24zM201 888h6v24h-6zM192 897h24v6h-24zM249 888h6v24h-6zM240 897h24v6h-24zM225 912h6v24h-6zM216 921h24v6h-24zM201 936h6v24h-6zM192 945h24v6h-24zM102 198h12v12h-12zM150 198h12v12h-12zM150 222h12v12h-12zM174 222h12v12h-12zM102 246h12v12h-12zM126 246h12v12h-12zM126 270h12v12h-12zM174 270h12v12h-12zM201 96h6v24h-6zM192 105h24v6h-24zM273 96h6v24h-6zM264 105h24v6h-24zM225 120h6v24h-6zM216 129h24v6h-24zM249 144h6v24h-6zM240 153h24v6h-24zM201 168h6v24h-6zM192 177h24v6h-24zM273 168h6v24h-6zM264 177h24v6h-24zM144 96h24v24h-24zM168 96h24v24h-24zM96 168h24v24h-24zM120 168h24v24h-24zM438 102h12v12h-12zM414 126h12v12h-12zM462 126h12v12h-12zM390 150h12v12h-12zM438 150h12v12h-12zM414 174h12v12h-12zM696 384h24v24h-24zM744 384h24v24h-24zM672 408h24v24h-24zM696 408h24v24h-24zM720 432h24v24h-24zM744 432h24v24h-24zM672 456h24v24h-24zM720 456h24v24h-24zM294 678h12v12h-12zM366 678h12v12h-12zM318 726h12v12h-12zM342 726h12v12h-12zM294 750h12v12h-12zM366 750h12v12h-12z"/><path fill="#fff" d="M96 672h24v24h-24zM120 672h24v24h-24zM144 672h24v24h-24zM168 672h24v24h-24zM192 672h24v24h-24zM216 672h24v24h-24zM240 672h24v24h-24zM264 672h24v24h-24zM72 672h24v24h-24zM48 672h24v24h-24zM24 672h24v24h-24zM48 648h24v24h-24zM72 624h24v24h-24zM96 600h24v24h-24zM120 576h24v24h-24zM120 552h24v24h-24zM120 528h24v24h-24zM120 504h24v24h-24zM120 480h24v24h-24zM120 456h24v24h-24zM120 432h24v24h-24zM120 408h24v24h-24zM120 384h24v24h-24zM120 360h24v24h-24zM120 336h24v24h-24zM120 312h24v24h-24zM144 336h24v24h-24zM168 360h24v24h-24zM192 384h24v24h-24zM216 408h24v24h-24zM240 432h24v24h-24zM264 432h24v24h-24zM288 432h24v24h-24zM288 456h24v24h-24zM288 480h24v24h-24zM288 504h24v24h-24zM288 528h24v24h-24zM288 552h24v24h-24zM288 576h24v24h-24zM288 600h24v24h-24zM288 624h24v24h-24zM288 648h24v24h-24zM288 672h24v24h-24zM288 696h24v24h-24zM288 720h24v24h-24zM288 744h24v24h-24zM288 768h24v24h-24zM264 744h24v24h-24zM240 720h24v24h-24zM216 696h24v24h-24zM168 648h24v24h-24zM144 624h24v24h-24zM120 600h24v24h-24zM96 576h24v24h-24zM72 552h24v24h-24zM96 552h24v24h-24zM144 552h24v24h-24zM168 552h24v24h-24zM192 552h24v24h-24zM216 552h24v24h-24zM240 552h24v24h-24zM264 552h24v24h-24zM312 552h24v24h-24zM336 552h24v24h-24zM360 552h24v24h-24zM384 552h24v24h-24zM408 552h24v24h-24zM432 552h24v24h-24zM456 552h24v24h-24zM432 576h24v24h-24zM408 600h24v24h-24zM384 624h24v24h-24zM360 648h24v24h-24zM336 672h24v24h-24zM312 696h24v24h-24zM240 768h24v24h-24zM216 792h24v24h-24zM240 792h24v24h-24zM264 792h24v24h-24zM288 792h24v24h-24zM264 504h24v24h-24zM240 528h24v24h-24zM192 576h24v24h-24zM168 600h24v24h-24zM144 600h24v24h-24zM144 576h24v24h-24zM144 528h24v24h-24zM144 504h24v24h-24zM144 480h24v24h-24zM144 456h24v24h-24zM144 432h24v24h-24zM96 480h24v24h-24zM96 456h24v24h-24zM96 432h24v24h-24zM96 408h24v24h-24zM96 384h24v24h-24zM96 504h24v24h-24zM96 528h24v24h-24zM96 624h24v24h-24zM96 648h24v24h-24zM96 696h24v24h-24zM96 720h24v24h-24zM96 744h24v24h-24zM96 768h24v24h-24zM96 792h24v24h-24zM96 816h24v24h-24zM96 840h24v24h-24zM96 864h24v24h-24zM72 888h24v24h-24zM48 912h24v24h-24zM24 936h24v24h-24zM24 912h24v24h-24zM24 888h24v24h-24zM24 864h24v24h-24zM24 840h24v24h-24zM24 816h24v24h-24zM24 792h24v24h-24zM24 768h24v24h-24zM24 744h24v24h-24zM24 720h24v24h-24zM24 696h24v24h-24zM24 648h24v24h-24zM24 624h24v24h-24zM24 600h24v24h-24zM24 576h24v24h-24zM24 552h24v24h-24zM24 528h24v24h-24zM24 504h24v24h-24zM24 480h24v24h-24zM24 456h24v24h-24zM24 432h24v24h-24zM24 408h24v24h-24zM48 384h24v24h-24zM72 360h24v24h-24zM96 336h24v24h-24zM168 336h24v24h-24zM192 336h24v24h-24zM216 336h24v24h-24zM240 336h24v24h-24zM264 336h24v24h-24zM288 336h24v24h-24zM312 336h24v24h-24zM336 336h24v24h-24zM360 336h24v24h-24zM384 336h24v24h-24zM408 336h24v24h-24zM432 336h24v24h-24zM432 360h24v24h-24zM432 384h24v24h-24zM432 408h24v24h-24zM432 432h24v24h-24zM432 456h24v24h-24zM432 480h24v24h-24zM432 504h24v24h-24zM432 528h24v24h-24zM432 600h24v24h-24zM432 624h24v24h-24zM432 648h24v24h-24zM432 672h24v24h-24zM432 696h24v24h-24zM432 720h24v24h-24zM432 744h24v24h-24zM432 768h24v24h-24zM432 792h24v24h-24zM432 816h24v24h-24zM432 840h24v24h-24zM432 864h24v24h-24zM432 888h24v24h-24zM408 888h24v24h-24zM384 888h24v24h-24zM360 888h24v24h-24zM336 888h24v24h-24zM312 888h24v24h-24zM288 888h24v24h-24zM264 888h24v24h-24zM240 888h24v24h-24zM216 888h24v24h-24zM192 888h24v24h-24zM168 888h24v24h-24zM144 888h24v24h-24zM120 888h24v24h-24zM72 840h24v24h-24zM48 816h24v24h-24zM72 816h24v24h-24zM120 816h24v24h-24zM144 816h24v24h-24zM168 816h24v24h-24zM192 816h24v24h-24zM216 816h24v24h-24zM240 816h24v24h-24zM264 816h24v24h-24zM288 816h24v24h-24zM312 816h24v24h-24zM168 792h24v24h-24zM192 768h24v24h-24zM216 744h24v24h-24zM240 696h24v24h-24zM240 648h24v24h-24zM240 624h24v24h-24zM240 600h24v24h-24zM240 576h24v24h-24zM240 504h24v24h-24zM240 480h24v24h-24zM240 456h24v24h-24zM240 408h24v24h-24zM240 384h24v24h-24zM240 360h24v24h-24zM240 312h24v24h-24zM240 288h24v24h-24zM216 264h24v24h-24zM192 240h24v24h-24zM168 216h24v24h-24zM144 192h24v24h-24zM120 168h24v24h-24zM96 144h24v24h-24zM72 120h24v24h-24zM48 96h24v24h-24zM24 72h24v24h-24zM48 72h24v24h-24zM72 72h24v24h-24zM96 72h24v24h-24zM120 72h24v24h-24zM144 72h24v24h-24zM168 72h24v24h-24zM192 72h24v24h-24zM216 72h24v24h-24zM240 72h24v24h-24zM264 72h24v24h-24zM288 72h24v24h-24zM312 72h24v24h-24zM336 72h24v24h-24zM360 72h24v24h-24zM384 72h24v24h-24zM360 96h24v24h-24zM336 120h24v24h-24zM312 144h24v24h-24zM288 168h24v24h-24zM264 192h24v24h-24zM240 216h24v24h-24zM216 240h24v24h-24zM192 264h24v24h-24zM168 288h24v24h-24zM144 288h24v24h-24zM168 264h24v24h-24zM264 312h24v24h-24zM312 360h24v24h-24zM336 384h24v24h-24zM360 408h24v24h-24zM384 432h24v24h-24zM408 456h24v24h-24zM456 504h24v24h-24zM840 672h24v24h-24zM816 672h24v24h-24zM792 672h24v24h-24zM768 672h24v24h-24zM744 672h24v24h-24zM720 672h24v24h-24zM696 672h24v24h-24zM672 672h24v24h-24zM864 672h24v24h-24zM888 672h24v24h-24zM912 672h24v24h-24zM888 648h24v24h-24zM864 624h24v24h-24zM840 600h24v24h-24zM816 576h24v24h-24zM816 552h24v24h-24zM816 528h24v24h-24zM816 504h24v24h-24zM816 480h24v24h-24zM816 456h24v24h-24zM816 432h24v24h-24zM816 408h24v24h-24zM816 384h24v24h-24zM816 360h24v24h-24zM816 336h24v24h-24zM816 312h24v24h-24zM792 336h24v24h-24zM768 360h24v24h-24zM744 384h24v24h-24zM720 408h24v24h-24zM696 432h24v24h-24zM672 432h24v24h-24zM648 432h24v24h-24zM648 456h24v24h-24zM648 480h24v24h-24zM648 504h24v24h-24zM648 528h24v24h-24zM648 552h24v24h-24zM648 576h24v24h-24zM648 600h24v24h-24zM648 624h24v24h-24zM648 648h24v24h-24zM648 672h24v24h-24zM648 696h24v24h-24zM648 720h24v24h-24zM648 744h24v24h-24zM648 768h24v24h-24zM672 744h24v24h-24zM696 720h24v24h-24zM720 696h24v24h-24zM768 648h24v24h-24zM792 624h24v24h-24zM816 600h24v24h-24zM840 576h24v24h-24zM864 552h24v24h-24zM840 552h24v24h-24zM792 552h24v24h-24zM768 552h24v24h-24zM744 552h24v24h-24zM720 552h24v24h-24zM696 552h24v24h-24zM672 552h24v24h-24zM624 552h24v24h-24zM600 552h24v24h-24zM576 552h24v24h-24zM552 552h24v24h-24zM528 552h24v24h-24zM504 552h24v24h-24zM480 552h24v24h-24zM504 576h24v24h-24zM528 600h24v24h-24zM552 624h24v24h-24zM576 648h24v24h-24zM600 672h24v24h-24zM624 696h24v24h-24zM696 768h24v24h-24zM720 792h24v24h-24zM696 792h24v24h-24zM672 792h24v24h-24zM648 792h24v24h-24zM672 504h24v24h-24zM696 528h24v24h-24zM744 576h24v24h-24zM768 600h24v24h-24zM792 600h24v24h-24zM792 576h24v24h-24zM792 528h24v24h-24zM792 504h24v24h-24zM792 480h24v24h-24zM792 456h24v24h-24zM792 432h24v24h-24zM840 480h24v24h-24zM840 456h24v24h-24zM840 432h24v24h-24zM840 408h24v24h-24zM840 384h24v24h-24zM840 504h24v24h-24zM840 528h24v24h-24zM840 624h24v24h-24zM840 648h24v24h-24zM840 696h24v24h-24zM840 720h24v24h-24zM840 744h24v24h-24zM840 768h24v24h-24zM840 792h24v24h-24zM840 816h24v24h-24zM840 840h24v24h-24zM840 864h24v24h-24zM864 888h24v24h-24zM888 912h24v24h-24zM912 936h24v24h-24zM912 912h24v24h-24zM912 888h24v24h-24zM912 864h24v24h-24zM912 840h24v24h-24zM912 816h24v24h-24zM912 792h24v24h-24zM912 768h24v24h-24zM912 744h24v24h-24zM912 720h24v24h-24zM912 696h24v24h-24zM912 648h24v24h-24zM912 624h24v24h-24zM912 600h24v24h-24zM912 576h24v24h-24zM912 552h24v24h-24zM912 528h24v24h-24zM912 504h24v24h-24zM912 480h24v24h-24zM912 456h24v24h-24zM912 432h24v24h-24zM912 408h24v24h-24zM888 384h24v24h-24zM864 360h24v24h-24zM840 336h24v24h-24zM768 336h24v24h-24zM744 336h24v24h-24zM720 336h24v24h-24zM696 336h24v24h-24zM672 336h24v24h-24zM648 336h24v24h-24zM624 336h24v24h-24zM600 336h24v24h-24zM576 336h24v24h-24zM552 336h24v24h-24zM528 336h24v24h-24zM504 336h24v24h-24zM504 360h24v24h-24zM504 384h24v24h-24zM504 408h24v24h-24zM504 432h24v24h-24zM504 456h24v24h-24zM504 480h24v24h-24zM504 504h24v24h-24zM504 528h24v24h-24zM504 600h24v24h-24zM504 624h24v24h-24zM504 648h24v24h-24zM504 672h24v24h-24zM504 696h24v24h-24zM504 720h24v24h-24zM504 744h24v24h-24zM504 768h24v24h-24zM504 792h24v24h-24zM504 816h24v24h-24zM504 840h24v24h-24zM504 864h24v24h-24zM504 888h24v24h-24zM528 888h24v24h-24zM552 888h24v24h-24zM576 888h24v24h-24zM600 888h24v24h-24zM624 888h24v24h-24zM648 888h24v24h-24zM672 888h24v24h-24zM696 888h24v24h-24zM720 888h24v24h-24zM744 888h24v24h-24zM768 888h24v24h-24zM792 888h24v24h-24zM816 888h24v24h-24zM864 840h24v24h-24zM888 816h24v24h-24zM864 816h24v24h-24zM816 816h24v24h-24zM792 816h24v24h-24zM768 816h24v24h-24zM744 816h24v24h-24zM720 816h24v24h-24zM696 816h24v24h-24zM672 816h24v24h-24zM648 816h24v24h-24zM624 816h24v24h-24zM768 792h24v24h-24zM744 768h24v24h-24zM720 744h24v24h-24zM696 696h24v24h-24zM696 648h24v24h-24zM696 624h24v24h-24zM696 600h24v24h-24zM696 576h24v24h-24zM696 504h24v24h-24zM696 480h24v24h-24zM696 456h24v24h-24zM696 408h24v24h-24zM696 384h24v24h-24zM696 360h24v24h-24zM696 312h24v24h-24zM696 288h24v24h-24zM720 264h24v24h-24zM744 240h24v24h-24zM768 216h24v24h-24zM792 192h24v24h-24zM816 168h24v24h-24zM840 144h24v24h-24zM864 120h24v24h-24zM888 96h24v24h-24zM912 72h24v24h-24zM888 72h24v24h-24zM864 72h24v24h-24zM840 72h24v24h-24zM816 72h24v24h-24zM792 72h24v24h-24zM768 72h24v24h-24zM744 72h24v24h-24zM720 72h24v24h-24zM696 72h24v24h-24zM672 72h24v24h-24zM648 72h24v24h-24zM624 72h24v24h-24zM600 72h24v24h-24zM576 72h24v24h-24zM552 72h24v24h-24zM576 96h24v24h-24zM600 120h24v24h-24zM624 144h24v24h-24zM648 168h24v24h-24zM672 192h24v24h-24zM696 216h24v24h-24zM720 240h24v24h-24zM744 264h24v24h-24zM768 288h24v24h-24zM792 288h24v24h-24zM768 264h24v24h-24zM672 312h24v24h-24zM624 360h24v24h-24zM600 384h24v24h-24zM576 408h24v24h-24zM552 432h24v24h-24zM528 456h24v24h-24zM480 504h24v24h-24z"/></svg>