<svg xmlns="http://www.w3.org/2000/svg" width="960" height="960" viewBox="0 0 960 960" shape-rendering="crispEdges"><path fill="#000" d="M0 0h960v960h-960z"/><path fill="#ebf094" d="M576 0h96v96h-96zM576 192h96v96h-96zM576 384h96v96h-96zM576 576h96v96h-96zM576 768h96v96h-96zM768 0h96v96h-96zM768 192h96v96h-96zM768 384h96v96h-96zM768 576h96v96h-96zM768 768h96v96h-96z"/><path fill="#924545" d="M30 6h12v12h-12zM78 6h12v12h-12zM30 78h12v12h-12zM78 78h12v12h-12zM150 6h12v12h-12zM174 6h12v12h-12zM102 78h12v12h-12zM126 78h12v12h-12zM222 6h12v12h-12zM270 6h12v12h-12zM222 78h12v12h-12zM270 78h12v12h-12zM294 30h12v12h-12zM366 30h12v12h-12zM294 54h12v12h-12zM318 54h12v12h-12zM390 6h12v12h-12zM438 6h12v12h-12zM414 30h12v12h-12zM462 30h12v12h-12zM390 54h12v12h-12zM438 54h12v12h-12zM414 78h12v12h-12zM462 78h12v12h-12zM483 15h6v6h-6zM519 15h6v6h-6zM483 27h6v6h-6zM519 27h6v6h-6zM591 3h6v6h-6zM579 15h6v6h-6zM603 15h6v6h-6zM615 15h6v6h-6zM579 27h6v6h-6zM591 27h6v6h-6zM615 27h6v6h-6zM603 39h6v6h-6zM687 3h6v6h-6zM699 3h6v6h-6zM675 15h6v6h-6zM699 15h6v6h-6zM687 27h6v6h-6zM711 27h6v6h-6zM687 39h6v6h-6zM699 39h6v6h-6zM771 3h6v6h-6zM783 3h6v6h-6zM807 3h6v6h-6zM771 15h6v6h-6zM795 15h6v6h-6zM783 27h6v6h-6zM771 39h6v6h-6zM867 3h6v6h-6zM879 3h6v6h-6zM891 39h6v6h-6zM903 39h6v6h-6zM78 102h12v12h-12zM78 126h12v12h-12zM6 150h12v12h-12zM6 174h12v12h-12zM126 102h12v12h-12zM102 126h12v12h-12zM174 150h12v12h-12zM150 174h12v12h-12zM198 102h12v12h-12zM270 102h12v12h-12zM222 150h12v12h-12zM246 150h12v12h-12zM198 174h12v12h-12zM270 174h12v12h-12zM294 102h12v12h-12zM342 102h12v12h-12zM318 126h12v12h-12zM366 126h12v12h-12zM294 150h12v12h-12zM342 150h12v12h-12zM318 174h12v12h-12zM366 174h12v12h-12zM426 138h12v12h-12zM507 99h6v6h-6zM519 99h6v6h-6zM507 111h6v6h-6zM519 111h6v6h-6zM483 123h6v6h-6zM495 123h6v6h-6zM483 135h6v6h-6zM495 135h6v6h-6zM591 99h6v6h-6zM615 99h6v6h-6zM579 111h6v6h-6zM603 111h6v6h-6zM591 123h6v6h-6zM615 123h6v6h-6zM579 135h6v6h-6zM603 135h6v6h-6zM675 111h6v6h-6zM711 111h6v6h-6zM675 123h6v6h-6zM687 123h6v6h-6zM789 117h6v6h-6zM885 117h6v6h-6zM42 234h12v12h-12zM102 222h12v12h-12zM174 222h12v12h-12zM102 246h12v12h-12zM126 246h12v12h-12zM222 198h12v12h-12zM270 198h12v12h-12zM246 222h12v12h-12zM246 246h12v12h-12zM222 270h12v12h-12zM270 270h12v12h-12zM294 198h12v12h-12zM366 198h12v12h-12zM318 222h12v12h-12zM342 222h12v12h-12zM318 246h12v12h-12zM294 270h12v12h-12zM366 270h12v12h-12zM390 198h12v12h-12zM462 198h12v12h-12zM414 222h12v12h-12zM438 222h12v12h-12zM414 246h12v12h-12zM390 270h12v12h-12zM462 270h12v12h-12zM483 195h6v6h-6zM483 207h6v6h-6zM519 219h6v6h-6zM519 231h6v6h-6zM615 195h6v6h-6zM603 207h6v6h-6zM591 219h6v6h-6zM579 231h6v6h-6zM675 195h6v6h-6zM711 195h6v6h-6zM699 207h6v6h-6zM687 219h6v6h-6zM699 219h6v6h-6zM675 231h6v6h-6zM711 231h6v6h-6zM783 195h6v6h-6zM795 219h6v6h-6zM783 231h6v6h-6zM795 231h6v6h-6zM867 195h6v6h-6zM879 207h6v6h-6zM891 219h6v6h-6zM903 231h6v6h-6zM6 294h12v12h-12zM78 294h12v12h-12zM6 366h12v12h-12zM78 366h12v12h-12zM102 294h12v12h-12zM174 294h12v12h-12zM126 342h12v12h-12zM150 342h12v12h-12zM102 366h12v12h-12zM174 366h12v12h-12zM246 294h12v12h-12zM246 318h12v12h-12zM270 318h12v12h-12zM198 342h12v12h-12zM222 342h12v12h-12zM222 366h12v12h-12zM318 294h12v12h-12zM294 318h12v12h-12zM318 318h12v12h-12zM342 342h12v12h-12zM366 342h12v12h-12zM342 366h12v12h-12zM462 438h12v12h-12zM414 294h12v12h-12zM438 294h12v12h-12zM414 318h12v12h-12zM462 318h12v12h-12zM390 342h12v12h-12zM438 342h12v12h-12zM414 366h12v12h-12zM438 366h12v12h-12zM483 291h6v6h-6zM507 291h6v6h-6zM495 303h6v6h-6zM519 303h6v6h-6zM483 315h6v6h-6zM507 315h6v6h-6zM495 327h6v6h-6zM519 327h6v6h-6zM579 291h6v6h-6zM615 291h6v6h-6zM591 303h6v6h-6zM603 315h6v6h-6zM579 327h6v6h-6zM615 327h6v6h-6zM699 291h6v6h-6zM699 303h6v6h-6zM711 303h6v6h-6zM675 315h6v6h-6zM687 315h6v6h-6zM687 327h6v6h-6zM807 291h6v6h-6zM807 303h6v6h-6zM771 315h6v6h-6zM771 327h6v6h-6zM867 291h6v6h-6zM903 291h6v6h-6zM867 315h6v6h-6zM903 315h6v6h-6zM30 390h12v12h-12zM6 414h12v12h-12zM78 438h12v12h-12zM54 462h12v12h-12zM102 390h12v12h-12zM174 390h12v12h-12zM126 438h12v12h-12zM150 438h12v12h-12zM102 462h12v12h-12zM174 462h12v12h-12zM222 390h12v12h-12zM198 414h12v12h-12zM246 414h12v12h-12zM270 414h12v12h-12zM198 438h12v12h-12zM222 438h12v12h-12zM270 438h12v12h-12zM246 462h12v12h-12zM294 390h12v12h-12zM342 390h12v12h-12zM366 390h12v12h-12zM318 414h12v12h-12zM366 414h12v12h-12zM342 438h12v12h-12zM366 462h12v12h-12zM390 390h12v12h-12zM462 390h12v12h-12zM438 414h12v12h-12zM414 438h12v12h-12zM438 438h12v12h-12zM390 462h12v12h-12zM462 462h12v12h-12zM519 387h6v6h-6zM519 399h6v6h-6zM483 411h6v6h-6zM483 423h6v6h-6zM579 387h6v6h-6zM615 387h6v6h-6zM591 399h6v6h-6zM603 411h6v6h-6zM579 423h6v6h-6zM615 423h6v6h-6zM675 399h6v6h-6zM711 399h6v6h-6zM675 411h6v6h-6zM711 411h6v6h-6zM771 387h6v6h-6zM807 387h6v6h-6zM783 399h6v6h-6zM795 399h6v6h-6zM771 423h6v6h-6zM807 423h6v6h-6zM879 387h6v6h-6zM903 387h6v6h-6zM867 399h6v6h-6zM879 399h6v6h-6zM891 411h6v6h-6zM903 411h6v6h-6zM867 423h6v6h-6zM891 423h6v6h-6zM3 495h6v6h-6zM39 495h6v6h-6zM3 507h6v6h-6zM39 507h6v6h-6zM111 483h6v6h-6zM123 483h6v6h-6zM99 495h6v6h-6zM123 495h6v6h-6zM111 507h6v6h-6zM135 507h6v6h-6zM111 519h6v6h-6zM123 519h6v6h-6zM195 483h6v6h-6zM219 483h6v6h-6zM231 483h6v6h-6zM207 495h6v6h-6zM231 495h6v6h-6zM219 507h6v6h-6zM231 519h6v6h-6zM291 483h6v6h-6zM327 483h6v6h-6zM315 495h6v6h-6zM303 507h6v6h-6zM291 519h6v6h-6zM327 519h6v6h-6zM411 483h6v6h-6zM423 483h6v6h-6zM411 495h6v6h-6zM423 495h6v6h-6zM387 507h6v6h-6zM399 507h6v6h-6zM387 519h6v6h-6zM399 519h6v6h-6zM510 486h12v12h-12zM558 486h12v12h-12zM486 510h12v12h-12zM510 510h12v12h-12zM534 534h12v12h-12zM558 534h12v12h-12zM486 558h12v12h-12zM534 558h12v12h-12zM630 486h12v12h-12zM654 486h12v12h-12zM630 510h12v12h-12zM654 510h12v12h-12zM582 534h12v12h-12zM606 534h12v12h-12zM582 558h12v12h-12zM606 558h12v12h-12zM678 486h12v12h-12zM750 486h12v12h-12zM702 510h12v12h-12zM726 510h12v12h-12zM678 558h12v12h-12zM750 558h12v12h-12zM774 510h12v12h-12zM846 510h12v12h-12zM774 534h12v12h-12zM846 534h12v12h-12zM894 486h12v12h-12zM870 510h12v12h-12zM942 534h12v12h-12zM918 558h12v12h-12zM3 579h6v6h-6zM27 579h6v6h-6zM39 591h6v6h-6zM3 603h6v6h-6zM15 615h6v6h-6zM39 615h6v6h-6zM123 579h6v6h-6zM135 579h6v6h-6zM99 615h6v6h-6zM111 615h6v6h-6zM195 591h6v6h-6zM207 591h6v6h-6zM195 603h6v6h-6zM231 603h6v6h-6zM291 579h6v6h-6zM327 579h6v6h-6zM303 603h6v6h-6zM315 603h6v6h-6zM291 615h6v6h-6zM327 615h6v6h-6zM399 591h6v6h-6zM411 591h6v6h-6zM399 603h6v6h-6zM411 603h6v6h-6zM486 582h12v12h-12zM534 582h12v12h-12zM558 606h12v12h-12zM486 630h12v12h-12zM510 654h12v12h-12zM558 654h12v12h-12zM630 582h12v12h-12zM654 582h12v12h-12zM630 606h12v12h-12zM654 606h12v12h-12zM582 630h12v12h-12zM606 630h12v12h-12zM582 654h12v12h-12zM606 654h12v12h-12zM678 582h12v12h-12zM726 582h12v12h-12zM750 606h12v12h-12zM678 630h12v12h-12zM702 654h12v12h-12zM750 654h12v12h-12zM798 582h12v12h-12zM822 630h12v12h-12zM798 654h12v12h-12zM822 654h12v12h-12zM870 582h12v12h-12zM918 582h12v12h-12zM942 606h12v12h-12zM870 630h12v12h-12zM894 654h12v12h-12zM942 654h12v12h-12zM39 675h6v6h-6zM27 687h6v6h-6zM15 699h6v6h-6zM3 711h6v6h-6zM123 675h6v6h-6zM135 675h6v6h-6zM99 711h6v6h-6zM111 711h6v6h-6zM207 675h6v6h-6zM195 687h6v6h-6zM231 699h6v6h-6zM219 711h6v6h-6zM315 675h6v6h-6zM327 675h6v6h-6zM315 687h6v6h-6zM327 687h6v6h-6zM291 699h6v6h-6zM303 699h6v6h-6zM291 711h6v6h-6zM303 711h6v6h-6zM399 675h6v6h-6zM387 687h6v6h-6zM423 699h6v6h-6zM411 711h6v6h-6zM486 702h12v12h-12zM510 702h12v12h-12zM486 726h12v12h-12zM558 726h12v12h-12zM606 702h12v12h-12zM630 702h12v12h-12zM606 726h12v12h-12zM630 726h12v12h-12zM678 678h12v12h-12zM750 678h12v12h-12zM702 702h12v12h-12zM726 702h12v12h-12zM678 750h12v12h-12zM750 750h12v12h-12zM774 678h12v12h-12zM798 702h12v12h-12zM822 726h12v12h-12zM846 750h12v12h-12zM894 678h12v12h-12zM942 678h12v12h-12zM870 702h12v12h-12zM918 702h12v12h-12zM894 726h12v12h-12zM942 726h12v12h-12zM870 750h12v12h-12zM918 750h12v12h-12zM15 771h6v6h-6zM39 771h6v6h-6zM3 783h6v6h-6zM27 783h6v6h-6zM15 795h6v6h-6zM39 795h6v6h-6zM3 807h6v6h-6zM27 807h6v6h-6zM99 771h6v6h-6zM123 771h6v6h-6zM123 783h6v6h-6zM135 783h6v6h-6zM99 795h6v6h-6zM111 795h6v6h-6zM111 807h6v6h-6zM135 807h6v6h-6zM207 771h6v6h-6zM195 783h6v6h-6zM231 795h6v6h-6zM219 807h6v6h-6zM315 771h6v6h-6zM315 783h6v6h-6zM327 783h6v6h-6zM291 795h6v6h-6zM303 795h6v6h-6zM303 807h6v6h-6zM411 771h6v6h-6zM399 783h6v6h-6zM423 783h6v6h-6zM387 795h6v6h-6zM411 795h6v6h-6zM399 807h6v6h-6zM486 774h12v12h-12zM534 774h12v12h-12zM558 774h12v12h-12zM510 798h12v12h-12zM558 798h12v12h-12zM534 822h12v12h-12zM558 846h12v12h-12zM654 774h12v12h-12zM654 798h12v12h-12zM582 822h12v12h-12zM582 846h12v12h-12zM678 774h12v12h-12zM750 774h12v12h-12zM678 846h12v12h-12zM750 846h12v12h-12zM798 774h12v12h-12zM846 774h12v12h-12zM774 798h12v12h-12zM846 822h12v12h-12zM774 846h12v12h-12zM822 846h12v12h-12zM942 918h12v12h-12zM894 774h12v12h-12zM918 774h12v12h-12zM894 798h12v12h-12zM942 798h12v12h-12zM870 822h12v12h-12zM918 822h12v12h-12zM894 846h12v12h-12zM918 846h12v12h-12zM3 867h6v6h-6zM39 867h6v6h-6zM3 891h6v6h-6zM39 891h6v6h-6zM111 867h6v6h-6zM123 867h6v6h-6zM123 879h6v6h-6zM111 903h6v6h-6zM219 867h6v6h-6zM231 879h6v6h-6zM195 891h6v6h-6zM207 903h6v6h-6zM303 867h6v6h-6zM291 879h6v6h-6zM315 879h6v6h-6zM327 879h6v6h-6zM291 891h6v6h-6zM303 891h6v6h-6zM327 891h6v6h-6zM315 903h6v6h-6zM387 867h6v6h-6zM423 867h6v6h-6zM399 879h6v6h-6zM411 879h6v6h-6zM387 903h6v6h-6zM423 903h6v6h-6zM486 870h12v12h-12zM558 870h12v12h-12zM510 894h12v12h-12zM534 894h12v12h-12zM486 942h12v12h-12zM558 942h12v12h-12zM582 870h12v12h-12zM630 870h12v12h-12zM654 870h12v12h-12zM606 894h12v12h-12zM654 894h12v12h-12zM630 918h12v12h-12zM654 942h12v12h-12zM678 870h12v12h-12zM750 870h12v12h-12zM726 894h12v12h-12zM702 918h12v12h-12zM726 918h12v12h-12zM678 942h12v12h-12zM750 942h12v12h-12zM774 870h12v12h-12zM846 870h12v12h-12zM798 894h12v12h-12zM822 894h12v12h-12zM822 918h12v12h-12zM774 942h12v12h-12zM846 942h12v12h-12zM870 870h12v12h-12zM918 870h12v12h-12zM942 894h12v12h-12zM870 918h12v12h-12zM894 942h12v12h-12zM942 942h12v12h-12zM507 147h6v6h-6zM519 147h6v6h-6zM507 159h6v6h-6zM519 159h6v6h-6zM483 171h6v6h-6zM495 171h6v6h-6zM483 183h6v6h-6zM495 183h6v6h-6zM699 243h6v6h-6zM699 255h6v6h-6zM711 255h6v6h-6zM675 267h6v6h-6zM687 267h6v6h-6zM687 279h6v6h-6zM543 51h6v6h-6zM531 63h6v6h-6zM555 63h6v6h-6zM567 63h6v6h-6zM531 75h6v6h-6zM543 75h6v6h-6zM567 75h6v6h-6zM555 87h6v6h-6zM723 399h6v6h-6zM759 399h6v6h-6zM723 411h6v6h-6zM759 411h6v6h-6zM651 339h6v6h-6zM651 351h6v6h-6zM663 351h6v6h-6zM627 363h6v6h-6zM639 363h6v6h-6zM639 375h6v6h-6zM483 243h6v6h-6zM507 243h6v6h-6zM495 255h6v6h-6zM519 255h6v6h-6zM483 267h6v6h-6zM507 267h6v6h-6zM495 279h6v6h-6zM519 279h6v6h-6zM741 117h6v6h-6zM639 147h6v6h-6zM663 147h6v6h-6zM627 159h6v6h-6zM651 159h6v6h-6zM639 171h6v6h-6zM663 171h6v6h-6zM627 183h6v6h-6zM651 183h6v6h-6zM447 591h6v6h-6zM459 591h6v6h-6zM447 603h6v6h-6zM459 603h6v6h-6zM837 117h6v6h-6zM927 387h6v6h-6zM951 387h6v6h-6zM915 399h6v6h-6zM927 399h6v6h-6zM939 411h6v6h-6zM951 411h6v6h-6zM915 423h6v6h-6zM939 423h6v6h-6zM555 99h6v6h-6zM567 99h6v6h-6zM555 111h6v6h-6zM567 111h6v6h-6zM531 123h6v6h-6zM543 123h6v6h-6zM531 135h6v6h-6zM543 135h6v6h-6zM291 531h6v6h-6zM327 531h6v6h-6zM315 543h6v6h-6zM303 555h6v6h-6zM291 567h6v6h-6zM327 567h6v6h-6zM555 195h6v6h-6zM567 195h6v6h-6zM555 207h6v6h-6zM567 207h6v6h-6zM531 219h6v6h-6zM543 219h6v6h-6zM531 231h6v6h-6zM543 231h6v6h-6zM243 483h6v6h-6zM279 483h6v6h-6zM267 495h6v6h-6zM255 507h6v6h-6zM243 519h6v6h-6zM279 519h6v6h-6zM171 627h6v6h-6zM183 627h6v6h-6zM147 663h6v6h-6zM159 663h6v6h-6zM3 915h6v6h-6zM39 915h6v6h-6zM3 939h6v6h-6zM39 939h6v6h-6zM339 579h6v6h-6zM375 579h6v6h-6zM351 603h6v6h-6zM363 603h6v6h-6zM339 615h6v6h-6zM375 615h6v6h-6zM207 723h6v6h-6zM195 735h6v6h-6zM231 747h6v6h-6zM219 759h6v6h-6zM339 531h6v6h-6zM375 531h6v6h-6zM363 543h6v6h-6zM351 555h6v6h-6zM339 567h6v6h-6zM375 567h6v6h-6zM879 435h6v6h-6zM867 447h6v6h-6zM903 459h6v6h-6zM891 471h6v6h-6zM915 3h6v6h-6zM927 3h6v6h-6zM939 39h6v6h-6zM951 39h6v6h-6zM831 243h6v6h-6zM843 267h6v6h-6zM831 279h6v6h-6zM843 279h6v6h-6zM171 579h6v6h-6zM183 579h6v6h-6zM147 615h6v6h-6zM159 615h6v6h-6zM639 3h6v6h-6zM627 15h6v6h-6zM651 15h6v6h-6zM663 15h6v6h-6zM627 27h6v6h-6zM639 27h6v6h-6zM663 27h6v6h-6zM651 39h6v6h-6zM459 483h6v6h-6zM471 483h6v6h-6zM459 495h6v6h-6zM471 495h6v6h-6zM435 507h6v6h-6zM447 507h6v6h-6zM435 519h6v6h-6zM447 519h6v6h-6zM123 723h6v6h-6zM135 723h6v6h-6zM99 759h6v6h-6zM111 759h6v6h-6zM411 723h6v6h-6zM399 735h6v6h-6zM423 735h6v6h-6zM387 747h6v6h-6zM411 747h6v6h-6zM399 759h6v6h-6zM75 627h6v6h-6zM87 627h6v6h-6zM51 663h6v6h-6zM63 663h6v6h-6zM735 3h6v6h-6zM747 3h6v6h-6zM723 15h6v6h-6zM747 15h6v6h-6zM735 27h6v6h-6zM759 27h6v6h-6zM735 39h6v6h-6zM747 39h6v6h-6z"/><path fill="#fff" d="M432 48h48v48h-48zM432 96h48v48h-48zM432 144h48v48h-48zM432 192h48v48h-48zM432 240h48v48h-48zM432 288h48v48h-48zM384 96h48v48h-48zM336 144h48v48h-48zM288 192h48v48h-48zM240 240h48v48h-48zM192 288h48v48h-48zM144 336h48v48h-48zM96 384h48v48h-48zM48 432h48v48h-48zM240 192h48v48h-48zM240 144h48v48h-48zM192 192h48v48h-48zM192 144h48v48h-48zM288 144h48v48h-48zM384 144h48v48h-48zM384 192h48v48h-48zM336 240h48v48h-48zM288 288h48v48h-48zM144 144h48v48h-48zM96 96h48v48h-48zM48 48h48v48h-48zM48 96h48v48h-48zM48 144h48v48h-48zM48 192h48v48h-48zM48 240h48v48h-48zM48 288h48v48h-48zM48 336h48v48h-48zM96 288h48v48h-48zM144 240h48v48h-48zM144 96h48v48h-48zM96 48h48v48h-48zM144 48h48v48h-48zM192 48h48v48h-48zM240 48h48v48h-48zM240 96h48v48h-48zM288 240h48v48h-48zM384 240h48v48h-48zM288 96h48v48h-48zM192 0h48v48h-48zM480 288h48v48h-48zM480 240h48v48h-48zM480 192h48v48h-48zM480 144h48v48h-48zM528 96h48v48h-48zM576 48h48v48h-48zM624 0h48v48h-48zM672 48h48v48h-48zM720 96h48v48h-48zM768 144h48v48h-48zM816 192h48v48h-48zM864 144h48v48h-48zM912 96h48v48h-48zM912 48h48v48h-48zM912 0h48v48h-48zM864 48h48v48h-48zM816 96h48v48h-48zM720 192h48v48h-48zM672 240h48v48h-48zM624 288h48v48h-48zM576 336h48v48h-48zM576 288h48v48h-48zM624 240h48v48h-48zM672 192h48v48h-48zM720 144h48v48h-48zM768 96h48v48h-48zM816 48h48v48h-48zM528 336h48v48h-48zM864 0h48v48h-48zM864 96h48v48h-48zM864 192h48v48h-48zM816 144h48v48h-48zM816 240h48v48h-48zM816 288h48v48h-48zM816 336h48v48h-48zM816 384h48v48h-48zM816 432h48v48h-48zM864 384h48v48h-48zM912 432h48v48h-48zM912 384h48v48h-48zM912 336h48v48h-48zM912 288h48v48h-48zM912 240h48v48h-48zM912 192h48v48h-48zM912 144h48v48h-48zM768 0h48v48h-48zM432 864h48v48h-48zM432 816h48v48h-48zM432 768h48v48h-48zM432 720h48v48h-48zM432 672h48v48h-48zM432 624h48v48h-48zM384 816h48v48h-48zM336 768h48v48h-48zM288 720h48v48h-48zM240 672h48v48h-48zM192 624h48v48h-48zM144 576h48v48h-48zM96 528h48v48h-48zM48 480h48v48h-48zM240 720h48v48h-48zM240 768h48v48h-48zM192 720h48v48h-48zM192 768h48v48h-48zM288 768h48v48h-48zM384 768h48v48h-48zM384 720h48v48h-48zM336 672h48v48h-48zM288 624h48v48h-48zM144 768h48v48h-48zM96 816h48v48h-48zM48 864h48v48h-48zM48 816h48v48h-48zM48 768h48v48h-48zM48 720h48v48h-48zM48 672h48v48h-48zM48 624h48v48h-48zM48 576h48v48h-48zM96 624h48v48h-48zM144 672h48v48h-48zM144 816h48v48h-48zM96 864h48v48h-48zM144 864h48v48h-48zM192 864h48v48h-48zM240 864h48v48h-48zM240 816h48v48h-48zM288 672h48v48h-48zM384 672h48v48h-48zM288 816h48v48h-48zM192 912h48v48h-48zM480 624h48v48h-48zM480 672h48v48h-48zM480 720h48v48h-48zM480 768h48v48h-48zM528 816h48v48h-48zM576 864h48v48h-48zM624 912h48v48h-48zM672 864h48v48h-48zM720 816h48v48h-48zM768 768h48v48h-48zM816 720h48v48h-48zM864 768h48v48h-48zM912 816h48v48h-48zM912 864h48v48h-48zM912 912h48v48h-48zM864 864h48v48h-48zM816 816h48v48h-48zM720 720h48v48h-48zM672 672h48v48h-48zM624 624h48v48h-48zM576 576h48v48h-48zM576 624h48v48h-48zM624 672h48v48h-48zM672 720h48v48h-48zM720 768h48v48h-48zM768 816h48v48h-48zM816 864h48v48h-48zM528 576h48v48h-48zM864 912h48v48h-48zM864 816h48v48h-48zM864 720h48v48h-48zM816 768h48v48h-48zM816 672h48v48h-48zM816 624h48v48h-48zM816 576h48v48h-48zM816 528h48v48h-48zM816 480h48v48h-48zM864 528h48v48h-48zM912 480h48v48h-48zM912 528h48v48h-48zM912 576h48v48h-48zM912 624h48v48h-48zM912 672h48v48h-48zM912 720h48v48h-48zM912 768h48v48h-48zM768 912h48v48h-48z"/></svg>