<svg xmlns="http://www.w3.org/2000/svg" width="960" height="960" viewBox="0 0 960 960" shape-rendering="crispEdges"><path fill="#fff" d="M0 0h960v960h-960z"/><path fill="#35b1a4" d="M0 0h48v48h-48zM0 192h48v48h-48zM0 384h48v48h-48zM48 48h48v48h-48zM48 240h48v48h-48zM48 432h48v48h-48zM96 96h48v48h-48zM96 288h48v48h-48zM144 144h48v48h-48zM144 336h48v48h-48zM192 0h48v48h-48zM192 192h48v48h-48zM192 384h48v48h-48zM240 48h48v48h-48zM240 240h48v48h-48zM240 432h48v48h-48zM288 96h48v48h-48zM288 288h48v48h-48zM336 144h48v48h-48zM336 336h48v48h-48zM384 0h48v48h-48zM384 192h48v48h-48zM384 384h48v48h-48zM432 48h48v48h-48zM432 240h48v48h-48zM432 432h48v48h-48zM480 96h48v48h-48zM480 288h48v48h-48zM528 144h48v48h-48zM528 336h48v48h-48zM576 0h48v48h-48zM576 192h48v48h-48zM576 384h48v48h-48zM624 48h48v48h-48zM624 240h48v48h-48zM624 432h48v48h-48zM672 96h48v48h-48zM672 288h48v48h-48zM720 144h48v48h-48zM720 336h48v48h-48zM768 0h48v48h-48zM768 192h48v48h-48zM768 384h48v48h-48zM816 48h48v48h-48zM816 240h48v48h-48zM816 432h48v48h-48zM864 96h48v48h-48zM864 288h48v48h-48zM912 144h48v48h-48zM912 336h48v48h-48z"/><path fill="#9a9184" d="M0 0h24v24h-24zM72 0h24v24h-24zM24 24h24v24h-24zM48 24h24v24h-24zM0 48h24v24h-24zM72 48h24v24h-24zM102 6h12v12h-12zM126 30h12v12h-12zM150 54h12v12h-12zM174 78h12v12h-12zM222 6h12v12h-12zM270 6h12v12h-12zM198 30h12v12h-12zM222 30h12v12h-12zM246 54h12v12h-12zM270 54h12v12h-12zM198 78h12v12h-12zM246 78h12v12h-12zM294 6h12v12h-12zM366 6h12v12h-12zM318 30h12v12h-12zM342 30h12v12h-12zM342 54h12v12h-12zM294 78h12v12h-12zM366 78h12v12h-12zM393 0h6v24h-6zM384 9h24v6h-24zM465 0h6v24h-6zM456 9h24v6h-24zM441 24h6v24h-6zM432 33h24v6h-24zM417 48h6v24h-6zM408 57h24v6h-24zM393 72h6v24h-6zM384 81h24v6h-24zM465 72h6v24h-6zM456 81h24v6h-24zM489 0h6v24h-6zM480 9h24v6h-24zM561 0h6v24h-6zM552 9h24v6h-24zM513 24h6v24h-6zM504 33h24v6h-24zM537 48h6v24h-6zM528 57h24v6h-24zM489 72h6v24h-6zM480 81h24v6h-24zM561 72h6v24h-6zM552 81h24v6h-24zM606 6h12v12h-12zM654 6h12v12h-12zM582 30h12v12h-12zM654 54h12v12h-12zM582 78h12v12h-12zM630 78h12v12h-12zM720 0h24v24h-24zM720 24h24v24h-24zM744 24h24v24h-24zM672 48h24v24h-24zM696 48h24v24h-24zM696 72h24v24h-24zM768 0h24v24h-24zM816 0h24v24h-24zM816 24h24v24h-24zM840 24h24v24h-24zM768 48h24v24h-24zM792 48h24v24h-24zM792 72h24v24h-24zM840 72h24v24h-24zM888 0h24v24h-24zM936 0h24v24h-24zM912 24h24v24h-24zM912 48h24v24h-24zM888 72h24v24h-24zM936 72h24v24h-24zM6 102h12v12h-12zM54 102h12v12h-12zM78 126h12v12h-12zM6 150h12v12h-12zM30 174h12v12h-12zM78 174h12v12h-12zM105 120h6v24h-6zM96 129h24v6h-24zM177 120h6v24h-6zM168 129h24v6h-24zM105 144h6v24h-6zM96 153h24v6h-24zM129 144h6v24h-6zM120 153h24v6h-24zM222 102h12v12h-12zM270 102h12v12h-12zM198 126h12v12h-12zM222 126h12v12h-12zM246 150h12v12h-12zM270 150h12v12h-12zM198 174h12v12h-12zM246 174h12v12h-12zM312 96h24v24h-24zM288 120h24v24h-24zM336 120h24v24h-24zM312 144h24v24h-24zM360 144h24v24h-24zM336 168h24v24h-24zM408 96h24v24h-24zM384 120h24v24h-24zM408 120h24v24h-24zM432 144h24v24h-24zM456 144h24v24h-24zM432 168h24v24h-24zM489 96h6v24h-6zM480 105h24v6h-24zM513 96h6v24h-6zM504 105h24v6h-24zM561 96h6v24h-6zM552 105h24v6h-24zM489 120h6v24h-6zM480 129h24v6h-24zM537 120h6v24h-6zM528 129h24v6h-24zM513 144h6v24h-6zM504 153h24v6h-24zM489 168h6v24h-6zM480 177h24v6h-24zM582 102h12v12h-12zM606 102h12v12h-12zM654 102h12v12h-12zM582 126h12v12h-12zM630 126h12v12h-12zM606 150h12v12h-12zM582 174h12v12h-12zM705 96h6v24h-6zM696 105h24v6h-24zM729 96h6v24h-6zM720 105h24v6h-24zM729 120h6v24h-6zM720 129h24v6h-24zM705 168h6v24h-6zM696 177h24v6h-24zM774 102h12v12h-12zM846 102h12v12h-12zM798 126h12v12h-12zM822 126h12v12h-12zM774 174h12v12h-12zM846 174h12v12h-12zM906 138h12v12h-12zM9 192h6v24h-6zM0 201h24v6h-24zM81 192h6v24h-6zM72 201h24v6h-24zM33 216h6v24h-6zM24 225h24v6h-24zM57 216h6v24h-6zM48 225h24v6h-24zM9 240h6v24h-6zM0 249h24v6h-24zM81 240h6v24h-6zM72 249h24v6h-24zM105 192h6v24h-6zM96 201h24v6h-24zM177 192h6v24h-6zM168 201h24v6h-24zM129 216h6v24h-6zM120 225h24v6h-24zM153 216h6v24h-6zM144 225h24v6h-24zM105 240h6v24h-6zM96 249h24v6h-24zM177 240h6v24h-6zM168 249h24v6h-24zM201 192h6v24h-6zM192 201h24v6h-24zM273 192h6v24h-6zM264 201h24v6h-24zM225 216h6v24h-6zM216 225h24v6h-24zM249 216h6v24h-6zM240 225h24v6h-24zM201 240h6v24h-6zM192 249h24v6h-24zM273 240h6v24h-6zM264 249h24v6h-24zM336 192h24v24h-24zM288 216h24v24h-24zM312 216h24v24h-24zM360 216h24v24h-24zM288 240h24v24h-24zM336 240h24v24h-24zM360 240h24v24h-24zM312 264h24v24h-24zM393 192h6v24h-6zM384 201h24v6h-24zM417 192h6v24h-6zM408 201h24v6h-24zM441 264h6v24h-6zM432 273h24v6h-24zM465 264h6v24h-6zM456 273h24v6h-24zM480 192h24v24h-24zM504 192h24v24h-24zM528 264h24v24h-24zM552 264h24v24h-24zM600 192h24v24h-24zM624 192h24v24h-24zM600 264h24v24h-24zM624 264h24v24h-24zM726 198h12v12h-12zM750 198h12v12h-12zM726 222h12v12h-12zM750 222h12v12h-12zM678 246h12v12h-12zM702 246h12v12h-12zM678 270h12v12h-12zM702 270h12v12h-12zM777 192h6v24h-6zM768 201h24v6h-24zM801 192h6v24h-6zM792 201h24v6h-24zM849 192h6v24h-6zM840 201h24v6h-24zM777 216h6v24h-6zM768 225h24v6h-24zM825 216h6v24h-6zM816 225h24v6h-24zM801 240h6v24h-6zM792 249h24v6h-24zM777 264h6v24h-6zM768 273h24v6h-24zM888 192h24v24h-24zM936 192h24v24h-24zM888 264h24v24h-24zM936 264h24v24h-24zM24 288h24v24h-24zM72 288h24v24h-24zM0 312h24v24h-24zM48 312h24v24h-24zM24 336h24v24h-24zM72 336h24v24h-24zM0 360h24v24h-24zM48 360h24v24h-24zM129 288h6v24h-6zM120 297h24v6h-24zM105 312h6v24h-6zM96 321h24v6h-24zM129 312h6v24h-6zM120 321h24v6h-24zM153 336h6v24h-6zM144 345h24v6h-24zM177 336h6v24h-6zM168 345h24v6h-24zM153 360h6v24h-6zM144 369h24v6h-24zM201 288h6v24h-6zM192 297h24v6h-24zM273 288h6v24h-6zM264 297h24v6h-24zM201 360h6v24h-6zM192 369h24v6h-24zM273 360h6v24h-6zM264 369h24v6h-24zM288 288h24v24h-24zM312 312h24v24h-24zM288 336h24v24h-24zM336 336h24v24h-24zM288 360h24v24h-24zM312 360h24v24h-24zM360 360h24v24h-24zM456 288h24v24h-24zM432 312h24v24h-24zM408 336h24v24h-24zM456 336h24v24h-24zM384 360h24v24h-24zM432 360h24v24h-24zM456 360h24v24h-24zM480 288h24v24h-24zM504 312h24v24h-24zM528 336h24v24h-24zM552 360h24v24h-24zM624 288h24v24h-24zM648 312h24v24h-24zM576 336h24v24h-24zM600 360h24v24h-24zM744 288h24v24h-24zM720 312h24v24h-24zM696 336h24v24h-24zM744 336h24v24h-24zM672 360h24v24h-24zM720 360h24v24h-24zM744 360h24v24h-24zM822 294h12v12h-12zM846 318h12v12h-12zM774 342h12v12h-12zM798 366h12v12h-12zM873 288h6v24h-6zM864 297h24v6h-24zM897 312h6v24h-6zM888 321h24v6h-24zM921 336h6v24h-6zM912 345h24v6h-24zM945 360h6v24h-6zM936 369h24v6h-24zM0 384h24v24h-24zM24 384h24v24h-24zM48 456h24v24h-24zM72 456h24v24h-24zM102 390h12v12h-12zM174 390h12v12h-12zM126 414h12v12h-12zM150 414h12v12h-12zM126 438h12v12h-12zM102 462h12v12h-12zM174 462h12v12h-12zM264 384h24v24h-24zM240 408h24v24h-24zM216 432h24v24h-24zM192 456h24v24h-24zM312 384h24v24h-24zM336 384h24v24h-24zM288 408h24v24h-24zM336 408h24v24h-24zM312 432h24v24h-24zM360 432h24v24h-24zM312 456h24v24h-24zM336 456h24v24h-24zM390 390h12v12h-12zM462 390h12v12h-12zM414 414h12v12h-12zM438 414h12v12h-12zM390 462h12v12h-12zM462 462h12v12h-12zM480 384h24v24h-24zM504 384h24v24h-24zM480 408h24v24h-24zM504 408h24v24h-24zM528 432h24v24h-24zM552 432h24v24h-24zM528 456h24v24h-24zM552 456h24v24h-24zM582 414h12v12h-12zM606 414h12v12h-12zM582 438h12v12h-12zM654 438h12v12h-12zM672 384h24v24h-24zM696 384h24v24h-24zM672 408h24v24h-24zM696 408h24v24h-24zM720 432h24v24h-24zM744 432h24v24h-24zM720 456h24v24h-24zM744 456h24v24h-24zM801 384h6v24h-6zM792 393h24v6h-24zM777 408h6v24h-6zM768 417h24v6h-24zM801 408h6v24h-6zM792 417h24v6h-24zM825 432h6v24h-6zM816 441h24v6h-24zM849 432h6v24h-6zM840 441h24v6h-24zM825 456h6v24h-6zM816 465h24v6h-24zM918 390h12v12h-12zM942 414h12v12h-12zM870 438h12v12h-12zM894 462h12v12h-12zM9 480h6v24h-6zM0 489h24v6h-24zM81 480h6v24h-6zM72 489h24v6h-24zM9 552h6v24h-6zM0 561h24v6h-24zM81 552h6v24h-6zM72 561h24v6h-24zM102 510h12v12h-12zM174 510h12v12h-12zM102 534h12v12h-12zM126 534h12v12h-12zM201 480h6v24h-6zM192 489h24v6h-24zM225 504h6v24h-6zM216 513h24v6h-24zM249 528h6v24h-6zM240 537h24v6h-24zM273 552h6v24h-6zM264 561h24v6h-24zM321 480h6v24h-6zM312 489h24v6h-24zM369 480h6v24h-6zM360 489h24v6h-24zM297 504h6v24h-6zM288 513h24v6h-24zM369 528h6v24h-6zM360 537h24v6h-24zM297 552h6v24h-6zM288 561h24v6h-24zM345 552h6v24h-6zM336 561h24v6h-24zM438 486h12v12h-12zM390 510h12v12h-12zM414 510h12v12h-12zM462 510h12v12h-12zM390 534h12v12h-12zM438 534h12v12h-12zM462 534h12v12h-12zM414 558h12v12h-12zM552 624h24v24h-24zM504 480h24v24h-24zM528 480h24v24h-24zM504 504h24v24h-24zM552 504h24v24h-24zM480 528h24v24h-24zM528 528h24v24h-24zM504 552h24v24h-24zM528 552h24v24h-24zM585 480h6v24h-6zM576 489h24v6h-24zM657 480h6v24h-6zM648 489h24v6h-24zM609 504h6v24h-6zM600 513h24v6h-24zM633 504h6v24h-6zM624 513h24v6h-24zM609 528h6v24h-6zM600 537h24v6h-24zM633 528h6v24h-6zM624 537h24v6h-24zM585 552h6v24h-6zM576 561h24v6h-24zM657 552h6v24h-6zM648 561h24v6h-24zM702 486h12v12h-12zM750 486h12v12h-12zM702 558h12v12h-12zM750 558h12v12h-12zM822 486h12v12h-12zM846 486h12v12h-12zM822 510h12v12h-12zM846 510h12v12h-12zM774 534h12v12h-12zM798 534h12v12h-12zM774 558h12v12h-12zM798 558h12v12h-12zM873 504h6v24h-6zM864 513h24v6h-24zM897 504h6v24h-6zM888 513h24v6h-24zM873 528h6v24h-6zM864 537h24v6h-24zM945 528h6v24h-6zM936 537h24v6h-24zM9 576h6v24h-6zM0 585h24v6h-24zM81 576h6v24h-6zM72 585h24v6h-24zM57 600h6v24h-6zM48 609h24v6h-24zM33 624h6v24h-6zM24 633h24v6h-24zM57 624h6v24h-6zM48 633h24v6h-24zM9 648h6v24h-6zM0 657h24v6h-24zM81 648h6v24h-6zM72 657h24v6h-24zM105 576h6v24h-6zM96 585h24v6h-24zM177 576h6v24h-6zM168 585h24v6h-24zM129 600h6v24h-6zM120 609h24v6h-24zM129 624h6v24h-6zM120 633h24v6h-24zM153 624h6v24h-6zM144 633h24v6h-24zM105 648h6v24h-6zM96 657h24v6h-24zM177 648h6v24h-6zM168 657h24v6h-24zM201 576h6v24h-6zM192 585h24v6h-24zM225 576h6v24h-6zM216 585h24v6h-24zM201 600h6v24h-6zM192 609h24v6h-24zM225 600h6v24h-6zM216 609h24v6h-24zM249 624h6v24h-6zM240 633h24v6h-24zM273 624h6v24h-6zM264 633h24v6h-24zM249 648h6v24h-6zM240 657h24v6h-24zM273 648h6v24h-6zM264 657h24v6h-24zM288 576h24v24h-24zM360 576h24v24h-24zM312 600h24v24h-24zM336 600h24v24h-24zM288 648h24v24h-24zM360 648h24v24h-24zM456 576h24v24h-24zM432 600h24v24h-24zM408 624h24v24h-24zM384 648h24v24h-24zM510 582h12v12h-12zM534 582h12v12h-12zM534 606h12v12h-12zM510 654h12v12h-12zM576 600h24v24h-24zM600 600h24v24h-24zM576 624h24v24h-24zM648 624h24v24h-24zM696 576h24v24h-24zM672 600h24v24h-24zM720 600h24v24h-24zM696 624h24v24h-24zM744 624h24v24h-24zM720 648h24v24h-24zM777 576h6v24h-6zM768 585h24v6h-24zM801 600h6v24h-6zM792 609h24v6h-24zM825 624h6v24h-6zM816 633h24v6h-24zM849 648h6v24h-6zM840 657h24v6h-24zM888 576h24v24h-24zM864 600h24v24h-24zM888 600h24v24h-24zM912 624h24v24h-24zM936 624h24v24h-24zM912 648h24v24h-24zM72 672h24v24h-24zM72 696h24v24h-24zM0 720h24v24h-24zM0 744h24v24h-24zM96 672h24v24h-24zM168 672h24v24h-24zM96 720h24v24h-24zM168 720h24v24h-24zM240 672h24v24h-24zM216 696h24v24h-24zM264 696h24v24h-24zM192 720h24v24h-24zM240 720h24v24h-24zM216 744h24v24h-24zM345 672h6v24h-6zM336 681h24v6h-24zM369 672h6v24h-6zM360 681h24v6h-24zM297 744h6v24h-6zM288 753h24v6h-24zM321 744h6v24h-6zM312 753h24v6h-24zM432 672h24v24h-24zM408 696h24v24h-24zM456 696h24v24h-24zM384 720h24v24h-24zM432 720h24v24h-24zM408 744h24v24h-24zM558 822h12v12h-12zM510 678h12v12h-12zM534 678h12v12h-12zM510 702h12v12h-12zM558 702h12v12h-12zM486 726h12v12h-12zM534 726h12v12h-12zM510 750h12v12h-12zM534 750h12v12h-12zM576 672h24v24h-24zM648 672h24v24h-24zM576 720h24v24h-24zM648 720h24v24h-24zM702 678h12v12h-12zM678 702h12v12h-12zM726 702h12v12h-12zM750 702h12v12h-12zM678 726h12v12h-12zM702 726h12v12h-12zM750 726h12v12h-12zM726 750h12v12h-12zM777 696h6v24h-6zM768 705h24v6h-24zM849 696h6v24h-6zM840 705h24v6h-24zM777 720h6v24h-6zM768 729h24v6h-24zM801 720h6v24h-6zM792 729h24v6h-24zM864 672h24v24h-24zM912 672h24v24h-24zM936 696h24v24h-24zM864 720h24v24h-24zM888 744h24v24h-24zM936 744h24v24h-24zM9 768h6v24h-6zM0 777h24v6h-24zM57 768h6v24h-6zM48 777h24v6h-24zM81 768h6v24h-6zM72 777h24v6h-24zM33 792h6v24h-6zM24 801h24v6h-24zM81 792h6v24h-6zM72 801h24v6h-24zM57 816h6v24h-6zM48 825h24v6h-24zM81 840h6v24h-6zM72 849h24v6h-24zM105 768h6v24h-6zM96 777h24v6h-24zM153 768h6v24h-6zM144 777h24v6h-24zM153 792h6v24h-6zM144 801h24v6h-24zM177 792h6v24h-6zM168 801h24v6h-24zM105 816h6v24h-6zM96 825h24v6h-24zM129 816h6v24h-6zM120 825h24v6h-24zM129 840h6v24h-6zM120 849h24v6h-24zM177 840h6v24h-6zM168 849h24v6h-24zM225 768h6v24h-6zM216 777h24v6h-24zM249 816h6v24h-6zM240 825h24v6h-24zM225 840h6v24h-6zM216 849h24v6h-24zM249 840h6v24h-6zM240 849h24v6h-24zM360 768h24v24h-24zM336 792h24v24h-24zM312 816h24v24h-24zM288 840h24v24h-24zM465 768h6v24h-6zM456 777h24v6h-24zM465 792h6v24h-6zM456 801h24v6h-24zM393 816h6v24h-6zM384 825h24v6h-24zM393 840h6v24h-6zM384 849h24v6h-24zM489 768h6v24h-6zM480 777h24v6h-24zM537 768h6v24h-6zM528 777h24v6h-24zM561 768h6v24h-6zM552 777h24v6h-24zM513 792h6v24h-6zM504 801h24v6h-24zM561 792h6v24h-6zM552 801h24v6h-24zM537 816h6v24h-6zM528 825h24v6h-24zM561 840h6v24h-6zM552 849h24v6h-24zM582 774h12v12h-12zM654 774h12v12h-12zM606 798h12v12h-12zM630 798h12v12h-12zM630 822h12v12h-12zM582 846h12v12h-12zM654 846h12v12h-12zM720 768h24v24h-24zM744 792h24v24h-24zM672 816h24v24h-24zM696 840h24v24h-24zM774 774h12v12h-12zM846 774h12v12h-12zM798 798h12v12h-12zM822 798h12v12h-12zM798 822h12v12h-12zM774 846h12v12h-12zM846 846h12v12h-12zM870 774h12v12h-12zM894 774h12v12h-12zM942 774h12v12h-12zM870 798h12v12h-12zM918 798h12v12h-12zM894 822h12v12h-12zM870 846h12v12h-12zM9 864h6v24h-6zM0 873h24v6h-24zM57 864h6v24h-6zM48 873h24v6h-24zM81 864h6v24h-6zM72 873h24v6h-24zM33 888h6v24h-6zM24 897h24v6h-24zM81 888h6v24h-6zM72 897h24v6h-24zM57 912h6v24h-6zM48 921h24v6h-24zM81 936h6v24h-6zM72 945h24v6h-24zM102 870h12v12h-12zM102 894h12v12h-12zM174 918h12v12h-12zM174 942h12v12h-12zM216 864h24v24h-24zM264 864h24v24h-24zM192 888h24v24h-24zM216 888h24v24h-24zM240 912h24v24h-24zM264 912h24v24h-24zM192 936h24v24h-24zM240 936h24v24h-24zM294 870h12v12h-12zM342 870h12v12h-12zM342 894h12v12h-12zM366 894h12v12h-12zM294 918h12v12h-12zM318 918h12v12h-12zM318 942h12v12h-12zM366 942h12v12h-12zM390 870h12v12h-12zM438 870h12v12h-12zM438 894h12v12h-12zM462 894h12v12h-12zM390 918h12v12h-12zM414 918h12v12h-12zM414 942h12v12h-12zM462 942h12v12h-12zM510 870h12v12h-12zM534 918h12v12h-12zM510 942h12v12h-12zM534 942h12v12h-12zM648 864h24v24h-24zM648 888h24v24h-24zM576 912h24v24h-24zM576 936h24v24h-24zM678 870h12v12h-12zM702 870h12v12h-12zM678 894h12v12h-12zM702 894h12v12h-12zM726 918h12v12h-12zM750 918h12v12h-12zM726 942h12v12h-12zM750 942h12v12h-12zM798 870h12v12h-12zM822 918h12v12h-12zM798 942h12v12h-12zM822 942h12v12h-12zM936 1008h24v24h-24zM888 864h24v24h-24zM912 864h24v24h-24zM888 888h24v24h-24zM936 888h24v24h-24zM864 912h24v24h-24zM912 912h24v24h-24zM888 936h24v24h-24zM912 936h24v24h-24z"/><path fill="#000" d="M288 672h96v96h-96zM384 576h96v96h-96zM288 576h96v96h-96zM192 480h96v96h-96zM96 384h96v96h-96zM192 384h96v96h-96zM288 384h96v96h-96zM192 288h96v96h-96zM96 192h96v96h-96zM0 96h96v96h-96zM0 0h96v96h-96zM96 96h96v96h-96zM192 192h96v96h-96zM288 288h96v96h-96zM288 192h96v96h-96zM288 96h96v96h-96zM288 0h96v96h-96zM576 672h96v96h-96zM480 576h96v96h-96zM576 576h96v96h-96zM672 480h96v96h-96zM768 384h96v96h-96zM672 384h96v96h-96zM576 384h96v96h-96zM672 288h96v96h-96zM768 192h96v96h-96zM864 96h96v96h-96zM864 0h96v96h-96zM768 96h96v96h-96zM672 192h96v96h-96zM576 288h96v96h-96zM576 192h96v96h-96zM576 96h96v96h-96zM576 0h96v96h-96z"/></svg>