<svg xmlns="http://www.w3.org/2000/svg" width="960" height="960" viewBox="0 0 960 960" shape-rendering="crispEdges"><path fill="#fff" d="M0 0h960v960h-960z"/><path fill="#e69f41" d="M0 384h96v96h-96zM0 576h96v64h-96zM96 320h96v64h-96zM96 480h96v96h-96zM192 384h96v96h-96zM192 576h96v64h-96zM288 320h96v64h-96zM288 480h96v96h-96zM384 384h96v96h-96zM384 576h96v64h-96zM480 320h96v64h-96zM480 480h96v96h-96zM576 384h96v96h-96zM576 576h96v64h-96zM672 320h96v64h-96zM672 480h96v96h-96zM768 384h96v96h-96zM768 576h96v64h-96zM864 320h96v64h-96zM864 480h96v96h-96z"/><path fill="#4c7c9e" d="M78 6h12v12h-12zM54 30h12v12h-12zM30 54h12v12h-12zM6 78h12v12h-12zM198 6h12v12h-12zM222 30h12v12h-12zM246 54h12v12h-12zM270 78h12v12h-12zM414 6h12v12h-12zM462 6h12v12h-12zM438 30h12v12h-12zM438 54h12v12h-12zM414 78h12v12h-12zM462 78h12v12h-12zM507 3h6v6h-6zM495 15h6v6h-6zM519 15h6v6h-6zM483 27h6v6h-6zM507 27h6v6h-6zM495 39h6v6h-6zM543 3h6v6h-6zM555 3h6v6h-6zM543 39h6v6h-6zM555 39h6v6h-6zM603 3h6v6h-6zM591 15h6v6h-6zM615 15h6v6h-6zM579 27h6v6h-6zM603 27h6v6h-6zM591 39h6v6h-6zM627 15h6v6h-6zM663 15h6v6h-6zM627 27h6v6h-6zM639 27h6v6h-6zM675 3h6v6h-6zM687 3h6v6h-6zM675 15h6v6h-6zM687 15h6v6h-6zM699 27h6v6h-6zM711 27h6v6h-6zM699 39h6v6h-6zM711 39h6v6h-6zM747 3h6v6h-6zM759 3h6v6h-6zM723 39h6v6h-6zM735 39h6v6h-6zM795 3h6v6h-6zM771 15h6v6h-6zM783 15h6v6h-6zM807 15h6v6h-6zM771 27h6v6h-6zM795 27h6v6h-6zM807 27h6v6h-6zM783 39h6v6h-6zM819 3h6v6h-6zM855 3h6v6h-6zM831 15h6v6h-6zM843 27h6v6h-6zM819 39h6v6h-6zM855 39h6v6h-6zM867 3h6v6h-6zM879 3h6v6h-6zM903 3h6v6h-6zM867 15h6v6h-6zM891 15h6v6h-6zM879 27h6v6h-6zM867 39h6v6h-6zM951 3h6v6h-6zM939 15h6v6h-6zM927 27h6v6h-6zM915 39h6v6h-6zM507 51h6v6h-6zM483 63h6v6h-6zM495 63h6v6h-6zM519 63h6v6h-6zM483 75h6v6h-6zM507 75h6v6h-6zM519 75h6v6h-6zM495 87h6v6h-6zM531 51h6v6h-6zM567 51h6v6h-6zM543 63h6v6h-6zM555 63h6v6h-6zM555 75h6v6h-6zM531 87h6v6h-6zM567 87h6v6h-6zM603 51h6v6h-6zM591 63h6v6h-6zM615 63h6v6h-6zM579 75h6v6h-6zM603 75h6v6h-6zM591 87h6v6h-6zM651 51h6v6h-6zM639 63h6v6h-6zM663 63h6v6h-6zM627 75h6v6h-6zM651 75h6v6h-6zM639 87h6v6h-6zM675 51h6v6h-6zM711 51h6v6h-6zM687 63h6v6h-6zM699 63h6v6h-6zM699 75h6v6h-6zM675 87h6v6h-6zM711 87h6v6h-6zM723 51h6v6h-6zM759 51h6v6h-6zM735 63h6v6h-6zM747 63h6v6h-6zM747 75h6v6h-6zM723 87h6v6h-6zM759 87h6v6h-6zM771 51h6v6h-6zM795 51h6v6h-6zM783 63h6v6h-6zM807 63h6v6h-6zM771 75h6v6h-6zM795 75h6v6h-6zM783 87h6v6h-6zM807 87h6v6h-6zM819 51h6v6h-6zM855 51h6v6h-6zM831 63h6v6h-6zM843 63h6v6h-6zM819 87h6v6h-6zM855 87h6v6h-6zM867 51h6v6h-6zM903 51h6v6h-6zM879 63h6v6h-6zM879 75h6v6h-6zM891 75h6v6h-6zM867 87h6v6h-6zM903 87h6v6h-6zM951 51h6v6h-6zM951 63h6v6h-6zM915 75h6v6h-6zM915 87h6v6h-6zM501 117h6v6h-6zM531 99h6v6h-6zM567 99h6v6h-6zM543 111h6v6h-6zM543 123h6v6h-6zM555 123h6v6h-6zM531 135h6v6h-6zM567 135h6v6h-6zM591 99h6v6h-6zM603 99h6v6h-6zM579 111h6v6h-6zM603 111h6v6h-6zM591 123h6v6h-6zM615 123h6v6h-6zM591 135h6v6h-6zM603 135h6v6h-6zM663 171h6v6h-6zM639 99h6v6h-6zM651 99h6v6h-6zM639 111h6v6h-6zM663 111h6v6h-6zM627 123h6v6h-6zM651 123h6v6h-6zM639 135h6v6h-6zM651 135h6v6h-6zM711 99h6v6h-6zM699 111h6v6h-6zM687 123h6v6h-6zM675 135h6v6h-6zM723 99h6v6h-6zM759 99h6v6h-6zM735 111h6v6h-6zM747 111h6v6h-6zM747 123h6v6h-6zM723 135h6v6h-6zM759 135h6v6h-6zM795 99h6v6h-6zM783 111h6v6h-6zM807 111h6v6h-6zM771 123h6v6h-6zM795 123h6v6h-6zM783 135h6v6h-6zM843 99h6v6h-6zM843 111h6v6h-6zM855 111h6v6h-6zM819 123h6v6h-6zM831 123h6v6h-6zM831 135h6v6h-6zM879 99h6v6h-6zM867 111h6v6h-6zM891 111h6v6h-6zM879 123h6v6h-6zM903 123h6v6h-6zM891 135h6v6h-6zM915 111h6v6h-6zM951 111h6v6h-6zM915 123h6v6h-6zM927 123h6v6h-6zM483 147h6v6h-6zM519 147h6v6h-6zM483 171h6v6h-6zM519 171h6v6h-6zM543 147h6v6h-6zM555 147h6v6h-6zM531 159h6v6h-6zM555 159h6v6h-6zM543 171h6v6h-6zM567 171h6v6h-6zM543 183h6v6h-6zM555 183h6v6h-6zM579 147h6v6h-6zM603 147h6v6h-6zM615 159h6v6h-6zM579 171h6v6h-6zM591 183h6v6h-6zM615 183h6v6h-6zM627 147h6v6h-6zM663 147h6v6h-6zM639 171h6v6h-6zM651 171h6v6h-6zM627 183h6v6h-6zM663 183h6v6h-6zM687 147h6v6h-6zM699 171h6v6h-6zM687 183h6v6h-6zM699 183h6v6h-6zM723 147h6v6h-6zM747 147h6v6h-6zM759 147h6v6h-6zM735 159h6v6h-6zM759 159h6v6h-6zM747 171h6v6h-6zM759 183h6v6h-6zM771 147h6v6h-6zM783 147h6v6h-6zM795 183h6v6h-6zM807 183h6v6h-6zM819 147h6v6h-6zM831 159h6v6h-6zM819 171h6v6h-6zM843 171h6v6h-6zM819 183h6v6h-6zM831 183h6v6h-6zM855 183h6v6h-6zM891 147h6v6h-6zM903 147h6v6h-6zM891 159h6v6h-6zM903 159h6v6h-6zM867 171h6v6h-6zM879 171h6v6h-6zM867 183h6v6h-6zM879 183h6v6h-6zM915 147h6v6h-6zM951 147h6v6h-6zM927 159h6v6h-6zM927 171h6v6h-6zM939 171h6v6h-6zM915 183h6v6h-6zM951 183h6v6h-6zM6 198h12v12h-12zM78 198h12v12h-12zM30 222h12v12h-12zM54 222h12v12h-12zM6 270h12v12h-12zM78 270h12v12h-12zM222 198h12v12h-12zM270 198h12v12h-12zM246 222h12v12h-12zM246 246h12v12h-12zM222 270h12v12h-12zM270 270h12v12h-12zM390 222h12v12h-12zM414 222h12v12h-12zM390 246h12v12h-12zM462 246h12v12h-12zM483 195h6v6h-6zM519 195h6v6h-6zM495 207h6v6h-6zM507 207h6v6h-6zM483 231h6v6h-6zM519 231h6v6h-6zM531 195h6v6h-6zM567 195h6v6h-6zM543 207h6v6h-6zM555 207h6v6h-6zM555 219h6v6h-6zM531 231h6v6h-6zM567 231h6v6h-6zM591 195h6v6h-6zM579 207h6v6h-6zM603 207h6v6h-6zM591 219h6v6h-6zM615 219h6v6h-6zM603 231h6v6h-6zM627 195h6v6h-6zM639 207h6v6h-6zM627 219h6v6h-6zM651 219h6v6h-6zM627 231h6v6h-6zM639 231h6v6h-6zM663 231h6v6h-6zM687 195h6v6h-6zM675 207h6v6h-6zM711 219h6v6h-6zM699 231h6v6h-6zM723 207h6v6h-6zM735 207h6v6h-6zM723 219h6v6h-6zM759 219h6v6h-6zM771 195h6v6h-6zM795 195h6v6h-6zM807 207h6v6h-6zM771 219h6v6h-6zM783 231h6v6h-6zM807 231h6v6h-6zM831 207h6v6h-6zM843 207h6v6h-6zM831 219h6v6h-6zM843 219h6v6h-6zM903 195h6v6h-6zM891 207h6v6h-6zM879 219h6v6h-6zM903 219h6v6h-6zM867 231h6v6h-6zM891 231h6v6h-6zM903 231h6v6h-6zM951 267h6v6h-6zM927 195h6v6h-6zM939 195h6v6h-6zM927 207h6v6h-6zM951 207h6v6h-6zM915 219h6v6h-6zM939 219h6v6h-6zM927 231h6v6h-6zM939 231h6v6h-6zM507 243h6v6h-6zM507 255h6v6h-6zM519 255h6v6h-6zM483 267h6v6h-6zM495 267h6v6h-6zM495 279h6v6h-6zM531 243h6v6h-6zM555 243h6v6h-6zM567 255h6v6h-6zM531 267h6v6h-6zM543 279h6v6h-6zM567 279h6v6h-6zM591 243h6v6h-6zM579 255h6v6h-6zM615 267h6v6h-6zM603 279h6v6h-6zM639 243h6v6h-6zM663 243h6v6h-6zM627 255h6v6h-6zM663 267h6v6h-6zM627 279h6v6h-6zM651 279h6v6h-6zM687 243h6v6h-6zM699 243h6v6h-6zM699 255h6v6h-6zM687 279h6v6h-6zM759 315h6v6h-6zM735 243h6v6h-6zM747 243h6v6h-6zM735 255h6v6h-6zM759 255h6v6h-6zM723 267h6v6h-6zM747 267h6v6h-6zM735 279h6v6h-6zM747 279h6v6h-6zM789 261h6v6h-6zM819 243h6v6h-6zM855 243h6v6h-6zM831 255h6v6h-6zM843 255h6v6h-6zM843 267h6v6h-6zM819 279h6v6h-6zM855 279h6v6h-6zM891 243h6v6h-6zM903 243h6v6h-6zM891 255h6v6h-6zM903 255h6v6h-6zM867 267h6v6h-6zM879 267h6v6h-6zM867 279h6v6h-6zM879 279h6v6h-6zM915 243h6v6h-6zM939 243h6v6h-6zM951 255h6v6h-6zM915 267h6v6h-6zM927 279h6v6h-6zM951 279h6v6h-6zM483 291h6v6h-6zM483 303h6v6h-6zM519 315h6v6h-6zM519 327h6v6h-6zM543 291h6v6h-6zM567 291h6v6h-6zM531 303h6v6h-6zM567 315h6v6h-6zM531 327h6v6h-6zM555 327h6v6h-6zM579 291h6v6h-6zM615 291h6v6h-6zM579 315h6v6h-6zM615 315h6v6h-6zM651 291h6v6h-6zM627 303h6v6h-6zM639 303h6v6h-6zM663 303h6v6h-6zM627 315h6v6h-6zM651 315h6v6h-6zM663 315h6v6h-6zM639 327h6v6h-6zM687 291h6v6h-6zM675 303h6v6h-6zM687 303h6v6h-6zM699 315h6v6h-6zM711 315h6v6h-6zM699 327h6v6h-6zM723 291h6v6h-6zM735 291h6v6h-6zM759 291h6v6h-6zM723 303h6v6h-6zM747 303h6v6h-6zM735 315h6v6h-6zM723 327h6v6h-6zM795 291h6v6h-6zM807 303h6v6h-6zM771 315h6v6h-6zM783 327h6v6h-6zM831 291h6v6h-6zM819 303h6v6h-6zM843 303h6v6h-6zM855 303h6v6h-6zM819 315h6v6h-6zM831 315h6v6h-6zM855 315h6v6h-6zM843 327h6v6h-6zM867 291h6v6h-6zM879 291h6v6h-6zM867 303h6v6h-6zM879 303h6v6h-6zM891 315h6v6h-6zM903 315h6v6h-6zM891 327h6v6h-6zM903 327h6v6h-6zM915 291h6v6h-6zM951 291h6v6h-6zM915 327h6v6h-6zM951 327h6v6h-6zM495 339h6v6h-6zM483 351h6v6h-6zM519 363h6v6h-6zM507 375h6v6h-6zM555 339h6v6h-6zM555 351h6v6h-6zM567 351h6v6h-6zM531 363h6v6h-6zM543 363h6v6h-6zM543 375h6v6h-6zM579 339h6v6h-6zM591 339h6v6h-6zM615 339h6v6h-6zM579 351h6v6h-6zM603 351h6v6h-6zM591 363h6v6h-6zM579 375h6v6h-6zM639 339h6v6h-6zM627 351h6v6h-6zM663 363h6v6h-6zM651 375h6v6h-6zM693 357h6v6h-6zM759 339h6v6h-6zM759 351h6v6h-6zM723 363h6v6h-6zM723 375h6v6h-6zM783 339h6v6h-6zM771 351h6v6h-6zM795 351h6v6h-6zM783 363h6v6h-6zM807 363h6v6h-6zM795 375h6v6h-6zM819 339h6v6h-6zM843 339h6v6h-6zM831 351h6v6h-6zM855 351h6v6h-6zM819 363h6v6h-6zM843 363h6v6h-6zM831 375h6v6h-6zM855 375h6v6h-6zM879 339h6v6h-6zM891 363h6v6h-6zM879 375h6v6h-6zM891 375h6v6h-6zM927 339h6v6h-6zM915 351h6v6h-6zM939 351h6v6h-6zM927 363h6v6h-6zM951 363h6v6h-6zM939 375h6v6h-6zM54 390h12v12h-12zM78 390h12v12h-12zM54 414h12v12h-12zM78 414h12v12h-12zM6 438h12v12h-12zM30 438h12v12h-12zM6 462h12v12h-12zM30 462h12v12h-12zM246 390h12v12h-12zM270 390h12v12h-12zM246 414h12v12h-12zM270 414h12v12h-12zM198 438h12v12h-12zM222 438h12v12h-12zM198 462h12v12h-12zM222 462h12v12h-12zM414 390h12v12h-12zM438 438h12v12h-12zM414 462h12v12h-12zM438 462h12v12h-12zM483 387h6v6h-6zM495 399h6v6h-6zM483 411h6v6h-6zM507 411h6v6h-6zM483 423h6v6h-6zM495 423h6v6h-6zM519 423h6v6h-6zM555 387h6v6h-6zM531 399h6v6h-6zM543 399h6v6h-6zM567 399h6v6h-6zM531 411h6v6h-6zM555 411h6v6h-6zM567 411h6v6h-6zM543 423h6v6h-6zM579 387h6v6h-6zM615 387h6v6h-6zM591 399h6v6h-6zM603 399h6v6h-6zM591 411h6v6h-6zM579 423h6v6h-6zM615 423h6v6h-6zM627 387h6v6h-6zM663 387h6v6h-6zM651 399h6v6h-6zM639 411h6v6h-6zM627 423h6v6h-6zM663 423h6v6h-6zM675 387h6v6h-6zM711 387h6v6h-6zM687 399h6v6h-6zM699 399h6v6h-6zM699 411h6v6h-6zM675 423h6v6h-6zM711 423h6v6h-6zM723 387h6v6h-6zM747 387h6v6h-6zM759 387h6v6h-6zM735 399h6v6h-6zM759 399h6v6h-6zM747 411h6v6h-6zM759 423h6v6h-6zM771 387h6v6h-6zM783 399h6v6h-6zM771 411h6v6h-6zM795 411h6v6h-6zM771 423h6v6h-6zM783 423h6v6h-6zM807 423h6v6h-6zM819 387h6v6h-6zM855 387h6v6h-6zM831 399h6v6h-6zM843 399h6v6h-6zM831 411h6v6h-6zM819 423h6v6h-6zM855 423h6v6h-6zM879 387h6v6h-6zM903 387h6v6h-6zM867 399h6v6h-6zM903 411h6v6h-6zM867 423h6v6h-6zM891 423h6v6h-6zM915 387h6v6h-6zM951 387h6v6h-6zM927 399h6v6h-6zM939 399h6v6h-6zM915 411h6v6h-6zM951 411h6v6h-6zM495 435h6v6h-6zM507 435h6v6h-6zM483 447h6v6h-6zM507 447h6v6h-6zM495 459h6v6h-6zM519 459h6v6h-6zM495 471h6v6h-6zM507 471h6v6h-6zM531 435h6v6h-6zM531 447h6v6h-6zM567 459h6v6h-6zM567 471h6v6h-6zM579 435h6v6h-6zM603 435h6v6h-6zM603 447h6v6h-6zM615 447h6v6h-6zM579 459h6v6h-6zM591 459h6v6h-6zM591 471h6v6h-6zM615 471h6v6h-6zM651 435h6v6h-6zM639 447h6v6h-6zM663 447h6v6h-6zM627 459h6v6h-6zM651 459h6v6h-6zM639 471h6v6h-6zM699 435h6v6h-6zM687 447h6v6h-6zM711 447h6v6h-6zM675 459h6v6h-6zM699 459h6v6h-6zM687 471h6v6h-6zM723 435h6v6h-6zM747 435h6v6h-6zM759 447h6v6h-6zM723 459h6v6h-6zM735 471h6v6h-6zM759 471h6v6h-6zM807 435h6v6h-6zM795 447h6v6h-6zM783 459h6v6h-6zM807 459h6v6h-6zM771 471h6v6h-6zM795 471h6v6h-6zM807 471h6v6h-6zM819 447h6v6h-6zM855 447h6v6h-6zM819 459h6v6h-6zM855 459h6v6h-6zM891 435h6v6h-6zM903 435h6v6h-6zM891 447h6v6h-6zM903 447h6v6h-6zM867 459h6v6h-6zM879 459h6v6h-6zM867 471h6v6h-6zM879 471h6v6h-6zM915 435h6v6h-6zM951 435h6v6h-6zM939 447h6v6h-6zM927 459h6v6h-6zM939 459h6v6h-6zM915 471h6v6h-6zM951 471h6v6h-6zM495 483h6v6h-6zM483 495h6v6h-6zM507 495h6v6h-6zM495 507h6v6h-6zM519 507h6v6h-6zM507 519h6v6h-6zM567 555h6v6h-6zM543 483h6v6h-6zM555 483h6v6h-6zM543 495h6v6h-6zM567 495h6v6h-6zM531 507h6v6h-6zM555 507h6v6h-6zM543 519h6v6h-6zM555 519h6v6h-6zM615 483h6v6h-6zM615 495h6v6h-6zM579 507h6v6h-6zM579 519h6v6h-6zM627 483h6v6h-6zM663 483h6v6h-6zM651 495h6v6h-6zM639 507h6v6h-6zM627 519h6v6h-6zM663 519h6v6h-6zM675 483h6v6h-6zM711 483h6v6h-6zM687 495h6v6h-6zM699 495h6v6h-6zM699 507h6v6h-6zM675 519h6v6h-6zM711 519h6v6h-6zM723 483h6v6h-6zM735 495h6v6h-6zM747 507h6v6h-6zM759 519h6v6h-6zM807 555h6v6h-6zM783 483h6v6h-6zM795 483h6v6h-6zM783 495h6v6h-6zM807 495h6v6h-6zM771 507h6v6h-6zM795 507h6v6h-6zM783 519h6v6h-6zM795 519h6v6h-6zM819 483h6v6h-6zM855 483h6v6h-6zM831 495h6v6h-6zM843 495h6v6h-6zM831 507h6v6h-6zM819 519h6v6h-6zM855 519h6v6h-6zM879 483h6v6h-6zM867 495h6v6h-6zM879 495h6v6h-6zM891 507h6v6h-6zM903 507h6v6h-6zM891 519h6v6h-6zM939 483h6v6h-6zM951 483h6v6h-6zM915 519h6v6h-6zM927 519h6v6h-6zM483 531h6v6h-6zM519 531h6v6h-6zM495 555h6v6h-6zM507 555h6v6h-6zM483 567h6v6h-6zM519 567h6v6h-6zM531 531h6v6h-6zM543 531h6v6h-6zM531 543h6v6h-6zM543 543h6v6h-6zM555 555h6v6h-6zM567 555h6v6h-6zM555 567h6v6h-6zM567 567h6v6h-6zM603 531h6v6h-6zM603 543h6v6h-6zM615 543h6v6h-6zM579 555h6v6h-6zM591 555h6v6h-6zM591 567h6v6h-6zM627 531h6v6h-6zM663 531h6v6h-6zM639 543h6v6h-6zM651 543h6v6h-6zM639 555h6v6h-6zM651 555h6v6h-6zM627 567h6v6h-6zM663 567h6v6h-6zM693 549h6v6h-6zM759 531h6v6h-6zM747 543h6v6h-6zM735 555h6v6h-6zM723 567h6v6h-6zM795 531h6v6h-6zM807 531h6v6h-6zM795 543h6v6h-6zM807 543h6v6h-6zM771 555h6v6h-6zM783 555h6v6h-6zM771 567h6v6h-6zM783 567h6v6h-6zM819 531h6v6h-6zM855 531h6v6h-6zM831 543h6v6h-6zM831 555h6v6h-6zM843 555h6v6h-6zM819 567h6v6h-6zM855 567h6v6h-6zM879 531h6v6h-6zM891 531h6v6h-6zM891 543h6v6h-6zM879 567h6v6h-6zM927 531h6v6h-6zM939 531h6v6h-6zM939 543h6v6h-6zM927 567h6v6h-6zM6 582h12v12h-12zM30 606h12v12h-12zM6 630h12v12h-12zM54 630h12v12h-12zM6 654h12v12h-12zM30 654h12v12h-12zM78 654h12v12h-12zM198 582h12v12h-12zM270 582h12v12h-12zM222 630h12v12h-12zM246 630h12v12h-12zM198 654h12v12h-12zM270 654h12v12h-12zM390 582h12v12h-12zM462 582h12v12h-12zM414 606h12v12h-12zM438 606h12v12h-12zM438 630h12v12h-12zM390 654h12v12h-12zM462 654h12v12h-12zM507 579h6v6h-6zM519 591h6v6h-6zM483 603h6v6h-6zM495 615h6v6h-6zM531 579h6v6h-6zM567 579h6v6h-6zM543 603h6v6h-6zM555 603h6v6h-6zM531 615h6v6h-6zM567 615h6v6h-6zM579 579h6v6h-6zM615 579h6v6h-6zM579 603h6v6h-6zM615 603h6v6h-6zM627 591h6v6h-6zM663 591h6v6h-6zM627 603h6v6h-6zM639 603h6v6h-6zM687 579h6v6h-6zM675 591h6v6h-6zM699 591h6v6h-6zM711 591h6v6h-6zM675 603h6v6h-6zM687 603h6v6h-6zM711 603h6v6h-6zM699 615h6v6h-6zM723 579h6v6h-6zM747 579h6v6h-6zM747 591h6v6h-6zM759 591h6v6h-6zM723 603h6v6h-6zM735 603h6v6h-6zM735 615h6v6h-6zM759 615h6v6h-6zM771 579h6v6h-6zM807 579h6v6h-6zM783 591h6v6h-6zM795 591h6v6h-6zM795 603h6v6h-6zM771 615h6v6h-6zM807 615h6v6h-6zM819 579h6v6h-6zM855 579h6v6h-6zM831 591h6v6h-6zM843 591h6v6h-6zM831 603h6v6h-6zM819 615h6v6h-6zM855 615h6v6h-6zM879 579h6v6h-6zM903 579h6v6h-6zM891 591h6v6h-6zM891 603h6v6h-6zM879 615h6v6h-6zM903 615h6v6h-6zM939 579h6v6h-6zM915 591h6v6h-6zM927 591h6v6h-6zM951 591h6v6h-6zM915 603h6v6h-6zM939 603h6v6h-6zM951 603h6v6h-6zM927 615h6v6h-6zM483 627h6v6h-6zM507 627h6v6h-6zM519 639h6v6h-6zM483 651h6v6h-6zM495 663h6v6h-6zM519 663h6v6h-6zM567 627h6v6h-6zM567 639h6v6h-6zM531 651h6v6h-6zM531 663h6v6h-6zM579 627h6v6h-6zM591 627h6v6h-6zM603 663h6v6h-6zM615 663h6v6h-6zM639 627h6v6h-6zM663 627h6v6h-6zM627 639h6v6h-6zM639 639h6v6h-6zM651 651h6v6h-6zM663 651h6v6h-6zM627 663h6v6h-6zM651 663h6v6h-6zM687 627h6v6h-6zM711 627h6v6h-6zM675 639h6v6h-6zM687 639h6v6h-6zM699 651h6v6h-6zM711 651h6v6h-6zM675 663h6v6h-6zM699 663h6v6h-6zM747 627h6v6h-6zM759 627h6v6h-6zM747 639h6v6h-6zM759 639h6v6h-6zM723 651h6v6h-6zM735 651h6v6h-6zM723 663h6v6h-6zM735 663h6v6h-6zM783 627h6v6h-6zM807 627h6v6h-6zM771 639h6v6h-6zM807 651h6v6h-6zM771 663h6v6h-6zM795 663h6v6h-6zM819 627h6v6h-6zM855 627h6v6h-6zM819 651h6v6h-6zM855 651h6v6h-6zM867 627h6v6h-6zM879 639h6v6h-6zM867 651h6v6h-6zM891 651h6v6h-6zM867 663h6v6h-6zM879 663h6v6h-6zM903 663h6v6h-6zM927 627h6v6h-6zM915 639h6v6h-6zM927 639h6v6h-6zM939 651h6v6h-6zM951 651h6v6h-6zM939 663h6v6h-6zM507 675h6v6h-6zM507 687h6v6h-6zM519 687h6v6h-6zM483 699h6v6h-6zM495 699h6v6h-6zM495 711h6v6h-6zM531 675h6v6h-6zM567 675h6v6h-6zM543 687h6v6h-6zM555 687h6v6h-6zM543 699h6v6h-6zM531 711h6v6h-6zM567 711h6v6h-6zM579 675h6v6h-6zM603 675h6v6h-6zM591 687h6v6h-6zM615 687h6v6h-6zM579 699h6v6h-6zM603 699h6v6h-6zM591 711h6v6h-6zM615 711h6v6h-6zM627 675h6v6h-6zM663 675h6v6h-6zM651 687h6v6h-6zM639 699h6v6h-6zM627 711h6v6h-6zM663 711h6v6h-6zM675 675h6v6h-6zM711 675h6v6h-6zM687 687h6v6h-6zM699 687h6v6h-6zM687 699h6v6h-6zM675 711h6v6h-6zM711 711h6v6h-6zM735 675h6v6h-6zM723 687h6v6h-6zM735 687h6v6h-6zM747 699h6v6h-6zM759 699h6v6h-6zM747 711h6v6h-6zM771 675h6v6h-6zM807 675h6v6h-6zM783 687h6v6h-6zM795 687h6v6h-6zM795 699h6v6h-6zM771 711h6v6h-6zM807 711h6v6h-6zM831 675h6v6h-6zM819 687h6v6h-6zM843 687h6v6h-6zM855 687h6v6h-6zM819 699h6v6h-6zM831 699h6v6h-6zM855 699h6v6h-6zM843 711h6v6h-6zM879 675h6v6h-6zM891 675h6v6h-6zM879 711h6v6h-6zM891 711h6v6h-6zM951 675h6v6h-6zM939 687h6v6h-6zM927 699h6v6h-6zM915 711h6v6h-6zM483 723h6v6h-6zM519 723h6v6h-6zM495 735h6v6h-6zM507 735h6v6h-6zM495 747h6v6h-6zM483 759h6v6h-6zM519 759h6v6h-6zM531 723h6v6h-6zM531 735h6v6h-6zM567 747h6v6h-6zM567 759h6v6h-6zM579 723h6v6h-6zM603 723h6v6h-6zM603 735h6v6h-6zM615 735h6v6h-6zM579 747h6v6h-6zM591 747h6v6h-6zM591 759h6v6h-6zM615 759h6v6h-6zM639 723h6v6h-6zM651 723h6v6h-6zM639 759h6v6h-6zM651 759h6v6h-6zM687 723h6v6h-6zM699 747h6v6h-6zM687 759h6v6h-6zM699 759h6v6h-6zM723 723h6v6h-6zM747 723h6v6h-6zM759 723h6v6h-6zM735 735h6v6h-6zM759 735h6v6h-6zM747 747h6v6h-6zM759 759h6v6h-6zM771 723h6v6h-6zM795 723h6v6h-6zM795 735h6v6h-6zM807 735h6v6h-6zM771 747h6v6h-6zM783 747h6v6h-6zM783 759h6v6h-6zM807 759h6v6h-6zM831 723h6v6h-6zM855 723h6v6h-6zM819 735h6v6h-6zM831 735h6v6h-6zM843 747h6v6h-6zM855 747h6v6h-6zM819 759h6v6h-6zM843 759h6v6h-6zM903 723h6v6h-6zM891 735h6v6h-6zM879 747h6v6h-6zM903 747h6v6h-6zM867 759h6v6h-6zM891 759h6v6h-6zM903 759h6v6h-6zM915 723h6v6h-6zM951 723h6v6h-6zM915 747h6v6h-6zM951 747h6v6h-6zM54 774h12v12h-12zM78 774h12v12h-12zM54 798h12v12h-12zM78 798h12v12h-12zM6 822h12v12h-12zM30 822h12v12h-12zM6 846h12v12h-12zM30 846h12v12h-12zM222 774h12v12h-12zM270 774h12v12h-12zM198 798h12v12h-12zM270 822h12v12h-12zM198 846h12v12h-12zM246 846h12v12h-12zM462 774h12v12h-12zM462 798h12v12h-12zM390 822h12v12h-12zM390 846h12v12h-12zM483 771h6v6h-6zM495 771h6v6h-6zM507 807h6v6h-6zM519 807h6v6h-6zM531 771h6v6h-6zM567 771h6v6h-6zM555 783h6v6h-6zM543 795h6v6h-6zM555 795h6v6h-6zM531 807h6v6h-6zM567 807h6v6h-6zM615 771h6v6h-6zM603 783h6v6h-6zM591 795h6v6h-6zM615 795h6v6h-6zM579 807h6v6h-6zM603 807h6v6h-6zM615 807h6v6h-6zM639 771h6v6h-6zM663 771h6v6h-6zM627 783h6v6h-6zM663 795h6v6h-6zM627 807h6v6h-6zM651 807h6v6h-6zM675 771h6v6h-6zM699 771h6v6h-6zM687 783h6v6h-6zM711 783h6v6h-6zM675 795h6v6h-6zM699 795h6v6h-6zM687 807h6v6h-6zM711 807h6v6h-6zM723 771h6v6h-6zM747 771h6v6h-6zM759 783h6v6h-6zM723 795h6v6h-6zM735 807h6v6h-6zM759 807h6v6h-6zM783 771h6v6h-6zM771 783h6v6h-6zM795 783h6v6h-6zM783 795h6v6h-6zM807 795h6v6h-6zM795 807h6v6h-6zM819 771h6v6h-6zM855 771h6v6h-6zM831 783h6v6h-6zM843 795h6v6h-6zM819 807h6v6h-6zM855 807h6v6h-6zM867 771h6v6h-6zM891 771h6v6h-6zM903 783h6v6h-6zM867 795h6v6h-6zM879 807h6v6h-6zM903 807h6v6h-6zM915 771h6v6h-6zM939 771h6v6h-6zM927 783h6v6h-6zM951 783h6v6h-6zM915 795h6v6h-6zM939 795h6v6h-6zM927 807h6v6h-6zM951 807h6v6h-6zM483 819h6v6h-6zM519 819h6v6h-6zM495 831h6v6h-6zM507 831h6v6h-6zM507 843h6v6h-6zM483 855h6v6h-6zM519 855h6v6h-6zM567 819h6v6h-6zM555 831h6v6h-6zM543 843h6v6h-6zM567 843h6v6h-6zM531 855h6v6h-6zM555 855h6v6h-6zM567 855h6v6h-6zM615 819h6v6h-6zM603 831h6v6h-6zM591 843h6v6h-6zM579 855h6v6h-6zM627 819h6v6h-6zM639 819h6v6h-6zM663 819h6v6h-6zM627 831h6v6h-6zM651 831h6v6h-6zM639 843h6v6h-6zM627 855h6v6h-6zM687 819h6v6h-6zM675 831h6v6h-6zM699 831h6v6h-6zM687 843h6v6h-6zM711 843h6v6h-6zM699 855h6v6h-6zM723 819h6v6h-6zM759 819h6v6h-6zM723 843h6v6h-6zM759 843h6v6h-6zM783 819h6v6h-6zM807 819h6v6h-6zM771 831h6v6h-6zM795 831h6v6h-6zM783 843h6v6h-6zM807 843h6v6h-6zM771 855h6v6h-6zM795 855h6v6h-6zM819 831h6v6h-6zM855 831h6v6h-6zM819 843h6v6h-6zM855 843h6v6h-6zM867 831h6v6h-6zM903 831h6v6h-6zM867 843h6v6h-6zM903 843h6v6h-6zM915 831h6v6h-6zM951 831h6v6h-6zM915 843h6v6h-6zM927 843h6v6h-6zM507 867h6v6h-6zM507 879h6v6h-6zM519 879h6v6h-6zM483 891h6v6h-6zM495 891h6v6h-6zM495 903h6v6h-6zM531 867h6v6h-6zM531 879h6v6h-6zM567 891h6v6h-6zM567 903h6v6h-6zM591 867h6v6h-6zM603 867h6v6h-6zM579 879h6v6h-6zM603 879h6v6h-6zM591 891h6v6h-6zM615 891h6v6h-6zM591 903h6v6h-6zM603 903h6v6h-6zM627 867h6v6h-6zM639 867h6v6h-6zM663 867h6v6h-6zM627 879h6v6h-6zM651 879h6v6h-6zM639 891h6v6h-6zM627 903h6v6h-6zM675 879h6v6h-6zM711 879h6v6h-6zM675 891h6v6h-6zM711 891h6v6h-6zM723 867h6v6h-6zM735 867h6v6h-6zM747 903h6v6h-6zM759 903h6v6h-6zM795 867h6v6h-6zM783 879h6v6h-6zM807 879h6v6h-6zM771 891h6v6h-6zM795 891h6v6h-6zM783 903h6v6h-6zM819 879h6v6h-6zM855 879h6v6h-6zM819 891h6v6h-6zM831 891h6v6h-6zM867 867h6v6h-6zM903 867h6v6h-6zM867 903h6v6h-6zM903 903h6v6h-6zM939 867h6v6h-6zM915 879h6v6h-6zM927 879h6v6h-6zM951 879h6v6h-6zM915 891h6v6h-6zM939 891h6v6h-6zM951 891h6v6h-6zM927 903h6v6h-6zM483 915h6v6h-6zM519 915h6v6h-6zM495 927h6v6h-6zM507 927h6v6h-6zM495 939h6v6h-6zM507 939h6v6h-6zM483 951h6v6h-6zM519 951h6v6h-6zM543 915h6v6h-6zM531 927h6v6h-6zM555 927h6v6h-6zM567 927h6v6h-6zM531 939h6v6h-6zM543 939h6v6h-6zM567 939h6v6h-6zM555 951h6v6h-6zM603 915h6v6h-6zM591 927h6v6h-6zM615 927h6v6h-6zM579 939h6v6h-6zM603 939h6v6h-6zM591 951h6v6h-6zM627 915h6v6h-6zM663 915h6v6h-6zM639 939h6v6h-6zM651 939h6v6h-6zM627 951h6v6h-6zM663 951h6v6h-6zM687 915h6v6h-6zM699 939h6v6h-6zM687 951h6v6h-6zM699 951h6v6h-6zM747 915h6v6h-6zM747 927h6v6h-6zM759 927h6v6h-6zM723 939h6v6h-6zM735 939h6v6h-6zM735 951h6v6h-6zM783 915h6v6h-6zM795 915h6v6h-6zM771 927h6v6h-6zM795 927h6v6h-6zM783 939h6v6h-6zM807 939h6v6h-6zM783 951h6v6h-6zM795 951h6v6h-6zM855 915h6v6h-6zM843 927h6v6h-6zM831 939h6v6h-6zM855 939h6v6h-6zM819 951h6v6h-6zM843 951h6v6h-6zM855 951h6v6h-6zM867 915h6v6h-6zM879 927h6v6h-6zM891 939h6v6h-6zM903 951h6v6h-6zM915 915h6v6h-6zM927 915h6v6h-6zM915 927h6v6h-6zM927 927h6v6h-6zM939 939h6v6h-6zM951 939h6v6h-6zM939 951h6v6h-6zM951 951h6v6h-6zM426 906h12v12h-12zM330 618h12v12h-12zM138 810h12v12h-12zM426 522h12v12h-12zM426 138h12v12h-12zM330 138h12v12h-12zM330 522h12v12h-12z"/><path fill="#000" d="M384 384h96v96h-96zM288 288h96v96h-96zM384 192h96v96h-96zM384 96h96v96h-96zM384 0h96v96h-96zM288 0h96v96h-96zM192 0h96v96h-96zM96 0h96v96h-96zM192 96h96v96h-96zM288 192h96v96h-96zM288 96h96v96h-96zM192 288h96v96h-96zM96 384h96v96h-96zM384 480h96v96h-96zM288 576h96v96h-96zM384 672h96v96h-96zM384 768h96v96h-96zM384 864h96v96h-96zM288 864h96v96h-96zM192 864h96v96h-96zM96 864h96v96h-96zM192 768h96v96h-96zM288 672h96v96h-96zM288 768h96v96h-96zM192 576h96v96h-96zM96 480h96v96h-96zM480 384h96v96h-96zM576 288h96v96h-96zM480 192h96v96h-96zM480 96h96v96h-96zM480 0h96v96h-96zM576 0h96v96h-96zM672 0h96v96h-96zM768 0h96v96h-96zM672 96h96v96h-96zM576 192h96v96h-96zM576 96h96v96h-96zM672 288h96v96h-96zM768 384h96v96h-96zM480 480h96v96h-96zM576 576h96v96h-96zM480 672h96v96h-96zM480 768h96v96h-96zM480 864h96v96h-96zM576 864h96v96h-96zM672 864h96v96h-96zM768 864h96v96h-96zM672 768h96v96h-96zM576 672h96v96h-96zM576 768h96v96h-96zM672 576h96v96h-96zM768 480h96v96h-96z"/></svg>