<svg xmlns="http://www.w3.org/2000/svg" width="960" height="960" viewBox="0 0 960 960" shape-rendering="crispEdges"><path fill="#000" d="M0 0h960v960h-960z"/><path fill="#3b5e55" d="M0 0h96v96h-96zM0 192h96v96h-96zM0 384h96v96h-96zM96 0h96v96h-96zM96 192h96v96h-96zM96 384h96v96h-96zM192 0h96v96h-96zM192 192h96v96h-96zM192 384h96v96h-96zM288 0h96v96h-96zM288 192h96v96h-96zM288 384h96v96h-96zM384 0h96v96h-96zM384 192h96v96h-96zM384 384h96v96h-96zM480 0h96v96h-96zM480 192h96v96h-96zM480 384h96v96h-96zM576 0h96v96h-96zM576 192h96v96h-96zM576 384h96v96h-96zM672 0h96v96h-96zM672 192h96v96h-96zM672 384h96v96h-96zM768 0h96v96h-96zM768 192h96v96h-96zM768 384h96v96h-96zM864 0h96v96h-96zM864 192h96v96h-96zM864 384h96v96h-96z"/><path fill="#68dfdf" d="M30 6h12v12h-12zM78 6h12v12h-12zM6 30h12v12h-12zM30 30h12v12h-12zM54 54h12v12h-12zM78 54h12v12h-12zM6 78h12v12h-12zM54 78h12v12h-12zM198 6h12v12h-12zM246 6h12v12h-12zM246 30h12v12h-12zM270 30h12v12h-12zM198 54h12v12h-12zM222 54h12v12h-12zM222 78h12v12h-12zM270 78h12v12h-12zM426 42h12v12h-12zM486 6h12v12h-12zM510 30h12v12h-12zM486 54h12v12h-12zM534 54h12v12h-12zM486 78h12v12h-12zM510 78h12v12h-12zM558 78h12v12h-12zM630 6h12v12h-12zM606 30h12v12h-12zM654 30h12v12h-12zM582 54h12v12h-12zM630 54h12v12h-12zM606 78h12v12h-12zM702 6h12v12h-12zM750 6h12v12h-12zM678 30h12v12h-12zM726 30h12v12h-12zM702 54h12v12h-12zM750 54h12v12h-12zM678 78h12v12h-12zM726 78h12v12h-12zM774 6h12v12h-12zM846 6h12v12h-12zM798 30h12v12h-12zM798 54h12v12h-12zM822 54h12v12h-12zM774 78h12v12h-12zM846 78h12v12h-12zM894 6h12v12h-12zM870 30h12v12h-12zM918 30h12v12h-12zM942 30h12v12h-12zM870 54h12v12h-12zM894 54h12v12h-12zM942 54h12v12h-12zM918 78h12v12h-12zM510 126h12v12h-12zM534 126h12v12h-12zM510 150h12v12h-12zM534 150h12v12h-12zM654 102h12v12h-12zM654 126h12v12h-12zM582 150h12v12h-12zM582 174h12v12h-12zM702 102h12v12h-12zM750 102h12v12h-12zM678 126h12v12h-12zM726 126h12v12h-12zM702 150h12v12h-12zM750 150h12v12h-12zM678 174h12v12h-12zM726 174h12v12h-12zM798 102h12v12h-12zM774 126h12v12h-12zM846 150h12v12h-12zM822 174h12v12h-12zM894 102h12v12h-12zM870 126h12v12h-12zM918 126h12v12h-12zM894 150h12v12h-12zM942 150h12v12h-12zM918 174h12v12h-12zM6 222h12v12h-12zM78 222h12v12h-12zM6 246h12v12h-12zM30 246h12v12h-12zM198 198h12v12h-12zM270 198h12v12h-12zM246 222h12v12h-12zM222 246h12v12h-12zM198 270h12v12h-12zM270 270h12v12h-12zM390 198h12v12h-12zM414 198h12v12h-12zM462 198h12v12h-12zM390 222h12v12h-12zM438 222h12v12h-12zM414 246h12v12h-12zM390 270h12v12h-12zM486 198h12v12h-12zM534 198h12v12h-12zM534 222h12v12h-12zM558 222h12v12h-12zM486 246h12v12h-12zM510 246h12v12h-12zM510 270h12v12h-12zM558 270h12v12h-12zM606 198h12v12h-12zM630 198h12v12h-12zM606 270h12v12h-12zM630 270h12v12h-12zM750 342h12v12h-12zM702 198h12v12h-12zM726 198h12v12h-12zM702 222h12v12h-12zM750 222h12v12h-12zM678 246h12v12h-12zM726 246h12v12h-12zM702 270h12v12h-12zM726 270h12v12h-12zM798 198h12v12h-12zM822 198h12v12h-12zM798 270h12v12h-12zM822 270h12v12h-12zM870 198h12v12h-12zM942 198h12v12h-12zM894 246h12v12h-12zM918 246h12v12h-12zM870 270h12v12h-12zM942 270h12v12h-12zM510 294h12v12h-12zM534 294h12v12h-12zM486 318h12v12h-12zM534 318h12v12h-12zM510 342h12v12h-12zM558 342h12v12h-12zM510 366h12v12h-12zM534 366h12v12h-12zM582 318h12v12h-12zM654 318h12v12h-12zM582 342h12v12h-12zM606 342h12v12h-12zM678 294h12v12h-12zM726 294h12v12h-12zM750 294h12v12h-12zM702 318h12v12h-12zM750 318h12v12h-12zM726 342h12v12h-12zM750 366h12v12h-12zM774 294h12v12h-12zM798 294h12v12h-12zM846 294h12v12h-12zM774 318h12v12h-12zM822 318h12v12h-12zM798 342h12v12h-12zM774 366h12v12h-12zM942 294h12v12h-12zM942 318h12v12h-12zM870 342h12v12h-12zM870 366h12v12h-12zM30 390h12v12h-12zM54 390h12v12h-12zM54 414h12v12h-12zM30 462h12v12h-12zM198 390h12v12h-12zM222 390h12v12h-12zM198 414h12v12h-12zM222 414h12v12h-12zM246 438h12v12h-12zM270 438h12v12h-12zM246 462h12v12h-12zM270 462h12v12h-12zM390 390h12v12h-12zM438 390h12v12h-12zM462 390h12v12h-12zM414 414h12v12h-12zM462 414h12v12h-12zM438 438h12v12h-12zM462 462h12v12h-12zM486 390h12v12h-12zM558 390h12v12h-12zM510 414h12v12h-12zM534 414h12v12h-12zM486 438h12v12h-12zM558 438h12v12h-12zM630 390h12v12h-12zM606 414h12v12h-12zM654 414h12v12h-12zM582 438h12v12h-12zM630 438h12v12h-12zM606 462h12v12h-12zM750 390h12v12h-12zM726 414h12v12h-12zM702 438h12v12h-12zM678 462h12v12h-12zM822 390h12v12h-12zM846 390h12v12h-12zM774 462h12v12h-12zM798 462h12v12h-12zM894 414h12v12h-12zM918 414h12v12h-12zM894 438h12v12h-12zM918 438h12v12h-12zM30 486h12v12h-12zM54 534h12v12h-12zM30 558h12v12h-12zM54 558h12v12h-12zM138 522h12v12h-12zM198 486h12v12h-12zM270 486h12v12h-12zM222 510h12v12h-12zM246 510h12v12h-12zM198 558h12v12h-12zM270 558h12v12h-12zM294 510h12v12h-12zM366 510h12v12h-12zM294 534h12v12h-12zM366 534h12v12h-12zM414 486h12v12h-12zM390 510h12v12h-12zM438 510h12v12h-12zM462 510h12v12h-12zM390 534h12v12h-12zM414 534h12v12h-12zM462 534h12v12h-12zM438 558h12v12h-12zM42 618h12v12h-12zM102 582h12v12h-12zM174 582h12v12h-12zM102 654h12v12h-12zM174 654h12v12h-12zM246 582h12v12h-12zM270 582h12v12h-12zM246 606h12v12h-12zM270 606h12v12h-12zM198 630h12v12h-12zM222 630h12v12h-12zM198 654h12v12h-12zM222 654h12v12h-12zM366 726h12v12h-12zM318 582h12v12h-12zM342 582h12v12h-12zM318 606h12v12h-12zM366 606h12v12h-12zM294 630h12v12h-12zM342 630h12v12h-12zM318 654h12v12h-12zM342 654h12v12h-12zM414 582h12v12h-12zM390 606h12v12h-12zM462 630h12v12h-12zM438 654h12v12h-12zM582 582h12v12h-12zM606 582h12v12h-12zM582 606h12v12h-12zM606 606h12v12h-12zM630 630h12v12h-12zM654 630h12v12h-12zM630 654h12v12h-12zM654 654h12v12h-12zM774 582h12v12h-12zM846 582h12v12h-12zM798 606h12v12h-12zM798 630h12v12h-12zM822 630h12v12h-12zM774 654h12v12h-12zM846 654h12v12h-12zM6 678h12v12h-12zM78 678h12v12h-12zM30 702h12v12h-12zM54 702h12v12h-12zM54 726h12v12h-12zM6 750h12v12h-12zM78 750h12v12h-12zM102 678h12v12h-12zM174 678h12v12h-12zM102 750h12v12h-12zM174 750h12v12h-12zM198 702h12v12h-12zM270 702h12v12h-12zM198 726h12v12h-12zM222 726h12v12h-12zM318 678h12v12h-12zM366 678h12v12h-12zM294 702h12v12h-12zM342 702h12v12h-12zM318 726h12v12h-12zM366 726h12v12h-12zM294 750h12v12h-12zM342 750h12v12h-12zM414 678h12v12h-12zM462 678h12v12h-12zM414 750h12v12h-12zM462 750h12v12h-12zM6 774h12v12h-12zM78 774h12v12h-12zM30 798h12v12h-12zM54 798h12v12h-12zM6 846h12v12h-12zM78 846h12v12h-12zM174 774h12v12h-12zM150 798h12v12h-12zM126 822h12v12h-12zM174 822h12v12h-12zM102 846h12v12h-12zM150 846h12v12h-12zM174 846h12v12h-12zM198 774h12v12h-12zM246 774h12v12h-12zM270 774h12v12h-12zM222 798h12v12h-12zM270 798h12v12h-12zM246 822h12v12h-12zM270 846h12v12h-12zM342 774h12v12h-12zM342 798h12v12h-12zM366 798h12v12h-12zM294 822h12v12h-12zM318 822h12v12h-12zM318 846h12v12h-12zM390 774h12v12h-12zM414 798h12v12h-12zM390 822h12v12h-12zM438 822h12v12h-12zM390 846h12v12h-12zM414 846h12v12h-12zM462 846h12v12h-12zM582 774h12v12h-12zM654 774h12v12h-12zM582 822h12v12h-12zM654 822h12v12h-12zM822 774h12v12h-12zM822 798h12v12h-12zM846 798h12v12h-12zM774 822h12v12h-12zM798 822h12v12h-12zM798 846h12v12h-12zM30 870h12v12h-12zM78 870h12v12h-12zM6 894h12v12h-12zM78 918h12v12h-12zM6 942h12v12h-12zM54 942h12v12h-12zM126 870h12v12h-12zM174 870h12v12h-12zM102 894h12v12h-12zM126 894h12v12h-12zM150 918h12v12h-12zM174 918h12v12h-12zM102 942h12v12h-12zM150 942h12v12h-12zM198 870h12v12h-12zM270 870h12v12h-12zM222 894h12v12h-12zM246 918h12v12h-12zM198 942h12v12h-12zM270 942h12v12h-12zM294 870h12v12h-12zM318 894h12v12h-12zM342 918h12v12h-12zM366 942h12v12h-12zM414 870h12v12h-12zM462 870h12v12h-12zM390 894h12v12h-12zM414 894h12v12h-12zM438 918h12v12h-12zM462 918h12v12h-12zM390 942h12v12h-12zM438 942h12v12h-12zM870 582h12v12h-12zM942 582h12v12h-12zM894 606h12v12h-12zM894 630h12v12h-12zM918 630h12v12h-12zM870 654h12v12h-12zM942 654h12v12h-12zM6 318h12v12h-12zM78 318h12v12h-12zM6 342h12v12h-12zM30 342h12v12h-12zM414 126h12v12h-12zM438 126h12v12h-12zM414 150h12v12h-12zM438 150h12v12h-12zM126 102h12v12h-12zM174 102h12v12h-12zM102 126h12v12h-12zM126 126h12v12h-12zM150 150h12v12h-12zM174 150h12v12h-12zM102 174h12v12h-12zM150 174h12v12h-12zM678 870h12v12h-12zM750 870h12v12h-12zM678 918h12v12h-12zM750 918h12v12h-12zM678 774h12v12h-12zM750 774h12v12h-12zM678 822h12v12h-12zM750 822h12v12h-12zM678 582h12v12h-12zM702 582h12v12h-12zM678 606h12v12h-12zM702 606h12v12h-12zM726 630h12v12h-12zM750 630h12v12h-12zM726 654h12v12h-12zM750 654h12v12h-12zM30 102h12v12h-12zM78 102h12v12h-12zM6 126h12v12h-12zM30 126h12v12h-12zM54 150h12v12h-12zM78 150h12v12h-12zM6 174h12v12h-12zM54 174h12v12h-12z"/><path fill="#fff" d="M360 336h24v24h-24zM360 360h24v24h-24zM360 384h24v24h-24zM360 408h24v24h-24zM360 432h24v24h-24zM360 456h24v24h-24zM336 408h24v24h-24zM312 384h24v24h-24zM288 360h24v24h-24zM264 336h24v24h-24zM240 312h24v24h-24zM216 288h24v24h-24zM192 264h24v24h-24zM168 240h24v24h-24zM144 216h24v24h-24zM120 192h24v24h-24zM96 168h24v24h-24zM72 144h24v24h-24zM48 120h24v24h-24zM24 96h24v24h-24zM0 72h24v24h-24zM24 72h24v24h-24zM48 72h24v24h-24zM72 72h24v24h-24zM96 72h24v24h-24zM120 72h24v24h-24zM144 72h24v24h-24zM168 72h24v24h-24zM192 72h24v24h-24zM216 72h24v24h-24zM240 72h24v24h-24zM264 72h24v24h-24zM288 72h24v24h-24zM312 72h24v24h-24zM336 72h24v24h-24zM360 72h24v24h-24zM384 72h24v24h-24zM408 72h24v24h-24zM384 96h24v24h-24zM360 120h24v24h-24zM336 144h24v24h-24zM312 168h24v24h-24zM288 192h24v24h-24zM264 216h24v24h-24zM240 240h24v24h-24zM216 264h24v24h-24zM192 288h24v24h-24zM168 312h24v24h-24zM144 336h24v24h-24zM120 360h24v24h-24zM96 384h24v24h-24zM72 408h24v24h-24zM48 408h24v24h-24zM24 408h24v24h-24zM0 408h24v24h-24zM0 384h24v24h-24zM0 360h24v24h-24zM0 336h24v24h-24zM0 312h24v24h-24zM0 288h24v24h-24zM24 288h24v24h-24zM48 288h24v24h-24zM72 288h24v24h-24zM96 288h24v24h-24zM120 288h24v24h-24zM144 288h24v24h-24zM168 288h24v24h-24zM120 168h24v24h-24zM144 168h24v24h-24zM168 168h24v24h-24zM192 168h24v24h-24zM192 192h24v24h-24zM192 216h24v24h-24zM192 240h24v24h-24zM192 312h24v24h-24zM192 336h24v24h-24zM192 360h24v24h-24zM192 384h24v24h-24zM192 408h24v24h-24zM192 432h24v24h-24zM192 456h24v24h-24zM192 144h24v24h-24zM192 120h24v24h-24zM192 96h24v24h-24zM192 48h24v24h-24zM192 24h24v24h-24zM192 0h24v24h-24zM216 0h24v24h-24zM240 0h24v24h-24zM264 0h24v24h-24zM288 0h24v24h-24zM312 0h24v24h-24zM336 0h24v24h-24zM360 0h24v24h-24zM384 0h24v24h-24zM408 0h24v24h-24zM432 0h24v24h-24zM408 24h24v24h-24zM384 48h24v24h-24zM336 96h24v24h-24zM312 120h24v24h-24zM288 144h24v24h-24zM264 168h24v24h-24zM240 192h24v24h-24zM216 216h24v24h-24zM168 264h24v24h-24zM144 240h24v24h-24zM120 216h24v24h-24zM96 192h24v24h-24zM72 168h24v24h-24zM48 144h24v24h-24zM264 288h24v24h-24zM288 264h24v24h-24zM312 240h24v24h-24zM336 216h24v24h-24zM360 192h24v24h-24zM384 168h24v24h-24zM408 144h24v24h-24zM432 120h24v24h-24zM432 144h24v24h-24zM432 168h24v24h-24zM432 192h24v24h-24zM432 216h24v24h-24zM432 240h24v24h-24zM432 264h24v24h-24zM432 288h24v24h-24zM432 312h24v24h-24zM432 336h24v24h-24zM432 360h24v24h-24zM432 384h24v24h-24zM432 408h24v24h-24zM432 432h24v24h-24zM432 456h24v24h-24zM408 456h24v24h-24zM384 456h24v24h-24zM336 456h24v24h-24zM312 456h24v24h-24zM288 456h24v24h-24zM264 456h24v24h-24zM240 456h24v24h-24zM216 456h24v24h-24zM168 456h24v24h-24zM144 456h24v24h-24zM120 456h24v24h-24zM96 456h24v24h-24zM72 456h24v24h-24zM48 456h24v24h-24zM48 432h24v24h-24zM48 384h24v24h-24zM48 360h24v24h-24zM48 336h24v24h-24zM48 312h24v24h-24zM48 264h24v24h-24zM72 264h24v24h-24zM96 264h24v24h-24zM120 264h24v24h-24zM144 264h24v24h-24zM240 264h24v24h-24zM264 264h24v24h-24zM312 264h24v24h-24zM336 264h24v24h-24zM360 264h24v24h-24zM384 264h24v24h-24zM408 264h24v24h-24zM72 432h24v24h-24zM96 432h24v24h-24zM120 432h24v24h-24zM144 432h24v24h-24zM168 432h24v24h-24zM216 432h24v24h-24zM240 432h24v24h-24zM264 432h24v24h-24zM288 432h24v24h-24zM288 408h24v24h-24zM288 384h24v24h-24zM288 336h24v24h-24zM288 312h24v24h-24zM288 288h24v24h-24zM288 240h24v24h-24zM288 216h24v24h-24zM288 168h24v24h-24zM288 120h24v24h-24zM288 96h24v24h-24zM288 48h24v24h-24zM288 24h24v24h-24zM168 0h24v24h-24zM144 0h24v24h-24zM120 0h24v24h-24zM96 24h24v24h-24zM72 48h24v24h-24zM72 96h24v24h-24zM96 120h24v24h-24zM120 144h24v24h-24zM168 192h24v24h-24zM216 240h24v24h-24zM240 216h24v24h-24zM240 168h24v24h-24zM240 144h24v24h-24zM240 120h24v24h-24zM240 96h24v24h-24zM240 48h24v24h-24zM264 48h24v24h-24zM264 24h24v24h-24zM96 0h24v24h-24zM72 0h24v24h-24zM120 48h24v24h-24zM168 96h24v24h-24zM216 144h24v24h-24zM264 192h24v24h-24zM312 216h24v24h-24zM312 192h24v24h-24zM312 144h24v24h-24zM312 96h24v24h-24zM312 48h24v24h-24zM312 24h24v24h-24zM264 96h24v24h-24zM264 120h24v24h-24zM264 144h24v24h-24zM264 240h24v24h-24zM264 312h24v24h-24zM264 360h24v24h-24zM240 336h24v24h-24zM216 312h24v24h-24zM144 192h24v24h-24zM216 192h24v24h-24zM336 192h24v24h-24zM384 192h24v24h-24zM360 216h24v24h-24zM336 240h24v24h-24zM912 192h24v24h-24zM912 216h24v24h-24zM912 240h24v24h-24zM912 264h24v24h-24zM912 288h24v24h-24zM912 312h24v24h-24zM912 336h24v24h-24zM912 360h24v24h-24zM912 384h24v24h-24zM912 408h24v24h-24zM912 432h24v24h-24zM912 456h24v24h-24zM888 456h24v24h-24zM864 456h24v24h-24zM840 456h24v24h-24zM816 456h24v24h-24zM792 456h24v24h-24zM768 456h24v24h-24zM768 432h24v24h-24zM768 408h24v24h-24zM768 384h24v24h-24zM768 360h24v24h-24zM768 336h24v24h-24zM768 312h24v24h-24zM768 288h24v24h-24zM792 288h24v24h-24zM816 288h24v24h-24zM840 288h24v24h-24zM840 264h24v24h-24zM840 240h24v24h-24zM840 216h24v24h-24zM840 192h24v24h-24zM840 168h24v24h-24zM840 144h24v24h-24zM840 120h24v24h-24zM840 96h24v24h-24zM840 72h24v24h-24zM840 48h24v24h-24zM816 72h24v24h-24zM792 96h24v24h-24zM768 120h24v24h-24zM744 144h24v24h-24zM720 168h24v24h-24zM696 192h24v24h-24zM672 216h24v24h-24zM648 240h24v24h-24zM624 264h24v24h-24zM600 288h24v24h-24zM576 312h24v24h-24zM576 288h24v24h-24zM576 264h24v24h-24zM576 240h24v24h-24zM576 216h24v24h-24zM552 240h24v24h-24zM528 264h24v24h-24zM504 240h24v24h-24zM528 240h24v24h-24zM600 240h24v24h-24zM624 240h24v24h-24zM672 240h24v24h-24zM696 240h24v24h-24zM720 240h24v24h-24zM744 240h24v24h-24zM768 240h24v24h-24zM792 240h24v24h-24zM816 240h24v24h-24zM864 240h24v24h-24zM624 288h24v24h-24zM624 312h24v24h-24zM624 336h24v24h-24zM624 360h24v24h-24zM624 384h24v24h-24zM624 216h24v24h-24zM648 192h24v24h-24zM648 168h24v24h-24zM648 144h24v24h-24zM648 216h24v24h-24zM648 264h24v24h-24zM648 288h24v24h-24zM648 312h24v24h-24zM648 336h24v24h-24zM648 360h24v24h-24zM672 360h24v24h-24zM696 360h24v24h-24zM720 360h24v24h-24zM744 360h24v24h-24zM792 360h24v24h-24zM816 360h24v24h-24zM672 336h24v24h-24zM624 192h24v24h-24zM600 192h24v24h-24zM576 192h24v24h-24zM552 192h24v24h-24zM528 192h24v24h-24zM504 192h24v24h-24zM480 192h24v24h-24zM504 168h24v24h-24zM528 144h24v24h-24zM552 120h24v24h-24zM576 96h24v24h-24zM600 72h24v24h-24zM624 48h24v24h-24zM648 24h24v24h-24zM672 0h24v24h-24zM672 24h24v24h-24zM672 48h24v24h-24zM672 72h24v24h-24zM672 96h24v24h-24zM672 120h24v24h-24zM672 144h24v24h-24zM672 168h24v24h-24zM672 192h24v24h-24zM768 72h24v24h-24zM744 48h24v24h-24zM720 24h24v24h-24zM720 48h24v24h-24zM720 72h24v24h-24zM720 96h24v24h-24zM720 120h24v24h-24zM720 144h24v24h-24zM720 192h24v24h-24zM720 216h24v24h-24zM720 264h24v24h-24zM720 288h24v24h-24zM720 312h24v24h-24zM720 336h24v24h-24zM720 384h24v24h-24zM720 408h24v24h-24zM720 432h24v24h-24zM720 456h24v24h-24zM744 456h24v24h-24zM840 432h24v24h-24zM840 408h24v24h-24zM840 384h24v24h-24zM840 360h24v24h-24zM840 336h24v24h-24zM840 312h24v24h-24zM840 24h24v24h-24zM840 0h24v24h-24zM816 312h24v24h-24zM792 336h24v24h-24zM768 264h24v24h-24zM768 216h24v24h-24zM768 192h24v24h-24zM768 168h24v24h-24zM768 144h24v24h-24zM768 96h24v24h-24zM768 48h24v24h-24zM744 120h24v24h-24zM696 168h24v24h-24zM696 216h24v24h-24zM744 264h24v24h-24zM792 312h24v24h-24zM816 336h24v24h-24zM864 384h24v24h-24zM888 408h24v24h-24zM864 408h24v24h-24zM816 408h24v24h-24zM792 408h24v24h-24zM744 408h24v24h-24zM696 408h24v24h-24zM672 408h24v24h-24zM648 408h24v24h-24zM624 408h24v24h-24zM600 408h24v24h-24zM576 408h24v24h-24zM576 384h24v24h-24zM576 360h24v24h-24zM576 336h24v24h-24zM576 168h24v24h-24zM528 168h24v24h-24zM504 144h24v24h-24zM480 144h24v24h-24zM360 600h24v24h-24zM360 576h24v24h-24zM360 552h24v24h-24zM360 528h24v24h-24zM360 504h24v24h-24zM360 480h24v24h-24zM336 528h24v24h-24zM312 552h24v24h-24zM288 576h24v24h-24zM264 600h24v24h-24zM240 624h24v24h-24zM216 648h24v24h-24zM192 672h24v24h-24zM168 696h24v24h-24zM144 720h24v24h-24zM120 744h24v24h-24zM96 768h24v24h-24zM72 792h24v24h-24zM48 816h24v24h-24zM24 840h24v24h-24zM0 864h24v24h-24zM24 864h24v24h-24zM48 864h24v24h-24zM72 864h24v24h-24zM96 864h24v24h-24zM120 864h24v24h-24zM144 864h24v24h-24zM168 864h24v24h-24zM192 864h24v24h-24zM216 864h24v24h-24zM240 864h24v24h-24zM264 864h24v24h-24zM288 864h24v24h-24zM312 864h24v24h-24zM336 864h24v24h-24zM360 864h24v24h-24zM384 864h24v24h-24zM408 864h24v24h-24zM384 840h24v24h-24zM360 816h24v24h-24zM336 792h24v24h-24zM312 768h24v24h-24zM288 744h24v24h-24zM264 720h24v24h-24zM240 696h24v24h-24zM216 672h24v24h-24zM192 648h24v24h-24zM168 624h24v24h-24zM144 600h24v24h-24zM120 576h24v24h-24zM96 552h24v24h-24zM72 528h24v24h-24zM48 528h24v24h-24zM24 528h24v24h-24zM0 528h24v24h-24zM0 552h24v24h-24zM0 576h24v24h-24zM0 600h24v24h-24zM0 624h24v24h-24zM0 648h24v24h-24zM24 648h24v24h-24zM48 648h24v24h-24zM72 648h24v24h-24zM96 648h24v24h-24zM120 648h24v24h-24zM144 648h24v24h-24zM168 648h24v24h-24zM120 768h24v24h-24zM144 768h24v24h-24zM168 768h24v24h-24zM192 768h24v24h-24zM192 744h24v24h-24zM192 720h24v24h-24zM192 696h24v24h-24zM192 624h24v24h-24zM192 600h24v24h-24zM192 576h24v24h-24zM192 552h24v24h-24zM192 528h24v24h-24zM192 504h24v24h-24zM192 480h24v24h-24zM192 792h24v24h-24zM192 816h24v24h-24zM192 840h24v24h-24zM192 888h24v24h-24zM192 912h24v24h-24zM192 936h24v24h-24zM216 936h24v24h-24zM240 936h24v24h-24zM264 936h24v24h-24zM288 936h24v24h-24zM312 936h24v24h-24zM336 936h24v24h-24zM360 936h24v24h-24zM384 936h24v24h-24zM408 936h24v24h-24zM432 936h24v24h-24zM408 912h24v24h-24zM384 888h24v24h-24zM336 840h24v24h-24zM312 816h24v24h-24zM288 792h24v24h-24zM264 768h24v24h-24zM240 744h24v24h-24zM216 720h24v24h-24zM168 672h24v24h-24zM144 696h24v24h-24zM120 720h24v24h-24zM96 744h24v24h-24zM72 768h24v24h-24zM48 792h24v24h-24zM264 648h24v24h-24zM288 672h24v24h-24zM312 696h24v24h-24zM336 720h24v24h-24zM360 744h24v24h-24zM384 768h24v24h-24zM408 792h24v24h-24zM432 816h24v24h-24zM432 792h24v24h-24zM432 768h24v24h-24zM432 744h24v24h-24zM432 720h24v24h-24zM432 696h24v24h-24zM432 672h24v24h-24zM432 648h24v24h-24zM432 624h24v24h-24zM432 600h24v24h-24zM432 576h24v24h-24zM432 552h24v24h-24zM432 528h24v24h-24zM432 504h24v24h-24zM432 480h24v24h-24zM408 480h24v24h-24zM384 480h24v24h-24zM336 480h24v24h-24zM312 480h24v24h-24zM288 480h24v24h-24zM264 480h24v24h-24zM240 480h24v24h-24zM216 480h24v24h-24zM168 480h24v24h-24zM144 480h24v24h-24zM120 480h24v24h-24zM96 480h24v24h-24zM72 480h24v24h-24zM48 480h24v24h-24zM48 504h24v24h-24zM48 552h24v24h-24zM48 576h24v24h-24zM48 600h24v24h-24zM48 624h24v24h-24zM48 672h24v24h-24zM72 672h24v24h-24zM96 672h24v24h-24zM120 672h24v24h-24zM144 672h24v24h-24zM240 672h24v24h-24zM264 672h24v24h-24zM312 672h24v24h-24zM336 672h24v24h-24zM360 672h24v24h-24zM384 672h24v24h-24zM408 672h24v24h-24zM72 504h24v24h-24zM96 504h24v24h-24zM120 504h24v24h-24zM144 504h24v24h-24zM168 504h24v24h-24zM216 504h24v24h-24zM240 504h24v24h-24zM264 504h24v24h-24zM288 504h24v24h-24zM288 528h24v24h-24zM288 552h24v24h-24zM288 600h24v24h-24zM288 624h24v24h-24zM288 648h24v24h-24zM288 696h24v24h-24zM288 720h24v24h-24zM288 768h24v24h-24zM288 816h24v24h-24zM288 840h24v24h-24zM288 888h24v24h-24zM288 912h24v24h-24zM168 936h24v24h-24zM144 936h24v24h-24zM120 936h24v24h-24zM96 912h24v24h-24zM72 888h24v24h-24zM72 840h24v24h-24zM96 816h24v24h-24zM120 792h24v24h-24zM168 744h24v24h-24zM216 696h24v24h-24zM240 720h24v24h-24zM240 768h24v24h-24zM240 792h24v24h-24zM240 816h24v24h-24zM240 840h24v24h-24zM240 888h24v24h-24zM264 888h24v24h-24zM264 912h24v24h-24zM96 936h24v24h-24zM72 936h24v24h-24zM120 888h24v24h-24zM168 840h24v24h-24zM216 792h24v24h-24zM264 744h24v24h-24zM312 720h24v24h-24zM312 744h24v24h-24zM312 792h24v24h-24zM312 840h24v24h-24zM312 888h24v24h-24zM312 912h24v24h-24zM264 840h24v24h-24zM264 816h24v24h-24zM264 792h24v24h-24zM264 696h24v24h-24zM264 624h24v24h-24zM264 576h24v24h-24zM240 600h24v24h-24zM216 624h24v24h-24zM144 744h24v24h-24zM216 744h24v24h-24zM336 744h24v24h-24zM384 744h24v24h-24zM360 720h24v24h-24zM336 696h24v24h-24zM912 744h24v24h-24zM912 720h24v24h-24zM912 696h24v24h-24zM912 672h24v24h-24zM912 648h24v24h-24zM912 624h24v24h-24zM912 600h24v24h-24zM912 576h24v24h-24zM912 552h24v24h-24zM912 528h24v24h-24zM912 504h24v24h-24zM912 480h24v24h-24zM888 480h24v24h-24zM864 480h24v24h-24zM840 480h24v24h-24zM816 480h24v24h-24zM792 480h24v24h-24zM768 480h24v24h-24zM768 504h24v24h-24zM768 528h24v24h-24zM768 552h24v24h-24zM768 576h24v24h-24zM768 600h24v24h-24zM768 624h24v24h-24zM768 648h24v24h-24zM792 648h24v24h-24zM816 648h24v24h-24zM840 648h24v24h-24zM840 672h24v24h-24zM840 696h24v24h-24zM840 720h24v24h-24zM840 744h24v24h-24zM840 768h24v24h-24zM840 792h24v24h-24zM840 816h24v24h-24zM840 840h24v24h-24zM840 864h24v24h-24zM840 888h24v24h-24zM816 864h24v24h-24zM792 840h24v24h-24zM768 816h24v24h-24zM744 792h24v24h-24zM720 768h24v24h-24zM696 744h24v24h-24zM672 720h24v24h-24zM648 696h24v24h-24zM624 672h24v24h-24zM600 648h24v24h-24zM576 624h24v24h-24zM576 648h24v24h-24zM576 672h24v24h-24zM576 696h24v24h-24zM576 720h24v24h-24zM552 696h24v24h-24zM528 672h24v24h-24zM504 696h24v24h-24zM528 696h24v24h-24zM600 696h24v24h-24zM624 696h24v24h-24zM672 696h24v24h-24zM696 696h24v24h-24zM720 696h24v24h-24zM744 696h24v24h-24zM768 696h24v24h-24zM792 696h24v24h-24zM816 696h24v24h-24zM864 696h24v24h-24zM624 648h24v24h-24zM624 624h24v24h-24zM624 600h24v24h-24zM624 576h24v24h-24zM624 552h24v24h-24zM624 720h24v24h-24zM648 744h24v24h-24zM648 768h24v24h-24zM648 792h24v24h-24zM648 720h24v24h-24zM648 672h24v24h-24zM648 648h24v24h-24zM648 624h24v24h-24zM648 600h24v24h-24zM648 576h24v24h-24zM672 576h24v24h-24zM696 576h24v24h-24zM720 576h24v24h-24zM744 576h24v24h-24zM792 576h24v24h-24zM816 576h24v24h-24zM672 600h24v24h-24zM624 744h24v24h-24zM600 744h24v24h-24zM576 744h24v24h-24zM552 744h24v24h-24zM528 744h24v24h-24zM504 744h24v24h-24zM480 744h24v24h-24zM504 768h24v24h-24zM528 792h24v24h-24zM552 816h24v24h-24zM576 840h24v24h-24zM600 864h24v24h-24zM624 888h24v24h-24zM648 912h24v24h-24zM672 936h24v24h-24zM672 912h24v24h-24zM672 888h24v24h-24zM672 864h24v24h-24zM672 840h24v24h-24zM672 816h24v24h-24zM672 792h24v24h-24zM672 768h24v24h-24zM672 744h24v24h-24zM768 864h24v24h-24zM744 888h24v24h-24zM720 912h24v24h-24zM720 888h24v24h-24zM720 864h24v24h-24zM720 840h24v24h-24zM720 816h24v24h-24zM720 792h24v24h-24zM720 744h24v24h-24zM720 720h24v24h-24zM720 672h24v24h-24zM720 648h24v24h-24zM720 624h24v24h-24zM720 600h24v24h-24zM720 552h24v24h-24zM720 528h24v24h-24zM720 504h24v24h-24zM720 480h24v24h-24zM744 480h24v24h-24zM840 504h24v24h-24zM840 528h24v24h-24zM840 552h24v24h-24zM840 576h24v24h-24zM840 600h24v24h-24zM840 624h24v24h-24zM840 912h24v24h-24zM840 936h24v24h-24zM816 624h24v24h-24zM792 600h24v24h-24zM768 672h24v24h-24zM768 720h24v24h-24zM768 744h24v24h-24zM768 768h24v24h-24zM768 792h24v24h-24zM768 840h24v24h-24zM768 888h24v24h-24zM744 816h24v24h-24zM696 768h24v24h-24zM696 720h24v24h-24zM744 672h24v24h-24zM792 624h24v24h-24zM816 600h24v24h-24zM864 552h24v24h-24zM888 528h24v24h-24zM864 528h24v24h-24zM816 528h24v24h-24zM792 528h24v24h-24zM744 528h24v24h-24zM696 528h24v24h-24zM672 528h24v24h-24zM648 528h24v24h-24zM624 528h24v24h-24zM600 528h24v24h-24zM576 528h24v24h-24zM576 552h24v24h-24zM576 576h24v24h-24zM576 600h24v24h-24zM576 768h24v24h-24zM528 768h24v24h-24zM504 792h24v24h-24zM480 792h24v24h-24z"/></svg>