<svg xmlns="http://www.w3.org/2000/svg" width="960" height="960" viewBox="0 0 960 960" shape-rendering="crispEdges"><path fill="#000" d="M0 0h960v960h-960z"/><path fill="#486ca3" d="M0 0h12v12h-12zM0 48h12v12h-12zM0 96h12v12h-12zM0 144h12v12h-12zM0 192h12v12h-12zM0 240h12v12h-12zM0 288h12v12h-12zM0 336h12v12h-12zM0 384h12v12h-12zM0 432h12v12h-12zM0 480h12v12h-12zM0 528h12v12h-12zM0 576h12v12h-12zM0 624h12v12h-12zM0 672h12v12h-12zM0 720h12v12h-12zM0 768h12v12h-12zM0 816h12v12h-12zM0 864h12v12h-12zM0 912h12v12h-12zM12 0h12v12h-12zM12 48h12v12h-12zM12 96h12v12h-12zM12 144h12v12h-12zM12 192h12v12h-12zM12 240h12v12h-12zM12 288h12v12h-12zM12 336h12v12h-12zM12 384h12v12h-12zM12 432h12v12h-12zM12 480h12v12h-12zM12 528h12v12h-12zM12 576h12v12h-12zM12 624h12v12h-12zM12 672h12v12h-12zM12 720h12v12h-12zM12 768h12v12h-12zM12 816h12v12h-12zM12 864h12v12h-12zM12 912h12v12h-12zM24 0h12v12h-12zM24 48h12v12h-12zM24 96h12v12h-12zM24 144h12v12h-12zM24 192h12v12h-12zM24 240h12v12h-12zM24 288h12v12h-12zM24 336h12v12h-12zM24 384h12v12h-12zM24 432h12v12h-12zM24 480h12v12h-12zM24 528h12v12h-12zM24 576h12v12h-12zM24 624h12v12h-12zM24 672h12v12h-12zM24 720h12v12h-12zM24 768h12v12h-12zM24 816h12v12h-12zM24 864h12v12h-12zM24 912h12v12h-12zM36 0h12v12h-12zM36 48h12v12h-12zM36 96h12v12h-12zM36 144h12v12h-12zM36 192h12v12h-12zM36 240h12v12h-12zM36 288h12v12h-12zM36 336h12v12h-12zM36 384h12v12h-12zM36 432h12v12h-12zM36 480h12v12h-12zM36 528h12v12h-12zM36 576h12v12h-12zM36 624h12v12h-12zM36 672h12v12h-12zM36 720h12v12h-12zM36 768h12v12h-12zM36 816h12v12h-12zM36 864h12v12h-12zM36 912h12v12h-12zM48 0h12v12h-12zM48 48h12v12h-12zM48 96h12v12h-12zM48 144h12v12h-12zM48 192h12v12h-12zM48 240h12v12h-12zM48 288h12v12h-12zM48 336h12v12h-12zM48 384h12v12h-12zM48 432h12v12h-12zM48 480h12v12h-12zM48 528h12v12h-12zM48 576h12v12h-12zM48 624h12v12h-12zM48 672h12v12h-12zM48 720h12v12h-12zM48 768h12v12h-12zM48 816h12v12h-12zM48 864h12v12h-12zM48 912h12v12h-12zM60 0h12v12h-12zM60 48h12v12h-12zM60 96h12v12h-12zM60 144h12v12h-12zM60 192h12v12h-12zM60 240h12v12h-12zM60 288h12v12h-12zM60 336h12v12h-12zM60 384h12v12h-12zM60 432h12v12h-12zM60 480h12v12h-12zM60 528h12v12h-12zM60 576h12v12h-12zM60 624h12v12h-12zM60 672h12v12h-12zM60 720h12v12h-12zM60 768h12v12h-12zM60 816h12v12h-12zM60 864h12v12h-12zM60 912h12v12h-12zM72 0h12v12h-12zM72 48h12v12h-12zM72 96h12v12h-12zM72 144h12v12h-12zM72 192h12v12h-12zM72 240h12v12h-12zM72 288h12v12h-12zM72 336h12v12h-12zM72 384h12v12h-12zM72 432h12v12h-12zM72 480h12v12h-12zM72 528h12v12h-12zM72 576h12v12h-12zM72 624h12v12h-12zM72 672h12v12h-12zM72 720h12v12h-12zM72 768h12v12h-12zM72 816h12v12h-12zM72 864h12v12h-12zM72 912h12v12h-12zM84 0h12v12h-12zM84 48h12v12h-12zM84 96h12v12h-12zM84 144h12v12h-12zM84 192h12v12h-12zM84 240h12v12h-12zM84 288h12v12h-12zM84 336h12v12h-12zM84 384h12v12h-12zM84 432h12v12h-12zM84 480h12v12h-12zM84 528h12v12h-12zM84 576h12v12h-12zM84 624h12v12h-12zM84 672h12v12h-12zM84 720h12v12h-12zM84 768h12v12h-12zM84 816h12v12h-12zM84 864h12v12h-12zM84 912h12v12h-12zM96 0h12v12h-12zM96 48h12v12h-12zM96 96h12v12h-12zM96 144h12v12h-12zM96 192h12v12h-12zM96 240h12v12h-12zM96 288h12v12h-12zM96 336h12v12h-12zM96 384h12v12h-12zM96 432h12v12h-12zM96 480h12v12h-12zM96 528h12v12h-12zM96 576h12v12h-12zM96 624h12v12h-12zM96 672h12v12h-12zM96 720h12v12h-12zM96 768h12v12h-12zM96 816h12v12h-12zM96 864h12v12h-12zM96 912h12v12h-12zM108 0h12v12h-12zM108 48h12v12h-12zM108 96h12v12h-12zM108 144h12v12h-12zM108 192h12v12h-12zM108 240h12v12h-12zM108 288h12v12h-12zM108 336h12v12h-12zM108 384h12v12h-12zM108 432h12v12h-12zM108 480h12v12h-12zM108 528h12v12h-12zM108 576h12v12h-12zM108 624h12v12h-12zM108 672h12v12h-12zM108 720h12v12h-12zM108 768h12v12h-12zM108 816h12v12h-12zM108 864h12v12h-12zM108 912h12v12h-12zM120 0h12v12h-12zM120 48h12v12h-12zM120 96h12v12h-12zM120 144h12v12h-12zM120 192h12v12h-12zM120 240h12v12h-12zM120 288h12v12h-12zM120 336h12v12h-12zM120 384h12v12h-12zM120 432h12v12h-12zM120 480h12v12h-12zM120 528h12v12h-12zM120 576h12v12h-12zM120 624h12v12h-12zM120 672h12v12h-12zM120 720h12v12h-12zM120 768h12v12h-12zM120 816h12v12h-12zM120 864h12v12h-12zM120 912h12v12h-12zM132 0h12v12h-12zM132 48h12v12h-12zM132 96h12v12h-12zM132 144h12v12h-12zM132 192h12v12h-12zM132 240h12v12h-12zM132 288h12v12h-12zM132 336h12v12h-12zM132 384h12v12h-12zM132 432h12v12h-12zM132 480h12v12h-12zM132 528h12v12h-12zM132 576h12v12h-12zM132 624h12v12h-12zM132 672h12v12h-12zM132 720h12v12h-12zM132 768h12v12h-12zM132 816h12v12h-12zM132 864h12v12h-12zM132 912h12v12h-12zM144 0h12v12h-12zM144 48h12v12h-12zM144 96h12v12h-12zM144 144h12v12h-12zM144 192h12v12h-12zM144 240h12v12h-12zM144 288h12v12h-12zM144 336h12v12h-12zM144 384h12v12h-12zM144 432h12v12h-12zM144 480h12v12h-12zM144 528h12v12h-12zM144 576h12v12h-12zM144 624h12v12h-12zM144 672h12v12h-12zM144 720h12v12h-12zM144 768h12v12h-12zM144 816h12v12h-12zM144 864h12v12h-12zM144 912h12v12h-12zM156 0h12v12h-12zM156 48h12v12h-12zM156 96h12v12h-12zM156 144h12v12h-12zM156 192h12v12h-12zM156 240h12v12h-12zM156 288h12v12h-12zM156 336h12v12h-12zM156 384h12v12h-12zM156 432h12v12h-12zM156 480h12v12h-12zM156 528h12v12h-12zM156 576h12v12h-12zM156 624h12v12h-12zM156 672h12v12h-12zM156 720h12v12h-12zM156 768h12v12h-12zM156 816h12v12h-12zM156 864h12v12h-12zM156 912h12v12h-12zM168 0h12v12h-12zM168 48h12v12h-12zM168 96h12v12h-12zM168 144h12v12h-12zM168 192h12v12h-12zM168 240h12v12h-12zM168 288h12v12h-12zM168 336h12v12h-12zM168 384h12v12h-12zM168 432h12v12h-12zM168 480h12v12h-12zM168 528h12v12h-12zM168 576h12v12h-12zM168 624h12v12h-12zM168 672h12v12h-12zM168 720h12v12h-12zM168 768h12v12h-12zM168 816h12v12h-12zM168 864h12v12h-12zM168 912h12v12h-12zM180 0h12v12h-12zM180 48h12v12h-12zM180 96h12v12h-12zM180 144h12v12h-12zM180 192h12v12h-12zM180 240h12v12h-12zM180 288h12v12h-12zM180 336h12v12h-12zM180 384h12v12h-12zM180 432h12v12h-12zM180 480h12v12h-12zM180 528h12v12h-12zM180 576h12v12h-12zM180 624h12v12h-12zM180 672h12v12h-12zM180 720h12v12h-12zM180 768h12v12h-12zM180 816h12v12h-12zM180 864h12v12h-12zM180 912h12v12h-12zM192 0h12v12h-12zM192 48h12v12h-12zM192 96h12v12h-12zM192 144h12v12h-12zM192 192h12v12h-12zM192 240h12v12h-12zM192 288h12v12h-12zM192 336h12v12h-12zM192 384h12v12h-12zM192 432h12v12h-12zM192 480h12v12h-12zM192 528h12v12h-12zM192 576h12v12h-12zM192 624h12v12h-12zM192 672h12v12h-12zM192 720h12v12h-12zM192 768h12v12h-12zM192 816h12v12h-12zM192 864h12v12h-12zM192 912h12v12h-12zM204 0h12v12h-12zM204 48h12v12h-12zM204 96h12v12h-12zM204 144h12v12h-12zM204 192h12v12h-12zM204 240h12v12h-12zM204 288h12v12h-12zM204 336h12v12h-12zM204 384h12v12h-12zM204 432h12v12h-12zM204 480h12v12h-12zM204 528h12v12h-12zM204 576h12v12h-12zM204 624h12v12h-12zM204 672h12v12h-12zM204 720h12v12h-12zM204 768h12v12h-12zM204 816h12v12h-12zM204 864h12v12h-12zM204 912h12v12h-12zM216 0h12v12h-12zM216 48h12v12h-12zM216 96h12v12h-12zM216 144h12v12h-12zM216 192h12v12h-12zM216 240h12v12h-12zM216 288h12v12h-12zM216 336h12v12h-12zM216 384h12v12h-12zM216 432h12v12h-12zM216 480h12v12h-12zM216 528h12v12h-12zM216 576h12v12h-12zM216 624h12v12h-12zM216 672h12v12h-12zM216 720h12v12h-12zM216 768h12v12h-12zM216 816h12v12h-12zM216 864h12v12h-12zM216 912h12v12h-12zM228 0h12v12h-12zM228 48h12v12h-12zM228 96h12v12h-12zM228 144h12v12h-12zM228 192h12v12h-12zM228 240h12v12h-12zM228 288h12v12h-12zM228 336h12v12h-12zM228 384h12v12h-12zM228 432h12v12h-12zM228 480h12v12h-12zM228 528h12v12h-12zM228 576h12v12h-12zM228 624h12v12h-12zM228 672h12v12h-12zM228 720h12v12h-12zM228 768h12v12h-12zM228 816h12v12h-12zM228 864h12v12h-12zM228 912h12v12h-12zM240 0h12v12h-12zM240 48h12v12h-12zM240 96h12v12h-12zM240 144h12v12h-12zM240 192h12v12h-12zM240 240h12v12h-12zM240 288h12v12h-12zM240 336h12v12h-12zM240 384h12v12h-12zM240 432h12v12h-12zM240 480h12v12h-12zM240 528h12v12h-12zM240 576h12v12h-12zM240 624h12v12h-12zM240 672h12v12h-12zM240 720h12v12h-12zM240 768h12v12h-12zM240 816h12v12h-12zM240 864h12v12h-12zM240 912h12v12h-12zM252 0h12v12h-12zM252 48h12v12h-12zM252 96h12v12h-12zM252 144h12v12h-12zM252 192h12v12h-12zM252 240h12v12h-12zM252 288h12v12h-12zM252 336h12v12h-12zM252 384h12v12h-12zM252 432h12v12h-12zM252 480h12v12h-12zM252 528h12v12h-12zM252 576h12v12h-12zM252 624h12v12h-12zM252 672h12v12h-12zM252 720h12v12h-12zM252 768h12v12h-12zM252 816h12v12h-12zM252 864h12v12h-12zM252 912h12v12h-12zM264 0h12v12h-12zM264 48h12v12h-12zM264 96h12v12h-12zM264 144h12v12h-12zM264 192h12v12h-12zM264 240h12v12h-12zM264 288h12v12h-12zM264 336h12v12h-12zM264 384h12v12h-12zM264 432h12v12h-12zM264 480h12v12h-12zM264 528h12v12h-12zM264 576h12v12h-12zM264 624h12v12h-12zM264 672h12v12h-12zM264 720h12v12h-12zM264 768h12v12h-12zM264 816h12v12h-12zM264 864h12v12h-12zM264 912h12v12h-12zM276 0h12v12h-12zM276 48h12v12h-12zM276 96h12v12h-12zM276 144h12v12h-12zM276 192h12v12h-12zM276 240h12v12h-12zM276 288h12v12h-12zM276 336h12v12h-12zM276 384h12v12h-12zM276 432h12v12h-12zM276 480h12v12h-12zM276 528h12v12h-12zM276 576h12v12h-12zM276 624h12v12h-12zM276 672h12v12h-12zM276 720h12v12h-12zM276 768h12v12h-12zM276 816h12v12h-12zM276 864h12v12h-12zM276 912h12v12h-12zM288 0h12v12h-12zM288 48h12v12h-12zM288 96h12v12h-12zM288 144h12v12h-12zM288 192h12v12h-12zM288 240h12v12h-12zM288 288h12v12h-12zM288 336h12v12h-12zM288 384h12v12h-12zM288 432h12v12h-12zM288 480h12v12h-12zM288 528h12v12h-12zM288 576h12v12h-12zM288 624h12v12h-12zM288 672h12v12h-12zM288 720h12v12h-12zM288 768h12v12h-12zM288 816h12v12h-12zM288 864h12v12h-12zM288 912h12v12h-12zM300 0h12v12h-12zM300 48h12v12h-12zM300 96h12v12h-12zM300 144h12v12h-12zM300 192h12v12h-12zM300 240h12v12h-12zM300 288h12v12h-12zM300 336h12v12h-12zM300 384h12v12h-12zM300 432h12v12h-12zM300 480h12v12h-12zM300 528h12v12h-12zM300 576h12v12h-12zM300 624h12v12h-12zM300 672h12v12h-12zM300 720h12v12h-12zM300 768h12v12h-12zM300 816h12v12h-12zM300 864h12v12h-12zM300 912h12v12h-12zM312 0h12v12h-12zM312 48h12v12h-12zM312 96h12v12h-12zM312 144h12v12h-12zM312 192h12v12h-12zM312 240h12v12h-12zM312 288h12v12h-12zM312 336h12v12h-12zM312 384h12v12h-12zM312 432h12v12h-12zM312 480h12v12h-12zM312 528h12v12h-12zM312 576h12v12h-12zM312 624h12v12h-12zM312 672h12v12h-12zM312 720h12v12h-12zM312 768h12v12h-12zM312 816h12v12h-12zM312 864h12v12h-12zM312 912h12v12h-12zM324 0h12v12h-12zM324 48h12v12h-12zM324 96h12v12h-12zM324 144h12v12h-12zM324 192h12v12h-12zM324 240h12v12h-12zM324 288h12v12h-12zM324 336h12v12h-12zM324 384h12v12h-12zM324 432h12v12h-12zM324 480h12v12h-12zM324 528h12v12h-12zM324 576h12v12h-12zM324 624h12v12h-12zM324 672h12v12h-12zM324 720h12v12h-12zM324 768h12v12h-12zM324 816h12v12h-12zM324 864h12v12h-12zM324 912h12v12h-12zM336 0h12v12h-12zM336 48h12v12h-12zM336 96h12v12h-12zM336 144h12v12h-12zM336 192h12v12h-12zM336 240h12v12h-12zM336 288h12v12h-12zM336 336h12v12h-12zM336 384h12v12h-12zM336 432h12v12h-12zM336 480h12v12h-12zM336 528h12v12h-12zM336 576h12v12h-12zM336 624h12v12h-12zM336 672h12v12h-12zM336 720h12v12h-12zM336 768h12v12h-12zM336 816h12v12h-12zM336 864h12v12h-12zM336 912h12v12h-12zM348 0h12v12h-12zM348 48h12v12h-12zM348 96h12v12h-12zM348 144h12v12h-12zM348 192h12v12h-12zM348 240h12v12h-12zM348 288h12v12h-12zM348 336h12v12h-12zM348 384h12v12h-12zM348 432h12v12h-12zM348 480h12v12h-12zM348 528h12v12h-12zM348 576h12v12h-12zM348 624h12v12h-12zM348 672h12v12h-12zM348 720h12v12h-12zM348 768h12v12h-12zM348 816h12v12h-12zM348 864h12v12h-12zM348 912h12v12h-12zM360 0h12v12h-12zM360 48h12v12h-12zM360 96h12v12h-12zM360 144h12v12h-12zM360 192h12v12h-12zM360 240h12v12h-12zM360 288h12v12h-12zM360 336h12v12h-12zM360 384h12v12h-12zM360 432h12v12h-12zM360 480h12v12h-12zM360 528h12v12h-12zM360 576h12v12h-12zM360 624h12v12h-12zM360 672h12v12h-12zM360 720h12v12h-12zM360 768h12v12h-12zM360 816h12v12h-12zM360 864h12v12h-12zM360 912h12v12h-12zM372 0h12v12h-12zM372 48h12v12h-12zM372 96h12v12h-12zM372 144h12v12h-12zM372 192h12v12h-12zM372 240h12v12h-12zM372 288h12v12h-12zM372 336h12v12h-12zM372 384h12v12h-12zM372 432h12v12h-12zM372 480h12v12h-12zM372 528h12v12h-12zM372 576h12v12h-12zM372 624h12v12h-12zM372 672h12v12h-12zM372 720h12v12h-12zM372 768h12v12h-12zM372 816h12v12h-12zM372 864h12v12h-12zM372 912h12v12h-12zM384 0h12v12h-12zM384 48h12v12h-12zM384 96h12v12h-12zM384 144h12v12h-12zM384 192h12v12h-12zM384 240h12v12h-12zM384 288h12v12h-12zM384 336h12v12h-12zM384 384h12v12h-12zM384 432h12v12h-12zM384 480h12v12h-12zM384 528h12v12h-12zM384 576h12v12h-12zM384 624h12v12h-12zM384 672h12v12h-12zM384 720h12v12h-12zM384 768h12v12h-12zM384 816h12v12h-12zM384 864h12v12h-12zM384 912h12v12h-12zM396 0h12v12h-12zM396 48h12v12h-12zM396 96h12v12h-12zM396 144h12v12h-12zM396 192h12v12h-12zM396 240h12v12h-12zM396 288h12v12h-12zM396 336h12v12h-12zM396 384h12v12h-12zM396 432h12v12h-12zM396 480h12v12h-12zM396 528h12v12h-12zM396 576h12v12h-12zM396 624h12v12h-12zM396 672h12v12h-12zM396 720h12v12h-12zM396 768h12v12h-12zM396 816h12v12h-12zM396 864h12v12h-12zM396 912h12v12h-12zM408 0h12v12h-12zM408 48h12v12h-12zM408 96h12v12h-12zM408 144h12v12h-12zM408 192h12v12h-12zM408 240h12v12h-12zM408 288h12v12h-12zM408 336h12v12h-12zM408 384h12v12h-12zM408 432h12v12h-12zM408 480h12v12h-12zM408 528h12v12h-12zM408 576h12v12h-12zM408 624h12v12h-12zM408 672h12v12h-12zM408 720h12v12h-12zM408 768h12v12h-12zM408 816h12v12h-12zM408 864h12v12h-12zM408 912h12v12h-12zM420 0h12v12h-12zM420 48h12v12h-12zM420 96h12v12h-12zM420 144h12v12h-12zM420 192h12v12h-12zM420 240h12v12h-12zM420 288h12v12h-12zM420 336h12v12h-12zM420 384h12v12h-12zM420 432h12v12h-12zM420 480h12v12h-12zM420 528h12v12h-12zM420 576h12v12h-12zM420 624h12v12h-12zM420 672h12v12h-12zM420 720h12v12h-12zM420 768h12v12h-12zM420 816h12v12h-12zM420 864h12v12h-12zM420 912h12v12h-12zM432 0h12v12h-12zM432 48h12v12h-12zM432 96h12v12h-12zM432 144h12v12h-12zM432 192h12v12h-12zM432 240h12v12h-12zM432 288h12v12h-12zM432 336h12v12h-12zM432 384h12v12h-12zM432 432h12v12h-12zM432 480h12v12h-12zM432 528h12v12h-12zM432 576h12v12h-12zM432 624h12v12h-12zM432 672h12v12h-12zM432 720h12v12h-12zM432 768h12v12h-12zM432 816h12v12h-12zM432 864h12v12h-12zM432 912h12v12h-12zM444 0h12v12h-12zM444 48h12v12h-12zM444 96h12v12h-12zM444 144h12v12h-12zM444 192h12v12h-12zM444 240h12v12h-12zM444 288h12v12h-12zM444 336h12v12h-12zM444 384h12v12h-12zM444 432h12v12h-12zM444 480h12v12h-12zM444 528h12v12h-12zM444 576h12v12h-12zM444 624h12v12h-12zM444 672h12v12h-12zM444 720h12v12h-12zM444 768h12v12h-12zM444 816h12v12h-12zM444 864h12v12h-12zM444 912h12v12h-12zM456 0h12v12h-12zM456 48h12v12h-12zM456 96h12v12h-12zM456 144h12v12h-12zM456 192h12v12h-12zM456 240h12v12h-12zM456 288h12v12h-12zM456 336h12v12h-12zM456 384h12v12h-12zM456 432h12v12h-12zM456 480h12v12h-12zM456 528h12v12h-12zM456 576h12v12h-12zM456 624h12v12h-12zM456 672h12v12h-12zM456 720h12v12h-12zM456 768h12v12h-12zM456 816h12v12h-12zM456 864h12v12h-12zM456 912h12v12h-12zM468 0h12v12h-12zM468 48h12v12h-12zM468 96h12v12h-12zM468 144h12v12h-12zM468 192h12v12h-12zM468 240h12v12h-12zM468 288h12v12h-12zM468 336h12v12h-12zM468 384h12v12h-12zM468 432h12v12h-12zM468 480h12v12h-12zM468 528h12v12h-12zM468 576h12v12h-12zM468 624h12v12h-12zM468 672h12v12h-12zM468 720h12v12h-12zM468 768h12v12h-12zM468 816h12v12h-12zM468 864h12v12h-12zM468 912h12v12h-12zM480 0h12v12h-12zM480 48h12v12h-12zM480 96h12v12h-12zM480 144h12v12h-12zM480 192h12v12h-12zM480 240h12v12h-12zM480 288h12v12h-12zM480 336h12v12h-12zM480 384h12v12h-12zM480 432h12v12h-12zM480 480h12v12h-12zM480 528h12v12h-12zM480 576h12v12h-12zM480 624h12v12h-12zM480 672h12v12h-12zM480 720h12v12h-12zM480 768h12v12h-12zM480 816h12v12h-12zM480 864h12v12h-12zM480 912h12v12h-12zM492 0h12v12h-12zM492 48h12v12h-12zM492 96h12v12h-12zM492 144h12v12h-12zM492 192h12v12h-12zM492 240h12v12h-12zM492 288h12v12h-12zM492 336h12v12h-12zM492 384h12v12h-12zM492 432h12v12h-12zM492 480h12v12h-12zM492 528h12v12h-12zM492 576h12v12h-12zM492 624h12v12h-12zM492 672h12v12h-12zM492 720h12v12h-12zM492 768h12v12h-12zM492 816h12v12h-12zM492 864h12v12h-12zM492 912h12v12h-12zM504 0h12v12h-12zM504 48h12v12h-12zM504 96h12v12h-12zM504 144h12v12h-12zM504 192h12v12h-12zM504 240h12v12h-12zM504 288h12v12h-12zM504 336h12v12h-12zM504 384h12v12h-12zM504 432h12v12h-12zM504 480h12v12h-12zM504 528h12v12h-12zM504 576h12v12h-12zM504 624h12v12h-12zM504 672h12v12h-12zM504 720h12v12h-12zM504 768h12v12h-12zM504 816h12v12h-12zM504 864h12v12h-12zM504 912h12v12h-12zM516 0h12v12h-12zM516 48h12v12h-12zM516 96h12v12h-12zM516 144h12v12h-12zM516 192h12v12h-12zM516 240h12v12h-12zM516 288h12v12h-12zM516 336h12v12h-12zM516 384h12v12h-12zM516 432h12v12h-12zM516 480h12v12h-12zM516 528h12v12h-12zM516 576h12v12h-12zM516 624h12v12h-12zM516 672h12v12h-12zM516 720h12v12h-12zM516 768h12v12h-12zM516 816h12v12h-12zM516 864h12v12h-12zM516 912h12v12h-12zM528 0h12v12h-12zM528 48h12v12h-12zM528 96h12v12h-12zM528 144h12v12h-12zM528 192h12v12h-12zM528 240h12v12h-12zM528 288h12v12h-12zM528 336h12v12h-12zM528 384h12v12h-12zM528 432h12v12h-12zM528 480h12v12h-12zM528 528h12v12h-12zM528 576h12v12h-12zM528 624h12v12h-12zM528 672h12v12h-12zM528 720h12v12h-12zM528 768h12v12h-12zM528 816h12v12h-12zM528 864h12v12h-12zM528 912h12v12h-12zM540 0h12v12h-12zM540 48h12v12h-12zM540 96h12v12h-12zM540 144h12v12h-12zM540 192h12v12h-12zM540 240h12v12h-12zM540 288h12v12h-12zM540 336h12v12h-12zM540 384h12v12h-12zM540 432h12v12h-12zM540 480h12v12h-12zM540 528h12v12h-12zM540 576h12v12h-12zM540 624h12v12h-12zM540 672h12v12h-12zM540 720h12v12h-12zM540 768h12v12h-12zM540 816h12v12h-12zM540 864h12v12h-12zM540 912h12v12h-12zM552 0h12v12h-12zM552 48h12v12h-12zM552 96h12v12h-12zM552 144h12v12h-12zM552 192h12v12h-12zM552 240h12v12h-12zM552 288h12v12h-12zM552 336h12v12h-12zM552 384h12v12h-12zM552 432h12v12h-12zM552 480h12v12h-12zM552 528h12v12h-12zM552 576h12v12h-12zM552 624h12v12h-12zM552 672h12v12h-12zM552 720h12v12h-12zM552 768h12v12h-12zM552 816h12v12h-12zM552 864h12v12h-12zM552 912h12v12h-12zM564 0h12v12h-12zM564 48h12v12h-12zM564 96h12v12h-12zM564 144h12v12h-12zM564 192h12v12h-12zM564 240h12v12h-12zM564 288h12v12h-12zM564 336h12v12h-12zM564 384h12v12h-12zM564 432h12v12h-12zM564 480h12v12h-12zM564 528h12v12h-12zM564 576h12v12h-12zM564 624h12v12h-12zM564 672h12v12h-12zM564 720h12v12h-12zM564 768h12v12h-12zM564 816h12v12h-12zM564 864h12v12h-12zM564 912h12v12h-12zM576 0h12v12h-12zM576 48h12v12h-12zM576 96h12v12h-12zM576 144h12v12h-12zM576 192h12v12h-12zM576 240h12v12h-12zM576 288h12v12h-12zM576 336h12v12h-12zM576 384h12v12h-12zM576 432h12v12h-12zM576 480h12v12h-12zM576 528h12v12h-12zM576 576h12v12h-12zM576 624h12v12h-12zM576 672h12v12h-12zM576 720h12v12h-12zM576 768h12v12h-12zM576 816h12v12h-12zM576 864h12v12h-12zM576 912h12v12h-12zM588 0h12v12h-12zM588 48h12v12h-12zM588 96h12v12h-12zM588 144h12v12h-12zM588 192h12v12h-12zM588 240h12v12h-12zM588 288h12v12h-12zM588 336h12v12h-12zM588 384h12v12h-12zM588 432h12v12h-12zM588 480h12v12h-12zM588 528h12v12h-12zM588 576h12v12h-12zM588 624h12v12h-12zM588 672h12v12h-12zM588 720h12v12h-12zM588 768h12v12h-12zM588 816h12v12h-12zM588 864h12v12h-12zM588 912h12v12h-12zM600 0h12v12h-12zM600 48h12v12h-12zM600 96h12v12h-12zM600 144h12v12h-12zM600 192h12v12h-12zM600 240h12v12h-12zM600 288h12v12h-12zM600 336h12v12h-12zM600 384h12v12h-12zM600 432h12v12h-12zM600 480h12v12h-12zM600 528h12v12h-12zM600 576h12v12h-12zM600 624h12v12h-12zM600 672h12v12h-12zM600 720h12v12h-12zM600 768h12v12h-12zM600 816h12v12h-12zM600 864h12v12h-12zM600 912h12v12h-12zM612 0h12v12h-12zM612 48h12v12h-12zM612 96h12v12h-12zM612 144h12v12h-12zM612 192h12v12h-12zM612 240h12v12h-12zM612 288h12v12h-12zM612 336h12v12h-12zM612 384h12v12h-12zM612 432h12v12h-12zM612 480h12v12h-12zM612 528h12v12h-12zM612 576h12v12h-12zM612 624h12v12h-12zM612 672h12v12h-12zM612 720h12v12h-12zM612 768h12v12h-12zM612 816h12v12h-12zM612 864h12v12h-12zM612 912h12v12h-12zM624 0h12v12h-12zM624 48h12v12h-12zM624 96h12v12h-12zM624 144h12v12h-12zM624 192h12v12h-12zM624 240h12v12h-12zM624 288h12v12h-12zM624 336h12v12h-12zM624 384h12v12h-12zM624 432h12v12h-12zM624 480h12v12h-12zM624 528h12v12h-12zM624 576h12v12h-12zM624 624h12v12h-12zM624 672h12v12h-12zM624 720h12v12h-12zM624 768h12v12h-12zM624 816h12v12h-12zM624 864h12v12h-12zM624 912h12v12h-12zM636 0h12v12h-12zM636 48h12v12h-12zM636 96h12v12h-12zM636 144h12v12h-12zM636 192h12v12h-12zM636 240h12v12h-12zM636 288h12v12h-12zM636 336h12v12h-12zM636 384h12v12h-12zM636 432h12v12h-12zM636 480h12v12h-12zM636 528h12v12h-12zM636 576h12v12h-12zM636 624h12v12h-12zM636 672h12v12h-12zM636 720h12v12h-12zM636 768h12v12h-12zM636 816h12v12h-12zM636 864h12v12h-12zM636 912h12v12h-12zM648 0h12v12h-12zM648 48h12v12h-12zM648 96h12v12h-12zM648 144h12v12h-12zM648 192h12v12h-12zM648 240h12v12h-12zM648 288h12v12h-12zM648 336h12v12h-12zM648 384h12v12h-12zM648 432h12v12h-12zM648 480h12v12h-12zM648 528h12v12h-12zM648 576h12v12h-12zM648 624h12v12h-12zM648 672h12v12h-12zM648 720h12v12h-12zM648 768h12v12h-12zM648 816h12v12h-12zM648 864h12v12h-12zM648 912h12v12h-12zM660 0h12v12h-12zM660 48h12v12h-12zM660 96h12v12h-12zM660 144h12v12h-12zM660 192h12v12h-12zM660 240h12v12h-12zM660 288h12v12h-12zM660 336h12v12h-12zM660 384h12v12h-12zM660 432h12v12h-12zM660 480h12v12h-12zM660 528h12v12h-12zM660 576h12v12h-12zM660 624h12v12h-12zM660 672h12v12h-12zM660 720h12v12h-12zM660 768h12v12h-12zM660 816h12v12h-12zM660 864h12v12h-12zM660 912h12v12h-12zM672 0h12v12h-12zM672 48h12v12h-12zM672 96h12v12h-12zM672 144h12v12h-12zM672 192h12v12h-12zM672 240h12v12h-12zM672 288h12v12h-12zM672 336h12v12h-12zM672 384h12v12h-12zM672 432h12v12h-12zM672 480h12v12h-12zM672 528h12v12h-12zM672 576h12v12h-12zM672 624h12v12h-12zM672 672h12v12h-12zM672 720h12v12h-12zM672 768h12v12h-12zM672 816h12v12h-12zM672 864h12v12h-12zM672 912h12v12h-12zM684 0h12v12h-12zM684 48h12v12h-12zM684 96h12v12h-12zM684 144h12v12h-12zM684 192h12v12h-12zM684 240h12v12h-12zM684 288h12v12h-12zM684 336h12v12h-12zM684 384h12v12h-12zM684 432h12v12h-12zM684 480h12v12h-12zM684 528h12v12h-12zM684 576h12v12h-12zM684 624h12v12h-12zM684 672h12v12h-12zM684 720h12v12h-12zM684 768h12v12h-12zM684 816h12v12h-12zM684 864h12v12h-12zM684 912h12v12h-12zM696 0h12v12h-12zM696 48h12v12h-12zM696 96h12v12h-12zM696 144h12v12h-12zM696 192h12v12h-12zM696 240h12v12h-12zM696 288h12v12h-12zM696 336h12v12h-12zM696 384h12v12h-12zM696 432h12v12h-12zM696 480h12v12h-12zM696 528h12v12h-12zM696 576h12v12h-12zM696 624h12v12h-12zM696 672h12v12h-12zM696 720h12v12h-12zM696 768h12v12h-12zM696 816h12v12h-12zM696 864h12v12h-12zM696 912h12v12h-12zM708 0h12v12h-12zM708 48h12v12h-12zM708 96h12v12h-12zM708 144h12v12h-12zM708 192h12v12h-12zM708 240h12v12h-12zM708 288h12v12h-12zM708 336h12v12h-12zM708 384h12v12h-12zM708 432h12v12h-12zM708 480h12v12h-12zM708 528h12v12h-12zM708 576h12v12h-12zM708 624h12v12h-12zM708 672h12v12h-12zM708 720h12v12h-12zM708 768h12v12h-12zM708 816h12v12h-12zM708 864h12v12h-12zM708 912h12v12h-12zM720 0h12v12h-12zM720 48h12v12h-12zM720 96h12v12h-12zM720 144h12v12h-12zM720 192h12v12h-12zM720 240h12v12h-12zM720 288h12v12h-12zM720 336h12v12h-12zM720 384h12v12h-12zM720 432h12v12h-12zM720 480h12v12h-12zM720 528h12v12h-12zM720 576h12v12h-12zM720 624h12v12h-12zM720 672h12v12h-12zM720 720h12v12h-12zM720 768h12v12h-12zM720 816h12v12h-12zM720 864h12v12h-12zM720 912h12v12h-12zM732 0h12v12h-12zM732 48h12v12h-12zM732 96h12v12h-12zM732 144h12v12h-12zM732 192h12v12h-12zM732 240h12v12h-12zM732 288h12v12h-12zM732 336h12v12h-12zM732 384h12v12h-12zM732 432h12v12h-12zM732 480h12v12h-12zM732 528h12v12h-12zM732 576h12v12h-12zM732 624h12v12h-12zM732 672h12v12h-12zM732 720h12v12h-12zM732 768h12v12h-12zM732 816h12v12h-12zM732 864h12v12h-12zM732 912h12v12h-12zM744 0h12v12h-12zM744 48h12v12h-12zM744 96h12v12h-12zM744 144h12v12h-12zM744 192h12v12h-12zM744 240h12v12h-12zM744 288h12v12h-12zM744 336h12v12h-12zM744 384h12v12h-12zM744 432h12v12h-12zM744 480h12v12h-12zM744 528h12v12h-12zM744 576h12v12h-12zM744 624h12v12h-12zM744 672h12v12h-12zM744 720h12v12h-12zM744 768h12v12h-12zM744 816h12v12h-12zM744 864h12v12h-12zM744 912h12v12h-12zM756 0h12v12h-12zM756 48h12v12h-12zM756 96h12v12h-12zM756 144h12v12h-12zM756 192h12v12h-12zM756 240h12v12h-12zM756 288h12v12h-12zM756 336h12v12h-12zM756 384h12v12h-12zM756 432h12v12h-12zM756 480h12v12h-12zM756 528h12v12h-12zM756 576h12v12h-12zM756 624h12v12h-12zM756 672h12v12h-12zM756 720h12v12h-12zM756 768h12v12h-12zM756 816h12v12h-12zM756 864h12v12h-12zM756 912h12v12h-12zM768 0h12v12h-12zM768 48h12v12h-12zM768 96h12v12h-12zM768 144h12v12h-12zM768 192h12v12h-12zM768 240h12v12h-12zM768 288h12v12h-12zM768 336h12v12h-12zM768 384h12v12h-12zM768 432h12v12h-12zM768 480h12v12h-12zM768 528h12v12h-12zM768 576h12v12h-12zM768 624h12v12h-12zM768 672h12v12h-12zM768 720h12v12h-12zM768 768h12v12h-12zM768 816h12v12h-12zM768 864h12v12h-12zM768 912h12v12h-12zM780 0h12v12h-12zM780 48h12v12h-12zM780 96h12v12h-12zM780 144h12v12h-12zM780 192h12v12h-12zM780 240h12v12h-12zM780 288h12v12h-12zM780 336h12v12h-12zM780 384h12v12h-12zM780 432h12v12h-12zM780 480h12v12h-12zM780 528h12v12h-12zM780 576h12v12h-12zM780 624h12v12h-12zM780 672h12v12h-12zM780 720h12v12h-12zM780 768h12v12h-12zM780 816h12v12h-12zM780 864h12v12h-12zM780 912h12v12h-12zM792 0h12v12h-12zM792 48h12v12h-12zM792 96h12v12h-12zM792 144h12v12h-12zM792 192h12v12h-12zM792 240h12v12h-12zM792 288h12v12h-12zM792 336h12v12h-12zM792 384h12v12h-12zM792 432h12v12h-12zM792 480h12v12h-12zM792 528h12v12h-12zM792 576h12v12h-12zM792 624h12v12h-12zM792 672h12v12h-12zM792 720h12v12h-12zM792 768h12v12h-12zM792 816h12v12h-12zM792 864h12v12h-12zM792 912h12v12h-12zM804 0h12v12h-12zM804 48h12v12h-12zM804 96h12v12h-12zM804 144h12v12h-12zM804 192h12v12h-12zM804 240h12v12h-12zM804 288h12v12h-12zM804 336h12v12h-12zM804 384h12v12h-12zM804 432h12v12h-12zM804 480h12v12h-12zM804 528h12v12h-12zM804 576h12v12h-12zM804 624h12v12h-12zM804 672h12v12h-12zM804 720h12v12h-12zM804 768h12v12h-12zM804 816h12v12h-12zM804 864h12v12h-12zM804 912h12v12h-12zM816 0h12v12h-12zM816 48h12v12h-12zM816 96h12v12h-12zM816 144h12v12h-12zM816 192h12v12h-12zM816 240h12v12h-12zM816 288h12v12h-12zM816 336h12v12h-12zM816 384h12v12h-12zM816 432h12v12h-12zM816 480h12v12h-12zM816 528h12v12h-12zM816 576h12v12h-12zM816 624h12v12h-12zM816 672h12v12h-12zM816 720h12v12h-12zM816 768h12v12h-12zM816 816h12v12h-12zM816 864h12v12h-12zM816 912h12v12h-12zM828 0h12v12h-12zM828 48h12v12h-12zM828 96h12v12h-12zM828 144h12v12h-12zM828 192h12v12h-12zM828 240h12v12h-12zM828 288h12v12h-12zM828 336h12v12h-12zM828 384h12v12h-12zM828 432h12v12h-12zM828 480h12v12h-12zM828 528h12v12h-12zM828 576h12v12h-12zM828 624h12v12h-12zM828 672h12v12h-12zM828 720h12v12h-12zM828 768h12v12h-12zM828 816h12v12h-12zM828 864h12v12h-12zM828 912h12v12h-12zM840 0h12v12h-12zM840 48h12v12h-12zM840 96h12v12h-12zM840 144h12v12h-12zM840 192h12v12h-12zM840 240h12v12h-12zM840 288h12v12h-12zM840 336h12v12h-12zM840 384h12v12h-12zM840 432h12v12h-12zM840 480h12v12h-12zM840 528h12v12h-12zM840 576h12v12h-12zM840 624h12v12h-12zM840 672h12v12h-12zM840 720h12v12h-12zM840 768h12v12h-12zM840 816h12v12h-12zM840 864h12v12h-12zM840 912h12v12h-12zM852 0h12v12h-12zM852 48h12v12h-12zM852 96h12v12h-12zM852 144h12v12h-12zM852 192h12v12h-12zM852 240h12v12h-12zM852 288h12v12h-12zM852 336h12v12h-12zM852 384h12v12h-12zM852 432h12v12h-12zM852 480h12v12h-12zM852 528h12v12h-12zM852 576h12v12h-12zM852 624h12v12h-12zM852 672h12v12h-12zM852 720h12v12h-12zM852 768h12v12h-12zM852 816h12v12h-12zM852 864h12v12h-12zM852 912h12v12h-12zM864 0h12v12h-12zM864 48h12v12h-12zM864 96h12v12h-12zM864 144h12v12h-12zM864 192h12v12h-12zM864 240h12v12h-12zM864 288h12v12h-12zM864 336h12v12h-12zM864 384h12v12h-12zM864 432h12v12h-12zM864 480h12v12h-12zM864 528h12v12h-12zM864 576h12v12h-12zM864 624h12v12h-12zM864 672h12v12h-12zM864 720h12v12h-12zM864 768h12v12h-12zM864 816h12v12h-12zM864 864h12v12h-12zM864 912h12v12h-12zM876 0h12v12h-12zM876 48h12v12h-12zM876 96h12v12h-12zM876 144h12v12h-12zM876 192h12v12h-12zM876 240h12v12h-12zM876 288h12v12h-12zM876 336h12v12h-12zM876 384h12v12h-12zM876 432h12v12h-12zM876 480h12v12h-12zM876 528h12v12h-12zM876 576h12v12h-12zM876 624h12v12h-12zM876 672h12v12h-12zM876 720h12v12h-12zM876 768h12v12h-12zM876 816h12v12h-12zM876 864h12v12h-12zM876 912h12v12h-12zM888 0h12v12h-12zM888 48h12v12h-12zM888 96h12v12h-12zM888 144h12v12h-12zM888 192h12v12h-12zM888 240h12v12h-12zM888 288h12v12h-12zM888 336h12v12h-12zM888 384h12v12h-12zM888 432h12v12h-12zM888 480h12v12h-12zM888 528h12v12h-12zM888 576h12v12h-12zM888 624h12v12h-12zM888 672h12v12h-12zM888 720h12v12h-12zM888 768h12v12h-12zM888 816h12v12h-12zM888 864h12v12h-12zM888 912h12v12h-12zM900 0h12v12h-12zM900 48h12v12h-12zM900 96h12v12h-12zM900 144h12v12h-12zM900 192h12v12h-12zM900 240h12v12h-12zM900 288h12v12h-12zM900 336h12v12h-12zM900 384h12v12h-12zM900 432h12v12h-12zM900 480h12v12h-12zM900 528h12v12h-12zM900 576h12v12h-12zM900 624h12v12h-12zM900 672h12v12h-12zM900 720h12v12h-12zM900 768h12v12h-12zM900 816h12v12h-12zM900 864h12v12h-12zM900 912h12v12h-12zM912 0h12v12h-12zM912 48h12v12h-12zM912 96h12v12h-12zM912 144h12v12h-12zM912 192h12v12h-12zM912 240h12v12h-12zM912 288h12v12h-12zM912 336h12v12h-12zM912 384h12v12h-12zM912 432h12v12h-12zM912 480h12v12h-12zM912 528h12v12h-12zM912 576h12v12h-12zM912 624h12v12h-12zM912 672h12v12h-12zM912 720h12v12h-12zM912 768h12v12h-12zM912 816h12v12h-12zM912 864h12v12h-12zM912 912h12v12h-12zM924 0h12v12h-12zM924 48h12v12h-12zM924 96h12v12h-12zM924 144h12v12h-12zM924 192h12v12h-12zM924 240h12v12h-12zM924 288h12v12h-12zM924 336h12v12h-12zM924 384h12v12h-12zM924 432h12v12h-12zM924 480h12v12h-12zM924 528h12v12h-12zM924 576h12v12h-12zM924 624h12v12h-12zM924 672h12v12h-12zM924 720h12v12h-12zM924 768h12v12h-12zM924 816h12v12h-12zM924 864h12v12h-12zM924 912h12v12h-12zM936 0h12v12h-12zM936 48h12v12h-12zM936 96h12v12h-12zM936 144h12v12h-12zM936 192h12v12h-12zM936 240h12v12h-12zM936 288h12v12h-12zM936 336h12v12h-12zM936 384h12v12h-12zM936 432h12v12h-12zM936 480h12v12h-12zM936 528h12v12h-12zM936 576h12v12h-12zM936 624h12v12h-12zM936 672h12v12h-12zM936 720h12v12h-12zM936 768h12v12h-12zM936 816h12v12h-12zM936 864h12v12h-12zM936 912h12v12h-12zM948 0h12v12h-12zM948 48h12v12h-12zM948 96h12v12h-12zM948 144h12v12h-12zM948 192h12v12h-12zM948 240h12v12h-12zM948 288h12v12h-12zM948 336h12v12h-12zM948 384h12v12h-12zM948 432h12v12h-12zM948 480h12v12h-12zM948 528h12v12h-12zM948 576h12v12h-12zM948 624h12v12h-12zM948 672h12v12h-12zM948 720h12v12h-12zM948 768h12v12h-12zM948 816h12v12h-12zM948 864h12v12h-12zM948 912h12v12h-12z"/><path fill="#b5d2de" d="M24 0h24v24h-24zM48 48h24v24h-24zM24 72h24v24h-24zM48 72h24v24h-24zM240 0h24v24h-24zM216 24h24v24h-24zM264 24h24v24h-24zM192 48h24v24h-24zM240 48h24v24h-24zM216 72h24v24h-24zM408 0h24v24h-24zM432 48h24v24h-24zM408 72h24v24h-24zM432 72h24v24h-24zM576 0h24v24h-24zM600 24h24v24h-24zM624 48h24v24h-24zM648 72h24v24h-24zM768 0h24v24h-24zM792 24h24v24h-24zM816 48h24v24h-24zM840 72h24v24h-24zM0 192h24v24h-24zM24 192h24v24h-24zM48 264h24v24h-24zM72 264h24v24h-24zM192 192h24v24h-24zM192 216h24v24h-24zM264 240h24v24h-24zM264 264h24v24h-24zM384 192h24v24h-24zM456 192h24v24h-24zM384 264h24v24h-24zM456 264h24v24h-24zM576 192h24v24h-24zM624 192h24v24h-24zM624 216h24v24h-24zM648 216h24v24h-24zM576 240h24v24h-24zM600 240h24v24h-24zM600 264h24v24h-24zM648 264h24v24h-24zM768 192h24v24h-24zM840 192h24v24h-24zM816 216h24v24h-24zM792 240h24v24h-24zM768 264h24v24h-24zM840 264h24v24h-24zM0 384h24v24h-24zM72 384h24v24h-24zM0 456h24v24h-24zM72 456h24v24h-24zM192 384h24v24h-24zM216 384h24v24h-24zM240 456h24v24h-24zM264 456h24v24h-24zM408 384h24v24h-24zM456 384h24v24h-24zM432 408h24v24h-24zM432 432h24v24h-24zM408 456h24v24h-24zM456 456h24v24h-24zM576 384h24v24h-24zM648 384h24v24h-24zM600 408h24v24h-24zM624 408h24v24h-24zM600 432h24v24h-24zM576 456h24v24h-24zM648 456h24v24h-24zM792 384h24v24h-24zM768 408h24v24h-24zM816 408h24v24h-24zM792 432h24v24h-24zM840 432h24v24h-24zM816 456h24v24h-24zM24 576h24v24h-24zM48 576h24v24h-24zM48 600h24v24h-24zM24 648h24v24h-24zM216 576h24v24h-24zM192 600h24v24h-24zM216 600h24v24h-24zM240 624h24v24h-24zM264 624h24v24h-24zM240 648h24v24h-24zM456 576h24v24h-24zM432 600h24v24h-24zM408 624h24v24h-24zM456 624h24v24h-24zM384 648h24v24h-24zM432 648h24v24h-24zM456 648h24v24h-24zM576 576h24v24h-24zM648 576h24v24h-24zM624 600h24v24h-24zM600 624h24v24h-24zM576 648h24v24h-24zM648 648h24v24h-24zM792 576h24v24h-24zM768 600h24v24h-24zM816 600h24v24h-24zM792 624h24v24h-24zM840 624h24v24h-24zM816 648h24v24h-24zM72 912h24v24h-24zM24 768h24v24h-24zM48 768h24v24h-24zM24 792h24v24h-24zM72 792h24v24h-24zM0 816h24v24h-24zM48 816h24v24h-24zM24 840h24v24h-24zM48 840h24v24h-24zM192 768h24v24h-24zM264 768h24v24h-24zM216 816h24v24h-24zM240 816h24v24h-24zM192 840h24v24h-24zM264 840h24v24h-24zM384 768h24v24h-24zM456 768h24v24h-24zM384 816h24v24h-24zM456 816h24v24h-24zM648 768h24v24h-24zM624 792h24v24h-24zM600 816h24v24h-24zM576 840h24v24h-24zM840 768h24v24h-24zM816 792h24v24h-24zM792 816h24v24h-24zM768 840h24v24h-24zM132 132h24v24h-24zM516 900h24v24h-24zM612 516h24v24h-24zM324 228h24v24h-24zM132 612h24v24h-24zM612 132h24v24h-24zM228 900h24v24h-24zM516 804h24v24h-24zM804 708h24v24h-24zM900 324h24v24h-24zM516 132h24v24h-24zM708 516h24v24h-24zM708 804h24v24h-24zM324 900h24v24h-24zM900 228h24v24h-24zM516 420h24v24h-24zM36 900h24v24h-24zM132 516h24v24h-24z"/><path fill="#fff" d="M0 384h96v96h-96zM96 288h96v96h-96zM192 192h96v96h-96zM288 96h96v96h-96zM384 0h96v96h-96zM288 0h96v96h-96zM192 0h96v96h-96zM96 96h96v96h-96zM0 192h96v96h-96zM0 96h96v96h-96zM0 0h96v96h-96zM288 288h96v96h-96zM384 384h96v96h-96zM288 384h96v96h-96zM192 384h96v96h-96zM192 288h96v96h-96zM288 192h96v96h-96zM384 192h96v96h-96zM384 288h96v96h-96zM864 384h96v96h-96zM864 288h96v96h-96zM864 192h96v96h-96zM864 96h96v96h-96zM864 0h96v96h-96zM768 288h96v96h-96zM768 384h96v96h-96zM672 384h96v96h-96zM576 384h96v96h-96zM480 384h96v96h-96zM672 288h96v96h-96zM576 288h96v96h-96zM480 288h96v96h-96zM0 480h96v96h-96zM96 576h96v96h-96zM192 672h96v96h-96zM288 768h96v96h-96zM384 864h96v96h-96zM288 864h96v96h-96zM192 864h96v96h-96zM96 768h96v96h-96zM0 672h96v96h-96zM0 768h96v96h-96zM0 864h96v96h-96zM288 576h96v96h-96zM384 480h96v96h-96zM288 480h96v96h-96zM192 480h96v96h-96zM192 576h96v96h-96zM288 672h96v96h-96zM384 672h96v96h-96zM384 576h96v96h-96zM864 480h96v96h-96zM864 576h96v96h-96zM864 672h96v96h-96zM864 768h96v96h-96zM864 864h96v96h-96zM768 576h96v96h-96zM768 480h96v96h-96zM672 480h96v96h-96zM576 480h96v96h-96zM480 480h96v96h-96zM672 576h96v96h-96zM576 576h96v96h-96zM480 576h96v96h-96z"/></svg>