<svg xmlns="http://www.w3.org/2000/svg" width="960" height="960" viewBox="0 0 960 960" shape-rendering="crispEdges"><path fill="#000" d="M0 0h960v960h-960z"/><path fill="#d6e024" d="M0 0h24v24h-24zM0 48h24v24h-24zM0 96h24v24h-24zM0 144h24v24h-24zM0 192h24v24h-24zM0 240h24v24h-24zM0 288h24v24h-24zM0 336h24v24h-24zM0 384h24v24h-24zM0 432h24v24h-24zM24 0h24v24h-24zM24 48h24v24h-24zM24 96h24v24h-24zM24 144h24v24h-24zM24 192h24v24h-24zM24 240h24v24h-24zM24 288h24v24h-24zM24 336h24v24h-24zM24 384h24v24h-24zM24 432h24v24h-24zM48 0h24v24h-24zM48 48h24v24h-24zM48 96h24v24h-24zM48 144h24v24h-24zM48 192h24v24h-24zM48 240h24v24h-24zM48 288h24v24h-24zM48 336h24v24h-24zM48 384h24v24h-24zM48 432h24v24h-24zM72 0h24v24h-24zM72 48h24v24h-24zM72 96h24v24h-24zM72 144h24v24h-24zM72 192h24v24h-24zM72 240h24v24h-24zM72 288h24v24h-24zM72 336h24v24h-24zM72 384h24v24h-24zM72 432h24v24h-24zM96 0h24v24h-24zM96 48h24v24h-24zM96 96h24v24h-24zM96 144h24v24h-24zM96 192h24v24h-24zM96 240h24v24h-24zM96 288h24v24h-24zM96 336h24v24h-24zM96 384h24v24h-24zM96 432h24v24h-24zM120 0h24v24h-24zM120 48h24v24h-24zM120 96h24v24h-24zM120 144h24v24h-24zM120 192h24v24h-24zM120 240h24v24h-24zM120 288h24v24h-24zM120 336h24v24h-24zM120 384h24v24h-24zM120 432h24v24h-24zM144 0h24v24h-24zM144 48h24v24h-24zM144 96h24v24h-24zM144 144h24v24h-24zM144 192h24v24h-24zM144 240h24v24h-24zM144 288h24v24h-24zM144 336h24v24h-24zM144 384h24v24h-24zM144 432h24v24h-24zM168 0h24v24h-24zM168 48h24v24h-24zM168 96h24v24h-24zM168 144h24v24h-24zM168 192h24v24h-24zM168 240h24v24h-24zM168 288h24v24h-24zM168 336h24v24h-24zM168 384h24v24h-24zM168 432h24v24h-24zM192 0h24v24h-24zM192 48h24v24h-24zM192 96h24v24h-24zM192 144h24v24h-24zM192 192h24v24h-24zM192 240h24v24h-24zM192 288h24v24h-24zM192 336h24v24h-24zM192 384h24v24h-24zM192 432h24v24h-24zM216 0h24v24h-24zM216 48h24v24h-24zM216 96h24v24h-24zM216 144h24v24h-24zM216 192h24v24h-24zM216 240h24v24h-24zM216 288h24v24h-24zM216 336h24v24h-24zM216 384h24v24h-24zM216 432h24v24h-24zM240 0h24v24h-24zM240 48h24v24h-24zM240 96h24v24h-24zM240 144h24v24h-24zM240 192h24v24h-24zM240 240h24v24h-24zM240 288h24v24h-24zM240 336h24v24h-24zM240 384h24v24h-24zM240 432h24v24h-24zM264 0h24v24h-24zM264 48h24v24h-24zM264 96h24v24h-24zM264 144h24v24h-24zM264 192h24v24h-24zM264 240h24v24h-24zM264 288h24v24h-24zM264 336h24v24h-24zM264 384h24v24h-24zM264 432h24v24h-24zM288 0h24v24h-24zM288 48h24v24h-24zM288 96h24v24h-24zM288 144h24v24h-24zM288 192h24v24h-24zM288 240h24v24h-24zM288 288h24v24h-24zM288 336h24v24h-24zM288 384h24v24h-24zM288 432h24v24h-24zM312 0h24v24h-24zM312 48h24v24h-24zM312 96h24v24h-24zM312 144h24v24h-24zM312 192h24v24h-24zM312 240h24v24h-24zM312 288h24v24h-24zM312 336h24v24h-24zM312 384h24v24h-24zM312 432h24v24h-24zM336 0h24v24h-24zM336 48h24v24h-24zM336 96h24v24h-24zM336 144h24v24h-24zM336 192h24v24h-24zM336 240h24v24h-24zM336 288h24v24h-24zM336 336h24v24h-24zM336 384h24v24h-24zM336 432h24v24h-24zM360 0h24v24h-24zM360 48h24v24h-24zM360 96h24v24h-24zM360 144h24v24h-24zM360 192h24v24h-24zM360 240h24v24h-24zM360 288h24v24h-24zM360 336h24v24h-24zM360 384h24v24h-24zM360 432h24v24h-24zM384 0h24v24h-24zM384 48h24v24h-24zM384 96h24v24h-24zM384 144h24v24h-24zM384 192h24v24h-24zM384 240h24v24h-24zM384 288h24v24h-24zM384 336h24v24h-24zM384 384h24v24h-24zM384 432h24v24h-24zM408 0h24v24h-24zM408 48h24v24h-24zM408 96h24v24h-24zM408 144h24v24h-24zM408 192h24v24h-24zM408 240h24v24h-24zM408 288h24v24h-24zM408 336h24v24h-24zM408 384h24v24h-24zM408 432h24v24h-24zM432 0h24v24h-24zM432 48h24v24h-24zM432 96h24v24h-24zM432 144h24v24h-24zM432 192h24v24h-24zM432 240h24v24h-24zM432 288h24v24h-24zM432 336h24v24h-24zM432 384h24v24h-24zM432 432h24v24h-24zM456 0h24v24h-24zM456 48h24v24h-24zM456 96h24v24h-24zM456 144h24v24h-24zM456 192h24v24h-24zM456 240h24v24h-24zM456 288h24v24h-24zM456 336h24v24h-24zM456 384h24v24h-24zM456 432h24v24h-24zM480 0h24v24h-24zM480 48h24v24h-24zM480 96h24v24h-24zM480 144h24v24h-24zM480 192h24v24h-24zM480 240h24v24h-24zM480 288h24v24h-24zM480 336h24v24h-24zM480 384h24v24h-24zM480 432h24v24h-24zM504 0h24v24h-24zM504 48h24v24h-24zM504 96h24v24h-24zM504 144h24v24h-24zM504 192h24v24h-24zM504 240h24v24h-24zM504 288h24v24h-24zM504 336h24v24h-24zM504 384h24v24h-24zM504 432h24v24h-24zM528 0h24v24h-24zM528 48h24v24h-24zM528 96h24v24h-24zM528 144h24v24h-24zM528 192h24v24h-24zM528 240h24v24h-24zM528 288h24v24h-24zM528 336h24v24h-24zM528 384h24v24h-24zM528 432h24v24h-24zM552 0h24v24h-24zM552 48h24v24h-24zM552 96h24v24h-24zM552 144h24v24h-24zM552 192h24v24h-24zM552 240h24v24h-24zM552 288h24v24h-24zM552 336h24v24h-24zM552 384h24v24h-24zM552 432h24v24h-24zM576 0h24v24h-24zM576 48h24v24h-24zM576 96h24v24h-24zM576 144h24v24h-24zM576 192h24v24h-24zM576 240h24v24h-24zM576 288h24v24h-24zM576 336h24v24h-24zM576 384h24v24h-24zM576 432h24v24h-24zM600 0h24v24h-24zM600 48h24v24h-24zM600 96h24v24h-24zM600 144h24v24h-24zM600 192h24v24h-24zM600 240h24v24h-24zM600 288h24v24h-24zM600 336h24v24h-24zM600 384h24v24h-24zM600 432h24v24h-24zM624 0h24v24h-24zM624 48h24v24h-24zM624 96h24v24h-24zM624 144h24v24h-24zM624 192h24v24h-24zM624 240h24v24h-24zM624 288h24v24h-24zM624 336h24v24h-24zM624 384h24v24h-24zM624 432h24v24h-24zM648 0h24v24h-24zM648 48h24v24h-24zM648 96h24v24h-24zM648 144h24v24h-24zM648 192h24v24h-24zM648 240h24v24h-24zM648 288h24v24h-24zM648 336h24v24h-24zM648 384h24v24h-24zM648 432h24v24h-24zM672 0h24v24h-24zM672 48h24v24h-24zM672 96h24v24h-24zM672 144h24v24h-24zM672 192h24v24h-24zM672 240h24v24h-24zM672 288h24v24h-24zM672 336h24v24h-24zM672 384h24v24h-24zM672 432h24v24h-24zM696 0h24v24h-24zM696 48h24v24h-24zM696 96h24v24h-24zM696 144h24v24h-24zM696 192h24v24h-24zM696 240h24v24h-24zM696 288h24v24h-24zM696 336h24v24h-24zM696 384h24v24h-24zM696 432h24v24h-24zM720 0h24v24h-24zM720 48h24v24h-24zM720 96h24v24h-24zM720 144h24v24h-24zM720 192h24v24h-24zM720 240h24v24h-24zM720 288h24v24h-24zM720 336h24v24h-24zM720 384h24v24h-24zM720 432h24v24h-24zM744 0h24v24h-24zM744 48h24v24h-24zM744 96h24v24h-24zM744 144h24v24h-24zM744 192h24v24h-24zM744 240h24v24h-24zM744 288h24v24h-24zM744 336h24v24h-24zM744 384h24v24h-24zM744 432h24v24h-24zM768 0h24v24h-24zM768 48h24v24h-24zM768 96h24v24h-24zM768 144h24v24h-24zM768 192h24v24h-24zM768 240h24v24h-24zM768 288h24v24h-24zM768 336h24v24h-24zM768 384h24v24h-24zM768 432h24v24h-24zM792 0h24v24h-24zM792 48h24v24h-24zM792 96h24v24h-24zM792 144h24v24h-24zM792 192h24v24h-24zM792 240h24v24h-24zM792 288h24v24h-24zM792 336h24v24h-24zM792 384h24v24h-24zM792 432h24v24h-24zM816 0h24v24h-24zM816 48h24v24h-24zM816 96h24v24h-24zM816 144h24v24h-24zM816 192h24v24h-24zM816 240h24v24h-24zM816 288h24v24h-24zM816 336h24v24h-24zM816 384h24v24h-24zM816 432h24v24h-24zM840 0h24v24h-24zM840 48h24v24h-24zM840 96h24v24h-24zM840 144h24v24h-24zM840 192h24v24h-24zM840 240h24v24h-24zM840 288h24v24h-24zM840 336h24v24h-24zM840 384h24v24h-24zM840 432h24v24h-24zM864 0h24v24h-24zM864 48h24v24h-24zM864 96h24v24h-24zM864 144h24v24h-24zM864 192h24v24h-24zM864 240h24v24h-24zM864 288h24v24h-24zM864 336h24v24h-24zM864 384h24v24h-24zM864 432h24v24h-24zM888 0h24v24h-24zM888 48h24v24h-24zM888 96h24v24h-24zM888 144h24v24h-24zM888 192h24v24h-24zM888 240h24v24h-24zM888 288h24v24h-24zM888 336h24v24h-24zM888 384h24v24h-24zM888 432h24v24h-24zM912 0h24v24h-24zM912 48h24v24h-24zM912 96h24v24h-24zM912 144h24v24h-24zM912 192h24v24h-24zM912 240h24v24h-24zM912 288h24v24h-24zM912 336h24v24h-24zM912 384h24v24h-24zM912 432h24v24h-24zM936 0h24v24h-24zM936 48h24v24h-24zM936 96h24v24h-24zM936 144h24v24h-24zM936 192h24v24h-24zM936 240h24v24h-24zM936 288h24v24h-24zM936 336h24v24h-24zM936 384h24v24h-24zM936 432h24v24h-24z"/><path fill="#0b5b4d" d="M3 15h6v6h-6zM39 15h6v6h-6zM3 27h6v6h-6zM39 27h6v6h-6zM111 15h6v6h-6zM123 15h6v6h-6zM111 27h6v6h-6zM123 27h6v6h-6zM207 3h6v6h-6zM219 3h6v6h-6zM207 39h6v6h-6zM219 39h6v6h-6zM291 3h6v6h-6zM327 3h6v6h-6zM315 15h6v6h-6zM303 27h6v6h-6zM291 39h6v6h-6zM327 39h6v6h-6zM387 3h6v6h-6zM423 3h6v6h-6zM399 15h6v6h-6zM411 15h6v6h-6zM399 27h6v6h-6zM411 27h6v6h-6zM387 39h6v6h-6zM423 39h6v6h-6zM483 3h6v6h-6zM519 3h6v6h-6zM495 15h6v6h-6zM507 15h6v6h-6zM495 27h6v6h-6zM507 27h6v6h-6zM483 39h6v6h-6zM519 39h6v6h-6zM579 3h6v6h-6zM615 3h6v6h-6zM591 15h6v6h-6zM603 15h6v6h-6zM603 27h6v6h-6zM579 39h6v6h-6zM615 39h6v6h-6zM675 15h6v6h-6zM711 15h6v6h-6zM675 27h6v6h-6zM711 27h6v6h-6zM771 3h6v6h-6zM807 3h6v6h-6zM771 27h6v6h-6zM807 27h6v6h-6zM867 3h6v6h-6zM903 3h6v6h-6zM891 15h6v6h-6zM879 27h6v6h-6zM891 27h6v6h-6zM867 39h6v6h-6zM903 39h6v6h-6zM27 99h6v6h-6zM39 111h6v6h-6zM3 123h6v6h-6zM15 135h6v6h-6zM99 111h6v6h-6zM135 111h6v6h-6zM99 123h6v6h-6zM111 123h6v6h-6zM219 99h6v6h-6zM231 99h6v6h-6zM195 135h6v6h-6zM207 135h6v6h-6zM291 99h6v6h-6zM315 99h6v6h-6zM327 99h6v6h-6zM303 111h6v6h-6zM327 111h6v6h-6zM315 123h6v6h-6zM327 135h6v6h-6zM423 99h6v6h-6zM411 111h6v6h-6zM399 123h6v6h-6zM423 123h6v6h-6zM387 135h6v6h-6zM411 135h6v6h-6zM423 135h6v6h-6zM519 99h6v6h-6zM507 111h6v6h-6zM495 123h6v6h-6zM519 123h6v6h-6zM483 135h6v6h-6zM507 135h6v6h-6zM519 135h6v6h-6zM579 111h6v6h-6zM615 111h6v6h-6zM579 123h6v6h-6zM591 123h6v6h-6zM711 99h6v6h-6zM699 111h6v6h-6zM687 123h6v6h-6zM711 123h6v6h-6zM675 135h6v6h-6zM699 135h6v6h-6zM711 135h6v6h-6zM783 99h6v6h-6zM771 111h6v6h-6zM795 111h6v6h-6zM783 123h6v6h-6zM807 123h6v6h-6zM795 135h6v6h-6zM867 111h6v6h-6zM903 111h6v6h-6zM867 123h6v6h-6zM879 123h6v6h-6zM21 213h6v6h-6zM99 195h6v6h-6zM135 195h6v6h-6zM111 207h6v6h-6zM123 207h6v6h-6zM99 231h6v6h-6zM135 231h6v6h-6zM207 195h6v6h-6zM219 195h6v6h-6zM207 231h6v6h-6zM219 231h6v6h-6zM291 195h6v6h-6zM315 195h6v6h-6zM303 207h6v6h-6zM327 207h6v6h-6zM291 219h6v6h-6zM315 219h6v6h-6zM303 231h6v6h-6zM327 231h6v6h-6zM399 195h6v6h-6zM411 195h6v6h-6zM411 207h6v6h-6zM399 231h6v6h-6zM483 207h6v6h-6zM495 207h6v6h-6zM483 219h6v6h-6zM519 219h6v6h-6zM579 207h6v6h-6zM615 207h6v6h-6zM579 219h6v6h-6zM615 219h6v6h-6zM711 267h6v6h-6zM687 195h6v6h-6zM699 195h6v6h-6zM687 207h6v6h-6zM711 207h6v6h-6zM675 219h6v6h-6zM699 219h6v6h-6zM687 231h6v6h-6zM699 231h6v6h-6zM771 195h6v6h-6zM807 195h6v6h-6zM795 207h6v6h-6zM783 219h6v6h-6zM795 219h6v6h-6zM771 231h6v6h-6zM807 231h6v6h-6zM891 195h6v6h-6zM891 207h6v6h-6zM903 207h6v6h-6zM867 219h6v6h-6zM879 219h6v6h-6zM879 231h6v6h-6zM15 291h6v6h-6zM27 291h6v6h-6zM27 303h6v6h-6zM15 327h6v6h-6zM135 363h6v6h-6zM111 291h6v6h-6zM123 291h6v6h-6zM111 303h6v6h-6zM135 303h6v6h-6zM99 315h6v6h-6zM123 315h6v6h-6zM111 327h6v6h-6zM123 327h6v6h-6zM231 363h6v6h-6zM207 291h6v6h-6zM219 291h6v6h-6zM207 303h6v6h-6zM231 303h6v6h-6zM195 315h6v6h-6zM219 315h6v6h-6zM207 327h6v6h-6zM219 327h6v6h-6zM291 291h6v6h-6zM327 291h6v6h-6zM303 303h6v6h-6zM315 303h6v6h-6zM315 315h6v6h-6zM291 327h6v6h-6zM327 327h6v6h-6zM399 291h6v6h-6zM387 303h6v6h-6zM399 303h6v6h-6zM411 315h6v6h-6zM423 315h6v6h-6zM411 327h6v6h-6zM495 291h6v6h-6zM507 315h6v6h-6zM495 327h6v6h-6zM507 327h6v6h-6zM579 291h6v6h-6zM615 291h6v6h-6zM603 303h6v6h-6zM591 315h6v6h-6zM579 327h6v6h-6zM615 327h6v6h-6zM687 291h6v6h-6zM675 303h6v6h-6zM687 303h6v6h-6zM699 315h6v6h-6zM711 315h6v6h-6zM699 327h6v6h-6zM771 291h6v6h-6zM795 291h6v6h-6zM795 303h6v6h-6zM807 303h6v6h-6zM771 315h6v6h-6zM783 315h6v6h-6zM783 327h6v6h-6zM807 327h6v6h-6zM867 291h6v6h-6zM903 291h6v6h-6zM891 303h6v6h-6zM879 315h6v6h-6zM891 315h6v6h-6zM867 327h6v6h-6zM903 327h6v6h-6zM39 387h6v6h-6zM39 399h6v6h-6zM3 411h6v6h-6zM3 423h6v6h-6zM111 387h6v6h-6zM123 387h6v6h-6zM99 399h6v6h-6zM123 399h6v6h-6zM111 411h6v6h-6zM135 411h6v6h-6zM111 423h6v6h-6zM123 423h6v6h-6zM195 387h6v6h-6zM231 387h6v6h-6zM207 399h6v6h-6zM219 399h6v6h-6zM207 411h6v6h-6zM219 411h6v6h-6zM195 423h6v6h-6zM231 423h6v6h-6zM291 399h6v6h-6zM303 399h6v6h-6zM291 411h6v6h-6zM327 411h6v6h-6zM399 387h6v6h-6zM411 387h6v6h-6zM411 399h6v6h-6zM399 423h6v6h-6zM483 387h6v6h-6zM519 387h6v6h-6zM507 399h6v6h-6zM495 411h6v6h-6zM483 423h6v6h-6zM519 423h6v6h-6zM591 399h6v6h-6zM603 399h6v6h-6zM591 411h6v6h-6zM603 411h6v6h-6zM699 387h6v6h-6zM711 387h6v6h-6zM699 399h6v6h-6zM711 399h6v6h-6zM675 411h6v6h-6zM687 411h6v6h-6zM675 423h6v6h-6zM687 423h6v6h-6zM783 387h6v6h-6zM807 387h6v6h-6zM771 399h6v6h-6zM807 411h6v6h-6zM771 423h6v6h-6zM795 423h6v6h-6zM891 387h6v6h-6zM903 387h6v6h-6zM867 423h6v6h-6zM879 423h6v6h-6zM15 483h6v6h-6zM39 483h6v6h-6zM3 495h6v6h-6zM27 495h6v6h-6zM15 507h6v6h-6zM39 507h6v6h-6zM3 519h6v6h-6zM27 519h6v6h-6zM111 483h6v6h-6zM135 483h6v6h-6zM123 495h6v6h-6zM123 507h6v6h-6zM111 519h6v6h-6zM135 519h6v6h-6zM195 483h6v6h-6zM231 483h6v6h-6zM207 495h6v6h-6zM219 495h6v6h-6zM207 507h6v6h-6zM195 519h6v6h-6zM231 519h6v6h-6zM291 483h6v6h-6zM327 483h6v6h-6zM303 495h6v6h-6zM315 507h6v6h-6zM291 519h6v6h-6zM327 519h6v6h-6zM399 483h6v6h-6zM411 483h6v6h-6zM387 495h6v6h-6zM411 495h6v6h-6zM399 507h6v6h-6zM423 507h6v6h-6zM399 519h6v6h-6zM411 519h6v6h-6zM483 483h6v6h-6zM519 483h6v6h-6zM507 495h6v6h-6zM495 507h6v6h-6zM507 507h6v6h-6zM483 519h6v6h-6zM519 519h6v6h-6zM603 483h6v6h-6zM615 483h6v6h-6zM603 495h6v6h-6zM615 495h6v6h-6zM579 507h6v6h-6zM591 507h6v6h-6zM579 519h6v6h-6zM591 519h6v6h-6zM675 483h6v6h-6zM711 483h6v6h-6zM687 495h6v6h-6zM699 495h6v6h-6zM687 507h6v6h-6zM699 507h6v6h-6zM675 519h6v6h-6zM711 519h6v6h-6zM783 495h6v6h-6zM795 495h6v6h-6zM783 507h6v6h-6zM795 507h6v6h-6zM867 483h6v6h-6zM903 483h6v6h-6zM879 495h6v6h-6zM891 495h6v6h-6zM867 507h6v6h-6zM903 507h6v6h-6zM39 579h6v6h-6zM39 591h6v6h-6zM3 603h6v6h-6zM3 615h6v6h-6zM99 579h6v6h-6zM111 579h6v6h-6zM99 591h6v6h-6zM111 591h6v6h-6zM123 603h6v6h-6zM135 603h6v6h-6zM123 615h6v6h-6zM135 615h6v6h-6zM195 579h6v6h-6zM231 579h6v6h-6zM207 591h6v6h-6zM219 591h6v6h-6zM219 603h6v6h-6zM195 615h6v6h-6zM231 615h6v6h-6zM291 579h6v6h-6zM327 579h6v6h-6zM303 591h6v6h-6zM315 591h6v6h-6zM291 603h6v6h-6zM327 603h6v6h-6zM387 579h6v6h-6zM423 579h6v6h-6zM399 603h6v6h-6zM411 603h6v6h-6zM387 615h6v6h-6zM423 615h6v6h-6zM483 579h6v6h-6zM519 579h6v6h-6zM495 591h6v6h-6zM507 591h6v6h-6zM495 603h6v6h-6zM483 615h6v6h-6zM519 615h6v6h-6zM591 579h6v6h-6zM579 591h6v6h-6zM615 603h6v6h-6zM603 615h6v6h-6zM687 579h6v6h-6zM711 579h6v6h-6zM675 591h6v6h-6zM711 603h6v6h-6zM675 615h6v6h-6zM699 615h6v6h-6zM783 579h6v6h-6zM807 579h6v6h-6zM795 591h6v6h-6zM795 603h6v6h-6zM783 615h6v6h-6zM807 615h6v6h-6zM867 579h6v6h-6zM903 579h6v6h-6zM879 591h6v6h-6zM891 591h6v6h-6zM867 603h6v6h-6zM903 603h6v6h-6zM3 675h6v6h-6zM15 675h6v6h-6zM27 711h6v6h-6zM39 711h6v6h-6zM135 675h6v6h-6zM123 687h6v6h-6zM111 699h6v6h-6zM135 699h6v6h-6zM99 711h6v6h-6zM123 711h6v6h-6zM135 711h6v6h-6zM195 675h6v6h-6zM231 675h6v6h-6zM207 687h6v6h-6zM219 687h6v6h-6zM207 699h6v6h-6zM219 699h6v6h-6zM195 711h6v6h-6zM231 711h6v6h-6zM291 675h6v6h-6zM291 687h6v6h-6zM327 699h6v6h-6zM327 711h6v6h-6zM387 675h6v6h-6zM411 675h6v6h-6zM423 687h6v6h-6zM387 699h6v6h-6zM399 711h6v6h-6zM423 711h6v6h-6zM483 675h6v6h-6zM495 687h6v6h-6zM507 699h6v6h-6zM519 711h6v6h-6zM579 675h6v6h-6zM615 675h6v6h-6zM579 711h6v6h-6zM615 711h6v6h-6zM693 693h6v6h-6zM783 675h6v6h-6zM795 675h6v6h-6zM771 687h6v6h-6zM795 687h6v6h-6zM783 699h6v6h-6zM807 699h6v6h-6zM783 711h6v6h-6zM795 711h6v6h-6zM867 675h6v6h-6zM879 675h6v6h-6zM867 687h6v6h-6zM879 687h6v6h-6zM891 699h6v6h-6zM903 699h6v6h-6zM891 711h6v6h-6zM903 711h6v6h-6zM3 771h6v6h-6zM39 771h6v6h-6zM15 783h6v6h-6zM15 795h6v6h-6zM27 795h6v6h-6zM3 807h6v6h-6zM39 807h6v6h-6zM117 789h6v6h-6zM195 783h6v6h-6zM231 783h6v6h-6zM195 795h6v6h-6zM207 795h6v6h-6zM327 771h6v6h-6zM327 783h6v6h-6zM291 795h6v6h-6zM291 807h6v6h-6zM387 771h6v6h-6zM423 771h6v6h-6zM387 807h6v6h-6zM423 807h6v6h-6zM483 771h6v6h-6zM483 783h6v6h-6zM519 795h6v6h-6zM519 807h6v6h-6zM579 771h6v6h-6zM603 771h6v6h-6zM615 783h6v6h-6zM579 795h6v6h-6zM591 807h6v6h-6zM615 807h6v6h-6zM675 771h6v6h-6zM711 771h6v6h-6zM687 783h6v6h-6zM699 795h6v6h-6zM675 807h6v6h-6zM711 807h6v6h-6zM783 771h6v6h-6zM807 771h6v6h-6zM783 807h6v6h-6zM807 807h6v6h-6zM867 771h6v6h-6zM903 771h6v6h-6zM891 783h6v6h-6zM879 795h6v6h-6zM867 807h6v6h-6zM903 807h6v6h-6zM3 879h6v6h-6zM39 879h6v6h-6zM3 891h6v6h-6zM39 891h6v6h-6zM99 867h6v6h-6zM135 867h6v6h-6zM111 879h6v6h-6zM123 879h6v6h-6zM99 891h6v6h-6zM135 891h6v6h-6zM219 867h6v6h-6zM231 879h6v6h-6zM195 891h6v6h-6zM207 903h6v6h-6zM303 867h6v6h-6zM291 879h6v6h-6zM327 891h6v6h-6zM315 903h6v6h-6zM387 879h6v6h-6zM423 879h6v6h-6zM387 891h6v6h-6zM423 891h6v6h-6zM519 867h6v6h-6zM519 879h6v6h-6zM483 891h6v6h-6zM483 903h6v6h-6zM579 867h6v6h-6zM591 867h6v6h-6zM603 903h6v6h-6zM615 903h6v6h-6zM675 867h6v6h-6zM711 867h6v6h-6zM687 879h6v6h-6zM699 879h6v6h-6zM687 891h6v6h-6zM699 891h6v6h-6zM675 903h6v6h-6zM711 903h6v6h-6zM807 867h6v6h-6zM795 879h6v6h-6zM783 891h6v6h-6zM771 903h6v6h-6zM891 867h6v6h-6zM903 879h6v6h-6zM867 891h6v6h-6zM879 903h6v6h-6zM159 387h6v6h-6zM171 387h6v6h-6zM147 399h6v6h-6zM171 399h6v6h-6zM159 411h6v6h-6zM183 411h6v6h-6zM159 423h6v6h-6zM171 423h6v6h-6zM531 531h6v6h-6zM567 531h6v6h-6zM555 543h6v6h-6zM543 555h6v6h-6zM555 555h6v6h-6zM531 567h6v6h-6zM567 567h6v6h-6zM747 387h6v6h-6zM759 387h6v6h-6zM747 399h6v6h-6zM759 399h6v6h-6zM723 411h6v6h-6zM735 411h6v6h-6zM723 423h6v6h-6zM735 423h6v6h-6zM531 291h6v6h-6zM567 291h6v6h-6zM555 303h6v6h-6zM543 315h6v6h-6zM531 327h6v6h-6zM567 327h6v6h-6zM51 195h6v6h-6zM87 195h6v6h-6zM63 207h6v6h-6zM75 207h6v6h-6zM51 231h6v6h-6zM87 231h6v6h-6zM723 771h6v6h-6zM759 771h6v6h-6zM735 783h6v6h-6zM747 795h6v6h-6zM723 807h6v6h-6zM759 807h6v6h-6zM435 207h6v6h-6zM447 207h6v6h-6zM435 219h6v6h-6zM471 219h6v6h-6zM867 819h6v6h-6zM903 819h6v6h-6zM891 831h6v6h-6zM879 843h6v6h-6zM867 855h6v6h-6zM903 855h6v6h-6zM51 15h6v6h-6zM87 15h6v6h-6zM51 27h6v6h-6zM87 27h6v6h-6zM87 579h6v6h-6zM87 591h6v6h-6zM51 603h6v6h-6zM51 615h6v6h-6zM783 627h6v6h-6zM795 627h6v6h-6zM771 639h6v6h-6zM795 639h6v6h-6zM783 651h6v6h-6zM807 651h6v6h-6zM783 663h6v6h-6zM795 663h6v6h-6zM939 195h6v6h-6zM939 207h6v6h-6zM951 207h6v6h-6zM915 219h6v6h-6zM927 219h6v6h-6zM927 231h6v6h-6zM147 675h6v6h-6zM183 675h6v6h-6zM159 687h6v6h-6zM171 687h6v6h-6zM159 699h6v6h-6zM171 699h6v6h-6zM147 711h6v6h-6zM183 711h6v6h-6zM303 915h6v6h-6zM291 927h6v6h-6zM327 939h6v6h-6zM315 951h6v6h-6zM519 147h6v6h-6zM507 159h6v6h-6zM495 171h6v6h-6zM519 171h6v6h-6zM483 183h6v6h-6zM507 183h6v6h-6zM519 183h6v6h-6zM291 351h6v6h-6zM303 351h6v6h-6zM291 363h6v6h-6zM327 363h6v6h-6zM3 819h6v6h-6zM39 819h6v6h-6zM15 831h6v6h-6zM15 843h6v6h-6zM27 843h6v6h-6zM3 855h6v6h-6zM39 855h6v6h-6zM351 435h6v6h-6zM363 435h6v6h-6zM339 447h6v6h-6zM363 447h6v6h-6zM351 459h6v6h-6zM375 459h6v6h-6zM351 471h6v6h-6zM363 471h6v6h-6zM243 531h6v6h-6zM279 531h6v6h-6zM255 543h6v6h-6zM267 543h6v6h-6zM255 555h6v6h-6zM243 567h6v6h-6zM279 567h6v6h-6zM939 387h6v6h-6zM951 387h6v6h-6zM915 423h6v6h-6zM927 423h6v6h-6zM63 435h6v6h-6zM75 435h6v6h-6zM51 447h6v6h-6zM75 447h6v6h-6zM63 459h6v6h-6zM87 459h6v6h-6zM63 471h6v6h-6zM75 471h6v6h-6zM435 831h6v6h-6zM471 831h6v6h-6zM435 843h6v6h-6zM471 843h6v6h-6zM99 531h6v6h-6zM111 531h6v6h-6zM99 543h6v6h-6zM111 543h6v6h-6zM123 555h6v6h-6zM135 555h6v6h-6zM123 567h6v6h-6zM135 567h6v6h-6zM831 543h6v6h-6zM843 543h6v6h-6zM831 555h6v6h-6zM843 555h6v6h-6zM243 675h6v6h-6zM243 687h6v6h-6zM279 699h6v6h-6zM279 711h6v6h-6zM741 741h6v6h-6zM699 339h6v6h-6zM711 339h6v6h-6zM699 351h6v6h-6zM711 351h6v6h-6zM675 363h6v6h-6zM687 363h6v6h-6zM675 375h6v6h-6zM687 375h6v6h-6zM291 723h6v6h-6zM291 735h6v6h-6zM327 747h6v6h-6zM327 759h6v6h-6zM915 675h6v6h-6zM927 675h6v6h-6zM915 687h6v6h-6zM927 687h6v6h-6zM939 699h6v6h-6zM951 699h6v6h-6zM939 711h6v6h-6zM951 711h6v6h-6zM195 723h6v6h-6zM231 723h6v6h-6zM207 735h6v6h-6zM219 735h6v6h-6zM207 747h6v6h-6zM219 747h6v6h-6zM195 759h6v6h-6zM231 759h6v6h-6zM939 435h6v6h-6zM951 435h6v6h-6zM915 471h6v6h-6zM927 471h6v6h-6zM867 627h6v6h-6zM879 627h6v6h-6zM867 639h6v6h-6zM879 639h6v6h-6zM891 651h6v6h-6zM903 651h6v6h-6zM891 663h6v6h-6zM903 663h6v6h-6zM387 51h6v6h-6zM423 51h6v6h-6zM399 63h6v6h-6zM411 63h6v6h-6zM399 75h6v6h-6zM411 75h6v6h-6zM387 87h6v6h-6zM423 87h6v6h-6zM735 531h6v6h-6zM759 531h6v6h-6zM723 543h6v6h-6zM759 555h6v6h-6zM723 567h6v6h-6zM747 567h6v6h-6zM147 435h6v6h-6zM183 435h6v6h-6zM159 447h6v6h-6zM171 447h6v6h-6zM159 459h6v6h-6zM171 459h6v6h-6zM147 471h6v6h-6zM183 471h6v6h-6zM147 627h6v6h-6zM183 627h6v6h-6zM159 639h6v6h-6zM171 639h6v6h-6zM159 651h6v6h-6zM171 651h6v6h-6zM147 663h6v6h-6zM183 663h6v6h-6zM339 51h6v6h-6zM375 51h6v6h-6zM351 63h6v6h-6zM363 63h6v6h-6zM351 75h6v6h-6zM363 75h6v6h-6zM339 87h6v6h-6zM375 87h6v6h-6zM447 483h6v6h-6zM459 483h6v6h-6zM435 495h6v6h-6zM459 495h6v6h-6zM447 507h6v6h-6zM471 507h6v6h-6zM447 519h6v6h-6zM459 519h6v6h-6zM723 63h6v6h-6zM759 63h6v6h-6zM723 75h6v6h-6zM759 75h6v6h-6zM447 339h6v6h-6zM459 363h6v6h-6zM447 375h6v6h-6zM459 375h6v6h-6zM915 111h6v6h-6zM951 111h6v6h-6zM915 123h6v6h-6zM927 123h6v6h-6zM771 723h6v6h-6zM807 723h6v6h-6zM783 735h6v6h-6zM795 747h6v6h-6zM771 759h6v6h-6zM807 759h6v6h-6zM447 531h6v6h-6zM459 531h6v6h-6zM435 543h6v6h-6zM459 543h6v6h-6zM447 555h6v6h-6zM471 555h6v6h-6zM447 567h6v6h-6zM459 567h6v6h-6zM651 435h6v6h-6zM663 435h6v6h-6zM651 447h6v6h-6zM663 447h6v6h-6zM627 459h6v6h-6zM639 459h6v6h-6zM627 471h6v6h-6zM639 471h6v6h-6zM243 579h6v6h-6zM279 579h6v6h-6zM255 591h6v6h-6zM267 591h6v6h-6zM255 603h6v6h-6zM243 615h6v6h-6zM279 615h6v6h-6zM3 927h6v6h-6zM39 927h6v6h-6zM3 939h6v6h-6zM39 939h6v6h-6zM351 867h6v6h-6zM339 879h6v6h-6zM375 891h6v6h-6zM363 903h6v6h-6zM843 195h6v6h-6zM843 207h6v6h-6zM855 207h6v6h-6zM819 219h6v6h-6zM831 219h6v6h-6zM831 231h6v6h-6zM831 591h6v6h-6zM843 591h6v6h-6zM831 603h6v6h-6zM843 603h6v6h-6zM99 243h6v6h-6zM135 243h6v6h-6zM111 255h6v6h-6zM123 255h6v6h-6zM99 279h6v6h-6zM135 279h6v6h-6zM531 723h6v6h-6zM555 723h6v6h-6zM567 735h6v6h-6zM531 747h6v6h-6zM543 759h6v6h-6zM567 759h6v6h-6zM147 831h6v6h-6zM183 831h6v6h-6zM147 843h6v6h-6zM159 843h6v6h-6zM183 723h6v6h-6zM171 735h6v6h-6zM159 747h6v6h-6zM183 747h6v6h-6zM147 759h6v6h-6zM171 759h6v6h-6zM183 759h6v6h-6zM351 195h6v6h-6zM363 195h6v6h-6zM363 207h6v6h-6zM351 231h6v6h-6zM531 255h6v6h-6zM567 255h6v6h-6zM531 267h6v6h-6zM567 267h6v6h-6zM531 111h6v6h-6zM567 111h6v6h-6zM531 123h6v6h-6zM543 123h6v6h-6zM399 243h6v6h-6zM411 243h6v6h-6zM411 255h6v6h-6zM399 279h6v6h-6zM693 645h6v6h-6zM243 735h6v6h-6zM279 735h6v6h-6zM243 747h6v6h-6zM255 747h6v6h-6zM645 741h6v6h-6zM51 915h6v6h-6zM87 915h6v6h-6zM63 927h6v6h-6zM75 927h6v6h-6zM51 939h6v6h-6zM87 939h6v6h-6zM483 531h6v6h-6zM519 531h6v6h-6zM507 543h6v6h-6zM495 555h6v6h-6zM507 555h6v6h-6zM483 567h6v6h-6zM519 567h6v6h-6zM783 435h6v6h-6zM807 435h6v6h-6zM771 447h6v6h-6zM807 459h6v6h-6zM771 471h6v6h-6zM795 471h6v6h-6zM831 495h6v6h-6zM843 495h6v6h-6zM831 507h6v6h-6zM843 507h6v6h-6zM195 831h6v6h-6zM231 831h6v6h-6zM195 843h6v6h-6zM207 843h6v6h-6zM663 267h6v6h-6zM639 195h6v6h-6zM651 195h6v6h-6zM639 207h6v6h-6zM663 207h6v6h-6zM627 219h6v6h-6zM651 219h6v6h-6zM639 231h6v6h-6zM651 231h6v6h-6zM831 435h6v6h-6zM855 435h6v6h-6zM819 447h6v6h-6zM855 459h6v6h-6zM819 471h6v6h-6zM843 471h6v6h-6zM915 819h6v6h-6zM951 819h6v6h-6zM939 831h6v6h-6zM927 843h6v6h-6zM915 855h6v6h-6zM951 855h6v6h-6zM3 63h6v6h-6zM39 63h6v6h-6zM3 75h6v6h-6zM39 75h6v6h-6zM303 243h6v6h-6zM315 243h6v6h-6zM315 255h6v6h-6zM303 279h6v6h-6zM147 483h6v6h-6zM183 483h6v6h-6zM159 495h6v6h-6zM171 495h6v6h-6zM159 507h6v6h-6zM171 507h6v6h-6zM147 519h6v6h-6zM183 519h6v6h-6zM699 435h6v6h-6zM711 435h6v6h-6zM699 447h6v6h-6zM711 447h6v6h-6zM675 459h6v6h-6zM687 459h6v6h-6zM675 471h6v6h-6zM687 471h6v6h-6zM531 819h6v6h-6zM543 819h6v6h-6zM555 855h6v6h-6zM567 855h6v6h-6zM339 927h6v6h-6zM375 927h6v6h-6zM339 939h6v6h-6zM375 939h6v6h-6z"/><path fill="#fff" d="M384 288h48v48h-48zM384 240h48v48h-48zM384 192h48v48h-48zM384 144h48v48h-48zM384 96h48v48h-48zM432 48h48v48h-48zM384 48h48v48h-48zM336 48h48v48h-48zM288 48h48v48h-48zM240 48h48v48h-48zM192 48h48v48h-48zM144 48h48v48h-48zM96 48h48v48h-48zM48 48h48v48h-48zM0 48h48v48h-48zM48 96h48v48h-48zM96 144h48v48h-48zM144 96h48v48h-48zM192 144h48v48h-48zM240 192h48v48h-48zM240 240h48v48h-48zM240 288h48v48h-48zM240 336h48v48h-48zM240 384h48v48h-48zM240 432h48v48h-48zM192 432h48v48h-48zM144 432h48v48h-48zM192 384h48v48h-48zM288 288h48v48h-48zM336 240h48v48h-48zM432 144h48v48h-48zM336 144h48v48h-48zM288 192h48v48h-48zM192 288h48v48h-48zM288 240h48v48h-48zM288 144h48v48h-48zM288 96h48v48h-48zM288 0h48v48h-48zM240 0h48v48h-48zM192 0h48v48h-48zM144 0h48v48h-48zM96 0h48v48h-48zM48 0h48v48h-48zM0 0h48v48h-48zM96 96h48v48h-48zM192 96h48v48h-48zM240 96h48v48h-48zM240 144h48v48h-48zM192 336h48v48h-48zM144 288h48v48h-48zM96 240h48v48h-48zM48 192h48v48h-48zM0 144h48v48h-48zM48 144h48v48h-48zM144 144h48v48h-48zM192 240h48v48h-48zM144 192h48v48h-48zM144 240h48v48h-48zM144 336h48v48h-48zM144 384h48v48h-48zM288 384h48v48h-48zM336 384h48v48h-48zM384 384h48v48h-48zM432 384h48v48h-48zM384 624h48v48h-48zM384 672h48v48h-48zM384 720h48v48h-48zM384 768h48v48h-48zM384 816h48v48h-48zM432 864h48v48h-48zM384 864h48v48h-48zM336 864h48v48h-48zM288 864h48v48h-48zM240 864h48v48h-48zM192 864h48v48h-48zM144 864h48v48h-48zM96 864h48v48h-48zM48 864h48v48h-48zM0 864h48v48h-48zM48 816h48v48h-48zM96 768h48v48h-48zM144 816h48v48h-48zM192 768h48v48h-48zM240 720h48v48h-48zM240 672h48v48h-48zM240 624h48v48h-48zM240 576h48v48h-48zM240 528h48v48h-48zM240 480h48v48h-48zM192 480h48v48h-48zM144 480h48v48h-48zM192 528h48v48h-48zM288 624h48v48h-48zM336 672h48v48h-48zM432 768h48v48h-48zM336 768h48v48h-48zM288 720h48v48h-48zM192 624h48v48h-48zM288 672h48v48h-48zM288 768h48v48h-48zM288 816h48v48h-48zM288 912h48v48h-48zM240 912h48v48h-48zM192 912h48v48h-48zM144 912h48v48h-48zM96 912h48v48h-48zM48 912h48v48h-48zM0 912h48v48h-48zM96 816h48v48h-48zM192 816h48v48h-48zM240 816h48v48h-48zM240 768h48v48h-48zM192 576h48v48h-48zM144 624h48v48h-48zM96 672h48v48h-48zM48 720h48v48h-48zM0 768h48v48h-48zM48 768h48v48h-48zM144 768h48v48h-48zM192 672h48v48h-48zM144 720h48v48h-48zM144 672h48v48h-48zM144 576h48v48h-48zM144 528h48v48h-48zM288 528h48v48h-48zM336 528h48v48h-48zM384 528h48v48h-48zM432 528h48v48h-48zM528 288h48v48h-48zM528 240h48v48h-48zM528 192h48v48h-48zM528 144h48v48h-48zM528 96h48v48h-48zM480 48h48v48h-48zM528 48h48v48h-48zM576 48h48v48h-48zM624 48h48v48h-48zM672 48h48v48h-48zM720 48h48v48h-48zM768 48h48v48h-48zM816 48h48v48h-48zM864 48h48v48h-48zM912 48h48v48h-48zM864 96h48v48h-48zM816 144h48v48h-48zM768 96h48v48h-48zM720 144h48v48h-48zM672 192h48v48h-48zM672 240h48v48h-48zM672 288h48v48h-48zM672 336h48v48h-48zM672 384h48v48h-48zM672 432h48v48h-48zM720 432h48v48h-48zM768 432h48v48h-48zM720 384h48v48h-48zM624 288h48v48h-48zM576 240h48v48h-48zM480 144h48v48h-48zM576 144h48v48h-48zM624 192h48v48h-48zM720 288h48v48h-48zM624 240h48v48h-48zM624 144h48v48h-48zM624 96h48v48h-48zM624 0h48v48h-48zM672 0h48v48h-48zM720 0h48v48h-48zM768 0h48v48h-48zM816 0h48v48h-48zM864 0h48v48h-48zM912 0h48v48h-48zM816 96h48v48h-48zM720 96h48v48h-48zM672 96h48v48h-48zM672 144h48v48h-48zM720 336h48v48h-48zM768 288h48v48h-48zM816 240h48v48h-48zM864 192h48v48h-48zM912 144h48v48h-48zM864 144h48v48h-48zM768 144h48v48h-48zM720 240h48v48h-48zM768 192h48v48h-48zM768 240h48v48h-48zM768 336h48v48h-48zM768 384h48v48h-48zM624 384h48v48h-48zM576 384h48v48h-48zM528 384h48v48h-48zM480 384h48v48h-48zM528 624h48v48h-48zM528 672h48v48h-48zM528 720h48v48h-48zM528 768h48v48h-48zM528 816h48v48h-48zM480 864h48v48h-48zM528 864h48v48h-48zM576 864h48v48h-48zM624 864h48v48h-48zM672 864h48v48h-48zM720 864h48v48h-48zM768 864h48v48h-48zM816 864h48v48h-48zM864 864h48v48h-48zM912 864h48v48h-48zM864 816h48v48h-48zM816 768h48v48h-48zM768 816h48v48h-48zM720 768h48v48h-48zM672 720h48v48h-48zM672 672h48v48h-48zM672 624h48v48h-48zM672 576h48v48h-48zM672 528h48v48h-48zM672 480h48v48h-48zM720 480h48v48h-48zM768 480h48v48h-48zM720 528h48v48h-48zM624 624h48v48h-48zM576 672h48v48h-48zM480 768h48v48h-48zM576 768h48v48h-48zM624 720h48v48h-48zM720 624h48v48h-48zM624 672h48v48h-48zM624 768h48v48h-48zM624 816h48v48h-48zM624 912h48v48h-48zM672 912h48v48h-48zM720 912h48v48h-48zM768 912h48v48h-48zM816 912h48v48h-48zM864 912h48v48h-48zM912 912h48v48h-48zM816 816h48v48h-48zM720 816h48v48h-48zM672 816h48v48h-48zM672 768h48v48h-48zM720 576h48v48h-48zM768 624h48v48h-48zM816 672h48v48h-48zM864 720h48v48h-48zM912 768h48v48h-48zM864 768h48v48h-48zM768 768h48v48h-48zM720 672h48v48h-48zM768 720h48v48h-48zM768 672h48v48h-48zM768 576h48v48h-48zM768 528h48v48h-48zM624 528h48v48h-48zM576 528h48v48h-48zM528 528h48v48h-48zM480 528h48v48h-48z"/></svg>