<svg xmlns="http://www.w3.org/2000/svg" width="960" height="960" viewBox="0 0 960 960" shape-rendering="crispEdges"><path fill="#000" d="M0 0h960v960h-960z"/><path fill="#ffd970" d="M96 96h96v96h-96zM96 288h96v96h-96zM288 96h96v96h-96zM288 288h96v96h-96zM480 96h96v96h-96zM480 288h96v96h-96zM672 96h96v96h-96zM672 288h96v96h-96zM864 96h96v96h-96zM864 288h96v96h-96z"/><path fill="#00b3d6" d="M48 0h24v24h-24zM72 0h24v24h-24zM48 24h24v24h-24zM72 24h24v24h-24zM0 48h24v24h-24zM24 48h24v24h-24zM0 72h24v24h-24zM24 72h24v24h-24zM216 0h24v24h-24zM264 0h24v24h-24zM192 24h24v24h-24zM264 48h24v24h-24zM192 72h24v24h-24zM240 72h24v24h-24zM384 0h24v24h-24zM456 0h24v24h-24zM408 24h24v24h-24zM432 24h24v24h-24zM384 72h24v24h-24zM456 72h24v24h-24zM600 0h24v24h-24zM576 24h24v24h-24zM648 48h24v24h-24zM624 72h24v24h-24zM816 0h24v24h-24zM792 24h24v24h-24zM840 24h24v24h-24zM768 48h24v24h-24zM816 48h24v24h-24zM792 72h24v24h-24zM0 192h24v24h-24zM24 216h24v24h-24zM0 240h24v24h-24zM48 240h24v24h-24zM0 264h24v24h-24zM24 264h24v24h-24zM72 264h24v24h-24zM240 192h24v24h-24zM264 192h24v24h-24zM240 216h24v24h-24zM264 216h24v24h-24zM192 240h24v24h-24zM216 240h24v24h-24zM192 264h24v24h-24zM216 264h24v24h-24zM384 192h24v24h-24zM456 192h24v24h-24zM408 216h24v24h-24zM408 240h24v24h-24zM432 240h24v24h-24zM384 264h24v24h-24zM456 264h24v24h-24zM600 192h24v24h-24zM576 216h24v24h-24zM600 216h24v24h-24zM624 240h24v24h-24zM648 240h24v24h-24zM624 264h24v24h-24zM768 192h24v24h-24zM840 192h24v24h-24zM792 216h24v24h-24zM816 240h24v24h-24zM768 264h24v24h-24zM840 264h24v24h-24zM0 384h24v24h-24zM72 384h24v24h-24zM0 432h24v24h-24zM72 432h24v24h-24zM192 384h24v24h-24zM264 384h24v24h-24zM216 432h24v24h-24zM240 432h24v24h-24zM192 456h24v24h-24zM264 456h24v24h-24zM384 408h24v24h-24zM456 408h24v24h-24zM384 432h24v24h-24zM408 432h24v24h-24zM576 384h24v24h-24zM600 408h24v24h-24zM624 432h24v24h-24zM648 456h24v24h-24zM792 384h24v24h-24zM816 384h24v24h-24zM768 408h24v24h-24zM816 408h24v24h-24zM792 432h24v24h-24zM840 432h24v24h-24zM792 456h24v24h-24zM816 456h24v24h-24zM0 600h24v24h-24zM72 600h24v24h-24zM0 624h24v24h-24zM72 624h24v24h-24zM216 576h24v24h-24zM192 600h24v24h-24zM240 600h24v24h-24zM216 624h24v24h-24zM264 624h24v24h-24zM240 648h24v24h-24zM408 576h24v24h-24zM384 600h24v24h-24zM456 624h24v24h-24zM432 648h24v24h-24zM576 600h24v24h-24zM648 600h24v24h-24zM576 624h24v24h-24zM600 624h24v24h-24zM768 576h24v24h-24zM840 576h24v24h-24zM768 624h24v24h-24zM840 624h24v24h-24zM24 768h24v24h-24zM48 816h24v24h-24zM24 840h24v24h-24zM48 840h24v24h-24zM216 768h24v24h-24zM192 792h24v24h-24zM240 792h24v24h-24zM216 816h24v24h-24zM264 816h24v24h-24zM240 840h24v24h-24zM408 768h24v24h-24zM456 768h24v24h-24zM408 840h24v24h-24zM456 840h24v24h-24zM576 792h24v24h-24zM648 792h24v24h-24zM576 816h24v24h-24zM648 816h24v24h-24zM816 768h24v24h-24zM792 792h24v24h-24zM840 792h24v24h-24zM768 816h24v24h-24zM816 816h24v24h-24zM792 840h24v24h-24zM864 192h24v24h-24zM936 192h24v24h-24zM888 216h24v24h-24zM912 240h24v24h-24zM864 264h24v24h-24zM936 264h24v24h-24zM864 96h24v24h-24zM936 96h24v24h-24zM888 120h24v24h-24zM912 144h24v24h-24zM864 168h24v24h-24zM936 168h24v24h-24zM96 192h24v24h-24zM120 216h24v24h-24zM96 240h24v24h-24zM144 240h24v24h-24zM96 264h24v24h-24zM120 264h24v24h-24zM168 264h24v24h-24zM312 768h24v24h-24zM360 768h24v24h-24zM312 840h24v24h-24zM360 840h24v24h-24zM864 480h24v24h-24zM936 480h24v24h-24zM864 528h24v24h-24zM936 528h24v24h-24zM96 600h24v24h-24zM168 600h24v24h-24zM96 624h24v24h-24zM168 624h24v24h-24zM888 384h24v24h-24zM912 384h24v24h-24zM864 408h24v24h-24zM912 408h24v24h-24zM888 432h24v24h-24zM936 432h24v24h-24zM888 456h24v24h-24zM912 456h24v24h-24zM288 192h24v24h-24zM360 192h24v24h-24zM312 216h24v24h-24zM312 240h24v24h-24zM336 240h24v24h-24zM288 264h24v24h-24zM360 264h24v24h-24zM384 504h24v24h-24zM456 504h24v24h-24zM384 528h24v24h-24zM408 528h24v24h-24zM480 384h24v24h-24zM504 408h24v24h-24zM528 432h24v24h-24zM552 456h24v24h-24zM144 96h24v24h-24zM168 96h24v24h-24zM144 120h24v24h-24zM168 120h24v24h-24zM96 144h24v24h-24zM120 144h24v24h-24zM96 168h24v24h-24zM120 168h24v24h-24zM768 288h24v24h-24zM840 288h24v24h-24zM792 312h24v24h-24zM816 336h24v24h-24zM768 360h24v24h-24zM840 360h24v24h-24zM96 504h24v24h-24zM168 504h24v24h-24zM96 528h24v24h-24zM168 528h24v24h-24zM288 504h24v24h-24zM360 504h24v24h-24zM288 528h24v24h-24zM312 528h24v24h-24zM504 768h24v24h-24zM552 768h24v24h-24zM504 840h24v24h-24zM552 840h24v24h-24zM480 288h24v24h-24zM552 288h24v24h-24zM504 312h24v24h-24zM504 336h24v24h-24zM528 336h24v24h-24zM480 360h24v24h-24zM552 360h24v24h-24zM672 288h24v24h-24zM744 288h24v24h-24zM696 312h24v24h-24zM720 336h24v24h-24zM672 360h24v24h-24zM744 360h24v24h-24zM672 792h24v24h-24zM744 792h24v24h-24zM672 816h24v24h-24zM744 816h24v24h-24z"/><path fill="#fff" d="M0 672h96v96h-96zM96 576h96v96h-96zM192 480h96v96h-96zM288 384h96v96h-96zM384 480h96v96h-96zM288 576h96v96h-96zM192 672h96v96h-96zM96 768h96v96h-96zM0 864h96v96h-96zM384 384h96v96h-96zM384 288h96v96h-96zM384 192h96v96h-96zM384 96h96v96h-96zM288 192h96v96h-96zM192 288h96v96h-96zM96 384h96v96h-96zM288 480h96v96h-96zM288 288h96v96h-96zM288 672h96v96h-96zM384 576h96v96h-96zM864 672h96v96h-96zM768 576h96v96h-96zM672 480h96v96h-96zM576 384h96v96h-96zM480 480h96v96h-96zM576 576h96v96h-96zM672 672h96v96h-96zM768 768h96v96h-96zM864 864h96v96h-96zM480 384h96v96h-96zM480 288h96v96h-96zM480 192h96v96h-96zM480 96h96v96h-96zM576 192h96v96h-96zM672 288h96v96h-96zM768 384h96v96h-96zM576 480h96v96h-96zM576 288h96v96h-96zM576 672h96v96h-96zM480 576h96v96h-96z"/></svg>