<svg xmlns="http://www.w3.org/2000/svg" width="960" height="960" viewBox="0 0 960 960" shape-rendering="crispEdges"><path fill="#000" d="M0 0h960v960h-960z"/><path fill="#f9a3fa" d="M0 12h12v12h-12zM0 108h12v12h-12zM0 204h12v12h-12zM0 300h12v12h-12zM0 396h12v12h-12zM12 12h12v12h-12zM12 108h12v12h-12zM12 204h12v12h-12zM12 300h12v12h-12zM12 396h12v12h-12zM24 12h12v12h-12zM24 108h12v12h-12zM24 204h12v12h-12zM24 300h12v12h-12zM24 396h12v12h-12zM36 12h12v12h-12zM36 108h12v12h-12zM36 204h12v12h-12zM36 300h12v12h-12zM36 396h12v12h-12zM48 12h12v12h-12zM48 108h12v12h-12zM48 204h12v12h-12zM48 300h12v12h-12zM48 396h12v12h-12zM60 12h12v12h-12zM60 108h12v12h-12zM60 204h12v12h-12zM60 300h12v12h-12zM60 396h12v12h-12zM72 12h12v12h-12zM72 108h12v12h-12zM72 204h12v12h-12zM72 300h12v12h-12zM72 396h12v12h-12zM84 12h12v12h-12zM84 108h12v12h-12zM84 204h12v12h-12zM84 300h12v12h-12zM84 396h12v12h-12zM96 12h12v12h-12zM96 108h12v12h-12zM96 204h12v12h-12zM96 300h12v12h-12zM96 396h12v12h-12zM108 12h12v12h-12zM108 108h12v12h-12zM108 204h12v12h-12zM108 300h12v12h-12zM108 396h12v12h-12zM120 12h12v12h-12zM120 108h12v12h-12zM120 204h12v12h-12zM120 300h12v12h-12zM120 396h12v12h-12zM132 12h12v12h-12zM132 108h12v12h-12zM132 204h12v12h-12zM132 300h12v12h-12zM132 396h12v12h-12zM144 12h12v12h-12zM144 108h12v12h-12zM144 204h12v12h-12zM144 300h12v12h-12zM144 396h12v12h-12zM156 12h12v12h-12zM156 108h12v12h-12zM156 204h12v12h-12zM156 300h12v12h-12zM156 396h12v12h-12zM168 12h12v12h-12zM168 108h12v12h-12zM168 204h12v12h-12zM168 300h12v12h-12zM168 396h12v12h-12zM180 12h12v12h-12zM180 108h12v12h-12zM180 204h12v12h-12zM180 300h12v12h-12zM180 396h12v12h-12zM192 12h12v12h-12zM192 108h12v12h-12zM192 204h12v12h-12zM192 300h12v12h-12zM192 396h12v12h-12zM204 12h12v12h-12zM204 108h12v12h-12zM204 204h12v12h-12zM204 300h12v12h-12zM204 396h12v12h-12zM216 12h12v12h-12zM216 108h12v12h-12zM216 204h12v12h-12zM216 300h12v12h-12zM216 396h12v12h-12zM228 12h12v12h-12zM228 108h12v12h-12zM228 204h12v12h-12zM228 300h12v12h-12zM228 396h12v12h-12zM240 12h12v12h-12zM240 108h12v12h-12zM240 204h12v12h-12zM240 300h12v12h-12zM240 396h12v12h-12zM252 12h12v12h-12zM252 108h12v12h-12zM252 204h12v12h-12zM252 300h12v12h-12zM252 396h12v12h-12zM264 12h12v12h-12zM264 108h12v12h-12zM264 204h12v12h-12zM264 300h12v12h-12zM264 396h12v12h-12zM276 12h12v12h-12zM276 108h12v12h-12zM276 204h12v12h-12zM276 300h12v12h-12zM276 396h12v12h-12zM288 12h12v12h-12zM288 108h12v12h-12zM288 204h12v12h-12zM288 300h12v12h-12zM288 396h12v12h-12zM300 12h12v12h-12zM300 108h12v12h-12zM300 204h12v12h-12zM300 300h12v12h-12zM300 396h12v12h-12zM312 12h12v12h-12zM312 108h12v12h-12zM312 204h12v12h-12zM312 300h12v12h-12zM312 396h12v12h-12zM324 12h12v12h-12zM324 108h12v12h-12zM324 204h12v12h-12zM324 300h12v12h-12zM324 396h12v12h-12zM336 12h12v12h-12zM336 108h12v12h-12zM336 204h12v12h-12zM336 300h12v12h-12zM336 396h12v12h-12zM348 12h12v12h-12zM348 108h12v12h-12zM348 204h12v12h-12zM348 300h12v12h-12zM348 396h12v12h-12zM360 12h12v12h-12zM360 108h12v12h-12zM360 204h12v12h-12zM360 300h12v12h-12zM360 396h12v12h-12zM372 12h12v12h-12zM372 108h12v12h-12zM372 204h12v12h-12zM372 300h12v12h-12zM372 396h12v12h-12zM384 12h12v12h-12zM384 108h12v12h-12zM384 204h12v12h-12zM384 300h12v12h-12zM384 396h12v12h-12zM396 12h12v12h-12zM396 108h12v12h-12zM396 204h12v12h-12zM396 300h12v12h-12zM396 396h12v12h-12zM408 12h12v12h-12zM408 108h12v12h-12zM408 204h12v12h-12zM408 300h12v12h-12zM408 396h12v12h-12zM420 12h12v12h-12zM420 108h12v12h-12zM420 204h12v12h-12zM420 300h12v12h-12zM420 396h12v12h-12zM432 12h12v12h-12zM432 108h12v12h-12zM432 204h12v12h-12zM432 300h12v12h-12zM432 396h12v12h-12zM444 12h12v12h-12zM444 108h12v12h-12zM444 204h12v12h-12zM444 300h12v12h-12zM444 396h12v12h-12zM456 12h12v12h-12zM456 108h12v12h-12zM456 204h12v12h-12zM456 300h12v12h-12zM456 396h12v12h-12zM468 12h12v12h-12zM468 108h12v12h-12zM468 204h12v12h-12zM468 300h12v12h-12zM468 396h12v12h-12zM480 492h12v12h-12zM480 588h12v12h-12zM480 684h12v12h-12zM480 780h12v12h-12zM480 876h12v12h-12zM492 492h12v12h-12zM492 588h12v12h-12zM492 684h12v12h-12zM492 780h12v12h-12zM492 876h12v12h-12zM504 492h12v12h-12zM504 588h12v12h-12zM504 684h12v12h-12zM504 780h12v12h-12zM504 876h12v12h-12zM516 492h12v12h-12zM516 588h12v12h-12zM516 684h12v12h-12zM516 780h12v12h-12zM516 876h12v12h-12zM528 492h12v12h-12zM528 588h12v12h-12zM528 684h12v12h-12zM528 780h12v12h-12zM528 876h12v12h-12zM540 492h12v12h-12zM540 588h12v12h-12zM540 684h12v12h-12zM540 780h12v12h-12zM540 876h12v12h-12zM552 492h12v12h-12zM552 588h12v12h-12zM552 684h12v12h-12zM552 780h12v12h-12zM552 876h12v12h-12zM564 492h12v12h-12zM564 588h12v12h-12zM564 684h12v12h-12zM564 780h12v12h-12zM564 876h12v12h-12zM576 492h12v12h-12zM576 588h12v12h-12zM576 684h12v12h-12zM576 780h12v12h-12zM576 876h12v12h-12zM588 492h12v12h-12zM588 588h12v12h-12zM588 684h12v12h-12zM588 780h12v12h-12zM588 876h12v12h-12zM600 492h12v12h-12zM600 588h12v12h-12zM600 684h12v12h-12zM600 780h12v12h-12zM600 876h12v12h-12zM612 492h12v12h-12zM612 588h12v12h-12zM612 684h12v12h-12zM612 780h12v12h-12zM612 876h12v12h-12zM624 492h12v12h-12zM624 588h12v12h-12zM624 684h12v12h-12zM624 780h12v12h-12zM624 876h12v12h-12zM636 492h12v12h-12zM636 588h12v12h-12zM636 684h12v12h-12zM636 780h12v12h-12zM636 876h12v12h-12zM648 492h12v12h-12zM648 588h12v12h-12zM648 684h12v12h-12zM648 780h12v12h-12zM648 876h12v12h-12zM660 492h12v12h-12zM660 588h12v12h-12zM660 684h12v12h-12zM660 780h12v12h-12zM660 876h12v12h-12zM672 492h12v12h-12zM672 588h12v12h-12zM672 684h12v12h-12zM672 780h12v12h-12zM672 876h12v12h-12zM684 492h12v12h-12zM684 588h12v12h-12zM684 684h12v12h-12zM684 780h12v12h-12zM684 876h12v12h-12zM696 492h12v12h-12zM696 588h12v12h-12zM696 684h12v12h-12zM696 780h12v12h-12zM696 876h12v12h-12zM708 492h12v12h-12zM708 588h12v12h-12zM708 684h12v12h-12zM708 780h12v12h-12zM708 876h12v12h-12zM720 492h12v12h-12zM720 588h12v12h-12zM720 684h12v12h-12zM720 780h12v12h-12zM720 876h12v12h-12zM732 492h12v12h-12zM732 588h12v12h-12zM732 684h12v12h-12zM732 780h12v12h-12zM732 876h12v12h-12zM744 492h12v12h-12zM744 588h12v12h-12zM744 684h12v12h-12zM744 780h12v12h-12zM744 876h12v12h-12zM756 492h12v12h-12zM756 588h12v12h-12zM756 684h12v12h-12zM756 780h12v12h-12zM756 876h12v12h-12zM768 492h12v12h-12zM768 588h12v12h-12zM768 684h12v12h-12zM768 780h12v12h-12zM768 876h12v12h-12zM780 492h12v12h-12zM780 588h12v12h-12zM780 684h12v12h-12zM780 780h12v12h-12zM780 876h12v12h-12zM792 492h12v12h-12zM792 588h12v12h-12zM792 684h12v12h-12zM792 780h12v12h-12zM792 876h12v12h-12zM804 492h12v12h-12zM804 588h12v12h-12zM804 684h12v12h-12zM804 780h12v12h-12zM804 876h12v12h-12zM816 492h12v12h-12zM816 588h12v12h-12zM816 684h12v12h-12zM816 780h12v12h-12zM816 876h12v12h-12zM828 492h12v12h-12zM828 588h12v12h-12zM828 684h12v12h-12zM828 780h12v12h-12zM828 876h12v12h-12zM840 492h12v12h-12zM840 588h12v12h-12zM840 684h12v12h-12zM840 780h12v12h-12zM840 876h12v12h-12zM852 492h12v12h-12zM852 588h12v12h-12zM852 684h12v12h-12zM852 780h12v12h-12zM852 876h12v12h-12zM864 492h12v12h-12zM864 588h12v12h-12zM864 684h12v12h-12zM864 780h12v12h-12zM864 876h12v12h-12zM876 492h12v12h-12zM876 588h12v12h-12zM876 684h12v12h-12zM876 780h12v12h-12zM876 876h12v12h-12zM888 492h12v12h-12zM888 588h12v12h-12zM888 684h12v12h-12zM888 780h12v12h-12zM888 876h12v12h-12zM900 492h12v12h-12zM900 588h12v12h-12zM900 684h12v12h-12zM900 780h12v12h-12zM900 876h12v12h-12zM912 492h12v12h-12zM912 588h12v12h-12zM912 684h12v12h-12zM912 780h12v12h-12zM912 876h12v12h-12zM924 492h12v12h-12zM924 588h12v12h-12zM924 684h12v12h-12zM924 780h12v12h-12zM924 876h12v12h-12zM936 492h12v12h-12zM936 588h12v12h-12zM936 684h12v12h-12zM936 780h12v12h-12zM936 876h12v12h-12zM948 492h12v12h-12zM948 588h12v12h-12zM948 684h12v12h-12zM948 780h12v12h-12zM948 876h12v12h-12z"/><path fill="#924545" d="M30 6h12v12h-12zM54 6h12v12h-12zM54 30h12v12h-12zM30 78h12v12h-12zM153 0h6v24h-6zM144 9h24v6h-24zM105 24h6v24h-6zM96 33h24v6h-24zM129 24h6v24h-6zM120 33h24v6h-24zM177 24h6v24h-6zM168 33h24v6h-24zM105 48h6v24h-6zM96 57h24v6h-24zM153 48h6v24h-6zM144 57h24v6h-24zM177 48h6v24h-6zM168 57h24v6h-24zM129 72h6v24h-6zM120 81h24v6h-24zM270 6h12v12h-12zM246 30h12v12h-12zM222 54h12v12h-12zM270 54h12v12h-12zM198 78h12v12h-12zM246 78h12v12h-12zM270 78h12v12h-12zM288 0h24v24h-24zM360 0h24v24h-24zM312 24h24v24h-24zM312 48h24v24h-24zM336 48h24v24h-24zM288 72h24v24h-24zM360 72h24v24h-24zM456 144h24v24h-24zM408 0h24v24h-24zM432 0h24v24h-24zM408 24h24v24h-24zM456 24h24v24h-24zM384 48h24v24h-24zM432 48h24v24h-24zM408 72h24v24h-24zM432 72h24v24h-24zM600 0h24v24h-24zM624 0h24v24h-24zM624 24h24v24h-24zM600 72h24v24h-24zM798 6h12v12h-12zM822 6h12v12h-12zM774 30h12v12h-12zM822 30h12v12h-12zM798 54h12v12h-12zM846 54h12v12h-12zM798 78h12v12h-12zM822 78h12v12h-12zM9 96h6v24h-6zM0 105h24v6h-24zM33 96h6v24h-6zM24 105h24v6h-24zM57 168h6v24h-6zM48 177h24v6h-24zM81 168h6v24h-6zM72 177h24v6h-24zM102 102h12v12h-12zM174 102h12v12h-12zM150 126h12v12h-12zM126 150h12v12h-12zM102 174h12v12h-12zM174 174h12v12h-12zM249 96h6v24h-6zM240 105h24v6h-24zM249 120h6v24h-6zM240 129h24v6h-24zM273 120h6v24h-6zM264 129h24v6h-24zM201 144h6v24h-6zM192 153h24v6h-24zM225 144h6v24h-6zM216 153h24v6h-24zM225 168h6v24h-6zM216 177h24v6h-24zM342 102h12v12h-12zM318 126h12v12h-12zM366 126h12v12h-12zM294 150h12v12h-12zM342 150h12v12h-12zM318 174h12v12h-12zM438 102h12v12h-12zM462 126h12v12h-12zM390 150h12v12h-12zM414 174h12v12h-12zM30 222h12v12h-12zM54 222h12v12h-12zM30 246h12v12h-12zM54 246h12v12h-12zM129 192h6v24h-6zM120 201h24v6h-24zM153 192h6v24h-6zM144 201h24v6h-24zM153 216h6v24h-6zM144 225h24v6h-24zM129 264h6v24h-6zM120 273h24v6h-24zM264 336h24v24h-24zM216 192h24v24h-24zM240 192h24v24h-24zM216 216h24v24h-24zM264 216h24v24h-24zM192 240h24v24h-24zM240 240h24v24h-24zM216 264h24v24h-24zM240 264h24v24h-24zM312 192h24v24h-24zM288 216h24v24h-24zM336 216h24v24h-24zM360 216h24v24h-24zM288 240h24v24h-24zM312 240h24v24h-24zM360 240h24v24h-24zM336 264h24v24h-24zM417 192h6v24h-6zM408 201h24v6h-24zM465 192h6v24h-6zM456 201h24v6h-24zM393 216h6v24h-6zM384 225h24v6h-24zM441 216h6v24h-6zM432 225h24v6h-24zM417 240h6v24h-6zM408 249h24v6h-24zM465 240h6v24h-6zM456 249h24v6h-24zM393 264h6v24h-6zM384 273h24v6h-24zM441 264h6v24h-6zM432 273h24v6h-24zM585 192h6v24h-6zM576 201h24v6h-24zM657 192h6v24h-6zM648 201h24v6h-24zM609 216h6v24h-6zM600 225h24v6h-24zM633 216h6v24h-6zM624 225h24v6h-24zM609 240h6v24h-6zM600 249h24v6h-24zM585 264h6v24h-6zM576 273h24v6h-24zM657 264h6v24h-6zM648 273h24v6h-24zM801 192h6v24h-6zM792 201h24v6h-24zM777 216h6v24h-6zM768 225h24v6h-24zM801 216h6v24h-6zM792 225h24v6h-24zM825 240h6v24h-6zM816 249h24v6h-24zM849 240h6v24h-6zM840 249h24v6h-24zM825 264h6v24h-6zM816 273h24v6h-24zM24 288h24v24h-24zM48 336h24v24h-24zM24 360h24v24h-24zM48 360h24v24h-24zM174 294h12v12h-12zM174 318h12v12h-12zM102 342h12v12h-12zM102 366h12v12h-12zM192 288h24v24h-24zM264 288h24v24h-24zM216 312h24v24h-24zM240 312h24v24h-24zM192 336h24v24h-24zM264 336h24v24h-24zM294 294h12v12h-12zM294 318h12v12h-12zM366 342h12v12h-12zM366 366h12v12h-12zM414 294h12v12h-12zM390 318h12v12h-12zM462 342h12v12h-12zM438 366h12v12h-12zM6 390h12v12h-12zM78 390h12v12h-12zM30 438h12v12h-12zM54 438h12v12h-12zM6 462h12v12h-12zM78 462h12v12h-12zM168 384h24v24h-24zM144 408h24v24h-24zM120 432h24v24h-24zM168 432h24v24h-24zM96 456h24v24h-24zM144 456h24v24h-24zM168 456h24v24h-24zM198 390h12v12h-12zM246 390h12v12h-12zM246 414h12v12h-12zM270 414h12v12h-12zM198 438h12v12h-12zM222 438h12v12h-12zM222 462h12v12h-12zM270 462h12v12h-12zM294 414h12v12h-12zM318 414h12v12h-12zM294 438h12v12h-12zM366 438h12v12h-12zM408 384h24v24h-24zM384 408h24v24h-24zM432 408h24v24h-24zM456 408h24v24h-24zM384 432h24v24h-24zM408 432h24v24h-24zM456 432h24v24h-24zM432 456h24v24h-24zM576 384h24v24h-24zM648 384h24v24h-24zM576 432h24v24h-24zM648 432h24v24h-24zM774 390h12v12h-12zM846 390h12v12h-12zM822 414h12v12h-12zM798 438h12v12h-12zM774 462h12v12h-12zM846 462h12v12h-12zM486 486h12v12h-12zM558 486h12v12h-12zM510 510h12v12h-12zM534 510h12v12h-12zM534 534h12v12h-12zM486 558h12v12h-12zM558 558h12v12h-12zM600 480h24v24h-24zM648 480h24v24h-24zM576 504h24v24h-24zM600 504h24v24h-24zM624 528h24v24h-24zM648 528h24v24h-24zM576 552h24v24h-24zM624 552h24v24h-24zM678 486h12v12h-12zM726 486h12v12h-12zM750 510h12v12h-12zM678 534h12v12h-12zM702 558h12v12h-12zM750 558h12v12h-12zM816 480h24v24h-24zM768 504h24v24h-24zM792 504h24v24h-24zM840 504h24v24h-24zM768 528h24v24h-24zM816 528h24v24h-24zM840 528h24v24h-24zM792 552h24v24h-24zM894 486h12v12h-12zM942 486h12v12h-12zM918 510h12v12h-12zM918 534h12v12h-12zM894 558h12v12h-12zM942 558h12v12h-12zM30 582h12v12h-12zM54 582h12v12h-12zM6 606h12v12h-12zM54 606h12v12h-12zM30 630h12v12h-12zM78 630h12v12h-12zM30 654h12v12h-12zM54 654h12v12h-12zM201 576h6v24h-6zM192 585h24v6h-24zM273 576h6v24h-6zM264 585h24v6h-24zM225 600h6v24h-6zM216 609h24v6h-24zM249 600h6v24h-6zM240 609h24v6h-24zM201 648h6v24h-6zM192 657h24v6h-24zM273 648h6v24h-6zM264 657h24v6h-24zM414 582h12v12h-12zM462 582h12v12h-12zM390 606h12v12h-12zM414 606h12v12h-12zM438 630h12v12h-12zM462 630h12v12h-12zM390 654h12v12h-12zM438 654h12v12h-12zM489 576h6v24h-6zM480 585h24v6h-24zM561 576h6v24h-6zM552 585h24v6h-24zM513 624h6v24h-6zM504 633h24v6h-24zM537 624h6v24h-6zM528 633h24v6h-24zM489 648h6v24h-6zM480 657h24v6h-24zM561 648h6v24h-6zM552 657h24v6h-24zM654 582h12v12h-12zM654 606h12v12h-12zM582 630h12v12h-12zM582 654h12v12h-12zM744 576h24v24h-24zM720 600h24v24h-24zM696 624h24v24h-24zM672 648h24v24h-24zM846 726h12v12h-12zM798 582h12v12h-12zM822 582h12v12h-12zM798 606h12v12h-12zM846 606h12v12h-12zM774 630h12v12h-12zM822 630h12v12h-12zM798 654h12v12h-12zM822 654h12v12h-12zM912 576h24v24h-24zM936 576h24v24h-24zM912 600h24v24h-24zM936 600h24v24h-24zM864 624h24v24h-24zM888 624h24v24h-24zM864 648h24v24h-24zM888 648h24v24h-24zM504 672h24v24h-24zM528 672h24v24h-24zM528 696h24v24h-24zM504 744h24v24h-24zM609 672h6v24h-6zM600 681h24v6h-24zM633 672h6v24h-6zM624 681h24v6h-24zM609 744h6v24h-6zM600 753h24v6h-24zM633 744h6v24h-6zM624 753h24v6h-24zM705 672h6v24h-6zM696 681h24v6h-24zM681 696h6v24h-6zM672 705h24v6h-24zM729 696h6v24h-6zM720 705h24v6h-24zM705 720h6v24h-6zM696 729h24v6h-24zM753 720h6v24h-6zM744 729h24v6h-24zM729 744h6v24h-6zM720 753h24v6h-24zM768 672h24v24h-24zM840 672h24v24h-24zM768 744h24v24h-24zM840 744h24v24h-24zM870 678h12v12h-12zM894 702h12v12h-12zM918 726h12v12h-12zM942 750h12v12h-12zM57 768h6v24h-6zM48 777h24v6h-24zM9 792h6v24h-6zM0 801h24v6h-24zM33 792h6v24h-6zM24 801h24v6h-24zM81 792h6v24h-6zM72 801h24v6h-24zM9 816h6v24h-6zM0 825h24v6h-24zM57 816h6v24h-6zM48 825h24v6h-24zM81 816h6v24h-6zM72 825h24v6h-24zM33 840h6v24h-6zM24 849h24v6h-24zM216 768h24v24h-24zM240 768h24v24h-24zM216 840h24v24h-24zM240 840h24v24h-24zM384 792h24v24h-24zM408 792h24v24h-24zM384 816h24v24h-24zM456 816h24v24h-24zM486 774h12v12h-12zM510 774h12v12h-12zM486 798h12v12h-12zM510 798h12v12h-12zM534 822h12v12h-12zM558 822h12v12h-12zM534 846h12v12h-12zM558 846h12v12h-12zM582 774h12v12h-12zM654 774h12v12h-12zM606 798h12v12h-12zM630 798h12v12h-12zM630 822h12v12h-12zM582 846h12v12h-12zM654 846h12v12h-12zM744 768h24v24h-24zM720 792h24v24h-24zM696 816h24v24h-24zM744 816h24v24h-24zM672 840h24v24h-24zM720 840h24v24h-24zM744 840h24v24h-24zM777 792h6v24h-6zM768 801h24v6h-24zM849 792h6v24h-6zM840 801h24v6h-24zM777 816h6v24h-6zM768 825h24v6h-24zM849 816h6v24h-6zM840 825h24v6h-24zM870 774h12v12h-12zM894 774h12v12h-12zM918 846h12v12h-12zM942 846h12v12h-12zM480 864h24v24h-24zM552 864h24v24h-24zM480 912h24v24h-24zM552 912h24v24h-24zM576 864h24v24h-24zM648 864h24v24h-24zM624 888h24v24h-24zM600 912h24v24h-24zM576 936h24v24h-24zM648 936h24v24h-24zM750 870h12v12h-12zM750 894h12v12h-12zM678 918h12v12h-12zM678 942h12v12h-12zM801 888h6v24h-6zM792 897h24v6h-24zM825 888h6v24h-6zM816 897h24v6h-24zM801 912h6v24h-6zM792 921h24v6h-24zM825 912h6v24h-6zM816 921h24v6h-24zM912 864h24v24h-24zM864 888h24v24h-24zM888 888h24v24h-24zM936 888h24v24h-24zM864 912h24v24h-24zM912 912h24v24h-24zM936 912h24v24h-24zM888 936h24v24h-24zM801 288h6v24h-6zM792 297h24v6h-24zM777 312h6v24h-6zM768 321h24v6h-24zM801 312h6v24h-6zM792 321h24v6h-24zM825 336h6v24h-6zM816 345h24v6h-24zM849 336h6v24h-6zM840 345h24v6h-24zM825 360h6v24h-6zM816 369h24v6h-24zM417 672h6v24h-6zM408 681h24v6h-24zM465 672h6v24h-6zM456 681h24v6h-24zM393 696h6v24h-6zM384 705h24v6h-24zM417 696h6v24h-6zM408 705h24v6h-24zM441 720h6v24h-6zM432 729h24v6h-24zM465 720h6v24h-6zM456 729h24v6h-24zM393 744h6v24h-6zM384 753h24v6h-24zM441 744h6v24h-6zM432 753h24v6h-24zM96 480h24v24h-24zM168 480h24v24h-24zM120 504h24v24h-24zM144 504h24v24h-24zM96 552h24v24h-24zM168 552h24v24h-24zM696 192h24v24h-24zM672 216h24v24h-24zM696 216h24v24h-24zM720 240h24v24h-24zM744 240h24v24h-24zM720 264h24v24h-24zM201 672h6v24h-6zM192 681h24v6h-24zM273 672h6v24h-6zM264 681h24v6h-24zM225 696h6v24h-6zM216 705h24v6h-24zM249 696h6v24h-6zM240 705h24v6h-24zM201 744h6v24h-6zM192 753h24v6h-24zM273 744h6v24h-6zM264 753h24v6h-24zM894 6h12v12h-12zM918 6h12v12h-12zM870 30h12v12h-12zM918 30h12v12h-12zM894 54h12v12h-12zM942 54h12v12h-12zM894 78h12v12h-12zM918 78h12v12h-12zM888 192h24v24h-24zM864 216h24v24h-24zM888 216h24v24h-24zM912 240h24v24h-24zM936 240h24v24h-24zM912 264h24v24h-24zM294 894h12v12h-12zM318 894h12v12h-12zM294 918h12v12h-12zM366 918h12v12h-12z"/><path fill="#fff" d="M252 396h12v12h-12zM240 396h12v12h-12zM228 396h12v12h-12zM216 396h12v12h-12zM204 396h12v12h-12zM192 396h12v12h-12zM180 396h12v12h-12zM168 396h12v12h-12zM156 396h12v12h-12zM144 396h12v12h-12zM132 396h12v12h-12zM120 396h12v12h-12zM108 396h12v12h-12zM96 396h12v12h-12zM96 384h12v12h-12zM96 372h12v12h-12zM96 360h12v12h-12zM96 348h12v12h-12zM108 360h12v12h-12zM120 372h12v12h-12zM132 384h12v12h-12zM156 408h12v12h-12zM168 420h12v12h-12zM180 432h12v12h-12zM192 444h12v12h-12zM192 432h12v12h-12zM192 420h12v12h-12zM192 408h12v12h-12zM192 384h12v12h-12zM192 372h12v12h-12zM192 360h12v12h-12zM192 348h12v12h-12zM192 336h12v12h-12zM192 324h12v12h-12zM192 312h12v12h-12zM192 300h12v12h-12zM192 288h12v12h-12zM192 276h12v12h-12zM192 264h12v12h-12zM192 252h12v12h-12zM192 240h12v12h-12zM192 228h12v12h-12zM192 216h12v12h-12zM192 204h12v12h-12zM192 192h12v12h-12zM192 180h12v12h-12zM192 168h12v12h-12zM192 156h12v12h-12zM192 144h12v12h-12zM192 132h12v12h-12zM192 120h12v12h-12zM204 132h12v12h-12zM216 144h12v12h-12zM228 156h12v12h-12zM240 168h12v12h-12zM252 180h12v12h-12zM264 192h12v12h-12zM276 204h12v12h-12zM288 216h12v12h-12zM300 228h12v12h-12zM312 240h12v12h-12zM324 252h12v12h-12zM336 264h12v12h-12zM348 276h12v12h-12zM348 288h12v12h-12zM348 300h12v12h-12zM348 312h12v12h-12zM348 324h12v12h-12zM348 336h12v12h-12zM348 348h12v12h-12zM348 360h12v12h-12zM348 372h12v12h-12zM348 384h12v12h-12zM348 396h12v12h-12zM348 408h12v12h-12zM348 420h12v12h-12zM348 432h12v12h-12zM348 444h12v12h-12zM348 456h12v12h-12zM348 468h12v12h-12zM348 480h12v12h-12zM348 492h12v12h-12zM348 504h12v12h-12zM348 516h12v12h-12zM348 528h12v12h-12zM348 540h12v12h-12zM348 552h12v12h-12zM348 564h12v12h-12zM336 492h12v12h-12zM324 504h12v12h-12zM312 516h12v12h-12zM300 528h12v12h-12zM288 540h12v12h-12zM276 552h12v12h-12zM264 564h12v12h-12zM252 576h12v12h-12zM240 588h12v12h-12zM228 600h12v12h-12zM216 612h12v12h-12zM204 624h12v12h-12zM192 636h12v12h-12zM180 648h12v12h-12zM168 660h12v12h-12zM156 672h12v12h-12zM144 684h12v12h-12zM132 696h12v12h-12zM120 708h12v12h-12zM108 720h12v12h-12zM96 732h12v12h-12zM84 744h12v12h-12zM72 756h12v12h-12zM60 768h12v12h-12zM48 780h12v12h-12zM60 780h12v12h-12zM72 780h12v12h-12zM84 780h12v12h-12zM96 780h12v12h-12zM108 780h12v12h-12zM120 780h12v12h-12zM132 780h12v12h-12zM144 780h12v12h-12zM156 780h12v12h-12zM168 780h12v12h-12zM180 780h12v12h-12zM180 768h12v12h-12zM180 756h12v12h-12zM180 744h12v12h-12zM180 732h12v12h-12zM180 720h12v12h-12zM180 708h12v12h-12zM180 696h12v12h-12zM180 684h12v12h-12zM180 672h12v12h-12zM180 660h12v12h-12zM180 636h12v12h-12zM180 624h12v12h-12zM180 612h12v12h-12zM180 600h12v12h-12zM180 588h12v12h-12zM180 576h12v12h-12zM180 564h12v12h-12zM180 552h12v12h-12zM180 540h12v12h-12zM180 528h12v12h-12zM180 516h12v12h-12zM168 744h12v12h-12zM192 744h12v12h-12zM204 744h12v12h-12zM216 744h12v12h-12zM228 744h12v12h-12zM240 744h12v12h-12zM252 744h12v12h-12zM264 744h12v12h-12zM276 744h12v12h-12zM288 744h12v12h-12zM300 744h12v12h-12zM312 744h12v12h-12zM324 744h12v12h-12zM336 744h12v12h-12zM348 744h12v12h-12zM360 744h12v12h-12zM372 744h12v12h-12zM384 744h12v12h-12zM396 744h12v12h-12zM408 744h12v12h-12zM420 744h12v12h-12zM432 744h12v12h-12zM444 744h12v12h-12zM420 756h12v12h-12zM408 768h12v12h-12zM396 780h12v12h-12zM384 792h12v12h-12zM372 804h12v12h-12zM360 816h12v12h-12zM348 816h12v12h-12zM336 816h12v12h-12zM324 816h12v12h-12zM312 816h12v12h-12zM300 816h12v12h-12zM288 804h12v12h-12zM276 792h12v12h-12zM264 780h12v12h-12zM252 768h12v12h-12zM240 756h12v12h-12zM216 732h12v12h-12zM204 720h12v12h-12zM192 708h12v12h-12zM168 684h12v12h-12zM168 672h12v12h-12zM168 648h12v12h-12zM168 636h12v12h-12zM168 624h12v12h-12zM168 612h12v12h-12zM168 600h12v12h-12zM168 588h12v12h-12zM168 576h12v12h-12zM168 564h12v12h-12zM168 552h12v12h-12zM168 540h12v12h-12zM168 528h12v12h-12zM168 516h12v12h-12zM168 504h12v12h-12zM168 492h12v12h-12zM180 504h12v12h-12zM156 480h12v12h-12zM168 468h12v12h-12zM180 468h12v12h-12zM192 468h12v12h-12zM204 468h12v12h-12zM216 468h12v12h-12zM228 468h12v12h-12zM240 468h12v12h-12zM252 468h12v12h-12zM264 468h12v12h-12zM276 468h12v12h-12zM288 468h12v12h-12zM300 468h12v12h-12zM312 468h12v12h-12zM324 468h12v12h-12zM336 468h12v12h-12zM360 468h12v12h-12zM372 468h12v12h-12zM384 468h12v12h-12zM396 468h12v12h-12zM408 468h12v12h-12zM420 468h12v12h-12zM432 468h12v12h-12zM444 468h12v12h-12zM456 468h12v12h-12zM468 468h12v12h-12zM468 480h12v12h-12zM468 492h12v12h-12zM468 504h12v12h-12zM468 516h12v12h-12zM468 528h12v12h-12zM468 540h12v12h-12zM468 552h12v12h-12zM468 564h12v12h-12zM456 576h12v12h-12zM444 588h12v12h-12zM432 600h12v12h-12zM420 612h12v12h-12zM408 624h12v12h-12zM396 636h12v12h-12zM384 648h12v12h-12zM372 660h12v12h-12zM360 672h12v12h-12zM372 672h12v12h-12zM384 672h12v12h-12zM396 672h12v12h-12zM408 672h12v12h-12zM420 672h12v12h-12zM420 660h12v12h-12zM420 648h12v12h-12zM420 636h12v12h-12zM420 624h12v12h-12zM420 600h12v12h-12zM420 588h12v12h-12zM420 576h12v12h-12zM420 564h12v12h-12zM420 552h12v12h-12zM420 540h12v12h-12zM420 528h12v12h-12zM420 516h12v12h-12zM420 504h12v12h-12zM420 492h12v12h-12zM420 480h12v12h-12zM420 456h12v12h-12zM420 444h12v12h-12zM420 432h12v12h-12zM420 420h12v12h-12zM420 408h12v12h-12zM420 396h12v12h-12zM420 384h12v12h-12zM420 372h12v12h-12zM420 360h12v12h-12zM408 348h12v12h-12zM396 336h12v12h-12zM384 324h12v12h-12zM372 312h12v12h-12zM360 300h12v12h-12zM336 276h12v12h-12zM324 264h12v12h-12zM312 252h12v12h-12zM300 240h12v12h-12zM288 228h12v12h-12zM276 216h12v12h-12zM264 204h12v12h-12zM264 180h12v12h-12zM264 168h12v12h-12zM264 156h12v12h-12zM264 144h12v12h-12zM264 132h12v12h-12zM264 120h12v12h-12zM264 108h12v12h-12zM264 96h12v12h-12zM264 84h12v12h-12zM264 72h12v12h-12zM264 60h12v12h-12zM264 48h12v12h-12zM264 36h12v12h-12zM252 48h12v12h-12zM240 60h12v12h-12zM228 72h12v12h-12zM216 84h12v12h-12zM204 96h12v12h-12zM192 108h12v12h-12zM180 120h12v12h-12zM168 132h12v12h-12zM156 144h12v12h-12zM144 156h12v12h-12zM132 168h12v12h-12zM120 180h12v12h-12zM108 192h12v12h-12zM96 204h12v12h-12zM84 216h12v12h-12zM72 228h12v12h-12zM60 240h12v12h-12zM48 252h12v12h-12zM36 264h12v12h-12zM24 276h12v12h-12zM12 288h12v12h-12zM24 288h12v12h-12zM36 288h12v12h-12zM48 288h12v12h-12zM60 288h12v12h-12zM72 288h12v12h-12zM84 288h12v12h-12zM96 288h12v12h-12zM108 288h12v12h-12zM120 288h12v12h-12zM132 300h12v12h-12zM144 312h12v12h-12zM156 324h12v12h-12zM168 336h12v12h-12zM180 348h12v12h-12zM204 372h12v12h-12zM216 384h12v12h-12zM240 408h12v12h-12zM252 420h12v12h-12zM108 276h12v12h-12zM96 264h12v12h-12zM84 252h12v12h-12zM96 240h12v12h-12zM108 228h12v12h-12zM120 216h12v12h-12zM132 228h12v12h-12zM144 240h12v12h-12zM156 252h12v12h-12zM168 264h12v12h-12zM180 276h12v12h-12zM204 300h12v12h-12zM216 312h12v12h-12zM228 324h12v12h-12zM240 336h12v12h-12zM252 348h12v12h-12zM264 360h12v12h-12zM276 372h12v12h-12zM288 384h12v12h-12zM300 396h12v12h-12zM312 408h12v12h-12zM324 420h12v12h-12zM336 432h12v12h-12zM360 456h12v12h-12zM384 480h12v12h-12zM396 492h12v12h-12zM408 504h12v12h-12zM432 528h12v12h-12zM444 540h12v12h-12zM456 552h12v12h-12zM444 564h12v12h-12zM432 576h12v12h-12zM408 600h12v12h-12zM396 612h12v12h-12zM384 624h12v12h-12zM372 636h12v12h-12zM360 648h12v12h-12zM348 660h12v12h-12zM336 672h12v12h-12zM324 684h12v12h-12zM312 696h12v12h-12zM300 708h12v12h-12zM288 720h12v12h-12zM276 732h12v12h-12zM252 756h12v12h-12zM240 768h12v12h-12zM228 780h12v12h-12zM216 792h12v12h-12zM204 804h12v12h-12zM192 816h12v12h-12zM180 828h12v12h-12zM168 840h12v12h-12zM156 852h12v12h-12zM144 864h12v12h-12zM132 876h12v12h-12zM120 888h12v12h-12zM108 900h12v12h-12zM108 888h12v12h-12zM108 876h12v12h-12zM108 864h12v12h-12zM108 852h12v12h-12zM120 840h12v12h-12zM132 828h12v12h-12zM144 816h12v12h-12zM156 804h12v12h-12zM168 792h12v12h-12zM192 768h12v12h-12zM204 756h12v12h-12zM228 732h12v12h-12zM240 720h12v12h-12zM252 708h12v12h-12zM264 696h12v12h-12zM276 684h12v12h-12zM288 672h12v12h-12zM300 660h12v12h-12zM312 648h12v12h-12zM324 636h12v12h-12zM336 624h12v12h-12zM348 612h12v12h-12zM360 600h12v12h-12zM372 588h12v12h-12zM384 576h12v12h-12zM396 564h12v12h-12zM408 552h12v12h-12zM408 540h12v12h-12zM408 528h12v12h-12zM408 516h12v12h-12zM408 492h12v12h-12zM408 480h12v12h-12zM408 456h12v12h-12zM408 444h12v12h-12zM408 432h12v12h-12zM408 420h12v12h-12zM408 408h12v12h-12zM408 396h12v12h-12zM408 384h12v12h-12zM408 372h12v12h-12zM408 360h12v12h-12zM408 336h12v12h-12zM408 324h12v12h-12zM408 312h12v12h-12zM408 300h12v12h-12zM408 288h12v12h-12zM408 276h12v12h-12zM408 264h12v12h-12zM396 264h12v12h-12zM384 264h12v12h-12zM372 264h12v12h-12zM360 264h12v12h-12zM348 264h12v12h-12zM324 276h12v12h-12zM324 288h12v12h-12zM324 300h12v12h-12zM324 312h12v12h-12zM324 324h12v12h-12zM324 336h12v12h-12zM324 348h12v12h-12zM324 360h12v12h-12zM324 372h12v12h-12zM324 384h12v12h-12zM324 396h12v12h-12zM324 408h12v12h-12zM324 432h12v12h-12zM324 444h12v12h-12zM324 456h12v12h-12zM324 240h12v12h-12zM324 228h12v12h-12zM324 216h12v12h-12zM324 204h12v12h-12zM324 192h12v12h-12zM324 180h12v12h-12zM324 168h12v12h-12zM324 156h12v12h-12zM312 168h12v12h-12zM300 180h12v12h-12zM288 192h12v12h-12zM264 216h12v12h-12zM252 228h12v12h-12zM240 240h12v12h-12zM228 252h12v12h-12zM216 264h12v12h-12zM204 276h12v12h-12zM180 300h12v12h-12zM180 288h12v12h-12zM180 264h12v12h-12zM180 252h12v12h-12zM180 240h12v12h-12zM180 228h12v12h-12zM180 216h12v12h-12zM180 204h12v12h-12zM180 192h12v12h-12zM180 180h12v12h-12zM180 168h12v12h-12zM180 156h12v12h-12zM180 144h12v12h-12zM180 132h12v12h-12zM180 108h12v12h-12zM180 96h12v12h-12zM180 84h12v12h-12zM180 72h12v12h-12zM180 60h12v12h-12zM180 48h12v12h-12zM180 36h12v12h-12zM192 36h12v12h-12zM204 36h12v12h-12zM216 36h12v12h-12zM228 36h12v12h-12zM228 48h12v12h-12zM228 60h12v12h-12zM228 84h12v12h-12zM228 96h12v12h-12zM228 108h12v12h-12zM228 120h12v12h-12zM228 132h12v12h-12zM228 144h12v12h-12zM228 168h12v12h-12zM228 180h12v12h-12zM228 192h12v12h-12zM228 204h12v12h-12zM216 192h12v12h-12zM204 180h12v12h-12zM168 144h12v12h-12zM156 132h12v12h-12zM144 120h12v12h-12zM132 108h12v12h-12zM120 96h12v12h-12zM108 84h12v12h-12zM96 72h12v12h-12zM84 60h12v12h-12zM72 48h12v12h-12zM60 36h12v12h-12zM48 24h12v12h-12zM36 12h12v12h-12zM168 180h12v12h-12zM156 180h12v12h-12zM156 168h12v12h-12zM156 156h12v12h-12zM156 120h12v12h-12zM156 108h12v12h-12zM156 96h12v12h-12zM156 84h12v12h-12zM156 72h12v12h-12zM156 60h12v12h-12zM156 48h12v12h-12zM156 36h12v12h-12zM696 396h12v12h-12zM708 396h12v12h-12zM720 396h12v12h-12zM732 396h12v12h-12zM744 396h12v12h-12zM756 396h12v12h-12zM768 396h12v12h-12zM780 396h12v12h-12zM792 396h12v12h-12zM804 396h12v12h-12zM816 396h12v12h-12zM828 396h12v12h-12zM840 396h12v12h-12zM852 396h12v12h-12zM852 384h12v12h-12zM852 372h12v12h-12zM852 360h12v12h-12zM852 348h12v12h-12zM840 360h12v12h-12zM828 372h12v12h-12zM816 384h12v12h-12zM792 408h12v12h-12zM780 420h12v12h-12zM768 432h12v12h-12zM756 444h12v12h-12zM756 432h12v12h-12zM756 420h12v12h-12zM756 408h12v12h-12zM756 384h12v12h-12zM756 372h12v12h-12zM756 360h12v12h-12zM756 348h12v12h-12zM756 336h12v12h-12zM756 324h12v12h-12zM756 312h12v12h-12zM756 300h12v12h-12zM756 288h12v12h-12zM756 276h12v12h-12zM756 264h12v12h-12zM756 252h12v12h-12zM756 240h12v12h-12zM756 228h12v12h-12zM756 216h12v12h-12zM756 204h12v12h-12zM756 192h12v12h-12zM756 180h12v12h-12zM756 168h12v12h-12zM756 156h12v12h-12zM756 144h12v12h-12zM756 132h12v12h-12zM756 120h12v12h-12zM744 132h12v12h-12zM732 144h12v12h-12zM720 156h12v12h-12zM708 168h12v12h-12zM696 180h12v12h-12zM684 192h12v12h-12zM672 204h12v12h-12zM660 216h12v12h-12zM648 228h12v12h-12zM636 240h12v12h-12zM624 252h12v12h-12zM612 264h12v12h-12zM600 276h12v12h-12zM600 288h12v12h-12zM600 300h12v12h-12zM600 312h12v12h-12zM600 324h12v12h-12zM600 336h12v12h-12zM600 348h12v12h-12zM600 360h12v12h-12zM600 372h12v12h-12zM600 384h12v12h-12zM600 396h12v12h-12zM600 408h12v12h-12zM600 420h12v12h-12zM600 432h12v12h-12zM600 444h12v12h-12zM600 456h12v12h-12zM600 468h12v12h-12zM600 480h12v12h-12zM600 492h12v12h-12zM600 504h12v12h-12zM600 516h12v12h-12zM600 528h12v12h-12zM600 540h12v12h-12zM600 552h12v12h-12zM600 564h12v12h-12zM612 492h12v12h-12zM624 504h12v12h-12zM636 516h12v12h-12zM648 528h12v12h-12zM660 540h12v12h-12zM672 552h12v12h-12zM684 564h12v12h-12zM696 576h12v12h-12zM708 588h12v12h-12zM720 600h12v12h-12zM732 612h12v12h-12zM744 624h12v12h-12zM756 636h12v12h-12zM768 648h12v12h-12zM780 660h12v12h-12zM792 672h12v12h-12zM804 684h12v12h-12zM816 696h12v12h-12zM828 708h12v12h-12zM840 720h12v12h-12zM852 732h12v12h-12zM864 744h12v12h-12zM876 756h12v12h-12zM888 768h12v12h-12zM900 780h12v12h-12zM888 780h12v12h-12zM876 780h12v12h-12zM864 780h12v12h-12zM852 780h12v12h-12zM840 780h12v12h-12zM828 780h12v12h-12zM816 780h12v12h-12zM804 780h12v12h-12zM792 780h12v12h-12zM780 780h12v12h-12zM768 780h12v12h-12zM768 768h12v12h-12zM768 756h12v12h-12zM768 744h12v12h-12zM768 732h12v12h-12zM768 720h12v12h-12zM768 708h12v12h-12zM768 696h12v12h-12zM768 684h12v12h-12zM768 672h12v12h-12zM768 660h12v12h-12zM768 636h12v12h-12zM768 624h12v12h-12zM768 612h12v12h-12zM768 600h12v12h-12zM768 588h12v12h-12zM768 576h12v12h-12zM768 564h12v12h-12zM768 552h12v12h-12zM768 540h12v12h-12zM768 528h12v12h-12zM768 516h12v12h-12zM780 744h12v12h-12zM756 744h12v12h-12zM744 744h12v12h-12zM732 744h12v12h-12zM720 744h12v12h-12zM708 744h12v12h-12zM696 744h12v12h-12zM684 744h12v12h-12zM672 744h12v12h-12zM660 744h12v12h-12zM648 744h12v12h-12zM636 744h12v12h-12zM624 744h12v12h-12zM612 744h12v12h-12zM600 744h12v12h-12zM588 744h12v12h-12zM576 744h12v12h-12zM564 744h12v12h-12zM552 744h12v12h-12zM540 744h12v12h-12zM528 744h12v12h-12zM516 744h12v12h-12zM504 744h12v12h-12zM528 756h12v12h-12zM540 768h12v12h-12zM552 780h12v12h-12zM564 792h12v12h-12zM576 804h12v12h-12zM588 816h12v12h-12zM600 816h12v12h-12zM612 816h12v12h-12zM624 816h12v12h-12zM636 816h12v12h-12zM648 816h12v12h-12zM660 804h12v12h-12zM672 792h12v12h-12zM684 780h12v12h-12zM696 768h12v12h-12zM708 756h12v12h-12zM732 732h12v12h-12zM744 720h12v12h-12zM756 708h12v12h-12zM780 684h12v12h-12zM780 672h12v12h-12zM780 648h12v12h-12zM780 636h12v12h-12zM780 624h12v12h-12zM780 612h12v12h-12zM780 600h12v12h-12zM780 588h12v12h-12zM780 576h12v12h-12zM780 564h12v12h-12zM780 552h12v12h-12zM780 540h12v12h-12zM780 528h12v12h-12zM780 516h12v12h-12zM780 504h12v12h-12zM780 492h12v12h-12zM768 504h12v12h-12zM792 480h12v12h-12zM780 468h12v12h-12zM768 468h12v12h-12zM756 468h12v12h-12zM744 468h12v12h-12zM732 468h12v12h-12zM720 468h12v12h-12zM708 468h12v12h-12zM696 468h12v12h-12zM684 468h12v12h-12zM672 468h12v12h-12zM660 468h12v12h-12zM648 468h12v12h-12zM636 468h12v12h-12zM624 468h12v12h-12zM612 468h12v12h-12zM588 468h12v12h-12zM576 468h12v12h-12zM564 468h12v12h-12zM552 468h12v12h-12zM540 468h12v12h-12zM528 468h12v12h-12zM516 468h12v12h-12zM504 468h12v12h-12zM492 468h12v12h-12zM480 468h12v12h-12zM480 480h12v12h-12zM480 492h12v12h-12zM480 504h12v12h-12zM480 516h12v12h-12zM480 528h12v12h-12zM480 540h12v12h-12zM480 552h12v12h-12zM480 564h12v12h-12zM492 576h12v12h-12zM504 588h12v12h-12zM516 600h12v12h-12zM528 612h12v12h-12zM540 624h12v12h-12zM552 636h12v12h-12zM564 648h12v12h-12zM576 660h12v12h-12zM588 672h12v12h-12zM576 672h12v12h-12zM564 672h12v12h-12zM552 672h12v12h-12zM540 672h12v12h-12zM528 672h12v12h-12zM528 660h12v12h-12zM528 648h12v12h-12zM528 636h12v12h-12zM528 624h12v12h-12zM528 600h12v12h-12zM528 588h12v12h-12zM528 576h12v12h-12zM528 564h12v12h-12zM528 552h12v12h-12zM528 540h12v12h-12zM528 528h12v12h-12zM528 516h12v12h-12zM528 504h12v12h-12zM528 492h12v12h-12zM528 480h12v12h-12zM528 456h12v12h-12zM528 444h12v12h-12zM528 432h12v12h-12zM528 420h12v12h-12zM528 408h12v12h-12zM528 396h12v12h-12zM528 384h12v12h-12zM528 372h12v12h-12zM528 360h12v12h-12zM540 348h12v12h-12zM552 336h12v12h-12zM564 324h12v12h-12zM576 312h12v12h-12zM588 300h12v12h-12zM612 276h12v12h-12zM624 264h12v12h-12zM636 252h12v12h-12zM648 240h12v12h-12zM660 228h12v12h-12zM672 216h12v12h-12zM684 204h12v12h-12zM684 180h12v12h-12zM684 168h12v12h-12zM684 156h12v12h-12zM684 144h12v12h-12zM684 132h12v12h-12zM684 120h12v12h-12zM684 108h12v12h-12zM684 96h12v12h-12zM684 84h12v12h-12zM684 72h12v12h-12zM684 60h12v12h-12zM684 48h12v12h-12zM684 36h12v12h-12zM696 48h12v12h-12zM708 60h12v12h-12zM720 72h12v12h-12zM732 84h12v12h-12zM744 96h12v12h-12zM756 108h12v12h-12zM768 120h12v12h-12zM780 132h12v12h-12zM792 144h12v12h-12zM804 156h12v12h-12zM816 168h12v12h-12zM828 180h12v12h-12zM840 192h12v12h-12zM852 204h12v12h-12zM864 216h12v12h-12zM876 228h12v12h-12zM888 240h12v12h-12zM900 252h12v12h-12zM912 264h12v12h-12zM924 276h12v12h-12zM936 288h12v12h-12zM924 288h12v12h-12zM912 288h12v12h-12zM900 288h12v12h-12zM888 288h12v12h-12zM876 288h12v12h-12zM864 288h12v12h-12zM852 288h12v12h-12zM840 288h12v12h-12zM828 288h12v12h-12zM816 300h12v12h-12zM804 312h12v12h-12zM792 324h12v12h-12zM780 336h12v12h-12zM768 348h12v12h-12zM744 372h12v12h-12zM732 384h12v12h-12zM708 408h12v12h-12zM696 420h12v12h-12zM840 276h12v12h-12zM852 264h12v12h-12zM864 252h12v12h-12zM852 240h12v12h-12zM840 228h12v12h-12zM828 216h12v12h-12zM816 228h12v12h-12zM804 240h12v12h-12zM792 252h12v12h-12zM780 264h12v12h-12zM768 276h12v12h-12zM744 300h12v12h-12zM732 312h12v12h-12zM720 324h12v12h-12zM708 336h12v12h-12zM696 348h12v12h-12zM684 360h12v12h-12zM672 372h12v12h-12zM660 384h12v12h-12zM648 396h12v12h-12zM636 408h12v12h-12zM624 420h12v12h-12zM612 432h12v12h-12zM588 456h12v12h-12zM564 480h12v12h-12zM552 492h12v12h-12zM540 504h12v12h-12zM516 528h12v12h-12zM504 540h12v12h-12zM492 552h12v12h-12zM504 564h12v12h-12zM516 576h12v12h-12zM540 600h12v12h-12zM552 612h12v12h-12zM564 624h12v12h-12zM576 636h12v12h-12zM588 648h12v12h-12zM600 660h12v12h-12zM612 672h12v12h-12zM624 684h12v12h-12zM636 696h12v12h-12zM648 708h12v12h-12zM660 720h12v12h-12zM672 732h12v12h-12zM696 756h12v12h-12zM708 768h12v12h-12zM720 780h12v12h-12zM732 792h12v12h-12zM744 804h12v12h-12zM756 816h12v12h-12zM768 828h12v12h-12zM780 840h12v12h-12zM792 852h12v12h-12zM804 864h12v12h-12zM816 876h12v12h-12zM828 888h12v12h-12zM840 900h12v12h-12zM840 888h12v12h-12zM840 876h12v12h-12zM840 864h12v12h-12zM840 852h12v12h-12zM828 840h12v12h-12zM816 828h12v12h-12zM804 816h12v12h-12zM792 804h12v12h-12zM780 792h12v12h-12zM756 768h12v12h-12zM744 756h12v12h-12zM720 732h12v12h-12zM708 720h12v12h-12zM696 708h12v12h-12zM684 696h12v12h-12zM672 684h12v12h-12zM660 672h12v12h-12zM648 660h12v12h-12zM636 648h12v12h-12zM624 636h12v12h-12zM612 624h12v12h-12zM600 612h12v12h-12zM588 600h12v12h-12zM576 588h12v12h-12zM564 576h12v12h-12zM552 564h12v12h-12zM540 552h12v12h-12zM540 540h12v12h-12zM540 528h12v12h-12zM540 516h12v12h-12zM540 492h12v12h-12zM540 480h12v12h-12zM540 456h12v12h-12zM540 444h12v12h-12zM540 432h12v12h-12zM540 420h12v12h-12zM540 408h12v12h-12zM540 396h12v12h-12zM540 384h12v12h-12zM540 372h12v12h-12zM540 360h12v12h-12zM540 336h12v12h-12zM540 324h12v12h-12zM540 312h12v12h-12zM540 300h12v12h-12zM540 288h12v12h-12zM540 276h12v12h-12zM540 264h12v12h-12zM552 264h12v12h-12zM564 264h12v12h-12zM576 264h12v12h-12zM588 264h12v12h-12zM600 264h12v12h-12zM624 276h12v12h-12zM624 288h12v12h-12zM624 300h12v12h-12zM624 312h12v12h-12zM624 324h12v12h-12zM624 336h12v12h-12zM624 348h12v12h-12zM624 360h12v12h-12zM624 372h12v12h-12zM624 384h12v12h-12zM624 396h12v12h-12zM624 408h12v12h-12zM624 432h12v12h-12zM624 444h12v12h-12zM624 456h12v12h-12zM624 240h12v12h-12zM624 228h12v12h-12zM624 216h12v12h-12zM624 204h12v12h-12zM624 192h12v12h-12zM624 180h12v12h-12zM624 168h12v12h-12zM624 156h12v12h-12zM636 168h12v12h-12zM648 180h12v12h-12zM660 192h12v12h-12zM684 216h12v12h-12zM696 228h12v12h-12zM708 240h12v12h-12zM720 252h12v12h-12zM732 264h12v12h-12zM744 276h12v12h-12zM768 300h12v12h-12zM768 288h12v12h-12zM768 264h12v12h-12zM768 252h12v12h-12zM768 240h12v12h-12zM768 228h12v12h-12zM768 216h12v12h-12zM768 204h12v12h-12zM768 192h12v12h-12zM768 180h12v12h-12zM768 168h12v12h-12zM768 156h12v12h-12zM768 144h12v12h-12zM768 132h12v12h-12zM768 108h12v12h-12zM768 96h12v12h-12zM768 84h12v12h-12zM768 72h12v12h-12zM768 60h12v12h-12zM768 48h12v12h-12zM768 36h12v12h-12zM756 36h12v12h-12zM744 36h12v12h-12zM732 36h12v12h-12zM720 36h12v12h-12zM720 48h12v12h-12zM720 60h12v12h-12zM720 84h12v12h-12zM720 96h12v12h-12zM720 108h12v12h-12zM720 120h12v12h-12zM720 132h12v12h-12zM720 144h12v12h-12zM720 168h12v12h-12zM720 180h12v12h-12zM720 192h12v12h-12zM720 204h12v12h-12zM732 192h12v12h-12zM744 180h12v12h-12zM780 144h12v12h-12zM792 132h12v12h-12zM804 120h12v12h-12zM816 108h12v12h-12zM828 96h12v12h-12zM840 84h12v12h-12zM852 72h12v12h-12zM864 60h12v12h-12zM876 48h12v12h-12zM888 36h12v12h-12zM900 24h12v12h-12zM912 12h12v12h-12zM780 180h12v12h-12zM792 180h12v12h-12zM792 168h12v12h-12zM792 156h12v12h-12zM792 120h12v12h-12zM792 108h12v12h-12zM792 96h12v12h-12zM792 84h12v12h-12zM792 72h12v12h-12zM792 60h12v12h-12zM792 48h12v12h-12zM792 36h12v12h-12z"/></svg>