<svg xmlns="http://www.w3.org/2000/svg" width="960" height="960" viewBox="0 0 960 960" shape-rendering="crispEdges"><path fill="#000" d="M0 0h960v960h-960z"/><path fill="#dfdcd8" d="M0 0h12v12h-12zM0 12h12v12h-12zM0 24h12v12h-12zM0 36h12v12h-12zM0 48h12v12h-12zM0 60h12v12h-12zM0 72h12v12h-12zM0 84h12v12h-12zM0 96h12v12h-12zM0 108h12v12h-12zM0 120h12v12h-12zM0 132h12v12h-12zM0 144h12v12h-12zM0 156h12v12h-12zM0 168h12v12h-12zM0 180h12v12h-12zM0 192h12v12h-12zM0 204h12v12h-12zM0 216h12v12h-12zM0 228h12v12h-12zM0 240h12v12h-12zM0 252h12v12h-12zM0 264h12v12h-12zM0 276h12v12h-12zM0 288h12v12h-12zM0 300h12v12h-12zM0 312h12v12h-12zM0 324h12v12h-12zM0 336h12v12h-12zM0 348h12v12h-12zM0 360h12v12h-12zM0 372h12v12h-12zM0 384h12v12h-12zM0 396h12v12h-12zM0 408h12v12h-12zM0 420h12v12h-12zM0 432h12v12h-12zM0 444h12v12h-12zM0 456h12v12h-12zM0 468h12v12h-12zM0 480h12v12h-12zM0 492h12v12h-12zM0 504h12v12h-12zM0 516h12v12h-12zM0 528h12v12h-12zM0 540h12v12h-12zM0 552h12v12h-12zM0 564h12v12h-12zM0 576h12v12h-12zM0 588h12v12h-12zM0 600h12v12h-12zM0 612h12v12h-12zM0 624h12v12h-12zM0 636h12v12h-12zM0 648h12v12h-12zM0 660h12v12h-12zM0 672h12v12h-12zM0 684h12v12h-12zM0 696h12v12h-12zM0 708h12v12h-12zM0 720h12v12h-12zM0 732h12v12h-12zM0 744h12v12h-12zM0 756h12v12h-12zM0 768h12v12h-12zM0 780h12v12h-12zM0 792h12v12h-12zM0 804h12v12h-12zM0 816h12v12h-12zM0 828h12v12h-12zM0 840h12v12h-12zM0 852h12v12h-12zM0 864h12v12h-12zM0 876h12v12h-12zM0 888h12v12h-12zM0 900h12v12h-12zM0 912h12v12h-12zM0 924h12v12h-12zM0 936h12v12h-12zM0 948h12v12h-12zM24 0h12v12h-12zM24 12h12v12h-12zM24 24h12v12h-12zM24 36h12v12h-12zM24 48h12v12h-12zM24 60h12v12h-12zM24 72h12v12h-12zM24 84h12v12h-12zM24 96h12v12h-12zM24 108h12v12h-12zM24 120h12v12h-12zM24 132h12v12h-12zM24 144h12v12h-12zM24 156h12v12h-12zM24 168h12v12h-12zM24 180h12v12h-12zM24 192h12v12h-12zM24 204h12v12h-12zM24 216h12v12h-12zM24 228h12v12h-12zM24 240h12v12h-12zM24 252h12v12h-12zM24 264h12v12h-12zM24 276h12v12h-12zM24 288h12v12h-12zM24 300h12v12h-12zM24 312h12v12h-12zM24 324h12v12h-12zM24 336h12v12h-12zM24 348h12v12h-12zM24 360h12v12h-12zM24 372h12v12h-12zM24 384h12v12h-12zM24 396h12v12h-12zM24 408h12v12h-12zM24 420h12v12h-12zM24 432h12v12h-12zM24 444h12v12h-12zM24 456h12v12h-12zM24 468h12v12h-12zM24 480h12v12h-12zM24 492h12v12h-12zM24 504h12v12h-12zM24 516h12v12h-12zM24 528h12v12h-12zM24 540h12v12h-12zM24 552h12v12h-12zM24 564h12v12h-12zM24 576h12v12h-12zM24 588h12v12h-12zM24 600h12v12h-12zM24 612h12v12h-12zM24 624h12v12h-12zM24 636h12v12h-12zM24 648h12v12h-12zM24 660h12v12h-12zM24 672h12v12h-12zM24 684h12v12h-12zM24 696h12v12h-12zM24 708h12v12h-12zM24 720h12v12h-12zM24 732h12v12h-12zM24 744h12v12h-12zM24 756h12v12h-12zM24 768h12v12h-12zM24 780h12v12h-12zM24 792h12v12h-12zM24 804h12v12h-12zM24 816h12v12h-12zM24 828h12v12h-12zM24 840h12v12h-12zM24 852h12v12h-12zM24 864h12v12h-12zM24 876h12v12h-12zM24 888h12v12h-12zM24 900h12v12h-12zM24 912h12v12h-12zM24 924h12v12h-12zM24 936h12v12h-12zM24 948h12v12h-12zM48 0h12v12h-12zM48 12h12v12h-12zM48 24h12v12h-12zM48 36h12v12h-12zM48 48h12v12h-12zM48 60h12v12h-12zM48 72h12v12h-12zM48 84h12v12h-12zM48 96h12v12h-12zM48 108h12v12h-12zM48 120h12v12h-12zM48 132h12v12h-12zM48 144h12v12h-12zM48 156h12v12h-12zM48 168h12v12h-12zM48 180h12v12h-12zM48 192h12v12h-12zM48 204h12v12h-12zM48 216h12v12h-12zM48 228h12v12h-12zM48 240h12v12h-12zM48 252h12v12h-12zM48 264h12v12h-12zM48 276h12v12h-12zM48 288h12v12h-12zM48 300h12v12h-12zM48 312h12v12h-12zM48 324h12v12h-12zM48 336h12v12h-12zM48 348h12v12h-12zM48 360h12v12h-12zM48 372h12v12h-12zM48 384h12v12h-12zM48 396h12v12h-12zM48 408h12v12h-12zM48 420h12v12h-12zM48 432h12v12h-12zM48 444h12v12h-12zM48 456h12v12h-12zM48 468h12v12h-12zM48 480h12v12h-12zM48 492h12v12h-12zM48 504h12v12h-12zM48 516h12v12h-12zM48 528h12v12h-12zM48 540h12v12h-12zM48 552h12v12h-12zM48 564h12v12h-12zM48 576h12v12h-12zM48 588h12v12h-12zM48 600h12v12h-12zM48 612h12v12h-12zM48 624h12v12h-12zM48 636h12v12h-12zM48 648h12v12h-12zM48 660h12v12h-12zM48 672h12v12h-12zM48 684h12v12h-12zM48 696h12v12h-12zM48 708h12v12h-12zM48 720h12v12h-12zM48 732h12v12h-12zM48 744h12v12h-12zM48 756h12v12h-12zM48 768h12v12h-12zM48 780h12v12h-12zM48 792h12v12h-12zM48 804h12v12h-12zM48 816h12v12h-12zM48 828h12v12h-12zM48 840h12v12h-12zM48 852h12v12h-12zM48 864h12v12h-12zM48 876h12v12h-12zM48 888h12v12h-12zM48 900h12v12h-12zM48 912h12v12h-12zM48 924h12v12h-12zM48 936h12v12h-12zM48 948h12v12h-12zM72 0h12v12h-12zM72 12h12v12h-12zM72 24h12v12h-12zM72 36h12v12h-12zM72 48h12v12h-12zM72 60h12v12h-12zM72 72h12v12h-12zM72 84h12v12h-12zM72 96h12v12h-12zM72 108h12v12h-12zM72 120h12v12h-12zM72 132h12v12h-12zM72 144h12v12h-12zM72 156h12v12h-12zM72 168h12v12h-12zM72 180h12v12h-12zM72 192h12v12h-12zM72 204h12v12h-12zM72 216h12v12h-12zM72 228h12v12h-12zM72 240h12v12h-12zM72 252h12v12h-12zM72 264h12v12h-12zM72 276h12v12h-12zM72 288h12v12h-12zM72 300h12v12h-12zM72 312h12v12h-12zM72 324h12v12h-12zM72 336h12v12h-12zM72 348h12v12h-12zM72 360h12v12h-12zM72 372h12v12h-12zM72 384h12v12h-12zM72 396h12v12h-12zM72 408h12v12h-12zM72 420h12v12h-12zM72 432h12v12h-12zM72 444h12v12h-12zM72 456h12v12h-12zM72 468h12v12h-12zM72 480h12v12h-12zM72 492h12v12h-12zM72 504h12v12h-12zM72 516h12v12h-12zM72 528h12v12h-12zM72 540h12v12h-12zM72 552h12v12h-12zM72 564h12v12h-12zM72 576h12v12h-12zM72 588h12v12h-12zM72 600h12v12h-12zM72 612h12v12h-12zM72 624h12v12h-12zM72 636h12v12h-12zM72 648h12v12h-12zM72 660h12v12h-12zM72 672h12v12h-12zM72 684h12v12h-12zM72 696h12v12h-12zM72 708h12v12h-12zM72 720h12v12h-12zM72 732h12v12h-12zM72 744h12v12h-12zM72 756h12v12h-12zM72 768h12v12h-12zM72 780h12v12h-12zM72 792h12v12h-12zM72 804h12v12h-12zM72 816h12v12h-12zM72 828h12v12h-12zM72 840h12v12h-12zM72 852h12v12h-12zM72 864h12v12h-12zM72 876h12v12h-12zM72 888h12v12h-12zM72 900h12v12h-12zM72 912h12v12h-12zM72 924h12v12h-12zM72 936h12v12h-12zM72 948h12v12h-12zM96 0h12v12h-12zM96 12h12v12h-12zM96 24h12v12h-12zM96 36h12v12h-12zM96 48h12v12h-12zM96 60h12v12h-12zM96 72h12v12h-12zM96 84h12v12h-12zM96 96h12v12h-12zM96 108h12v12h-12zM96 120h12v12h-12zM96 132h12v12h-12zM96 144h12v12h-12zM96 156h12v12h-12zM96 168h12v12h-12zM96 180h12v12h-12zM96 192h12v12h-12zM96 204h12v12h-12zM96 216h12v12h-12zM96 228h12v12h-12zM96 240h12v12h-12zM96 252h12v12h-12zM96 264h12v12h-12zM96 276h12v12h-12zM96 288h12v12h-12zM96 300h12v12h-12zM96 312h12v12h-12zM96 324h12v12h-12zM96 336h12v12h-12zM96 348h12v12h-12zM96 360h12v12h-12zM96 372h12v12h-12zM96 384h12v12h-12zM96 396h12v12h-12zM96 408h12v12h-12zM96 420h12v12h-12zM96 432h12v12h-12zM96 444h12v12h-12zM96 456h12v12h-12zM96 468h12v12h-12zM96 480h12v12h-12zM96 492h12v12h-12zM96 504h12v12h-12zM96 516h12v12h-12zM96 528h12v12h-12zM96 540h12v12h-12zM96 552h12v12h-12zM96 564h12v12h-12zM96 576h12v12h-12zM96 588h12v12h-12zM96 600h12v12h-12zM96 612h12v12h-12zM96 624h12v12h-12zM96 636h12v12h-12zM96 648h12v12h-12zM96 660h12v12h-12zM96 672h12v12h-12zM96 684h12v12h-12zM96 696h12v12h-12zM96 708h12v12h-12zM96 720h12v12h-12zM96 732h12v12h-12zM96 744h12v12h-12zM96 756h12v12h-12zM96 768h12v12h-12zM96 780h12v12h-12zM96 792h12v12h-12zM96 804h12v12h-12zM96 816h12v12h-12zM96 828h12v12h-12zM96 840h12v12h-12zM96 852h12v12h-12zM96 864h12v12h-12zM96 876h12v12h-12zM96 888h12v12h-12zM96 900h12v12h-12zM96 912h12v12h-12zM96 924h12v12h-12zM96 936h12v12h-12zM96 948h12v12h-12zM120 0h12v12h-12zM120 12h12v12h-12zM120 24h12v12h-12zM120 36h12v12h-12zM120 48h12v12h-12zM120 60h12v12h-12zM120 72h12v12h-12zM120 84h12v12h-12zM120 96h12v12h-12zM120 108h12v12h-12zM120 120h12v12h-12zM120 132h12v12h-12zM120 144h12v12h-12zM120 156h12v12h-12zM120 168h12v12h-12zM120 180h12v12h-12zM120 192h12v12h-12zM120 204h12v12h-12zM120 216h12v12h-12zM120 228h12v12h-12zM120 240h12v12h-12zM120 252h12v12h-12zM120 264h12v12h-12zM120 276h12v12h-12zM120 288h12v12h-12zM120 300h12v12h-12zM120 312h12v12h-12zM120 324h12v12h-12zM120 336h12v12h-12zM120 348h12v12h-12zM120 360h12v12h-12zM120 372h12v12h-12zM120 384h12v12h-12zM120 396h12v12h-12zM120 408h12v12h-12zM120 420h12v12h-12zM120 432h12v12h-12zM120 444h12v12h-12zM120 456h12v12h-12zM120 468h12v12h-12zM120 480h12v12h-12zM120 492h12v12h-12zM120 504h12v12h-12zM120 516h12v12h-12zM120 528h12v12h-12zM120 540h12v12h-12zM120 552h12v12h-12zM120 564h12v12h-12zM120 576h12v12h-12zM120 588h12v12h-12zM120 600h12v12h-12zM120 612h12v12h-12zM120 624h12v12h-12zM120 636h12v12h-12zM120 648h12v12h-12zM120 660h12v12h-12zM120 672h12v12h-12zM120 684h12v12h-12zM120 696h12v12h-12zM120 708h12v12h-12zM120 720h12v12h-12zM120 732h12v12h-12zM120 744h12v12h-12zM120 756h12v12h-12zM120 768h12v12h-12zM120 780h12v12h-12zM120 792h12v12h-12zM120 804h12v12h-12zM120 816h12v12h-12zM120 828h12v12h-12zM120 840h12v12h-12zM120 852h12v12h-12zM120 864h12v12h-12zM120 876h12v12h-12zM120 888h12v12h-12zM120 900h12v12h-12zM120 912h12v12h-12zM120 924h12v12h-12zM120 936h12v12h-12zM120 948h12v12h-12zM144 0h12v12h-12zM144 12h12v12h-12zM144 24h12v12h-12zM144 36h12v12h-12zM144 48h12v12h-12zM144 60h12v12h-12zM144 72h12v12h-12zM144 84h12v12h-12zM144 96h12v12h-12zM144 108h12v12h-12zM144 120h12v12h-12zM144 132h12v12h-12zM144 144h12v12h-12zM144 156h12v12h-12zM144 168h12v12h-12zM144 180h12v12h-12zM144 192h12v12h-12zM144 204h12v12h-12zM144 216h12v12h-12zM144 228h12v12h-12zM144 240h12v12h-12zM144 252h12v12h-12zM144 264h12v12h-12zM144 276h12v12h-12zM144 288h12v12h-12zM144 300h12v12h-12zM144 312h12v12h-12zM144 324h12v12h-12zM144 336h12v12h-12zM144 348h12v12h-12zM144 360h12v12h-12zM144 372h12v12h-12zM144 384h12v12h-12zM144 396h12v12h-12zM144 408h12v12h-12zM144 420h12v12h-12zM144 432h12v12h-12zM144 444h12v12h-12zM144 456h12v12h-12zM144 468h12v12h-12zM144 480h12v12h-12zM144 492h12v12h-12zM144 504h12v12h-12zM144 516h12v12h-12zM144 528h12v12h-12zM144 540h12v12h-12zM144 552h12v12h-12zM144 564h12v12h-12zM144 576h12v12h-12zM144 588h12v12h-12zM144 600h12v12h-12zM144 612h12v12h-12zM144 624h12v12h-12zM144 636h12v12h-12zM144 648h12v12h-12zM144 660h12v12h-12zM144 672h12v12h-12zM144 684h12v12h-12zM144 696h12v12h-12zM144 708h12v12h-12zM144 720h12v12h-12zM144 732h12v12h-12zM144 744h12v12h-12zM144 756h12v12h-12zM144 768h12v12h-12zM144 780h12v12h-12zM144 792h12v12h-12zM144 804h12v12h-12zM144 816h12v12h-12zM144 828h12v12h-12zM144 840h12v12h-12zM144 852h12v12h-12zM144 864h12v12h-12zM144 876h12v12h-12zM144 888h12v12h-12zM144 900h12v12h-12zM144 912h12v12h-12zM144 924h12v12h-12zM144 936h12v12h-12zM144 948h12v12h-12zM168 0h12v12h-12zM168 12h12v12h-12zM168 24h12v12h-12zM168 36h12v12h-12zM168 48h12v12h-12zM168 60h12v12h-12zM168 72h12v12h-12zM168 84h12v12h-12zM168 96h12v12h-12zM168 108h12v12h-12zM168 120h12v12h-12zM168 132h12v12h-12zM168 144h12v12h-12zM168 156h12v12h-12zM168 168h12v12h-12zM168 180h12v12h-12zM168 192h12v12h-12zM168 204h12v12h-12zM168 216h12v12h-12zM168 228h12v12h-12zM168 240h12v12h-12zM168 252h12v12h-12zM168 264h12v12h-12zM168 276h12v12h-12zM168 288h12v12h-12zM168 300h12v12h-12zM168 312h12v12h-12zM168 324h12v12h-12zM168 336h12v12h-12zM168 348h12v12h-12zM168 360h12v12h-12zM168 372h12v12h-12zM168 384h12v12h-12zM168 396h12v12h-12zM168 408h12v12h-12zM168 420h12v12h-12zM168 432h12v12h-12zM168 444h12v12h-12zM168 456h12v12h-12zM168 468h12v12h-12zM168 480h12v12h-12zM168 492h12v12h-12zM168 504h12v12h-12zM168 516h12v12h-12zM168 528h12v12h-12zM168 540h12v12h-12zM168 552h12v12h-12zM168 564h12v12h-12zM168 576h12v12h-12zM168 588h12v12h-12zM168 600h12v12h-12zM168 612h12v12h-12zM168 624h12v12h-12zM168 636h12v12h-12zM168 648h12v12h-12zM168 660h12v12h-12zM168 672h12v12h-12zM168 684h12v12h-12zM168 696h12v12h-12zM168 708h12v12h-12zM168 720h12v12h-12zM168 732h12v12h-12zM168 744h12v12h-12zM168 756h12v12h-12zM168 768h12v12h-12zM168 780h12v12h-12zM168 792h12v12h-12zM168 804h12v12h-12zM168 816h12v12h-12zM168 828h12v12h-12zM168 840h12v12h-12zM168 852h12v12h-12zM168 864h12v12h-12zM168 876h12v12h-12zM168 888h12v12h-12zM168 900h12v12h-12zM168 912h12v12h-12zM168 924h12v12h-12zM168 936h12v12h-12zM168 948h12v12h-12zM192 0h12v12h-12zM192 12h12v12h-12zM192 24h12v12h-12zM192 36h12v12h-12zM192 48h12v12h-12zM192 60h12v12h-12zM192 72h12v12h-12zM192 84h12v12h-12zM192 96h12v12h-12zM192 108h12v12h-12zM192 120h12v12h-12zM192 132h12v12h-12zM192 144h12v12h-12zM192 156h12v12h-12zM192 168h12v12h-12zM192 180h12v12h-12zM192 192h12v12h-12zM192 204h12v12h-12zM192 216h12v12h-12zM192 228h12v12h-12zM192 240h12v12h-12zM192 252h12v12h-12zM192 264h12v12h-12zM192 276h12v12h-12zM192 288h12v12h-12zM192 300h12v12h-12zM192 312h12v12h-12zM192 324h12v12h-12zM192 336h12v12h-12zM192 348h12v12h-12zM192 360h12v12h-12zM192 372h12v12h-12zM192 384h12v12h-12zM192 396h12v12h-12zM192 408h12v12h-12zM192 420h12v12h-12zM192 432h12v12h-12zM192 444h12v12h-12zM192 456h12v12h-12zM192 468h12v12h-12zM192 480h12v12h-12zM192 492h12v12h-12zM192 504h12v12h-12zM192 516h12v12h-12zM192 528h12v12h-12zM192 540h12v12h-12zM192 552h12v12h-12zM192 564h12v12h-12zM192 576h12v12h-12zM192 588h12v12h-12zM192 600h12v12h-12zM192 612h12v12h-12zM192 624h12v12h-12zM192 636h12v12h-12zM192 648h12v12h-12zM192 660h12v12h-12zM192 672h12v12h-12zM192 684h12v12h-12zM192 696h12v12h-12zM192 708h12v12h-12zM192 720h12v12h-12zM192 732h12v12h-12zM192 744h12v12h-12zM192 756h12v12h-12zM192 768h12v12h-12zM192 780h12v12h-12zM192 792h12v12h-12zM192 804h12v12h-12zM192 816h12v12h-12zM192 828h12v12h-12zM192 840h12v12h-12zM192 852h12v12h-12zM192 864h12v12h-12zM192 876h12v12h-12zM192 888h12v12h-12zM192 900h12v12h-12zM192 912h12v12h-12zM192 924h12v12h-12zM192 936h12v12h-12zM192 948h12v12h-12zM216 0h12v12h-12zM216 12h12v12h-12zM216 24h12v12h-12zM216 36h12v12h-12zM216 48h12v12h-12zM216 60h12v12h-12zM216 72h12v12h-12zM216 84h12v12h-12zM216 96h12v12h-12zM216 108h12v12h-12zM216 120h12v12h-12zM216 132h12v12h-12zM216 144h12v12h-12zM216 156h12v12h-12zM216 168h12v12h-12zM216 180h12v12h-12zM216 192h12v12h-12zM216 204h12v12h-12zM216 216h12v12h-12zM216 228h12v12h-12zM216 240h12v12h-12zM216 252h12v12h-12zM216 264h12v12h-12zM216 276h12v12h-12zM216 288h12v12h-12zM216 300h12v12h-12zM216 312h12v12h-12zM216 324h12v12h-12zM216 336h12v12h-12zM216 348h12v12h-12zM216 360h12v12h-12zM216 372h12v12h-12zM216 384h12v12h-12zM216 396h12v12h-12zM216 408h12v12h-12zM216 420h12v12h-12zM216 432h12v12h-12zM216 444h12v12h-12zM216 456h12v12h-12zM216 468h12v12h-12zM216 480h12v12h-12zM216 492h12v12h-12zM216 504h12v12h-12zM216 516h12v12h-12zM216 528h12v12h-12zM216 540h12v12h-12zM216 552h12v12h-12zM216 564h12v12h-12zM216 576h12v12h-12zM216 588h12v12h-12zM216 600h12v12h-12zM216 612h12v12h-12zM216 624h12v12h-12zM216 636h12v12h-12zM216 648h12v12h-12zM216 660h12v12h-12zM216 672h12v12h-12zM216 684h12v12h-12zM216 696h12v12h-12zM216 708h12v12h-12zM216 720h12v12h-12zM216 732h12v12h-12zM216 744h12v12h-12zM216 756h12v12h-12zM216 768h12v12h-12zM216 780h12v12h-12zM216 792h12v12h-12zM216 804h12v12h-12zM216 816h12v12h-12zM216 828h12v12h-12zM216 840h12v12h-12zM216 852h12v12h-12zM216 864h12v12h-12zM216 876h12v12h-12zM216 888h12v12h-12zM216 900h12v12h-12zM216 912h12v12h-12zM216 924h12v12h-12zM216 936h12v12h-12zM216 948h12v12h-12zM240 0h12v12h-12zM240 12h12v12h-12zM240 24h12v12h-12zM240 36h12v12h-12zM240 48h12v12h-12zM240 60h12v12h-12zM240 72h12v12h-12zM240 84h12v12h-12zM240 96h12v12h-12zM240 108h12v12h-12zM240 120h12v12h-12zM240 132h12v12h-12zM240 144h12v12h-12zM240 156h12v12h-12zM240 168h12v12h-12zM240 180h12v12h-12zM240 192h12v12h-12zM240 204h12v12h-12zM240 216h12v12h-12zM240 228h12v12h-12zM240 240h12v12h-12zM240 252h12v12h-12zM240 264h12v12h-12zM240 276h12v12h-12zM240 288h12v12h-12zM240 300h12v12h-12zM240 312h12v12h-12zM240 324h12v12h-12zM240 336h12v12h-12zM240 348h12v12h-12zM240 360h12v12h-12zM240 372h12v12h-12zM240 384h12v12h-12zM240 396h12v12h-12zM240 408h12v12h-12zM240 420h12v12h-12zM240 432h12v12h-12zM240 444h12v12h-12zM240 456h12v12h-12zM240 468h12v12h-12zM240 480h12v12h-12zM240 492h12v12h-12zM240 504h12v12h-12zM240 516h12v12h-12zM240 528h12v12h-12zM240 540h12v12h-12zM240 552h12v12h-12zM240 564h12v12h-12zM240 576h12v12h-12zM240 588h12v12h-12zM240 600h12v12h-12zM240 612h12v12h-12zM240 624h12v12h-12zM240 636h12v12h-12zM240 648h12v12h-12zM240 660h12v12h-12zM240 672h12v12h-12zM240 684h12v12h-12zM240 696h12v12h-12zM240 708h12v12h-12zM240 720h12v12h-12zM240 732h12v12h-12zM240 744h12v12h-12zM240 756h12v12h-12zM240 768h12v12h-12zM240 780h12v12h-12zM240 792h12v12h-12zM240 804h12v12h-12zM240 816h12v12h-12zM240 828h12v12h-12zM240 840h12v12h-12zM240 852h12v12h-12zM240 864h12v12h-12zM240 876h12v12h-12zM240 888h12v12h-12zM240 900h12v12h-12zM240 912h12v12h-12zM240 924h12v12h-12zM240 936h12v12h-12zM240 948h12v12h-12zM264 0h12v12h-12zM264 12h12v12h-12zM264 24h12v12h-12zM264 36h12v12h-12zM264 48h12v12h-12zM264 60h12v12h-12zM264 72h12v12h-12zM264 84h12v12h-12zM264 96h12v12h-12zM264 108h12v12h-12zM264 120h12v12h-12zM264 132h12v12h-12zM264 144h12v12h-12zM264 156h12v12h-12zM264 168h12v12h-12zM264 180h12v12h-12zM264 192h12v12h-12zM264 204h12v12h-12zM264 216h12v12h-12zM264 228h12v12h-12zM264 240h12v12h-12zM264 252h12v12h-12zM264 264h12v12h-12zM264 276h12v12h-12zM264 288h12v12h-12zM264 300h12v12h-12zM264 312h12v12h-12zM264 324h12v12h-12zM264 336h12v12h-12zM264 348h12v12h-12zM264 360h12v12h-12zM264 372h12v12h-12zM264 384h12v12h-12zM264 396h12v12h-12zM264 408h12v12h-12zM264 420h12v12h-12zM264 432h12v12h-12zM264 444h12v12h-12zM264 456h12v12h-12zM264 468h12v12h-12zM264 480h12v12h-12zM264 492h12v12h-12zM264 504h12v12h-12zM264 516h12v12h-12zM264 528h12v12h-12zM264 540h12v12h-12zM264 552h12v12h-12zM264 564h12v12h-12zM264 576h12v12h-12zM264 588h12v12h-12zM264 600h12v12h-12zM264 612h12v12h-12zM264 624h12v12h-12zM264 636h12v12h-12zM264 648h12v12h-12zM264 660h12v12h-12zM264 672h12v12h-12zM264 684h12v12h-12zM264 696h12v12h-12zM264 708h12v12h-12zM264 720h12v12h-12zM264 732h12v12h-12zM264 744h12v12h-12zM264 756h12v12h-12zM264 768h12v12h-12zM264 780h12v12h-12zM264 792h12v12h-12zM264 804h12v12h-12zM264 816h12v12h-12zM264 828h12v12h-12zM264 840h12v12h-12zM264 852h12v12h-12zM264 864h12v12h-12zM264 876h12v12h-12zM264 888h12v12h-12zM264 900h12v12h-12zM264 912h12v12h-12zM264 924h12v12h-12zM264 936h12v12h-12zM264 948h12v12h-12zM288 0h12v12h-12zM288 12h12v12h-12zM288 24h12v12h-12zM288 36h12v12h-12zM288 48h12v12h-12zM288 60h12v12h-12zM288 72h12v12h-12zM288 84h12v12h-12zM288 96h12v12h-12zM288 108h12v12h-12zM288 120h12v12h-12zM288 132h12v12h-12zM288 144h12v12h-12zM288 156h12v12h-12zM288 168h12v12h-12zM288 180h12v12h-12zM288 192h12v12h-12zM288 204h12v12h-12zM288 216h12v12h-12zM288 228h12v12h-12zM288 240h12v12h-12zM288 252h12v12h-12zM288 264h12v12h-12zM288 276h12v12h-12zM288 288h12v12h-12zM288 300h12v12h-12zM288 312h12v12h-12zM288 324h12v12h-12zM288 336h12v12h-12zM288 348h12v12h-12zM288 360h12v12h-12zM288 372h12v12h-12zM288 384h12v12h-12zM288 396h12v12h-12zM288 408h12v12h-12zM288 420h12v12h-12zM288 432h12v12h-12zM288 444h12v12h-12zM288 456h12v12h-12zM288 468h12v12h-12zM288 480h12v12h-12zM288 492h12v12h-12zM288 504h12v12h-12zM288 516h12v12h-12zM288 528h12v12h-12zM288 540h12v12h-12zM288 552h12v12h-12zM288 564h12v12h-12zM288 576h12v12h-12zM288 588h12v12h-12zM288 600h12v12h-12zM288 612h12v12h-12zM288 624h12v12h-12zM288 636h12v12h-12zM288 648h12v12h-12zM288 660h12v12h-12zM288 672h12v12h-12zM288 684h12v12h-12zM288 696h12v12h-12zM288 708h12v12h-12zM288 720h12v12h-12zM288 732h12v12h-12zM288 744h12v12h-12zM288 756h12v12h-12zM288 768h12v12h-12zM288 780h12v12h-12zM288 792h12v12h-12zM288 804h12v12h-12zM288 816h12v12h-12zM288 828h12v12h-12zM288 840h12v12h-12zM288 852h12v12h-12zM288 864h12v12h-12zM288 876h12v12h-12zM288 888h12v12h-12zM288 900h12v12h-12zM288 912h12v12h-12zM288 924h12v12h-12zM288 936h12v12h-12zM288 948h12v12h-12zM312 0h12v12h-12zM312 12h12v12h-12zM312 24h12v12h-12zM312 36h12v12h-12zM312 48h12v12h-12zM312 60h12v12h-12zM312 72h12v12h-12zM312 84h12v12h-12zM312 96h12v12h-12zM312 108h12v12h-12zM312 120h12v12h-12zM312 132h12v12h-12zM312 144h12v12h-12zM312 156h12v12h-12zM312 168h12v12h-12zM312 180h12v12h-12zM312 192h12v12h-12zM312 204h12v12h-12zM312 216h12v12h-12zM312 228h12v12h-12zM312 240h12v12h-12zM312 252h12v12h-12zM312 264h12v12h-12zM312 276h12v12h-12zM312 288h12v12h-12zM312 300h12v12h-12zM312 312h12v12h-12zM312 324h12v12h-12zM312 336h12v12h-12zM312 348h12v12h-12zM312 360h12v12h-12zM312 372h12v12h-12zM312 384h12v12h-12zM312 396h12v12h-12zM312 408h12v12h-12zM312 420h12v12h-12zM312 432h12v12h-12zM312 444h12v12h-12zM312 456h12v12h-12zM312 468h12v12h-12zM312 480h12v12h-12zM312 492h12v12h-12zM312 504h12v12h-12zM312 516h12v12h-12zM312 528h12v12h-12zM312 540h12v12h-12zM312 552h12v12h-12zM312 564h12v12h-12zM312 576h12v12h-12zM312 588h12v12h-12zM312 600h12v12h-12zM312 612h12v12h-12zM312 624h12v12h-12zM312 636h12v12h-12zM312 648h12v12h-12zM312 660h12v12h-12zM312 672h12v12h-12zM312 684h12v12h-12zM312 696h12v12h-12zM312 708h12v12h-12zM312 720h12v12h-12zM312 732h12v12h-12zM312 744h12v12h-12zM312 756h12v12h-12zM312 768h12v12h-12zM312 780h12v12h-12zM312 792h12v12h-12zM312 804h12v12h-12zM312 816h12v12h-12zM312 828h12v12h-12zM312 840h12v12h-12zM312 852h12v12h-12zM312 864h12v12h-12zM312 876h12v12h-12zM312 888h12v12h-12zM312 900h12v12h-12zM312 912h12v12h-12zM312 924h12v12h-12zM312 936h12v12h-12zM312 948h12v12h-12zM336 0h12v12h-12zM336 12h12v12h-12zM336 24h12v12h-12zM336 36h12v12h-12zM336 48h12v12h-12zM336 60h12v12h-12zM336 72h12v12h-12zM336 84h12v12h-12zM336 96h12v12h-12zM336 108h12v12h-12zM336 120h12v12h-12zM336 132h12v12h-12zM336 144h12v12h-12zM336 156h12v12h-12zM336 168h12v12h-12zM336 180h12v12h-12zM336 192h12v12h-12zM336 204h12v12h-12zM336 216h12v12h-12zM336 228h12v12h-12zM336 240h12v12h-12zM336 252h12v12h-12zM336 264h12v12h-12zM336 276h12v12h-12zM336 288h12v12h-12zM336 300h12v12h-12zM336 312h12v12h-12zM336 324h12v12h-12zM336 336h12v12h-12zM336 348h12v12h-12zM336 360h12v12h-12zM336 372h12v12h-12zM336 384h12v12h-12zM336 396h12v12h-12zM336 408h12v12h-12zM336 420h12v12h-12zM336 432h12v12h-12zM336 444h12v12h-12zM336 456h12v12h-12zM336 468h12v12h-12zM336 480h12v12h-12zM336 492h12v12h-12zM336 504h12v12h-12zM336 516h12v12h-12zM336 528h12v12h-12zM336 540h12v12h-12zM336 552h12v12h-12zM336 564h12v12h-12zM336 576h12v12h-12zM336 588h12v12h-12zM336 600h12v12h-12zM336 612h12v12h-12zM336 624h12v12h-12zM336 636h12v12h-12zM336 648h12v12h-12zM336 660h12v12h-12zM336 672h12v12h-12zM336 684h12v12h-12zM336 696h12v12h-12zM336 708h12v12h-12zM336 720h12v12h-12zM336 732h12v12h-12zM336 744h12v12h-12zM336 756h12v12h-12zM336 768h12v12h-12zM336 780h12v12h-12zM336 792h12v12h-12zM336 804h12v12h-12zM336 816h12v12h-12zM336 828h12v12h-12zM336 840h12v12h-12zM336 852h12v12h-12zM336 864h12v12h-12zM336 876h12v12h-12zM336 888h12v12h-12zM336 900h12v12h-12zM336 912h12v12h-12zM336 924h12v12h-12zM336 936h12v12h-12zM336 948h12v12h-12zM360 0h12v12h-12zM360 12h12v12h-12zM360 24h12v12h-12zM360 36h12v12h-12zM360 48h12v12h-12zM360 60h12v12h-12zM360 72h12v12h-12zM360 84h12v12h-12zM360 96h12v12h-12zM360 108h12v12h-12zM360 120h12v12h-12zM360 132h12v12h-12zM360 144h12v12h-12zM360 156h12v12h-12zM360 168h12v12h-12zM360 180h12v12h-12zM360 192h12v12h-12zM360 204h12v12h-12zM360 216h12v12h-12zM360 228h12v12h-12zM360 240h12v12h-12zM360 252h12v12h-12zM360 264h12v12h-12zM360 276h12v12h-12zM360 288h12v12h-12zM360 300h12v12h-12zM360 312h12v12h-12zM360 324h12v12h-12zM360 336h12v12h-12zM360 348h12v12h-12zM360 360h12v12h-12zM360 372h12v12h-12zM360 384h12v12h-12zM360 396h12v12h-12zM360 408h12v12h-12zM360 420h12v12h-12zM360 432h12v12h-12zM360 444h12v12h-12zM360 456h12v12h-12zM360 468h12v12h-12zM360 480h12v12h-12zM360 492h12v12h-12zM360 504h12v12h-12zM360 516h12v12h-12zM360 528h12v12h-12zM360 540h12v12h-12zM360 552h12v12h-12zM360 564h12v12h-12zM360 576h12v12h-12zM360 588h12v12h-12zM360 600h12v12h-12zM360 612h12v12h-12zM360 624h12v12h-12zM360 636h12v12h-12zM360 648h12v12h-12zM360 660h12v12h-12zM360 672h12v12h-12zM360 684h12v12h-12zM360 696h12v12h-12zM360 708h12v12h-12zM360 720h12v12h-12zM360 732h12v12h-12zM360 744h12v12h-12zM360 756h12v12h-12zM360 768h12v12h-12zM360 780h12v12h-12zM360 792h12v12h-12zM360 804h12v12h-12zM360 816h12v12h-12zM360 828h12v12h-12zM360 840h12v12h-12zM360 852h12v12h-12zM360 864h12v12h-12zM360 876h12v12h-12zM360 888h12v12h-12zM360 900h12v12h-12zM360 912h12v12h-12zM360 924h12v12h-12zM360 936h12v12h-12zM360 948h12v12h-12zM384 0h12v12h-12zM384 12h12v12h-12zM384 24h12v12h-12zM384 36h12v12h-12zM384 48h12v12h-12zM384 60h12v12h-12zM384 72h12v12h-12zM384 84h12v12h-12zM384 96h12v12h-12zM384 108h12v12h-12zM384 120h12v12h-12zM384 132h12v12h-12zM384 144h12v12h-12zM384 156h12v12h-12zM384 168h12v12h-12zM384 180h12v12h-12zM384 192h12v12h-12zM384 204h12v12h-12zM384 216h12v12h-12zM384 228h12v12h-12zM384 240h12v12h-12zM384 252h12v12h-12zM384 264h12v12h-12zM384 276h12v12h-12zM384 288h12v12h-12zM384 300h12v12h-12zM384 312h12v12h-12zM384 324h12v12h-12zM384 336h12v12h-12zM384 348h12v12h-12zM384 360h12v12h-12zM384 372h12v12h-12zM384 384h12v12h-12zM384 396h12v12h-12zM384 408h12v12h-12zM384 420h12v12h-12zM384 432h12v12h-12zM384 444h12v12h-12zM384 456h12v12h-12zM384 468h12v12h-12zM384 480h12v12h-12zM384 492h12v12h-12zM384 504h12v12h-12zM384 516h12v12h-12zM384 528h12v12h-12zM384 540h12v12h-12zM384 552h12v12h-12zM384 564h12v12h-12zM384 576h12v12h-12zM384 588h12v12h-12zM384 600h12v12h-12zM384 612h12v12h-12zM384 624h12v12h-12zM384 636h12v12h-12zM384 648h12v12h-12zM384 660h12v12h-12zM384 672h12v12h-12zM384 684h12v12h-12zM384 696h12v12h-12zM384 708h12v12h-12zM384 720h12v12h-12zM384 732h12v12h-12zM384 744h12v12h-12zM384 756h12v12h-12zM384 768h12v12h-12zM384 780h12v12h-12zM384 792h12v12h-12zM384 804h12v12h-12zM384 816h12v12h-12zM384 828h12v12h-12zM384 840h12v12h-12zM384 852h12v12h-12zM384 864h12v12h-12zM384 876h12v12h-12zM384 888h12v12h-12zM384 900h12v12h-12zM384 912h12v12h-12zM384 924h12v12h-12zM384 936h12v12h-12zM384 948h12v12h-12zM408 0h12v12h-12zM408 12h12v12h-12zM408 24h12v12h-12zM408 36h12v12h-12zM408 48h12v12h-12zM408 60h12v12h-12zM408 72h12v12h-12zM408 84h12v12h-12zM408 96h12v12h-12zM408 108h12v12h-12zM408 120h12v12h-12zM408 132h12v12h-12zM408 144h12v12h-12zM408 156h12v12h-12zM408 168h12v12h-12zM408 180h12v12h-12zM408 192h12v12h-12zM408 204h12v12h-12zM408 216h12v12h-12zM408 228h12v12h-12zM408 240h12v12h-12zM408 252h12v12h-12zM408 264h12v12h-12zM408 276h12v12h-12zM408 288h12v12h-12zM408 300h12v12h-12zM408 312h12v12h-12zM408 324h12v12h-12zM408 336h12v12h-12zM408 348h12v12h-12zM408 360h12v12h-12zM408 372h12v12h-12zM408 384h12v12h-12zM408 396h12v12h-12zM408 408h12v12h-12zM408 420h12v12h-12zM408 432h12v12h-12zM408 444h12v12h-12zM408 456h12v12h-12zM408 468h12v12h-12zM408 480h12v12h-12zM408 492h12v12h-12zM408 504h12v12h-12zM408 516h12v12h-12zM408 528h12v12h-12zM408 540h12v12h-12zM408 552h12v12h-12zM408 564h12v12h-12zM408 576h12v12h-12zM408 588h12v12h-12zM408 600h12v12h-12zM408 612h12v12h-12zM408 624h12v12h-12zM408 636h12v12h-12zM408 648h12v12h-12zM408 660h12v12h-12zM408 672h12v12h-12zM408 684h12v12h-12zM408 696h12v12h-12zM408 708h12v12h-12zM408 720h12v12h-12zM408 732h12v12h-12zM408 744h12v12h-12zM408 756h12v12h-12zM408 768h12v12h-12zM408 780h12v12h-12zM408 792h12v12h-12zM408 804h12v12h-12zM408 816h12v12h-12zM408 828h12v12h-12zM408 840h12v12h-12zM408 852h12v12h-12zM408 864h12v12h-12zM408 876h12v12h-12zM408 888h12v12h-12zM408 900h12v12h-12zM408 912h12v12h-12zM408 924h12v12h-12zM408 936h12v12h-12zM408 948h12v12h-12zM432 0h12v12h-12zM432 12h12v12h-12zM432 24h12v12h-12zM432 36h12v12h-12zM432 48h12v12h-12zM432 60h12v12h-12zM432 72h12v12h-12zM432 84h12v12h-12zM432 96h12v12h-12zM432 108h12v12h-12zM432 120h12v12h-12zM432 132h12v12h-12zM432 144h12v12h-12zM432 156h12v12h-12zM432 168h12v12h-12zM432 180h12v12h-12zM432 192h12v12h-12zM432 204h12v12h-12zM432 216h12v12h-12zM432 228h12v12h-12zM432 240h12v12h-12zM432 252h12v12h-12zM432 264h12v12h-12zM432 276h12v12h-12zM432 288h12v12h-12zM432 300h12v12h-12zM432 312h12v12h-12zM432 324h12v12h-12zM432 336h12v12h-12zM432 348h12v12h-12zM432 360h12v12h-12zM432 372h12v12h-12zM432 384h12v12h-12zM432 396h12v12h-12zM432 408h12v12h-12zM432 420h12v12h-12zM432 432h12v12h-12zM432 444h12v12h-12zM432 456h12v12h-12zM432 468h12v12h-12zM432 480h12v12h-12zM432 492h12v12h-12zM432 504h12v12h-12zM432 516h12v12h-12zM432 528h12v12h-12zM432 540h12v12h-12zM432 552h12v12h-12zM432 564h12v12h-12zM432 576h12v12h-12zM432 588h12v12h-12zM432 600h12v12h-12zM432 612h12v12h-12zM432 624h12v12h-12zM432 636h12v12h-12zM432 648h12v12h-12zM432 660h12v12h-12zM432 672h12v12h-12zM432 684h12v12h-12zM432 696h12v12h-12zM432 708h12v12h-12zM432 720h12v12h-12zM432 732h12v12h-12zM432 744h12v12h-12zM432 756h12v12h-12zM432 768h12v12h-12zM432 780h12v12h-12zM432 792h12v12h-12zM432 804h12v12h-12zM432 816h12v12h-12zM432 828h12v12h-12zM432 840h12v12h-12zM432 852h12v12h-12zM432 864h12v12h-12zM432 876h12v12h-12zM432 888h12v12h-12zM432 900h12v12h-12zM432 912h12v12h-12zM432 924h12v12h-12zM432 936h12v12h-12zM432 948h12v12h-12zM456 0h12v12h-12zM456 12h12v12h-12zM456 24h12v12h-12zM456 36h12v12h-12zM456 48h12v12h-12zM456 60h12v12h-12zM456 72h12v12h-12zM456 84h12v12h-12zM456 96h12v12h-12zM456 108h12v12h-12zM456 120h12v12h-12zM456 132h12v12h-12zM456 144h12v12h-12zM456 156h12v12h-12zM456 168h12v12h-12zM456 180h12v12h-12zM456 192h12v12h-12zM456 204h12v12h-12zM456 216h12v12h-12zM456 228h12v12h-12zM456 240h12v12h-12zM456 252h12v12h-12zM456 264h12v12h-12zM456 276h12v12h-12zM456 288h12v12h-12zM456 300h12v12h-12zM456 312h12v12h-12zM456 324h12v12h-12zM456 336h12v12h-12zM456 348h12v12h-12zM456 360h12v12h-12zM456 372h12v12h-12zM456 384h12v12h-12zM456 396h12v12h-12zM456 408h12v12h-12zM456 420h12v12h-12zM456 432h12v12h-12zM456 444h12v12h-12zM456 456h12v12h-12zM456 468h12v12h-12zM456 480h12v12h-12zM456 492h12v12h-12zM456 504h12v12h-12zM456 516h12v12h-12zM456 528h12v12h-12zM456 540h12v12h-12zM456 552h12v12h-12zM456 564h12v12h-12zM456 576h12v12h-12zM456 588h12v12h-12zM456 600h12v12h-12zM456 612h12v12h-12zM456 624h12v12h-12zM456 636h12v12h-12zM456 648h12v12h-12zM456 660h12v12h-12zM456 672h12v12h-12zM456 684h12v12h-12zM456 696h12v12h-12zM456 708h12v12h-12zM456 720h12v12h-12zM456 732h12v12h-12zM456 744h12v12h-12zM456 756h12v12h-12zM456 768h12v12h-12zM456 780h12v12h-12zM456 792h12v12h-12zM456 804h12v12h-12zM456 816h12v12h-12zM456 828h12v12h-12zM456 840h12v12h-12zM456 852h12v12h-12zM456 864h12v12h-12zM456 876h12v12h-12zM456 888h12v12h-12zM456 900h12v12h-12zM456 912h12v12h-12zM456 924h12v12h-12zM456 936h12v12h-12zM456 948h12v12h-12z"/><path fill="#8c8c8c" d="M9 0h6v24h-6zM0 9h24v6h-24zM81 0h6v24h-6zM72 9h24v6h-24zM33 24h6v24h-6zM24 33h24v6h-24zM57 24h6v24h-6zM48 33h24v6h-24zM33 48h6v24h-6zM24 57h24v6h-24zM9 72h6v24h-6zM0 81h24v6h-24zM81 72h6v24h-6zM72 81h24v6h-24zM201 0h6v24h-6zM192 9h24v6h-24zM273 0h6v24h-6zM264 9h24v6h-24zM225 24h6v24h-6zM216 33h24v6h-24zM249 24h6v24h-6zM240 33h24v6h-24zM225 48h6v24h-6zM216 57h24v6h-24zM249 48h6v24h-6zM240 57h24v6h-24zM201 72h6v24h-6zM192 81h24v6h-24zM273 72h6v24h-6zM264 81h24v6h-24zM393 0h6v24h-6zM384 9h24v6h-24zM465 0h6v24h-6zM456 9h24v6h-24zM417 24h6v24h-6zM408 33h24v6h-24zM441 24h6v24h-6zM432 33h24v6h-24zM417 48h6v24h-6zM408 57h24v6h-24zM441 48h6v24h-6zM432 57h24v6h-24zM393 72h6v24h-6zM384 81h24v6h-24zM465 72h6v24h-6zM456 81h24v6h-24zM585 24h6v24h-6zM576 33h24v6h-24zM657 24h6v24h-6zM648 33h24v6h-24zM585 48h6v24h-6zM576 57h24v6h-24zM657 48h6v24h-6zM648 57h24v6h-24zM801 0h6v24h-6zM792 9h24v6h-24zM777 24h6v24h-6zM768 33h24v6h-24zM801 24h6v24h-6zM792 33h24v6h-24zM825 48h6v24h-6zM816 57h24v6h-24zM849 48h6v24h-6zM840 57h24v6h-24zM825 72h6v24h-6zM816 81h24v6h-24zM57 192h6v24h-6zM48 201h24v6h-24zM81 192h6v24h-6zM72 201h24v6h-24zM57 216h6v24h-6zM48 225h24v6h-24zM81 216h6v24h-6zM72 225h24v6h-24zM9 240h6v24h-6zM0 249h24v6h-24zM33 240h6v24h-6zM24 249h24v6h-24zM9 264h6v24h-6zM0 273h24v6h-24zM33 264h6v24h-6zM24 273h24v6h-24zM201 192h6v24h-6zM192 201h24v6h-24zM273 192h6v24h-6zM264 201h24v6h-24zM225 216h6v24h-6zM216 225h24v6h-24zM249 216h6v24h-6zM240 225h24v6h-24zM201 264h6v24h-6zM192 273h24v6h-24zM273 264h6v24h-6zM264 273h24v6h-24zM417 192h6v24h-6zM408 201h24v6h-24zM441 192h6v24h-6zM432 201h24v6h-24zM441 216h6v24h-6zM432 225h24v6h-24zM417 264h6v24h-6zM408 273h24v6h-24zM633 192h6v24h-6zM624 201h24v6h-24zM657 192h6v24h-6zM648 201h24v6h-24zM585 264h6v24h-6zM576 273h24v6h-24zM609 264h6v24h-6zM600 273h24v6h-24zM777 192h6v24h-6zM768 201h24v6h-24zM849 192h6v24h-6zM840 201h24v6h-24zM825 216h6v24h-6zM816 225h24v6h-24zM801 240h6v24h-6zM792 249h24v6h-24zM777 264h6v24h-6zM768 273h24v6h-24zM849 264h6v24h-6zM840 273h24v6h-24zM9 384h6v24h-6zM0 393h24v6h-24zM81 384h6v24h-6zM72 393h24v6h-24zM9 432h6v24h-6zM0 441h24v6h-24zM81 432h6v24h-6zM72 441h24v6h-24zM249 384h6v24h-6zM240 393h24v6h-24zM249 408h6v24h-6zM240 417h24v6h-24zM273 408h6v24h-6zM264 417h24v6h-24zM201 432h6v24h-6zM192 441h24v6h-24zM225 432h6v24h-6zM216 441h24v6h-24zM225 456h6v24h-6zM216 465h24v6h-24zM393 384h6v24h-6zM384 393h24v6h-24zM465 384h6v24h-6zM456 393h24v6h-24zM417 432h6v24h-6zM408 441h24v6h-24zM441 432h6v24h-6zM432 441h24v6h-24zM393 456h6v24h-6zM384 465h24v6h-24zM465 456h6v24h-6zM456 465h24v6h-24zM585 384h6v24h-6zM576 393h24v6h-24zM657 384h6v24h-6zM648 393h24v6h-24zM609 432h6v24h-6zM600 441h24v6h-24zM633 432h6v24h-6zM624 441h24v6h-24zM585 456h6v24h-6zM576 465h24v6h-24zM657 456h6v24h-6zM648 465h24v6h-24zM777 384h6v24h-6zM768 393h24v6h-24zM801 384h6v24h-6zM792 393h24v6h-24zM825 456h6v24h-6zM816 465h24v6h-24zM849 456h6v24h-6zM840 465h24v6h-24zM23 498h3v12h-3zM18 503h12v3h-12zM53 492h3v12h-3zM48 497h12v3h-12zM89 492h3v12h-3zM84 497h12v3h-12zM53 504h3v12h-3zM48 509h12v3h-12zM65 504h3v12h-3zM60 509h12v3h-12zM113 480h3v12h-3zM108 485h12v3h-12zM125 480h3v12h-3zM120 485h12v3h-12zM125 492h3v12h-3zM120 497h12v3h-12zM113 516h3v12h-3zM108 521h12v3h-12zM161 480h3v12h-3zM156 485h12v3h-12zM173 480h3v12h-3zM168 485h12v3h-12zM173 492h3v12h-3zM168 497h12v3h-12zM161 516h3v12h-3zM156 521h12v3h-12zM197 480h3v12h-3zM192 485h12v3h-12zM233 480h3v12h-3zM228 485h12v3h-12zM209 492h3v12h-3zM204 497h12v3h-12zM221 492h3v12h-3zM216 497h12v3h-12zM197 504h3v12h-3zM192 509h12v3h-12zM233 504h3v12h-3zM228 509h12v3h-12zM257 480h3v12h-3zM252 485h12v3h-12zM269 480h3v12h-3zM264 485h12v3h-12zM245 492h3v12h-3zM240 497h12v3h-12zM269 492h3v12h-3zM264 497h12v3h-12zM257 504h3v12h-3zM252 509h12v3h-12zM281 504h3v12h-3zM276 509h12v3h-12zM257 516h3v12h-3zM252 521h12v3h-12zM269 516h3v12h-3zM264 521h12v3h-12zM293 480h3v12h-3zM288 485h12v3h-12zM317 480h3v12h-3zM312 485h12v3h-12zM317 492h3v12h-3zM312 497h12v3h-12zM329 492h3v12h-3zM324 497h12v3h-12zM293 504h3v12h-3zM288 509h12v3h-12zM305 504h3v12h-3zM300 509h12v3h-12zM305 516h3v12h-3zM300 521h12v3h-12zM329 516h3v12h-3zM324 521h12v3h-12zM365 480h3v12h-3zM360 485h12v3h-12zM377 480h3v12h-3zM372 485h12v3h-12zM365 492h3v12h-3zM360 497h12v3h-12zM377 492h3v12h-3zM372 497h12v3h-12zM341 504h3v12h-3zM336 509h12v3h-12zM353 504h3v12h-3zM348 509h12v3h-12zM341 516h3v12h-3zM336 521h12v3h-12zM353 516h3v12h-3zM348 521h12v3h-12zM389 480h3v12h-3zM384 485h12v3h-12zM401 492h3v12h-3zM396 497h12v3h-12zM413 504h3v12h-3zM408 509h12v3h-12zM425 516h3v12h-3zM420 521h12v3h-12zM437 480h3v12h-3zM432 485h12v3h-12zM449 492h3v12h-3zM444 497h12v3h-12zM437 504h3v12h-3zM432 509h12v3h-12zM461 504h3v12h-3zM456 509h12v3h-12zM437 516h3v12h-3zM432 521h12v3h-12zM449 516h3v12h-3zM444 521h12v3h-12zM473 516h3v12h-3zM468 521h12v3h-12zM497 480h3v12h-3zM492 485h12v3h-12zM509 480h3v12h-3zM504 485h12v3h-12zM485 492h3v12h-3zM480 497h12v3h-12zM509 492h3v12h-3zM504 497h12v3h-12zM497 504h3v12h-3zM492 509h12v3h-12zM521 504h3v12h-3zM516 509h12v3h-12zM497 516h3v12h-3zM492 521h12v3h-12zM509 516h3v12h-3zM504 521h12v3h-12zM533 480h3v12h-3zM528 485h12v3h-12zM569 480h3v12h-3zM564 485h12v3h-12zM557 492h3v12h-3zM552 497h12v3h-12zM545 504h3v12h-3zM540 509h12v3h-12zM533 516h3v12h-3zM528 521h12v3h-12zM569 516h3v12h-3zM564 521h12v3h-12zM593 480h3v12h-3zM588 485h12v3h-12zM581 492h3v12h-3zM576 497h12v3h-12zM617 504h3v12h-3zM612 509h12v3h-12zM605 516h3v12h-3zM600 521h12v3h-12zM665 480h3v12h-3zM660 485h12v3h-12zM665 492h3v12h-3zM660 497h12v3h-12zM629 504h3v12h-3zM624 509h12v3h-12zM629 516h3v12h-3zM624 521h12v3h-12zM677 480h3v12h-3zM672 485h12v3h-12zM689 480h3v12h-3zM684 485h12v3h-12zM713 480h3v12h-3zM708 485h12v3h-12zM677 492h3v12h-3zM672 497h12v3h-12zM701 492h3v12h-3zM696 497h12v3h-12zM689 504h3v12h-3zM684 509h12v3h-12zM677 516h3v12h-3zM672 521h12v3h-12zM749 480h3v12h-3zM744 485h12v3h-12zM761 480h3v12h-3zM756 485h12v3h-12zM725 516h3v12h-3zM720 521h12v3h-12zM737 516h3v12h-3zM732 521h12v3h-12zM785 480h3v12h-3zM780 485h12v3h-12zM809 480h3v12h-3zM804 485h12v3h-12zM773 492h3v12h-3zM768 497h12v3h-12zM809 504h3v12h-3zM804 509h12v3h-12zM773 516h3v12h-3zM768 521h12v3h-12zM797 516h3v12h-3zM792 521h12v3h-12zM833 480h3v12h-3zM828 485h12v3h-12zM821 492h3v12h-3zM816 497h12v3h-12zM845 492h3v12h-3zM840 497h12v3h-12zM857 492h3v12h-3zM852 497h12v3h-12zM821 504h3v12h-3zM816 509h12v3h-12zM833 504h3v12h-3zM828 509h12v3h-12zM857 504h3v12h-3zM852 509h12v3h-12zM845 516h3v12h-3zM840 521h12v3h-12zM869 480h3v12h-3zM864 485h12v3h-12zM905 480h3v12h-3zM900 485h12v3h-12zM869 504h3v12h-3zM864 509h12v3h-12zM905 504h3v12h-3zM900 509h12v3h-12zM929 480h3v12h-3zM924 485h12v3h-12zM917 492h3v12h-3zM912 497h12v3h-12zM941 492h3v12h-3zM936 497h12v3h-12zM929 504h3v12h-3zM924 509h12v3h-12zM953 504h3v12h-3zM948 509h12v3h-12zM941 516h3v12h-3zM936 521h12v3h-12zM17 528h3v12h-3zM12 533h12v3h-12zM41 528h3v12h-3zM36 533h12v3h-12zM17 564h3v12h-3zM12 569h12v3h-12zM41 564h3v12h-3zM36 569h12v3h-12zM77 528h3v12h-3zM72 533h12v3h-12zM89 528h3v12h-3zM84 533h12v3h-12zM77 540h3v12h-3zM72 545h12v3h-12zM89 540h3v12h-3zM84 545h12v3h-12zM53 552h3v12h-3zM48 557h12v3h-12zM65 552h3v12h-3zM60 557h12v3h-12zM53 564h3v12h-3zM48 569h12v3h-12zM65 564h3v12h-3zM60 569h12v3h-12zM113 528h3v12h-3zM108 533h12v3h-12zM137 528h3v12h-3zM132 533h12v3h-12zM113 564h3v12h-3zM108 569h12v3h-12zM137 564h3v12h-3zM132 569h12v3h-12zM161 528h3v12h-3zM156 533h12v3h-12zM149 540h3v12h-3zM144 545h12v3h-12zM173 540h3v12h-3zM168 545h12v3h-12zM185 540h3v12h-3zM180 545h12v3h-12zM149 552h3v12h-3zM144 557h12v3h-12zM161 552h3v12h-3zM156 557h12v3h-12zM185 552h3v12h-3zM180 557h12v3h-12zM173 564h3v12h-3zM168 569h12v3h-12zM197 528h3v12h-3zM192 533h12v3h-12zM233 528h3v12h-3zM228 533h12v3h-12zM197 552h3v12h-3zM192 557h12v3h-12zM233 552h3v12h-3zM228 557h12v3h-12zM269 528h3v12h-3zM264 533h12v3h-12zM257 540h3v12h-3zM252 545h12v3h-12zM281 540h3v12h-3zM276 545h12v3h-12zM245 552h3v12h-3zM240 557h12v3h-12zM269 552h3v12h-3zM264 557h12v3h-12zM257 564h3v12h-3zM252 569h12v3h-12zM329 600h3v12h-3zM324 605h12v3h-12zM305 528h3v12h-3zM300 533h12v3h-12zM317 528h3v12h-3zM312 533h12v3h-12zM305 540h3v12h-3zM300 545h12v3h-12zM329 540h3v12h-3zM324 545h12v3h-12zM293 552h3v12h-3zM288 557h12v3h-12zM317 552h3v12h-3zM312 557h12v3h-12zM305 564h3v12h-3zM300 569h12v3h-12zM317 564h3v12h-3zM312 569h12v3h-12zM341 528h3v12h-3zM336 533h12v3h-12zM365 528h3v12h-3zM360 533h12v3h-12zM353 540h3v12h-3zM348 545h12v3h-12zM377 540h3v12h-3zM372 545h12v3h-12zM341 552h3v12h-3zM336 557h12v3h-12zM365 552h3v12h-3zM360 557h12v3h-12zM353 564h3v12h-3zM348 569h12v3h-12zM377 564h3v12h-3zM372 569h12v3h-12zM389 528h3v12h-3zM384 533h12v3h-12zM425 528h3v12h-3zM420 533h12v3h-12zM401 540h3v12h-3zM396 545h12v3h-12zM413 540h3v12h-3zM408 545h12v3h-12zM401 552h3v12h-3zM396 557h12v3h-12zM413 552h3v12h-3zM408 557h12v3h-12zM389 564h3v12h-3zM384 569h12v3h-12zM425 564h3v12h-3zM420 569h12v3h-12zM437 528h3v12h-3zM432 533h12v3h-12zM437 540h3v12h-3zM432 545h12v3h-12zM473 552h3v12h-3zM468 557h12v3h-12zM473 564h3v12h-3zM468 569h12v3h-12zM485 528h3v12h-3zM480 533h12v3h-12zM509 528h3v12h-3zM504 533h12v3h-12zM509 540h3v12h-3zM504 545h12v3h-12zM521 540h3v12h-3zM516 545h12v3h-12zM485 552h3v12h-3zM480 557h12v3h-12zM497 552h3v12h-3zM492 557h12v3h-12zM497 564h3v12h-3zM492 569h12v3h-12zM521 564h3v12h-3zM516 569h12v3h-12zM545 528h3v12h-3zM540 533h12v3h-12zM557 528h3v12h-3zM552 533h12v3h-12zM533 540h3v12h-3zM528 545h12v3h-12zM557 540h3v12h-3zM552 545h12v3h-12zM545 552h3v12h-3zM540 557h12v3h-12zM569 552h3v12h-3zM564 557h12v3h-12zM545 564h3v12h-3zM540 569h12v3h-12zM557 564h3v12h-3zM552 569h12v3h-12zM581 528h3v12h-3zM576 533h12v3h-12zM581 540h3v12h-3zM576 545h12v3h-12zM617 552h3v12h-3zM612 557h12v3h-12zM617 564h3v12h-3zM612 569h12v3h-12zM641 528h3v12h-3zM636 533h12v3h-12zM629 540h3v12h-3zM624 545h12v3h-12zM653 540h3v12h-3zM648 545h12v3h-12zM641 552h3v12h-3zM636 557h12v3h-12zM665 552h3v12h-3zM660 557h12v3h-12zM653 564h3v12h-3zM648 569h12v3h-12zM689 528h3v12h-3zM684 533h12v3h-12zM677 540h3v12h-3zM672 545h12v3h-12zM689 540h3v12h-3zM684 545h12v3h-12zM701 552h3v12h-3zM696 557h12v3h-12zM713 552h3v12h-3zM708 557h12v3h-12zM701 564h3v12h-3zM696 569h12v3h-12zM725 528h3v12h-3zM720 533h12v3h-12zM737 528h3v12h-3zM732 533h12v3h-12zM749 564h3v12h-3zM744 569h12v3h-12zM761 564h3v12h-3zM756 569h12v3h-12zM797 528h3v12h-3zM792 533h12v3h-12zM773 540h3v12h-3zM768 545h12v3h-12zM785 540h3v12h-3zM780 545h12v3h-12zM809 540h3v12h-3zM804 545h12v3h-12zM773 552h3v12h-3zM768 557h12v3h-12zM797 552h3v12h-3zM792 557h12v3h-12zM809 552h3v12h-3zM804 557h12v3h-12zM785 564h3v12h-3zM780 569h12v3h-12zM821 528h3v12h-3zM816 533h12v3h-12zM845 528h3v12h-3zM840 533h12v3h-12zM857 528h3v12h-3zM852 533h12v3h-12zM833 540h3v12h-3zM828 545h12v3h-12zM857 540h3v12h-3zM852 545h12v3h-12zM845 552h3v12h-3zM840 557h12v3h-12zM857 564h3v12h-3zM852 569h12v3h-12zM893 528h3v12h-3zM888 533h12v3h-12zM905 528h3v12h-3zM900 533h12v3h-12zM893 540h3v12h-3zM888 545h12v3h-12zM905 540h3v12h-3zM900 545h12v3h-12zM869 552h3v12h-3zM864 557h12v3h-12zM881 552h3v12h-3zM876 557h12v3h-12zM869 564h3v12h-3zM864 569h12v3h-12zM881 564h3v12h-3zM876 569h12v3h-12zM917 528h3v12h-3zM912 533h12v3h-12zM953 528h3v12h-3zM948 533h12v3h-12zM929 540h3v12h-3zM924 545h12v3h-12zM941 540h3v12h-3zM936 545h12v3h-12zM917 564h3v12h-3zM912 569h12v3h-12zM953 564h3v12h-3zM948 569h12v3h-12zM29 576h3v12h-3zM24 581h12v3h-12zM29 588h3v12h-3zM24 593h12v3h-12zM41 588h3v12h-3zM36 593h12v3h-12zM5 600h3v12h-3zM0 605h12v3h-12zM17 600h3v12h-3zM12 605h12v3h-12zM17 612h3v12h-3zM12 617h12v3h-12zM89 576h3v12h-3zM84 581h12v3h-12zM77 588h3v12h-3zM72 593h12v3h-12zM65 600h3v12h-3zM60 605h12v3h-12zM89 600h3v12h-3zM84 605h12v3h-12zM53 612h3v12h-3zM48 617h12v3h-12zM77 612h3v12h-3zM72 617h12v3h-12zM89 612h3v12h-3zM84 617h12v3h-12zM125 576h3v12h-3zM120 581h12v3h-12zM113 588h3v12h-3zM108 593h12v3h-12zM137 588h3v12h-3zM132 593h12v3h-12zM101 600h3v12h-3zM96 605h12v3h-12zM125 600h3v12h-3zM120 605h12v3h-12zM113 612h3v12h-3zM108 617h12v3h-12zM149 576h3v12h-3zM144 581h12v3h-12zM185 576h3v12h-3zM180 581h12v3h-12zM161 588h3v12h-3zM156 593h12v3h-12zM173 600h3v12h-3zM168 605h12v3h-12zM149 612h3v12h-3zM144 617h12v3h-12zM185 612h3v12h-3zM180 617h12v3h-12zM197 576h3v12h-3zM192 581h12v3h-12zM233 576h3v12h-3zM228 581h12v3h-12zM209 588h3v12h-3zM204 593h12v3h-12zM209 600h3v12h-3zM204 605h12v3h-12zM221 600h3v12h-3zM216 605h12v3h-12zM197 612h3v12h-3zM192 617h12v3h-12zM233 612h3v12h-3zM228 617h12v3h-12zM281 576h3v12h-3zM276 581h12v3h-12zM281 588h3v12h-3zM276 593h12v3h-12zM245 600h3v12h-3zM240 605h12v3h-12zM245 612h3v12h-3zM240 617h12v3h-12zM293 576h3v12h-3zM288 581h12v3h-12zM305 588h3v12h-3zM300 593h12v3h-12zM293 600h3v12h-3zM288 605h12v3h-12zM317 600h3v12h-3zM312 605h12v3h-12zM293 612h3v12h-3zM288 617h12v3h-12zM305 612h3v12h-3zM300 617h12v3h-12zM329 612h3v12h-3zM324 617h12v3h-12zM341 576h3v12h-3zM336 581h12v3h-12zM377 576h3v12h-3zM372 581h12v3h-12zM365 588h3v12h-3zM360 593h12v3h-12zM353 600h3v12h-3zM348 605h12v3h-12zM341 612h3v12h-3zM336 617h12v3h-12zM377 612h3v12h-3zM372 617h12v3h-12zM401 576h3v12h-3zM396 581h12v3h-12zM389 588h3v12h-3zM384 593h12v3h-12zM413 588h3v12h-3zM408 593h12v3h-12zM425 588h3v12h-3zM420 593h12v3h-12zM389 600h3v12h-3zM384 605h12v3h-12zM401 600h3v12h-3zM396 605h12v3h-12zM425 600h3v12h-3zM420 605h12v3h-12zM413 612h3v12h-3zM408 617h12v3h-12zM437 576h3v12h-3zM432 581h12v3h-12zM449 576h3v12h-3zM444 581h12v3h-12zM437 588h3v12h-3zM432 593h12v3h-12zM449 588h3v12h-3zM444 593h12v3h-12zM461 600h3v12h-3zM456 605h12v3h-12zM473 600h3v12h-3zM468 605h12v3h-12zM461 612h3v12h-3zM456 617h12v3h-12zM473 612h3v12h-3zM468 617h12v3h-12zM497 576h3v12h-3zM492 581h12v3h-12zM521 576h3v12h-3zM516 581h12v3h-12zM485 588h3v12h-3zM480 593h12v3h-12zM521 600h3v12h-3zM516 605h12v3h-12zM485 612h3v12h-3zM480 617h12v3h-12zM509 612h3v12h-3zM504 617h12v3h-12zM533 576h3v12h-3zM528 581h12v3h-12zM569 576h3v12h-3zM564 581h12v3h-12zM545 588h3v12h-3zM540 593h12v3h-12zM557 600h3v12h-3zM552 605h12v3h-12zM533 612h3v12h-3zM528 617h12v3h-12zM569 612h3v12h-3zM564 617h12v3h-12zM593 576h3v12h-3zM588 581h12v3h-12zM605 576h3v12h-3zM600 581h12v3h-12zM581 588h3v12h-3zM576 593h12v3h-12zM605 588h3v12h-3zM600 593h12v3h-12zM593 600h3v12h-3zM588 605h12v3h-12zM617 600h3v12h-3zM612 605h12v3h-12zM593 612h3v12h-3zM588 617h12v3h-12zM605 612h3v12h-3zM600 617h12v3h-12zM653 576h3v12h-3zM648 581h12v3h-12zM653 588h3v12h-3zM648 593h12v3h-12zM665 588h3v12h-3zM660 593h12v3h-12zM629 600h3v12h-3zM624 605h12v3h-12zM641 600h3v12h-3zM636 605h12v3h-12zM641 612h3v12h-3zM636 617h12v3h-12zM701 576h3v12h-3zM696 581h12v3h-12zM701 588h3v12h-3zM696 593h12v3h-12zM713 588h3v12h-3zM708 593h12v3h-12zM677 600h3v12h-3zM672 605h12v3h-12zM689 600h3v12h-3zM684 605h12v3h-12zM689 612h3v12h-3zM684 617h12v3h-12zM725 576h3v12h-3zM720 581h12v3h-12zM761 576h3v12h-3zM756 581h12v3h-12zM749 588h3v12h-3zM744 593h12v3h-12zM737 600h3v12h-3zM732 605h12v3h-12zM749 600h3v12h-3zM744 605h12v3h-12zM725 612h3v12h-3zM720 617h12v3h-12zM761 612h3v12h-3zM756 617h12v3h-12zM773 576h3v12h-3zM768 581h12v3h-12zM809 576h3v12h-3zM804 581h12v3h-12zM785 588h3v12h-3zM780 593h12v3h-12zM785 600h3v12h-3zM780 605h12v3h-12zM797 600h3v12h-3zM792 605h12v3h-12zM773 612h3v12h-3zM768 617h12v3h-12zM809 612h3v12h-3zM804 617h12v3h-12zM821 576h3v12h-3zM816 581h12v3h-12zM833 576h3v12h-3zM828 581h12v3h-12zM845 612h3v12h-3zM840 617h12v3h-12zM857 612h3v12h-3zM852 617h12v3h-12zM869 576h3v12h-3zM864 581h12v3h-12zM905 576h3v12h-3zM900 581h12v3h-12zM881 588h3v12h-3zM876 593h12v3h-12zM893 600h3v12h-3zM888 605h12v3h-12zM869 612h3v12h-3zM864 617h12v3h-12zM905 612h3v12h-3zM900 617h12v3h-12zM929 576h3v12h-3zM924 581h12v3h-12zM941 576h3v12h-3zM936 581h12v3h-12zM941 588h3v12h-3zM936 593h12v3h-12zM929 612h3v12h-3zM924 617h12v3h-12zM5 624h3v12h-3zM0 629h12v3h-12zM41 624h3v12h-3zM36 629h12v3h-12zM29 636h3v12h-3zM24 641h12v3h-12zM17 648h3v12h-3zM12 653h12v3h-12zM5 660h3v12h-3zM0 665h12v3h-12zM41 660h3v12h-3zM36 665h12v3h-12zM53 624h3v12h-3zM48 629h12v3h-12zM89 624h3v12h-3zM84 629h12v3h-12zM53 660h3v12h-3zM48 665h12v3h-12zM89 660h3v12h-3zM84 665h12v3h-12zM101 624h3v12h-3zM96 629h12v3h-12zM113 624h3v12h-3zM108 629h12v3h-12zM137 624h3v12h-3zM132 629h12v3h-12zM101 636h3v12h-3zM96 641h12v3h-12zM125 636h3v12h-3zM120 641h12v3h-12zM113 648h3v12h-3zM108 653h12v3h-12zM101 660h3v12h-3zM96 665h12v3h-12zM149 636h3v12h-3zM144 641h12v3h-12zM185 636h3v12h-3zM180 641h12v3h-12zM149 648h3v12h-3zM144 653h12v3h-12zM161 648h3v12h-3zM156 653h12v3h-12zM233 624h3v12h-3zM228 629h12v3h-12zM221 636h3v12h-3zM216 641h12v3h-12zM209 648h3v12h-3zM204 653h12v3h-12zM233 648h3v12h-3zM228 653h12v3h-12zM197 660h3v12h-3zM192 665h12v3h-12zM221 660h3v12h-3zM216 665h12v3h-12zM233 660h3v12h-3zM228 665h12v3h-12zM269 624h3v12h-3zM264 629h12v3h-12zM281 636h3v12h-3zM276 641h12v3h-12zM245 648h3v12h-3zM240 653h12v3h-12zM257 660h3v12h-3zM252 665h12v3h-12zM305 624h3v12h-3zM300 629h12v3h-12zM317 648h3v12h-3zM312 653h12v3h-12zM305 660h3v12h-3zM300 665h12v3h-12zM317 660h3v12h-3zM312 665h12v3h-12zM353 624h3v12h-3zM348 629h12v3h-12zM365 624h3v12h-3zM360 629h12v3h-12zM353 660h3v12h-3zM348 665h12v3h-12zM365 660h3v12h-3zM360 665h12v3h-12zM389 624h3v12h-3zM384 629h12v3h-12zM425 624h3v12h-3zM420 629h12v3h-12zM401 636h3v12h-3zM396 641h12v3h-12zM413 636h3v12h-3zM408 641h12v3h-12zM389 660h3v12h-3zM384 665h12v3h-12zM425 660h3v12h-3zM420 665h12v3h-12zM437 624h3v12h-3zM432 629h12v3h-12zM473 624h3v12h-3zM468 629h12v3h-12zM449 648h3v12h-3zM444 653h12v3h-12zM461 648h3v12h-3zM456 653h12v3h-12zM437 660h3v12h-3zM432 665h12v3h-12zM473 660h3v12h-3zM468 665h12v3h-12zM485 624h3v12h-3zM480 629h12v3h-12zM509 624h3v12h-3zM504 629h12v3h-12zM521 624h3v12h-3zM516 629h12v3h-12zM497 636h3v12h-3zM492 641h12v3h-12zM521 636h3v12h-3zM516 641h12v3h-12zM509 648h3v12h-3zM504 653h12v3h-12zM521 660h3v12h-3zM516 665h12v3h-12zM533 624h3v12h-3zM528 629h12v3h-12zM569 624h3v12h-3zM564 629h12v3h-12zM545 636h3v12h-3zM540 641h12v3h-12zM557 636h3v12h-3zM552 641h12v3h-12zM545 648h3v12h-3zM540 653h12v3h-12zM557 648h3v12h-3zM552 653h12v3h-12zM533 660h3v12h-3zM528 665h12v3h-12zM569 660h3v12h-3zM564 665h12v3h-12zM605 624h3v12h-3zM600 629h12v3h-12zM605 636h3v12h-3zM600 641h12v3h-12zM617 636h3v12h-3zM612 641h12v3h-12zM581 648h3v12h-3zM576 653h12v3h-12zM593 648h3v12h-3zM588 653h12v3h-12zM593 660h3v12h-3zM588 665h12v3h-12zM629 636h3v12h-3zM624 641h12v3h-12zM641 636h3v12h-3zM636 641h12v3h-12zM629 648h3v12h-3zM624 653h12v3h-12zM665 648h3v12h-3zM660 653h12v3h-12zM701 624h3v12h-3zM696 629h12v3h-12zM689 636h3v12h-3zM684 641h12v3h-12zM713 636h3v12h-3zM708 641h12v3h-12zM677 648h3v12h-3zM672 653h12v3h-12zM701 648h3v12h-3zM696 653h12v3h-12zM689 660h3v12h-3zM684 665h12v3h-12zM725 624h3v12h-3zM720 629h12v3h-12zM737 624h3v12h-3zM732 629h12v3h-12zM761 624h3v12h-3zM756 629h12v3h-12zM725 636h3v12h-3zM720 641h12v3h-12zM749 636h3v12h-3zM744 641h12v3h-12zM737 648h3v12h-3zM732 653h12v3h-12zM725 660h3v12h-3zM720 665h12v3h-12zM797 624h3v12h-3zM792 629h12v3h-12zM785 636h3v12h-3zM780 641h12v3h-12zM809 636h3v12h-3zM804 641h12v3h-12zM773 648h3v12h-3zM768 653h12v3h-12zM797 648h3v12h-3zM792 653h12v3h-12zM785 660h3v12h-3zM780 665h12v3h-12zM845 624h3v12h-3zM840 629h12v3h-12zM857 624h3v12h-3zM852 629h12v3h-12zM845 636h3v12h-3zM840 641h12v3h-12zM857 636h3v12h-3zM852 641h12v3h-12zM821 648h3v12h-3zM816 653h12v3h-12zM833 648h3v12h-3zM828 653h12v3h-12zM821 660h3v12h-3zM816 665h12v3h-12zM833 660h3v12h-3zM828 665h12v3h-12zM881 624h3v12h-3zM876 629h12v3h-12zM869 636h3v12h-3zM864 641h12v3h-12zM893 636h3v12h-3zM888 641h12v3h-12zM905 636h3v12h-3zM900 641h12v3h-12zM869 648h3v12h-3zM864 653h12v3h-12zM881 648h3v12h-3zM876 653h12v3h-12zM905 648h3v12h-3zM900 653h12v3h-12zM893 660h3v12h-3zM888 665h12v3h-12zM917 624h3v12h-3zM912 629h12v3h-12zM929 636h3v12h-3zM924 641h12v3h-12zM941 648h3v12h-3zM936 653h12v3h-12zM953 660h3v12h-3zM948 665h12v3h-12zM5 672h3v12h-3zM0 677h12v3h-12zM41 672h3v12h-3zM36 677h12v3h-12zM17 684h3v12h-3zM12 689h12v3h-12zM29 684h3v12h-3zM24 689h12v3h-12zM17 696h3v12h-3zM12 701h12v3h-12zM29 696h3v12h-3zM24 701h12v3h-12zM5 708h3v12h-3zM0 713h12v3h-12zM41 708h3v12h-3zM36 713h12v3h-12zM65 672h3v12h-3zM60 677h12v3h-12zM77 696h3v12h-3zM72 701h12v3h-12zM65 708h3v12h-3zM60 713h12v3h-12zM77 708h3v12h-3zM72 713h12v3h-12zM113 672h3v12h-3zM108 677h12v3h-12zM125 672h3v12h-3zM120 677h12v3h-12zM125 684h3v12h-3zM120 689h12v3h-12zM113 708h3v12h-3zM108 713h12v3h-12zM149 672h3v12h-3zM144 677h12v3h-12zM185 672h3v12h-3zM180 677h12v3h-12zM173 684h3v12h-3zM168 689h12v3h-12zM161 696h3v12h-3zM156 701h12v3h-12zM149 708h3v12h-3zM144 713h12v3h-12zM185 708h3v12h-3zM180 713h12v3h-12zM197 672h3v12h-3zM192 677h12v3h-12zM233 672h3v12h-3zM228 677h12v3h-12zM197 708h3v12h-3zM192 713h12v3h-12zM233 708h3v12h-3zM228 713h12v3h-12zM245 672h3v12h-3zM240 677h12v3h-12zM281 672h3v12h-3zM276 677h12v3h-12zM269 684h3v12h-3zM264 689h12v3h-12zM257 696h3v12h-3zM252 701h12v3h-12zM269 696h3v12h-3zM264 701h12v3h-12zM245 708h3v12h-3zM240 713h12v3h-12zM281 708h3v12h-3zM276 713h12v3h-12zM305 672h3v12h-3zM300 677h12v3h-12zM293 684h3v12h-3zM288 689h12v3h-12zM305 684h3v12h-3zM300 689h12v3h-12zM317 696h3v12h-3zM312 701h12v3h-12zM329 696h3v12h-3zM324 701h12v3h-12zM317 708h3v12h-3zM312 713h12v3h-12zM365 672h3v12h-3zM360 677h12v3h-12zM377 672h3v12h-3zM372 677h12v3h-12zM341 708h3v12h-3zM336 713h12v3h-12zM353 708h3v12h-3zM348 713h12v3h-12zM425 744h3v12h-3zM420 749h12v3h-12zM401 672h3v12h-3zM396 677h12v3h-12zM413 672h3v12h-3zM408 677h12v3h-12zM401 684h3v12h-3zM396 689h12v3h-12zM425 684h3v12h-3zM420 689h12v3h-12zM389 696h3v12h-3zM384 701h12v3h-12zM413 696h3v12h-3zM408 701h12v3h-12zM401 708h3v12h-3zM396 713h12v3h-12zM413 708h3v12h-3zM408 713h12v3h-12zM437 672h3v12h-3zM432 677h12v3h-12zM473 672h3v12h-3zM468 677h12v3h-12zM461 684h3v12h-3zM456 689h12v3h-12zM449 696h3v12h-3zM444 701h12v3h-12zM437 708h3v12h-3zM432 713h12v3h-12zM473 708h3v12h-3zM468 713h12v3h-12zM521 744h3v12h-3zM516 749h12v3h-12zM497 672h3v12h-3zM492 677h12v3h-12zM509 672h3v12h-3zM504 677h12v3h-12zM497 684h3v12h-3zM492 689h12v3h-12zM521 684h3v12h-3zM516 689h12v3h-12zM485 696h3v12h-3zM480 701h12v3h-12zM509 696h3v12h-3zM504 701h12v3h-12zM497 708h3v12h-3zM492 713h12v3h-12zM509 708h3v12h-3zM504 713h12v3h-12zM569 672h3v12h-3zM564 677h12v3h-12zM557 684h3v12h-3zM552 689h12v3h-12zM545 696h3v12h-3zM540 701h12v3h-12zM533 708h3v12h-3zM528 713h12v3h-12zM593 672h3v12h-3zM588 677h12v3h-12zM581 684h3v12h-3zM576 689h12v3h-12zM605 684h3v12h-3zM600 689h12v3h-12zM617 684h3v12h-3zM612 689h12v3h-12zM581 696h3v12h-3zM576 701h12v3h-12zM593 696h3v12h-3zM588 701h12v3h-12zM617 696h3v12h-3zM612 701h12v3h-12zM605 708h3v12h-3zM600 713h12v3h-12zM653 672h3v12h-3zM648 677h12v3h-12zM641 684h3v12h-3zM636 689h12v3h-12zM665 684h3v12h-3zM660 689h12v3h-12zM629 696h3v12h-3zM624 701h12v3h-12zM653 696h3v12h-3zM648 701h12v3h-12zM641 708h3v12h-3zM636 713h12v3h-12zM677 672h3v12h-3zM672 677h12v3h-12zM701 672h3v12h-3zM696 677h12v3h-12zM713 684h3v12h-3zM708 689h12v3h-12zM677 696h3v12h-3zM672 701h12v3h-12zM689 708h3v12h-3zM684 713h12v3h-12zM713 708h3v12h-3zM708 713h12v3h-12zM761 672h3v12h-3zM756 677h12v3h-12zM749 684h3v12h-3zM744 689h12v3h-12zM737 696h3v12h-3zM732 701h12v3h-12zM761 696h3v12h-3zM756 701h12v3h-12zM725 708h3v12h-3zM720 713h12v3h-12zM749 708h3v12h-3zM744 713h12v3h-12zM761 708h3v12h-3zM756 713h12v3h-12zM773 672h3v12h-3zM768 677h12v3h-12zM785 684h3v12h-3zM780 689h12v3h-12zM773 696h3v12h-3zM768 701h12v3h-12zM797 696h3v12h-3zM792 701h12v3h-12zM773 708h3v12h-3zM768 713h12v3h-12zM785 708h3v12h-3zM780 713h12v3h-12zM809 708h3v12h-3zM804 713h12v3h-12zM833 672h3v12h-3zM828 677h12v3h-12zM857 672h3v12h-3zM852 677h12v3h-12zM833 708h3v12h-3zM828 713h12v3h-12zM857 708h3v12h-3zM852 713h12v3h-12zM869 672h3v12h-3zM864 677h12v3h-12zM905 672h3v12h-3zM900 677h12v3h-12zM869 708h3v12h-3zM864 713h12v3h-12zM905 708h3v12h-3zM900 713h12v3h-12zM953 672h3v12h-3zM948 677h12v3h-12zM953 684h3v12h-3zM948 689h12v3h-12zM917 696h3v12h-3zM912 701h12v3h-12zM917 708h3v12h-3zM912 713h12v3h-12zM5 720h3v12h-3zM0 725h12v3h-12zM41 720h3v12h-3zM36 725h12v3h-12zM17 732h3v12h-3zM12 737h12v3h-12zM29 732h3v12h-3zM24 737h12v3h-12zM5 744h3v12h-3zM0 749h12v3h-12zM41 744h3v12h-3zM36 749h12v3h-12zM53 720h3v12h-3zM48 725h12v3h-12zM77 720h3v12h-3zM72 725h12v3h-12zM89 720h3v12h-3zM84 725h12v3h-12zM65 732h3v12h-3zM60 737h12v3h-12zM89 732h3v12h-3zM84 737h12v3h-12zM77 744h3v12h-3zM72 749h12v3h-12zM89 756h3v12h-3zM84 761h12v3h-12zM113 720h3v12h-3zM108 725h12v3h-12zM101 732h3v12h-3zM96 737h12v3h-12zM125 732h3v12h-3zM120 737h12v3h-12zM113 744h3v12h-3zM108 749h12v3h-12zM137 744h3v12h-3zM132 749h12v3h-12zM125 756h3v12h-3zM120 761h12v3h-12zM161 720h3v12h-3zM156 725h12v3h-12zM149 732h3v12h-3zM144 737h12v3h-12zM161 732h3v12h-3zM156 737h12v3h-12zM173 744h3v12h-3zM168 749h12v3h-12zM185 744h3v12h-3zM180 749h12v3h-12zM173 756h3v12h-3zM168 761h12v3h-12zM197 720h3v12h-3zM192 725h12v3h-12zM233 720h3v12h-3zM228 725h12v3h-12zM209 732h3v12h-3zM204 737h12v3h-12zM221 732h3v12h-3zM216 737h12v3h-12zM209 744h3v12h-3zM204 749h12v3h-12zM197 756h3v12h-3zM192 761h12v3h-12zM233 756h3v12h-3zM228 761h12v3h-12zM257 720h3v12h-3zM252 725h12v3h-12zM245 732h3v12h-3zM240 737h12v3h-12zM269 732h3v12h-3zM264 737h12v3h-12zM257 744h3v12h-3zM252 749h12v3h-12zM281 744h3v12h-3zM276 749h12v3h-12zM269 756h3v12h-3zM264 761h12v3h-12zM305 720h3v12h-3zM300 725h12v3h-12zM329 720h3v12h-3zM324 725h12v3h-12zM317 732h3v12h-3zM312 737h12v3h-12zM317 744h3v12h-3zM312 749h12v3h-12zM305 756h3v12h-3zM300 761h12v3h-12zM329 756h3v12h-3zM324 761h12v3h-12zM341 720h3v12h-3zM336 725h12v3h-12zM377 720h3v12h-3zM372 725h12v3h-12zM353 732h3v12h-3zM348 737h12v3h-12zM365 732h3v12h-3zM360 737h12v3h-12zM365 744h3v12h-3zM360 749h12v3h-12zM341 756h3v12h-3zM336 761h12v3h-12zM377 756h3v12h-3zM372 761h12v3h-12zM389 720h3v12h-3zM384 725h12v3h-12zM389 732h3v12h-3zM384 737h12v3h-12zM425 744h3v12h-3zM420 749h12v3h-12zM425 756h3v12h-3zM420 761h12v3h-12zM449 720h3v12h-3zM444 725h12v3h-12zM473 720h3v12h-3zM468 725h12v3h-12zM437 732h3v12h-3zM432 737h12v3h-12zM473 744h3v12h-3zM468 749h12v3h-12zM437 756h3v12h-3zM432 761h12v3h-12zM461 756h3v12h-3zM456 761h12v3h-12zM497 720h3v12h-3zM492 725h12v3h-12zM485 732h3v12h-3zM480 737h12v3h-12zM509 732h3v12h-3zM504 737h12v3h-12zM521 732h3v12h-3zM516 737h12v3h-12zM485 744h3v12h-3zM480 749h12v3h-12zM497 744h3v12h-3zM492 749h12v3h-12zM521 744h3v12h-3zM516 749h12v3h-12zM509 756h3v12h-3zM504 761h12v3h-12zM533 720h3v12h-3zM528 725h12v3h-12zM569 720h3v12h-3zM564 725h12v3h-12zM545 732h3v12h-3zM540 737h12v3h-12zM557 732h3v12h-3zM552 737h12v3h-12zM533 744h3v12h-3zM528 749h12v3h-12zM569 744h3v12h-3zM564 749h12v3h-12zM605 720h3v12h-3zM600 725h12v3h-12zM593 732h3v12h-3zM588 737h12v3h-12zM617 732h3v12h-3zM612 737h12v3h-12zM581 744h3v12h-3zM576 749h12v3h-12zM605 744h3v12h-3zM600 749h12v3h-12zM593 756h3v12h-3zM588 761h12v3h-12zM653 720h3v12h-3zM648 725h12v3h-12zM665 720h3v12h-3zM660 725h12v3h-12zM653 732h3v12h-3zM648 737h12v3h-12zM665 732h3v12h-3zM660 737h12v3h-12zM629 744h3v12h-3zM624 749h12v3h-12zM641 744h3v12h-3zM636 749h12v3h-12zM629 756h3v12h-3zM624 761h12v3h-12zM641 756h3v12h-3zM636 761h12v3h-12zM713 720h3v12h-3zM708 725h12v3h-12zM713 732h3v12h-3zM708 737h12v3h-12zM677 744h3v12h-3zM672 749h12v3h-12zM677 756h3v12h-3zM672 761h12v3h-12zM725 720h3v12h-3zM720 725h12v3h-12zM737 720h3v12h-3zM732 725h12v3h-12zM749 756h3v12h-3zM744 761h12v3h-12zM761 756h3v12h-3zM756 761h12v3h-12zM809 720h3v12h-3zM804 725h12v3h-12zM797 732h3v12h-3zM792 737h12v3h-12zM785 744h3v12h-3zM780 749h12v3h-12zM809 744h3v12h-3zM804 749h12v3h-12zM773 756h3v12h-3zM768 761h12v3h-12zM797 756h3v12h-3zM792 761h12v3h-12zM809 756h3v12h-3zM804 761h12v3h-12zM845 720h3v12h-3zM840 725h12v3h-12zM857 732h3v12h-3zM852 737h12v3h-12zM821 744h3v12h-3zM816 749h12v3h-12zM833 756h3v12h-3zM828 761h12v3h-12zM869 720h3v12h-3zM864 725h12v3h-12zM893 720h3v12h-3zM888 725h12v3h-12zM893 732h3v12h-3zM888 737h12v3h-12zM905 732h3v12h-3zM900 737h12v3h-12zM869 744h3v12h-3zM864 749h12v3h-12zM881 744h3v12h-3zM876 749h12v3h-12zM881 756h3v12h-3zM876 761h12v3h-12zM905 756h3v12h-3zM900 761h12v3h-12zM917 720h3v12h-3zM912 725h12v3h-12zM953 720h3v12h-3zM948 725h12v3h-12zM929 732h3v12h-3zM924 737h12v3h-12zM941 744h3v12h-3zM936 749h12v3h-12zM917 756h3v12h-3zM912 761h12v3h-12zM953 756h3v12h-3zM948 761h12v3h-12zM5 768h3v12h-3zM0 773h12v3h-12zM5 780h3v12h-3zM0 785h12v3h-12zM41 792h3v12h-3zM36 797h12v3h-12zM41 804h3v12h-3zM36 809h12v3h-12zM53 768h3v12h-3zM48 773h12v3h-12zM77 768h3v12h-3zM72 773h12v3h-12zM77 780h3v12h-3zM72 785h12v3h-12zM89 780h3v12h-3zM84 785h12v3h-12zM53 792h3v12h-3zM48 797h12v3h-12zM65 792h3v12h-3zM60 797h12v3h-12zM65 804h3v12h-3zM60 809h12v3h-12zM89 804h3v12h-3zM84 809h12v3h-12zM137 768h3v12h-3zM132 773h12v3h-12zM137 780h3v12h-3zM132 785h12v3h-12zM101 792h3v12h-3zM96 797h12v3h-12zM101 804h3v12h-3zM96 809h12v3h-12zM161 768h3v12h-3zM156 773h12v3h-12zM173 768h3v12h-3zM168 773h12v3h-12zM161 804h3v12h-3zM156 809h12v3h-12zM173 804h3v12h-3zM168 809h12v3h-12zM209 768h3v12h-3zM204 773h12v3h-12zM233 768h3v12h-3zM228 773h12v3h-12zM209 804h3v12h-3zM204 809h12v3h-12zM233 804h3v12h-3zM228 809h12v3h-12zM257 768h3v12h-3zM252 773h12v3h-12zM245 780h3v12h-3zM240 785h12v3h-12zM269 780h3v12h-3zM264 785h12v3h-12zM257 792h3v12h-3zM252 797h12v3h-12zM281 792h3v12h-3zM276 797h12v3h-12zM269 804h3v12h-3zM264 809h12v3h-12zM305 768h3v12h-3zM300 773h12v3h-12zM329 768h3v12h-3zM324 773h12v3h-12zM293 780h3v12h-3zM288 785h12v3h-12zM329 792h3v12h-3zM324 797h12v3h-12zM293 804h3v12h-3zM288 809h12v3h-12zM317 804h3v12h-3zM312 809h12v3h-12zM365 768h3v12h-3zM360 773h12v3h-12zM377 768h3v12h-3zM372 773h12v3h-12zM365 780h3v12h-3zM360 785h12v3h-12zM377 780h3v12h-3zM372 785h12v3h-12zM341 792h3v12h-3zM336 797h12v3h-12zM353 792h3v12h-3zM348 797h12v3h-12zM341 804h3v12h-3zM336 809h12v3h-12zM353 804h3v12h-3zM348 809h12v3h-12zM413 768h3v12h-3zM408 773h12v3h-12zM425 780h3v12h-3zM420 785h12v3h-12zM389 792h3v12h-3zM384 797h12v3h-12zM401 804h3v12h-3zM396 809h12v3h-12zM461 768h3v12h-3zM456 773h12v3h-12zM461 780h3v12h-3zM456 785h12v3h-12zM473 780h3v12h-3zM468 785h12v3h-12zM437 792h3v12h-3zM432 797h12v3h-12zM449 792h3v12h-3zM444 797h12v3h-12zM449 804h3v12h-3zM444 809h12v3h-12zM485 768h3v12h-3zM480 773h12v3h-12zM521 768h3v12h-3zM516 773h12v3h-12zM497 780h3v12h-3zM492 785h12v3h-12zM509 780h3v12h-3zM504 785h12v3h-12zM485 792h3v12h-3zM480 797h12v3h-12zM521 792h3v12h-3zM516 797h12v3h-12zM533 768h3v12h-3zM528 773h12v3h-12zM569 768h3v12h-3zM564 773h12v3h-12zM557 780h3v12h-3zM552 785h12v3h-12zM545 792h3v12h-3zM540 797h12v3h-12zM557 792h3v12h-3zM552 797h12v3h-12zM533 804h3v12h-3zM528 809h12v3h-12zM569 804h3v12h-3zM564 809h12v3h-12zM581 768h3v12h-3zM576 773h12v3h-12zM617 768h3v12h-3zM612 773h12v3h-12zM593 780h3v12h-3zM588 785h12v3h-12zM605 780h3v12h-3zM600 785h12v3h-12zM593 792h3v12h-3zM588 797h12v3h-12zM581 804h3v12h-3zM576 809h12v3h-12zM617 804h3v12h-3zM612 809h12v3h-12zM641 768h3v12h-3zM636 773h12v3h-12zM653 768h3v12h-3zM648 773h12v3h-12zM641 804h3v12h-3zM636 809h12v3h-12zM653 804h3v12h-3zM648 809h12v3h-12zM701 768h3v12h-3zM696 773h12v3h-12zM677 780h3v12h-3zM672 785h12v3h-12zM689 780h3v12h-3zM684 785h12v3h-12zM713 780h3v12h-3zM708 785h12v3h-12zM677 792h3v12h-3zM672 797h12v3h-12zM701 792h3v12h-3zM696 797h12v3h-12zM713 792h3v12h-3zM708 797h12v3h-12zM689 804h3v12h-3zM684 809h12v3h-12zM737 768h3v12h-3zM732 773h12v3h-12zM761 768h3v12h-3zM756 773h12v3h-12zM749 780h3v12h-3zM744 785h12v3h-12zM749 792h3v12h-3zM744 797h12v3h-12zM737 804h3v12h-3zM732 809h12v3h-12zM761 804h3v12h-3zM756 809h12v3h-12zM773 780h3v12h-3zM768 785h12v3h-12zM785 780h3v12h-3zM780 785h12v3h-12zM773 792h3v12h-3zM768 797h12v3h-12zM809 792h3v12h-3zM804 797h12v3h-12zM833 768h3v12h-3zM828 773h12v3h-12zM857 768h3v12h-3zM852 773h12v3h-12zM821 780h3v12h-3zM816 785h12v3h-12zM857 792h3v12h-3zM852 797h12v3h-12zM821 804h3v12h-3zM816 809h12v3h-12zM845 804h3v12h-3zM840 809h12v3h-12zM869 768h3v12h-3zM864 773h12v3h-12zM905 768h3v12h-3zM900 773h12v3h-12zM881 780h3v12h-3zM876 785h12v3h-12zM893 780h3v12h-3zM888 785h12v3h-12zM869 804h3v12h-3zM864 809h12v3h-12zM905 804h3v12h-3zM900 809h12v3h-12zM917 768h3v12h-3zM912 773h12v3h-12zM929 768h3v12h-3zM924 773h12v3h-12zM941 804h3v12h-3zM936 809h12v3h-12zM953 804h3v12h-3zM948 809h12v3h-12zM5 816h3v12h-3zM0 821h12v3h-12zM41 816h3v12h-3zM36 821h12v3h-12zM17 828h3v12h-3zM12 833h12v3h-12zM29 828h3v12h-3zM24 833h12v3h-12zM5 852h3v12h-3zM0 857h12v3h-12zM41 852h3v12h-3zM36 857h12v3h-12zM53 816h3v12h-3zM48 821h12v3h-12zM89 816h3v12h-3zM84 821h12v3h-12zM65 828h3v12h-3zM60 833h12v3h-12zM77 828h3v12h-3zM72 833h12v3h-12zM53 852h3v12h-3zM48 857h12v3h-12zM89 852h3v12h-3zM84 857h12v3h-12zM113 816h3v12h-3zM108 821h12v3h-12zM137 816h3v12h-3zM132 821h12v3h-12zM101 828h3v12h-3zM96 833h12v3h-12zM137 840h3v12h-3zM132 845h12v3h-12zM101 852h3v12h-3zM96 857h12v3h-12zM125 852h3v12h-3zM120 857h12v3h-12zM149 816h3v12h-3zM144 821h12v3h-12zM185 816h3v12h-3zM180 821h12v3h-12zM161 828h3v12h-3zM156 833h12v3h-12zM173 828h3v12h-3zM168 833h12v3h-12zM161 840h3v12h-3zM156 845h12v3h-12zM173 840h3v12h-3zM168 845h12v3h-12zM149 852h3v12h-3zM144 857h12v3h-12zM185 852h3v12h-3zM180 857h12v3h-12zM197 816h3v12h-3zM192 821h12v3h-12zM233 816h3v12h-3zM228 821h12v3h-12zM221 828h3v12h-3zM216 833h12v3h-12zM209 840h3v12h-3zM204 845h12v3h-12zM221 840h3v12h-3zM216 845h12v3h-12zM197 852h3v12h-3zM192 857h12v3h-12zM233 852h3v12h-3zM228 857h12v3h-12zM257 816h3v12h-3zM252 821h12v3h-12zM281 816h3v12h-3zM276 821h12v3h-12zM245 828h3v12h-3zM240 833h12v3h-12zM257 828h3v12h-3zM252 833h12v3h-12zM269 840h3v12h-3zM264 845h12v3h-12zM281 840h3v12h-3zM276 845h12v3h-12zM245 852h3v12h-3zM240 857h12v3h-12zM269 852h3v12h-3zM264 857h12v3h-12zM293 816h3v12h-3zM288 821h12v3h-12zM329 816h3v12h-3zM324 821h12v3h-12zM293 852h3v12h-3zM288 857h12v3h-12zM329 852h3v12h-3zM324 857h12v3h-12zM341 816h3v12h-3zM336 821h12v3h-12zM377 816h3v12h-3zM372 821h12v3h-12zM353 828h3v12h-3zM348 833h12v3h-12zM365 828h3v12h-3zM360 833h12v3h-12zM341 840h3v12h-3zM336 845h12v3h-12zM377 840h3v12h-3zM372 845h12v3h-12zM413 816h3v12h-3zM408 821h12v3h-12zM389 828h3v12h-3zM384 833h12v3h-12zM401 828h3v12h-3zM396 833h12v3h-12zM425 828h3v12h-3zM420 833h12v3h-12zM389 840h3v12h-3zM384 845h12v3h-12zM413 840h3v12h-3zM408 845h12v3h-12zM425 840h3v12h-3zM420 845h12v3h-12zM401 852h3v12h-3zM396 857h12v3h-12zM449 816h3v12h-3zM444 821h12v3h-12zM473 816h3v12h-3zM468 821h12v3h-12zM449 852h3v12h-3zM444 857h12v3h-12zM473 852h3v12h-3zM468 857h12v3h-12zM485 816h3v12h-3zM480 821h12v3h-12zM521 816h3v12h-3zM516 821h12v3h-12zM497 828h3v12h-3zM492 833h12v3h-12zM509 828h3v12h-3zM504 833h12v3h-12zM485 840h3v12h-3zM480 845h12v3h-12zM521 840h3v12h-3zM516 845h12v3h-12zM533 816h3v12h-3zM528 821h12v3h-12zM569 816h3v12h-3zM564 821h12v3h-12zM533 852h3v12h-3zM528 857h12v3h-12zM569 852h3v12h-3zM564 857h12v3h-12zM581 816h3v12h-3zM576 821h12v3h-12zM617 816h3v12h-3zM612 821h12v3h-12zM605 828h3v12h-3zM600 833h12v3h-12zM593 840h3v12h-3zM588 845h12v3h-12zM605 840h3v12h-3zM600 845h12v3h-12zM581 852h3v12h-3zM576 857h12v3h-12zM617 852h3v12h-3zM612 857h12v3h-12zM641 816h3v12h-3zM636 821h12v3h-12zM665 816h3v12h-3zM660 821h12v3h-12zM641 852h3v12h-3zM636 857h12v3h-12zM665 852h3v12h-3zM660 857h12v3h-12zM701 816h3v12h-3zM696 821h12v3h-12zM689 828h3v12h-3zM684 833h12v3h-12zM713 828h3v12h-3zM708 833h12v3h-12zM677 840h3v12h-3zM672 845h12v3h-12zM701 840h3v12h-3zM696 845h12v3h-12zM689 852h3v12h-3zM684 857h12v3h-12zM725 816h3v12h-3zM720 821h12v3h-12zM737 828h3v12h-3zM732 833h12v3h-12zM749 840h3v12h-3zM744 845h12v3h-12zM761 852h3v12h-3zM756 857h12v3h-12zM785 816h3v12h-3zM780 821h12v3h-12zM773 828h3v12h-3zM768 833h12v3h-12zM797 828h3v12h-3zM792 833h12v3h-12zM785 840h3v12h-3zM780 845h12v3h-12zM809 840h3v12h-3zM804 845h12v3h-12zM797 852h3v12h-3zM792 857h12v3h-12zM833 816h3v12h-3zM828 821h12v3h-12zM845 840h3v12h-3zM840 845h12v3h-12zM833 852h3v12h-3zM828 857h12v3h-12zM845 852h3v12h-3zM840 857h12v3h-12zM869 816h3v12h-3zM864 821h12v3h-12zM905 816h3v12h-3zM900 821h12v3h-12zM881 828h3v12h-3zM876 833h12v3h-12zM893 828h3v12h-3zM888 833h12v3h-12zM893 840h3v12h-3zM888 845h12v3h-12zM869 852h3v12h-3zM864 857h12v3h-12zM905 852h3v12h-3zM900 857h12v3h-12zM917 816h3v12h-3zM912 821h12v3h-12zM953 816h3v12h-3zM948 821h12v3h-12zM941 828h3v12h-3zM936 833h12v3h-12zM929 840h3v12h-3zM924 845h12v3h-12zM941 840h3v12h-3zM936 845h12v3h-12zM917 852h3v12h-3zM912 857h12v3h-12zM953 852h3v12h-3zM948 857h12v3h-12zM5 864h3v12h-3zM0 869h12v3h-12zM17 876h3v12h-3zM12 881h12v3h-12zM29 888h3v12h-3zM24 893h12v3h-12zM41 900h3v12h-3zM36 905h12v3h-12zM65 864h3v12h-3zM60 869h12v3h-12zM77 864h3v12h-3zM72 869h12v3h-12zM77 876h3v12h-3zM72 881h12v3h-12zM65 900h3v12h-3zM60 905h12v3h-12zM101 864h3v12h-3zM96 869h12v3h-12zM137 864h3v12h-3zM132 869h12v3h-12zM113 876h3v12h-3zM108 881h12v3h-12zM125 888h3v12h-3zM120 893h12v3h-12zM101 900h3v12h-3zM96 905h12v3h-12zM137 900h3v12h-3zM132 905h12v3h-12zM149 864h3v12h-3zM144 869h12v3h-12zM185 864h3v12h-3zM180 869h12v3h-12zM161 876h3v12h-3zM156 881h12v3h-12zM173 876h3v12h-3zM168 881h12v3h-12zM149 900h3v12h-3zM144 905h12v3h-12zM185 900h3v12h-3zM180 905h12v3h-12zM221 864h3v12h-3zM216 869h12v3h-12zM209 876h3v12h-3zM204 881h12v3h-12zM233 876h3v12h-3zM228 881h12v3h-12zM197 888h3v12h-3zM192 893h12v3h-12zM221 888h3v12h-3zM216 893h12v3h-12zM209 900h3v12h-3zM204 905h12v3h-12zM245 864h3v12h-3zM240 869h12v3h-12zM269 864h3v12h-3zM264 869h12v3h-12zM281 864h3v12h-3zM276 869h12v3h-12zM257 876h3v12h-3zM252 881h12v3h-12zM281 876h3v12h-3zM276 881h12v3h-12zM269 888h3v12h-3zM264 893h12v3h-12zM281 900h3v12h-3zM276 905h12v3h-12zM305 864h3v12h-3zM300 869h12v3h-12zM317 864h3v12h-3zM312 869h12v3h-12zM305 900h3v12h-3zM300 905h12v3h-12zM317 900h3v12h-3zM312 905h12v3h-12zM353 864h3v12h-3zM348 869h12v3h-12zM377 864h3v12h-3zM372 869h12v3h-12zM341 876h3v12h-3zM336 881h12v3h-12zM365 876h3v12h-3zM360 881h12v3h-12zM353 888h3v12h-3zM348 893h12v3h-12zM377 888h3v12h-3zM372 893h12v3h-12zM341 900h3v12h-3zM336 905h12v3h-12zM365 900h3v12h-3zM360 905h12v3h-12zM389 876h3v12h-3zM384 881h12v3h-12zM425 876h3v12h-3zM420 881h12v3h-12zM389 888h3v12h-3zM384 893h12v3h-12zM425 888h3v12h-3zM420 893h12v3h-12zM449 864h3v12h-3zM444 869h12v3h-12zM461 864h3v12h-3zM456 869h12v3h-12zM461 876h3v12h-3zM456 881h12v3h-12zM449 900h3v12h-3zM444 905h12v3h-12zM521 864h3v12h-3zM516 869h12v3h-12zM509 876h3v12h-3zM504 881h12v3h-12zM497 888h3v12h-3zM492 893h12v3h-12zM485 900h3v12h-3zM480 905h12v3h-12zM533 864h3v12h-3zM528 869h12v3h-12zM569 864h3v12h-3zM564 869h12v3h-12zM545 876h3v12h-3zM540 881h12v3h-12zM557 876h3v12h-3zM552 881h12v3h-12zM533 888h3v12h-3zM528 893h12v3h-12zM569 888h3v12h-3zM564 893h12v3h-12zM605 864h3v12h-3zM600 869h12v3h-12zM617 864h3v12h-3zM612 869h12v3h-12zM605 876h3v12h-3zM600 881h12v3h-12zM617 876h3v12h-3zM612 881h12v3h-12zM581 888h3v12h-3zM576 893h12v3h-12zM593 888h3v12h-3zM588 893h12v3h-12zM581 900h3v12h-3zM576 905h12v3h-12zM593 900h3v12h-3zM588 905h12v3h-12zM641 864h3v12h-3zM636 869h12v3h-12zM629 876h3v12h-3zM624 881h12v3h-12zM653 876h3v12h-3zM648 881h12v3h-12zM641 888h3v12h-3zM636 893h12v3h-12zM665 888h3v12h-3zM660 893h12v3h-12zM653 900h3v12h-3zM648 905h12v3h-12zM689 864h3v12h-3zM684 869h12v3h-12zM701 864h3v12h-3zM696 869h12v3h-12zM677 876h3v12h-3zM672 881h12v3h-12zM701 876h3v12h-3zM696 881h12v3h-12zM689 888h3v12h-3zM684 893h12v3h-12zM713 888h3v12h-3zM708 893h12v3h-12zM689 900h3v12h-3zM684 905h12v3h-12zM701 900h3v12h-3zM696 905h12v3h-12zM725 876h3v12h-3zM720 881h12v3h-12zM737 876h3v12h-3zM732 881h12v3h-12zM725 888h3v12h-3zM720 893h12v3h-12zM761 888h3v12h-3zM756 893h12v3h-12zM809 864h3v12h-3zM804 869h12v3h-12zM809 876h3v12h-3zM804 881h12v3h-12zM773 888h3v12h-3zM768 893h12v3h-12zM773 900h3v12h-3zM768 905h12v3h-12zM839 882h3v12h-3zM834 887h12v3h-12zM893 864h3v12h-3zM888 869h12v3h-12zM905 864h3v12h-3zM900 869h12v3h-12zM869 900h3v12h-3zM864 905h12v3h-12zM881 900h3v12h-3zM876 905h12v3h-12zM917 864h3v12h-3zM912 869h12v3h-12zM929 876h3v12h-3zM924 881h12v3h-12zM917 888h3v12h-3zM912 893h12v3h-12zM941 888h3v12h-3zM936 893h12v3h-12zM917 900h3v12h-3zM912 905h12v3h-12zM929 900h3v12h-3zM924 905h12v3h-12zM953 900h3v12h-3zM948 905h12v3h-12zM23 930h3v12h-3zM18 935h12v3h-12zM65 912h3v12h-3zM60 917h12v3h-12zM77 936h3v12h-3zM72 941h12v3h-12zM65 948h3v12h-3zM60 953h12v3h-12zM77 948h3v12h-3zM72 953h12v3h-12zM113 912h3v12h-3zM108 917h12v3h-12zM137 912h3v12h-3zM132 917h12v3h-12zM101 924h3v12h-3zM96 929h12v3h-12zM113 924h3v12h-3zM108 929h12v3h-12zM125 936h3v12h-3zM120 941h12v3h-12zM137 936h3v12h-3zM132 941h12v3h-12zM101 948h3v12h-3zM96 953h12v3h-12zM125 948h3v12h-3zM120 953h12v3h-12zM173 912h3v12h-3zM168 917h12v3h-12zM173 924h3v12h-3zM168 929h12v3h-12zM185 924h3v12h-3zM180 929h12v3h-12zM149 936h3v12h-3zM144 941h12v3h-12zM161 936h3v12h-3zM156 941h12v3h-12zM161 948h3v12h-3zM156 953h12v3h-12zM209 912h3v12h-3zM204 917h12v3h-12zM197 924h3v12h-3zM192 929h12v3h-12zM221 924h3v12h-3zM216 929h12v3h-12zM233 924h3v12h-3zM228 929h12v3h-12zM197 936h3v12h-3zM192 941h12v3h-12zM209 936h3v12h-3zM204 941h12v3h-12zM233 936h3v12h-3zM228 941h12v3h-12zM221 948h3v12h-3zM216 953h12v3h-12zM269 912h3v12h-3zM264 917h12v3h-12zM245 924h3v12h-3zM240 929h12v3h-12zM257 924h3v12h-3zM252 929h12v3h-12zM281 924h3v12h-3zM276 929h12v3h-12zM245 936h3v12h-3zM240 941h12v3h-12zM269 936h3v12h-3zM264 941h12v3h-12zM281 936h3v12h-3zM276 941h12v3h-12zM257 948h3v12h-3zM252 953h12v3h-12zM293 912h3v12h-3zM288 917h12v3h-12zM329 912h3v12h-3zM324 917h12v3h-12zM305 924h3v12h-3zM300 929h12v3h-12zM317 924h3v12h-3zM312 929h12v3h-12zM305 936h3v12h-3zM300 941h12v3h-12zM317 936h3v12h-3zM312 941h12v3h-12zM293 948h3v12h-3zM288 953h12v3h-12zM329 948h3v12h-3zM324 953h12v3h-12zM365 912h3v12h-3zM360 917h12v3h-12zM377 924h3v12h-3zM372 929h12v3h-12zM341 936h3v12h-3zM336 941h12v3h-12zM353 948h3v12h-3zM348 953h12v3h-12zM413 912h3v12h-3zM408 917h12v3h-12zM425 912h3v12h-3zM420 917h12v3h-12zM389 948h3v12h-3zM384 953h12v3h-12zM401 948h3v12h-3zM396 953h12v3h-12zM449 912h3v12h-3zM444 917h12v3h-12zM437 924h3v12h-3zM432 929h12v3h-12zM461 924h3v12h-3zM456 929h12v3h-12zM473 924h3v12h-3zM468 929h12v3h-12zM437 936h3v12h-3zM432 941h12v3h-12zM449 936h3v12h-3zM444 941h12v3h-12zM473 936h3v12h-3zM468 941h12v3h-12zM461 948h3v12h-3zM456 953h12v3h-12zM485 912h3v12h-3zM480 917h12v3h-12zM509 912h3v12h-3zM504 917h12v3h-12zM509 924h3v12h-3zM504 929h12v3h-12zM521 924h3v12h-3zM516 929h12v3h-12zM485 936h3v12h-3zM480 941h12v3h-12zM497 936h3v12h-3zM492 941h12v3h-12zM497 948h3v12h-3zM492 953h12v3h-12zM521 948h3v12h-3zM516 953h12v3h-12zM545 912h3v12h-3zM540 917h12v3h-12zM569 912h3v12h-3zM564 917h12v3h-12zM533 924h3v12h-3zM528 929h12v3h-12zM545 924h3v12h-3zM540 929h12v3h-12zM557 936h3v12h-3zM552 941h12v3h-12zM569 936h3v12h-3zM564 941h12v3h-12zM533 948h3v12h-3zM528 953h12v3h-12zM557 948h3v12h-3zM552 953h12v3h-12zM593 912h3v12h-3zM588 917h12v3h-12zM581 924h3v12h-3zM576 929h12v3h-12zM605 924h3v12h-3zM600 929h12v3h-12zM593 936h3v12h-3zM588 941h12v3h-12zM617 936h3v12h-3zM612 941h12v3h-12zM605 948h3v12h-3zM600 953h12v3h-12zM629 912h3v12h-3zM624 917h12v3h-12zM665 912h3v12h-3zM660 917h12v3h-12zM641 924h3v12h-3zM636 929h12v3h-12zM653 936h3v12h-3zM648 941h12v3h-12zM629 948h3v12h-3zM624 953h12v3h-12zM665 948h3v12h-3zM660 953h12v3h-12zM677 912h3v12h-3zM672 917h12v3h-12zM701 912h3v12h-3zM696 917h12v3h-12zM701 924h3v12h-3zM696 929h12v3h-12zM713 924h3v12h-3zM708 929h12v3h-12zM677 936h3v12h-3zM672 941h12v3h-12zM689 936h3v12h-3zM684 941h12v3h-12zM689 948h3v12h-3zM684 953h12v3h-12zM713 948h3v12h-3zM708 953h12v3h-12zM725 924h3v12h-3zM720 929h12v3h-12zM761 924h3v12h-3zM756 929h12v3h-12zM725 936h3v12h-3zM720 941h12v3h-12zM737 936h3v12h-3zM732 941h12v3h-12zM773 912h3v12h-3zM768 917h12v3h-12zM785 912h3v12h-3zM780 917h12v3h-12zM797 948h3v12h-3zM792 953h12v3h-12zM809 948h3v12h-3zM804 953h12v3h-12zM845 912h3v12h-3zM840 917h12v3h-12zM857 912h3v12h-3zM852 917h12v3h-12zM845 924h3v12h-3zM840 929h12v3h-12zM857 924h3v12h-3zM852 929h12v3h-12zM821 936h3v12h-3zM816 941h12v3h-12zM833 936h3v12h-3zM828 941h12v3h-12zM821 948h3v12h-3zM816 953h12v3h-12zM833 948h3v12h-3zM828 953h12v3h-12zM881 912h3v12h-3zM876 917h12v3h-12zM869 924h3v12h-3zM864 929h12v3h-12zM905 936h3v12h-3zM900 941h12v3h-12zM893 948h3v12h-3zM888 953h12v3h-12zM917 912h3v12h-3zM912 917h12v3h-12zM929 912h3v12h-3zM924 917h12v3h-12zM953 912h3v12h-3zM948 917h12v3h-12zM917 924h3v12h-3zM912 929h12v3h-12zM941 924h3v12h-3zM936 929h12v3h-12zM929 936h3v12h-3zM924 941h12v3h-12zM917 948h3v12h-3zM912 953h12v3h-12zM525 228h6v24h-6zM516 237h24v6h-24zM333 36h6v24h-6zM324 45h24v6h-24zM717 132h6v24h-6zM708 141h24v6h-24zM45 132h6v24h-6zM36 141h24v6h-24zM237 324h6v24h-6zM228 333h24v6h-24zM909 228h6v24h-6zM900 237h24v6h-24zM525 420h6v24h-6zM516 429h24v6h-24zM717 228h6v24h-6zM708 237h24v6h-24z"/><path fill="#fff" d="M384 0h96v96h-96zM384 96h96v96h-96zM384 192h96v96h-96zM384 288h96v96h-96zM288 288h96v96h-96zM384 384h96v96h-96zM192 288h96v96h-96zM96 288h96v96h-96zM0 288h96v96h-96zM0 192h96v96h-96zM96 192h96v96h-96zM96 96h96v96h-96zM96 0h96v96h-96zM192 0h96v96h-96zM192 96h96v96h-96zM192 192h96v96h-96zM288 192h96v96h-96zM384 864h96v96h-96zM384 768h96v96h-96zM384 672h96v96h-96zM384 576h96v96h-96zM288 576h96v96h-96zM384 480h96v96h-96zM192 576h96v96h-96zM96 576h96v96h-96zM0 576h96v96h-96zM0 672h96v96h-96zM96 672h96v96h-96zM96 768h96v96h-96zM96 864h96v96h-96zM192 864h96v96h-96zM192 768h96v96h-96zM192 672h96v96h-96zM288 672h96v96h-96zM480 0h96v96h-96zM480 96h96v96h-96zM480 192h96v96h-96zM480 288h96v96h-96zM576 288h96v96h-96zM480 384h96v96h-96zM672 288h96v96h-96zM768 288h96v96h-96zM864 288h96v96h-96zM864 192h96v96h-96zM768 192h96v96h-96zM768 96h96v96h-96zM768 0h96v96h-96zM672 0h96v96h-96zM672 96h96v96h-96zM672 192h96v96h-96zM576 192h96v96h-96zM480 864h96v96h-96zM480 768h96v96h-96zM480 672h96v96h-96zM480 576h96v96h-96zM576 576h96v96h-96zM480 480h96v96h-96zM672 576h96v96h-96zM768 576h96v96h-96zM864 576h96v96h-96zM864 672h96v96h-96zM768 672h96v96h-96zM768 768h96v96h-96zM768 864h96v96h-96zM672 864h96v96h-96zM672 768h96v96h-96zM672 672h96v96h-96zM576 672h96v96h-96z"/></svg>