<svg xmlns="http://www.w3.org/2000/svg" width="960" height="960" viewBox="0 0 960 960" shape-rendering="crispEdges"><path fill="#fff" d="M0 0h960v960h-960z"/><path fill="#ed8b64" d="M0 0h96v96h-96zM0 192h96v96h-96zM0 384h96v96h-96zM0 576h96v96h-96zM0 768h96v96h-96zM96 96h96v96h-96zM96 288h96v96h-96zM96 480h96v96h-96zM96 672h96v96h-96zM96 864h96v96h-96zM192 0h96v96h-96zM192 192h96v96h-96zM192 384h96v96h-96zM192 576h96v96h-96zM192 768h96v96h-96zM288 96h96v96h-96zM288 288h96v96h-96zM288 480h96v96h-96zM288 672h96v96h-96zM288 864h96v96h-96zM384 0h96v96h-96zM384 192h96v96h-96zM384 384h96v96h-96zM384 576h96v96h-96zM384 768h96v96h-96zM480 96h96v96h-96zM480 288h96v96h-96zM480 480h96v96h-96zM480 672h96v96h-96zM480 864h96v96h-96zM576 0h96v96h-96zM576 192h96v96h-96zM576 384h96v96h-96zM576 576h96v96h-96zM576 768h96v96h-96zM672 96h96v96h-96zM672 288h96v96h-96zM672 480h96v96h-96zM672 672h96v96h-96zM672 864h96v96h-96zM768 0h96v96h-96zM768 192h96v96h-96zM768 384h96v96h-96zM768 576h96v96h-96zM768 768h96v96h-96zM864 96h96v96h-96zM864 288h96v96h-96zM864 480h96v96h-96zM864 672h96v96h-96zM864 864h96v96h-96z"/><path fill="#902323" d="M78 6h12v12h-12zM54 30h12v12h-12zM30 54h12v12h-12zM6 78h12v12h-12zM102 6h12v12h-12zM174 6h12v12h-12zM126 54h12v12h-12zM150 54h12v12h-12zM102 78h12v12h-12zM174 78h12v12h-12zM246 6h12v12h-12zM270 6h12v12h-12zM198 78h12v12h-12zM222 78h12v12h-12zM366 6h12v12h-12zM366 30h12v12h-12zM294 54h12v12h-12zM294 78h12v12h-12zM414 6h12v12h-12zM462 6h12v12h-12zM390 30h12v12h-12zM414 30h12v12h-12zM438 54h12v12h-12zM462 54h12v12h-12zM390 78h12v12h-12zM438 78h12v12h-12zM630 6h12v12h-12zM654 6h12v12h-12zM582 78h12v12h-12zM606 78h12v12h-12zM774 6h12v12h-12zM846 6h12v12h-12zM798 30h12v12h-12zM822 30h12v12h-12zM774 54h12v12h-12zM846 54h12v12h-12zM54 102h12v12h-12zM78 102h12v12h-12zM6 174h12v12h-12zM30 174h12v12h-12zM102 102h12v12h-12zM174 102h12v12h-12zM102 174h12v12h-12zM174 174h12v12h-12zM246 102h12v12h-12zM222 126h12v12h-12zM270 126h12v12h-12zM198 150h12v12h-12zM246 150h12v12h-12zM222 174h12v12h-12zM294 126h12v12h-12zM366 126h12v12h-12zM294 150h12v12h-12zM318 150h12v12h-12zM438 102h12v12h-12zM390 126h12v12h-12zM414 126h12v12h-12zM462 126h12v12h-12zM390 150h12v12h-12zM438 150h12v12h-12zM462 150h12v12h-12zM414 174h12v12h-12zM30 198h12v12h-12zM78 198h12v12h-12zM6 222h12v12h-12zM30 222h12v12h-12zM54 246h12v12h-12zM78 246h12v12h-12zM6 270h12v12h-12zM54 270h12v12h-12zM102 198h12v12h-12zM174 198h12v12h-12zM102 246h12v12h-12zM174 246h12v12h-12zM222 198h12v12h-12zM198 222h12v12h-12zM246 222h12v12h-12zM222 246h12v12h-12zM270 246h12v12h-12zM246 270h12v12h-12zM318 198h12v12h-12zM342 198h12v12h-12zM318 270h12v12h-12zM342 270h12v12h-12zM462 198h12v12h-12zM438 222h12v12h-12zM414 246h12v12h-12zM462 246h12v12h-12zM390 270h12v12h-12zM438 270h12v12h-12zM462 270h12v12h-12zM630 198h12v12h-12zM654 198h12v12h-12zM582 270h12v12h-12zM606 270h12v12h-12zM774 198h12v12h-12zM846 198h12v12h-12zM774 246h12v12h-12zM846 246h12v12h-12zM486 294h12v12h-12zM510 318h12v12h-12zM534 342h12v12h-12zM558 366h12v12h-12zM606 294h12v12h-12zM630 294h12v12h-12zM606 366h12v12h-12zM630 366h12v12h-12zM678 294h12v12h-12zM750 294h12v12h-12zM702 318h12v12h-12zM726 318h12v12h-12zM702 342h12v12h-12zM678 366h12v12h-12zM750 366h12v12h-12zM774 294h12v12h-12zM798 318h12v12h-12zM822 342h12v12h-12zM846 366h12v12h-12zM918 294h12v12h-12zM894 318h12v12h-12zM942 318h12v12h-12zM870 342h12v12h-12zM918 342h12v12h-12zM894 366h12v12h-12zM30 390h12v12h-12zM6 414h12v12h-12zM30 414h12v12h-12zM54 438h12v12h-12zM78 438h12v12h-12zM54 462h12v12h-12zM198 390h12v12h-12zM270 390h12v12h-12zM222 414h12v12h-12zM246 414h12v12h-12zM222 438h12v12h-12zM198 462h12v12h-12zM270 462h12v12h-12zM390 390h12v12h-12zM438 390h12v12h-12zM438 414h12v12h-12zM462 414h12v12h-12zM390 438h12v12h-12zM414 438h12v12h-12zM414 462h12v12h-12zM462 462h12v12h-12zM510 390h12v12h-12zM558 390h12v12h-12zM486 414h12v12h-12zM510 414h12v12h-12zM534 438h12v12h-12zM558 438h12v12h-12zM486 462h12v12h-12zM534 462h12v12h-12zM618 426h12v12h-12zM702 390h12v12h-12zM678 414h12v12h-12zM750 438h12v12h-12zM726 462h12v12h-12zM774 390h12v12h-12zM822 390h12v12h-12zM798 414h12v12h-12zM846 414h12v12h-12zM774 438h12v12h-12zM822 438h12v12h-12zM798 462h12v12h-12zM846 462h12v12h-12zM870 414h12v12h-12zM894 414h12v12h-12zM870 438h12v12h-12zM942 438h12v12h-12zM486 486h12v12h-12zM558 486h12v12h-12zM510 510h12v12h-12zM534 510h12v12h-12zM510 534h12v12h-12zM534 534h12v12h-12zM486 558h12v12h-12zM558 558h12v12h-12zM618 522h12v12h-12zM678 486h12v12h-12zM750 486h12v12h-12zM702 510h12v12h-12zM726 510h12v12h-12zM726 534h12v12h-12zM678 558h12v12h-12zM750 558h12v12h-12zM846 630h12v12h-12zM798 486h12v12h-12zM822 486h12v12h-12zM798 510h12v12h-12zM846 510h12v12h-12zM774 534h12v12h-12zM822 534h12v12h-12zM798 558h12v12h-12zM822 558h12v12h-12zM894 486h12v12h-12zM870 510h12v12h-12zM894 510h12v12h-12zM918 534h12v12h-12zM942 534h12v12h-12zM918 558h12v12h-12zM6 582h12v12h-12zM78 582h12v12h-12zM30 606h12v12h-12zM54 606h12v12h-12zM30 630h12v12h-12zM6 654h12v12h-12zM78 654h12v12h-12zM102 606h12v12h-12zM126 606h12v12h-12zM102 630h12v12h-12zM174 630h12v12h-12zM198 582h12v12h-12zM270 582h12v12h-12zM198 654h12v12h-12zM270 654h12v12h-12zM318 582h12v12h-12zM342 582h12v12h-12zM294 606h12v12h-12zM342 606h12v12h-12zM318 630h12v12h-12zM366 630h12v12h-12zM318 654h12v12h-12zM342 654h12v12h-12zM414 582h12v12h-12zM462 582h12v12h-12zM390 606h12v12h-12zM438 606h12v12h-12zM414 630h12v12h-12zM462 630h12v12h-12zM390 654h12v12h-12zM438 654h12v12h-12zM606 582h12v12h-12zM654 582h12v12h-12zM606 654h12v12h-12zM654 654h12v12h-12zM774 582h12v12h-12zM798 582h12v12h-12zM822 654h12v12h-12zM846 654h12v12h-12zM30 678h12v12h-12zM54 678h12v12h-12zM30 750h12v12h-12zM54 750h12v12h-12zM102 678h12v12h-12zM174 678h12v12h-12zM126 702h12v12h-12zM150 726h12v12h-12zM102 750h12v12h-12zM174 750h12v12h-12zM198 678h12v12h-12zM270 678h12v12h-12zM222 702h12v12h-12zM222 726h12v12h-12zM246 726h12v12h-12zM198 750h12v12h-12zM270 750h12v12h-12zM342 678h12v12h-12zM318 702h12v12h-12zM366 702h12v12h-12zM294 726h12v12h-12zM342 726h12v12h-12zM318 750h12v12h-12zM390 702h12v12h-12zM462 702h12v12h-12zM390 726h12v12h-12zM414 726h12v12h-12zM6 774h12v12h-12zM78 774h12v12h-12zM54 798h12v12h-12zM30 822h12v12h-12zM6 846h12v12h-12zM78 846h12v12h-12zM102 774h12v12h-12zM174 774h12v12h-12zM126 822h12v12h-12zM150 822h12v12h-12zM102 846h12v12h-12zM174 846h12v12h-12zM198 774h12v12h-12zM270 774h12v12h-12zM222 798h12v12h-12zM246 798h12v12h-12zM222 822h12v12h-12zM198 846h12v12h-12zM270 846h12v12h-12zM318 774h12v12h-12zM294 798h12v12h-12zM366 822h12v12h-12zM342 846h12v12h-12zM462 774h12v12h-12zM462 798h12v12h-12zM390 822h12v12h-12zM390 846h12v12h-12zM606 774h12v12h-12zM582 798h12v12h-12zM606 798h12v12h-12zM630 822h12v12h-12zM654 822h12v12h-12zM630 846h12v12h-12zM798 774h12v12h-12zM774 798h12v12h-12zM822 798h12v12h-12zM798 822h12v12h-12zM846 822h12v12h-12zM822 846h12v12h-12zM30 870h12v12h-12zM6 894h12v12h-12zM54 894h12v12h-12zM30 918h12v12h-12zM78 918h12v12h-12zM54 942h12v12h-12zM126 870h12v12h-12zM174 870h12v12h-12zM150 894h12v12h-12zM150 918h12v12h-12zM126 942h12v12h-12zM174 942h12v12h-12zM222 870h12v12h-12zM198 894h12v12h-12zM270 918h12v12h-12zM246 942h12v12h-12zM294 870h12v12h-12zM342 870h12v12h-12zM342 894h12v12h-12zM366 894h12v12h-12zM294 918h12v12h-12zM318 918h12v12h-12zM318 942h12v12h-12zM366 942h12v12h-12zM438 870h12v12h-12zM414 894h12v12h-12zM462 894h12v12h-12zM390 918h12v12h-12zM438 918h12v12h-12zM414 942h12v12h-12zM318 294h12v12h-12zM294 318h12v12h-12zM342 318h12v12h-12zM318 342h12v12h-12zM366 342h12v12h-12zM342 366h12v12h-12zM222 294h12v12h-12zM198 318h12v12h-12zM246 318h12v12h-12zM222 342h12v12h-12zM270 342h12v12h-12zM246 366h12v12h-12zM606 870h12v12h-12zM582 894h12v12h-12zM606 894h12v12h-12zM630 918h12v12h-12zM654 918h12v12h-12zM630 942h12v12h-12zM702 678h12v12h-12zM678 702h12v12h-12zM702 702h12v12h-12zM726 726h12v12h-12zM750 726h12v12h-12zM726 750h12v12h-12zM6 510h12v12h-12zM30 510h12v12h-12zM6 534h12v12h-12zM78 534h12v12h-12zM102 414h12v12h-12zM126 414h12v12h-12zM102 438h12v12h-12zM174 438h12v12h-12zM918 198h12v12h-12zM894 222h12v12h-12zM942 222h12v12h-12zM870 246h12v12h-12zM918 246h12v12h-12zM894 270h12v12h-12zM606 678h12v12h-12zM654 678h12v12h-12zM606 750h12v12h-12zM654 750h12v12h-12zM198 510h12v12h-12zM222 510h12v12h-12zM198 534h12v12h-12zM270 534h12v12h-12z"/><path fill="#000" d="M96 168h24v24h-24zM120 192h24v24h-24zM144 216h24v24h-24zM168 240h24v24h-24zM192 264h24v24h-24zM168 288h24v24h-24zM144 312h24v24h-24zM192 288h24v24h-24zM192 312h24v24h-24zM192 336h24v24h-24zM192 360h24v24h-24zM168 360h24v24h-24zM168 336h24v24h-24zM168 312h24v24h-24zM168 264h24v24h-24zM168 216h24v24h-24zM120 216h24v24h-24zM96 216h24v24h-24zM72 216h24v24h-24zM48 216h24v24h-24zM72 240h24v24h-24zM96 264h24v24h-24zM120 288h24v24h-24zM216 384h24v24h-24zM216 360h24v24h-24zM216 336h24v24h-24zM216 312h24v24h-24zM216 288h24v24h-24zM216 264h24v24h-24zM216 240h24v24h-24zM216 216h24v24h-24zM216 192h24v24h-24zM216 168h24v24h-24zM216 144h24v24h-24zM216 120h24v24h-24zM192 96h24v24h-24zM168 72h24v24h-24zM240 144h24v24h-24zM264 168h24v24h-24zM288 192h24v24h-24zM312 216h24v24h-24zM312 192h24v24h-24zM264 192h24v24h-24zM240 192h24v24h-24zM192 192h24v24h-24zM168 192h24v24h-24zM144 192h24v24h-24zM120 336h24v24h-24zM120 360h24v24h-24zM120 384h24v24h-24zM120 408h24v24h-24zM120 432h24v24h-24zM120 456h24v24h-24zM120 312h24v24h-24zM120 264h24v24h-24zM120 240h24v24h-24zM120 168h24v24h-24zM120 144h24v24h-24zM120 120h24v24h-24zM120 96h24v24h-24zM120 72h24v24h-24zM120 48h24v24h-24zM120 24h24v24h-24zM120 0h24v24h-24zM144 24h24v24h-24zM168 48h24v24h-24zM192 72h24v24h-24zM216 96h24v24h-24zM240 120h24v24h-24zM264 144h24v24h-24zM288 168h24v24h-24zM240 216h24v24h-24zM96 360h24v24h-24zM72 384h24v24h-24zM72 408h24v24h-24zM72 432h24v24h-24zM72 456h24v24h-24zM96 432h24v24h-24zM144 384h24v24h-24zM240 288h24v24h-24zM264 264h24v24h-24zM288 240h24v24h-24zM336 192h24v24h-24zM360 168h24v24h-24zM384 144h24v24h-24zM360 144h24v24h-24zM336 144h24v24h-24zM312 144h24v24h-24zM288 144h24v24h-24zM192 144h24v24h-24zM168 144h24v24h-24zM144 144h24v24h-24zM168 168h24v24h-24zM240 240h24v24h-24zM288 288h24v24h-24zM312 312h24v24h-24zM336 336h24v24h-24zM336 312h24v24h-24zM336 288h24v24h-24zM336 264h24v24h-24zM336 240h24v24h-24zM336 216h24v24h-24zM336 168h24v24h-24zM336 120h24v24h-24zM336 96h24v24h-24zM336 72h24v24h-24zM336 48h24v24h-24zM336 24h24v24h-24zM336 0h24v24h-24zM312 24h24v24h-24zM288 48h24v24h-24zM264 72h24v24h-24zM240 96h24v24h-24zM168 120h24v24h-24zM144 96h24v24h-24zM96 48h24v24h-24zM96 72h24v24h-24zM96 96h24v24h-24zM360 192h24v24h-24zM384 192h24v24h-24zM384 216h24v24h-24zM384 240h24v24h-24zM384 264h24v24h-24zM384 288h24v24h-24zM384 312h24v24h-24zM384 336h24v24h-24zM408 312h24v24h-24zM432 288h24v24h-24zM432 264h24v24h-24zM432 240h24v24h-24zM432 216h24v24h-24zM432 192h24v24h-24zM432 168h24v24h-24zM432 144h24v24h-24zM432 120h24v24h-24zM432 96h24v24h-24zM432 72h24v24h-24zM432 48h24v24h-24zM432 24h24v24h-24zM408 24h24v24h-24zM384 24h24v24h-24zM360 24h24v24h-24zM288 24h24v24h-24zM264 24h24v24h-24zM240 24h24v24h-24zM216 24h24v24h-24zM240 48h24v24h-24zM288 96h24v24h-24zM312 120h24v24h-24zM312 168h24v24h-24zM240 168h24v24h-24zM240 264h24v24h-24zM240 312h24v24h-24zM240 336h24v24h-24zM240 360h24v24h-24zM240 384h24v24h-24zM192 384h24v24h-24zM168 384h24v24h-24zM96 384h24v24h-24zM72 360h24v24h-24zM72 336h24v24h-24zM72 312h24v24h-24zM72 288h24v24h-24zM72 264h24v24h-24zM72 192h24v24h-24zM72 168h24v24h-24zM72 144h24v24h-24zM72 120h24v24h-24zM72 96h24v24h-24zM72 72h24v24h-24zM72 48h24v24h-24zM72 24h24v24h-24zM72 0h24v24h-24zM96 768h24v24h-24zM120 744h24v24h-24zM144 720h24v24h-24zM168 696h24v24h-24zM192 672h24v24h-24zM168 648h24v24h-24zM144 624h24v24h-24zM192 648h24v24h-24zM192 624h24v24h-24zM192 600h24v24h-24zM192 576h24v24h-24zM168 576h24v24h-24zM168 600h24v24h-24zM168 624h24v24h-24zM168 672h24v24h-24zM168 720h24v24h-24zM120 720h24v24h-24zM96 720h24v24h-24zM72 720h24v24h-24zM48 720h24v24h-24zM72 696h24v24h-24zM96 672h24v24h-24zM120 648h24v24h-24zM216 552h24v24h-24zM216 576h24v24h-24zM216 600h24v24h-24zM216 624h24v24h-24zM216 648h24v24h-24zM216 672h24v24h-24zM216 696h24v24h-24zM216 720h24v24h-24zM216 744h24v24h-24zM216 768h24v24h-24zM216 792h24v24h-24zM216 816h24v24h-24zM192 840h24v24h-24zM168 864h24v24h-24zM240 792h24v24h-24zM264 768h24v24h-24zM288 744h24v24h-24zM312 720h24v24h-24zM312 744h24v24h-24zM264 744h24v24h-24zM240 744h24v24h-24zM192 744h24v24h-24zM168 744h24v24h-24zM144 744h24v24h-24zM120 600h24v24h-24zM120 576h24v24h-24zM120 552h24v24h-24zM120 528h24v24h-24zM120 504h24v24h-24zM120 480h24v24h-24zM120 624h24v24h-24zM120 672h24v24h-24zM120 696h24v24h-24zM120 768h24v24h-24zM120 792h24v24h-24zM120 816h24v24h-24zM120 840h24v24h-24zM120 864h24v24h-24zM120 888h24v24h-24zM120 912h24v24h-24zM120 936h24v24h-24zM144 912h24v24h-24zM168 888h24v24h-24zM192 864h24v24h-24zM216 840h24v24h-24zM240 816h24v24h-24zM264 792h24v24h-24zM288 768h24v24h-24zM240 720h24v24h-24zM96 576h24v24h-24zM72 552h24v24h-24zM72 528h24v24h-24zM72 504h24v24h-24zM72 480h24v24h-24zM96 504h24v24h-24zM144 552h24v24h-24zM240 648h24v24h-24zM264 672h24v24h-24zM288 696h24v24h-24zM336 744h24v24h-24zM360 768h24v24h-24zM384 792h24v24h-24zM360 792h24v24h-24zM336 792h24v24h-24zM312 792h24v24h-24zM288 792h24v24h-24zM192 792h24v24h-24zM168 792h24v24h-24zM144 792h24v24h-24zM168 768h24v24h-24zM240 696h24v24h-24zM288 648h24v24h-24zM312 624h24v24h-24zM336 600h24v24h-24zM336 624h24v24h-24zM336 648h24v24h-24zM336 672h24v24h-24zM336 696h24v24h-24zM336 720h24v24h-24zM336 768h24v24h-24zM336 816h24v24h-24zM336 840h24v24h-24zM336 864h24v24h-24zM336 888h24v24h-24zM336 912h24v24h-24zM336 936h24v24h-24zM312 912h24v24h-24zM288 888h24v24h-24zM264 864h24v24h-24zM240 840h24v24h-24zM168 816h24v24h-24zM144 840h24v24h-24zM96 888h24v24h-24zM96 864h24v24h-24zM96 840h24v24h-24zM360 744h24v24h-24zM384 744h24v24h-24zM384 720h24v24h-24zM384 696h24v24h-24zM384 672h24v24h-24zM384 648h24v24h-24zM384 624h24v24h-24zM384 600h24v24h-24zM408 624h24v24h-24zM432 648h24v24h-24zM432 672h24v24h-24zM432 696h24v24h-24zM432 720h24v24h-24zM432 744h24v24h-24zM432 768h24v24h-24zM432 792h24v24h-24zM432 816h24v24h-24zM432 840h24v24h-24zM432 864h24v24h-24zM432 888h24v24h-24zM432 912h24v24h-24zM408 912h24v24h-24zM384 912h24v24h-24zM360 912h24v24h-24zM288 912h24v24h-24zM264 912h24v24h-24zM240 912h24v24h-24zM216 912h24v24h-24zM240 888h24v24h-24zM288 840h24v24h-24zM312 816h24v24h-24zM312 768h24v24h-24zM240 768h24v24h-24zM240 672h24v24h-24zM240 624h24v24h-24zM240 600h24v24h-24zM240 576h24v24h-24zM240 552h24v24h-24zM192 552h24v24h-24zM168 552h24v24h-24zM96 552h24v24h-24zM72 576h24v24h-24zM72 600h24v24h-24zM72 624h24v24h-24zM72 648h24v24h-24zM72 672h24v24h-24zM72 744h24v24h-24zM72 768h24v24h-24zM72 792h24v24h-24zM72 816h24v24h-24zM72 840h24v24h-24zM72 864h24v24h-24zM72 888h24v24h-24zM72 912h24v24h-24zM72 936h24v24h-24zM840 168h24v24h-24zM816 192h24v24h-24zM792 216h24v24h-24zM768 240h24v24h-24zM744 264h24v24h-24zM768 288h24v24h-24zM792 312h24v24h-24zM744 288h24v24h-24zM744 312h24v24h-24zM744 336h24v24h-24zM744 360h24v24h-24zM768 360h24v24h-24zM768 336h24v24h-24zM768 312h24v24h-24zM768 264h24v24h-24zM768 216h24v24h-24zM816 216h24v24h-24zM840 216h24v24h-24zM864 216h24v24h-24zM888 216h24v24h-24zM864 240h24v24h-24zM840 264h24v24h-24zM816 288h24v24h-24zM720 384h24v24h-24zM720 360h24v24h-24zM720 336h24v24h-24zM720 312h24v24h-24zM720 288h24v24h-24zM720 264h24v24h-24zM720 240h24v24h-24zM720 216h24v24h-24zM720 192h24v24h-24zM720 168h24v24h-24zM720 144h24v24h-24zM720 120h24v24h-24zM744 96h24v24h-24zM768 72h24v24h-24zM696 144h24v24h-24zM672 168h24v24h-24zM648 192h24v24h-24zM624 216h24v24h-24zM624 192h24v24h-24zM672 192h24v24h-24zM696 192h24v24h-24zM744 192h24v24h-24zM768 192h24v24h-24zM792 192h24v24h-24zM816 336h24v24h-24zM816 360h24v24h-24zM816 384h24v24h-24zM816 408h24v24h-24zM816 432h24v24h-24zM816 456h24v24h-24zM816 312h24v24h-24zM816 264h24v24h-24zM816 240h24v24h-24zM816 168h24v24h-24zM816 144h24v24h-24zM816 120h24v24h-24zM816 96h24v24h-24zM816 72h24v24h-24zM816 48h24v24h-24zM816 24h24v24h-24zM816 0h24v24h-24zM792 24h24v24h-24zM768 48h24v24h-24zM744 72h24v24h-24zM720 96h24v24h-24zM696 120h24v24h-24zM672 144h24v24h-24zM648 168h24v24h-24zM696 216h24v24h-24zM840 360h24v24h-24zM864 384h24v24h-24zM864 408h24v24h-24zM864 432h24v24h-24zM864 456h24v24h-24zM840 432h24v24h-24zM792 384h24v24h-24zM696 288h24v24h-24zM672 264h24v24h-24zM648 240h24v24h-24zM600 192h24v24h-24zM576 168h24v24h-24zM552 144h24v24h-24zM576 144h24v24h-24zM600 144h24v24h-24zM624 144h24v24h-24zM648 144h24v24h-24zM744 144h24v24h-24zM768 144h24v24h-24zM792 144h24v24h-24zM768 168h24v24h-24zM696 240h24v24h-24zM648 288h24v24h-24zM624 312h24v24h-24zM600 336h24v24h-24zM600 312h24v24h-24zM600 288h24v24h-24zM600 264h24v24h-24zM600 240h24v24h-24zM600 216h24v24h-24zM600 168h24v24h-24zM600 120h24v24h-24zM600 96h24v24h-24zM600 72h24v24h-24zM600 48h24v24h-24zM600 24h24v24h-24zM600 0h24v24h-24zM624 24h24v24h-24zM648 48h24v24h-24zM672 72h24v24h-24zM696 96h24v24h-24zM768 120h24v24h-24zM792 96h24v24h-24zM840 48h24v24h-24zM840 72h24v24h-24zM840 96h24v24h-24zM576 192h24v24h-24zM552 192h24v24h-24zM552 216h24v24h-24zM552 240h24v24h-24zM552 264h24v24h-24zM552 288h24v24h-24zM552 312h24v24h-24zM552 336h24v24h-24zM528 312h24v24h-24zM504 288h24v24h-24zM504 264h24v24h-24zM504 240h24v24h-24zM504 216h24v24h-24zM504 192h24v24h-24zM504 168h24v24h-24zM504 144h24v24h-24zM504 120h24v24h-24zM504 96h24v24h-24zM504 72h24v24h-24zM504 48h24v24h-24zM504 24h24v24h-24zM528 24h24v24h-24zM552 24h24v24h-24zM576 24h24v24h-24zM648 24h24v24h-24zM672 24h24v24h-24zM696 24h24v24h-24zM720 24h24v24h-24zM696 48h24v24h-24zM648 96h24v24h-24zM624 120h24v24h-24zM624 168h24v24h-24zM696 168h24v24h-24zM696 264h24v24h-24zM696 312h24v24h-24zM696 336h24v24h-24zM696 360h24v24h-24zM696 384h24v24h-24zM744 384h24v24h-24zM768 384h24v24h-24zM840 384h24v24h-24zM864 360h24v24h-24zM864 336h24v24h-24zM864 312h24v24h-24zM864 288h24v24h-24zM864 264h24v24h-24zM864 192h24v24h-24zM864 168h24v24h-24zM864 144h24v24h-24zM864 120h24v24h-24zM864 96h24v24h-24zM864 72h24v24h-24zM864 48h24v24h-24zM864 24h24v24h-24zM864 0h24v24h-24zM840 768h24v24h-24zM816 744h24v24h-24zM792 720h24v24h-24zM768 696h24v24h-24zM744 672h24v24h-24zM768 648h24v24h-24zM792 624h24v24h-24zM744 648h24v24h-24zM744 624h24v24h-24zM744 600h24v24h-24zM744 576h24v24h-24zM768 576h24v24h-24zM768 600h24v24h-24zM768 624h24v24h-24zM768 672h24v24h-24zM768 720h24v24h-24zM816 720h24v24h-24zM840 720h24v24h-24zM864 720h24v24h-24zM888 720h24v24h-24zM864 696h24v24h-24zM840 672h24v24h-24zM816 648h24v24h-24zM720 552h24v24h-24zM720 576h24v24h-24zM720 600h24v24h-24zM720 624h24v24h-24zM720 648h24v24h-24zM720 672h24v24h-24zM720 696h24v24h-24zM720 720h24v24h-24zM720 744h24v24h-24zM720 768h24v24h-24zM720 792h24v24h-24zM720 816h24v24h-24zM744 840h24v24h-24zM768 864h24v24h-24zM696 792h24v24h-24zM672 768h24v24h-24zM648 744h24v24h-24zM624 720h24v24h-24zM624 744h24v24h-24zM672 744h24v24h-24zM696 744h24v24h-24zM744 744h24v24h-24zM768 744h24v24h-24zM792 744h24v24h-24zM816 600h24v24h-24zM816 576h24v24h-24zM816 552h24v24h-24zM816 528h24v24h-24zM816 504h24v24h-24zM816 480h24v24h-24zM816 624h24v24h-24zM816 672h24v24h-24zM816 696h24v24h-24zM816 768h24v24h-24zM816 792h24v24h-24zM816 816h24v24h-24zM816 840h24v24h-24zM816 864h24v24h-24zM816 888h24v24h-24zM816 912h24v24h-24zM816 936h24v24h-24zM792 912h24v24h-24zM768 888h24v24h-24zM744 864h24v24h-24zM720 840h24v24h-24zM696 816h24v24h-24zM672 792h24v24h-24zM648 768h24v24h-24zM696 720h24v24h-24zM840 576h24v24h-24zM864 552h24v24h-24zM864 528h24v24h-24zM864 504h24v24h-24zM864 480h24v24h-24zM840 504h24v24h-24zM792 552h24v24h-24zM696 648h24v24h-24zM672 672h24v24h-24zM648 696h24v24h-24zM600 744h24v24h-24zM576 768h24v24h-24zM552 792h24v24h-24zM576 792h24v24h-24zM600 792h24v24h-24zM624 792h24v24h-24zM648 792h24v24h-24zM744 792h24v24h-24zM768 792h24v24h-24zM792 792h24v24h-24zM768 768h24v24h-24zM696 696h24v24h-24zM648 648h24v24h-24zM624 624h24v24h-24zM600 600h24v24h-24zM600 624h24v24h-24zM600 648h24v24h-24zM600 672h24v24h-24zM600 696h24v24h-24zM600 720h24v24h-24zM600 768h24v24h-24zM600 816h24v24h-24zM600 840h24v24h-24zM600 864h24v24h-24zM600 888h24v24h-24zM600 912h24v24h-24zM600 936h24v24h-24zM624 912h24v24h-24zM648 888h24v24h-24zM672 864h24v24h-24zM696 840h24v24h-24zM768 816h24v24h-24zM792 840h24v24h-24zM840 888h24v24h-24zM840 864h24v24h-24zM840 840h24v24h-24zM576 744h24v24h-24zM552 744h24v24h-24zM552 720h24v24h-24zM552 696h24v24h-24zM552 672h24v24h-24zM552 648h24v24h-24zM552 624h24v24h-24zM552 600h24v24h-24zM528 624h24v24h-24zM504 648h24v24h-24zM504 672h24v24h-24zM504 696h24v24h-24zM504 720h24v24h-24zM504 744h24v24h-24zM504 768h24v24h-24zM504 792h24v24h-24zM504 816h24v24h-24zM504 840h24v24h-24zM504 864h24v24h-24zM504 888h24v24h-24zM504 912h24v24h-24zM528 912h24v24h-24zM552 912h24v24h-24zM576 912h24v24h-24zM648 912h24v24h-24zM672 912h24v24h-24zM696 912h24v24h-24zM720 912h24v24h-24zM696 888h24v24h-24zM648 840h24v24h-24zM624 816h24v24h-24zM624 768h24v24h-24zM696 768h24v24h-24zM696 672h24v24h-24zM696 624h24v24h-24zM696 600h24v24h-24zM696 576h24v24h-24zM696 552h24v24h-24zM744 552h24v24h-24zM768 552h24v24h-24zM840 552h24v24h-24zM864 576h24v24h-24zM864 600h24v24h-24zM864 624h24v24h-24zM864 648h24v24h-24zM864 672h24v24h-24zM864 744h24v24h-24zM864 768h24v24h-24zM864 792h24v24h-24zM864 816h24v24h-24zM864 840h24v24h-24zM864 864h24v24h-24zM864 888h24v24h-24zM864 912h24v24h-24zM864 936h24v24h-24z"/></svg>