<svg xmlns="http://www.w3.org/2000/svg" width="960" height="960" viewBox="0 0 960 960" shape-rendering="crispEdges"><path fill="#000" d="M0 0h960v960h-960z"/><path fill="#fefbe7" d="M0 516h12v12h-12zM0 600h12v12h-12zM0 684h12v12h-12zM0 768h12v12h-12zM0 852h12v12h-12zM0 936h12v12h-12zM12 516h12v12h-12zM12 600h12v12h-12zM12 684h12v12h-12zM12 768h12v12h-12zM12 852h12v12h-12zM12 936h12v12h-12zM24 516h12v12h-12zM24 600h12v12h-12zM24 684h12v12h-12zM24 768h12v12h-12zM24 852h12v12h-12zM24 936h12v12h-12zM36 516h12v12h-12zM36 600h12v12h-12zM36 684h12v12h-12zM36 768h12v12h-12zM36 852h12v12h-12zM36 936h12v12h-12zM48 516h12v12h-12zM48 600h12v12h-12zM48 684h12v12h-12zM48 768h12v12h-12zM48 852h12v12h-12zM48 936h12v12h-12zM60 516h12v12h-12zM60 600h12v12h-12zM60 684h12v12h-12zM60 768h12v12h-12zM60 852h12v12h-12zM60 936h12v12h-12zM72 516h12v12h-12zM72 600h12v12h-12zM72 684h12v12h-12zM72 768h12v12h-12zM72 852h12v12h-12zM72 936h12v12h-12zM84 516h12v12h-12zM84 600h12v12h-12zM84 684h12v12h-12zM84 768h12v12h-12zM84 852h12v12h-12zM84 936h12v12h-12zM96 516h12v12h-12zM96 600h12v12h-12zM96 684h12v12h-12zM96 768h12v12h-12zM96 852h12v12h-12zM96 936h12v12h-12zM108 516h12v12h-12zM108 600h12v12h-12zM108 684h12v12h-12zM108 768h12v12h-12zM108 852h12v12h-12zM108 936h12v12h-12zM120 516h12v12h-12zM120 600h12v12h-12zM120 684h12v12h-12zM120 768h12v12h-12zM120 852h12v12h-12zM120 936h12v12h-12zM132 516h12v12h-12zM132 600h12v12h-12zM132 684h12v12h-12zM132 768h12v12h-12zM132 852h12v12h-12zM132 936h12v12h-12zM144 516h12v12h-12zM144 600h12v12h-12zM144 684h12v12h-12zM144 768h12v12h-12zM144 852h12v12h-12zM144 936h12v12h-12zM156 516h12v12h-12zM156 600h12v12h-12zM156 684h12v12h-12zM156 768h12v12h-12zM156 852h12v12h-12zM156 936h12v12h-12zM168 516h12v12h-12zM168 600h12v12h-12zM168 684h12v12h-12zM168 768h12v12h-12zM168 852h12v12h-12zM168 936h12v12h-12zM180 516h12v12h-12zM180 600h12v12h-12zM180 684h12v12h-12zM180 768h12v12h-12zM180 852h12v12h-12zM180 936h12v12h-12zM192 516h12v12h-12zM192 600h12v12h-12zM192 684h12v12h-12zM192 768h12v12h-12zM192 852h12v12h-12zM192 936h12v12h-12zM204 516h12v12h-12zM204 600h12v12h-12zM204 684h12v12h-12zM204 768h12v12h-12zM204 852h12v12h-12zM204 936h12v12h-12zM216 516h12v12h-12zM216 600h12v12h-12zM216 684h12v12h-12zM216 768h12v12h-12zM216 852h12v12h-12zM216 936h12v12h-12zM228 516h12v12h-12zM228 600h12v12h-12zM228 684h12v12h-12zM228 768h12v12h-12zM228 852h12v12h-12zM228 936h12v12h-12zM240 516h12v12h-12zM240 600h12v12h-12zM240 684h12v12h-12zM240 768h12v12h-12zM240 852h12v12h-12zM240 936h12v12h-12zM252 516h12v12h-12zM252 600h12v12h-12zM252 684h12v12h-12zM252 768h12v12h-12zM252 852h12v12h-12zM252 936h12v12h-12zM264 516h12v12h-12zM264 600h12v12h-12zM264 684h12v12h-12zM264 768h12v12h-12zM264 852h12v12h-12zM264 936h12v12h-12zM276 516h12v12h-12zM276 600h12v12h-12zM276 684h12v12h-12zM276 768h12v12h-12zM276 852h12v12h-12zM276 936h12v12h-12zM288 516h12v12h-12zM288 600h12v12h-12zM288 684h12v12h-12zM288 768h12v12h-12zM288 852h12v12h-12zM288 936h12v12h-12zM300 516h12v12h-12zM300 600h12v12h-12zM300 684h12v12h-12zM300 768h12v12h-12zM300 852h12v12h-12zM300 936h12v12h-12zM312 516h12v12h-12zM312 600h12v12h-12zM312 684h12v12h-12zM312 768h12v12h-12zM312 852h12v12h-12zM312 936h12v12h-12zM324 516h12v12h-12zM324 600h12v12h-12zM324 684h12v12h-12zM324 768h12v12h-12zM324 852h12v12h-12zM324 936h12v12h-12zM336 516h12v12h-12zM336 600h12v12h-12zM336 684h12v12h-12zM336 768h12v12h-12zM336 852h12v12h-12zM336 936h12v12h-12zM348 516h12v12h-12zM348 600h12v12h-12zM348 684h12v12h-12zM348 768h12v12h-12zM348 852h12v12h-12zM348 936h12v12h-12zM360 516h12v12h-12zM360 600h12v12h-12zM360 684h12v12h-12zM360 768h12v12h-12zM360 852h12v12h-12zM360 936h12v12h-12zM372 516h12v12h-12zM372 600h12v12h-12zM372 684h12v12h-12zM372 768h12v12h-12zM372 852h12v12h-12zM372 936h12v12h-12zM384 516h12v12h-12zM384 600h12v12h-12zM384 684h12v12h-12zM384 768h12v12h-12zM384 852h12v12h-12zM384 936h12v12h-12zM396 516h12v12h-12zM396 600h12v12h-12zM396 684h12v12h-12zM396 768h12v12h-12zM396 852h12v12h-12zM396 936h12v12h-12zM408 516h12v12h-12zM408 600h12v12h-12zM408 684h12v12h-12zM408 768h12v12h-12zM408 852h12v12h-12zM408 936h12v12h-12zM420 516h12v12h-12zM420 600h12v12h-12zM420 684h12v12h-12zM420 768h12v12h-12zM420 852h12v12h-12zM420 936h12v12h-12zM432 516h12v12h-12zM432 600h12v12h-12zM432 684h12v12h-12zM432 768h12v12h-12zM432 852h12v12h-12zM432 936h12v12h-12zM444 516h12v12h-12zM444 600h12v12h-12zM444 684h12v12h-12zM444 768h12v12h-12zM444 852h12v12h-12zM444 936h12v12h-12zM456 516h12v12h-12zM456 600h12v12h-12zM456 684h12v12h-12zM456 768h12v12h-12zM456 852h12v12h-12zM456 936h12v12h-12zM468 516h12v12h-12zM468 600h12v12h-12zM468 684h12v12h-12zM468 768h12v12h-12zM468 852h12v12h-12zM468 936h12v12h-12zM480 516h12v12h-12zM480 600h12v12h-12zM480 684h12v12h-12zM480 768h12v12h-12zM480 852h12v12h-12zM480 936h12v12h-12zM492 516h12v12h-12zM492 600h12v12h-12zM492 684h12v12h-12zM492 768h12v12h-12zM492 852h12v12h-12zM492 936h12v12h-12zM504 516h12v12h-12zM504 600h12v12h-12zM504 684h12v12h-12zM504 768h12v12h-12zM504 852h12v12h-12zM504 936h12v12h-12zM516 516h12v12h-12zM516 600h12v12h-12zM516 684h12v12h-12zM516 768h12v12h-12zM516 852h12v12h-12zM516 936h12v12h-12zM528 516h12v12h-12zM528 600h12v12h-12zM528 684h12v12h-12zM528 768h12v12h-12zM528 852h12v12h-12zM528 936h12v12h-12zM540 516h12v12h-12zM540 600h12v12h-12zM540 684h12v12h-12zM540 768h12v12h-12zM540 852h12v12h-12zM540 936h12v12h-12zM552 516h12v12h-12zM552 600h12v12h-12zM552 684h12v12h-12zM552 768h12v12h-12zM552 852h12v12h-12zM552 936h12v12h-12zM564 516h12v12h-12zM564 600h12v12h-12zM564 684h12v12h-12zM564 768h12v12h-12zM564 852h12v12h-12zM564 936h12v12h-12zM576 516h12v12h-12zM576 600h12v12h-12zM576 684h12v12h-12zM576 768h12v12h-12zM576 852h12v12h-12zM576 936h12v12h-12zM588 516h12v12h-12zM588 600h12v12h-12zM588 684h12v12h-12zM588 768h12v12h-12zM588 852h12v12h-12zM588 936h12v12h-12zM600 516h12v12h-12zM600 600h12v12h-12zM600 684h12v12h-12zM600 768h12v12h-12zM600 852h12v12h-12zM600 936h12v12h-12zM612 516h12v12h-12zM612 600h12v12h-12zM612 684h12v12h-12zM612 768h12v12h-12zM612 852h12v12h-12zM612 936h12v12h-12zM624 516h12v12h-12zM624 600h12v12h-12zM624 684h12v12h-12zM624 768h12v12h-12zM624 852h12v12h-12zM624 936h12v12h-12zM636 516h12v12h-12zM636 600h12v12h-12zM636 684h12v12h-12zM636 768h12v12h-12zM636 852h12v12h-12zM636 936h12v12h-12zM648 516h12v12h-12zM648 600h12v12h-12zM648 684h12v12h-12zM648 768h12v12h-12zM648 852h12v12h-12zM648 936h12v12h-12zM660 516h12v12h-12zM660 600h12v12h-12zM660 684h12v12h-12zM660 768h12v12h-12zM660 852h12v12h-12zM660 936h12v12h-12zM672 516h12v12h-12zM672 600h12v12h-12zM672 684h12v12h-12zM672 768h12v12h-12zM672 852h12v12h-12zM672 936h12v12h-12zM684 516h12v12h-12zM684 600h12v12h-12zM684 684h12v12h-12zM684 768h12v12h-12zM684 852h12v12h-12zM684 936h12v12h-12zM696 516h12v12h-12zM696 600h12v12h-12zM696 684h12v12h-12zM696 768h12v12h-12zM696 852h12v12h-12zM696 936h12v12h-12zM708 516h12v12h-12zM708 600h12v12h-12zM708 684h12v12h-12zM708 768h12v12h-12zM708 852h12v12h-12zM708 936h12v12h-12zM720 516h12v12h-12zM720 600h12v12h-12zM720 684h12v12h-12zM720 768h12v12h-12zM720 852h12v12h-12zM720 936h12v12h-12zM732 516h12v12h-12zM732 600h12v12h-12zM732 684h12v12h-12zM732 768h12v12h-12zM732 852h12v12h-12zM732 936h12v12h-12zM744 516h12v12h-12zM744 600h12v12h-12zM744 684h12v12h-12zM744 768h12v12h-12zM744 852h12v12h-12zM744 936h12v12h-12zM756 516h12v12h-12zM756 600h12v12h-12zM756 684h12v12h-12zM756 768h12v12h-12zM756 852h12v12h-12zM756 936h12v12h-12zM768 516h12v12h-12zM768 600h12v12h-12zM768 684h12v12h-12zM768 768h12v12h-12zM768 852h12v12h-12zM768 936h12v12h-12zM780 516h12v12h-12zM780 600h12v12h-12zM780 684h12v12h-12zM780 768h12v12h-12zM780 852h12v12h-12zM780 936h12v12h-12zM792 516h12v12h-12zM792 600h12v12h-12zM792 684h12v12h-12zM792 768h12v12h-12zM792 852h12v12h-12zM792 936h12v12h-12zM804 516h12v12h-12zM804 600h12v12h-12zM804 684h12v12h-12zM804 768h12v12h-12zM804 852h12v12h-12zM804 936h12v12h-12zM816 516h12v12h-12zM816 600h12v12h-12zM816 684h12v12h-12zM816 768h12v12h-12zM816 852h12v12h-12zM816 936h12v12h-12zM828 516h12v12h-12zM828 600h12v12h-12zM828 684h12v12h-12zM828 768h12v12h-12zM828 852h12v12h-12zM828 936h12v12h-12zM840 516h12v12h-12zM840 600h12v12h-12zM840 684h12v12h-12zM840 768h12v12h-12zM840 852h12v12h-12zM840 936h12v12h-12zM852 516h12v12h-12zM852 600h12v12h-12zM852 684h12v12h-12zM852 768h12v12h-12zM852 852h12v12h-12zM852 936h12v12h-12zM864 516h12v12h-12zM864 600h12v12h-12zM864 684h12v12h-12zM864 768h12v12h-12zM864 852h12v12h-12zM864 936h12v12h-12zM876 516h12v12h-12zM876 600h12v12h-12zM876 684h12v12h-12zM876 768h12v12h-12zM876 852h12v12h-12zM876 936h12v12h-12zM888 516h12v12h-12zM888 600h12v12h-12zM888 684h12v12h-12zM888 768h12v12h-12zM888 852h12v12h-12zM888 936h12v12h-12zM900 516h12v12h-12zM900 600h12v12h-12zM900 684h12v12h-12zM900 768h12v12h-12zM900 852h12v12h-12zM900 936h12v12h-12zM912 516h12v12h-12zM912 600h12v12h-12zM912 684h12v12h-12zM912 768h12v12h-12zM912 852h12v12h-12zM912 936h12v12h-12zM924 516h12v12h-12zM924 600h12v12h-12zM924 684h12v12h-12zM924 768h12v12h-12zM924 852h12v12h-12zM924 936h12v12h-12zM936 516h12v12h-12zM936 600h12v12h-12zM936 684h12v12h-12zM936 768h12v12h-12zM936 852h12v12h-12zM936 936h12v12h-12zM948 516h12v12h-12zM948 600h12v12h-12zM948 684h12v12h-12zM948 768h12v12h-12zM948 852h12v12h-12zM948 936h12v12h-12z"/><path fill="#a59e92" d="M5 0h3v12h-3zM0 5h12v3h-12zM41 0h3v12h-3zM36 5h12v3h-12zM17 12h3v12h-3zM12 17h12v3h-12zM29 12h3v12h-3zM24 17h12v3h-12zM5 24h3v12h-3zM0 29h12v3h-12zM41 24h3v12h-3zM36 29h12v3h-12zM65 0h3v12h-3zM60 5h12v3h-12zM53 12h3v12h-3zM48 17h12v3h-12zM77 12h3v12h-3zM72 17h12v3h-12zM65 24h3v12h-3zM60 29h12v3h-12zM89 24h3v12h-3zM84 29h12v3h-12zM77 36h3v12h-3zM72 41h12v3h-12zM113 0h3v12h-3zM108 5h12v3h-12zM125 0h3v12h-3zM120 5h12v3h-12zM125 12h3v12h-3zM120 17h12v3h-12zM113 36h3v12h-3zM108 41h12v3h-12zM149 0h3v12h-3zM144 5h12v3h-12zM173 0h3v12h-3zM168 5h12v3h-12zM185 12h3v12h-3zM180 17h12v3h-12zM149 24h3v12h-3zM144 29h12v3h-12zM161 36h3v12h-3zM156 41h12v3h-12zM185 36h3v12h-3zM180 41h12v3h-12zM233 0h3v12h-3zM228 5h12v3h-12zM221 12h3v12h-3zM216 17h12v3h-12zM209 24h3v12h-3zM204 29h12v3h-12zM197 36h3v12h-3zM192 41h12v3h-12zM269 0h3v12h-3zM264 5h12v3h-12zM257 12h3v12h-3zM252 17h12v3h-12zM281 12h3v12h-3zM276 17h12v3h-12zM245 24h3v12h-3zM240 29h12v3h-12zM269 24h3v12h-3zM264 29h12v3h-12zM257 36h3v12h-3zM252 41h12v3h-12zM293 0h3v12h-3zM288 5h12v3h-12zM317 0h3v12h-3zM312 5h12v3h-12zM305 12h3v12h-3zM300 17h12v3h-12zM329 12h3v12h-3zM324 17h12v3h-12zM293 24h3v12h-3zM288 29h12v3h-12zM317 24h3v12h-3zM312 29h12v3h-12zM305 36h3v12h-3zM300 41h12v3h-12zM329 36h3v12h-3zM324 41h12v3h-12zM341 0h3v12h-3zM336 5h12v3h-12zM377 0h3v12h-3zM372 5h12v3h-12zM353 12h3v12h-3zM348 17h12v3h-12zM365 12h3v12h-3zM360 17h12v3h-12zM341 24h3v12h-3zM336 29h12v3h-12zM377 24h3v12h-3zM372 29h12v3h-12zM413 0h3v12h-3zM408 5h12v3h-12zM389 12h3v12h-3zM384 17h12v3h-12zM401 12h3v12h-3zM396 17h12v3h-12zM425 12h3v12h-3zM420 17h12v3h-12zM389 24h3v12h-3zM384 29h12v3h-12zM413 24h3v12h-3zM408 29h12v3h-12zM425 24h3v12h-3zM420 29h12v3h-12zM401 36h3v12h-3zM396 41h12v3h-12zM437 12h3v12h-3zM432 17h12v3h-12zM473 12h3v12h-3zM468 17h12v3h-12zM437 24h3v12h-3zM432 29h12v3h-12zM473 24h3v12h-3zM468 29h12v3h-12zM485 0h3v12h-3zM480 5h12v3h-12zM509 0h3v12h-3zM504 5h12v3h-12zM521 12h3v12h-3zM516 17h12v3h-12zM485 24h3v12h-3zM480 29h12v3h-12zM497 36h3v12h-3zM492 41h12v3h-12zM521 36h3v12h-3zM516 41h12v3h-12zM581 12h3v12h-3zM576 17h12v3h-12zM617 12h3v12h-3zM612 17h12v3h-12zM581 24h3v12h-3zM576 29h12v3h-12zM593 24h3v12h-3zM588 29h12v3h-12zM677 0h3v12h-3zM672 5h12v3h-12zM713 0h3v12h-3zM708 5h12v3h-12zM689 12h3v12h-3zM684 17h12v3h-12zM701 24h3v12h-3zM696 29h12v3h-12zM677 36h3v12h-3zM672 41h12v3h-12zM713 36h3v12h-3zM708 41h12v3h-12zM797 0h3v12h-3zM792 5h12v3h-12zM785 12h3v12h-3zM780 17h12v3h-12zM809 12h3v12h-3zM804 17h12v3h-12zM773 24h3v12h-3zM768 29h12v3h-12zM797 24h3v12h-3zM792 29h12v3h-12zM785 36h3v12h-3zM780 41h12v3h-12zM869 0h3v12h-3zM864 5h12v3h-12zM893 0h3v12h-3zM888 5h12v3h-12zM905 0h3v12h-3zM900 5h12v3h-12zM881 12h3v12h-3zM876 17h12v3h-12zM905 12h3v12h-3zM900 17h12v3h-12zM893 24h3v12h-3zM888 29h12v3h-12zM905 36h3v12h-3zM900 41h12v3h-12zM5 48h3v12h-3zM0 53h12v3h-12zM29 48h3v12h-3zM24 53h12v3h-12zM29 60h3v12h-3zM24 65h12v3h-12zM41 60h3v12h-3zM36 65h12v3h-12zM5 72h3v12h-3zM0 77h12v3h-12zM17 72h3v12h-3zM12 77h12v3h-12zM17 84h3v12h-3zM12 89h12v3h-12zM41 84h3v12h-3zM36 89h12v3h-12zM65 48h3v12h-3zM60 53h12v3h-12zM53 60h3v12h-3zM48 65h12v3h-12zM77 60h3v12h-3zM72 65h12v3h-12zM89 60h3v12h-3zM84 65h12v3h-12zM53 72h3v12h-3zM48 77h12v3h-12zM65 72h3v12h-3zM60 77h12v3h-12zM89 72h3v12h-3zM84 77h12v3h-12zM77 84h3v12h-3zM72 89h12v3h-12zM101 48h3v12h-3zM96 53h12v3h-12zM113 60h3v12h-3zM108 65h12v3h-12zM101 72h3v12h-3zM96 77h12v3h-12zM125 72h3v12h-3zM120 77h12v3h-12zM101 84h3v12h-3zM96 89h12v3h-12zM113 84h3v12h-3zM108 89h12v3h-12zM137 84h3v12h-3zM132 89h12v3h-12zM161 48h3v12h-3zM156 53h12v3h-12zM173 48h3v12h-3zM168 53h12v3h-12zM161 84h3v12h-3zM156 89h12v3h-12zM173 84h3v12h-3zM168 89h12v3h-12zM221 48h3v12h-3zM216 53h12v3h-12zM221 60h3v12h-3zM216 65h12v3h-12zM233 60h3v12h-3zM228 65h12v3h-12zM197 72h3v12h-3zM192 77h12v3h-12zM209 72h3v12h-3zM204 77h12v3h-12zM209 84h3v12h-3zM204 89h12v3h-12zM257 48h3v12h-3zM252 53h12v3h-12zM245 60h3v12h-3zM240 65h12v3h-12zM281 72h3v12h-3zM276 77h12v3h-12zM269 84h3v12h-3zM264 89h12v3h-12zM305 60h3v12h-3zM300 65h12v3h-12zM317 60h3v12h-3zM312 65h12v3h-12zM305 72h3v12h-3zM300 77h12v3h-12zM317 72h3v12h-3zM312 77h12v3h-12zM341 48h3v12h-3zM336 53h12v3h-12zM377 48h3v12h-3zM372 53h12v3h-12zM365 60h3v12h-3zM360 65h12v3h-12zM353 72h3v12h-3zM348 77h12v3h-12zM341 84h3v12h-3zM336 89h12v3h-12zM377 84h3v12h-3zM372 89h12v3h-12zM389 48h3v12h-3zM384 53h12v3h-12zM425 48h3v12h-3zM420 53h12v3h-12zM401 60h3v12h-3zM396 65h12v3h-12zM413 60h3v12h-3zM408 65h12v3h-12zM401 72h3v12h-3zM396 77h12v3h-12zM389 84h3v12h-3zM384 89h12v3h-12zM425 84h3v12h-3zM420 89h12v3h-12zM461 48h3v12h-3zM456 53h12v3h-12zM473 60h3v12h-3zM468 65h12v3h-12zM437 72h3v12h-3zM432 77h12v3h-12zM449 84h3v12h-3zM444 89h12v3h-12zM17 96h3v12h-3zM12 101h12v3h-12zM29 96h3v12h-3zM24 101h12v3h-12zM29 108h3v12h-3zM24 113h12v3h-12zM17 132h3v12h-3zM12 137h12v3h-12zM53 96h3v12h-3zM48 101h12v3h-12zM65 96h3v12h-3zM60 101h12v3h-12zM53 108h3v12h-3zM48 113h12v3h-12zM65 108h3v12h-3zM60 113h12v3h-12zM77 120h3v12h-3zM72 125h12v3h-12zM89 120h3v12h-3zM84 125h12v3h-12zM77 132h3v12h-3zM72 137h12v3h-12zM89 132h3v12h-3zM84 137h12v3h-12zM137 168h3v12h-3zM132 173h12v3h-12zM113 96h3v12h-3zM108 101h12v3h-12zM125 96h3v12h-3zM120 101h12v3h-12zM113 108h3v12h-3zM108 113h12v3h-12zM137 108h3v12h-3zM132 113h12v3h-12zM101 120h3v12h-3zM96 125h12v3h-12zM125 120h3v12h-3zM120 125h12v3h-12zM113 132h3v12h-3zM108 137h12v3h-12zM125 132h3v12h-3zM120 137h12v3h-12zM149 96h3v12h-3zM144 101h12v3h-12zM185 96h3v12h-3zM180 101h12v3h-12zM149 132h3v12h-3zM144 137h12v3h-12zM185 132h3v12h-3zM180 137h12v3h-12zM221 96h3v12h-3zM216 101h12v3h-12zM221 108h3v12h-3zM216 113h12v3h-12zM233 108h3v12h-3zM228 113h12v3h-12zM197 120h3v12h-3zM192 125h12v3h-12zM209 120h3v12h-3zM204 125h12v3h-12zM209 132h3v12h-3zM204 137h12v3h-12zM281 168h3v12h-3zM276 173h12v3h-12zM257 96h3v12h-3zM252 101h12v3h-12zM269 96h3v12h-3zM264 101h12v3h-12zM257 108h3v12h-3zM252 113h12v3h-12zM281 108h3v12h-3zM276 113h12v3h-12zM245 120h3v12h-3zM240 125h12v3h-12zM269 120h3v12h-3zM264 125h12v3h-12zM257 132h3v12h-3zM252 137h12v3h-12zM269 132h3v12h-3zM264 137h12v3h-12zM329 96h3v12h-3zM324 101h12v3h-12zM317 108h3v12h-3zM312 113h12v3h-12zM305 120h3v12h-3zM300 125h12v3h-12zM329 120h3v12h-3zM324 125h12v3h-12zM293 132h3v12h-3zM288 137h12v3h-12zM317 132h3v12h-3zM312 137h12v3h-12zM329 132h3v12h-3zM324 137h12v3h-12zM341 96h3v12h-3zM336 101h12v3h-12zM365 96h3v12h-3zM360 101h12v3h-12zM377 96h3v12h-3zM372 101h12v3h-12zM353 108h3v12h-3zM348 113h12v3h-12zM377 108h3v12h-3zM372 113h12v3h-12zM365 120h3v12h-3zM360 125h12v3h-12zM377 132h3v12h-3zM372 137h12v3h-12zM389 96h3v12h-3zM384 101h12v3h-12zM425 96h3v12h-3zM420 101h12v3h-12zM401 108h3v12h-3zM396 113h12v3h-12zM413 120h3v12h-3zM408 125h12v3h-12zM389 132h3v12h-3zM384 137h12v3h-12zM425 132h3v12h-3zM420 137h12v3h-12zM437 96h3v12h-3zM432 101h12v3h-12zM473 96h3v12h-3zM468 101h12v3h-12zM437 120h3v12h-3zM432 125h12v3h-12zM473 120h3v12h-3zM468 125h12v3h-12zM497 96h3v12h-3zM492 101h12v3h-12zM521 96h3v12h-3zM516 101h12v3h-12zM497 132h3v12h-3zM492 137h12v3h-12zM521 132h3v12h-3zM516 137h12v3h-12zM581 96h3v12h-3zM576 101h12v3h-12zM593 108h3v12h-3zM588 113h12v3h-12zM581 120h3v12h-3zM576 125h12v3h-12zM605 120h3v12h-3zM600 125h12v3h-12zM581 132h3v12h-3zM576 137h12v3h-12zM593 132h3v12h-3zM588 137h12v3h-12zM617 132h3v12h-3zM612 137h12v3h-12zM677 108h3v12h-3zM672 113h12v3h-12zM713 108h3v12h-3zM708 113h12v3h-12zM677 120h3v12h-3zM672 125h12v3h-12zM689 120h3v12h-3zM684 125h12v3h-12zM797 96h3v12h-3zM792 101h12v3h-12zM809 96h3v12h-3zM804 101h12v3h-12zM797 108h3v12h-3zM792 113h12v3h-12zM809 108h3v12h-3zM804 113h12v3h-12zM773 120h3v12h-3zM768 125h12v3h-12zM785 120h3v12h-3zM780 125h12v3h-12zM773 132h3v12h-3zM768 137h12v3h-12zM785 132h3v12h-3zM780 137h12v3h-12zM869 96h3v12h-3zM864 101h12v3h-12zM893 96h3v12h-3zM888 101h12v3h-12zM881 108h3v12h-3zM876 113h12v3h-12zM905 108h3v12h-3zM900 113h12v3h-12zM869 120h3v12h-3zM864 125h12v3h-12zM893 120h3v12h-3zM888 125h12v3h-12zM881 132h3v12h-3zM876 137h12v3h-12zM905 132h3v12h-3zM900 137h12v3h-12zM5 144h3v12h-3zM0 149h12v3h-12zM17 144h3v12h-3zM12 149h12v3h-12zM29 180h3v12h-3zM24 185h12v3h-12zM41 180h3v12h-3zM36 185h12v3h-12zM53 156h3v12h-3zM48 161h12v3h-12zM89 156h3v12h-3zM84 161h12v3h-12zM53 168h3v12h-3zM48 173h12v3h-12zM89 168h3v12h-3zM84 173h12v3h-12zM113 144h3v12h-3zM108 149h12v3h-12zM125 144h3v12h-3zM120 149h12v3h-12zM125 156h3v12h-3zM120 161h12v3h-12zM113 180h3v12h-3zM108 185h12v3h-12zM161 144h3v12h-3zM156 149h12v3h-12zM185 144h3v12h-3zM180 149h12v3h-12zM161 180h3v12h-3zM156 185h12v3h-12zM185 180h3v12h-3zM180 185h12v3h-12zM197 144h3v12h-3zM192 149h12v3h-12zM233 144h3v12h-3zM228 149h12v3h-12zM209 156h3v12h-3zM204 161h12v3h-12zM221 168h3v12h-3zM216 173h12v3h-12zM197 180h3v12h-3zM192 185h12v3h-12zM233 180h3v12h-3zM228 185h12v3h-12zM245 144h3v12h-3zM240 149h12v3h-12zM269 144h3v12h-3zM264 149h12v3h-12zM281 144h3v12h-3zM276 149h12v3h-12zM257 156h3v12h-3zM252 161h12v3h-12zM281 156h3v12h-3zM276 161h12v3h-12zM269 168h3v12h-3zM264 173h12v3h-12zM281 180h3v12h-3zM276 185h12v3h-12zM293 144h3v12h-3zM288 149h12v3h-12zM317 144h3v12h-3zM312 149h12v3h-12zM329 156h3v12h-3zM324 161h12v3h-12zM293 168h3v12h-3zM288 173h12v3h-12zM305 180h3v12h-3zM300 185h12v3h-12zM329 180h3v12h-3zM324 185h12v3h-12zM353 144h3v12h-3zM348 149h12v3h-12zM365 144h3v12h-3zM360 149h12v3h-12zM353 180h3v12h-3zM348 185h12v3h-12zM365 180h3v12h-3zM360 185h12v3h-12zM401 144h3v12h-3zM396 149h12v3h-12zM413 144h3v12h-3zM408 149h12v3h-12zM401 180h3v12h-3zM396 185h12v3h-12zM413 180h3v12h-3zM408 185h12v3h-12zM437 144h3v12h-3zM432 149h12v3h-12zM461 144h3v12h-3zM456 149h12v3h-12zM473 156h3v12h-3zM468 161h12v3h-12zM437 168h3v12h-3zM432 173h12v3h-12zM449 180h3v12h-3zM444 185h12v3h-12zM473 180h3v12h-3zM468 185h12v3h-12zM17 192h3v12h-3zM12 197h12v3h-12zM5 204h3v12h-3zM0 209h12v3h-12zM29 204h3v12h-3zM24 209h12v3h-12zM17 216h3v12h-3zM12 221h12v3h-12zM41 216h3v12h-3zM36 221h12v3h-12zM29 228h3v12h-3zM24 233h12v3h-12zM53 192h3v12h-3zM48 197h12v3h-12zM89 192h3v12h-3zM84 197h12v3h-12zM65 204h3v12h-3zM60 209h12v3h-12zM77 204h3v12h-3zM72 209h12v3h-12zM65 216h3v12h-3zM60 221h12v3h-12zM77 216h3v12h-3zM72 221h12v3h-12zM53 228h3v12h-3zM48 233h12v3h-12zM89 228h3v12h-3zM84 233h12v3h-12zM113 192h3v12h-3zM108 197h12v3h-12zM137 192h3v12h-3zM132 197h12v3h-12zM125 204h3v12h-3zM120 209h12v3h-12zM125 216h3v12h-3zM120 221h12v3h-12zM113 228h3v12h-3zM108 233h12v3h-12zM137 228h3v12h-3zM132 233h12v3h-12zM149 192h3v12h-3zM144 197h12v3h-12zM185 192h3v12h-3zM180 197h12v3h-12zM161 204h3v12h-3zM156 209h12v3h-12zM173 216h3v12h-3zM168 221h12v3h-12zM149 228h3v12h-3zM144 233h12v3h-12zM185 228h3v12h-3zM180 233h12v3h-12zM197 192h3v12h-3zM192 197h12v3h-12zM233 192h3v12h-3zM228 197h12v3h-12zM209 204h3v12h-3zM204 209h12v3h-12zM221 204h3v12h-3zM216 209h12v3h-12zM221 216h3v12h-3zM216 221h12v3h-12zM197 228h3v12h-3zM192 233h12v3h-12zM233 228h3v12h-3zM228 233h12v3h-12zM257 192h3v12h-3zM252 197h12v3h-12zM269 192h3v12h-3zM264 197h12v3h-12zM257 228h3v12h-3zM252 233h12v3h-12zM269 228h3v12h-3zM264 233h12v3h-12zM329 264h3v12h-3zM324 269h12v3h-12zM305 192h3v12h-3zM300 197h12v3h-12zM317 192h3v12h-3zM312 197h12v3h-12zM305 204h3v12h-3zM300 209h12v3h-12zM329 204h3v12h-3zM324 209h12v3h-12zM293 216h3v12h-3zM288 221h12v3h-12zM317 216h3v12h-3zM312 221h12v3h-12zM305 228h3v12h-3zM300 233h12v3h-12zM317 228h3v12h-3zM312 233h12v3h-12zM341 192h3v12h-3zM336 197h12v3h-12zM377 192h3v12h-3zM372 197h12v3h-12zM365 204h3v12h-3zM360 209h12v3h-12zM353 216h3v12h-3zM348 221h12v3h-12zM341 228h3v12h-3zM336 233h12v3h-12zM377 228h3v12h-3zM372 233h12v3h-12zM389 192h3v12h-3zM384 197h12v3h-12zM425 192h3v12h-3zM420 197h12v3h-12zM401 204h3v12h-3zM396 209h12v3h-12zM413 204h3v12h-3zM408 209h12v3h-12zM401 216h3v12h-3zM396 221h12v3h-12zM389 228h3v12h-3zM384 233h12v3h-12zM425 228h3v12h-3zM420 233h12v3h-12zM455 210h3v12h-3zM450 215h12v3h-12zM497 192h3v12h-3zM492 197h12v3h-12zM485 204h3v12h-3zM480 209h12v3h-12zM521 216h3v12h-3zM516 221h12v3h-12zM509 228h3v12h-3zM504 233h12v3h-12zM581 192h3v12h-3zM576 197h12v3h-12zM617 192h3v12h-3zM612 197h12v3h-12zM581 216h3v12h-3zM576 221h12v3h-12zM617 216h3v12h-3zM612 221h12v3h-12zM713 192h3v12h-3zM708 197h12v3h-12zM713 204h3v12h-3zM708 209h12v3h-12zM677 216h3v12h-3zM672 221h12v3h-12zM677 228h3v12h-3zM672 233h12v3h-12zM785 192h3v12h-3zM780 197h12v3h-12zM797 192h3v12h-3zM792 197h12v3h-12zM773 204h3v12h-3zM768 209h12v3h-12zM797 204h3v12h-3zM792 209h12v3h-12zM785 216h3v12h-3zM780 221h12v3h-12zM809 216h3v12h-3zM804 221h12v3h-12zM785 228h3v12h-3zM780 233h12v3h-12zM797 228h3v12h-3zM792 233h12v3h-12zM869 192h3v12h-3zM864 197h12v3h-12zM905 192h3v12h-3zM900 197h12v3h-12zM869 216h3v12h-3zM864 221h12v3h-12zM905 216h3v12h-3zM900 221h12v3h-12zM29 240h3v12h-3zM24 245h12v3h-12zM5 252h3v12h-3zM0 257h12v3h-12zM17 252h3v12h-3zM12 257h12v3h-12zM41 252h3v12h-3zM36 257h12v3h-12zM5 264h3v12h-3zM0 269h12v3h-12zM29 264h3v12h-3zM24 269h12v3h-12zM41 264h3v12h-3zM36 269h12v3h-12zM17 276h3v12h-3zM12 281h12v3h-12zM53 240h3v12h-3zM48 245h12v3h-12zM89 240h3v12h-3zM84 245h12v3h-12zM65 264h3v12h-3zM60 269h12v3h-12zM77 264h3v12h-3zM72 269h12v3h-12zM53 276h3v12h-3zM48 281h12v3h-12zM89 276h3v12h-3zM84 281h12v3h-12zM101 240h3v12h-3zM96 245h12v3h-12zM113 252h3v12h-3zM108 257h12v3h-12zM101 264h3v12h-3zM96 269h12v3h-12zM125 264h3v12h-3zM120 269h12v3h-12zM101 276h3v12h-3zM96 281h12v3h-12zM113 276h3v12h-3zM108 281h12v3h-12zM137 276h3v12h-3zM132 281h12v3h-12zM149 240h3v12h-3zM144 245h12v3h-12zM185 240h3v12h-3zM180 245h12v3h-12zM161 252h3v12h-3zM156 257h12v3h-12zM173 252h3v12h-3zM168 257h12v3h-12zM161 264h3v12h-3zM156 269h12v3h-12zM173 264h3v12h-3zM168 269h12v3h-12zM149 276h3v12h-3zM144 281h12v3h-12zM185 276h3v12h-3zM180 281h12v3h-12zM209 240h3v12h-3zM204 245h12v3h-12zM233 240h3v12h-3zM228 245h12v3h-12zM209 276h3v12h-3zM204 281h12v3h-12zM233 276h3v12h-3zM228 281h12v3h-12zM245 240h3v12h-3zM240 245h12v3h-12zM257 240h3v12h-3zM252 245h12v3h-12zM281 240h3v12h-3zM276 245h12v3h-12zM245 252h3v12h-3zM240 257h12v3h-12zM269 252h3v12h-3zM264 257h12v3h-12zM257 264h3v12h-3zM252 269h12v3h-12zM245 276h3v12h-3zM240 281h12v3h-12zM317 240h3v12h-3zM312 245h12v3h-12zM317 252h3v12h-3zM312 257h12v3h-12zM329 252h3v12h-3zM324 257h12v3h-12zM293 264h3v12h-3zM288 269h12v3h-12zM305 264h3v12h-3zM300 269h12v3h-12zM305 276h3v12h-3zM300 281h12v3h-12zM341 240h3v12h-3zM336 245h12v3h-12zM377 240h3v12h-3zM372 245h12v3h-12zM353 252h3v12h-3zM348 257h12v3h-12zM365 252h3v12h-3zM360 257h12v3h-12zM353 264h3v12h-3zM348 269h12v3h-12zM341 276h3v12h-3zM336 281h12v3h-12zM377 276h3v12h-3zM372 281h12v3h-12zM425 240h3v12h-3zM420 245h12v3h-12zM413 252h3v12h-3zM408 257h12v3h-12zM401 264h3v12h-3zM396 269h12v3h-12zM389 276h3v12h-3zM384 281h12v3h-12zM437 240h3v12h-3zM432 245h12v3h-12zM473 240h3v12h-3zM468 245h12v3h-12zM461 252h3v12h-3zM456 257h12v3h-12zM449 264h3v12h-3zM444 269h12v3h-12zM461 264h3v12h-3zM456 269h12v3h-12zM437 276h3v12h-3zM432 281h12v3h-12zM473 276h3v12h-3zM468 281h12v3h-12zM5 288h3v12h-3zM0 293h12v3h-12zM41 288h3v12h-3zM36 293h12v3h-12zM17 300h3v12h-3zM12 305h12v3h-12zM17 312h3v12h-3zM12 317h12v3h-12zM29 312h3v12h-3zM24 317h12v3h-12zM5 324h3v12h-3zM0 329h12v3h-12zM41 324h3v12h-3zM36 329h12v3h-12zM71 306h3v12h-3zM66 311h12v3h-12zM101 288h3v12h-3zM96 293h12v3h-12zM137 288h3v12h-3zM132 293h12v3h-12zM113 300h3v12h-3zM108 305h12v3h-12zM125 312h3v12h-3zM120 317h12v3h-12zM101 324h3v12h-3zM96 329h12v3h-12zM137 324h3v12h-3zM132 329h12v3h-12zM173 288h3v12h-3zM168 293h12v3h-12zM161 300h3v12h-3zM156 305h12v3h-12zM185 300h3v12h-3zM180 305h12v3h-12zM149 312h3v12h-3zM144 317h12v3h-12zM173 312h3v12h-3zM168 317h12v3h-12zM161 324h3v12h-3zM156 329h12v3h-12zM197 300h3v12h-3zM192 305h12v3h-12zM233 300h3v12h-3zM228 305h12v3h-12zM197 312h3v12h-3zM192 317h12v3h-12zM233 312h3v12h-3zM228 317h12v3h-12zM269 288h3v12h-3zM264 293h12v3h-12zM269 300h3v12h-3zM264 305h12v3h-12zM281 300h3v12h-3zM276 305h12v3h-12zM245 312h3v12h-3zM240 317h12v3h-12zM257 312h3v12h-3zM252 317h12v3h-12zM257 324h3v12h-3zM252 329h12v3h-12zM293 288h3v12h-3zM288 293h12v3h-12zM305 288h3v12h-3zM300 293h12v3h-12zM293 300h3v12h-3zM288 305h12v3h-12zM305 300h3v12h-3zM300 305h12v3h-12zM317 312h3v12h-3zM312 317h12v3h-12zM329 312h3v12h-3zM324 317h12v3h-12zM317 324h3v12h-3zM312 329h12v3h-12zM329 324h3v12h-3zM324 329h12v3h-12zM341 288h3v12h-3zM336 293h12v3h-12zM377 288h3v12h-3zM372 293h12v3h-12zM353 300h3v12h-3zM348 305h12v3h-12zM365 300h3v12h-3zM360 305h12v3h-12zM341 312h3v12h-3zM336 317h12v3h-12zM377 312h3v12h-3zM372 317h12v3h-12zM401 288h3v12h-3zM396 293h12v3h-12zM425 288h3v12h-3zM420 293h12v3h-12zM389 300h3v12h-3zM384 305h12v3h-12zM425 312h3v12h-3zM420 317h12v3h-12zM389 324h3v12h-3zM384 329h12v3h-12zM413 324h3v12h-3zM408 329h12v3h-12zM473 288h3v12h-3zM468 293h12v3h-12zM473 300h3v12h-3zM468 305h12v3h-12zM437 312h3v12h-3zM432 317h12v3h-12zM437 324h3v12h-3zM432 329h12v3h-12zM509 288h3v12h-3zM504 293h12v3h-12zM521 288h3v12h-3zM516 293h12v3h-12zM485 324h3v12h-3zM480 329h12v3h-12zM497 324h3v12h-3zM492 329h12v3h-12zM605 288h3v12h-3zM600 293h12v3h-12zM581 300h3v12h-3zM576 305h12v3h-12zM593 300h3v12h-3zM588 305h12v3h-12zM617 300h3v12h-3zM612 305h12v3h-12zM581 312h3v12h-3zM576 317h12v3h-12zM605 312h3v12h-3zM600 317h12v3h-12zM617 312h3v12h-3zM612 317h12v3h-12zM593 324h3v12h-3zM588 329h12v3h-12zM689 288h3v12h-3zM684 293h12v3h-12zM713 288h3v12h-3zM708 293h12v3h-12zM701 300h3v12h-3zM696 305h12v3h-12zM701 312h3v12h-3zM696 317h12v3h-12zM689 324h3v12h-3zM684 329h12v3h-12zM713 324h3v12h-3zM708 329h12v3h-12zM785 288h3v12h-3zM780 293h12v3h-12zM773 300h3v12h-3zM768 305h12v3h-12zM809 312h3v12h-3zM804 317h12v3h-12zM797 324h3v12h-3zM792 329h12v3h-12zM869 288h3v12h-3zM864 293h12v3h-12zM905 288h3v12h-3zM900 293h12v3h-12zM881 300h3v12h-3zM876 305h12v3h-12zM893 312h3v12h-3zM888 317h12v3h-12zM869 324h3v12h-3zM864 329h12v3h-12zM905 324h3v12h-3zM900 329h12v3h-12zM5 336h3v12h-3zM0 341h12v3h-12zM41 336h3v12h-3zM36 341h12v3h-12zM17 348h3v12h-3zM12 353h12v3h-12zM29 348h3v12h-3zM24 353h12v3h-12zM17 360h3v12h-3zM12 365h12v3h-12zM29 360h3v12h-3zM24 365h12v3h-12zM5 372h3v12h-3zM0 377h12v3h-12zM41 372h3v12h-3zM36 377h12v3h-12zM77 336h3v12h-3zM72 341h12v3h-12zM89 348h3v12h-3zM84 353h12v3h-12zM53 360h3v12h-3zM48 365h12v3h-12zM65 372h3v12h-3zM60 377h12v3h-12zM113 336h3v12h-3zM108 341h12v3h-12zM125 336h3v12h-3zM120 341h12v3h-12zM113 372h3v12h-3zM108 377h12v3h-12zM125 372h3v12h-3zM120 377h12v3h-12zM149 336h3v12h-3zM144 341h12v3h-12zM185 336h3v12h-3zM180 341h12v3h-12zM149 360h3v12h-3zM144 365h12v3h-12zM185 360h3v12h-3zM180 365h12v3h-12zM221 336h3v12h-3zM216 341h12v3h-12zM233 336h3v12h-3zM228 341h12v3h-12zM221 348h3v12h-3zM216 353h12v3h-12zM233 348h3v12h-3zM228 353h12v3h-12zM197 360h3v12h-3zM192 365h12v3h-12zM209 360h3v12h-3zM204 365h12v3h-12zM197 372h3v12h-3zM192 377h12v3h-12zM209 372h3v12h-3zM204 377h12v3h-12zM281 336h3v12h-3zM276 341h12v3h-12zM281 348h3v12h-3zM276 353h12v3h-12zM245 360h3v12h-3zM240 365h12v3h-12zM245 372h3v12h-3zM240 377h12v3h-12zM305 336h3v12h-3zM300 341h12v3h-12zM293 348h3v12h-3zM288 353h12v3h-12zM317 348h3v12h-3zM312 353h12v3h-12zM329 348h3v12h-3zM324 353h12v3h-12zM293 360h3v12h-3zM288 365h12v3h-12zM305 360h3v12h-3zM300 365h12v3h-12zM329 360h3v12h-3zM324 365h12v3h-12zM317 372h3v12h-3zM312 377h12v3h-12zM365 336h3v12h-3zM360 341h12v3h-12zM365 348h3v12h-3zM360 353h12v3h-12zM377 348h3v12h-3zM372 353h12v3h-12zM341 360h3v12h-3zM336 365h12v3h-12zM353 360h3v12h-3zM348 365h12v3h-12zM353 372h3v12h-3zM348 377h12v3h-12zM413 336h3v12h-3zM408 341h12v3h-12zM401 348h3v12h-3zM396 353h12v3h-12zM425 348h3v12h-3zM420 353h12v3h-12zM389 360h3v12h-3zM384 365h12v3h-12zM413 360h3v12h-3zM408 365h12v3h-12zM401 372h3v12h-3zM396 377h12v3h-12zM449 336h3v12h-3zM444 341h12v3h-12zM461 336h3v12h-3zM456 341h12v3h-12zM437 348h3v12h-3zM432 353h12v3h-12zM461 348h3v12h-3zM456 353h12v3h-12zM449 360h3v12h-3zM444 365h12v3h-12zM473 360h3v12h-3zM468 365h12v3h-12zM449 372h3v12h-3zM444 377h12v3h-12zM461 372h3v12h-3zM456 377h12v3h-12zM29 384h3v12h-3zM24 389h12v3h-12zM41 396h3v12h-3zM36 401h12v3h-12zM5 408h3v12h-3zM0 413h12v3h-12zM17 420h3v12h-3zM12 425h12v3h-12zM65 384h3v12h-3zM60 389h12v3h-12zM77 384h3v12h-3zM72 389h12v3h-12zM65 420h3v12h-3zM60 425h12v3h-12zM77 420h3v12h-3zM72 425h12v3h-12zM125 384h3v12h-3zM120 389h12v3h-12zM137 384h3v12h-3zM132 389h12v3h-12zM125 396h3v12h-3zM120 401h12v3h-12zM137 396h3v12h-3zM132 401h12v3h-12zM101 408h3v12h-3zM96 413h12v3h-12zM113 408h3v12h-3zM108 413h12v3h-12zM101 420h3v12h-3zM96 425h12v3h-12zM113 420h3v12h-3zM108 425h12v3h-12zM173 384h3v12h-3zM168 389h12v3h-12zM185 384h3v12h-3zM180 389h12v3h-12zM173 396h3v12h-3zM168 401h12v3h-12zM185 396h3v12h-3zM180 401h12v3h-12zM149 408h3v12h-3zM144 413h12v3h-12zM161 408h3v12h-3zM156 413h12v3h-12zM149 420h3v12h-3zM144 425h12v3h-12zM161 420h3v12h-3zM156 425h12v3h-12zM197 384h3v12h-3zM192 389h12v3h-12zM233 384h3v12h-3zM228 389h12v3h-12zM197 420h3v12h-3zM192 425h12v3h-12zM233 420h3v12h-3zM228 425h12v3h-12zM245 384h3v12h-3zM240 389h12v3h-12zM269 384h3v12h-3zM264 389h12v3h-12zM269 396h3v12h-3zM264 401h12v3h-12zM281 396h3v12h-3zM276 401h12v3h-12zM245 408h3v12h-3zM240 413h12v3h-12zM257 408h3v12h-3zM252 413h12v3h-12zM257 420h3v12h-3zM252 425h12v3h-12zM281 420h3v12h-3zM276 425h12v3h-12zM305 384h3v12h-3zM300 389h12v3h-12zM293 396h3v12h-3zM288 401h12v3h-12zM317 396h3v12h-3zM312 401h12v3h-12zM305 408h3v12h-3zM300 413h12v3h-12zM329 408h3v12h-3zM324 413h12v3h-12zM317 420h3v12h-3zM312 425h12v3h-12zM341 396h3v12h-3zM336 401h12v3h-12zM377 396h3v12h-3zM372 401h12v3h-12zM341 408h3v12h-3zM336 413h12v3h-12zM377 408h3v12h-3zM372 413h12v3h-12zM425 384h3v12h-3zM420 389h12v3h-12zM413 396h3v12h-3zM408 401h12v3h-12zM401 408h3v12h-3zM396 413h12v3h-12zM389 420h3v12h-3zM384 425h12v3h-12zM449 384h3v12h-3zM444 389h12v3h-12zM473 384h3v12h-3zM468 389h12v3h-12zM437 396h3v12h-3zM432 401h12v3h-12zM449 396h3v12h-3zM444 401h12v3h-12zM461 408h3v12h-3zM456 413h12v3h-12zM473 408h3v12h-3zM468 413h12v3h-12zM437 420h3v12h-3zM432 425h12v3h-12zM461 420h3v12h-3zM456 425h12v3h-12zM485 396h3v12h-3zM480 401h12v3h-12zM521 396h3v12h-3zM516 401h12v3h-12zM485 408h3v12h-3zM480 413h12v3h-12zM497 408h3v12h-3zM492 413h12v3h-12zM581 384h3v12h-3zM576 389h12v3h-12zM617 384h3v12h-3zM612 389h12v3h-12zM593 396h3v12h-3zM588 401h12v3h-12zM605 396h3v12h-3zM600 401h12v3h-12zM593 408h3v12h-3zM588 413h12v3h-12zM605 408h3v12h-3zM600 413h12v3h-12zM581 420h3v12h-3zM576 425h12v3h-12zM617 420h3v12h-3zM612 425h12v3h-12zM677 384h3v12h-3zM672 389h12v3h-12zM713 384h3v12h-3zM708 389h12v3h-12zM689 396h3v12h-3zM684 401h12v3h-12zM701 396h3v12h-3zM696 401h12v3h-12zM677 420h3v12h-3zM672 425h12v3h-12zM713 420h3v12h-3zM708 425h12v3h-12zM773 384h3v12h-3zM768 389h12v3h-12zM785 384h3v12h-3zM780 389h12v3h-12zM797 420h3v12h-3zM792 425h12v3h-12zM809 420h3v12h-3zM804 425h12v3h-12zM869 396h3v12h-3zM864 401h12v3h-12zM881 396h3v12h-3zM876 401h12v3h-12zM869 408h3v12h-3zM864 413h12v3h-12zM905 408h3v12h-3zM900 413h12v3h-12zM41 432h3v12h-3zM36 437h12v3h-12zM29 444h3v12h-3zM24 449h12v3h-12zM17 456h3v12h-3zM12 461h12v3h-12zM41 456h3v12h-3zM36 461h12v3h-12zM5 468h3v12h-3zM0 473h12v3h-12zM29 468h3v12h-3zM24 473h12v3h-12zM41 468h3v12h-3zM36 473h12v3h-12zM53 432h3v12h-3zM48 437h12v3h-12zM89 432h3v12h-3zM84 437h12v3h-12zM65 456h3v12h-3zM60 461h12v3h-12zM77 456h3v12h-3zM72 461h12v3h-12zM53 468h3v12h-3zM48 473h12v3h-12zM89 468h3v12h-3zM84 473h12v3h-12zM101 432h3v12h-3zM96 437h12v3h-12zM113 432h3v12h-3zM108 437h12v3h-12zM125 468h3v12h-3zM120 473h12v3h-12zM137 468h3v12h-3zM132 473h12v3h-12zM185 432h3v12h-3zM180 437h12v3h-12zM173 444h3v12h-3zM168 449h12v3h-12zM161 456h3v12h-3zM156 461h12v3h-12zM185 456h3v12h-3zM180 461h12v3h-12zM149 468h3v12h-3zM144 473h12v3h-12zM173 468h3v12h-3zM168 473h12v3h-12zM185 468h3v12h-3zM180 473h12v3h-12zM209 432h3v12h-3zM204 437h12v3h-12zM233 432h3v12h-3zM228 437h12v3h-12zM221 444h3v12h-3zM216 449h12v3h-12zM221 456h3v12h-3zM216 461h12v3h-12zM209 468h3v12h-3zM204 473h12v3h-12zM233 468h3v12h-3zM228 473h12v3h-12zM245 432h3v12h-3zM240 437h12v3h-12zM281 432h3v12h-3zM276 437h12v3h-12zM245 468h3v12h-3zM240 473h12v3h-12zM281 468h3v12h-3zM276 473h12v3h-12zM293 432h3v12h-3zM288 437h12v3h-12zM329 432h3v12h-3zM324 437h12v3h-12zM305 444h3v12h-3zM300 449h12v3h-12zM317 444h3v12h-3zM312 449h12v3h-12zM305 456h3v12h-3zM300 461h12v3h-12zM293 468h3v12h-3zM288 473h12v3h-12zM329 468h3v12h-3zM324 473h12v3h-12zM341 444h3v12h-3zM336 449h12v3h-12zM353 444h3v12h-3zM348 449h12v3h-12zM341 456h3v12h-3zM336 461h12v3h-12zM377 456h3v12h-3zM372 461h12v3h-12zM389 432h3v12h-3zM384 437h12v3h-12zM425 432h3v12h-3zM420 437h12v3h-12zM401 444h3v12h-3zM396 449h12v3h-12zM413 444h3v12h-3zM408 449h12v3h-12zM389 468h3v12h-3zM384 473h12v3h-12zM425 468h3v12h-3zM420 473h12v3h-12zM461 432h3v12h-3zM456 437h12v3h-12zM473 432h3v12h-3zM468 437h12v3h-12zM461 444h3v12h-3zM456 449h12v3h-12zM473 444h3v12h-3zM468 449h12v3h-12zM437 456h3v12h-3zM432 461h12v3h-12zM449 456h3v12h-3zM444 461h12v3h-12zM437 468h3v12h-3zM432 473h12v3h-12zM449 468h3v12h-3zM444 473h12v3h-12zM5 480h3v12h-3zM0 485h12v3h-12zM29 480h3v12h-3zM24 485h12v3h-12zM41 480h3v12h-3zM36 485h12v3h-12zM17 492h3v12h-3zM12 497h12v3h-12zM41 492h3v12h-3zM36 497h12v3h-12zM29 504h3v12h-3zM24 509h12v3h-12zM41 516h3v12h-3zM36 521h12v3h-12zM101 492h3v12h-3zM96 497h12v3h-12zM113 492h3v12h-3zM108 497h12v3h-12zM101 504h3v12h-3zM96 509h12v3h-12zM137 504h3v12h-3zM132 509h12v3h-12zM209 480h3v12h-3zM204 485h12v3h-12zM233 480h3v12h-3zM228 485h12v3h-12zM197 492h3v12h-3zM192 497h12v3h-12zM233 504h3v12h-3zM228 509h12v3h-12zM197 516h3v12h-3zM192 521h12v3h-12zM221 516h3v12h-3zM216 521h12v3h-12zM293 480h3v12h-3zM288 485h12v3h-12zM329 480h3v12h-3zM324 485h12v3h-12zM305 504h3v12h-3zM300 509h12v3h-12zM317 504h3v12h-3zM312 509h12v3h-12zM293 516h3v12h-3zM288 521h12v3h-12zM329 516h3v12h-3zM324 521h12v3h-12zM389 480h3v12h-3zM384 485h12v3h-12zM413 480h3v12h-3zM408 485h12v3h-12zM413 492h3v12h-3zM408 497h12v3h-12zM425 492h3v12h-3zM420 497h12v3h-12zM389 504h3v12h-3zM384 509h12v3h-12zM401 504h3v12h-3zM396 509h12v3h-12zM401 516h3v12h-3zM396 521h12v3h-12zM425 516h3v12h-3zM420 521h12v3h-12zM521 480h3v12h-3zM516 485h12v3h-12zM509 492h3v12h-3zM504 497h12v3h-12zM497 504h3v12h-3zM492 509h12v3h-12zM485 516h3v12h-3zM480 521h12v3h-12zM533 480h3v12h-3zM528 485h12v3h-12zM569 480h3v12h-3zM564 485h12v3h-12zM545 492h3v12h-3zM540 497h12v3h-12zM557 492h3v12h-3zM552 497h12v3h-12zM533 516h3v12h-3zM528 521h12v3h-12zM569 516h3v12h-3zM564 521h12v3h-12zM605 480h3v12h-3zM600 485h12v3h-12zM617 480h3v12h-3zM612 485h12v3h-12zM581 516h3v12h-3zM576 521h12v3h-12zM593 516h3v12h-3zM588 521h12v3h-12zM629 480h3v12h-3zM624 485h12v3h-12zM653 480h3v12h-3zM648 485h12v3h-12zM665 492h3v12h-3zM660 497h12v3h-12zM629 504h3v12h-3zM624 509h12v3h-12zM641 516h3v12h-3zM636 521h12v3h-12zM665 516h3v12h-3zM660 521h12v3h-12zM677 492h3v12h-3zM672 497h12v3h-12zM713 492h3v12h-3zM708 497h12v3h-12zM677 504h3v12h-3zM672 509h12v3h-12zM689 504h3v12h-3zM684 509h12v3h-12zM725 480h3v12h-3zM720 485h12v3h-12zM761 480h3v12h-3zM756 485h12v3h-12zM725 516h3v12h-3zM720 521h12v3h-12zM761 516h3v12h-3zM756 521h12v3h-12zM797 480h3v12h-3zM792 485h12v3h-12zM809 480h3v12h-3zM804 485h12v3h-12zM797 492h3v12h-3zM792 497h12v3h-12zM809 492h3v12h-3zM804 497h12v3h-12zM773 504h3v12h-3zM768 509h12v3h-12zM785 504h3v12h-3zM780 509h12v3h-12zM773 516h3v12h-3zM768 521h12v3h-12zM785 516h3v12h-3zM780 521h12v3h-12zM821 480h3v12h-3zM816 485h12v3h-12zM857 480h3v12h-3zM852 485h12v3h-12zM833 492h3v12h-3zM828 497h12v3h-12zM845 492h3v12h-3zM840 497h12v3h-12zM821 516h3v12h-3zM816 521h12v3h-12zM857 516h3v12h-3zM852 521h12v3h-12zM869 480h3v12h-3zM864 485h12v3h-12zM881 492h3v12h-3zM876 497h12v3h-12zM869 504h3v12h-3zM864 509h12v3h-12zM893 504h3v12h-3zM888 509h12v3h-12zM869 516h3v12h-3zM864 521h12v3h-12zM881 516h3v12h-3zM876 521h12v3h-12zM905 516h3v12h-3zM900 521h12v3h-12zM929 480h3v12h-3zM924 485h12v3h-12zM917 492h3v12h-3zM912 497h12v3h-12zM953 504h3v12h-3zM948 509h12v3h-12zM941 516h3v12h-3zM936 521h12v3h-12zM497 528h3v12h-3zM492 533h12v3h-12zM521 528h3v12h-3zM516 533h12v3h-12zM485 540h3v12h-3zM480 545h12v3h-12zM521 552h3v12h-3zM516 557h12v3h-12zM485 564h3v12h-3zM480 569h12v3h-12zM509 564h3v12h-3zM504 569h12v3h-12zM569 600h3v12h-3zM564 605h12v3h-12zM545 528h3v12h-3zM540 533h12v3h-12zM557 528h3v12h-3zM552 533h12v3h-12zM545 540h3v12h-3zM540 545h12v3h-12zM569 540h3v12h-3zM564 545h12v3h-12zM533 552h3v12h-3zM528 557h12v3h-12zM557 552h3v12h-3zM552 557h12v3h-12zM545 564h3v12h-3zM540 569h12v3h-12zM557 564h3v12h-3zM552 569h12v3h-12zM605 528h3v12h-3zM600 533h12v3h-12zM617 540h3v12h-3zM612 545h12v3h-12zM581 552h3v12h-3zM576 557h12v3h-12zM593 564h3v12h-3zM588 569h12v3h-12zM629 528h3v12h-3zM624 533h12v3h-12zM665 528h3v12h-3zM660 533h12v3h-12zM653 540h3v12h-3zM648 545h12v3h-12zM641 552h3v12h-3zM636 557h12v3h-12zM653 552h3v12h-3zM648 557h12v3h-12zM629 564h3v12h-3zM624 569h12v3h-12zM665 564h3v12h-3zM660 569h12v3h-12zM677 528h3v12h-3zM672 533h12v3h-12zM713 528h3v12h-3zM708 533h12v3h-12zM689 540h3v12h-3zM684 545h12v3h-12zM701 540h3v12h-3zM696 545h12v3h-12zM677 564h3v12h-3zM672 569h12v3h-12zM713 564h3v12h-3zM708 569h12v3h-12zM737 528h3v12h-3zM732 533h12v3h-12zM749 528h3v12h-3zM744 533h12v3h-12zM725 540h3v12h-3zM720 545h12v3h-12zM749 540h3v12h-3zM744 545h12v3h-12zM737 552h3v12h-3zM732 557h12v3h-12zM761 552h3v12h-3zM756 557h12v3h-12zM737 564h3v12h-3zM732 569h12v3h-12zM749 564h3v12h-3zM744 569h12v3h-12zM773 528h3v12h-3zM768 533h12v3h-12zM809 528h3v12h-3zM804 533h12v3h-12zM797 540h3v12h-3zM792 545h12v3h-12zM785 552h3v12h-3zM780 557h12v3h-12zM773 564h3v12h-3zM768 569h12v3h-12zM809 564h3v12h-3zM804 569h12v3h-12zM821 528h3v12h-3zM816 533h12v3h-12zM845 528h3v12h-3zM840 533h12v3h-12zM845 540h3v12h-3zM840 545h12v3h-12zM857 540h3v12h-3zM852 545h12v3h-12zM821 552h3v12h-3zM816 557h12v3h-12zM833 552h3v12h-3zM828 557h12v3h-12zM833 564h3v12h-3zM828 569h12v3h-12zM857 564h3v12h-3zM852 569h12v3h-12zM869 528h3v12h-3zM864 533h12v3h-12zM905 528h3v12h-3zM900 533h12v3h-12zM893 540h3v12h-3zM888 545h12v3h-12zM881 552h3v12h-3zM876 557h12v3h-12zM869 564h3v12h-3zM864 569h12v3h-12zM905 564h3v12h-3zM900 569h12v3h-12zM917 540h3v12h-3zM912 545h12v3h-12zM953 540h3v12h-3zM948 545h12v3h-12zM917 552h3v12h-3zM912 557h12v3h-12zM929 552h3v12h-3zM924 557h12v3h-12zM5 576h3v12h-3zM0 581h12v3h-12zM17 576h3v12h-3zM12 581h12v3h-12zM29 612h3v12h-3zM24 617h12v3h-12zM41 612h3v12h-3zM36 617h12v3h-12zM101 576h3v12h-3zM96 581h12v3h-12zM137 576h3v12h-3zM132 581h12v3h-12zM101 612h3v12h-3zM96 617h12v3h-12zM137 612h3v12h-3zM132 617h12v3h-12zM197 576h3v12h-3zM192 581h12v3h-12zM209 576h3v12h-3zM204 581h12v3h-12zM221 612h3v12h-3zM216 617h12v3h-12zM233 612h3v12h-3zM228 617h12v3h-12zM293 576h3v12h-3zM288 581h12v3h-12zM329 576h3v12h-3zM324 581h12v3h-12zM317 588h3v12h-3zM312 593h12v3h-12zM305 600h3v12h-3zM300 605h12v3h-12zM293 612h3v12h-3zM288 617h12v3h-12zM329 612h3v12h-3zM324 617h12v3h-12zM389 588h3v12h-3zM384 593h12v3h-12zM425 588h3v12h-3zM420 593h12v3h-12zM389 600h3v12h-3zM384 605h12v3h-12zM425 600h3v12h-3zM420 605h12v3h-12zM485 576h3v12h-3zM480 581h12v3h-12zM521 576h3v12h-3zM516 581h12v3h-12zM509 588h3v12h-3zM504 593h12v3h-12zM497 600h3v12h-3zM492 605h12v3h-12zM485 612h3v12h-3zM480 617h12v3h-12zM521 612h3v12h-3zM516 617h12v3h-12zM557 576h3v12h-3zM552 581h12v3h-12zM557 588h3v12h-3zM552 593h12v3h-12zM569 588h3v12h-3zM564 593h12v3h-12zM533 600h3v12h-3zM528 605h12v3h-12zM545 600h3v12h-3zM540 605h12v3h-12zM545 612h3v12h-3zM540 617h12v3h-12zM593 576h3v12h-3zM588 581h12v3h-12zM617 576h3v12h-3zM612 581h12v3h-12zM581 588h3v12h-3zM576 593h12v3h-12zM593 588h3v12h-3zM588 593h12v3h-12zM605 600h3v12h-3zM600 605h12v3h-12zM617 600h3v12h-3zM612 605h12v3h-12zM581 612h3v12h-3zM576 617h12v3h-12zM605 612h3v12h-3zM600 617h12v3h-12zM653 576h3v12h-3zM648 581h12v3h-12zM629 588h3v12h-3zM624 593h12v3h-12zM641 588h3v12h-3zM636 593h12v3h-12zM665 588h3v12h-3zM660 593h12v3h-12zM629 600h3v12h-3zM624 605h12v3h-12zM653 600h3v12h-3zM648 605h12v3h-12zM665 600h3v12h-3zM660 605h12v3h-12zM641 612h3v12h-3zM636 617h12v3h-12zM677 576h3v12h-3zM672 581h12v3h-12zM713 576h3v12h-3zM708 581h12v3h-12zM689 588h3v12h-3zM684 593h12v3h-12zM701 588h3v12h-3zM696 593h12v3h-12zM677 600h3v12h-3zM672 605h12v3h-12zM713 600h3v12h-3zM708 605h12v3h-12zM725 576h3v12h-3zM720 581h12v3h-12zM761 576h3v12h-3zM756 581h12v3h-12zM737 588h3v12h-3zM732 593h12v3h-12zM749 600h3v12h-3zM744 605h12v3h-12zM725 612h3v12h-3zM720 617h12v3h-12zM761 612h3v12h-3zM756 617h12v3h-12zM773 576h3v12h-3zM768 581h12v3h-12zM809 576h3v12h-3zM804 581h12v3h-12zM785 588h3v12h-3zM780 593h12v3h-12zM797 588h3v12h-3zM792 593h12v3h-12zM797 600h3v12h-3zM792 605h12v3h-12zM773 612h3v12h-3zM768 617h12v3h-12zM809 612h3v12h-3zM804 617h12v3h-12zM857 576h3v12h-3zM852 581h12v3h-12zM845 588h3v12h-3zM840 593h12v3h-12zM833 600h3v12h-3zM828 605h12v3h-12zM857 600h3v12h-3zM852 605h12v3h-12zM821 612h3v12h-3zM816 617h12v3h-12zM845 612h3v12h-3zM840 617h12v3h-12zM857 612h3v12h-3zM852 617h12v3h-12zM869 576h3v12h-3zM864 581h12v3h-12zM881 588h3v12h-3zM876 593h12v3h-12zM893 600h3v12h-3zM888 605h12v3h-12zM905 612h3v12h-3zM900 617h12v3h-12zM917 576h3v12h-3zM912 581h12v3h-12zM953 576h3v12h-3zM948 581h12v3h-12zM941 588h3v12h-3zM936 593h12v3h-12zM929 600h3v12h-3zM924 605h12v3h-12zM941 600h3v12h-3zM936 605h12v3h-12zM917 612h3v12h-3zM912 617h12v3h-12zM953 612h3v12h-3zM948 617h12v3h-12zM521 624h3v12h-3zM516 629h12v3h-12zM521 636h3v12h-3zM516 641h12v3h-12zM485 648h3v12h-3zM480 653h12v3h-12zM485 660h3v12h-3zM480 665h12v3h-12zM533 624h3v12h-3zM528 629h12v3h-12zM569 624h3v12h-3zM564 629h12v3h-12zM545 636h3v12h-3zM540 641h12v3h-12zM557 648h3v12h-3zM552 653h12v3h-12zM533 660h3v12h-3zM528 665h12v3h-12zM569 660h3v12h-3zM564 665h12v3h-12zM605 624h3v12h-3zM600 629h12v3h-12zM617 624h3v12h-3zM612 629h12v3h-12zM581 660h3v12h-3zM576 665h12v3h-12zM593 660h3v12h-3zM588 665h12v3h-12zM629 624h3v12h-3zM624 629h12v3h-12zM653 624h3v12h-3zM648 629h12v3h-12zM665 636h3v12h-3zM660 641h12v3h-12zM629 648h3v12h-3zM624 653h12v3h-12zM641 660h3v12h-3zM636 665h12v3h-12zM665 660h3v12h-3zM660 665h12v3h-12zM689 624h3v12h-3zM684 629h12v3h-12zM701 648h3v12h-3zM696 653h12v3h-12zM689 660h3v12h-3zM684 665h12v3h-12zM701 660h3v12h-3zM696 665h12v3h-12zM761 624h3v12h-3zM756 629h12v3h-12zM749 636h3v12h-3zM744 641h12v3h-12zM737 648h3v12h-3zM732 653h12v3h-12zM725 660h3v12h-3zM720 665h12v3h-12zM785 624h3v12h-3zM780 629h12v3h-12zM809 624h3v12h-3zM804 629h12v3h-12zM797 636h3v12h-3zM792 641h12v3h-12zM797 648h3v12h-3zM792 653h12v3h-12zM785 660h3v12h-3zM780 665h12v3h-12zM809 660h3v12h-3zM804 665h12v3h-12zM833 624h3v12h-3zM828 629h12v3h-12zM857 624h3v12h-3zM852 629h12v3h-12zM833 660h3v12h-3zM828 665h12v3h-12zM857 660h3v12h-3zM852 665h12v3h-12zM869 624h3v12h-3zM864 629h12v3h-12zM905 624h3v12h-3zM900 629h12v3h-12zM881 648h3v12h-3zM876 653h12v3h-12zM893 648h3v12h-3zM888 653h12v3h-12zM869 660h3v12h-3zM864 665h12v3h-12zM905 660h3v12h-3zM900 665h12v3h-12zM953 624h3v12h-3zM948 629h12v3h-12zM953 636h3v12h-3zM948 641h12v3h-12zM917 648h3v12h-3zM912 653h12v3h-12zM917 660h3v12h-3zM912 665h12v3h-12zM17 672h3v12h-3zM12 677h12v3h-12zM41 672h3v12h-3zM36 677h12v3h-12zM5 684h3v12h-3zM0 689h12v3h-12zM29 684h3v12h-3zM24 689h12v3h-12zM17 696h3v12h-3zM12 701h12v3h-12zM41 696h3v12h-3zM36 701h12v3h-12zM5 708h3v12h-3zM0 713h12v3h-12zM29 708h3v12h-3zM24 713h12v3h-12zM101 672h3v12h-3zM96 677h12v3h-12zM137 672h3v12h-3zM132 677h12v3h-12zM101 696h3v12h-3zM96 701h12v3h-12zM137 696h3v12h-3zM132 701h12v3h-12zM209 672h3v12h-3zM204 677h12v3h-12zM233 672h3v12h-3zM228 677h12v3h-12zM197 684h3v12h-3zM192 689h12v3h-12zM209 684h3v12h-3zM204 689h12v3h-12zM221 696h3v12h-3zM216 701h12v3h-12zM233 696h3v12h-3zM228 701h12v3h-12zM197 708h3v12h-3zM192 713h12v3h-12zM221 708h3v12h-3zM216 713h12v3h-12zM305 672h3v12h-3zM300 677h12v3h-12zM329 672h3v12h-3zM324 677h12v3h-12zM293 684h3v12h-3zM288 689h12v3h-12zM305 684h3v12h-3zM300 689h12v3h-12zM317 696h3v12h-3zM312 701h12v3h-12zM329 696h3v12h-3zM324 701h12v3h-12zM293 708h3v12h-3zM288 713h12v3h-12zM317 708h3v12h-3zM312 713h12v3h-12zM389 672h3v12h-3zM384 677h12v3h-12zM425 672h3v12h-3zM420 677h12v3h-12zM401 684h3v12h-3zM396 689h12v3h-12zM413 684h3v12h-3zM408 689h12v3h-12zM389 708h3v12h-3zM384 713h12v3h-12zM425 708h3v12h-3zM420 713h12v3h-12zM497 672h3v12h-3zM492 677h12v3h-12zM509 672h3v12h-3zM504 677h12v3h-12zM509 684h3v12h-3zM504 689h12v3h-12zM497 708h3v12h-3zM492 713h12v3h-12zM533 672h3v12h-3zM528 677h12v3h-12zM569 672h3v12h-3zM564 677h12v3h-12zM533 708h3v12h-3zM528 713h12v3h-12zM569 708h3v12h-3zM564 713h12v3h-12zM581 672h3v12h-3zM576 677h12v3h-12zM617 672h3v12h-3zM612 677h12v3h-12zM593 684h3v12h-3zM588 689h12v3h-12zM605 684h3v12h-3zM600 689h12v3h-12zM605 696h3v12h-3zM600 701h12v3h-12zM581 708h3v12h-3zM576 713h12v3h-12zM617 708h3v12h-3zM612 713h12v3h-12zM629 672h3v12h-3zM624 677h12v3h-12zM653 672h3v12h-3zM648 677h12v3h-12zM641 684h3v12h-3zM636 689h12v3h-12zM665 684h3v12h-3zM660 689h12v3h-12zM629 696h3v12h-3zM624 701h12v3h-12zM653 696h3v12h-3zM648 701h12v3h-12zM641 708h3v12h-3zM636 713h12v3h-12zM665 708h3v12h-3zM660 713h12v3h-12zM689 672h3v12h-3zM684 677h12v3h-12zM713 672h3v12h-3zM708 677h12v3h-12zM677 684h3v12h-3zM672 689h12v3h-12zM701 684h3v12h-3zM696 689h12v3h-12zM689 696h3v12h-3zM684 701h12v3h-12zM713 696h3v12h-3zM708 701h12v3h-12zM677 708h3v12h-3zM672 713h12v3h-12zM701 708h3v12h-3zM696 713h12v3h-12zM749 672h3v12h-3zM744 677h12v3h-12zM725 684h3v12h-3zM720 689h12v3h-12zM737 684h3v12h-3zM732 689h12v3h-12zM761 684h3v12h-3zM756 689h12v3h-12zM725 696h3v12h-3zM720 701h12v3h-12zM749 696h3v12h-3zM744 701h12v3h-12zM761 696h3v12h-3zM756 701h12v3h-12zM737 708h3v12h-3zM732 713h12v3h-12zM773 672h3v12h-3zM768 677h12v3h-12zM809 672h3v12h-3zM804 677h12v3h-12zM785 684h3v12h-3zM780 689h12v3h-12zM797 684h3v12h-3zM792 689h12v3h-12zM773 708h3v12h-3zM768 713h12v3h-12zM809 708h3v12h-3zM804 713h12v3h-12zM821 672h3v12h-3zM816 677h12v3h-12zM857 672h3v12h-3zM852 677h12v3h-12zM833 684h3v12h-3zM828 689h12v3h-12zM845 684h3v12h-3zM840 689h12v3h-12zM821 708h3v12h-3zM816 713h12v3h-12zM857 708h3v12h-3zM852 713h12v3h-12zM869 672h3v12h-3zM864 677h12v3h-12zM881 684h3v12h-3zM876 689h12v3h-12zM869 696h3v12h-3zM864 701h12v3h-12zM893 696h3v12h-3zM888 701h12v3h-12zM869 708h3v12h-3zM864 713h12v3h-12zM881 708h3v12h-3zM876 713h12v3h-12zM905 708h3v12h-3zM900 713h12v3h-12zM929 672h3v12h-3zM924 677h12v3h-12zM953 672h3v12h-3zM948 677h12v3h-12zM917 684h3v12h-3zM912 689h12v3h-12zM941 684h3v12h-3zM936 689h12v3h-12zM929 696h3v12h-3zM924 701h12v3h-12zM953 696h3v12h-3zM948 701h12v3h-12zM917 708h3v12h-3zM912 713h12v3h-12zM941 708h3v12h-3zM936 713h12v3h-12zM509 720h3v12h-3zM504 725h12v3h-12zM521 732h3v12h-3zM516 737h12v3h-12zM485 744h3v12h-3zM480 749h12v3h-12zM497 756h3v12h-3zM492 761h12v3h-12zM533 720h3v12h-3zM528 725h12v3h-12zM569 720h3v12h-3zM564 725h12v3h-12zM545 732h3v12h-3zM540 737h12v3h-12zM557 732h3v12h-3zM552 737h12v3h-12zM533 756h3v12h-3zM528 761h12v3h-12zM569 756h3v12h-3zM564 761h12v3h-12zM581 720h3v12h-3zM576 725h12v3h-12zM605 720h3v12h-3zM600 725h12v3h-12zM605 732h3v12h-3zM600 737h12v3h-12zM617 732h3v12h-3zM612 737h12v3h-12zM581 744h3v12h-3zM576 749h12v3h-12zM593 744h3v12h-3zM588 749h12v3h-12zM593 756h3v12h-3zM588 761h12v3h-12zM617 756h3v12h-3zM612 761h12v3h-12zM629 720h3v12h-3zM624 725h12v3h-12zM665 720h3v12h-3zM660 725h12v3h-12zM653 732h3v12h-3zM648 737h12v3h-12zM641 744h3v12h-3zM636 749h12v3h-12zM653 744h3v12h-3zM648 749h12v3h-12zM629 756h3v12h-3zM624 761h12v3h-12zM665 756h3v12h-3zM660 761h12v3h-12zM677 720h3v12h-3zM672 725h12v3h-12zM713 720h3v12h-3zM708 725h12v3h-12zM689 732h3v12h-3zM684 737h12v3h-12zM701 732h3v12h-3zM696 737h12v3h-12zM677 756h3v12h-3zM672 761h12v3h-12zM713 756h3v12h-3zM708 761h12v3h-12zM725 720h3v12h-3zM720 725h12v3h-12zM761 720h3v12h-3zM756 725h12v3h-12zM737 732h3v12h-3zM732 737h12v3h-12zM749 732h3v12h-3zM744 737h12v3h-12zM749 744h3v12h-3zM744 749h12v3h-12zM725 756h3v12h-3zM720 761h12v3h-12zM761 756h3v12h-3zM756 761h12v3h-12zM773 720h3v12h-3zM768 725h12v3h-12zM785 732h3v12h-3zM780 737h12v3h-12zM773 744h3v12h-3zM768 749h12v3h-12zM797 744h3v12h-3zM792 749h12v3h-12zM773 756h3v12h-3zM768 761h12v3h-12zM785 756h3v12h-3zM780 761h12v3h-12zM809 756h3v12h-3zM804 761h12v3h-12zM821 720h3v12h-3zM816 725h12v3h-12zM821 732h3v12h-3zM816 737h12v3h-12zM857 744h3v12h-3zM852 749h12v3h-12zM857 756h3v12h-3zM852 761h12v3h-12zM869 720h3v12h-3zM864 725h12v3h-12zM905 720h3v12h-3zM900 725h12v3h-12zM881 732h3v12h-3zM876 737h12v3h-12zM893 732h3v12h-3zM888 737h12v3h-12zM869 756h3v12h-3zM864 761h12v3h-12zM905 756h3v12h-3zM900 761h12v3h-12zM953 792h3v12h-3zM948 797h12v3h-12zM929 720h3v12h-3zM924 725h12v3h-12zM941 720h3v12h-3zM936 725h12v3h-12zM929 732h3v12h-3zM924 737h12v3h-12zM953 732h3v12h-3zM948 737h12v3h-12zM917 744h3v12h-3zM912 749h12v3h-12zM941 744h3v12h-3zM936 749h12v3h-12zM929 756h3v12h-3zM924 761h12v3h-12zM941 756h3v12h-3zM936 761h12v3h-12zM5 768h3v12h-3zM0 773h12v3h-12zM41 768h3v12h-3zM36 773h12v3h-12zM17 780h3v12h-3zM12 785h12v3h-12zM29 780h3v12h-3zM24 785h12v3h-12zM17 792h3v12h-3zM12 797h12v3h-12zM5 804h3v12h-3zM0 809h12v3h-12zM41 804h3v12h-3zM36 809h12v3h-12zM113 780h3v12h-3zM108 785h12v3h-12zM125 780h3v12h-3zM120 785h12v3h-12zM113 792h3v12h-3zM108 797h12v3h-12zM125 792h3v12h-3zM120 797h12v3h-12zM197 768h3v12h-3zM192 773h12v3h-12zM233 768h3v12h-3zM228 773h12v3h-12zM209 780h3v12h-3zM204 785h12v3h-12zM221 780h3v12h-3zM216 785h12v3h-12zM209 792h3v12h-3zM204 797h12v3h-12zM221 792h3v12h-3zM216 797h12v3h-12zM197 804h3v12h-3zM192 809h12v3h-12zM233 804h3v12h-3zM228 809h12v3h-12zM293 768h3v12h-3zM288 773h12v3h-12zM329 768h3v12h-3zM324 773h12v3h-12zM305 780h3v12h-3zM300 785h12v3h-12zM317 780h3v12h-3zM312 785h12v3h-12zM305 792h3v12h-3zM300 797h12v3h-12zM317 792h3v12h-3zM312 797h12v3h-12zM293 804h3v12h-3zM288 809h12v3h-12zM329 804h3v12h-3zM324 809h12v3h-12zM389 768h3v12h-3zM384 773h12v3h-12zM425 768h3v12h-3zM420 773h12v3h-12zM401 780h3v12h-3zM396 785h12v3h-12zM401 792h3v12h-3zM396 797h12v3h-12zM413 792h3v12h-3zM408 797h12v3h-12zM389 804h3v12h-3zM384 809h12v3h-12zM425 804h3v12h-3zM420 809h12v3h-12zM509 768h3v12h-3zM504 773h12v3h-12zM521 768h3v12h-3zM516 773h12v3h-12zM485 804h3v12h-3zM480 809h12v3h-12zM497 804h3v12h-3zM492 809h12v3h-12zM533 768h3v12h-3zM528 773h12v3h-12zM569 768h3v12h-3zM564 773h12v3h-12zM545 780h3v12h-3zM540 785h12v3h-12zM557 780h3v12h-3zM552 785h12v3h-12zM557 792h3v12h-3zM552 797h12v3h-12zM533 804h3v12h-3zM528 809h12v3h-12zM569 804h3v12h-3zM564 809h12v3h-12zM593 768h3v12h-3zM588 773h12v3h-12zM605 768h3v12h-3zM600 773h12v3h-12zM593 804h3v12h-3zM588 809h12v3h-12zM605 804h3v12h-3zM600 809h12v3h-12zM629 768h3v12h-3zM624 773h12v3h-12zM641 768h3v12h-3zM636 773h12v3h-12zM653 804h3v12h-3zM648 809h12v3h-12zM665 804h3v12h-3zM660 809h12v3h-12zM677 768h3v12h-3zM672 773h12v3h-12zM713 768h3v12h-3zM708 773h12v3h-12zM689 780h3v12h-3zM684 785h12v3h-12zM701 792h3v12h-3zM696 797h12v3h-12zM677 804h3v12h-3zM672 809h12v3h-12zM713 804h3v12h-3zM708 809h12v3h-12zM743 786h3v12h-3zM738 791h12v3h-12zM785 780h3v12h-3zM780 785h12v3h-12zM797 780h3v12h-3zM792 785h12v3h-12zM785 792h3v12h-3zM780 797h12v3h-12zM797 792h3v12h-3zM792 797h12v3h-12zM833 768h3v12h-3zM828 773h12v3h-12zM845 768h3v12h-3zM840 773h12v3h-12zM821 780h3v12h-3zM816 785h12v3h-12zM845 780h3v12h-3zM840 785h12v3h-12zM833 792h3v12h-3zM828 797h12v3h-12zM857 792h3v12h-3zM852 797h12v3h-12zM833 804h3v12h-3zM828 809h12v3h-12zM845 804h3v12h-3zM840 809h12v3h-12zM893 768h3v12h-3zM888 773h12v3h-12zM905 780h3v12h-3zM900 785h12v3h-12zM869 792h3v12h-3zM864 797h12v3h-12zM881 804h3v12h-3zM876 809h12v3h-12zM917 768h3v12h-3zM912 773h12v3h-12zM953 768h3v12h-3zM948 773h12v3h-12zM941 780h3v12h-3zM936 785h12v3h-12zM929 792h3v12h-3zM924 797h12v3h-12zM917 804h3v12h-3zM912 809h12v3h-12zM953 804h3v12h-3zM948 809h12v3h-12zM485 816h3v12h-3zM480 821h12v3h-12zM521 816h3v12h-3zM516 821h12v3h-12zM509 828h3v12h-3zM504 833h12v3h-12zM497 840h3v12h-3zM492 845h12v3h-12zM485 852h3v12h-3zM480 857h12v3h-12zM521 852h3v12h-3zM516 857h12v3h-12zM545 816h3v12h-3zM540 821h12v3h-12zM569 816h3v12h-3zM564 821h12v3h-12zM545 852h3v12h-3zM540 857h12v3h-12zM569 852h3v12h-3zM564 857h12v3h-12zM581 816h3v12h-3zM576 821h12v3h-12zM593 816h3v12h-3zM588 821h12v3h-12zM605 852h3v12h-3zM600 857h12v3h-12zM617 852h3v12h-3zM612 857h12v3h-12zM665 816h3v12h-3zM660 821h12v3h-12zM653 828h3v12h-3zM648 833h12v3h-12zM641 840h3v12h-3zM636 845h12v3h-12zM665 840h3v12h-3zM660 845h12v3h-12zM629 852h3v12h-3zM624 857h12v3h-12zM653 852h3v12h-3zM648 857h12v3h-12zM665 852h3v12h-3zM660 857h12v3h-12zM713 816h3v12h-3zM708 821h12v3h-12zM701 828h3v12h-3zM696 833h12v3h-12zM689 840h3v12h-3zM684 845h12v3h-12zM677 852h3v12h-3zM672 857h12v3h-12zM737 816h3v12h-3zM732 821h12v3h-12zM761 816h3v12h-3zM756 821h12v3h-12zM737 852h3v12h-3zM732 857h12v3h-12zM761 852h3v12h-3zM756 857h12v3h-12zM791 834h3v12h-3zM786 839h12v3h-12zM845 816h3v12h-3zM840 821h12v3h-12zM857 816h3v12h-3zM852 821h12v3h-12zM845 828h3v12h-3zM840 833h12v3h-12zM857 828h3v12h-3zM852 833h12v3h-12zM821 840h3v12h-3zM816 845h12v3h-12zM833 840h3v12h-3zM828 845h12v3h-12zM821 852h3v12h-3zM816 857h12v3h-12zM833 852h3v12h-3zM828 857h12v3h-12zM869 816h3v12h-3zM864 821h12v3h-12zM905 816h3v12h-3zM900 821h12v3h-12zM881 828h3v12h-3zM876 833h12v3h-12zM893 828h3v12h-3zM888 833h12v3h-12zM869 840h3v12h-3zM864 845h12v3h-12zM905 840h3v12h-3zM900 845h12v3h-12zM929 816h3v12h-3zM924 821h12v3h-12zM953 816h3v12h-3zM948 821h12v3h-12zM917 828h3v12h-3zM912 833h12v3h-12zM941 828h3v12h-3zM936 833h12v3h-12zM929 840h3v12h-3zM924 845h12v3h-12zM953 840h3v12h-3zM948 845h12v3h-12zM917 852h3v12h-3zM912 857h12v3h-12zM941 852h3v12h-3zM936 857h12v3h-12zM17 864h3v12h-3zM12 869h12v3h-12zM29 888h3v12h-3zM24 893h12v3h-12zM17 900h3v12h-3zM12 905h12v3h-12zM29 900h3v12h-3zM24 905h12v3h-12zM113 864h3v12h-3zM108 869h12v3h-12zM137 864h3v12h-3zM132 869h12v3h-12zM125 876h3v12h-3zM120 881h12v3h-12zM125 888h3v12h-3zM120 893h12v3h-12zM113 900h3v12h-3zM108 905h12v3h-12zM137 900h3v12h-3zM132 905h12v3h-12zM197 864h3v12h-3zM192 869h12v3h-12zM197 876h3v12h-3zM192 881h12v3h-12zM233 888h3v12h-3zM228 893h12v3h-12zM233 900h3v12h-3zM228 905h12v3h-12zM293 864h3v12h-3zM288 869h12v3h-12zM317 864h3v12h-3zM312 869h12v3h-12zM305 876h3v12h-3zM300 881h12v3h-12zM329 876h3v12h-3zM324 881h12v3h-12zM293 888h3v12h-3zM288 893h12v3h-12zM317 888h3v12h-3zM312 893h12v3h-12zM305 900h3v12h-3zM300 905h12v3h-12zM329 900h3v12h-3zM324 905h12v3h-12zM425 864h3v12h-3zM420 869h12v3h-12zM413 876h3v12h-3zM408 881h12v3h-12zM401 888h3v12h-3zM396 893h12v3h-12zM389 900h3v12h-3zM384 905h12v3h-12zM497 864h3v12h-3zM492 869h12v3h-12zM521 864h3v12h-3zM516 869h12v3h-12zM485 876h3v12h-3zM480 881h12v3h-12zM509 876h3v12h-3zM504 881h12v3h-12zM497 888h3v12h-3zM492 893h12v3h-12zM521 888h3v12h-3zM516 893h12v3h-12zM485 900h3v12h-3zM480 905h12v3h-12zM509 900h3v12h-3zM504 905h12v3h-12zM533 864h3v12h-3zM528 869h12v3h-12zM569 864h3v12h-3zM564 869h12v3h-12zM545 876h3v12h-3zM540 881h12v3h-12zM557 876h3v12h-3zM552 881h12v3h-12zM557 888h3v12h-3zM552 893h12v3h-12zM533 900h3v12h-3zM528 905h12v3h-12zM569 900h3v12h-3zM564 905h12v3h-12zM581 864h3v12h-3zM576 869h12v3h-12zM617 864h3v12h-3zM612 869h12v3h-12zM593 876h3v12h-3zM588 881h12v3h-12zM593 888h3v12h-3zM588 893h12v3h-12zM605 888h3v12h-3zM600 893h12v3h-12zM581 900h3v12h-3zM576 905h12v3h-12zM617 900h3v12h-3zM612 905h12v3h-12zM629 864h3v12h-3zM624 869h12v3h-12zM665 864h3v12h-3zM660 869h12v3h-12zM641 876h3v12h-3zM636 881h12v3h-12zM653 876h3v12h-3zM648 881h12v3h-12zM641 888h3v12h-3zM636 893h12v3h-12zM629 900h3v12h-3zM624 905h12v3h-12zM665 900h3v12h-3zM660 905h12v3h-12zM677 864h3v12h-3zM672 869h12v3h-12zM677 876h3v12h-3zM672 881h12v3h-12zM713 888h3v12h-3zM708 893h12v3h-12zM713 900h3v12h-3zM708 905h12v3h-12zM737 864h3v12h-3zM732 869h12v3h-12zM725 876h3v12h-3zM720 881h12v3h-12zM749 876h3v12h-3zM744 881h12v3h-12zM737 888h3v12h-3zM732 893h12v3h-12zM761 888h3v12h-3zM756 893h12v3h-12zM749 900h3v12h-3zM744 905h12v3h-12zM809 864h3v12h-3zM804 869h12v3h-12zM797 876h3v12h-3zM792 881h12v3h-12zM785 888h3v12h-3zM780 893h12v3h-12zM809 888h3v12h-3zM804 893h12v3h-12zM773 900h3v12h-3zM768 905h12v3h-12zM797 900h3v12h-3zM792 905h12v3h-12zM809 900h3v12h-3zM804 905h12v3h-12zM845 864h3v12h-3zM840 869h12v3h-12zM857 864h3v12h-3zM852 869h12v3h-12zM821 900h3v12h-3zM816 905h12v3h-12zM833 900h3v12h-3zM828 905h12v3h-12zM869 864h3v12h-3zM864 869h12v3h-12zM893 864h3v12h-3zM888 869h12v3h-12zM905 876h3v12h-3zM900 881h12v3h-12zM869 888h3v12h-3zM864 893h12v3h-12zM881 900h3v12h-3zM876 905h12v3h-12zM905 900h3v12h-3zM900 905h12v3h-12zM917 864h3v12h-3zM912 869h12v3h-12zM953 864h3v12h-3zM948 869h12v3h-12zM941 876h3v12h-3zM936 881h12v3h-12zM929 888h3v12h-3zM924 893h12v3h-12zM917 900h3v12h-3zM912 905h12v3h-12zM953 900h3v12h-3zM948 905h12v3h-12zM485 912h3v12h-3zM480 917h12v3h-12zM521 912h3v12h-3zM516 917h12v3h-12zM497 924h3v12h-3zM492 929h12v3h-12zM497 936h3v12h-3zM492 941h12v3h-12zM509 936h3v12h-3zM504 941h12v3h-12zM485 948h3v12h-3zM480 953h12v3h-12zM521 948h3v12h-3zM516 953h12v3h-12zM557 912h3v12h-3zM552 917h12v3h-12zM569 912h3v12h-3zM564 917h12v3h-12zM557 924h3v12h-3zM552 929h12v3h-12zM569 924h3v12h-3zM564 929h12v3h-12zM533 936h3v12h-3zM528 941h12v3h-12zM545 936h3v12h-3zM540 941h12v3h-12zM533 948h3v12h-3zM528 953h12v3h-12zM545 948h3v12h-3zM540 953h12v3h-12zM593 912h3v12h-3zM588 917h12v3h-12zM617 912h3v12h-3zM612 917h12v3h-12zM605 924h3v12h-3zM600 929h12v3h-12zM605 936h3v12h-3zM600 941h12v3h-12zM593 948h3v12h-3zM588 953h12v3h-12zM617 948h3v12h-3zM612 953h12v3h-12zM629 912h3v12h-3zM624 917h12v3h-12zM665 912h3v12h-3zM660 917h12v3h-12zM641 924h3v12h-3zM636 929h12v3h-12zM653 936h3v12h-3zM648 941h12v3h-12zM629 948h3v12h-3zM624 953h12v3h-12zM665 948h3v12h-3zM660 953h12v3h-12zM689 912h3v12h-3zM684 917h12v3h-12zM701 912h3v12h-3zM696 917h12v3h-12zM701 924h3v12h-3zM696 929h12v3h-12zM689 948h3v12h-3zM684 953h12v3h-12zM761 912h3v12h-3zM756 917h12v3h-12zM761 924h3v12h-3zM756 929h12v3h-12zM725 936h3v12h-3zM720 941h12v3h-12zM725 948h3v12h-3zM720 953h12v3h-12zM785 912h3v12h-3zM780 917h12v3h-12zM773 924h3v12h-3zM768 929h12v3h-12zM785 924h3v12h-3zM780 929h12v3h-12zM797 936h3v12h-3zM792 941h12v3h-12zM809 936h3v12h-3zM804 941h12v3h-12zM797 948h3v12h-3zM792 953h12v3h-12zM833 912h3v12h-3zM828 917h12v3h-12zM857 912h3v12h-3zM852 917h12v3h-12zM833 948h3v12h-3zM828 953h12v3h-12zM857 948h3v12h-3zM852 953h12v3h-12zM869 924h3v12h-3zM864 929h12v3h-12zM881 924h3v12h-3zM876 929h12v3h-12zM869 936h3v12h-3zM864 941h12v3h-12zM905 936h3v12h-3zM900 941h12v3h-12zM917 924h3v12h-3zM912 929h12v3h-12zM953 924h3v12h-3zM948 929h12v3h-12zM917 936h3v12h-3zM912 941h12v3h-12zM929 936h3v12h-3zM924 941h12v3h-12zM353 720h3v12h-3zM348 725h12v3h-12zM377 720h3v12h-3zM372 725h12v3h-12zM341 732h3v12h-3zM336 737h12v3h-12zM353 732h3v12h-3zM348 737h12v3h-12zM365 744h3v12h-3zM360 749h12v3h-12zM377 744h3v12h-3zM372 749h12v3h-12zM341 756h3v12h-3zM336 761h12v3h-12zM365 756h3v12h-3zM360 761h12v3h-12zM5 528h3v12h-3zM0 533h12v3h-12zM17 528h3v12h-3zM12 533h12v3h-12zM29 564h3v12h-3zM24 569h12v3h-12zM41 564h3v12h-3zM36 569h12v3h-12zM17 720h3v12h-3zM12 725h12v3h-12zM41 720h3v12h-3zM36 725h12v3h-12zM5 732h3v12h-3zM0 737h12v3h-12zM29 732h3v12h-3zM24 737h12v3h-12zM17 744h3v12h-3zM12 749h12v3h-12zM41 744h3v12h-3zM36 749h12v3h-12zM5 756h3v12h-3zM0 761h12v3h-12zM29 756h3v12h-3zM24 761h12v3h-12zM533 0h3v12h-3zM528 5h12v3h-12zM557 0h3v12h-3zM552 5h12v3h-12zM569 12h3v12h-3zM564 17h12v3h-12zM533 24h3v12h-3zM528 29h12v3h-12zM545 36h3v12h-3zM540 41h12v3h-12zM569 36h3v12h-3zM564 41h12v3h-12zM869 348h3v12h-3zM864 353h12v3h-12zM881 348h3v12h-3zM876 353h12v3h-12zM869 360h3v12h-3zM864 365h12v3h-12zM905 360h3v12h-3zM900 365h12v3h-12zM245 624h3v12h-3zM240 629h12v3h-12zM257 624h3v12h-3zM252 629h12v3h-12zM269 660h3v12h-3zM264 665h12v3h-12zM281 660h3v12h-3zM276 665h12v3h-12zM869 144h3v12h-3zM864 149h12v3h-12zM905 144h3v12h-3zM900 149h12v3h-12zM869 168h3v12h-3zM864 173h12v3h-12zM905 168h3v12h-3zM900 173h12v3h-12zM545 48h3v12h-3zM540 53h12v3h-12zM569 48h3v12h-3zM564 53h12v3h-12zM545 84h3v12h-3zM540 89h12v3h-12zM569 84h3v12h-3zM564 89h12v3h-12zM53 576h3v12h-3zM48 581h12v3h-12zM65 576h3v12h-3zM60 581h12v3h-12zM77 612h3v12h-3zM72 617h12v3h-12zM89 612h3v12h-3zM84 617h12v3h-12zM785 240h3v12h-3zM780 245h12v3h-12zM797 240h3v12h-3zM792 245h12v3h-12zM773 252h3v12h-3zM768 257h12v3h-12zM797 252h3v12h-3zM792 257h12v3h-12zM785 264h3v12h-3zM780 269h12v3h-12zM809 264h3v12h-3zM804 269h12v3h-12zM785 276h3v12h-3zM780 281h12v3h-12zM797 276h3v12h-3zM792 281h12v3h-12zM437 768h3v12h-3zM432 773h12v3h-12zM473 768h3v12h-3zM468 773h12v3h-12zM449 780h3v12h-3zM444 785h12v3h-12zM449 792h3v12h-3zM444 797h12v3h-12zM461 792h3v12h-3zM456 797h12v3h-12zM437 804h3v12h-3zM432 809h12v3h-12zM473 804h3v12h-3zM468 809h12v3h-12zM341 588h3v12h-3zM336 593h12v3h-12zM377 588h3v12h-3zM372 593h12v3h-12zM341 600h3v12h-3zM336 605h12v3h-12zM377 600h3v12h-3zM372 605h12v3h-12zM197 912h3v12h-3zM192 917h12v3h-12zM197 924h3v12h-3zM192 929h12v3h-12zM233 936h3v12h-3zM228 941h12v3h-12zM233 948h3v12h-3zM228 953h12v3h-12zM161 528h3v12h-3zM156 533h12v3h-12zM185 528h3v12h-3zM180 533h12v3h-12zM149 540h3v12h-3zM144 545h12v3h-12zM185 552h3v12h-3zM180 557h12v3h-12zM149 564h3v12h-3zM144 569h12v3h-12zM173 564h3v12h-3zM168 569h12v3h-12zM917 300h3v12h-3zM912 305h12v3h-12zM929 300h3v12h-3zM924 305h12v3h-12zM917 312h3v12h-3zM912 317h12v3h-12zM953 312h3v12h-3zM948 317h12v3h-12zM629 384h3v12h-3zM624 389h12v3h-12zM665 384h3v12h-3zM660 389h12v3h-12zM641 396h3v12h-3zM636 401h12v3h-12zM653 396h3v12h-3zM648 401h12v3h-12zM629 420h3v12h-3zM624 425h12v3h-12zM665 420h3v12h-3zM660 425h12v3h-12zM245 528h3v12h-3zM240 533h12v3h-12zM281 528h3v12h-3zM276 533h12v3h-12zM257 552h3v12h-3zM252 557h12v3h-12zM269 552h3v12h-3zM264 557h12v3h-12zM245 564h3v12h-3zM240 569h12v3h-12zM281 564h3v12h-3zM276 569h12v3h-12zM293 816h3v12h-3zM288 821h12v3h-12zM317 816h3v12h-3zM312 821h12v3h-12zM305 828h3v12h-3zM300 833h12v3h-12zM329 828h3v12h-3zM324 833h12v3h-12zM293 840h3v12h-3zM288 845h12v3h-12zM317 840h3v12h-3zM312 845h12v3h-12zM305 852h3v12h-3zM300 857h12v3h-12zM329 852h3v12h-3zM324 857h12v3h-12zM389 720h3v12h-3zM384 725h12v3h-12zM425 720h3v12h-3zM420 725h12v3h-12zM401 732h3v12h-3zM396 737h12v3h-12zM413 732h3v12h-3zM408 737h12v3h-12zM389 756h3v12h-3zM384 761h12v3h-12zM425 756h3v12h-3zM420 761h12v3h-12zM737 336h3v12h-3zM732 341h12v3h-12zM761 336h3v12h-3zM756 341h12v3h-12zM749 348h3v12h-3zM744 353h12v3h-12zM749 360h3v12h-3zM744 365h12v3h-12zM737 372h3v12h-3zM732 377h12v3h-12zM761 372h3v12h-3zM756 377h12v3h-12zM437 480h3v12h-3zM432 485h12v3h-12zM461 480h3v12h-3zM456 485h12v3h-12zM461 492h3v12h-3zM456 497h12v3h-12zM473 492h3v12h-3zM468 497h12v3h-12zM437 504h3v12h-3zM432 509h12v3h-12zM449 504h3v12h-3zM444 509h12v3h-12zM449 516h3v12h-3zM444 521h12v3h-12zM473 516h3v12h-3zM468 521h12v3h-12zM17 912h3v12h-3zM12 917h12v3h-12zM29 936h3v12h-3zM24 941h12v3h-12zM17 948h3v12h-3zM12 953h12v3h-12zM29 948h3v12h-3zM24 953h12v3h-12zM257 672h3v12h-3zM252 677h12v3h-12zM281 672h3v12h-3zM276 677h12v3h-12zM245 684h3v12h-3zM240 689h12v3h-12zM257 684h3v12h-3zM252 689h12v3h-12zM269 696h3v12h-3zM264 701h12v3h-12zM281 696h3v12h-3zM276 701h12v3h-12zM245 708h3v12h-3zM240 713h12v3h-12zM269 708h3v12h-3zM264 713h12v3h-12zM917 96h3v12h-3zM912 101h12v3h-12zM953 96h3v12h-3zM948 101h12v3h-12zM917 120h3v12h-3zM912 125h12v3h-12zM953 120h3v12h-3zM948 125h12v3h-12zM5 816h3v12h-3zM0 821h12v3h-12zM41 816h3v12h-3zM36 821h12v3h-12zM17 828h3v12h-3zM12 833h12v3h-12zM29 828h3v12h-3zM24 833h12v3h-12zM17 840h3v12h-3zM12 845h12v3h-12zM5 852h3v12h-3zM0 857h12v3h-12zM41 852h3v12h-3zM36 857h12v3h-12zM641 240h3v12h-3zM636 245h12v3h-12zM665 240h3v12h-3zM660 245h12v3h-12zM653 252h3v12h-3zM648 257h12v3h-12zM653 264h3v12h-3zM648 269h12v3h-12zM641 276h3v12h-3zM636 281h12v3h-12zM665 276h3v12h-3zM660 281h12v3h-12zM341 672h3v12h-3zM336 677h12v3h-12zM377 672h3v12h-3zM372 677h12v3h-12zM353 684h3v12h-3zM348 689h12v3h-12zM365 684h3v12h-3zM360 689h12v3h-12zM341 708h3v12h-3zM336 713h12v3h-12zM377 708h3v12h-3zM372 713h12v3h-12zM485 48h3v12h-3zM480 53h12v3h-12zM521 48h3v12h-3zM516 53h12v3h-12zM485 72h3v12h-3zM480 77h12v3h-12zM521 72h3v12h-3zM516 77h12v3h-12zM389 816h3v12h-3zM384 821h12v3h-12zM425 816h3v12h-3zM420 821h12v3h-12zM401 828h3v12h-3zM396 833h12v3h-12zM401 840h3v12h-3zM396 845h12v3h-12zM413 840h3v12h-3zM408 845h12v3h-12zM389 852h3v12h-3zM384 857h12v3h-12zM425 852h3v12h-3zM420 857h12v3h-12zM437 588h3v12h-3zM432 593h12v3h-12zM473 588h3v12h-3zM468 593h12v3h-12zM437 600h3v12h-3zM432 605h12v3h-12zM473 600h3v12h-3zM468 605h12v3h-12zM305 624h3v12h-3zM300 629h12v3h-12zM329 624h3v12h-3zM324 629h12v3h-12zM293 636h3v12h-3zM288 641h12v3h-12zM305 636h3v12h-3zM300 641h12v3h-12zM317 648h3v12h-3zM312 653h12v3h-12zM329 648h3v12h-3zM324 653h12v3h-12zM293 660h3v12h-3zM288 665h12v3h-12zM317 660h3v12h-3zM312 665h12v3h-12zM521 336h3v12h-3zM516 341h12v3h-12zM521 348h3v12h-3zM516 353h12v3h-12zM485 360h3v12h-3zM480 365h12v3h-12zM485 372h3v12h-3zM480 377h12v3h-12zM149 912h3v12h-3zM144 917h12v3h-12zM149 924h3v12h-3zM144 929h12v3h-12zM185 936h3v12h-3zM180 941h12v3h-12zM185 948h3v12h-3zM180 953h12v3h-12zM689 336h3v12h-3zM684 341h12v3h-12zM713 336h3v12h-3zM708 341h12v3h-12zM701 348h3v12h-3zM696 353h12v3h-12zM701 360h3v12h-3zM696 365h12v3h-12zM689 372h3v12h-3zM684 377h12v3h-12zM713 372h3v12h-3zM708 377h12v3h-12z"/><path fill="#fff" d="M0 288h96v96h-96zM96 384h96v96h-96zM96 480h96v96h-96zM96 576h96v96h-96zM96 672h96v96h-96zM96 768h96v96h-96zM192 672h96v96h-96zM288 576h96v96h-96zM384 480h96v96h-96zM384 384h96v96h-96zM288 288h96v96h-96zM192 192h96v96h-96zM96 96h96v96h-96zM96 0h96v96h-96zM192 0h96v96h-96zM288 0h96v96h-96zM384 0h96v96h-96zM0 0h96v96h-96zM0 96h96v96h-96zM0 192h96v96h-96zM864 288h96v96h-96zM768 384h96v96h-96zM768 480h96v96h-96zM768 576h96v96h-96zM768 672h96v96h-96zM768 768h96v96h-96zM672 672h96v96h-96zM576 576h96v96h-96zM480 480h96v96h-96zM480 384h96v96h-96zM576 288h96v96h-96zM672 192h96v96h-96zM768 96h96v96h-96zM768 0h96v96h-96zM672 0h96v96h-96zM576 0h96v96h-96zM480 0h96v96h-96zM864 0h96v96h-96zM864 96h96v96h-96zM864 192h96v96h-96z"/></svg>