<svg xmlns="http://www.w3.org/2000/svg" width="960" height="960" viewBox="0 0 960 960" shape-rendering="crispEdges"><path fill="#000" d="M0 0h960v960h-960z"/><path fill="#a9c1bc" d="M0 0h48v48h-48zM0 192h48v48h-48zM0 384h48v48h-48zM48 48h48v48h-48zM48 240h48v48h-48zM48 432h48v48h-48zM96 96h48v48h-48zM96 288h48v48h-48zM144 144h48v48h-48zM144 336h48v48h-48zM192 0h48v48h-48zM192 192h48v48h-48zM192 384h48v48h-48zM240 48h48v48h-48zM240 240h48v48h-48zM240 432h48v48h-48zM288 96h48v48h-48zM288 288h48v48h-48zM336 144h48v48h-48zM336 336h48v48h-48zM384 0h48v48h-48zM384 192h48v48h-48zM384 384h48v48h-48zM432 48h48v48h-48zM432 240h48v48h-48zM432 432h48v48h-48zM480 480h48v48h-48zM480 672h48v48h-48zM480 864h48v48h-48zM528 528h48v48h-48zM528 720h48v48h-48zM528 912h48v48h-48zM576 576h48v48h-48zM576 768h48v48h-48zM624 624h48v48h-48zM624 816h48v48h-48zM672 480h48v48h-48zM672 672h48v48h-48zM672 864h48v48h-48zM720 528h48v48h-48zM720 720h48v48h-48zM720 912h48v48h-48zM768 576h48v48h-48zM768 768h48v48h-48zM816 624h48v48h-48zM816 816h48v48h-48zM864 480h48v48h-48zM864 672h48v48h-48zM864 864h48v48h-48zM912 528h48v48h-48zM912 720h48v48h-48zM912 912h48v48h-48z"/><path fill="#e0cd85" d="M24 0h24v24h-24zM0 24h24v24h-24zM72 48h24v24h-24zM48 72h24v24h-24zM216 0h24v24h-24zM240 0h24v24h-24zM240 24h24v24h-24zM216 72h24v24h-24zM432 0h24v24h-24zM456 0h24v24h-24zM432 24h24v24h-24zM456 24h24v24h-24zM384 48h24v24h-24zM408 48h24v24h-24zM384 72h24v24h-24zM408 72h24v24h-24zM480 0h24v24h-24zM552 0h24v24h-24zM528 24h24v24h-24zM504 48h24v24h-24zM528 48h24v24h-24zM480 72h24v24h-24zM552 72h24v24h-24zM600 0h24v24h-24zM648 0h24v24h-24zM576 24h24v24h-24zM600 24h24v24h-24zM624 48h24v24h-24zM648 48h24v24h-24zM576 72h24v24h-24zM624 72h24v24h-24zM696 0h24v24h-24zM744 0h24v24h-24zM696 72h24v24h-24zM744 72h24v24h-24zM768 0h24v24h-24zM840 0h24v24h-24zM768 48h24v24h-24zM840 48h24v24h-24zM888 24h24v24h-24zM912 24h24v24h-24zM888 48h24v24h-24zM912 48h24v24h-24zM480 96h24v24h-24zM552 96h24v24h-24zM504 144h24v24h-24zM528 144h24v24h-24zM480 168h24v24h-24zM552 168h24v24h-24zM600 96h24v24h-24zM624 96h24v24h-24zM576 120h24v24h-24zM624 120h24v24h-24zM600 144h24v24h-24zM648 144h24v24h-24zM600 168h24v24h-24zM624 168h24v24h-24zM744 96h24v24h-24zM720 120h24v24h-24zM696 144h24v24h-24zM744 144h24v24h-24zM672 168h24v24h-24zM720 168h24v24h-24zM744 168h24v24h-24zM792 96h24v24h-24zM768 120h24v24h-24zM792 120h24v24h-24zM816 144h24v24h-24zM840 144h24v24h-24zM816 168h24v24h-24zM936 96h24v24h-24zM912 120h24v24h-24zM888 144h24v24h-24zM864 168h24v24h-24zM24 192h24v24h-24zM0 216h24v24h-24zM48 216h24v24h-24zM72 216h24v24h-24zM0 240h24v24h-24zM24 240h24v24h-24zM72 240h24v24h-24zM48 264h24v24h-24zM192 192h24v24h-24zM264 192h24v24h-24zM216 216h24v24h-24zM240 216h24v24h-24zM192 264h24v24h-24zM264 264h24v24h-24zM432 192h24v24h-24zM408 216h24v24h-24zM456 216h24v24h-24zM384 240h24v24h-24zM432 240h24v24h-24zM408 264h24v24h-24zM504 192h24v24h-24zM552 192h24v24h-24zM504 264h24v24h-24zM552 264h24v24h-24zM648 192h24v24h-24zM624 216h24v24h-24zM600 240h24v24h-24zM648 240h24v24h-24zM576 264h24v24h-24zM624 264h24v24h-24zM648 264h24v24h-24zM672 192h24v24h-24zM720 192h24v24h-24zM696 216h24v24h-24zM744 216h24v24h-24zM672 240h24v24h-24zM720 240h24v24h-24zM696 264h24v24h-24zM744 264h24v24h-24zM804 228h24v24h-24zM900 228h24v24h-24zM504 288h24v24h-24zM528 288h24v24h-24zM480 312h24v24h-24zM528 312h24v24h-24zM504 336h24v24h-24zM552 336h24v24h-24zM504 360h24v24h-24zM528 360h24v24h-24zM624 288h24v24h-24zM576 312h24v24h-24zM600 312h24v24h-24zM648 312h24v24h-24zM576 336h24v24h-24zM624 336h24v24h-24zM648 336h24v24h-24zM600 360h24v24h-24zM672 288h24v24h-24zM744 288h24v24h-24zM696 312h24v24h-24zM720 312h24v24h-24zM672 360h24v24h-24zM744 360h24v24h-24zM840 288h24v24h-24zM816 312h24v24h-24zM792 336h24v24h-24zM840 336h24v24h-24zM768 360h24v24h-24zM816 360h24v24h-24zM840 360h24v24h-24zM888 288h24v24h-24zM864 312h24v24h-24zM912 312h24v24h-24zM936 312h24v24h-24zM864 336h24v24h-24zM888 336h24v24h-24zM936 336h24v24h-24zM912 360h24v24h-24zM0 408h24v24h-24zM72 408h24v24h-24zM0 432h24v24h-24zM24 432h24v24h-24zM216 384h24v24h-24zM240 384h24v24h-24zM240 408h24v24h-24zM216 456h24v24h-24zM432 384h24v24h-24zM384 408h24v24h-24zM408 408h24v24h-24zM456 408h24v24h-24zM384 432h24v24h-24zM432 432h24v24h-24zM456 432h24v24h-24zM408 456h24v24h-24zM528 384h24v24h-24zM504 408h24v24h-24zM552 408h24v24h-24zM480 432h24v24h-24zM528 432h24v24h-24zM504 456h24v24h-24zM624 384h24v24h-24zM648 384h24v24h-24zM576 456h24v24h-24zM600 456h24v24h-24zM672 384h24v24h-24zM720 384h24v24h-24zM720 408h24v24h-24zM744 408h24v24h-24zM672 432h24v24h-24zM696 432h24v24h-24zM696 456h24v24h-24zM744 456h24v24h-24zM792 384h24v24h-24zM840 384h24v24h-24zM768 408h24v24h-24zM792 408h24v24h-24zM816 432h24v24h-24zM840 432h24v24h-24zM768 456h24v24h-24zM816 456h24v24h-24zM888 384h24v24h-24zM936 384h24v24h-24zM864 408h24v24h-24zM888 408h24v24h-24zM912 432h24v24h-24zM936 432h24v24h-24zM864 456h24v24h-24zM912 456h24v24h-24zM0 480h24v24h-24zM72 480h24v24h-24zM24 504h24v24h-24zM48 528h24v24h-24zM0 552h24v24h-24zM72 552h24v24h-24zM96 480h24v24h-24zM168 480h24v24h-24zM96 552h24v24h-24zM168 552h24v24h-24zM216 504h24v24h-24zM240 504h24v24h-24zM216 528h24v24h-24zM240 528h24v24h-24zM312 480h24v24h-24zM360 480h24v24h-24zM336 504h24v24h-24zM336 528h24v24h-24zM312 552h24v24h-24zM360 552h24v24h-24zM456 480h24v24h-24zM432 504h24v24h-24zM408 528h24v24h-24zM456 528h24v24h-24zM384 552h24v24h-24zM432 552h24v24h-24zM456 552h24v24h-24zM48 576h24v24h-24zM72 576h24v24h-24zM0 648h24v24h-24zM24 648h24v24h-24zM96 576h24v24h-24zM168 576h24v24h-24zM144 600h24v24h-24zM120 624h24v24h-24zM144 624h24v24h-24zM96 648h24v24h-24zM168 648h24v24h-24zM264 576h24v24h-24zM264 600h24v24h-24zM192 624h24v24h-24zM192 648h24v24h-24zM288 576h24v24h-24zM360 576h24v24h-24zM312 600h24v24h-24zM312 624h24v24h-24zM336 624h24v24h-24zM288 648h24v24h-24zM360 648h24v24h-24zM408 576h24v24h-24zM384 600h24v24h-24zM432 600h24v24h-24zM456 600h24v24h-24zM384 624h24v24h-24zM408 624h24v24h-24zM456 624h24v24h-24zM432 648h24v24h-24zM576 576h24v24h-24zM648 576h24v24h-24zM600 624h24v24h-24zM624 624h24v24h-24zM576 648h24v24h-24zM648 648h24v24h-24zM768 600h24v24h-24zM840 600h24v24h-24zM768 624h24v24h-24zM792 624h24v24h-24zM48 672h24v24h-24zM72 696h24v24h-24zM0 720h24v24h-24zM24 744h24v24h-24zM96 672h24v24h-24zM168 672h24v24h-24zM144 696h24v24h-24zM120 720h24v24h-24zM144 720h24v24h-24zM96 744h24v24h-24zM168 744h24v24h-24zM192 672h24v24h-24zM264 672h24v24h-24zM216 696h24v24h-24zM240 696h24v24h-24zM192 744h24v24h-24zM264 744h24v24h-24zM288 672h24v24h-24zM360 672h24v24h-24zM312 720h24v24h-24zM336 720h24v24h-24zM288 744h24v24h-24zM360 744h24v24h-24zM408 672h24v24h-24zM432 672h24v24h-24zM432 696h24v24h-24zM408 744h24v24h-24zM24 768h24v24h-24zM0 792h24v24h-24zM48 792h24v24h-24zM24 816h24v24h-24zM72 816h24v24h-24zM48 840h24v24h-24zM120 768h24v24h-24zM96 792h24v24h-24zM144 792h24v24h-24zM120 816h24v24h-24zM168 816h24v24h-24zM144 840h24v24h-24zM192 768h24v24h-24zM216 768h24v24h-24zM240 840h24v24h-24zM264 840h24v24h-24zM288 768h24v24h-24zM312 768h24v24h-24zM336 840h24v24h-24zM360 840h24v24h-24zM432 768h24v24h-24zM456 768h24v24h-24zM384 840h24v24h-24zM408 840h24v24h-24zM576 768h24v24h-24zM648 768h24v24h-24zM600 816h24v24h-24zM624 816h24v24h-24zM576 840h24v24h-24zM648 840h24v24h-24zM768 768h24v24h-24zM816 768h24v24h-24zM840 792h24v24h-24zM768 816h24v24h-24zM792 840h24v24h-24zM840 840h24v24h-24zM48 864h24v24h-24zM0 888h24v24h-24zM24 888h24v24h-24zM72 888h24v24h-24zM0 912h24v24h-24zM48 912h24v24h-24zM72 912h24v24h-24zM24 936h24v24h-24zM120 864h24v24h-24zM96 888h24v24h-24zM144 888h24v24h-24zM168 888h24v24h-24zM96 912h24v24h-24zM120 912h24v24h-24zM168 912h24v24h-24zM144 936h24v24h-24zM192 888h24v24h-24zM264 888h24v24h-24zM192 912h24v24h-24zM216 912h24v24h-24zM360 864h24v24h-24zM336 888h24v24h-24zM312 912h24v24h-24zM288 936h24v24h-24zM384 864h24v24h-24zM456 864h24v24h-24zM408 888h24v24h-24zM408 912h24v24h-24zM432 912h24v24h-24zM384 936h24v24h-24zM456 936h24v24h-24zM480 768h24v24h-24zM552 768h24v24h-24zM504 816h24v24h-24zM528 816h24v24h-24zM480 840h24v24h-24zM552 840h24v24h-24zM120 288h24v24h-24zM144 288h24v24h-24zM144 312h24v24h-24zM120 360h24v24h-24zM96 384h24v24h-24zM168 384h24v24h-24zM120 408h24v24h-24zM144 432h24v24h-24zM96 456h24v24h-24zM168 456h24v24h-24zM480 480h24v24h-24zM552 480h24v24h-24zM504 528h24v24h-24zM528 528h24v24h-24zM480 552h24v24h-24zM552 552h24v24h-24zM672 480h24v24h-24zM720 480h24v24h-24zM720 504h24v24h-24zM744 504h24v24h-24zM672 528h24v24h-24zM696 528h24v24h-24zM696 552h24v24h-24zM744 552h24v24h-24zM576 864h24v24h-24zM648 864h24v24h-24zM600 912h24v24h-24zM624 912h24v24h-24zM576 936h24v24h-24zM648 936h24v24h-24zM120 96h24v24h-24zM96 120h24v24h-24zM144 120h24v24h-24zM168 120h24v24h-24zM96 144h24v24h-24zM120 144h24v24h-24zM168 144h24v24h-24zM144 168h24v24h-24zM336 0h24v24h-24zM360 0h24v24h-24zM336 24h24v24h-24zM360 24h24v24h-24zM288 48h24v24h-24zM312 48h24v24h-24zM288 72h24v24h-24zM312 72h24v24h-24z"/><path fill="#fff" d="M300 468h12v12h-12zM288 468h12v12h-12zM276 468h12v12h-12zM276 456h12v12h-12zM276 444h12v12h-12zM276 432h12v12h-12zM276 420h12v12h-12zM276 408h12v12h-12zM276 396h12v12h-12zM276 384h12v12h-12zM276 372h12v12h-12zM276 360h12v12h-12zM276 348h12v12h-12zM276 336h12v12h-12zM276 324h12v12h-12zM276 312h12v12h-12zM276 300h12v12h-12zM276 288h12v12h-12zM276 276h12v12h-12zM276 264h12v12h-12zM276 252h12v12h-12zM276 240h12v12h-12zM276 228h12v12h-12zM276 216h12v12h-12zM276 204h12v12h-12zM276 192h12v12h-12zM276 180h12v12h-12zM276 168h12v12h-12zM276 156h12v12h-12zM276 144h12v12h-12zM276 132h12v12h-12zM276 120h12v12h-12zM276 108h12v12h-12zM276 96h12v12h-12zM276 84h12v12h-12zM288 96h12v12h-12zM300 108h12v12h-12zM312 120h12v12h-12zM324 132h12v12h-12zM336 144h12v12h-12zM348 156h12v12h-12zM360 168h12v12h-12zM372 180h12v12h-12zM384 192h12v12h-12zM396 204h12v12h-12zM408 216h12v12h-12zM420 228h12v12h-12zM432 240h12v12h-12zM444 252h12v12h-12zM432 264h12v12h-12zM420 276h12v12h-12zM408 288h12v12h-12zM396 300h12v12h-12zM384 312h12v12h-12zM372 324h12v12h-12zM360 336h12v12h-12zM348 348h12v12h-12zM336 360h12v12h-12zM324 372h12v12h-12zM312 384h12v12h-12zM300 396h12v12h-12zM288 408h12v12h-12zM264 432h12v12h-12zM252 444h12v12h-12zM240 456h12v12h-12zM228 468h12v12h-12zM228 456h12v12h-12zM216 456h12v12h-12zM204 456h12v12h-12zM192 456h12v12h-12zM180 456h12v12h-12zM168 456h12v12h-12zM156 456h12v12h-12zM144 456h12v12h-12zM132 456h12v12h-12zM120 456h12v12h-12zM108 456h12v12h-12zM252 456h12v12h-12zM264 456h12v12h-12zM288 456h12v12h-12zM300 456h12v12h-12zM312 456h12v12h-12zM324 456h12v12h-12zM336 456h12v12h-12zM348 456h12v12h-12zM360 456h12v12h-12zM360 444h12v12h-12zM360 432h12v12h-12zM360 420h12v12h-12zM360 408h12v12h-12zM360 396h12v12h-12zM360 384h12v12h-12zM360 372h12v12h-12zM360 360h12v12h-12zM360 348h12v12h-12zM360 324h12v12h-12zM360 312h12v12h-12zM360 300h12v12h-12zM360 288h12v12h-12zM360 276h12v12h-12zM360 264h12v12h-12zM360 252h12v12h-12zM360 240h12v12h-12zM360 228h12v12h-12zM372 240h12v12h-12zM384 252h12v12h-12zM396 264h12v12h-12zM408 276h12v12h-12zM420 288h12v12h-12zM348 216h12v12h-12zM336 204h12v12h-12zM324 192h12v12h-12zM312 204h12v12h-12zM300 216h12v12h-12zM288 228h12v12h-12zM264 252h12v12h-12zM252 264h12v12h-12zM240 276h12v12h-12zM228 288h12v12h-12zM216 300h12v12h-12zM204 312h12v12h-12zM192 324h12v12h-12zM180 336h12v12h-12zM168 348h12v12h-12zM168 336h12v12h-12zM168 324h12v12h-12zM168 312h12v12h-12zM168 300h12v12h-12zM168 288h12v12h-12zM168 276h12v12h-12zM168 264h12v12h-12zM168 252h12v12h-12zM168 240h12v12h-12zM168 228h12v12h-12zM168 216h12v12h-12zM168 204h12v12h-12zM168 192h12v12h-12zM168 180h12v12h-12zM168 168h12v12h-12zM168 156h12v12h-12zM168 144h12v12h-12zM168 132h12v12h-12zM168 120h12v12h-12zM168 108h12v12h-12zM168 96h12v12h-12zM168 84h12v12h-12zM168 72h12v12h-12zM180 84h12v12h-12zM192 96h12v12h-12zM204 108h12v12h-12zM216 120h12v12h-12zM228 132h12v12h-12zM240 144h12v12h-12zM252 156h12v12h-12zM264 168h12v12h-12zM288 192h12v12h-12zM300 204h12v12h-12zM312 216h12v12h-12zM324 228h12v12h-12zM336 240h12v12h-12zM348 252h12v12h-12zM372 276h12v12h-12zM384 288h12v12h-12zM408 312h12v12h-12zM420 324h12v12h-12zM432 336h12v12h-12zM444 348h12v12h-12zM456 360h12v12h-12zM468 372h12v12h-12zM156 60h12v12h-12zM144 48h12v12h-12zM132 36h12v12h-12zM120 24h12v12h-12zM120 36h12v12h-12zM120 48h12v12h-12zM120 60h12v12h-12zM120 72h12v12h-12zM120 84h12v12h-12zM120 96h12v12h-12zM120 108h12v12h-12zM120 120h12v12h-12zM120 132h12v12h-12zM120 144h12v12h-12zM120 156h12v12h-12zM120 168h12v12h-12zM132 180h12v12h-12zM144 192h12v12h-12zM156 204h12v12h-12zM180 228h12v12h-12zM192 240h12v12h-12zM204 252h12v12h-12zM216 264h12v12h-12zM228 276h12v12h-12zM240 288h12v12h-12zM252 300h12v12h-12zM264 312h12v12h-12zM288 336h12v12h-12zM300 348h12v12h-12zM312 360h12v12h-12zM336 384h12v12h-12zM348 396h12v12h-12zM372 372h12v12h-12zM384 360h12v12h-12zM396 348h12v12h-12zM408 336h12v12h-12zM396 336h12v12h-12zM384 336h12v12h-12zM372 336h12v12h-12zM348 336h12v12h-12zM336 336h12v12h-12zM324 336h12v12h-12zM312 336h12v12h-12zM300 336h12v12h-12zM264 336h12v12h-12zM252 336h12v12h-12zM240 336h12v12h-12zM228 336h12v12h-12zM216 336h12v12h-12zM204 336h12v12h-12zM192 336h12v12h-12zM156 336h12v12h-12zM144 336h12v12h-12zM132 336h12v12h-12zM120 336h12v12h-12zM108 336h12v12h-12zM96 336h12v12h-12zM84 336h12v12h-12zM132 60h12v12h-12zM108 84h12v12h-12zM96 96h12v12h-12zM84 108h12v12h-12zM72 120h12v12h-12zM84 132h12v12h-12zM96 144h12v12h-12zM108 156h12v12h-12zM252 348h12v12h-12zM240 360h12v12h-12zM228 372h12v12h-12zM216 384h12v12h-12zM204 396h12v12h-12zM192 408h12v12h-12zM180 420h12v12h-12zM180 408h12v12h-12zM180 396h12v12h-12zM180 384h12v12h-12zM180 372h12v12h-12zM180 360h12v12h-12zM180 348h12v12h-12zM180 324h12v12h-12zM180 312h12v12h-12zM192 396h12v12h-12zM216 396h12v12h-12zM228 396h12v12h-12zM240 396h12v12h-12zM252 396h12v12h-12zM264 396h12v12h-12zM288 396h12v12h-12zM312 396h12v12h-12zM324 396h12v12h-12zM324 384h12v12h-12zM324 360h12v12h-12zM324 348h12v12h-12zM324 324h12v12h-12zM324 312h12v12h-12zM324 300h12v12h-12zM324 288h12v12h-12zM324 276h12v12h-12zM324 264h12v12h-12zM324 252h12v12h-12zM324 240h12v12h-12zM324 216h12v12h-12zM324 204h12v12h-12zM324 180h12v12h-12zM324 168h12v12h-12zM324 156h12v12h-12zM324 408h12v12h-12zM324 420h12v12h-12zM324 432h12v12h-12zM336 420h12v12h-12zM348 408h12v12h-12zM372 384h12v12h-12zM384 372h12v12h-12zM396 360h12v12h-12zM408 348h12v12h-12zM408 324h12v12h-12zM336 228h12v12h-12zM336 216h12v12h-12zM336 192h12v12h-12zM336 180h12v12h-12zM336 168h12v12h-12zM336 156h12v12h-12zM336 132h12v12h-12zM336 120h12v12h-12zM336 108h12v12h-12zM336 96h12v12h-12zM336 84h12v12h-12zM336 72h12v12h-12zM336 60h12v12h-12zM336 48h12v12h-12zM336 36h12v12h-12zM336 24h12v12h-12zM348 36h12v12h-12zM360 48h12v12h-12zM372 60h12v12h-12zM384 72h12v12h-12zM396 84h12v12h-12zM408 96h12v12h-12zM420 108h12v12h-12zM432 120h12v12h-12zM444 132h12v12h-12zM456 144h12v12h-12zM384 84h12v12h-12zM384 96h12v12h-12zM384 108h12v12h-12zM384 120h12v12h-12zM384 132h12v12h-12zM384 144h12v12h-12zM384 156h12v12h-12zM384 168h12v12h-12zM384 180h12v12h-12zM384 204h12v12h-12zM384 216h12v12h-12zM384 228h12v12h-12zM384 240h12v12h-12zM384 264h12v12h-12zM384 276h12v12h-12zM384 300h12v12h-12zM384 324h12v12h-12zM384 348h12v12h-12zM372 144h12v12h-12zM360 144h12v12h-12zM348 144h12v12h-12zM324 144h12v12h-12zM312 144h12v12h-12zM300 144h12v12h-12zM288 144h12v12h-12zM264 144h12v12h-12zM252 144h12v12h-12zM228 144h12v12h-12zM216 144h12v12h-12zM204 144h12v12h-12zM192 144h12v12h-12zM180 144h12v12h-12zM156 144h12v12h-12zM144 144h12v12h-12zM132 144h12v12h-12zM108 144h12v12h-12zM96 156h12v12h-12zM96 168h12v12h-12zM96 180h12v12h-12zM96 192h12v12h-12zM96 204h12v12h-12zM96 216h12v12h-12zM96 228h12v12h-12zM96 240h12v12h-12zM96 252h12v12h-12zM96 264h12v12h-12zM96 276h12v12h-12zM96 288h12v12h-12zM96 300h12v12h-12zM96 312h12v12h-12zM96 324h12v12h-12zM120 348h12v12h-12zM132 360h12v12h-12zM144 372h12v12h-12zM156 384h12v12h-12zM168 396h12v12h-12zM168 408h12v12h-12zM156 408h12v12h-12zM144 408h12v12h-12zM132 408h12v12h-12zM120 408h12v12h-12zM108 408h12v12h-12zM96 408h12v12h-12zM84 408h12v12h-12zM72 408h12v12h-12zM60 408h12v12h-12zM48 408h12v12h-12zM36 408h12v12h-12zM24 408h12v12h-12zM12 408h12v12h-12zM12 396h12v12h-12zM12 384h12v12h-12zM12 372h12v12h-12zM12 360h12v12h-12zM12 348h12v12h-12zM12 336h12v12h-12zM12 324h12v12h-12zM12 312h12v12h-12zM12 300h12v12h-12zM12 288h12v12h-12zM12 276h12v12h-12zM12 264h12v12h-12zM12 252h12v12h-12zM12 240h12v12h-12zM12 228h12v12h-12zM12 216h12v12h-12zM12 204h12v12h-12zM12 192h12v12h-12zM12 180h12v12h-12zM12 168h12v12h-12zM12 156h12v12h-12zM12 144h12v12h-12zM12 132h12v12h-12zM12 120h12v12h-12zM12 108h12v12h-12zM12 96h12v12h-12zM12 84h12v12h-12zM12 72h12v12h-12zM12 60h12v12h-12zM24 72h12v12h-12zM36 84h12v12h-12zM48 96h12v12h-12zM60 108h12v12h-12zM252 312h12v12h-12zM240 312h12v12h-12zM240 324h12v12h-12zM240 348h12v12h-12zM240 372h12v12h-12zM240 384h12v12h-12zM240 408h12v12h-12zM240 420h12v12h-12zM228 408h12v12h-12zM204 384h12v12h-12zM192 372h12v12h-12zM144 324h12v12h-12zM132 312h12v12h-12zM120 300h12v12h-12zM108 288h12v12h-12zM84 264h12v12h-12zM72 252h12v12h-12zM60 240h12v12h-12zM48 228h12v12h-12zM60 228h12v12h-12zM72 228h12v12h-12zM84 228h12v12h-12zM108 228h12v12h-12zM120 228h12v12h-12zM132 228h12v12h-12zM144 228h12v12h-12zM156 228h12v12h-12zM192 228h12v12h-12zM204 228h12v12h-12zM216 228h12v12h-12zM228 228h12v12h-12zM240 228h12v12h-12zM252 228h12v12h-12zM264 228h12v12h-12zM300 228h12v12h-12zM312 228h12v12h-12zM348 228h12v12h-12zM372 228h12v12h-12zM636 192h12v12h-12zM648 204h12v12h-12zM660 216h12v12h-12zM672 228h12v12h-12zM684 240h12v12h-12zM696 252h12v12h-12zM708 264h12v12h-12zM720 276h12v12h-12zM732 288h12v12h-12zM744 300h12v12h-12zM756 312h12v12h-12zM768 324h12v12h-12zM708 288h12v12h-12zM696 300h12v12h-12zM684 312h12v12h-12zM672 324h12v12h-12zM732 264h12v12h-12zM744 252h12v12h-12zM756 240h12v12h-12zM768 228h12v12h-12zM780 216h12v12h-12zM792 204h12v12h-12zM804 192h12v12h-12zM816 180h12v12h-12zM828 168h12v12h-12zM840 156h12v12h-12zM852 144h12v12h-12zM864 132h12v12h-12zM876 120h12v12h-12zM888 108h12v12h-12zM900 96h12v12h-12zM912 84h12v12h-12zM924 72h12v12h-12zM804 180h12v12h-12zM792 180h12v12h-12zM780 180h12v12h-12zM768 180h12v12h-12zM828 180h12v12h-12zM840 180h12v12h-12zM852 180h12v12h-12zM864 180h12v12h-12zM876 180h12v12h-12zM888 180h12v12h-12zM900 180h12v12h-12zM888 192h12v12h-12zM876 204h12v12h-12zM864 216h12v12h-12zM852 228h12v12h-12zM840 240h12v12h-12zM828 252h12v12h-12zM816 264h12v12h-12zM804 276h12v12h-12zM792 288h12v12h-12zM780 300h12v12h-12zM768 312h12v12h-12zM756 324h12v12h-12zM744 336h12v12h-12zM732 348h12v12h-12zM720 360h12v12h-12zM708 348h12v12h-12zM696 336h12v12h-12zM684 324h12v12h-12zM684 300h12v12h-12zM684 288h12v12h-12zM684 276h12v12h-12zM684 264h12v12h-12zM684 252h12v12h-12zM684 228h12v12h-12zM684 216h12v12h-12zM684 204h12v12h-12zM684 192h12v12h-12zM684 180h12v12h-12zM684 168h12v12h-12zM684 156h12v12h-12zM684 144h12v12h-12zM684 132h12v12h-12zM684 120h12v12h-12zM684 108h12v12h-12zM684 96h12v12h-12zM684 84h12v12h-12zM684 72h12v12h-12zM696 72h12v12h-12zM708 72h12v12h-12zM720 72h12v12h-12zM732 72h12v12h-12zM744 72h12v12h-12zM756 72h12v12h-12zM768 72h12v12h-12zM780 72h12v12h-12zM792 72h12v12h-12zM804 72h12v12h-12zM816 72h12v12h-12zM828 72h12v12h-12zM840 72h12v12h-12zM852 72h12v12h-12zM864 72h12v12h-12zM876 72h12v12h-12zM888 72h12v12h-12zM900 72h12v12h-12zM912 72h12v12h-12zM900 84h12v12h-12zM888 96h12v12h-12zM876 108h12v12h-12zM864 120h12v12h-12zM852 132h12v12h-12zM840 144h12v12h-12zM828 156h12v12h-12zM816 168h12v12h-12zM792 192h12v12h-12zM780 204h12v12h-12zM768 216h12v12h-12zM756 228h12v12h-12zM744 240h12v12h-12zM732 252h12v12h-12zM720 264h12v12h-12zM708 276h12v12h-12zM696 288h12v12h-12zM672 312h12v12h-12zM660 324h12v12h-12zM648 336h12v12h-12zM636 348h12v12h-12zM624 360h12v12h-12zM612 372h12v12h-12zM900 108h12v12h-12zM900 120h12v12h-12zM900 132h12v12h-12zM900 144h12v12h-12zM900 156h12v12h-12zM900 168h12v12h-12zM900 192h12v12h-12zM900 204h12v12h-12zM900 216h12v12h-12zM888 216h12v12h-12zM876 216h12v12h-12zM852 216h12v12h-12zM852 240h12v12h-12zM852 252h12v12h-12zM852 264h12v12h-12zM852 276h12v12h-12zM852 288h12v12h-12zM852 300h12v12h-12zM852 312h12v12h-12zM852 324h12v12h-12zM852 336h12v12h-12zM840 348h12v12h-12zM828 360h12v12h-12zM816 372h12v12h-12zM804 384h12v12h-12zM792 396h12v12h-12zM780 408h12v12h-12zM780 396h12v12h-12zM780 384h12v12h-12zM780 372h12v12h-12zM768 360h12v12h-12zM756 348h12v12h-12zM732 324h12v12h-12zM720 312h12v12h-12zM708 300h12v12h-12zM672 264h12v12h-12zM660 252h12v12h-12zM648 240h12v12h-12zM636 228h12v12h-12zM624 216h12v12h-12zM612 204h12v12h-12zM600 192h12v12h-12zM588 180h12v12h-12zM576 168h12v12h-12zM564 156h12v12h-12zM552 144h12v12h-12zM540 132h12v12h-12zM528 120h12v12h-12zM516 120h12v12h-12zM504 120h12v12h-12zM516 132h12v12h-12zM528 144h12v12h-12zM540 156h12v12h-12zM552 168h12v12h-12zM564 180h12v12h-12zM576 192h12v12h-12zM588 204h12v12h-12zM600 216h12v12h-12zM612 228h12v12h-12zM624 240h12v12h-12zM636 252h12v12h-12zM648 264h12v12h-12zM660 276h12v12h-12zM672 288h12v12h-12zM696 312h12v12h-12zM708 324h12v12h-12zM708 312h12v12h-12zM708 252h12v12h-12zM708 240h12v12h-12zM708 228h12v12h-12zM708 216h12v12h-12zM708 204h12v12h-12zM708 192h12v12h-12zM708 180h12v12h-12zM708 168h12v12h-12zM708 156h12v12h-12zM708 144h12v12h-12zM708 132h12v12h-12zM708 120h12v12h-12zM708 108h12v12h-12zM708 96h12v12h-12zM708 84h12v12h-12zM708 60h12v12h-12zM708 48h12v12h-12zM708 36h12v12h-12zM708 24h12v12h-12zM708 12h12v12h-12zM720 24h12v12h-12zM732 36h12v12h-12zM744 48h12v12h-12zM756 60h12v12h-12zM780 84h12v12h-12zM792 96h12v12h-12zM792 108h12v12h-12zM792 120h12v12h-12zM792 132h12v12h-12zM792 144h12v12h-12zM792 156h12v12h-12zM792 168h12v12h-12zM792 216h12v12h-12zM804 216h12v12h-12zM816 216h12v12h-12zM828 216h12v12h-12zM840 216h12v12h-12zM912 216h12v12h-12zM924 216h12v12h-12zM912 228h12v12h-12zM900 240h12v12h-12zM888 252h12v12h-12zM876 264h12v12h-12zM864 276h12v12h-12zM840 300h12v12h-12zM828 312h12v12h-12zM816 324h12v12h-12zM804 336h12v12h-12zM792 348h12v12h-12zM780 360h12v12h-12zM768 372h12v12h-12zM756 384h12v12h-12zM744 396h12v12h-12zM732 408h12v12h-12zM720 420h12v12h-12zM732 432h12v12h-12zM744 444h12v12h-12zM756 456h12v12h-12zM744 456h12v12h-12zM732 456h12v12h-12zM720 456h12v12h-12zM708 456h12v12h-12zM696 456h12v12h-12zM684 456h12v12h-12zM672 456h12v12h-12zM660 456h12v12h-12zM648 456h12v12h-12zM636 456h12v12h-12zM624 456h12v12h-12zM612 456h12v12h-12zM600 456h12v12h-12zM588 456h12v12h-12zM576 456h12v12h-12zM564 456h12v12h-12zM552 456h12v12h-12zM540 456h12v12h-12zM528 456h12v12h-12zM516 456h12v12h-12zM504 456h12v12h-12zM516 444h12v12h-12zM528 432h12v12h-12zM540 420h12v12h-12zM540 408h12v12h-12zM540 396h12v12h-12zM540 384h12v12h-12zM540 372h12v12h-12zM540 360h12v12h-12zM540 348h12v12h-12zM540 336h12v12h-12zM540 324h12v12h-12zM540 312h12v12h-12zM540 300h12v12h-12zM540 288h12v12h-12zM540 276h12v12h-12zM540 264h12v12h-12zM540 252h12v12h-12zM540 240h12v12h-12zM540 228h12v12h-12zM540 216h12v12h-12zM540 204h12v12h-12zM540 432h12v12h-12zM540 444h12v12h-12zM600 444h12v12h-12zM612 432h12v12h-12zM624 420h12v12h-12zM636 408h12v12h-12zM648 396h12v12h-12zM660 384h12v12h-12zM672 372h12v12h-12zM684 360h12v12h-12zM696 348h12v12h-12zM708 336h12v12h-12zM720 228h12v12h-12zM732 216h12v12h-12zM744 204h12v12h-12zM756 192h12v12h-12zM780 168h12v12h-12zM696 276h12v12h-12zM720 300h12v12h-12zM732 312h12v12h-12zM744 324h12v12h-12zM756 336h12v12h-12zM768 348h12v12h-12zM792 372h12v12h-12zM816 396h12v12h-12zM828 408h12v12h-12zM840 420h12v12h-12zM840 408h12v12h-12zM840 396h12v12h-12zM840 384h12v12h-12zM840 372h12v12h-12zM840 360h12v12h-12zM840 336h12v12h-12zM840 324h12v12h-12zM840 312h12v12h-12zM840 288h12v12h-12zM840 276h12v12h-12zM840 264h12v12h-12zM840 252h12v12h-12zM840 228h12v12h-12zM840 204h12v12h-12zM840 192h12v12h-12zM840 168h12v12h-12zM840 132h12v12h-12zM840 120h12v12h-12zM840 108h12v12h-12zM840 96h12v12h-12zM840 84h12v12h-12zM840 60h12v12h-12zM840 48h12v12h-12zM840 36h12v12h-12zM840 24h12v12h-12zM828 24h12v12h-12zM816 24h12v12h-12zM804 24h12v12h-12zM792 24h12v12h-12zM780 36h12v12h-12zM768 48h12v12h-12zM732 84h12v12h-12zM720 96h12v12h-12zM696 120h12v12h-12zM672 144h12v12h-12zM660 156h12v12h-12zM648 168h12v12h-12zM660 180h12v12h-12zM672 192h12v12h-12zM696 216h12v12h-12zM720 240h12v12h-12zM744 264h12v12h-12zM756 276h12v12h-12zM768 288h12v12h-12zM792 312h12v12h-12zM804 324h12v12h-12zM816 336h12v12h-12zM828 348h12v12h-12zM852 372h12v12h-12zM864 384h12v12h-12zM876 396h12v12h-12zM888 408h12v12h-12zM900 420h12v12h-12zM912 432h12v12h-12zM900 432h12v12h-12zM888 432h12v12h-12zM876 432h12v12h-12zM864 432h12v12h-12zM852 432h12v12h-12zM840 432h12v12h-12zM828 432h12v12h-12zM816 432h12v12h-12zM804 432h12v12h-12zM792 432h12v12h-12zM780 432h12v12h-12zM768 432h12v12h-12zM756 432h12v12h-12zM744 432h12v12h-12zM720 432h12v12h-12zM708 432h12v12h-12zM696 432h12v12h-12zM684 432h12v12h-12zM672 432h12v12h-12zM660 432h12v12h-12zM660 420h12v12h-12zM660 408h12v12h-12zM660 396h12v12h-12zM660 372h12v12h-12zM660 360h12v12h-12zM660 348h12v12h-12zM660 336h12v12h-12zM660 312h12v12h-12zM660 300h12v12h-12zM660 288h12v12h-12zM660 264h12v12h-12zM660 240h12v12h-12zM660 228h12v12h-12zM660 204h12v12h-12zM660 192h12v12h-12zM660 168h12v12h-12zM660 144h12v12h-12zM660 132h12v12h-12zM660 120h12v12h-12zM660 108h12v12h-12zM672 120h12v12h-12zM696 144h12v12h-12zM720 168h12v12h-12zM732 180h12v12h-12zM744 192h12v12h-12zM756 204h12v12h-12zM780 228h12v12h-12zM792 240h12v12h-12zM804 252h12v12h-12zM828 276h12v12h-12zM864 312h12v12h-12zM816 312h12v12h-12zM804 312h12v12h-12zM780 312h12v12h-12zM744 312h12v12h-12zM648 312h12v12h-12zM636 312h12v12h-12zM624 312h12v12h-12zM612 312h12v12h-12zM600 312h12v12h-12zM588 312h12v12h-12zM576 312h12v12h-12zM564 312h12v12h-12zM552 312h12v12h-12zM528 312h12v12h-12zM516 312h12v12h-12zM300 480h12v12h-12zM288 480h12v12h-12zM276 480h12v12h-12zM276 492h12v12h-12zM276 504h12v12h-12zM276 516h12v12h-12zM276 528h12v12h-12zM276 540h12v12h-12zM276 552h12v12h-12zM276 564h12v12h-12zM276 576h12v12h-12zM276 588h12v12h-12zM276 600h12v12h-12zM276 612h12v12h-12zM276 624h12v12h-12zM276 636h12v12h-12zM276 648h12v12h-12zM276 660h12v12h-12zM276 672h12v12h-12zM276 684h12v12h-12zM276 696h12v12h-12zM276 708h12v12h-12zM276 720h12v12h-12zM276 732h12v12h-12zM276 744h12v12h-12zM276 756h12v12h-12zM276 768h12v12h-12zM276 780h12v12h-12zM276 792h12v12h-12zM276 804h12v12h-12zM276 816h12v12h-12zM276 828h12v12h-12zM276 840h12v12h-12zM276 852h12v12h-12zM276 864h12v12h-12zM288 852h12v12h-12zM300 840h12v12h-12zM312 828h12v12h-12zM324 816h12v12h-12zM336 804h12v12h-12zM348 792h12v12h-12zM360 780h12v12h-12zM372 768h12v12h-12zM384 756h12v12h-12zM396 744h12v12h-12zM408 732h12v12h-12zM420 720h12v12h-12zM432 708h12v12h-12zM444 696h12v12h-12zM432 684h12v12h-12zM420 672h12v12h-12zM408 660h12v12h-12zM396 648h12v12h-12zM384 636h12v12h-12zM372 624h12v12h-12zM360 612h12v12h-12zM348 600h12v12h-12zM336 588h12v12h-12zM324 576h12v12h-12zM312 564h12v12h-12zM300 552h12v12h-12zM288 540h12v12h-12zM264 516h12v12h-12zM252 504h12v12h-12zM240 492h12v12h-12zM228 480h12v12h-12zM228 492h12v12h-12zM216 492h12v12h-12zM204 492h12v12h-12zM192 492h12v12h-12zM180 492h12v12h-12zM168 492h12v12h-12zM156 492h12v12h-12zM144 492h12v12h-12zM132 492h12v12h-12zM120 492h12v12h-12zM108 492h12v12h-12zM252 492h12v12h-12zM264 492h12v12h-12zM288 492h12v12h-12zM300 492h12v12h-12zM312 492h12v12h-12zM324 492h12v12h-12zM336 492h12v12h-12zM348 492h12v12h-12zM360 492h12v12h-12zM360 504h12v12h-12zM360 516h12v12h-12zM360 528h12v12h-12zM360 540h12v12h-12zM360 552h12v12h-12zM360 564h12v12h-12zM360 576h12v12h-12zM360 588h12v12h-12zM360 600h12v12h-12zM360 624h12v12h-12zM360 636h12v12h-12zM360 648h12v12h-12zM360 660h12v12h-12zM360 672h12v12h-12zM360 684h12v12h-12zM360 696h12v12h-12zM360 708h12v12h-12zM360 720h12v12h-12zM372 708h12v12h-12zM384 696h12v12h-12zM396 684h12v12h-12zM408 672h12v12h-12zM420 660h12v12h-12zM348 732h12v12h-12zM336 744h12v12h-12zM324 756h12v12h-12zM312 744h12v12h-12zM300 732h12v12h-12zM288 720h12v12h-12zM264 696h12v12h-12zM252 684h12v12h-12zM240 672h12v12h-12zM228 660h12v12h-12zM216 648h12v12h-12zM204 636h12v12h-12zM192 624h12v12h-12zM180 612h12v12h-12zM168 600h12v12h-12zM168 612h12v12h-12zM168 624h12v12h-12zM168 636h12v12h-12zM168 648h12v12h-12zM168 660h12v12h-12zM168 672h12v12h-12zM168 684h12v12h-12zM168 696h12v12h-12zM168 708h12v12h-12zM168 720h12v12h-12zM168 732h12v12h-12zM168 744h12v12h-12zM168 756h12v12h-12zM168 768h12v12h-12zM168 780h12v12h-12zM168 792h12v12h-12zM168 804h12v12h-12zM168 816h12v12h-12zM168 828h12v12h-12zM168 840h12v12h-12zM168 852h12v12h-12zM168 864h12v12h-12zM168 876h12v12h-12zM180 864h12v12h-12zM192 852h12v12h-12zM204 840h12v12h-12zM216 828h12v12h-12zM228 816h12v12h-12zM240 804h12v12h-12zM252 792h12v12h-12zM264 780h12v12h-12zM288 756h12v12h-12zM300 744h12v12h-12zM312 732h12v12h-12zM324 720h12v12h-12zM336 708h12v12h-12zM348 696h12v12h-12zM372 672h12v12h-12zM384 660h12v12h-12zM408 636h12v12h-12zM420 624h12v12h-12zM432 612h12v12h-12zM444 600h12v12h-12zM456 588h12v12h-12zM468 576h12v12h-12zM156 888h12v12h-12zM144 900h12v12h-12zM132 912h12v12h-12zM120 924h12v12h-12zM120 912h12v12h-12zM120 900h12v12h-12zM120 888h12v12h-12zM120 876h12v12h-12zM120 864h12v12h-12zM120 852h12v12h-12zM120 840h12v12h-12zM120 828h12v12h-12zM120 816h12v12h-12zM120 804h12v12h-12zM120 792h12v12h-12zM120 780h12v12h-12zM132 768h12v12h-12zM144 756h12v12h-12zM156 744h12v12h-12zM180 720h12v12h-12zM192 708h12v12h-12zM204 696h12v12h-12zM216 684h12v12h-12zM228 672h12v12h-12zM240 660h12v12h-12zM252 648h12v12h-12zM264 636h12v12h-12zM288 612h12v12h-12zM300 600h12v12h-12zM312 588h12v12h-12zM336 564h12v12h-12zM348 552h12v12h-12zM372 576h12v12h-12zM384 588h12v12h-12zM396 600h12v12h-12zM408 612h12v12h-12zM396 612h12v12h-12zM384 612h12v12h-12zM372 612h12v12h-12zM348 612h12v12h-12zM336 612h12v12h-12zM324 612h12v12h-12zM312 612h12v12h-12zM300 612h12v12h-12zM264 612h12v12h-12zM252 612h12v12h-12zM240 612h12v12h-12zM228 612h12v12h-12zM216 612h12v12h-12zM204 612h12v12h-12zM192 612h12v12h-12zM156 612h12v12h-12zM144 612h12v12h-12zM132 612h12v12h-12zM120 612h12v12h-12zM108 612h12v12h-12zM96 612h12v12h-12zM84 612h12v12h-12zM132 888h12v12h-12zM108 864h12v12h-12zM96 852h12v12h-12zM84 840h12v12h-12zM72 828h12v12h-12zM84 816h12v12h-12zM96 804h12v12h-12zM108 792h12v12h-12zM252 600h12v12h-12zM240 588h12v12h-12zM228 576h12v12h-12zM216 564h12v12h-12zM204 552h12v12h-12zM192 540h12v12h-12zM180 528h12v12h-12zM180 540h12v12h-12zM180 552h12v12h-12zM180 564h12v12h-12zM180 576h12v12h-12zM180 588h12v12h-12zM180 600h12v12h-12zM180 624h12v12h-12zM180 636h12v12h-12zM192 552h12v12h-12zM216 552h12v12h-12zM228 552h12v12h-12zM240 552h12v12h-12zM252 552h12v12h-12zM264 552h12v12h-12zM288 552h12v12h-12zM312 552h12v12h-12zM324 552h12v12h-12zM324 564h12v12h-12zM324 588h12v12h-12zM324 600h12v12h-12zM324 624h12v12h-12zM324 636h12v12h-12zM324 648h12v12h-12zM324 660h12v12h-12zM324 672h12v12h-12zM324 684h12v12h-12zM324 696h12v12h-12zM324 708h12v12h-12zM324 732h12v12h-12zM324 744h12v12h-12zM324 768h12v12h-12zM324 780h12v12h-12zM324 792h12v12h-12zM324 540h12v12h-12zM324 528h12v12h-12zM324 516h12v12h-12zM336 528h12v12h-12zM348 540h12v12h-12zM372 564h12v12h-12zM384 576h12v12h-12zM396 588h12v12h-12zM408 600h12v12h-12zM408 624h12v12h-12zM336 720h12v12h-12zM336 732h12v12h-12zM336 756h12v12h-12zM336 768h12v12h-12zM336 780h12v12h-12zM336 792h12v12h-12zM336 816h12v12h-12zM336 828h12v12h-12zM336 840h12v12h-12zM336 852h12v12h-12zM336 864h12v12h-12zM336 876h12v12h-12zM336 888h12v12h-12zM336 900h12v12h-12zM336 912h12v12h-12zM336 924h12v12h-12zM348 912h12v12h-12zM360 900h12v12h-12zM372 888h12v12h-12zM384 876h12v12h-12zM396 864h12v12h-12zM408 852h12v12h-12zM420 840h12v12h-12zM432 828h12v12h-12zM444 816h12v12h-12zM456 804h12v12h-12zM384 864h12v12h-12zM384 852h12v12h-12zM384 840h12v12h-12zM384 828h12v12h-12zM384 816h12v12h-12zM384 804h12v12h-12zM384 792h12v12h-12zM384 780h12v12h-12zM384 768h12v12h-12zM384 744h12v12h-12zM384 732h12v12h-12zM384 720h12v12h-12zM384 708h12v12h-12zM384 684h12v12h-12zM384 672h12v12h-12zM384 648h12v12h-12zM384 624h12v12h-12zM384 600h12v12h-12zM372 804h12v12h-12zM360 804h12v12h-12zM348 804h12v12h-12zM324 804h12v12h-12zM312 804h12v12h-12zM300 804h12v12h-12zM288 804h12v12h-12zM264 804h12v12h-12zM252 804h12v12h-12zM228 804h12v12h-12zM216 804h12v12h-12zM204 804h12v12h-12zM192 804h12v12h-12zM180 804h12v12h-12zM156 804h12v12h-12zM144 804h12v12h-12zM132 804h12v12h-12zM108 804h12v12h-12zM96 792h12v12h-12zM96 780h12v12h-12zM96 768h12v12h-12zM96 756h12v12h-12zM96 744h12v12h-12zM96 732h12v12h-12zM96 720h12v12h-12zM96 708h12v12h-12zM96 696h12v12h-12zM96 684h12v12h-12zM96 672h12v12h-12zM96 660h12v12h-12zM96 648h12v12h-12zM96 636h12v12h-12zM96 624h12v12h-12zM120 600h12v12h-12zM132 588h12v12h-12zM144 576h12v12h-12zM156 564h12v12h-12zM168 552h12v12h-12zM168 540h12v12h-12zM156 540h12v12h-12zM144 540h12v12h-12zM132 540h12v12h-12zM120 540h12v12h-12zM108 540h12v12h-12zM96 540h12v12h-12zM84 540h12v12h-12zM72 540h12v12h-12zM60 540h12v12h-12zM48 540h12v12h-12zM36 540h12v12h-12zM24 540h12v12h-12zM12 540h12v12h-12zM12 552h12v12h-12zM12 564h12v12h-12zM12 576h12v12h-12zM12 588h12v12h-12zM12 600h12v12h-12zM12 612h12v12h-12zM12 624h12v12h-12zM12 636h12v12h-12zM12 648h12v12h-12zM12 660h12v12h-12zM12 672h12v12h-12zM12 684h12v12h-12zM12 696h12v12h-12zM12 708h12v12h-12zM12 720h12v12h-12zM12 732h12v12h-12zM12 744h12v12h-12zM12 756h12v12h-12zM12 768h12v12h-12zM12 780h12v12h-12zM12 792h12v12h-12zM12 804h12v12h-12zM12 816h12v12h-12zM12 828h12v12h-12zM12 840h12v12h-12zM12 852h12v12h-12zM12 864h12v12h-12zM12 876h12v12h-12zM12 888h12v12h-12zM24 876h12v12h-12zM36 864h12v12h-12zM48 852h12v12h-12zM60 840h12v12h-12zM252 636h12v12h-12zM240 636h12v12h-12zM240 624h12v12h-12zM240 600h12v12h-12zM240 576h12v12h-12zM240 564h12v12h-12zM240 540h12v12h-12zM240 528h12v12h-12zM228 540h12v12h-12zM204 564h12v12h-12zM192 576h12v12h-12zM144 624h12v12h-12zM132 636h12v12h-12zM120 648h12v12h-12zM108 660h12v12h-12zM84 684h12v12h-12zM72 696h12v12h-12zM60 708h12v12h-12zM48 720h12v12h-12zM60 720h12v12h-12zM72 720h12v12h-12zM84 720h12v12h-12zM108 720h12v12h-12zM120 720h12v12h-12zM132 720h12v12h-12zM144 720h12v12h-12zM156 720h12v12h-12zM192 720h12v12h-12zM204 720h12v12h-12zM216 720h12v12h-12zM228 720h12v12h-12zM240 720h12v12h-12zM252 720h12v12h-12zM264 720h12v12h-12zM300 720h12v12h-12zM312 720h12v12h-12zM348 720h12v12h-12zM372 720h12v12h-12zM636 756h12v12h-12zM648 744h12v12h-12zM660 732h12v12h-12zM672 720h12v12h-12zM684 708h12v12h-12zM696 696h12v12h-12zM708 684h12v12h-12zM720 672h12v12h-12zM732 660h12v12h-12zM744 648h12v12h-12zM756 636h12v12h-12zM768 624h12v12h-12zM708 660h12v12h-12zM696 648h12v12h-12zM684 636h12v12h-12zM672 624h12v12h-12zM732 684h12v12h-12zM744 696h12v12h-12zM756 708h12v12h-12zM768 720h12v12h-12zM780 732h12v12h-12zM792 744h12v12h-12zM804 756h12v12h-12zM816 768h12v12h-12zM828 780h12v12h-12zM840 792h12v12h-12zM852 804h12v12h-12zM864 816h12v12h-12zM876 828h12v12h-12zM888 840h12v12h-12zM900 852h12v12h-12zM912 864h12v12h-12zM924 876h12v12h-12zM804 768h12v12h-12zM792 768h12v12h-12zM780 768h12v12h-12zM768 768h12v12h-12zM828 768h12v12h-12zM840 768h12v12h-12zM852 768h12v12h-12zM864 768h12v12h-12zM876 768h12v12h-12zM888 768h12v12h-12zM900 768h12v12h-12zM888 756h12v12h-12zM876 744h12v12h-12zM864 732h12v12h-12zM852 720h12v12h-12zM840 708h12v12h-12zM828 696h12v12h-12zM816 684h12v12h-12zM804 672h12v12h-12zM792 660h12v12h-12zM780 648h12v12h-12zM768 636h12v12h-12zM756 624h12v12h-12zM744 612h12v12h-12zM732 600h12v12h-12zM720 588h12v12h-12zM708 600h12v12h-12zM696 612h12v12h-12zM684 624h12v12h-12zM684 648h12v12h-12zM684 660h12v12h-12zM684 672h12v12h-12zM684 684h12v12h-12zM684 696h12v12h-12zM684 720h12v12h-12zM684 732h12v12h-12zM684 744h12v12h-12zM684 756h12v12h-12zM684 768h12v12h-12zM684 780h12v12h-12zM684 792h12v12h-12zM684 804h12v12h-12zM684 816h12v12h-12zM684 828h12v12h-12zM684 840h12v12h-12zM684 852h12v12h-12zM684 864h12v12h-12zM684 876h12v12h-12zM696 876h12v12h-12zM708 876h12v12h-12zM720 876h12v12h-12zM732 876h12v12h-12zM744 876h12v12h-12zM756 876h12v12h-12zM768 876h12v12h-12zM780 876h12v12h-12zM792 876h12v12h-12zM804 876h12v12h-12zM816 876h12v12h-12zM828 876h12v12h-12zM840 876h12v12h-12zM852 876h12v12h-12zM864 876h12v12h-12zM876 876h12v12h-12zM888 876h12v12h-12zM900 876h12v12h-12zM912 876h12v12h-12zM900 864h12v12h-12zM888 852h12v12h-12zM876 840h12v12h-12zM864 828h12v12h-12zM852 816h12v12h-12zM840 804h12v12h-12zM828 792h12v12h-12zM816 780h12v12h-12zM792 756h12v12h-12zM780 744h12v12h-12zM768 732h12v12h-12zM756 720h12v12h-12zM744 708h12v12h-12zM732 696h12v12h-12zM720 684h12v12h-12zM708 672h12v12h-12zM696 660h12v12h-12zM672 636h12v12h-12zM660 624h12v12h-12zM648 612h12v12h-12zM636 600h12v12h-12zM624 588h12v12h-12zM612 576h12v12h-12zM900 840h12v12h-12zM900 828h12v12h-12zM900 816h12v12h-12zM900 804h12v12h-12zM900 792h12v12h-12zM900 780h12v12h-12zM900 756h12v12h-12zM900 744h12v12h-12zM900 732h12v12h-12zM888 732h12v12h-12zM876 732h12v12h-12zM852 732h12v12h-12zM852 708h12v12h-12zM852 696h12v12h-12zM852 684h12v12h-12zM852 672h12v12h-12zM852 660h12v12h-12zM852 648h12v12h-12zM852 636h12v12h-12zM852 624h12v12h-12zM852 612h12v12h-12zM840 600h12v12h-12zM828 588h12v12h-12zM816 576h12v12h-12zM804 564h12v12h-12zM792 552h12v12h-12zM780 540h12v12h-12zM780 552h12v12h-12zM780 564h12v12h-12zM780 576h12v12h-12zM768 588h12v12h-12zM756 600h12v12h-12zM732 624h12v12h-12zM720 636h12v12h-12zM708 648h12v12h-12zM672 684h12v12h-12zM660 696h12v12h-12zM648 708h12v12h-12zM636 720h12v12h-12zM624 732h12v12h-12zM612 744h12v12h-12zM600 756h12v12h-12zM588 768h12v12h-12zM576 780h12v12h-12zM564 792h12v12h-12zM552 804h12v12h-12zM540 816h12v12h-12zM528 828h12v12h-12zM516 828h12v12h-12zM504 828h12v12h-12zM516 816h12v12h-12zM528 804h12v12h-12zM540 792h12v12h-12zM552 780h12v12h-12zM564 768h12v12h-12zM576 756h12v12h-12zM588 744h12v12h-12zM600 732h12v12h-12zM612 720h12v12h-12zM624 708h12v12h-12zM636 696h12v12h-12zM648 684h12v12h-12zM660 672h12v12h-12zM672 660h12v12h-12zM696 636h12v12h-12zM708 624h12v12h-12zM708 636h12v12h-12zM708 696h12v12h-12zM708 708h12v12h-12zM708 720h12v12h-12zM708 732h12v12h-12zM708 744h12v12h-12zM708 756h12v12h-12zM708 768h12v12h-12zM708 780h12v12h-12zM708 792h12v12h-12zM708 804h12v12h-12zM708 816h12v12h-12zM708 828h12v12h-12zM708 840h12v12h-12zM708 852h12v12h-12zM708 864h12v12h-12zM708 888h12v12h-12zM708 900h12v12h-12zM708 912h12v12h-12zM708 924h12v12h-12zM708 936h12v12h-12zM720 924h12v12h-12zM732 912h12v12h-12zM744 900h12v12h-12zM756 888h12v12h-12zM780 864h12v12h-12zM792 852h12v12h-12zM792 840h12v12h-12zM792 828h12v12h-12zM792 816h12v12h-12zM792 804h12v12h-12zM792 792h12v12h-12zM792 780h12v12h-12zM792 732h12v12h-12zM804 732h12v12h-12zM816 732h12v12h-12zM828 732h12v12h-12zM840 732h12v12h-12zM912 732h12v12h-12zM924 732h12v12h-12zM912 720h12v12h-12zM900 708h12v12h-12zM888 696h12v12h-12zM876 684h12v12h-12zM864 672h12v12h-12zM840 648h12v12h-12zM828 636h12v12h-12zM816 624h12v12h-12zM804 612h12v12h-12zM792 600h12v12h-12zM780 588h12v12h-12zM768 576h12v12h-12zM756 564h12v12h-12zM744 552h12v12h-12zM732 540h12v12h-12zM720 528h12v12h-12zM732 516h12v12h-12zM744 504h12v12h-12zM756 492h12v12h-12zM744 492h12v12h-12zM732 492h12v12h-12zM720 492h12v12h-12zM708 492h12v12h-12zM696 492h12v12h-12zM684 492h12v12h-12zM672 492h12v12h-12zM660 492h12v12h-12zM648 492h12v12h-12zM636 492h12v12h-12zM624 492h12v12h-12zM612 492h12v12h-12zM600 492h12v12h-12zM588 492h12v12h-12zM576 492h12v12h-12zM564 492h12v12h-12zM552 492h12v12h-12zM540 492h12v12h-12zM528 492h12v12h-12zM516 492h12v12h-12zM504 492h12v12h-12zM516 504h12v12h-12zM528 516h12v12h-12zM540 528h12v12h-12zM540 540h12v12h-12zM540 552h12v12h-12zM540 564h12v12h-12zM540 576h12v12h-12zM540 588h12v12h-12zM540 600h12v12h-12zM540 612h12v12h-12zM540 624h12v12h-12zM540 636h12v12h-12zM540 648h12v12h-12zM540 660h12v12h-12zM540 672h12v12h-12zM540 684h12v12h-12zM540 696h12v12h-12zM540 708h12v12h-12zM540 720h12v12h-12zM540 732h12v12h-12zM540 744h12v12h-12zM540 516h12v12h-12zM540 504h12v12h-12zM600 504h12v12h-12zM612 516h12v12h-12zM624 528h12v12h-12zM636 540h12v12h-12zM648 552h12v12h-12zM660 564h12v12h-12zM672 576h12v12h-12zM684 588h12v12h-12zM696 600h12v12h-12zM708 612h12v12h-12zM720 720h12v12h-12zM732 732h12v12h-12zM744 744h12v12h-12zM756 756h12v12h-12zM780 780h12v12h-12zM696 672h12v12h-12zM720 648h12v12h-12zM732 636h12v12h-12zM744 624h12v12h-12zM756 612h12v12h-12zM768 600h12v12h-12zM792 576h12v12h-12zM816 552h12v12h-12zM828 540h12v12h-12zM840 528h12v12h-12zM840 540h12v12h-12zM840 552h12v12h-12zM840 564h12v12h-12zM840 576h12v12h-12zM840 588h12v12h-12zM840 612h12v12h-12zM840 624h12v12h-12zM840 636h12v12h-12zM840 660h12v12h-12zM840 672h12v12h-12zM840 684h12v12h-12zM840 696h12v12h-12zM840 720h12v12h-12zM840 744h12v12h-12zM840 756h12v12h-12zM840 780h12v12h-12zM840 816h12v12h-12zM840 828h12v12h-12zM840 840h12v12h-12zM840 852h12v12h-12zM840 864h12v12h-12zM840 888h12v12h-12zM840 900h12v12h-12zM840 912h12v12h-12zM840 924h12v12h-12zM828 924h12v12h-12zM816 924h12v12h-12zM804 924h12v12h-12zM792 924h12v12h-12zM780 912h12v12h-12zM768 900h12v12h-12zM732 864h12v12h-12zM720 852h12v12h-12zM696 828h12v12h-12zM672 804h12v12h-12zM660 792h12v12h-12zM648 780h12v12h-12zM660 768h12v12h-12zM672 756h12v12h-12zM696 732h12v12h-12zM720 708h12v12h-12zM744 684h12v12h-12zM756 672h12v12h-12zM768 660h12v12h-12zM792 636h12v12h-12zM804 624h12v12h-12zM816 612h12v12h-12zM828 600h12v12h-12zM852 576h12v12h-12zM864 564h12v12h-12zM876 552h12v12h-12zM888 540h12v12h-12zM900 528h12v12h-12zM912 516h12v12h-12zM900 516h12v12h-12zM888 516h12v12h-12zM876 516h12v12h-12zM864 516h12v12h-12zM852 516h12v12h-12zM840 516h12v12h-12zM828 516h12v12h-12zM816 516h12v12h-12zM804 516h12v12h-12zM792 516h12v12h-12zM780 516h12v12h-12zM768 516h12v12h-12zM756 516h12v12h-12zM744 516h12v12h-12zM720 516h12v12h-12zM708 516h12v12h-12zM696 516h12v12h-12zM684 516h12v12h-12zM672 516h12v12h-12zM660 516h12v12h-12zM660 528h12v12h-12zM660 540h12v12h-12zM660 552h12v12h-12zM660 576h12v12h-12zM660 588h12v12h-12zM660 600h12v12h-12zM660 612h12v12h-12zM660 636h12v12h-12zM660 648h12v12h-12zM660 660h12v12h-12zM660 684h12v12h-12zM660 708h12v12h-12zM660 720h12v12h-12zM660 744h12v12h-12zM660 756h12v12h-12zM660 780h12v12h-12zM660 804h12v12h-12zM660 816h12v12h-12zM660 828h12v12h-12zM660 840h12v12h-12zM672 828h12v12h-12zM696 804h12v12h-12zM720 780h12v12h-12zM732 768h12v12h-12zM744 756h12v12h-12zM756 744h12v12h-12zM780 720h12v12h-12zM792 708h12v12h-12zM804 696h12v12h-12zM828 672h12v12h-12zM864 636h12v12h-12zM816 636h12v12h-12zM804 636h12v12h-12zM780 636h12v12h-12zM744 636h12v12h-12zM648 636h12v12h-12zM636 636h12v12h-12zM624 636h12v12h-12zM612 636h12v12h-12zM600 636h12v12h-12zM588 636h12v12h-12zM576 636h12v12h-12zM564 636h12v12h-12zM552 636h12v12h-12zM528 636h12v12h-12zM516 636h12v12h-12z"/></svg>