<svg xmlns="http://www.w3.org/2000/svg" width="960" height="960" viewBox="0 0 960 960" shape-rendering="crispEdges"><path fill="#fff" d="M0 0h960v960h-960z"/><path fill="#f45af6" d="M480 48h48v48h-48zM480 192h48v48h-48zM480 336h48v48h-48zM528 48h48v48h-48zM528 192h48v48h-48zM528 336h48v48h-48zM576 48h48v48h-48zM576 192h48v48h-48zM576 336h48v48h-48zM624 48h48v48h-48zM624 192h48v48h-48zM624 336h48v48h-48zM672 48h48v48h-48zM672 192h48v48h-48zM672 336h48v48h-48zM720 48h48v48h-48zM720 192h48v48h-48zM720 336h48v48h-48zM768 48h48v48h-48zM768 192h48v48h-48zM768 336h48v48h-48zM816 48h48v48h-48zM816 192h48v48h-48zM816 336h48v48h-48zM864 48h48v48h-48zM864 192h48v48h-48zM864 336h48v48h-48zM912 48h48v48h-48zM912 192h48v48h-48zM912 336h48v48h-48z"/><path fill="#991f0f" d="M6 6h12v12h-12zM78 6h12v12h-12zM30 30h12v12h-12zM30 54h12v12h-12zM54 54h12v12h-12zM6 78h12v12h-12zM78 78h12v12h-12zM198 6h12v12h-12zM270 6h12v12h-12zM222 30h12v12h-12zM246 30h12v12h-12zM222 54h12v12h-12zM198 78h12v12h-12zM270 78h12v12h-12zM462 6h12v12h-12zM462 30h12v12h-12zM390 54h12v12h-12zM390 78h12v12h-12zM630 6h12v12h-12zM654 6h12v12h-12zM582 78h12v12h-12zM606 78h12v12h-12zM846 150h12v12h-12zM798 6h12v12h-12zM822 6h12v12h-12zM798 30h12v12h-12zM846 30h12v12h-12zM774 54h12v12h-12zM822 54h12v12h-12zM798 78h12v12h-12zM822 78h12v12h-12zM6 198h12v12h-12zM78 198h12v12h-12zM30 222h12v12h-12zM54 246h12v12h-12zM6 270h12v12h-12zM78 270h12v12h-12zM198 198h12v12h-12zM270 198h12v12h-12zM222 222h12v12h-12zM246 222h12v12h-12zM198 270h12v12h-12zM270 270h12v12h-12zM438 198h12v12h-12zM462 222h12v12h-12zM390 246h12v12h-12zM414 270h12v12h-12zM606 198h12v12h-12zM654 198h12v12h-12zM630 222h12v12h-12zM630 246h12v12h-12zM606 270h12v12h-12zM654 270h12v12h-12zM846 198h12v12h-12zM822 222h12v12h-12zM798 246h12v12h-12zM846 246h12v12h-12zM774 270h12v12h-12zM822 270h12v12h-12zM846 270h12v12h-12zM6 414h12v12h-12zM30 414h12v12h-12zM6 438h12v12h-12zM78 438h12v12h-12zM198 390h12v12h-12zM246 390h12v12h-12zM270 414h12v12h-12zM198 438h12v12h-12zM222 462h12v12h-12zM270 462h12v12h-12zM438 390h12v12h-12zM438 414h12v12h-12zM462 414h12v12h-12zM390 438h12v12h-12zM414 438h12v12h-12zM414 462h12v12h-12zM582 390h12v12h-12zM606 414h12v12h-12zM582 438h12v12h-12zM630 438h12v12h-12zM582 462h12v12h-12zM606 462h12v12h-12zM654 462h12v12h-12zM822 390h12v12h-12zM822 414h12v12h-12zM846 414h12v12h-12zM774 438h12v12h-12zM798 438h12v12h-12zM798 462h12v12h-12zM6 486h12v12h-12zM54 486h12v12h-12zM78 486h12v12h-12zM30 510h12v12h-12zM78 510h12v12h-12zM54 534h12v12h-12zM78 558h12v12h-12zM126 486h12v12h-12zM174 486h12v12h-12zM102 510h12v12h-12zM174 534h12v12h-12zM102 558h12v12h-12zM150 558h12v12h-12zM198 486h12v12h-12zM270 486h12v12h-12zM222 510h12v12h-12zM246 510h12v12h-12zM198 534h12v12h-12zM270 534h12v12h-12zM294 486h12v12h-12zM318 510h12v12h-12zM342 534h12v12h-12zM366 558h12v12h-12zM390 486h12v12h-12zM438 486h12v12h-12zM438 510h12v12h-12zM462 510h12v12h-12zM390 534h12v12h-12zM414 534h12v12h-12zM414 558h12v12h-12zM462 558h12v12h-12zM486 486h12v12h-12zM510 486h12v12h-12zM486 510h12v12h-12zM510 510h12v12h-12zM534 534h12v12h-12zM558 534h12v12h-12zM534 558h12v12h-12zM558 558h12v12h-12zM582 486h12v12h-12zM582 510h12v12h-12zM654 534h12v12h-12zM654 558h12v12h-12zM702 486h12v12h-12zM678 510h12v12h-12zM702 510h12v12h-12zM726 534h12v12h-12zM750 534h12v12h-12zM726 558h12v12h-12zM798 486h12v12h-12zM846 486h12v12h-12zM822 510h12v12h-12zM822 534h12v12h-12zM798 558h12v12h-12zM846 558h12v12h-12zM870 486h12v12h-12zM918 486h12v12h-12zM894 510h12v12h-12zM942 510h12v12h-12zM870 534h12v12h-12zM918 534h12v12h-12zM894 558h12v12h-12zM942 558h12v12h-12zM30 582h12v12h-12zM54 582h12v12h-12zM30 654h12v12h-12zM54 654h12v12h-12zM102 582h12v12h-12zM174 582h12v12h-12zM126 606h12v12h-12zM150 606h12v12h-12zM126 630h12v12h-12zM150 630h12v12h-12zM102 654h12v12h-12zM174 654h12v12h-12zM222 582h12v12h-12zM198 606h12v12h-12zM246 606h12v12h-12zM222 630h12v12h-12zM270 630h12v12h-12zM246 654h12v12h-12zM318 582h12v12h-12zM294 606h12v12h-12zM366 630h12v12h-12zM342 654h12v12h-12zM414 582h12v12h-12zM438 630h12v12h-12zM414 654h12v12h-12zM438 654h12v12h-12zM486 582h12v12h-12zM534 582h12v12h-12zM558 606h12v12h-12zM486 630h12v12h-12zM510 654h12v12h-12zM558 654h12v12h-12zM582 582h12v12h-12zM606 606h12v12h-12zM582 630h12v12h-12zM630 630h12v12h-12zM582 654h12v12h-12zM606 654h12v12h-12zM654 654h12v12h-12zM678 582h12v12h-12zM702 606h12v12h-12zM678 630h12v12h-12zM726 630h12v12h-12zM678 654h12v12h-12zM702 654h12v12h-12zM750 654h12v12h-12zM774 582h12v12h-12zM846 582h12v12h-12zM774 654h12v12h-12zM846 654h12v12h-12zM918 582h12v12h-12zM942 606h12v12h-12zM870 630h12v12h-12zM894 654h12v12h-12zM54 678h12v12h-12zM30 702h12v12h-12zM78 702h12v12h-12zM6 726h12v12h-12zM54 726h12v12h-12zM30 750h12v12h-12zM126 678h12v12h-12zM102 702h12v12h-12zM150 702h12v12h-12zM126 726h12v12h-12zM174 726h12v12h-12zM150 750h12v12h-12zM222 678h12v12h-12zM246 678h12v12h-12zM222 750h12v12h-12zM246 750h12v12h-12zM294 678h12v12h-12zM342 678h12v12h-12zM342 702h12v12h-12zM366 702h12v12h-12zM294 726h12v12h-12zM318 726h12v12h-12zM318 750h12v12h-12zM366 750h12v12h-12zM414 678h12v12h-12zM390 702h12v12h-12zM462 726h12v12h-12zM438 750h12v12h-12zM510 678h12v12h-12zM534 678h12v12h-12zM486 702h12v12h-12zM534 702h12v12h-12zM510 726h12v12h-12zM558 726h12v12h-12zM510 750h12v12h-12zM534 750h12v12h-12zM606 702h12v12h-12zM630 702h12v12h-12zM606 726h12v12h-12zM630 726h12v12h-12zM678 678h12v12h-12zM750 678h12v12h-12zM702 702h12v12h-12zM726 702h12v12h-12zM678 750h12v12h-12zM750 750h12v12h-12zM798 678h12v12h-12zM774 702h12v12h-12zM846 726h12v12h-12zM822 750h12v12h-12zM918 678h12v12h-12zM918 702h12v12h-12zM942 702h12v12h-12zM870 726h12v12h-12zM894 726h12v12h-12zM894 750h12v12h-12zM6 798h12v12h-12zM78 798h12v12h-12zM6 822h12v12h-12zM78 822h12v12h-12zM138 810h12v12h-12zM246 774h12v12h-12zM198 798h12v12h-12zM222 798h12v12h-12zM270 798h12v12h-12zM198 822h12v12h-12zM246 822h12v12h-12zM270 822h12v12h-12zM222 846h12v12h-12zM318 798h12v12h-12zM342 798h12v12h-12zM318 822h12v12h-12zM342 822h12v12h-12zM390 774h12v12h-12zM462 774h12v12h-12zM414 798h12v12h-12zM438 798h12v12h-12zM414 822h12v12h-12zM438 822h12v12h-12zM390 846h12v12h-12zM462 846h12v12h-12zM486 774h12v12h-12zM558 774h12v12h-12zM510 822h12v12h-12zM534 822h12v12h-12zM486 846h12v12h-12zM558 846h12v12h-12zM582 774h12v12h-12zM654 774h12v12h-12zM606 798h12v12h-12zM630 798h12v12h-12zM582 822h12v12h-12zM654 822h12v12h-12zM678 774h12v12h-12zM702 798h12v12h-12zM678 822h12v12h-12zM726 822h12v12h-12zM678 846h12v12h-12zM702 846h12v12h-12zM750 846h12v12h-12zM822 774h12v12h-12zM774 798h12v12h-12zM798 798h12v12h-12zM846 798h12v12h-12zM774 822h12v12h-12zM822 822h12v12h-12zM846 822h12v12h-12zM798 846h12v12h-12zM870 774h12v12h-12zM894 774h12v12h-12zM870 798h12v12h-12zM894 798h12v12h-12zM918 822h12v12h-12zM942 822h12v12h-12zM918 846h12v12h-12zM942 846h12v12h-12zM6 870h12v12h-12zM30 870h12v12h-12zM6 894h12v12h-12zM30 894h12v12h-12zM54 918h12v12h-12zM78 918h12v12h-12zM54 942h12v12h-12zM78 942h12v12h-12zM150 870h12v12h-12zM150 894h12v12h-12zM174 894h12v12h-12zM102 918h12v12h-12zM126 918h12v12h-12zM126 942h12v12h-12zM222 870h12v12h-12zM198 894h12v12h-12zM246 894h12v12h-12zM222 918h12v12h-12zM270 918h12v12h-12zM246 942h12v12h-12zM366 870h12v12h-12zM366 894h12v12h-12zM294 918h12v12h-12zM294 942h12v12h-12zM438 870h12v12h-12zM390 894h12v12h-12zM414 894h12v12h-12zM462 894h12v12h-12zM390 918h12v12h-12zM438 918h12v12h-12zM462 918h12v12h-12zM414 942h12v12h-12zM486 870h12v12h-12zM558 870h12v12h-12zM486 942h12v12h-12zM558 942h12v12h-12zM582 870h12v12h-12zM582 894h12v12h-12zM654 918h12v12h-12zM654 942h12v12h-12zM726 870h12v12h-12zM750 870h12v12h-12zM726 894h12v12h-12zM750 894h12v12h-12zM678 918h12v12h-12zM702 918h12v12h-12zM678 942h12v12h-12zM702 942h12v12h-12zM798 870h12v12h-12zM822 870h12v12h-12zM774 894h12v12h-12zM822 894h12v12h-12zM798 918h12v12h-12zM846 918h12v12h-12zM798 942h12v12h-12zM822 942h12v12h-12zM894 870h12v12h-12zM942 870h12v12h-12zM870 894h12v12h-12zM918 894h12v12h-12zM894 918h12v12h-12zM942 918h12v12h-12zM870 942h12v12h-12zM918 942h12v12h-12zM438 294h12v12h-12zM462 318h12v12h-12zM390 342h12v12h-12zM414 366h12v12h-12zM750 294h12v12h-12zM726 318h12v12h-12zM702 342h12v12h-12zM750 342h12v12h-12zM678 366h12v12h-12zM726 366h12v12h-12zM750 366h12v12h-12zM534 102h12v12h-12zM558 102h12v12h-12zM486 174h12v12h-12zM510 174h12v12h-12zM726 6h12v12h-12zM750 6h12v12h-12zM678 78h12v12h-12zM702 78h12v12h-12zM102 198h12v12h-12zM174 198h12v12h-12zM126 222h12v12h-12zM150 246h12v12h-12zM102 270h12v12h-12zM174 270h12v12h-12zM6 294h12v12h-12zM78 294h12v12h-12zM30 318h12v12h-12zM54 342h12v12h-12zM6 366h12v12h-12zM78 366h12v12h-12zM750 198h12v12h-12zM726 222h12v12h-12zM702 246h12v12h-12zM750 246h12v12h-12zM678 270h12v12h-12zM726 270h12v12h-12zM750 270h12v12h-12zM846 102h12v12h-12zM822 126h12v12h-12zM798 150h12v12h-12zM846 150h12v12h-12zM774 174h12v12h-12zM822 174h12v12h-12zM846 174h12v12h-12z"/><path fill="#000" d="M12 780h12v12h-12zM24 768h12v12h-12zM36 756h12v12h-12zM48 744h12v12h-12zM60 732h12v12h-12zM72 720h12v12h-12zM84 708h12v12h-12zM96 696h12v12h-12zM108 684h12v12h-12zM120 672h12v12h-12zM132 660h12v12h-12zM144 648h12v12h-12zM156 636h12v12h-12zM168 624h12v12h-12zM180 612h12v12h-12zM192 600h12v12h-12zM204 588h12v12h-12zM204 600h12v12h-12zM204 612h12v12h-12zM204 624h12v12h-12zM204 636h12v12h-12zM204 648h12v12h-12zM204 660h12v12h-12zM204 672h12v12h-12zM204 684h12v12h-12zM204 696h12v12h-12zM204 708h12v12h-12zM204 720h12v12h-12zM204 732h12v12h-12zM204 744h12v12h-12zM204 756h12v12h-12zM204 768h12v12h-12zM204 780h12v12h-12zM204 792h12v12h-12zM204 804h12v12h-12zM204 816h12v12h-12zM204 828h12v12h-12zM204 840h12v12h-12zM204 852h12v12h-12zM204 864h12v12h-12zM204 876h12v12h-12zM204 888h12v12h-12zM216 672h12v12h-12zM228 660h12v12h-12zM240 648h12v12h-12zM240 636h12v12h-12zM240 624h12v12h-12zM240 612h12v12h-12zM240 600h12v12h-12zM240 588h12v12h-12zM240 576h12v12h-12zM240 564h12v12h-12zM240 552h12v12h-12zM240 540h12v12h-12zM240 528h12v12h-12zM252 540h12v12h-12zM264 552h12v12h-12zM276 564h12v12h-12zM288 576h12v12h-12zM300 588h12v12h-12zM312 600h12v12h-12zM324 612h12v12h-12zM336 624h12v12h-12zM348 636h12v12h-12zM360 648h12v12h-12zM372 660h12v12h-12zM384 672h12v12h-12zM396 684h12v12h-12zM408 696h12v12h-12zM420 708h12v12h-12zM432 720h12v12h-12zM444 732h12v12h-12zM456 744h12v12h-12zM468 732h12v12h-12zM456 720h12v12h-12zM444 708h12v12h-12zM432 696h12v12h-12zM420 684h12v12h-12zM408 672h12v12h-12zM396 660h12v12h-12zM384 648h12v12h-12zM372 636h12v12h-12zM360 624h12v12h-12zM348 612h12v12h-12zM336 600h12v12h-12zM324 588h12v12h-12zM312 576h12v12h-12zM300 564h12v12h-12zM288 552h12v12h-12zM276 540h12v12h-12zM264 528h12v12h-12zM252 516h12v12h-12zM240 504h12v12h-12zM228 492h12v12h-12zM216 480h12v12h-12zM204 468h12v12h-12zM192 456h12v12h-12zM180 444h12v12h-12zM168 432h12v12h-12zM156 420h12v12h-12zM168 420h12v12h-12zM180 420h12v12h-12zM192 420h12v12h-12zM204 420h12v12h-12zM216 420h12v12h-12zM228 420h12v12h-12zM240 420h12v12h-12zM252 420h12v12h-12zM264 420h12v12h-12zM276 420h12v12h-12zM288 420h12v12h-12zM300 420h12v12h-12zM288 408h12v12h-12zM276 396h12v12h-12zM264 384h12v12h-12zM252 372h12v12h-12zM240 360h12v12h-12zM228 348h12v12h-12zM216 336h12v12h-12zM204 324h12v12h-12zM192 312h12v12h-12zM180 300h12v12h-12zM168 288h12v12h-12zM156 276h12v12h-12zM144 264h12v12h-12zM132 252h12v12h-12zM120 240h12v12h-12zM108 228h12v12h-12zM96 216h12v12h-12zM84 204h12v12h-12zM72 192h12v12h-12zM60 180h12v12h-12zM48 168h12v12h-12zM36 156h12v12h-12zM24 144h12v12h-12zM12 132h12v12h-12zM24 132h12v12h-12zM36 132h12v12h-12zM48 132h12v12h-12zM60 132h12v12h-12zM72 132h12v12h-12zM84 132h12v12h-12zM96 132h12v12h-12zM108 132h12v12h-12zM120 132h12v12h-12zM132 132h12v12h-12zM144 132h12v12h-12zM156 132h12v12h-12zM168 132h12v12h-12zM180 132h12v12h-12zM192 132h12v12h-12zM204 132h12v12h-12zM216 132h12v12h-12zM228 132h12v12h-12zM240 132h12v12h-12zM252 132h12v12h-12zM264 132h12v12h-12zM276 132h12v12h-12zM288 132h12v12h-12zM300 132h12v12h-12zM312 132h12v12h-12zM324 132h12v12h-12zM336 132h12v12h-12zM348 132h12v12h-12zM348 144h12v12h-12zM348 156h12v12h-12zM348 168h12v12h-12zM348 180h12v12h-12zM348 192h12v12h-12zM348 204h12v12h-12zM348 216h12v12h-12zM348 228h12v12h-12zM348 240h12v12h-12zM348 252h12v12h-12zM348 264h12v12h-12zM348 276h12v12h-12zM348 288h12v12h-12zM348 300h12v12h-12zM348 312h12v12h-12zM348 324h12v12h-12zM348 336h12v12h-12zM348 348h12v12h-12zM348 360h12v12h-12zM348 372h12v12h-12zM360 360h12v12h-12zM372 348h12v12h-12zM384 336h12v12h-12zM396 324h12v12h-12zM408 312h12v12h-12zM420 300h12v12h-12zM432 288h12v12h-12zM336 384h12v12h-12zM324 396h12v12h-12zM312 408h12v12h-12zM300 408h12v12h-12zM276 408h12v12h-12zM264 408h12v12h-12zM252 408h12v12h-12zM240 408h12v12h-12zM228 408h12v12h-12zM216 408h12v12h-12zM204 408h12v12h-12zM192 408h12v12h-12zM180 408h12v12h-12zM168 408h12v12h-12zM156 408h12v12h-12zM144 408h12v12h-12zM132 408h12v12h-12zM120 408h12v12h-12zM108 408h12v12h-12zM96 408h12v12h-12zM108 396h12v12h-12zM120 384h12v12h-12zM132 372h12v12h-12zM144 360h12v12h-12zM156 348h12v12h-12zM168 336h12v12h-12zM180 324h12v12h-12zM204 300h12v12h-12zM216 288h12v12h-12zM228 276h12v12h-12zM240 264h12v12h-12zM252 252h12v12h-12zM264 240h12v12h-12zM276 228h12v12h-12zM288 216h12v12h-12zM300 204h12v12h-12zM312 192h12v12h-12zM324 180h12v12h-12zM336 168h12v12h-12zM360 144h12v12h-12zM372 132h12v12h-12zM384 120h12v12h-12zM372 120h12v12h-12zM360 120h12v12h-12zM348 120h12v12h-12zM336 120h12v12h-12zM324 120h12v12h-12zM312 120h12v12h-12zM300 120h12v12h-12zM288 120h12v12h-12zM276 120h12v12h-12zM264 120h12v12h-12zM252 120h12v12h-12zM240 120h12v12h-12zM228 120h12v12h-12zM216 120h12v12h-12zM204 120h12v12h-12zM192 120h12v12h-12zM180 120h12v12h-12zM168 120h12v12h-12zM156 120h12v12h-12zM144 120h12v12h-12zM132 120h12v12h-12zM120 120h12v12h-12zM108 120h12v12h-12zM96 120h12v12h-12zM84 120h12v12h-12zM72 120h12v12h-12zM60 120h12v12h-12zM48 120h12v12h-12zM36 120h12v12h-12zM24 120h12v12h-12zM12 120h12v12h-12zM0 120h12v12h-12zM48 180h12v12h-12zM36 180h12v12h-12zM72 180h12v12h-12zM84 180h12v12h-12zM96 180h12v12h-12zM108 180h12v12h-12zM120 180h12v12h-12zM132 180h12v12h-12zM144 180h12v12h-12zM156 180h12v12h-12zM168 180h12v12h-12zM180 180h12v12h-12zM192 180h12v12h-12zM204 180h12v12h-12zM216 180h12v12h-12zM228 180h12v12h-12zM240 180h12v12h-12zM252 180h12v12h-12zM264 180h12v12h-12zM276 180h12v12h-12zM288 180h12v12h-12zM300 180h12v12h-12zM312 180h12v12h-12zM336 180h12v12h-12zM360 204h12v12h-12zM336 228h12v12h-12zM324 240h12v12h-12zM312 252h12v12h-12zM300 264h12v12h-12zM288 276h12v12h-12zM276 288h12v12h-12zM264 300h12v12h-12zM252 312h12v12h-12zM240 324h12v12h-12zM228 336h12v12h-12zM216 348h12v12h-12zM204 360h12v12h-12zM192 372h12v12h-12zM180 384h12v12h-12zM168 396h12v12h-12zM144 420h12v12h-12zM132 432h12v12h-12zM120 444h12v12h-12zM108 456h12v12h-12zM96 468h12v12h-12zM84 480h12v12h-12zM72 492h12v12h-12zM72 504h12v12h-12zM72 516h12v12h-12zM72 528h12v12h-12zM72 540h12v12h-12zM72 552h12v12h-12zM72 564h12v12h-12zM72 576h12v12h-12zM72 588h12v12h-12zM72 600h12v12h-12zM72 612h12v12h-12zM72 624h12v12h-12zM72 636h12v12h-12zM72 648h12v12h-12zM84 660h12v12h-12zM96 672h12v12h-12zM120 696h12v12h-12zM132 708h12v12h-12zM144 720h12v12h-12zM156 732h12v12h-12zM168 744h12v12h-12zM180 756h12v12h-12zM192 768h12v12h-12zM216 792h12v12h-12zM228 804h12v12h-12zM240 816h12v12h-12zM252 828h12v12h-12zM264 840h12v12h-12zM276 852h12v12h-12zM288 864h12v12h-12zM144 732h12v12h-12zM132 732h12v12h-12zM144 744h12v12h-12zM156 756h12v12h-12zM168 768h12v12h-12zM180 780h12v12h-12zM192 792h12v12h-12zM192 780h12v12h-12zM192 756h12v12h-12zM192 744h12v12h-12zM192 732h12v12h-12zM192 720h12v12h-12zM192 708h12v12h-12zM192 696h12v12h-12zM192 684h12v12h-12zM192 672h12v12h-12zM192 660h12v12h-12zM216 660h12v12h-12zM240 660h12v12h-12zM252 660h12v12h-12zM264 660h12v12h-12zM276 660h12v12h-12zM288 660h12v12h-12zM300 660h12v12h-12zM312 660h12v12h-12zM324 660h12v12h-12zM336 660h12v12h-12zM348 660h12v12h-12zM360 660h12v12h-12zM384 660h12v12h-12zM408 660h12v12h-12zM420 660h12v12h-12zM432 660h12v12h-12zM444 660h12v12h-12zM456 660h12v12h-12zM468 660h12v12h-12zM300 672h12v12h-12zM288 684h12v12h-12zM276 696h12v12h-12zM264 708h12v12h-12zM252 720h12v12h-12zM240 732h12v12h-12zM228 744h12v12h-12zM216 756h12v12h-12zM180 792h12v12h-12zM168 804h12v12h-12zM156 816h12v12h-12zM144 828h12v12h-12zM132 840h12v12h-12zM120 852h12v12h-12zM108 864h12v12h-12zM96 876h12v12h-12zM84 888h12v12h-12zM72 900h12v12h-12zM60 912h12v12h-12zM48 924h12v12h-12zM36 936h12v12h-12zM24 948h12v12h-12zM36 948h12v12h-12zM48 948h12v12h-12zM60 948h12v12h-12zM72 948h12v12h-12zM84 948h12v12h-12zM96 948h12v12h-12zM108 948h12v12h-12zM120 948h12v12h-12zM132 948h12v12h-12zM144 948h12v12h-12zM156 948h12v12h-12zM168 948h12v12h-12zM180 948h12v12h-12zM192 948h12v12h-12zM204 948h12v12h-12zM72 936h12v12h-12zM84 924h12v12h-12zM96 912h12v12h-12zM108 900h12v12h-12zM120 888h12v12h-12zM132 876h12v12h-12zM144 864h12v12h-12zM156 852h12v12h-12zM168 840h12v12h-12zM180 828h12v12h-12zM180 816h12v12h-12zM180 804h12v12h-12zM180 768h12v12h-12zM180 744h12v12h-12zM180 732h12v12h-12zM180 720h12v12h-12zM180 708h12v12h-12zM180 696h12v12h-12zM180 684h12v12h-12zM180 672h12v12h-12zM180 660h12v12h-12zM180 648h12v12h-12zM180 636h12v12h-12zM180 624h12v12h-12zM192 624h12v12h-12zM216 624h12v12h-12zM228 624h12v12h-12zM252 624h12v12h-12zM264 624h12v12h-12zM276 624h12v12h-12zM288 624h12v12h-12zM300 624h12v12h-12zM312 624h12v12h-12zM324 624h12v12h-12zM348 624h12v12h-12zM372 624h12v12h-12zM384 624h12v12h-12zM396 624h12v12h-12zM408 624h12v12h-12zM420 624h12v12h-12zM432 624h12v12h-12zM444 624h12v12h-12zM456 624h12v12h-12zM468 624h12v12h-12zM456 612h12v12h-12zM456 600h12v12h-12zM456 588h12v12h-12zM456 576h12v12h-12zM456 564h12v12h-12zM456 552h12v12h-12zM456 540h12v12h-12zM456 528h12v12h-12zM456 516h12v12h-12zM456 504h12v12h-12zM456 492h12v12h-12zM456 480h12v12h-12zM456 468h12v12h-12zM468 564h12v12h-12zM444 540h12v12h-12zM432 528h12v12h-12zM420 516h12v12h-12zM408 504h12v12h-12zM396 492h12v12h-12zM384 480h12v12h-12zM372 468h12v12h-12zM360 456h12v12h-12zM348 444h12v12h-12zM336 432h12v12h-12zM324 420h12v12h-12zM300 396h12v12h-12zM288 384h12v12h-12zM276 372h12v12h-12zM264 360h12v12h-12zM252 348h12v12h-12zM240 336h12v12h-12zM228 324h12v12h-12zM252 324h12v12h-12zM264 324h12v12h-12zM276 324h12v12h-12zM288 324h12v12h-12zM300 324h12v12h-12zM312 324h12v12h-12zM324 324h12v12h-12zM336 324h12v12h-12zM360 300h12v12h-12zM336 336h12v12h-12zM324 348h12v12h-12zM312 360h12v12h-12zM300 372h12v12h-12zM240 432h12v12h-12zM228 444h12v12h-12zM216 456h12v12h-12zM936 780h12v12h-12zM924 768h12v12h-12zM912 756h12v12h-12zM900 744h12v12h-12zM888 732h12v12h-12zM876 720h12v12h-12zM864 708h12v12h-12zM852 696h12v12h-12zM840 684h12v12h-12zM828 672h12v12h-12zM816 660h12v12h-12zM804 648h12v12h-12zM792 636h12v12h-12zM780 624h12v12h-12zM768 612h12v12h-12zM756 600h12v12h-12zM744 588h12v12h-12zM744 600h12v12h-12zM744 612h12v12h-12zM744 624h12v12h-12zM744 636h12v12h-12zM744 648h12v12h-12zM744 660h12v12h-12zM744 672h12v12h-12zM744 684h12v12h-12zM744 696h12v12h-12zM744 708h12v12h-12zM744 720h12v12h-12zM744 732h12v12h-12zM744 744h12v12h-12zM744 756h12v12h-12zM744 768h12v12h-12zM744 780h12v12h-12zM744 792h12v12h-12zM744 804h12v12h-12zM744 816h12v12h-12zM744 828h12v12h-12zM744 840h12v12h-12zM744 852h12v12h-12zM744 864h12v12h-12zM744 876h12v12h-12zM744 888h12v12h-12zM732 672h12v12h-12zM720 660h12v12h-12zM708 648h12v12h-12zM708 636h12v12h-12zM708 624h12v12h-12zM708 612h12v12h-12zM708 600h12v12h-12zM708 588h12v12h-12zM708 576h12v12h-12zM708 564h12v12h-12zM708 552h12v12h-12zM708 540h12v12h-12zM708 528h12v12h-12zM696 540h12v12h-12zM684 552h12v12h-12zM672 564h12v12h-12zM660 576h12v12h-12zM648 588h12v12h-12zM636 600h12v12h-12zM624 612h12v12h-12zM612 624h12v12h-12zM600 636h12v12h-12zM588 648h12v12h-12zM576 660h12v12h-12zM564 672h12v12h-12zM552 684h12v12h-12zM540 696h12v12h-12zM528 708h12v12h-12zM516 720h12v12h-12zM504 732h12v12h-12zM492 744h12v12h-12zM480 732h12v12h-12zM492 720h12v12h-12zM504 708h12v12h-12zM516 696h12v12h-12zM528 684h12v12h-12zM540 672h12v12h-12zM552 660h12v12h-12zM564 648h12v12h-12zM576 636h12v12h-12zM588 624h12v12h-12zM600 612h12v12h-12zM612 600h12v12h-12zM624 588h12v12h-12zM636 576h12v12h-12zM648 564h12v12h-12zM660 552h12v12h-12zM672 540h12v12h-12zM684 528h12v12h-12zM696 516h12v12h-12zM708 504h12v12h-12zM720 492h12v12h-12zM732 480h12v12h-12zM744 468h12v12h-12zM756 456h12v12h-12zM768 444h12v12h-12zM780 432h12v12h-12zM792 420h12v12h-12zM780 420h12v12h-12zM768 420h12v12h-12zM756 420h12v12h-12zM744 420h12v12h-12zM732 420h12v12h-12zM720 420h12v12h-12zM708 420h12v12h-12zM696 420h12v12h-12zM684 420h12v12h-12zM672 420h12v12h-12zM660 420h12v12h-12zM648 420h12v12h-12zM660 408h12v12h-12zM672 396h12v12h-12zM684 384h12v12h-12zM696 372h12v12h-12zM708 360h12v12h-12zM720 348h12v12h-12zM732 336h12v12h-12zM744 324h12v12h-12zM756 312h12v12h-12zM768 300h12v12h-12zM780 288h12v12h-12zM792 276h12v12h-12zM804 264h12v12h-12zM816 252h12v12h-12zM828 240h12v12h-12zM840 228h12v12h-12zM852 216h12v12h-12zM864 204h12v12h-12zM876 192h12v12h-12zM888 180h12v12h-12zM900 168h12v12h-12zM912 156h12v12h-12zM924 144h12v12h-12zM936 132h12v12h-12zM924 132h12v12h-12zM912 132h12v12h-12zM900 132h12v12h-12zM888 132h12v12h-12zM876 132h12v12h-12zM864 132h12v12h-12zM852 132h12v12h-12zM840 132h12v12h-12zM828 132h12v12h-12zM816 132h12v12h-12zM804 132h12v12h-12zM792 132h12v12h-12zM780 132h12v12h-12zM768 132h12v12h-12zM756 132h12v12h-12zM744 132h12v12h-12zM732 132h12v12h-12zM720 132h12v12h-12zM708 132h12v12h-12zM696 132h12v12h-12zM684 132h12v12h-12zM672 132h12v12h-12zM660 132h12v12h-12zM648 132h12v12h-12zM636 132h12v12h-12zM624 132h12v12h-12zM612 132h12v12h-12zM600 132h12v12h-12zM600 144h12v12h-12zM600 156h12v12h-12zM600 168h12v12h-12zM600 180h12v12h-12zM600 192h12v12h-12zM600 204h12v12h-12zM600 216h12v12h-12zM600 228h12v12h-12zM600 240h12v12h-12zM600 252h12v12h-12zM600 264h12v12h-12zM600 276h12v12h-12zM600 288h12v12h-12zM600 300h12v12h-12zM600 312h12v12h-12zM600 324h12v12h-12zM600 336h12v12h-12zM600 348h12v12h-12zM600 360h12v12h-12zM600 372h12v12h-12zM588 360h12v12h-12zM576 348h12v12h-12zM564 336h12v12h-12zM552 324h12v12h-12zM540 312h12v12h-12zM528 300h12v12h-12zM516 288h12v12h-12zM612 384h12v12h-12zM624 396h12v12h-12zM636 408h12v12h-12zM648 408h12v12h-12zM672 408h12v12h-12zM684 408h12v12h-12zM696 408h12v12h-12zM708 408h12v12h-12zM720 408h12v12h-12zM732 408h12v12h-12zM744 408h12v12h-12zM756 408h12v12h-12zM768 408h12v12h-12zM780 408h12v12h-12zM792 408h12v12h-12zM804 408h12v12h-12zM816 408h12v12h-12zM828 408h12v12h-12zM840 408h12v12h-12zM852 408h12v12h-12zM840 396h12v12h-12zM828 384h12v12h-12zM816 372h12v12h-12zM804 360h12v12h-12zM792 348h12v12h-12zM780 336h12v12h-12zM768 324h12v12h-12zM744 300h12v12h-12zM732 288h12v12h-12zM720 276h12v12h-12zM708 264h12v12h-12zM696 252h12v12h-12zM684 240h12v12h-12zM672 228h12v12h-12zM660 216h12v12h-12zM648 204h12v12h-12zM636 192h12v12h-12zM624 180h12v12h-12zM612 168h12v12h-12zM588 144h12v12h-12zM576 132h12v12h-12zM564 120h12v12h-12zM576 120h12v12h-12zM588 120h12v12h-12zM600 120h12v12h-12zM612 120h12v12h-12zM624 120h12v12h-12zM636 120h12v12h-12zM648 120h12v12h-12zM660 120h12v12h-12zM672 120h12v12h-12zM684 120h12v12h-12zM696 120h12v12h-12zM708 120h12v12h-12zM720 120h12v12h-12zM732 120h12v12h-12zM744 120h12v12h-12zM756 120h12v12h-12zM768 120h12v12h-12zM780 120h12v12h-12zM792 120h12v12h-12zM804 120h12v12h-12zM816 120h12v12h-12zM828 120h12v12h-12zM840 120h12v12h-12zM852 120h12v12h-12zM864 120h12v12h-12zM876 120h12v12h-12zM888 120h12v12h-12zM900 120h12v12h-12zM912 120h12v12h-12zM924 120h12v12h-12zM936 120h12v12h-12zM948 120h12v12h-12zM900 180h12v12h-12zM912 180h12v12h-12zM876 180h12v12h-12zM864 180h12v12h-12zM852 180h12v12h-12zM840 180h12v12h-12zM828 180h12v12h-12zM816 180h12v12h-12zM804 180h12v12h-12zM792 180h12v12h-12zM780 180h12v12h-12zM768 180h12v12h-12zM756 180h12v12h-12zM744 180h12v12h-12zM732 180h12v12h-12zM720 180h12v12h-12zM708 180h12v12h-12zM696 180h12v12h-12zM684 180h12v12h-12zM672 180h12v12h-12zM660 180h12v12h-12zM648 180h12v12h-12zM636 180h12v12h-12zM612 180h12v12h-12zM588 204h12v12h-12zM612 228h12v12h-12zM624 240h12v12h-12zM636 252h12v12h-12zM648 264h12v12h-12zM660 276h12v12h-12zM672 288h12v12h-12zM684 300h12v12h-12zM696 312h12v12h-12zM708 324h12v12h-12zM720 336h12v12h-12zM732 348h12v12h-12zM744 360h12v12h-12zM756 372h12v12h-12zM768 384h12v12h-12zM780 396h12v12h-12zM804 420h12v12h-12zM816 432h12v12h-12zM828 444h12v12h-12zM840 456h12v12h-12zM852 468h12v12h-12zM864 480h12v12h-12zM876 492h12v12h-12zM876 504h12v12h-12zM876 516h12v12h-12zM876 528h12v12h-12zM876 540h12v12h-12zM876 552h12v12h-12zM876 564h12v12h-12zM876 576h12v12h-12zM876 588h12v12h-12zM876 600h12v12h-12zM876 612h12v12h-12zM876 624h12v12h-12zM876 636h12v12h-12zM876 648h12v12h-12zM864 660h12v12h-12zM852 672h12v12h-12zM828 696h12v12h-12zM816 708h12v12h-12zM804 720h12v12h-12zM792 732h12v12h-12zM780 744h12v12h-12zM768 756h12v12h-12zM756 768h12v12h-12zM732 792h12v12h-12zM720 804h12v12h-12zM708 816h12v12h-12zM696 828h12v12h-12zM684 840h12v12h-12zM672 852h12v12h-12zM660 864h12v12h-12zM804 732h12v12h-12zM816 732h12v12h-12zM804 744h12v12h-12zM792 756h12v12h-12zM780 768h12v12h-12zM768 780h12v12h-12zM756 792h12v12h-12zM756 780h12v12h-12zM756 756h12v12h-12zM756 744h12v12h-12zM756 732h12v12h-12zM756 720h12v12h-12zM756 708h12v12h-12zM756 696h12v12h-12zM756 684h12v12h-12zM756 672h12v12h-12zM756 660h12v12h-12zM732 660h12v12h-12zM708 660h12v12h-12zM696 660h12v12h-12zM684 660h12v12h-12zM672 660h12v12h-12zM660 660h12v12h-12zM648 660h12v12h-12zM636 660h12v12h-12zM624 660h12v12h-12zM612 660h12v12h-12zM600 660h12v12h-12zM588 660h12v12h-12zM564 660h12v12h-12zM540 660h12v12h-12zM528 660h12v12h-12zM516 660h12v12h-12zM504 660h12v12h-12zM492 660h12v12h-12zM480 660h12v12h-12zM648 672h12v12h-12zM660 684h12v12h-12zM672 696h12v12h-12zM684 708h12v12h-12zM696 720h12v12h-12zM708 732h12v12h-12zM720 744h12v12h-12zM732 756h12v12h-12zM768 792h12v12h-12zM780 804h12v12h-12zM792 816h12v12h-12zM804 828h12v12h-12zM816 840h12v12h-12zM828 852h12v12h-12zM840 864h12v12h-12zM852 876h12v12h-12zM864 888h12v12h-12zM876 900h12v12h-12zM888 912h12v12h-12zM900 924h12v12h-12zM912 936h12v12h-12zM924 948h12v12h-12zM912 948h12v12h-12zM900 948h12v12h-12zM888 948h12v12h-12zM876 948h12v12h-12zM864 948h12v12h-12zM852 948h12v12h-12zM840 948h12v12h-12zM828 948h12v12h-12zM816 948h12v12h-12zM804 948h12v12h-12zM792 948h12v12h-12zM780 948h12v12h-12zM768 948h12v12h-12zM756 948h12v12h-12zM744 948h12v12h-12zM876 936h12v12h-12zM864 924h12v12h-12zM852 912h12v12h-12zM840 900h12v12h-12zM828 888h12v12h-12zM816 876h12v12h-12zM804 864h12v12h-12zM792 852h12v12h-12zM780 840h12v12h-12zM768 828h12v12h-12zM768 816h12v12h-12zM768 804h12v12h-12zM768 768h12v12h-12zM768 744h12v12h-12zM768 732h12v12h-12zM768 720h12v12h-12zM768 708h12v12h-12zM768 696h12v12h-12zM768 684h12v12h-12zM768 672h12v12h-12zM768 660h12v12h-12zM768 648h12v12h-12zM768 636h12v12h-12zM768 624h12v12h-12zM756 624h12v12h-12zM732 624h12v12h-12zM720 624h12v12h-12zM696 624h12v12h-12zM684 624h12v12h-12zM672 624h12v12h-12zM660 624h12v12h-12zM648 624h12v12h-12zM636 624h12v12h-12zM624 624h12v12h-12zM600 624h12v12h-12zM576 624h12v12h-12zM564 624h12v12h-12zM552 624h12v12h-12zM540 624h12v12h-12zM528 624h12v12h-12zM516 624h12v12h-12zM504 624h12v12h-12zM492 624h12v12h-12zM480 624h12v12h-12zM492 612h12v12h-12zM492 600h12v12h-12zM492 588h12v12h-12zM492 576h12v12h-12zM492 564h12v12h-12zM492 552h12v12h-12zM492 540h12v12h-12zM492 528h12v12h-12zM492 516h12v12h-12zM492 504h12v12h-12zM492 492h12v12h-12zM492 480h12v12h-12zM492 468h12v12h-12zM480 564h12v12h-12zM504 540h12v12h-12zM516 528h12v12h-12zM528 516h12v12h-12zM540 504h12v12h-12zM552 492h12v12h-12zM564 480h12v12h-12zM576 468h12v12h-12zM588 456h12v12h-12zM600 444h12v12h-12zM612 432h12v12h-12zM624 420h12v12h-12zM648 396h12v12h-12zM660 384h12v12h-12zM672 372h12v12h-12zM684 360h12v12h-12zM696 348h12v12h-12zM708 336h12v12h-12zM720 324h12v12h-12zM696 324h12v12h-12zM684 324h12v12h-12zM672 324h12v12h-12zM660 324h12v12h-12zM648 324h12v12h-12zM636 324h12v12h-12zM624 324h12v12h-12zM612 324h12v12h-12zM588 300h12v12h-12zM612 336h12v12h-12zM624 348h12v12h-12zM636 360h12v12h-12zM648 372h12v12h-12zM708 432h12v12h-12zM720 444h12v12h-12zM732 456h12v12h-12z"/></svg>