<svg xmlns="http://www.w3.org/2000/svg" width="960" height="960" viewBox="0 0 960 960" shape-rendering="crispEdges"><path fill="#fff" d="M0 0h960v960h-960z"/><path fill="#141dc8" d="M0 24h24v24h-24zM0 72h24v24h-24zM0 120h24v24h-24zM0 168h24v24h-24zM0 216h24v24h-24zM0 264h24v24h-24zM0 312h24v24h-24zM0 360h24v24h-24zM0 408h24v24h-24zM0 456h24v24h-24zM0 504h24v24h-24zM0 552h24v24h-24zM0 600h24v24h-24zM0 648h24v24h-24zM0 696h24v24h-24zM0 744h24v24h-24zM0 792h24v24h-24zM0 840h24v24h-24zM0 888h24v24h-24zM0 936h24v24h-24zM24 0h24v24h-24zM24 24h24v24h-24zM24 48h24v24h-24zM24 72h24v24h-24zM24 96h24v24h-24zM24 120h24v24h-24zM24 144h24v24h-24zM24 168h24v24h-24zM24 192h24v24h-24zM24 216h24v24h-24zM24 240h24v24h-24zM24 264h24v24h-24zM24 288h24v24h-24zM24 312h24v24h-24zM24 336h24v24h-24zM24 360h24v24h-24zM24 384h24v24h-24zM24 408h24v24h-24zM24 432h24v24h-24zM24 456h24v24h-24zM24 480h24v24h-24zM24 504h24v24h-24zM24 528h24v24h-24zM24 552h24v24h-24zM24 576h24v24h-24zM24 600h24v24h-24zM24 624h24v24h-24zM24 648h24v24h-24zM24 672h24v24h-24zM24 696h24v24h-24zM24 720h24v24h-24zM24 744h24v24h-24zM24 768h24v24h-24zM24 792h24v24h-24zM24 816h24v24h-24zM24 840h24v24h-24zM24 864h24v24h-24zM24 888h24v24h-24zM24 912h24v24h-24zM24 936h24v24h-24zM48 24h24v24h-24zM48 72h24v24h-24zM48 120h24v24h-24zM48 168h24v24h-24zM48 216h24v24h-24zM48 264h24v24h-24zM48 312h24v24h-24zM48 360h24v24h-24zM48 408h24v24h-24zM48 456h24v24h-24zM48 504h24v24h-24zM48 552h24v24h-24zM48 600h24v24h-24zM48 648h24v24h-24zM48 696h24v24h-24zM48 744h24v24h-24zM48 792h24v24h-24zM48 840h24v24h-24zM48 888h24v24h-24zM48 936h24v24h-24zM72 0h24v24h-24zM72 24h24v24h-24zM72 48h24v24h-24zM72 72h24v24h-24zM72 96h24v24h-24zM72 120h24v24h-24zM72 144h24v24h-24zM72 168h24v24h-24zM72 192h24v24h-24zM72 216h24v24h-24zM72 240h24v24h-24zM72 264h24v24h-24zM72 288h24v24h-24zM72 312h24v24h-24zM72 336h24v24h-24zM72 360h24v24h-24zM72 384h24v24h-24zM72 408h24v24h-24zM72 432h24v24h-24zM72 456h24v24h-24zM72 480h24v24h-24zM72 504h24v24h-24zM72 528h24v24h-24zM72 552h24v24h-24zM72 576h24v24h-24zM72 600h24v24h-24zM72 624h24v24h-24zM72 648h24v24h-24zM72 672h24v24h-24zM72 696h24v24h-24zM72 720h24v24h-24zM72 744h24v24h-24zM72 768h24v24h-24zM72 792h24v24h-24zM72 816h24v24h-24zM72 840h24v24h-24zM72 864h24v24h-24zM72 888h24v24h-24zM72 912h24v24h-24zM72 936h24v24h-24zM96 24h24v24h-24zM96 72h24v24h-24zM96 120h24v24h-24zM96 168h24v24h-24zM96 216h24v24h-24zM96 264h24v24h-24zM96 312h24v24h-24zM96 360h24v24h-24zM96 408h24v24h-24zM96 456h24v24h-24zM96 504h24v24h-24zM96 552h24v24h-24zM96 600h24v24h-24zM96 648h24v24h-24zM96 696h24v24h-24zM96 744h24v24h-24zM96 792h24v24h-24zM96 840h24v24h-24zM96 888h24v24h-24zM96 936h24v24h-24zM120 0h24v24h-24zM120 24h24v24h-24zM120 48h24v24h-24zM120 72h24v24h-24zM120 96h24v24h-24zM120 120h24v24h-24zM120 144h24v24h-24zM120 168h24v24h-24zM120 192h24v24h-24zM120 216h24v24h-24zM120 240h24v24h-24zM120 264h24v24h-24zM120 288h24v24h-24zM120 312h24v24h-24zM120 336h24v24h-24zM120 360h24v24h-24zM120 384h24v24h-24zM120 408h24v24h-24zM120 432h24v24h-24zM120 456h24v24h-24zM120 480h24v24h-24zM120 504h24v24h-24zM120 528h24v24h-24zM120 552h24v24h-24zM120 576h24v24h-24zM120 600h24v24h-24zM120 624h24v24h-24zM120 648h24v24h-24zM120 672h24v24h-24zM120 696h24v24h-24zM120 720h24v24h-24zM120 744h24v24h-24zM120 768h24v24h-24zM120 792h24v24h-24zM120 816h24v24h-24zM120 840h24v24h-24zM120 864h24v24h-24zM120 888h24v24h-24zM120 912h24v24h-24zM120 936h24v24h-24zM144 24h24v24h-24zM144 72h24v24h-24zM144 120h24v24h-24zM144 168h24v24h-24zM144 216h24v24h-24zM144 264h24v24h-24zM144 312h24v24h-24zM144 360h24v24h-24zM144 408h24v24h-24zM144 456h24v24h-24zM144 504h24v24h-24zM144 552h24v24h-24zM144 600h24v24h-24zM144 648h24v24h-24zM144 696h24v24h-24zM144 744h24v24h-24zM144 792h24v24h-24zM144 840h24v24h-24zM144 888h24v24h-24zM144 936h24v24h-24zM168 0h24v24h-24zM168 24h24v24h-24zM168 48h24v24h-24zM168 72h24v24h-24zM168 96h24v24h-24zM168 120h24v24h-24zM168 144h24v24h-24zM168 168h24v24h-24zM168 192h24v24h-24zM168 216h24v24h-24zM168 240h24v24h-24zM168 264h24v24h-24zM168 288h24v24h-24zM168 312h24v24h-24zM168 336h24v24h-24zM168 360h24v24h-24zM168 384h24v24h-24zM168 408h24v24h-24zM168 432h24v24h-24zM168 456h24v24h-24zM168 480h24v24h-24zM168 504h24v24h-24zM168 528h24v24h-24zM168 552h24v24h-24zM168 576h24v24h-24zM168 600h24v24h-24zM168 624h24v24h-24zM168 648h24v24h-24zM168 672h24v24h-24zM168 696h24v24h-24zM168 720h24v24h-24zM168 744h24v24h-24zM168 768h24v24h-24zM168 792h24v24h-24zM168 816h24v24h-24zM168 840h24v24h-24zM168 864h24v24h-24zM168 888h24v24h-24zM168 912h24v24h-24zM168 936h24v24h-24zM192 24h24v24h-24zM192 72h24v24h-24zM192 120h24v24h-24zM192 168h24v24h-24zM192 216h24v24h-24zM192 264h24v24h-24zM192 312h24v24h-24zM192 360h24v24h-24zM192 408h24v24h-24zM192 456h24v24h-24zM192 504h24v24h-24zM192 552h24v24h-24zM192 600h24v24h-24zM192 648h24v24h-24zM192 696h24v24h-24zM192 744h24v24h-24zM192 792h24v24h-24zM192 840h24v24h-24zM192 888h24v24h-24zM192 936h24v24h-24zM216 0h24v24h-24zM216 24h24v24h-24zM216 48h24v24h-24zM216 72h24v24h-24zM216 96h24v24h-24zM216 120h24v24h-24zM216 144h24v24h-24zM216 168h24v24h-24zM216 192h24v24h-24zM216 216h24v24h-24zM216 240h24v24h-24zM216 264h24v24h-24zM216 288h24v24h-24zM216 312h24v24h-24zM216 336h24v24h-24zM216 360h24v24h-24zM216 384h24v24h-24zM216 408h24v24h-24zM216 432h24v24h-24zM216 456h24v24h-24zM216 480h24v24h-24zM216 504h24v24h-24zM216 528h24v24h-24zM216 552h24v24h-24zM216 576h24v24h-24zM216 600h24v24h-24zM216 624h24v24h-24zM216 648h24v24h-24zM216 672h24v24h-24zM216 696h24v24h-24zM216 720h24v24h-24zM216 744h24v24h-24zM216 768h24v24h-24zM216 792h24v24h-24zM216 816h24v24h-24zM216 840h24v24h-24zM216 864h24v24h-24zM216 888h24v24h-24zM216 912h24v24h-24zM216 936h24v24h-24zM240 24h24v24h-24zM240 72h24v24h-24zM240 120h24v24h-24zM240 168h24v24h-24zM240 216h24v24h-24zM240 264h24v24h-24zM240 312h24v24h-24zM240 360h24v24h-24zM240 408h24v24h-24zM240 456h24v24h-24zM240 504h24v24h-24zM240 552h24v24h-24zM240 600h24v24h-24zM240 648h24v24h-24zM240 696h24v24h-24zM240 744h24v24h-24zM240 792h24v24h-24zM240 840h24v24h-24zM240 888h24v24h-24zM240 936h24v24h-24zM264 0h24v24h-24zM264 24h24v24h-24zM264 48h24v24h-24zM264 72h24v24h-24zM264 96h24v24h-24zM264 120h24v24h-24zM264 144h24v24h-24zM264 168h24v24h-24zM264 192h24v24h-24zM264 216h24v24h-24zM264 240h24v24h-24zM264 264h24v24h-24zM264 288h24v24h-24zM264 312h24v24h-24zM264 336h24v24h-24zM264 360h24v24h-24zM264 384h24v24h-24zM264 408h24v24h-24zM264 432h24v24h-24zM264 456h24v24h-24zM264 480h24v24h-24zM264 504h24v24h-24zM264 528h24v24h-24zM264 552h24v24h-24zM264 576h24v24h-24zM264 600h24v24h-24zM264 624h24v24h-24zM264 648h24v24h-24zM264 672h24v24h-24zM264 696h24v24h-24zM264 720h24v24h-24zM264 744h24v24h-24zM264 768h24v24h-24zM264 792h24v24h-24zM264 816h24v24h-24zM264 840h24v24h-24zM264 864h24v24h-24zM264 888h24v24h-24zM264 912h24v24h-24zM264 936h24v24h-24zM288 24h24v24h-24zM288 72h24v24h-24zM288 120h24v24h-24zM288 168h24v24h-24zM288 216h24v24h-24zM288 264h24v24h-24zM288 312h24v24h-24zM288 360h24v24h-24zM288 408h24v24h-24zM288 456h24v24h-24zM288 504h24v24h-24zM288 552h24v24h-24zM288 600h24v24h-24zM288 648h24v24h-24zM288 696h24v24h-24zM288 744h24v24h-24zM288 792h24v24h-24zM288 840h24v24h-24zM288 888h24v24h-24zM288 936h24v24h-24zM312 0h24v24h-24zM312 24h24v24h-24zM312 48h24v24h-24zM312 72h24v24h-24zM312 96h24v24h-24zM312 120h24v24h-24zM312 144h24v24h-24zM312 168h24v24h-24zM312 192h24v24h-24zM312 216h24v24h-24zM312 240h24v24h-24zM312 264h24v24h-24zM312 288h24v24h-24zM312 312h24v24h-24zM312 336h24v24h-24zM312 360h24v24h-24zM312 384h24v24h-24zM312 408h24v24h-24zM312 432h24v24h-24zM312 456h24v24h-24zM312 480h24v24h-24zM312 504h24v24h-24zM312 528h24v24h-24zM312 552h24v24h-24zM312 576h24v24h-24zM312 600h24v24h-24zM312 624h24v24h-24zM312 648h24v24h-24zM312 672h24v24h-24zM312 696h24v24h-24zM312 720h24v24h-24zM312 744h24v24h-24zM312 768h24v24h-24zM312 792h24v24h-24zM312 816h24v24h-24zM312 840h24v24h-24zM312 864h24v24h-24zM312 888h24v24h-24zM312 912h24v24h-24zM312 936h24v24h-24zM336 24h24v24h-24zM336 72h24v24h-24zM336 120h24v24h-24zM336 168h24v24h-24zM336 216h24v24h-24zM336 264h24v24h-24zM336 312h24v24h-24zM336 360h24v24h-24zM336 408h24v24h-24zM336 456h24v24h-24zM336 504h24v24h-24zM336 552h24v24h-24zM336 600h24v24h-24zM336 648h24v24h-24zM336 696h24v24h-24zM336 744h24v24h-24zM336 792h24v24h-24zM336 840h24v24h-24zM336 888h24v24h-24zM336 936h24v24h-24zM360 0h24v24h-24zM360 24h24v24h-24zM360 48h24v24h-24zM360 72h24v24h-24zM360 96h24v24h-24zM360 120h24v24h-24zM360 144h24v24h-24zM360 168h24v24h-24zM360 192h24v24h-24zM360 216h24v24h-24zM360 240h24v24h-24zM360 264h24v24h-24zM360 288h24v24h-24zM360 312h24v24h-24zM360 336h24v24h-24zM360 360h24v24h-24zM360 384h24v24h-24zM360 408h24v24h-24zM360 432h24v24h-24zM360 456h24v24h-24zM360 480h24v24h-24zM360 504h24v24h-24zM360 528h24v24h-24zM360 552h24v24h-24zM360 576h24v24h-24zM360 600h24v24h-24zM360 624h24v24h-24zM360 648h24v24h-24zM360 672h24v24h-24zM360 696h24v24h-24zM360 720h24v24h-24zM360 744h24v24h-24zM360 768h24v24h-24zM360 792h24v24h-24zM360 816h24v24h-24zM360 840h24v24h-24zM360 864h24v24h-24zM360 888h24v24h-24zM360 912h24v24h-24zM360 936h24v24h-24zM384 24h24v24h-24zM384 72h24v24h-24zM384 120h24v24h-24zM384 168h24v24h-24zM384 216h24v24h-24zM384 264h24v24h-24zM384 312h24v24h-24zM384 360h24v24h-24zM384 408h24v24h-24zM384 456h24v24h-24zM384 504h24v24h-24zM384 552h24v24h-24zM384 600h24v24h-24zM384 648h24v24h-24zM384 696h24v24h-24zM384 744h24v24h-24zM384 792h24v24h-24zM384 840h24v24h-24zM384 888h24v24h-24zM384 936h24v24h-24zM408 0h24v24h-24zM408 24h24v24h-24zM408 48h24v24h-24zM408 72h24v24h-24zM408 96h24v24h-24zM408 120h24v24h-24zM408 144h24v24h-24zM408 168h24v24h-24zM408 192h24v24h-24zM408 216h24v24h-24zM408 240h24v24h-24zM408 264h24v24h-24zM408 288h24v24h-24zM408 312h24v24h-24zM408 336h24v24h-24zM408 360h24v24h-24zM408 384h24v24h-24zM408 408h24v24h-24zM408 432h24v24h-24zM408 456h24v24h-24zM408 480h24v24h-24zM408 504h24v24h-24zM408 528h24v24h-24zM408 552h24v24h-24zM408 576h24v24h-24zM408 600h24v24h-24zM408 624h24v24h-24zM408 648h24v24h-24zM408 672h24v24h-24zM408 696h24v24h-24zM408 720h24v24h-24zM408 744h24v24h-24zM408 768h24v24h-24zM408 792h24v24h-24zM408 816h24v24h-24zM408 840h24v24h-24zM408 864h24v24h-24zM408 888h24v24h-24zM408 912h24v24h-24zM408 936h24v24h-24zM432 24h24v24h-24zM432 72h24v24h-24zM432 120h24v24h-24zM432 168h24v24h-24zM432 216h24v24h-24zM432 264h24v24h-24zM432 312h24v24h-24zM432 360h24v24h-24zM432 408h24v24h-24zM432 456h24v24h-24zM432 504h24v24h-24zM432 552h24v24h-24zM432 600h24v24h-24zM432 648h24v24h-24zM432 696h24v24h-24zM432 744h24v24h-24zM432 792h24v24h-24zM432 840h24v24h-24zM432 888h24v24h-24zM432 936h24v24h-24zM456 0h24v24h-24zM456 24h24v24h-24zM456 48h24v24h-24zM456 72h24v24h-24zM456 96h24v24h-24zM456 120h24v24h-24zM456 144h24v24h-24zM456 168h24v24h-24zM456 192h24v24h-24zM456 216h24v24h-24zM456 240h24v24h-24zM456 264h24v24h-24zM456 288h24v24h-24zM456 312h24v24h-24zM456 336h24v24h-24zM456 360h24v24h-24zM456 384h24v24h-24zM456 408h24v24h-24zM456 432h24v24h-24zM456 456h24v24h-24zM456 480h24v24h-24zM456 504h24v24h-24zM456 528h24v24h-24zM456 552h24v24h-24zM456 576h24v24h-24zM456 600h24v24h-24zM456 624h24v24h-24zM456 648h24v24h-24zM456 672h24v24h-24zM456 696h24v24h-24zM456 720h24v24h-24zM456 744h24v24h-24zM456 768h24v24h-24zM456 792h24v24h-24zM456 816h24v24h-24zM456 840h24v24h-24zM456 864h24v24h-24zM456 888h24v24h-24zM456 912h24v24h-24zM456 936h24v24h-24zM480 24h24v24h-24zM480 72h24v24h-24zM480 120h24v24h-24zM480 168h24v24h-24zM480 216h24v24h-24zM480 264h24v24h-24zM480 312h24v24h-24zM480 360h24v24h-24zM480 408h24v24h-24zM480 456h24v24h-24zM480 504h24v24h-24zM480 552h24v24h-24zM480 600h24v24h-24zM480 648h24v24h-24zM480 696h24v24h-24zM480 744h24v24h-24zM480 792h24v24h-24zM480 840h24v24h-24zM480 888h24v24h-24zM480 936h24v24h-24zM504 0h24v24h-24zM504 24h24v24h-24zM504 48h24v24h-24zM504 72h24v24h-24zM504 96h24v24h-24zM504 120h24v24h-24zM504 144h24v24h-24zM504 168h24v24h-24zM504 192h24v24h-24zM504 216h24v24h-24zM504 240h24v24h-24zM504 264h24v24h-24zM504 288h24v24h-24zM504 312h24v24h-24zM504 336h24v24h-24zM504 360h24v24h-24zM504 384h24v24h-24zM504 408h24v24h-24zM504 432h24v24h-24zM504 456h24v24h-24zM504 480h24v24h-24zM504 504h24v24h-24zM504 528h24v24h-24zM504 552h24v24h-24zM504 576h24v24h-24zM504 600h24v24h-24zM504 624h24v24h-24zM504 648h24v24h-24zM504 672h24v24h-24zM504 696h24v24h-24zM504 720h24v24h-24zM504 744h24v24h-24zM504 768h24v24h-24zM504 792h24v24h-24zM504 816h24v24h-24zM504 840h24v24h-24zM504 864h24v24h-24zM504 888h24v24h-24zM504 912h24v24h-24zM504 936h24v24h-24zM528 24h24v24h-24zM528 72h24v24h-24zM528 120h24v24h-24zM528 168h24v24h-24zM528 216h24v24h-24zM528 264h24v24h-24zM528 312h24v24h-24zM528 360h24v24h-24zM528 408h24v24h-24zM528 456h24v24h-24zM528 504h24v24h-24zM528 552h24v24h-24zM528 600h24v24h-24zM528 648h24v24h-24zM528 696h24v24h-24zM528 744h24v24h-24zM528 792h24v24h-24zM528 840h24v24h-24zM528 888h24v24h-24zM528 936h24v24h-24zM552 0h24v24h-24zM552 24h24v24h-24zM552 48h24v24h-24zM552 72h24v24h-24zM552 96h24v24h-24zM552 120h24v24h-24zM552 144h24v24h-24zM552 168h24v24h-24zM552 192h24v24h-24zM552 216h24v24h-24zM552 240h24v24h-24zM552 264h24v24h-24zM552 288h24v24h-24zM552 312h24v24h-24zM552 336h24v24h-24zM552 360h24v24h-24zM552 384h24v24h-24zM552 408h24v24h-24zM552 432h24v24h-24zM552 456h24v24h-24zM552 480h24v24h-24zM552 504h24v24h-24zM552 528h24v24h-24zM552 552h24v24h-24zM552 576h24v24h-24zM552 600h24v24h-24zM552 624h24v24h-24zM552 648h24v24h-24zM552 672h24v24h-24zM552 696h24v24h-24zM552 720h24v24h-24zM552 744h24v24h-24zM552 768h24v24h-24zM552 792h24v24h-24zM552 816h24v24h-24zM552 840h24v24h-24zM552 864h24v24h-24zM552 888h24v24h-24zM552 912h24v24h-24zM552 936h24v24h-24zM576 24h24v24h-24zM576 72h24v24h-24zM576 120h24v24h-24zM576 168h24v24h-24zM576 216h24v24h-24zM576 264h24v24h-24zM576 312h24v24h-24zM576 360h24v24h-24zM576 408h24v24h-24zM576 456h24v24h-24zM576 504h24v24h-24zM576 552h24v24h-24zM576 600h24v24h-24zM576 648h24v24h-24zM576 696h24v24h-24zM576 744h24v24h-24zM576 792h24v24h-24zM576 840h24v24h-24zM576 888h24v24h-24zM576 936h24v24h-24zM600 0h24v24h-24zM600 24h24v24h-24zM600 48h24v24h-24zM600 72h24v24h-24zM600 96h24v24h-24zM600 120h24v24h-24zM600 144h24v24h-24zM600 168h24v24h-24zM600 192h24v24h-24zM600 216h24v24h-24zM600 240h24v24h-24zM600 264h24v24h-24zM600 288h24v24h-24zM600 312h24v24h-24zM600 336h24v24h-24zM600 360h24v24h-24zM600 384h24v24h-24zM600 408h24v24h-24zM600 432h24v24h-24zM600 456h24v24h-24zM600 480h24v24h-24zM600 504h24v24h-24zM600 528h24v24h-24zM600 552h24v24h-24zM600 576h24v24h-24zM600 600h24v24h-24zM600 624h24v24h-24zM600 648h24v24h-24zM600 672h24v24h-24zM600 696h24v24h-24zM600 720h24v24h-24zM600 744h24v24h-24zM600 768h24v24h-24zM600 792h24v24h-24zM600 816h24v24h-24zM600 840h24v24h-24zM600 864h24v24h-24zM600 888h24v24h-24zM600 912h24v24h-24zM600 936h24v24h-24zM624 24h24v24h-24zM624 72h24v24h-24zM624 120h24v24h-24zM624 168h24v24h-24zM624 216h24v24h-24zM624 264h24v24h-24zM624 312h24v24h-24zM624 360h24v24h-24zM624 408h24v24h-24zM624 456h24v24h-24zM624 504h24v24h-24zM624 552h24v24h-24zM624 600h24v24h-24zM624 648h24v24h-24zM624 696h24v24h-24zM624 744h24v24h-24zM624 792h24v24h-24zM624 840h24v24h-24zM624 888h24v24h-24zM624 936h24v24h-24zM648 0h24v24h-24zM648 24h24v24h-24zM648 48h24v24h-24zM648 72h24v24h-24zM648 96h24v24h-24zM648 120h24v24h-24zM648 144h24v24h-24zM648 168h24v24h-24zM648 192h24v24h-24zM648 216h24v24h-24zM648 240h24v24h-24zM648 264h24v24h-24zM648 288h24v24h-24zM648 312h24v24h-24zM648 336h24v24h-24zM648 360h24v24h-24zM648 384h24v24h-24zM648 408h24v24h-24zM648 432h24v24h-24zM648 456h24v24h-24zM648 480h24v24h-24zM648 504h24v24h-24zM648 528h24v24h-24zM648 552h24v24h-24zM648 576h24v24h-24zM648 600h24v24h-24zM648 624h24v24h-24zM648 648h24v24h-24zM648 672h24v24h-24zM648 696h24v24h-24zM648 720h24v24h-24zM648 744h24v24h-24zM648 768h24v24h-24zM648 792h24v24h-24zM648 816h24v24h-24zM648 840h24v24h-24zM648 864h24v24h-24zM648 888h24v24h-24zM648 912h24v24h-24zM648 936h24v24h-24zM672 24h24v24h-24zM672 72h24v24h-24zM672 120h24v24h-24zM672 168h24v24h-24zM672 216h24v24h-24zM672 264h24v24h-24zM672 312h24v24h-24zM672 360h24v24h-24zM672 408h24v24h-24zM672 456h24v24h-24zM672 504h24v24h-24zM672 552h24v24h-24zM672 600h24v24h-24zM672 648h24v24h-24zM672 696h24v24h-24zM672 744h24v24h-24zM672 792h24v24h-24zM672 840h24v24h-24zM672 888h24v24h-24zM672 936h24v24h-24zM696 0h24v24h-24zM696 24h24v24h-24zM696 48h24v24h-24zM696 72h24v24h-24zM696 96h24v24h-24zM696 120h24v24h-24zM696 144h24v24h-24zM696 168h24v24h-24zM696 192h24v24h-24zM696 216h24v24h-24zM696 240h24v24h-24zM696 264h24v24h-24zM696 288h24v24h-24zM696 312h24v24h-24zM696 336h24v24h-24zM696 360h24v24h-24zM696 384h24v24h-24zM696 408h24v24h-24zM696 432h24v24h-24zM696 456h24v24h-24zM696 480h24v24h-24zM696 504h24v24h-24zM696 528h24v24h-24zM696 552h24v24h-24zM696 576h24v24h-24zM696 600h24v24h-24zM696 624h24v24h-24zM696 648h24v24h-24zM696 672h24v24h-24zM696 696h24v24h-24zM696 720h24v24h-24zM696 744h24v24h-24zM696 768h24v24h-24zM696 792h24v24h-24zM696 816h24v24h-24zM696 840h24v24h-24zM696 864h24v24h-24zM696 888h24v24h-24zM696 912h24v24h-24zM696 936h24v24h-24zM720 24h24v24h-24zM720 72h24v24h-24zM720 120h24v24h-24zM720 168h24v24h-24zM720 216h24v24h-24zM720 264h24v24h-24zM720 312h24v24h-24zM720 360h24v24h-24zM720 408h24v24h-24zM720 456h24v24h-24zM720 504h24v24h-24zM720 552h24v24h-24zM720 600h24v24h-24zM720 648h24v24h-24zM720 696h24v24h-24zM720 744h24v24h-24zM720 792h24v24h-24zM720 840h24v24h-24zM720 888h24v24h-24zM720 936h24v24h-24zM744 0h24v24h-24zM744 24h24v24h-24zM744 48h24v24h-24zM744 72h24v24h-24zM744 96h24v24h-24zM744 120h24v24h-24zM744 144h24v24h-24zM744 168h24v24h-24zM744 192h24v24h-24zM744 216h24v24h-24zM744 240h24v24h-24zM744 264h24v24h-24zM744 288h24v24h-24zM744 312h24v24h-24zM744 336h24v24h-24zM744 360h24v24h-24zM744 384h24v24h-24zM744 408h24v24h-24zM744 432h24v24h-24zM744 456h24v24h-24zM744 480h24v24h-24zM744 504h24v24h-24zM744 528h24v24h-24zM744 552h24v24h-24zM744 576h24v24h-24zM744 600h24v24h-24zM744 624h24v24h-24zM744 648h24v24h-24zM744 672h24v24h-24zM744 696h24v24h-24zM744 720h24v24h-24zM744 744h24v24h-24zM744 768h24v24h-24zM744 792h24v24h-24zM744 816h24v24h-24zM744 840h24v24h-24zM744 864h24v24h-24zM744 888h24v24h-24zM744 912h24v24h-24zM744 936h24v24h-24zM768 24h24v24h-24zM768 72h24v24h-24zM768 120h24v24h-24zM768 168h24v24h-24zM768 216h24v24h-24zM768 264h24v24h-24zM768 312h24v24h-24zM768 360h24v24h-24zM768 408h24v24h-24zM768 456h24v24h-24zM768 504h24v24h-24zM768 552h24v24h-24zM768 600h24v24h-24zM768 648h24v24h-24zM768 696h24v24h-24zM768 744h24v24h-24zM768 792h24v24h-24zM768 840h24v24h-24zM768 888h24v24h-24zM768 936h24v24h-24zM792 0h24v24h-24zM792 24h24v24h-24zM792 48h24v24h-24zM792 72h24v24h-24zM792 96h24v24h-24zM792 120h24v24h-24zM792 144h24v24h-24zM792 168h24v24h-24zM792 192h24v24h-24zM792 216h24v24h-24zM792 240h24v24h-24zM792 264h24v24h-24zM792 288h24v24h-24zM792 312h24v24h-24zM792 336h24v24h-24zM792 360h24v24h-24zM792 384h24v24h-24zM792 408h24v24h-24zM792 432h24v24h-24zM792 456h24v24h-24zM792 480h24v24h-24zM792 504h24v24h-24zM792 528h24v24h-24zM792 552h24v24h-24zM792 576h24v24h-24zM792 600h24v24h-24zM792 624h24v24h-24zM792 648h24v24h-24zM792 672h24v24h-24zM792 696h24v24h-24zM792 720h24v24h-24zM792 744h24v24h-24zM792 768h24v24h-24zM792 792h24v24h-24zM792 816h24v24h-24zM792 840h24v24h-24zM792 864h24v24h-24zM792 888h24v24h-24zM792 912h24v24h-24zM792 936h24v24h-24zM816 24h24v24h-24zM816 72h24v24h-24zM816 120h24v24h-24zM816 168h24v24h-24zM816 216h24v24h-24zM816 264h24v24h-24zM816 312h24v24h-24zM816 360h24v24h-24zM816 408h24v24h-24zM816 456h24v24h-24zM816 504h24v24h-24zM816 552h24v24h-24zM816 600h24v24h-24zM816 648h24v24h-24zM816 696h24v24h-24zM816 744h24v24h-24zM816 792h24v24h-24zM816 840h24v24h-24zM816 888h24v24h-24zM816 936h24v24h-24zM840 0h24v24h-24zM840 24h24v24h-24zM840 48h24v24h-24zM840 72h24v24h-24zM840 96h24v24h-24zM840 120h24v24h-24zM840 144h24v24h-24zM840 168h24v24h-24zM840 192h24v24h-24zM840 216h24v24h-24zM840 240h24v24h-24zM840 264h24v24h-24zM840 288h24v24h-24zM840 312h24v24h-24zM840 336h24v24h-24zM840 360h24v24h-24zM840 384h24v24h-24zM840 408h24v24h-24zM840 432h24v24h-24zM840 456h24v24h-24zM840 480h24v24h-24zM840 504h24v24h-24zM840 528h24v24h-24zM840 552h24v24h-24zM840 576h24v24h-24zM840 600h24v24h-24zM840 624h24v24h-24zM840 648h24v24h-24zM840 672h24v24h-24zM840 696h24v24h-24zM840 720h24v24h-24zM840 744h24v24h-24zM840 768h24v24h-24zM840 792h24v24h-24zM840 816h24v24h-24zM840 840h24v24h-24zM840 864h24v24h-24zM840 888h24v24h-24zM840 912h24v24h-24zM840 936h24v24h-24zM864 24h24v24h-24zM864 72h24v24h-24zM864 120h24v24h-24zM864 168h24v24h-24zM864 216h24v24h-24zM864 264h24v24h-24zM864 312h24v24h-24zM864 360h24v24h-24zM864 408h24v24h-24zM864 456h24v24h-24zM864 504h24v24h-24zM864 552h24v24h-24zM864 600h24v24h-24zM864 648h24v24h-24zM864 696h24v24h-24zM864 744h24v24h-24zM864 792h24v24h-24zM864 840h24v24h-24zM864 888h24v24h-24zM864 936h24v24h-24zM888 0h24v24h-24zM888 24h24v24h-24zM888 48h24v24h-24zM888 72h24v24h-24zM888 96h24v24h-24zM888 120h24v24h-24zM888 144h24v24h-24zM888 168h24v24h-24zM888 192h24v24h-24zM888 216h24v24h-24zM888 240h24v24h-24zM888 264h24v24h-24zM888 288h24v24h-24zM888 312h24v24h-24zM888 336h24v24h-24zM888 360h24v24h-24zM888 384h24v24h-24zM888 408h24v24h-24zM888 432h24v24h-24zM888 456h24v24h-24zM888 480h24v24h-24zM888 504h24v24h-24zM888 528h24v24h-24zM888 552h24v24h-24zM888 576h24v24h-24zM888 600h24v24h-24zM888 624h24v24h-24zM888 648h24v24h-24zM888 672h24v24h-24zM888 696h24v24h-24zM888 720h24v24h-24zM888 744h24v24h-24zM888 768h24v24h-24zM888 792h24v24h-24zM888 816h24v24h-24zM888 840h24v24h-24zM888 864h24v24h-24zM888 888h24v24h-24zM888 912h24v24h-24zM888 936h24v24h-24zM912 24h24v24h-24zM912 72h24v24h-24zM912 120h24v24h-24zM912 168h24v24h-24zM912 216h24v24h-24zM912 264h24v24h-24zM912 312h24v24h-24zM912 360h24v24h-24zM912 408h24v24h-24zM912 456h24v24h-24zM912 504h24v24h-24zM912 552h24v24h-24zM912 600h24v24h-24zM912 648h24v24h-24zM912 696h24v24h-24zM912 744h24v24h-24zM912 792h24v24h-24zM912 840h24v24h-24zM912 888h24v24h-24zM912 936h24v24h-24zM936 0h24v24h-24zM936 24h24v24h-24zM936 48h24v24h-24zM936 72h24v24h-24zM936 96h24v24h-24zM936 120h24v24h-24zM936 144h24v24h-24zM936 168h24v24h-24zM936 192h24v24h-24zM936 216h24v24h-24zM936 240h24v24h-24zM936 264h24v24h-24zM936 288h24v24h-24zM936 312h24v24h-24zM936 336h24v24h-24zM936 360h24v24h-24zM936 384h24v24h-24zM936 408h24v24h-24zM936 432h24v24h-24zM936 456h24v24h-24zM936 480h24v24h-24zM936 504h24v24h-24zM936 528h24v24h-24zM936 552h24v24h-24zM936 576h24v24h-24zM936 600h24v24h-24zM936 624h24v24h-24zM936 648h24v24h-24zM936 672h24v24h-24zM936 696h24v24h-24zM936 720h24v24h-24zM936 744h24v24h-24zM936 768h24v24h-24zM936 792h24v24h-24zM936 816h24v24h-24zM936 840h24v24h-24zM936 864h24v24h-24zM936 888h24v24h-24zM936 912h24v24h-24zM936 936h24v24h-24z"/><path fill="#f78bf9" d="M24 0h24v24h-24zM0 24h24v24h-24zM48 24h24v24h-24zM72 24h24v24h-24zM0 48h24v24h-24zM24 48h24v24h-24zM72 48h24v24h-24zM48 72h24v24h-24zM105 0h6v24h-6zM96 9h24v6h-24zM153 0h6v24h-6zM144 9h24v6h-24zM177 24h6v24h-6zM168 33h24v6h-24zM105 48h6v24h-6zM96 57h24v6h-24zM129 72h6v24h-6zM120 81h24v6h-24zM177 72h6v24h-6zM168 81h24v6h-24zM225 0h6v24h-6zM216 9h24v6h-24zM273 0h6v24h-6zM264 9h24v6h-24zM225 72h6v24h-6zM216 81h24v6h-24zM273 72h6v24h-6zM264 81h24v6h-24zM288 0h24v24h-24zM312 0h24v24h-24zM360 0h24v24h-24zM288 24h24v24h-24zM336 24h24v24h-24zM312 48h24v24h-24zM288 72h24v24h-24zM393 0h6v24h-6zM384 9h24v6h-24zM393 24h6v24h-6zM384 33h24v6h-24zM465 48h6v24h-6zM456 57h24v6h-24zM465 72h6v24h-6zM456 81h24v6h-24zM582 6h12v12h-12zM654 6h12v12h-12zM630 30h12v12h-12zM606 54h12v12h-12zM582 78h12v12h-12zM654 78h12v12h-12zM801 0h6v24h-6zM792 9h24v6h-24zM777 24h6v24h-6zM768 33h24v6h-24zM825 24h6v24h-6zM816 33h24v6h-24zM849 24h6v24h-6zM840 33h24v6h-24zM777 48h6v24h-6zM768 57h24v6h-24zM801 48h6v24h-6zM792 57h24v6h-24zM849 48h6v24h-6zM840 57h24v6h-24zM825 72h6v24h-6zM816 81h24v6h-24zM0 96h24v24h-24zM72 96h24v24h-24zM24 120h24v24h-24zM24 144h24v24h-24zM48 144h24v24h-24zM0 168h24v24h-24zM72 168h24v24h-24zM105 96h6v24h-6zM96 105h24v6h-24zM177 96h6v24h-6zM168 105h24v6h-24zM129 120h6v24h-6zM120 129h24v6h-24zM153 144h6v24h-6zM144 153h24v6h-24zM105 168h6v24h-6zM96 177h24v6h-24zM177 168h6v24h-6zM168 177h24v6h-24zM222 102h12v12h-12zM246 102h12v12h-12zM198 126h12v12h-12zM246 126h12v12h-12zM222 150h12v12h-12zM270 150h12v12h-12zM222 174h12v12h-12zM246 174h12v12h-12zM318 102h12v12h-12zM294 126h12v12h-12zM366 150h12v12h-12zM342 174h12v12h-12zM384 96h24v24h-24zM408 120h24v24h-24zM384 144h24v24h-24zM432 144h24v24h-24zM384 168h24v24h-24zM408 168h24v24h-24zM456 168h24v24h-24zM0 192h24v24h-24zM24 192h24v24h-24zM72 192h24v24h-24zM0 216h24v24h-24zM48 216h24v24h-24zM24 240h24v24h-24zM0 264h24v24h-24zM129 216h6v24h-6zM120 225h24v6h-24zM153 216h6v24h-6zM144 225h24v6h-24zM129 240h6v24h-6zM120 249h24v6h-24zM153 240h6v24h-6zM144 249h24v6h-24zM198 198h12v12h-12zM246 198h12v12h-12zM246 222h12v12h-12zM270 222h12v12h-12zM198 246h12v12h-12zM222 246h12v12h-12zM222 270h12v12h-12zM270 270h12v12h-12zM321 192h6v24h-6zM312 201h24v6h-24zM297 216h6v24h-6zM288 225h24v6h-24zM345 216h6v24h-6zM336 225h24v6h-24zM369 216h6v24h-6zM360 225h24v6h-24zM297 240h6v24h-6zM288 249h24v6h-24zM321 240h6v24h-6zM312 249h24v6h-24zM369 240h6v24h-6zM360 249h24v6h-24zM345 264h6v24h-6zM336 273h24v6h-24zM438 198h12v12h-12zM462 198h12v12h-12zM438 222h12v12h-12zM462 222h12v12h-12zM390 246h12v12h-12zM414 246h12v12h-12zM390 270h12v12h-12zM414 270h12v12h-12zM624 192h24v24h-24zM648 192h24v24h-24zM576 264h24v24h-24zM600 264h24v24h-24zM774 198h12v12h-12zM822 198h12v12h-12zM798 222h12v12h-12zM846 222h12v12h-12zM774 246h12v12h-12zM822 246h12v12h-12zM798 270h12v12h-12zM846 270h12v12h-12zM480 288h24v24h-24zM552 288h24v24h-24zM504 312h24v24h-24zM528 312h24v24h-24zM528 336h24v24h-24zM480 360h24v24h-24zM552 360h24v24h-24zM585 288h6v24h-6zM576 297h24v6h-24zM585 312h6v24h-6zM576 321h24v6h-24zM657 336h6v24h-6zM648 345h24v6h-24zM657 360h6v24h-6zM648 369h24v6h-24zM678 294h12v12h-12zM702 318h12v12h-12zM678 342h12v12h-12zM726 342h12v12h-12zM678 366h12v12h-12zM702 366h12v12h-12zM750 366h12v12h-12zM768 288h24v24h-24zM792 288h24v24h-24zM840 288h24v24h-24zM768 312h24v24h-24zM816 312h24v24h-24zM792 336h24v24h-24zM768 360h24v24h-24zM870 294h12v12h-12zM942 294h12v12h-12zM870 342h12v12h-12zM942 342h12v12h-12zM78 534h12v12h-12zM30 390h12v12h-12zM54 390h12v12h-12zM30 414h12v12h-12zM78 414h12v12h-12zM6 438h12v12h-12zM54 438h12v12h-12zM30 462h12v12h-12zM54 462h12v12h-12zM225 384h6v24h-6zM216 393h24v6h-24zM249 432h6v24h-6zM240 441h24v6h-24zM225 456h6v24h-6zM216 465h24v6h-24zM249 456h6v24h-6zM240 465h24v6h-24zM390 390h12v12h-12zM414 390h12v12h-12zM390 414h12v12h-12zM414 414h12v12h-12zM438 438h12v12h-12zM462 438h12v12h-12zM438 462h12v12h-12zM462 462h12v12h-12zM537 384h6v24h-6zM528 393h24v6h-24zM561 384h6v24h-6zM552 393h24v6h-24zM537 408h6v24h-6zM528 417h24v6h-24zM561 408h6v24h-6zM552 417h24v6h-24zM489 432h6v24h-6zM480 441h24v6h-24zM513 432h6v24h-6zM504 441h24v6h-24zM489 456h6v24h-6zM480 465h24v6h-24zM513 456h6v24h-6zM504 465h24v6h-24zM582 390h12v12h-12zM654 390h12v12h-12zM630 414h12v12h-12zM606 438h12v12h-12zM630 438h12v12h-12zM582 462h12v12h-12zM654 462h12v12h-12zM702 390h12v12h-12zM750 390h12v12h-12zM678 414h12v12h-12zM750 438h12v12h-12zM678 462h12v12h-12zM726 462h12v12h-12zM768 384h24v24h-24zM840 384h24v24h-24zM792 408h24v24h-24zM816 408h24v24h-24zM816 432h24v24h-24zM768 456h24v24h-24zM840 456h24v24h-24zM864 384h24v24h-24zM888 384h24v24h-24zM864 408h24v24h-24zM888 408h24v24h-24zM912 432h24v24h-24zM936 432h24v24h-24zM912 456h24v24h-24zM936 456h24v24h-24zM480 480h24v24h-24zM528 480h24v24h-24zM552 504h24v24h-24zM480 528h24v24h-24zM504 552h24v24h-24zM552 552h24v24h-24zM600 480h24v24h-24zM624 480h24v24h-24zM624 504h24v24h-24zM600 552h24v24h-24zM681 480h6v24h-6zM672 489h24v6h-24zM753 480h6v24h-6zM744 489h24v6h-24zM705 504h6v24h-6zM696 513h24v6h-24zM729 528h6v24h-6zM720 537h24v6h-24zM681 552h6v24h-6zM672 561h24v6h-24zM753 552h6v24h-6zM744 561h24v6h-24zM777 480h6v24h-6zM768 489h24v6h-24zM849 480h6v24h-6zM840 489h24v6h-24zM801 504h6v24h-6zM792 513h24v6h-24zM801 528h6v24h-6zM792 537h24v6h-24zM825 528h6v24h-6zM816 537h24v6h-24zM777 552h6v24h-6zM768 561h24v6h-24zM849 552h6v24h-6zM840 561h24v6h-24zM873 480h6v24h-6zM864 489h24v6h-24zM897 480h6v24h-6zM888 489h24v6h-24zM921 552h6v24h-6zM912 561h24v6h-24zM945 552h6v24h-6zM936 561h24v6h-24zM6 582h12v12h-12zM54 582h12v12h-12zM30 606h12v12h-12zM78 606h12v12h-12zM6 630h12v12h-12zM54 630h12v12h-12zM30 654h12v12h-12zM78 654h12v12h-12zM129 576h6v24h-6zM120 585h24v6h-24zM177 576h6v24h-6zM168 585h24v6h-24zM129 648h6v24h-6zM120 657h24v6h-24zM177 648h6v24h-6zM168 657h24v6h-24zM198 582h12v12h-12zM270 582h12v12h-12zM198 654h12v12h-12zM270 654h12v12h-12zM366 582h12v12h-12zM342 606h12v12h-12zM318 630h12v12h-12zM366 630h12v12h-12zM294 654h12v12h-12zM342 654h12v12h-12zM366 654h12v12h-12zM390 582h12v12h-12zM438 582h12v12h-12zM438 606h12v12h-12zM462 606h12v12h-12zM390 630h12v12h-12zM414 630h12v12h-12zM414 654h12v12h-12zM462 654h12v12h-12zM630 582h12v12h-12zM654 606h12v12h-12zM582 630h12v12h-12zM606 654h12v12h-12zM774 582h12v12h-12zM798 606h12v12h-12zM822 630h12v12h-12zM846 654h12v12h-12zM6 678h12v12h-12zM78 678h12v12h-12zM54 702h12v12h-12zM30 726h12v12h-12zM6 750h12v12h-12zM78 750h12v12h-12zM177 672h6v24h-6zM168 681h24v6h-24zM153 696h6v24h-6zM144 705h24v6h-24zM129 720h6v24h-6zM120 729h24v6h-24zM177 720h6v24h-6zM168 729h24v6h-24zM105 744h6v24h-6zM96 753h24v6h-24zM153 744h6v24h-6zM144 753h24v6h-24zM177 744h6v24h-6zM168 753h24v6h-24zM192 672h24v24h-24zM240 672h24v24h-24zM216 696h24v24h-24zM264 696h24v24h-24zM192 720h24v24h-24zM240 720h24v24h-24zM216 744h24v24h-24zM264 744h24v24h-24zM318 678h12v12h-12zM294 702h12v12h-12zM342 702h12v12h-12zM318 726h12v12h-12zM366 726h12v12h-12zM342 750h12v12h-12zM408 672h24v24h-24zM432 672h24v24h-24zM384 696h24v24h-24zM432 696h24v24h-24zM408 720h24v24h-24zM456 720h24v24h-24zM408 744h24v24h-24zM432 744h24v24h-24zM24 768h24v24h-24zM48 768h24v24h-24zM48 792h24v24h-24zM24 840h24v24h-24zM144 768h24v24h-24zM168 792h24v24h-24zM96 816h24v24h-24zM120 840h24v24h-24zM192 768h24v24h-24zM240 768h24v24h-24zM264 792h24v24h-24zM192 816h24v24h-24zM216 840h24v24h-24zM264 840h24v24h-24zM294 774h12v12h-12zM342 774h12v12h-12zM318 798h12v12h-12zM366 798h12v12h-12zM294 822h12v12h-12zM342 822h12v12h-12zM318 846h12v12h-12zM366 846h12v12h-12zM414 774h12v12h-12zM462 774h12v12h-12zM390 798h12v12h-12zM462 822h12v12h-12zM390 846h12v12h-12zM438 846h12v12h-12zM630 774h12v12h-12zM582 798h12v12h-12zM606 798h12v12h-12zM654 798h12v12h-12zM582 822h12v12h-12zM630 822h12v12h-12zM654 822h12v12h-12zM606 846h12v12h-12zM798 774h12v12h-12zM846 774h12v12h-12zM774 798h12v12h-12zM822 798h12v12h-12zM798 822h12v12h-12zM846 822h12v12h-12zM774 846h12v12h-12zM822 846h12v12h-12zM24 864h24v24h-24zM0 888h24v24h-24zM24 888h24v24h-24zM48 912h24v24h-24zM72 912h24v24h-24zM48 936h24v24h-24zM102 870h12v12h-12zM174 870h12v12h-12zM126 894h12v12h-12zM150 894h12v12h-12zM126 918h12v12h-12zM102 942h12v12h-12zM174 942h12v12h-12zM222 870h12v12h-12zM198 894h12v12h-12zM246 894h12v12h-12zM270 894h12v12h-12zM198 918h12v12h-12zM222 918h12v12h-12zM270 918h12v12h-12zM246 942h12v12h-12zM318 870h12v12h-12zM366 870h12v12h-12zM294 894h12v12h-12zM366 918h12v12h-12zM294 942h12v12h-12zM342 942h12v12h-12zM408 864h24v24h-24zM456 864h24v24h-24zM384 888h24v24h-24zM456 912h24v24h-24zM384 936h24v24h-24zM432 936h24v24h-24zM513 768h6v24h-6zM504 777h24v6h-24zM537 768h6v24h-6zM528 777h24v6h-24zM489 792h6v24h-6zM480 801h24v6h-24zM537 792h6v24h-6zM528 801h24v6h-24zM513 816h6v24h-6zM504 825h24v6h-24zM561 816h6v24h-6zM552 825h24v6h-24zM513 840h6v24h-6zM504 849h24v6h-24zM537 840h6v24h-6zM528 849h24v6h-24zM126 390h12v12h-12zM150 438h12v12h-12zM126 462h12v12h-12zM150 462h12v12h-12zM294 390h12v12h-12zM318 390h12v12h-12zM294 414h12v12h-12zM318 414h12v12h-12zM342 438h12v12h-12zM366 438h12v12h-12zM342 462h12v12h-12zM366 462h12v12h-12zM6 486h12v12h-12zM54 486h12v12h-12zM30 510h12v12h-12zM78 510h12v12h-12zM6 534h12v12h-12zM54 534h12v12h-12zM30 558h12v12h-12zM78 558h12v12h-12zM897 768h6v24h-6zM888 777h24v6h-24zM945 768h6v24h-6zM936 777h24v6h-24zM873 792h6v24h-6zM864 801h24v6h-24zM921 792h6v24h-6zM912 801h24v6h-24zM897 816h6v24h-6zM888 825h24v6h-24zM945 816h6v24h-6zM936 825h24v6h-24zM873 840h6v24h-6zM864 849h24v6h-24zM921 840h6v24h-6zM912 849h24v6h-24zM480 576h24v24h-24zM528 576h24v24h-24zM552 600h24v24h-24zM480 624h24v24h-24zM504 648h24v24h-24zM552 648h24v24h-24zM870 582h12v12h-12zM942 582h12v12h-12zM894 606h12v12h-12zM894 630h12v12h-12zM918 630h12v12h-12zM870 654h12v12h-12zM942 654h12v12h-12zM768 96h24v24h-24zM816 96h24v24h-24zM792 120h24v24h-24zM840 120h24v24h-24zM768 144h24v24h-24zM816 144h24v24h-24zM792 168h24v24h-24zM840 168h24v24h-24zM537 192h6v24h-6zM528 201h24v6h-24zM561 192h6v24h-6zM552 201h24v6h-24zM489 264h6v24h-6zM480 273h24v6h-24zM513 264h6v24h-6zM504 273h24v6h-24z"/><path fill="#000" d="M228 396h12v12h-12zM240 396h12v12h-12zM252 396h12v12h-12zM264 396h12v12h-12zM276 396h12v12h-12zM288 396h12v12h-12zM300 396h12v12h-12zM312 396h12v12h-12zM324 396h12v12h-12zM336 396h12v12h-12zM348 396h12v12h-12zM216 396h12v12h-12zM204 396h12v12h-12zM192 396h12v12h-12zM192 408h12v12h-12zM192 420h12v12h-12zM192 432h12v12h-12zM192 444h12v12h-12zM192 456h12v12h-12zM192 468h12v12h-12zM192 480h12v12h-12zM192 492h12v12h-12zM192 504h12v12h-12zM192 516h12v12h-12zM192 528h12v12h-12zM192 540h12v12h-12zM192 552h12v12h-12zM192 564h12v12h-12zM192 576h12v12h-12zM192 588h12v12h-12zM192 600h12v12h-12zM192 612h12v12h-12zM192 624h12v12h-12zM192 636h12v12h-12zM192 648h12v12h-12zM192 660h12v12h-12zM192 672h12v12h-12zM192 684h12v12h-12zM192 696h12v12h-12zM192 708h12v12h-12zM192 720h12v12h-12zM192 732h12v12h-12zM192 744h12v12h-12zM192 756h12v12h-12zM192 768h12v12h-12zM192 780h12v12h-12zM192 792h12v12h-12zM192 804h12v12h-12zM192 816h12v12h-12zM192 828h12v12h-12zM192 840h12v12h-12zM192 852h12v12h-12zM192 864h12v12h-12zM192 876h12v12h-12zM180 864h12v12h-12zM168 852h12v12h-12zM156 840h12v12h-12zM144 828h12v12h-12zM132 816h12v12h-12zM120 804h12v12h-12zM108 792h12v12h-12zM96 780h12v12h-12zM84 768h12v12h-12zM72 756h12v12h-12zM60 744h12v12h-12zM60 756h12v12h-12zM72 768h12v12h-12zM84 780h12v12h-12zM96 792h12v12h-12zM108 804h12v12h-12zM120 816h12v12h-12zM132 828h12v12h-12zM156 828h12v12h-12zM168 828h12v12h-12zM180 828h12v12h-12zM204 828h12v12h-12zM216 828h12v12h-12zM228 828h12v12h-12zM240 828h12v12h-12zM252 828h12v12h-12zM264 828h12v12h-12zM276 828h12v12h-12zM288 828h12v12h-12zM300 828h12v12h-12zM312 828h12v12h-12zM324 828h12v12h-12zM336 828h12v12h-12zM348 828h12v12h-12zM360 828h12v12h-12zM180 840h12v12h-12zM156 864h12v12h-12zM144 876h12v12h-12zM132 888h12v12h-12zM120 900h12v12h-12zM120 888h12v12h-12zM120 876h12v12h-12zM120 864h12v12h-12zM120 852h12v12h-12zM132 840h12v12h-12zM156 816h12v12h-12zM168 804h12v12h-12zM180 792h12v12h-12zM204 768h12v12h-12zM216 756h12v12h-12zM228 744h12v12h-12zM240 732h12v12h-12zM252 720h12v12h-12zM264 708h12v12h-12zM276 696h12v12h-12zM288 684h12v12h-12zM300 672h12v12h-12zM312 660h12v12h-12zM324 648h12v12h-12zM336 636h12v12h-12zM348 624h12v12h-12zM360 612h12v12h-12zM372 600h12v12h-12zM384 588h12v12h-12zM396 576h12v12h-12zM408 564h12v12h-12zM420 552h12v12h-12zM420 540h12v12h-12zM420 528h12v12h-12zM420 516h12v12h-12zM420 504h12v12h-12zM420 492h12v12h-12zM420 480h12v12h-12zM420 468h12v12h-12zM420 456h12v12h-12zM420 444h12v12h-12zM420 432h12v12h-12zM420 420h12v12h-12zM420 408h12v12h-12zM408 408h12v12h-12zM396 408h12v12h-12zM384 408h12v12h-12zM372 408h12v12h-12zM360 408h12v12h-12zM348 408h12v12h-12zM336 408h12v12h-12zM324 408h12v12h-12zM312 408h12v12h-12zM300 408h12v12h-12zM288 408h12v12h-12zM360 420h12v12h-12zM348 432h12v12h-12zM336 444h12v12h-12zM324 456h12v12h-12zM312 468h12v12h-12zM300 480h12v12h-12zM288 492h12v12h-12zM276 504h12v12h-12zM264 516h12v12h-12zM252 528h12v12h-12zM240 540h12v12h-12zM228 552h12v12h-12zM216 564h12v12h-12zM204 576h12v12h-12zM180 600h12v12h-12zM168 588h12v12h-12zM156 576h12v12h-12zM144 564h12v12h-12zM132 552h12v12h-12zM120 540h12v12h-12zM108 528h12v12h-12zM120 528h12v12h-12zM132 528h12v12h-12zM144 528h12v12h-12zM156 528h12v12h-12zM168 528h12v12h-12zM180 528h12v12h-12zM204 528h12v12h-12zM216 528h12v12h-12zM228 528h12v12h-12zM240 528h12v12h-12zM264 528h12v12h-12zM276 528h12v12h-12zM288 528h12v12h-12zM300 528h12v12h-12zM312 528h12v12h-12zM324 528h12v12h-12zM336 528h12v12h-12zM348 528h12v12h-12zM360 528h12v12h-12zM372 528h12v12h-12zM372 516h12v12h-12zM372 504h12v12h-12zM372 492h12v12h-12zM372 480h12v12h-12zM360 468h12v12h-12zM348 456h12v12h-12zM324 432h12v12h-12zM312 420h12v12h-12zM276 384h12v12h-12zM264 372h12v12h-12zM252 360h12v12h-12zM240 348h12v12h-12zM228 336h12v12h-12zM216 324h12v12h-12zM204 312h12v12h-12zM192 300h12v12h-12zM180 288h12v12h-12zM168 276h12v12h-12zM156 264h12v12h-12zM144 252h12v12h-12zM132 240h12v12h-12zM132 252h12v12h-12zM132 264h12v12h-12zM132 276h12v12h-12zM132 288h12v12h-12zM132 300h12v12h-12zM132 312h12v12h-12zM132 324h12v12h-12zM132 336h12v12h-12zM132 348h12v12h-12zM132 360h12v12h-12zM132 372h12v12h-12zM132 384h12v12h-12zM132 396h12v12h-12zM132 408h12v12h-12zM120 420h12v12h-12zM108 432h12v12h-12zM96 444h12v12h-12zM84 456h12v12h-12zM72 468h12v12h-12zM60 480h12v12h-12zM48 492h12v12h-12zM36 504h12v12h-12zM24 516h12v12h-12zM36 516h12v12h-12zM48 516h12v12h-12zM60 516h12v12h-12zM72 516h12v12h-12zM84 516h12v12h-12zM96 516h12v12h-12zM108 516h12v12h-12zM120 516h12v12h-12zM132 516h12v12h-12zM144 516h12v12h-12zM156 516h12v12h-12zM168 516h12v12h-12zM180 516h12v12h-12zM204 516h12v12h-12zM216 516h12v12h-12zM228 516h12v12h-12zM240 516h12v12h-12zM252 516h12v12h-12zM252 504h12v12h-12zM252 492h12v12h-12zM252 480h12v12h-12zM252 468h12v12h-12zM252 456h12v12h-12zM252 444h12v12h-12zM252 432h12v12h-12zM252 420h12v12h-12zM252 408h12v12h-12zM252 384h12v12h-12zM252 372h12v12h-12zM252 348h12v12h-12zM252 336h12v12h-12zM252 324h12v12h-12zM252 312h12v12h-12zM252 300h12v12h-12zM252 288h12v12h-12zM252 276h12v12h-12zM252 264h12v12h-12zM264 252h12v12h-12zM276 240h12v12h-12zM288 228h12v12h-12zM300 216h12v12h-12zM312 204h12v12h-12zM324 192h12v12h-12zM336 180h12v12h-12zM348 168h12v12h-12zM348 156h12v12h-12zM348 144h12v12h-12zM348 132h12v12h-12zM348 120h12v12h-12zM348 108h12v12h-12zM348 96h12v12h-12zM348 84h12v12h-12zM348 72h12v12h-12zM348 60h12v12h-12zM348 48h12v12h-12zM348 36h12v12h-12zM348 24h12v12h-12zM348 180h12v12h-12zM348 192h12v12h-12zM336 204h12v12h-12zM324 216h12v12h-12zM312 228h12v12h-12zM300 240h12v12h-12zM288 252h12v12h-12zM276 264h12v12h-12zM264 276h12v12h-12zM240 300h12v12h-12zM228 312h12v12h-12zM204 336h12v12h-12zM216 348h12v12h-12zM228 360h12v12h-12zM240 372h12v12h-12zM276 408h12v12h-12zM288 420h12v12h-12zM300 432h12v12h-12zM312 444h12v12h-12zM300 444h12v12h-12zM288 444h12v12h-12zM276 444h12v12h-12zM264 444h12v12h-12zM240 444h12v12h-12zM228 444h12v12h-12zM216 444h12v12h-12zM204 444h12v12h-12zM180 444h12v12h-12zM168 444h12v12h-12zM156 444h12v12h-12zM144 444h12v12h-12zM132 444h12v12h-12zM144 456h12v12h-12zM156 468h12v12h-12zM168 480h12v12h-12zM180 492h12v12h-12zM120 432h12v12h-12zM108 420h12v12h-12zM96 408h12v12h-12zM84 396h12v12h-12zM108 408h12v12h-12zM108 396h12v12h-12zM108 384h12v12h-12zM108 372h12v12h-12zM108 360h12v12h-12zM108 348h12v12h-12zM108 336h12v12h-12zM108 324h12v12h-12zM108 312h12v12h-12zM108 300h12v12h-12zM108 288h12v12h-12zM108 276h12v12h-12zM108 264h12v12h-12zM108 252h12v12h-12zM108 240h12v12h-12zM108 228h12v12h-12zM108 216h12v12h-12zM108 204h12v12h-12zM108 192h12v12h-12zM108 180h12v12h-12zM108 168h12v12h-12zM108 156h12v12h-12zM108 144h12v12h-12zM108 132h12v12h-12zM108 120h12v12h-12zM108 108h12v12h-12zM120 120h12v12h-12zM132 132h12v12h-12zM144 144h12v12h-12zM156 156h12v12h-12zM168 168h12v12h-12zM180 180h12v12h-12zM192 192h12v12h-12zM204 204h12v12h-12zM216 216h12v12h-12zM228 228h12v12h-12zM240 240h12v12h-12zM252 252h12v12h-12zM264 264h12v12h-12zM276 276h12v12h-12zM288 288h12v12h-12zM300 300h12v12h-12zM312 312h12v12h-12zM324 324h12v12h-12zM336 336h12v12h-12zM348 348h12v12h-12zM360 360h12v12h-12zM372 372h12v12h-12zM384 384h12v12h-12zM396 396h12v12h-12zM432 432h12v12h-12zM408 456h12v12h-12zM396 468h12v12h-12zM384 480h12v12h-12zM360 504h12v12h-12zM348 516h12v12h-12zM324 540h12v12h-12zM324 552h12v12h-12zM324 564h12v12h-12zM324 576h12v12h-12zM324 588h12v12h-12zM312 600h12v12h-12zM300 612h12v12h-12zM288 624h12v12h-12zM276 636h12v12h-12zM264 648h12v12h-12zM252 648h12v12h-12zM240 648h12v12h-12zM252 636h12v12h-12zM264 624h12v12h-12zM276 612h12v12h-12zM288 600h12v12h-12zM300 588h12v12h-12zM312 576h12v12h-12zM336 552h12v12h-12zM348 540h12v12h-12zM384 504h12v12h-12zM396 492h12v12h-12zM408 480h12v12h-12zM420 564h12v12h-12zM420 576h12v12h-12zM420 588h12v12h-12zM420 600h12v12h-12zM420 612h12v12h-12zM432 624h12v12h-12zM444 636h12v12h-12zM456 648h12v12h-12zM468 660h12v12h-12zM456 672h12v12h-12zM444 684h12v12h-12zM432 696h12v12h-12zM420 708h12v12h-12zM408 720h12v12h-12zM396 732h12v12h-12zM384 744h12v12h-12zM372 756h12v12h-12zM360 768h12v12h-12zM348 780h12v12h-12zM336 792h12v12h-12zM324 804h12v12h-12zM312 816h12v12h-12zM288 840h12v12h-12zM276 852h12v12h-12zM264 864h12v12h-12zM252 876h12v12h-12zM240 888h12v12h-12zM228 900h12v12h-12zM216 912h12v12h-12zM204 924h12v12h-12zM192 936h12v12h-12zM720 396h12v12h-12zM708 396h12v12h-12zM696 396h12v12h-12zM684 396h12v12h-12zM672 396h12v12h-12zM660 396h12v12h-12zM648 396h12v12h-12zM636 396h12v12h-12zM624 396h12v12h-12zM612 396h12v12h-12zM600 396h12v12h-12zM732 396h12v12h-12zM744 396h12v12h-12zM756 396h12v12h-12zM756 408h12v12h-12zM756 420h12v12h-12zM756 432h12v12h-12zM756 444h12v12h-12zM756 456h12v12h-12zM756 468h12v12h-12zM756 480h12v12h-12zM756 492h12v12h-12zM756 504h12v12h-12zM756 516h12v12h-12zM756 528h12v12h-12zM756 540h12v12h-12zM756 552h12v12h-12zM756 564h12v12h-12zM756 576h12v12h-12zM756 588h12v12h-12zM756 600h12v12h-12zM756 612h12v12h-12zM756 624h12v12h-12zM756 636h12v12h-12zM756 648h12v12h-12zM756 660h12v12h-12zM756 672h12v12h-12zM756 684h12v12h-12zM756 696h12v12h-12zM756 708h12v12h-12zM756 720h12v12h-12zM756 732h12v12h-12zM756 744h12v12h-12zM756 756h12v12h-12zM756 768h12v12h-12zM756 780h12v12h-12zM756 792h12v12h-12zM756 804h12v12h-12zM756 816h12v12h-12zM756 828h12v12h-12zM756 840h12v12h-12zM756 852h12v12h-12zM756 864h12v12h-12zM756 876h12v12h-12zM768 864h12v12h-12zM780 852h12v12h-12zM792 840h12v12h-12zM804 828h12v12h-12zM816 816h12v12h-12zM828 804h12v12h-12zM840 792h12v12h-12zM852 780h12v12h-12zM864 768h12v12h-12zM876 756h12v12h-12zM888 744h12v12h-12zM888 756h12v12h-12zM876 768h12v12h-12zM864 780h12v12h-12zM852 792h12v12h-12zM840 804h12v12h-12zM828 816h12v12h-12zM816 828h12v12h-12zM792 828h12v12h-12zM780 828h12v12h-12zM768 828h12v12h-12zM744 828h12v12h-12zM732 828h12v12h-12zM720 828h12v12h-12zM708 828h12v12h-12zM696 828h12v12h-12zM684 828h12v12h-12zM672 828h12v12h-12zM660 828h12v12h-12zM648 828h12v12h-12zM636 828h12v12h-12zM624 828h12v12h-12zM612 828h12v12h-12zM600 828h12v12h-12zM588 828h12v12h-12zM768 840h12v12h-12zM792 864h12v12h-12zM804 876h12v12h-12zM816 888h12v12h-12zM828 900h12v12h-12zM828 888h12v12h-12zM828 876h12v12h-12zM828 864h12v12h-12zM828 852h12v12h-12zM816 840h12v12h-12zM792 816h12v12h-12zM780 804h12v12h-12zM768 792h12v12h-12zM744 768h12v12h-12zM732 756h12v12h-12zM720 744h12v12h-12zM708 732h12v12h-12zM696 720h12v12h-12zM684 708h12v12h-12zM672 696h12v12h-12zM660 684h12v12h-12zM648 672h12v12h-12zM636 660h12v12h-12zM624 648h12v12h-12zM612 636h12v12h-12zM600 624h12v12h-12zM588 612h12v12h-12zM576 600h12v12h-12zM564 588h12v12h-12zM552 576h12v12h-12zM540 564h12v12h-12zM528 552h12v12h-12zM528 540h12v12h-12zM528 528h12v12h-12zM528 516h12v12h-12zM528 504h12v12h-12zM528 492h12v12h-12zM528 480h12v12h-12zM528 468h12v12h-12zM528 456h12v12h-12zM528 444h12v12h-12zM528 432h12v12h-12zM528 420h12v12h-12zM528 408h12v12h-12zM540 408h12v12h-12zM552 408h12v12h-12zM564 408h12v12h-12zM576 408h12v12h-12zM588 408h12v12h-12zM600 408h12v12h-12zM612 408h12v12h-12zM624 408h12v12h-12zM636 408h12v12h-12zM648 408h12v12h-12zM660 408h12v12h-12zM588 420h12v12h-12zM600 432h12v12h-12zM612 444h12v12h-12zM624 456h12v12h-12zM636 468h12v12h-12zM648 480h12v12h-12zM660 492h12v12h-12zM672 504h12v12h-12zM684 516h12v12h-12zM696 528h12v12h-12zM708 540h12v12h-12zM720 552h12v12h-12zM732 564h12v12h-12zM744 576h12v12h-12zM768 600h12v12h-12zM780 588h12v12h-12zM792 576h12v12h-12zM804 564h12v12h-12zM816 552h12v12h-12zM828 540h12v12h-12zM840 528h12v12h-12zM828 528h12v12h-12zM816 528h12v12h-12zM804 528h12v12h-12zM792 528h12v12h-12zM780 528h12v12h-12zM768 528h12v12h-12zM744 528h12v12h-12zM732 528h12v12h-12zM720 528h12v12h-12zM708 528h12v12h-12zM684 528h12v12h-12zM672 528h12v12h-12zM660 528h12v12h-12zM648 528h12v12h-12zM636 528h12v12h-12zM624 528h12v12h-12zM612 528h12v12h-12zM600 528h12v12h-12zM588 528h12v12h-12zM576 528h12v12h-12zM576 516h12v12h-12zM576 504h12v12h-12zM576 492h12v12h-12zM576 480h12v12h-12zM588 468h12v12h-12zM600 456h12v12h-12zM624 432h12v12h-12zM636 420h12v12h-12zM672 384h12v12h-12zM684 372h12v12h-12zM696 360h12v12h-12zM708 348h12v12h-12zM720 336h12v12h-12zM732 324h12v12h-12zM744 312h12v12h-12zM756 300h12v12h-12zM768 288h12v12h-12zM780 276h12v12h-12zM792 264h12v12h-12zM804 252h12v12h-12zM816 240h12v12h-12zM816 252h12v12h-12zM816 264h12v12h-12zM816 276h12v12h-12zM816 288h12v12h-12zM816 300h12v12h-12zM816 312h12v12h-12zM816 324h12v12h-12zM816 336h12v12h-12zM816 348h12v12h-12zM816 360h12v12h-12zM816 372h12v12h-12zM816 384h12v12h-12zM816 396h12v12h-12zM816 408h12v12h-12zM828 420h12v12h-12zM840 432h12v12h-12zM852 444h12v12h-12zM864 456h12v12h-12zM876 468h12v12h-12zM888 480h12v12h-12zM900 492h12v12h-12zM912 504h12v12h-12zM924 516h12v12h-12zM912 516h12v12h-12zM900 516h12v12h-12zM888 516h12v12h-12zM876 516h12v12h-12zM864 516h12v12h-12zM852 516h12v12h-12zM840 516h12v12h-12zM828 516h12v12h-12zM816 516h12v12h-12zM804 516h12v12h-12zM792 516h12v12h-12zM780 516h12v12h-12zM768 516h12v12h-12zM744 516h12v12h-12zM732 516h12v12h-12zM720 516h12v12h-12zM708 516h12v12h-12zM696 516h12v12h-12zM696 504h12v12h-12zM696 492h12v12h-12zM696 480h12v12h-12zM696 468h12v12h-12zM696 456h12v12h-12zM696 444h12v12h-12zM696 432h12v12h-12zM696 420h12v12h-12zM696 408h12v12h-12zM696 384h12v12h-12zM696 372h12v12h-12zM696 348h12v12h-12zM696 336h12v12h-12zM696 324h12v12h-12zM696 312h12v12h-12zM696 300h12v12h-12zM696 288h12v12h-12zM696 276h12v12h-12zM696 264h12v12h-12zM684 252h12v12h-12zM672 240h12v12h-12zM660 228h12v12h-12zM648 216h12v12h-12zM636 204h12v12h-12zM624 192h12v12h-12zM612 180h12v12h-12zM600 168h12v12h-12zM600 156h12v12h-12zM600 144h12v12h-12zM600 132h12v12h-12zM600 120h12v12h-12zM600 108h12v12h-12zM600 96h12v12h-12zM600 84h12v12h-12zM600 72h12v12h-12zM600 60h12v12h-12zM600 48h12v12h-12zM600 36h12v12h-12zM600 24h12v12h-12zM600 180h12v12h-12zM600 192h12v12h-12zM612 204h12v12h-12zM624 216h12v12h-12zM636 228h12v12h-12zM648 240h12v12h-12zM660 252h12v12h-12zM672 264h12v12h-12zM684 276h12v12h-12zM708 300h12v12h-12zM720 312h12v12h-12zM744 336h12v12h-12zM732 348h12v12h-12zM720 360h12v12h-12zM708 372h12v12h-12zM672 408h12v12h-12zM660 420h12v12h-12zM648 432h12v12h-12zM636 444h12v12h-12zM648 444h12v12h-12zM660 444h12v12h-12zM672 444h12v12h-12zM684 444h12v12h-12zM708 444h12v12h-12zM720 444h12v12h-12zM732 444h12v12h-12zM744 444h12v12h-12zM768 444h12v12h-12zM780 444h12v12h-12zM792 444h12v12h-12zM804 444h12v12h-12zM816 444h12v12h-12zM804 456h12v12h-12zM792 468h12v12h-12zM780 480h12v12h-12zM768 492h12v12h-12zM828 432h12v12h-12zM840 420h12v12h-12zM852 408h12v12h-12zM864 396h12v12h-12zM840 408h12v12h-12zM840 396h12v12h-12zM840 384h12v12h-12zM840 372h12v12h-12zM840 360h12v12h-12zM840 348h12v12h-12zM840 336h12v12h-12zM840 324h12v12h-12zM840 312h12v12h-12zM840 300h12v12h-12zM840 288h12v12h-12zM840 276h12v12h-12zM840 264h12v12h-12zM840 252h12v12h-12zM840 240h12v12h-12zM840 228h12v12h-12zM840 216h12v12h-12zM840 204h12v12h-12zM840 192h12v12h-12zM840 180h12v12h-12zM840 168h12v12h-12zM840 156h12v12h-12zM840 144h12v12h-12zM840 132h12v12h-12zM840 120h12v12h-12zM840 108h12v12h-12zM828 120h12v12h-12zM816 132h12v12h-12zM804 144h12v12h-12zM792 156h12v12h-12zM780 168h12v12h-12zM768 180h12v12h-12zM756 192h12v12h-12zM744 204h12v12h-12zM732 216h12v12h-12zM720 228h12v12h-12zM708 240h12v12h-12zM696 252h12v12h-12zM684 264h12v12h-12zM672 276h12v12h-12zM660 288h12v12h-12zM648 300h12v12h-12zM636 312h12v12h-12zM624 324h12v12h-12zM612 336h12v12h-12zM600 348h12v12h-12zM588 360h12v12h-12zM576 372h12v12h-12zM564 384h12v12h-12zM552 396h12v12h-12zM516 432h12v12h-12zM540 456h12v12h-12zM552 468h12v12h-12zM564 480h12v12h-12zM588 504h12v12h-12zM600 516h12v12h-12zM624 540h12v12h-12zM624 552h12v12h-12zM624 564h12v12h-12zM624 576h12v12h-12zM624 588h12v12h-12zM636 600h12v12h-12zM648 612h12v12h-12zM660 624h12v12h-12zM672 636h12v12h-12zM684 648h12v12h-12zM696 648h12v12h-12zM708 648h12v12h-12zM696 636h12v12h-12zM684 624h12v12h-12zM672 612h12v12h-12zM660 600h12v12h-12zM648 588h12v12h-12zM636 576h12v12h-12zM612 552h12v12h-12zM600 540h12v12h-12zM564 504h12v12h-12zM552 492h12v12h-12zM540 480h12v12h-12zM528 564h12v12h-12zM528 576h12v12h-12zM528 588h12v12h-12zM528 600h12v12h-12zM528 612h12v12h-12zM516 624h12v12h-12zM504 636h12v12h-12zM492 648h12v12h-12zM480 660h12v12h-12zM492 672h12v12h-12zM504 684h12v12h-12zM516 696h12v12h-12zM528 708h12v12h-12zM540 720h12v12h-12zM552 732h12v12h-12zM564 744h12v12h-12zM576 756h12v12h-12zM588 768h12v12h-12zM600 780h12v12h-12zM612 792h12v12h-12zM624 804h12v12h-12zM636 816h12v12h-12zM660 840h12v12h-12zM672 852h12v12h-12zM684 864h12v12h-12zM696 876h12v12h-12zM708 888h12v12h-12zM720 900h12v12h-12zM732 912h12v12h-12zM744 924h12v12h-12zM756 936h12v12h-12z"/></svg>