<svg xmlns="http://www.w3.org/2000/svg" width="960" height="960" viewBox="0 0 960 960" shape-rendering="crispEdges"><path fill="#fff" d="M0 0h960v960h-960z"/><path fill="#4f3636" d="M0 768h48v48h-48zM48 768h48v48h-48zM96 768h48v48h-48zM144 768h48v48h-48zM192 768h48v48h-48zM240 768h48v48h-48zM288 768h48v48h-48zM336 768h48v48h-48zM384 768h48v48h-48zM432 768h48v48h-48zM480 768h48v48h-48zM528 768h48v48h-48zM576 768h48v48h-48zM624 768h48v48h-48zM672 768h48v48h-48zM720 768h48v48h-48zM768 768h48v48h-48zM816 768h48v48h-48zM864 768h48v48h-48zM912 768h48v48h-48z"/><path fill="#6c98b2" d="M29 0h3v12h-3zM24 5h12v3h-12zM5 12h3v12h-3zM0 17h12v3h-12zM17 12h3v12h-3zM12 17h12v3h-12zM41 12h3v12h-3zM36 17h12v3h-12zM5 24h3v12h-3zM0 29h12v3h-12zM29 24h3v12h-3zM24 29h12v3h-12zM41 24h3v12h-3zM36 29h12v3h-12zM17 36h3v12h-3zM12 41h12v3h-12zM125 0h3v12h-3zM120 5h12v3h-12zM113 12h3v12h-3zM108 17h12v3h-12zM137 12h3v12h-3zM132 17h12v3h-12zM101 24h3v12h-3zM96 29h12v3h-12zM125 24h3v12h-3zM120 29h12v3h-12zM113 36h3v12h-3zM108 41h12v3h-12zM204 0h12v12h-12zM192 12h12v12h-12zM216 12h12v12h-12zM204 24h12v12h-12zM228 24h12v12h-12zM216 36h12v12h-12zM288 0h12v12h-12zM300 0h12v12h-12zM288 12h12v12h-12zM300 12h12v12h-12zM312 24h12v12h-12zM324 24h12v12h-12zM312 36h12v12h-12zM324 36h12v12h-12zM384 0h12v12h-12zM420 0h12v12h-12zM408 12h12v12h-12zM396 24h12v12h-12zM408 24h12v12h-12zM384 36h12v12h-12zM420 36h12v12h-12zM480 0h12v12h-12zM516 0h12v12h-12zM492 24h12v12h-12zM504 24h12v12h-12zM480 36h12v12h-12zM516 36h12v12h-12zM603 3h6v6h-6zM615 15h6v6h-6zM579 27h6v6h-6zM591 39h6v6h-6zM672 0h12v12h-12zM684 0h12v12h-12zM672 12h12v12h-12zM684 12h12v12h-12zM696 24h12v12h-12zM708 24h12v12h-12zM696 36h12v12h-12zM708 36h12v12h-12zM773 0h3v12h-3zM768 5h12v3h-12zM773 12h3v12h-3zM768 17h12v3h-12zM809 24h3v12h-3zM804 29h12v3h-12zM809 36h3v12h-3zM804 41h12v3h-12zM900 0h12v12h-12zM888 12h12v12h-12zM876 24h12v12h-12zM900 24h12v12h-12zM864 36h12v12h-12zM888 36h12v12h-12zM900 36h12v12h-12zM12 96h12v12h-12zM0 108h12v12h-12zM24 108h12v12h-12zM12 120h12v12h-12zM36 120h12v12h-12zM24 132h12v12h-12zM96 96h12v12h-12zM96 108h12v12h-12zM132 120h12v12h-12zM132 132h12v12h-12zM204 96h12v12h-12zM192 108h12v12h-12zM228 120h12v12h-12zM216 132h12v12h-12zM300 96h12v12h-12zM324 96h12v12h-12zM312 108h12v12h-12zM312 120h12v12h-12zM300 132h12v12h-12zM324 132h12v12h-12zM384 96h12v12h-12zM420 96h12v12h-12zM396 108h12v12h-12zM396 120h12v12h-12zM408 120h12v12h-12zM384 132h12v12h-12zM420 132h12v12h-12zM483 99h6v6h-6zM483 111h6v6h-6zM519 123h6v6h-6zM519 135h6v6h-6zM576 96h12v12h-12zM612 96h12v12h-12zM588 108h12v12h-12zM600 108h12v12h-12zM588 120h12v12h-12zM576 132h12v12h-12zM612 132h12v12h-12zM689 96h3v12h-3zM684 101h12v3h-12zM713 96h3v12h-3zM708 101h12v3h-12zM701 108h3v12h-3zM696 113h12v3h-12zM701 120h3v12h-3zM696 125h12v3h-12zM689 132h3v12h-3zM684 137h12v3h-12zM713 132h3v12h-3zM708 137h12v3h-12zM785 96h3v12h-3zM780 101h12v3h-12zM773 108h3v12h-3zM768 113h12v3h-12zM797 108h3v12h-3zM792 113h12v3h-12zM785 120h3v12h-3zM780 125h12v3h-12zM809 120h3v12h-3zM804 125h12v3h-12zM797 132h3v12h-3zM792 137h12v3h-12zM881 96h3v12h-3zM876 101h12v3h-12zM869 108h3v12h-3zM864 113h12v3h-12zM905 120h3v12h-3zM900 125h12v3h-12zM893 132h3v12h-3zM888 137h12v3h-12zM3 195h6v6h-6zM39 195h6v6h-6zM15 207h6v6h-6zM27 219h6v6h-6zM3 231h6v6h-6zM39 231h6v6h-6zM132 192h12v12h-12zM120 204h12v12h-12zM108 216h12v12h-12zM96 228h12v12h-12zM204 192h12v12h-12zM216 192h12v12h-12zM204 228h12v12h-12zM216 228h12v12h-12zM303 195h6v6h-6zM327 195h6v6h-6zM291 207h6v6h-6zM303 207h6v6h-6zM315 219h6v6h-6zM327 219h6v6h-6zM291 231h6v6h-6zM315 231h6v6h-6zM389 192h3v12h-3zM384 197h12v3h-12zM401 204h3v12h-3zM396 209h12v3h-12zM389 216h3v12h-3zM384 221h12v3h-12zM413 216h3v12h-3zM408 221h12v3h-12zM389 228h3v12h-3zM384 233h12v3h-12zM401 228h3v12h-3zM396 233h12v3h-12zM425 228h3v12h-3zM420 233h12v3h-12zM498 210h12v12h-12zM593 192h3v12h-3zM588 197h12v3h-12zM617 192h3v12h-3zM612 197h12v3h-12zM605 204h3v12h-3zM600 209h12v3h-12zM605 216h3v12h-3zM600 221h12v3h-12zM593 228h3v12h-3zM588 233h12v3h-12zM617 228h3v12h-3zM612 233h12v3h-12zM684 192h12v12h-12zM708 192h12v12h-12zM672 204h12v12h-12zM684 204h12v12h-12zM696 216h12v12h-12zM708 216h12v12h-12zM672 228h12v12h-12zM696 228h12v12h-12zM768 192h12v12h-12zM780 204h12v12h-12zM768 216h12v12h-12zM792 216h12v12h-12zM768 228h12v12h-12zM780 228h12v12h-12zM804 228h12v12h-12zM867 195h6v6h-6zM903 195h6v6h-6zM879 207h6v6h-6zM891 207h6v6h-6zM867 231h6v6h-6zM903 231h6v6h-6zM5 288h3v12h-3zM0 293h12v3h-12zM17 300h3v12h-3zM12 305h12v3h-12zM5 312h3v12h-3zM0 317h12v3h-12zM29 312h3v12h-3zM24 317h12v3h-12zM5 324h3v12h-3zM0 329h12v3h-12zM17 324h3v12h-3zM12 329h12v3h-12zM41 324h3v12h-3zM36 329h12v3h-12zM120 288h12v12h-12zM132 288h12v12h-12zM96 324h12v12h-12zM108 324h12v12h-12zM197 288h3v12h-3zM192 293h12v3h-12zM233 288h3v12h-3zM228 293h12v3h-12zM209 300h3v12h-3zM204 305h12v3h-12zM221 300h3v12h-3zM216 305h12v3h-12zM197 312h3v12h-3zM192 317h12v3h-12zM233 312h3v12h-3zM228 317h12v3h-12zM288 288h12v12h-12zM324 288h12v12h-12zM300 300h12v12h-12zM312 300h12v12h-12zM288 324h12v12h-12zM324 324h12v12h-12zM387 291h6v6h-6zM423 291h6v6h-6zM399 303h6v6h-6zM411 303h6v6h-6zM411 315h6v6h-6zM387 327h6v6h-6zM423 327h6v6h-6zM521 288h3v12h-3zM516 293h12v3h-12zM521 300h3v12h-3zM516 305h12v3h-12zM485 312h3v12h-3zM480 317h12v3h-12zM485 324h3v12h-3zM480 329h12v3h-12zM603 291h6v6h-6zM615 291h6v6h-6zM579 327h6v6h-6zM591 327h6v6h-6zM701 288h3v12h-3zM696 293h12v3h-12zM701 300h3v12h-3zM696 305h12v3h-12zM713 300h3v12h-3zM708 305h12v3h-12zM677 312h3v12h-3zM672 317h12v3h-12zM689 312h3v12h-3zM684 317h12v3h-12zM689 324h3v12h-3zM684 329h12v3h-12zM807 291h6v6h-6zM807 303h6v6h-6zM771 315h6v6h-6zM771 327h6v6h-6zM876 300h12v12h-12zM888 300h12v12h-12zM876 312h12v12h-12zM888 312h12v12h-12zM0 384h12v12h-12zM12 396h12v12h-12zM24 408h12v12h-12zM36 420h12v12h-12zM108 384h12v12h-12zM132 384h12v12h-12zM96 396h12v12h-12zM120 396h12v12h-12zM108 408h12v12h-12zM132 408h12v12h-12zM96 420h12v12h-12zM120 420h12v12h-12zM197 384h3v12h-3zM192 389h12v3h-12zM221 384h3v12h-3zM216 389h12v3h-12zM209 396h3v12h-3zM204 401h12v3h-12zM233 396h3v12h-3zM228 401h12v3h-12zM197 408h3v12h-3zM192 413h12v3h-12zM221 408h3v12h-3zM216 413h12v3h-12zM209 420h3v12h-3zM204 425h12v3h-12zM233 420h3v12h-3zM228 425h12v3h-12zM293 384h3v12h-3zM288 389h12v3h-12zM305 396h3v12h-3zM300 401h12v3h-12zM317 408h3v12h-3zM312 413h12v3h-12zM329 420h3v12h-3zM324 425h12v3h-12zM396 384h12v12h-12zM384 396h12v12h-12zM420 408h12v12h-12zM408 420h12v12h-12zM507 387h6v6h-6zM483 399h6v6h-6zM495 399h6v6h-6zM519 399h6v6h-6zM483 411h6v6h-6zM507 411h6v6h-6zM519 411h6v6h-6zM495 423h6v6h-6zM579 387h6v6h-6zM603 387h6v6h-6zM603 399h6v6h-6zM615 399h6v6h-6zM579 411h6v6h-6zM591 411h6v6h-6zM591 423h6v6h-6zM615 423h6v6h-6zM677 396h3v12h-3zM672 401h12v3h-12zM713 396h3v12h-3zM708 401h12v3h-12zM677 408h3v12h-3zM672 413h12v3h-12zM689 408h3v12h-3zM684 413h12v3h-12zM785 384h3v12h-3zM780 389h12v3h-12zM773 396h3v12h-3zM768 401h12v3h-12zM797 396h3v12h-3zM792 401h12v3h-12zM809 396h3v12h-3zM804 401h12v3h-12zM773 408h3v12h-3zM768 413h12v3h-12zM785 408h3v12h-3zM780 413h12v3h-12zM809 408h3v12h-3zM804 413h12v3h-12zM797 420h3v12h-3zM792 425h12v3h-12zM867 387h6v6h-6zM891 387h6v6h-6zM879 399h6v6h-6zM903 399h6v6h-6zM867 411h6v6h-6zM891 411h6v6h-6zM879 423h6v6h-6zM903 423h6v6h-6zM12 480h12v12h-12zM36 480h12v12h-12zM24 492h12v12h-12zM24 504h12v12h-12zM12 516h12v12h-12zM36 516h12v12h-12zM101 480h3v12h-3zM96 485h12v3h-12zM113 480h3v12h-3zM108 485h12v3h-12zM137 480h3v12h-3zM132 485h12v3h-12zM101 492h3v12h-3zM96 497h12v3h-12zM125 492h3v12h-3zM120 497h12v3h-12zM113 504h3v12h-3zM108 509h12v3h-12zM101 516h3v12h-3zM96 521h12v3h-12zM209 480h3v12h-3zM204 485h12v3h-12zM197 492h3v12h-3zM192 497h12v3h-12zM221 492h3v12h-3zM216 497h12v3h-12zM209 504h3v12h-3zM204 509h12v3h-12zM233 504h3v12h-3zM228 509h12v3h-12zM221 516h3v12h-3zM216 521h12v3h-12zM293 480h3v12h-3zM288 485h12v3h-12zM317 480h3v12h-3zM312 485h12v3h-12zM329 492h3v12h-3zM324 497h12v3h-12zM293 504h3v12h-3zM288 509h12v3h-12zM305 516h3v12h-3zM300 521h12v3h-12zM329 516h3v12h-3zM324 521h12v3h-12zM401 480h3v12h-3zM396 485h12v3h-12zM413 480h3v12h-3zM408 485h12v3h-12zM413 492h3v12h-3zM408 497h12v3h-12zM401 516h3v12h-3zM396 521h12v3h-12zM492 480h12v12h-12zM504 480h12v12h-12zM492 516h12v12h-12zM504 516h12v12h-12zM581 480h3v12h-3zM576 485h12v3h-12zM593 480h3v12h-3zM588 485h12v3h-12zM617 480h3v12h-3zM612 485h12v3h-12zM581 492h3v12h-3zM576 497h12v3h-12zM605 492h3v12h-3zM600 497h12v3h-12zM593 504h3v12h-3zM588 509h12v3h-12zM581 516h3v12h-3zM576 521h12v3h-12zM696 480h12v12h-12zM708 480h12v12h-12zM696 492h12v12h-12zM708 492h12v12h-12zM672 504h12v12h-12zM684 504h12v12h-12zM672 516h12v12h-12zM684 516h12v12h-12zM809 552h3v12h-3zM804 557h12v3h-12zM785 480h3v12h-3zM780 485h12v3h-12zM797 480h3v12h-3zM792 485h12v3h-12zM785 492h3v12h-3zM780 497h12v3h-12zM809 492h3v12h-3zM804 497h12v3h-12zM773 504h3v12h-3zM768 509h12v3h-12zM797 504h3v12h-3zM792 509h12v3h-12zM785 516h3v12h-3zM780 521h12v3h-12zM797 516h3v12h-3zM792 521h12v3h-12zM882 498h12v12h-12zM3 579h6v6h-6zM15 579h6v6h-6zM27 615h6v6h-6zM39 615h6v6h-6zM111 579h6v6h-6zM135 579h6v6h-6zM99 591h6v6h-6zM123 591h6v6h-6zM111 603h6v6h-6zM135 603h6v6h-6zM99 615h6v6h-6zM123 615h6v6h-6zM197 576h3v12h-3zM192 581h12v3h-12zM233 576h3v12h-3zM228 581h12v3h-12zM221 588h3v12h-3zM216 593h12v3h-12zM209 600h3v12h-3zM204 605h12v3h-12zM197 612h3v12h-3zM192 617h12v3h-12zM233 612h3v12h-3zM228 617h12v3h-12zM305 576h3v12h-3zM300 581h12v3h-12zM293 588h3v12h-3zM288 593h12v3h-12zM305 588h3v12h-3zM300 593h12v3h-12zM317 600h3v12h-3zM312 605h12v3h-12zM329 600h3v12h-3zM324 605h12v3h-12zM317 612h3v12h-3zM312 617h12v3h-12zM425 576h3v12h-3zM420 581h12v3h-12zM413 588h3v12h-3zM408 593h12v3h-12zM401 600h3v12h-3zM396 605h12v3h-12zM389 612h3v12h-3zM384 617h12v3h-12zM480 576h12v12h-12zM516 576h12v12h-12zM492 588h12v12h-12zM504 588h12v12h-12zM480 600h12v12h-12zM516 600h12v12h-12zM576 576h12v12h-12zM612 576h12v12h-12zM588 588h12v12h-12zM600 588h12v12h-12zM576 600h12v12h-12zM612 600h12v12h-12zM672 576h12v12h-12zM708 576h12v12h-12zM684 588h12v12h-12zM696 588h12v12h-12zM684 600h12v12h-12zM696 600h12v12h-12zM672 612h12v12h-12zM708 612h12v12h-12zM771 579h6v6h-6zM807 579h6v6h-6zM783 603h6v6h-6zM795 603h6v6h-6zM771 615h6v6h-6zM807 615h6v6h-6zM864 576h12v12h-12zM900 576h12v12h-12zM876 588h12v12h-12zM888 588h12v12h-12zM876 600h12v12h-12zM864 612h12v12h-12zM900 612h12v12h-12zM12 672h12v12h-12zM0 684h12v12h-12zM24 684h12v12h-12zM12 696h12v12h-12zM36 696h12v12h-12zM24 708h12v12h-12zM99 675h6v6h-6zM135 675h6v6h-6zM111 687h6v6h-6zM123 687h6v6h-6zM111 699h6v6h-6zM99 711h6v6h-6zM135 711h6v6h-6zM204 672h12v12h-12zM228 672h12v12h-12zM192 684h12v12h-12zM228 696h12v12h-12zM192 708h12v12h-12zM216 708h12v12h-12zM288 672h12v12h-12zM324 672h12v12h-12zM300 684h12v12h-12zM312 684h12v12h-12zM312 696h12v12h-12zM288 708h12v12h-12zM324 708h12v12h-12zM396 672h12v12h-12zM420 672h12v12h-12zM396 708h12v12h-12zM420 708h12v12h-12zM495 675h6v6h-6zM507 675h6v6h-6zM495 711h6v6h-6zM507 711h6v6h-6zM581 672h3v12h-3zM576 677h12v3h-12zM593 672h3v12h-3zM588 677h12v3h-12zM605 708h3v12h-3zM600 713h12v3h-12zM617 708h3v12h-3zM612 713h12v3h-12zM687 675h6v6h-6zM711 675h6v6h-6zM699 687h6v6h-6zM699 699h6v6h-6zM687 711h6v6h-6zM711 711h6v6h-6zM780 672h12v12h-12zM804 672h12v12h-12zM768 684h12v12h-12zM804 696h12v12h-12zM768 708h12v12h-12zM792 708h12v12h-12zM867 675h6v6h-6zM903 675h6v6h-6zM879 687h6v6h-6zM891 687h6v6h-6zM879 699h6v6h-6zM867 711h6v6h-6zM903 711h6v6h-6zM17 780h3v12h-3zM12 785h12v3h-12zM29 780h3v12h-3zM24 785h12v3h-12zM17 792h3v12h-3zM12 797h12v3h-12zM29 792h3v12h-3zM24 797h12v3h-12zM101 768h3v12h-3zM96 773h12v3h-12zM137 768h3v12h-3zM132 773h12v3h-12zM113 780h3v12h-3zM108 785h12v3h-12zM125 780h3v12h-3zM120 785h12v3h-12zM125 792h3v12h-3zM120 797h12v3h-12zM101 804h3v12h-3zM96 809h12v3h-12zM137 804h3v12h-3zM132 809h12v3h-12zM192 768h12v12h-12zM216 768h12v12h-12zM228 780h12v12h-12zM192 792h12v12h-12zM204 804h12v12h-12zM228 804h12v12h-12zM288 768h12v12h-12zM300 780h12v12h-12zM288 792h12v12h-12zM312 792h12v12h-12zM288 804h12v12h-12zM300 804h12v12h-12zM324 804h12v12h-12zM399 771h6v6h-6zM411 771h6v6h-6zM387 783h6v6h-6zM411 783h6v6h-6zM399 795h6v6h-6zM423 795h6v6h-6zM399 807h6v6h-6zM411 807h6v6h-6zM483 771h6v6h-6zM507 771h6v6h-6zM495 783h6v6h-6zM519 783h6v6h-6zM483 795h6v6h-6zM507 795h6v6h-6zM495 807h6v6h-6zM519 807h6v6h-6zM603 771h6v6h-6zM579 783h6v6h-6zM591 783h6v6h-6zM615 783h6v6h-6zM579 795h6v6h-6zM603 795h6v6h-6zM615 795h6v6h-6zM591 807h6v6h-6zM696 768h12v12h-12zM708 768h12v12h-12zM696 780h12v12h-12zM708 780h12v12h-12zM672 792h12v12h-12zM684 792h12v12h-12zM672 804h12v12h-12zM684 804h12v12h-12zM780 768h12v12h-12zM792 768h12v12h-12zM780 804h12v12h-12zM792 804h12v12h-12zM864 768h12v12h-12zM900 768h12v12h-12zM876 780h12v12h-12zM888 792h12v12h-12zM864 804h12v12h-12zM900 804h12v12h-12zM5 864h3v12h-3zM0 869h12v3h-12zM41 864h3v12h-3zM36 869h12v3h-12zM17 876h3v12h-3zM12 881h12v3h-12zM29 876h3v12h-3zM24 881h12v3h-12zM29 888h3v12h-3zM24 893h12v3h-12zM5 900h3v12h-3zM0 905h12v3h-12zM41 900h3v12h-3zM36 905h12v3h-12zM99 867h6v6h-6zM111 867h6v6h-6zM99 879h6v6h-6zM111 879h6v6h-6zM123 891h6v6h-6zM135 891h6v6h-6zM123 903h6v6h-6zM135 903h6v6h-6zM209 864h3v12h-3zM204 869h12v3h-12zM221 864h3v12h-3zM216 869h12v3h-12zM209 900h3v12h-3zM204 905h12v3h-12zM221 900h3v12h-3zM216 905h12v3h-12zM291 867h6v6h-6zM303 879h6v6h-6zM315 891h6v6h-6zM327 903h6v6h-6zM387 867h6v6h-6zM399 867h6v6h-6zM387 879h6v6h-6zM399 879h6v6h-6zM411 891h6v6h-6zM423 891h6v6h-6zM411 903h6v6h-6zM423 903h6v6h-6zM483 867h6v6h-6zM495 879h6v6h-6zM483 891h6v6h-6zM507 891h6v6h-6zM483 903h6v6h-6zM495 903h6v6h-6zM519 903h6v6h-6zM579 867h6v6h-6zM615 867h6v6h-6zM591 879h6v6h-6zM603 879h6v6h-6zM603 891h6v6h-6zM579 903h6v6h-6zM615 903h6v6h-6zM675 867h6v6h-6zM711 867h6v6h-6zM675 903h6v6h-6zM711 903h6v6h-6zM773 864h3v12h-3zM768 869h12v3h-12zM797 864h3v12h-3zM792 869h12v3h-12zM785 876h3v12h-3zM780 881h12v3h-12zM809 876h3v12h-3zM804 881h12v3h-12zM773 888h3v12h-3zM768 893h12v3h-12zM797 888h3v12h-3zM792 893h12v3h-12zM785 900h3v12h-3zM780 905h12v3h-12zM809 900h3v12h-3zM804 905h12v3h-12zM864 864h12v12h-12zM864 876h12v12h-12zM900 888h12v12h-12zM900 900h12v12h-12zM533 576h3v12h-3zM528 581h12v3h-12zM569 576h3v12h-3zM564 581h12v3h-12zM545 588h3v12h-3zM540 593h12v3h-12zM557 588h3v12h-3zM552 593h12v3h-12zM533 600h3v12h-3zM528 605h12v3h-12zM569 600h3v12h-3zM564 605h12v3h-12zM291 915h6v6h-6zM303 927h6v6h-6zM315 939h6v6h-6zM327 951h6v6h-6zM672 348h12v12h-12zM708 348h12v12h-12zM672 360h12v12h-12zM684 360h12v12h-12zM821 336h3v12h-3zM816 341h12v3h-12zM845 336h3v12h-3zM840 341h12v3h-12zM833 348h3v12h-3zM828 353h12v3h-12zM857 348h3v12h-3zM852 353h12v3h-12zM821 360h3v12h-3zM816 365h12v3h-12zM845 360h3v12h-3zM840 365h12v3h-12zM833 372h3v12h-3zM828 377h12v3h-12zM857 372h3v12h-3zM852 377h12v3h-12zM0 336h12v12h-12zM12 348h12v12h-12zM24 360h12v12h-12zM36 372h12v12h-12zM341 240h3v12h-3zM336 245h12v3h-12zM377 240h3v12h-3zM372 245h12v3h-12zM353 252h3v12h-3zM348 257h12v3h-12zM365 252h3v12h-3zM360 257h12v3h-12zM365 264h3v12h-3zM360 269h12v3h-12zM341 276h3v12h-3zM336 281h12v3h-12zM377 276h3v12h-3zM372 281h12v3h-12zM735 723h6v6h-6zM747 723h6v6h-6zM735 759h6v6h-6zM747 759h6v6h-6zM449 432h3v12h-3zM444 437h12v3h-12zM461 432h3v12h-3zM456 437h12v3h-12zM449 468h3v12h-3zM444 473h12v3h-12zM461 468h3v12h-3zM456 473h12v3h-12zM677 48h3v12h-3zM672 53h12v3h-12zM689 48h3v12h-3zM684 53h12v3h-12zM677 60h3v12h-3zM672 65h12v3h-12zM689 60h3v12h-3zM684 65h12v3h-12zM701 72h3v12h-3zM696 77h12v3h-12zM713 72h3v12h-3zM708 77h12v3h-12zM701 84h3v12h-3zM696 89h12v3h-12zM713 84h3v12h-3zM708 89h12v3h-12zM735 147h6v6h-6zM759 147h6v6h-6zM723 159h6v6h-6zM735 159h6v6h-6zM747 171h6v6h-6zM759 171h6v6h-6zM723 183h6v6h-6zM747 183h6v6h-6zM387 819h6v6h-6zM399 819h6v6h-6zM387 831h6v6h-6zM399 831h6v6h-6zM411 843h6v6h-6zM423 843h6v6h-6zM411 855h6v6h-6zM423 855h6v6h-6zM549 213h6v6h-6zM933 501h6v6h-6zM243 627h6v6h-6zM279 627h6v6h-6zM255 639h6v6h-6zM267 639h6v6h-6zM267 651h6v6h-6zM243 663h6v6h-6zM279 663h6v6h-6zM51 771h6v6h-6zM87 771h6v6h-6zM63 783h6v6h-6zM75 783h6v6h-6zM75 795h6v6h-6zM51 807h6v6h-6zM87 807h6v6h-6zM821 816h3v12h-3zM816 821h12v3h-12zM821 828h3v12h-3zM816 833h12v3h-12zM857 840h3v12h-3zM852 845h12v3h-12zM857 852h3v12h-3zM852 857h12v3h-12zM828 144h12v12h-12zM816 156h12v12h-12zM852 168h12v12h-12zM840 180h12v12h-12zM624 912h12v12h-12zM660 912h12v12h-12zM624 948h12v12h-12zM660 948h12v12h-12zM300 48h12v12h-12zM324 48h12v12h-12zM312 60h12v12h-12zM312 72h12v12h-12zM300 84h12v12h-12zM324 84h12v12h-12zM353 192h3v12h-3zM348 197h12v3h-12zM377 192h3v12h-3zM372 197h12v3h-12zM341 204h3v12h-3zM336 209h12v3h-12zM353 204h3v12h-3zM348 209h12v3h-12zM365 216h3v12h-3zM360 221h12v3h-12zM377 216h3v12h-3zM372 221h12v3h-12zM341 228h3v12h-3zM336 233h12v3h-12zM365 228h3v12h-3zM360 233h12v3h-12zM605 240h3v12h-3zM600 245h12v3h-12zM617 240h3v12h-3zM612 245h12v3h-12zM581 276h3v12h-3zM576 281h12v3h-12zM593 276h3v12h-3zM588 281h12v3h-12zM648 816h12v12h-12zM660 816h12v12h-12zM648 828h12v12h-12zM660 828h12v12h-12zM624 840h12v12h-12zM636 840h12v12h-12zM624 852h12v12h-12zM636 852h12v12h-12zM159 435h6v6h-6zM183 435h6v6h-6zM147 447h6v6h-6zM171 447h6v6h-6zM159 459h6v6h-6zM183 459h6v6h-6zM147 471h6v6h-6zM171 471h6v6h-6zM749 240h3v12h-3zM744 245h12v3h-12zM749 252h3v12h-3zM744 257h12v3h-12zM761 252h3v12h-3zM756 257h12v3h-12zM725 264h3v12h-3zM720 269h12v3h-12zM737 264h3v12h-3zM732 269h12v3h-12zM737 276h3v12h-3zM732 281h12v3h-12zM588 144h12v12h-12zM612 144h12v12h-12zM600 156h12v12h-12zM600 168h12v12h-12zM588 180h12v12h-12zM612 180h12v12h-12zM435 195h6v6h-6zM447 207h6v6h-6zM435 219h6v6h-6zM459 219h6v6h-6zM435 231h6v6h-6zM447 231h6v6h-6zM471 231h6v6h-6zM257 192h3v12h-3zM252 197h12v3h-12zM281 192h3v12h-3zM276 197h12v3h-12zM245 204h3v12h-3zM240 209h12v3h-12zM257 204h3v12h-3zM252 209h12v3h-12zM269 216h3v12h-3zM264 221h12v3h-12zM281 216h3v12h-3zM276 221h12v3h-12zM245 228h3v12h-3zM240 233h12v3h-12zM269 228h3v12h-3zM264 233h12v3h-12zM552 816h12v12h-12zM528 828h12v12h-12zM540 828h12v12h-12zM564 828h12v12h-12zM528 840h12v12h-12zM552 840h12v12h-12zM564 840h12v12h-12zM540 852h12v12h-12zM551 162h3v12h-3zM546 167h12v3h-12zM243 339h6v6h-6zM279 339h6v6h-6zM255 351h6v6h-6zM267 351h6v6h-6zM243 375h6v6h-6zM279 375h6v6h-6zM432 96h12v12h-12zM432 108h12v12h-12zM468 120h12v12h-12zM468 132h12v12h-12zM540 480h12v12h-12zM552 480h12v12h-12zM540 516h12v12h-12zM552 516h12v12h-12zM533 720h3v12h-3zM528 725h12v3h-12zM557 720h3v12h-3zM552 725h12v3h-12zM545 732h3v12h-3zM540 737h12v3h-12zM569 732h3v12h-3zM564 737h12v3h-12zM533 744h3v12h-3zM528 749h12v3h-12zM557 744h3v12h-3zM552 749h12v3h-12zM545 756h3v12h-3zM540 761h12v3h-12zM569 756h3v12h-3zM564 761h12v3h-12zM780 48h12v12h-12zM768 60h12v12h-12zM792 60h12v12h-12zM780 72h12v12h-12zM804 72h12v12h-12zM792 84h12v12h-12zM252 48h12v12h-12zM276 48h12v12h-12zM264 60h12v12h-12zM264 72h12v12h-12zM252 84h12v12h-12zM276 84h12v12h-12zM579 435h6v6h-6zM591 435h6v6h-6zM615 435h6v6h-6zM579 447h6v6h-6zM603 447h6v6h-6zM591 459h6v6h-6zM579 471h6v6h-6zM624 528h12v12h-12zM636 528h12v12h-12zM660 528h12v12h-12zM624 540h12v12h-12zM648 540h12v12h-12zM636 552h12v12h-12zM624 564h12v12h-12zM687 627h6v6h-6zM711 627h6v6h-6zM699 639h6v6h-6zM699 651h6v6h-6zM687 663h6v6h-6zM711 663h6v6h-6zM576 528h12v12h-12zM612 528h12v12h-12zM588 540h12v12h-12zM600 540h12v12h-12zM576 552h12v12h-12zM612 552h12v12h-12zM879 147h6v6h-6zM867 159h6v6h-6zM903 171h6v6h-6zM891 183h6v6h-6zM624 624h12v12h-12zM660 624h12v12h-12zM636 636h12v12h-12zM648 636h12v12h-12zM624 648h12v12h-12zM660 648h12v12h-12zM675 915h6v6h-6zM711 915h6v6h-6zM675 951h6v6h-6zM711 951h6v6h-6zM867 531h6v6h-6zM903 531h6v6h-6zM879 543h6v6h-6zM891 543h6v6h-6zM879 555h6v6h-6zM867 567h6v6h-6zM903 567h6v6h-6zM348 480h12v12h-12zM360 480h12v12h-12zM360 492h12v12h-12zM348 516h12v12h-12zM852 240h12v12h-12zM852 252h12v12h-12zM816 264h12v12h-12zM816 276h12v12h-12zM912 240h12v12h-12zM948 240h12v12h-12zM924 252h12v12h-12zM936 252h12v12h-12zM912 276h12v12h-12zM948 276h12v12h-12zM257 672h3v12h-3zM252 677h12v3h-12zM281 672h3v12h-3zM276 677h12v3h-12zM245 684h3v12h-3zM240 689h12v3h-12zM281 696h3v12h-3zM276 701h12v3h-12zM245 708h3v12h-3zM240 713h12v3h-12zM269 708h3v12h-3zM264 713h12v3h-12zM149 720h3v12h-3zM144 725h12v3h-12zM173 720h3v12h-3zM168 725h12v3h-12zM185 732h3v12h-3zM180 737h12v3h-12zM149 744h3v12h-3zM144 749h12v3h-12zM161 756h3v12h-3zM156 761h12v3h-12zM185 756h3v12h-3zM180 761h12v3h-12zM144 816h12v12h-12zM168 816h12v12h-12zM180 828h12v12h-12zM144 840h12v12h-12zM156 852h12v12h-12zM180 852h12v12h-12zM96 144h12v12h-12zM96 156h12v12h-12zM132 168h12v12h-12zM132 180h12v12h-12zM197 816h3v12h-3zM192 821h12v3h-12zM221 816h3v12h-3zM216 821h12v3h-12zM233 828h3v12h-3zM228 833h12v3h-12zM197 840h3v12h-3zM192 845h12v3h-12zM209 852h3v12h-3zM204 857h12v3h-12zM233 852h3v12h-3zM228 857h12v3h-12zM744 480h12v12h-12zM756 480h12v12h-12zM744 492h12v12h-12zM756 492h12v12h-12zM720 504h12v12h-12zM732 504h12v12h-12zM720 516h12v12h-12zM732 516h12v12h-12zM51 147h6v6h-6zM51 159h6v6h-6zM87 171h6v6h-6zM87 183h6v6h-6zM437 576h3v12h-3zM432 581h12v3h-12zM473 576h3v12h-3zM468 581h12v3h-12zM449 588h3v12h-3zM444 593h12v3h-12zM461 588h3v12h-3zM456 593h12v3h-12zM437 600h3v12h-3zM432 605h12v3h-12zM473 600h3v12h-3zM468 605h12v3h-12zM305 624h3v12h-3zM300 629h12v3h-12zM293 636h3v12h-3zM288 641h12v3h-12zM305 636h3v12h-3zM300 641h12v3h-12zM317 648h3v12h-3zM312 653h12v3h-12zM329 648h3v12h-3zM324 653h12v3h-12zM317 660h3v12h-3zM312 665h12v3h-12zM396 432h12v12h-12zM408 432h12v12h-12zM408 444h12v12h-12zM396 468h12v12h-12zM257 96h3v12h-3zM252 101h12v3h-12zM281 96h3v12h-3zM276 101h12v3h-12zM269 108h3v12h-3zM264 113h12v3h-12zM269 120h3v12h-3zM264 125h12v3h-12zM257 132h3v12h-3zM252 137h12v3h-12zM281 132h3v12h-3zM276 137h12v3h-12zM533 336h3v12h-3zM528 341h12v3h-12zM557 336h3v12h-3zM552 341h12v3h-12zM557 348h3v12h-3zM552 353h12v3h-12zM569 348h3v12h-3zM564 353h12v3h-12zM533 360h3v12h-3zM528 365h12v3h-12zM545 360h3v12h-3zM540 365h12v3h-12zM545 372h3v12h-3zM540 377h12v3h-12zM569 372h3v12h-3zM564 377h12v3h-12zM353 672h3v12h-3zM348 677h12v3h-12zM377 672h3v12h-3zM372 677h12v3h-12zM353 708h3v12h-3zM348 713h12v3h-12zM377 708h3v12h-3zM372 713h12v3h-12zM927 99h6v6h-6zM915 111h6v6h-6zM951 123h6v6h-6zM939 135h6v6h-6zM485 720h3v12h-3zM480 725h12v3h-12zM509 720h3v12h-3zM504 725h12v3h-12zM497 732h3v12h-3zM492 737h12v3h-12zM521 732h3v12h-3zM516 737h12v3h-12zM485 744h3v12h-3zM480 749h12v3h-12zM509 744h3v12h-3zM504 749h12v3h-12zM497 756h3v12h-3zM492 761h12v3h-12zM521 756h3v12h-3zM516 761h12v3h-12zM677 528h3v12h-3zM672 533h12v3h-12zM713 528h3v12h-3zM708 533h12v3h-12zM689 540h3v12h-3zM684 545h12v3h-12zM701 540h3v12h-3zM696 545h12v3h-12zM689 552h3v12h-3zM684 557h12v3h-12zM701 552h3v12h-3zM696 557h12v3h-12zM677 564h3v12h-3zM672 569h12v3h-12zM713 564h3v12h-3zM708 569h12v3h-12z"/><path fill="#000" d="M96 384h96v96h-96zM96 288h96v96h-96zM96 192h96v96h-96zM192 288h96v96h-96zM288 384h96v96h-96zM288 288h96v96h-96zM288 192h96v96h-96zM288 96h96v96h-96zM384 0h96v96h-96zM192 0h96v96h-96zM96 0h96v96h-96zM0 0h96v96h-96zM288 0h96v96h-96zM96 480h96v96h-96zM96 576h96v96h-96zM96 672h96v96h-96zM192 576h96v96h-96zM288 480h96v96h-96zM288 576h96v96h-96zM288 672h96v96h-96zM288 768h96v96h-96zM384 864h96v96h-96zM192 864h96v96h-96zM96 864h96v96h-96zM0 864h96v96h-96zM288 864h96v96h-96zM768 384h96v96h-96zM768 288h96v96h-96zM768 192h96v96h-96zM672 288h96v96h-96zM576 384h96v96h-96zM576 288h96v96h-96zM576 192h96v96h-96zM576 96h96v96h-96zM480 0h96v96h-96zM672 0h96v96h-96zM768 0h96v96h-96zM864 0h96v96h-96zM576 0h96v96h-96zM768 480h96v96h-96zM768 576h96v96h-96zM768 672h96v96h-96zM672 576h96v96h-96zM576 480h96v96h-96zM576 576h96v96h-96zM576 672h96v96h-96zM576 768h96v96h-96zM480 864h96v96h-96zM672 864h96v96h-96zM768 864h96v96h-96zM864 864h96v96h-96zM576 864h96v96h-96z"/></svg>