<svg xmlns="http://www.w3.org/2000/svg" width="960" height="960" viewBox="0 0 960 960" shape-rendering="crispEdges"><path fill="#000" d="M0 0h960v960h-960z"/><path fill="#f78bf9" d="M0 0h12v12h-12zM0 36h12v12h-12zM0 72h12v12h-12zM0 108h12v12h-12zM0 144h12v12h-12zM0 180h12v12h-12zM0 216h12v12h-12zM0 252h12v12h-12zM0 288h12v12h-12zM0 324h12v12h-12zM0 360h12v12h-12zM0 396h12v12h-12zM0 432h12v12h-12zM0 468h12v12h-12zM0 504h12v12h-12zM0 540h12v12h-12zM0 576h12v12h-12zM0 612h12v12h-12zM0 648h12v12h-12zM0 684h12v12h-12zM0 720h12v12h-12zM0 756h12v12h-12zM0 792h12v12h-12zM0 828h12v12h-12zM0 864h12v12h-12zM0 900h12v12h-12zM0 936h12v12h-12zM12 24h12v12h-12zM12 60h12v12h-12zM12 96h12v12h-12zM12 132h12v12h-12zM12 168h12v12h-12zM12 204h12v12h-12zM12 240h12v12h-12zM12 276h12v12h-12zM12 312h12v12h-12zM12 348h12v12h-12zM12 384h12v12h-12zM12 420h12v12h-12zM12 456h12v12h-12zM12 492h12v12h-12zM12 528h12v12h-12zM12 564h12v12h-12zM12 600h12v12h-12zM12 636h12v12h-12zM12 672h12v12h-12zM12 708h12v12h-12zM12 744h12v12h-12zM12 780h12v12h-12zM12 816h12v12h-12zM12 852h12v12h-12zM12 888h12v12h-12zM12 924h12v12h-12zM24 12h12v12h-12zM24 48h12v12h-12zM24 84h12v12h-12zM24 120h12v12h-12zM24 156h12v12h-12zM24 192h12v12h-12zM24 228h12v12h-12zM24 264h12v12h-12zM24 300h12v12h-12zM24 336h12v12h-12zM24 372h12v12h-12zM24 408h12v12h-12zM24 444h12v12h-12zM24 480h12v12h-12zM24 516h12v12h-12zM24 552h12v12h-12zM24 588h12v12h-12zM24 624h12v12h-12zM24 660h12v12h-12zM24 696h12v12h-12zM24 732h12v12h-12zM24 768h12v12h-12zM24 804h12v12h-12zM24 840h12v12h-12zM24 876h12v12h-12zM24 912h12v12h-12zM24 948h12v12h-12zM36 0h12v12h-12zM36 36h12v12h-12zM36 72h12v12h-12zM36 108h12v12h-12zM36 144h12v12h-12zM36 180h12v12h-12zM36 216h12v12h-12zM36 252h12v12h-12zM36 288h12v12h-12zM36 324h12v12h-12zM36 360h12v12h-12zM36 396h12v12h-12zM36 432h12v12h-12zM36 468h12v12h-12zM36 504h12v12h-12zM36 540h12v12h-12zM36 576h12v12h-12zM36 612h12v12h-12zM36 648h12v12h-12zM36 684h12v12h-12zM36 720h12v12h-12zM36 756h12v12h-12zM36 792h12v12h-12zM36 828h12v12h-12zM36 864h12v12h-12zM36 900h12v12h-12zM36 936h12v12h-12zM48 24h12v12h-12zM48 60h12v12h-12zM48 96h12v12h-12zM48 132h12v12h-12zM48 168h12v12h-12zM48 204h12v12h-12zM48 240h12v12h-12zM48 276h12v12h-12zM48 312h12v12h-12zM48 348h12v12h-12zM48 384h12v12h-12zM48 420h12v12h-12zM48 456h12v12h-12zM48 492h12v12h-12zM48 528h12v12h-12zM48 564h12v12h-12zM48 600h12v12h-12zM48 636h12v12h-12zM48 672h12v12h-12zM48 708h12v12h-12zM48 744h12v12h-12zM48 780h12v12h-12zM48 816h12v12h-12zM48 852h12v12h-12zM48 888h12v12h-12zM48 924h12v12h-12zM60 12h12v12h-12zM60 48h12v12h-12zM60 84h12v12h-12zM60 120h12v12h-12zM60 156h12v12h-12zM60 192h12v12h-12zM60 228h12v12h-12zM60 264h12v12h-12zM60 300h12v12h-12zM60 336h12v12h-12zM60 372h12v12h-12zM60 408h12v12h-12zM60 444h12v12h-12zM60 480h12v12h-12zM60 516h12v12h-12zM60 552h12v12h-12zM60 588h12v12h-12zM60 624h12v12h-12zM60 660h12v12h-12zM60 696h12v12h-12zM60 732h12v12h-12zM60 768h12v12h-12zM60 804h12v12h-12zM60 840h12v12h-12zM60 876h12v12h-12zM60 912h12v12h-12zM60 948h12v12h-12zM72 0h12v12h-12zM72 36h12v12h-12zM72 72h12v12h-12zM72 108h12v12h-12zM72 144h12v12h-12zM72 180h12v12h-12zM72 216h12v12h-12zM72 252h12v12h-12zM72 288h12v12h-12zM72 324h12v12h-12zM72 360h12v12h-12zM72 396h12v12h-12zM72 432h12v12h-12zM72 468h12v12h-12zM72 504h12v12h-12zM72 540h12v12h-12zM72 576h12v12h-12zM72 612h12v12h-12zM72 648h12v12h-12zM72 684h12v12h-12zM72 720h12v12h-12zM72 756h12v12h-12zM72 792h12v12h-12zM72 828h12v12h-12zM72 864h12v12h-12zM72 900h12v12h-12zM72 936h12v12h-12zM84 24h12v12h-12zM84 60h12v12h-12zM84 96h12v12h-12zM84 132h12v12h-12zM84 168h12v12h-12zM84 204h12v12h-12zM84 240h12v12h-12zM84 276h12v12h-12zM84 312h12v12h-12zM84 348h12v12h-12zM84 384h12v12h-12zM84 420h12v12h-12zM84 456h12v12h-12zM84 492h12v12h-12zM84 528h12v12h-12zM84 564h12v12h-12zM84 600h12v12h-12zM84 636h12v12h-12zM84 672h12v12h-12zM84 708h12v12h-12zM84 744h12v12h-12zM84 780h12v12h-12zM84 816h12v12h-12zM84 852h12v12h-12zM84 888h12v12h-12zM84 924h12v12h-12zM96 12h12v12h-12zM96 48h12v12h-12zM96 84h12v12h-12zM96 120h12v12h-12zM96 156h12v12h-12zM96 192h12v12h-12zM96 228h12v12h-12zM96 264h12v12h-12zM96 300h12v12h-12zM96 336h12v12h-12zM96 372h12v12h-12zM96 408h12v12h-12zM96 444h12v12h-12zM96 480h12v12h-12zM96 516h12v12h-12zM96 552h12v12h-12zM96 588h12v12h-12zM96 624h12v12h-12zM96 660h12v12h-12zM96 696h12v12h-12zM96 732h12v12h-12zM96 768h12v12h-12zM96 804h12v12h-12zM96 840h12v12h-12zM96 876h12v12h-12zM96 912h12v12h-12zM96 948h12v12h-12zM108 0h12v12h-12zM108 36h12v12h-12zM108 72h12v12h-12zM108 108h12v12h-12zM108 144h12v12h-12zM108 180h12v12h-12zM108 216h12v12h-12zM108 252h12v12h-12zM108 288h12v12h-12zM108 324h12v12h-12zM108 360h12v12h-12zM108 396h12v12h-12zM108 432h12v12h-12zM108 468h12v12h-12zM108 504h12v12h-12zM108 540h12v12h-12zM108 576h12v12h-12zM108 612h12v12h-12zM108 648h12v12h-12zM108 684h12v12h-12zM108 720h12v12h-12zM108 756h12v12h-12zM108 792h12v12h-12zM108 828h12v12h-12zM108 864h12v12h-12zM108 900h12v12h-12zM108 936h12v12h-12zM120 24h12v12h-12zM120 60h12v12h-12zM120 96h12v12h-12zM120 132h12v12h-12zM120 168h12v12h-12zM120 204h12v12h-12zM120 240h12v12h-12zM120 276h12v12h-12zM120 312h12v12h-12zM120 348h12v12h-12zM120 384h12v12h-12zM120 420h12v12h-12zM120 456h12v12h-12zM120 492h12v12h-12zM120 528h12v12h-12zM120 564h12v12h-12zM120 600h12v12h-12zM120 636h12v12h-12zM120 672h12v12h-12zM120 708h12v12h-12zM120 744h12v12h-12zM120 780h12v12h-12zM120 816h12v12h-12zM120 852h12v12h-12zM120 888h12v12h-12zM120 924h12v12h-12zM132 12h12v12h-12zM132 48h12v12h-12zM132 84h12v12h-12zM132 120h12v12h-12zM132 156h12v12h-12zM132 192h12v12h-12zM132 228h12v12h-12zM132 264h12v12h-12zM132 300h12v12h-12zM132 336h12v12h-12zM132 372h12v12h-12zM132 408h12v12h-12zM132 444h12v12h-12zM132 480h12v12h-12zM132 516h12v12h-12zM132 552h12v12h-12zM132 588h12v12h-12zM132 624h12v12h-12zM132 660h12v12h-12zM132 696h12v12h-12zM132 732h12v12h-12zM132 768h12v12h-12zM132 804h12v12h-12zM132 840h12v12h-12zM132 876h12v12h-12zM132 912h12v12h-12zM132 948h12v12h-12zM144 0h12v12h-12zM144 36h12v12h-12zM144 72h12v12h-12zM144 108h12v12h-12zM144 144h12v12h-12zM144 180h12v12h-12zM144 216h12v12h-12zM144 252h12v12h-12zM144 288h12v12h-12zM144 324h12v12h-12zM144 360h12v12h-12zM144 396h12v12h-12zM144 432h12v12h-12zM144 468h12v12h-12zM144 504h12v12h-12zM144 540h12v12h-12zM144 576h12v12h-12zM144 612h12v12h-12zM144 648h12v12h-12zM144 684h12v12h-12zM144 720h12v12h-12zM144 756h12v12h-12zM144 792h12v12h-12zM144 828h12v12h-12zM144 864h12v12h-12zM144 900h12v12h-12zM144 936h12v12h-12zM156 24h12v12h-12zM156 60h12v12h-12zM156 96h12v12h-12zM156 132h12v12h-12zM156 168h12v12h-12zM156 204h12v12h-12zM156 240h12v12h-12zM156 276h12v12h-12zM156 312h12v12h-12zM156 348h12v12h-12zM156 384h12v12h-12zM156 420h12v12h-12zM156 456h12v12h-12zM156 492h12v12h-12zM156 528h12v12h-12zM156 564h12v12h-12zM156 600h12v12h-12zM156 636h12v12h-12zM156 672h12v12h-12zM156 708h12v12h-12zM156 744h12v12h-12zM156 780h12v12h-12zM156 816h12v12h-12zM156 852h12v12h-12zM156 888h12v12h-12zM156 924h12v12h-12zM168 12h12v12h-12zM168 48h12v12h-12zM168 84h12v12h-12zM168 120h12v12h-12zM168 156h12v12h-12zM168 192h12v12h-12zM168 228h12v12h-12zM168 264h12v12h-12zM168 300h12v12h-12zM168 336h12v12h-12zM168 372h12v12h-12zM168 408h12v12h-12zM168 444h12v12h-12zM168 480h12v12h-12zM168 516h12v12h-12zM168 552h12v12h-12zM168 588h12v12h-12zM168 624h12v12h-12zM168 660h12v12h-12zM168 696h12v12h-12zM168 732h12v12h-12zM168 768h12v12h-12zM168 804h12v12h-12zM168 840h12v12h-12zM168 876h12v12h-12zM168 912h12v12h-12zM168 948h12v12h-12zM180 0h12v12h-12zM180 36h12v12h-12zM180 72h12v12h-12zM180 108h12v12h-12zM180 144h12v12h-12zM180 180h12v12h-12zM180 216h12v12h-12zM180 252h12v12h-12zM180 288h12v12h-12zM180 324h12v12h-12zM180 360h12v12h-12zM180 396h12v12h-12zM180 432h12v12h-12zM180 468h12v12h-12zM180 504h12v12h-12zM180 540h12v12h-12zM180 576h12v12h-12zM180 612h12v12h-12zM180 648h12v12h-12zM180 684h12v12h-12zM180 720h12v12h-12zM180 756h12v12h-12zM180 792h12v12h-12zM180 828h12v12h-12zM180 864h12v12h-12zM180 900h12v12h-12zM180 936h12v12h-12zM192 24h12v12h-12zM192 60h12v12h-12zM192 96h12v12h-12zM192 132h12v12h-12zM192 168h12v12h-12zM192 204h12v12h-12zM192 240h12v12h-12zM192 276h12v12h-12zM192 312h12v12h-12zM192 348h12v12h-12zM192 384h12v12h-12zM192 420h12v12h-12zM192 456h12v12h-12zM192 492h12v12h-12zM192 528h12v12h-12zM192 564h12v12h-12zM192 600h12v12h-12zM192 636h12v12h-12zM192 672h12v12h-12zM192 708h12v12h-12zM192 744h12v12h-12zM192 780h12v12h-12zM192 816h12v12h-12zM192 852h12v12h-12zM192 888h12v12h-12zM192 924h12v12h-12zM204 12h12v12h-12zM204 48h12v12h-12zM204 84h12v12h-12zM204 120h12v12h-12zM204 156h12v12h-12zM204 192h12v12h-12zM204 228h12v12h-12zM204 264h12v12h-12zM204 300h12v12h-12zM204 336h12v12h-12zM204 372h12v12h-12zM204 408h12v12h-12zM204 444h12v12h-12zM204 480h12v12h-12zM204 516h12v12h-12zM204 552h12v12h-12zM204 588h12v12h-12zM204 624h12v12h-12zM204 660h12v12h-12zM204 696h12v12h-12zM204 732h12v12h-12zM204 768h12v12h-12zM204 804h12v12h-12zM204 840h12v12h-12zM204 876h12v12h-12zM204 912h12v12h-12zM204 948h12v12h-12zM216 0h12v12h-12zM216 36h12v12h-12zM216 72h12v12h-12zM216 108h12v12h-12zM216 144h12v12h-12zM216 180h12v12h-12zM216 216h12v12h-12zM216 252h12v12h-12zM216 288h12v12h-12zM216 324h12v12h-12zM216 360h12v12h-12zM216 396h12v12h-12zM216 432h12v12h-12zM216 468h12v12h-12zM216 504h12v12h-12zM216 540h12v12h-12zM216 576h12v12h-12zM216 612h12v12h-12zM216 648h12v12h-12zM216 684h12v12h-12zM216 720h12v12h-12zM216 756h12v12h-12zM216 792h12v12h-12zM216 828h12v12h-12zM216 864h12v12h-12zM216 900h12v12h-12zM216 936h12v12h-12zM228 24h12v12h-12zM228 60h12v12h-12zM228 96h12v12h-12zM228 132h12v12h-12zM228 168h12v12h-12zM228 204h12v12h-12zM228 240h12v12h-12zM228 276h12v12h-12zM228 312h12v12h-12zM228 348h12v12h-12zM228 384h12v12h-12zM228 420h12v12h-12zM228 456h12v12h-12zM228 492h12v12h-12zM228 528h12v12h-12zM228 564h12v12h-12zM228 600h12v12h-12zM228 636h12v12h-12zM228 672h12v12h-12zM228 708h12v12h-12zM228 744h12v12h-12zM228 780h12v12h-12zM228 816h12v12h-12zM228 852h12v12h-12zM228 888h12v12h-12zM228 924h12v12h-12zM240 12h12v12h-12zM240 48h12v12h-12zM240 84h12v12h-12zM240 120h12v12h-12zM240 156h12v12h-12zM240 192h12v12h-12zM240 228h12v12h-12zM240 264h12v12h-12zM240 300h12v12h-12zM240 336h12v12h-12zM240 372h12v12h-12zM240 408h12v12h-12zM240 444h12v12h-12zM240 480h12v12h-12zM240 516h12v12h-12zM240 552h12v12h-12zM240 588h12v12h-12zM240 624h12v12h-12zM240 660h12v12h-12zM240 696h12v12h-12zM240 732h12v12h-12zM240 768h12v12h-12zM240 804h12v12h-12zM240 840h12v12h-12zM240 876h12v12h-12zM240 912h12v12h-12zM240 948h12v12h-12zM252 0h12v12h-12zM252 36h12v12h-12zM252 72h12v12h-12zM252 108h12v12h-12zM252 144h12v12h-12zM252 180h12v12h-12zM252 216h12v12h-12zM252 252h12v12h-12zM252 288h12v12h-12zM252 324h12v12h-12zM252 360h12v12h-12zM252 396h12v12h-12zM252 432h12v12h-12zM252 468h12v12h-12zM252 504h12v12h-12zM252 540h12v12h-12zM252 576h12v12h-12zM252 612h12v12h-12zM252 648h12v12h-12zM252 684h12v12h-12zM252 720h12v12h-12zM252 756h12v12h-12zM252 792h12v12h-12zM252 828h12v12h-12zM252 864h12v12h-12zM252 900h12v12h-12zM252 936h12v12h-12zM264 24h12v12h-12zM264 60h12v12h-12zM264 96h12v12h-12zM264 132h12v12h-12zM264 168h12v12h-12zM264 204h12v12h-12zM264 240h12v12h-12zM264 276h12v12h-12zM264 312h12v12h-12zM264 348h12v12h-12zM264 384h12v12h-12zM264 420h12v12h-12zM264 456h12v12h-12zM264 492h12v12h-12zM264 528h12v12h-12zM264 564h12v12h-12zM264 600h12v12h-12zM264 636h12v12h-12zM264 672h12v12h-12zM264 708h12v12h-12zM264 744h12v12h-12zM264 780h12v12h-12zM264 816h12v12h-12zM264 852h12v12h-12zM264 888h12v12h-12zM264 924h12v12h-12zM276 12h12v12h-12zM276 48h12v12h-12zM276 84h12v12h-12zM276 120h12v12h-12zM276 156h12v12h-12zM276 192h12v12h-12zM276 228h12v12h-12zM276 264h12v12h-12zM276 300h12v12h-12zM276 336h12v12h-12zM276 372h12v12h-12zM276 408h12v12h-12zM276 444h12v12h-12zM276 480h12v12h-12zM276 516h12v12h-12zM276 552h12v12h-12zM276 588h12v12h-12zM276 624h12v12h-12zM276 660h12v12h-12zM276 696h12v12h-12zM276 732h12v12h-12zM276 768h12v12h-12zM276 804h12v12h-12zM276 840h12v12h-12zM276 876h12v12h-12zM276 912h12v12h-12zM276 948h12v12h-12zM288 0h12v12h-12zM288 36h12v12h-12zM288 72h12v12h-12zM288 108h12v12h-12zM288 144h12v12h-12zM288 180h12v12h-12zM288 216h12v12h-12zM288 252h12v12h-12zM288 288h12v12h-12zM288 324h12v12h-12zM288 360h12v12h-12zM288 396h12v12h-12zM288 432h12v12h-12zM288 468h12v12h-12zM288 504h12v12h-12zM288 540h12v12h-12zM288 576h12v12h-12zM288 612h12v12h-12zM288 648h12v12h-12zM288 684h12v12h-12zM288 720h12v12h-12zM288 756h12v12h-12zM288 792h12v12h-12zM288 828h12v12h-12zM288 864h12v12h-12zM288 900h12v12h-12zM288 936h12v12h-12zM300 24h12v12h-12zM300 60h12v12h-12zM300 96h12v12h-12zM300 132h12v12h-12zM300 168h12v12h-12zM300 204h12v12h-12zM300 240h12v12h-12zM300 276h12v12h-12zM300 312h12v12h-12zM300 348h12v12h-12zM300 384h12v12h-12zM300 420h12v12h-12zM300 456h12v12h-12zM300 492h12v12h-12zM300 528h12v12h-12zM300 564h12v12h-12zM300 600h12v12h-12zM300 636h12v12h-12zM300 672h12v12h-12zM300 708h12v12h-12zM300 744h12v12h-12zM300 780h12v12h-12zM300 816h12v12h-12zM300 852h12v12h-12zM300 888h12v12h-12zM300 924h12v12h-12zM312 12h12v12h-12zM312 48h12v12h-12zM312 84h12v12h-12zM312 120h12v12h-12zM312 156h12v12h-12zM312 192h12v12h-12zM312 228h12v12h-12zM312 264h12v12h-12zM312 300h12v12h-12zM312 336h12v12h-12zM312 372h12v12h-12zM312 408h12v12h-12zM312 444h12v12h-12zM312 480h12v12h-12zM312 516h12v12h-12zM312 552h12v12h-12zM312 588h12v12h-12zM312 624h12v12h-12zM312 660h12v12h-12zM312 696h12v12h-12zM312 732h12v12h-12zM312 768h12v12h-12zM312 804h12v12h-12zM312 840h12v12h-12zM312 876h12v12h-12zM312 912h12v12h-12zM312 948h12v12h-12zM324 0h12v12h-12zM324 36h12v12h-12zM324 72h12v12h-12zM324 108h12v12h-12zM324 144h12v12h-12zM324 180h12v12h-12zM324 216h12v12h-12zM324 252h12v12h-12zM324 288h12v12h-12zM324 324h12v12h-12zM324 360h12v12h-12zM324 396h12v12h-12zM324 432h12v12h-12zM324 468h12v12h-12zM324 504h12v12h-12zM324 540h12v12h-12zM324 576h12v12h-12zM324 612h12v12h-12zM324 648h12v12h-12zM324 684h12v12h-12zM324 720h12v12h-12zM324 756h12v12h-12zM324 792h12v12h-12zM324 828h12v12h-12zM324 864h12v12h-12zM324 900h12v12h-12zM324 936h12v12h-12zM336 24h12v12h-12zM336 60h12v12h-12zM336 96h12v12h-12zM336 132h12v12h-12zM336 168h12v12h-12zM336 204h12v12h-12zM336 240h12v12h-12zM336 276h12v12h-12zM336 312h12v12h-12zM336 348h12v12h-12zM336 384h12v12h-12zM336 420h12v12h-12zM336 456h12v12h-12zM336 492h12v12h-12zM336 528h12v12h-12zM336 564h12v12h-12zM336 600h12v12h-12zM336 636h12v12h-12zM336 672h12v12h-12zM336 708h12v12h-12zM336 744h12v12h-12zM336 780h12v12h-12zM336 816h12v12h-12zM336 852h12v12h-12zM336 888h12v12h-12zM336 924h12v12h-12zM348 12h12v12h-12zM348 48h12v12h-12zM348 84h12v12h-12zM348 120h12v12h-12zM348 156h12v12h-12zM348 192h12v12h-12zM348 228h12v12h-12zM348 264h12v12h-12zM348 300h12v12h-12zM348 336h12v12h-12zM348 372h12v12h-12zM348 408h12v12h-12zM348 444h12v12h-12zM348 480h12v12h-12zM348 516h12v12h-12zM348 552h12v12h-12zM348 588h12v12h-12zM348 624h12v12h-12zM348 660h12v12h-12zM348 696h12v12h-12zM348 732h12v12h-12zM348 768h12v12h-12zM348 804h12v12h-12zM348 840h12v12h-12zM348 876h12v12h-12zM348 912h12v12h-12zM348 948h12v12h-12zM360 0h12v12h-12zM360 36h12v12h-12zM360 72h12v12h-12zM360 108h12v12h-12zM360 144h12v12h-12zM360 180h12v12h-12zM360 216h12v12h-12zM360 252h12v12h-12zM360 288h12v12h-12zM360 324h12v12h-12zM360 360h12v12h-12zM360 396h12v12h-12zM360 432h12v12h-12zM360 468h12v12h-12zM360 504h12v12h-12zM360 540h12v12h-12zM360 576h12v12h-12zM360 612h12v12h-12zM360 648h12v12h-12zM360 684h12v12h-12zM360 720h12v12h-12zM360 756h12v12h-12zM360 792h12v12h-12zM360 828h12v12h-12zM360 864h12v12h-12zM360 900h12v12h-12zM360 936h12v12h-12zM372 24h12v12h-12zM372 60h12v12h-12zM372 96h12v12h-12zM372 132h12v12h-12zM372 168h12v12h-12zM372 204h12v12h-12zM372 240h12v12h-12zM372 276h12v12h-12zM372 312h12v12h-12zM372 348h12v12h-12zM372 384h12v12h-12zM372 420h12v12h-12zM372 456h12v12h-12zM372 492h12v12h-12zM372 528h12v12h-12zM372 564h12v12h-12zM372 600h12v12h-12zM372 636h12v12h-12zM372 672h12v12h-12zM372 708h12v12h-12zM372 744h12v12h-12zM372 780h12v12h-12zM372 816h12v12h-12zM372 852h12v12h-12zM372 888h12v12h-12zM372 924h12v12h-12zM384 12h12v12h-12zM384 48h12v12h-12zM384 84h12v12h-12zM384 120h12v12h-12zM384 156h12v12h-12zM384 192h12v12h-12zM384 228h12v12h-12zM384 264h12v12h-12zM384 300h12v12h-12zM384 336h12v12h-12zM384 372h12v12h-12zM384 408h12v12h-12zM384 444h12v12h-12zM384 480h12v12h-12zM384 516h12v12h-12zM384 552h12v12h-12zM384 588h12v12h-12zM384 624h12v12h-12zM384 660h12v12h-12zM384 696h12v12h-12zM384 732h12v12h-12zM384 768h12v12h-12zM384 804h12v12h-12zM384 840h12v12h-12zM384 876h12v12h-12zM384 912h12v12h-12zM384 948h12v12h-12zM396 0h12v12h-12zM396 36h12v12h-12zM396 72h12v12h-12zM396 108h12v12h-12zM396 144h12v12h-12zM396 180h12v12h-12zM396 216h12v12h-12zM396 252h12v12h-12zM396 288h12v12h-12zM396 324h12v12h-12zM396 360h12v12h-12zM396 396h12v12h-12zM396 432h12v12h-12zM396 468h12v12h-12zM396 504h12v12h-12zM396 540h12v12h-12zM396 576h12v12h-12zM396 612h12v12h-12zM396 648h12v12h-12zM396 684h12v12h-12zM396 720h12v12h-12zM396 756h12v12h-12zM396 792h12v12h-12zM396 828h12v12h-12zM396 864h12v12h-12zM396 900h12v12h-12zM396 936h12v12h-12zM408 24h12v12h-12zM408 60h12v12h-12zM408 96h12v12h-12zM408 132h12v12h-12zM408 168h12v12h-12zM408 204h12v12h-12zM408 240h12v12h-12zM408 276h12v12h-12zM408 312h12v12h-12zM408 348h12v12h-12zM408 384h12v12h-12zM408 420h12v12h-12zM408 456h12v12h-12zM408 492h12v12h-12zM408 528h12v12h-12zM408 564h12v12h-12zM408 600h12v12h-12zM408 636h12v12h-12zM408 672h12v12h-12zM408 708h12v12h-12zM408 744h12v12h-12zM408 780h12v12h-12zM408 816h12v12h-12zM408 852h12v12h-12zM408 888h12v12h-12zM408 924h12v12h-12zM420 12h12v12h-12zM420 48h12v12h-12zM420 84h12v12h-12zM420 120h12v12h-12zM420 156h12v12h-12zM420 192h12v12h-12zM420 228h12v12h-12zM420 264h12v12h-12zM420 300h12v12h-12zM420 336h12v12h-12zM420 372h12v12h-12zM420 408h12v12h-12zM420 444h12v12h-12zM420 480h12v12h-12zM420 516h12v12h-12zM420 552h12v12h-12zM420 588h12v12h-12zM420 624h12v12h-12zM420 660h12v12h-12zM420 696h12v12h-12zM420 732h12v12h-12zM420 768h12v12h-12zM420 804h12v12h-12zM420 840h12v12h-12zM420 876h12v12h-12zM420 912h12v12h-12zM420 948h12v12h-12zM432 0h12v12h-12zM432 36h12v12h-12zM432 72h12v12h-12zM432 108h12v12h-12zM432 144h12v12h-12zM432 180h12v12h-12zM432 216h12v12h-12zM432 252h12v12h-12zM432 288h12v12h-12zM432 324h12v12h-12zM432 360h12v12h-12zM432 396h12v12h-12zM432 432h12v12h-12zM432 468h12v12h-12zM432 504h12v12h-12zM432 540h12v12h-12zM432 576h12v12h-12zM432 612h12v12h-12zM432 648h12v12h-12zM432 684h12v12h-12zM432 720h12v12h-12zM432 756h12v12h-12zM432 792h12v12h-12zM432 828h12v12h-12zM432 864h12v12h-12zM432 900h12v12h-12zM432 936h12v12h-12zM444 24h12v12h-12zM444 60h12v12h-12zM444 96h12v12h-12zM444 132h12v12h-12zM444 168h12v12h-12zM444 204h12v12h-12zM444 240h12v12h-12zM444 276h12v12h-12zM444 312h12v12h-12zM444 348h12v12h-12zM444 384h12v12h-12zM444 420h12v12h-12zM444 456h12v12h-12zM444 492h12v12h-12zM444 528h12v12h-12zM444 564h12v12h-12zM444 600h12v12h-12zM444 636h12v12h-12zM444 672h12v12h-12zM444 708h12v12h-12zM444 744h12v12h-12zM444 780h12v12h-12zM444 816h12v12h-12zM444 852h12v12h-12zM444 888h12v12h-12zM444 924h12v12h-12zM456 12h12v12h-12zM456 48h12v12h-12zM456 84h12v12h-12zM456 120h12v12h-12zM456 156h12v12h-12zM456 192h12v12h-12zM456 228h12v12h-12zM456 264h12v12h-12zM456 300h12v12h-12zM456 336h12v12h-12zM456 372h12v12h-12zM456 408h12v12h-12zM456 444h12v12h-12zM456 480h12v12h-12zM456 516h12v12h-12zM456 552h12v12h-12zM456 588h12v12h-12zM456 624h12v12h-12zM456 660h12v12h-12zM456 696h12v12h-12zM456 732h12v12h-12zM456 768h12v12h-12zM456 804h12v12h-12zM456 840h12v12h-12zM456 876h12v12h-12zM456 912h12v12h-12zM456 948h12v12h-12zM468 0h12v12h-12zM468 36h12v12h-12zM468 72h12v12h-12zM468 108h12v12h-12zM468 144h12v12h-12zM468 180h12v12h-12zM468 216h12v12h-12zM468 252h12v12h-12zM468 288h12v12h-12zM468 324h12v12h-12zM468 360h12v12h-12zM468 396h12v12h-12zM468 432h12v12h-12zM468 468h12v12h-12zM468 504h12v12h-12zM468 540h12v12h-12zM468 576h12v12h-12zM468 612h12v12h-12zM468 648h12v12h-12zM468 684h12v12h-12zM468 720h12v12h-12zM468 756h12v12h-12zM468 792h12v12h-12zM468 828h12v12h-12zM468 864h12v12h-12zM468 900h12v12h-12zM468 936h12v12h-12z"/><path fill="#256eb6" d="M9 0h6v24h-6zM0 9h24v6h-24zM33 0h6v24h-6zM24 9h24v6h-24zM57 72h6v24h-6zM48 81h24v6h-24zM81 72h6v24h-6zM72 81h24v6h-24zM225 0h6v24h-6zM216 9h24v6h-24zM273 0h6v24h-6zM264 9h24v6h-24zM249 24h6v24h-6zM240 33h24v6h-24zM249 48h6v24h-6zM240 57h24v6h-24zM225 72h6v24h-6zM216 81h24v6h-24zM273 72h6v24h-6zM264 81h24v6h-24zM393 0h6v24h-6zM384 9h24v6h-24zM465 0h6v24h-6zM456 9h24v6h-24zM417 24h6v24h-6zM408 33h24v6h-24zM417 48h6v24h-6zM408 57h24v6h-24zM441 48h6v24h-6zM432 57h24v6h-24zM393 72h6v24h-6zM384 81h24v6h-24zM465 72h6v24h-6zM456 81h24v6h-24zM585 0h6v24h-6zM576 9h24v6h-24zM657 0h6v24h-6zM648 9h24v6h-24zM609 24h6v24h-6zM600 33h24v6h-24zM633 48h6v24h-6zM624 57h24v6h-24zM585 72h6v24h-6zM576 81h24v6h-24zM657 72h6v24h-6zM648 81h24v6h-24zM801 0h6v24h-6zM792 9h24v6h-24zM849 0h6v24h-6zM840 9h24v6h-24zM825 24h6v24h-6zM816 33h24v6h-24zM825 48h6v24h-6zM816 57h24v6h-24zM801 72h6v24h-6zM792 81h24v6h-24zM849 72h6v24h-6zM840 81h24v6h-24zM33 216h6v24h-6zM24 225h24v6h-24zM57 216h6v24h-6zM48 225h24v6h-24zM33 240h6v24h-6zM24 249h24v6h-24zM57 240h6v24h-6zM48 249h24v6h-24zM201 192h6v24h-6zM192 201h24v6h-24zM273 192h6v24h-6zM264 201h24v6h-24zM201 240h6v24h-6zM192 249h24v6h-24zM273 240h6v24h-6zM264 249h24v6h-24zM441 192h6v24h-6zM432 201h24v6h-24zM393 216h6v24h-6zM384 225h24v6h-24zM417 216h6v24h-6zM408 225h24v6h-24zM465 216h6v24h-6zM456 225h24v6h-24zM393 240h6v24h-6zM384 249h24v6h-24zM441 240h6v24h-6zM432 249h24v6h-24zM465 240h6v24h-6zM456 249h24v6h-24zM417 264h6v24h-6zM408 273h24v6h-24zM585 216h6v24h-6zM576 225h24v6h-24zM657 216h6v24h-6zM648 225h24v6h-24zM585 240h6v24h-6zM576 249h24v6h-24zM609 240h6v24h-6zM600 249h24v6h-24zM813 228h6v24h-6zM804 237h24v6h-24zM9 384h6v24h-6zM0 393h24v6h-24zM81 384h6v24h-6zM72 393h24v6h-24zM33 432h6v24h-6zM24 441h24v6h-24zM57 432h6v24h-6zM48 441h24v6h-24zM9 456h6v24h-6zM0 465h24v6h-24zM81 456h6v24h-6zM72 465h24v6h-24zM225 408h6v24h-6zM216 417h24v6h-24zM249 408h6v24h-6zM240 417h24v6h-24zM225 432h6v24h-6zM216 441h24v6h-24zM249 432h6v24h-6zM240 441h24v6h-24zM417 384h6v24h-6zM408 393h24v6h-24zM465 384h6v24h-6zM456 393h24v6h-24zM393 408h6v24h-6zM384 417h24v6h-24zM465 432h6v24h-6zM456 441h24v6h-24zM393 456h6v24h-6zM384 465h24v6h-24zM441 456h6v24h-6zM432 465h24v6h-24zM609 384h6v24h-6zM600 393h24v6h-24zM657 384h6v24h-6zM648 393h24v6h-24zM633 408h6v24h-6zM624 417h24v6h-24zM633 432h6v24h-6zM624 441h24v6h-24zM609 456h6v24h-6zM600 465h24v6h-24zM657 456h6v24h-6zM648 465h24v6h-24zM777 384h6v24h-6zM768 393h24v6h-24zM825 384h6v24h-6zM816 393h24v6h-24zM849 408h6v24h-6zM840 417h24v6h-24zM777 432h6v24h-6zM768 441h24v6h-24zM801 456h6v24h-6zM792 465h24v6h-24zM849 456h6v24h-6zM840 465h24v6h-24zM81 576h6v24h-6zM72 585h24v6h-24zM57 600h6v24h-6zM48 609h24v6h-24zM33 624h6v24h-6zM24 633h24v6h-24zM81 624h6v24h-6zM72 633h24v6h-24zM9 648h6v24h-6zM0 657h24v6h-24zM57 648h6v24h-6zM48 657h24v6h-24zM81 648h6v24h-6zM72 657h24v6h-24zM201 576h6v24h-6zM192 585h24v6h-24zM225 600h6v24h-6zM216 609h24v6h-24zM249 624h6v24h-6zM240 633h24v6h-24zM273 648h6v24h-6zM264 657h24v6h-24zM393 576h6v24h-6zM384 585h24v6h-24zM465 576h6v24h-6zM456 585h24v6h-24zM417 600h6v24h-6zM408 609h24v6h-24zM417 624h6v24h-6zM408 633h24v6h-24zM441 624h6v24h-6zM432 633h24v6h-24zM393 648h6v24h-6zM384 657h24v6h-24zM465 648h6v24h-6zM456 657h24v6h-24zM609 576h6v24h-6zM600 585h24v6h-24zM585 600h6v24h-6zM576 609h24v6h-24zM633 600h6v24h-6zM624 609h24v6h-24zM609 624h6v24h-6zM600 633h24v6h-24zM657 624h6v24h-6zM648 633h24v6h-24zM633 648h6v24h-6zM624 657h24v6h-24zM777 576h6v24h-6zM768 585h24v6h-24zM825 576h6v24h-6zM816 585h24v6h-24zM849 576h6v24h-6zM840 585h24v6h-24zM801 600h6v24h-6zM792 609h24v6h-24zM849 600h6v24h-6zM840 609h24v6h-24zM825 624h6v24h-6zM816 633h24v6h-24zM849 648h6v24h-6zM840 657h24v6h-24zM33 768h6v24h-6zM24 777h24v6h-24zM9 792h6v24h-6zM0 801h24v6h-24zM81 816h6v24h-6zM72 825h24v6h-24zM57 840h6v24h-6zM48 849h24v6h-24zM225 768h6v24h-6zM216 777h24v6h-24zM201 792h6v24h-6zM192 801h24v6h-24zM249 792h6v24h-6zM240 801h24v6h-24zM225 816h6v24h-6zM216 825h24v6h-24zM273 816h6v24h-6zM264 825h24v6h-24zM249 840h6v24h-6zM240 849h24v6h-24zM465 912h6v24h-6zM456 921h24v6h-24zM417 768h6v24h-6zM408 777h24v6h-24zM441 768h6v24h-6zM432 777h24v6h-24zM417 792h6v24h-6zM408 801h24v6h-24zM465 792h6v24h-6zM456 801h24v6h-24zM393 816h6v24h-6zM384 825h24v6h-24zM441 816h6v24h-6zM432 825h24v6h-24zM417 840h6v24h-6zM408 849h24v6h-24zM441 840h6v24h-6zM432 849h24v6h-24zM585 768h6v24h-6zM576 777h24v6h-24zM657 768h6v24h-6zM648 777h24v6h-24zM609 792h6v24h-6zM600 801h24v6h-24zM633 792h6v24h-6zM624 801h24v6h-24zM585 816h6v24h-6zM576 825h24v6h-24zM657 816h6v24h-6zM648 825h24v6h-24zM777 768h6v24h-6zM768 777h24v6h-24zM825 768h6v24h-6zM816 777h24v6h-24zM849 792h6v24h-6zM840 801h24v6h-24zM777 816h6v24h-6zM768 825h24v6h-24zM801 840h6v24h-6zM792 849h24v6h-24zM849 840h6v24h-6zM840 849h24v6h-24zM873 768h6v24h-6zM864 777h24v6h-24zM921 768h6v24h-6zM912 777h24v6h-24zM945 792h6v24h-6zM936 801h24v6h-24zM873 816h6v24h-6zM864 825h24v6h-24zM897 840h6v24h-6zM888 849h24v6h-24zM945 840h6v24h-6zM936 849h24v6h-24zM345 96h6v24h-6zM336 105h24v6h-24zM297 120h6v24h-6zM288 129h24v6h-24zM321 120h6v24h-6zM312 129h24v6h-24zM369 120h6v24h-6zM360 129h24v6h-24zM297 144h6v24h-6zM288 153h24v6h-24zM345 144h6v24h-6zM336 153h24v6h-24zM369 144h6v24h-6zM360 153h24v6h-24zM321 168h6v24h-6zM312 177h24v6h-24zM249 96h6v24h-6zM240 105h24v6h-24zM201 120h6v24h-6zM192 129h24v6h-24zM225 120h6v24h-6zM216 129h24v6h-24zM273 120h6v24h-6zM264 129h24v6h-24zM201 144h6v24h-6zM192 153h24v6h-24zM249 144h6v24h-6zM240 153h24v6h-24zM273 144h6v24h-6zM264 153h24v6h-24zM225 168h6v24h-6zM216 177h24v6h-24zM489 864h6v24h-6zM480 873h24v6h-24zM561 864h6v24h-6zM552 873h24v6h-24zM513 888h6v24h-6zM504 897h24v6h-24zM537 888h6v24h-6zM528 897h24v6h-24zM489 912h6v24h-6zM480 921h24v6h-24zM561 912h6v24h-6zM552 921h24v6h-24zM369 1008h6v24h-6zM360 1017h24v6h-24zM321 864h6v24h-6zM312 873h24v6h-24zM345 864h6v24h-6zM336 873h24v6h-24zM321 888h6v24h-6zM312 897h24v6h-24zM369 888h6v24h-6zM360 897h24v6h-24zM297 912h6v24h-6zM288 921h24v6h-24zM345 912h6v24h-6zM336 921h24v6h-24zM321 936h6v24h-6zM312 945h24v6h-24zM345 936h6v24h-6zM336 945h24v6h-24zM465 1008h6v24h-6zM456 1017h24v6h-24zM417 864h6v24h-6zM408 873h24v6h-24zM441 864h6v24h-6zM432 873h24v6h-24zM417 888h6v24h-6zM408 897h24v6h-24zM465 888h6v24h-6zM456 897h24v6h-24zM393 912h6v24h-6zM384 921h24v6h-24zM441 912h6v24h-6zM432 921h24v6h-24zM417 936h6v24h-6zM408 945h24v6h-24zM441 936h6v24h-6zM432 945h24v6h-24zM225 312h6v24h-6zM216 321h24v6h-24zM249 312h6v24h-6zM240 321h24v6h-24zM225 336h6v24h-6zM216 345h24v6h-24zM249 336h6v24h-6zM240 345h24v6h-24zM33 864h6v24h-6zM24 873h24v6h-24zM9 888h6v24h-6zM0 897h24v6h-24zM81 912h6v24h-6zM72 921h24v6h-24zM57 936h6v24h-6zM48 945h24v6h-24zM297 480h6v24h-6zM288 489h24v6h-24zM369 480h6v24h-6zM360 489h24v6h-24zM321 504h6v24h-6zM312 513h24v6h-24zM321 528h6v24h-6zM312 537h24v6h-24zM345 528h6v24h-6zM336 537h24v6h-24zM297 552h6v24h-6zM288 561h24v6h-24zM369 552h6v24h-6zM360 561h24v6h-24zM369 816h6v24h-6zM360 825h24v6h-24zM321 672h6v24h-6zM312 681h24v6h-24zM345 672h6v24h-6zM336 681h24v6h-24zM321 696h6v24h-6zM312 705h24v6h-24zM369 696h6v24h-6zM360 705h24v6h-24zM297 720h6v24h-6zM288 729h24v6h-24zM345 720h6v24h-6zM336 729h24v6h-24zM321 744h6v24h-6zM312 753h24v6h-24zM345 744h6v24h-6zM336 753h24v6h-24zM513 384h6v24h-6zM504 393h24v6h-24zM561 384h6v24h-6zM552 393h24v6h-24zM489 408h6v24h-6zM480 417h24v6h-24zM561 432h6v24h-6zM552 441h24v6h-24zM489 456h6v24h-6zM480 465h24v6h-24zM537 456h6v24h-6zM528 465h24v6h-24zM897 96h6v24h-6zM888 105h24v6h-24zM945 96h6v24h-6zM936 105h24v6h-24zM921 120h6v24h-6zM912 129h24v6h-24zM921 144h6v24h-6zM912 153h24v6h-24zM897 168h6v24h-6zM888 177h24v6h-24zM945 168h6v24h-6zM936 177h24v6h-24zM393 672h6v24h-6zM384 681h24v6h-24zM465 672h6v24h-6zM456 681h24v6h-24zM417 696h6v24h-6zM408 705h24v6h-24zM417 720h6v24h-6zM408 729h24v6h-24zM441 720h6v24h-6zM432 729h24v6h-24zM393 744h6v24h-6zM384 753h24v6h-24zM465 744h6v24h-6zM456 753h24v6h-24zM873 672h6v24h-6zM864 681h24v6h-24zM921 672h6v24h-6zM912 681h24v6h-24zM945 696h6v24h-6zM936 705h24v6h-24zM873 720h6v24h-6zM864 729h24v6h-24zM897 744h6v24h-6zM888 753h24v6h-24zM945 744h6v24h-6zM936 753h24v6h-24zM777 864h6v24h-6zM768 873h24v6h-24zM825 864h6v24h-6zM816 873h24v6h-24zM849 888h6v24h-6zM840 897h24v6h-24zM777 912h6v24h-6zM768 921h24v6h-24zM801 936h6v24h-6zM792 945h24v6h-24zM849 936h6v24h-6zM840 945h24v6h-24zM9 480h6v24h-6zM0 489h24v6h-24zM81 480h6v24h-6zM72 489h24v6h-24zM33 528h6v24h-6zM24 537h24v6h-24zM57 528h6v24h-6zM48 537h24v6h-24zM9 552h6v24h-6zM0 561h24v6h-24zM81 552h6v24h-6zM72 561h24v6h-24zM717 228h6v24h-6zM708 237h24v6h-24zM873 384h6v24h-6zM864 393h24v6h-24zM921 384h6v24h-6zM912 393h24v6h-24zM945 408h6v24h-6zM936 417h24v6h-24zM873 432h6v24h-6zM864 441h24v6h-24zM897 456h6v24h-6zM888 465h24v6h-24zM945 456h6v24h-6zM936 465h24v6h-24z"/><path fill="#fff" d="M396 468h12v12h-12zM384 456h12v12h-12zM372 444h12v12h-12zM360 432h12v12h-12zM348 420h12v12h-12zM336 408h12v12h-12zM324 396h12v12h-12zM324 384h12v12h-12zM324 372h12v12h-12zM324 360h12v12h-12zM324 348h12v12h-12zM324 336h12v12h-12zM324 324h12v12h-12zM324 312h12v12h-12zM324 300h12v12h-12zM324 288h12v12h-12zM324 276h12v12h-12zM324 264h12v12h-12zM324 252h12v12h-12zM324 240h12v12h-12zM324 228h12v12h-12zM324 216h12v12h-12zM324 204h12v12h-12zM324 192h12v12h-12zM324 180h12v12h-12zM324 168h12v12h-12zM324 156h12v12h-12zM324 144h12v12h-12zM336 144h12v12h-12zM348 144h12v12h-12zM348 156h12v12h-12zM348 168h12v12h-12zM348 180h12v12h-12zM348 192h12v12h-12zM348 204h12v12h-12zM348 216h12v12h-12zM348 228h12v12h-12zM348 240h12v12h-12zM348 252h12v12h-12zM348 264h12v12h-12zM348 276h12v12h-12zM348 288h12v12h-12zM348 300h12v12h-12zM348 312h12v12h-12zM348 324h12v12h-12zM348 336h12v12h-12zM348 348h12v12h-12zM348 360h12v12h-12zM348 372h12v12h-12zM348 384h12v12h-12zM348 396h12v12h-12zM348 408h12v12h-12zM348 432h12v12h-12zM348 444h12v12h-12zM348 456h12v12h-12zM348 468h12v12h-12zM348 480h12v12h-12zM348 492h12v12h-12zM348 504h12v12h-12zM360 504h12v12h-12zM372 504h12v12h-12zM360 492h12v12h-12zM336 468h12v12h-12zM324 456h12v12h-12zM312 444h12v12h-12zM300 432h12v12h-12zM288 420h12v12h-12zM276 408h12v12h-12zM264 396h12v12h-12zM252 384h12v12h-12zM240 372h12v12h-12zM228 360h12v12h-12zM216 348h12v12h-12zM204 336h12v12h-12zM192 324h12v12h-12zM180 312h12v12h-12zM168 300h12v12h-12zM156 288h12v12h-12zM144 276h12v12h-12zM132 264h12v12h-12zM120 276h12v12h-12zM108 288h12v12h-12zM96 300h12v12h-12zM84 312h12v12h-12zM72 324h12v12h-12zM60 336h12v12h-12zM48 348h12v12h-12zM48 360h12v12h-12zM48 372h12v12h-12zM48 384h12v12h-12zM48 396h12v12h-12zM48 408h12v12h-12zM48 420h12v12h-12zM48 432h12v12h-12zM48 336h12v12h-12zM48 324h12v12h-12zM48 312h12v12h-12zM48 300h12v12h-12zM48 288h12v12h-12zM48 276h12v12h-12zM48 264h12v12h-12zM48 252h12v12h-12zM48 240h12v12h-12zM48 228h12v12h-12zM48 216h12v12h-12zM48 204h12v12h-12zM48 192h12v12h-12zM48 180h12v12h-12zM48 168h12v12h-12zM48 156h12v12h-12zM48 144h12v12h-12zM48 132h12v12h-12zM48 120h12v12h-12zM48 108h12v12h-12zM48 96h12v12h-12zM60 96h12v12h-12zM72 96h12v12h-12zM84 96h12v12h-12zM96 96h12v12h-12zM108 96h12v12h-12zM120 96h12v12h-12zM132 96h12v12h-12zM144 96h12v12h-12zM156 96h12v12h-12zM168 96h12v12h-12zM180 96h12v12h-12zM192 96h12v12h-12zM204 96h12v12h-12zM216 96h12v12h-12zM228 96h12v12h-12zM240 96h12v12h-12zM228 84h12v12h-12zM216 72h12v12h-12zM204 60h12v12h-12zM252 108h12v12h-12zM264 120h12v12h-12zM276 132h12v12h-12zM288 144h12v12h-12zM300 156h12v12h-12zM312 168h12v12h-12zM336 192h12v12h-12zM360 216h12v12h-12zM372 228h12v12h-12zM384 240h12v12h-12zM396 252h12v12h-12zM408 264h12v12h-12zM408 276h12v12h-12zM408 288h12v12h-12zM408 300h12v12h-12zM408 312h12v12h-12zM408 324h12v12h-12zM408 336h12v12h-12zM408 348h12v12h-12zM408 360h12v12h-12zM408 372h12v12h-12zM408 384h12v12h-12zM408 396h12v12h-12zM408 408h12v12h-12zM408 420h12v12h-12zM408 432h12v12h-12zM408 444h12v12h-12zM408 456h12v12h-12zM408 468h12v12h-12zM408 480h12v12h-12zM408 492h12v12h-12zM408 504h12v12h-12zM408 516h12v12h-12zM408 528h12v12h-12zM408 540h12v12h-12zM408 552h12v12h-12zM408 564h12v12h-12zM396 564h12v12h-12zM384 564h12v12h-12zM372 564h12v12h-12zM360 564h12v12h-12zM348 564h12v12h-12zM336 564h12v12h-12zM324 564h12v12h-12zM312 564h12v12h-12zM300 564h12v12h-12zM288 564h12v12h-12zM276 564h12v12h-12zM264 564h12v12h-12zM252 564h12v12h-12zM240 564h12v12h-12zM228 564h12v12h-12zM216 564h12v12h-12zM204 564h12v12h-12zM192 564h12v12h-12zM180 564h12v12h-12zM168 564h12v12h-12zM156 564h12v12h-12zM144 564h12v12h-12zM132 564h12v12h-12zM120 564h12v12h-12zM108 564h12v12h-12zM96 564h12v12h-12zM84 564h12v12h-12zM72 564h12v12h-12zM60 564h12v12h-12zM72 552h12v12h-12zM84 540h12v12h-12zM96 528h12v12h-12zM108 516h12v12h-12zM120 504h12v12h-12zM132 492h12v12h-12zM144 480h12v12h-12zM156 468h12v12h-12zM168 456h12v12h-12zM180 444h12v12h-12zM192 432h12v12h-12zM204 420h12v12h-12zM216 408h12v12h-12zM228 396h12v12h-12zM240 384h12v12h-12zM252 372h12v12h-12zM264 360h12v12h-12zM276 348h12v12h-12zM288 336h12v12h-12zM300 324h12v12h-12zM312 312h12v12h-12zM336 288h12v12h-12zM360 276h12v12h-12zM372 276h12v12h-12zM384 276h12v12h-12zM396 276h12v12h-12zM420 276h12v12h-12zM420 264h12v12h-12zM420 252h12v12h-12zM420 240h12v12h-12zM420 228h12v12h-12zM420 216h12v12h-12zM420 204h12v12h-12zM420 192h12v12h-12zM420 180h12v12h-12zM420 168h12v12h-12zM420 156h12v12h-12zM420 144h12v12h-12zM420 132h12v12h-12zM420 120h12v12h-12zM408 120h12v12h-12zM396 120h12v12h-12zM384 120h12v12h-12zM372 120h12v12h-12zM360 120h12v12h-12zM348 120h12v12h-12zM336 120h12v12h-12zM324 120h12v12h-12zM312 120h12v12h-12zM300 120h12v12h-12zM288 120h12v12h-12zM276 120h12v12h-12zM276 144h12v12h-12zM276 156h12v12h-12zM276 168h12v12h-12zM276 180h12v12h-12zM276 192h12v12h-12zM276 204h12v12h-12zM276 216h12v12h-12zM276 228h12v12h-12zM276 240h12v12h-12zM276 252h12v12h-12zM276 264h12v12h-12zM276 276h12v12h-12zM276 288h12v12h-12zM276 300h12v12h-12zM276 312h12v12h-12zM276 324h12v12h-12zM276 336h12v12h-12zM276 360h12v12h-12zM276 372h12v12h-12zM276 384h12v12h-12zM252 408h12v12h-12zM240 420h12v12h-12zM228 432h12v12h-12zM216 444h12v12h-12zM204 456h12v12h-12zM192 468h12v12h-12zM180 480h12v12h-12zM168 492h12v12h-12zM156 504h12v12h-12zM144 516h12v12h-12zM132 528h12v12h-12zM120 540h12v12h-12zM108 552h12v12h-12zM84 576h12v12h-12zM72 588h12v12h-12zM60 600h12v12h-12zM48 612h12v12h-12zM60 612h12v12h-12zM72 612h12v12h-12zM84 612h12v12h-12zM96 612h12v12h-12zM108 612h12v12h-12zM120 612h12v12h-12zM132 612h12v12h-12zM144 612h12v12h-12zM156 612h12v12h-12zM168 612h12v12h-12zM180 612h12v12h-12zM192 612h12v12h-12zM204 612h12v12h-12zM216 612h12v12h-12zM228 612h12v12h-12zM240 612h12v12h-12zM252 612h12v12h-12zM264 612h12v12h-12zM276 612h12v12h-12zM288 612h12v12h-12zM300 612h12v12h-12zM312 612h12v12h-12zM312 600h12v12h-12zM312 588h12v12h-12zM312 576h12v12h-12zM312 552h12v12h-12zM312 540h12v12h-12zM312 528h12v12h-12zM312 516h12v12h-12zM312 504h12v12h-12zM312 492h12v12h-12zM312 480h12v12h-12zM312 468h12v12h-12zM312 456h12v12h-12zM312 432h12v12h-12zM312 420h12v12h-12zM312 408h12v12h-12zM312 396h12v12h-12zM312 384h12v12h-12zM312 372h12v12h-12zM312 360h12v12h-12zM312 348h12v12h-12zM312 336h12v12h-12zM300 348h12v12h-12zM288 360h12v12h-12zM264 384h12v12h-12zM252 396h12v12h-12zM240 408h12v12h-12zM228 420h12v12h-12zM216 432h12v12h-12zM204 444h12v12h-12zM192 456h12v12h-12zM180 468h12v12h-12zM168 480h12v12h-12zM156 492h12v12h-12zM144 504h12v12h-12zM132 516h12v12h-12zM120 528h12v12h-12zM108 540h12v12h-12zM96 552h12v12h-12zM72 576h12v12h-12zM60 588h12v12h-12zM48 600h12v12h-12zM48 624h12v12h-12zM48 636h12v12h-12zM48 648h12v12h-12zM324 612h12v12h-12zM324 600h12v12h-12zM324 588h12v12h-12zM324 576h12v12h-12zM324 552h12v12h-12zM324 540h12v12h-12zM324 528h12v12h-12zM324 516h12v12h-12zM324 504h12v12h-12zM324 492h12v12h-12zM324 480h12v12h-12zM324 468h12v12h-12zM324 444h12v12h-12zM324 432h12v12h-12zM324 420h12v12h-12zM324 408h12v12h-12zM300 300h12v12h-12zM288 288h12v12h-12zM264 264h12v12h-12zM264 276h12v12h-12zM264 288h12v12h-12zM264 300h12v12h-12zM264 312h12v12h-12zM264 324h12v12h-12zM264 336h12v12h-12zM264 348h12v12h-12zM264 372h12v12h-12zM252 360h12v12h-12zM240 348h12v12h-12zM228 336h12v12h-12zM216 324h12v12h-12zM204 312h12v12h-12zM192 300h12v12h-12zM180 288h12v12h-12zM168 276h12v12h-12zM156 264h12v12h-12zM144 252h12v12h-12zM132 240h12v12h-12zM132 252h12v12h-12zM132 276h12v12h-12zM132 288h12v12h-12zM144 288h12v12h-12zM168 288h12v12h-12zM192 288h12v12h-12zM204 288h12v12h-12zM216 288h12v12h-12zM120 228h12v12h-12zM108 216h12v12h-12zM96 204h12v12h-12zM84 192h12v12h-12zM72 180h12v12h-12zM60 168h12v12h-12zM36 144h12v12h-12zM24 132h12v12h-12zM12 132h12v12h-12zM12 144h12v12h-12zM12 156h12v12h-12zM12 168h12v12h-12zM12 180h12v12h-12zM12 120h12v12h-12zM12 108h12v12h-12zM12 96h12v12h-12zM12 84h12v12h-12zM12 72h12v12h-12zM12 60h12v12h-12zM24 60h12v12h-12zM36 60h12v12h-12zM48 60h12v12h-12zM60 60h12v12h-12zM72 60h12v12h-12zM84 60h12v12h-12zM96 60h12v12h-12zM108 60h12v12h-12zM120 60h12v12h-12zM132 60h12v12h-12zM144 60h12v12h-12zM156 60h12v12h-12zM168 60h12v12h-12zM180 60h12v12h-12zM192 60h12v12h-12zM216 60h12v12h-12zM228 60h12v12h-12zM240 60h12v12h-12zM252 60h12v12h-12zM264 60h12v12h-12zM276 60h12v12h-12zM288 60h12v12h-12zM300 60h12v12h-12zM312 60h12v12h-12zM324 60h12v12h-12zM336 60h12v12h-12zM348 60h12v12h-12zM360 60h12v12h-12zM372 60h12v12h-12zM384 60h12v12h-12zM396 60h12v12h-12zM408 60h12v12h-12zM420 60h12v12h-12zM432 60h12v12h-12zM264 72h12v12h-12zM264 84h12v12h-12zM264 96h12v12h-12zM264 108h12v12h-12zM264 132h12v12h-12zM264 144h12v12h-12zM264 156h12v12h-12zM264 168h12v12h-12zM264 180h12v12h-12zM264 192h12v12h-12zM264 204h12v12h-12zM264 216h12v12h-12zM264 228h12v12h-12zM264 240h12v12h-12zM264 252h12v12h-12zM264 408h12v12h-12zM264 420h12v12h-12zM252 168h12v12h-12zM240 168h12v12h-12zM228 168h12v12h-12zM216 168h12v12h-12zM204 168h12v12h-12zM192 168h12v12h-12zM180 168h12v12h-12zM168 168h12v12h-12zM156 168h12v12h-12zM144 168h12v12h-12zM132 168h12v12h-12zM120 168h12v12h-12zM108 168h12v12h-12zM96 168h12v12h-12zM84 168h12v12h-12zM72 168h12v12h-12zM36 168h12v12h-12zM24 168h12v12h-12zM0 168h12v12h-12zM24 192h12v12h-12zM36 204h12v12h-12zM60 228h12v12h-12zM72 240h12v12h-12zM84 252h12v12h-12zM96 264h12v12h-12zM108 276h12v12h-12zM96 276h12v12h-12zM84 276h12v12h-12zM72 276h12v12h-12zM60 276h12v12h-12zM36 276h12v12h-12zM24 276h12v12h-12zM12 276h12v12h-12zM24 288h12v12h-12zM36 300h12v12h-12zM60 324h12v12h-12zM72 336h12v12h-12zM84 348h12v12h-12zM96 360h12v12h-12zM108 372h12v12h-12zM120 384h12v12h-12zM132 396h12v12h-12zM144 408h12v12h-12zM156 420h12v12h-12zM168 432h12v12h-12zM552 468h12v12h-12zM564 456h12v12h-12zM576 444h12v12h-12zM588 432h12v12h-12zM600 420h12v12h-12zM612 408h12v12h-12zM624 396h12v12h-12zM624 384h12v12h-12zM624 372h12v12h-12zM624 360h12v12h-12zM624 348h12v12h-12zM624 336h12v12h-12zM624 324h12v12h-12zM624 312h12v12h-12zM624 300h12v12h-12zM624 288h12v12h-12zM624 276h12v12h-12zM624 264h12v12h-12zM624 252h12v12h-12zM624 240h12v12h-12zM624 228h12v12h-12zM624 216h12v12h-12zM624 204h12v12h-12zM624 192h12v12h-12zM624 180h12v12h-12zM624 168h12v12h-12zM624 156h12v12h-12zM624 144h12v12h-12zM612 144h12v12h-12zM600 144h12v12h-12zM600 156h12v12h-12zM600 168h12v12h-12zM600 180h12v12h-12zM600 192h12v12h-12zM600 204h12v12h-12zM600 216h12v12h-12zM600 228h12v12h-12zM600 240h12v12h-12zM600 252h12v12h-12zM600 264h12v12h-12zM600 276h12v12h-12zM600 288h12v12h-12zM600 300h12v12h-12zM600 312h12v12h-12zM600 324h12v12h-12zM600 336h12v12h-12zM600 348h12v12h-12zM600 360h12v12h-12zM600 372h12v12h-12zM600 384h12v12h-12zM600 396h12v12h-12zM600 408h12v12h-12zM600 432h12v12h-12zM600 444h12v12h-12zM600 456h12v12h-12zM600 468h12v12h-12zM600 480h12v12h-12zM600 492h12v12h-12zM600 504h12v12h-12zM588 504h12v12h-12zM576 504h12v12h-12zM588 492h12v12h-12zM612 468h12v12h-12zM624 456h12v12h-12zM636 444h12v12h-12zM648 432h12v12h-12zM660 420h12v12h-12zM672 408h12v12h-12zM684 396h12v12h-12zM696 384h12v12h-12zM708 372h12v12h-12zM720 360h12v12h-12zM732 348h12v12h-12zM744 336h12v12h-12zM756 324h12v12h-12zM768 312h12v12h-12zM780 300h12v12h-12zM792 288h12v12h-12zM804 276h12v12h-12zM816 264h12v12h-12zM828 276h12v12h-12zM840 288h12v12h-12zM852 300h12v12h-12zM864 312h12v12h-12zM876 324h12v12h-12zM888 336h12v12h-12zM900 348h12v12h-12zM900 360h12v12h-12zM900 372h12v12h-12zM900 384h12v12h-12zM900 396h12v12h-12zM900 408h12v12h-12zM900 420h12v12h-12zM900 432h12v12h-12zM900 336h12v12h-12zM900 324h12v12h-12zM900 312h12v12h-12zM900 300h12v12h-12zM900 288h12v12h-12zM900 276h12v12h-12zM900 264h12v12h-12zM900 252h12v12h-12zM900 240h12v12h-12zM900 228h12v12h-12zM900 216h12v12h-12zM900 204h12v12h-12zM900 192h12v12h-12zM900 180h12v12h-12zM900 168h12v12h-12zM900 156h12v12h-12zM900 144h12v12h-12zM900 132h12v12h-12zM900 120h12v12h-12zM900 108h12v12h-12zM900 96h12v12h-12zM888 96h12v12h-12zM876 96h12v12h-12zM864 96h12v12h-12zM852 96h12v12h-12zM840 96h12v12h-12zM828 96h12v12h-12zM816 96h12v12h-12zM804 96h12v12h-12zM792 96h12v12h-12zM780 96h12v12h-12zM768 96h12v12h-12zM756 96h12v12h-12zM744 96h12v12h-12zM732 96h12v12h-12zM720 96h12v12h-12zM708 96h12v12h-12zM720 84h12v12h-12zM732 72h12v12h-12zM744 60h12v12h-12zM696 108h12v12h-12zM684 120h12v12h-12zM672 132h12v12h-12zM660 144h12v12h-12zM648 156h12v12h-12zM636 168h12v12h-12zM612 192h12v12h-12zM588 216h12v12h-12zM576 228h12v12h-12zM564 240h12v12h-12zM552 252h12v12h-12zM540 264h12v12h-12zM540 276h12v12h-12zM540 288h12v12h-12zM540 300h12v12h-12zM540 312h12v12h-12zM540 324h12v12h-12zM540 336h12v12h-12zM540 348h12v12h-12zM540 360h12v12h-12zM540 372h12v12h-12zM540 384h12v12h-12zM540 396h12v12h-12zM540 408h12v12h-12zM540 420h12v12h-12zM540 432h12v12h-12zM540 444h12v12h-12zM540 456h12v12h-12zM540 468h12v12h-12zM540 480h12v12h-12zM540 492h12v12h-12zM540 504h12v12h-12zM540 516h12v12h-12zM540 528h12v12h-12zM540 540h12v12h-12zM540 552h12v12h-12zM540 564h12v12h-12zM552 564h12v12h-12zM564 564h12v12h-12zM576 564h12v12h-12zM588 564h12v12h-12zM600 564h12v12h-12zM612 564h12v12h-12zM624 564h12v12h-12zM636 564h12v12h-12zM648 564h12v12h-12zM660 564h12v12h-12zM672 564h12v12h-12zM684 564h12v12h-12zM696 564h12v12h-12zM708 564h12v12h-12zM720 564h12v12h-12zM732 564h12v12h-12zM744 564h12v12h-12zM756 564h12v12h-12zM768 564h12v12h-12zM780 564h12v12h-12zM792 564h12v12h-12zM804 564h12v12h-12zM816 564h12v12h-12zM828 564h12v12h-12zM840 564h12v12h-12zM852 564h12v12h-12zM864 564h12v12h-12zM876 564h12v12h-12zM888 564h12v12h-12zM876 552h12v12h-12zM864 540h12v12h-12zM852 528h12v12h-12zM840 516h12v12h-12zM828 504h12v12h-12zM816 492h12v12h-12zM804 480h12v12h-12zM792 468h12v12h-12zM780 456h12v12h-12zM768 444h12v12h-12zM756 432h12v12h-12zM744 420h12v12h-12zM732 408h12v12h-12zM720 396h12v12h-12zM708 384h12v12h-12zM696 372h12v12h-12zM684 360h12v12h-12zM672 348h12v12h-12zM660 336h12v12h-12zM648 324h12v12h-12zM636 312h12v12h-12zM612 288h12v12h-12zM588 276h12v12h-12zM576 276h12v12h-12zM564 276h12v12h-12zM552 276h12v12h-12zM528 276h12v12h-12zM528 264h12v12h-12zM528 252h12v12h-12zM528 240h12v12h-12zM528 228h12v12h-12zM528 216h12v12h-12zM528 204h12v12h-12zM528 192h12v12h-12zM528 180h12v12h-12zM528 168h12v12h-12zM528 156h12v12h-12zM528 144h12v12h-12zM528 132h12v12h-12zM528 120h12v12h-12zM540 120h12v12h-12zM552 120h12v12h-12zM564 120h12v12h-12zM576 120h12v12h-12zM588 120h12v12h-12zM600 120h12v12h-12zM612 120h12v12h-12zM624 120h12v12h-12zM636 120h12v12h-12zM648 120h12v12h-12zM660 120h12v12h-12zM672 120h12v12h-12zM672 144h12v12h-12zM672 156h12v12h-12zM672 168h12v12h-12zM672 180h12v12h-12zM672 192h12v12h-12zM672 204h12v12h-12zM672 216h12v12h-12zM672 228h12v12h-12zM672 240h12v12h-12zM672 252h12v12h-12zM672 264h12v12h-12zM672 276h12v12h-12zM672 288h12v12h-12zM672 300h12v12h-12zM672 312h12v12h-12zM672 324h12v12h-12zM672 336h12v12h-12zM672 360h12v12h-12zM672 372h12v12h-12zM672 384h12v12h-12zM696 408h12v12h-12zM708 420h12v12h-12zM720 432h12v12h-12zM732 444h12v12h-12zM744 456h12v12h-12zM756 468h12v12h-12zM768 480h12v12h-12zM780 492h12v12h-12zM792 504h12v12h-12zM804 516h12v12h-12zM816 528h12v12h-12zM828 540h12v12h-12zM840 552h12v12h-12zM864 576h12v12h-12zM876 588h12v12h-12zM888 600h12v12h-12zM900 612h12v12h-12zM888 612h12v12h-12zM876 612h12v12h-12zM864 612h12v12h-12zM852 612h12v12h-12zM840 612h12v12h-12zM828 612h12v12h-12zM816 612h12v12h-12zM804 612h12v12h-12zM792 612h12v12h-12zM780 612h12v12h-12zM768 612h12v12h-12zM756 612h12v12h-12zM744 612h12v12h-12zM732 612h12v12h-12zM720 612h12v12h-12zM708 612h12v12h-12zM696 612h12v12h-12zM684 612h12v12h-12zM672 612h12v12h-12zM660 612h12v12h-12zM648 612h12v12h-12zM636 612h12v12h-12zM636 600h12v12h-12zM636 588h12v12h-12zM636 576h12v12h-12zM636 552h12v12h-12zM636 540h12v12h-12zM636 528h12v12h-12zM636 516h12v12h-12zM636 504h12v12h-12zM636 492h12v12h-12zM636 480h12v12h-12zM636 468h12v12h-12zM636 456h12v12h-12zM636 432h12v12h-12zM636 420h12v12h-12zM636 408h12v12h-12zM636 396h12v12h-12zM636 384h12v12h-12zM636 372h12v12h-12zM636 360h12v12h-12zM636 348h12v12h-12zM636 336h12v12h-12zM648 348h12v12h-12zM660 360h12v12h-12zM684 384h12v12h-12zM696 396h12v12h-12zM708 408h12v12h-12zM720 420h12v12h-12zM732 432h12v12h-12zM744 444h12v12h-12zM756 456h12v12h-12zM768 468h12v12h-12zM780 480h12v12h-12zM792 492h12v12h-12zM804 504h12v12h-12zM816 516h12v12h-12zM828 528h12v12h-12zM840 540h12v12h-12zM852 552h12v12h-12zM876 576h12v12h-12zM888 588h12v12h-12zM900 600h12v12h-12zM900 624h12v12h-12zM900 636h12v12h-12zM900 648h12v12h-12zM624 612h12v12h-12zM624 600h12v12h-12zM624 588h12v12h-12zM624 576h12v12h-12zM624 552h12v12h-12zM624 540h12v12h-12zM624 528h12v12h-12zM624 516h12v12h-12zM624 504h12v12h-12zM624 492h12v12h-12zM624 480h12v12h-12zM624 468h12v12h-12zM624 444h12v12h-12zM624 432h12v12h-12zM624 420h12v12h-12zM624 408h12v12h-12zM648 300h12v12h-12zM660 288h12v12h-12zM684 264h12v12h-12zM684 276h12v12h-12zM684 288h12v12h-12zM684 300h12v12h-12zM684 312h12v12h-12zM684 324h12v12h-12zM684 336h12v12h-12zM684 348h12v12h-12zM684 372h12v12h-12zM696 360h12v12h-12zM708 348h12v12h-12zM720 336h12v12h-12zM732 324h12v12h-12zM744 312h12v12h-12zM756 300h12v12h-12zM768 288h12v12h-12zM780 276h12v12h-12zM792 264h12v12h-12zM804 252h12v12h-12zM816 240h12v12h-12zM816 252h12v12h-12zM816 276h12v12h-12zM816 288h12v12h-12zM804 288h12v12h-12zM780 288h12v12h-12zM756 288h12v12h-12zM744 288h12v12h-12zM732 288h12v12h-12zM828 228h12v12h-12zM840 216h12v12h-12zM852 204h12v12h-12zM864 192h12v12h-12zM876 180h12v12h-12zM888 168h12v12h-12zM912 144h12v12h-12zM924 132h12v12h-12zM936 132h12v12h-12zM936 144h12v12h-12zM936 156h12v12h-12zM936 168h12v12h-12zM936 180h12v12h-12zM936 120h12v12h-12zM936 108h12v12h-12zM936 96h12v12h-12zM936 84h12v12h-12zM936 72h12v12h-12zM936 60h12v12h-12zM924 60h12v12h-12zM912 60h12v12h-12zM900 60h12v12h-12zM888 60h12v12h-12zM876 60h12v12h-12zM864 60h12v12h-12zM852 60h12v12h-12zM840 60h12v12h-12zM828 60h12v12h-12zM816 60h12v12h-12zM804 60h12v12h-12zM792 60h12v12h-12zM780 60h12v12h-12zM768 60h12v12h-12zM756 60h12v12h-12zM732 60h12v12h-12zM720 60h12v12h-12zM708 60h12v12h-12zM696 60h12v12h-12zM684 60h12v12h-12zM672 60h12v12h-12zM660 60h12v12h-12zM648 60h12v12h-12zM636 60h12v12h-12zM624 60h12v12h-12zM612 60h12v12h-12zM600 60h12v12h-12zM588 60h12v12h-12zM576 60h12v12h-12zM564 60h12v12h-12zM552 60h12v12h-12zM540 60h12v12h-12zM528 60h12v12h-12zM516 60h12v12h-12zM684 72h12v12h-12zM684 84h12v12h-12zM684 96h12v12h-12zM684 108h12v12h-12zM684 132h12v12h-12zM684 144h12v12h-12zM684 156h12v12h-12zM684 168h12v12h-12zM684 180h12v12h-12zM684 192h12v12h-12zM684 204h12v12h-12zM684 216h12v12h-12zM684 228h12v12h-12zM684 240h12v12h-12zM684 252h12v12h-12zM684 408h12v12h-12zM684 420h12v12h-12zM696 168h12v12h-12zM708 168h12v12h-12zM720 168h12v12h-12zM732 168h12v12h-12zM744 168h12v12h-12zM756 168h12v12h-12zM768 168h12v12h-12zM780 168h12v12h-12zM792 168h12v12h-12zM804 168h12v12h-12zM816 168h12v12h-12zM828 168h12v12h-12zM840 168h12v12h-12zM852 168h12v12h-12zM864 168h12v12h-12zM876 168h12v12h-12zM912 168h12v12h-12zM924 168h12v12h-12zM948 168h12v12h-12zM924 192h12v12h-12zM912 204h12v12h-12zM888 228h12v12h-12zM876 240h12v12h-12zM864 252h12v12h-12zM852 264h12v12h-12zM840 276h12v12h-12zM852 276h12v12h-12zM864 276h12v12h-12zM876 276h12v12h-12zM888 276h12v12h-12zM912 276h12v12h-12zM924 276h12v12h-12zM936 276h12v12h-12zM924 288h12v12h-12zM912 300h12v12h-12zM888 324h12v12h-12zM876 336h12v12h-12zM864 348h12v12h-12zM852 360h12v12h-12zM840 372h12v12h-12zM828 384h12v12h-12zM816 396h12v12h-12zM804 408h12v12h-12zM792 420h12v12h-12zM780 432h12v12h-12z"/></svg>