<svg xmlns="http://www.w3.org/2000/svg" width="960" height="960" viewBox="0 0 960 960" shape-rendering="crispEdges"><path fill="#000" d="M0 0h960v960h-960z"/><path fill="#486ca3" d="M0 48h48v48h-48zM0 192h48v48h-48zM0 336h48v48h-48zM0 480h48v48h-48zM0 624h48v48h-48zM0 768h48v48h-48zM0 912h48v48h-48zM48 0h48v48h-48zM48 48h48v48h-48zM48 96h48v48h-48zM48 144h48v48h-48zM48 192h48v48h-48zM48 240h48v48h-48zM48 288h48v48h-48zM48 336h48v48h-48zM48 384h48v48h-48zM48 432h48v48h-48zM48 480h48v48h-48zM48 528h48v48h-48zM48 576h48v48h-48zM48 624h48v48h-48zM48 672h48v48h-48zM48 720h48v48h-48zM48 768h48v48h-48zM48 816h48v48h-48zM48 864h48v48h-48zM48 912h48v48h-48zM96 48h48v48h-48zM96 192h48v48h-48zM96 336h48v48h-48zM96 480h48v48h-48zM96 624h48v48h-48zM96 768h48v48h-48zM96 912h48v48h-48zM144 48h48v48h-48zM144 192h48v48h-48zM144 336h48v48h-48zM144 480h48v48h-48zM144 624h48v48h-48zM144 768h48v48h-48zM144 912h48v48h-48zM192 0h48v48h-48zM192 48h48v48h-48zM192 96h48v48h-48zM192 144h48v48h-48zM192 192h48v48h-48zM192 240h48v48h-48zM192 288h48v48h-48zM192 336h48v48h-48zM192 384h48v48h-48zM192 432h48v48h-48zM192 480h48v48h-48zM192 528h48v48h-48zM192 576h48v48h-48zM192 624h48v48h-48zM192 672h48v48h-48zM192 720h48v48h-48zM192 768h48v48h-48zM192 816h48v48h-48zM192 864h48v48h-48zM192 912h48v48h-48zM240 48h48v48h-48zM240 192h48v48h-48zM240 336h48v48h-48zM240 480h48v48h-48zM240 624h48v48h-48zM240 768h48v48h-48zM240 912h48v48h-48zM288 48h48v48h-48zM288 192h48v48h-48zM288 336h48v48h-48zM288 480h48v48h-48zM288 624h48v48h-48zM288 768h48v48h-48zM288 912h48v48h-48zM336 0h48v48h-48zM336 48h48v48h-48zM336 96h48v48h-48zM336 144h48v48h-48zM336 192h48v48h-48zM336 240h48v48h-48zM336 288h48v48h-48zM336 336h48v48h-48zM336 384h48v48h-48zM336 432h48v48h-48zM336 480h48v48h-48zM336 528h48v48h-48zM336 576h48v48h-48zM336 624h48v48h-48zM336 672h48v48h-48zM336 720h48v48h-48zM336 768h48v48h-48zM336 816h48v48h-48zM336 864h48v48h-48zM336 912h48v48h-48zM384 48h48v48h-48zM384 192h48v48h-48zM384 336h48v48h-48zM384 480h48v48h-48zM384 624h48v48h-48zM384 768h48v48h-48zM384 912h48v48h-48zM432 48h48v48h-48zM432 192h48v48h-48zM432 336h48v48h-48zM432 480h48v48h-48zM432 624h48v48h-48zM432 768h48v48h-48zM432 912h48v48h-48zM480 0h48v48h-48zM480 48h48v48h-48zM480 96h48v48h-48zM480 144h48v48h-48zM480 192h48v48h-48zM480 240h48v48h-48zM480 288h48v48h-48zM480 336h48v48h-48zM480 384h48v48h-48zM480 432h48v48h-48zM480 480h48v48h-48zM480 528h48v48h-48zM480 576h48v48h-48zM480 624h48v48h-48zM480 672h48v48h-48zM480 720h48v48h-48zM480 768h48v48h-48zM480 816h48v48h-48zM480 864h48v48h-48zM480 912h48v48h-48zM528 48h48v48h-48zM528 192h48v48h-48zM528 336h48v48h-48zM528 480h48v48h-48zM528 624h48v48h-48zM528 768h48v48h-48zM528 912h48v48h-48zM576 48h48v48h-48zM576 192h48v48h-48zM576 336h48v48h-48zM576 480h48v48h-48zM576 624h48v48h-48zM576 768h48v48h-48zM576 912h48v48h-48zM624 0h48v48h-48zM624 48h48v48h-48zM624 96h48v48h-48zM624 144h48v48h-48zM624 192h48v48h-48zM624 240h48v48h-48zM624 288h48v48h-48zM624 336h48v48h-48zM624 384h48v48h-48zM624 432h48v48h-48zM624 480h48v48h-48zM624 528h48v48h-48zM624 576h48v48h-48zM624 624h48v48h-48zM624 672h48v48h-48zM624 720h48v48h-48zM624 768h48v48h-48zM624 816h48v48h-48zM624 864h48v48h-48zM624 912h48v48h-48zM672 48h48v48h-48zM672 192h48v48h-48zM672 336h48v48h-48zM672 480h48v48h-48zM672 624h48v48h-48zM672 768h48v48h-48zM672 912h48v48h-48zM720 48h48v48h-48zM720 192h48v48h-48zM720 336h48v48h-48zM720 480h48v48h-48zM720 624h48v48h-48zM720 768h48v48h-48zM720 912h48v48h-48zM768 0h48v48h-48zM768 48h48v48h-48zM768 96h48v48h-48zM768 144h48v48h-48zM768 192h48v48h-48zM768 240h48v48h-48zM768 288h48v48h-48zM768 336h48v48h-48zM768 384h48v48h-48zM768 432h48v48h-48zM768 480h48v48h-48zM768 528h48v48h-48zM768 576h48v48h-48zM768 624h48v48h-48zM768 672h48v48h-48zM768 720h48v48h-48zM768 768h48v48h-48zM768 816h48v48h-48zM768 864h48v48h-48zM768 912h48v48h-48zM816 48h48v48h-48zM816 192h48v48h-48zM816 336h48v48h-48zM816 480h48v48h-48zM816 624h48v48h-48zM816 768h48v48h-48zM816 912h48v48h-48zM864 48h48v48h-48zM864 192h48v48h-48zM864 336h48v48h-48zM864 480h48v48h-48zM864 624h48v48h-48zM864 768h48v48h-48zM864 912h48v48h-48zM912 0h48v48h-48zM912 48h48v48h-48zM912 96h48v48h-48zM912 144h48v48h-48zM912 192h48v48h-48zM912 240h48v48h-48zM912 288h48v48h-48zM912 336h48v48h-48zM912 384h48v48h-48zM912 432h48v48h-48zM912 480h48v48h-48zM912 528h48v48h-48zM912 576h48v48h-48zM912 624h48v48h-48zM912 672h48v48h-48zM912 720h48v48h-48zM912 768h48v48h-48zM912 816h48v48h-48zM912 864h48v48h-48zM912 912h48v48h-48z"/><path fill="#999df5" d="M30 6h12v12h-12zM54 6h12v12h-12zM54 30h12v12h-12zM30 78h12v12h-12zM198 6h12v12h-12zM270 6h12v12h-12zM222 54h12v12h-12zM246 54h12v12h-12zM198 78h12v12h-12zM270 78h12v12h-12zM390 6h12v12h-12zM462 6h12v12h-12zM390 54h12v12h-12zM462 54h12v12h-12zM606 6h12v12h-12zM582 30h12v12h-12zM654 54h12v12h-12zM630 78h12v12h-12zM774 6h12v12h-12zM846 6h12v12h-12zM822 30h12v12h-12zM798 54h12v12h-12zM774 78h12v12h-12zM846 78h12v12h-12zM78 198h12v12h-12zM78 222h12v12h-12zM6 246h12v12h-12zM6 270h12v12h-12zM198 198h12v12h-12zM246 198h12v12h-12zM246 222h12v12h-12zM270 222h12v12h-12zM198 246h12v12h-12zM222 246h12v12h-12zM222 270h12v12h-12zM270 270h12v12h-12zM438 198h12v12h-12zM462 198h12v12h-12zM438 222h12v12h-12zM462 222h12v12h-12zM390 246h12v12h-12zM414 246h12v12h-12zM390 270h12v12h-12zM414 270h12v12h-12zM606 198h12v12h-12zM630 246h12v12h-12zM606 270h12v12h-12zM630 270h12v12h-12zM774 198h12v12h-12zM846 198h12v12h-12zM798 246h12v12h-12zM822 246h12v12h-12zM774 270h12v12h-12zM846 270h12v12h-12zM6 390h12v12h-12zM78 390h12v12h-12zM30 414h12v12h-12zM54 414h12v12h-12zM30 438h12v12h-12zM6 462h12v12h-12zM78 462h12v12h-12zM198 390h12v12h-12zM222 414h12v12h-12zM246 438h12v12h-12zM270 462h12v12h-12zM414 390h12v12h-12zM462 390h12v12h-12zM438 414h12v12h-12zM438 438h12v12h-12zM414 462h12v12h-12zM462 462h12v12h-12zM582 414h12v12h-12zM654 414h12v12h-12zM582 438h12v12h-12zM606 438h12v12h-12zM822 390h12v12h-12zM846 390h12v12h-12zM822 414h12v12h-12zM846 414h12v12h-12zM774 438h12v12h-12zM798 438h12v12h-12zM774 462h12v12h-12zM798 462h12v12h-12zM30 582h12v12h-12zM6 606h12v12h-12zM30 606h12v12h-12zM54 630h12v12h-12zM78 630h12v12h-12zM54 654h12v12h-12zM246 582h12v12h-12zM270 606h12v12h-12zM198 630h12v12h-12zM222 654h12v12h-12zM390 582h12v12h-12zM462 582h12v12h-12zM390 654h12v12h-12zM462 654h12v12h-12zM582 582h12v12h-12zM654 582h12v12h-12zM606 606h12v12h-12zM630 606h12v12h-12zM630 630h12v12h-12zM582 654h12v12h-12zM654 654h12v12h-12zM774 582h12v12h-12zM846 582h12v12h-12zM798 606h12v12h-12zM822 606h12v12h-12zM798 630h12v12h-12zM774 654h12v12h-12zM846 654h12v12h-12zM30 774h12v12h-12zM78 774h12v12h-12zM6 798h12v12h-12zM54 798h12v12h-12zM30 822h12v12h-12zM78 822h12v12h-12zM6 846h12v12h-12zM54 846h12v12h-12zM198 774h12v12h-12zM222 798h12v12h-12zM198 822h12v12h-12zM246 822h12v12h-12zM198 846h12v12h-12zM222 846h12v12h-12zM270 846h12v12h-12zM390 774h12v12h-12zM414 774h12v12h-12zM462 774h12v12h-12zM390 798h12v12h-12zM438 798h12v12h-12zM414 822h12v12h-12zM390 846h12v12h-12zM582 774h12v12h-12zM606 798h12v12h-12zM630 822h12v12h-12zM654 846h12v12h-12zM774 774h12v12h-12zM846 774h12v12h-12zM798 798h12v12h-12zM798 822h12v12h-12zM822 822h12v12h-12zM774 846h12v12h-12zM846 846h12v12h-12zM510 198h12v12h-12zM534 246h12v12h-12zM510 270h12v12h-12zM534 270h12v12h-12zM390 870h12v12h-12zM414 870h12v12h-12zM462 870h12v12h-12zM390 894h12v12h-12zM438 894h12v12h-12zM414 918h12v12h-12zM390 942h12v12h-12zM678 870h12v12h-12zM750 870h12v12h-12zM702 894h12v12h-12zM702 918h12v12h-12zM726 918h12v12h-12zM678 942h12v12h-12zM750 942h12v12h-12zM294 774h12v12h-12zM318 798h12v12h-12zM294 822h12v12h-12zM342 822h12v12h-12zM294 846h12v12h-12zM318 846h12v12h-12zM366 846h12v12h-12zM870 870h12v12h-12zM942 870h12v12h-12zM894 894h12v12h-12zM894 918h12v12h-12zM918 918h12v12h-12zM870 942h12v12h-12zM942 942h12v12h-12zM702 102h12v12h-12zM678 126h12v12h-12zM750 150h12v12h-12zM726 174h12v12h-12zM774 486h12v12h-12zM846 486h12v12h-12zM798 510h12v12h-12zM822 510h12v12h-12zM798 534h12v12h-12zM774 558h12v12h-12zM846 558h12v12h-12zM486 318h12v12h-12zM558 318h12v12h-12zM486 342h12v12h-12zM510 342h12v12h-12zM678 582h12v12h-12zM750 582h12v12h-12zM702 606h12v12h-12zM726 606h12v12h-12zM702 630h12v12h-12zM678 654h12v12h-12zM750 654h12v12h-12zM774 294h12v12h-12zM846 294h12v12h-12zM798 342h12v12h-12zM822 342h12v12h-12zM774 366h12v12h-12zM846 366h12v12h-12zM390 678h12v12h-12zM414 702h12v12h-12zM390 726h12v12h-12zM438 726h12v12h-12zM390 750h12v12h-12zM414 750h12v12h-12zM462 750h12v12h-12zM198 486h12v12h-12zM222 510h12v12h-12zM246 534h12v12h-12zM270 558h12v12h-12zM294 870h12v12h-12zM318 894h12v12h-12zM294 918h12v12h-12zM342 918h12v12h-12zM294 942h12v12h-12zM318 942h12v12h-12zM366 942h12v12h-12zM582 870h12v12h-12zM606 894h12v12h-12zM630 918h12v12h-12zM654 942h12v12h-12zM870 198h12v12h-12zM942 198h12v12h-12zM894 246h12v12h-12zM918 246h12v12h-12zM870 270h12v12h-12zM942 270h12v12h-12zM774 102h12v12h-12zM846 102h12v12h-12zM798 150h12v12h-12zM822 150h12v12h-12zM774 174h12v12h-12zM846 174h12v12h-12z"/><path fill="#fff" d="M192 240h24v24h-24zM168 264h24v24h-24zM192 264h24v24h-24zM216 264h24v24h-24zM240 264h24v24h-24zM264 264h24v24h-24zM288 264h24v24h-24zM312 264h24v24h-24zM336 264h24v24h-24zM360 264h24v24h-24zM384 264h24v24h-24zM384 288h24v24h-24zM384 312h24v24h-24zM384 336h24v24h-24zM384 360h24v24h-24zM360 360h24v24h-24zM336 360h24v24h-24zM312 360h24v24h-24zM288 360h24v24h-24zM264 360h24v24h-24zM240 360h24v24h-24zM216 360h24v24h-24zM192 360h24v24h-24zM192 384h24v24h-24zM192 408h24v24h-24zM168 384h24v24h-24zM144 360h24v24h-24zM120 336h24v24h-24zM96 312h24v24h-24zM72 288h24v24h-24zM48 264h24v24h-24zM24 240h24v24h-24zM48 240h24v24h-24zM72 240h24v24h-24zM96 240h24v24h-24zM120 240h24v24h-24zM144 240h24v24h-24zM168 240h24v24h-24zM216 240h24v24h-24zM240 240h24v24h-24zM264 240h24v24h-24zM288 240h24v24h-24zM312 240h24v24h-24zM336 240h24v24h-24zM360 240h24v24h-24zM384 240h24v24h-24zM408 240h24v24h-24zM432 216h24v24h-24zM456 192h24v24h-24zM432 192h24v24h-24zM408 192h24v24h-24zM384 192h24v24h-24zM384 168h24v24h-24zM384 144h24v24h-24zM384 120h24v24h-24zM384 96h24v24h-24zM384 72h24v24h-24zM384 48h24v24h-24zM384 24h24v24h-24zM384 216h24v24h-24zM384 384h24v24h-24zM384 408h24v24h-24zM384 432h24v24h-24zM384 456h24v24h-24zM360 432h24v24h-24zM336 408h24v24h-24zM312 384h24v24h-24zM264 336h24v24h-24zM240 312h24v24h-24zM216 288h24v24h-24zM144 216h24v24h-24zM120 192h24v24h-24zM96 168h24v24h-24zM72 144h24v24h-24zM72 120h24v24h-24zM72 96h24v24h-24zM72 72h24v24h-24zM72 168h24v24h-24zM72 192h24v24h-24zM72 216h24v24h-24zM72 264h24v24h-24zM72 312h24v24h-24zM72 336h24v24h-24zM72 360h24v24h-24zM96 384h24v24h-24zM120 408h24v24h-24zM144 384h24v24h-24zM168 360h24v24h-24zM192 336h24v24h-24zM216 312h24v24h-24zM240 288h24v24h-24zM312 216h24v24h-24zM336 192h24v24h-24zM360 168h24v24h-24zM336 168h24v24h-24zM312 168h24v24h-24zM288 168h24v24h-24zM264 168h24v24h-24zM240 144h24v24h-24zM216 120h24v24h-24zM192 96h24v24h-24zM168 72h24v24h-24zM144 48h24v24h-24zM120 24h24v24h-24zM144 24h24v24h-24zM168 24h24v24h-24zM192 24h24v24h-24zM216 24h24v24h-24zM240 24h24v24h-24zM264 24h24v24h-24zM288 24h24v24h-24zM312 24h24v24h-24zM336 24h24v24h-24zM360 24h24v24h-24zM96 24h24v24h-24zM72 24h24v24h-24zM72 48h24v24h-24zM72 384h24v24h-24zM72 408h24v24h-24zM72 432h24v24h-24zM72 456h24v24h-24zM96 192h24v24h-24zM144 192h24v24h-24zM168 192h24v24h-24zM192 192h24v24h-24zM192 216h24v24h-24zM264 288h24v24h-24zM288 312h24v24h-24zM312 336h24v24h-24zM360 384h24v24h-24zM408 432h24v24h-24zM432 456h24v24h-24zM408 456h24v24h-24zM360 456h24v24h-24zM336 456h24v24h-24zM312 456h24v24h-24zM288 456h24v24h-24zM264 456h24v24h-24zM240 456h24v24h-24zM216 456h24v24h-24zM192 456h24v24h-24zM168 456h24v24h-24zM144 432h24v24h-24zM48 336h24v24h-24zM96 336h24v24h-24zM144 336h24v24h-24zM168 336h24v24h-24zM216 336h24v24h-24zM240 336h24v24h-24zM288 336h24v24h-24zM312 408h24v24h-24zM288 384h24v24h-24zM168 408h24v24h-24zM144 408h24v24h-24zM96 408h24v24h-24zM216 408h24v24h-24zM240 408h24v24h-24zM264 408h24v24h-24zM288 408h24v24h-24zM360 408h24v24h-24zM408 408h24v24h-24zM120 360h24v24h-24zM168 312h24v24h-24zM192 288h24v24h-24zM264 216h24v24h-24zM288 192h24v24h-24zM336 144h24v24h-24zM336 216h24v24h-24zM360 216h24v24h-24zM408 168h24v24h-24zM432 144h24v24h-24zM408 120h24v24h-24zM360 72h24v24h-24zM336 48h24v24h-24zM336 0h24v24h-24zM192 696h24v24h-24zM168 672h24v24h-24zM192 672h24v24h-24zM216 672h24v24h-24zM240 672h24v24h-24zM264 672h24v24h-24zM288 672h24v24h-24zM312 672h24v24h-24zM336 672h24v24h-24zM360 672h24v24h-24zM384 672h24v24h-24zM384 648h24v24h-24zM384 624h24v24h-24zM384 600h24v24h-24zM384 576h24v24h-24zM360 576h24v24h-24zM336 576h24v24h-24zM312 576h24v24h-24zM288 576h24v24h-24zM264 576h24v24h-24zM240 576h24v24h-24zM216 576h24v24h-24zM192 576h24v24h-24zM192 552h24v24h-24zM192 528h24v24h-24zM168 552h24v24h-24zM144 576h24v24h-24zM120 600h24v24h-24zM96 624h24v24h-24zM72 648h24v24h-24zM48 672h24v24h-24zM24 696h24v24h-24zM48 696h24v24h-24zM72 696h24v24h-24zM96 696h24v24h-24zM120 696h24v24h-24zM144 696h24v24h-24zM168 696h24v24h-24zM216 696h24v24h-24zM240 696h24v24h-24zM264 696h24v24h-24zM288 696h24v24h-24zM312 696h24v24h-24zM336 696h24v24h-24zM360 696h24v24h-24zM384 696h24v24h-24zM408 696h24v24h-24zM432 720h24v24h-24zM456 744h24v24h-24zM432 744h24v24h-24zM408 744h24v24h-24zM384 744h24v24h-24zM384 768h24v24h-24zM384 792h24v24h-24zM384 816h24v24h-24zM384 840h24v24h-24zM384 864h24v24h-24zM384 888h24v24h-24zM384 912h24v24h-24zM384 720h24v24h-24zM384 552h24v24h-24zM384 528h24v24h-24zM384 504h24v24h-24zM384 480h24v24h-24zM360 504h24v24h-24zM336 528h24v24h-24zM312 552h24v24h-24zM264 600h24v24h-24zM240 624h24v24h-24zM216 648h24v24h-24zM144 720h24v24h-24zM120 744h24v24h-24zM96 768h24v24h-24zM72 792h24v24h-24zM72 816h24v24h-24zM72 840h24v24h-24zM72 864h24v24h-24zM72 768h24v24h-24zM72 744h24v24h-24zM72 720h24v24h-24zM72 672h24v24h-24zM72 624h24v24h-24zM72 600h24v24h-24zM72 576h24v24h-24zM96 552h24v24h-24zM120 528h24v24h-24zM144 552h24v24h-24zM168 576h24v24h-24zM192 600h24v24h-24zM216 624h24v24h-24zM240 648h24v24h-24zM312 720h24v24h-24zM336 744h24v24h-24zM360 768h24v24h-24zM336 768h24v24h-24zM312 768h24v24h-24zM288 768h24v24h-24zM264 768h24v24h-24zM240 792h24v24h-24zM216 816h24v24h-24zM192 840h24v24h-24zM168 864h24v24h-24zM144 888h24v24h-24zM120 912h24v24h-24zM144 912h24v24h-24zM168 912h24v24h-24zM192 912h24v24h-24zM216 912h24v24h-24zM240 912h24v24h-24zM264 912h24v24h-24zM288 912h24v24h-24zM312 912h24v24h-24zM336 912h24v24h-24zM360 912h24v24h-24zM96 912h24v24h-24zM72 912h24v24h-24zM72 888h24v24h-24zM72 552h24v24h-24zM72 528h24v24h-24zM72 504h24v24h-24zM72 480h24v24h-24zM96 744h24v24h-24zM144 744h24v24h-24zM168 744h24v24h-24zM192 744h24v24h-24zM192 720h24v24h-24zM264 648h24v24h-24zM288 624h24v24h-24zM312 600h24v24h-24zM360 552h24v24h-24zM408 504h24v24h-24zM432 480h24v24h-24zM408 480h24v24h-24zM360 480h24v24h-24zM336 480h24v24h-24zM312 480h24v24h-24zM288 480h24v24h-24zM264 480h24v24h-24zM240 480h24v24h-24zM216 480h24v24h-24zM192 480h24v24h-24zM168 480h24v24h-24zM144 504h24v24h-24zM48 600h24v24h-24zM96 600h24v24h-24zM144 600h24v24h-24zM168 600h24v24h-24zM216 600h24v24h-24zM240 600h24v24h-24zM288 600h24v24h-24zM312 528h24v24h-24zM288 552h24v24h-24zM168 528h24v24h-24zM144 528h24v24h-24zM96 528h24v24h-24zM216 528h24v24h-24zM240 528h24v24h-24zM264 528h24v24h-24zM288 528h24v24h-24zM360 528h24v24h-24zM408 528h24v24h-24zM120 576h24v24h-24zM168 624h24v24h-24zM192 648h24v24h-24zM264 720h24v24h-24zM288 744h24v24h-24zM336 792h24v24h-24zM336 720h24v24h-24zM360 720h24v24h-24zM408 768h24v24h-24zM432 792h24v24h-24zM408 816h24v24h-24zM360 864h24v24h-24zM336 888h24v24h-24zM336 936h24v24h-24zM744 240h24v24h-24zM768 264h24v24h-24zM744 264h24v24h-24zM720 264h24v24h-24zM696 264h24v24h-24zM672 264h24v24h-24zM648 264h24v24h-24zM624 264h24v24h-24zM600 264h24v24h-24zM576 264h24v24h-24zM552 264h24v24h-24zM552 288h24v24h-24zM552 312h24v24h-24zM552 336h24v24h-24zM552 360h24v24h-24zM576 360h24v24h-24zM600 360h24v24h-24zM624 360h24v24h-24zM648 360h24v24h-24zM672 360h24v24h-24zM696 360h24v24h-24zM720 360h24v24h-24zM744 360h24v24h-24zM744 384h24v24h-24zM744 408h24v24h-24zM768 384h24v24h-24zM792 360h24v24h-24zM816 336h24v24h-24zM840 312h24v24h-24zM864 288h24v24h-24zM888 264h24v24h-24zM912 240h24v24h-24zM888 240h24v24h-24zM864 240h24v24h-24zM840 240h24v24h-24zM816 240h24v24h-24zM792 240h24v24h-24zM768 240h24v24h-24zM720 240h24v24h-24zM696 240h24v24h-24zM672 240h24v24h-24zM648 240h24v24h-24zM624 240h24v24h-24zM600 240h24v24h-24zM576 240h24v24h-24zM552 240h24v24h-24zM528 240h24v24h-24zM504 216h24v24h-24zM480 192h24v24h-24zM504 192h24v24h-24zM528 192h24v24h-24zM552 192h24v24h-24zM552 168h24v24h-24zM552 144h24v24h-24zM552 120h24v24h-24zM552 96h24v24h-24zM552 72h24v24h-24zM552 48h24v24h-24zM552 24h24v24h-24zM552 216h24v24h-24zM552 384h24v24h-24zM552 408h24v24h-24zM552 432h24v24h-24zM552 456h24v24h-24zM576 432h24v24h-24zM600 408h24v24h-24zM624 384h24v24h-24zM672 336h24v24h-24zM696 312h24v24h-24zM720 288h24v24h-24zM792 216h24v24h-24zM816 192h24v24h-24zM840 168h24v24h-24zM864 144h24v24h-24zM864 120h24v24h-24zM864 96h24v24h-24zM864 72h24v24h-24zM864 168h24v24h-24zM864 192h24v24h-24zM864 216h24v24h-24zM864 264h24v24h-24zM864 312h24v24h-24zM864 336h24v24h-24zM864 360h24v24h-24zM840 384h24v24h-24zM816 408h24v24h-24zM792 384h24v24h-24zM768 360h24v24h-24zM744 336h24v24h-24zM720 312h24v24h-24zM696 288h24v24h-24zM624 216h24v24h-24zM600 192h24v24h-24zM576 168h24v24h-24zM600 168h24v24h-24zM624 168h24v24h-24zM648 168h24v24h-24zM672 168h24v24h-24zM696 144h24v24h-24zM720 120h24v24h-24zM744 96h24v24h-24zM768 72h24v24h-24zM792 48h24v24h-24zM816 24h24v24h-24zM792 24h24v24h-24zM768 24h24v24h-24zM744 24h24v24h-24zM720 24h24v24h-24zM696 24h24v24h-24zM672 24h24v24h-24zM648 24h24v24h-24zM624 24h24v24h-24zM600 24h24v24h-24zM576 24h24v24h-24zM840 24h24v24h-24zM864 24h24v24h-24zM864 48h24v24h-24zM864 384h24v24h-24zM864 408h24v24h-24zM864 432h24v24h-24zM864 456h24v24h-24zM840 192h24v24h-24zM792 192h24v24h-24zM768 192h24v24h-24zM744 192h24v24h-24zM744 216h24v24h-24zM672 288h24v24h-24zM648 312h24v24h-24zM624 336h24v24h-24zM576 384h24v24h-24zM528 432h24v24h-24zM504 456h24v24h-24zM528 456h24v24h-24zM576 456h24v24h-24zM600 456h24v24h-24zM624 456h24v24h-24zM648 456h24v24h-24zM672 456h24v24h-24zM696 456h24v24h-24zM720 456h24v24h-24zM744 456h24v24h-24zM768 456h24v24h-24zM792 432h24v24h-24zM888 336h24v24h-24zM840 336h24v24h-24zM792 336h24v24h-24zM768 336h24v24h-24zM720 336h24v24h-24zM696 336h24v24h-24zM648 336h24v24h-24zM624 408h24v24h-24zM648 384h24v24h-24zM768 408h24v24h-24zM792 408h24v24h-24zM840 408h24v24h-24zM720 408h24v24h-24zM696 408h24v24h-24zM672 408h24v24h-24zM648 408h24v24h-24zM576 408h24v24h-24zM528 408h24v24h-24zM816 360h24v24h-24zM768 312h24v24h-24zM744 288h24v24h-24zM672 216h24v24h-24zM648 192h24v24h-24zM600 144h24v24h-24zM600 216h24v24h-24zM576 216h24v24h-24zM528 168h24v24h-24zM504 144h24v24h-24zM528 120h24v24h-24zM576 72h24v24h-24zM600 48h24v24h-24zM600 0h24v24h-24zM744 696h24v24h-24zM768 672h24v24h-24zM744 672h24v24h-24zM720 672h24v24h-24zM696 672h24v24h-24zM672 672h24v24h-24zM648 672h24v24h-24zM624 672h24v24h-24zM600 672h24v24h-24zM576 672h24v24h-24zM552 672h24v24h-24zM552 648h24v24h-24zM552 624h24v24h-24zM552 600h24v24h-24zM552 576h24v24h-24zM576 576h24v24h-24zM600 576h24v24h-24zM624 576h24v24h-24zM648 576h24v24h-24zM672 576h24v24h-24zM696 576h24v24h-24zM720 576h24v24h-24zM744 576h24v24h-24zM744 552h24v24h-24zM744 528h24v24h-24zM768 552h24v24h-24zM792 576h24v24h-24zM816 600h24v24h-24zM840 624h24v24h-24zM864 648h24v24h-24zM888 672h24v24h-24zM912 696h24v24h-24zM888 696h24v24h-24zM864 696h24v24h-24zM840 696h24v24h-24zM816 696h24v24h-24zM792 696h24v24h-24zM768 696h24v24h-24zM720 696h24v24h-24zM696 696h24v24h-24zM672 696h24v24h-24zM648 696h24v24h-24zM624 696h24v24h-24zM600 696h24v24h-24zM576 696h24v24h-24zM552 696h24v24h-24zM528 696h24v24h-24zM504 720h24v24h-24zM480 744h24v24h-24zM504 744h24v24h-24zM528 744h24v24h-24zM552 744h24v24h-24zM552 768h24v24h-24zM552 792h24v24h-24zM552 816h24v24h-24zM552 840h24v24h-24zM552 864h24v24h-24zM552 888h24v24h-24zM552 912h24v24h-24zM552 720h24v24h-24zM552 552h24v24h-24zM552 528h24v24h-24zM552 504h24v24h-24zM552 480h24v24h-24zM576 504h24v24h-24zM600 528h24v24h-24zM624 552h24v24h-24zM672 600h24v24h-24zM696 624h24v24h-24zM720 648h24v24h-24zM792 720h24v24h-24zM816 744h24v24h-24zM840 768h24v24h-24zM864 792h24v24h-24zM864 816h24v24h-24zM864 840h24v24h-24zM864 864h24v24h-24zM864 768h24v24h-24zM864 744h24v24h-24zM864 720h24v24h-24zM864 672h24v24h-24zM864 624h24v24h-24zM864 600h24v24h-24zM864 576h24v24h-24zM840 552h24v24h-24zM816 528h24v24h-24zM792 552h24v24h-24zM768 576h24v24h-24zM744 600h24v24h-24zM720 624h24v24h-24zM696 648h24v24h-24zM624 720h24v24h-24zM600 744h24v24h-24zM576 768h24v24h-24zM600 768h24v24h-24zM624 768h24v24h-24zM648 768h24v24h-24zM672 768h24v24h-24zM696 792h24v24h-24zM720 816h24v24h-24zM744 840h24v24h-24zM768 864h24v24h-24zM792 888h24v24h-24zM816 912h24v24h-24zM792 912h24v24h-24zM768 912h24v24h-24zM744 912h24v24h-24zM720 912h24v24h-24zM696 912h24v24h-24zM672 912h24v24h-24zM648 912h24v24h-24zM624 912h24v24h-24zM600 912h24v24h-24zM576 912h24v24h-24zM840 912h24v24h-24zM864 912h24v24h-24zM864 888h24v24h-24zM864 552h24v24h-24zM864 528h24v24h-24zM864 504h24v24h-24zM864 480h24v24h-24zM840 744h24v24h-24zM792 744h24v24h-24zM768 744h24v24h-24zM744 744h24v24h-24zM744 720h24v24h-24zM672 648h24v24h-24zM648 624h24v24h-24zM624 600h24v24h-24zM576 552h24v24h-24zM528 504h24v24h-24zM504 480h24v24h-24zM528 480h24v24h-24zM576 480h24v24h-24zM600 480h24v24h-24zM624 480h24v24h-24zM648 480h24v24h-24zM672 480h24v24h-24zM696 480h24v24h-24zM720 480h24v24h-24zM744 480h24v24h-24zM768 480h24v24h-24zM792 504h24v24h-24zM888 600h24v24h-24zM840 600h24v24h-24zM792 600h24v24h-24zM768 600h24v24h-24zM720 600h24v24h-24zM696 600h24v24h-24zM648 600h24v24h-24zM624 528h24v24h-24zM648 552h24v24h-24zM768 528h24v24h-24zM792 528h24v24h-24zM840 528h24v24h-24zM720 528h24v24h-24zM696 528h24v24h-24zM672 528h24v24h-24zM648 528h24v24h-24zM576 528h24v24h-24zM528 528h24v24h-24zM816 576h24v24h-24zM768 624h24v24h-24zM744 648h24v24h-24zM672 720h24v24h-24zM648 744h24v24h-24zM600 792h24v24h-24zM600 720h24v24h-24zM576 720h24v24h-24zM528 768h24v24h-24zM504 792h24v24h-24zM528 816h24v24h-24zM576 864h24v24h-24zM600 888h24v24h-24zM600 936h24v24h-24z"/></svg>