<svg xmlns="http://www.w3.org/2000/svg" width="960" height="960" viewBox="0 0 960 960" shape-rendering="crispEdges"><path fill="#000" d="M0 0h960v960h-960z"/><path fill="#486ca3" d="M0 0h12v12h-12zM0 72h12v12h-12zM0 144h12v12h-12zM0 216h12v12h-12zM0 288h12v12h-12zM0 648h12v12h-12zM0 720h12v12h-12zM0 792h12v12h-12zM0 864h12v12h-12zM0 936h12v12h-12zM12 60h12v12h-12zM12 132h12v12h-12zM12 204h12v12h-12zM12 276h12v12h-12zM12 640h12v8h-12zM12 708h12v12h-12zM12 780h12v12h-12zM12 852h12v12h-12zM12 924h12v12h-12zM24 48h12v12h-12zM24 120h12v12h-12zM24 192h12v12h-12zM24 264h12v12h-12zM24 696h12v12h-12zM24 768h12v12h-12zM24 840h12v12h-12zM24 912h12v12h-12zM36 36h12v12h-12zM36 108h12v12h-12zM36 180h12v12h-12zM36 252h12v12h-12zM36 684h12v12h-12zM36 756h12v12h-12zM36 828h12v12h-12zM36 900h12v12h-12zM48 24h12v12h-12zM48 96h12v12h-12zM48 168h12v12h-12zM48 240h12v12h-12zM48 312h12v8h-12zM48 672h12v12h-12zM48 744h12v12h-12zM48 816h12v12h-12zM48 888h12v12h-12zM60 12h12v12h-12zM60 84h12v12h-12zM60 156h12v12h-12zM60 228h12v12h-12zM60 300h12v12h-12zM60 660h12v12h-12zM60 732h12v12h-12zM60 804h12v12h-12zM60 876h12v12h-12zM60 948h12v12h-12zM72 0h12v12h-12zM72 72h12v12h-12zM72 144h12v12h-12zM72 216h12v12h-12zM72 288h12v12h-12zM72 648h12v12h-12zM72 720h12v12h-12zM72 792h12v12h-12zM72 864h12v12h-12zM72 936h12v12h-12zM84 60h12v12h-12zM84 132h12v12h-12zM84 204h12v12h-12zM84 276h12v12h-12zM84 640h12v8h-12zM84 708h12v12h-12zM84 780h12v12h-12zM84 852h12v12h-12zM84 924h12v12h-12zM96 48h12v12h-12zM96 120h12v12h-12zM96 192h12v12h-12zM96 264h12v12h-12zM96 696h12v12h-12zM96 768h12v12h-12zM96 840h12v12h-12zM96 912h12v12h-12zM108 36h12v12h-12zM108 108h12v12h-12zM108 180h12v12h-12zM108 252h12v12h-12zM108 684h12v12h-12zM108 756h12v12h-12zM108 828h12v12h-12zM108 900h12v12h-12zM120 24h12v12h-12zM120 96h12v12h-12zM120 168h12v12h-12zM120 240h12v12h-12zM120 312h12v8h-12zM120 672h12v12h-12zM120 744h12v12h-12zM120 816h12v12h-12zM120 888h12v12h-12zM132 12h12v12h-12zM132 84h12v12h-12zM132 156h12v12h-12zM132 228h12v12h-12zM132 300h12v12h-12zM132 660h12v12h-12zM132 732h12v12h-12zM132 804h12v12h-12zM132 876h12v12h-12zM132 948h12v12h-12zM144 0h12v12h-12zM144 72h12v12h-12zM144 144h12v12h-12zM144 216h12v12h-12zM144 288h12v12h-12zM144 648h12v12h-12zM144 720h12v12h-12zM144 792h12v12h-12zM144 864h12v12h-12zM144 936h12v12h-12zM156 60h12v12h-12zM156 132h12v12h-12zM156 204h12v12h-12zM156 276h12v12h-12zM156 640h12v8h-12zM156 708h12v12h-12zM156 780h12v12h-12zM156 852h12v12h-12zM156 924h12v12h-12zM168 48h12v12h-12zM168 120h12v12h-12zM168 192h12v12h-12zM168 264h12v12h-12zM168 696h12v12h-12zM168 768h12v12h-12zM168 840h12v12h-12zM168 912h12v12h-12zM180 36h12v12h-12zM180 108h12v12h-12zM180 180h12v12h-12zM180 252h12v12h-12zM180 684h12v12h-12zM180 756h12v12h-12zM180 828h12v12h-12zM180 900h12v12h-12zM192 24h12v12h-12zM192 96h12v12h-12zM192 168h12v12h-12zM192 240h12v12h-12zM192 312h12v8h-12zM192 672h12v12h-12zM192 744h12v12h-12zM192 816h12v12h-12zM192 888h12v12h-12zM204 12h12v12h-12zM204 84h12v12h-12zM204 156h12v12h-12zM204 228h12v12h-12zM204 300h12v12h-12zM204 660h12v12h-12zM204 732h12v12h-12zM204 804h12v12h-12zM204 876h12v12h-12zM204 948h12v12h-12zM216 0h12v12h-12zM216 72h12v12h-12zM216 144h12v12h-12zM216 216h12v12h-12zM216 288h12v12h-12zM216 648h12v12h-12zM216 720h12v12h-12zM216 792h12v12h-12zM216 864h12v12h-12zM216 936h12v12h-12zM228 60h12v12h-12zM228 132h12v12h-12zM228 204h12v12h-12zM228 276h12v12h-12zM228 640h12v8h-12zM228 708h12v12h-12zM228 780h12v12h-12zM228 852h12v12h-12zM228 924h12v12h-12zM240 48h12v12h-12zM240 120h12v12h-12zM240 192h12v12h-12zM240 264h12v12h-12zM240 696h12v12h-12zM240 768h12v12h-12zM240 840h12v12h-12zM240 912h12v12h-12zM252 36h12v12h-12zM252 108h12v12h-12zM252 180h12v12h-12zM252 252h12v12h-12zM252 684h12v12h-12zM252 756h12v12h-12zM252 828h12v12h-12zM252 900h12v12h-12zM264 24h12v12h-12zM264 96h12v12h-12zM264 168h12v12h-12zM264 240h12v12h-12zM264 312h12v8h-12zM264 672h12v12h-12zM264 744h12v12h-12zM264 816h12v12h-12zM264 888h12v12h-12zM276 12h12v12h-12zM276 84h12v12h-12zM276 156h12v12h-12zM276 228h12v12h-12zM276 300h12v12h-12zM276 660h12v12h-12zM276 732h12v12h-12zM276 804h12v12h-12zM276 876h12v12h-12zM276 948h12v12h-12zM288 0h12v12h-12zM288 72h12v12h-12zM288 144h12v12h-12zM288 216h12v12h-12zM288 288h12v12h-12zM288 648h12v12h-12zM288 720h12v12h-12zM288 792h12v12h-12zM288 864h12v12h-12zM288 936h12v12h-12zM300 60h12v12h-12zM300 132h12v12h-12zM300 204h12v12h-12zM300 276h12v12h-12zM300 640h12v8h-12zM300 708h12v12h-12zM300 780h12v12h-12zM300 852h12v12h-12zM300 924h12v12h-12zM312 48h12v12h-12zM312 120h12v12h-12zM312 192h12v12h-12zM312 264h12v12h-12zM312 696h12v12h-12zM312 768h12v12h-12zM312 840h12v12h-12zM312 912h12v12h-12zM324 36h12v12h-12zM324 108h12v12h-12zM324 180h12v12h-12zM324 252h12v12h-12zM324 684h12v12h-12zM324 756h12v12h-12zM324 828h12v12h-12zM324 900h12v12h-12zM336 24h12v12h-12zM336 96h12v12h-12zM336 168h12v12h-12zM336 240h12v12h-12zM336 312h12v8h-12zM336 672h12v12h-12zM336 744h12v12h-12zM336 816h12v12h-12zM336 888h12v12h-12zM348 12h12v12h-12zM348 84h12v12h-12zM348 156h12v12h-12zM348 228h12v12h-12zM348 300h12v12h-12zM348 660h12v12h-12zM348 732h12v12h-12zM348 804h12v12h-12zM348 876h12v12h-12zM348 948h12v12h-12zM360 0h12v12h-12zM360 72h12v12h-12zM360 144h12v12h-12zM360 216h12v12h-12zM360 288h12v12h-12zM360 648h12v12h-12zM360 720h12v12h-12zM360 792h12v12h-12zM360 864h12v12h-12zM360 936h12v12h-12zM372 60h12v12h-12zM372 132h12v12h-12zM372 204h12v12h-12zM372 276h12v12h-12zM372 640h12v8h-12zM372 708h12v12h-12zM372 780h12v12h-12zM372 852h12v12h-12zM372 924h12v12h-12zM384 48h12v12h-12zM384 120h12v12h-12zM384 192h12v12h-12zM384 264h12v12h-12zM384 696h12v12h-12zM384 768h12v12h-12zM384 840h12v12h-12zM384 912h12v12h-12zM396 36h12v12h-12zM396 108h12v12h-12zM396 180h12v12h-12zM396 252h12v12h-12zM396 684h12v12h-12zM396 756h12v12h-12zM396 828h12v12h-12zM396 900h12v12h-12zM408 24h12v12h-12zM408 96h12v12h-12zM408 168h12v12h-12zM408 240h12v12h-12zM408 312h12v8h-12zM408 672h12v12h-12zM408 744h12v12h-12zM408 816h12v12h-12zM408 888h12v12h-12zM420 12h12v12h-12zM420 84h12v12h-12zM420 156h12v12h-12zM420 228h12v12h-12zM420 300h12v12h-12zM420 660h12v12h-12zM420 732h12v12h-12zM420 804h12v12h-12zM420 876h12v12h-12zM420 948h12v12h-12zM432 0h12v12h-12zM432 72h12v12h-12zM432 144h12v12h-12zM432 216h12v12h-12zM432 288h12v12h-12zM432 648h12v12h-12zM432 720h12v12h-12zM432 792h12v12h-12zM432 864h12v12h-12zM432 936h12v12h-12zM444 60h12v12h-12zM444 132h12v12h-12zM444 204h12v12h-12zM444 276h12v12h-12zM444 640h12v8h-12zM444 708h12v12h-12zM444 780h12v12h-12zM444 852h12v12h-12zM444 924h12v12h-12zM456 48h12v12h-12zM456 120h12v12h-12zM456 192h12v12h-12zM456 264h12v12h-12zM456 696h12v12h-12zM456 768h12v12h-12zM456 840h12v12h-12zM456 912h12v12h-12zM468 36h12v12h-12zM468 108h12v12h-12zM468 180h12v12h-12zM468 252h12v12h-12zM468 684h12v12h-12zM468 756h12v12h-12zM468 828h12v12h-12zM468 900h12v12h-12zM480 24h12v12h-12zM480 96h12v12h-12zM480 168h12v12h-12zM480 240h12v12h-12zM480 312h12v8h-12zM480 672h12v12h-12zM480 744h12v12h-12zM480 816h12v12h-12zM480 888h12v12h-12zM492 12h12v12h-12zM492 84h12v12h-12zM492 156h12v12h-12zM492 228h12v12h-12zM492 300h12v12h-12zM492 660h12v12h-12zM492 732h12v12h-12zM492 804h12v12h-12zM492 876h12v12h-12zM492 948h12v12h-12zM504 0h12v12h-12zM504 72h12v12h-12zM504 144h12v12h-12zM504 216h12v12h-12zM504 288h12v12h-12zM504 648h12v12h-12zM504 720h12v12h-12zM504 792h12v12h-12zM504 864h12v12h-12zM504 936h12v12h-12zM516 60h12v12h-12zM516 132h12v12h-12zM516 204h12v12h-12zM516 276h12v12h-12zM516 640h12v8h-12zM516 708h12v12h-12zM516 780h12v12h-12zM516 852h12v12h-12zM516 924h12v12h-12zM528 48h12v12h-12zM528 120h12v12h-12zM528 192h12v12h-12zM528 264h12v12h-12zM528 696h12v12h-12zM528 768h12v12h-12zM528 840h12v12h-12zM528 912h12v12h-12zM540 36h12v12h-12zM540 108h12v12h-12zM540 180h12v12h-12zM540 252h12v12h-12zM540 684h12v12h-12zM540 756h12v12h-12zM540 828h12v12h-12zM540 900h12v12h-12zM552 24h12v12h-12zM552 96h12v12h-12zM552 168h12v12h-12zM552 240h12v12h-12zM552 312h12v8h-12zM552 672h12v12h-12zM552 744h12v12h-12zM552 816h12v12h-12zM552 888h12v12h-12zM564 12h12v12h-12zM564 84h12v12h-12zM564 156h12v12h-12zM564 228h12v12h-12zM564 300h12v12h-12zM564 660h12v12h-12zM564 732h12v12h-12zM564 804h12v12h-12zM564 876h12v12h-12zM564 948h12v12h-12zM576 0h12v12h-12zM576 72h12v12h-12zM576 144h12v12h-12zM576 216h12v12h-12zM576 288h12v12h-12zM576 648h12v12h-12zM576 720h12v12h-12zM576 792h12v12h-12zM576 864h12v12h-12zM576 936h12v12h-12zM588 60h12v12h-12zM588 132h12v12h-12zM588 204h12v12h-12zM588 276h12v12h-12zM588 640h12v8h-12zM588 708h12v12h-12zM588 780h12v12h-12zM588 852h12v12h-12zM588 924h12v12h-12zM600 48h12v12h-12zM600 120h12v12h-12zM600 192h12v12h-12zM600 264h12v12h-12zM600 696h12v12h-12zM600 768h12v12h-12zM600 840h12v12h-12zM600 912h12v12h-12zM612 36h12v12h-12zM612 108h12v12h-12zM612 180h12v12h-12zM612 252h12v12h-12zM612 684h12v12h-12zM612 756h12v12h-12zM612 828h12v12h-12zM612 900h12v12h-12zM624 24h12v12h-12zM624 96h12v12h-12zM624 168h12v12h-12zM624 240h12v12h-12zM624 312h12v8h-12zM624 672h12v12h-12zM624 744h12v12h-12zM624 816h12v12h-12zM624 888h12v12h-12zM636 12h12v12h-12zM636 84h12v12h-12zM636 156h12v12h-12zM636 228h12v12h-12zM636 300h12v12h-12zM636 660h12v12h-12zM636 732h12v12h-12zM636 804h12v12h-12zM636 876h12v12h-12zM636 948h12v12h-12zM648 0h12v12h-12zM648 72h12v12h-12zM648 144h12v12h-12zM648 216h12v12h-12zM648 288h12v12h-12zM648 648h12v12h-12zM648 720h12v12h-12zM648 792h12v12h-12zM648 864h12v12h-12zM648 936h12v12h-12zM660 60h12v12h-12zM660 132h12v12h-12zM660 204h12v12h-12zM660 276h12v12h-12zM660 640h12v8h-12zM660 708h12v12h-12zM660 780h12v12h-12zM660 852h12v12h-12zM660 924h12v12h-12zM672 48h12v12h-12zM672 120h12v12h-12zM672 192h12v12h-12zM672 264h12v12h-12zM672 696h12v12h-12zM672 768h12v12h-12zM672 840h12v12h-12zM672 912h12v12h-12zM684 36h12v12h-12zM684 108h12v12h-12zM684 180h12v12h-12zM684 252h12v12h-12zM684 684h12v12h-12zM684 756h12v12h-12zM684 828h12v12h-12zM684 900h12v12h-12zM696 24h12v12h-12zM696 96h12v12h-12zM696 168h12v12h-12zM696 240h12v12h-12zM696 312h12v8h-12zM696 672h12v12h-12zM696 744h12v12h-12zM696 816h12v12h-12zM696 888h12v12h-12zM708 12h12v12h-12zM708 84h12v12h-12zM708 156h12v12h-12zM708 228h12v12h-12zM708 300h12v12h-12zM708 660h12v12h-12zM708 732h12v12h-12zM708 804h12v12h-12zM708 876h12v12h-12zM708 948h12v12h-12zM720 0h12v12h-12zM720 72h12v12h-12zM720 144h12v12h-12zM720 216h12v12h-12zM720 288h12v12h-12zM720 648h12v12h-12zM720 720h12v12h-12zM720 792h12v12h-12zM720 864h12v12h-12zM720 936h12v12h-12zM732 60h12v12h-12zM732 132h12v12h-12zM732 204h12v12h-12zM732 276h12v12h-12zM732 640h12v8h-12zM732 708h12v12h-12zM732 780h12v12h-12zM732 852h12v12h-12zM732 924h12v12h-12zM744 48h12v12h-12zM744 120h12v12h-12zM744 192h12v12h-12zM744 264h12v12h-12zM744 696h12v12h-12zM744 768h12v12h-12zM744 840h12v12h-12zM744 912h12v12h-12zM756 36h12v12h-12zM756 108h12v12h-12zM756 180h12v12h-12zM756 252h12v12h-12zM756 684h12v12h-12zM756 756h12v12h-12zM756 828h12v12h-12zM756 900h12v12h-12zM768 24h12v12h-12zM768 96h12v12h-12zM768 168h12v12h-12zM768 240h12v12h-12zM768 312h12v8h-12zM768 672h12v12h-12zM768 744h12v12h-12zM768 816h12v12h-12zM768 888h12v12h-12zM780 12h12v12h-12zM780 84h12v12h-12zM780 156h12v12h-12zM780 228h12v12h-12zM780 300h12v12h-12zM780 660h12v12h-12zM780 732h12v12h-12zM780 804h12v12h-12zM780 876h12v12h-12zM780 948h12v12h-12zM792 0h12v12h-12zM792 72h12v12h-12zM792 144h12v12h-12zM792 216h12v12h-12zM792 288h12v12h-12zM792 648h12v12h-12zM792 720h12v12h-12zM792 792h12v12h-12zM792 864h12v12h-12zM792 936h12v12h-12zM804 60h12v12h-12zM804 132h12v12h-12zM804 204h12v12h-12zM804 276h12v12h-12zM804 640h12v8h-12zM804 708h12v12h-12zM804 780h12v12h-12zM804 852h12v12h-12zM804 924h12v12h-12zM816 48h12v12h-12zM816 120h12v12h-12zM816 192h12v12h-12zM816 264h12v12h-12zM816 696h12v12h-12zM816 768h12v12h-12zM816 840h12v12h-12zM816 912h12v12h-12zM828 36h12v12h-12zM828 108h12v12h-12zM828 180h12v12h-12zM828 252h12v12h-12zM828 684h12v12h-12zM828 756h12v12h-12zM828 828h12v12h-12zM828 900h12v12h-12zM840 24h12v12h-12zM840 96h12v12h-12zM840 168h12v12h-12zM840 240h12v12h-12zM840 312h12v8h-12zM840 672h12v12h-12zM840 744h12v12h-12zM840 816h12v12h-12zM840 888h12v12h-12zM852 12h12v12h-12zM852 84h12v12h-12zM852 156h12v12h-12zM852 228h12v12h-12zM852 300h12v12h-12zM852 660h12v12h-12zM852 732h12v12h-12zM852 804h12v12h-12zM852 876h12v12h-12zM852 948h12v12h-12zM864 0h12v12h-12zM864 72h12v12h-12zM864 144h12v12h-12zM864 216h12v12h-12zM864 288h12v12h-12zM864 648h12v12h-12zM864 720h12v12h-12zM864 792h12v12h-12zM864 864h12v12h-12zM864 936h12v12h-12zM876 60h12v12h-12zM876 132h12v12h-12zM876 204h12v12h-12zM876 276h12v12h-12zM876 640h12v8h-12zM876 708h12v12h-12zM876 780h12v12h-12zM876 852h12v12h-12zM876 924h12v12h-12zM888 48h12v12h-12zM888 120h12v12h-12zM888 192h12v12h-12zM888 264h12v12h-12zM888 696h12v12h-12zM888 768h12v12h-12zM888 840h12v12h-12zM888 912h12v12h-12zM900 36h12v12h-12zM900 108h12v12h-12zM900 180h12v12h-12zM900 252h12v12h-12zM900 684h12v12h-12zM900 756h12v12h-12zM900 828h12v12h-12zM900 900h12v12h-12zM912 24h12v12h-12zM912 96h12v12h-12zM912 168h12v12h-12zM912 240h12v12h-12zM912 312h12v8h-12zM912 672h12v12h-12zM912 744h12v12h-12zM912 816h12v12h-12zM912 888h12v12h-12zM924 12h12v12h-12zM924 84h12v12h-12zM924 156h12v12h-12zM924 228h12v12h-12zM924 300h12v12h-12zM924 660h12v12h-12zM924 732h12v12h-12zM924 804h12v12h-12zM924 876h12v12h-12zM924 948h12v12h-12zM936 0h12v12h-12zM936 72h12v12h-12zM936 144h12v12h-12zM936 216h12v12h-12zM936 288h12v12h-12zM936 648h12v12h-12zM936 720h12v12h-12zM936 792h12v12h-12zM936 864h12v12h-12zM936 936h12v12h-12zM948 60h12v12h-12zM948 132h12v12h-12zM948 204h12v12h-12zM948 276h12v12h-12zM948 640h12v8h-12zM948 708h12v12h-12zM948 780h12v12h-12zM948 852h12v12h-12zM948 924h12v12h-12z"/><path fill="#999df5" d="M57 0h6v24h-6zM48 9h24v6h-24zM33 24h6v24h-6zM24 33h24v6h-24zM81 24h6v24h-6zM72 33h24v6h-24zM9 48h6v24h-6zM0 57h24v6h-24zM57 48h6v24h-6zM48 57h24v6h-24zM33 72h6v24h-6zM24 81h24v6h-24zM201 0h6v24h-6zM192 9h24v6h-24zM249 0h6v24h-6zM240 9h24v6h-24zM249 24h6v24h-6zM240 33h24v6h-24zM273 24h6v24h-6zM264 33h24v6h-24zM201 48h6v24h-6zM192 57h24v6h-24zM225 48h6v24h-6zM216 57h24v6h-24zM225 72h6v24h-6zM216 81h24v6h-24zM273 72h6v24h-6zM264 81h24v6h-24zM441 0h6v24h-6zM432 9h24v6h-24zM465 0h6v24h-6zM456 9h24v6h-24zM441 24h6v24h-6zM432 33h24v6h-24zM465 24h6v24h-6zM456 33h24v6h-24zM393 48h6v24h-6zM384 57h24v6h-24zM417 48h6v24h-6zM408 57h24v6h-24zM393 72h6v24h-6zM384 81h24v6h-24zM417 72h6v24h-6zM408 81h24v6h-24zM513 24h6v24h-6zM504 33h24v6h-24zM537 24h6v24h-6zM528 33h24v6h-24zM513 48h6v24h-6zM504 57h24v6h-24zM537 48h6v24h-6zM528 57h24v6h-24zM585 0h6v24h-6zM576 9h24v6h-24zM657 0h6v24h-6zM648 9h24v6h-24zM585 48h6v24h-6zM576 57h24v6h-24zM657 48h6v24h-6zM648 57h24v6h-24zM705 0h6v24h-6zM696 9h24v6h-24zM681 24h6v24h-6zM672 33h24v6h-24zM753 48h6v24h-6zM744 57h24v6h-24zM729 72h6v24h-6zM720 81h24v6h-24zM777 0h6v24h-6zM768 9h24v6h-24zM849 0h6v24h-6zM840 9h24v6h-24zM825 24h6v24h-6zM816 33h24v6h-24zM801 48h6v24h-6zM792 57h24v6h-24zM825 48h6v24h-6zM816 57h24v6h-24zM777 72h6v24h-6zM768 81h24v6h-24zM849 72h6v24h-6zM840 81h24v6h-24zM873 0h6v24h-6zM864 9h24v6h-24zM897 0h6v24h-6zM888 9h24v6h-24zM921 72h6v24h-6zM912 81h24v6h-24zM945 72h6v24h-6zM936 81h24v6h-24zM513 96h6v24h-6zM504 105h24v6h-24zM561 96h6v24h-6zM552 105h24v6h-24zM489 120h6v24h-6zM480 129h24v6h-24zM537 120h6v24h-6zM528 129h24v6h-24zM513 144h6v24h-6zM504 153h24v6h-24zM561 144h6v24h-6zM552 153h24v6h-24zM489 168h6v24h-6zM480 177h24v6h-24zM537 168h6v24h-6zM528 177h24v6h-24zM633 96h6v24h-6zM624 105h24v6h-24zM657 96h6v24h-6zM648 105h24v6h-24zM585 168h6v24h-6zM576 177h24v6h-24zM609 168h6v24h-6zM600 177h24v6h-24zM705 96h6v24h-6zM696 105h24v6h-24zM729 96h6v24h-6zM720 105h24v6h-24zM729 120h6v24h-6zM720 129h24v6h-24zM705 168h6v24h-6zM696 177h24v6h-24zM777 96h6v24h-6zM768 105h24v6h-24zM849 96h6v24h-6zM840 105h24v6h-24zM801 120h6v24h-6zM792 129h24v6h-24zM825 120h6v24h-6zM816 129h24v6h-24zM801 144h6v24h-6zM792 153h24v6h-24zM777 168h6v24h-6zM768 177h24v6h-24zM849 168h6v24h-6zM840 177h24v6h-24zM897 96h6v24h-6zM888 105h24v6h-24zM873 120h6v24h-6zM864 129h24v6h-24zM945 144h6v24h-6zM936 153h24v6h-24zM921 168h6v24h-6zM912 177h24v6h-24zM33 192h6v24h-6zM24 201h24v6h-24zM81 192h6v24h-6zM72 201h24v6h-24zM33 264h6v24h-6zM24 273h24v6h-24zM81 264h6v24h-6zM72 273h24v6h-24zM201 192h6v24h-6zM192 201h24v6h-24zM201 216h6v24h-6zM192 225h24v6h-24zM273 240h6v24h-6zM264 249h24v6h-24zM273 264h6v24h-6zM264 273h24v6h-24zM393 192h6v24h-6zM384 201h24v6h-24zM465 192h6v24h-6zM456 201h24v6h-24zM417 216h6v24h-6zM408 225h24v6h-24zM441 240h6v24h-6zM432 249h24v6h-24zM393 264h6v24h-6zM384 273h24v6h-24zM465 264h6v24h-6zM456 273h24v6h-24zM513 192h6v24h-6zM504 201h24v6h-24zM561 192h6v24h-6zM552 201h24v6h-24zM537 216h6v24h-6zM528 225h24v6h-24zM537 240h6v24h-6zM528 249h24v6h-24zM513 264h6v24h-6zM504 273h24v6h-24zM561 264h6v24h-6zM552 273h24v6h-24zM609 192h6v24h-6zM600 201h24v6h-24zM657 192h6v24h-6zM648 201h24v6h-24zM585 216h6v24h-6zM576 225h24v6h-24zM633 216h6v24h-6zM624 225h24v6h-24zM609 240h6v24h-6zM600 249h24v6h-24zM657 240h6v24h-6zM648 249h24v6h-24zM585 264h6v24h-6zM576 273h24v6h-24zM633 264h6v24h-6zM624 273h24v6h-24zM681 192h6v24h-6zM672 201h24v6h-24zM705 192h6v24h-6zM696 201h24v6h-24zM753 192h6v24h-6zM744 201h24v6h-24zM681 216h6v24h-6zM672 225h24v6h-24zM729 216h6v24h-6zM720 225h24v6h-24zM705 240h6v24h-6zM696 249h24v6h-24zM681 264h6v24h-6zM672 273h24v6h-24zM801 192h6v24h-6zM792 201h24v6h-24zM849 192h6v24h-6zM840 201h24v6h-24zM777 216h6v24h-6zM768 225h24v6h-24zM849 240h6v24h-6zM840 249h24v6h-24zM777 264h6v24h-6zM768 273h24v6h-24zM825 264h6v24h-6zM816 273h24v6h-24zM873 192h6v24h-6zM864 201h24v6h-24zM897 216h6v24h-6zM888 225h24v6h-24zM873 240h6v24h-6zM864 249h24v6h-24zM921 240h6v24h-6zM912 249h24v6h-24zM873 264h6v24h-6zM864 273h24v6h-24zM897 264h6v24h-6zM888 273h24v6h-24zM945 264h6v24h-6zM936 273h24v6h-24zM9 288h6v24h-6zM0 297h24v6h-24zM33 288h6v24h-6zM24 297h24v6h-24zM57 360h6v24h-6zM48 369h24v6h-24zM81 360h6v24h-6zM72 369h24v6h-24zM105 288h6v24h-6zM96 297h24v6h-24zM177 288h6v24h-6zM168 297h24v6h-24zM153 312h6v24h-6zM144 321h24v6h-24zM129 336h6v24h-6zM120 345h24v6h-24zM153 336h6v24h-6zM144 345h24v6h-24zM105 360h6v24h-6zM96 369h24v6h-24zM177 360h6v24h-6zM168 369h24v6h-24zM201 288h6v24h-6zM192 297h24v6h-24zM273 288h6v24h-6zM264 297h24v6h-24zM225 312h6v24h-6zM216 321h24v6h-24zM249 312h6v24h-6zM240 321h24v6h-24zM249 336h6v24h-6zM240 345h24v6h-24zM201 360h6v24h-6zM192 369h24v6h-24zM273 360h6v24h-6zM264 369h24v6h-24zM369 288h6v24h-6zM360 297h24v6h-24zM345 312h6v24h-6zM336 321h24v6h-24zM321 336h6v24h-6zM312 345h24v6h-24zM369 336h6v24h-6zM360 345h24v6h-24zM297 360h6v24h-6zM288 369h24v6h-24zM345 360h6v24h-6zM336 369h24v6h-24zM369 360h6v24h-6zM360 369h24v6h-24zM393 288h6v24h-6zM384 297h24v6h-24zM465 288h6v24h-6zM456 297h24v6h-24zM417 312h6v24h-6zM408 321h24v6h-24zM441 312h6v24h-6zM432 321h24v6h-24zM417 336h6v24h-6zM408 345h24v6h-24zM441 336h6v24h-6zM432 345h24v6h-24zM393 360h6v24h-6zM384 369h24v6h-24zM465 360h6v24h-6zM456 369h24v6h-24zM9 384h6v24h-6zM0 393h24v6h-24zM33 384h6v24h-6zM24 393h24v6h-24zM57 456h6v24h-6zM48 465h24v6h-24zM81 456h6v24h-6zM72 465h24v6h-24zM105 384h6v24h-6zM96 393h24v6h-24zM129 384h6v24h-6zM120 393h24v6h-24zM153 456h6v24h-6zM144 465h24v6h-24zM177 456h6v24h-6zM168 465h24v6h-24zM225 384h6v24h-6zM216 393h24v6h-24zM273 384h6v24h-6zM264 393h24v6h-24zM249 408h6v24h-6zM240 417h24v6h-24zM249 432h6v24h-6zM240 441h24v6h-24zM225 456h6v24h-6zM216 465h24v6h-24zM273 456h6v24h-6zM264 465h24v6h-24zM333 420h6v24h-6zM324 429h24v6h-24zM417 384h6v24h-6zM408 393h24v6h-24zM441 384h6v24h-6zM432 393h24v6h-24zM417 456h6v24h-6zM408 465h24v6h-24zM441 456h6v24h-6zM432 465h24v6h-24zM585 384h6v24h-6zM576 393h24v6h-24zM609 408h6v24h-6zM600 417h24v6h-24zM633 432h6v24h-6zM624 441h24v6h-24zM657 456h6v24h-6zM648 465h24v6h-24zM777 384h6v24h-6zM768 393h24v6h-24zM849 384h6v24h-6zM840 393h24v6h-24zM825 408h6v24h-6zM816 417h24v6h-24zM801 432h6v24h-6zM792 441h24v6h-24zM825 432h6v24h-6zM816 441h24v6h-24zM777 456h6v24h-6zM768 465h24v6h-24zM849 456h6v24h-6zM840 465h24v6h-24zM9 480h6v24h-6zM0 489h24v6h-24zM81 480h6v24h-6zM72 489h24v6h-24zM9 552h6v24h-6zM0 561h24v6h-24zM81 552h6v24h-6zM72 561h24v6h-24zM177 624h6v24h-6zM168 633h24v6h-24zM129 480h6v24h-6zM120 489h24v6h-24zM153 480h6v24h-6zM144 489h24v6h-24zM129 504h6v24h-6zM120 513h24v6h-24zM177 504h6v24h-6zM168 513h24v6h-24zM105 528h6v24h-6zM96 537h24v6h-24zM153 528h6v24h-6zM144 537h24v6h-24zM129 552h6v24h-6zM120 561h24v6h-24zM153 552h6v24h-6zM144 561h24v6h-24zM249 480h6v24h-6zM240 489h24v6h-24zM201 504h6v24h-6zM192 513h24v6h-24zM225 504h6v24h-6zM216 513h24v6h-24zM273 504h6v24h-6zM264 513h24v6h-24zM201 528h6v24h-6zM192 537h24v6h-24zM249 528h6v24h-6zM240 537h24v6h-24zM273 528h6v24h-6zM264 537h24v6h-24zM225 552h6v24h-6zM216 561h24v6h-24zM297 480h6v24h-6zM288 489h24v6h-24zM345 480h6v24h-6zM336 489h24v6h-24zM345 504h6v24h-6zM336 513h24v6h-24zM369 504h6v24h-6zM360 513h24v6h-24zM297 528h6v24h-6zM288 537h24v6h-24zM321 528h6v24h-6zM312 537h24v6h-24zM321 552h6v24h-6zM312 561h24v6h-24zM369 552h6v24h-6zM360 561h24v6h-24zM417 480h6v24h-6zM408 489h24v6h-24zM465 480h6v24h-6zM456 489h24v6h-24zM393 504h6v24h-6zM384 513h24v6h-24zM465 528h6v24h-6zM456 537h24v6h-24zM393 552h6v24h-6zM384 561h24v6h-24zM441 552h6v24h-6zM432 561h24v6h-24zM9 576h6v24h-6zM0 585h24v6h-24zM81 576h6v24h-6zM72 585h24v6h-24zM33 600h6v24h-6zM24 609h24v6h-24zM57 600h6v24h-6zM48 609h24v6h-24zM57 624h6v24h-6zM48 633h24v6h-24zM9 648h6v24h-6zM0 657h24v6h-24zM81 648h6v24h-6zM72 657h24v6h-24zM225 576h6v24h-6zM216 585h24v6h-24zM249 624h6v24h-6zM240 633h24v6h-24zM225 648h6v24h-6zM216 657h24v6h-24zM249 648h6v24h-6zM240 657h24v6h-24zM393 576h6v24h-6zM384 585h24v6h-24zM465 576h6v24h-6zM456 585h24v6h-24zM417 624h6v24h-6zM408 633h24v6h-24zM441 624h6v24h-6zM432 633h24v6h-24zM393 648h6v24h-6zM384 657h24v6h-24zM465 648h6v24h-6zM456 657h24v6h-24zM537 576h6v24h-6zM528 585h24v6h-24zM489 600h6v24h-6zM480 609h24v6h-24zM513 600h6v24h-6zM504 609h24v6h-24zM561 600h6v24h-6zM552 609h24v6h-24zM489 624h6v24h-6zM480 633h24v6h-24zM537 624h6v24h-6zM528 633h24v6h-24zM561 624h6v24h-6zM552 633h24v6h-24zM513 648h6v24h-6zM504 657h24v6h-24zM585 576h6v24h-6zM576 585h24v6h-24zM657 576h6v24h-6zM648 585h24v6h-24zM609 600h6v24h-6zM600 609h24v6h-24zM609 624h6v24h-6zM600 633h24v6h-24zM633 624h6v24h-6zM624 633h24v6h-24zM585 648h6v24h-6zM576 657h24v6h-24zM657 648h6v24h-6zM648 657h24v6h-24zM705 576h6v24h-6zM696 585h24v6h-24zM753 576h6v24h-6zM744 585h24v6h-24zM705 648h6v24h-6zM696 657h24v6h-24zM753 648h6v24h-6zM744 657h24v6h-24zM777 600h6v24h-6zM768 609h24v6h-24zM849 600h6v24h-6zM840 609h24v6h-24zM777 624h6v24h-6zM768 633h24v6h-24zM801 624h6v24h-6zM792 633h24v6h-24zM873 576h6v24h-6zM864 585h24v6h-24zM945 576h6v24h-6zM936 585h24v6h-24zM921 600h6v24h-6zM912 609h24v6h-24zM897 624h6v24h-6zM888 633h24v6h-24zM873 648h6v24h-6zM864 657h24v6h-24zM945 648h6v24h-6zM936 657h24v6h-24zM489 672h6v24h-6zM480 681h24v6h-24zM513 696h6v24h-6zM504 705h24v6h-24zM489 720h6v24h-6zM480 729h24v6h-24zM537 720h6v24h-6zM528 729h24v6h-24zM489 744h6v24h-6zM480 753h24v6h-24zM513 744h6v24h-6zM504 753h24v6h-24zM561 744h6v24h-6zM552 753h24v6h-24zM585 672h6v24h-6zM576 681h24v6h-24zM633 672h6v24h-6zM624 681h24v6h-24zM657 672h6v24h-6zM648 681h24v6h-24zM609 696h6v24h-6zM600 705h24v6h-24zM657 696h6v24h-6zM648 705h24v6h-24zM633 720h6v24h-6zM624 729h24v6h-24zM657 744h6v24h-6zM648 753h24v6h-24zM705 672h6v24h-6zM696 681h24v6h-24zM681 696h6v24h-6zM672 705h24v6h-24zM729 696h6v24h-6zM720 705h24v6h-24zM705 720h6v24h-6zM696 729h24v6h-24zM753 720h6v24h-6zM744 729h24v6h-24zM729 744h6v24h-6zM720 753h24v6h-24zM777 672h6v24h-6zM768 681h24v6h-24zM849 672h6v24h-6zM840 681h24v6h-24zM825 696h6v24h-6zM816 705h24v6h-24zM801 720h6v24h-6zM792 729h24v6h-24zM777 744h6v24h-6zM768 753h24v6h-24zM849 744h6v24h-6zM840 753h24v6h-24zM921 672h6v24h-6zM912 681h24v6h-24zM945 672h6v24h-6zM936 681h24v6h-24zM921 696h6v24h-6zM912 705h24v6h-24zM945 696h6v24h-6zM936 705h24v6h-24zM873 720h6v24h-6zM864 729h24v6h-24zM897 720h6v24h-6zM888 729h24v6h-24zM873 744h6v24h-6zM864 753h24v6h-24zM897 744h6v24h-6zM888 753h24v6h-24zM45 804h6v24h-6zM36 813h24v6h-24zM225 768h6v24h-6zM216 777h24v6h-24zM201 792h6v24h-6zM192 801h24v6h-24zM249 792h6v24h-6zM240 801h24v6h-24zM225 816h6v24h-6zM216 825h24v6h-24zM273 816h6v24h-6zM264 825h24v6h-24zM249 840h6v24h-6zM240 849h24v6h-24zM465 768h6v24h-6zM456 777h24v6h-24zM441 792h6v24h-6zM432 801h24v6h-24zM417 816h6v24h-6zM408 825h24v6h-24zM465 816h6v24h-6zM456 825h24v6h-24zM393 840h6v24h-6zM384 849h24v6h-24zM441 840h6v24h-6zM432 849h24v6h-24zM465 840h6v24h-6zM456 849h24v6h-24zM513 768h6v24h-6zM504 777h24v6h-24zM489 792h6v24h-6zM480 801h24v6h-24zM537 792h6v24h-6zM528 801h24v6h-24zM561 792h6v24h-6zM552 801h24v6h-24zM489 816h6v24h-6zM480 825h24v6h-24zM513 816h6v24h-6zM504 825h24v6h-24zM561 816h6v24h-6zM552 825h24v6h-24zM537 840h6v24h-6zM528 849h24v6h-24zM585 768h6v24h-6zM576 777h24v6h-24zM657 768h6v24h-6zM648 777h24v6h-24zM585 840h6v24h-6zM576 849h24v6h-24zM657 840h6v24h-6zM648 849h24v6h-24zM681 768h6v24h-6zM672 777h24v6h-24zM753 768h6v24h-6zM744 777h24v6h-24zM681 840h6v24h-6zM672 849h24v6h-24zM753 840h6v24h-6zM744 849h24v6h-24zM801 768h6v24h-6zM792 777h24v6h-24zM777 792h6v24h-6zM768 801h24v6h-24zM825 792h6v24h-6zM816 801h24v6h-24zM801 816h6v24h-6zM792 825h24v6h-24zM849 816h6v24h-6zM840 825h24v6h-24zM825 840h6v24h-6zM816 849h24v6h-24zM909 804h6v24h-6zM900 813h24v6h-24zM513 864h6v24h-6zM504 873h24v6h-24zM561 864h6v24h-6zM552 873h24v6h-24zM489 888h6v24h-6zM480 897h24v6h-24zM561 912h6v24h-6zM552 921h24v6h-24zM489 936h6v24h-6zM480 945h24v6h-24zM537 936h6v24h-6zM528 945h24v6h-24zM585 864h6v24h-6zM576 873h24v6h-24zM657 864h6v24h-6zM648 873h24v6h-24zM609 888h6v24h-6zM600 897h24v6h-24zM633 888h6v24h-6zM624 897h24v6h-24zM609 912h6v24h-6zM600 921h24v6h-24zM633 912h6v24h-6zM624 921h24v6h-24zM585 936h6v24h-6zM576 945h24v6h-24zM657 936h6v24h-6zM648 945h24v6h-24zM681 888h6v24h-6zM672 897h24v6h-24zM753 888h6v24h-6zM744 897h24v6h-24zM681 912h6v24h-6zM672 921h24v6h-24zM705 912h6v24h-6zM696 921h24v6h-24zM801 864h6v24h-6zM792 873h24v6h-24zM777 888h6v24h-6zM768 897h24v6h-24zM849 912h6v24h-6zM840 921h24v6h-24zM825 936h6v24h-6zM816 945h24v6h-24zM897 864h6v24h-6zM888 873h24v6h-24zM921 912h6v24h-6zM912 921h24v6h-24zM897 936h6v24h-6zM888 945h24v6h-24zM921 936h6v24h-6zM912 945h24v6h-24zM489 288h6v24h-6zM480 297h24v6h-24zM561 288h6v24h-6zM552 297h24v6h-24zM513 312h6v24h-6zM504 321h24v6h-24zM537 336h6v24h-6zM528 345h24v6h-24zM489 360h6v24h-6zM480 369h24v6h-24zM561 360h6v24h-6zM552 369h24v6h-24zM129 768h6v24h-6zM120 777h24v6h-24zM105 792h6v24h-6zM96 801h24v6h-24zM153 792h6v24h-6zM144 801h24v6h-24zM129 816h6v24h-6zM120 825h24v6h-24zM177 816h6v24h-6zM168 825h24v6h-24zM153 840h6v24h-6zM144 849h24v6h-24zM681 288h6v24h-6zM672 297h24v6h-24zM753 288h6v24h-6zM744 297h24v6h-24zM729 312h6v24h-6zM720 321h24v6h-24zM705 336h6v24h-6zM696 345h24v6h-24zM729 336h6v24h-6zM720 345h24v6h-24zM681 360h6v24h-6zM672 369h24v6h-24zM753 360h6v24h-6zM744 369h24v6h-24zM777 288h6v24h-6zM768 297h24v6h-24zM801 288h6v24h-6zM792 297h24v6h-24zM849 288h6v24h-6zM840 297h24v6h-24zM777 312h6v24h-6zM768 321h24v6h-24zM825 312h6v24h-6zM816 321h24v6h-24zM801 336h6v24h-6zM792 345h24v6h-24zM777 360h6v24h-6zM768 369h24v6h-24zM777 480h6v24h-6zM768 489h24v6h-24zM849 480h6v24h-6zM840 489h24v6h-24zM825 504h6v24h-6zM816 513h24v6h-24zM801 528h6v24h-6zM792 537h24v6h-24zM777 552h6v24h-6zM768 561h24v6h-24zM849 552h6v24h-6zM840 561h24v6h-24zM369 672h6v24h-6zM360 681h24v6h-24zM345 696h6v24h-6zM336 705h24v6h-24zM321 720h6v24h-6zM312 729h24v6h-24zM369 720h6v24h-6zM360 729h24v6h-24zM297 744h6v24h-6zM288 753h24v6h-24zM345 744h6v24h-6zM336 753h24v6h-24zM369 744h6v24h-6zM360 753h24v6h-24zM681 480h6v24h-6zM672 489h24v6h-24zM753 480h6v24h-6zM744 489h24v6h-24zM729 504h6v24h-6zM720 513h24v6h-24zM705 528h6v24h-6zM696 537h24v6h-24zM729 528h6v24h-6zM720 537h24v6h-24zM681 552h6v24h-6zM672 561h24v6h-24zM753 552h6v24h-6zM744 561h24v6h-24zM681 384h6v24h-6zM672 393h24v6h-24zM753 384h6v24h-6zM744 393h24v6h-24zM729 408h6v24h-6zM720 417h24v6h-24zM705 432h6v24h-6zM696 441h24v6h-24zM729 432h6v24h-6zM720 441h24v6h-24zM681 456h6v24h-6zM672 465h24v6h-24zM753 456h6v24h-6zM744 465h24v6h-24z"/><path fill="#fff" d="M240 456h24v24h-24zM216 432h24v24h-24zM192 408h24v24h-24zM168 384h24v24h-24zM144 360h24v24h-24zM120 336h24v24h-24zM96 312h24v24h-24zM72 288h24v24h-24zM48 264h24v24h-24zM24 240h24v24h-24zM24 264h24v24h-24zM24 288h24v24h-24zM24 312h24v24h-24zM24 336h24v24h-24zM24 360h24v24h-24zM24 384h24v24h-24zM48 360h24v24h-24zM72 336h24v24h-24zM120 288h24v24h-24zM144 264h24v24h-24zM168 240h24v24h-24zM168 264h24v24h-24zM168 288h24v24h-24zM168 312h24v24h-24zM168 216h24v24h-24zM168 192h24v24h-24zM168 168h24v24h-24zM168 144h24v24h-24zM168 120h24v24h-24zM168 96h24v24h-24zM168 72h24v24h-24zM168 48h24v24h-24zM168 24h24v24h-24zM168 0h24v24h-24zM192 0h24v24h-24zM216 0h24v24h-24zM240 0h24v24h-24zM264 0h24v24h-24zM288 0h24v24h-24zM312 0h24v24h-24zM336 0h24v24h-24zM360 0h24v24h-24zM384 0h24v24h-24zM408 0h24v24h-24zM432 0h24v24h-24zM456 0h24v24h-24zM336 24h24v24h-24zM336 48h24v24h-24zM312 72h24v24h-24zM288 96h24v24h-24zM264 120h24v24h-24zM240 144h24v24h-24zM216 168h24v24h-24zM192 192h24v24h-24zM144 240h24v24h-24zM120 216h24v24h-24zM96 192h24v24h-24zM72 168h24v24h-24zM48 144h24v24h-24zM24 120h24v24h-24zM0 96h24v24h-24zM24 72h24v24h-24zM48 48h24v24h-24zM48 72h24v24h-24zM48 96h24v24h-24zM48 120h24v24h-24zM48 168h24v24h-24zM48 192h24v24h-24zM48 216h24v24h-24zM48 240h24v24h-24zM48 288h24v24h-24zM48 312h24v24h-24zM48 336h24v24h-24zM48 384h24v24h-24zM48 408h24v24h-24zM48 432h24v24h-24zM48 456h24v24h-24zM72 432h24v24h-24zM72 408h24v24h-24zM72 384h24v24h-24zM72 360h24v24h-24zM72 312h24v24h-24zM72 264h24v24h-24zM72 240h24v24h-24zM72 216h24v24h-24zM72 192h24v24h-24zM72 144h24v24h-24zM120 192h24v24h-24zM144 192h24v24h-24zM216 192h24v24h-24zM240 192h24v24h-24zM264 192h24v24h-24zM288 192h24v24h-24zM288 216h24v24h-24zM288 240h24v24h-24zM288 264h24v24h-24zM288 288h24v24h-24zM288 312h24v24h-24zM288 336h24v24h-24zM288 360h24v24h-24zM288 384h24v24h-24zM288 408h24v24h-24zM288 432h24v24h-24zM288 456h24v24h-24zM312 456h24v24h-24zM336 456h24v24h-24zM360 456h24v24h-24zM384 456h24v24h-24zM360 432h24v24h-24zM336 408h24v24h-24zM312 384h24v24h-24zM264 336h24v24h-24zM240 312h24v24h-24zM216 288h24v24h-24zM192 264h24v24h-24zM144 216h24v24h-24zM96 168h24v24h-24zM24 96h24v24h-24zM0 72h24v24h-24zM0 120h24v24h-24zM0 144h24v24h-24zM0 168h24v24h-24zM0 192h24v24h-24zM0 216h24v24h-24zM0 240h24v24h-24zM0 264h24v24h-24zM0 288h24v24h-24zM0 312h24v24h-24zM0 336h24v24h-24zM0 360h24v24h-24zM0 384h24v24h-24zM0 408h24v24h-24zM0 432h24v24h-24zM0 456h24v24h-24zM0 48h24v24h-24zM0 24h24v24h-24zM24 24h24v24h-24zM48 24h24v24h-24zM72 24h24v24h-24zM96 24h24v24h-24zM120 24h24v24h-24zM144 24h24v24h-24zM192 24h24v24h-24zM216 24h24v24h-24zM240 24h24v24h-24zM264 24h24v24h-24zM288 24h24v24h-24zM312 24h24v24h-24zM360 24h24v24h-24zM384 24h24v24h-24zM408 24h24v24h-24zM432 24h24v24h-24zM456 24h24v24h-24zM432 48h24v24h-24zM408 72h24v24h-24zM384 96h24v24h-24zM360 120h24v24h-24zM336 144h24v24h-24zM312 168h24v24h-24zM264 216h24v24h-24zM240 240h24v24h-24zM216 264h24v24h-24zM120 264h24v24h-24zM96 264h24v24h-24zM96 288h24v24h-24zM240 480h24v24h-24zM216 504h24v24h-24zM192 528h24v24h-24zM168 552h24v24h-24zM144 576h24v24h-24zM120 600h24v24h-24zM96 624h24v24h-24zM72 648h24v24h-24zM48 672h24v24h-24zM24 696h24v24h-24zM24 672h24v24h-24zM24 648h24v24h-24zM24 624h24v24h-24zM24 600h24v24h-24zM24 576h24v24h-24zM24 552h24v24h-24zM48 576h24v24h-24zM72 600h24v24h-24zM120 648h24v24h-24zM144 672h24v24h-24zM168 696h24v24h-24zM168 672h24v24h-24zM168 648h24v24h-24zM168 624h24v24h-24zM168 720h24v24h-24zM168 744h24v24h-24zM168 768h24v24h-24zM168 792h24v24h-24zM168 816h24v24h-24zM168 840h24v24h-24zM168 864h24v24h-24zM168 888h24v24h-24zM168 912h24v24h-24zM168 936h24v24h-24zM192 936h24v24h-24zM216 936h24v24h-24zM240 936h24v24h-24zM264 936h24v24h-24zM288 936h24v24h-24zM312 936h24v24h-24zM336 936h24v24h-24zM360 936h24v24h-24zM384 936h24v24h-24zM408 936h24v24h-24zM432 936h24v24h-24zM456 936h24v24h-24zM336 912h24v24h-24zM336 888h24v24h-24zM312 864h24v24h-24zM288 840h24v24h-24zM264 816h24v24h-24zM240 792h24v24h-24zM216 768h24v24h-24zM192 744h24v24h-24zM144 696h24v24h-24zM120 720h24v24h-24zM96 744h24v24h-24zM72 768h24v24h-24zM48 792h24v24h-24zM24 816h24v24h-24zM0 840h24v24h-24zM24 864h24v24h-24zM48 888h24v24h-24zM48 864h24v24h-24zM48 840h24v24h-24zM48 816h24v24h-24zM48 768h24v24h-24zM48 744h24v24h-24zM48 720h24v24h-24zM48 696h24v24h-24zM48 648h24v24h-24zM48 624h24v24h-24zM48 600h24v24h-24zM48 552h24v24h-24zM48 528h24v24h-24zM48 504h24v24h-24zM48 480h24v24h-24zM72 504h24v24h-24zM72 528h24v24h-24zM72 552h24v24h-24zM72 576h24v24h-24zM72 624h24v24h-24zM72 672h24v24h-24zM72 696h24v24h-24zM72 720h24v24h-24zM72 744h24v24h-24zM72 792h24v24h-24zM120 744h24v24h-24zM144 744h24v24h-24zM216 744h24v24h-24zM240 744h24v24h-24zM264 744h24v24h-24zM288 744h24v24h-24zM288 720h24v24h-24zM288 696h24v24h-24zM288 672h24v24h-24zM288 648h24v24h-24zM288 624h24v24h-24zM288 600h24v24h-24zM288 576h24v24h-24zM288 552h24v24h-24zM288 528h24v24h-24zM288 504h24v24h-24zM288 480h24v24h-24zM312 480h24v24h-24zM336 480h24v24h-24zM360 480h24v24h-24zM384 480h24v24h-24zM360 504h24v24h-24zM336 528h24v24h-24zM312 552h24v24h-24zM264 600h24v24h-24zM240 624h24v24h-24zM216 648h24v24h-24zM192 672h24v24h-24zM144 720h24v24h-24zM96 768h24v24h-24zM24 840h24v24h-24zM0 864h24v24h-24zM0 816h24v24h-24zM0 792h24v24h-24zM0 768h24v24h-24zM0 744h24v24h-24zM0 720h24v24h-24zM0 696h24v24h-24zM0 672h24v24h-24zM0 648h24v24h-24zM0 624h24v24h-24zM0 600h24v24h-24zM0 576h24v24h-24zM0 552h24v24h-24zM0 528h24v24h-24zM0 504h24v24h-24zM0 480h24v24h-24zM0 888h24v24h-24zM0 912h24v24h-24zM24 912h24v24h-24zM48 912h24v24h-24zM72 912h24v24h-24zM96 912h24v24h-24zM120 912h24v24h-24zM144 912h24v24h-24zM192 912h24v24h-24zM216 912h24v24h-24zM240 912h24v24h-24zM264 912h24v24h-24zM288 912h24v24h-24zM312 912h24v24h-24zM360 912h24v24h-24zM384 912h24v24h-24zM408 912h24v24h-24zM432 912h24v24h-24zM456 912h24v24h-24zM432 888h24v24h-24zM408 864h24v24h-24zM384 840h24v24h-24zM360 816h24v24h-24zM336 792h24v24h-24zM312 768h24v24h-24zM264 720h24v24h-24zM240 696h24v24h-24zM216 672h24v24h-24zM120 672h24v24h-24zM96 672h24v24h-24zM96 648h24v24h-24zM696 456h24v24h-24zM720 432h24v24h-24zM744 408h24v24h-24zM768 384h24v24h-24zM792 360h24v24h-24zM816 336h24v24h-24zM840 312h24v24h-24zM864 288h24v24h-24zM888 264h24v24h-24zM912 240h24v24h-24zM912 264h24v24h-24zM912 288h24v24h-24zM912 312h24v24h-24zM912 336h24v24h-24zM912 360h24v24h-24zM912 384h24v24h-24zM888 360h24v24h-24zM864 336h24v24h-24zM816 288h24v24h-24zM792 264h24v24h-24zM768 240h24v24h-24zM768 264h24v24h-24zM768 288h24v24h-24zM768 312h24v24h-24zM768 216h24v24h-24zM768 192h24v24h-24zM768 168h24v24h-24zM768 144h24v24h-24zM768 120h24v24h-24zM768 96h24v24h-24zM768 72h24v24h-24zM768 48h24v24h-24zM768 24h24v24h-24zM768 0h24v24h-24zM744 0h24v24h-24zM720 0h24v24h-24zM696 0h24v24h-24zM672 0h24v24h-24zM648 0h24v24h-24zM624 0h24v24h-24zM600 0h24v24h-24zM576 0h24v24h-24zM552 0h24v24h-24zM528 0h24v24h-24zM504 0h24v24h-24zM480 0h24v24h-24zM600 24h24v24h-24zM600 48h24v24h-24zM624 72h24v24h-24zM648 96h24v24h-24zM672 120h24v24h-24zM696 144h24v24h-24zM720 168h24v24h-24zM744 192h24v24h-24zM792 240h24v24h-24zM816 216h24v24h-24zM840 192h24v24h-24zM864 168h24v24h-24zM888 144h24v24h-24zM912 120h24v24h-24zM936 96h24v24h-24zM912 72h24v24h-24zM888 48h24v24h-24zM888 72h24v24h-24zM888 96h24v24h-24zM888 120h24v24h-24zM888 168h24v24h-24zM888 192h24v24h-24zM888 216h24v24h-24zM888 240h24v24h-24zM888 288h24v24h-24zM888 312h24v24h-24zM888 336h24v24h-24zM888 384h24v24h-24zM888 408h24v24h-24zM888 432h24v24h-24zM888 456h24v24h-24zM864 432h24v24h-24zM864 408h24v24h-24zM864 384h24v24h-24zM864 360h24v24h-24zM864 312h24v24h-24zM864 264h24v24h-24zM864 240h24v24h-24zM864 216h24v24h-24zM864 192h24v24h-24zM864 144h24v24h-24zM816 192h24v24h-24zM792 192h24v24h-24zM720 192h24v24h-24zM696 192h24v24h-24zM672 192h24v24h-24zM648 192h24v24h-24zM648 216h24v24h-24zM648 240h24v24h-24zM648 264h24v24h-24zM648 288h24v24h-24zM648 312h24v24h-24zM648 336h24v24h-24zM648 360h24v24h-24zM648 384h24v24h-24zM648 408h24v24h-24zM648 432h24v24h-24zM648 456h24v24h-24zM624 456h24v24h-24zM600 456h24v24h-24zM576 456h24v24h-24zM552 456h24v24h-24zM576 432h24v24h-24zM600 408h24v24h-24zM624 384h24v24h-24zM672 336h24v24h-24zM696 312h24v24h-24zM720 288h24v24h-24zM744 264h24v24h-24zM792 216h24v24h-24zM840 168h24v24h-24zM912 96h24v24h-24zM936 72h24v24h-24zM936 120h24v24h-24zM936 144h24v24h-24zM936 168h24v24h-24zM936 192h24v24h-24zM936 216h24v24h-24zM936 240h24v24h-24zM936 264h24v24h-24zM936 288h24v24h-24zM936 312h24v24h-24zM936 336h24v24h-24zM936 360h24v24h-24zM936 384h24v24h-24zM936 408h24v24h-24zM936 432h24v24h-24zM936 456h24v24h-24zM936 48h24v24h-24zM936 24h24v24h-24zM912 24h24v24h-24zM888 24h24v24h-24zM864 24h24v24h-24zM840 24h24v24h-24zM816 24h24v24h-24zM792 24h24v24h-24zM744 24h24v24h-24zM720 24h24v24h-24zM696 24h24v24h-24zM672 24h24v24h-24zM648 24h24v24h-24zM624 24h24v24h-24zM576 24h24v24h-24zM552 24h24v24h-24zM528 24h24v24h-24zM504 24h24v24h-24zM480 24h24v24h-24zM504 48h24v24h-24zM528 72h24v24h-24zM552 96h24v24h-24zM576 120h24v24h-24zM600 144h24v24h-24zM624 168h24v24h-24zM672 216h24v24h-24zM696 240h24v24h-24zM720 264h24v24h-24zM816 264h24v24h-24zM840 264h24v24h-24zM840 288h24v24h-24zM696 480h24v24h-24zM720 504h24v24h-24zM744 528h24v24h-24zM768 552h24v24h-24zM792 576h24v24h-24zM816 600h24v24h-24zM840 624h24v24h-24zM864 648h24v24h-24zM888 672h24v24h-24zM912 696h24v24h-24zM912 672h24v24h-24zM912 648h24v24h-24zM912 624h24v24h-24zM912 600h24v24h-24zM912 576h24v24h-24zM912 552h24v24h-24zM888 576h24v24h-24zM864 600h24v24h-24zM816 648h24v24h-24zM792 672h24v24h-24zM768 696h24v24h-24zM768 672h24v24h-24zM768 648h24v24h-24zM768 624h24v24h-24zM768 720h24v24h-24zM768 744h24v24h-24zM768 768h24v24h-24zM768 792h24v24h-24zM768 816h24v24h-24zM768 840h24v24h-24zM768 864h24v24h-24zM768 888h24v24h-24zM768 912h24v24h-24zM768 936h24v24h-24zM744 936h24v24h-24zM720 936h24v24h-24zM696 936h24v24h-24zM672 936h24v24h-24zM648 936h24v24h-24zM624 936h24v24h-24zM600 936h24v24h-24zM576 936h24v24h-24zM552 936h24v24h-24zM528 936h24v24h-24zM504 936h24v24h-24zM480 936h24v24h-24zM600 912h24v24h-24zM600 888h24v24h-24zM624 864h24v24h-24zM648 840h24v24h-24zM672 816h24v24h-24zM696 792h24v24h-24zM720 768h24v24h-24zM744 744h24v24h-24zM792 696h24v24h-24zM816 720h24v24h-24zM840 744h24v24h-24zM864 768h24v24h-24zM888 792h24v24h-24zM912 816h24v24h-24zM936 840h24v24h-24zM912 864h24v24h-24zM888 888h24v24h-24zM888 864h24v24h-24zM888 840h24v24h-24zM888 816h24v24h-24zM888 768h24v24h-24zM888 744h24v24h-24zM888 720h24v24h-24zM888 696h24v24h-24zM888 648h24v24h-24zM888 624h24v24h-24zM888 600h24v24h-24zM888 552h24v24h-24zM888 528h24v24h-24zM888 504h24v24h-24zM888 480h24v24h-24zM864 504h24v24h-24zM864 528h24v24h-24zM864 552h24v24h-24zM864 576h24v24h-24zM864 624h24v24h-24zM864 672h24v24h-24zM864 696h24v24h-24zM864 720h24v24h-24zM864 744h24v24h-24zM864 792h24v24h-24zM816 744h24v24h-24zM792 744h24v24h-24zM720 744h24v24h-24zM696 744h24v24h-24zM672 744h24v24h-24zM648 744h24v24h-24zM648 720h24v24h-24zM648 696h24v24h-24zM648 672h24v24h-24zM648 648h24v24h-24zM648 624h24v24h-24zM648 600h24v24h-24zM648 576h24v24h-24zM648 552h24v24h-24zM648 528h24v24h-24zM648 504h24v24h-24zM648 480h24v24h-24zM624 480h24v24h-24zM600 480h24v24h-24zM576 480h24v24h-24zM552 480h24v24h-24zM576 504h24v24h-24zM600 528h24v24h-24zM624 552h24v24h-24zM672 600h24v24h-24zM696 624h24v24h-24zM720 648h24v24h-24zM744 672h24v24h-24zM792 720h24v24h-24zM840 768h24v24h-24zM912 840h24v24h-24zM936 864h24v24h-24zM936 816h24v24h-24zM936 792h24v24h-24zM936 768h24v24h-24zM936 744h24v24h-24zM936 720h24v24h-24zM936 696h24v24h-24zM936 672h24v24h-24zM936 648h24v24h-24zM936 624h24v24h-24zM936 600h24v24h-24zM936 576h24v24h-24zM936 552h24v24h-24zM936 528h24v24h-24zM936 504h24v24h-24zM936 480h24v24h-24zM936 888h24v24h-24zM936 912h24v24h-24zM912 912h24v24h-24zM888 912h24v24h-24zM864 912h24v24h-24zM840 912h24v24h-24zM816 912h24v24h-24zM792 912h24v24h-24zM744 912h24v24h-24zM720 912h24v24h-24zM696 912h24v24h-24zM672 912h24v24h-24zM648 912h24v24h-24zM624 912h24v24h-24zM576 912h24v24h-24zM552 912h24v24h-24zM528 912h24v24h-24zM504 912h24v24h-24zM480 912h24v24h-24zM504 888h24v24h-24zM528 864h24v24h-24zM552 840h24v24h-24zM576 816h24v24h-24zM600 792h24v24h-24zM624 768h24v24h-24zM672 720h24v24h-24zM696 696h24v24h-24zM720 672h24v24h-24zM816 672h24v24h-24zM840 672h24v24h-24zM840 648h24v24h-24z"/></svg>