<svg xmlns="http://www.w3.org/2000/svg" width="960" height="960" viewBox="0 0 960 960" shape-rendering="crispEdges"><path fill="#000" d="M0 0h960v960h-960z"/><path fill="#a59e92" d="M0 12h12v12h-12zM0 108h12v12h-12zM0 204h12v12h-12zM0 300h12v12h-12zM0 396h12v12h-12zM12 0h12v12h-12zM12 12h12v12h-12zM12 24h12v12h-12zM12 36h12v12h-12zM12 48h12v12h-12zM12 60h12v12h-12zM12 72h12v12h-12zM12 84h12v12h-12zM12 96h12v12h-12zM12 108h12v12h-12zM12 120h12v12h-12zM12 132h12v12h-12zM12 144h12v12h-12zM12 156h12v12h-12zM12 168h12v12h-12zM12 180h12v12h-12zM12 192h12v12h-12zM12 204h12v12h-12zM12 216h12v12h-12zM12 228h12v12h-12zM12 240h12v12h-12zM12 252h12v12h-12zM12 264h12v12h-12zM12 276h12v12h-12zM12 288h12v12h-12zM12 300h12v12h-12zM12 312h12v12h-12zM12 324h12v12h-12zM12 336h12v12h-12zM12 348h12v12h-12zM12 360h12v12h-12zM12 372h12v12h-12zM12 384h12v12h-12zM12 396h12v12h-12zM12 408h12v12h-12zM12 420h12v12h-12zM12 432h12v12h-12zM12 444h12v12h-12zM12 456h12v12h-12zM12 468h12v12h-12zM24 12h12v12h-12zM24 108h12v12h-12zM24 204h12v12h-12zM24 300h12v12h-12zM24 396h12v12h-12zM36 12h12v12h-12zM36 108h12v12h-12zM36 204h12v12h-12zM36 300h12v12h-12zM36 396h12v12h-12zM48 12h12v12h-12zM48 108h12v12h-12zM48 204h12v12h-12zM48 300h12v12h-12zM48 396h12v12h-12zM60 12h12v12h-12zM60 108h12v12h-12zM60 204h12v12h-12zM60 300h12v12h-12zM60 396h12v12h-12zM72 12h12v12h-12zM72 108h12v12h-12zM72 204h12v12h-12zM72 300h12v12h-12zM72 396h12v12h-12zM84 12h12v12h-12zM84 108h12v12h-12zM84 204h12v12h-12zM84 300h12v12h-12zM84 396h12v12h-12zM96 12h12v12h-12zM96 108h12v12h-12zM96 204h12v12h-12zM96 300h12v12h-12zM96 396h12v12h-12zM108 0h12v12h-12zM108 12h12v12h-12zM108 24h12v12h-12zM108 36h12v12h-12zM108 48h12v12h-12zM108 60h12v12h-12zM108 72h12v12h-12zM108 84h12v12h-12zM108 96h12v12h-12zM108 108h12v12h-12zM108 120h12v12h-12zM108 132h12v12h-12zM108 144h12v12h-12zM108 156h12v12h-12zM108 168h12v12h-12zM108 180h12v12h-12zM108 192h12v12h-12zM108 204h12v12h-12zM108 216h12v12h-12zM108 228h12v12h-12zM108 240h12v12h-12zM108 252h12v12h-12zM108 264h12v12h-12zM108 276h12v12h-12zM108 288h12v12h-12zM108 300h12v12h-12zM108 312h12v12h-12zM108 324h12v12h-12zM108 336h12v12h-12zM108 348h12v12h-12zM108 360h12v12h-12zM108 372h12v12h-12zM108 384h12v12h-12zM108 396h12v12h-12zM108 408h12v12h-12zM108 420h12v12h-12zM108 432h12v12h-12zM108 444h12v12h-12zM108 456h12v12h-12zM108 468h12v12h-12zM120 12h12v12h-12zM120 108h12v12h-12zM120 204h12v12h-12zM120 300h12v12h-12zM120 396h12v12h-12zM132 12h12v12h-12zM132 108h12v12h-12zM132 204h12v12h-12zM132 300h12v12h-12zM132 396h12v12h-12zM144 12h12v12h-12zM144 108h12v12h-12zM144 204h12v12h-12zM144 300h12v12h-12zM144 396h12v12h-12zM156 12h12v12h-12zM156 108h12v12h-12zM156 204h12v12h-12zM156 300h12v12h-12zM156 396h12v12h-12zM168 12h12v12h-12zM168 108h12v12h-12zM168 204h12v12h-12zM168 300h12v12h-12zM168 396h12v12h-12zM180 12h12v12h-12zM180 108h12v12h-12zM180 204h12v12h-12zM180 300h12v12h-12zM180 396h12v12h-12zM192 12h12v12h-12zM192 108h12v12h-12zM192 204h12v12h-12zM192 300h12v12h-12zM192 396h12v12h-12zM204 0h12v12h-12zM204 12h12v12h-12zM204 24h12v12h-12zM204 36h12v12h-12zM204 48h12v12h-12zM204 60h12v12h-12zM204 72h12v12h-12zM204 84h12v12h-12zM204 96h12v12h-12zM204 108h12v12h-12zM204 120h12v12h-12zM204 132h12v12h-12zM204 144h12v12h-12zM204 156h12v12h-12zM204 168h12v12h-12zM204 180h12v12h-12zM204 192h12v12h-12zM204 204h12v12h-12zM204 216h12v12h-12zM204 228h12v12h-12zM204 240h12v12h-12zM204 252h12v12h-12zM204 264h12v12h-12zM204 276h12v12h-12zM204 288h12v12h-12zM204 300h12v12h-12zM204 312h12v12h-12zM204 324h12v12h-12zM204 336h12v12h-12zM204 348h12v12h-12zM204 360h12v12h-12zM204 372h12v12h-12zM204 384h12v12h-12zM204 396h12v12h-12zM204 408h12v12h-12zM204 420h12v12h-12zM204 432h12v12h-12zM204 444h12v12h-12zM204 456h12v12h-12zM204 468h12v12h-12zM216 12h12v12h-12zM216 108h12v12h-12zM216 204h12v12h-12zM216 300h12v12h-12zM216 396h12v12h-12zM228 12h12v12h-12zM228 108h12v12h-12zM228 204h12v12h-12zM228 300h12v12h-12zM228 396h12v12h-12zM240 12h12v12h-12zM240 108h12v12h-12zM240 204h12v12h-12zM240 300h12v12h-12zM240 396h12v12h-12zM252 12h12v12h-12zM252 108h12v12h-12zM252 204h12v12h-12zM252 300h12v12h-12zM252 396h12v12h-12zM264 12h12v12h-12zM264 108h12v12h-12zM264 204h12v12h-12zM264 300h12v12h-12zM264 396h12v12h-12zM276 12h12v12h-12zM276 108h12v12h-12zM276 204h12v12h-12zM276 300h12v12h-12zM276 396h12v12h-12zM288 12h12v12h-12zM288 108h12v12h-12zM288 204h12v12h-12zM288 300h12v12h-12zM288 396h12v12h-12zM300 0h12v12h-12zM300 12h12v12h-12zM300 24h12v12h-12zM300 36h12v12h-12zM300 48h12v12h-12zM300 60h12v12h-12zM300 72h12v12h-12zM300 84h12v12h-12zM300 96h12v12h-12zM300 108h12v12h-12zM300 120h12v12h-12zM300 132h12v12h-12zM300 144h12v12h-12zM300 156h12v12h-12zM300 168h12v12h-12zM300 180h12v12h-12zM300 192h12v12h-12zM300 204h12v12h-12zM300 216h12v12h-12zM300 228h12v12h-12zM300 240h12v12h-12zM300 252h12v12h-12zM300 264h12v12h-12zM300 276h12v12h-12zM300 288h12v12h-12zM300 300h12v12h-12zM300 312h12v12h-12zM300 324h12v12h-12zM300 336h12v12h-12zM300 348h12v12h-12zM300 360h12v12h-12zM300 372h12v12h-12zM300 384h12v12h-12zM300 396h12v12h-12zM300 408h12v12h-12zM300 420h12v12h-12zM300 432h12v12h-12zM300 444h12v12h-12zM300 456h12v12h-12zM300 468h12v12h-12zM312 12h12v12h-12zM312 108h12v12h-12zM312 204h12v12h-12zM312 300h12v12h-12zM312 396h12v12h-12zM324 12h12v12h-12zM324 108h12v12h-12zM324 204h12v12h-12zM324 300h12v12h-12zM324 396h12v12h-12zM336 12h12v12h-12zM336 108h12v12h-12zM336 204h12v12h-12zM336 300h12v12h-12zM336 396h12v12h-12zM348 12h12v12h-12zM348 108h12v12h-12zM348 204h12v12h-12zM348 300h12v12h-12zM348 396h12v12h-12zM360 12h12v12h-12zM360 108h12v12h-12zM360 204h12v12h-12zM360 300h12v12h-12zM360 396h12v12h-12zM372 12h12v12h-12zM372 108h12v12h-12zM372 204h12v12h-12zM372 300h12v12h-12zM372 396h12v12h-12zM384 12h12v12h-12zM384 108h12v12h-12zM384 204h12v12h-12zM384 300h12v12h-12zM384 396h12v12h-12zM396 0h12v12h-12zM396 12h12v12h-12zM396 24h12v12h-12zM396 36h12v12h-12zM396 48h12v12h-12zM396 60h12v12h-12zM396 72h12v12h-12zM396 84h12v12h-12zM396 96h12v12h-12zM396 108h12v12h-12zM396 120h12v12h-12zM396 132h12v12h-12zM396 144h12v12h-12zM396 156h12v12h-12zM396 168h12v12h-12zM396 180h12v12h-12zM396 192h12v12h-12zM396 204h12v12h-12zM396 216h12v12h-12zM396 228h12v12h-12zM396 240h12v12h-12zM396 252h12v12h-12zM396 264h12v12h-12zM396 276h12v12h-12zM396 288h12v12h-12zM396 300h12v12h-12zM396 312h12v12h-12zM396 324h12v12h-12zM396 336h12v12h-12zM396 348h12v12h-12zM396 360h12v12h-12zM396 372h12v12h-12zM396 384h12v12h-12zM396 396h12v12h-12zM396 408h12v12h-12zM396 420h12v12h-12zM396 432h12v12h-12zM396 444h12v12h-12zM396 456h12v12h-12zM396 468h12v12h-12zM408 12h12v12h-12zM408 108h12v12h-12zM408 204h12v12h-12zM408 300h12v12h-12zM408 396h12v12h-12zM420 12h12v12h-12zM420 108h12v12h-12zM420 204h12v12h-12zM420 300h12v12h-12zM420 396h12v12h-12zM432 12h12v12h-12zM432 108h12v12h-12zM432 204h12v12h-12zM432 300h12v12h-12zM432 396h12v12h-12zM444 12h12v12h-12zM444 108h12v12h-12zM444 204h12v12h-12zM444 300h12v12h-12zM444 396h12v12h-12zM456 12h12v12h-12zM456 108h12v12h-12zM456 204h12v12h-12zM456 300h12v12h-12zM456 396h12v12h-12zM468 12h12v12h-12zM468 108h12v12h-12zM468 204h12v12h-12zM468 300h12v12h-12zM468 396h12v12h-12zM480 12h12v12h-12zM480 108h12v12h-12zM480 204h12v12h-12zM480 300h12v12h-12zM480 396h12v12h-12zM492 0h12v12h-12zM492 12h12v12h-12zM492 24h12v12h-12zM492 36h12v12h-12zM492 48h12v12h-12zM492 60h12v12h-12zM492 72h12v12h-12zM492 84h12v12h-12zM492 96h12v12h-12zM492 108h12v12h-12zM492 120h12v12h-12zM492 132h12v12h-12zM492 144h12v12h-12zM492 156h12v12h-12zM492 168h12v12h-12zM492 180h12v12h-12zM492 192h12v12h-12zM492 204h12v12h-12zM492 216h12v12h-12zM492 228h12v12h-12zM492 240h12v12h-12zM492 252h12v12h-12zM492 264h12v12h-12zM492 276h12v12h-12zM492 288h12v12h-12zM492 300h12v12h-12zM492 312h12v12h-12zM492 324h12v12h-12zM492 336h12v12h-12zM492 348h12v12h-12zM492 360h12v12h-12zM492 372h12v12h-12zM492 384h12v12h-12zM492 396h12v12h-12zM492 408h12v12h-12zM492 420h12v12h-12zM492 432h12v12h-12zM492 444h12v12h-12zM492 456h12v12h-12zM492 468h12v12h-12zM504 12h12v12h-12zM504 108h12v12h-12zM504 204h12v12h-12zM504 300h12v12h-12zM504 396h12v12h-12zM516 12h12v12h-12zM516 108h12v12h-12zM516 204h12v12h-12zM516 300h12v12h-12zM516 396h12v12h-12zM528 12h12v12h-12zM528 108h12v12h-12zM528 204h12v12h-12zM528 300h12v12h-12zM528 396h12v12h-12zM540 12h12v12h-12zM540 108h12v12h-12zM540 204h12v12h-12zM540 300h12v12h-12zM540 396h12v12h-12zM552 12h12v12h-12zM552 108h12v12h-12zM552 204h12v12h-12zM552 300h12v12h-12zM552 396h12v12h-12zM564 12h12v12h-12zM564 108h12v12h-12zM564 204h12v12h-12zM564 300h12v12h-12zM564 396h12v12h-12zM576 12h12v12h-12zM576 108h12v12h-12zM576 204h12v12h-12zM576 300h12v12h-12zM576 396h12v12h-12zM588 0h12v12h-12zM588 12h12v12h-12zM588 24h12v12h-12zM588 36h12v12h-12zM588 48h12v12h-12zM588 60h12v12h-12zM588 72h12v12h-12zM588 84h12v12h-12zM588 96h12v12h-12zM588 108h12v12h-12zM588 120h12v12h-12zM588 132h12v12h-12zM588 144h12v12h-12zM588 156h12v12h-12zM588 168h12v12h-12zM588 180h12v12h-12zM588 192h12v12h-12zM588 204h12v12h-12zM588 216h12v12h-12zM588 228h12v12h-12zM588 240h12v12h-12zM588 252h12v12h-12zM588 264h12v12h-12zM588 276h12v12h-12zM588 288h12v12h-12zM588 300h12v12h-12zM588 312h12v12h-12zM588 324h12v12h-12zM588 336h12v12h-12zM588 348h12v12h-12zM588 360h12v12h-12zM588 372h12v12h-12zM588 384h12v12h-12zM588 396h12v12h-12zM588 408h12v12h-12zM588 420h12v12h-12zM588 432h12v12h-12zM588 444h12v12h-12zM588 456h12v12h-12zM588 468h12v12h-12zM600 12h12v12h-12zM600 108h12v12h-12zM600 204h12v12h-12zM600 300h12v12h-12zM600 396h12v12h-12zM612 12h12v12h-12zM612 108h12v12h-12zM612 204h12v12h-12zM612 300h12v12h-12zM612 396h12v12h-12zM624 12h12v12h-12zM624 108h12v12h-12zM624 204h12v12h-12zM624 300h12v12h-12zM624 396h12v12h-12zM636 12h12v12h-12zM636 108h12v12h-12zM636 204h12v12h-12zM636 300h12v12h-12zM636 396h12v12h-12zM648 12h12v12h-12zM648 108h12v12h-12zM648 204h12v12h-12zM648 300h12v12h-12zM648 396h12v12h-12zM660 12h12v12h-12zM660 108h12v12h-12zM660 204h12v12h-12zM660 300h12v12h-12zM660 396h12v12h-12zM672 12h12v12h-12zM672 108h12v12h-12zM672 204h12v12h-12zM672 300h12v12h-12zM672 396h12v12h-12zM684 0h12v12h-12zM684 12h12v12h-12zM684 24h12v12h-12zM684 36h12v12h-12zM684 48h12v12h-12zM684 60h12v12h-12zM684 72h12v12h-12zM684 84h12v12h-12zM684 96h12v12h-12zM684 108h12v12h-12zM684 120h12v12h-12zM684 132h12v12h-12zM684 144h12v12h-12zM684 156h12v12h-12zM684 168h12v12h-12zM684 180h12v12h-12zM684 192h12v12h-12zM684 204h12v12h-12zM684 216h12v12h-12zM684 228h12v12h-12zM684 240h12v12h-12zM684 252h12v12h-12zM684 264h12v12h-12zM684 276h12v12h-12zM684 288h12v12h-12zM684 300h12v12h-12zM684 312h12v12h-12zM684 324h12v12h-12zM684 336h12v12h-12zM684 348h12v12h-12zM684 360h12v12h-12zM684 372h12v12h-12zM684 384h12v12h-12zM684 396h12v12h-12zM684 408h12v12h-12zM684 420h12v12h-12zM684 432h12v12h-12zM684 444h12v12h-12zM684 456h12v12h-12zM684 468h12v12h-12zM696 12h12v12h-12zM696 108h12v12h-12zM696 204h12v12h-12zM696 300h12v12h-12zM696 396h12v12h-12zM708 12h12v12h-12zM708 108h12v12h-12zM708 204h12v12h-12zM708 300h12v12h-12zM708 396h12v12h-12zM720 12h12v12h-12zM720 108h12v12h-12zM720 204h12v12h-12zM720 300h12v12h-12zM720 396h12v12h-12zM732 12h12v12h-12zM732 108h12v12h-12zM732 204h12v12h-12zM732 300h12v12h-12zM732 396h12v12h-12zM744 12h12v12h-12zM744 108h12v12h-12zM744 204h12v12h-12zM744 300h12v12h-12zM744 396h12v12h-12zM756 12h12v12h-12zM756 108h12v12h-12zM756 204h12v12h-12zM756 300h12v12h-12zM756 396h12v12h-12zM768 12h12v12h-12zM768 108h12v12h-12zM768 204h12v12h-12zM768 300h12v12h-12zM768 396h12v12h-12zM780 0h12v12h-12zM780 12h12v12h-12zM780 24h12v12h-12zM780 36h12v12h-12zM780 48h12v12h-12zM780 60h12v12h-12zM780 72h12v12h-12zM780 84h12v12h-12zM780 96h12v12h-12zM780 108h12v12h-12zM780 120h12v12h-12zM780 132h12v12h-12zM780 144h12v12h-12zM780 156h12v12h-12zM780 168h12v12h-12zM780 180h12v12h-12zM780 192h12v12h-12zM780 204h12v12h-12zM780 216h12v12h-12zM780 228h12v12h-12zM780 240h12v12h-12zM780 252h12v12h-12zM780 264h12v12h-12zM780 276h12v12h-12zM780 288h12v12h-12zM780 300h12v12h-12zM780 312h12v12h-12zM780 324h12v12h-12zM780 336h12v12h-12zM780 348h12v12h-12zM780 360h12v12h-12zM780 372h12v12h-12zM780 384h12v12h-12zM780 396h12v12h-12zM780 408h12v12h-12zM780 420h12v12h-12zM780 432h12v12h-12zM780 444h12v12h-12zM780 456h12v12h-12zM780 468h12v12h-12zM792 12h12v12h-12zM792 108h12v12h-12zM792 204h12v12h-12zM792 300h12v12h-12zM792 396h12v12h-12zM804 12h12v12h-12zM804 108h12v12h-12zM804 204h12v12h-12zM804 300h12v12h-12zM804 396h12v12h-12zM816 12h12v12h-12zM816 108h12v12h-12zM816 204h12v12h-12zM816 300h12v12h-12zM816 396h12v12h-12zM828 12h12v12h-12zM828 108h12v12h-12zM828 204h12v12h-12zM828 300h12v12h-12zM828 396h12v12h-12zM840 12h12v12h-12zM840 108h12v12h-12zM840 204h12v12h-12zM840 300h12v12h-12zM840 396h12v12h-12zM852 12h12v12h-12zM852 108h12v12h-12zM852 204h12v12h-12zM852 300h12v12h-12zM852 396h12v12h-12zM864 12h12v12h-12zM864 108h12v12h-12zM864 204h12v12h-12zM864 300h12v12h-12zM864 396h12v12h-12zM876 0h12v12h-12zM876 12h12v12h-12zM876 24h12v12h-12zM876 36h12v12h-12zM876 48h12v12h-12zM876 60h12v12h-12zM876 72h12v12h-12zM876 84h12v12h-12zM876 96h12v12h-12zM876 108h12v12h-12zM876 120h12v12h-12zM876 132h12v12h-12zM876 144h12v12h-12zM876 156h12v12h-12zM876 168h12v12h-12zM876 180h12v12h-12zM876 192h12v12h-12zM876 204h12v12h-12zM876 216h12v12h-12zM876 228h12v12h-12zM876 240h12v12h-12zM876 252h12v12h-12zM876 264h12v12h-12zM876 276h12v12h-12zM876 288h12v12h-12zM876 300h12v12h-12zM876 312h12v12h-12zM876 324h12v12h-12zM876 336h12v12h-12zM876 348h12v12h-12zM876 360h12v12h-12zM876 372h12v12h-12zM876 384h12v12h-12zM876 396h12v12h-12zM876 408h12v12h-12zM876 420h12v12h-12zM876 432h12v12h-12zM876 444h12v12h-12zM876 456h12v12h-12zM876 468h12v12h-12zM888 12h12v12h-12zM888 108h12v12h-12zM888 204h12v12h-12zM888 300h12v12h-12zM888 396h12v12h-12zM900 12h12v12h-12zM900 108h12v12h-12zM900 204h12v12h-12zM900 300h12v12h-12zM900 396h12v12h-12zM912 12h12v12h-12zM912 108h12v12h-12zM912 204h12v12h-12zM912 300h12v12h-12zM912 396h12v12h-12zM924 12h12v12h-12zM924 108h12v12h-12zM924 204h12v12h-12zM924 300h12v12h-12zM924 396h12v12h-12zM936 12h12v12h-12zM936 108h12v12h-12zM936 204h12v12h-12zM936 300h12v12h-12zM936 396h12v12h-12zM948 12h12v12h-12zM948 108h12v12h-12zM948 204h12v12h-12zM948 300h12v12h-12zM948 396h12v12h-12z"/><path fill="#0848a0" d="M24 0h24v24h-24zM72 0h24v24h-24zM48 24h24v24h-24zM48 48h24v24h-24zM24 72h24v24h-24zM72 72h24v24h-24zM168 144h24v24h-24zM120 0h24v24h-24zM144 0h24v24h-24zM120 24h24v24h-24zM168 24h24v24h-24zM96 48h24v24h-24zM144 48h24v24h-24zM120 72h24v24h-24zM144 72h24v24h-24zM192 0h24v24h-24zM216 0h24v24h-24zM264 0h24v24h-24zM192 24h24v24h-24zM240 24h24v24h-24zM216 48h24v24h-24zM192 72h24v24h-24zM312 0h24v24h-24zM360 0h24v24h-24zM336 24h24v24h-24zM336 48h24v24h-24zM312 72h24v24h-24zM360 72h24v24h-24zM384 24h24v24h-24zM456 24h24v24h-24zM384 48h24v24h-24zM456 48h24v24h-24zM480 24h24v24h-24zM552 24h24v24h-24zM480 48h24v24h-24zM504 48h24v24h-24zM648 144h24v24h-24zM600 0h24v24h-24zM624 0h24v24h-24zM600 24h24v24h-24zM648 24h24v24h-24zM576 48h24v24h-24zM624 48h24v24h-24zM600 72h24v24h-24zM624 72h24v24h-24zM672 0h24v24h-24zM696 24h24v24h-24zM720 48h24v24h-24zM744 72h24v24h-24zM768 0h24v24h-24zM840 0h24v24h-24zM816 24h24v24h-24zM792 48h24v24h-24zM816 48h24v24h-24zM768 72h24v24h-24zM840 72h24v24h-24zM936 144h24v24h-24zM888 0h24v24h-24zM912 0h24v24h-24zM888 24h24v24h-24zM936 24h24v24h-24zM864 48h24v24h-24zM912 48h24v24h-24zM888 72h24v24h-24zM912 72h24v24h-24zM0 96h24v24h-24zM72 96h24v24h-24zM48 120h24v24h-24zM24 144h24v24h-24zM0 168h24v24h-24zM72 168h24v24h-24zM120 96h24v24h-24zM168 96h24v24h-24zM144 120h24v24h-24zM144 144h24v24h-24zM120 168h24v24h-24zM168 168h24v24h-24zM192 96h24v24h-24zM216 96h24v24h-24zM192 120h24v24h-24zM216 120h24v24h-24zM240 144h24v24h-24zM264 144h24v24h-24zM240 168h24v24h-24zM264 168h24v24h-24zM288 96h24v24h-24zM288 120h24v24h-24zM360 144h24v24h-24zM360 168h24v24h-24zM384 96h24v24h-24zM456 96h24v24h-24zM408 120h24v24h-24zM408 144h24v24h-24zM432 144h24v24h-24zM384 168h24v24h-24zM456 168h24v24h-24zM504 96h24v24h-24zM552 96h24v24h-24zM480 120h24v24h-24zM504 120h24v24h-24zM528 144h24v24h-24zM552 144h24v24h-24zM480 168h24v24h-24zM528 168h24v24h-24zM600 96h24v24h-24zM648 96h24v24h-24zM576 120h24v24h-24zM624 120h24v24h-24zM600 144h24v24h-24zM648 144h24v24h-24zM576 168h24v24h-24zM624 168h24v24h-24zM672 96h24v24h-24zM696 96h24v24h-24zM720 168h24v24h-24zM744 168h24v24h-24zM768 96h24v24h-24zM840 96h24v24h-24zM768 168h24v24h-24zM840 168h24v24h-24zM864 120h24v24h-24zM936 120h24v24h-24zM864 144h24v24h-24zM936 144h24v24h-24zM24 216h24v24h-24zM48 216h24v24h-24zM24 240h24v24h-24zM48 240h24v24h-24zM96 192h24v24h-24zM120 216h24v24h-24zM144 240h24v24h-24zM168 264h24v24h-24zM192 192h24v24h-24zM264 192h24v24h-24zM216 240h24v24h-24zM240 240h24v24h-24zM192 264h24v24h-24zM264 264h24v24h-24zM288 192h24v24h-24zM360 192h24v24h-24zM312 216h24v24h-24zM312 240h24v24h-24zM336 240h24v24h-24zM288 264h24v24h-24zM360 264h24v24h-24zM432 192h24v24h-24zM432 216h24v24h-24zM456 216h24v24h-24zM384 240h24v24h-24zM408 240h24v24h-24zM408 264h24v24h-24zM516 228h24v24h-24zM576 192h24v24h-24zM648 192h24v24h-24zM624 216h24v24h-24zM600 240h24v24h-24zM624 240h24v24h-24zM576 264h24v24h-24zM648 264h24v24h-24zM744 192h24v24h-24zM744 216h24v24h-24zM672 240h24v24h-24zM672 264h24v24h-24zM792 192h24v24h-24zM768 216h24v24h-24zM792 216h24v24h-24zM816 240h24v24h-24zM840 240h24v24h-24zM816 264h24v24h-24zM864 216h24v24h-24zM888 216h24v24h-24zM864 240h24v24h-24zM936 240h24v24h-24zM0 312h24v24h-24zM72 312h24v24h-24zM0 336h24v24h-24zM72 336h24v24h-24zM96 312h24v24h-24zM120 312h24v24h-24zM96 336h24v24h-24zM168 336h24v24h-24zM192 288h24v24h-24zM264 288h24v24h-24zM192 360h24v24h-24zM264 360h24v24h-24zM336 288h24v24h-24zM360 288h24v24h-24zM288 360h24v24h-24zM312 360h24v24h-24zM408 288h24v24h-24zM432 288h24v24h-24zM384 312h24v24h-24zM432 312h24v24h-24zM408 336h24v24h-24zM456 336h24v24h-24zM408 360h24v24h-24zM432 360h24v24h-24zM504 288h24v24h-24zM528 288h24v24h-24zM504 360h24v24h-24zM528 360h24v24h-24zM600 288h24v24h-24zM648 288h24v24h-24zM576 312h24v24h-24zM624 312h24v24h-24zM600 336h24v24h-24zM648 336h24v24h-24zM576 360h24v24h-24zM624 360h24v24h-24zM672 288h24v24h-24zM744 288h24v24h-24zM696 312h24v24h-24zM720 312h24v24h-24zM696 336h24v24h-24zM672 360h24v24h-24zM744 360h24v24h-24zM768 288h24v24h-24zM840 288h24v24h-24zM792 312h24v24h-24zM816 336h24v24h-24zM768 360h24v24h-24zM840 360h24v24h-24zM864 288h24v24h-24zM936 288h24v24h-24zM912 312h24v24h-24zM888 336h24v24h-24zM912 336h24v24h-24zM864 360h24v24h-24zM936 360h24v24h-24zM0 384h24v24h-24zM72 384h24v24h-24zM48 408h24v24h-24zM24 432h24v24h-24zM0 456h24v24h-24zM72 456h24v24h-24zM96 384h24v24h-24zM168 384h24v24h-24zM120 408h24v24h-24zM120 432h24v24h-24zM144 432h24v24h-24zM96 456h24v24h-24zM168 456h24v24h-24zM192 384h24v24h-24zM264 384h24v24h-24zM240 408h24v24h-24zM216 432h24v24h-24zM240 432h24v24h-24zM192 456h24v24h-24zM264 456h24v24h-24zM288 384h24v24h-24zM312 408h24v24h-24zM288 432h24v24h-24zM336 432h24v24h-24zM288 456h24v24h-24zM312 456h24v24h-24zM360 456h24v24h-24zM456 384h24v24h-24zM456 408h24v24h-24zM384 432h24v24h-24zM384 456h24v24h-24zM480 384h24v24h-24zM504 384h24v24h-24zM528 456h24v24h-24zM552 456h24v24h-24zM600 384h24v24h-24zM624 384h24v24h-24zM624 408h24v24h-24zM600 456h24v24h-24zM672 384h24v24h-24zM720 384h24v24h-24zM744 384h24v24h-24zM696 408h24v24h-24zM744 408h24v24h-24zM720 432h24v24h-24zM744 456h24v24h-24zM768 384h24v24h-24zM840 384h24v24h-24zM792 432h24v24h-24zM816 432h24v24h-24zM768 456h24v24h-24zM840 456h24v24h-24zM888 384h24v24h-24zM864 408h24v24h-24zM912 408h24v24h-24zM936 408h24v24h-24zM864 432h24v24h-24zM888 432h24v24h-24zM936 432h24v24h-24zM912 456h24v24h-24zM24 576h24v24h-24zM0 600h24v24h-24zM72 624h24v24h-24zM48 648h24v24h-24zM216 576h24v24h-24zM240 576h24v24h-24zM192 600h24v24h-24zM240 600h24v24h-24zM216 624h24v24h-24zM264 624h24v24h-24zM216 648h24v24h-24zM240 648h24v24h-24zM384 600h24v24h-24zM456 600h24v24h-24zM384 624h24v24h-24zM456 624h24v24h-24zM576 576h24v24h-24zM648 576h24v24h-24zM600 600h24v24h-24zM600 624h24v24h-24zM624 624h24v24h-24zM576 648h24v24h-24zM648 648h24v24h-24zM816 576h24v24h-24zM768 600h24v24h-24zM792 600h24v24h-24zM840 600h24v24h-24zM768 624h24v24h-24zM816 624h24v24h-24zM840 624h24v24h-24zM792 648h24v24h-24zM24 768h24v24h-24zM0 792h24v24h-24zM72 816h24v24h-24zM48 840h24v24h-24zM192 768h24v24h-24zM264 768h24v24h-24zM216 792h24v24h-24zM240 816h24v24h-24zM192 840h24v24h-24zM264 840h24v24h-24zM432 768h24v24h-24zM456 768h24v24h-24zM432 792h24v24h-24zM456 792h24v24h-24zM384 816h24v24h-24zM408 816h24v24h-24zM384 840h24v24h-24zM408 840h24v24h-24zM648 912h24v24h-24zM600 768h24v24h-24zM624 768h24v24h-24zM600 792h24v24h-24zM648 792h24v24h-24zM576 816h24v24h-24zM624 816h24v24h-24zM600 840h24v24h-24zM624 840h24v24h-24zM816 768h24v24h-24zM816 792h24v24h-24zM840 792h24v24h-24zM768 816h24v24h-24zM792 816h24v24h-24zM792 840h24v24h-24zM312 672h24v24h-24zM336 672h24v24h-24zM288 696h24v24h-24zM336 696h24v24h-24zM312 720h24v24h-24zM360 720h24v24h-24zM312 744h24v24h-24zM336 744h24v24h-24zM120 864h24v24h-24zM96 888h24v24h-24zM168 912h24v24h-24zM144 936h24v24h-24zM912 672h24v24h-24zM864 696h24v24h-24zM888 696h24v24h-24zM936 696h24v24h-24zM864 720h24v24h-24zM912 720h24v24h-24zM936 720h24v24h-24zM888 744h24v24h-24zM912 576h24v24h-24zM864 600h24v24h-24zM888 600h24v24h-24zM936 600h24v24h-24zM864 624h24v24h-24zM912 624h24v24h-24zM936 624h24v24h-24zM888 648h24v24h-24zM480 576h24v24h-24zM552 576h24v24h-24zM504 600h24v24h-24zM504 624h24v24h-24zM528 624h24v24h-24zM480 648h24v24h-24zM552 648h24v24h-24zM408 672h24v24h-24zM432 672h24v24h-24zM384 696h24v24h-24zM432 696h24v24h-24zM408 720h24v24h-24zM456 720h24v24h-24zM408 744h24v24h-24zM432 744h24v24h-24zM480 672h24v24h-24zM552 672h24v24h-24zM504 696h24v24h-24zM504 720h24v24h-24zM528 720h24v24h-24zM480 744h24v24h-24zM552 744h24v24h-24zM24 864h24v24h-24zM0 888h24v24h-24zM72 912h24v24h-24zM48 936h24v24h-24z"/><path fill="#fff" d="M408 264h24v24h-24zM384 288h24v24h-24zM360 312h24v24h-24zM336 336h24v24h-24zM312 360h24v24h-24zM288 336h24v24h-24zM264 312h24v24h-24zM240 288h24v24h-24zM216 264h24v24h-24zM192 240h24v24h-24zM168 216h24v24h-24zM144 192h24v24h-24zM120 168h24v24h-24zM96 144h24v24h-24zM72 120h24v24h-24zM48 96h24v24h-24zM48 72h24v24h-24zM72 96h24v24h-24zM96 120h24v24h-24zM120 144h24v24h-24zM144 144h24v24h-24zM168 144h24v24h-24zM192 144h24v24h-24zM216 144h24v24h-24zM240 144h24v24h-24zM264 144h24v24h-24zM288 120h24v24h-24zM312 96h24v24h-24zM336 72h24v24h-24zM360 48h24v24h-24zM384 24h24v24h-24zM360 24h24v24h-24zM336 24h24v24h-24zM312 24h24v24h-24zM288 24h24v24h-24zM264 24h24v24h-24zM240 24h24v24h-24zM216 24h24v24h-24zM192 24h24v24h-24zM168 24h24v24h-24zM144 24h24v24h-24zM120 24h24v24h-24zM96 24h24v24h-24zM72 24h24v24h-24zM48 24h24v24h-24zM72 48h24v24h-24zM96 72h24v24h-24zM120 96h24v24h-24zM144 120h24v24h-24zM192 168h24v24h-24zM216 192h24v24h-24zM240 216h24v24h-24zM264 240h24v24h-24zM288 264h24v24h-24zM312 288h24v24h-24zM312 312h24v24h-24zM312 336h24v24h-24zM312 384h24v24h-24zM312 408h24v24h-24zM312 432h24v24h-24zM312 456h24v24h-24zM312 480h24v24h-24zM312 504h24v24h-24zM312 528h24v24h-24zM312 552h24v24h-24zM312 576h24v24h-24zM288 600h24v24h-24zM264 624h24v24h-24zM240 648h24v24h-24zM216 672h24v24h-24zM192 696h24v24h-24zM168 720h24v24h-24zM144 744h24v24h-24zM120 720h24v24h-24zM96 696h24v24h-24zM72 672h24v24h-24zM48 648h24v24h-24zM24 624h24v24h-24zM0 600h24v24h-24zM0 576h24v24h-24zM0 552h24v24h-24zM0 528h24v24h-24zM0 504h24v24h-24zM0 480h24v24h-24zM0 456h24v24h-24zM0 432h24v24h-24zM24 456h24v24h-24zM48 456h24v24h-24zM72 456h24v24h-24zM96 456h24v24h-24zM120 456h24v24h-24zM144 456h24v24h-24zM168 456h24v24h-24zM192 432h24v24h-24zM216 408h24v24h-24zM240 384h24v24h-24zM216 360h24v24h-24zM192 336h24v24h-24zM192 312h24v24h-24zM192 288h24v24h-24zM216 288h24v24h-24zM264 288h24v24h-24zM288 288h24v24h-24zM336 288h24v24h-24zM360 288h24v24h-24zM408 288h24v24h-24zM432 288h24v24h-24zM432 264h24v24h-24zM432 240h24v24h-24zM432 216h24v24h-24zM432 192h24v24h-24zM432 168h24v24h-24zM432 144h24v24h-24zM432 120h24v24h-24zM432 96h24v24h-24zM408 96h24v24h-24zM384 96h24v24h-24zM360 96h24v24h-24zM336 96h24v24h-24zM312 120h24v24h-24zM312 144h24v24h-24zM312 168h24v24h-24zM312 192h24v24h-24zM312 216h24v24h-24zM312 240h24v24h-24zM312 264h24v24h-24zM312 600h24v24h-24zM312 624h24v24h-24zM312 648h24v24h-24zM312 672h24v24h-24zM312 696h24v24h-24zM312 720h24v24h-24zM312 744h24v24h-24zM312 768h24v24h-24zM288 792h24v24h-24zM264 816h24v24h-24zM240 840h24v24h-24zM216 864h24v24h-24zM192 888h24v24h-24zM168 912h24v24h-24zM168 888h24v24h-24zM144 888h24v24h-24zM120 888h24v24h-24zM96 888h24v24h-24zM72 888h24v24h-24zM96 864h24v24h-24zM120 840h24v24h-24zM144 816h24v24h-24zM168 792h24v24h-24zM192 768h24v24h-24zM216 744h24v24h-24zM240 720h24v24h-24zM264 696h24v24h-24zM288 672h24v24h-24zM336 624h24v24h-24zM360 600h24v24h-24zM336 576h24v24h-24zM288 528h24v24h-24zM264 504h24v24h-24zM240 480h24v24h-24zM216 456h24v24h-24zM168 408h24v24h-24zM144 384h24v24h-24zM120 360h24v24h-24zM96 336h24v24h-24zM72 312h24v24h-24zM48 288h24v24h-24zM24 264h24v24h-24zM384 624h24v24h-24zM408 648h24v24h-24zM432 672h24v24h-24zM408 672h24v24h-24zM384 672h24v24h-24zM360 672h24v24h-24zM336 672h24v24h-24zM48 912h24v24h-24zM72 912h24v24h-24zM96 912h24v24h-24zM120 912h24v24h-24zM144 912h24v24h-24zM192 912h24v24h-24zM216 912h24v24h-24zM240 912h24v24h-24zM264 912h24v24h-24zM288 912h24v24h-24zM312 912h24v24h-24zM336 912h24v24h-24zM360 912h24v24h-24zM384 912h24v24h-24zM360 888h24v24h-24zM336 864h24v24h-24zM312 840h24v24h-24zM288 816h24v24h-24zM264 840h24v24h-24zM240 864h24v24h-24zM216 888h24v24h-24zM408 912h24v24h-24zM384 888h24v24h-24zM360 864h24v24h-24zM336 840h24v24h-24zM312 816h24v24h-24zM264 768h24v24h-24zM240 744h24v24h-24zM216 720h24v24h-24zM168 672h24v24h-24zM168 648h24v24h-24zM168 624h24v24h-24zM168 600h24v24h-24zM168 576h24v24h-24zM168 552h24v24h-24zM168 528h24v24h-24zM168 504h24v24h-24zM168 480h24v24h-24zM168 432h24v24h-24zM168 384h24v24h-24zM168 360h24v24h-24zM168 336h24v24h-24zM168 312h24v24h-24zM168 288h24v24h-24zM168 264h24v24h-24zM168 240h24v24h-24zM168 192h24v24h-24zM168 168h24v24h-24zM168 120h24v24h-24zM192 120h24v24h-24zM216 120h24v24h-24zM240 120h24v24h-24zM264 120h24v24h-24zM336 120h24v24h-24zM360 120h24v24h-24zM384 120h24v24h-24zM360 144h24v24h-24zM360 168h24v24h-24zM360 192h24v24h-24zM360 216h24v24h-24zM360 240h24v24h-24zM360 264h24v24h-24zM360 336h24v24h-24zM360 360h24v24h-24zM360 384h24v24h-24zM360 408h24v24h-24zM360 432h24v24h-24zM360 456h24v24h-24zM360 72h24v24h-24zM360 0h24v24h-24zM528 264h24v24h-24zM552 288h24v24h-24zM576 312h24v24h-24zM600 336h24v24h-24zM624 360h24v24h-24zM648 336h24v24h-24zM672 312h24v24h-24zM696 288h24v24h-24zM720 264h24v24h-24zM744 240h24v24h-24zM768 216h24v24h-24zM792 192h24v24h-24zM816 168h24v24h-24zM840 144h24v24h-24zM864 120h24v24h-24zM888 96h24v24h-24zM888 72h24v24h-24zM864 96h24v24h-24zM840 120h24v24h-24zM816 144h24v24h-24zM792 144h24v24h-24zM768 144h24v24h-24zM744 144h24v24h-24zM720 144h24v24h-24zM696 144h24v24h-24zM672 144h24v24h-24zM648 120h24v24h-24zM624 96h24v24h-24zM600 72h24v24h-24zM576 48h24v24h-24zM552 24h24v24h-24zM576 24h24v24h-24zM600 24h24v24h-24zM624 24h24v24h-24zM648 24h24v24h-24zM672 24h24v24h-24zM696 24h24v24h-24zM720 24h24v24h-24zM744 24h24v24h-24zM768 24h24v24h-24zM792 24h24v24h-24zM816 24h24v24h-24zM840 24h24v24h-24zM864 24h24v24h-24zM888 24h24v24h-24zM864 48h24v24h-24zM840 72h24v24h-24zM816 96h24v24h-24zM792 120h24v24h-24zM744 168h24v24h-24zM720 192h24v24h-24zM696 216h24v24h-24zM672 240h24v24h-24zM648 264h24v24h-24zM624 288h24v24h-24zM624 312h24v24h-24zM624 336h24v24h-24zM624 384h24v24h-24zM624 408h24v24h-24zM624 432h24v24h-24zM624 456h24v24h-24zM624 480h24v24h-24zM624 504h24v24h-24zM624 528h24v24h-24zM624 552h24v24h-24zM624 576h24v24h-24zM648 600h24v24h-24zM672 624h24v24h-24zM696 648h24v24h-24zM720 672h24v24h-24zM744 696h24v24h-24zM768 720h24v24h-24zM792 744h24v24h-24zM816 720h24v24h-24zM840 696h24v24h-24zM864 672h24v24h-24zM888 648h24v24h-24zM912 624h24v24h-24zM936 600h24v24h-24zM936 576h24v24h-24zM936 552h24v24h-24zM936 528h24v24h-24zM936 504h24v24h-24zM936 480h24v24h-24zM936 456h24v24h-24zM936 432h24v24h-24zM912 456h24v24h-24zM888 456h24v24h-24zM864 456h24v24h-24zM840 456h24v24h-24zM816 456h24v24h-24zM792 456h24v24h-24zM768 456h24v24h-24zM744 432h24v24h-24zM720 408h24v24h-24zM696 384h24v24h-24zM720 360h24v24h-24zM744 336h24v24h-24zM744 312h24v24h-24zM744 288h24v24h-24zM720 288h24v24h-24zM672 288h24v24h-24zM648 288h24v24h-24zM600 288h24v24h-24zM576 288h24v24h-24zM528 288h24v24h-24zM504 288h24v24h-24zM504 264h24v24h-24zM504 240h24v24h-24zM504 216h24v24h-24zM504 192h24v24h-24zM504 168h24v24h-24zM504 144h24v24h-24zM504 120h24v24h-24zM504 96h24v24h-24zM528 96h24v24h-24zM552 96h24v24h-24zM576 96h24v24h-24zM600 96h24v24h-24zM624 120h24v24h-24zM624 144h24v24h-24zM624 168h24v24h-24zM624 192h24v24h-24zM624 216h24v24h-24zM624 240h24v24h-24zM624 264h24v24h-24zM624 600h24v24h-24zM624 624h24v24h-24zM624 648h24v24h-24zM624 672h24v24h-24zM624 696h24v24h-24zM624 720h24v24h-24zM624 744h24v24h-24zM624 768h24v24h-24zM648 792h24v24h-24zM672 816h24v24h-24zM696 840h24v24h-24zM720 864h24v24h-24zM744 888h24v24h-24zM768 912h24v24h-24zM768 888h24v24h-24zM792 888h24v24h-24zM816 888h24v24h-24zM840 888h24v24h-24zM864 888h24v24h-24zM840 864h24v24h-24zM816 840h24v24h-24zM792 816h24v24h-24zM768 792h24v24h-24zM744 768h24v24h-24zM720 744h24v24h-24zM696 720h24v24h-24zM672 696h24v24h-24zM648 672h24v24h-24zM600 624h24v24h-24zM576 600h24v24h-24zM600 576h24v24h-24zM648 528h24v24h-24zM672 504h24v24h-24zM696 480h24v24h-24zM720 456h24v24h-24zM768 408h24v24h-24zM792 384h24v24h-24zM816 360h24v24h-24zM840 336h24v24h-24zM864 312h24v24h-24zM888 288h24v24h-24zM912 264h24v24h-24zM552 624h24v24h-24zM528 648h24v24h-24zM504 672h24v24h-24zM528 672h24v24h-24zM552 672h24v24h-24zM576 672h24v24h-24zM600 672h24v24h-24zM888 912h24v24h-24zM864 912h24v24h-24zM840 912h24v24h-24zM816 912h24v24h-24zM792 912h24v24h-24zM744 912h24v24h-24zM720 912h24v24h-24zM696 912h24v24h-24zM672 912h24v24h-24zM648 912h24v24h-24zM624 912h24v24h-24zM600 912h24v24h-24zM576 912h24v24h-24zM552 912h24v24h-24zM576 888h24v24h-24zM600 864h24v24h-24zM624 840h24v24h-24zM648 816h24v24h-24zM672 840h24v24h-24zM696 864h24v24h-24zM720 888h24v24h-24zM528 912h24v24h-24zM552 888h24v24h-24zM576 864h24v24h-24zM600 840h24v24h-24zM624 816h24v24h-24zM672 768h24v24h-24zM696 744h24v24h-24zM720 720h24v24h-24zM768 672h24v24h-24zM768 648h24v24h-24zM768 624h24v24h-24zM768 600h24v24h-24zM768 576h24v24h-24zM768 552h24v24h-24zM768 528h24v24h-24zM768 504h24v24h-24zM768 480h24v24h-24zM768 432h24v24h-24zM768 384h24v24h-24zM768 360h24v24h-24zM768 336h24v24h-24zM768 312h24v24h-24zM768 288h24v24h-24zM768 264h24v24h-24zM768 240h24v24h-24zM768 192h24v24h-24zM768 168h24v24h-24zM768 120h24v24h-24zM744 120h24v24h-24zM720 120h24v24h-24zM696 120h24v24h-24zM672 120h24v24h-24zM600 120h24v24h-24zM576 120h24v24h-24zM552 120h24v24h-24zM576 144h24v24h-24zM576 168h24v24h-24zM576 192h24v24h-24zM576 216h24v24h-24zM576 240h24v24h-24zM576 264h24v24h-24zM576 336h24v24h-24zM576 360h24v24h-24zM576 384h24v24h-24zM576 408h24v24h-24zM576 432h24v24h-24zM576 456h24v24h-24zM576 72h24v24h-24zM576 0h24v24h-24z"/></svg>