<svg xmlns="http://www.w3.org/2000/svg" width="960" height="960" viewBox="0 0 960 960" shape-rendering="crispEdges"><path fill="#fff" d="M0 0h960v960h-960z"/><path fill="#141f1c" d="M0 24h24v24h-24zM0 168h24v24h-24zM0 312h24v24h-24zM0 456h24v24h-24zM0 600h24v24h-24zM0 744h24v24h-24zM0 888h24v24h-24zM24 0h24v24h-24zM24 24h24v24h-24zM24 48h24v24h-24zM24 72h24v24h-24zM24 96h24v24h-24zM24 120h24v24h-24zM24 144h24v24h-24zM24 168h24v24h-24zM24 192h24v24h-24zM24 216h24v24h-24zM24 240h24v24h-24zM24 264h24v24h-24zM24 288h24v24h-24zM24 312h24v24h-24zM24 336h24v24h-24zM24 360h24v24h-24zM24 384h24v24h-24zM24 408h24v24h-24zM24 432h24v24h-24zM24 456h24v24h-24zM24 480h24v24h-24zM24 504h24v24h-24zM24 528h24v24h-24zM24 552h24v24h-24zM24 576h24v24h-24zM24 600h24v24h-24zM24 624h24v24h-24zM24 648h24v24h-24zM24 672h24v24h-24zM24 696h24v24h-24zM24 720h24v24h-24zM24 744h24v24h-24zM24 768h24v24h-24zM24 792h24v24h-24zM24 816h24v24h-24zM24 840h24v24h-24zM24 864h24v24h-24zM24 888h24v24h-24zM24 912h24v24h-24zM24 936h24v24h-24zM48 24h24v24h-24zM48 168h24v24h-24zM48 312h24v24h-24zM48 456h24v24h-24zM48 600h24v24h-24zM48 744h24v24h-24zM48 888h24v24h-24zM72 24h24v24h-24zM72 168h24v24h-24zM72 312h24v24h-24zM72 456h24v24h-24zM72 600h24v24h-24zM72 744h24v24h-24zM72 888h24v24h-24zM96 24h24v24h-24zM96 168h24v24h-24zM96 312h24v24h-24zM96 456h24v24h-24zM96 600h24v24h-24zM96 744h24v24h-24zM96 888h24v24h-24zM120 24h24v24h-24zM120 168h24v24h-24zM120 312h24v24h-24zM120 456h24v24h-24zM120 600h24v24h-24zM120 744h24v24h-24zM120 888h24v24h-24zM144 24h24v24h-24zM144 168h24v24h-24zM144 312h24v24h-24zM144 456h24v24h-24zM144 600h24v24h-24zM144 744h24v24h-24zM144 888h24v24h-24zM168 0h24v24h-24zM168 24h24v24h-24zM168 48h24v24h-24zM168 72h24v24h-24zM168 96h24v24h-24zM168 120h24v24h-24zM168 144h24v24h-24zM168 168h24v24h-24zM168 192h24v24h-24zM168 216h24v24h-24zM168 240h24v24h-24zM168 264h24v24h-24zM168 288h24v24h-24zM168 312h24v24h-24zM168 336h24v24h-24zM168 360h24v24h-24zM168 384h24v24h-24zM168 408h24v24h-24zM168 432h24v24h-24zM168 456h24v24h-24zM168 480h24v24h-24zM168 504h24v24h-24zM168 528h24v24h-24zM168 552h24v24h-24zM168 576h24v24h-24zM168 600h24v24h-24zM168 624h24v24h-24zM168 648h24v24h-24zM168 672h24v24h-24zM168 696h24v24h-24zM168 720h24v24h-24zM168 744h24v24h-24zM168 768h24v24h-24zM168 792h24v24h-24zM168 816h24v24h-24zM168 840h24v24h-24zM168 864h24v24h-24zM168 888h24v24h-24zM168 912h24v24h-24zM168 936h24v24h-24zM192 24h24v24h-24zM192 168h24v24h-24zM192 312h24v24h-24zM192 456h24v24h-24zM192 600h24v24h-24zM192 744h24v24h-24zM192 888h24v24h-24zM216 24h24v24h-24zM216 168h24v24h-24zM216 312h24v24h-24zM216 456h24v24h-24zM216 600h24v24h-24zM216 744h24v24h-24zM216 888h24v24h-24zM240 24h24v24h-24zM240 168h24v24h-24zM240 312h24v24h-24zM240 456h24v24h-24zM240 600h24v24h-24zM240 744h24v24h-24zM240 888h24v24h-24zM264 24h24v24h-24zM264 168h24v24h-24zM264 312h24v24h-24zM264 456h24v24h-24zM264 600h24v24h-24zM264 744h24v24h-24zM264 888h24v24h-24zM288 24h24v24h-24zM288 168h24v24h-24zM288 312h24v24h-24zM288 456h24v24h-24zM288 600h24v24h-24zM288 744h24v24h-24zM288 888h24v24h-24zM312 0h24v24h-24zM312 24h24v24h-24zM312 48h24v24h-24zM312 72h24v24h-24zM312 96h24v24h-24zM312 120h24v24h-24zM312 144h24v24h-24zM312 168h24v24h-24zM312 192h24v24h-24zM312 216h24v24h-24zM312 240h24v24h-24zM312 264h24v24h-24zM312 288h24v24h-24zM312 312h24v24h-24zM312 336h24v24h-24zM312 360h24v24h-24zM312 384h24v24h-24zM312 408h24v24h-24zM312 432h24v24h-24zM312 456h24v24h-24zM312 480h24v24h-24zM312 504h24v24h-24zM312 528h24v24h-24zM312 552h24v24h-24zM312 576h24v24h-24zM312 600h24v24h-24zM312 624h24v24h-24zM312 648h24v24h-24zM312 672h24v24h-24zM312 696h24v24h-24zM312 720h24v24h-24zM312 744h24v24h-24zM312 768h24v24h-24zM312 792h24v24h-24zM312 816h24v24h-24zM312 840h24v24h-24zM312 864h24v24h-24zM312 888h24v24h-24zM312 912h24v24h-24zM312 936h24v24h-24zM336 24h24v24h-24zM336 168h24v24h-24zM336 312h24v24h-24zM336 456h24v24h-24zM336 600h24v24h-24zM336 744h24v24h-24zM336 888h24v24h-24zM360 24h24v24h-24zM360 168h24v24h-24zM360 312h24v24h-24zM360 456h24v24h-24zM360 600h24v24h-24zM360 744h24v24h-24zM360 888h24v24h-24zM384 24h24v24h-24zM384 168h24v24h-24zM384 312h24v24h-24zM384 456h24v24h-24zM384 600h24v24h-24zM384 744h24v24h-24zM384 888h24v24h-24zM408 24h24v24h-24zM408 168h24v24h-24zM408 312h24v24h-24zM408 456h24v24h-24zM408 600h24v24h-24zM408 744h24v24h-24zM408 888h24v24h-24zM432 24h24v24h-24zM432 168h24v24h-24zM432 312h24v24h-24zM432 456h24v24h-24zM432 600h24v24h-24zM432 744h24v24h-24zM432 888h24v24h-24zM456 0h24v24h-24zM456 24h24v24h-24zM456 48h24v24h-24zM456 72h24v24h-24zM456 96h24v24h-24zM456 120h24v24h-24zM456 144h24v24h-24zM456 168h24v24h-24zM456 192h24v24h-24zM456 216h24v24h-24zM456 240h24v24h-24zM456 264h24v24h-24zM456 288h24v24h-24zM456 312h24v24h-24zM456 336h24v24h-24zM456 360h24v24h-24zM456 384h24v24h-24zM456 408h24v24h-24zM456 432h24v24h-24zM456 456h24v24h-24zM456 480h24v24h-24zM456 504h24v24h-24zM456 528h24v24h-24zM456 552h24v24h-24zM456 576h24v24h-24zM456 600h24v24h-24zM456 624h24v24h-24zM456 648h24v24h-24zM456 672h24v24h-24zM456 696h24v24h-24zM456 720h24v24h-24zM456 744h24v24h-24zM456 768h24v24h-24zM456 792h24v24h-24zM456 816h24v24h-24zM456 840h24v24h-24zM456 864h24v24h-24zM456 888h24v24h-24zM456 912h24v24h-24zM456 936h24v24h-24zM480 24h24v24h-24zM480 168h24v24h-24zM480 312h24v24h-24zM480 456h24v24h-24zM480 600h24v24h-24zM480 744h24v24h-24zM480 888h24v24h-24zM504 24h24v24h-24zM504 168h24v24h-24zM504 312h24v24h-24zM504 456h24v24h-24zM504 600h24v24h-24zM504 744h24v24h-24zM504 888h24v24h-24zM528 24h24v24h-24zM528 168h24v24h-24zM528 312h24v24h-24zM528 456h24v24h-24zM528 600h24v24h-24zM528 744h24v24h-24zM528 888h24v24h-24zM552 24h24v24h-24zM552 168h24v24h-24zM552 312h24v24h-24zM552 456h24v24h-24zM552 600h24v24h-24zM552 744h24v24h-24zM552 888h24v24h-24zM576 24h24v24h-24zM576 168h24v24h-24zM576 312h24v24h-24zM576 456h24v24h-24zM576 600h24v24h-24zM576 744h24v24h-24zM576 888h24v24h-24zM600 0h24v24h-24zM600 24h24v24h-24zM600 48h24v24h-24zM600 72h24v24h-24zM600 96h24v24h-24zM600 120h24v24h-24zM600 144h24v24h-24zM600 168h24v24h-24zM600 192h24v24h-24zM600 216h24v24h-24zM600 240h24v24h-24zM600 264h24v24h-24zM600 288h24v24h-24zM600 312h24v24h-24zM600 336h24v24h-24zM600 360h24v24h-24zM600 384h24v24h-24zM600 408h24v24h-24zM600 432h24v24h-24zM600 456h24v24h-24zM600 480h24v24h-24zM600 504h24v24h-24zM600 528h24v24h-24zM600 552h24v24h-24zM600 576h24v24h-24zM600 600h24v24h-24zM600 624h24v24h-24zM600 648h24v24h-24zM600 672h24v24h-24zM600 696h24v24h-24zM600 720h24v24h-24zM600 744h24v24h-24zM600 768h24v24h-24zM600 792h24v24h-24zM600 816h24v24h-24zM600 840h24v24h-24zM600 864h24v24h-24zM600 888h24v24h-24zM600 912h24v24h-24zM600 936h24v24h-24zM624 24h24v24h-24zM624 168h24v24h-24zM624 312h24v24h-24zM624 456h24v24h-24zM624 600h24v24h-24zM624 744h24v24h-24zM624 888h24v24h-24zM648 24h24v24h-24zM648 168h24v24h-24zM648 312h24v24h-24zM648 456h24v24h-24zM648 600h24v24h-24zM648 744h24v24h-24zM648 888h24v24h-24zM672 24h24v24h-24zM672 168h24v24h-24zM672 312h24v24h-24zM672 456h24v24h-24zM672 600h24v24h-24zM672 744h24v24h-24zM672 888h24v24h-24zM696 24h24v24h-24zM696 168h24v24h-24zM696 312h24v24h-24zM696 456h24v24h-24zM696 600h24v24h-24zM696 744h24v24h-24zM696 888h24v24h-24zM720 24h24v24h-24zM720 168h24v24h-24zM720 312h24v24h-24zM720 456h24v24h-24zM720 600h24v24h-24zM720 744h24v24h-24zM720 888h24v24h-24zM744 0h24v24h-24zM744 24h24v24h-24zM744 48h24v24h-24zM744 72h24v24h-24zM744 96h24v24h-24zM744 120h24v24h-24zM744 144h24v24h-24zM744 168h24v24h-24zM744 192h24v24h-24zM744 216h24v24h-24zM744 240h24v24h-24zM744 264h24v24h-24zM744 288h24v24h-24zM744 312h24v24h-24zM744 336h24v24h-24zM744 360h24v24h-24zM744 384h24v24h-24zM744 408h24v24h-24zM744 432h24v24h-24zM744 456h24v24h-24zM744 480h24v24h-24zM744 504h24v24h-24zM744 528h24v24h-24zM744 552h24v24h-24zM744 576h24v24h-24zM744 600h24v24h-24zM744 624h24v24h-24zM744 648h24v24h-24zM744 672h24v24h-24zM744 696h24v24h-24zM744 720h24v24h-24zM744 744h24v24h-24zM744 768h24v24h-24zM744 792h24v24h-24zM744 816h24v24h-24zM744 840h24v24h-24zM744 864h24v24h-24zM744 888h24v24h-24zM744 912h24v24h-24zM744 936h24v24h-24zM768 24h24v24h-24zM768 168h24v24h-24zM768 312h24v24h-24zM768 456h24v24h-24zM768 600h24v24h-24zM768 744h24v24h-24zM768 888h24v24h-24zM792 24h24v24h-24zM792 168h24v24h-24zM792 312h24v24h-24zM792 456h24v24h-24zM792 600h24v24h-24zM792 744h24v24h-24zM792 888h24v24h-24zM816 24h24v24h-24zM816 168h24v24h-24zM816 312h24v24h-24zM816 456h24v24h-24zM816 600h24v24h-24zM816 744h24v24h-24zM816 888h24v24h-24zM840 24h24v24h-24zM840 168h24v24h-24zM840 312h24v24h-24zM840 456h24v24h-24zM840 600h24v24h-24zM840 744h24v24h-24zM840 888h24v24h-24zM864 24h24v24h-24zM864 168h24v24h-24zM864 312h24v24h-24zM864 456h24v24h-24zM864 600h24v24h-24zM864 744h24v24h-24zM864 888h24v24h-24zM888 0h24v24h-24zM888 24h24v24h-24zM888 48h24v24h-24zM888 72h24v24h-24zM888 96h24v24h-24zM888 120h24v24h-24zM888 144h24v24h-24zM888 168h24v24h-24zM888 192h24v24h-24zM888 216h24v24h-24zM888 240h24v24h-24zM888 264h24v24h-24zM888 288h24v24h-24zM888 312h24v24h-24zM888 336h24v24h-24zM888 360h24v24h-24zM888 384h24v24h-24zM888 408h24v24h-24zM888 432h24v24h-24zM888 456h24v24h-24zM888 480h24v24h-24zM888 504h24v24h-24zM888 528h24v24h-24zM888 552h24v24h-24zM888 576h24v24h-24zM888 600h24v24h-24zM888 624h24v24h-24zM888 648h24v24h-24zM888 672h24v24h-24zM888 696h24v24h-24zM888 720h24v24h-24zM888 744h24v24h-24zM888 768h24v24h-24zM888 792h24v24h-24zM888 816h24v24h-24zM888 840h24v24h-24zM888 864h24v24h-24zM888 888h24v24h-24zM888 912h24v24h-24zM888 936h24v24h-24zM912 24h24v24h-24zM912 168h24v24h-24zM912 312h24v24h-24zM912 456h24v24h-24zM912 600h24v24h-24zM912 744h24v24h-24zM912 888h24v24h-24zM936 24h24v24h-24zM936 168h24v24h-24zM936 312h24v24h-24zM936 456h24v24h-24zM936 600h24v24h-24zM936 744h24v24h-24zM936 888h24v24h-24z"/><path fill="#00b3d6" d="M0 0h24v24h-24zM24 24h24v24h-24zM0 48h24v24h-24zM48 48h24v24h-24zM0 72h24v24h-24zM24 72h24v24h-24zM72 72h24v24h-24zM192 0h24v24h-24zM264 0h24v24h-24zM192 72h24v24h-24zM264 72h24v24h-24zM408 0h24v24h-24zM456 0h24v24h-24zM432 24h24v24h-24zM432 48h24v24h-24zM408 72h24v24h-24zM456 72h24v24h-24zM600 0h24v24h-24zM648 0h24v24h-24zM576 24h24v24h-24zM648 48h24v24h-24zM576 72h24v24h-24zM624 72h24v24h-24zM768 0h24v24h-24zM792 0h24v24h-24zM816 72h24v24h-24zM840 72h24v24h-24zM48 192h24v24h-24zM72 192h24v24h-24zM0 264h24v24h-24zM24 264h24v24h-24zM240 192h24v24h-24zM264 192h24v24h-24zM240 216h24v24h-24zM264 216h24v24h-24zM192 240h24v24h-24zM216 240h24v24h-24zM192 264h24v24h-24zM216 264h24v24h-24zM408 192h24v24h-24zM384 216h24v24h-24zM456 240h24v24h-24zM432 264h24v24h-24zM600 192h24v24h-24zM648 192h24v24h-24zM576 216h24v24h-24zM624 216h24v24h-24zM600 240h24v24h-24zM648 240h24v24h-24zM576 264h24v24h-24zM624 264h24v24h-24zM768 192h24v24h-24zM816 192h24v24h-24zM840 192h24v24h-24zM792 216h24v24h-24zM840 216h24v24h-24zM816 240h24v24h-24zM840 264h24v24h-24zM0 384h24v24h-24zM48 384h24v24h-24zM72 384h24v24h-24zM24 408h24v24h-24zM72 408h24v24h-24zM48 432h24v24h-24zM72 456h24v24h-24zM216 384h24v24h-24zM264 384h24v24h-24zM192 408h24v24h-24zM264 432h24v24h-24zM192 456h24v24h-24zM240 456h24v24h-24zM408 384h24v24h-24zM432 384h24v24h-24zM384 408h24v24h-24zM432 408h24v24h-24zM408 432h24v24h-24zM456 432h24v24h-24zM408 456h24v24h-24zM432 456h24v24h-24zM576 384h24v24h-24zM576 408h24v24h-24zM648 432h24v24h-24zM648 456h24v24h-24zM816 384h24v24h-24zM792 408h24v24h-24zM840 408h24v24h-24zM768 432h24v24h-24zM816 432h24v24h-24zM792 456h24v24h-24zM48 576h24v24h-24zM24 600h24v24h-24zM72 600h24v24h-24zM0 624h24v24h-24zM48 624h24v24h-24zM24 648h24v24h-24zM192 600h24v24h-24zM264 600h24v24h-24zM192 624h24v24h-24zM264 624h24v24h-24zM384 576h24v24h-24zM408 576h24v24h-24zM456 576h24v24h-24zM384 600h24v24h-24zM432 600h24v24h-24zM408 624h24v24h-24zM384 648h24v24h-24zM576 576h24v24h-24zM648 576h24v24h-24zM600 600h24v24h-24zM624 600h24v24h-24zM600 624h24v24h-24zM576 648h24v24h-24zM648 648h24v24h-24zM840 576h24v24h-24zM840 600h24v24h-24zM768 624h24v24h-24zM768 648h24v24h-24zM0 768h24v24h-24zM72 768h24v24h-24zM0 840h24v24h-24zM72 840h24v24h-24zM216 768h24v24h-24zM240 816h24v24h-24zM216 840h24v24h-24zM240 840h24v24h-24zM384 768h24v24h-24zM456 768h24v24h-24zM408 792h24v24h-24zM432 792h24v24h-24zM384 840h24v24h-24zM456 840h24v24h-24zM576 792h24v24h-24zM648 792h24v24h-24zM576 816h24v24h-24zM600 816h24v24h-24zM768 768h24v24h-24zM840 768h24v24h-24zM792 792h24v24h-24zM792 816h24v24h-24zM816 816h24v24h-24zM768 840h24v24h-24zM840 840h24v24h-24zM36 516h24v24h-24zM900 36h24v24h-24zM324 612h24v24h-24zM420 132h24v24h-24zM324 132h24v24h-24zM516 708h24v24h-24zM708 36h24v24h-24zM324 900h24v24h-24zM324 420h24v24h-24zM228 708h24v24h-24zM900 612h24v24h-24zM36 324h24v24h-24zM612 516h24v24h-24zM36 900h24v24h-24zM708 612h24v24h-24zM900 228h24v24h-24zM612 324h24v24h-24z"/><path fill="#000" d="M0 384h96v96h-96zM96 288h96v96h-96zM192 192h96v96h-96zM96 96h96v96h-96zM0 0h96v96h-96zM288 288h96v96h-96zM384 384h96v96h-96zM288 96h96v96h-96zM384 96h96v96h-96zM192 96h96v96h-96zM0 96h96v96h-96zM96 192h96v96h-96zM288 192h96v96h-96zM384 192h96v96h-96zM0 480h96v96h-96zM96 576h96v96h-96zM192 672h96v96h-96zM96 768h96v96h-96zM0 864h96v96h-96zM288 576h96v96h-96zM384 480h96v96h-96zM288 768h96v96h-96zM384 768h96v96h-96zM192 768h96v96h-96zM0 768h96v96h-96zM96 672h96v96h-96zM288 672h96v96h-96zM384 672h96v96h-96zM864 384h96v96h-96zM768 288h96v96h-96zM672 192h96v96h-96zM768 96h96v96h-96zM864 0h96v96h-96zM576 288h96v96h-96zM480 384h96v96h-96zM576 96h96v96h-96zM480 96h96v96h-96zM672 96h96v96h-96zM864 96h96v96h-96zM768 192h96v96h-96zM576 192h96v96h-96zM480 192h96v96h-96zM864 480h96v96h-96zM768 576h96v96h-96zM672 672h96v96h-96zM768 768h96v96h-96zM864 864h96v96h-96zM576 576h96v96h-96zM480 480h96v96h-96zM576 768h96v96h-96zM480 768h96v96h-96zM672 768h96v96h-96zM864 768h96v96h-96zM768 672h96v96h-96zM576 672h96v96h-96zM480 672h96v96h-96z"/></svg>