<svg xmlns="http://www.w3.org/2000/svg" width="960" height="960" viewBox="0 0 960 960" shape-rendering="crispEdges"><path fill="#000" d="M0 0h960v960h-960z"/><path fill="#8c8c8c" d="M504 24h24v24h-24zM504 72h24v24h-24zM504 120h24v24h-24zM504 168h24v24h-24zM504 216h24v24h-24zM504 264h24v24h-24zM504 312h24v24h-24zM504 360h24v24h-24zM504 408h24v24h-24zM504 456h24v24h-24zM504 504h24v24h-24zM504 552h24v24h-24zM504 600h24v24h-24zM504 648h24v24h-24zM504 696h24v24h-24zM504 744h24v24h-24zM504 792h24v24h-24zM504 840h24v24h-24zM504 888h24v24h-24zM504 936h24v24h-24zM552 24h24v24h-24zM552 72h24v24h-24zM552 120h24v24h-24zM552 168h24v24h-24zM552 216h24v24h-24zM552 264h24v24h-24zM552 312h24v24h-24zM552 360h24v24h-24zM552 408h24v24h-24zM552 456h24v24h-24zM552 504h24v24h-24zM552 552h24v24h-24zM552 600h24v24h-24zM552 648h24v24h-24zM552 696h24v24h-24zM552 744h24v24h-24zM552 792h24v24h-24zM552 840h24v24h-24zM552 888h24v24h-24zM552 936h24v24h-24zM600 24h24v24h-24zM600 72h24v24h-24zM600 120h24v24h-24zM600 168h24v24h-24zM600 216h24v24h-24zM600 264h24v24h-24zM600 312h24v24h-24zM600 360h24v24h-24zM600 408h24v24h-24zM600 456h24v24h-24zM600 504h24v24h-24zM600 552h24v24h-24zM600 600h24v24h-24zM600 648h24v24h-24zM600 696h24v24h-24zM600 744h24v24h-24zM600 792h24v24h-24zM600 840h24v24h-24zM600 888h24v24h-24zM600 936h24v24h-24zM648 24h24v24h-24zM648 72h24v24h-24zM648 120h24v24h-24zM648 168h24v24h-24zM648 216h24v24h-24zM648 264h24v24h-24zM648 312h24v24h-24zM648 360h24v24h-24zM648 408h24v24h-24zM648 456h24v24h-24zM648 504h24v24h-24zM648 552h24v24h-24zM648 600h24v24h-24zM648 648h24v24h-24zM648 696h24v24h-24zM648 744h24v24h-24zM648 792h24v24h-24zM648 840h24v24h-24zM648 888h24v24h-24zM648 936h24v24h-24zM696 24h24v24h-24zM696 72h24v24h-24zM696 120h24v24h-24zM696 168h24v24h-24zM696 216h24v24h-24zM696 264h24v24h-24zM696 312h24v24h-24zM696 360h24v24h-24zM696 408h24v24h-24zM696 456h24v24h-24zM696 504h24v24h-24zM696 552h24v24h-24zM696 600h24v24h-24zM696 648h24v24h-24zM696 696h24v24h-24zM696 744h24v24h-24zM696 792h24v24h-24zM696 840h24v24h-24zM696 888h24v24h-24zM696 936h24v24h-24zM744 24h24v24h-24zM744 72h24v24h-24zM744 120h24v24h-24zM744 168h24v24h-24zM744 216h24v24h-24zM744 264h24v24h-24zM744 312h24v24h-24zM744 360h24v24h-24zM744 408h24v24h-24zM744 456h24v24h-24zM744 504h24v24h-24zM744 552h24v24h-24zM744 600h24v24h-24zM744 648h24v24h-24zM744 696h24v24h-24zM744 744h24v24h-24zM744 792h24v24h-24zM744 840h24v24h-24zM744 888h24v24h-24zM744 936h24v24h-24zM792 24h24v24h-24zM792 72h24v24h-24zM792 120h24v24h-24zM792 168h24v24h-24zM792 216h24v24h-24zM792 264h24v24h-24zM792 312h24v24h-24zM792 360h24v24h-24zM792 408h24v24h-24zM792 456h24v24h-24zM792 504h24v24h-24zM792 552h24v24h-24zM792 600h24v24h-24zM792 648h24v24h-24zM792 696h24v24h-24zM792 744h24v24h-24zM792 792h24v24h-24zM792 840h24v24h-24zM792 888h24v24h-24zM792 936h24v24h-24zM840 24h24v24h-24zM840 72h24v24h-24zM840 120h24v24h-24zM840 168h24v24h-24zM840 216h24v24h-24zM840 264h24v24h-24zM840 312h24v24h-24zM840 360h24v24h-24zM840 408h24v24h-24zM840 456h24v24h-24zM840 504h24v24h-24zM840 552h24v24h-24zM840 600h24v24h-24zM840 648h24v24h-24zM840 696h24v24h-24zM840 744h24v24h-24zM840 792h24v24h-24zM840 840h24v24h-24zM840 888h24v24h-24zM840 936h24v24h-24zM888 24h24v24h-24zM888 72h24v24h-24zM888 120h24v24h-24zM888 168h24v24h-24zM888 216h24v24h-24zM888 264h24v24h-24zM888 312h24v24h-24zM888 360h24v24h-24zM888 408h24v24h-24zM888 456h24v24h-24zM888 504h24v24h-24zM888 552h24v24h-24zM888 600h24v24h-24zM888 648h24v24h-24zM888 696h24v24h-24zM888 744h24v24h-24zM888 792h24v24h-24zM888 840h24v24h-24zM888 888h24v24h-24zM888 936h24v24h-24zM936 24h24v24h-24zM936 72h24v24h-24zM936 120h24v24h-24zM936 168h24v24h-24zM936 216h24v24h-24zM936 264h24v24h-24zM936 312h24v24h-24zM936 360h24v24h-24zM936 408h24v24h-24zM936 456h24v24h-24zM936 504h24v24h-24zM936 552h24v24h-24zM936 600h24v24h-24zM936 648h24v24h-24zM936 696h24v24h-24zM936 744h24v24h-24zM936 792h24v24h-24zM936 840h24v24h-24zM936 888h24v24h-24zM936 936h24v24h-24z"/><path fill="#f9a3fa" d="M45 36h6v24h-6zM36 45h24v6h-24zM198 6h12v12h-12zM270 6h12v12h-12zM222 30h12v12h-12zM246 30h12v12h-12zM198 54h12v12h-12zM270 54h12v12h-12zM390 30h12v12h-12zM462 30h12v12h-12zM390 54h12v12h-12zM414 54h12v12h-12zM648 0h24v24h-24zM624 24h24v24h-24zM600 48h24v24h-24zM576 72h24v24h-24zM792 24h24v24h-24zM816 24h24v24h-24zM792 48h24v24h-24zM816 48h24v24h-24zM0 192h24v24h-24zM72 192h24v24h-24zM24 216h24v24h-24zM48 216h24v24h-24zM24 240h24v24h-24zM48 240h24v24h-24zM0 264h24v24h-24zM72 264h24v24h-24zM246 198h12v12h-12zM270 222h12v12h-12zM198 246h12v12h-12zM222 270h12v12h-12zM384 192h24v24h-24zM456 192h24v24h-24zM432 216h24v24h-24zM408 240h24v24h-24zM384 264h24v24h-24zM456 264h24v24h-24zM609 192h6v24h-6zM600 201h24v6h-24zM585 216h6v24h-6zM576 225h24v6h-24zM633 216h6v24h-6zM624 225h24v6h-24zM609 240h6v24h-6zM600 249h24v6h-24zM657 240h6v24h-6zM648 249h24v6h-24zM633 264h6v24h-6zM624 273h24v6h-24zM792 216h24v24h-24zM816 216h24v24h-24zM792 240h24v24h-24zM816 240h24v24h-24zM0 384h24v24h-24zM72 384h24v24h-24zM24 408h24v24h-24zM48 408h24v24h-24zM24 432h24v24h-24zM48 432h24v24h-24zM0 456h24v24h-24zM72 456h24v24h-24zM222 390h12v12h-12zM198 414h12v12h-12zM222 414h12v12h-12zM246 438h12v12h-12zM270 438h12v12h-12zM246 462h12v12h-12zM384 384h24v24h-24zM408 408h24v24h-24zM384 432h24v24h-24zM432 432h24v24h-24zM384 456h24v24h-24zM408 456h24v24h-24zM456 456h24v24h-24zM606 390h12v12h-12zM582 414h12v12h-12zM654 438h12v12h-12zM630 462h12v12h-12zM768 384h24v24h-24zM792 408h24v24h-24zM816 432h24v24h-24zM840 456h24v24h-24zM6 486h12v12h-12zM78 486h12v12h-12zM30 510h12v12h-12zM54 510h12v12h-12zM30 534h12v12h-12zM54 534h12v12h-12zM6 558h12v12h-12zM78 558h12v12h-12zM120 480h24v24h-24zM144 480h24v24h-24zM144 504h24v24h-24zM120 552h24v24h-24zM201 480h6v24h-6zM192 489h24v6h-24zM273 480h6v24h-6zM264 489h24v6h-24zM201 552h6v24h-6zM192 561h24v6h-24zM273 552h6v24h-6zM264 561h24v6h-24zM294 486h12v12h-12zM366 486h12v12h-12zM318 510h12v12h-12zM342 510h12v12h-12zM318 534h12v12h-12zM294 558h12v12h-12zM366 558h12v12h-12zM456 480h24v24h-24zM432 504h24v24h-24zM408 528h24v24h-24zM384 552h24v24h-24zM513 480h6v24h-6zM504 489h24v6h-24zM489 504h6v24h-6zM480 513h24v6h-24zM561 528h6v24h-6zM552 537h24v6h-24zM537 552h6v24h-6zM528 561h24v6h-24zM609 480h6v24h-6zM600 489h24v6h-24zM633 480h6v24h-6zM624 489h24v6h-24zM585 504h6v24h-6zM576 513h24v6h-24zM633 504h6v24h-6zM624 513h24v6h-24zM609 528h6v24h-6zM600 537h24v6h-24zM657 528h6v24h-6zM648 537h24v6h-24zM609 552h6v24h-6zM600 561h24v6h-24zM633 552h6v24h-6zM624 561h24v6h-24zM705 480h6v24h-6zM696 489h24v6h-24zM729 480h6v24h-6zM720 489h24v6h-24zM681 504h6v24h-6zM672 513h24v6h-24zM729 504h6v24h-6zM720 513h24v6h-24zM705 528h6v24h-6zM696 537h24v6h-24zM753 528h6v24h-6zM744 537h24v6h-24zM705 552h6v24h-6zM696 561h24v6h-24zM729 552h6v24h-6zM720 561h24v6h-24zM840 624h24v24h-24zM792 480h24v24h-24zM816 480h24v24h-24zM792 504h24v24h-24zM840 504h24v24h-24zM768 528h24v24h-24zM816 528h24v24h-24zM792 552h24v24h-24zM816 552h24v24h-24zM870 486h12v12h-12zM942 486h12v12h-12zM894 534h12v12h-12zM918 534h12v12h-12zM870 558h12v12h-12zM942 558h12v12h-12zM33 576h6v24h-6zM24 585h24v6h-24zM9 600h6v24h-6zM0 609h24v6h-24zM57 600h6v24h-6zM48 609h24v6h-24zM33 624h6v24h-6zM24 633h24v6h-24zM81 624h6v24h-6zM72 633h24v6h-24zM57 648h6v24h-6zM48 657h24v6h-24zM153 576h6v24h-6zM144 585h24v6h-24zM129 600h6v24h-6zM120 609h24v6h-24zM177 600h6v24h-6zM168 609h24v6h-24zM105 624h6v24h-6zM96 633h24v6h-24zM153 624h6v24h-6zM144 633h24v6h-24zM129 648h6v24h-6zM120 657h24v6h-24zM240 576h24v24h-24zM264 576h24v24h-24zM192 648h24v24h-24zM216 648h24v24h-24zM288 576h24v24h-24zM360 576h24v24h-24zM312 600h24v24h-24zM336 624h24v24h-24zM288 648h24v24h-24zM360 648h24v24h-24zM393 576h6v24h-6zM384 585h24v6h-24zM441 576h6v24h-6zM432 585h24v6h-24zM465 600h6v24h-6zM456 609h24v6h-24zM393 624h6v24h-6zM384 633h24v6h-24zM417 648h6v24h-6zM408 657h24v6h-24zM465 648h6v24h-6zM456 657h24v6h-24zM561 720h6v24h-6zM552 729h24v6h-24zM513 576h6v24h-6zM504 585h24v6h-24zM537 576h6v24h-6zM528 585h24v6h-24zM513 600h6v24h-6zM504 609h24v6h-24zM561 600h6v24h-6zM552 609h24v6h-24zM489 624h6v24h-6zM480 633h24v6h-24zM537 624h6v24h-6zM528 633h24v6h-24zM513 648h6v24h-6zM504 657h24v6h-24zM537 648h6v24h-6zM528 657h24v6h-24zM609 576h6v24h-6zM600 585h24v6h-24zM585 600h6v24h-6zM576 609h24v6h-24zM633 600h6v24h-6zM624 609h24v6h-24zM609 624h6v24h-6zM600 633h24v6h-24zM657 624h6v24h-6zM648 633h24v6h-24zM633 648h6v24h-6zM624 657h24v6h-24zM720 576h24v24h-24zM744 576h24v24h-24zM720 600h24v24h-24zM744 600h24v24h-24zM672 624h24v24h-24zM696 624h24v24h-24zM672 648h24v24h-24zM696 648h24v24h-24zM768 576h24v24h-24zM816 576h24v24h-24zM792 600h24v24h-24zM840 600h24v24h-24zM768 624h24v24h-24zM816 624h24v24h-24zM792 648h24v24h-24zM840 648h24v24h-24zM864 576h24v24h-24zM936 576h24v24h-24zM912 600h24v24h-24zM888 624h24v24h-24zM912 624h24v24h-24zM864 648h24v24h-24zM936 648h24v24h-24zM30 678h12v12h-12zM54 678h12v12h-12zM30 750h12v12h-12zM54 750h12v12h-12zM105 672h6v24h-6zM96 681h24v6h-24zM153 672h6v24h-6zM144 681h24v6h-24zM177 696h6v24h-6zM168 705h24v6h-24zM105 720h6v24h-6zM96 729h24v6h-24zM129 744h6v24h-6zM120 753h24v6h-24zM177 744h6v24h-6zM168 753h24v6h-24zM198 678h12v12h-12zM270 678h12v12h-12zM198 726h12v12h-12zM270 726h12v12h-12zM318 678h12v12h-12zM294 702h12v12h-12zM366 726h12v12h-12zM342 750h12v12h-12zM384 672h24v24h-24zM456 672h24v24h-24zM384 744h24v24h-24zM456 744h24v24h-24zM480 672h24v24h-24zM552 672h24v24h-24zM504 696h24v24h-24zM528 696h24v24h-24zM504 720h24v24h-24zM528 720h24v24h-24zM480 744h24v24h-24zM552 744h24v24h-24zM621 708h6v24h-6zM612 717h24v6h-24zM678 678h12v12h-12zM750 678h12v12h-12zM678 726h12v12h-12zM750 726h12v12h-12zM792 672h24v24h-24zM768 696h24v24h-24zM840 720h24v24h-24zM816 744h24v24h-24zM936 672h24v24h-24zM936 696h24v24h-24zM864 720h24v24h-24zM864 744h24v24h-24zM9 768h6v24h-6zM0 777h24v6h-24zM81 768h6v24h-6zM72 777h24v6h-24zM33 816h6v24h-6zM24 825h24v6h-24zM57 816h6v24h-6zM48 825h24v6h-24zM9 840h6v24h-6zM0 849h24v6h-24zM81 840h6v24h-6zM72 849h24v6h-24zM126 774h12v12h-12zM102 798h12v12h-12zM150 798h12v12h-12zM174 798h12v12h-12zM102 822h12v12h-12zM126 822h12v12h-12zM174 822h12v12h-12zM150 846h12v12h-12zM198 774h12v12h-12zM270 774h12v12h-12zM222 798h12v12h-12zM246 822h12v12h-12zM198 846h12v12h-12zM270 846h12v12h-12zM360 768h24v24h-24zM360 792h24v24h-24zM288 816h24v24h-24zM288 840h24v24h-24zM441 768h6v24h-6zM432 777h24v6h-24zM465 768h6v24h-6zM456 777h24v6h-24zM441 792h6v24h-6zM432 801h24v6h-24zM465 792h6v24h-6zM456 801h24v6h-24zM393 816h6v24h-6zM384 825h24v6h-24zM417 816h6v24h-6zM408 825h24v6h-24zM393 840h6v24h-6zM384 849h24v6h-24zM417 840h6v24h-6zM408 849h24v6h-24zM513 768h6v24h-6zM504 777h24v6h-24zM561 768h6v24h-6zM552 777h24v6h-24zM513 840h6v24h-6zM504 849h24v6h-24zM561 840h6v24h-6zM552 849h24v6h-24zM606 774h12v12h-12zM654 774h12v12h-12zM606 846h12v12h-12zM654 846h12v12h-12zM672 792h24v24h-24zM744 792h24v24h-24zM672 816h24v24h-24zM744 816h24v24h-24zM801 768h6v24h-6zM792 777h24v6h-24zM777 792h6v24h-6zM768 801h24v6h-24zM849 816h6v24h-6zM840 825h24v6h-24zM825 840h6v24h-6zM816 849h24v6h-24zM888 768h24v24h-24zM912 816h24v24h-24zM888 840h24v24h-24zM912 840h24v24h-24zM9 864h6v24h-6zM0 873h24v6h-24zM9 888h6v24h-6zM0 897h24v6h-24zM81 912h6v24h-6zM72 921h24v6h-24zM81 936h6v24h-6zM72 945h24v6h-24zM102 870h12v12h-12zM174 870h12v12h-12zM126 894h12v12h-12zM150 894h12v12h-12zM126 918h12v12h-12zM150 918h12v12h-12zM102 942h12v12h-12zM174 942h12v12h-12zM249 864h6v24h-6zM240 873h24v6h-24zM225 888h6v24h-6zM216 897h24v6h-24zM273 888h6v24h-6zM264 897h24v6h-24zM201 912h6v24h-6zM192 921h24v6h-24zM249 912h6v24h-6zM240 921h24v6h-24zM225 936h6v24h-6zM216 945h24v6h-24zM288 864h24v24h-24zM360 864h24v24h-24zM288 936h24v24h-24zM360 936h24v24h-24zM414 870h12v12h-12zM438 870h12v12h-12zM390 894h12v12h-12zM438 894h12v12h-12zM414 918h12v12h-12zM462 918h12v12h-12zM414 942h12v12h-12zM438 942h12v12h-12zM513 864h6v24h-6zM504 873h24v6h-24zM489 888h6v24h-6zM480 897h24v6h-24zM513 888h6v24h-6zM504 897h24v6h-24zM537 912h6v24h-6zM528 921h24v6h-24zM561 912h6v24h-6zM552 921h24v6h-24zM537 936h6v24h-6zM528 945h24v6h-24zM582 870h12v12h-12zM606 870h12v12h-12zM630 942h12v12h-12zM654 942h12v12h-12zM678 870h12v12h-12zM678 894h12v12h-12zM750 918h12v12h-12zM750 942h12v12h-12zM774 870h12v12h-12zM846 870h12v12h-12zM774 942h12v12h-12zM846 942h12v12h-12zM873 864h6v24h-6zM864 873h24v6h-24zM945 864h6v24h-6zM936 873h24v6h-24zM921 888h6v24h-6zM912 897h24v6h-24zM897 912h6v24h-6zM888 921h24v6h-24zM921 912h6v24h-6zM912 921h24v6h-24zM873 936h6v24h-6zM864 945h24v6h-24zM945 936h6v24h-6zM936 945h24v6h-24zM102 102h12v12h-12zM174 102h12v12h-12zM126 126h12v12h-12zM150 126h12v12h-12zM102 150h12v12h-12zM174 150h12v12h-12zM753 0h6v24h-6zM744 9h24v6h-24zM729 24h6v24h-6zM720 33h24v6h-24zM705 48h6v24h-6zM696 57h24v6h-24zM681 72h6v24h-6zM672 81h24v6h-24zM750 102h12v12h-12zM726 126h12v12h-12zM702 150h12v12h-12zM678 174h12v12h-12zM9 288h6v24h-6zM0 297h24v6h-24zM81 288h6v24h-6zM72 297h24v6h-24zM33 312h6v24h-6zM24 321h24v6h-24zM57 312h6v24h-6zM48 321h24v6h-24zM33 336h6v24h-6zM24 345h24v6h-24zM57 336h6v24h-6zM48 345h24v6h-24zM9 360h6v24h-6zM0 369h24v6h-24zM81 360h6v24h-6zM72 369h24v6h-24zM153 192h6v24h-6zM144 201h24v6h-24zM177 216h6v24h-6zM168 225h24v6h-24zM105 240h6v24h-6zM96 249h24v6h-24zM129 264h6v24h-6zM120 273h24v6h-24zM753 192h6v24h-6zM744 201h24v6h-24zM729 216h6v24h-6zM720 225h24v6h-24zM705 240h6v24h-6zM696 249h24v6h-24zM681 264h6v24h-6zM672 273h24v6h-24zM678 294h12v12h-12zM702 318h12v12h-12zM726 342h12v12h-12zM750 366h12v12h-12z"/><path fill="#fff" d="M144 192h24v24h-24zM168 216h24v24h-24zM192 240h24v24h-24zM216 264h24v24h-24zM216 240h24v24h-24zM216 216h24v24h-24zM216 192h24v24h-24zM216 168h24v24h-24zM240 192h24v24h-24zM264 192h24v24h-24zM288 192h24v24h-24zM312 192h24v24h-24zM336 192h24v24h-24zM360 192h24v24h-24zM384 192h24v24h-24zM384 168h24v24h-24zM384 144h24v24h-24zM384 120h24v24h-24zM360 144h24v24h-24zM336 168h24v24h-24zM288 216h24v24h-24zM264 240h24v24h-24zM240 264h24v24h-24zM216 288h24v24h-24zM192 312h24v24h-24zM168 336h24v24h-24zM144 360h24v24h-24zM120 384h24v24h-24zM96 408h24v24h-24zM72 432h24v24h-24zM216 312h24v24h-24zM216 336h24v24h-24zM216 360h24v24h-24zM216 384h24v24h-24zM216 408h24v24h-24zM240 408h24v24h-24zM264 408h24v24h-24zM288 408h24v24h-24zM312 408h24v24h-24zM336 408h24v24h-24zM360 408h24v24h-24zM384 408h24v24h-24zM408 408h24v24h-24zM432 408h24v24h-24zM456 408h24v24h-24zM192 408h24v24h-24zM168 408h24v24h-24zM144 408h24v24h-24zM120 408h24v24h-24zM72 408h24v24h-24zM48 408h24v24h-24zM24 408h24v24h-24zM24 384h24v24h-24zM24 360h24v24h-24zM24 336h24v24h-24zM24 312h24v24h-24zM24 288h24v24h-24zM24 264h24v24h-24zM48 240h24v24h-24zM72 240h24v24h-24zM96 240h24v24h-24zM120 240h24v24h-24zM144 240h24v24h-24zM168 240h24v24h-24zM192 264h24v24h-24zM168 288h24v24h-24zM144 312h24v24h-24zM120 336h24v24h-24zM96 360h24v24h-24zM72 384h24v24h-24zM24 432h24v24h-24zM0 456h24v24h-24zM24 456h24v24h-24zM48 456h24v24h-24zM72 456h24v24h-24zM96 456h24v24h-24zM120 456h24v24h-24zM144 456h24v24h-24zM168 456h24v24h-24zM192 456h24v24h-24zM216 456h24v24h-24zM240 456h24v24h-24zM264 456h24v24h-24zM240 432h24v24h-24zM192 384h24v24h-24zM168 360h24v24h-24zM144 336h24v24h-24zM120 312h24v24h-24zM96 288h24v24h-24zM120 288h24v24h-24zM144 288h24v24h-24zM192 288h24v24h-24zM240 288h24v24h-24zM264 288h24v24h-24zM288 288h24v24h-24zM312 288h24v24h-24zM336 288h24v24h-24zM360 288h24v24h-24zM384 288h24v24h-24zM408 288h24v24h-24zM288 264h24v24h-24zM288 240h24v24h-24zM264 264h24v24h-24zM192 336h24v24h-24zM144 384h24v24h-24zM96 432h24v24h-24zM48 432h24v24h-24zM240 216h24v24h-24zM288 168h24v24h-24zM312 144h24v24h-24zM336 120h24v24h-24zM360 96h24v24h-24zM336 96h24v24h-24zM312 96h24v24h-24zM336 72h24v24h-24zM360 48h24v24h-24zM336 48h24v24h-24zM312 48h24v24h-24zM288 48h24v24h-24zM264 72h24v24h-24zM240 96h24v24h-24zM216 120h24v24h-24zM192 144h24v24h-24zM168 168h24v24h-24zM144 216h24v24h-24zM144 264h24v24h-24zM144 432h24v24h-24zM168 384h24v24h-24zM216 432h24v24h-24zM264 384h24v24h-24zM288 360h24v24h-24zM312 336h24v24h-24zM336 312h24v24h-24zM384 264h24v24h-24zM408 240h24v24h-24zM432 216h24v24h-24zM432 240h24v24h-24zM432 264h24v24h-24zM432 288h24v24h-24zM432 312h24v24h-24zM432 336h24v24h-24zM432 360h24v24h-24zM456 360h24v24h-24zM456 336h24v24h-24zM456 312h24v24h-24zM456 288h24v24h-24zM456 264h24v24h-24zM456 240h24v24h-24zM384 240h24v24h-24zM360 240h24v24h-24zM336 240h24v24h-24zM312 240h24v24h-24zM240 240h24v24h-24zM384 216h24v24h-24zM576 0h24v24h-24zM576 24h24v24h-24zM576 48h24v24h-24zM576 72h24v24h-24zM576 96h24v24h-24zM576 120h24v24h-24zM576 144h24v24h-24zM576 168h24v24h-24zM576 192h24v24h-24zM576 216h24v24h-24zM576 240h24v24h-24zM576 264h24v24h-24zM576 288h24v24h-24zM576 312h24v24h-24zM576 336h24v24h-24zM600 312h24v24h-24zM624 288h24v24h-24zM648 264h24v24h-24zM672 240h24v24h-24zM696 216h24v24h-24zM720 192h24v24h-24zM744 168h24v24h-24zM768 144h24v24h-24zM792 120h24v24h-24zM816 96h24v24h-24zM840 72h24v24h-24zM864 48h24v24h-24zM888 24h24v24h-24zM864 24h24v24h-24zM840 24h24v24h-24zM816 24h24v24h-24zM792 24h24v24h-24zM768 24h24v24h-24zM744 24h24v24h-24zM720 24h24v24h-24zM696 24h24v24h-24zM672 24h24v24h-24zM648 24h24v24h-24zM624 24h24v24h-24zM600 24h24v24h-24zM552 24h24v24h-24zM600 72h24v24h-24zM624 96h24v24h-24zM648 120h24v24h-24zM672 144h24v24h-24zM696 168h24v24h-24zM744 216h24v24h-24zM768 216h24v24h-24zM792 216h24v24h-24zM816 216h24v24h-24zM840 216h24v24h-24zM864 216h24v24h-24zM888 216h24v24h-24zM912 216h24v24h-24zM912 192h24v24h-24zM912 168h24v24h-24zM912 144h24v24h-24zM912 120h24v24h-24zM912 96h24v24h-24zM912 72h24v24h-24zM912 48h24v24h-24zM936 24h24v24h-24zM912 24h24v24h-24zM888 48h24v24h-24zM840 48h24v24h-24zM816 48h24v24h-24zM792 48h24v24h-24zM768 48h24v24h-24zM744 48h24v24h-24zM720 48h24v24h-24zM696 48h24v24h-24zM720 72h24v24h-24zM744 96h24v24h-24zM768 120h24v24h-24zM792 144h24v24h-24zM816 168h24v24h-24zM840 192h24v24h-24zM816 144h24v24h-24zM816 120h24v24h-24zM816 72h24v24h-24zM816 0h24v24h-24zM744 72h24v24h-24zM720 96h24v24h-24zM696 120h24v24h-24zM648 168h24v24h-24zM624 192h24v24h-24zM648 216h24v24h-24zM696 264h24v24h-24zM720 288h24v24h-24zM744 312h24v24h-24zM768 336h24v24h-24zM792 360h24v24h-24zM816 384h24v24h-24zM840 408h24v24h-24zM864 432h24v24h-24zM888 456h24v24h-24zM888 432h24v24h-24zM888 408h24v24h-24zM888 384h24v24h-24zM888 360h24v24h-24zM888 336h24v24h-24zM888 312h24v24h-24zM888 288h24v24h-24zM888 264h24v24h-24zM888 240h24v24h-24zM888 192h24v24h-24zM888 168h24v24h-24zM888 144h24v24h-24zM888 120h24v24h-24zM888 96h24v24h-24zM888 72h24v24h-24zM528 24h24v24h-24zM504 24h24v24h-24zM528 48h24v24h-24zM552 72h24v24h-24zM600 120h24v24h-24zM624 144h24v24h-24zM672 192h24v24h-24zM720 240h24v24h-24zM744 264h24v24h-24zM768 288h24v24h-24zM792 312h24v24h-24zM816 336h24v24h-24zM840 360h24v24h-24zM864 384h24v24h-24zM816 432h24v24h-24zM792 408h24v24h-24zM768 384h24v24h-24zM744 360h24v24h-24zM720 336h24v24h-24zM696 312h24v24h-24zM672 288h24v24h-24zM624 240h24v24h-24zM600 216h24v24h-24zM576 360h24v24h-24zM576 384h24v24h-24zM576 408h24v24h-24zM576 432h24v24h-24zM600 432h24v24h-24zM624 432h24v24h-24zM648 432h24v24h-24zM672 432h24v24h-24zM696 432h24v24h-24zM720 432h24v24h-24zM744 432h24v24h-24zM768 432h24v24h-24zM792 432h24v24h-24zM912 336h24v24h-24zM936 312h24v24h-24zM912 288h24v24h-24zM864 240h24v24h-24zM816 192h24v24h-24zM792 168h24v24h-24zM744 120h24v24h-24zM696 72h24v24h-24zM672 48h24v24h-24zM624 0h24v24h-24zM528 96h24v24h-24zM528 120h24v24h-24zM528 144h24v24h-24zM528 168h24v24h-24zM528 192h24v24h-24zM528 216h24v24h-24zM528 240h24v24h-24zM528 264h24v24h-24zM528 288h24v24h-24zM528 312h24v24h-24zM528 336h24v24h-24zM528 360h24v24h-24zM528 384h24v24h-24zM528 408h24v24h-24zM528 432h24v24h-24zM552 408h24v24h-24zM600 360h24v24h-24zM624 336h24v24h-24zM648 312h24v24h-24zM768 192h24v24h-24zM840 168h24v24h-24zM864 168h24v24h-24zM912 0h24v24h-24zM840 96h24v24h-24zM840 120h24v24h-24zM840 144h24v24h-24zM792 96h24v24h-24zM768 96h24v24h-24zM768 168h24v24h-24zM744 192h24v24h-24zM696 192h24v24h-24zM648 192h24v24h-24zM600 192h24v24h-24zM600 168h24v24h-24zM600 144h24v24h-24zM600 96h24v24h-24zM600 48h24v24h-24zM600 240h24v24h-24zM600 264h24v24h-24zM600 288h24v24h-24zM600 336h24v24h-24zM600 384h24v24h-24zM600 408h24v24h-24zM600 456h24v24h-24zM144 744h24v24h-24zM168 720h24v24h-24zM192 696h24v24h-24zM216 672h24v24h-24zM216 696h24v24h-24zM216 720h24v24h-24zM216 744h24v24h-24zM216 768h24v24h-24zM240 744h24v24h-24zM264 744h24v24h-24zM288 744h24v24h-24zM312 744h24v24h-24zM336 744h24v24h-24zM360 744h24v24h-24zM384 744h24v24h-24zM384 768h24v24h-24zM384 792h24v24h-24zM384 816h24v24h-24zM360 792h24v24h-24zM336 768h24v24h-24zM288 720h24v24h-24zM264 696h24v24h-24zM240 672h24v24h-24zM216 648h24v24h-24zM192 624h24v24h-24zM168 600h24v24h-24zM144 576h24v24h-24zM120 552h24v24h-24zM96 528h24v24h-24zM72 504h24v24h-24zM216 624h24v24h-24zM216 600h24v24h-24zM216 576h24v24h-24zM216 552h24v24h-24zM216 528h24v24h-24zM240 528h24v24h-24zM264 528h24v24h-24zM288 528h24v24h-24zM312 528h24v24h-24zM336 528h24v24h-24zM360 528h24v24h-24zM384 528h24v24h-24zM408 528h24v24h-24zM432 528h24v24h-24zM456 528h24v24h-24zM192 528h24v24h-24zM168 528h24v24h-24zM144 528h24v24h-24zM120 528h24v24h-24zM72 528h24v24h-24zM48 528h24v24h-24zM24 528h24v24h-24zM24 552h24v24h-24zM24 576h24v24h-24zM24 600h24v24h-24zM24 624h24v24h-24zM24 648h24v24h-24zM24 672h24v24h-24zM48 696h24v24h-24zM72 696h24v24h-24zM96 696h24v24h-24zM120 696h24v24h-24zM144 696h24v24h-24zM168 696h24v24h-24zM192 672h24v24h-24zM168 648h24v24h-24zM144 624h24v24h-24zM120 600h24v24h-24zM96 576h24v24h-24zM72 552h24v24h-24zM24 504h24v24h-24zM0 480h24v24h-24zM24 480h24v24h-24zM48 480h24v24h-24zM72 480h24v24h-24zM96 480h24v24h-24zM120 480h24v24h-24zM144 480h24v24h-24zM168 480h24v24h-24zM192 480h24v24h-24zM216 480h24v24h-24zM240 480h24v24h-24zM264 480h24v24h-24zM240 504h24v24h-24zM192 552h24v24h-24zM168 576h24v24h-24zM144 600h24v24h-24zM120 624h24v24h-24zM96 648h24v24h-24zM120 648h24v24h-24zM144 648h24v24h-24zM192 648h24v24h-24zM240 648h24v24h-24zM264 648h24v24h-24zM288 648h24v24h-24zM312 648h24v24h-24zM336 648h24v24h-24zM360 648h24v24h-24zM384 648h24v24h-24zM408 648h24v24h-24zM288 672h24v24h-24zM288 696h24v24h-24zM264 672h24v24h-24zM192 600h24v24h-24zM144 552h24v24h-24zM96 504h24v24h-24zM48 504h24v24h-24zM240 720h24v24h-24zM288 768h24v24h-24zM312 792h24v24h-24zM336 816h24v24h-24zM360 840h24v24h-24zM336 840h24v24h-24zM312 840h24v24h-24zM336 864h24v24h-24zM360 888h24v24h-24zM336 888h24v24h-24zM312 888h24v24h-24zM288 888h24v24h-24zM264 864h24v24h-24zM240 840h24v24h-24zM216 816h24v24h-24zM192 792h24v24h-24zM168 768h24v24h-24zM144 720h24v24h-24zM144 672h24v24h-24zM144 504h24v24h-24zM168 552h24v24h-24zM216 504h24v24h-24zM264 552h24v24h-24zM288 576h24v24h-24zM312 600h24v24h-24zM336 624h24v24h-24zM384 672h24v24h-24zM408 696h24v24h-24zM432 720h24v24h-24zM432 696h24v24h-24zM432 672h24v24h-24zM432 648h24v24h-24zM432 624h24v24h-24zM432 600h24v24h-24zM432 576h24v24h-24zM456 576h24v24h-24zM456 600h24v24h-24zM456 624h24v24h-24zM456 648h24v24h-24zM456 672h24v24h-24zM456 696h24v24h-24zM384 696h24v24h-24zM360 696h24v24h-24zM336 696h24v24h-24zM312 696h24v24h-24zM240 696h24v24h-24zM384 720h24v24h-24zM576 936h24v24h-24zM576 912h24v24h-24zM576 888h24v24h-24zM576 864h24v24h-24zM576 840h24v24h-24zM576 816h24v24h-24zM576 792h24v24h-24zM576 768h24v24h-24zM576 744h24v24h-24zM576 720h24v24h-24zM576 696h24v24h-24zM576 672h24v24h-24zM576 648h24v24h-24zM576 624h24v24h-24zM576 600h24v24h-24zM600 624h24v24h-24zM624 648h24v24h-24zM648 672h24v24h-24zM672 696h24v24h-24zM696 720h24v24h-24zM720 744h24v24h-24zM744 768h24v24h-24zM768 792h24v24h-24zM792 816h24v24h-24zM816 840h24v24h-24zM840 864h24v24h-24zM864 888h24v24h-24zM888 912h24v24h-24zM864 912h24v24h-24zM840 912h24v24h-24zM816 912h24v24h-24zM792 912h24v24h-24zM768 912h24v24h-24zM744 912h24v24h-24zM720 912h24v24h-24zM696 912h24v24h-24zM672 912h24v24h-24zM648 912h24v24h-24zM624 912h24v24h-24zM600 912h24v24h-24zM552 912h24v24h-24zM600 864h24v24h-24zM624 840h24v24h-24zM648 816h24v24h-24zM672 792h24v24h-24zM696 768h24v24h-24zM744 720h24v24h-24zM768 720h24v24h-24zM792 720h24v24h-24zM816 720h24v24h-24zM840 720h24v24h-24zM864 720h24v24h-24zM888 720h24v24h-24zM912 720h24v24h-24zM912 744h24v24h-24zM912 768h24v24h-24zM912 792h24v24h-24zM912 816h24v24h-24zM912 840h24v24h-24zM912 864h24v24h-24zM912 888h24v24h-24zM936 912h24v24h-24zM912 912h24v24h-24zM888 888h24v24h-24zM840 888h24v24h-24zM816 888h24v24h-24zM792 888h24v24h-24zM768 888h24v24h-24zM744 888h24v24h-24zM720 888h24v24h-24zM696 888h24v24h-24zM720 864h24v24h-24zM744 840h24v24h-24zM768 816h24v24h-24zM792 792h24v24h-24zM816 768h24v24h-24zM840 744h24v24h-24zM816 792h24v24h-24zM816 816h24v24h-24zM816 864h24v24h-24zM816 936h24v24h-24zM744 864h24v24h-24zM720 840h24v24h-24zM696 816h24v24h-24zM648 768h24v24h-24zM624 744h24v24h-24zM648 720h24v24h-24zM696 672h24v24h-24zM720 648h24v24h-24zM744 624h24v24h-24zM768 600h24v24h-24zM792 576h24v24h-24zM816 552h24v24h-24zM840 528h24v24h-24zM864 504h24v24h-24zM888 480h24v24h-24zM888 504h24v24h-24zM888 528h24v24h-24zM888 552h24v24h-24zM888 576h24v24h-24zM888 600h24v24h-24zM888 624h24v24h-24zM888 648h24v24h-24zM888 672h24v24h-24zM888 696h24v24h-24zM888 744h24v24h-24zM888 768h24v24h-24zM888 792h24v24h-24zM888 816h24v24h-24zM888 840h24v24h-24zM888 864h24v24h-24zM528 912h24v24h-24zM504 912h24v24h-24zM528 888h24v24h-24zM552 864h24v24h-24zM600 816h24v24h-24zM624 792h24v24h-24zM672 744h24v24h-24zM720 696h24v24h-24zM744 672h24v24h-24zM768 648h24v24h-24zM792 624h24v24h-24zM816 600h24v24h-24zM840 576h24v24h-24zM864 552h24v24h-24zM816 504h24v24h-24zM792 528h24v24h-24zM768 552h24v24h-24zM744 576h24v24h-24zM720 600h24v24h-24zM696 624h24v24h-24zM672 648h24v24h-24zM624 696h24v24h-24zM600 720h24v24h-24zM576 576h24v24h-24zM576 552h24v24h-24zM576 528h24v24h-24zM576 504h24v24h-24zM600 504h24v24h-24zM624 504h24v24h-24zM648 504h24v24h-24zM672 504h24v24h-24zM696 504h24v24h-24zM720 504h24v24h-24zM744 504h24v24h-24zM768 504h24v24h-24zM792 504h24v24h-24zM912 600h24v24h-24zM936 624h24v24h-24zM912 648h24v24h-24zM864 696h24v24h-24zM816 744h24v24h-24zM792 768h24v24h-24zM744 816h24v24h-24zM696 864h24v24h-24zM672 888h24v24h-24zM624 936h24v24h-24zM528 840h24v24h-24zM528 816h24v24h-24zM528 792h24v24h-24zM528 768h24v24h-24zM528 744h24v24h-24zM528 720h24v24h-24zM528 696h24v24h-24zM528 672h24v24h-24zM528 648h24v24h-24zM528 624h24v24h-24zM528 600h24v24h-24zM528 576h24v24h-24zM528 552h24v24h-24zM528 528h24v24h-24zM528 504h24v24h-24zM552 528h24v24h-24zM600 576h24v24h-24zM624 600h24v24h-24zM648 624h24v24h-24zM768 744h24v24h-24zM840 768h24v24h-24zM864 768h24v24h-24zM912 936h24v24h-24zM840 840h24v24h-24zM840 816h24v24h-24zM840 792h24v24h-24zM792 840h24v24h-24zM768 840h24v24h-24zM768 768h24v24h-24zM744 744h24v24h-24zM696 744h24v24h-24zM648 744h24v24h-24zM600 744h24v24h-24zM600 768h24v24h-24zM600 792h24v24h-24zM600 840h24v24h-24zM600 888h24v24h-24zM600 696h24v24h-24zM600 672h24v24h-24zM600 648h24v24h-24zM600 600h24v24h-24zM600 552h24v24h-24zM600 528h24v24h-24zM600 480h24v24h-24z"/></svg>