<svg xmlns="http://www.w3.org/2000/svg" width="960" height="960" viewBox="0 0 960 960" shape-rendering="crispEdges"><path fill="#000" d="M0 0h960v960h-960z"/><path fill="#8c8c8c" d="M24 24h24v24h-24zM24 96h24v24h-24zM24 168h24v24h-24zM24 240h24v24h-24zM24 312h24v24h-24zM24 384h24v24h-24zM24 456h24v24h-24zM96 24h24v24h-24zM96 96h24v24h-24zM96 168h24v24h-24zM96 240h24v24h-24zM96 312h24v24h-24zM96 384h24v24h-24zM96 456h24v24h-24zM168 24h24v24h-24zM168 96h24v24h-24zM168 168h24v24h-24zM168 240h24v24h-24zM168 312h24v24h-24zM168 384h24v24h-24zM168 456h24v24h-24zM240 24h24v24h-24zM240 96h24v24h-24zM240 168h24v24h-24zM240 240h24v24h-24zM240 312h24v24h-24zM240 384h24v24h-24zM240 456h24v24h-24zM312 24h24v24h-24zM312 96h24v24h-24zM312 168h24v24h-24zM312 240h24v24h-24zM312 312h24v24h-24zM312 384h24v24h-24zM312 456h24v24h-24zM384 24h24v24h-24zM384 96h24v24h-24zM384 168h24v24h-24zM384 240h24v24h-24zM384 312h24v24h-24zM384 384h24v24h-24zM384 456h24v24h-24zM456 24h24v24h-24zM456 96h24v24h-24zM456 168h24v24h-24zM456 240h24v24h-24zM456 312h24v24h-24zM456 384h24v24h-24zM456 456h24v24h-24zM528 24h24v24h-24zM528 96h24v24h-24zM528 168h24v24h-24zM528 240h24v24h-24zM528 312h24v24h-24zM528 384h24v24h-24zM528 456h24v24h-24zM600 24h24v24h-24zM600 96h24v24h-24zM600 168h24v24h-24zM600 240h24v24h-24zM600 312h24v24h-24zM600 384h24v24h-24zM600 456h24v24h-24zM672 24h24v24h-24zM672 96h24v24h-24zM672 168h24v24h-24zM672 240h24v24h-24zM672 312h24v24h-24zM672 384h24v24h-24zM672 456h24v24h-24zM744 24h24v24h-24zM744 96h24v24h-24zM744 168h24v24h-24zM744 240h24v24h-24zM744 312h24v24h-24zM744 384h24v24h-24zM744 456h24v24h-24zM816 24h24v24h-24zM816 96h24v24h-24zM816 168h24v24h-24zM816 240h24v24h-24zM816 312h24v24h-24zM816 384h24v24h-24zM816 456h24v24h-24zM888 24h24v24h-24zM888 96h24v24h-24zM888 168h24v24h-24zM888 240h24v24h-24zM888 312h24v24h-24zM888 384h24v24h-24zM888 456h24v24h-24z"/><path fill="#e6e8de" d="M0 0h24v24h-24zM72 0h24v24h-24zM0 72h24v24h-24zM72 72h24v24h-24zM240 0h24v24h-24zM192 24h24v24h-24zM216 24h24v24h-24zM264 24h24v24h-24zM192 48h24v24h-24zM240 48h24v24h-24zM264 48h24v24h-24zM216 72h24v24h-24zM384 24h24v24h-24zM456 24h24v24h-24zM384 48h24v24h-24zM456 48h24v24h-24zM552 0h24v24h-24zM528 24h24v24h-24zM504 48h24v24h-24zM552 48h24v24h-24zM480 72h24v24h-24zM528 72h24v24h-24zM552 72h24v24h-24zM600 0h24v24h-24zM576 24h24v24h-24zM624 24h24v24h-24zM600 48h24v24h-24zM648 48h24v24h-24zM624 72h24v24h-24zM672 24h24v24h-24zM696 24h24v24h-24zM672 48h24v24h-24zM744 48h24v24h-24zM840 0h24v24h-24zM816 24h24v24h-24zM792 48h24v24h-24zM768 72h24v24h-24zM864 0h24v24h-24zM936 0h24v24h-24zM912 24h24v24h-24zM888 48h24v24h-24zM912 48h24v24h-24zM864 72h24v24h-24zM936 72h24v24h-24zM480 96h24v24h-24zM480 120h24v24h-24zM552 144h24v24h-24zM552 168h24v24h-24zM624 96h24v24h-24zM648 96h24v24h-24zM624 120h24v24h-24zM648 120h24v24h-24zM576 144h24v24h-24zM600 144h24v24h-24zM576 168h24v24h-24zM600 168h24v24h-24zM672 96h24v24h-24zM672 120h24v24h-24zM744 144h24v24h-24zM744 168h24v24h-24zM768 96h24v24h-24zM792 96h24v24h-24zM768 120h24v24h-24zM792 120h24v24h-24zM816 144h24v24h-24zM840 144h24v24h-24zM816 168h24v24h-24zM840 168h24v24h-24zM864 96h24v24h-24zM888 96h24v24h-24zM864 120h24v24h-24zM888 120h24v24h-24zM912 144h24v24h-24zM936 144h24v24h-24zM912 168h24v24h-24zM936 168h24v24h-24zM24 192h24v24h-24zM48 192h24v24h-24zM48 216h24v24h-24zM24 264h24v24h-24zM192 192h24v24h-24zM264 192h24v24h-24zM240 216h24v24h-24zM216 240h24v24h-24zM240 240h24v24h-24zM192 264h24v24h-24zM264 264h24v24h-24zM384 192h24v24h-24zM456 192h24v24h-24zM384 264h24v24h-24zM456 264h24v24h-24zM480 192h24v24h-24zM480 216h24v24h-24zM552 240h24v24h-24zM552 264h24v24h-24zM576 192h24v24h-24zM648 192h24v24h-24zM600 216h24v24h-24zM624 216h24v24h-24zM576 264h24v24h-24zM648 264h24v24h-24zM696 192h24v24h-24zM672 216h24v24h-24zM744 240h24v24h-24zM720 264h24v24h-24zM792 192h24v24h-24zM768 216h24v24h-24zM840 240h24v24h-24zM816 264h24v24h-24zM864 192h24v24h-24zM888 192h24v24h-24zM936 192h24v24h-24zM864 216h24v24h-24zM912 216h24v24h-24zM888 240h24v24h-24zM864 264h24v24h-24zM0 288h24v24h-24zM72 288h24v24h-24zM24 312h24v24h-24zM48 336h24v24h-24zM0 360h24v24h-24zM72 360h24v24h-24zM144 288h24v24h-24zM120 312h24v24h-24zM168 312h24v24h-24zM96 336h24v24h-24zM144 336h24v24h-24zM120 360h24v24h-24zM240 288h24v24h-24zM240 312h24v24h-24zM264 312h24v24h-24zM192 336h24v24h-24zM216 336h24v24h-24zM216 360h24v24h-24zM288 288h24v24h-24zM288 312h24v24h-24zM360 336h24v24h-24zM360 360h24v24h-24zM384 288h24v24h-24zM456 288h24v24h-24zM408 312h24v24h-24zM432 312h24v24h-24zM408 336h24v24h-24zM384 360h24v24h-24zM456 360h24v24h-24zM24 384h24v24h-24zM0 408h24v24h-24zM24 408h24v24h-24zM48 432h24v24h-24zM72 432h24v24h-24zM48 456h24v24h-24zM144 384h24v24h-24zM120 408h24v24h-24zM168 408h24v24h-24zM96 432h24v24h-24zM144 432h24v24h-24zM120 456h24v24h-24zM216 384h24v24h-24zM264 384h24v24h-24zM216 456h24v24h-24zM264 456h24v24h-24zM288 384h24v24h-24zM360 384h24v24h-24zM312 408h24v24h-24zM336 408h24v24h-24zM288 456h24v24h-24zM360 456h24v24h-24zM384 384h24v24h-24zM456 384h24v24h-24zM384 456h24v24h-24zM456 456h24v24h-24zM576 408h24v24h-24zM648 408h24v24h-24zM576 432h24v24h-24zM600 432h24v24h-24zM816 384h24v24h-24zM840 384h24v24h-24zM768 456h24v24h-24zM792 456h24v24h-24zM0 480h24v24h-24zM24 480h24v24h-24zM0 504h24v24h-24zM24 504h24v24h-24zM48 528h24v24h-24zM72 528h24v24h-24zM48 552h24v24h-24zM72 552h24v24h-24zM120 480h24v24h-24zM168 480h24v24h-24zM96 504h24v24h-24zM168 528h24v24h-24zM96 552h24v24h-24zM144 552h24v24h-24zM216 480h24v24h-24zM240 480h24v24h-24zM192 504h24v24h-24zM240 504h24v24h-24zM216 528h24v24h-24zM264 528h24v24h-24zM216 552h24v24h-24zM240 552h24v24h-24zM336 480h24v24h-24zM360 480h24v24h-24zM336 504h24v24h-24zM360 504h24v24h-24zM288 528h24v24h-24zM312 528h24v24h-24zM288 552h24v24h-24zM312 552h24v24h-24zM432 480h24v24h-24zM456 480h24v24h-24zM432 504h24v24h-24zM456 504h24v24h-24zM384 528h24v24h-24zM408 528h24v24h-24zM384 552h24v24h-24zM408 552h24v24h-24zM0 600h24v24h-24zM72 600h24v24h-24zM0 624h24v24h-24zM72 624h24v24h-24zM216 576h24v24h-24zM264 576h24v24h-24zM240 600h24v24h-24zM240 624h24v24h-24zM216 648h24v24h-24zM264 648h24v24h-24zM384 576h24v24h-24zM408 600h24v24h-24zM432 624h24v24h-24zM456 648h24v24h-24zM504 576h24v24h-24zM528 576h24v24h-24zM480 600h24v24h-24zM528 600h24v24h-24zM504 624h24v24h-24zM552 624h24v24h-24zM504 648h24v24h-24zM528 648h24v24h-24zM576 576h24v24h-24zM600 576h24v24h-24zM624 648h24v24h-24zM648 648h24v24h-24zM672 576h24v24h-24zM744 576h24v24h-24zM696 600h24v24h-24zM720 624h24v24h-24zM672 648h24v24h-24zM744 648h24v24h-24zM792 576h24v24h-24zM768 600h24v24h-24zM792 600h24v24h-24zM816 624h24v24h-24zM840 624h24v24h-24zM816 648h24v24h-24zM864 576h24v24h-24zM936 576h24v24h-24zM912 600h24v24h-24zM888 624h24v24h-24zM912 624h24v24h-24zM864 648h24v24h-24zM936 648h24v24h-24zM504 672h24v24h-24zM480 696h24v24h-24zM528 696h24v24h-24zM552 696h24v24h-24zM480 720h24v24h-24zM504 720h24v24h-24zM552 720h24v24h-24zM528 744h24v24h-24zM576 696h24v24h-24zM648 696h24v24h-24zM576 720h24v24h-24zM648 720h24v24h-24zM720 672h24v24h-24zM720 696h24v24h-24zM744 696h24v24h-24zM672 720h24v24h-24zM696 720h24v24h-24zM696 744h24v24h-24zM792 672h24v24h-24zM840 672h24v24h-24zM768 696h24v24h-24zM792 696h24v24h-24zM816 720h24v24h-24zM840 720h24v24h-24zM768 744h24v24h-24zM816 744h24v24h-24zM864 672h24v24h-24zM912 672h24v24h-24zM936 696h24v24h-24zM864 720h24v24h-24zM888 744h24v24h-24zM936 744h24v24h-24zM0 768h24v24h-24zM48 768h24v24h-24zM48 792h24v24h-24zM72 792h24v24h-24zM0 816h24v24h-24zM24 816h24v24h-24zM24 840h24v24h-24zM72 840h24v24h-24zM192 768h24v24h-24zM264 768h24v24h-24zM192 840h24v24h-24zM264 840h24v24h-24zM408 768h24v24h-24zM456 768h24v24h-24zM432 792h24v24h-24zM432 816h24v24h-24zM408 840h24v24h-24zM456 840h24v24h-24zM552 768h24v24h-24zM528 792h24v24h-24zM504 816h24v24h-24zM480 840h24v24h-24zM624 768h24v24h-24zM624 792h24v24h-24zM648 792h24v24h-24zM576 816h24v24h-24zM600 816h24v24h-24zM600 840h24v24h-24zM672 768h24v24h-24zM720 768h24v24h-24zM720 792h24v24h-24zM744 792h24v24h-24zM672 816h24v24h-24zM696 816h24v24h-24zM696 840h24v24h-24zM744 840h24v24h-24zM768 768h24v24h-24zM792 768h24v24h-24zM816 840h24v24h-24zM840 840h24v24h-24zM864 792h24v24h-24zM936 792h24v24h-24zM864 816h24v24h-24zM888 816h24v24h-24zM480 864h24v24h-24zM552 864h24v24h-24zM504 888h24v24h-24zM528 888h24v24h-24zM480 912h24v24h-24zM552 912h24v24h-24zM576 864h24v24h-24zM648 864h24v24h-24zM576 912h24v24h-24zM648 912h24v24h-24zM672 864h24v24h-24zM744 864h24v24h-24zM696 888h24v24h-24zM720 888h24v24h-24zM696 912h24v24h-24zM720 912h24v24h-24zM672 936h24v24h-24zM744 936h24v24h-24zM816 864h24v24h-24zM768 888h24v24h-24zM792 888h24v24h-24zM840 888h24v24h-24zM768 912h24v24h-24zM816 912h24v24h-24zM840 912h24v24h-24zM792 936h24v24h-24zM864 864h24v24h-24zM888 864h24v24h-24zM936 864h24v24h-24zM864 888h24v24h-24zM912 888h24v24h-24zM888 912h24v24h-24zM864 936h24v24h-24zM600 288h24v24h-24zM576 312h24v24h-24zM648 336h24v24h-24zM624 360h24v24h-24zM0 864h24v24h-24zM48 864h24v24h-24zM48 888h24v24h-24zM72 888h24v24h-24zM0 912h24v24h-24zM24 912h24v24h-24zM24 936h24v24h-24zM72 936h24v24h-24zM600 480h24v24h-24zM624 480h24v24h-24zM576 504h24v24h-24zM624 504h24v24h-24zM600 528h24v24h-24zM648 528h24v24h-24zM600 552h24v24h-24zM624 552h24v24h-24zM384 120h24v24h-24zM456 120h24v24h-24zM384 144h24v24h-24zM456 144h24v24h-24zM720 288h24v24h-24zM744 288h24v24h-24zM672 360h24v24h-24zM696 360h24v24h-24zM288 768h24v24h-24zM360 768h24v24h-24zM288 840h24v24h-24zM360 840h24v24h-24zM792 288h24v24h-24zM768 312h24v24h-24zM840 336h24v24h-24zM816 360h24v24h-24zM912 384h24v24h-24zM936 384h24v24h-24zM864 456h24v24h-24zM888 456h24v24h-24z"/><path fill="#fff" d="M336 120h12v12h-12zM348 120h12v12h-12zM360 120h12v12h-12zM372 120h12v12h-12zM384 120h12v12h-12zM396 120h12v12h-12zM408 120h12v12h-12zM420 120h12v12h-12zM432 120h12v12h-12zM444 120h12v12h-12zM456 120h12v12h-12zM468 120h12v12h-12zM468 132h12v12h-12zM468 144h12v12h-12zM468 156h12v12h-12zM468 168h12v12h-12zM468 180h12v12h-12zM468 192h12v12h-12zM468 204h12v12h-12zM468 216h12v12h-12zM468 228h12v12h-12zM468 240h12v12h-12zM468 252h12v12h-12zM468 264h12v12h-12zM468 276h12v12h-12zM468 288h12v12h-12zM468 300h12v12h-12zM468 312h12v12h-12zM468 324h12v12h-12zM468 336h12v12h-12zM468 348h12v12h-12zM468 360h12v12h-12zM468 372h12v12h-12zM468 384h12v12h-12zM468 396h12v12h-12zM468 408h12v12h-12zM468 420h12v12h-12zM468 432h12v12h-12zM456 432h12v12h-12zM444 432h12v12h-12zM432 432h12v12h-12zM420 432h12v12h-12zM408 432h12v12h-12zM396 432h12v12h-12zM384 432h12v12h-12zM372 432h12v12h-12zM360 432h12v12h-12zM348 432h12v12h-12zM336 432h12v12h-12zM324 432h12v12h-12zM312 432h12v12h-12zM300 432h12v12h-12zM288 432h12v12h-12zM276 432h12v12h-12zM264 432h12v12h-12zM252 432h12v12h-12zM240 432h12v12h-12zM228 432h12v12h-12zM216 432h12v12h-12zM204 432h12v12h-12zM192 432h12v12h-12zM180 432h12v12h-12zM168 432h12v12h-12zM168 420h12v12h-12zM168 408h12v12h-12zM168 396h12v12h-12zM168 384h12v12h-12zM168 372h12v12h-12zM168 360h12v12h-12zM168 348h12v12h-12zM168 336h12v12h-12zM168 324h12v12h-12zM168 312h12v12h-12zM168 300h12v12h-12zM168 288h12v12h-12zM168 276h12v12h-12zM168 264h12v12h-12zM168 252h12v12h-12zM168 240h12v12h-12zM168 228h12v12h-12zM168 216h12v12h-12zM168 204h12v12h-12zM168 192h12v12h-12zM168 180h12v12h-12zM168 168h12v12h-12zM168 156h12v12h-12zM168 144h12v12h-12zM168 132h12v12h-12zM168 120h12v12h-12zM168 108h12v12h-12zM168 96h12v12h-12zM168 84h12v12h-12zM168 72h12v12h-12zM168 60h12v12h-12zM168 48h12v12h-12zM180 300h12v12h-12zM192 288h12v12h-12zM204 276h12v12h-12zM216 264h12v12h-12zM228 252h12v12h-12zM240 240h12v12h-12zM252 228h12v12h-12zM264 216h12v12h-12zM276 204h12v12h-12zM288 192h12v12h-12zM300 180h12v12h-12zM312 168h12v12h-12zM324 156h12v12h-12zM336 144h12v12h-12zM348 132h12v12h-12zM372 108h12v12h-12zM384 96h12v12h-12zM396 84h12v12h-12zM408 72h12v12h-12zM420 60h12v12h-12zM432 48h12v12h-12zM444 36h12v12h-12zM456 24h12v12h-12zM444 12h12v12h-12zM432 0h12v12h-12zM420 0h12v12h-12zM408 0h12v12h-12zM396 0h12v12h-12zM384 0h12v12h-12zM372 0h12v12h-12zM360 0h12v12h-12zM348 0h12v12h-12zM336 0h12v12h-12zM324 0h12v12h-12zM312 0h12v12h-12zM300 0h12v12h-12zM288 0h12v12h-12zM276 0h12v12h-12zM264 0h12v12h-12zM252 0h12v12h-12zM240 0h12v12h-12zM228 0h12v12h-12zM216 0h12v12h-12zM204 0h12v12h-12zM192 0h12v12h-12zM180 0h12v12h-12zM168 0h12v12h-12zM156 0h12v12h-12zM144 0h12v12h-12zM132 0h12v12h-12zM120 0h12v12h-12zM132 12h12v12h-12zM144 12h12v12h-12zM156 12h12v12h-12zM168 12h12v12h-12zM180 12h12v12h-12zM192 12h12v12h-12zM204 12h12v12h-12zM216 12h12v12h-12zM228 12h12v12h-12zM240 12h12v12h-12zM252 12h12v12h-12zM264 12h12v12h-12zM276 12h12v12h-12zM288 12h12v12h-12zM300 12h12v12h-12zM312 12h12v12h-12zM324 12h12v12h-12zM336 12h12v12h-12zM348 12h12v12h-12zM360 12h12v12h-12zM372 12h12v12h-12zM384 12h12v12h-12zM396 12h12v12h-12zM396 24h12v12h-12zM396 36h12v12h-12zM396 48h12v12h-12zM396 60h12v12h-12zM396 72h12v12h-12zM396 96h12v12h-12zM396 108h12v12h-12zM396 132h12v12h-12zM396 144h12v12h-12zM396 156h12v12h-12zM396 168h12v12h-12zM396 180h12v12h-12zM408 168h12v12h-12zM420 156h12v12h-12zM432 144h12v12h-12zM420 144h12v12h-12zM408 144h12v12h-12zM384 144h12v12h-12zM372 144h12v12h-12zM360 144h12v12h-12zM348 144h12v12h-12zM324 144h12v12h-12zM312 144h12v12h-12zM300 144h12v12h-12zM288 144h12v12h-12zM276 144h12v12h-12zM264 144h12v12h-12zM252 144h12v12h-12zM264 156h12v12h-12zM276 168h12v12h-12zM288 180h12v12h-12zM300 192h12v12h-12zM312 204h12v12h-12zM324 216h12v12h-12zM336 228h12v12h-12zM348 240h12v12h-12zM360 252h12v12h-12zM372 264h12v12h-12zM384 276h12v12h-12zM396 288h12v12h-12zM396 300h12v12h-12zM396 312h12v12h-12zM396 324h12v12h-12zM396 336h12v12h-12zM396 348h12v12h-12zM396 360h12v12h-12zM396 372h12v12h-12zM396 384h12v12h-12zM396 396h12v12h-12zM396 408h12v12h-12zM396 420h12v12h-12zM396 444h12v12h-12zM384 444h12v12h-12zM372 444h12v12h-12zM360 444h12v12h-12zM348 444h12v12h-12zM336 444h12v12h-12zM324 444h12v12h-12zM312 444h12v12h-12zM300 444h12v12h-12zM288 444h12v12h-12zM276 444h12v12h-12zM264 444h12v12h-12zM252 444h12v12h-12zM240 444h12v12h-12zM228 444h12v12h-12zM216 444h12v12h-12zM204 444h12v12h-12zM192 444h12v12h-12zM180 444h12v12h-12zM168 444h12v12h-12zM156 444h12v12h-12zM180 420h12v12h-12zM192 408h12v12h-12zM204 396h12v12h-12zM216 384h12v12h-12zM228 372h12v12h-12zM240 360h12v12h-12zM252 348h12v12h-12zM264 336h12v12h-12zM276 324h12v12h-12zM288 312h12v12h-12zM300 300h12v12h-12zM312 288h12v12h-12zM324 276h12v12h-12zM312 264h12v12h-12zM300 252h12v12h-12zM288 240h12v12h-12zM276 228h12v12h-12zM252 204h12v12h-12zM240 192h12v12h-12zM228 180h12v12h-12zM216 168h12v12h-12zM204 156h12v12h-12zM192 144h12v12h-12zM180 132h12v12h-12zM156 108h12v12h-12zM144 96h12v12h-12zM132 84h12v12h-12zM144 84h12v12h-12zM156 84h12v12h-12zM180 84h12v12h-12zM192 84h12v12h-12zM204 84h12v12h-12zM216 84h12v12h-12zM228 84h12v12h-12zM240 84h12v12h-12zM252 84h12v12h-12zM264 84h12v12h-12zM276 84h12v12h-12zM288 84h12v12h-12zM300 84h12v12h-12zM312 84h12v12h-12zM324 84h12v12h-12zM336 84h12v12h-12zM276 96h12v12h-12zM276 108h12v12h-12zM276 120h12v12h-12zM276 132h12v12h-12zM276 156h12v12h-12zM276 180h12v12h-12zM276 192h12v12h-12zM276 216h12v12h-12zM276 240h12v12h-12zM276 252h12v12h-12zM300 228h12v12h-12zM312 216h12v12h-12zM324 204h12v12h-12zM336 192h12v12h-12zM336 204h12v12h-12zM336 216h12v12h-12zM336 240h12v12h-12zM336 252h12v12h-12zM336 264h12v12h-12zM336 276h12v12h-12zM336 288h12v12h-12zM336 300h12v12h-12zM336 312h12v12h-12zM336 324h12v12h-12zM336 336h12v12h-12zM336 348h12v12h-12zM336 360h12v12h-12zM336 372h12v12h-12zM336 384h12v12h-12zM336 396h12v12h-12zM336 408h12v12h-12zM336 420h12v12h-12zM324 420h12v12h-12zM312 420h12v12h-12zM300 420h12v12h-12zM288 420h12v12h-12zM276 420h12v12h-12zM264 420h12v12h-12zM252 420h12v12h-12zM240 420h12v12h-12zM228 420h12v12h-12zM216 420h12v12h-12zM204 420h12v12h-12zM192 420h12v12h-12zM192 456h12v12h-12zM192 396h12v12h-12zM192 384h12v12h-12zM192 372h12v12h-12zM192 360h12v12h-12zM192 348h12v12h-12zM180 348h12v12h-12zM156 348h12v12h-12zM144 348h12v12h-12zM132 348h12v12h-12zM120 348h12v12h-12zM108 348h12v12h-12zM96 348h12v12h-12zM84 348h12v12h-12zM72 348h12v12h-12zM60 348h12v12h-12zM48 348h12v12h-12zM60 336h12v12h-12zM72 324h12v12h-12zM84 312h12v12h-12zM96 300h12v12h-12zM108 288h12v12h-12zM120 276h12v12h-12zM132 264h12v12h-12zM144 252h12v12h-12zM156 240h12v12h-12zM180 216h12v12h-12zM192 204h12v12h-12zM204 192h12v12h-12zM216 180h12v12h-12zM228 168h12v12h-12zM240 156h12v12h-12zM264 132h12v12h-12zM288 108h12v12h-12zM300 96h12v12h-12zM300 108h12v12h-12zM300 120h12v12h-12zM300 132h12v12h-12zM300 156h12v12h-12zM300 168h12v12h-12zM300 204h12v12h-12zM300 216h12v12h-12zM300 240h12v12h-12zM300 264h12v12h-12zM300 276h12v12h-12zM300 288h12v12h-12zM300 312h12v12h-12zM300 324h12v12h-12zM300 336h12v12h-12zM300 348h12v12h-12zM300 360h12v12h-12zM300 372h12v12h-12zM300 384h12v12h-12zM288 132h12v12h-12zM264 108h12v12h-12zM252 96h12v12h-12zM228 72h12v12h-12zM216 60h12v12h-12zM204 60h12v12h-12zM192 60h12v12h-12zM180 60h12v12h-12zM156 60h12v12h-12zM144 60h12v12h-12zM132 60h12v12h-12zM120 60h12v12h-12zM108 60h12v12h-12zM96 60h12v12h-12zM84 60h12v12h-12zM72 60h12v12h-12zM60 60h12v12h-12zM48 60h12v12h-12zM36 60h12v12h-12zM48 72h12v12h-12zM48 84h12v12h-12zM60 72h12v12h-12zM84 48h12v12h-12zM96 36h12v12h-12zM108 24h12v12h-12zM120 12h12v12h-12zM132 24h12v12h-12zM144 36h12v12h-12zM156 48h12v12h-12zM180 72h12v12h-12zM204 96h12v12h-12zM216 108h12v12h-12zM228 120h12v12h-12zM240 132h12v12h-12zM300 72h12v12h-12zM300 60h12v12h-12zM300 48h12v12h-12zM300 36h12v12h-12zM312 48h12v12h-12zM324 60h12v12h-12zM336 72h12v12h-12zM348 84h12v12h-12zM360 96h12v12h-12zM432 168h12v12h-12zM444 180h12v12h-12zM456 192h12v12h-12zM468 108h12v12h-12zM468 96h12v12h-12zM468 84h12v12h-12zM468 72h12v12h-12zM468 60h12v12h-12zM468 48h12v12h-12zM456 300h12v12h-12zM444 300h12v12h-12zM432 300h12v12h-12zM420 300h12v12h-12zM408 300h12v12h-12zM384 288h12v12h-12zM372 276h12v12h-12zM360 264h12v12h-12zM348 252h12v12h-12zM324 228h12v12h-12zM264 168h12v12h-12zM252 156h12v12h-12zM240 144h12v12h-12zM228 132h12v12h-12zM216 120h12v12h-12zM204 108h12v12h-12zM192 96h12v12h-12zM144 48h12v12h-12zM132 36h12v12h-12zM156 36h12v12h-12zM168 36h12v12h-12zM180 36h12v12h-12zM192 36h12v12h-12zM204 36h12v12h-12zM216 36h12v12h-12zM228 36h12v12h-12zM240 36h12v12h-12zM252 36h12v12h-12zM264 36h12v12h-12zM276 36h12v12h-12zM288 36h12v12h-12zM312 36h12v12h-12zM324 36h12v12h-12zM336 36h12v12h-12zM336 48h12v12h-12zM336 60h12v12h-12zM336 96h12v12h-12zM336 108h12v12h-12zM336 132h12v12h-12zM324 132h12v12h-12zM312 120h12v12h-12zM288 96h12v12h-12zM264 72h12v12h-12zM252 60h12v12h-12zM240 48h12v12h-12zM216 24h12v12h-12zM192 24h12v12h-12zM144 72h12v12h-12zM120 96h12v12h-12zM108 108h12v12h-12zM96 120h12v12h-12zM84 132h12v12h-12zM72 144h12v12h-12zM60 156h12v12h-12zM768 144h12v12h-12zM756 156h12v12h-12zM744 168h12v12h-12zM732 180h12v12h-12zM720 192h12v12h-12zM708 204h12v12h-12zM696 216h12v12h-12zM684 228h12v12h-12zM672 240h12v12h-12zM660 252h12v12h-12zM648 264h12v12h-12zM636 276h12v12h-12zM624 288h12v12h-12zM612 300h12v12h-12zM600 312h12v12h-12zM588 324h12v12h-12zM576 336h12v12h-12zM564 348h12v12h-12zM552 360h12v12h-12zM540 372h12v12h-12zM528 384h12v12h-12zM516 396h12v12h-12zM780 132h12v12h-12zM792 120h12v12h-12zM804 108h12v12h-12zM816 96h12v12h-12zM828 84h12v12h-12zM840 84h12v12h-12zM852 84h12v12h-12zM864 84h12v12h-12zM876 84h12v12h-12zM888 84h12v12h-12zM900 84h12v12h-12zM912 84h12v12h-12zM924 84h12v12h-12zM936 84h12v12h-12zM948 84h12v12h-12zM948 96h12v12h-12zM948 108h12v12h-12zM948 120h12v12h-12zM948 132h12v12h-12zM948 144h12v12h-12zM948 156h12v12h-12zM948 168h12v12h-12zM948 180h12v12h-12zM948 192h12v12h-12zM948 204h12v12h-12zM948 216h12v12h-12zM948 228h12v12h-12zM948 240h12v12h-12zM948 252h12v12h-12zM948 264h12v12h-12zM948 276h12v12h-12zM948 288h12v12h-12zM948 300h12v12h-12zM948 312h12v12h-12zM948 324h12v12h-12zM948 336h12v12h-12zM948 348h12v12h-12zM948 360h12v12h-12zM948 372h12v12h-12zM948 384h12v12h-12zM948 396h12v12h-12zM948 408h12v12h-12zM948 420h12v12h-12zM936 420h12v12h-12zM924 420h12v12h-12zM912 420h12v12h-12zM900 420h12v12h-12zM888 420h12v12h-12zM876 420h12v12h-12zM864 420h12v12h-12zM852 420h12v12h-12zM840 420h12v12h-12zM828 420h12v12h-12zM816 420h12v12h-12zM804 420h12v12h-12zM792 420h12v12h-12zM780 420h12v12h-12zM768 420h12v12h-12zM756 420h12v12h-12zM744 420h12v12h-12zM732 420h12v12h-12zM720 408h12v12h-12zM708 396h12v12h-12zM696 384h12v12h-12zM684 372h12v12h-12zM672 360h12v12h-12zM660 348h12v12h-12zM648 336h12v12h-12zM636 324h12v12h-12zM624 312h12v12h-12zM600 288h12v12h-12zM588 276h12v12h-12zM576 264h12v12h-12zM576 252h12v12h-12zM576 240h12v12h-12zM576 228h12v12h-12zM576 216h12v12h-12zM576 204h12v12h-12zM576 192h12v12h-12zM564 204h12v12h-12zM552 216h12v12h-12zM552 228h12v12h-12zM552 240h12v12h-12zM552 252h12v12h-12zM552 264h12v12h-12zM552 276h12v12h-12zM552 288h12v12h-12zM552 300h12v12h-12zM552 312h12v12h-12zM552 324h12v12h-12zM552 336h12v12h-12zM552 348h12v12h-12zM552 372h12v12h-12zM552 384h12v12h-12zM552 396h12v12h-12zM552 408h12v12h-12zM552 420h12v12h-12zM552 432h12v12h-12zM552 444h12v12h-12zM552 456h12v12h-12zM552 468h12v12h-12zM564 420h12v12h-12zM576 420h12v12h-12zM588 420h12v12h-12zM600 420h12v12h-12zM612 420h12v12h-12zM624 420h12v12h-12zM636 420h12v12h-12zM648 420h12v12h-12zM660 420h12v12h-12zM672 420h12v12h-12zM684 420h12v12h-12zM696 420h12v12h-12zM708 420h12v12h-12zM720 420h12v12h-12zM768 408h12v12h-12zM768 396h12v12h-12zM768 384h12v12h-12zM768 372h12v12h-12zM780 384h12v12h-12zM792 396h12v12h-12zM804 408h12v12h-12zM792 408h12v12h-12zM780 408h12v12h-12zM756 408h12v12h-12zM744 408h12v12h-12zM732 408h12v12h-12zM708 408h12v12h-12zM696 408h12v12h-12zM684 408h12v12h-12zM672 408h12v12h-12zM660 408h12v12h-12zM648 408h12v12h-12zM636 408h12v12h-12zM624 408h12v12h-12zM612 408h12v12h-12zM600 408h12v12h-12zM588 408h12v12h-12zM576 408h12v12h-12zM564 408h12v12h-12zM756 360h12v12h-12zM744 348h12v12h-12zM732 336h12v12h-12zM720 336h12v12h-12zM708 336h12v12h-12zM696 336h12v12h-12zM684 336h12v12h-12zM672 336h12v12h-12zM660 336h12v12h-12zM636 336h12v12h-12zM624 336h12v12h-12zM612 336h12v12h-12zM600 336h12v12h-12zM588 336h12v12h-12zM576 324h12v12h-12zM576 348h12v12h-12zM576 360h12v12h-12zM576 372h12v12h-12zM576 384h12v12h-12zM576 396h12v12h-12zM576 432h12v12h-12zM612 396h12v12h-12zM624 384h12v12h-12zM636 372h12v12h-12zM648 360h12v12h-12zM684 324h12v12h-12zM696 312h12v12h-12zM708 300h12v12h-12zM720 288h12v12h-12zM732 276h12v12h-12zM744 264h12v12h-12zM756 252h12v12h-12zM768 240h12v12h-12zM780 228h12v12h-12zM792 216h12v12h-12zM804 204h12v12h-12zM816 192h12v12h-12zM828 180h12v12h-12zM840 168h12v12h-12zM852 156h12v12h-12zM864 144h12v12h-12zM876 132h12v12h-12zM888 120h12v12h-12zM900 108h12v12h-12zM912 96h12v12h-12zM924 96h12v12h-12zM924 108h12v12h-12zM924 120h12v12h-12zM924 132h12v12h-12zM924 144h12v12h-12zM924 156h12v12h-12zM924 168h12v12h-12zM924 180h12v12h-12zM924 192h12v12h-12zM912 192h12v12h-12zM900 192h12v12h-12zM888 192h12v12h-12zM876 192h12v12h-12zM864 192h12v12h-12zM852 192h12v12h-12zM840 192h12v12h-12zM828 192h12v12h-12zM804 192h12v12h-12zM792 192h12v12h-12zM780 192h12v12h-12zM768 192h12v12h-12zM756 192h12v12h-12zM744 192h12v12h-12zM732 192h12v12h-12zM708 192h12v12h-12zM696 192h12v12h-12zM684 192h12v12h-12zM672 192h12v12h-12zM660 192h12v12h-12zM648 192h12v12h-12zM636 192h12v12h-12zM624 192h12v12h-12zM612 192h12v12h-12zM600 192h12v12h-12zM588 192h12v12h-12zM564 192h12v12h-12zM552 192h12v12h-12zM540 192h12v12h-12zM528 192h12v12h-12zM516 192h12v12h-12zM504 192h12v12h-12zM492 192h12v12h-12zM492 204h12v12h-12zM492 216h12v12h-12zM492 228h12v12h-12zM492 240h12v12h-12zM492 252h12v12h-12zM492 264h12v12h-12zM492 276h12v12h-12zM492 288h12v12h-12zM492 300h12v12h-12zM492 312h12v12h-12zM492 324h12v12h-12zM492 336h12v12h-12zM492 348h12v12h-12zM492 360h12v12h-12zM492 372h12v12h-12zM492 384h12v12h-12zM492 396h12v12h-12zM492 408h12v12h-12zM492 420h12v12h-12zM492 432h12v12h-12zM492 444h12v12h-12zM492 456h12v12h-12zM504 468h12v12h-12zM516 456h12v12h-12zM528 444h12v12h-12zM540 432h12v12h-12zM588 384h12v12h-12zM600 384h12v12h-12zM612 384h12v12h-12zM636 384h12v12h-12zM648 384h12v12h-12zM660 384h12v12h-12zM672 384h12v12h-12zM684 384h12v12h-12zM708 384h12v12h-12zM720 384h12v12h-12zM732 384h12v12h-12zM744 384h12v12h-12zM756 384h12v12h-12zM792 384h12v12h-12zM804 384h12v12h-12zM816 384h12v12h-12zM828 372h12v12h-12zM840 360h12v12h-12zM840 372h12v12h-12zM840 384h12v12h-12zM840 396h12v12h-12zM840 408h12v12h-12zM840 432h12v12h-12zM840 444h12v12h-12zM828 432h12v12h-12zM720 324h12v12h-12zM708 312h12v12h-12zM696 300h12v12h-12zM684 288h12v12h-12zM672 276h12v12h-12zM660 264h12v12h-12zM648 252h12v12h-12zM636 240h12v12h-12zM624 228h12v12h-12zM612 216h12v12h-12zM600 204h12v12h-12zM576 180h12v12h-12zM564 168h12v12h-12zM552 156h12v12h-12zM540 144h12v12h-12zM660 288h12v12h-12zM648 300h12v12h-12zM636 312h12v12h-12zM624 324h12v12h-12zM600 348h12v12h-12zM588 360h12v12h-12zM564 384h12v12h-12zM684 264h12v12h-12zM696 276h12v12h-12zM708 288h12v12h-12zM720 300h12v12h-12zM732 312h12v12h-12zM744 324h12v12h-12zM744 336h12v12h-12zM744 360h12v12h-12zM768 360h12v12h-12zM780 360h12v12h-12zM792 360h12v12h-12zM804 372h12v12h-12zM828 396h12v12h-12zM864 432h12v12h-12zM876 444h12v12h-12zM888 432h12v12h-12zM912 408h12v12h-12zM924 396h12v12h-12zM936 384h12v12h-12zM948 72h12v12h-12zM948 60h12v12h-12zM948 48h12v12h-12zM948 36h12v12h-12zM936 264h12v12h-12zM924 252h12v12h-12zM912 240h12v12h-12zM900 228h12v12h-12zM888 216h12v12h-12zM876 204h12v12h-12zM864 180h12v12h-12zM864 168h12v12h-12zM864 156h12v12h-12zM864 132h12v12h-12zM864 120h12v12h-12zM864 108h12v12h-12zM852 108h12v12h-12zM840 108h12v12h-12zM828 108h12v12h-12zM816 108h12v12h-12zM792 108h12v12h-12zM780 108h12v12h-12zM768 108h12v12h-12zM756 108h12v12h-12zM744 108h12v12h-12zM732 108h12v12h-12zM720 108h12v12h-12zM708 108h12v12h-12zM696 108h12v12h-12zM684 108h12v12h-12zM672 108h12v12h-12zM660 108h12v12h-12zM648 108h12v12h-12zM636 108h12v12h-12zM624 108h12v12h-12zM612 108h12v12h-12zM600 108h12v12h-12zM588 108h12v12h-12zM576 108h12v12h-12zM564 108h12v12h-12zM552 108h12v12h-12zM564 120h12v12h-12zM576 132h12v12h-12zM588 144h12v12h-12zM600 156h12v12h-12zM612 156h12v12h-12zM624 156h12v12h-12zM636 156h12v12h-12zM648 156h12v12h-12zM648 168h12v12h-12zM636 168h12v12h-12zM624 168h12v12h-12zM612 168h12v12h-12zM600 168h12v12h-12zM588 168h12v12h-12zM576 168h12v12h-12zM552 168h12v12h-12zM540 168h12v12h-12zM528 168h12v12h-12zM336 828h12v12h-12zM348 828h12v12h-12zM360 828h12v12h-12zM372 828h12v12h-12zM384 828h12v12h-12zM396 828h12v12h-12zM408 828h12v12h-12zM420 828h12v12h-12zM432 828h12v12h-12zM444 828h12v12h-12zM456 828h12v12h-12zM468 828h12v12h-12zM468 816h12v12h-12zM468 804h12v12h-12zM468 792h12v12h-12zM468 780h12v12h-12zM468 768h12v12h-12zM468 756h12v12h-12zM468 744h12v12h-12zM468 732h12v12h-12zM468 720h12v12h-12zM468 708h12v12h-12zM468 696h12v12h-12zM468 684h12v12h-12zM468 672h12v12h-12zM468 660h12v12h-12zM468 648h12v12h-12zM468 636h12v12h-12zM468 624h12v12h-12zM468 612h12v12h-12zM468 600h12v12h-12zM468 588h12v12h-12zM468 576h12v12h-12zM468 564h12v12h-12zM468 552h12v12h-12zM468 540h12v12h-12zM468 528h12v12h-12zM468 516h12v12h-12zM456 516h12v12h-12zM444 516h12v12h-12zM432 516h12v12h-12zM420 516h12v12h-12zM408 516h12v12h-12zM396 516h12v12h-12zM384 516h12v12h-12zM372 516h12v12h-12zM360 516h12v12h-12zM348 516h12v12h-12zM336 516h12v12h-12zM324 516h12v12h-12zM312 516h12v12h-12zM300 516h12v12h-12zM288 516h12v12h-12zM276 516h12v12h-12zM264 516h12v12h-12zM252 516h12v12h-12zM240 516h12v12h-12zM228 516h12v12h-12zM216 516h12v12h-12zM204 516h12v12h-12zM192 516h12v12h-12zM180 516h12v12h-12zM168 516h12v12h-12zM168 528h12v12h-12zM168 540h12v12h-12zM168 552h12v12h-12zM168 564h12v12h-12zM168 576h12v12h-12zM168 588h12v12h-12zM168 600h12v12h-12zM168 612h12v12h-12zM168 624h12v12h-12zM168 636h12v12h-12zM168 648h12v12h-12zM168 660h12v12h-12zM168 672h12v12h-12zM168 684h12v12h-12zM168 696h12v12h-12zM168 708h12v12h-12zM168 720h12v12h-12zM168 732h12v12h-12zM168 744h12v12h-12zM168 756h12v12h-12zM168 768h12v12h-12zM168 780h12v12h-12zM168 792h12v12h-12zM168 804h12v12h-12zM168 816h12v12h-12zM168 828h12v12h-12zM168 840h12v12h-12zM168 852h12v12h-12zM168 864h12v12h-12zM168 876h12v12h-12zM168 888h12v12h-12zM168 900h12v12h-12zM180 648h12v12h-12zM192 660h12v12h-12zM204 672h12v12h-12zM216 684h12v12h-12zM228 696h12v12h-12zM240 708h12v12h-12zM252 720h12v12h-12zM264 732h12v12h-12zM276 744h12v12h-12zM288 756h12v12h-12zM300 768h12v12h-12zM312 780h12v12h-12zM324 792h12v12h-12zM336 804h12v12h-12zM348 816h12v12h-12zM372 840h12v12h-12zM384 852h12v12h-12zM396 864h12v12h-12zM408 876h12v12h-12zM420 888h12v12h-12zM432 900h12v12h-12zM444 912h12v12h-12zM456 924h12v12h-12zM444 936h12v12h-12zM432 948h12v12h-12zM420 948h12v12h-12zM408 948h12v12h-12zM396 948h12v12h-12zM384 948h12v12h-12zM372 948h12v12h-12zM360 948h12v12h-12zM348 948h12v12h-12zM336 948h12v12h-12zM324 948h12v12h-12zM312 948h12v12h-12zM300 948h12v12h-12zM288 948h12v12h-12zM276 948h12v12h-12zM264 948h12v12h-12zM252 948h12v12h-12zM240 948h12v12h-12zM228 948h12v12h-12zM216 948h12v12h-12zM204 948h12v12h-12zM192 948h12v12h-12zM180 948h12v12h-12zM168 948h12v12h-12zM156 948h12v12h-12zM144 948h12v12h-12zM132 948h12v12h-12zM120 948h12v12h-12zM132 936h12v12h-12zM144 936h12v12h-12zM156 936h12v12h-12zM168 936h12v12h-12zM180 936h12v12h-12zM192 936h12v12h-12zM204 936h12v12h-12zM216 936h12v12h-12zM228 936h12v12h-12zM240 936h12v12h-12zM252 936h12v12h-12zM264 936h12v12h-12zM276 936h12v12h-12zM288 936h12v12h-12zM300 936h12v12h-12zM312 936h12v12h-12zM324 936h12v12h-12zM336 936h12v12h-12zM348 936h12v12h-12zM360 936h12v12h-12zM372 936h12v12h-12zM384 936h12v12h-12zM396 936h12v12h-12zM396 924h12v12h-12zM396 912h12v12h-12zM396 900h12v12h-12zM396 888h12v12h-12zM396 876h12v12h-12zM396 852h12v12h-12zM396 840h12v12h-12zM396 816h12v12h-12zM396 804h12v12h-12zM396 792h12v12h-12zM396 780h12v12h-12zM396 768h12v12h-12zM408 780h12v12h-12zM420 792h12v12h-12zM432 804h12v12h-12zM420 804h12v12h-12zM408 804h12v12h-12zM384 804h12v12h-12zM372 804h12v12h-12zM360 804h12v12h-12zM348 804h12v12h-12zM324 804h12v12h-12zM312 804h12v12h-12zM300 804h12v12h-12zM288 804h12v12h-12zM276 804h12v12h-12zM264 804h12v12h-12zM252 804h12v12h-12zM264 792h12v12h-12zM276 780h12v12h-12zM288 768h12v12h-12zM300 756h12v12h-12zM312 744h12v12h-12zM324 732h12v12h-12zM336 720h12v12h-12zM348 708h12v12h-12zM360 696h12v12h-12zM372 684h12v12h-12zM384 672h12v12h-12zM396 660h12v12h-12zM396 648h12v12h-12zM396 636h12v12h-12zM396 624h12v12h-12zM396 612h12v12h-12zM396 600h12v12h-12zM396 588h12v12h-12zM396 576h12v12h-12zM396 564h12v12h-12zM396 552h12v12h-12zM396 540h12v12h-12zM396 528h12v12h-12zM396 504h12v12h-12zM384 504h12v12h-12zM372 504h12v12h-12zM360 504h12v12h-12zM348 504h12v12h-12zM336 504h12v12h-12zM324 504h12v12h-12zM312 504h12v12h-12zM300 504h12v12h-12zM288 504h12v12h-12zM276 504h12v12h-12zM264 504h12v12h-12zM252 504h12v12h-12zM240 504h12v12h-12zM228 504h12v12h-12zM216 504h12v12h-12zM204 504h12v12h-12zM192 504h12v12h-12zM180 504h12v12h-12zM168 504h12v12h-12zM156 504h12v12h-12zM180 528h12v12h-12zM192 540h12v12h-12zM204 552h12v12h-12zM216 564h12v12h-12zM228 576h12v12h-12zM240 588h12v12h-12zM252 600h12v12h-12zM264 612h12v12h-12zM276 624h12v12h-12zM288 636h12v12h-12zM300 648h12v12h-12zM312 660h12v12h-12zM324 672h12v12h-12zM312 684h12v12h-12zM300 696h12v12h-12zM288 708h12v12h-12zM276 720h12v12h-12zM252 744h12v12h-12zM240 756h12v12h-12zM228 768h12v12h-12zM216 780h12v12h-12zM204 792h12v12h-12zM192 804h12v12h-12zM180 816h12v12h-12zM156 840h12v12h-12zM144 852h12v12h-12zM132 864h12v12h-12zM144 864h12v12h-12zM156 864h12v12h-12zM180 864h12v12h-12zM192 864h12v12h-12zM204 864h12v12h-12zM216 864h12v12h-12zM228 864h12v12h-12zM240 864h12v12h-12zM252 864h12v12h-12zM264 864h12v12h-12zM276 864h12v12h-12zM288 864h12v12h-12zM300 864h12v12h-12zM312 864h12v12h-12zM324 864h12v12h-12zM336 864h12v12h-12zM276 852h12v12h-12zM276 840h12v12h-12zM276 828h12v12h-12zM276 816h12v12h-12zM276 792h12v12h-12zM276 768h12v12h-12zM276 756h12v12h-12zM276 732h12v12h-12zM276 708h12v12h-12zM276 696h12v12h-12zM300 720h12v12h-12zM312 732h12v12h-12zM324 744h12v12h-12zM336 756h12v12h-12zM336 744h12v12h-12zM336 732h12v12h-12zM336 708h12v12h-12zM336 696h12v12h-12zM336 684h12v12h-12zM336 672h12v12h-12zM336 660h12v12h-12zM336 648h12v12h-12zM336 636h12v12h-12zM336 624h12v12h-12zM336 612h12v12h-12zM336 600h12v12h-12zM336 588h12v12h-12zM336 576h12v12h-12zM336 564h12v12h-12zM336 552h12v12h-12zM336 540h12v12h-12zM336 528h12v12h-12zM324 528h12v12h-12zM312 528h12v12h-12zM300 528h12v12h-12zM288 528h12v12h-12zM276 528h12v12h-12zM264 528h12v12h-12zM252 528h12v12h-12zM240 528h12v12h-12zM228 528h12v12h-12zM216 528h12v12h-12zM204 528h12v12h-12zM192 528h12v12h-12zM192 492h12v12h-12zM192 552h12v12h-12zM192 564h12v12h-12zM192 576h12v12h-12zM192 588h12v12h-12zM192 600h12v12h-12zM180 600h12v12h-12zM156 600h12v12h-12zM144 600h12v12h-12zM132 600h12v12h-12zM120 600h12v12h-12zM108 600h12v12h-12zM96 600h12v12h-12zM84 600h12v12h-12zM72 600h12v12h-12zM60 600h12v12h-12zM48 600h12v12h-12zM60 612h12v12h-12zM72 624h12v12h-12zM84 636h12v12h-12zM96 648h12v12h-12zM108 660h12v12h-12zM120 672h12v12h-12zM132 684h12v12h-12zM144 696h12v12h-12zM156 708h12v12h-12zM180 732h12v12h-12zM192 744h12v12h-12zM204 756h12v12h-12zM216 768h12v12h-12zM228 780h12v12h-12zM240 792h12v12h-12zM264 816h12v12h-12zM288 840h12v12h-12zM300 852h12v12h-12zM300 840h12v12h-12zM300 828h12v12h-12zM300 816h12v12h-12zM300 792h12v12h-12zM300 780h12v12h-12zM300 744h12v12h-12zM300 732h12v12h-12zM300 708h12v12h-12zM300 684h12v12h-12zM300 672h12v12h-12zM300 660h12v12h-12zM300 636h12v12h-12zM300 624h12v12h-12zM300 612h12v12h-12zM300 600h12v12h-12zM300 588h12v12h-12zM300 576h12v12h-12zM300 564h12v12h-12zM288 816h12v12h-12zM264 840h12v12h-12zM252 852h12v12h-12zM228 876h12v12h-12zM216 888h12v12h-12zM204 888h12v12h-12zM192 888h12v12h-12zM180 888h12v12h-12zM156 888h12v12h-12zM144 888h12v12h-12zM132 888h12v12h-12zM120 888h12v12h-12zM108 888h12v12h-12zM96 888h12v12h-12zM84 888h12v12h-12zM72 888h12v12h-12zM60 888h12v12h-12zM48 888h12v12h-12zM36 888h12v12h-12zM48 876h12v12h-12zM48 864h12v12h-12zM60 876h12v12h-12zM84 900h12v12h-12zM96 912h12v12h-12zM108 924h12v12h-12zM120 936h12v12h-12zM132 924h12v12h-12zM144 912h12v12h-12zM156 900h12v12h-12zM180 876h12v12h-12zM204 852h12v12h-12zM216 840h12v12h-12zM228 828h12v12h-12zM240 816h12v12h-12zM300 876h12v12h-12zM300 888h12v12h-12zM300 900h12v12h-12zM300 912h12v12h-12zM312 900h12v12h-12zM324 888h12v12h-12zM336 876h12v12h-12zM348 864h12v12h-12zM360 852h12v12h-12zM432 780h12v12h-12zM444 768h12v12h-12zM456 756h12v12h-12zM468 840h12v12h-12zM468 852h12v12h-12zM468 864h12v12h-12zM468 876h12v12h-12zM468 888h12v12h-12zM468 900h12v12h-12zM456 648h12v12h-12zM444 648h12v12h-12zM432 648h12v12h-12zM420 648h12v12h-12zM408 648h12v12h-12zM384 660h12v12h-12zM372 672h12v12h-12zM360 684h12v12h-12zM348 696h12v12h-12zM324 720h12v12h-12zM264 780h12v12h-12zM252 792h12v12h-12zM240 804h12v12h-12zM228 816h12v12h-12zM216 828h12v12h-12zM204 840h12v12h-12zM192 852h12v12h-12zM144 900h12v12h-12zM132 912h12v12h-12zM156 912h12v12h-12zM168 912h12v12h-12zM180 912h12v12h-12zM192 912h12v12h-12zM204 912h12v12h-12zM216 912h12v12h-12zM228 912h12v12h-12zM240 912h12v12h-12zM252 912h12v12h-12zM264 912h12v12h-12zM276 912h12v12h-12zM288 912h12v12h-12zM312 912h12v12h-12zM324 912h12v12h-12zM336 912h12v12h-12zM336 900h12v12h-12zM336 888h12v12h-12zM336 852h12v12h-12zM336 840h12v12h-12zM336 816h12v12h-12zM324 816h12v12h-12zM312 828h12v12h-12zM288 852h12v12h-12zM264 876h12v12h-12zM252 888h12v12h-12zM240 900h12v12h-12zM216 924h12v12h-12zM192 924h12v12h-12zM144 876h12v12h-12zM120 852h12v12h-12zM108 840h12v12h-12zM96 828h12v12h-12zM84 816h12v12h-12zM72 804h12v12h-12zM60 792h12v12h-12zM768 804h12v12h-12zM756 792h12v12h-12zM744 780h12v12h-12zM732 768h12v12h-12zM720 756h12v12h-12zM708 744h12v12h-12zM696 732h12v12h-12zM684 720h12v12h-12zM672 708h12v12h-12zM660 696h12v12h-12zM648 684h12v12h-12zM636 672h12v12h-12zM624 660h12v12h-12zM612 648h12v12h-12zM600 636h12v12h-12zM588 624h12v12h-12zM576 612h12v12h-12zM564 600h12v12h-12zM552 588h12v12h-12zM540 576h12v12h-12zM528 564h12v12h-12zM516 552h12v12h-12zM780 816h12v12h-12zM792 828h12v12h-12zM804 840h12v12h-12zM816 852h12v12h-12zM828 864h12v12h-12zM840 864h12v12h-12zM852 864h12v12h-12zM864 864h12v12h-12zM876 864h12v12h-12zM888 864h12v12h-12zM900 864h12v12h-12zM912 864h12v12h-12zM924 864h12v12h-12zM936 864h12v12h-12zM948 864h12v12h-12zM948 852h12v12h-12zM948 840h12v12h-12zM948 828h12v12h-12zM948 816h12v12h-12zM948 804h12v12h-12zM948 792h12v12h-12zM948 780h12v12h-12zM948 768h12v12h-12zM948 756h12v12h-12zM948 744h12v12h-12zM948 732h12v12h-12zM948 720h12v12h-12zM948 708h12v12h-12zM948 696h12v12h-12zM948 684h12v12h-12zM948 672h12v12h-12zM948 660h12v12h-12zM948 648h12v12h-12zM948 636h12v12h-12zM948 624h12v12h-12zM948 612h12v12h-12zM948 600h12v12h-12zM948 588h12v12h-12zM948 576h12v12h-12zM948 564h12v12h-12zM948 552h12v12h-12zM948 540h12v12h-12zM948 528h12v12h-12zM936 528h12v12h-12zM924 528h12v12h-12zM912 528h12v12h-12zM900 528h12v12h-12zM888 528h12v12h-12zM876 528h12v12h-12zM864 528h12v12h-12zM852 528h12v12h-12zM840 528h12v12h-12zM828 528h12v12h-12zM816 528h12v12h-12zM804 528h12v12h-12zM792 528h12v12h-12zM780 528h12v12h-12zM768 528h12v12h-12zM756 528h12v12h-12zM744 528h12v12h-12zM732 528h12v12h-12zM720 540h12v12h-12zM708 552h12v12h-12zM696 564h12v12h-12zM684 576h12v12h-12zM672 588h12v12h-12zM660 600h12v12h-12zM648 612h12v12h-12zM636 624h12v12h-12zM624 636h12v12h-12zM600 660h12v12h-12zM588 672h12v12h-12zM576 684h12v12h-12zM576 696h12v12h-12zM576 708h12v12h-12zM576 720h12v12h-12zM576 732h12v12h-12zM576 744h12v12h-12zM576 756h12v12h-12zM564 744h12v12h-12zM552 732h12v12h-12zM552 720h12v12h-12zM552 708h12v12h-12zM552 696h12v12h-12zM552 684h12v12h-12zM552 672h12v12h-12zM552 660h12v12h-12zM552 648h12v12h-12zM552 636h12v12h-12zM552 624h12v12h-12zM552 612h12v12h-12zM552 600h12v12h-12zM552 576h12v12h-12zM552 564h12v12h-12zM552 552h12v12h-12zM552 540h12v12h-12zM552 528h12v12h-12zM552 516h12v12h-12zM552 504h12v12h-12zM552 492h12v12h-12zM552 480h12v12h-12zM564 528h12v12h-12zM576 528h12v12h-12zM588 528h12v12h-12zM600 528h12v12h-12zM612 528h12v12h-12zM624 528h12v12h-12zM636 528h12v12h-12zM648 528h12v12h-12zM660 528h12v12h-12zM672 528h12v12h-12zM684 528h12v12h-12zM696 528h12v12h-12zM708 528h12v12h-12zM720 528h12v12h-12zM768 540h12v12h-12zM768 552h12v12h-12zM768 564h12v12h-12zM768 576h12v12h-12zM780 564h12v12h-12zM792 552h12v12h-12zM804 540h12v12h-12zM792 540h12v12h-12zM780 540h12v12h-12zM756 540h12v12h-12zM744 540h12v12h-12zM732 540h12v12h-12zM708 540h12v12h-12zM696 540h12v12h-12zM684 540h12v12h-12zM672 540h12v12h-12zM660 540h12v12h-12zM648 540h12v12h-12zM636 540h12v12h-12zM624 540h12v12h-12zM612 540h12v12h-12zM600 540h12v12h-12zM588 540h12v12h-12zM576 540h12v12h-12zM564 540h12v12h-12zM756 588h12v12h-12zM744 600h12v12h-12zM732 612h12v12h-12zM720 612h12v12h-12zM708 612h12v12h-12zM696 612h12v12h-12zM684 612h12v12h-12zM672 612h12v12h-12zM660 612h12v12h-12zM636 612h12v12h-12zM624 612h12v12h-12zM612 612h12v12h-12zM600 612h12v12h-12zM588 612h12v12h-12zM576 624h12v12h-12zM576 600h12v12h-12zM576 588h12v12h-12zM576 576h12v12h-12zM576 564h12v12h-12zM576 552h12v12h-12zM576 516h12v12h-12zM612 552h12v12h-12zM624 564h12v12h-12zM636 576h12v12h-12zM648 588h12v12h-12zM684 624h12v12h-12zM696 636h12v12h-12zM708 648h12v12h-12zM720 660h12v12h-12zM732 672h12v12h-12zM744 684h12v12h-12zM756 696h12v12h-12zM768 708h12v12h-12zM780 720h12v12h-12zM792 732h12v12h-12zM804 744h12v12h-12zM816 756h12v12h-12zM828 768h12v12h-12zM840 780h12v12h-12zM852 792h12v12h-12zM864 804h12v12h-12zM876 816h12v12h-12zM888 828h12v12h-12zM900 840h12v12h-12zM912 852h12v12h-12zM924 852h12v12h-12zM924 840h12v12h-12zM924 828h12v12h-12zM924 816h12v12h-12zM924 804h12v12h-12zM924 792h12v12h-12zM924 780h12v12h-12zM924 768h12v12h-12zM924 756h12v12h-12zM912 756h12v12h-12zM900 756h12v12h-12zM888 756h12v12h-12zM876 756h12v12h-12zM864 756h12v12h-12zM852 756h12v12h-12zM840 756h12v12h-12zM828 756h12v12h-12zM804 756h12v12h-12zM792 756h12v12h-12zM780 756h12v12h-12zM768 756h12v12h-12zM756 756h12v12h-12zM744 756h12v12h-12zM732 756h12v12h-12zM708 756h12v12h-12zM696 756h12v12h-12zM684 756h12v12h-12zM672 756h12v12h-12zM660 756h12v12h-12zM648 756h12v12h-12zM636 756h12v12h-12zM624 756h12v12h-12zM612 756h12v12h-12zM600 756h12v12h-12zM588 756h12v12h-12zM564 756h12v12h-12zM552 756h12v12h-12zM540 756h12v12h-12zM528 756h12v12h-12zM516 756h12v12h-12zM504 756h12v12h-12zM492 756h12v12h-12zM492 744h12v12h-12zM492 732h12v12h-12zM492 720h12v12h-12zM492 708h12v12h-12zM492 696h12v12h-12zM492 684h12v12h-12zM492 672h12v12h-12zM492 660h12v12h-12zM492 648h12v12h-12zM492 636h12v12h-12zM492 624h12v12h-12zM492 612h12v12h-12zM492 600h12v12h-12zM492 588h12v12h-12zM492 576h12v12h-12zM492 564h12v12h-12zM492 552h12v12h-12zM492 540h12v12h-12zM492 528h12v12h-12zM492 516h12v12h-12zM492 504h12v12h-12zM492 492h12v12h-12zM504 480h12v12h-12zM516 492h12v12h-12zM528 504h12v12h-12zM540 516h12v12h-12zM588 564h12v12h-12zM600 564h12v12h-12zM612 564h12v12h-12zM636 564h12v12h-12zM648 564h12v12h-12zM660 564h12v12h-12zM672 564h12v12h-12zM684 564h12v12h-12zM708 564h12v12h-12zM720 564h12v12h-12zM732 564h12v12h-12zM744 564h12v12h-12zM756 564h12v12h-12zM792 564h12v12h-12zM804 564h12v12h-12zM816 564h12v12h-12zM828 576h12v12h-12zM840 588h12v12h-12zM840 576h12v12h-12zM840 564h12v12h-12zM840 552h12v12h-12zM840 540h12v12h-12zM840 516h12v12h-12zM840 504h12v12h-12zM828 516h12v12h-12zM720 624h12v12h-12zM708 636h12v12h-12zM696 648h12v12h-12zM684 660h12v12h-12zM672 672h12v12h-12zM660 684h12v12h-12zM648 696h12v12h-12zM636 708h12v12h-12zM624 720h12v12h-12zM612 732h12v12h-12zM600 744h12v12h-12zM576 768h12v12h-12zM564 780h12v12h-12zM552 792h12v12h-12zM540 804h12v12h-12zM660 660h12v12h-12zM648 648h12v12h-12zM636 636h12v12h-12zM624 624h12v12h-12zM600 600h12v12h-12zM588 588h12v12h-12zM564 564h12v12h-12zM684 684h12v12h-12zM696 672h12v12h-12zM708 660h12v12h-12zM720 648h12v12h-12zM732 636h12v12h-12zM744 624h12v12h-12zM744 612h12v12h-12zM744 588h12v12h-12zM768 588h12v12h-12zM780 588h12v12h-12zM792 588h12v12h-12zM804 576h12v12h-12zM828 552h12v12h-12zM864 516h12v12h-12zM876 504h12v12h-12zM888 516h12v12h-12zM912 540h12v12h-12zM924 552h12v12h-12zM936 564h12v12h-12zM948 876h12v12h-12zM948 888h12v12h-12zM948 900h12v12h-12zM948 912h12v12h-12zM936 684h12v12h-12zM924 696h12v12h-12zM912 708h12v12h-12zM900 720h12v12h-12zM888 732h12v12h-12zM876 744h12v12h-12zM864 768h12v12h-12zM864 780h12v12h-12zM864 792h12v12h-12zM864 816h12v12h-12zM864 828h12v12h-12zM864 840h12v12h-12zM852 840h12v12h-12zM840 840h12v12h-12zM828 840h12v12h-12zM816 840h12v12h-12zM792 840h12v12h-12zM780 840h12v12h-12zM768 840h12v12h-12zM756 840h12v12h-12zM744 840h12v12h-12zM732 840h12v12h-12zM720 840h12v12h-12zM708 840h12v12h-12zM696 840h12v12h-12zM684 840h12v12h-12zM672 840h12v12h-12zM660 840h12v12h-12zM648 840h12v12h-12zM636 840h12v12h-12zM624 840h12v12h-12zM612 840h12v12h-12zM600 840h12v12h-12zM588 840h12v12h-12zM576 840h12v12h-12zM564 840h12v12h-12zM552 840h12v12h-12zM564 828h12v12h-12zM576 816h12v12h-12zM588 804h12v12h-12zM600 792h12v12h-12zM612 792h12v12h-12zM624 792h12v12h-12zM636 792h12v12h-12zM648 792h12v12h-12zM648 780h12v12h-12zM636 780h12v12h-12zM624 780h12v12h-12zM612 780h12v12h-12zM600 780h12v12h-12zM588 780h12v12h-12zM576 780h12v12h-12zM552 780h12v12h-12zM540 780h12v12h-12zM528 780h12v12h-12z"/></svg>