<svg xmlns="http://www.w3.org/2000/svg" width="960" height="960" viewBox="0 0 960 960" shape-rendering="crispEdges"><path fill="#fff" d="M0 0h960v960h-960z"/><path fill="#302537" d="M0 0h12v12h-12zM0 12h12v12h-12zM0 24h12v12h-12zM0 36h12v12h-12zM0 48h12v12h-12zM0 60h12v12h-12zM0 72h12v12h-12zM0 84h12v12h-12zM0 96h12v12h-12zM0 108h12v12h-12zM0 120h12v12h-12zM0 132h12v12h-12zM0 144h12v12h-12zM0 156h12v12h-12zM0 168h12v12h-12zM0 180h12v12h-12zM0 192h12v12h-12zM0 204h12v12h-12zM0 216h12v12h-12zM0 228h12v12h-12zM0 240h12v12h-12zM0 252h12v12h-12zM0 264h12v12h-12zM0 276h12v12h-12zM0 288h12v12h-12zM0 300h12v12h-12zM0 312h12v12h-12zM0 324h12v12h-12zM0 336h12v12h-12zM0 348h12v12h-12zM0 360h12v12h-12zM0 372h12v12h-12zM0 384h12v12h-12zM0 396h12v12h-12zM0 408h12v12h-12zM0 420h12v12h-12zM0 432h12v12h-12zM0 444h12v12h-12zM0 456h12v12h-12zM0 468h12v12h-12zM0 480h12v12h-12zM0 492h12v12h-12zM0 504h12v12h-12zM0 516h12v12h-12zM0 528h12v12h-12zM0 540h12v12h-12zM0 552h12v12h-12zM0 564h12v12h-12zM0 576h12v12h-12zM0 588h12v12h-12zM0 600h12v12h-12zM0 612h12v12h-12zM0 624h12v12h-12zM0 636h12v12h-12zM0 648h12v12h-12zM0 660h12v12h-12zM0 672h12v12h-12zM0 684h12v12h-12zM0 696h12v12h-12zM0 708h12v12h-12zM0 720h12v12h-12zM0 732h12v12h-12zM0 744h12v12h-12zM0 756h12v12h-12zM0 768h12v12h-12zM0 780h12v12h-12zM0 792h12v12h-12zM0 804h12v12h-12zM0 816h12v12h-12zM0 828h12v12h-12zM0 840h12v12h-12zM0 852h12v12h-12zM0 864h12v12h-12zM0 876h12v12h-12zM0 888h12v12h-12zM0 900h12v12h-12zM0 912h12v12h-12zM0 924h12v12h-12zM0 936h12v12h-12zM0 948h12v12h-12zM12 0h12v12h-12zM12 60h12v12h-12zM12 120h12v12h-12zM12 180h12v12h-12zM12 240h12v12h-12zM12 300h12v12h-12zM12 360h12v12h-12zM12 420h12v12h-12zM12 480h12v12h-12zM12 540h12v12h-12zM12 600h12v12h-12zM12 660h12v12h-12zM12 720h12v12h-12zM12 780h12v12h-12zM12 840h12v12h-12zM12 900h12v12h-12zM24 0h12v12h-12zM24 60h12v12h-12zM24 120h12v12h-12zM24 180h12v12h-12zM24 240h12v12h-12zM24 300h12v12h-12zM24 360h12v12h-12zM24 420h12v12h-12zM24 480h12v12h-12zM24 540h12v12h-12zM24 600h12v12h-12zM24 660h12v12h-12zM24 720h12v12h-12zM24 780h12v12h-12zM24 840h12v12h-12zM24 900h12v12h-12zM36 0h12v12h-12zM36 60h12v12h-12zM36 120h12v12h-12zM36 180h12v12h-12zM36 240h12v12h-12zM36 300h12v12h-12zM36 360h12v12h-12zM36 420h12v12h-12zM36 480h12v12h-12zM36 540h12v12h-12zM36 600h12v12h-12zM36 660h12v12h-12zM36 720h12v12h-12zM36 780h12v12h-12zM36 840h12v12h-12zM36 900h12v12h-12zM48 0h12v12h-12zM48 60h12v12h-12zM48 120h12v12h-12zM48 180h12v12h-12zM48 240h12v12h-12zM48 300h12v12h-12zM48 360h12v12h-12zM48 420h12v12h-12zM48 480h12v12h-12zM48 540h12v12h-12zM48 600h12v12h-12zM48 660h12v12h-12zM48 720h12v12h-12zM48 780h12v12h-12zM48 840h12v12h-12zM48 900h12v12h-12zM60 0h12v12h-12zM60 12h12v12h-12zM60 24h12v12h-12zM60 36h12v12h-12zM60 48h12v12h-12zM60 60h12v12h-12zM60 72h12v12h-12zM60 84h12v12h-12zM60 96h12v12h-12zM60 108h12v12h-12zM60 120h12v12h-12zM60 132h12v12h-12zM60 144h12v12h-12zM60 156h12v12h-12zM60 168h12v12h-12zM60 180h12v12h-12zM60 192h12v12h-12zM60 204h12v12h-12zM60 216h12v12h-12zM60 228h12v12h-12zM60 240h12v12h-12zM60 252h12v12h-12zM60 264h12v12h-12zM60 276h12v12h-12zM60 288h12v12h-12zM60 300h12v12h-12zM60 312h12v12h-12zM60 324h12v12h-12zM60 336h12v12h-12zM60 348h12v12h-12zM60 360h12v12h-12zM60 372h12v12h-12zM60 384h12v12h-12zM60 396h12v12h-12zM60 408h12v12h-12zM60 420h12v12h-12zM60 432h12v12h-12zM60 444h12v12h-12zM60 456h12v12h-12zM60 468h12v12h-12zM60 480h12v12h-12zM60 492h12v12h-12zM60 504h12v12h-12zM60 516h12v12h-12zM60 528h12v12h-12zM60 540h12v12h-12zM60 552h12v12h-12zM60 564h12v12h-12zM60 576h12v12h-12zM60 588h12v12h-12zM60 600h12v12h-12zM60 612h12v12h-12zM60 624h12v12h-12zM60 636h12v12h-12zM60 648h12v12h-12zM60 660h12v12h-12zM60 672h12v12h-12zM60 684h12v12h-12zM60 696h12v12h-12zM60 708h12v12h-12zM60 720h12v12h-12zM60 732h12v12h-12zM60 744h12v12h-12zM60 756h12v12h-12zM60 768h12v12h-12zM60 780h12v12h-12zM60 792h12v12h-12zM60 804h12v12h-12zM60 816h12v12h-12zM60 828h12v12h-12zM60 840h12v12h-12zM60 852h12v12h-12zM60 864h12v12h-12zM60 876h12v12h-12zM60 888h12v12h-12zM60 900h12v12h-12zM60 912h12v12h-12zM60 924h12v12h-12zM60 936h12v12h-12zM60 948h12v12h-12zM72 0h12v12h-12zM72 60h12v12h-12zM72 120h12v12h-12zM72 180h12v12h-12zM72 240h12v12h-12zM72 300h12v12h-12zM72 360h12v12h-12zM72 420h12v12h-12zM72 480h12v12h-12zM72 540h12v12h-12zM72 600h12v12h-12zM72 660h12v12h-12zM72 720h12v12h-12zM72 780h12v12h-12zM72 840h12v12h-12zM72 900h12v12h-12zM84 0h12v12h-12zM84 60h12v12h-12zM84 120h12v12h-12zM84 180h12v12h-12zM84 240h12v12h-12zM84 300h12v12h-12zM84 360h12v12h-12zM84 420h12v12h-12zM84 480h12v12h-12zM84 540h12v12h-12zM84 600h12v12h-12zM84 660h12v12h-12zM84 720h12v12h-12zM84 780h12v12h-12zM84 840h12v12h-12zM84 900h12v12h-12zM96 0h12v12h-12zM96 60h12v12h-12zM96 120h12v12h-12zM96 180h12v12h-12zM96 240h12v12h-12zM96 300h12v12h-12zM96 360h12v12h-12zM96 420h12v12h-12zM96 480h12v12h-12zM96 540h12v12h-12zM96 600h12v12h-12zM96 660h12v12h-12zM96 720h12v12h-12zM96 780h12v12h-12zM96 840h12v12h-12zM96 900h12v12h-12zM108 0h12v12h-12zM108 60h12v12h-12zM108 120h12v12h-12zM108 180h12v12h-12zM108 240h12v12h-12zM108 300h12v12h-12zM108 360h12v12h-12zM108 420h12v12h-12zM108 480h12v12h-12zM108 540h12v12h-12zM108 600h12v12h-12zM108 660h12v12h-12zM108 720h12v12h-12zM108 780h12v12h-12zM108 840h12v12h-12zM108 900h12v12h-12zM120 0h12v12h-12zM120 12h12v12h-12zM120 24h12v12h-12zM120 36h12v12h-12zM120 48h12v12h-12zM120 60h12v12h-12zM120 72h12v12h-12zM120 84h12v12h-12zM120 96h12v12h-12zM120 108h12v12h-12zM120 120h12v12h-12zM120 132h12v12h-12zM120 144h12v12h-12zM120 156h12v12h-12zM120 168h12v12h-12zM120 180h12v12h-12zM120 192h12v12h-12zM120 204h12v12h-12zM120 216h12v12h-12zM120 228h12v12h-12zM120 240h12v12h-12zM120 252h12v12h-12zM120 264h12v12h-12zM120 276h12v12h-12zM120 288h12v12h-12zM120 300h12v12h-12zM120 312h12v12h-12zM120 324h12v12h-12zM120 336h12v12h-12zM120 348h12v12h-12zM120 360h12v12h-12zM120 372h12v12h-12zM120 384h12v12h-12zM120 396h12v12h-12zM120 408h12v12h-12zM120 420h12v12h-12zM120 432h12v12h-12zM120 444h12v12h-12zM120 456h12v12h-12zM120 468h12v12h-12zM120 480h12v12h-12zM120 492h12v12h-12zM120 504h12v12h-12zM120 516h12v12h-12zM120 528h12v12h-12zM120 540h12v12h-12zM120 552h12v12h-12zM120 564h12v12h-12zM120 576h12v12h-12zM120 588h12v12h-12zM120 600h12v12h-12zM120 612h12v12h-12zM120 624h12v12h-12zM120 636h12v12h-12zM120 648h12v12h-12zM120 660h12v12h-12zM120 672h12v12h-12zM120 684h12v12h-12zM120 696h12v12h-12zM120 708h12v12h-12zM120 720h12v12h-12zM120 732h12v12h-12zM120 744h12v12h-12zM120 756h12v12h-12zM120 768h12v12h-12zM120 780h12v12h-12zM120 792h12v12h-12zM120 804h12v12h-12zM120 816h12v12h-12zM120 828h12v12h-12zM120 840h12v12h-12zM120 852h12v12h-12zM120 864h12v12h-12zM120 876h12v12h-12zM120 888h12v12h-12zM120 900h12v12h-12zM120 912h12v12h-12zM120 924h12v12h-12zM120 936h12v12h-12zM120 948h12v12h-12zM132 0h12v12h-12zM132 60h12v12h-12zM132 120h12v12h-12zM132 180h12v12h-12zM132 240h12v12h-12zM132 300h12v12h-12zM132 360h12v12h-12zM132 420h12v12h-12zM132 480h12v12h-12zM132 540h12v12h-12zM132 600h12v12h-12zM132 660h12v12h-12zM132 720h12v12h-12zM132 780h12v12h-12zM132 840h12v12h-12zM132 900h12v12h-12zM144 0h12v12h-12zM144 60h12v12h-12zM144 120h12v12h-12zM144 180h12v12h-12zM144 240h12v12h-12zM144 300h12v12h-12zM144 360h12v12h-12zM144 420h12v12h-12zM144 480h12v12h-12zM144 540h12v12h-12zM144 600h12v12h-12zM144 660h12v12h-12zM144 720h12v12h-12zM144 780h12v12h-12zM144 840h12v12h-12zM144 900h12v12h-12zM156 0h12v12h-12zM156 60h12v12h-12zM156 120h12v12h-12zM156 180h12v12h-12zM156 240h12v12h-12zM156 300h12v12h-12zM156 360h12v12h-12zM156 420h12v12h-12zM156 480h12v12h-12zM156 540h12v12h-12zM156 600h12v12h-12zM156 660h12v12h-12zM156 720h12v12h-12zM156 780h12v12h-12zM156 840h12v12h-12zM156 900h12v12h-12zM168 0h12v12h-12zM168 60h12v12h-12zM168 120h12v12h-12zM168 180h12v12h-12zM168 240h12v12h-12zM168 300h12v12h-12zM168 360h12v12h-12zM168 420h12v12h-12zM168 480h12v12h-12zM168 540h12v12h-12zM168 600h12v12h-12zM168 660h12v12h-12zM168 720h12v12h-12zM168 780h12v12h-12zM168 840h12v12h-12zM168 900h12v12h-12zM180 0h12v12h-12zM180 12h12v12h-12zM180 24h12v12h-12zM180 36h12v12h-12zM180 48h12v12h-12zM180 60h12v12h-12zM180 72h12v12h-12zM180 84h12v12h-12zM180 96h12v12h-12zM180 108h12v12h-12zM180 120h12v12h-12zM180 132h12v12h-12zM180 144h12v12h-12zM180 156h12v12h-12zM180 168h12v12h-12zM180 180h12v12h-12zM180 192h12v12h-12zM180 204h12v12h-12zM180 216h12v12h-12zM180 228h12v12h-12zM180 240h12v12h-12zM180 252h12v12h-12zM180 264h12v12h-12zM180 276h12v12h-12zM180 288h12v12h-12zM180 300h12v12h-12zM180 312h12v12h-12zM180 324h12v12h-12zM180 336h12v12h-12zM180 348h12v12h-12zM180 360h12v12h-12zM180 372h12v12h-12zM180 384h12v12h-12zM180 396h12v12h-12zM180 408h12v12h-12zM180 420h12v12h-12zM180 432h12v12h-12zM180 444h12v12h-12zM180 456h12v12h-12zM180 468h12v12h-12zM180 480h12v12h-12zM180 492h12v12h-12zM180 504h12v12h-12zM180 516h12v12h-12zM180 528h12v12h-12zM180 540h12v12h-12zM180 552h12v12h-12zM180 564h12v12h-12zM180 576h12v12h-12zM180 588h12v12h-12zM180 600h12v12h-12zM180 612h12v12h-12zM180 624h12v12h-12zM180 636h12v12h-12zM180 648h12v12h-12zM180 660h12v12h-12zM180 672h12v12h-12zM180 684h12v12h-12zM180 696h12v12h-12zM180 708h12v12h-12zM180 720h12v12h-12zM180 732h12v12h-12zM180 744h12v12h-12zM180 756h12v12h-12zM180 768h12v12h-12zM180 780h12v12h-12zM180 792h12v12h-12zM180 804h12v12h-12zM180 816h12v12h-12zM180 828h12v12h-12zM180 840h12v12h-12zM180 852h12v12h-12zM180 864h12v12h-12zM180 876h12v12h-12zM180 888h12v12h-12zM180 900h12v12h-12zM180 912h12v12h-12zM180 924h12v12h-12zM180 936h12v12h-12zM180 948h12v12h-12zM192 0h12v12h-12zM192 60h12v12h-12zM192 120h12v12h-12zM192 180h12v12h-12zM192 240h12v12h-12zM192 300h12v12h-12zM192 360h12v12h-12zM192 420h12v12h-12zM192 480h12v12h-12zM192 540h12v12h-12zM192 600h12v12h-12zM192 660h12v12h-12zM192 720h12v12h-12zM192 780h12v12h-12zM192 840h12v12h-12zM192 900h12v12h-12zM204 0h12v12h-12zM204 60h12v12h-12zM204 120h12v12h-12zM204 180h12v12h-12zM204 240h12v12h-12zM204 300h12v12h-12zM204 360h12v12h-12zM204 420h12v12h-12zM204 480h12v12h-12zM204 540h12v12h-12zM204 600h12v12h-12zM204 660h12v12h-12zM204 720h12v12h-12zM204 780h12v12h-12zM204 840h12v12h-12zM204 900h12v12h-12zM216 0h12v12h-12zM216 60h12v12h-12zM216 120h12v12h-12zM216 180h12v12h-12zM216 240h12v12h-12zM216 300h12v12h-12zM216 360h12v12h-12zM216 420h12v12h-12zM216 480h12v12h-12zM216 540h12v12h-12zM216 600h12v12h-12zM216 660h12v12h-12zM216 720h12v12h-12zM216 780h12v12h-12zM216 840h12v12h-12zM216 900h12v12h-12zM228 0h12v12h-12zM228 60h12v12h-12zM228 120h12v12h-12zM228 180h12v12h-12zM228 240h12v12h-12zM228 300h12v12h-12zM228 360h12v12h-12zM228 420h12v12h-12zM228 480h12v12h-12zM228 540h12v12h-12zM228 600h12v12h-12zM228 660h12v12h-12zM228 720h12v12h-12zM228 780h12v12h-12zM228 840h12v12h-12zM228 900h12v12h-12zM240 0h12v12h-12zM240 12h12v12h-12zM240 24h12v12h-12zM240 36h12v12h-12zM240 48h12v12h-12zM240 60h12v12h-12zM240 72h12v12h-12zM240 84h12v12h-12zM240 96h12v12h-12zM240 108h12v12h-12zM240 120h12v12h-12zM240 132h12v12h-12zM240 144h12v12h-12zM240 156h12v12h-12zM240 168h12v12h-12zM240 180h12v12h-12zM240 192h12v12h-12zM240 204h12v12h-12zM240 216h12v12h-12zM240 228h12v12h-12zM240 240h12v12h-12zM240 252h12v12h-12zM240 264h12v12h-12zM240 276h12v12h-12zM240 288h12v12h-12zM240 300h12v12h-12zM240 312h12v12h-12zM240 324h12v12h-12zM240 336h12v12h-12zM240 348h12v12h-12zM240 360h12v12h-12zM240 372h12v12h-12zM240 384h12v12h-12zM240 396h12v12h-12zM240 408h12v12h-12zM240 420h12v12h-12zM240 432h12v12h-12zM240 444h12v12h-12zM240 456h12v12h-12zM240 468h12v12h-12zM240 480h12v12h-12zM240 492h12v12h-12zM240 504h12v12h-12zM240 516h12v12h-12zM240 528h12v12h-12zM240 540h12v12h-12zM240 552h12v12h-12zM240 564h12v12h-12zM240 576h12v12h-12zM240 588h12v12h-12zM240 600h12v12h-12zM240 612h12v12h-12zM240 624h12v12h-12zM240 636h12v12h-12zM240 648h12v12h-12zM240 660h12v12h-12zM240 672h12v12h-12zM240 684h12v12h-12zM240 696h12v12h-12zM240 708h12v12h-12zM240 720h12v12h-12zM240 732h12v12h-12zM240 744h12v12h-12zM240 756h12v12h-12zM240 768h12v12h-12zM240 780h12v12h-12zM240 792h12v12h-12zM240 804h12v12h-12zM240 816h12v12h-12zM240 828h12v12h-12zM240 840h12v12h-12zM240 852h12v12h-12zM240 864h12v12h-12zM240 876h12v12h-12zM240 888h12v12h-12zM240 900h12v12h-12zM240 912h12v12h-12zM240 924h12v12h-12zM240 936h12v12h-12zM240 948h12v12h-12zM252 0h12v12h-12zM252 60h12v12h-12zM252 120h12v12h-12zM252 180h12v12h-12zM252 240h12v12h-12zM252 300h12v12h-12zM252 360h12v12h-12zM252 420h12v12h-12zM252 480h12v12h-12zM252 540h12v12h-12zM252 600h12v12h-12zM252 660h12v12h-12zM252 720h12v12h-12zM252 780h12v12h-12zM252 840h12v12h-12zM252 900h12v12h-12zM264 0h12v12h-12zM264 60h12v12h-12zM264 120h12v12h-12zM264 180h12v12h-12zM264 240h12v12h-12zM264 300h12v12h-12zM264 360h12v12h-12zM264 420h12v12h-12zM264 480h12v12h-12zM264 540h12v12h-12zM264 600h12v12h-12zM264 660h12v12h-12zM264 720h12v12h-12zM264 780h12v12h-12zM264 840h12v12h-12zM264 900h12v12h-12zM276 0h12v12h-12zM276 60h12v12h-12zM276 120h12v12h-12zM276 180h12v12h-12zM276 240h12v12h-12zM276 300h12v12h-12zM276 360h12v12h-12zM276 420h12v12h-12zM276 480h12v12h-12zM276 540h12v12h-12zM276 600h12v12h-12zM276 660h12v12h-12zM276 720h12v12h-12zM276 780h12v12h-12zM276 840h12v12h-12zM276 900h12v12h-12zM288 0h12v12h-12zM288 60h12v12h-12zM288 120h12v12h-12zM288 180h12v12h-12zM288 240h12v12h-12zM288 300h12v12h-12zM288 360h12v12h-12zM288 420h12v12h-12zM288 480h12v12h-12zM288 540h12v12h-12zM288 600h12v12h-12zM288 660h12v12h-12zM288 720h12v12h-12zM288 780h12v12h-12zM288 840h12v12h-12zM288 900h12v12h-12zM300 0h12v12h-12zM300 12h12v12h-12zM300 24h12v12h-12zM300 36h12v12h-12zM300 48h12v12h-12zM300 60h12v12h-12zM300 72h12v12h-12zM300 84h12v12h-12zM300 96h12v12h-12zM300 108h12v12h-12zM300 120h12v12h-12zM300 132h12v12h-12zM300 144h12v12h-12zM300 156h12v12h-12zM300 168h12v12h-12zM300 180h12v12h-12zM300 192h12v12h-12zM300 204h12v12h-12zM300 216h12v12h-12zM300 228h12v12h-12zM300 240h12v12h-12zM300 252h12v12h-12zM300 264h12v12h-12zM300 276h12v12h-12zM300 288h12v12h-12zM300 300h12v12h-12zM300 312h12v12h-12zM300 324h12v12h-12zM300 336h12v12h-12zM300 348h12v12h-12zM300 360h12v12h-12zM300 372h12v12h-12zM300 384h12v12h-12zM300 396h12v12h-12zM300 408h12v12h-12zM300 420h12v12h-12zM300 432h12v12h-12zM300 444h12v12h-12zM300 456h12v12h-12zM300 468h12v12h-12zM300 480h12v12h-12zM300 492h12v12h-12zM300 504h12v12h-12zM300 516h12v12h-12zM300 528h12v12h-12zM300 540h12v12h-12zM300 552h12v12h-12zM300 564h12v12h-12zM300 576h12v12h-12zM300 588h12v12h-12zM300 600h12v12h-12zM300 612h12v12h-12zM300 624h12v12h-12zM300 636h12v12h-12zM300 648h12v12h-12zM300 660h12v12h-12zM300 672h12v12h-12zM300 684h12v12h-12zM300 696h12v12h-12zM300 708h12v12h-12zM300 720h12v12h-12zM300 732h12v12h-12zM300 744h12v12h-12zM300 756h12v12h-12zM300 768h12v12h-12zM300 780h12v12h-12zM300 792h12v12h-12zM300 804h12v12h-12zM300 816h12v12h-12zM300 828h12v12h-12zM300 840h12v12h-12zM300 852h12v12h-12zM300 864h12v12h-12zM300 876h12v12h-12zM300 888h12v12h-12zM300 900h12v12h-12zM300 912h12v12h-12zM300 924h12v12h-12zM300 936h12v12h-12zM300 948h12v12h-12zM312 0h12v12h-12zM312 60h12v12h-12zM312 120h12v12h-12zM312 180h12v12h-12zM312 240h12v12h-12zM312 300h12v12h-12zM312 360h12v12h-12zM312 420h12v12h-12zM312 480h12v12h-12zM312 540h12v12h-12zM312 600h12v12h-12zM312 660h12v12h-12zM312 720h12v12h-12zM312 780h12v12h-12zM312 840h12v12h-12zM312 900h12v12h-12zM324 0h12v12h-12zM324 60h12v12h-12zM324 120h12v12h-12zM324 180h12v12h-12zM324 240h12v12h-12zM324 300h12v12h-12zM324 360h12v12h-12zM324 420h12v12h-12zM324 480h12v12h-12zM324 540h12v12h-12zM324 600h12v12h-12zM324 660h12v12h-12zM324 720h12v12h-12zM324 780h12v12h-12zM324 840h12v12h-12zM324 900h12v12h-12zM336 0h12v12h-12zM336 60h12v12h-12zM336 120h12v12h-12zM336 180h12v12h-12zM336 240h12v12h-12zM336 300h12v12h-12zM336 360h12v12h-12zM336 420h12v12h-12zM336 480h12v12h-12zM336 540h12v12h-12zM336 600h12v12h-12zM336 660h12v12h-12zM336 720h12v12h-12zM336 780h12v12h-12zM336 840h12v12h-12zM336 900h12v12h-12zM348 0h12v12h-12zM348 60h12v12h-12zM348 120h12v12h-12zM348 180h12v12h-12zM348 240h12v12h-12zM348 300h12v12h-12zM348 360h12v12h-12zM348 420h12v12h-12zM348 480h12v12h-12zM348 540h12v12h-12zM348 600h12v12h-12zM348 660h12v12h-12zM348 720h12v12h-12zM348 780h12v12h-12zM348 840h12v12h-12zM348 900h12v12h-12zM360 0h12v12h-12zM360 12h12v12h-12zM360 24h12v12h-12zM360 36h12v12h-12zM360 48h12v12h-12zM360 60h12v12h-12zM360 72h12v12h-12zM360 84h12v12h-12zM360 96h12v12h-12zM360 108h12v12h-12zM360 120h12v12h-12zM360 132h12v12h-12zM360 144h12v12h-12zM360 156h12v12h-12zM360 168h12v12h-12zM360 180h12v12h-12zM360 192h12v12h-12zM360 204h12v12h-12zM360 216h12v12h-12zM360 228h12v12h-12zM360 240h12v12h-12zM360 252h12v12h-12zM360 264h12v12h-12zM360 276h12v12h-12zM360 288h12v12h-12zM360 300h12v12h-12zM360 312h12v12h-12zM360 324h12v12h-12zM360 336h12v12h-12zM360 348h12v12h-12zM360 360h12v12h-12zM360 372h12v12h-12zM360 384h12v12h-12zM360 396h12v12h-12zM360 408h12v12h-12zM360 420h12v12h-12zM360 432h12v12h-12zM360 444h12v12h-12zM360 456h12v12h-12zM360 468h12v12h-12zM360 480h12v12h-12zM360 492h12v12h-12zM360 504h12v12h-12zM360 516h12v12h-12zM360 528h12v12h-12zM360 540h12v12h-12zM360 552h12v12h-12zM360 564h12v12h-12zM360 576h12v12h-12zM360 588h12v12h-12zM360 600h12v12h-12zM360 612h12v12h-12zM360 624h12v12h-12zM360 636h12v12h-12zM360 648h12v12h-12zM360 660h12v12h-12zM360 672h12v12h-12zM360 684h12v12h-12zM360 696h12v12h-12zM360 708h12v12h-12zM360 720h12v12h-12zM360 732h12v12h-12zM360 744h12v12h-12zM360 756h12v12h-12zM360 768h12v12h-12zM360 780h12v12h-12zM360 792h12v12h-12zM360 804h12v12h-12zM360 816h12v12h-12zM360 828h12v12h-12zM360 840h12v12h-12zM360 852h12v12h-12zM360 864h12v12h-12zM360 876h12v12h-12zM360 888h12v12h-12zM360 900h12v12h-12zM360 912h12v12h-12zM360 924h12v12h-12zM360 936h12v12h-12zM360 948h12v12h-12zM372 0h12v12h-12zM372 60h12v12h-12zM372 120h12v12h-12zM372 180h12v12h-12zM372 240h12v12h-12zM372 300h12v12h-12zM372 360h12v12h-12zM372 420h12v12h-12zM372 480h12v12h-12zM372 540h12v12h-12zM372 600h12v12h-12zM372 660h12v12h-12zM372 720h12v12h-12zM372 780h12v12h-12zM372 840h12v12h-12zM372 900h12v12h-12zM384 0h12v12h-12zM384 60h12v12h-12zM384 120h12v12h-12zM384 180h12v12h-12zM384 240h12v12h-12zM384 300h12v12h-12zM384 360h12v12h-12zM384 420h12v12h-12zM384 480h12v12h-12zM384 540h12v12h-12zM384 600h12v12h-12zM384 660h12v12h-12zM384 720h12v12h-12zM384 780h12v12h-12zM384 840h12v12h-12zM384 900h12v12h-12zM396 0h12v12h-12zM396 60h12v12h-12zM396 120h12v12h-12zM396 180h12v12h-12zM396 240h12v12h-12zM396 300h12v12h-12zM396 360h12v12h-12zM396 420h12v12h-12zM396 480h12v12h-12zM396 540h12v12h-12zM396 600h12v12h-12zM396 660h12v12h-12zM396 720h12v12h-12zM396 780h12v12h-12zM396 840h12v12h-12zM396 900h12v12h-12zM408 0h12v12h-12zM408 60h12v12h-12zM408 120h12v12h-12zM408 180h12v12h-12zM408 240h12v12h-12zM408 300h12v12h-12zM408 360h12v12h-12zM408 420h12v12h-12zM408 480h12v12h-12zM408 540h12v12h-12zM408 600h12v12h-12zM408 660h12v12h-12zM408 720h12v12h-12zM408 780h12v12h-12zM408 840h12v12h-12zM408 900h12v12h-12zM420 0h12v12h-12zM420 12h12v12h-12zM420 24h12v12h-12zM420 36h12v12h-12zM420 48h12v12h-12zM420 60h12v12h-12zM420 72h12v12h-12zM420 84h12v12h-12zM420 96h12v12h-12zM420 108h12v12h-12zM420 120h12v12h-12zM420 132h12v12h-12zM420 144h12v12h-12zM420 156h12v12h-12zM420 168h12v12h-12zM420 180h12v12h-12zM420 192h12v12h-12zM420 204h12v12h-12zM420 216h12v12h-12zM420 228h12v12h-12zM420 240h12v12h-12zM420 252h12v12h-12zM420 264h12v12h-12zM420 276h12v12h-12zM420 288h12v12h-12zM420 300h12v12h-12zM420 312h12v12h-12zM420 324h12v12h-12zM420 336h12v12h-12zM420 348h12v12h-12zM420 360h12v12h-12zM420 372h12v12h-12zM420 384h12v12h-12zM420 396h12v12h-12zM420 408h12v12h-12zM420 420h12v12h-12zM420 432h12v12h-12zM420 444h12v12h-12zM420 456h12v12h-12zM420 468h12v12h-12zM420 480h12v12h-12zM420 492h12v12h-12zM420 504h12v12h-12zM420 516h12v12h-12zM420 528h12v12h-12zM420 540h12v12h-12zM420 552h12v12h-12zM420 564h12v12h-12zM420 576h12v12h-12zM420 588h12v12h-12zM420 600h12v12h-12zM420 612h12v12h-12zM420 624h12v12h-12zM420 636h12v12h-12zM420 648h12v12h-12zM420 660h12v12h-12zM420 672h12v12h-12zM420 684h12v12h-12zM420 696h12v12h-12zM420 708h12v12h-12zM420 720h12v12h-12zM420 732h12v12h-12zM420 744h12v12h-12zM420 756h12v12h-12zM420 768h12v12h-12zM420 780h12v12h-12zM420 792h12v12h-12zM420 804h12v12h-12zM420 816h12v12h-12zM420 828h12v12h-12zM420 840h12v12h-12zM420 852h12v12h-12zM420 864h12v12h-12zM420 876h12v12h-12zM420 888h12v12h-12zM420 900h12v12h-12zM420 912h12v12h-12zM420 924h12v12h-12zM420 936h12v12h-12zM420 948h12v12h-12zM432 0h12v12h-12zM432 60h12v12h-12zM432 120h12v12h-12zM432 180h12v12h-12zM432 240h12v12h-12zM432 300h12v12h-12zM432 360h12v12h-12zM432 420h12v12h-12zM432 480h12v12h-12zM432 540h12v12h-12zM432 600h12v12h-12zM432 660h12v12h-12zM432 720h12v12h-12zM432 780h12v12h-12zM432 840h12v12h-12zM432 900h12v12h-12zM444 0h12v12h-12zM444 60h12v12h-12zM444 120h12v12h-12zM444 180h12v12h-12zM444 240h12v12h-12zM444 300h12v12h-12zM444 360h12v12h-12zM444 420h12v12h-12zM444 480h12v12h-12zM444 540h12v12h-12zM444 600h12v12h-12zM444 660h12v12h-12zM444 720h12v12h-12zM444 780h12v12h-12zM444 840h12v12h-12zM444 900h12v12h-12zM456 0h12v12h-12zM456 60h12v12h-12zM456 120h12v12h-12zM456 180h12v12h-12zM456 240h12v12h-12zM456 300h12v12h-12zM456 360h12v12h-12zM456 420h12v12h-12zM456 480h12v12h-12zM456 540h12v12h-12zM456 600h12v12h-12zM456 660h12v12h-12zM456 720h12v12h-12zM456 780h12v12h-12zM456 840h12v12h-12zM456 900h12v12h-12zM468 0h12v12h-12zM468 60h12v12h-12zM468 120h12v12h-12zM468 180h12v12h-12zM468 240h12v12h-12zM468 300h12v12h-12zM468 360h12v12h-12zM468 420h12v12h-12zM468 480h12v12h-12zM468 540h12v12h-12zM468 600h12v12h-12zM468 660h12v12h-12zM468 720h12v12h-12zM468 780h12v12h-12zM468 840h12v12h-12zM468 900h12v12h-12z"/><path fill="#60949a" d="M6 6h12v12h-12zM30 30h12v12h-12zM6 54h12v12h-12zM54 54h12v12h-12zM6 78h12v12h-12zM30 78h12v12h-12zM78 78h12v12h-12zM198 6h12v12h-12zM270 6h12v12h-12zM198 54h12v12h-12zM270 54h12v12h-12zM393 0h6v24h-6zM384 9h24v6h-24zM393 24h6v24h-6zM384 33h24v6h-24zM465 48h6v24h-6zM456 57h24v6h-24zM465 72h6v24h-6zM456 81h24v6h-24zM492 0h12v12h-12zM516 0h12v12h-12zM504 12h12v12h-12zM504 24h12v12h-12zM492 36h12v12h-12zM516 36h12v12h-12zM545 0h3v12h-3zM540 5h12v3h-12zM557 0h3v12h-3zM552 5h12v3h-12zM533 12h3v12h-3zM528 17h12v3h-12zM557 12h3v12h-3zM552 17h12v3h-12zM545 24h3v12h-3zM540 29h12v3h-12zM569 24h3v12h-3zM564 29h12v3h-12zM545 36h3v12h-3zM540 41h12v3h-12zM557 36h3v12h-3zM552 41h12v3h-12zM593 0h3v12h-3zM588 5h12v3h-12zM617 0h3v12h-3zM612 5h12v3h-12zM581 12h3v12h-3zM576 17h12v3h-12zM605 12h3v12h-3zM600 17h12v3h-12zM593 24h3v12h-3zM588 29h12v3h-12zM617 24h3v12h-3zM612 29h12v3h-12zM581 36h3v12h-3zM576 41h12v3h-12zM605 36h3v12h-3zM600 41h12v3h-12zM627 3h6v6h-6zM639 15h6v6h-6zM627 27h6v6h-6zM651 27h6v6h-6zM627 39h6v6h-6zM639 39h6v6h-6zM663 39h6v6h-6zM701 0h3v12h-3zM696 5h12v3h-12zM689 12h3v12h-3zM684 17h12v3h-12zM713 12h3v12h-3zM708 17h12v3h-12zM677 24h3v12h-3zM672 29h12v3h-12zM701 24h3v12h-3zM696 29h12v3h-12zM689 36h3v12h-3zM684 41h12v3h-12zM737 12h3v12h-3zM732 17h12v3h-12zM749 12h3v12h-3zM744 17h12v3h-12zM737 24h3v12h-3zM732 29h12v3h-12zM749 24h3v12h-3zM744 29h12v3h-12zM792 0h12v12h-12zM792 12h12v12h-12zM804 12h12v12h-12zM768 24h12v12h-12zM780 24h12v12h-12zM780 36h12v12h-12zM819 15h6v6h-6zM855 15h6v6h-6zM819 27h6v6h-6zM855 27h6v6h-6zM903 75h6v6h-6zM879 3h6v6h-6zM891 3h6v6h-6zM879 15h6v6h-6zM903 15h6v6h-6zM867 27h6v6h-6zM891 27h6v6h-6zM879 39h6v6h-6zM891 39h6v6h-6zM936 0h12v12h-12zM912 12h12v12h-12zM924 12h12v12h-12zM948 12h12v12h-12zM912 24h12v12h-12zM936 24h12v12h-12zM948 24h12v12h-12zM924 36h12v12h-12zM504 48h12v12h-12zM480 60h12v12h-12zM492 60h12v12h-12zM516 60h12v12h-12zM480 72h12v12h-12zM504 72h12v12h-12zM516 72h12v12h-12zM492 84h12v12h-12zM528 48h12v12h-12zM540 60h12v12h-12zM528 72h12v12h-12zM552 72h12v12h-12zM528 84h12v12h-12zM540 84h12v12h-12zM564 84h12v12h-12zM579 51h6v6h-6zM591 63h6v6h-6zM579 75h6v6h-6zM603 75h6v6h-6zM579 87h6v6h-6zM591 87h6v6h-6zM615 87h6v6h-6zM629 48h3v12h-3zM624 53h12v3h-12zM665 48h3v12h-3zM660 53h12v3h-12zM641 72h3v12h-3zM636 77h12v3h-12zM653 72h3v12h-3zM648 77h12v3h-12zM629 84h3v12h-3zM624 89h12v3h-12zM665 84h3v12h-3zM660 89h12v3h-12zM684 48h12v12h-12zM672 60h12v12h-12zM696 60h12v12h-12zM684 72h12v12h-12zM708 72h12v12h-12zM696 84h12v12h-12zM725 48h3v12h-3zM720 53h12v3h-12zM749 48h3v12h-3zM744 53h12v3h-12zM761 48h3v12h-3zM756 53h12v3h-12zM737 60h3v12h-3zM732 65h12v3h-12zM761 60h3v12h-3zM756 65h12v3h-12zM749 72h3v12h-3zM744 77h12v3h-12zM761 84h3v12h-3zM756 89h12v3h-12zM768 48h12v12h-12zM780 48h12v12h-12zM804 48h12v12h-12zM768 60h12v12h-12zM792 60h12v12h-12zM780 72h12v12h-12zM768 84h12v12h-12zM819 51h6v6h-6zM855 51h6v6h-6zM831 63h6v6h-6zM843 63h6v6h-6zM843 75h6v6h-6zM819 87h6v6h-6zM855 87h6v6h-6zM903 51h6v6h-6zM903 63h6v6h-6zM867 75h6v6h-6zM867 87h6v6h-6zM929 48h3v12h-3zM924 53h12v3h-12zM953 48h3v12h-3zM948 53h12v3h-12zM929 84h3v12h-3zM924 89h12v3h-12zM953 84h3v12h-3zM948 89h12v3h-12zM509 96h3v12h-3zM504 101h12v3h-12zM485 108h3v12h-3zM480 113h12v3h-12zM497 108h3v12h-3zM492 113h12v3h-12zM521 108h3v12h-3zM516 113h12v3h-12zM485 120h3v12h-3zM480 125h12v3h-12zM509 120h3v12h-3zM504 125h12v3h-12zM521 120h3v12h-3zM516 125h12v3h-12zM497 132h3v12h-3zM492 137h12v3h-12zM533 96h3v12h-3zM528 101h12v3h-12zM569 96h3v12h-3zM564 101h12v3h-12zM557 108h3v12h-3zM552 113h12v3h-12zM545 120h3v12h-3zM540 125h12v3h-12zM557 120h3v12h-3zM552 125h12v3h-12zM533 132h3v12h-3zM528 137h12v3h-12zM569 132h3v12h-3zM564 137h12v3h-12zM581 96h3v12h-3zM576 101h12v3h-12zM605 96h3v12h-3zM600 101h12v3h-12zM617 96h3v12h-3zM612 101h12v3h-12zM593 108h3v12h-3zM588 113h12v3h-12zM617 108h3v12h-3zM612 113h12v3h-12zM605 120h3v12h-3zM600 125h12v3h-12zM617 132h3v12h-3zM612 137h12v3h-12zM639 99h6v6h-6zM627 111h6v6h-6zM651 111h6v6h-6zM663 111h6v6h-6zM627 123h6v6h-6zM639 123h6v6h-6zM663 123h6v6h-6zM651 135h6v6h-6zM675 99h6v6h-6zM687 99h6v6h-6zM711 99h6v6h-6zM675 111h6v6h-6zM699 111h6v6h-6zM687 123h6v6h-6zM675 135h6v6h-6zM737 96h3v12h-3zM732 101h12v3h-12zM725 108h3v12h-3zM720 113h12v3h-12zM737 108h3v12h-3zM732 113h12v3h-12zM749 120h3v12h-3zM744 125h12v3h-12zM761 120h3v12h-3zM756 125h12v3h-12zM749 132h3v12h-3zM744 137h12v3h-12zM768 96h12v12h-12zM804 96h12v12h-12zM780 108h12v12h-12zM780 120h12v12h-12zM792 120h12v12h-12zM768 132h12v12h-12zM804 132h12v12h-12zM840 96h12v12h-12zM852 96h12v12h-12zM816 132h12v12h-12zM828 132h12v12h-12zM876 96h12v12h-12zM864 108h12v12h-12zM876 108h12v12h-12zM888 120h12v12h-12zM900 120h12v12h-12zM888 132h12v12h-12zM917 108h3v12h-3zM912 113h12v3h-12zM929 108h3v12h-3zM924 113h12v3h-12zM917 120h3v12h-3zM912 125h12v3h-12zM953 120h3v12h-3zM948 125h12v3h-12zM504 144h12v12h-12zM480 156h12v12h-12zM492 156h12v12h-12zM516 156h12v12h-12zM480 168h12v12h-12zM504 168h12v12h-12zM516 168h12v12h-12zM492 180h12v12h-12zM545 144h3v12h-3zM540 149h12v3h-12zM533 156h3v12h-3zM528 161h12v3h-12zM569 168h3v12h-3zM564 173h12v3h-12zM557 180h3v12h-3zM552 185h12v3h-12zM612 144h12v12h-12zM612 156h12v12h-12zM576 168h12v12h-12zM576 180h12v12h-12zM660 144h12v12h-12zM648 156h12v12h-12zM636 168h12v12h-12zM660 168h12v12h-12zM624 180h12v12h-12zM648 180h12v12h-12zM660 180h12v12h-12zM711 219h6v6h-6zM687 147h6v6h-6zM699 147h6v6h-6zM687 159h6v6h-6zM711 159h6v6h-6zM675 171h6v6h-6zM699 171h6v6h-6zM687 183h6v6h-6zM699 183h6v6h-6zM725 144h3v12h-3zM720 149h12v3h-12zM761 144h3v12h-3zM756 149h12v3h-12zM737 156h3v12h-3zM732 161h12v3h-12zM749 156h3v12h-3zM744 161h12v3h-12zM749 168h3v12h-3zM744 173h12v3h-12zM725 180h3v12h-3zM720 185h12v3h-12zM761 180h3v12h-3zM756 185h12v3h-12zM783 147h6v6h-6zM795 171h6v6h-6zM783 183h6v6h-6zM795 183h6v6h-6zM843 147h6v6h-6zM831 159h6v6h-6zM855 159h6v6h-6zM819 171h6v6h-6zM843 171h6v6h-6zM831 183h6v6h-6zM864 144h12v12h-12zM900 144h12v12h-12zM888 156h12v12h-12zM876 168h12v12h-12zM864 180h12v12h-12zM900 180h12v12h-12zM924 144h12v12h-12zM948 144h12v12h-12zM912 156h12v12h-12zM948 168h12v12h-12zM912 180h12v12h-12zM936 180h12v12h-12zM30 198h12v12h-12zM78 198h12v12h-12zM6 222h12v12h-12zM54 222h12v12h-12zM30 246h12v12h-12zM78 246h12v12h-12zM6 270h12v12h-12zM54 270h12v12h-12zM216 192h24v24h-24zM240 192h24v24h-24zM192 216h24v24h-24zM240 216h24v24h-24zM216 240h24v24h-24zM264 240h24v24h-24zM216 264h24v24h-24zM240 264h24v24h-24zM384 192h24v24h-24zM384 216h24v24h-24zM456 240h24v24h-24zM456 264h24v24h-24zM497 192h3v12h-3zM492 197h12v3h-12zM509 216h3v12h-3zM504 221h12v3h-12zM497 228h3v12h-3zM492 233h12v3h-12zM509 228h3v12h-3zM504 233h12v3h-12zM533 192h3v12h-3zM528 197h12v3h-12zM545 192h3v12h-3zM540 197h12v3h-12zM569 192h3v12h-3zM564 197h12v3h-12zM533 204h3v12h-3zM528 209h12v3h-12zM557 204h3v12h-3zM552 209h12v3h-12zM545 216h3v12h-3zM540 221h12v3h-12zM533 228h3v12h-3zM528 233h12v3h-12zM579 207h6v6h-6zM615 207h6v6h-6zM579 219h6v6h-6zM591 219h6v6h-6zM653 192h3v12h-3zM648 197h12v3h-12zM641 204h3v12h-3zM636 209h12v3h-12zM665 204h3v12h-3zM660 209h12v3h-12zM629 216h3v12h-3zM624 221h12v3h-12zM653 216h3v12h-3zM648 221h12v3h-12zM641 228h3v12h-3zM636 233h12v3h-12zM675 195h6v6h-6zM711 195h6v6h-6zM687 207h6v6h-6zM699 219h6v6h-6zM675 231h6v6h-6zM711 231h6v6h-6zM732 192h12v12h-12zM756 192h12v12h-12zM732 228h12v12h-12zM756 228h12v12h-12zM771 195h6v6h-6zM783 207h6v6h-6zM795 219h6v6h-6zM807 231h6v6h-6zM833 192h3v12h-3zM828 197h12v3h-12zM857 192h3v12h-3zM852 197h12v3h-12zM833 228h3v12h-3zM828 233h12v3h-12zM857 228h3v12h-3zM852 233h12v3h-12zM869 192h3v12h-3zM864 197h12v3h-12zM905 192h3v12h-3zM900 197h12v3h-12zM881 204h3v12h-3zM876 209h12v3h-12zM893 216h3v12h-3zM888 221h12v3h-12zM869 228h3v12h-3zM864 233h12v3h-12zM905 228h3v12h-3zM900 233h12v3h-12zM912 192h12v12h-12zM936 192h12v12h-12zM948 192h12v12h-12zM924 204h12v12h-12zM948 204h12v12h-12zM936 216h12v12h-12zM948 228h12v12h-12zM495 243h6v6h-6zM519 243h6v6h-6zM483 255h6v6h-6zM507 255h6v6h-6zM495 267h6v6h-6zM519 267h6v6h-6zM483 279h6v6h-6zM507 279h6v6h-6zM552 240h12v12h-12zM564 240h12v12h-12zM528 276h12v12h-12zM540 276h12v12h-12zM603 243h6v6h-6zM591 255h6v6h-6zM615 255h6v6h-6zM579 267h6v6h-6zM603 267h6v6h-6zM591 279h6v6h-6zM641 240h3v12h-3zM636 245h12v3h-12zM665 240h3v12h-3zM660 245h12v3h-12zM629 252h3v12h-3zM624 257h12v3h-12zM665 264h3v12h-3zM660 269h12v3h-12zM629 276h3v12h-3zM624 281h12v3h-12zM653 276h3v12h-3zM648 281h12v3h-12zM675 243h6v6h-6zM687 243h6v6h-6zM675 255h6v6h-6zM687 255h6v6h-6zM699 267h6v6h-6zM711 267h6v6h-6zM699 279h6v6h-6zM711 279h6v6h-6zM761 240h3v12h-3zM756 245h12v3h-12zM749 252h3v12h-3zM744 257h12v3h-12zM737 264h3v12h-3zM732 269h12v3h-12zM761 264h3v12h-3zM756 269h12v3h-12zM725 276h3v12h-3zM720 281h12v3h-12zM749 276h3v12h-3zM744 281h12v3h-12zM761 276h3v12h-3zM756 281h12v3h-12zM768 240h12v12h-12zM804 240h12v12h-12zM768 276h12v12h-12zM804 276h12v12h-12zM816 240h12v12h-12zM828 252h12v12h-12zM816 264h12v12h-12zM840 264h12v12h-12zM816 276h12v12h-12zM828 276h12v12h-12zM852 276h12v12h-12zM864 240h12v12h-12zM888 240h12v12h-12zM888 252h12v12h-12zM900 252h12v12h-12zM864 264h12v12h-12zM876 264h12v12h-12zM876 276h12v12h-12zM900 276h12v12h-12zM927 255h6v6h-6zM939 255h6v6h-6zM927 267h6v6h-6zM939 267h6v6h-6zM480 288h12v12h-12zM516 288h12v12h-12zM480 312h12v12h-12zM516 312h12v12h-12zM531 291h6v6h-6zM555 291h6v6h-6zM543 303h6v6h-6zM567 303h6v6h-6zM531 315h6v6h-6zM555 315h6v6h-6zM543 327h6v6h-6zM567 327h6v6h-6zM617 288h3v12h-3zM612 293h12v3h-12zM605 300h3v12h-3zM600 305h12v3h-12zM593 312h3v12h-3zM588 317h12v3h-12zM581 324h3v12h-3zM576 329h12v3h-12zM627 291h6v6h-6zM651 291h6v6h-6zM651 303h6v6h-6zM663 303h6v6h-6zM627 315h6v6h-6zM639 315h6v6h-6zM639 327h6v6h-6zM663 327h6v6h-6zM687 291h6v6h-6zM699 291h6v6h-6zM687 327h6v6h-6zM699 327h6v6h-6zM732 288h12v12h-12zM720 300h12v12h-12zM744 300h12v12h-12zM732 312h12v12h-12zM756 312h12v12h-12zM744 324h12v12h-12zM771 291h6v6h-6zM807 291h6v6h-6zM783 315h6v6h-6zM795 315h6v6h-6zM771 327h6v6h-6zM807 327h6v6h-6zM857 288h3v12h-3zM852 293h12v3h-12zM845 300h3v12h-3zM840 305h12v3h-12zM833 312h3v12h-3zM828 317h12v3h-12zM857 312h3v12h-3zM852 317h12v3h-12zM821 324h3v12h-3zM816 329h12v3h-12zM845 324h3v12h-3zM840 329h12v3h-12zM857 324h3v12h-3zM852 329h12v3h-12zM879 303h6v6h-6zM891 303h6v6h-6zM879 315h6v6h-6zM891 315h6v6h-6zM912 288h12v12h-12zM948 288h12v12h-12zM936 300h12v12h-12zM924 312h12v12h-12zM912 324h12v12h-12zM948 324h12v12h-12zM497 336h3v12h-3zM492 341h12v3h-12zM509 336h3v12h-3zM504 341h12v3h-12zM509 348h3v12h-3zM504 353h12v3h-12zM497 372h3v12h-3zM492 377h12v3h-12zM552 336h12v12h-12zM564 336h12v12h-12zM528 372h12v12h-12zM540 372h12v12h-12zM576 348h12v12h-12zM612 348h12v12h-12zM576 360h12v12h-12zM588 360h12v12h-12zM636 336h12v12h-12zM624 348h12v12h-12zM636 348h12v12h-12zM648 360h12v12h-12zM660 360h12v12h-12zM648 372h12v12h-12zM689 336h3v12h-3zM684 341h12v3h-12zM713 336h3v12h-3zM708 341h12v3h-12zM701 348h3v12h-3zM696 353h12v3h-12zM701 360h3v12h-3zM696 365h12v3h-12zM689 372h3v12h-3zM684 377h12v3h-12zM713 372h3v12h-3zM708 377h12v3h-12zM723 339h6v6h-6zM759 339h6v6h-6zM723 375h6v6h-6zM759 375h6v6h-6zM795 339h6v6h-6zM807 339h6v6h-6zM771 375h6v6h-6zM783 375h6v6h-6zM816 336h12v12h-12zM852 336h12v12h-12zM828 348h12v12h-12zM840 360h12v12h-12zM816 372h12v12h-12zM852 372h12v12h-12zM879 339h6v6h-6zM903 339h6v6h-6zM867 351h6v6h-6zM891 351h6v6h-6zM879 363h6v6h-6zM903 363h6v6h-6zM867 375h6v6h-6zM891 375h6v6h-6zM929 336h3v12h-3zM924 341h12v3h-12zM953 336h3v12h-3zM948 341h12v3h-12zM929 372h3v12h-3zM924 377h12v3h-12zM953 372h3v12h-3zM948 377h12v3h-12zM78 534h12v12h-12zM30 390h12v12h-12zM54 390h12v12h-12zM30 414h12v12h-12zM78 414h12v12h-12zM6 438h12v12h-12zM54 438h12v12h-12zM30 462h12v12h-12zM54 462h12v12h-12zM201 384h6v24h-6zM192 393h24v6h-24zM273 384h6v24h-6zM264 393h24v6h-24zM225 408h6v24h-6zM216 417h24v6h-24zM249 408h6v24h-6zM240 417h24v6h-24zM201 432h6v24h-6zM192 441h24v6h-24zM273 432h6v24h-6zM264 441h24v6h-24zM384 384h24v24h-24zM432 384h24v24h-24zM456 408h24v24h-24zM384 432h24v24h-24zM408 456h24v24h-24zM456 456h24v24h-24zM480 384h12v12h-12zM516 384h12v12h-12zM480 420h12v12h-12zM516 420h12v12h-12zM533 396h3v12h-3zM528 401h12v3h-12zM545 396h3v12h-3zM540 401h12v3h-12zM533 408h3v12h-3zM528 413h12v3h-12zM569 408h3v12h-3zM564 413h12v3h-12zM588 384h12v12h-12zM612 384h12v12h-12zM576 396h12v12h-12zM588 396h12v12h-12zM600 408h12v12h-12zM612 408h12v12h-12zM576 420h12v12h-12zM600 420h12v12h-12zM636 384h12v12h-12zM624 396h12v12h-12zM660 408h12v12h-12zM648 420h12v12h-12zM672 396h12v12h-12zM708 396h12v12h-12zM672 408h12v12h-12zM708 408h12v12h-12zM747 387h6v6h-6zM759 387h6v6h-6zM723 423h6v6h-6zM735 423h6v6h-6zM768 384h12v12h-12zM780 384h12v12h-12zM804 384h12v12h-12zM768 396h12v12h-12zM792 396h12v12h-12zM780 408h12v12h-12zM768 420h12v12h-12zM857 456h3v12h-3zM852 461h12v3h-12zM833 384h3v12h-3zM828 389h12v3h-12zM845 384h3v12h-3zM840 389h12v3h-12zM833 396h3v12h-3zM828 401h12v3h-12zM857 396h3v12h-3zM852 401h12v3h-12zM821 408h3v12h-3zM816 413h12v3h-12zM845 408h3v12h-3zM840 413h12v3h-12zM833 420h3v12h-3zM828 425h12v3h-12zM845 420h3v12h-3zM840 425h12v3h-12zM867 387h6v6h-6zM903 387h6v6h-6zM879 399h6v6h-6zM891 399h6v6h-6zM867 423h6v6h-6zM903 423h6v6h-6zM917 384h3v12h-3zM912 389h12v3h-12zM953 384h3v12h-3zM948 389h12v3h-12zM929 396h3v12h-3zM924 401h12v3h-12zM941 396h3v12h-3zM936 401h12v3h-12zM917 408h3v12h-3zM912 413h12v3h-12zM953 408h3v12h-3zM948 413h12v3h-12zM492 432h12v12h-12zM480 444h12v12h-12zM492 444h12v12h-12zM504 456h12v12h-12zM516 456h12v12h-12zM504 468h12v12h-12zM528 432h12v12h-12zM540 432h12v12h-12zM564 432h12v12h-12zM528 444h12v12h-12zM552 444h12v12h-12zM540 456h12v12h-12zM528 468h12v12h-12zM581 432h3v12h-3zM576 437h12v3h-12zM617 432h3v12h-3zM612 437h12v3h-12zM593 444h3v12h-3zM588 449h12v3h-12zM593 456h3v12h-3zM588 461h12v3h-12zM605 456h3v12h-3zM600 461h12v3h-12zM581 468h3v12h-3zM576 473h12v3h-12zM617 468h3v12h-3zM612 473h12v3h-12zM629 432h3v12h-3zM624 437h12v3h-12zM665 432h3v12h-3zM660 437h12v3h-12zM629 456h3v12h-3zM624 461h12v3h-12zM665 456h3v12h-3zM660 461h12v3h-12zM701 432h3v12h-3zM696 437h12v3h-12zM713 432h3v12h-3zM708 437h12v3h-12zM677 468h3v12h-3zM672 473h12v3h-12zM689 468h3v12h-3zM684 473h12v3h-12zM732 432h12v12h-12zM756 432h12v12h-12zM720 444h12v12h-12zM744 444h12v12h-12zM732 456h12v12h-12zM756 456h12v12h-12zM720 468h12v12h-12zM744 468h12v12h-12zM771 435h6v6h-6zM807 435h6v6h-6zM783 447h6v6h-6zM795 447h6v6h-6zM795 459h6v6h-6zM771 471h6v6h-6zM807 471h6v6h-6zM816 432h12v12h-12zM816 444h12v12h-12zM852 456h12v12h-12zM852 468h12v12h-12zM893 432h3v12h-3zM888 437h12v3h-12zM905 444h3v12h-3zM900 449h12v3h-12zM869 456h3v12h-3zM864 461h12v3h-12zM881 468h3v12h-3zM876 473h12v3h-12zM917 432h3v12h-3zM912 437h12v3h-12zM941 432h3v12h-3zM936 437h12v3h-12zM929 444h3v12h-3zM924 449h12v3h-12zM953 444h3v12h-3zM948 449h12v3h-12zM917 456h3v12h-3zM912 461h12v3h-12zM941 456h3v12h-3zM936 461h12v3h-12zM929 468h3v12h-3zM924 473h12v3h-12zM953 468h3v12h-3zM948 473h12v3h-12zM29 480h3v12h-3zM24 485h12v3h-12zM41 480h3v12h-3zM36 485h12v3h-12zM29 492h3v12h-3zM24 497h12v3h-12zM41 492h3v12h-3zM36 497h12v3h-12zM5 504h3v12h-3zM0 509h12v3h-12zM17 504h3v12h-3zM12 509h12v3h-12zM5 516h3v12h-3zM0 521h12v3h-12zM17 516h3v12h-3zM12 521h12v3h-12zM48 480h12v12h-12zM84 480h12v12h-12zM60 492h12v12h-12zM72 492h12v12h-12zM72 504h12v12h-12zM48 516h12v12h-12zM84 516h12v12h-12zM108 480h12v12h-12zM120 480h12v12h-12zM108 516h12v12h-12zM120 516h12v12h-12zM147 483h6v6h-6zM183 483h6v6h-6zM171 495h6v6h-6zM159 507h6v6h-6zM171 507h6v6h-6zM147 519h6v6h-6zM183 519h6v6h-6zM197 480h3v12h-3zM192 485h12v3h-12zM209 492h3v12h-3zM204 497h12v3h-12zM197 504h3v12h-3zM192 509h12v3h-12zM221 504h3v12h-3zM216 509h12v3h-12zM197 516h3v12h-3zM192 521h12v3h-12zM209 516h3v12h-3zM204 521h12v3h-12zM233 516h3v12h-3zM228 521h12v3h-12zM252 480h12v12h-12zM264 480h12v12h-12zM264 492h12v12h-12zM252 516h12v12h-12zM317 480h3v12h-3zM312 485h12v3h-12zM329 492h3v12h-3zM324 497h12v3h-12zM293 504h3v12h-3zM288 509h12v3h-12zM305 516h3v12h-3zM300 521h12v3h-12zM339 483h6v6h-6zM375 483h6v6h-6zM351 495h6v6h-6zM363 495h6v6h-6zM363 507h6v6h-6zM339 519h6v6h-6zM375 519h6v6h-6zM401 480h3v12h-3zM396 485h12v3h-12zM425 480h3v12h-3zM420 485h12v3h-12zM389 492h3v12h-3zM384 497h12v3h-12zM413 492h3v12h-3zM408 497h12v3h-12zM401 504h3v12h-3zM396 509h12v3h-12zM425 504h3v12h-3zM420 509h12v3h-12zM389 516h3v12h-3zM384 521h12v3h-12zM413 516h3v12h-3zM408 521h12v3h-12zM447 483h6v6h-6zM459 483h6v6h-6zM459 495h6v6h-6zM447 519h6v6h-6zM17 528h3v12h-3zM12 533h12v3h-12zM41 528h3v12h-3zM36 533h12v3h-12zM29 540h3v12h-3zM24 545h12v3h-12zM29 552h3v12h-3zM24 557h12v3h-12zM17 564h3v12h-3zM12 569h12v3h-12zM41 564h3v12h-3zM36 569h12v3h-12zM48 528h12v12h-12zM60 528h12v12h-12zM72 564h12v12h-12zM84 564h12v12h-12zM101 528h3v12h-3zM96 533h12v3h-12zM125 528h3v12h-3zM120 533h12v3h-12zM137 540h3v12h-3zM132 545h12v3h-12zM101 552h3v12h-3zM96 557h12v3h-12zM113 564h3v12h-3zM108 569h12v3h-12zM137 564h3v12h-3zM132 569h12v3h-12zM159 531h6v6h-6zM183 531h6v6h-6zM159 567h6v6h-6zM183 567h6v6h-6zM209 528h3v12h-3zM204 533h12v3h-12zM233 528h3v12h-3zM228 533h12v3h-12zM221 540h3v12h-3zM216 545h12v3h-12zM221 552h3v12h-3zM216 557h12v3h-12zM209 564h3v12h-3zM204 569h12v3h-12zM233 564h3v12h-3zM228 569h12v3h-12zM267 531h6v6h-6zM279 531h6v6h-6zM267 543h6v6h-6zM279 543h6v6h-6zM243 555h6v6h-6zM255 555h6v6h-6zM243 567h6v6h-6zM255 567h6v6h-6zM293 540h3v12h-3zM288 545h12v3h-12zM329 540h3v12h-3zM324 545h12v3h-12zM293 552h3v12h-3zM288 557h12v3h-12zM329 552h3v12h-3zM324 557h12v3h-12zM377 528h3v12h-3zM372 533h12v3h-12zM377 540h3v12h-3zM372 545h12v3h-12zM341 552h3v12h-3zM336 557h12v3h-12zM341 564h3v12h-3zM336 569h12v3h-12zM389 528h3v12h-3zM384 533h12v3h-12zM425 528h3v12h-3zM420 533h12v3h-12zM401 540h3v12h-3zM396 545h12v3h-12zM413 540h3v12h-3zM408 545h12v3h-12zM401 552h3v12h-3zM396 557h12v3h-12zM413 552h3v12h-3zM408 557h12v3h-12zM389 564h3v12h-3zM384 569h12v3h-12zM425 564h3v12h-3zM420 569h12v3h-12zM468 600h12v12h-12zM444 528h12v12h-12zM456 528h12v12h-12zM444 540h12v12h-12zM468 540h12v12h-12zM432 552h12v12h-12zM456 552h12v12h-12zM444 564h12v12h-12zM456 564h12v12h-12zM3 579h6v6h-6zM15 591h6v6h-6zM27 603h6v6h-6zM39 615h6v6h-6zM84 576h12v12h-12zM72 588h12v12h-12zM60 600h12v12h-12zM84 600h12v12h-12zM48 612h12v12h-12zM72 612h12v12h-12zM84 612h12v12h-12zM101 576h3v12h-3zM96 581h12v3h-12zM137 576h3v12h-3zM132 581h12v3h-12zM113 588h3v12h-3zM108 593h12v3h-12zM113 600h3v12h-3zM108 605h12v3h-12zM125 600h3v12h-3zM120 605h12v3h-12zM101 612h3v12h-3zM96 617h12v3h-12zM137 612h3v12h-3zM132 617h12v3h-12zM149 576h3v12h-3zM144 581h12v3h-12zM161 588h3v12h-3zM156 593h12v3h-12zM173 600h3v12h-3zM168 605h12v3h-12zM185 612h3v12h-3zM180 617h12v3h-12zM197 576h3v12h-3zM192 581h12v3h-12zM221 576h3v12h-3zM216 581h12v3h-12zM221 588h3v12h-3zM216 593h12v3h-12zM233 588h3v12h-3zM228 593h12v3h-12zM197 600h3v12h-3zM192 605h12v3h-12zM209 600h3v12h-3zM204 605h12v3h-12zM209 612h3v12h-3zM204 617h12v3h-12zM233 612h3v12h-3zM228 617h12v3h-12zM255 579h6v6h-6zM267 603h6v6h-6zM255 615h6v6h-6zM267 615h6v6h-6zM288 576h12v12h-12zM300 576h12v12h-12zM324 576h12v12h-12zM288 588h12v12h-12zM312 588h12v12h-12zM300 600h12v12h-12zM288 612h12v12h-12zM375 579h6v6h-6zM375 591h6v6h-6zM339 603h6v6h-6zM339 615h6v6h-6zM401 576h3v12h-3zM396 581h12v3h-12zM425 576h3v12h-3zM420 581h12v3h-12zM389 588h3v12h-3zM384 593h12v3h-12zM425 600h3v12h-3zM420 605h12v3h-12zM389 612h3v12h-3zM384 617h12v3h-12zM413 612h3v12h-3zM408 617h12v3h-12zM435 579h6v6h-6zM471 579h6v6h-6zM435 603h6v6h-6zM471 603h6v6h-6zM600 576h24v24h-24zM624 576h24v24h-24zM624 600h24v24h-24zM600 648h24v24h-24zM816 576h24v24h-24zM840 600h24v24h-24zM768 624h24v24h-24zM792 648h24v24h-24zM17 624h3v12h-3zM12 629h12v3h-12zM5 636h3v12h-3zM0 641h12v3h-12zM29 636h3v12h-3zM24 641h12v3h-12zM41 636h3v12h-3zM36 641h12v3h-12zM5 648h3v12h-3zM0 653h12v3h-12zM17 648h3v12h-3zM12 653h12v3h-12zM41 648h3v12h-3zM36 653h12v3h-12zM29 660h3v12h-3zM24 665h12v3h-12zM48 624h12v12h-12zM72 624h12v12h-12zM72 636h12v12h-12zM84 636h12v12h-12zM48 648h12v12h-12zM60 648h12v12h-12zM60 660h12v12h-12zM84 660h12v12h-12zM132 624h12v12h-12zM120 636h12v12h-12zM108 648h12v12h-12zM96 660h12v12h-12zM144 624h12v12h-12zM156 624h12v12h-12zM180 624h12v12h-12zM144 636h12v12h-12zM168 636h12v12h-12zM156 648h12v12h-12zM144 660h12v12h-12zM197 624h3v12h-3zM192 629h12v3h-12zM233 624h3v12h-3zM228 629h12v3h-12zM221 636h3v12h-3zM216 641h12v3h-12zM209 648h3v12h-3zM204 653h12v3h-12zM197 660h3v12h-3zM192 665h12v3h-12zM233 660h3v12h-3zM228 665h12v3h-12zM257 624h3v12h-3zM252 629h12v3h-12zM281 624h3v12h-3zM276 629h12v3h-12zM245 636h3v12h-3zM240 641h12v3h-12zM281 648h3v12h-3zM276 653h12v3h-12zM245 660h3v12h-3zM240 665h12v3h-12zM269 660h3v12h-3zM264 665h12v3h-12zM329 624h3v12h-3zM324 629h12v3h-12zM329 636h3v12h-3zM324 641h12v3h-12zM293 648h3v12h-3zM288 653h12v3h-12zM293 660h3v12h-3zM288 665h12v3h-12zM336 624h12v12h-12zM348 624h12v12h-12zM360 660h12v12h-12zM372 660h12v12h-12zM389 624h3v12h-3zM384 629h12v3h-12zM425 624h3v12h-3zM420 629h12v3h-12zM401 636h3v12h-3zM396 641h12v3h-12zM413 636h3v12h-3zM408 641h12v3h-12zM389 648h3v12h-3zM384 653h12v3h-12zM425 648h3v12h-3zM420 653h12v3h-12zM437 636h3v12h-3zM432 641h12v3h-12zM473 636h3v12h-3zM468 641h12v3h-12zM437 648h3v12h-3zM432 653h12v3h-12zM473 648h3v12h-3zM468 653h12v3h-12zM0 672h12v12h-12zM12 684h12v12h-12zM24 696h12v12h-12zM36 708h12v12h-12zM51 675h6v6h-6zM87 675h6v6h-6zM63 687h6v6h-6zM75 687h6v6h-6zM51 711h6v6h-6zM87 711h6v6h-6zM111 675h6v6h-6zM135 675h6v6h-6zM123 687h6v6h-6zM123 699h6v6h-6zM111 711h6v6h-6zM135 711h6v6h-6zM144 672h12v12h-12zM180 672h12v12h-12zM156 684h12v12h-12zM168 684h12v12h-12zM156 696h12v12h-12zM168 696h12v12h-12zM144 708h12v12h-12zM180 708h12v12h-12zM228 744h12v12h-12zM204 672h12v12h-12zM216 672h12v12h-12zM204 684h12v12h-12zM228 684h12v12h-12zM192 696h12v12h-12zM216 696h12v12h-12zM204 708h12v12h-12zM216 708h12v12h-12zM252 672h12v12h-12zM240 684h12v12h-12zM264 684h12v12h-12zM252 696h12v12h-12zM276 696h12v12h-12zM264 708h12v12h-12zM305 672h3v12h-3zM300 677h12v3h-12zM329 672h3v12h-3zM324 677h12v3h-12zM293 684h3v12h-3zM288 689h12v3h-12zM329 696h3v12h-3zM324 701h12v3h-12zM293 708h3v12h-3zM288 713h12v3h-12zM317 708h3v12h-3zM312 713h12v3h-12zM351 675h6v6h-6zM363 675h6v6h-6zM363 687h6v6h-6zM351 711h6v6h-6zM408 672h12v12h-12zM384 684h12v12h-12zM396 684h12v12h-12zM420 684h12v12h-12zM384 696h12v12h-12zM408 696h12v12h-12zM420 696h12v12h-12zM396 708h12v12h-12zM437 672h3v12h-3zM432 677h12v3h-12zM461 672h3v12h-3zM456 677h12v3h-12zM449 684h3v12h-3zM444 689h12v3h-12zM473 684h3v12h-3zM468 689h12v3h-12zM437 696h3v12h-3zM432 701h12v3h-12zM461 696h3v12h-3zM456 701h12v3h-12zM449 708h3v12h-3zM444 713h12v3h-12zM473 708h3v12h-3zM468 713h12v3h-12zM3 723h6v6h-6zM39 723h6v6h-6zM15 735h6v6h-6zM27 735h6v6h-6zM15 747h6v6h-6zM3 759h6v6h-6zM39 759h6v6h-6zM53 720h3v12h-3zM48 725h12v3h-12zM89 720h3v12h-3zM84 725h12v3h-12zM53 756h3v12h-3zM48 761h12v3h-12zM89 756h3v12h-3zM84 761h12v3h-12zM96 720h12v12h-12zM120 720h12v12h-12zM120 732h12v12h-12zM132 732h12v12h-12zM96 744h12v12h-12zM108 744h12v12h-12zM108 756h12v12h-12zM132 756h12v12h-12zM156 720h12v12h-12zM168 720h12v12h-12zM156 756h12v12h-12zM168 756h12v12h-12zM197 720h3v12h-3zM192 725h12v3h-12zM221 720h3v12h-3zM216 725h12v3h-12zM221 732h3v12h-3zM216 737h12v3h-12zM233 732h3v12h-3zM228 737h12v3h-12zM197 744h3v12h-3zM192 749h12v3h-12zM209 744h3v12h-3zM204 749h12v3h-12zM209 756h3v12h-3zM204 761h12v3h-12zM233 756h3v12h-3zM228 761h12v3h-12zM269 720h3v12h-3zM264 725h12v3h-12zM281 720h3v12h-3zM276 725h12v3h-12zM245 756h3v12h-3zM240 761h12v3h-12zM257 756h3v12h-3zM252 761h12v3h-12zM291 723h6v6h-6zM303 735h6v6h-6zM315 747h6v6h-6zM327 759h6v6h-6zM353 720h3v12h-3zM348 725h12v3h-12zM341 732h3v12h-3zM336 737h12v3h-12zM365 732h3v12h-3zM360 737h12v3h-12zM377 732h3v12h-3zM372 737h12v3h-12zM341 744h3v12h-3zM336 749h12v3h-12zM353 744h3v12h-3zM348 749h12v3h-12zM377 744h3v12h-3zM372 749h12v3h-12zM365 756h3v12h-3zM360 761h12v3h-12zM413 720h3v12h-3zM408 725h12v3h-12zM389 732h3v12h-3zM384 737h12v3h-12zM401 732h3v12h-3zM396 737h12v3h-12zM425 732h3v12h-3zM420 737h12v3h-12zM389 744h3v12h-3zM384 749h12v3h-12zM413 744h3v12h-3zM408 749h12v3h-12zM425 744h3v12h-3zM420 749h12v3h-12zM401 756h3v12h-3zM396 761h12v3h-12zM455 738h3v12h-3zM450 743h12v3h-12zM3 771h6v6h-6zM27 771h6v6h-6zM27 783h6v6h-6zM39 783h6v6h-6zM3 795h6v6h-6zM15 795h6v6h-6zM15 807h6v6h-6zM39 807h6v6h-6zM60 768h12v12h-12zM72 768h12v12h-12zM72 780h12v12h-12zM60 804h12v12h-12zM96 768h12v12h-12zM132 768h12v12h-12zM108 780h12v12h-12zM120 780h12v12h-12zM108 792h12v12h-12zM96 804h12v12h-12zM132 804h12v12h-12zM161 768h3v12h-3zM156 773h12v3h-12zM185 768h3v12h-3zM180 773h12v3h-12zM149 780h3v12h-3zM144 785h12v3h-12zM185 792h3v12h-3zM180 797h12v3h-12zM149 804h3v12h-3zM144 809h12v3h-12zM173 804h3v12h-3zM168 809h12v3h-12zM207 771h6v6h-6zM231 771h6v6h-6zM195 783h6v6h-6zM231 795h6v6h-6zM195 807h6v6h-6zM219 807h6v6h-6zM245 768h3v12h-3zM240 773h12v3h-12zM269 768h3v12h-3zM264 773h12v3h-12zM281 780h3v12h-3zM276 785h12v3h-12zM245 792h3v12h-3zM240 797h12v3h-12zM257 804h3v12h-3zM252 809h12v3h-12zM281 804h3v12h-3zM276 809h12v3h-12zM303 771h6v6h-6zM315 771h6v6h-6zM303 807h6v6h-6zM315 807h6v6h-6zM339 771h6v6h-6zM363 771h6v6h-6zM363 783h6v6h-6zM375 783h6v6h-6zM339 795h6v6h-6zM351 795h6v6h-6zM351 807h6v6h-6zM375 807h6v6h-6zM399 771h6v6h-6zM387 783h6v6h-6zM411 783h6v6h-6zM399 795h6v6h-6zM423 795h6v6h-6zM411 807h6v6h-6zM432 768h12v12h-12zM468 768h12v12h-12zM444 780h12v12h-12zM456 792h12v12h-12zM432 804h12v12h-12zM468 804h12v12h-12zM606 774h12v12h-12zM630 774h12v12h-12zM582 798h12v12h-12zM630 798h12v12h-12zM606 822h12v12h-12zM654 822h12v12h-12zM606 846h12v12h-12zM630 846h12v12h-12zM768 768h24v24h-24zM840 768h24v24h-24zM792 792h24v24h-24zM816 792h24v24h-24zM768 816h24v24h-24zM840 816h24v24h-24zM17 816h3v12h-3zM12 821h12v3h-12zM41 816h3v12h-3zM36 821h12v3h-12zM5 828h3v12h-3zM0 833h12v3h-12zM17 828h3v12h-3zM12 833h12v3h-12zM29 840h3v12h-3zM24 845h12v3h-12zM41 840h3v12h-3zM36 845h12v3h-12zM5 852h3v12h-3zM0 857h12v3h-12zM29 852h3v12h-3zM24 857h12v3h-12zM51 819h6v6h-6zM87 819h6v6h-6zM63 831h6v6h-6zM75 831h6v6h-6zM51 843h6v6h-6zM87 843h6v6h-6zM101 816h3v12h-3zM96 821h12v3h-12zM137 816h3v12h-3zM132 821h12v3h-12zM113 828h3v12h-3zM108 833h12v3h-12zM125 840h3v12h-3zM120 845h12v3h-12zM101 852h3v12h-3zM96 857h12v3h-12zM137 852h3v12h-3zM132 857h12v3h-12zM149 816h3v12h-3zM144 821h12v3h-12zM185 816h3v12h-3zM180 821h12v3h-12zM161 828h3v12h-3zM156 833h12v3h-12zM173 828h3v12h-3zM168 833h12v3h-12zM173 840h3v12h-3zM168 845h12v3h-12zM149 852h3v12h-3zM144 857h12v3h-12zM185 852h3v12h-3zM180 857h12v3h-12zM197 816h3v12h-3zM192 821h12v3h-12zM209 828h3v12h-3zM204 833h12v3h-12zM197 840h3v12h-3zM192 845h12v3h-12zM221 840h3v12h-3zM216 845h12v3h-12zM197 852h3v12h-3zM192 857h12v3h-12zM209 852h3v12h-3zM204 857h12v3h-12zM233 852h3v12h-3zM228 857h12v3h-12zM255 819h6v6h-6zM243 831h6v6h-6zM267 831h6v6h-6zM279 831h6v6h-6zM243 843h6v6h-6zM255 843h6v6h-6zM279 843h6v6h-6zM267 855h6v6h-6zM305 816h3v12h-3zM300 821h12v3h-12zM293 828h3v12h-3zM288 833h12v3h-12zM305 828h3v12h-3zM300 833h12v3h-12zM317 840h3v12h-3zM312 845h12v3h-12zM329 840h3v12h-3zM324 845h12v3h-12zM317 852h3v12h-3zM312 857h12v3h-12zM353 816h3v12h-3zM348 821h12v3h-12zM341 828h3v12h-3zM336 833h12v3h-12zM377 840h3v12h-3zM372 845h12v3h-12zM365 852h3v12h-3zM360 857h12v3h-12zM384 816h12v12h-12zM396 816h12v12h-12zM408 852h12v12h-12zM420 852h12v12h-12zM471 819h6v6h-6zM459 831h6v6h-6zM447 843h6v6h-6zM435 855h6v6h-6zM29 864h3v12h-3zM24 869h12v3h-12zM29 876h3v12h-3zM24 881h12v3h-12zM41 876h3v12h-3zM36 881h12v3h-12zM5 888h3v12h-3zM0 893h12v3h-12zM17 888h3v12h-3zM12 893h12v3h-12zM17 900h3v12h-3zM12 905h12v3h-12zM77 864h3v12h-3zM72 869h12v3h-12zM65 876h3v12h-3zM60 881h12v3h-12zM89 876h3v12h-3zM84 881h12v3h-12zM53 888h3v12h-3zM48 893h12v3h-12zM77 888h3v12h-3zM72 893h12v3h-12zM65 900h3v12h-3zM60 905h12v3h-12zM132 864h12v12h-12zM120 876h12v12h-12zM108 888h12v12h-12zM132 888h12v12h-12zM96 900h12v12h-12zM120 900h12v12h-12zM132 900h12v12h-12zM149 864h3v12h-3zM144 869h12v3h-12zM185 864h3v12h-3zM180 869h12v3h-12zM161 876h3v12h-3zM156 881h12v3h-12zM173 876h3v12h-3zM168 881h12v3h-12zM161 888h3v12h-3zM156 893h12v3h-12zM149 900h3v12h-3zM144 905h12v3h-12zM185 900h3v12h-3zM180 905h12v3h-12zM197 864h3v12h-3zM192 869h12v3h-12zM233 864h3v12h-3zM228 869h12v3h-12zM209 876h3v12h-3zM204 881h12v3h-12zM221 876h3v12h-3zM216 881h12v3h-12zM209 888h3v12h-3zM204 893h12v3h-12zM197 900h3v12h-3zM192 905h12v3h-12zM233 900h3v12h-3zM228 905h12v3h-12zM257 864h3v12h-3zM252 869h12v3h-12zM269 888h3v12h-3zM264 893h12v3h-12zM257 900h3v12h-3zM252 905h12v3h-12zM269 900h3v12h-3zM264 905h12v3h-12zM288 864h12v12h-12zM300 876h12v12h-12zM312 888h12v12h-12zM324 900h12v12h-12zM339 867h6v6h-6zM375 867h6v6h-6zM363 879h6v6h-6zM351 891h6v6h-6zM339 903h6v6h-6zM375 903h6v6h-6zM396 864h12v12h-12zM420 864h12v12h-12zM384 876h12v12h-12zM396 876h12v12h-12zM408 888h12v12h-12zM420 888h12v12h-12zM384 900h12v12h-12zM408 900h12v12h-12zM432 864h12v12h-12zM468 864h12v12h-12zM444 876h12v12h-12zM456 876h12v12h-12zM444 888h12v12h-12zM432 900h12v12h-12zM468 900h12v12h-12zM39 987h6v6h-6zM15 915h6v6h-6zM27 915h6v6h-6zM15 927h6v6h-6zM39 927h6v6h-6zM3 939h6v6h-6zM27 939h6v6h-6zM15 951h6v6h-6zM27 951h6v6h-6zM51 915h6v6h-6zM87 915h6v6h-6zM63 927h6v6h-6zM75 927h6v6h-6zM75 939h6v6h-6zM51 951h6v6h-6zM87 951h6v6h-6zM99 915h6v6h-6zM135 915h6v6h-6zM111 927h6v6h-6zM123 927h6v6h-6zM111 939h6v6h-6zM123 939h6v6h-6zM99 951h6v6h-6zM135 951h6v6h-6zM149 912h3v12h-3zM144 917h12v3h-12zM185 912h3v12h-3zM180 917h12v3h-12zM161 924h3v12h-3zM156 929h12v3h-12zM161 936h3v12h-3zM156 941h12v3h-12zM173 936h3v12h-3zM168 941h12v3h-12zM149 948h3v12h-3zM144 953h12v3h-12zM185 948h3v12h-3zM180 953h12v3h-12zM207 915h6v6h-6zM231 915h6v6h-6zM219 927h6v6h-6zM219 939h6v6h-6zM207 951h6v6h-6zM231 951h6v6h-6zM240 924h12v12h-12zM252 924h12v12h-12zM240 936h12v12h-12zM276 936h12v12h-12zM303 915h6v6h-6zM315 915h6v6h-6zM291 927h6v6h-6zM315 927h6v6h-6zM303 939h6v6h-6zM327 939h6v6h-6zM303 951h6v6h-6zM315 951h6v6h-6zM348 912h12v12h-12zM372 912h12v12h-12zM336 924h12v12h-12zM372 936h12v12h-12zM336 948h12v12h-12zM360 948h12v12h-12zM396 912h12v12h-12zM384 924h12v12h-12zM396 924h12v12h-12zM408 936h12v12h-12zM420 936h12v12h-12zM408 948h12v12h-12zM449 912h3v12h-3zM444 917h12v3h-12zM473 912h3v12h-3zM468 917h12v3h-12zM449 948h3v12h-3zM444 953h12v3h-12zM473 948h3v12h-3zM468 953h12v3h-12zM333 420h6v24h-6zM324 429h24v6h-24zM906 714h12v12h-12zM585 480h6v24h-6zM576 489h24v6h-24zM657 480h6v24h-6zM648 489h24v6h-24zM585 528h6v24h-6zM576 537h24v6h-24zM657 528h6v24h-6zM648 537h24v6h-24zM141 420h6v24h-6zM132 429h24v6h-24zM45 324h6v24h-6zM36 333h24v6h-24zM330 330h12v12h-12zM42 138h12v12h-12zM714 906h12v12h-12z"/><path fill="#000" d="M96 336h48v48h-48zM144 336h48v48h-48zM192 288h48v48h-48zM240 240h48v48h-48zM288 192h48v48h-48zM336 144h48v48h-48zM336 96h48v48h-48zM336 48h48v48h-48zM336 0h48v48h-48zM336 192h48v48h-48zM336 240h48v48h-48zM336 288h48v48h-48zM288 336h48v48h-48zM240 384h48v48h-48zM192 384h48v48h-48zM144 384h48v48h-48zM96 384h48v48h-48zM48 432h48v48h-48zM192 240h48v48h-48zM288 240h48v48h-48zM240 288h48v48h-48zM192 336h48v48h-48zM48 336h48v48h-48zM48 288h48v48h-48zM48 240h48v48h-48zM48 192h48v48h-48zM48 144h48v48h-48zM48 96h48v48h-48zM48 384h48v48h-48zM144 288h48v48h-48zM240 192h48v48h-48zM288 144h48v48h-48zM384 48h48v48h-48zM288 96h48v48h-48zM240 96h48v48h-48zM192 48h48v48h-48zM144 96h48v48h-48zM96 144h48v48h-48zM0 240h48v48h-48zM816 384h48v48h-48zM816 432h48v48h-48zM864 432h48v48h-48zM912 432h48v48h-48zM912 384h48v48h-48zM912 336h48v48h-48zM912 288h48v48h-48zM912 240h48v48h-48zM912 192h48v48h-48zM864 240h48v48h-48zM816 288h48v48h-48zM768 336h48v48h-48zM720 288h48v48h-48zM720 336h48v48h-48zM720 384h48v48h-48zM720 432h48v48h-48zM768 384h48v48h-48zM816 336h48v48h-48zM864 288h48v48h-48zM768 432h48v48h-48zM672 432h48v48h-48zM624 432h48v48h-48zM576 432h48v48h-48zM528 432h48v48h-48zM528 384h48v48h-48zM528 336h48v48h-48zM528 288h48v48h-48zM528 240h48v48h-48zM528 192h48v48h-48zM528 144h48v48h-48zM528 96h48v48h-48zM576 144h48v48h-48zM624 192h48v48h-48zM672 240h48v48h-48zM576 384h48v48h-48zM576 336h48v48h-48zM624 336h48v48h-48zM672 288h48v48h-48zM720 240h48v48h-48zM768 192h48v48h-48zM816 144h48v48h-48zM864 96h48v48h-48zM96 576h48v48h-48zM144 576h48v48h-48zM192 624h48v48h-48zM240 672h48v48h-48zM288 720h48v48h-48zM336 768h48v48h-48zM336 816h48v48h-48zM336 864h48v48h-48zM336 912h48v48h-48zM336 720h48v48h-48zM336 672h48v48h-48zM336 624h48v48h-48zM288 576h48v48h-48zM240 528h48v48h-48zM192 528h48v48h-48zM144 528h48v48h-48zM96 528h48v48h-48zM48 480h48v48h-48zM192 672h48v48h-48zM288 672h48v48h-48zM240 624h48v48h-48zM192 576h48v48h-48zM48 576h48v48h-48zM48 624h48v48h-48zM48 672h48v48h-48zM48 720h48v48h-48zM48 768h48v48h-48zM48 816h48v48h-48zM48 528h48v48h-48zM144 624h48v48h-48zM240 720h48v48h-48zM288 768h48v48h-48zM384 864h48v48h-48zM288 816h48v48h-48zM240 816h48v48h-48zM192 864h48v48h-48zM144 816h48v48h-48zM96 768h48v48h-48zM0 672h48v48h-48zM816 528h48v48h-48zM816 480h48v48h-48zM864 480h48v48h-48zM912 480h48v48h-48zM912 528h48v48h-48zM912 576h48v48h-48zM912 624h48v48h-48zM912 672h48v48h-48zM912 720h48v48h-48zM864 672h48v48h-48zM816 624h48v48h-48zM768 576h48v48h-48zM720 624h48v48h-48zM720 576h48v48h-48zM720 528h48v48h-48zM720 480h48v48h-48zM768 528h48v48h-48zM816 576h48v48h-48zM864 624h48v48h-48zM768 480h48v48h-48zM672 480h48v48h-48zM624 480h48v48h-48zM576 480h48v48h-48zM528 480h48v48h-48zM528 528h48v48h-48zM528 576h48v48h-48zM528 624h48v48h-48zM528 672h48v48h-48zM528 720h48v48h-48zM528 768h48v48h-48zM528 816h48v48h-48zM576 768h48v48h-48zM624 720h48v48h-48zM672 672h48v48h-48zM576 528h48v48h-48zM576 576h48v48h-48zM624 576h48v48h-48zM672 624h48v48h-48zM720 672h48v48h-48zM768 720h48v48h-48zM816 768h48v48h-48zM864 816h48v48h-48z"/></svg>