<svg xmlns="http://www.w3.org/2000/svg" width="960" height="960" viewBox="0 0 960 960" shape-rendering="crispEdges"><path fill="#fff" d="M0 0h960v960h-960z"/><path fill="#ffbe0a" d="M504 0h12v12h-12zM504 12h12v12h-12zM504 24h12v12h-12zM504 36h12v12h-12zM504 48h12v12h-12zM504 60h12v12h-12zM504 72h12v12h-12zM504 84h12v12h-12zM504 96h12v12h-12zM504 108h12v12h-12zM504 120h12v12h-12zM504 132h12v12h-12zM504 144h12v12h-12zM504 156h12v12h-12zM504 168h12v12h-12zM504 180h12v12h-12zM504 192h12v12h-12zM504 204h12v12h-12zM504 216h12v12h-12zM504 228h12v12h-12zM504 240h12v12h-12zM504 252h12v12h-12zM504 264h12v12h-12zM504 276h12v12h-12zM504 288h12v12h-12zM504 300h12v12h-12zM504 312h12v12h-12zM504 324h12v12h-12zM504 336h12v12h-12zM504 348h12v12h-12zM504 360h12v12h-12zM504 372h12v12h-12zM504 384h12v12h-12zM504 396h12v12h-12zM504 408h12v12h-12zM504 420h12v12h-12zM504 432h12v12h-12zM504 444h12v12h-12zM504 456h12v12h-12zM504 468h12v12h-12zM504 480h12v12h-12zM504 492h12v12h-12zM504 504h12v12h-12zM504 516h12v12h-12zM504 528h12v12h-12zM504 540h12v12h-12zM504 552h12v12h-12zM504 564h12v12h-12zM504 576h12v12h-12zM504 588h12v12h-12zM504 600h12v12h-12zM504 612h12v12h-12zM504 624h12v12h-12zM504 636h12v12h-12zM504 648h12v12h-12zM504 660h12v12h-12zM504 672h12v12h-12zM504 684h12v12h-12zM504 696h12v12h-12zM504 708h12v12h-12zM504 720h12v12h-12zM504 732h12v12h-12zM504 744h12v12h-12zM504 756h12v12h-12zM504 768h12v12h-12zM504 780h12v12h-12zM504 792h12v12h-12zM504 804h12v12h-12zM504 816h12v12h-12zM504 828h12v12h-12zM504 840h12v12h-12zM504 852h12v12h-12zM504 864h12v12h-12zM504 876h12v12h-12zM504 888h12v12h-12zM504 900h12v12h-12zM504 912h12v12h-12zM504 924h12v12h-12zM504 936h12v12h-12zM504 948h12v12h-12zM576 0h12v12h-12zM576 12h12v12h-12zM576 24h12v12h-12zM576 36h12v12h-12zM576 48h12v12h-12zM576 60h12v12h-12zM576 72h12v12h-12zM576 84h12v12h-12zM576 96h12v12h-12zM576 108h12v12h-12zM576 120h12v12h-12zM576 132h12v12h-12zM576 144h12v12h-12zM576 156h12v12h-12zM576 168h12v12h-12zM576 180h12v12h-12zM576 192h12v12h-12zM576 204h12v12h-12zM576 216h12v12h-12zM576 228h12v12h-12zM576 240h12v12h-12zM576 252h12v12h-12zM576 264h12v12h-12zM576 276h12v12h-12zM576 288h12v12h-12zM576 300h12v12h-12zM576 312h12v12h-12zM576 324h12v12h-12zM576 336h12v12h-12zM576 348h12v12h-12zM576 360h12v12h-12zM576 372h12v12h-12zM576 384h12v12h-12zM576 396h12v12h-12zM576 408h12v12h-12zM576 420h12v12h-12zM576 432h12v12h-12zM576 444h12v12h-12zM576 456h12v12h-12zM576 468h12v12h-12zM576 480h12v12h-12zM576 492h12v12h-12zM576 504h12v12h-12zM576 516h12v12h-12zM576 528h12v12h-12zM576 540h12v12h-12zM576 552h12v12h-12zM576 564h12v12h-12zM576 576h12v12h-12zM576 588h12v12h-12zM576 600h12v12h-12zM576 612h12v12h-12zM576 624h12v12h-12zM576 636h12v12h-12zM576 648h12v12h-12zM576 660h12v12h-12zM576 672h12v12h-12zM576 684h12v12h-12zM576 696h12v12h-12zM576 708h12v12h-12zM576 720h12v12h-12zM576 732h12v12h-12zM576 744h12v12h-12zM576 756h12v12h-12zM576 768h12v12h-12zM576 780h12v12h-12zM576 792h12v12h-12zM576 804h12v12h-12zM576 816h12v12h-12zM576 828h12v12h-12zM576 840h12v12h-12zM576 852h12v12h-12zM576 864h12v12h-12zM576 876h12v12h-12zM576 888h12v12h-12zM576 900h12v12h-12zM576 912h12v12h-12zM576 924h12v12h-12zM576 936h12v12h-12zM576 948h12v12h-12zM648 0h12v12h-12zM648 12h12v12h-12zM648 24h12v12h-12zM648 36h12v12h-12zM648 48h12v12h-12zM648 60h12v12h-12zM648 72h12v12h-12zM648 84h12v12h-12zM648 96h12v12h-12zM648 108h12v12h-12zM648 120h12v12h-12zM648 132h12v12h-12zM648 144h12v12h-12zM648 156h12v12h-12zM648 168h12v12h-12zM648 180h12v12h-12zM648 192h12v12h-12zM648 204h12v12h-12zM648 216h12v12h-12zM648 228h12v12h-12zM648 240h12v12h-12zM648 252h12v12h-12zM648 264h12v12h-12zM648 276h12v12h-12zM648 288h12v12h-12zM648 300h12v12h-12zM648 312h12v12h-12zM648 324h12v12h-12zM648 336h12v12h-12zM648 348h12v12h-12zM648 360h12v12h-12zM648 372h12v12h-12zM648 384h12v12h-12zM648 396h12v12h-12zM648 408h12v12h-12zM648 420h12v12h-12zM648 432h12v12h-12zM648 444h12v12h-12zM648 456h12v12h-12zM648 468h12v12h-12zM648 480h12v12h-12zM648 492h12v12h-12zM648 504h12v12h-12zM648 516h12v12h-12zM648 528h12v12h-12zM648 540h12v12h-12zM648 552h12v12h-12zM648 564h12v12h-12zM648 576h12v12h-12zM648 588h12v12h-12zM648 600h12v12h-12zM648 612h12v12h-12zM648 624h12v12h-12zM648 636h12v12h-12zM648 648h12v12h-12zM648 660h12v12h-12zM648 672h12v12h-12zM648 684h12v12h-12zM648 696h12v12h-12zM648 708h12v12h-12zM648 720h12v12h-12zM648 732h12v12h-12zM648 744h12v12h-12zM648 756h12v12h-12zM648 768h12v12h-12zM648 780h12v12h-12zM648 792h12v12h-12zM648 804h12v12h-12zM648 816h12v12h-12zM648 828h12v12h-12zM648 840h12v12h-12zM648 852h12v12h-12zM648 864h12v12h-12zM648 876h12v12h-12zM648 888h12v12h-12zM648 900h12v12h-12zM648 912h12v12h-12zM648 924h12v12h-12zM648 936h12v12h-12zM648 948h12v12h-12zM720 0h12v12h-12zM720 12h12v12h-12zM720 24h12v12h-12zM720 36h12v12h-12zM720 48h12v12h-12zM720 60h12v12h-12zM720 72h12v12h-12zM720 84h12v12h-12zM720 96h12v12h-12zM720 108h12v12h-12zM720 120h12v12h-12zM720 132h12v12h-12zM720 144h12v12h-12zM720 156h12v12h-12zM720 168h12v12h-12zM720 180h12v12h-12zM720 192h12v12h-12zM720 204h12v12h-12zM720 216h12v12h-12zM720 228h12v12h-12zM720 240h12v12h-12zM720 252h12v12h-12zM720 264h12v12h-12zM720 276h12v12h-12zM720 288h12v12h-12zM720 300h12v12h-12zM720 312h12v12h-12zM720 324h12v12h-12zM720 336h12v12h-12zM720 348h12v12h-12zM720 360h12v12h-12zM720 372h12v12h-12zM720 384h12v12h-12zM720 396h12v12h-12zM720 408h12v12h-12zM720 420h12v12h-12zM720 432h12v12h-12zM720 444h12v12h-12zM720 456h12v12h-12zM720 468h12v12h-12zM720 480h12v12h-12zM720 492h12v12h-12zM720 504h12v12h-12zM720 516h12v12h-12zM720 528h12v12h-12zM720 540h12v12h-12zM720 552h12v12h-12zM720 564h12v12h-12zM720 576h12v12h-12zM720 588h12v12h-12zM720 600h12v12h-12zM720 612h12v12h-12zM720 624h12v12h-12zM720 636h12v12h-12zM720 648h12v12h-12zM720 660h12v12h-12zM720 672h12v12h-12zM720 684h12v12h-12zM720 696h12v12h-12zM720 708h12v12h-12zM720 720h12v12h-12zM720 732h12v12h-12zM720 744h12v12h-12zM720 756h12v12h-12zM720 768h12v12h-12zM720 780h12v12h-12zM720 792h12v12h-12zM720 804h12v12h-12zM720 816h12v12h-12zM720 828h12v12h-12zM720 840h12v12h-12zM720 852h12v12h-12zM720 864h12v12h-12zM720 876h12v12h-12zM720 888h12v12h-12zM720 900h12v12h-12zM720 912h12v12h-12zM720 924h12v12h-12zM720 936h12v12h-12zM720 948h12v12h-12zM792 0h12v12h-12zM792 12h12v12h-12zM792 24h12v12h-12zM792 36h12v12h-12zM792 48h12v12h-12zM792 60h12v12h-12zM792 72h12v12h-12zM792 84h12v12h-12zM792 96h12v12h-12zM792 108h12v12h-12zM792 120h12v12h-12zM792 132h12v12h-12zM792 144h12v12h-12zM792 156h12v12h-12zM792 168h12v12h-12zM792 180h12v12h-12zM792 192h12v12h-12zM792 204h12v12h-12zM792 216h12v12h-12zM792 228h12v12h-12zM792 240h12v12h-12zM792 252h12v12h-12zM792 264h12v12h-12zM792 276h12v12h-12zM792 288h12v12h-12zM792 300h12v12h-12zM792 312h12v12h-12zM792 324h12v12h-12zM792 336h12v12h-12zM792 348h12v12h-12zM792 360h12v12h-12zM792 372h12v12h-12zM792 384h12v12h-12zM792 396h12v12h-12zM792 408h12v12h-12zM792 420h12v12h-12zM792 432h12v12h-12zM792 444h12v12h-12zM792 456h12v12h-12zM792 468h12v12h-12zM792 480h12v12h-12zM792 492h12v12h-12zM792 504h12v12h-12zM792 516h12v12h-12zM792 528h12v12h-12zM792 540h12v12h-12zM792 552h12v12h-12zM792 564h12v12h-12zM792 576h12v12h-12zM792 588h12v12h-12zM792 600h12v12h-12zM792 612h12v12h-12zM792 624h12v12h-12zM792 636h12v12h-12zM792 648h12v12h-12zM792 660h12v12h-12zM792 672h12v12h-12zM792 684h12v12h-12zM792 696h12v12h-12zM792 708h12v12h-12zM792 720h12v12h-12zM792 732h12v12h-12zM792 744h12v12h-12zM792 756h12v12h-12zM792 768h12v12h-12zM792 780h12v12h-12zM792 792h12v12h-12zM792 804h12v12h-12zM792 816h12v12h-12zM792 828h12v12h-12zM792 840h12v12h-12zM792 852h12v12h-12zM792 864h12v12h-12zM792 876h12v12h-12zM792 888h12v12h-12zM792 900h12v12h-12zM792 912h12v12h-12zM792 924h12v12h-12zM792 936h12v12h-12zM792 948h12v12h-12zM864 0h12v12h-12zM864 12h12v12h-12zM864 24h12v12h-12zM864 36h12v12h-12zM864 48h12v12h-12zM864 60h12v12h-12zM864 72h12v12h-12zM864 84h12v12h-12zM864 96h12v12h-12zM864 108h12v12h-12zM864 120h12v12h-12zM864 132h12v12h-12zM864 144h12v12h-12zM864 156h12v12h-12zM864 168h12v12h-12zM864 180h12v12h-12zM864 192h12v12h-12zM864 204h12v12h-12zM864 216h12v12h-12zM864 228h12v12h-12zM864 240h12v12h-12zM864 252h12v12h-12zM864 264h12v12h-12zM864 276h12v12h-12zM864 288h12v12h-12zM864 300h12v12h-12zM864 312h12v12h-12zM864 324h12v12h-12zM864 336h12v12h-12zM864 348h12v12h-12zM864 360h12v12h-12zM864 372h12v12h-12zM864 384h12v12h-12zM864 396h12v12h-12zM864 408h12v12h-12zM864 420h12v12h-12zM864 432h12v12h-12zM864 444h12v12h-12zM864 456h12v12h-12zM864 468h12v12h-12zM864 480h12v12h-12zM864 492h12v12h-12zM864 504h12v12h-12zM864 516h12v12h-12zM864 528h12v12h-12zM864 540h12v12h-12zM864 552h12v12h-12zM864 564h12v12h-12zM864 576h12v12h-12zM864 588h12v12h-12zM864 600h12v12h-12zM864 612h12v12h-12zM864 624h12v12h-12zM864 636h12v12h-12zM864 648h12v12h-12zM864 660h12v12h-12zM864 672h12v12h-12zM864 684h12v12h-12zM864 696h12v12h-12zM864 708h12v12h-12zM864 720h12v12h-12zM864 732h12v12h-12zM864 744h12v12h-12zM864 756h12v12h-12zM864 768h12v12h-12zM864 780h12v12h-12zM864 792h12v12h-12zM864 804h12v12h-12zM864 816h12v12h-12zM864 828h12v12h-12zM864 840h12v12h-12zM864 852h12v12h-12zM864 864h12v12h-12zM864 876h12v12h-12zM864 888h12v12h-12zM864 900h12v12h-12zM864 912h12v12h-12zM864 924h12v12h-12zM864 936h12v12h-12zM864 948h12v12h-12zM936 0h12v12h-12zM936 12h12v12h-12zM936 24h12v12h-12zM936 36h12v12h-12zM936 48h12v12h-12zM936 60h12v12h-12zM936 72h12v12h-12zM936 84h12v12h-12zM936 96h12v12h-12zM936 108h12v12h-12zM936 120h12v12h-12zM936 132h12v12h-12zM936 144h12v12h-12zM936 156h12v12h-12zM936 168h12v12h-12zM936 180h12v12h-12zM936 192h12v12h-12zM936 204h12v12h-12zM936 216h12v12h-12zM936 228h12v12h-12zM936 240h12v12h-12zM936 252h12v12h-12zM936 264h12v12h-12zM936 276h12v12h-12zM936 288h12v12h-12zM936 300h12v12h-12zM936 312h12v12h-12zM936 324h12v12h-12zM936 336h12v12h-12zM936 348h12v12h-12zM936 360h12v12h-12zM936 372h12v12h-12zM936 384h12v12h-12zM936 396h12v12h-12zM936 408h12v12h-12zM936 420h12v12h-12zM936 432h12v12h-12zM936 444h12v12h-12zM936 456h12v12h-12zM936 468h12v12h-12zM936 480h12v12h-12zM936 492h12v12h-12zM936 504h12v12h-12zM936 516h12v12h-12zM936 528h12v12h-12zM936 540h12v12h-12zM936 552h12v12h-12zM936 564h12v12h-12zM936 576h12v12h-12zM936 588h12v12h-12zM936 600h12v12h-12zM936 612h12v12h-12zM936 624h12v12h-12zM936 636h12v12h-12zM936 648h12v12h-12zM936 660h12v12h-12zM936 672h12v12h-12zM936 684h12v12h-12zM936 696h12v12h-12zM936 708h12v12h-12zM936 720h12v12h-12zM936 732h12v12h-12zM936 744h12v12h-12zM936 756h12v12h-12zM936 768h12v12h-12zM936 780h12v12h-12zM936 792h12v12h-12zM936 804h12v12h-12zM936 816h12v12h-12zM936 828h12v12h-12zM936 840h12v12h-12zM936 852h12v12h-12zM936 864h12v12h-12zM936 876h12v12h-12zM936 888h12v12h-12zM936 900h12v12h-12zM936 912h12v12h-12zM936 924h12v12h-12zM936 936h12v12h-12zM936 948h12v12h-12z"/><path fill="#052757" d="M6 6h12v12h-12zM54 6h12v12h-12zM54 30h12v12h-12zM78 30h12v12h-12zM6 54h12v12h-12zM30 54h12v12h-12zM30 78h12v12h-12zM78 78h12v12h-12zM150 6h12v12h-12zM102 30h12v12h-12zM126 30h12v12h-12zM174 30h12v12h-12zM102 54h12v12h-12zM150 54h12v12h-12zM174 54h12v12h-12zM126 78h12v12h-12zM198 6h12v12h-12zM270 6h12v12h-12zM246 30h12v12h-12zM222 54h12v12h-12zM246 54h12v12h-12zM198 78h12v12h-12zM270 78h12v12h-12zM294 6h12v12h-12zM366 6h12v12h-12zM342 30h12v12h-12zM318 54h12v12h-12zM294 78h12v12h-12zM366 78h12v12h-12zM390 30h12v12h-12zM414 30h12v12h-12zM390 54h12v12h-12zM462 54h12v12h-12zM486 6h12v12h-12zM534 6h12v12h-12zM558 6h12v12h-12zM510 30h12v12h-12zM558 30h12v12h-12zM534 54h12v12h-12zM558 78h12v12h-12zM582 6h12v12h-12zM654 6h12v12h-12zM606 30h12v12h-12zM630 30h12v12h-12zM582 54h12v12h-12zM654 54h12v12h-12zM678 6h12v12h-12zM726 6h12v12h-12zM750 6h12v12h-12zM702 30h12v12h-12zM750 30h12v12h-12zM726 54h12v12h-12zM750 78h12v12h-12zM798 6h12v12h-12zM774 30h12v12h-12zM822 30h12v12h-12zM846 30h12v12h-12zM774 54h12v12h-12zM798 54h12v12h-12zM846 54h12v12h-12zM822 78h12v12h-12zM870 6h12v12h-12zM942 6h12v12h-12zM918 30h12v12h-12zM894 54h12v12h-12zM918 54h12v12h-12zM870 78h12v12h-12zM942 78h12v12h-12zM6 102h12v12h-12zM6 126h12v12h-12zM78 150h12v12h-12zM78 174h12v12h-12zM102 102h12v12h-12zM174 102h12v12h-12zM126 126h12v12h-12zM150 126h12v12h-12zM102 174h12v12h-12zM174 174h12v12h-12zM198 102h12v12h-12zM270 102h12v12h-12zM246 126h12v12h-12zM222 150h12v12h-12zM246 150h12v12h-12zM198 174h12v12h-12zM270 174h12v12h-12zM294 102h12v12h-12zM318 126h12v12h-12zM342 150h12v12h-12zM366 174h12v12h-12zM414 102h12v12h-12zM390 126h12v12h-12zM438 126h12v12h-12zM462 126h12v12h-12zM390 150h12v12h-12zM414 150h12v12h-12zM462 150h12v12h-12zM438 174h12v12h-12zM486 102h12v12h-12zM558 102h12v12h-12zM510 126h12v12h-12zM534 150h12v12h-12zM486 174h12v12h-12zM558 174h12v12h-12zM630 102h12v12h-12zM606 126h12v12h-12zM654 126h12v12h-12zM582 150h12v12h-12zM630 150h12v12h-12zM606 174h12v12h-12zM726 102h12v12h-12zM750 102h12v12h-12zM726 126h12v12h-12zM750 126h12v12h-12zM678 150h12v12h-12zM702 150h12v12h-12zM678 174h12v12h-12zM702 174h12v12h-12zM774 102h12v12h-12zM822 102h12v12h-12zM846 102h12v12h-12zM798 126h12v12h-12zM846 126h12v12h-12zM822 150h12v12h-12zM846 174h12v12h-12zM894 126h12v12h-12zM918 126h12v12h-12zM894 150h12v12h-12zM918 150h12v12h-12zM54 198h12v12h-12zM54 222h12v12h-12zM78 222h12v12h-12zM6 246h12v12h-12zM30 246h12v12h-12zM30 270h12v12h-12zM150 198h12v12h-12zM174 222h12v12h-12zM102 246h12v12h-12zM126 270h12v12h-12zM198 198h12v12h-12zM222 222h12v12h-12zM198 246h12v12h-12zM246 246h12v12h-12zM198 270h12v12h-12zM222 270h12v12h-12zM270 270h12v12h-12zM366 198h12v12h-12zM342 222h12v12h-12zM318 246h12v12h-12zM366 246h12v12h-12zM294 270h12v12h-12zM342 270h12v12h-12zM366 270h12v12h-12zM426 234h12v12h-12zM486 198h12v12h-12zM510 222h12v12h-12zM486 246h12v12h-12zM534 246h12v12h-12zM486 270h12v12h-12zM510 270h12v12h-12zM558 270h12v12h-12zM606 198h12v12h-12zM654 198h12v12h-12zM582 222h12v12h-12zM606 222h12v12h-12zM630 246h12v12h-12zM654 246h12v12h-12zM582 270h12v12h-12zM630 270h12v12h-12zM678 222h12v12h-12zM750 222h12v12h-12zM678 246h12v12h-12zM750 246h12v12h-12zM774 198h12v12h-12zM846 198h12v12h-12zM798 222h12v12h-12zM798 246h12v12h-12zM822 246h12v12h-12zM774 270h12v12h-12zM846 270h12v12h-12zM870 198h12v12h-12zM942 198h12v12h-12zM894 222h12v12h-12zM894 246h12v12h-12zM918 246h12v12h-12zM870 270h12v12h-12zM942 270h12v12h-12zM78 294h12v12h-12zM78 318h12v12h-12zM6 342h12v12h-12zM6 366h12v12h-12zM138 330h12v12h-12zM198 294h12v12h-12zM270 294h12v12h-12zM222 318h12v12h-12zM246 318h12v12h-12zM198 342h12v12h-12zM270 342h12v12h-12zM294 294h12v12h-12zM366 294h12v12h-12zM318 342h12v12h-12zM342 342h12v12h-12zM294 366h12v12h-12zM366 366h12v12h-12zM390 294h12v12h-12zM462 294h12v12h-12zM414 318h12v12h-12zM438 318h12v12h-12zM390 342h12v12h-12zM462 342h12v12h-12zM486 294h12v12h-12zM486 318h12v12h-12zM558 342h12v12h-12zM558 366h12v12h-12zM582 294h12v12h-12zM654 294h12v12h-12zM582 366h12v12h-12zM654 366h12v12h-12zM750 294h12v12h-12zM726 318h12v12h-12zM702 342h12v12h-12zM678 366h12v12h-12zM846 294h12v12h-12zM822 318h12v12h-12zM798 342h12v12h-12zM846 342h12v12h-12zM774 366h12v12h-12zM822 366h12v12h-12zM846 366h12v12h-12zM870 294h12v12h-12zM918 294h12v12h-12zM942 294h12v12h-12zM894 318h12v12h-12zM942 318h12v12h-12zM918 342h12v12h-12zM942 366h12v12h-12zM30 390h12v12h-12zM78 390h12v12h-12zM6 414h12v12h-12zM54 414h12v12h-12zM30 438h12v12h-12zM78 438h12v12h-12zM6 462h12v12h-12zM54 462h12v12h-12zM126 390h12v12h-12zM174 390h12v12h-12zM126 462h12v12h-12zM174 462h12v12h-12zM222 390h12v12h-12zM198 414h12v12h-12zM246 414h12v12h-12zM222 438h12v12h-12zM270 438h12v12h-12zM246 462h12v12h-12zM318 390h12v12h-12zM366 390h12v12h-12zM342 414h12v12h-12zM342 438h12v12h-12zM318 462h12v12h-12zM366 462h12v12h-12zM390 390h12v12h-12zM414 414h12v12h-12zM390 438h12v12h-12zM438 438h12v12h-12zM390 462h12v12h-12zM414 462h12v12h-12zM462 462h12v12h-12zM486 390h12v12h-12zM510 414h12v12h-12zM534 438h12v12h-12zM558 462h12v12h-12zM582 390h12v12h-12zM654 390h12v12h-12zM630 414h12v12h-12zM606 438h12v12h-12zM630 438h12v12h-12zM582 462h12v12h-12zM654 462h12v12h-12zM726 390h12v12h-12zM678 414h12v12h-12zM702 414h12v12h-12zM750 414h12v12h-12zM678 438h12v12h-12zM726 438h12v12h-12zM750 438h12v12h-12zM702 462h12v12h-12zM774 390h12v12h-12zM822 390h12v12h-12zM822 414h12v12h-12zM846 414h12v12h-12zM774 438h12v12h-12zM798 438h12v12h-12zM798 462h12v12h-12zM846 462h12v12h-12zM870 390h12v12h-12zM894 414h12v12h-12zM918 438h12v12h-12zM942 462h12v12h-12zM30 486h12v12h-12zM54 486h12v12h-12zM54 510h12v12h-12zM30 558h12v12h-12zM174 630h12v12h-12zM126 486h12v12h-12zM150 486h12v12h-12zM126 510h12v12h-12zM174 510h12v12h-12zM102 534h12v12h-12zM150 534h12v12h-12zM126 558h12v12h-12zM150 558h12v12h-12zM198 486h12v12h-12zM198 510h12v12h-12zM270 534h12v12h-12zM270 558h12v12h-12zM318 486h12v12h-12zM342 534h12v12h-12zM318 558h12v12h-12zM342 558h12v12h-12zM462 486h12v12h-12zM462 510h12v12h-12zM390 534h12v12h-12zM390 558h12v12h-12zM486 486h12v12h-12zM558 486h12v12h-12zM510 510h12v12h-12zM534 510h12v12h-12zM510 534h12v12h-12zM486 558h12v12h-12zM558 558h12v12h-12zM582 486h12v12h-12zM654 486h12v12h-12zM606 510h12v12h-12zM630 510h12v12h-12zM630 534h12v12h-12zM582 558h12v12h-12zM654 558h12v12h-12zM702 510h12v12h-12zM726 510h12v12h-12zM702 534h12v12h-12zM726 534h12v12h-12zM774 486h12v12h-12zM846 486h12v12h-12zM798 510h12v12h-12zM822 510h12v12h-12zM774 534h12v12h-12zM846 534h12v12h-12zM870 486h12v12h-12zM942 486h12v12h-12zM894 510h12v12h-12zM894 534h12v12h-12zM918 534h12v12h-12zM870 558h12v12h-12zM942 558h12v12h-12zM54 582h12v12h-12zM6 606h12v12h-12zM30 606h12v12h-12zM78 606h12v12h-12zM6 630h12v12h-12zM54 630h12v12h-12zM78 630h12v12h-12zM30 654h12v12h-12zM102 582h12v12h-12zM126 582h12v12h-12zM150 654h12v12h-12zM174 654h12v12h-12zM198 582h12v12h-12zM270 582h12v12h-12zM198 630h12v12h-12zM270 630h12v12h-12zM294 582h12v12h-12zM366 582h12v12h-12zM318 606h12v12h-12zM342 606h12v12h-12zM342 630h12v12h-12zM294 654h12v12h-12zM366 654h12v12h-12zM438 582h12v12h-12zM390 606h12v12h-12zM414 606h12v12h-12zM462 606h12v12h-12zM390 630h12v12h-12zM438 630h12v12h-12zM462 630h12v12h-12zM414 654h12v12h-12zM522 618h12v12h-12zM606 582h12v12h-12zM654 582h12v12h-12zM582 606h12v12h-12zM606 606h12v12h-12zM630 630h12v12h-12zM654 630h12v12h-12zM582 654h12v12h-12zM630 654h12v12h-12zM702 582h12v12h-12zM750 582h12v12h-12zM678 606h12v12h-12zM726 606h12v12h-12zM702 630h12v12h-12zM750 630h12v12h-12zM678 654h12v12h-12zM726 654h12v12h-12zM774 582h12v12h-12zM774 606h12v12h-12zM846 630h12v12h-12zM846 654h12v12h-12zM918 582h12v12h-12zM942 582h12v12h-12zM918 606h12v12h-12zM942 606h12v12h-12zM870 630h12v12h-12zM894 630h12v12h-12zM870 654h12v12h-12zM894 654h12v12h-12zM78 678h12v12h-12zM78 702h12v12h-12zM6 726h12v12h-12zM6 750h12v12h-12zM102 678h12v12h-12zM174 678h12v12h-12zM126 702h12v12h-12zM150 702h12v12h-12zM126 726h12v12h-12zM102 750h12v12h-12zM174 750h12v12h-12zM198 678h12v12h-12zM270 678h12v12h-12zM222 702h12v12h-12zM246 702h12v12h-12zM198 750h12v12h-12zM270 750h12v12h-12zM318 678h12v12h-12zM342 678h12v12h-12zM342 702h12v12h-12zM318 750h12v12h-12zM438 678h12v12h-12zM462 702h12v12h-12zM390 726h12v12h-12zM414 750h12v12h-12zM486 678h12v12h-12zM534 678h12v12h-12zM534 702h12v12h-12zM558 702h12v12h-12zM486 726h12v12h-12zM510 726h12v12h-12zM510 750h12v12h-12zM558 750h12v12h-12zM582 702h12v12h-12zM654 702h12v12h-12zM582 726h12v12h-12zM606 726h12v12h-12zM702 678h12v12h-12zM678 702h12v12h-12zM750 726h12v12h-12zM726 750h12v12h-12zM774 678h12v12h-12zM846 678h12v12h-12zM798 702h12v12h-12zM822 702h12v12h-12zM798 726h12v12h-12zM822 726h12v12h-12zM774 750h12v12h-12zM846 750h12v12h-12zM918 678h12v12h-12zM918 702h12v12h-12zM942 702h12v12h-12zM870 726h12v12h-12zM894 726h12v12h-12zM894 750h12v12h-12zM6 774h12v12h-12zM54 774h12v12h-12zM78 774h12v12h-12zM30 798h12v12h-12zM78 798h12v12h-12zM54 822h12v12h-12zM78 846h12v12h-12zM102 774h12v12h-12zM150 774h12v12h-12zM126 798h12v12h-12zM174 798h12v12h-12zM102 822h12v12h-12zM150 822h12v12h-12zM126 846h12v12h-12zM174 846h12v12h-12zM222 798h12v12h-12zM246 798h12v12h-12zM222 822h12v12h-12zM246 822h12v12h-12zM318 774h12v12h-12zM366 774h12v12h-12zM294 798h12v12h-12zM342 798h12v12h-12zM318 822h12v12h-12zM366 822h12v12h-12zM294 846h12v12h-12zM342 846h12v12h-12zM414 774h12v12h-12zM438 822h12v12h-12zM414 846h12v12h-12zM438 846h12v12h-12zM510 774h12v12h-12zM486 798h12v12h-12zM534 798h12v12h-12zM510 822h12v12h-12zM558 822h12v12h-12zM534 846h12v12h-12zM606 774h12v12h-12zM630 774h12v12h-12zM606 846h12v12h-12zM630 846h12v12h-12zM702 774h12v12h-12zM678 798h12v12h-12zM726 798h12v12h-12zM702 822h12v12h-12zM750 822h12v12h-12zM726 846h12v12h-12zM774 774h12v12h-12zM846 774h12v12h-12zM798 798h12v12h-12zM822 798h12v12h-12zM774 846h12v12h-12zM846 846h12v12h-12zM870 774h12v12h-12zM942 774h12v12h-12zM894 798h12v12h-12zM918 798h12v12h-12zM894 822h12v12h-12zM870 846h12v12h-12zM942 846h12v12h-12zM30 870h12v12h-12zM54 918h12v12h-12zM30 942h12v12h-12zM54 942h12v12h-12zM102 894h12v12h-12zM174 894h12v12h-12zM102 918h12v12h-12zM126 918h12v12h-12zM222 870h12v12h-12zM270 870h12v12h-12zM198 894h12v12h-12zM246 894h12v12h-12zM222 918h12v12h-12zM270 918h12v12h-12zM198 942h12v12h-12zM246 942h12v12h-12zM294 870h12v12h-12zM318 894h12v12h-12zM294 918h12v12h-12zM342 918h12v12h-12zM294 942h12v12h-12zM318 942h12v12h-12zM366 942h12v12h-12zM390 870h12v12h-12zM462 870h12v12h-12zM438 894h12v12h-12zM414 918h12v12h-12zM438 918h12v12h-12zM390 942h12v12h-12zM462 942h12v12h-12zM558 1014h12v12h-12zM510 870h12v12h-12zM534 870h12v12h-12zM510 894h12v12h-12zM558 894h12v12h-12zM486 918h12v12h-12zM534 918h12v12h-12zM510 942h12v12h-12zM534 942h12v12h-12zM630 870h12v12h-12zM606 894h12v12h-12zM654 894h12v12h-12zM582 918h12v12h-12zM630 918h12v12h-12zM606 942h12v12h-12zM678 870h12v12h-12zM702 870h12v12h-12zM726 942h12v12h-12zM750 942h12v12h-12zM798 870h12v12h-12zM846 870h12v12h-12zM774 894h12v12h-12zM822 894h12v12h-12zM798 918h12v12h-12zM846 918h12v12h-12zM774 942h12v12h-12zM822 942h12v12h-12zM870 894h12v12h-12zM942 894h12v12h-12zM870 918h12v12h-12zM942 918h12v12h-12z"/><path fill="#000" d="M420 420h12v12h-12zM408 408h12v12h-12zM396 396h12v12h-12zM384 384h12v12h-12zM372 372h12v12h-12zM360 360h12v12h-12zM348 348h12v12h-12zM336 336h12v12h-12zM324 324h12v12h-12zM312 312h12v12h-12zM300 300h12v12h-12zM288 288h12v12h-12zM276 276h12v12h-12zM264 264h12v12h-12zM252 252h12v12h-12zM240 240h12v12h-12zM228 228h12v12h-12zM216 216h12v12h-12zM204 204h12v12h-12zM192 192h12v12h-12zM180 180h12v12h-12zM168 168h12v12h-12zM156 156h12v12h-12zM144 144h12v12h-12zM132 132h12v12h-12zM120 120h12v12h-12zM108 108h12v12h-12zM96 96h12v12h-12zM84 84h12v12h-12zM72 72h12v12h-12zM60 60h12v12h-12zM48 48h12v12h-12zM36 36h12v12h-12zM24 24h12v12h-12zM24 36h12v12h-12zM24 48h12v12h-12zM24 60h12v12h-12zM24 72h12v12h-12zM24 84h12v12h-12zM24 96h12v12h-12zM24 108h12v12h-12zM24 120h12v12h-12zM24 132h12v12h-12zM24 12h12v12h-12zM24 0h12v12h-12zM36 12h12v12h-12zM48 24h12v12h-12zM60 36h12v12h-12zM72 48h12v12h-12zM84 60h12v12h-12zM96 72h12v12h-12zM108 84h12v12h-12zM120 96h12v12h-12zM132 108h12v12h-12zM144 120h12v12h-12zM156 132h12v12h-12zM168 144h12v12h-12zM180 156h12v12h-12zM192 168h12v12h-12zM204 180h12v12h-12zM216 192h12v12h-12zM228 204h12v12h-12zM240 216h12v12h-12zM252 216h12v12h-12zM264 216h12v12h-12zM276 216h12v12h-12zM288 216h12v12h-12zM300 216h12v12h-12zM312 216h12v12h-12zM324 216h12v12h-12zM336 216h12v12h-12zM348 216h12v12h-12zM360 216h12v12h-12zM372 216h12v12h-12zM384 216h12v12h-12zM396 216h12v12h-12zM408 216h12v12h-12zM420 216h12v12h-12zM432 216h12v12h-12zM444 216h12v12h-12zM456 216h12v12h-12zM468 216h12v12h-12zM456 228h12v12h-12zM444 240h12v12h-12zM432 252h12v12h-12zM420 264h12v12h-12zM408 276h12v12h-12zM396 288h12v12h-12zM384 300h12v12h-12zM372 312h12v12h-12zM360 324h12v12h-12zM348 336h12v12h-12zM336 348h12v12h-12zM324 360h12v12h-12zM312 372h12v12h-12zM300 384h12v12h-12zM288 396h12v12h-12zM276 408h12v12h-12zM264 420h12v12h-12zM252 432h12v12h-12zM240 444h12v12h-12zM228 456h12v12h-12zM228 444h12v12h-12zM228 432h12v12h-12zM228 420h12v12h-12zM228 408h12v12h-12zM228 396h12v12h-12zM228 384h12v12h-12zM228 372h12v12h-12zM228 360h12v12h-12zM228 348h12v12h-12zM228 336h12v12h-12zM228 324h12v12h-12zM228 312h12v12h-12zM228 300h12v12h-12zM228 288h12v12h-12zM228 276h12v12h-12zM228 264h12v12h-12zM228 252h12v12h-12zM252 228h12v12h-12zM276 204h12v12h-12zM288 192h12v12h-12zM300 180h12v12h-12zM312 168h12v12h-12zM324 156h12v12h-12zM324 144h12v12h-12zM324 132h12v12h-12zM324 120h12v12h-12zM324 108h12v12h-12zM324 96h12v12h-12zM324 84h12v12h-12zM324 72h12v12h-12zM324 60h12v12h-12zM312 72h12v12h-12zM300 84h12v12h-12zM288 96h12v12h-12zM276 108h12v12h-12zM264 120h12v12h-12zM252 132h12v12h-12zM240 144h12v12h-12zM228 156h12v12h-12zM216 168h12v12h-12zM216 180h12v12h-12zM216 204h12v12h-12zM216 228h12v12h-12zM216 240h12v12h-12zM216 252h12v12h-12zM216 264h12v12h-12zM216 276h12v12h-12zM216 288h12v12h-12zM216 300h12v12h-12zM216 312h12v12h-12zM216 324h12v12h-12zM216 336h12v12h-12zM216 348h12v12h-12zM216 360h12v12h-12zM216 372h12v12h-12zM216 384h12v12h-12zM216 396h12v12h-12zM216 408h12v12h-12zM204 396h12v12h-12zM192 384h12v12h-12zM180 372h12v12h-12zM168 360h12v12h-12zM156 348h12v12h-12zM144 336h12v12h-12zM132 324h12v12h-12zM120 312h12v12h-12zM108 300h12v12h-12zM96 288h12v12h-12zM84 276h12v12h-12zM72 264h12v12h-12zM240 408h12v12h-12zM252 396h12v12h-12zM264 384h12v12h-12zM276 372h12v12h-12zM288 360h12v12h-12zM300 348h12v12h-12zM312 336h12v12h-12zM336 312h12v12h-12zM348 300h12v12h-12zM360 288h12v12h-12zM372 276h12v12h-12zM384 264h12v12h-12zM396 252h12v12h-12zM408 240h12v12h-12zM420 228h12v12h-12zM444 204h12v12h-12zM456 192h12v12h-12zM336 300h12v12h-12zM336 288h12v12h-12zM336 276h12v12h-12zM336 264h12v12h-12zM336 252h12v12h-12zM324 240h12v12h-12zM312 228h12v12h-12zM288 204h12v12h-12zM276 192h12v12h-12zM264 180h12v12h-12zM276 168h12v12h-12zM288 156h12v12h-12zM300 144h12v12h-12zM312 132h12v12h-12zM324 168h12v12h-12zM324 180h12v12h-12zM324 192h12v12h-12zM324 204h12v12h-12zM324 228h12v12h-12zM324 252h12v12h-12zM324 264h12v12h-12zM324 276h12v12h-12zM324 288h12v12h-12zM324 300h12v12h-12zM324 312h12v12h-12zM324 336h12v12h-12zM324 348h12v12h-12zM324 372h12v12h-12zM312 360h12v12h-12zM288 336h12v12h-12zM276 324h12v12h-12zM264 312h12v12h-12zM252 300h12v12h-12zM240 288h12v12h-12zM204 252h12v12h-12zM192 240h12v12h-12zM180 228h12v12h-12zM168 216h12v12h-12zM156 204h12v12h-12zM144 192h12v12h-12zM132 180h12v12h-12zM120 168h12v12h-12zM108 156h12v12h-12zM96 144h12v12h-12zM84 132h12v12h-12zM96 132h12v12h-12zM108 132h12v12h-12zM120 132h12v12h-12zM144 132h12v12h-12zM168 132h12v12h-12zM180 132h12v12h-12zM192 132h12v12h-12zM204 132h12v12h-12zM216 132h12v12h-12zM228 132h12v12h-12zM240 132h12v12h-12zM264 132h12v12h-12zM276 132h12v12h-12zM288 132h12v12h-12zM300 132h12v12h-12zM336 132h12v12h-12zM348 132h12v12h-12zM360 132h12v12h-12zM372 132h12v12h-12zM372 144h12v12h-12zM372 156h12v12h-12zM372 168h12v12h-12zM372 180h12v12h-12zM372 192h12v12h-12zM372 204h12v12h-12zM360 204h12v12h-12zM348 204h12v12h-12zM336 204h12v12h-12zM312 204h12v12h-12zM300 204h12v12h-12zM264 204h12v12h-12zM252 204h12v12h-12zM240 204h12v12h-12zM312 348h12v12h-12zM288 348h12v12h-12zM276 348h12v12h-12zM264 348h12v12h-12zM252 348h12v12h-12zM240 348h12v12h-12zM204 348h12v12h-12zM192 348h12v12h-12zM180 348h12v12h-12zM168 348h12v12h-12zM144 348h12v12h-12zM132 348h12v12h-12zM132 336h12v12h-12zM132 312h12v12h-12zM132 300h12v12h-12zM132 288h12v12h-12zM132 276h12v12h-12zM132 264h12v12h-12zM132 252h12v12h-12zM132 240h12v12h-12zM132 228h12v12h-12zM132 216h12v12h-12zM132 204h12v12h-12zM132 192h12v12h-12zM132 168h12v12h-12zM132 156h12v12h-12zM132 144h12v12h-12zM144 156h12v12h-12zM156 168h12v12h-12zM168 180h12v12h-12zM180 192h12v12h-12zM192 204h12v12h-12zM204 216h12v12h-12zM228 240h12v12h-12zM240 252h12v12h-12zM252 264h12v12h-12zM264 276h12v12h-12zM288 276h12v12h-12zM300 276h12v12h-12zM312 276h12v12h-12zM348 276h12v12h-12zM360 276h12v12h-12zM384 276h12v12h-12zM396 276h12v12h-12zM420 276h12v12h-12zM432 276h12v12h-12zM444 276h12v12h-12zM456 276h12v12h-12zM444 288h12v12h-12zM432 300h12v12h-12zM420 312h12v12h-12zM408 324h12v12h-12zM396 336h12v12h-12zM384 348h12v12h-12zM372 360h12v12h-12zM348 360h12v12h-12zM336 360h12v12h-12zM300 360h12v12h-12zM276 360h12v12h-12zM264 360h12v12h-12zM300 324h12v12h-12zM360 264h12v12h-12zM372 252h12v12h-12zM384 240h12v12h-12zM396 228h12v12h-12zM420 204h12v12h-12zM432 192h12v12h-12zM444 180h12v12h-12zM456 168h12v12h-12zM384 252h12v12h-12zM228 216h12v12h-12zM192 216h12v12h-12zM180 216h12v12h-12zM156 216h12v12h-12zM144 216h12v12h-12zM120 216h12v12h-12zM108 216h12v12h-12zM96 216h12v12h-12zM84 216h12v12h-12zM84 228h12v12h-12zM84 240h12v12h-12zM84 252h12v12h-12zM84 264h12v12h-12zM96 276h12v12h-12zM108 276h12v12h-12zM120 276h12v12h-12zM144 276h12v12h-12zM156 276h12v12h-12zM156 264h12v12h-12zM156 252h12v12h-12zM156 240h12v12h-12zM156 228h12v12h-12zM156 192h12v12h-12zM156 180h12v12h-12zM156 144h12v12h-12zM156 120h12v12h-12zM156 108h12v12h-12zM156 96h12v12h-12zM156 84h12v12h-12zM156 72h12v12h-12zM156 60h12v12h-12zM156 48h12v12h-12zM156 36h12v12h-12zM156 24h12v12h-12zM156 12h12v12h-12zM156 0h12v12h-12zM156 288h12v12h-12zM156 300h12v12h-12zM156 312h12v12h-12zM156 324h12v12h-12zM156 336h12v12h-12zM156 360h12v12h-12zM156 372h12v12h-12zM156 384h12v12h-12zM156 396h12v12h-12zM156 408h12v12h-12zM156 420h12v12h-12zM156 432h12v12h-12zM156 444h12v12h-12zM156 456h12v12h-12zM156 468h12v12h-12zM168 468h12v12h-12zM180 468h12v12h-12zM192 468h12v12h-12zM204 468h12v12h-12zM216 468h12v12h-12zM228 468h12v12h-12zM240 468h12v12h-12zM252 468h12v12h-12zM264 468h12v12h-12zM276 468h12v12h-12zM288 468h12v12h-12zM300 468h12v12h-12zM312 468h12v12h-12zM324 468h12v12h-12zM336 468h12v12h-12zM348 468h12v12h-12zM360 468h12v12h-12zM372 468h12v12h-12zM384 468h12v12h-12zM396 468h12v12h-12zM408 468h12v12h-12zM420 468h12v12h-12zM432 468h12v12h-12zM444 468h12v12h-12zM432 456h12v12h-12zM420 444h12v12h-12zM408 432h12v12h-12zM396 420h12v12h-12zM384 408h12v12h-12zM372 396h12v12h-12zM360 384h12v12h-12zM348 372h12v12h-12zM288 312h12v12h-12zM276 300h12v12h-12zM264 288h12v12h-12zM252 276h12v12h-12zM240 264h12v12h-12zM204 228h12v12h-12zM204 240h12v12h-12zM204 264h12v12h-12zM204 276h12v12h-12zM204 288h12v12h-12zM204 192h12v12h-12zM204 168h12v12h-12zM204 156h12v12h-12zM204 144h12v12h-12zM204 120h12v12h-12zM204 108h12v12h-12zM204 96h12v12h-12zM204 84h12v12h-12zM204 72h12v12h-12zM204 60h12v12h-12zM204 48h12v12h-12zM204 36h12v12h-12zM192 36h12v12h-12zM180 36h12v12h-12zM168 36h12v12h-12zM144 36h12v12h-12zM132 36h12v12h-12zM120 36h12v12h-12zM108 36h12v12h-12zM96 36h12v12h-12zM84 36h12v12h-12zM72 36h12v12h-12zM48 36h12v12h-12zM12 36h12v12h-12zM420 528h12v12h-12zM408 540h12v12h-12zM396 552h12v12h-12zM384 564h12v12h-12zM372 576h12v12h-12zM360 588h12v12h-12zM348 600h12v12h-12zM336 612h12v12h-12zM324 624h12v12h-12zM312 636h12v12h-12zM300 648h12v12h-12zM288 660h12v12h-12zM276 672h12v12h-12zM264 684h12v12h-12zM252 696h12v12h-12zM240 708h12v12h-12zM228 720h12v12h-12zM216 732h12v12h-12zM204 744h12v12h-12zM192 756h12v12h-12zM180 768h12v12h-12zM168 780h12v12h-12zM156 792h12v12h-12zM144 804h12v12h-12zM132 816h12v12h-12zM120 828h12v12h-12zM108 840h12v12h-12zM96 852h12v12h-12zM84 864h12v12h-12zM72 876h12v12h-12zM60 888h12v12h-12zM48 900h12v12h-12zM36 912h12v12h-12zM24 924h12v12h-12zM24 912h12v12h-12zM24 900h12v12h-12zM24 888h12v12h-12zM24 876h12v12h-12zM24 864h12v12h-12zM24 852h12v12h-12zM24 840h12v12h-12zM24 828h12v12h-12zM24 816h12v12h-12zM24 936h12v12h-12zM24 948h12v12h-12zM36 936h12v12h-12zM48 924h12v12h-12zM60 912h12v12h-12zM72 900h12v12h-12zM84 888h12v12h-12zM96 876h12v12h-12zM108 864h12v12h-12zM120 852h12v12h-12zM132 840h12v12h-12zM144 828h12v12h-12zM156 816h12v12h-12zM168 804h12v12h-12zM180 792h12v12h-12zM192 780h12v12h-12zM204 768h12v12h-12zM216 756h12v12h-12zM228 744h12v12h-12zM240 732h12v12h-12zM252 732h12v12h-12zM264 732h12v12h-12zM276 732h12v12h-12zM288 732h12v12h-12zM300 732h12v12h-12zM312 732h12v12h-12zM324 732h12v12h-12zM336 732h12v12h-12zM348 732h12v12h-12zM360 732h12v12h-12zM372 732h12v12h-12zM384 732h12v12h-12zM396 732h12v12h-12zM408 732h12v12h-12zM420 732h12v12h-12zM432 732h12v12h-12zM444 732h12v12h-12zM456 732h12v12h-12zM468 732h12v12h-12zM456 720h12v12h-12zM444 708h12v12h-12zM432 696h12v12h-12zM420 684h12v12h-12zM408 672h12v12h-12zM396 660h12v12h-12zM384 648h12v12h-12zM372 636h12v12h-12zM360 624h12v12h-12zM348 612h12v12h-12zM336 600h12v12h-12zM324 588h12v12h-12zM312 576h12v12h-12zM300 564h12v12h-12zM288 552h12v12h-12zM276 540h12v12h-12zM264 528h12v12h-12zM252 516h12v12h-12zM240 504h12v12h-12zM228 492h12v12h-12zM228 504h12v12h-12zM228 516h12v12h-12zM228 528h12v12h-12zM228 540h12v12h-12zM228 552h12v12h-12zM228 564h12v12h-12zM228 576h12v12h-12zM228 588h12v12h-12zM228 600h12v12h-12zM228 612h12v12h-12zM228 624h12v12h-12zM228 636h12v12h-12zM228 648h12v12h-12zM228 660h12v12h-12zM228 672h12v12h-12zM228 684h12v12h-12zM228 696h12v12h-12zM252 720h12v12h-12zM276 744h12v12h-12zM288 756h12v12h-12zM300 768h12v12h-12zM312 780h12v12h-12zM324 792h12v12h-12zM324 804h12v12h-12zM324 816h12v12h-12zM324 828h12v12h-12zM324 840h12v12h-12zM324 852h12v12h-12zM324 864h12v12h-12zM324 876h12v12h-12zM324 888h12v12h-12zM312 876h12v12h-12zM300 864h12v12h-12zM288 852h12v12h-12zM276 840h12v12h-12zM264 828h12v12h-12zM252 816h12v12h-12zM240 804h12v12h-12zM228 792h12v12h-12zM216 780h12v12h-12zM216 768h12v12h-12zM216 744h12v12h-12zM216 720h12v12h-12zM216 708h12v12h-12zM216 696h12v12h-12zM216 684h12v12h-12zM216 672h12v12h-12zM216 660h12v12h-12zM216 648h12v12h-12zM216 636h12v12h-12zM216 624h12v12h-12zM216 612h12v12h-12zM216 600h12v12h-12zM216 588h12v12h-12zM216 576h12v12h-12zM216 564h12v12h-12zM216 552h12v12h-12zM216 540h12v12h-12zM204 552h12v12h-12zM192 564h12v12h-12zM180 576h12v12h-12zM168 588h12v12h-12zM156 600h12v12h-12zM144 612h12v12h-12zM132 624h12v12h-12zM120 636h12v12h-12zM108 648h12v12h-12zM96 660h12v12h-12zM84 672h12v12h-12zM72 684h12v12h-12zM240 540h12v12h-12zM252 552h12v12h-12zM264 564h12v12h-12zM276 576h12v12h-12zM288 588h12v12h-12zM300 600h12v12h-12zM312 612h12v12h-12zM336 636h12v12h-12zM348 648h12v12h-12zM360 660h12v12h-12zM372 672h12v12h-12zM384 684h12v12h-12zM396 696h12v12h-12zM408 708h12v12h-12zM420 720h12v12h-12zM444 744h12v12h-12zM456 756h12v12h-12zM336 648h12v12h-12zM336 660h12v12h-12zM336 672h12v12h-12zM336 684h12v12h-12zM336 696h12v12h-12zM324 708h12v12h-12zM312 720h12v12h-12zM288 744h12v12h-12zM276 756h12v12h-12zM264 768h12v12h-12zM276 780h12v12h-12zM288 792h12v12h-12zM300 804h12v12h-12zM312 816h12v12h-12zM324 780h12v12h-12zM324 768h12v12h-12zM324 756h12v12h-12zM324 744h12v12h-12zM324 720h12v12h-12zM324 696h12v12h-12zM324 684h12v12h-12zM324 672h12v12h-12zM324 660h12v12h-12zM324 648h12v12h-12zM324 636h12v12h-12zM324 612h12v12h-12zM324 600h12v12h-12zM324 576h12v12h-12zM312 588h12v12h-12zM288 612h12v12h-12zM276 624h12v12h-12zM264 636h12v12h-12zM252 648h12v12h-12zM240 660h12v12h-12zM204 696h12v12h-12zM192 708h12v12h-12zM180 720h12v12h-12zM168 732h12v12h-12zM156 744h12v12h-12zM144 756h12v12h-12zM132 768h12v12h-12zM120 780h12v12h-12zM108 792h12v12h-12zM96 804h12v12h-12zM84 816h12v12h-12zM96 816h12v12h-12zM108 816h12v12h-12zM120 816h12v12h-12zM144 816h12v12h-12zM168 816h12v12h-12zM180 816h12v12h-12zM192 816h12v12h-12zM204 816h12v12h-12zM216 816h12v12h-12zM228 816h12v12h-12zM240 816h12v12h-12zM264 816h12v12h-12zM276 816h12v12h-12zM288 816h12v12h-12zM300 816h12v12h-12zM336 816h12v12h-12zM348 816h12v12h-12zM360 816h12v12h-12zM372 816h12v12h-12zM372 804h12v12h-12zM372 792h12v12h-12zM372 780h12v12h-12zM372 768h12v12h-12zM372 756h12v12h-12zM372 744h12v12h-12zM360 744h12v12h-12zM348 744h12v12h-12zM336 744h12v12h-12zM312 744h12v12h-12zM300 744h12v12h-12zM264 744h12v12h-12zM252 744h12v12h-12zM240 744h12v12h-12zM312 600h12v12h-12zM288 600h12v12h-12zM276 600h12v12h-12zM264 600h12v12h-12zM252 600h12v12h-12zM240 600h12v12h-12zM204 600h12v12h-12zM192 600h12v12h-12zM180 600h12v12h-12zM168 600h12v12h-12zM144 600h12v12h-12zM132 600h12v12h-12zM132 612h12v12h-12zM132 636h12v12h-12zM132 648h12v12h-12zM132 660h12v12h-12zM132 672h12v12h-12zM132 684h12v12h-12zM132 696h12v12h-12zM132 708h12v12h-12zM132 720h12v12h-12zM132 732h12v12h-12zM132 744h12v12h-12zM132 756h12v12h-12zM132 780h12v12h-12zM132 792h12v12h-12zM132 804h12v12h-12zM144 792h12v12h-12zM156 780h12v12h-12zM168 768h12v12h-12zM180 756h12v12h-12zM192 744h12v12h-12zM204 732h12v12h-12zM228 708h12v12h-12zM240 696h12v12h-12zM252 684h12v12h-12zM264 672h12v12h-12zM288 672h12v12h-12zM300 672h12v12h-12zM312 672h12v12h-12zM348 672h12v12h-12zM360 672h12v12h-12zM384 672h12v12h-12zM396 672h12v12h-12zM420 672h12v12h-12zM432 672h12v12h-12zM444 672h12v12h-12zM456 672h12v12h-12zM444 660h12v12h-12zM432 648h12v12h-12zM420 636h12v12h-12zM408 624h12v12h-12zM396 612h12v12h-12zM384 600h12v12h-12zM372 588h12v12h-12zM348 588h12v12h-12zM336 588h12v12h-12zM300 588h12v12h-12zM276 588h12v12h-12zM264 588h12v12h-12zM300 624h12v12h-12zM360 684h12v12h-12zM372 696h12v12h-12zM384 708h12v12h-12zM396 720h12v12h-12zM420 744h12v12h-12zM432 756h12v12h-12zM444 768h12v12h-12zM456 780h12v12h-12zM384 696h12v12h-12zM228 732h12v12h-12zM192 732h12v12h-12zM180 732h12v12h-12zM156 732h12v12h-12zM144 732h12v12h-12zM120 732h12v12h-12zM108 732h12v12h-12zM96 732h12v12h-12zM84 732h12v12h-12zM84 720h12v12h-12zM84 708h12v12h-12zM84 696h12v12h-12zM84 684h12v12h-12zM96 672h12v12h-12zM108 672h12v12h-12zM120 672h12v12h-12zM144 672h12v12h-12zM156 672h12v12h-12zM156 684h12v12h-12zM156 696h12v12h-12zM156 708h12v12h-12zM156 720h12v12h-12zM156 756h12v12h-12zM156 768h12v12h-12zM156 804h12v12h-12zM156 828h12v12h-12zM156 840h12v12h-12zM156 852h12v12h-12zM156 864h12v12h-12zM156 876h12v12h-12zM156 888h12v12h-12zM156 900h12v12h-12zM156 912h12v12h-12zM156 924h12v12h-12zM156 936h12v12h-12zM156 948h12v12h-12zM156 660h12v12h-12zM156 648h12v12h-12zM156 636h12v12h-12zM156 624h12v12h-12zM156 612h12v12h-12zM156 588h12v12h-12zM156 576h12v12h-12zM156 564h12v12h-12zM156 552h12v12h-12zM156 540h12v12h-12zM156 528h12v12h-12zM156 516h12v12h-12zM156 504h12v12h-12zM156 492h12v12h-12zM156 480h12v12h-12zM168 480h12v12h-12zM180 480h12v12h-12zM192 480h12v12h-12zM204 480h12v12h-12zM216 480h12v12h-12zM228 480h12v12h-12zM240 480h12v12h-12zM252 480h12v12h-12zM264 480h12v12h-12zM276 480h12v12h-12zM288 480h12v12h-12zM300 480h12v12h-12zM312 480h12v12h-12zM324 480h12v12h-12zM336 480h12v12h-12zM348 480h12v12h-12zM360 480h12v12h-12zM372 480h12v12h-12zM384 480h12v12h-12zM396 480h12v12h-12zM408 480h12v12h-12zM420 480h12v12h-12zM432 480h12v12h-12zM444 480h12v12h-12zM432 492h12v12h-12zM420 504h12v12h-12zM408 516h12v12h-12zM396 528h12v12h-12zM384 540h12v12h-12zM372 552h12v12h-12zM360 564h12v12h-12zM348 576h12v12h-12zM288 636h12v12h-12zM276 648h12v12h-12zM264 660h12v12h-12zM252 672h12v12h-12zM240 684h12v12h-12zM204 720h12v12h-12zM204 708h12v12h-12zM204 684h12v12h-12zM204 672h12v12h-12zM204 660h12v12h-12zM204 756h12v12h-12zM204 780h12v12h-12zM204 792h12v12h-12zM204 804h12v12h-12zM204 828h12v12h-12zM204 840h12v12h-12zM204 852h12v12h-12zM204 864h12v12h-12zM204 876h12v12h-12zM204 888h12v12h-12zM204 900h12v12h-12zM204 912h12v12h-12zM192 912h12v12h-12zM180 912h12v12h-12zM168 912h12v12h-12zM144 912h12v12h-12zM132 912h12v12h-12zM120 912h12v12h-12zM108 912h12v12h-12zM96 912h12v12h-12zM84 912h12v12h-12zM72 912h12v12h-12zM48 912h12v12h-12zM12 912h12v12h-12zM528 420h12v12h-12zM540 408h12v12h-12zM552 396h12v12h-12zM564 384h12v12h-12zM576 372h12v12h-12zM588 360h12v12h-12zM600 348h12v12h-12zM612 336h12v12h-12zM624 324h12v12h-12zM636 312h12v12h-12zM648 300h12v12h-12zM660 288h12v12h-12zM672 276h12v12h-12zM684 264h12v12h-12zM696 252h12v12h-12zM708 240h12v12h-12zM720 228h12v12h-12zM732 216h12v12h-12zM744 204h12v12h-12zM756 192h12v12h-12zM768 180h12v12h-12zM780 168h12v12h-12zM792 156h12v12h-12zM804 144h12v12h-12zM816 132h12v12h-12zM828 120h12v12h-12zM840 108h12v12h-12zM852 96h12v12h-12zM864 84h12v12h-12zM876 72h12v12h-12zM888 60h12v12h-12zM900 48h12v12h-12zM912 36h12v12h-12zM924 24h12v12h-12zM924 36h12v12h-12zM924 48h12v12h-12zM924 60h12v12h-12zM924 72h12v12h-12zM924 84h12v12h-12zM924 96h12v12h-12zM924 108h12v12h-12zM924 120h12v12h-12zM924 132h12v12h-12zM924 12h12v12h-12zM924 0h12v12h-12zM912 12h12v12h-12zM900 24h12v12h-12zM888 36h12v12h-12zM876 48h12v12h-12zM864 60h12v12h-12zM852 72h12v12h-12zM840 84h12v12h-12zM828 96h12v12h-12zM816 108h12v12h-12zM804 120h12v12h-12zM792 132h12v12h-12zM780 144h12v12h-12zM768 156h12v12h-12zM756 168h12v12h-12zM744 180h12v12h-12zM732 192h12v12h-12zM720 204h12v12h-12zM708 216h12v12h-12zM696 216h12v12h-12zM684 216h12v12h-12zM672 216h12v12h-12zM660 216h12v12h-12zM648 216h12v12h-12zM636 216h12v12h-12zM624 216h12v12h-12zM612 216h12v12h-12zM600 216h12v12h-12zM588 216h12v12h-12zM576 216h12v12h-12zM564 216h12v12h-12zM552 216h12v12h-12zM540 216h12v12h-12zM528 216h12v12h-12zM516 216h12v12h-12zM504 216h12v12h-12zM492 216h12v12h-12zM480 216h12v12h-12zM492 228h12v12h-12zM504 240h12v12h-12zM516 252h12v12h-12zM528 264h12v12h-12zM540 276h12v12h-12zM552 288h12v12h-12zM564 300h12v12h-12zM576 312h12v12h-12zM588 324h12v12h-12zM600 336h12v12h-12zM612 348h12v12h-12zM624 360h12v12h-12zM636 372h12v12h-12zM648 384h12v12h-12zM660 396h12v12h-12zM672 408h12v12h-12zM684 420h12v12h-12zM696 432h12v12h-12zM708 444h12v12h-12zM720 456h12v12h-12zM720 444h12v12h-12zM720 432h12v12h-12zM720 420h12v12h-12zM720 408h12v12h-12zM720 396h12v12h-12zM720 384h12v12h-12zM720 372h12v12h-12zM720 360h12v12h-12zM720 348h12v12h-12zM720 336h12v12h-12zM720 324h12v12h-12zM720 312h12v12h-12zM720 300h12v12h-12zM720 288h12v12h-12zM720 276h12v12h-12zM720 264h12v12h-12zM720 252h12v12h-12zM696 228h12v12h-12zM672 204h12v12h-12zM660 192h12v12h-12zM648 180h12v12h-12zM636 168h12v12h-12zM624 156h12v12h-12zM624 144h12v12h-12zM624 132h12v12h-12zM624 120h12v12h-12zM624 108h12v12h-12zM624 96h12v12h-12zM624 84h12v12h-12zM624 72h12v12h-12zM624 60h12v12h-12zM636 72h12v12h-12zM648 84h12v12h-12zM660 96h12v12h-12zM672 108h12v12h-12zM684 120h12v12h-12zM696 132h12v12h-12zM708 144h12v12h-12zM720 156h12v12h-12zM732 168h12v12h-12zM732 180h12v12h-12zM732 204h12v12h-12zM732 228h12v12h-12zM732 240h12v12h-12zM732 252h12v12h-12zM732 264h12v12h-12zM732 276h12v12h-12zM732 288h12v12h-12zM732 300h12v12h-12zM732 312h12v12h-12zM732 324h12v12h-12zM732 336h12v12h-12zM732 348h12v12h-12zM732 360h12v12h-12zM732 372h12v12h-12zM732 384h12v12h-12zM732 396h12v12h-12zM732 408h12v12h-12zM744 396h12v12h-12zM756 384h12v12h-12zM768 372h12v12h-12zM780 360h12v12h-12zM792 348h12v12h-12zM804 336h12v12h-12zM816 324h12v12h-12zM828 312h12v12h-12zM840 300h12v12h-12zM852 288h12v12h-12zM864 276h12v12h-12zM876 264h12v12h-12zM708 408h12v12h-12zM696 396h12v12h-12zM684 384h12v12h-12zM672 372h12v12h-12zM660 360h12v12h-12zM648 348h12v12h-12zM636 336h12v12h-12zM612 312h12v12h-12zM600 300h12v12h-12zM588 288h12v12h-12zM576 276h12v12h-12zM564 264h12v12h-12zM552 252h12v12h-12zM540 240h12v12h-12zM528 228h12v12h-12zM504 204h12v12h-12zM492 192h12v12h-12zM612 300h12v12h-12zM612 288h12v12h-12zM612 276h12v12h-12zM612 264h12v12h-12zM612 252h12v12h-12zM624 240h12v12h-12zM636 228h12v12h-12zM660 204h12v12h-12zM672 192h12v12h-12zM684 180h12v12h-12zM672 168h12v12h-12zM660 156h12v12h-12zM648 144h12v12h-12zM636 132h12v12h-12zM624 168h12v12h-12zM624 180h12v12h-12zM624 192h12v12h-12zM624 204h12v12h-12zM624 228h12v12h-12zM624 252h12v12h-12zM624 264h12v12h-12zM624 276h12v12h-12zM624 288h12v12h-12zM624 300h12v12h-12zM624 312h12v12h-12zM624 336h12v12h-12zM624 348h12v12h-12zM624 372h12v12h-12zM636 360h12v12h-12zM660 336h12v12h-12zM672 324h12v12h-12zM684 312h12v12h-12zM696 300h12v12h-12zM708 288h12v12h-12zM744 252h12v12h-12zM756 240h12v12h-12zM768 228h12v12h-12zM780 216h12v12h-12zM792 204h12v12h-12zM804 192h12v12h-12zM816 180h12v12h-12zM828 168h12v12h-12zM840 156h12v12h-12zM852 144h12v12h-12zM864 132h12v12h-12zM852 132h12v12h-12zM840 132h12v12h-12zM828 132h12v12h-12zM804 132h12v12h-12zM780 132h12v12h-12zM768 132h12v12h-12zM756 132h12v12h-12zM744 132h12v12h-12zM732 132h12v12h-12zM720 132h12v12h-12zM708 132h12v12h-12zM684 132h12v12h-12zM672 132h12v12h-12zM660 132h12v12h-12zM648 132h12v12h-12zM612 132h12v12h-12zM600 132h12v12h-12zM588 132h12v12h-12zM576 132h12v12h-12zM576 144h12v12h-12zM576 156h12v12h-12zM576 168h12v12h-12zM576 180h12v12h-12zM576 192h12v12h-12zM576 204h12v12h-12zM588 204h12v12h-12zM600 204h12v12h-12zM612 204h12v12h-12zM636 204h12v12h-12zM648 204h12v12h-12zM684 204h12v12h-12zM696 204h12v12h-12zM708 204h12v12h-12zM636 348h12v12h-12zM660 348h12v12h-12zM672 348h12v12h-12zM684 348h12v12h-12zM696 348h12v12h-12zM708 348h12v12h-12zM744 348h12v12h-12zM756 348h12v12h-12zM768 348h12v12h-12zM780 348h12v12h-12zM804 348h12v12h-12zM816 348h12v12h-12zM816 336h12v12h-12zM816 312h12v12h-12zM816 300h12v12h-12zM816 288h12v12h-12zM816 276h12v12h-12zM816 264h12v12h-12zM816 252h12v12h-12zM816 240h12v12h-12zM816 228h12v12h-12zM816 216h12v12h-12zM816 204h12v12h-12zM816 192h12v12h-12zM816 168h12v12h-12zM816 156h12v12h-12zM816 144h12v12h-12zM804 156h12v12h-12zM792 168h12v12h-12zM780 180h12v12h-12zM768 192h12v12h-12zM756 204h12v12h-12zM744 216h12v12h-12zM720 240h12v12h-12zM708 252h12v12h-12zM696 264h12v12h-12zM684 276h12v12h-12zM660 276h12v12h-12zM648 276h12v12h-12zM636 276h12v12h-12zM600 276h12v12h-12zM588 276h12v12h-12zM564 276h12v12h-12zM552 276h12v12h-12zM528 276h12v12h-12zM516 276h12v12h-12zM504 276h12v12h-12zM492 276h12v12h-12zM504 288h12v12h-12zM516 300h12v12h-12zM528 312h12v12h-12zM540 324h12v12h-12zM552 336h12v12h-12zM564 348h12v12h-12zM576 360h12v12h-12zM600 360h12v12h-12zM612 360h12v12h-12zM648 360h12v12h-12zM672 360h12v12h-12zM684 360h12v12h-12zM648 324h12v12h-12zM588 264h12v12h-12zM576 252h12v12h-12zM564 240h12v12h-12zM552 228h12v12h-12zM528 204h12v12h-12zM516 192h12v12h-12zM504 180h12v12h-12zM492 168h12v12h-12zM564 252h12v12h-12zM720 216h12v12h-12zM756 216h12v12h-12zM768 216h12v12h-12zM792 216h12v12h-12zM804 216h12v12h-12zM828 216h12v12h-12zM840 216h12v12h-12zM852 216h12v12h-12zM864 216h12v12h-12zM864 228h12v12h-12zM864 240h12v12h-12zM864 252h12v12h-12zM864 264h12v12h-12zM852 276h12v12h-12zM840 276h12v12h-12zM828 276h12v12h-12zM804 276h12v12h-12zM792 276h12v12h-12zM792 264h12v12h-12zM792 252h12v12h-12zM792 240h12v12h-12zM792 228h12v12h-12zM792 192h12v12h-12zM792 180h12v12h-12zM792 144h12v12h-12zM792 120h12v12h-12zM792 108h12v12h-12zM792 96h12v12h-12zM792 84h12v12h-12zM792 72h12v12h-12zM792 60h12v12h-12zM792 48h12v12h-12zM792 36h12v12h-12zM792 24h12v12h-12zM792 12h12v12h-12zM792 0h12v12h-12zM792 288h12v12h-12zM792 300h12v12h-12zM792 312h12v12h-12zM792 324h12v12h-12zM792 336h12v12h-12zM792 360h12v12h-12zM792 372h12v12h-12zM792 384h12v12h-12zM792 396h12v12h-12zM792 408h12v12h-12zM792 420h12v12h-12zM792 432h12v12h-12zM792 444h12v12h-12zM792 456h12v12h-12zM792 468h12v12h-12zM780 468h12v12h-12zM768 468h12v12h-12zM756 468h12v12h-12zM744 468h12v12h-12zM732 468h12v12h-12zM720 468h12v12h-12zM708 468h12v12h-12zM696 468h12v12h-12zM684 468h12v12h-12zM672 468h12v12h-12zM660 468h12v12h-12zM648 468h12v12h-12zM636 468h12v12h-12zM624 468h12v12h-12zM612 468h12v12h-12zM600 468h12v12h-12zM588 468h12v12h-12zM576 468h12v12h-12zM564 468h12v12h-12zM552 468h12v12h-12zM540 468h12v12h-12zM528 468h12v12h-12zM516 468h12v12h-12zM504 468h12v12h-12zM516 456h12v12h-12zM528 444h12v12h-12zM540 432h12v12h-12zM552 420h12v12h-12zM564 408h12v12h-12zM576 396h12v12h-12zM588 384h12v12h-12zM600 372h12v12h-12zM660 312h12v12h-12zM672 300h12v12h-12zM684 288h12v12h-12zM696 276h12v12h-12zM708 264h12v12h-12zM744 228h12v12h-12zM744 240h12v12h-12zM744 264h12v12h-12zM744 276h12v12h-12zM744 288h12v12h-12zM744 192h12v12h-12zM744 168h12v12h-12zM744 156h12v12h-12zM744 144h12v12h-12zM744 120h12v12h-12zM744 108h12v12h-12zM744 96h12v12h-12zM744 84h12v12h-12zM744 72h12v12h-12zM744 60h12v12h-12zM744 48h12v12h-12zM744 36h12v12h-12zM756 36h12v12h-12zM768 36h12v12h-12zM780 36h12v12h-12zM804 36h12v12h-12zM816 36h12v12h-12zM828 36h12v12h-12zM840 36h12v12h-12zM852 36h12v12h-12zM864 36h12v12h-12zM876 36h12v12h-12zM900 36h12v12h-12zM936 36h12v12h-12zM528 528h12v12h-12zM540 540h12v12h-12zM552 552h12v12h-12zM564 564h12v12h-12zM576 576h12v12h-12zM588 588h12v12h-12zM600 600h12v12h-12zM612 612h12v12h-12zM624 624h12v12h-12zM636 636h12v12h-12zM648 648h12v12h-12zM660 660h12v12h-12zM672 672h12v12h-12zM684 684h12v12h-12zM696 696h12v12h-12zM708 708h12v12h-12zM720 720h12v12h-12zM732 732h12v12h-12zM744 744h12v12h-12zM756 756h12v12h-12zM768 768h12v12h-12zM780 780h12v12h-12zM792 792h12v12h-12zM804 804h12v12h-12zM816 816h12v12h-12zM828 828h12v12h-12zM840 840h12v12h-12zM852 852h12v12h-12zM864 864h12v12h-12zM876 876h12v12h-12zM888 888h12v12h-12zM900 900h12v12h-12zM912 912h12v12h-12zM924 924h12v12h-12zM924 912h12v12h-12zM924 900h12v12h-12zM924 888h12v12h-12zM924 876h12v12h-12zM924 864h12v12h-12zM924 852h12v12h-12zM924 840h12v12h-12zM924 828h12v12h-12zM924 816h12v12h-12zM924 936h12v12h-12zM924 948h12v12h-12zM912 936h12v12h-12zM900 924h12v12h-12zM888 912h12v12h-12zM876 900h12v12h-12zM864 888h12v12h-12zM852 876h12v12h-12zM840 864h12v12h-12zM828 852h12v12h-12zM816 840h12v12h-12zM804 828h12v12h-12zM792 816h12v12h-12zM780 804h12v12h-12zM768 792h12v12h-12zM756 780h12v12h-12zM744 768h12v12h-12zM732 756h12v12h-12zM720 744h12v12h-12zM708 732h12v12h-12zM696 732h12v12h-12zM684 732h12v12h-12zM672 732h12v12h-12zM660 732h12v12h-12zM648 732h12v12h-12zM636 732h12v12h-12zM624 732h12v12h-12zM612 732h12v12h-12zM600 732h12v12h-12zM588 732h12v12h-12zM576 732h12v12h-12zM564 732h12v12h-12zM552 732h12v12h-12zM540 732h12v12h-12zM528 732h12v12h-12zM516 732h12v12h-12zM504 732h12v12h-12zM492 732h12v12h-12zM480 732h12v12h-12zM492 720h12v12h-12zM504 708h12v12h-12zM516 696h12v12h-12zM528 684h12v12h-12zM540 672h12v12h-12zM552 660h12v12h-12zM564 648h12v12h-12zM576 636h12v12h-12zM588 624h12v12h-12zM600 612h12v12h-12zM612 600h12v12h-12zM624 588h12v12h-12zM636 576h12v12h-12zM648 564h12v12h-12zM660 552h12v12h-12zM672 540h12v12h-12zM684 528h12v12h-12zM696 516h12v12h-12zM708 504h12v12h-12zM720 492h12v12h-12zM720 504h12v12h-12zM720 516h12v12h-12zM720 528h12v12h-12zM720 540h12v12h-12zM720 552h12v12h-12zM720 564h12v12h-12zM720 576h12v12h-12zM720 588h12v12h-12zM720 600h12v12h-12zM720 612h12v12h-12zM720 624h12v12h-12zM720 636h12v12h-12zM720 648h12v12h-12zM720 660h12v12h-12zM720 672h12v12h-12zM720 684h12v12h-12zM720 696h12v12h-12zM696 720h12v12h-12zM672 744h12v12h-12zM660 756h12v12h-12zM648 768h12v12h-12zM636 780h12v12h-12zM624 792h12v12h-12zM624 804h12v12h-12zM624 816h12v12h-12zM624 828h12v12h-12zM624 840h12v12h-12zM624 852h12v12h-12zM624 864h12v12h-12zM624 876h12v12h-12zM624 888h12v12h-12zM636 876h12v12h-12zM648 864h12v12h-12zM660 852h12v12h-12zM672 840h12v12h-12zM684 828h12v12h-12zM696 816h12v12h-12zM708 804h12v12h-12zM720 792h12v12h-12zM732 780h12v12h-12zM732 768h12v12h-12zM732 744h12v12h-12zM732 720h12v12h-12zM732 708h12v12h-12zM732 696h12v12h-12zM732 684h12v12h-12zM732 672h12v12h-12zM732 660h12v12h-12zM732 648h12v12h-12zM732 636h12v12h-12zM732 624h12v12h-12zM732 612h12v12h-12zM732 600h12v12h-12zM732 588h12v12h-12zM732 576h12v12h-12zM732 564h12v12h-12zM732 552h12v12h-12zM732 540h12v12h-12zM744 552h12v12h-12zM756 564h12v12h-12zM768 576h12v12h-12zM780 588h12v12h-12zM792 600h12v12h-12zM804 612h12v12h-12zM816 624h12v12h-12zM828 636h12v12h-12zM840 648h12v12h-12zM852 660h12v12h-12zM864 672h12v12h-12zM876 684h12v12h-12zM708 540h12v12h-12zM696 552h12v12h-12zM684 564h12v12h-12zM672 576h12v12h-12zM660 588h12v12h-12zM648 600h12v12h-12zM636 612h12v12h-12zM612 636h12v12h-12zM600 648h12v12h-12zM588 660h12v12h-12zM576 672h12v12h-12zM564 684h12v12h-12zM552 696h12v12h-12zM540 708h12v12h-12zM528 720h12v12h-12zM504 744h12v12h-12zM492 756h12v12h-12zM612 648h12v12h-12zM612 660h12v12h-12zM612 672h12v12h-12zM612 684h12v12h-12zM612 696h12v12h-12zM624 708h12v12h-12zM636 720h12v12h-12zM660 744h12v12h-12zM672 756h12v12h-12zM684 768h12v12h-12zM672 780h12v12h-12zM660 792h12v12h-12zM648 804h12v12h-12zM636 816h12v12h-12zM624 780h12v12h-12zM624 768h12v12h-12zM624 756h12v12h-12zM624 744h12v12h-12zM624 720h12v12h-12zM624 696h12v12h-12zM624 684h12v12h-12zM624 672h12v12h-12zM624 660h12v12h-12zM624 648h12v12h-12zM624 636h12v12h-12zM624 612h12v12h-12zM624 600h12v12h-12zM624 576h12v12h-12zM636 588h12v12h-12zM660 612h12v12h-12zM672 624h12v12h-12zM684 636h12v12h-12zM696 648h12v12h-12zM708 660h12v12h-12zM744 696h12v12h-12zM756 708h12v12h-12zM768 720h12v12h-12zM780 732h12v12h-12zM792 744h12v12h-12zM804 756h12v12h-12zM816 768h12v12h-12zM828 780h12v12h-12zM840 792h12v12h-12zM852 804h12v12h-12zM864 816h12v12h-12zM852 816h12v12h-12zM840 816h12v12h-12zM828 816h12v12h-12zM804 816h12v12h-12zM780 816h12v12h-12zM768 816h12v12h-12zM756 816h12v12h-12zM744 816h12v12h-12zM732 816h12v12h-12zM720 816h12v12h-12zM708 816h12v12h-12zM684 816h12v12h-12zM672 816h12v12h-12zM660 816h12v12h-12zM648 816h12v12h-12zM612 816h12v12h-12zM600 816h12v12h-12zM588 816h12v12h-12zM576 816h12v12h-12zM576 804h12v12h-12zM576 792h12v12h-12zM576 780h12v12h-12zM576 768h12v12h-12zM576 756h12v12h-12zM576 744h12v12h-12zM588 744h12v12h-12zM600 744h12v12h-12zM612 744h12v12h-12zM636 744h12v12h-12zM648 744h12v12h-12zM684 744h12v12h-12zM696 744h12v12h-12zM708 744h12v12h-12zM636 600h12v12h-12zM660 600h12v12h-12zM672 600h12v12h-12zM684 600h12v12h-12zM696 600h12v12h-12zM708 600h12v12h-12zM744 600h12v12h-12zM756 600h12v12h-12zM768 600h12v12h-12zM780 600h12v12h-12zM804 600h12v12h-12zM816 600h12v12h-12zM816 612h12v12h-12zM816 636h12v12h-12zM816 648h12v12h-12zM816 660h12v12h-12zM816 672h12v12h-12zM816 684h12v12h-12zM816 696h12v12h-12zM816 708h12v12h-12zM816 720h12v12h-12zM816 732h12v12h-12zM816 744h12v12h-12zM816 756h12v12h-12zM816 780h12v12h-12zM816 792h12v12h-12zM816 804h12v12h-12zM804 792h12v12h-12zM792 780h12v12h-12zM780 768h12v12h-12zM768 756h12v12h-12zM756 744h12v12h-12zM744 732h12v12h-12zM720 708h12v12h-12zM708 696h12v12h-12zM696 684h12v12h-12zM684 672h12v12h-12zM660 672h12v12h-12zM648 672h12v12h-12zM636 672h12v12h-12zM600 672h12v12h-12zM588 672h12v12h-12zM564 672h12v12h-12zM552 672h12v12h-12zM528 672h12v12h-12zM516 672h12v12h-12zM504 672h12v12h-12zM492 672h12v12h-12zM504 660h12v12h-12zM516 648h12v12h-12zM528 636h12v12h-12zM540 624h12v12h-12zM552 612h12v12h-12zM564 600h12v12h-12zM576 588h12v12h-12zM600 588h12v12h-12zM612 588h12v12h-12zM648 588h12v12h-12zM672 588h12v12h-12zM684 588h12v12h-12zM648 624h12v12h-12zM588 684h12v12h-12zM576 696h12v12h-12zM564 708h12v12h-12zM552 720h12v12h-12zM528 744h12v12h-12zM516 756h12v12h-12zM504 768h12v12h-12zM492 780h12v12h-12zM564 696h12v12h-12zM720 732h12v12h-12zM756 732h12v12h-12zM768 732h12v12h-12zM792 732h12v12h-12zM804 732h12v12h-12zM828 732h12v12h-12zM840 732h12v12h-12zM852 732h12v12h-12zM864 732h12v12h-12zM864 720h12v12h-12zM864 708h12v12h-12zM864 696h12v12h-12zM864 684h12v12h-12zM852 672h12v12h-12zM840 672h12v12h-12zM828 672h12v12h-12zM804 672h12v12h-12zM792 672h12v12h-12zM792 684h12v12h-12zM792 696h12v12h-12zM792 708h12v12h-12zM792 720h12v12h-12zM792 756h12v12h-12zM792 768h12v12h-12zM792 804h12v12h-12zM792 828h12v12h-12zM792 840h12v12h-12zM792 852h12v12h-12zM792 864h12v12h-12zM792 876h12v12h-12zM792 888h12v12h-12zM792 900h12v12h-12zM792 912h12v12h-12zM792 924h12v12h-12zM792 936h12v12h-12zM792 948h12v12h-12zM792 660h12v12h-12zM792 648h12v12h-12zM792 636h12v12h-12zM792 624h12v12h-12zM792 612h12v12h-12zM792 588h12v12h-12zM792 576h12v12h-12zM792 564h12v12h-12zM792 552h12v12h-12zM792 540h12v12h-12zM792 528h12v12h-12zM792 516h12v12h-12zM792 504h12v12h-12zM792 492h12v12h-12zM792 480h12v12h-12zM780 480h12v12h-12zM768 480h12v12h-12zM756 480h12v12h-12zM744 480h12v12h-12zM732 480h12v12h-12zM720 480h12v12h-12zM708 480h12v12h-12zM696 480h12v12h-12zM684 480h12v12h-12zM672 480h12v12h-12zM660 480h12v12h-12zM648 480h12v12h-12zM636 480h12v12h-12zM624 480h12v12h-12zM612 480h12v12h-12zM600 480h12v12h-12zM588 480h12v12h-12zM576 480h12v12h-12zM564 480h12v12h-12zM552 480h12v12h-12zM540 480h12v12h-12zM528 480h12v12h-12zM516 480h12v12h-12zM504 480h12v12h-12zM516 492h12v12h-12zM528 504h12v12h-12zM540 516h12v12h-12zM552 528h12v12h-12zM564 540h12v12h-12zM576 552h12v12h-12zM588 564h12v12h-12zM600 576h12v12h-12zM660 636h12v12h-12zM672 648h12v12h-12zM684 660h12v12h-12zM696 672h12v12h-12zM708 684h12v12h-12zM744 720h12v12h-12zM744 708h12v12h-12zM744 684h12v12h-12zM744 672h12v12h-12zM744 660h12v12h-12zM744 756h12v12h-12zM744 780h12v12h-12zM744 792h12v12h-12zM744 804h12v12h-12zM744 828h12v12h-12zM744 840h12v12h-12zM744 852h12v12h-12zM744 864h12v12h-12zM744 876h12v12h-12zM744 888h12v12h-12zM744 900h12v12h-12zM744 912h12v12h-12zM756 912h12v12h-12zM768 912h12v12h-12zM780 912h12v12h-12zM804 912h12v12h-12zM816 912h12v12h-12zM828 912h12v12h-12zM840 912h12v12h-12zM852 912h12v12h-12zM864 912h12v12h-12zM876 912h12v12h-12zM900 912h12v12h-12zM936 912h12v12h-12z"/></svg>