<svg xmlns="http://www.w3.org/2000/svg" width="960" height="960" viewBox="0 0 960 960" shape-rendering="crispEdges"><path fill="#fff" d="M0 0h960v960h-960z"/><path fill="#e69f41" d="M0 384h96v96h-96zM0 576h96v64h-96zM96 384h96v96h-96zM96 576h96v64h-96zM192 384h96v96h-96zM192 576h96v64h-96zM288 384h96v96h-96zM288 576h96v64h-96zM384 384h96v96h-96zM384 576h96v64h-96zM480 384h96v96h-96zM480 576h96v64h-96zM576 384h96v96h-96zM576 576h96v64h-96zM672 384h96v96h-96zM672 576h96v64h-96zM768 384h96v96h-96zM768 576h96v64h-96zM864 384h96v96h-96zM864 576h96v64h-96z"/><path fill="#406091" d="M6 6h12v12h-12zM78 6h12v12h-12zM30 30h12v12h-12zM54 30h12v12h-12zM30 54h12v12h-12zM54 54h12v12h-12zM6 78h12v12h-12zM78 78h12v12h-12zM198 6h12v12h-12zM270 6h12v12h-12zM222 30h12v12h-12zM246 30h12v12h-12zM198 54h12v12h-12zM270 54h12v12h-12zM390 6h12v12h-12zM462 6h12v12h-12zM414 54h12v12h-12zM438 54h12v12h-12zM390 78h12v12h-12zM462 78h12v12h-12zM558 150h12v12h-12zM510 6h12v12h-12zM534 6h12v12h-12zM510 30h12v12h-12zM558 30h12v12h-12zM486 54h12v12h-12zM534 54h12v12h-12zM510 78h12v12h-12zM534 78h12v12h-12zM630 6h12v12h-12zM654 30h12v12h-12zM582 54h12v12h-12zM606 78h12v12h-12zM714 42h12v12h-12zM798 6h12v12h-12zM822 6h12v12h-12zM822 30h12v12h-12zM798 78h12v12h-12zM870 6h12v12h-12zM894 6h12v12h-12zM870 30h12v12h-12zM894 30h12v12h-12zM918 54h12v12h-12zM942 54h12v12h-12zM918 78h12v12h-12zM942 78h12v12h-12zM486 102h12v12h-12zM510 126h12v12h-12zM534 150h12v12h-12zM558 174h12v12h-12zM654 102h12v12h-12zM630 126h12v12h-12zM606 150h12v12h-12zM654 150h12v12h-12zM582 174h12v12h-12zM630 174h12v12h-12zM654 174h12v12h-12zM678 102h12v12h-12zM702 126h12v12h-12zM678 150h12v12h-12zM726 150h12v12h-12zM678 174h12v12h-12zM702 174h12v12h-12zM750 174h12v12h-12zM774 102h12v12h-12zM846 102h12v12h-12zM798 126h12v12h-12zM822 126h12v12h-12zM822 150h12v12h-12zM774 174h12v12h-12zM846 174h12v12h-12zM942 246h12v12h-12zM894 102h12v12h-12zM918 102h12v12h-12zM894 126h12v12h-12zM942 126h12v12h-12zM870 150h12v12h-12zM918 150h12v12h-12zM894 174h12v12h-12zM918 174h12v12h-12zM6 198h12v12h-12zM78 198h12v12h-12zM30 222h12v12h-12zM54 222h12v12h-12zM6 270h12v12h-12zM78 270h12v12h-12zM198 198h12v12h-12zM246 198h12v12h-12zM222 222h12v12h-12zM270 222h12v12h-12zM198 246h12v12h-12zM246 246h12v12h-12zM222 270h12v12h-12zM270 270h12v12h-12zM390 198h12v12h-12zM462 198h12v12h-12zM390 246h12v12h-12zM462 246h12v12h-12zM510 198h12v12h-12zM486 222h12v12h-12zM510 222h12v12h-12zM534 246h12v12h-12zM558 246h12v12h-12zM534 270h12v12h-12zM582 198h12v12h-12zM582 222h12v12h-12zM654 246h12v12h-12zM654 270h12v12h-12zM702 198h12v12h-12zM678 222h12v12h-12zM702 222h12v12h-12zM726 246h12v12h-12zM750 246h12v12h-12zM726 270h12v12h-12zM846 198h12v12h-12zM822 222h12v12h-12zM798 246h12v12h-12zM846 246h12v12h-12zM774 270h12v12h-12zM822 270h12v12h-12zM846 270h12v12h-12zM870 198h12v12h-12zM942 198h12v12h-12zM870 270h12v12h-12zM942 270h12v12h-12zM486 294h12v12h-12zM558 294h12v12h-12zM486 366h12v12h-12zM558 366h12v12h-12zM606 294h12v12h-12zM654 294h12v12h-12zM582 318h12v12h-12zM654 342h12v12h-12zM582 366h12v12h-12zM630 366h12v12h-12zM726 294h12v12h-12zM726 318h12v12h-12zM750 318h12v12h-12zM678 342h12v12h-12zM702 342h12v12h-12zM702 366h12v12h-12zM774 294h12v12h-12zM846 294h12v12h-12zM822 318h12v12h-12zM798 342h12v12h-12zM822 342h12v12h-12zM774 366h12v12h-12zM846 366h12v12h-12zM894 294h12v12h-12zM870 318h12v12h-12zM942 342h12v12h-12zM918 366h12v12h-12zM30 390h12v12h-12zM78 390h12v12h-12zM6 414h12v12h-12zM54 414h12v12h-12zM30 438h12v12h-12zM78 438h12v12h-12zM6 462h12v12h-12zM54 462h12v12h-12zM198 390h12v12h-12zM222 390h12v12h-12zM246 462h12v12h-12zM270 462h12v12h-12zM462 390h12v12h-12zM438 414h12v12h-12zM414 438h12v12h-12zM462 438h12v12h-12zM390 462h12v12h-12zM438 462h12v12h-12zM462 462h12v12h-12zM510 390h12v12h-12zM486 414h12v12h-12zM510 414h12v12h-12zM534 438h12v12h-12zM558 438h12v12h-12zM534 462h12v12h-12zM582 390h12v12h-12zM606 390h12v12h-12zM654 390h12v12h-12zM582 414h12v12h-12zM630 414h12v12h-12zM606 438h12v12h-12zM582 462h12v12h-12zM750 390h12v12h-12zM726 414h12v12h-12zM702 438h12v12h-12zM678 462h12v12h-12zM774 390h12v12h-12zM846 390h12v12h-12zM798 414h12v12h-12zM822 414h12v12h-12zM798 438h12v12h-12zM822 438h12v12h-12zM774 462h12v12h-12zM846 462h12v12h-12zM870 390h12v12h-12zM942 390h12v12h-12zM894 414h12v12h-12zM918 438h12v12h-12zM870 462h12v12h-12zM942 462h12v12h-12zM6 486h12v12h-12zM54 486h12v12h-12zM78 486h12v12h-12zM30 510h12v12h-12zM78 510h12v12h-12zM54 534h12v12h-12zM78 558h12v12h-12zM102 510h12v12h-12zM126 510h12v12h-12zM102 534h12v12h-12zM174 534h12v12h-12zM222 486h12v12h-12zM246 486h12v12h-12zM198 510h12v12h-12zM246 510h12v12h-12zM222 534h12v12h-12zM270 534h12v12h-12zM222 558h12v12h-12zM246 558h12v12h-12zM318 486h12v12h-12zM366 486h12v12h-12zM294 510h12v12h-12zM342 510h12v12h-12zM318 534h12v12h-12zM366 534h12v12h-12zM294 558h12v12h-12zM342 558h12v12h-12zM414 486h12v12h-12zM438 486h12v12h-12zM438 510h12v12h-12zM414 558h12v12h-12zM6 606h12v12h-12zM78 606h12v12h-12zM6 630h12v12h-12zM78 630h12v12h-12zM102 582h12v12h-12zM174 582h12v12h-12zM126 606h12v12h-12zM150 606h12v12h-12zM102 630h12v12h-12zM174 630h12v12h-12zM198 582h12v12h-12zM222 606h12v12h-12zM198 630h12v12h-12zM246 630h12v12h-12zM198 654h12v12h-12zM222 654h12v12h-12zM270 654h12v12h-12zM318 582h12v12h-12zM342 582h12v12h-12zM318 654h12v12h-12zM342 654h12v12h-12zM390 582h12v12h-12zM462 582h12v12h-12zM414 606h12v12h-12zM438 606h12v12h-12zM438 630h12v12h-12zM390 654h12v12h-12zM462 654h12v12h-12zM630 582h12v12h-12zM582 606h12v12h-12zM606 606h12v12h-12zM654 606h12v12h-12zM582 630h12v12h-12zM630 630h12v12h-12zM654 630h12v12h-12zM606 654h12v12h-12zM798 582h12v12h-12zM774 606h12v12h-12zM822 606h12v12h-12zM798 630h12v12h-12zM846 630h12v12h-12zM822 654h12v12h-12zM6 678h12v12h-12zM54 678h12v12h-12zM30 702h12v12h-12zM78 702h12v12h-12zM6 726h12v12h-12zM54 726h12v12h-12zM30 750h12v12h-12zM78 750h12v12h-12zM102 678h12v12h-12zM150 678h12v12h-12zM150 702h12v12h-12zM174 702h12v12h-12zM102 726h12v12h-12zM126 726h12v12h-12zM126 750h12v12h-12zM174 750h12v12h-12zM198 678h12v12h-12zM270 678h12v12h-12zM222 702h12v12h-12zM246 726h12v12h-12zM198 750h12v12h-12zM270 750h12v12h-12zM318 678h12v12h-12zM342 726h12v12h-12zM318 750h12v12h-12zM342 750h12v12h-12zM414 678h12v12h-12zM462 678h12v12h-12zM390 702h12v12h-12zM414 702h12v12h-12zM438 726h12v12h-12zM462 726h12v12h-12zM390 750h12v12h-12zM438 750h12v12h-12zM6 774h12v12h-12zM54 774h12v12h-12zM54 798h12v12h-12zM78 798h12v12h-12zM6 822h12v12h-12zM30 822h12v12h-12zM30 846h12v12h-12zM78 846h12v12h-12zM126 774h12v12h-12zM150 774h12v12h-12zM102 798h12v12h-12zM150 798h12v12h-12zM126 822h12v12h-12zM174 822h12v12h-12zM126 846h12v12h-12zM150 846h12v12h-12zM198 774h12v12h-12zM246 774h12v12h-12zM222 798h12v12h-12zM270 798h12v12h-12zM198 822h12v12h-12zM246 822h12v12h-12zM222 846h12v12h-12zM270 846h12v12h-12zM342 774h12v12h-12zM366 798h12v12h-12zM294 822h12v12h-12zM318 846h12v12h-12zM414 774h12v12h-12zM462 774h12v12h-12zM390 798h12v12h-12zM462 822h12v12h-12zM390 846h12v12h-12zM438 846h12v12h-12zM654 918h12v12h-12zM606 774h12v12h-12zM630 774h12v12h-12zM606 798h12v12h-12zM654 798h12v12h-12zM582 822h12v12h-12zM630 822h12v12h-12zM606 846h12v12h-12zM630 846h12v12h-12zM774 774h12v12h-12zM798 774h12v12h-12zM846 774h12v12h-12zM774 798h12v12h-12zM822 798h12v12h-12zM798 822h12v12h-12zM774 846h12v12h-12zM6 870h12v12h-12zM30 870h12v12h-12zM78 870h12v12h-12zM6 894h12v12h-12zM54 894h12v12h-12zM30 918h12v12h-12zM6 942h12v12h-12zM102 894h12v12h-12zM126 894h12v12h-12zM102 918h12v12h-12zM174 918h12v12h-12zM198 870h12v12h-12zM246 870h12v12h-12zM270 870h12v12h-12zM222 894h12v12h-12zM270 894h12v12h-12zM246 918h12v12h-12zM270 942h12v12h-12zM318 894h12v12h-12zM342 894h12v12h-12zM318 918h12v12h-12zM342 918h12v12h-12zM390 894h12v12h-12zM462 894h12v12h-12zM390 918h12v12h-12zM414 918h12v12h-12zM294 198h12v12h-12zM342 198h12v12h-12zM318 222h12v12h-12zM366 222h12v12h-12zM294 246h12v12h-12zM342 246h12v12h-12zM318 270h12v12h-12zM366 270h12v12h-12zM702 486h12v12h-12zM678 510h12v12h-12zM726 510h12v12h-12zM702 534h12v12h-12zM750 534h12v12h-12zM726 558h12v12h-12zM750 1014h12v12h-12zM702 870h12v12h-12zM726 870h12v12h-12zM702 894h12v12h-12zM750 894h12v12h-12zM678 918h12v12h-12zM726 918h12v12h-12zM702 942h12v12h-12zM726 942h12v12h-12zM198 294h12v12h-12zM222 294h12v12h-12zM246 366h12v12h-12zM270 366h12v12h-12zM774 678h12v12h-12zM798 678h12v12h-12zM846 678h12v12h-12zM774 702h12v12h-12zM822 702h12v12h-12zM798 726h12v12h-12zM774 750h12v12h-12zM846 486h12v12h-12zM822 510h12v12h-12zM798 534h12v12h-12zM774 558h12v12h-12zM102 198h12v12h-12zM174 198h12v12h-12zM126 222h12v12h-12zM150 222h12v12h-12zM102 270h12v12h-12zM174 270h12v12h-12zM654 822h12v12h-12zM606 678h12v12h-12zM630 678h12v12h-12zM606 702h12v12h-12zM654 702h12v12h-12zM582 726h12v12h-12zM630 726h12v12h-12zM606 750h12v12h-12zM630 750h12v12h-12z"/><path fill="#000" d="M384 228h12v12h-12zM372 216h12v12h-12zM360 204h12v12h-12zM348 192h12v12h-12zM336 180h12v12h-12zM324 168h12v12h-12zM312 156h12v12h-12zM300 144h12v12h-12zM288 132h12v12h-12zM276 120h12v12h-12zM264 120h12v12h-12zM252 120h12v12h-12zM240 120h12v12h-12zM228 120h12v12h-12zM216 120h12v12h-12zM204 120h12v12h-12zM192 120h12v12h-12zM180 120h12v12h-12zM168 120h12v12h-12zM156 120h12v12h-12zM144 120h12v12h-12zM132 120h12v12h-12zM132 132h12v12h-12zM132 144h12v12h-12zM132 156h12v12h-12zM132 168h12v12h-12zM132 180h12v12h-12zM132 192h12v12h-12zM132 204h12v12h-12zM132 216h12v12h-12zM132 228h12v12h-12zM120 228h12v12h-12zM108 228h12v12h-12zM96 228h12v12h-12zM84 228h12v12h-12zM72 228h12v12h-12zM60 228h12v12h-12zM48 228h12v12h-12zM36 228h12v12h-12zM24 228h12v12h-12zM12 228h12v12h-12zM12 240h12v12h-12zM12 252h12v12h-12zM12 264h12v12h-12zM12 276h12v12h-12zM12 288h12v12h-12zM12 300h12v12h-12zM24 300h12v12h-12zM36 300h12v12h-12zM48 300h12v12h-12zM60 300h12v12h-12zM72 300h12v12h-12zM84 300h12v12h-12zM96 300h12v12h-12zM108 300h12v12h-12zM120 300h12v12h-12zM132 300h12v12h-12zM144 300h12v12h-12zM156 300h12v12h-12zM144 288h12v12h-12zM132 276h12v12h-12zM120 264h12v12h-12zM108 252h12v12h-12zM96 240h12v12h-12zM108 240h12v12h-12zM120 240h12v12h-12zM132 240h12v12h-12zM144 240h12v12h-12zM156 240h12v12h-12zM168 240h12v12h-12zM180 240h12v12h-12zM192 240h12v12h-12zM204 240h12v12h-12zM216 240h12v12h-12zM228 240h12v12h-12zM240 240h12v12h-12zM252 240h12v12h-12zM264 240h12v12h-12zM276 240h12v12h-12zM288 240h12v12h-12zM300 240h12v12h-12zM312 240h12v12h-12zM324 240h12v12h-12zM336 240h12v12h-12zM348 240h12v12h-12zM360 240h12v12h-12zM372 240h12v12h-12zM384 240h12v12h-12zM396 240h12v12h-12zM408 240h12v12h-12zM420 240h12v12h-12zM432 240h12v12h-12zM444 240h12v12h-12zM456 228h12v12h-12zM444 228h12v12h-12zM432 228h12v12h-12zM420 228h12v12h-12zM408 228h12v12h-12zM396 228h12v12h-12zM372 228h12v12h-12zM360 228h12v12h-12zM348 228h12v12h-12zM336 228h12v12h-12zM324 228h12v12h-12zM312 228h12v12h-12zM300 228h12v12h-12zM276 252h12v12h-12zM276 264h12v12h-12zM276 276h12v12h-12zM276 288h12v12h-12zM276 300h12v12h-12zM264 288h12v12h-12zM252 276h12v12h-12zM240 276h12v12h-12zM228 276h12v12h-12zM216 276h12v12h-12zM204 276h12v12h-12zM204 288h12v12h-12zM204 300h12v12h-12zM204 312h12v12h-12zM204 324h12v12h-12zM204 336h12v12h-12zM204 348h12v12h-12zM204 360h12v12h-12zM204 372h12v12h-12zM204 384h12v12h-12zM204 396h12v12h-12zM204 408h12v12h-12zM204 420h12v12h-12zM204 432h12v12h-12zM204 444h12v12h-12zM204 456h12v12h-12zM204 468h12v12h-12zM192 456h12v12h-12zM180 444h12v12h-12zM168 432h12v12h-12zM156 420h12v12h-12zM144 408h12v12h-12zM132 396h12v12h-12zM132 384h12v12h-12zM132 372h12v12h-12zM132 360h12v12h-12zM144 348h12v12h-12zM156 336h12v12h-12zM168 324h12v12h-12zM180 312h12v12h-12zM192 300h12v12h-12zM228 264h12v12h-12zM240 252h12v12h-12zM264 228h12v12h-12zM276 216h12v12h-12zM288 204h12v12h-12zM300 192h12v12h-12zM312 180h12v12h-12zM336 156h12v12h-12zM348 144h12v12h-12zM360 132h12v12h-12zM372 120h12v12h-12zM384 108h12v12h-12zM396 96h12v12h-12zM408 84h12v12h-12zM120 372h12v12h-12zM144 396h12v12h-12zM156 408h12v12h-12zM168 420h12v12h-12zM180 432h12v12h-12zM168 444h12v12h-12zM192 420h12v12h-12zM216 396h12v12h-12zM228 384h12v12h-12zM240 372h12v12h-12zM252 360h12v12h-12zM264 348h12v12h-12zM276 336h12v12h-12zM288 324h12v12h-12zM300 312h12v12h-12zM312 300h12v12h-12zM324 288h12v12h-12zM336 276h12v12h-12zM348 264h12v12h-12zM360 252h12v12h-12zM396 216h12v12h-12zM408 204h12v12h-12zM396 204h12v12h-12zM384 204h12v12h-12zM372 204h12v12h-12zM348 204h12v12h-12zM336 204h12v12h-12zM324 204h12v12h-12zM312 204h12v12h-12zM300 204h12v12h-12zM276 204h12v12h-12zM264 204h12v12h-12zM252 204h12v12h-12zM240 204h12v12h-12zM228 204h12v12h-12zM216 204h12v12h-12zM204 204h12v12h-12zM192 204h12v12h-12zM180 204h12v12h-12zM168 204h12v12h-12zM180 192h12v12h-12zM192 180h12v12h-12zM204 168h12v12h-12zM216 156h12v12h-12zM228 144h12v12h-12zM240 132h12v12h-12zM264 108h12v12h-12zM276 96h12v12h-12zM156 216h12v12h-12zM144 228h12v12h-12zM120 252h12v12h-12zM108 264h12v12h-12zM96 276h12v12h-12zM108 288h12v12h-12zM132 312h12v12h-12zM144 324h12v12h-12zM168 348h12v12h-12zM180 360h12v12h-12zM192 372h12v12h-12zM228 408h12v12h-12zM240 420h12v12h-12zM252 432h12v12h-12zM264 444h12v12h-12zM276 456h12v12h-12zM264 456h12v12h-12zM252 456h12v12h-12zM240 456h12v12h-12zM228 456h12v12h-12zM216 456h12v12h-12zM180 456h12v12h-12zM168 456h12v12h-12zM156 456h12v12h-12zM144 456h12v12h-12zM132 456h12v12h-12zM120 456h12v12h-12zM108 456h12v12h-12zM96 456h12v12h-12zM84 456h12v12h-12zM72 456h12v12h-12zM60 456h12v12h-12zM48 456h12v12h-12zM36 456h12v12h-12zM48 444h12v12h-12zM60 432h12v12h-12zM72 420h12v12h-12zM84 408h12v12h-12zM96 396h12v12h-12zM108 384h12v12h-12zM252 264h12v12h-12zM264 276h12v12h-12zM192 276h12v12h-12zM180 276h12v12h-12zM168 276h12v12h-12zM180 264h12v12h-12zM192 252h12v12h-12zM216 228h12v12h-12zM228 216h12v12h-12zM252 192h12v12h-12zM264 180h12v12h-12zM276 168h12v12h-12zM288 156h12v12h-12zM312 132h12v12h-12zM324 120h12v12h-12zM336 108h12v12h-12zM348 96h12v12h-12zM360 84h12v12h-12zM372 72h12v12h-12zM384 60h12v12h-12zM396 48h12v12h-12zM408 36h12v12h-12zM420 24h12v12h-12zM432 12h12v12h-12zM156 288h12v12h-12zM120 324h12v12h-12zM120 312h12v12h-12zM120 288h12v12h-12zM120 276h12v12h-12zM384 216h12v12h-12zM408 192h12v12h-12zM420 180h12v12h-12zM432 168h12v12h-12zM432 156h12v12h-12zM432 144h12v12h-12zM432 132h12v12h-12zM432 120h12v12h-12zM444 120h12v12h-12zM456 120h12v12h-12zM456 108h12v12h-12zM456 96h12v12h-12zM456 84h12v12h-12zM456 72h12v12h-12zM456 60h12v12h-12zM456 48h12v12h-12zM456 36h12v12h-12zM444 36h12v12h-12zM432 36h12v12h-12zM420 36h12v12h-12zM396 36h12v12h-12zM384 36h12v12h-12zM372 36h12v12h-12zM360 36h12v12h-12zM348 36h12v12h-12zM336 36h12v12h-12zM324 36h12v12h-12zM312 36h12v12h-12zM300 36h12v12h-12zM288 36h12v12h-12zM276 36h12v12h-12zM264 36h12v12h-12zM252 36h12v12h-12zM240 36h12v12h-12zM228 36h12v12h-12zM348 48h12v12h-12zM336 60h12v12h-12zM324 72h12v12h-12zM312 84h12v12h-12zM300 96h12v12h-12zM288 108h12v12h-12zM264 132h12v12h-12zM252 144h12v12h-12zM240 156h12v12h-12zM228 168h12v12h-12zM216 180h12v12h-12zM204 192h12v12h-12zM180 216h12v12h-12zM168 228h12v12h-12zM144 252h12v12h-12zM132 264h12v12h-12zM132 288h12v12h-12zM168 288h12v12h-12zM180 288h12v12h-12zM192 288h12v12h-12zM216 288h12v12h-12zM228 288h12v12h-12zM240 288h12v12h-12zM252 288h12v12h-12zM288 288h12v12h-12zM300 288h12v12h-12zM312 288h12v12h-12zM336 288h12v12h-12zM348 288h12v12h-12zM360 288h12v12h-12zM372 288h12v12h-12zM384 288h12v12h-12zM396 288h12v12h-12zM408 288h12v12h-12zM348 276h12v12h-12zM360 264h12v12h-12zM372 252h12v12h-12zM348 252h12v12h-12zM336 252h12v12h-12zM324 252h12v12h-12zM312 252h12v12h-12zM300 252h12v12h-12zM288 252h12v12h-12zM264 252h12v12h-12zM252 252h12v12h-12zM228 252h12v12h-12zM216 252h12v12h-12zM204 252h12v12h-12zM180 252h12v12h-12zM168 252h12v12h-12zM156 252h12v12h-12zM132 252h12v12h-12zM96 252h12v12h-12zM84 252h12v12h-12zM324 216h12v12h-12zM324 192h12v12h-12zM324 180h12v12h-12zM324 156h12v12h-12zM324 144h12v12h-12zM324 132h12v12h-12zM324 108h12v12h-12zM324 96h12v12h-12zM324 84h12v12h-12zM324 60h12v12h-12zM324 48h12v12h-12zM384 720h12v12h-12zM372 732h12v12h-12zM360 744h12v12h-12zM348 756h12v12h-12zM336 768h12v12h-12zM324 780h12v12h-12zM312 792h12v12h-12zM300 804h12v12h-12zM288 816h12v12h-12zM276 828h12v12h-12zM264 828h12v12h-12zM252 828h12v12h-12zM240 828h12v12h-12zM228 828h12v12h-12zM216 828h12v12h-12zM204 828h12v12h-12zM192 828h12v12h-12zM180 828h12v12h-12zM168 828h12v12h-12zM156 828h12v12h-12zM144 828h12v12h-12zM132 828h12v12h-12zM132 816h12v12h-12zM132 804h12v12h-12zM132 792h12v12h-12zM132 780h12v12h-12zM132 768h12v12h-12zM132 756h12v12h-12zM132 744h12v12h-12zM132 732h12v12h-12zM132 720h12v12h-12zM120 720h12v12h-12zM108 720h12v12h-12zM96 720h12v12h-12zM84 720h12v12h-12zM72 720h12v12h-12zM60 720h12v12h-12zM48 720h12v12h-12zM36 720h12v12h-12zM24 720h12v12h-12zM12 720h12v12h-12zM12 708h12v12h-12zM12 696h12v12h-12zM12 684h12v12h-12zM12 672h12v12h-12zM12 660h12v12h-12zM12 648h12v12h-12zM24 648h12v12h-12zM36 648h12v12h-12zM48 648h12v12h-12zM60 648h12v12h-12zM72 648h12v12h-12zM84 648h12v12h-12zM96 648h12v12h-12zM108 648h12v12h-12zM120 648h12v12h-12zM132 648h12v12h-12zM144 648h12v12h-12zM156 648h12v12h-12zM144 660h12v12h-12zM132 672h12v12h-12zM120 684h12v12h-12zM108 696h12v12h-12zM96 708h12v12h-12zM108 708h12v12h-12zM120 708h12v12h-12zM132 708h12v12h-12zM144 708h12v12h-12zM156 708h12v12h-12zM168 708h12v12h-12zM180 708h12v12h-12zM192 708h12v12h-12zM204 708h12v12h-12zM216 708h12v12h-12zM228 708h12v12h-12zM240 708h12v12h-12zM252 708h12v12h-12zM264 708h12v12h-12zM276 708h12v12h-12zM288 708h12v12h-12zM300 708h12v12h-12zM312 708h12v12h-12zM324 708h12v12h-12zM336 708h12v12h-12zM348 708h12v12h-12zM360 708h12v12h-12zM372 708h12v12h-12zM384 708h12v12h-12zM396 708h12v12h-12zM408 708h12v12h-12zM420 708h12v12h-12zM432 708h12v12h-12zM444 708h12v12h-12zM456 720h12v12h-12zM444 720h12v12h-12zM432 720h12v12h-12zM420 720h12v12h-12zM408 720h12v12h-12zM396 720h12v12h-12zM372 720h12v12h-12zM360 720h12v12h-12zM348 720h12v12h-12zM336 720h12v12h-12zM324 720h12v12h-12zM312 720h12v12h-12zM300 720h12v12h-12zM276 696h12v12h-12zM276 684h12v12h-12zM276 672h12v12h-12zM276 660h12v12h-12zM276 648h12v12h-12zM264 660h12v12h-12zM252 672h12v12h-12zM240 672h12v12h-12zM228 672h12v12h-12zM216 672h12v12h-12zM204 672h12v12h-12zM204 660h12v12h-12zM204 648h12v12h-12zM204 636h12v12h-12zM204 624h12v12h-12zM204 612h12v12h-12zM204 600h12v12h-12zM204 588h12v12h-12zM204 576h12v12h-12zM204 564h12v12h-12zM204 552h12v12h-12zM204 540h12v12h-12zM204 528h12v12h-12zM204 516h12v12h-12zM204 504h12v12h-12zM204 492h12v12h-12zM204 480h12v12h-12zM192 492h12v12h-12zM180 504h12v12h-12zM168 516h12v12h-12zM156 528h12v12h-12zM144 540h12v12h-12zM132 552h12v12h-12zM132 564h12v12h-12zM132 576h12v12h-12zM132 588h12v12h-12zM144 600h12v12h-12zM156 612h12v12h-12zM168 624h12v12h-12zM180 636h12v12h-12zM192 648h12v12h-12zM228 684h12v12h-12zM240 696h12v12h-12zM264 720h12v12h-12zM276 732h12v12h-12zM288 744h12v12h-12zM300 756h12v12h-12zM312 768h12v12h-12zM336 792h12v12h-12zM348 804h12v12h-12zM360 816h12v12h-12zM372 828h12v12h-12zM384 840h12v12h-12zM396 852h12v12h-12zM408 864h12v12h-12zM120 576h12v12h-12zM144 552h12v12h-12zM156 540h12v12h-12zM168 528h12v12h-12zM180 516h12v12h-12zM168 504h12v12h-12zM192 528h12v12h-12zM216 552h12v12h-12zM228 564h12v12h-12zM240 576h12v12h-12zM252 588h12v12h-12zM264 600h12v12h-12zM276 612h12v12h-12zM288 624h12v12h-12zM300 636h12v12h-12zM312 648h12v12h-12zM324 660h12v12h-12zM336 672h12v12h-12zM348 684h12v12h-12zM360 696h12v12h-12zM396 732h12v12h-12zM408 744h12v12h-12zM396 744h12v12h-12zM384 744h12v12h-12zM372 744h12v12h-12zM348 744h12v12h-12zM336 744h12v12h-12zM324 744h12v12h-12zM312 744h12v12h-12zM300 744h12v12h-12zM276 744h12v12h-12zM264 744h12v12h-12zM252 744h12v12h-12zM240 744h12v12h-12zM228 744h12v12h-12zM216 744h12v12h-12zM204 744h12v12h-12zM192 744h12v12h-12zM180 744h12v12h-12zM168 744h12v12h-12zM180 756h12v12h-12zM192 768h12v12h-12zM204 780h12v12h-12zM216 792h12v12h-12zM228 804h12v12h-12zM240 816h12v12h-12zM264 840h12v12h-12zM276 852h12v12h-12zM156 732h12v12h-12zM144 720h12v12h-12zM120 696h12v12h-12zM108 684h12v12h-12zM96 672h12v12h-12zM108 660h12v12h-12zM132 636h12v12h-12zM144 624h12v12h-12zM168 600h12v12h-12zM180 588h12v12h-12zM192 576h12v12h-12zM228 540h12v12h-12zM240 528h12v12h-12zM252 516h12v12h-12zM264 504h12v12h-12zM276 492h12v12h-12zM264 492h12v12h-12zM252 492h12v12h-12zM240 492h12v12h-12zM228 492h12v12h-12zM216 492h12v12h-12zM180 492h12v12h-12zM168 492h12v12h-12zM156 492h12v12h-12zM144 492h12v12h-12zM132 492h12v12h-12zM120 492h12v12h-12zM108 492h12v12h-12zM96 492h12v12h-12zM84 492h12v12h-12zM72 492h12v12h-12zM60 492h12v12h-12zM48 492h12v12h-12zM36 492h12v12h-12zM48 504h12v12h-12zM60 516h12v12h-12zM72 528h12v12h-12zM84 540h12v12h-12zM96 552h12v12h-12zM108 564h12v12h-12zM252 684h12v12h-12zM264 672h12v12h-12zM192 672h12v12h-12zM180 672h12v12h-12zM168 672h12v12h-12zM180 684h12v12h-12zM192 696h12v12h-12zM216 720h12v12h-12zM228 732h12v12h-12zM252 756h12v12h-12zM264 768h12v12h-12zM276 780h12v12h-12zM288 792h12v12h-12zM312 816h12v12h-12zM324 828h12v12h-12zM336 840h12v12h-12zM348 852h12v12h-12zM360 864h12v12h-12zM372 876h12v12h-12zM384 888h12v12h-12zM396 900h12v12h-12zM408 912h12v12h-12zM420 924h12v12h-12zM432 936h12v12h-12zM156 660h12v12h-12zM120 624h12v12h-12zM120 636h12v12h-12zM120 660h12v12h-12zM120 672h12v12h-12zM384 732h12v12h-12zM408 756h12v12h-12zM420 768h12v12h-12zM432 780h12v12h-12zM432 792h12v12h-12zM432 804h12v12h-12zM432 816h12v12h-12zM432 828h12v12h-12zM444 828h12v12h-12zM456 828h12v12h-12zM456 840h12v12h-12zM456 852h12v12h-12zM456 864h12v12h-12zM456 876h12v12h-12zM456 888h12v12h-12zM456 900h12v12h-12zM456 912h12v12h-12zM444 912h12v12h-12zM432 912h12v12h-12zM420 912h12v12h-12zM396 912h12v12h-12zM384 912h12v12h-12zM372 912h12v12h-12zM360 912h12v12h-12zM348 912h12v12h-12zM336 912h12v12h-12zM324 912h12v12h-12zM312 912h12v12h-12zM300 912h12v12h-12zM288 912h12v12h-12zM276 912h12v12h-12zM264 912h12v12h-12zM252 912h12v12h-12zM240 912h12v12h-12zM228 912h12v12h-12zM348 900h12v12h-12zM336 888h12v12h-12zM324 876h12v12h-12zM312 864h12v12h-12zM300 852h12v12h-12zM288 840h12v12h-12zM264 816h12v12h-12zM252 804h12v12h-12zM240 792h12v12h-12zM228 780h12v12h-12zM216 768h12v12h-12zM204 756h12v12h-12zM180 732h12v12h-12zM168 720h12v12h-12zM144 696h12v12h-12zM132 684h12v12h-12zM132 660h12v12h-12zM168 660h12v12h-12zM180 660h12v12h-12zM192 660h12v12h-12zM216 660h12v12h-12zM228 660h12v12h-12zM240 660h12v12h-12zM252 660h12v12h-12zM288 660h12v12h-12zM300 660h12v12h-12zM312 660h12v12h-12zM336 660h12v12h-12zM348 660h12v12h-12zM360 660h12v12h-12zM372 660h12v12h-12zM384 660h12v12h-12zM396 660h12v12h-12zM408 660h12v12h-12zM348 672h12v12h-12zM360 684h12v12h-12zM372 696h12v12h-12zM348 696h12v12h-12zM336 696h12v12h-12zM324 696h12v12h-12zM312 696h12v12h-12zM300 696h12v12h-12zM288 696h12v12h-12zM264 696h12v12h-12zM252 696h12v12h-12zM228 696h12v12h-12zM216 696h12v12h-12zM204 696h12v12h-12zM180 696h12v12h-12zM168 696h12v12h-12zM156 696h12v12h-12zM132 696h12v12h-12zM96 696h12v12h-12zM84 696h12v12h-12zM324 732h12v12h-12zM324 756h12v12h-12zM324 768h12v12h-12zM324 792h12v12h-12zM324 804h12v12h-12zM324 816h12v12h-12zM324 840h12v12h-12zM324 852h12v12h-12zM324 864h12v12h-12zM324 888h12v12h-12zM324 900h12v12h-12zM564 228h12v12h-12zM576 216h12v12h-12zM588 204h12v12h-12zM600 192h12v12h-12zM612 180h12v12h-12zM624 168h12v12h-12zM636 156h12v12h-12zM648 144h12v12h-12zM660 132h12v12h-12zM672 120h12v12h-12zM684 120h12v12h-12zM696 120h12v12h-12zM708 120h12v12h-12zM720 120h12v12h-12zM732 120h12v12h-12zM744 120h12v12h-12zM756 120h12v12h-12zM768 120h12v12h-12zM780 120h12v12h-12zM792 120h12v12h-12zM804 120h12v12h-12zM816 120h12v12h-12zM816 132h12v12h-12zM816 144h12v12h-12zM816 156h12v12h-12zM816 168h12v12h-12zM816 180h12v12h-12zM816 192h12v12h-12zM816 204h12v12h-12zM816 216h12v12h-12zM816 228h12v12h-12zM828 228h12v12h-12zM840 228h12v12h-12zM852 228h12v12h-12zM864 228h12v12h-12zM876 228h12v12h-12zM888 228h12v12h-12zM900 228h12v12h-12zM912 228h12v12h-12zM924 228h12v12h-12zM936 228h12v12h-12zM936 240h12v12h-12zM936 252h12v12h-12zM936 264h12v12h-12zM936 276h12v12h-12zM936 288h12v12h-12zM936 300h12v12h-12zM924 300h12v12h-12zM912 300h12v12h-12zM900 300h12v12h-12zM888 300h12v12h-12zM876 300h12v12h-12zM864 300h12v12h-12zM852 300h12v12h-12zM840 300h12v12h-12zM828 300h12v12h-12zM816 300h12v12h-12zM804 300h12v12h-12zM792 300h12v12h-12zM804 288h12v12h-12zM816 276h12v12h-12zM828 264h12v12h-12zM840 252h12v12h-12zM852 240h12v12h-12zM840 240h12v12h-12zM828 240h12v12h-12zM816 240h12v12h-12zM804 240h12v12h-12zM792 240h12v12h-12zM780 240h12v12h-12zM768 240h12v12h-12zM756 240h12v12h-12zM744 240h12v12h-12zM732 240h12v12h-12zM720 240h12v12h-12zM708 240h12v12h-12zM696 240h12v12h-12zM684 240h12v12h-12zM672 240h12v12h-12zM660 240h12v12h-12zM648 240h12v12h-12zM636 240h12v12h-12zM624 240h12v12h-12zM612 240h12v12h-12zM600 240h12v12h-12zM588 240h12v12h-12zM576 240h12v12h-12zM564 240h12v12h-12zM552 240h12v12h-12zM540 240h12v12h-12zM528 240h12v12h-12zM516 240h12v12h-12zM504 240h12v12h-12zM492 228h12v12h-12zM504 228h12v12h-12zM516 228h12v12h-12zM528 228h12v12h-12zM540 228h12v12h-12zM552 228h12v12h-12zM576 228h12v12h-12zM588 228h12v12h-12zM600 228h12v12h-12zM612 228h12v12h-12zM624 228h12v12h-12zM636 228h12v12h-12zM648 228h12v12h-12zM672 252h12v12h-12zM672 264h12v12h-12zM672 276h12v12h-12zM672 288h12v12h-12zM672 300h12v12h-12zM684 288h12v12h-12zM696 276h12v12h-12zM708 276h12v12h-12zM720 276h12v12h-12zM732 276h12v12h-12zM744 276h12v12h-12zM744 288h12v12h-12zM744 300h12v12h-12zM744 312h12v12h-12zM744 324h12v12h-12zM744 336h12v12h-12zM744 348h12v12h-12zM744 360h12v12h-12zM744 372h12v12h-12zM744 384h12v12h-12zM744 396h12v12h-12zM744 408h12v12h-12zM744 420h12v12h-12zM744 432h12v12h-12zM744 444h12v12h-12zM744 456h12v12h-12zM744 468h12v12h-12zM756 456h12v12h-12zM768 444h12v12h-12zM780 432h12v12h-12zM792 420h12v12h-12zM804 408h12v12h-12zM816 396h12v12h-12zM816 384h12v12h-12zM816 372h12v12h-12zM816 360h12v12h-12zM804 348h12v12h-12zM792 336h12v12h-12zM780 324h12v12h-12zM768 312h12v12h-12zM756 300h12v12h-12zM720 264h12v12h-12zM708 252h12v12h-12zM684 228h12v12h-12zM672 216h12v12h-12zM660 204h12v12h-12zM648 192h12v12h-12zM636 180h12v12h-12zM612 156h12v12h-12zM600 144h12v12h-12zM588 132h12v12h-12zM576 120h12v12h-12zM564 108h12v12h-12zM552 96h12v12h-12zM540 84h12v12h-12zM828 372h12v12h-12zM804 396h12v12h-12zM792 408h12v12h-12zM780 420h12v12h-12zM768 432h12v12h-12zM780 444h12v12h-12zM756 420h12v12h-12zM732 396h12v12h-12zM720 384h12v12h-12zM708 372h12v12h-12zM696 360h12v12h-12zM684 348h12v12h-12zM672 336h12v12h-12zM660 324h12v12h-12zM648 312h12v12h-12zM636 300h12v12h-12zM624 288h12v12h-12zM612 276h12v12h-12zM600 264h12v12h-12zM588 252h12v12h-12zM552 216h12v12h-12zM540 204h12v12h-12zM552 204h12v12h-12zM564 204h12v12h-12zM576 204h12v12h-12zM600 204h12v12h-12zM612 204h12v12h-12zM624 204h12v12h-12zM636 204h12v12h-12zM648 204h12v12h-12zM672 204h12v12h-12zM684 204h12v12h-12zM696 204h12v12h-12zM708 204h12v12h-12zM720 204h12v12h-12zM732 204h12v12h-12zM744 204h12v12h-12zM756 204h12v12h-12zM768 204h12v12h-12zM780 204h12v12h-12zM768 192h12v12h-12zM756 180h12v12h-12zM744 168h12v12h-12zM732 156h12v12h-12zM720 144h12v12h-12zM708 132h12v12h-12zM684 108h12v12h-12zM672 96h12v12h-12zM792 216h12v12h-12zM804 228h12v12h-12zM828 252h12v12h-12zM840 264h12v12h-12zM852 276h12v12h-12zM840 288h12v12h-12zM816 312h12v12h-12zM804 324h12v12h-12zM780 348h12v12h-12zM768 360h12v12h-12zM756 372h12v12h-12zM720 408h12v12h-12zM708 420h12v12h-12zM696 432h12v12h-12zM684 444h12v12h-12zM672 456h12v12h-12zM684 456h12v12h-12zM696 456h12v12h-12zM708 456h12v12h-12zM720 456h12v12h-12zM732 456h12v12h-12zM768 456h12v12h-12zM780 456h12v12h-12zM792 456h12v12h-12zM804 456h12v12h-12zM816 456h12v12h-12zM828 456h12v12h-12zM840 456h12v12h-12zM852 456h12v12h-12zM864 456h12v12h-12zM876 456h12v12h-12zM888 456h12v12h-12zM900 456h12v12h-12zM912 456h12v12h-12zM900 444h12v12h-12zM888 432h12v12h-12zM876 420h12v12h-12zM864 408h12v12h-12zM852 396h12v12h-12zM840 384h12v12h-12zM696 264h12v12h-12zM684 276h12v12h-12zM756 276h12v12h-12zM768 276h12v12h-12zM780 276h12v12h-12zM768 264h12v12h-12zM756 252h12v12h-12zM732 228h12v12h-12zM720 216h12v12h-12zM696 192h12v12h-12zM684 180h12v12h-12zM672 168h12v12h-12zM660 156h12v12h-12zM636 132h12v12h-12zM624 120h12v12h-12zM612 108h12v12h-12zM600 96h12v12h-12zM588 84h12v12h-12zM576 72h12v12h-12zM564 60h12v12h-12zM552 48h12v12h-12zM540 36h12v12h-12zM528 24h12v12h-12zM516 12h12v12h-12zM792 288h12v12h-12zM828 324h12v12h-12zM828 312h12v12h-12zM828 288h12v12h-12zM828 276h12v12h-12zM564 216h12v12h-12zM540 192h12v12h-12zM528 180h12v12h-12zM516 168h12v12h-12zM516 156h12v12h-12zM516 144h12v12h-12zM516 132h12v12h-12zM516 120h12v12h-12zM504 120h12v12h-12zM492 120h12v12h-12zM492 108h12v12h-12zM492 96h12v12h-12zM492 84h12v12h-12zM492 72h12v12h-12zM492 60h12v12h-12zM492 48h12v12h-12zM492 36h12v12h-12zM504 36h12v12h-12zM516 36h12v12h-12zM528 36h12v12h-12zM552 36h12v12h-12zM564 36h12v12h-12zM576 36h12v12h-12zM588 36h12v12h-12zM600 36h12v12h-12zM612 36h12v12h-12zM624 36h12v12h-12zM636 36h12v12h-12zM648 36h12v12h-12zM660 36h12v12h-12zM672 36h12v12h-12zM684 36h12v12h-12zM696 36h12v12h-12zM708 36h12v12h-12zM720 36h12v12h-12zM600 48h12v12h-12zM612 60h12v12h-12zM624 72h12v12h-12zM636 84h12v12h-12zM648 96h12v12h-12zM660 108h12v12h-12zM684 132h12v12h-12zM696 144h12v12h-12zM708 156h12v12h-12zM720 168h12v12h-12zM732 180h12v12h-12zM744 192h12v12h-12zM768 216h12v12h-12zM780 228h12v12h-12zM804 252h12v12h-12zM816 264h12v12h-12zM816 288h12v12h-12zM780 288h12v12h-12zM768 288h12v12h-12zM756 288h12v12h-12zM732 288h12v12h-12zM720 288h12v12h-12zM708 288h12v12h-12zM696 288h12v12h-12zM660 288h12v12h-12zM648 288h12v12h-12zM636 288h12v12h-12zM612 288h12v12h-12zM600 288h12v12h-12zM588 288h12v12h-12zM576 288h12v12h-12zM564 288h12v12h-12zM552 288h12v12h-12zM540 288h12v12h-12zM600 276h12v12h-12zM588 264h12v12h-12zM576 252h12v12h-12zM600 252h12v12h-12zM612 252h12v12h-12zM624 252h12v12h-12zM636 252h12v12h-12zM648 252h12v12h-12zM660 252h12v12h-12zM684 252h12v12h-12zM696 252h12v12h-12zM720 252h12v12h-12zM732 252h12v12h-12zM744 252h12v12h-12zM768 252h12v12h-12zM780 252h12v12h-12zM792 252h12v12h-12zM816 252h12v12h-12zM852 252h12v12h-12zM864 252h12v12h-12zM624 216h12v12h-12zM624 192h12v12h-12zM624 180h12v12h-12zM624 156h12v12h-12zM624 144h12v12h-12zM624 132h12v12h-12zM624 108h12v12h-12zM624 96h12v12h-12zM624 84h12v12h-12zM624 60h12v12h-12zM624 48h12v12h-12zM564 720h12v12h-12zM576 732h12v12h-12zM588 744h12v12h-12zM600 756h12v12h-12zM612 768h12v12h-12zM624 780h12v12h-12zM636 792h12v12h-12zM648 804h12v12h-12zM660 816h12v12h-12zM672 828h12v12h-12zM684 828h12v12h-12zM696 828h12v12h-12zM708 828h12v12h-12zM720 828h12v12h-12zM732 828h12v12h-12zM744 828h12v12h-12zM756 828h12v12h-12zM768 828h12v12h-12zM780 828h12v12h-12zM792 828h12v12h-12zM804 828h12v12h-12zM816 828h12v12h-12zM816 816h12v12h-12zM816 804h12v12h-12zM816 792h12v12h-12zM816 780h12v12h-12zM816 768h12v12h-12zM816 756h12v12h-12zM816 744h12v12h-12zM816 732h12v12h-12zM816 720h12v12h-12zM828 720h12v12h-12zM840 720h12v12h-12zM852 720h12v12h-12zM864 720h12v12h-12zM876 720h12v12h-12zM888 720h12v12h-12zM900 720h12v12h-12zM912 720h12v12h-12zM924 720h12v12h-12zM936 720h12v12h-12zM936 708h12v12h-12zM936 696h12v12h-12zM936 684h12v12h-12zM936 672h12v12h-12zM936 660h12v12h-12zM936 648h12v12h-12zM924 648h12v12h-12zM912 648h12v12h-12zM900 648h12v12h-12zM888 648h12v12h-12zM876 648h12v12h-12zM864 648h12v12h-12zM852 648h12v12h-12zM840 648h12v12h-12zM828 648h12v12h-12zM816 648h12v12h-12zM804 648h12v12h-12zM792 648h12v12h-12zM804 660h12v12h-12zM816 672h12v12h-12zM828 684h12v12h-12zM840 696h12v12h-12zM852 708h12v12h-12zM840 708h12v12h-12zM828 708h12v12h-12zM816 708h12v12h-12zM804 708h12v12h-12zM792 708h12v12h-12zM780 708h12v12h-12zM768 708h12v12h-12zM756 708h12v12h-12zM744 708h12v12h-12zM732 708h12v12h-12zM720 708h12v12h-12zM708 708h12v12h-12zM696 708h12v12h-12zM684 708h12v12h-12zM672 708h12v12h-12zM660 708h12v12h-12zM648 708h12v12h-12zM636 708h12v12h-12zM624 708h12v12h-12zM612 708h12v12h-12zM600 708h12v12h-12zM588 708h12v12h-12zM576 708h12v12h-12zM564 708h12v12h-12zM552 708h12v12h-12zM540 708h12v12h-12zM528 708h12v12h-12zM516 708h12v12h-12zM504 708h12v12h-12zM492 720h12v12h-12zM504 720h12v12h-12zM516 720h12v12h-12zM528 720h12v12h-12zM540 720h12v12h-12zM552 720h12v12h-12zM576 720h12v12h-12zM588 720h12v12h-12zM600 720h12v12h-12zM612 720h12v12h-12zM624 720h12v12h-12zM636 720h12v12h-12zM648 720h12v12h-12zM672 696h12v12h-12zM672 684h12v12h-12zM672 672h12v12h-12zM672 660h12v12h-12zM672 648h12v12h-12zM684 660h12v12h-12zM696 672h12v12h-12zM708 672h12v12h-12zM720 672h12v12h-12zM732 672h12v12h-12zM744 672h12v12h-12zM744 660h12v12h-12zM744 648h12v12h-12zM744 636h12v12h-12zM744 624h12v12h-12zM744 612h12v12h-12zM744 600h12v12h-12zM744 588h12v12h-12zM744 576h12v12h-12zM744 564h12v12h-12zM744 552h12v12h-12zM744 540h12v12h-12zM744 528h12v12h-12zM744 516h12v12h-12zM744 504h12v12h-12zM744 492h12v12h-12zM744 480h12v12h-12zM756 492h12v12h-12zM768 504h12v12h-12zM780 516h12v12h-12zM792 528h12v12h-12zM804 540h12v12h-12zM816 552h12v12h-12zM816 564h12v12h-12zM816 576h12v12h-12zM816 588h12v12h-12zM804 600h12v12h-12zM792 612h12v12h-12zM780 624h12v12h-12zM768 636h12v12h-12zM756 648h12v12h-12zM720 684h12v12h-12zM708 696h12v12h-12zM684 720h12v12h-12zM672 732h12v12h-12zM660 744h12v12h-12zM648 756h12v12h-12zM636 768h12v12h-12zM612 792h12v12h-12zM600 804h12v12h-12zM588 816h12v12h-12zM576 828h12v12h-12zM564 840h12v12h-12zM552 852h12v12h-12zM540 864h12v12h-12zM828 576h12v12h-12zM804 552h12v12h-12zM792 540h12v12h-12zM780 528h12v12h-12zM768 516h12v12h-12zM780 504h12v12h-12zM756 528h12v12h-12zM732 552h12v12h-12zM720 564h12v12h-12zM708 576h12v12h-12zM696 588h12v12h-12zM684 600h12v12h-12zM672 612h12v12h-12zM660 624h12v12h-12zM648 636h12v12h-12zM636 648h12v12h-12zM624 660h12v12h-12zM612 672h12v12h-12zM600 684h12v12h-12zM588 696h12v12h-12zM552 732h12v12h-12zM540 744h12v12h-12zM552 744h12v12h-12zM564 744h12v12h-12zM576 744h12v12h-12zM600 744h12v12h-12zM612 744h12v12h-12zM624 744h12v12h-12zM636 744h12v12h-12zM648 744h12v12h-12zM672 744h12v12h-12zM684 744h12v12h-12zM696 744h12v12h-12zM708 744h12v12h-12zM720 744h12v12h-12zM732 744h12v12h-12zM744 744h12v12h-12zM756 744h12v12h-12zM768 744h12v12h-12zM780 744h12v12h-12zM768 756h12v12h-12zM756 768h12v12h-12zM744 780h12v12h-12zM732 792h12v12h-12zM720 804h12v12h-12zM708 816h12v12h-12zM684 840h12v12h-12zM672 852h12v12h-12zM792 732h12v12h-12zM804 720h12v12h-12zM828 696h12v12h-12zM840 684h12v12h-12zM852 672h12v12h-12zM840 660h12v12h-12zM816 636h12v12h-12zM804 624h12v12h-12zM780 600h12v12h-12zM768 588h12v12h-12zM756 576h12v12h-12zM720 540h12v12h-12zM708 528h12v12h-12zM696 516h12v12h-12zM684 504h12v12h-12zM672 492h12v12h-12zM684 492h12v12h-12zM696 492h12v12h-12zM708 492h12v12h-12zM720 492h12v12h-12zM732 492h12v12h-12zM768 492h12v12h-12zM780 492h12v12h-12zM792 492h12v12h-12zM804 492h12v12h-12zM816 492h12v12h-12zM828 492h12v12h-12zM840 492h12v12h-12zM852 492h12v12h-12zM864 492h12v12h-12zM876 492h12v12h-12zM888 492h12v12h-12zM900 492h12v12h-12zM912 492h12v12h-12zM900 504h12v12h-12zM888 516h12v12h-12zM876 528h12v12h-12zM864 540h12v12h-12zM852 552h12v12h-12zM840 564h12v12h-12zM696 684h12v12h-12zM684 672h12v12h-12zM756 672h12v12h-12zM768 672h12v12h-12zM780 672h12v12h-12zM768 684h12v12h-12zM756 696h12v12h-12zM732 720h12v12h-12zM720 732h12v12h-12zM696 756h12v12h-12zM684 768h12v12h-12zM672 780h12v12h-12zM660 792h12v12h-12zM636 816h12v12h-12zM624 828h12v12h-12zM612 840h12v12h-12zM600 852h12v12h-12zM588 864h12v12h-12zM576 876h12v12h-12zM564 888h12v12h-12zM552 900h12v12h-12zM540 912h12v12h-12zM528 924h12v12h-12zM516 936h12v12h-12zM792 660h12v12h-12zM828 624h12v12h-12zM828 636h12v12h-12zM828 660h12v12h-12zM828 672h12v12h-12zM564 732h12v12h-12zM540 756h12v12h-12zM528 768h12v12h-12zM516 780h12v12h-12zM516 792h12v12h-12zM516 804h12v12h-12zM516 816h12v12h-12zM516 828h12v12h-12zM504 828h12v12h-12zM492 828h12v12h-12zM492 840h12v12h-12zM492 852h12v12h-12zM492 864h12v12h-12zM492 876h12v12h-12zM492 888h12v12h-12zM492 900h12v12h-12zM492 912h12v12h-12zM504 912h12v12h-12zM516 912h12v12h-12zM528 912h12v12h-12zM552 912h12v12h-12zM564 912h12v12h-12zM576 912h12v12h-12zM588 912h12v12h-12zM600 912h12v12h-12zM612 912h12v12h-12zM624 912h12v12h-12zM636 912h12v12h-12zM648 912h12v12h-12zM660 912h12v12h-12zM672 912h12v12h-12zM684 912h12v12h-12zM696 912h12v12h-12zM708 912h12v12h-12zM720 912h12v12h-12zM600 900h12v12h-12zM612 888h12v12h-12zM624 876h12v12h-12zM636 864h12v12h-12zM648 852h12v12h-12zM660 840h12v12h-12zM684 816h12v12h-12zM696 804h12v12h-12zM708 792h12v12h-12zM720 780h12v12h-12zM732 768h12v12h-12zM744 756h12v12h-12zM768 732h12v12h-12zM780 720h12v12h-12zM804 696h12v12h-12zM816 684h12v12h-12zM816 660h12v12h-12zM780 660h12v12h-12zM768 660h12v12h-12zM756 660h12v12h-12zM732 660h12v12h-12zM720 660h12v12h-12zM708 660h12v12h-12zM696 660h12v12h-12zM660 660h12v12h-12zM648 660h12v12h-12zM636 660h12v12h-12zM612 660h12v12h-12zM600 660h12v12h-12zM588 660h12v12h-12zM576 660h12v12h-12zM564 660h12v12h-12zM552 660h12v12h-12zM540 660h12v12h-12zM600 672h12v12h-12zM588 684h12v12h-12zM576 696h12v12h-12zM600 696h12v12h-12zM612 696h12v12h-12zM624 696h12v12h-12zM636 696h12v12h-12zM648 696h12v12h-12zM660 696h12v12h-12zM684 696h12v12h-12zM696 696h12v12h-12zM720 696h12v12h-12zM732 696h12v12h-12zM744 696h12v12h-12zM768 696h12v12h-12zM780 696h12v12h-12zM792 696h12v12h-12zM816 696h12v12h-12zM852 696h12v12h-12zM864 696h12v12h-12zM624 732h12v12h-12zM624 756h12v12h-12zM624 768h12v12h-12zM624 792h12v12h-12zM624 804h12v12h-12zM624 816h12v12h-12zM624 840h12v12h-12zM624 852h12v12h-12zM624 864h12v12h-12zM624 888h12v12h-12zM624 900h12v12h-12z"/></svg>