<svg xmlns="http://www.w3.org/2000/svg" width="960" height="960" viewBox="0 0 960 960" shape-rendering="crispEdges"><path fill="#000" d="M0 0h960v960h-960z"/><path fill="#d91c5b" d="M0 0h960v960h-960z"/><path fill="#f2cd9c" d="M6 30h12v12h-12zM78 30h12v12h-12zM6 54h12v12h-12zM78 54h12v12h-12zM150 6h12v12h-12zM174 6h12v12h-12zM102 78h12v12h-12zM126 78h12v12h-12zM198 6h12v12h-12zM222 6h12v12h-12zM246 78h12v12h-12zM270 78h12v12h-12zM294 6h12v12h-12zM342 6h12v12h-12zM318 30h12v12h-12zM366 30h12v12h-12zM294 54h12v12h-12zM342 54h12v12h-12zM318 78h12v12h-12zM366 78h12v12h-12zM414 6h12v12h-12zM462 6h12v12h-12zM390 30h12v12h-12zM462 54h12v12h-12zM390 78h12v12h-12zM438 78h12v12h-12zM582 30h12v12h-12zM654 30h12v12h-12zM582 54h12v12h-12zM606 54h12v12h-12zM822 6h12v12h-12zM798 30h12v12h-12zM846 30h12v12h-12zM774 54h12v12h-12zM822 54h12v12h-12zM798 78h12v12h-12zM54 102h12v12h-12zM78 102h12v12h-12zM6 174h12v12h-12zM30 174h12v12h-12zM102 126h12v12h-12zM126 126h12v12h-12zM102 150h12v12h-12zM174 150h12v12h-12zM198 102h12v12h-12zM222 126h12v12h-12zM198 150h12v12h-12zM246 150h12v12h-12zM198 174h12v12h-12zM222 174h12v12h-12zM270 174h12v12h-12zM294 126h12v12h-12zM366 126h12v12h-12zM294 150h12v12h-12zM366 150h12v12h-12zM390 102h12v12h-12zM414 126h12v12h-12zM390 150h12v12h-12zM438 150h12v12h-12zM390 174h12v12h-12zM414 174h12v12h-12zM462 174h12v12h-12zM6 198h12v12h-12zM78 198h12v12h-12zM6 270h12v12h-12zM78 270h12v12h-12zM138 234h12v12h-12zM222 198h12v12h-12zM198 222h12v12h-12zM246 222h12v12h-12zM270 222h12v12h-12zM198 246h12v12h-12zM222 246h12v12h-12zM270 246h12v12h-12zM246 270h12v12h-12zM342 198h12v12h-12zM318 222h12v12h-12zM366 222h12v12h-12zM294 246h12v12h-12zM342 246h12v12h-12zM318 270h12v12h-12zM390 198h12v12h-12zM462 198h12v12h-12zM414 246h12v12h-12zM438 246h12v12h-12zM390 270h12v12h-12zM462 270h12v12h-12zM630 198h12v12h-12zM654 198h12v12h-12zM582 270h12v12h-12zM606 270h12v12h-12zM774 198h12v12h-12zM798 222h12v12h-12zM822 246h12v12h-12zM846 270h12v12h-12zM510 294h12v12h-12zM534 294h12v12h-12zM486 318h12v12h-12zM534 318h12v12h-12zM510 342h12v12h-12zM558 342h12v12h-12zM510 366h12v12h-12zM534 366h12v12h-12zM606 294h12v12h-12zM654 294h12v12h-12zM630 318h12v12h-12zM630 342h12v12h-12zM606 366h12v12h-12zM654 366h12v12h-12zM678 294h12v12h-12zM702 294h12v12h-12zM726 366h12v12h-12zM750 366h12v12h-12zM774 294h12v12h-12zM798 294h12v12h-12zM846 294h12v12h-12zM774 318h12v12h-12zM822 318h12v12h-12zM798 342h12v12h-12zM774 366h12v12h-12zM918 294h12v12h-12zM894 318h12v12h-12zM942 318h12v12h-12zM870 342h12v12h-12zM918 342h12v12h-12zM894 366h12v12h-12zM6 414h12v12h-12zM78 414h12v12h-12zM6 438h12v12h-12zM78 438h12v12h-12zM270 534h12v12h-12zM222 390h12v12h-12zM246 390h12v12h-12zM222 414h12v12h-12zM270 414h12v12h-12zM198 438h12v12h-12zM246 438h12v12h-12zM222 462h12v12h-12zM246 462h12v12h-12zM438 390h12v12h-12zM462 390h12v12h-12zM438 414h12v12h-12zM462 414h12v12h-12zM390 438h12v12h-12zM414 438h12v12h-12zM390 462h12v12h-12zM414 462h12v12h-12zM522 426h12v12h-12zM630 390h12v12h-12zM606 414h12v12h-12zM654 414h12v12h-12zM582 438h12v12h-12zM630 438h12v12h-12zM606 462h12v12h-12zM678 390h12v12h-12zM750 390h12v12h-12zM678 462h12v12h-12zM750 462h12v12h-12zM774 390h12v12h-12zM798 414h12v12h-12zM822 438h12v12h-12zM846 462h12v12h-12zM894 390h12v12h-12zM918 438h12v12h-12zM894 462h12v12h-12zM918 462h12v12h-12zM534 486h12v12h-12zM534 510h12v12h-12zM558 510h12v12h-12zM486 534h12v12h-12zM510 534h12v12h-12zM510 558h12v12h-12zM582 486h12v12h-12zM654 486h12v12h-12zM630 510h12v12h-12zM606 534h12v12h-12zM582 558h12v12h-12zM654 558h12v12h-12zM726 486h12v12h-12zM702 510h12v12h-12zM750 510h12v12h-12zM678 534h12v12h-12zM726 534h12v12h-12zM702 558h12v12h-12zM798 486h12v12h-12zM822 534h12v12h-12zM798 558h12v12h-12zM822 558h12v12h-12zM942 630h12v12h-12zM894 486h12v12h-12zM918 486h12v12h-12zM894 510h12v12h-12zM942 510h12v12h-12zM870 534h12v12h-12zM918 534h12v12h-12zM894 558h12v12h-12zM918 558h12v12h-12zM30 582h12v12h-12zM6 606h12v12h-12zM78 630h12v12h-12zM54 654h12v12h-12zM102 582h12v12h-12zM174 582h12v12h-12zM126 606h12v12h-12zM150 606h12v12h-12zM126 630h12v12h-12zM102 654h12v12h-12zM174 654h12v12h-12zM222 582h12v12h-12zM198 606h12v12h-12zM222 606h12v12h-12zM246 630h12v12h-12zM270 630h12v12h-12zM246 654h12v12h-12zM342 582h12v12h-12zM366 606h12v12h-12zM294 630h12v12h-12zM318 654h12v12h-12zM390 582h12v12h-12zM462 582h12v12h-12zM414 606h12v12h-12zM438 606h12v12h-12zM438 630h12v12h-12zM390 654h12v12h-12zM462 654h12v12h-12zM582 582h12v12h-12zM654 582h12v12h-12zM606 606h12v12h-12zM630 606h12v12h-12zM606 630h12v12h-12zM630 630h12v12h-12zM582 654h12v12h-12zM654 654h12v12h-12zM774 582h12v12h-12zM846 582h12v12h-12zM798 606h12v12h-12zM822 606h12v12h-12zM798 630h12v12h-12zM822 630h12v12h-12zM774 654h12v12h-12zM846 654h12v12h-12zM6 678h12v12h-12zM78 678h12v12h-12zM54 702h12v12h-12zM30 726h12v12h-12zM6 750h12v12h-12zM78 750h12v12h-12zM174 678h12v12h-12zM150 702h12v12h-12zM126 726h12v12h-12zM102 750h12v12h-12zM270 822h12v12h-12zM222 678h12v12h-12zM246 678h12v12h-12zM222 702h12v12h-12zM270 702h12v12h-12zM198 726h12v12h-12zM246 726h12v12h-12zM222 750h12v12h-12zM246 750h12v12h-12zM318 678h12v12h-12zM294 702h12v12h-12zM366 726h12v12h-12zM342 750h12v12h-12zM414 678h12v12h-12zM390 702h12v12h-12zM414 702h12v12h-12zM438 726h12v12h-12zM462 726h12v12h-12zM438 750h12v12h-12zM6 774h12v12h-12zM78 774h12v12h-12zM30 798h12v12h-12zM54 798h12v12h-12zM6 822h12v12h-12zM78 822h12v12h-12zM102 774h12v12h-12zM174 774h12v12h-12zM150 798h12v12h-12zM126 822h12v12h-12zM150 822h12v12h-12zM102 846h12v12h-12zM174 846h12v12h-12zM246 774h12v12h-12zM270 798h12v12h-12zM198 822h12v12h-12zM222 846h12v12h-12zM294 798h12v12h-12zM366 798h12v12h-12zM294 822h12v12h-12zM318 822h12v12h-12zM390 798h12v12h-12zM462 798h12v12h-12zM390 822h12v12h-12zM462 822h12v12h-12zM606 774h12v12h-12zM630 822h12v12h-12zM606 846h12v12h-12zM630 846h12v12h-12zM798 774h12v12h-12zM846 774h12v12h-12zM774 798h12v12h-12zM798 798h12v12h-12zM822 822h12v12h-12zM846 822h12v12h-12zM774 846h12v12h-12zM822 846h12v12h-12zM30 870h12v12h-12zM78 870h12v12h-12zM6 894h12v12h-12zM78 918h12v12h-12zM6 942h12v12h-12zM54 942h12v12h-12zM174 870h12v12h-12zM174 894h12v12h-12zM102 918h12v12h-12zM102 942h12v12h-12zM198 870h12v12h-12zM246 870h12v12h-12zM222 894h12v12h-12zM270 894h12v12h-12zM198 918h12v12h-12zM246 918h12v12h-12zM222 942h12v12h-12zM270 942h12v12h-12zM318 870h12v12h-12zM294 894h12v12h-12zM318 894h12v12h-12zM342 918h12v12h-12zM366 918h12v12h-12zM342 942h12v12h-12zM414 870h12v12h-12zM438 870h12v12h-12zM390 894h12v12h-12zM438 894h12v12h-12zM414 918h12v12h-12zM462 918h12v12h-12zM414 942h12v12h-12zM438 942h12v12h-12zM678 678h12v12h-12zM750 678h12v12h-12zM702 702h12v12h-12zM726 702h12v12h-12zM702 726h12v12h-12zM726 726h12v12h-12zM678 750h12v12h-12zM750 750h12v12h-12zM894 582h12v12h-12zM918 630h12v12h-12zM894 654h12v12h-12zM918 654h12v12h-12zM510 678h12v12h-12zM534 726h12v12h-12zM510 750h12v12h-12zM534 750h12v12h-12zM438 486h12v12h-12zM462 486h12v12h-12zM438 510h12v12h-12zM462 510h12v12h-12zM390 534h12v12h-12zM414 534h12v12h-12zM390 558h12v12h-12zM414 558h12v12h-12zM798 870h12v12h-12zM846 870h12v12h-12zM774 894h12v12h-12zM798 894h12v12h-12zM822 918h12v12h-12zM846 918h12v12h-12zM774 942h12v12h-12zM822 942h12v12h-12zM894 678h12v12h-12zM942 678h12v12h-12zM870 702h12v12h-12zM894 702h12v12h-12zM918 726h12v12h-12zM942 726h12v12h-12zM870 750h12v12h-12zM918 750h12v12h-12zM126 486h12v12h-12zM102 510h12v12h-12zM174 534h12v12h-12zM150 558h12v12h-12zM510 774h12v12h-12zM534 774h12v12h-12zM486 798h12v12h-12zM534 798h12v12h-12zM510 822h12v12h-12zM558 822h12v12h-12zM510 846h12v12h-12zM534 846h12v12h-12z"/><path fill="#fff" d="M312 192h24v24h-24zM288 168h24v24h-24zM264 144h24v24h-24zM240 120h24v24h-24zM216 96h24v24h-24zM192 72h24v24h-24zM168 48h24v24h-24zM144 24h24v24h-24zM144 48h24v24h-24zM144 72h24v24h-24zM144 96h24v24h-24zM144 120h24v24h-24zM144 144h24v24h-24zM168 168h24v24h-24zM192 192h24v24h-24zM216 216h24v24h-24zM240 240h24v24h-24zM264 264h24v24h-24zM288 288h24v24h-24zM312 312h24v24h-24zM336 336h24v24h-24zM360 360h24v24h-24zM384 384h24v24h-24zM408 408h24v24h-24zM432 432h24v24h-24zM456 456h24v24h-24zM456 432h24v24h-24zM456 408h24v24h-24zM456 384h24v24h-24zM456 360h24v24h-24zM456 336h24v24h-24zM456 312h24v24h-24zM456 288h24v24h-24zM456 264h24v24h-24zM456 240h24v24h-24zM456 216h24v24h-24zM456 192h24v24h-24zM456 168h24v24h-24zM456 144h24v24h-24zM432 144h24v24h-24zM408 144h24v24h-24zM384 144h24v24h-24zM384 120h24v24h-24zM384 96h24v24h-24zM384 72h24v24h-24zM384 48h24v24h-24zM384 24h24v24h-24zM360 48h24v24h-24zM408 48h24v24h-24zM432 48h24v24h-24zM456 48h24v24h-24zM336 48h24v24h-24zM312 48h24v24h-24zM288 48h24v24h-24zM264 48h24v24h-24zM240 48h24v24h-24zM216 48h24v24h-24zM192 48h24v24h-24zM120 48h24v24h-24zM96 48h24v24h-24zM72 48h24v24h-24zM48 48h24v24h-24zM72 72h24v24h-24zM96 96h24v24h-24zM120 120h24v24h-24zM216 192h24v24h-24zM240 192h24v24h-24zM264 192h24v24h-24zM288 192h24v24h-24zM336 192h24v24h-24zM360 192h24v24h-24zM384 192h24v24h-24zM168 192h24v24h-24zM144 192h24v24h-24zM120 168h24v24h-24zM96 144h24v24h-24zM72 120h24v24h-24zM48 96h24v24h-24zM48 120h24v24h-24zM48 144h24v24h-24zM48 168h24v24h-24zM48 192h24v24h-24zM48 216h24v24h-24zM48 240h24v24h-24zM48 264h24v24h-24zM72 264h24v24h-24zM96 264h24v24h-24zM120 288h24v24h-24zM144 312h24v24h-24zM168 288h24v24h-24zM192 264h24v24h-24zM216 240h24v24h-24zM240 216h24v24h-24zM312 144h24v24h-24zM336 120h24v24h-24zM360 96h24v24h-24zM432 24h24v24h-24zM432 72h24v24h-24zM432 96h24v24h-24zM432 120h24v24h-24zM384 168h24v24h-24zM336 216h24v24h-24zM312 240h24v24h-24zM288 264h24v24h-24zM264 288h24v24h-24zM240 312h24v24h-24zM216 312h24v24h-24zM192 312h24v24h-24zM168 312h24v24h-24zM168 336h24v24h-24zM168 360h24v24h-24zM192 360h24v24h-24zM216 360h24v24h-24zM240 360h24v24h-24zM216 336h24v24h-24zM144 264h24v24h-24zM120 240h24v24h-24zM96 216h24v24h-24zM72 192h24v24h-24zM72 216h24v24h-24zM72 240h24v24h-24zM72 288h24v24h-24zM72 312h24v24h-24zM72 336h24v24h-24zM72 360h24v24h-24zM72 384h24v24h-24zM72 408h24v24h-24zM72 432h24v24h-24zM72 456h24v24h-24zM96 456h24v24h-24zM120 456h24v24h-24zM144 456h24v24h-24zM168 456h24v24h-24zM48 456h24v24h-24zM24 456h24v24h-24zM0 456h24v24h-24zM24 432h24v24h-24zM48 408h24v24h-24zM96 360h24v24h-24zM120 336h24v24h-24zM336 144h24v24h-24zM336 168h24v24h-24zM360 168h24v24h-24zM312 168h24v24h-24zM264 168h24v24h-24zM240 168h24v24h-24zM216 168h24v24h-24zM192 168h24v24h-24zM240 144h24v24h-24zM216 120h24v24h-24zM312 216h24v24h-24zM336 240h24v24h-24zM360 216h24v24h-24zM360 240h24v24h-24zM360 264h24v24h-24zM360 288h24v24h-24zM360 312h24v24h-24zM360 336h24v24h-24zM360 384h24v24h-24zM336 384h24v24h-24zM312 384h24v24h-24zM288 384h24v24h-24zM264 384h24v24h-24zM240 384h24v24h-24zM216 384h24v24h-24zM192 384h24v24h-24zM168 384h24v24h-24zM144 384h24v24h-24zM120 384h24v24h-24zM96 384h24v24h-24zM336 360h24v24h-24zM312 336h24v24h-24zM288 312h24v24h-24zM240 264h24v24h-24zM216 288h24v24h-24zM192 288h24v24h-24zM144 288h24v24h-24zM96 288h24v24h-24zM768 216h24v24h-24zM744 240h24v24h-24zM720 264h24v24h-24zM696 288h24v24h-24zM672 312h24v24h-24zM648 336h24v24h-24zM624 336h24v24h-24zM600 336h24v24h-24zM576 336h24v24h-24zM672 336h24v24h-24zM696 336h24v24h-24zM720 336h24v24h-24zM744 336h24v24h-24zM768 336h24v24h-24zM792 336h24v24h-24zM816 336h24v24h-24zM840 336h24v24h-24zM864 336h24v24h-24zM864 360h24v24h-24zM864 384h24v24h-24zM864 408h24v24h-24zM864 432h24v24h-24zM840 432h24v24h-24zM816 432h24v24h-24zM792 432h24v24h-24zM768 432h24v24h-24zM744 432h24v24h-24zM720 432h24v24h-24zM696 432h24v24h-24zM672 432h24v24h-24zM648 432h24v24h-24zM624 432h24v24h-24zM600 432h24v24h-24zM576 432h24v24h-24zM552 432h24v24h-24zM528 432h24v24h-24zM504 432h24v24h-24zM480 432h24v24h-24zM504 408h24v24h-24zM528 384h24v24h-24zM552 360h24v24h-24zM600 312h24v24h-24zM624 288h24v24h-24zM648 264h24v24h-24zM648 312h24v24h-24zM696 360h24v24h-24zM720 384h24v24h-24zM696 312h24v24h-24zM696 264h24v24h-24zM696 240h24v24h-24zM696 216h24v24h-24zM696 192h24v24h-24zM696 168h24v24h-24zM696 144h24v24h-24zM696 120h24v24h-24zM696 96h24v24h-24zM696 72h24v24h-24zM720 96h24v24h-24zM744 120h24v24h-24zM768 144h24v24h-24zM792 168h24v24h-24zM816 192h24v24h-24zM840 216h24v24h-24zM816 216h24v24h-24zM792 216h24v24h-24zM744 216h24v24h-24zM720 216h24v24h-24zM672 216h24v24h-24zM648 216h24v24h-24zM648 240h24v24h-24zM648 288h24v24h-24zM648 360h24v24h-24zM672 360h24v24h-24zM720 360h24v24h-24zM744 360h24v24h-24zM768 360h24v24h-24zM792 360h24v24h-24zM792 384h24v24h-24zM792 408h24v24h-24zM792 456h24v24h-24zM744 408h24v24h-24zM624 360h24v24h-24zM600 360h24v24h-24zM576 360h24v24h-24zM528 360h24v24h-24zM504 360h24v24h-24zM480 360h24v24h-24zM480 336h24v24h-24zM480 312h24v24h-24zM480 288h24v24h-24zM480 264h24v24h-24zM480 240h24v24h-24zM480 216h24v24h-24zM504 192h24v24h-24zM528 168h24v24h-24zM552 144h24v24h-24zM576 120h24v24h-24zM600 96h24v24h-24zM624 72h24v24h-24zM648 48h24v24h-24zM672 24h24v24h-24zM696 48h24v24h-24zM720 72h24v24h-24zM744 96h24v24h-24zM768 120h24v24h-24zM792 144h24v24h-24zM816 168h24v24h-24zM840 192h24v24h-24zM840 168h24v24h-24zM840 240h24v24h-24zM840 264h24v24h-24zM840 288h24v24h-24zM840 312h24v24h-24zM840 360h24v24h-24zM840 384h24v24h-24zM840 408h24v24h-24zM840 144h24v24h-24zM840 120h24v24h-24zM840 96h24v24h-24zM816 120h24v24h-24zM768 168h24v24h-24zM744 192h24v24h-24zM672 264h24v24h-24zM624 312h24v24h-24zM552 384h24v24h-24zM528 408h24v24h-24zM672 288h24v24h-24zM672 384h24v24h-24zM672 408h24v24h-24zM576 384h24v24h-24zM576 408h24v24h-24zM600 384h24v24h-24zM744 264h24v24h-24zM768 264h24v24h-24zM792 264h24v24h-24zM816 264h24v24h-24zM864 264h24v24h-24zM888 264h24v24h-24zM912 264h24v24h-24zM888 240h24v24h-24zM864 216h24v24h-24zM720 48h24v24h-24zM744 48h24v24h-24zM768 48h24v24h-24zM792 48h24v24h-24zM816 48h24v24h-24zM840 48h24v24h-24zM816 24h24v24h-24zM768 72h24v24h-24zM720 120h24v24h-24zM672 168h24v24h-24zM648 192h24v24h-24zM624 216h24v24h-24zM600 192h24v24h-24zM576 168h24v24h-24zM528 120h24v24h-24zM504 96h24v24h-24zM720 312h24v24h-24zM816 408h24v24h-24zM552 120h24v24h-24zM552 96h24v24h-24zM552 72h24v24h-24zM528 96h24v24h-24zM504 120h24v24h-24zM504 144h24v24h-24zM504 168h24v24h-24zM504 216h24v24h-24zM504 240h24v24h-24zM504 264h24v24h-24zM504 288h24v24h-24zM504 312h24v24h-24zM528 312h24v24h-24zM552 312h24v24h-24zM576 312h24v24h-24zM744 312h24v24h-24zM312 744h24v24h-24zM288 768h24v24h-24zM264 792h24v24h-24zM240 816h24v24h-24zM216 840h24v24h-24zM192 864h24v24h-24zM168 888h24v24h-24zM144 912h24v24h-24zM144 888h24v24h-24zM144 864h24v24h-24zM144 840h24v24h-24zM144 816h24v24h-24zM144 792h24v24h-24zM168 768h24v24h-24zM192 744h24v24h-24zM216 720h24v24h-24zM240 696h24v24h-24zM264 672h24v24h-24zM288 648h24v24h-24zM312 624h24v24h-24zM336 600h24v24h-24zM360 576h24v24h-24zM384 552h24v24h-24zM408 528h24v24h-24zM432 504h24v24h-24zM456 480h24v24h-24zM456 504h24v24h-24zM456 528h24v24h-24zM456 552h24v24h-24zM456 576h24v24h-24zM456 600h24v24h-24zM456 624h24v24h-24zM456 648h24v24h-24zM456 672h24v24h-24zM456 696h24v24h-24zM456 720h24v24h-24zM456 744h24v24h-24zM456 768h24v24h-24zM456 792h24v24h-24zM432 792h24v24h-24zM408 792h24v24h-24zM384 792h24v24h-24zM384 816h24v24h-24zM384 840h24v24h-24zM384 864h24v24h-24zM384 888h24v24h-24zM384 912h24v24h-24zM360 888h24v24h-24zM408 888h24v24h-24zM432 888h24v24h-24zM456 888h24v24h-24zM336 888h24v24h-24zM312 888h24v24h-24zM288 888h24v24h-24zM264 888h24v24h-24zM240 888h24v24h-24zM216 888h24v24h-24zM192 888h24v24h-24zM120 888h24v24h-24zM96 888h24v24h-24zM72 888h24v24h-24zM48 888h24v24h-24zM72 864h24v24h-24zM96 840h24v24h-24zM120 816h24v24h-24zM216 744h24v24h-24zM240 744h24v24h-24zM264 744h24v24h-24zM288 744h24v24h-24zM336 744h24v24h-24zM360 744h24v24h-24zM384 744h24v24h-24zM168 744h24v24h-24zM144 744h24v24h-24zM120 768h24v24h-24zM96 792h24v24h-24zM72 816h24v24h-24zM48 840h24v24h-24zM48 816h24v24h-24zM48 792h24v24h-24zM48 768h24v24h-24zM48 744h24v24h-24zM48 720h24v24h-24zM48 696h24v24h-24zM48 672h24v24h-24zM72 672h24v24h-24zM96 672h24v24h-24zM120 648h24v24h-24zM144 624h24v24h-24zM168 648h24v24h-24zM192 672h24v24h-24zM216 696h24v24h-24zM240 720h24v24h-24zM312 792h24v24h-24zM336 816h24v24h-24zM360 840h24v24h-24zM432 912h24v24h-24zM432 864h24v24h-24zM432 840h24v24h-24zM432 816h24v24h-24zM384 768h24v24h-24zM336 720h24v24h-24zM312 696h24v24h-24zM288 672h24v24h-24zM264 648h24v24h-24zM240 624h24v24h-24zM216 624h24v24h-24zM192 624h24v24h-24zM168 624h24v24h-24zM168 600h24v24h-24zM168 576h24v24h-24zM192 576h24v24h-24zM216 576h24v24h-24zM240 576h24v24h-24zM216 600h24v24h-24zM144 672h24v24h-24zM120 696h24v24h-24zM96 720h24v24h-24zM72 744h24v24h-24zM72 720h24v24h-24zM72 696h24v24h-24zM72 648h24v24h-24zM72 624h24v24h-24zM72 600h24v24h-24zM72 576h24v24h-24zM72 552h24v24h-24zM72 528h24v24h-24zM72 504h24v24h-24zM72 480h24v24h-24zM96 480h24v24h-24zM120 480h24v24h-24zM144 480h24v24h-24zM168 480h24v24h-24zM48 480h24v24h-24zM24 480h24v24h-24zM0 480h24v24h-24zM24 504h24v24h-24zM48 528h24v24h-24zM96 576h24v24h-24zM120 600h24v24h-24zM336 792h24v24h-24zM336 768h24v24h-24zM360 768h24v24h-24zM312 768h24v24h-24zM264 768h24v24h-24zM240 768h24v24h-24zM216 768h24v24h-24zM192 768h24v24h-24zM240 792h24v24h-24zM216 816h24v24h-24zM312 720h24v24h-24zM336 696h24v24h-24zM360 720h24v24h-24zM360 696h24v24h-24zM360 672h24v24h-24zM360 648h24v24h-24zM360 624h24v24h-24zM360 600h24v24h-24zM360 552h24v24h-24zM336 552h24v24h-24zM312 552h24v24h-24zM288 552h24v24h-24zM264 552h24v24h-24zM240 552h24v24h-24zM216 552h24v24h-24zM192 552h24v24h-24zM168 552h24v24h-24zM144 552h24v24h-24zM120 552h24v24h-24zM96 552h24v24h-24zM336 576h24v24h-24zM312 600h24v24h-24zM288 624h24v24h-24zM240 672h24v24h-24zM216 648h24v24h-24zM192 648h24v24h-24zM144 648h24v24h-24zM96 648h24v24h-24zM768 720h24v24h-24zM744 696h24v24h-24zM720 672h24v24h-24zM696 648h24v24h-24zM672 624h24v24h-24zM648 600h24v24h-24zM624 600h24v24h-24zM600 600h24v24h-24zM576 600h24v24h-24zM672 600h24v24h-24zM696 600h24v24h-24zM720 600h24v24h-24zM744 600h24v24h-24zM768 600h24v24h-24zM792 600h24v24h-24zM816 600h24v24h-24zM840 600h24v24h-24zM864 600h24v24h-24zM864 576h24v24h-24zM864 552h24v24h-24zM864 528h24v24h-24zM864 504h24v24h-24zM840 504h24v24h-24zM816 504h24v24h-24zM792 504h24v24h-24zM768 504h24v24h-24zM744 504h24v24h-24zM720 504h24v24h-24zM696 504h24v24h-24zM672 504h24v24h-24zM648 504h24v24h-24zM624 504h24v24h-24zM600 504h24v24h-24zM576 504h24v24h-24zM552 504h24v24h-24zM528 504h24v24h-24zM504 504h24v24h-24zM480 504h24v24h-24zM504 528h24v24h-24zM528 552h24v24h-24zM552 576h24v24h-24zM600 624h24v24h-24zM624 648h24v24h-24zM648 672h24v24h-24zM648 624h24v24h-24zM696 576h24v24h-24zM720 552h24v24h-24zM696 624h24v24h-24zM696 672h24v24h-24zM696 696h24v24h-24zM696 720h24v24h-24zM696 744h24v24h-24zM696 768h24v24h-24zM696 792h24v24h-24zM696 816h24v24h-24zM696 840h24v24h-24zM696 864h24v24h-24zM720 840h24v24h-24zM744 816h24v24h-24zM768 792h24v24h-24zM792 768h24v24h-24zM816 744h24v24h-24zM840 720h24v24h-24zM816 720h24v24h-24zM792 720h24v24h-24zM744 720h24v24h-24zM720 720h24v24h-24zM672 720h24v24h-24zM648 720h24v24h-24zM648 696h24v24h-24zM648 648h24v24h-24zM648 576h24v24h-24zM672 576h24v24h-24zM720 576h24v24h-24zM744 576h24v24h-24zM768 576h24v24h-24zM792 576h24v24h-24zM792 552h24v24h-24zM792 528h24v24h-24zM792 480h24v24h-24zM744 528h24v24h-24zM624 576h24v24h-24zM600 576h24v24h-24zM576 576h24v24h-24zM528 576h24v24h-24zM504 576h24v24h-24zM480 576h24v24h-24zM480 600h24v24h-24zM480 624h24v24h-24zM480 648h24v24h-24zM480 672h24v24h-24zM480 696h24v24h-24zM480 720h24v24h-24zM504 744h24v24h-24zM528 768h24v24h-24zM552 792h24v24h-24zM576 816h24v24h-24zM600 840h24v24h-24zM624 864h24v24h-24zM648 888h24v24h-24zM672 912h24v24h-24zM696 888h24v24h-24zM720 864h24v24h-24zM744 840h24v24h-24zM768 816h24v24h-24zM792 792h24v24h-24zM816 768h24v24h-24zM840 744h24v24h-24zM840 768h24v24h-24zM840 696h24v24h-24zM840 672h24v24h-24zM840 648h24v24h-24zM840 624h24v24h-24zM840 576h24v24h-24zM840 552h24v24h-24zM840 528h24v24h-24zM840 792h24v24h-24zM840 816h24v24h-24zM840 840h24v24h-24zM816 816h24v24h-24zM768 768h24v24h-24zM744 744h24v24h-24zM672 672h24v24h-24zM624 624h24v24h-24zM552 552h24v24h-24zM528 528h24v24h-24zM672 648h24v24h-24zM672 552h24v24h-24zM672 528h24v24h-24zM576 552h24v24h-24zM576 528h24v24h-24zM600 552h24v24h-24zM744 672h24v24h-24zM768 672h24v24h-24zM792 672h24v24h-24zM816 672h24v24h-24zM864 672h24v24h-24zM888 672h24v24h-24zM912 672h24v24h-24zM888 696h24v24h-24zM864 720h24v24h-24zM720 888h24v24h-24zM744 888h24v24h-24zM768 888h24v24h-24zM792 888h24v24h-24zM816 888h24v24h-24zM840 888h24v24h-24zM816 912h24v24h-24zM768 864h24v24h-24zM720 816h24v24h-24zM672 768h24v24h-24zM648 744h24v24h-24zM624 720h24v24h-24zM600 744h24v24h-24zM576 768h24v24h-24zM528 816h24v24h-24zM504 840h24v24h-24zM720 624h24v24h-24zM816 528h24v24h-24zM552 816h24v24h-24zM552 840h24v24h-24zM552 864h24v24h-24zM528 840h24v24h-24zM504 816h24v24h-24zM504 792h24v24h-24zM504 768h24v24h-24zM504 720h24v24h-24zM504 696h24v24h-24zM504 672h24v24h-24zM504 648h24v24h-24zM504 624h24v24h-24zM528 624h24v24h-24zM552 624h24v24h-24zM576 624h24v24h-24zM744 624h24v24h-24z"/></svg>