<svg xmlns="http://www.w3.org/2000/svg" width="960" height="960" viewBox="0 0 960 960" shape-rendering="crispEdges"><path fill="#000" d="M0 0h960v960h-960z"/><path fill="#febaa0" d="M0 0h96v96h-96zM0 192h96v96h-96zM0 640h96v32h-96zM0 768h96v96h-96zM96 96h96v96h-96zM96 288h96v32h-96zM96 672h96v96h-96zM96 864h96v96h-96zM192 0h96v96h-96zM192 192h96v96h-96zM192 640h96v32h-96zM192 768h96v96h-96zM288 96h96v96h-96zM288 288h96v32h-96zM288 672h96v96h-96zM288 864h96v96h-96zM384 0h96v96h-96zM384 192h96v96h-96zM384 640h96v32h-96zM384 768h96v96h-96zM480 96h96v96h-96zM480 288h96v32h-96zM480 672h96v96h-96zM480 864h96v96h-96zM576 0h96v96h-96zM576 192h96v96h-96zM576 640h96v32h-96zM576 768h96v96h-96zM672 96h96v96h-96zM672 288h96v32h-96zM672 672h96v96h-96zM672 864h96v96h-96zM768 0h96v96h-96zM768 192h96v96h-96zM768 640h96v32h-96zM768 768h96v96h-96zM864 96h96v96h-96zM864 288h96v32h-96zM864 672h96v96h-96zM864 864h96v96h-96z"/><path fill="#d6e024" d="M12 0h12v12h-12zM24 0h12v12h-12zM12 36h12v12h-12zM24 36h12v12h-12zM53 0h3v12h-3zM48 5h12v3h-12zM53 12h3v12h-3zM48 17h12v3h-12zM89 24h3v12h-3zM84 29h12v3h-12zM89 36h3v12h-3zM84 41h12v3h-12zM96 0h12v12h-12zM132 0h12v12h-12zM108 12h12v12h-12zM120 24h12v12h-12zM96 36h12v12h-12zM132 36h12v12h-12zM144 0h12v12h-12zM180 0h12v12h-12zM168 12h12v12h-12zM156 24h12v12h-12zM144 36h12v12h-12zM180 36h12v12h-12zM204 0h12v12h-12zM228 0h12v12h-12zM192 12h12v12h-12zM228 24h12v12h-12zM192 36h12v12h-12zM216 36h12v12h-12zM252 0h12v12h-12zM264 24h12v12h-12zM252 36h12v12h-12zM264 36h12v12h-12zM309 21h6v6h-6zM339 3h6v6h-6zM339 15h6v6h-6zM375 27h6v6h-6zM375 39h6v6h-6zM384 0h12v12h-12zM396 12h12v12h-12zM408 24h12v12h-12zM420 36h12v12h-12zM437 0h3v12h-3zM432 5h12v3h-12zM461 0h3v12h-3zM456 5h12v3h-12zM449 12h3v12h-3zM444 17h12v3h-12zM473 12h3v12h-3zM468 17h12v3h-12zM437 24h3v12h-3zM432 29h12v3h-12zM461 24h3v12h-3zM456 29h12v3h-12zM449 36h3v12h-3zM444 41h12v3h-12zM473 36h3v12h-3zM468 41h12v3h-12zM480 0h12v12h-12zM504 0h12v12h-12zM492 12h12v12h-12zM516 12h12v12h-12zM480 24h12v12h-12zM504 24h12v12h-12zM492 36h12v12h-12zM516 36h12v12h-12zM531 15h6v6h-6zM567 15h6v6h-6zM531 27h6v6h-6zM567 27h6v6h-6zM591 15h6v6h-6zM603 15h6v6h-6zM591 27h6v6h-6zM603 27h6v6h-6zM648 0h12v12h-12zM660 0h12v12h-12zM624 36h12v12h-12zM636 36h12v12h-12zM677 0h3v12h-3zM672 5h12v3h-12zM689 12h3v12h-3zM684 17h12v3h-12zM677 24h3v12h-3zM672 29h12v3h-12zM701 24h3v12h-3zM696 29h12v3h-12zM677 36h3v12h-3zM672 41h12v3h-12zM689 36h3v12h-3zM684 41h12v3h-12zM713 36h3v12h-3zM708 41h12v3h-12zM732 0h12v12h-12zM744 0h12v12h-12zM732 36h12v12h-12zM744 36h12v12h-12zM771 3h6v6h-6zM783 15h6v6h-6zM795 27h6v6h-6zM807 39h6v6h-6zM831 3h6v6h-6zM843 3h6v6h-6zM843 15h6v6h-6zM831 39h6v6h-6zM864 0h12v12h-12zM900 0h12v12h-12zM876 24h12v12h-12zM888 24h12v12h-12zM864 36h12v12h-12zM900 36h12v12h-12zM915 3h6v6h-6zM927 15h6v6h-6zM939 27h6v6h-6zM951 39h6v6h-6zM0 48h12v12h-12zM36 48h12v12h-12zM12 72h12v12h-12zM24 72h12v12h-12zM0 84h12v12h-12zM36 84h12v12h-12zM53 48h3v12h-3zM48 53h12v3h-12zM65 60h3v12h-3zM60 65h12v3h-12zM77 72h3v12h-3zM72 77h12v3h-12zM89 84h3v12h-3zM84 89h12v3h-12zM101 48h3v12h-3zM96 53h12v3h-12zM137 48h3v12h-3zM132 53h12v3h-12zM113 60h3v12h-3zM108 65h12v3h-12zM125 60h3v12h-3zM120 65h12v3h-12zM101 72h3v12h-3zM96 77h12v3h-12zM137 72h3v12h-3zM132 77h12v3h-12zM147 51h6v6h-6zM171 51h6v6h-6zM183 63h6v6h-6zM147 75h6v6h-6zM159 87h6v6h-6zM183 87h6v6h-6zM204 48h12v12h-12zM228 48h12v12h-12zM216 60h12v12h-12zM216 72h12v12h-12zM204 84h12v12h-12zM228 84h12v12h-12zM245 60h3v12h-3zM240 65h12v3h-12zM281 60h3v12h-3zM276 65h12v3h-12zM245 72h3v12h-3zM240 77h12v3h-12zM257 72h3v12h-3zM252 77h12v3h-12zM291 51h6v6h-6zM327 51h6v6h-6zM303 63h6v6h-6zM315 63h6v6h-6zM303 75h6v6h-6zM291 87h6v6h-6zM327 87h6v6h-6zM348 48h12v12h-12zM372 48h12v12h-12zM336 60h12v12h-12zM372 72h12v12h-12zM336 84h12v12h-12zM360 84h12v12h-12zM401 48h3v12h-3zM396 53h12v3h-12zM425 48h3v12h-3zM420 53h12v3h-12zM389 60h3v12h-3zM384 65h12v3h-12zM401 60h3v12h-3zM396 65h12v3h-12zM413 72h3v12h-3zM408 77h12v3h-12zM425 72h3v12h-3zM420 77h12v3h-12zM389 84h3v12h-3zM384 89h12v3h-12zM413 84h3v12h-3zM408 89h12v3h-12zM435 51h6v6h-6zM471 51h6v6h-6zM447 63h6v6h-6zM459 63h6v6h-6zM459 75h6v6h-6zM435 87h6v6h-6zM471 87h6v6h-6zM485 48h3v12h-3zM480 53h12v3h-12zM521 48h3v12h-3zM516 53h12v3h-12zM497 60h3v12h-3zM492 65h12v3h-12zM509 60h3v12h-3zM504 65h12v3h-12zM509 72h3v12h-3zM504 77h12v3h-12zM485 84h3v12h-3zM480 89h12v3h-12zM521 84h3v12h-3zM516 89h12v3h-12zM528 48h12v12h-12zM540 48h12v12h-12zM528 60h12v12h-12zM540 60h12v12h-12zM552 72h12v12h-12zM564 72h12v12h-12zM552 84h12v12h-12zM564 84h12v12h-12zM588 60h12v12h-12zM600 60h12v12h-12zM588 72h12v12h-12zM600 72h12v12h-12zM651 51h6v6h-6zM663 51h6v6h-6zM651 63h6v6h-6zM663 63h6v6h-6zM627 75h6v6h-6zM639 75h6v6h-6zM627 87h6v6h-6zM639 87h6v6h-6zM687 51h6v6h-6zM711 51h6v6h-6zM687 87h6v6h-6zM711 87h6v6h-6zM747 51h6v6h-6zM723 63h6v6h-6zM735 63h6v6h-6zM759 63h6v6h-6zM723 75h6v6h-6zM747 75h6v6h-6zM759 75h6v6h-6zM735 87h6v6h-6zM768 48h12v12h-12zM804 48h12v12h-12zM780 60h12v12h-12zM792 60h12v12h-12zM768 72h12v12h-12zM804 72h12v12h-12zM819 51h6v6h-6zM843 51h6v6h-6zM855 63h6v6h-6zM819 75h6v6h-6zM831 87h6v6h-6zM855 87h6v6h-6zM864 48h12v12h-12zM900 48h12v12h-12zM876 60h12v12h-12zM888 60h12v12h-12zM876 72h12v12h-12zM864 84h12v12h-12zM900 84h12v12h-12zM917 48h3v12h-3zM912 53h12v3h-12zM953 48h3v12h-3zM948 53h12v3h-12zM917 72h3v12h-3zM912 77h12v3h-12zM953 72h3v12h-3zM948 77h12v3h-12zM12 96h12v12h-12zM0 108h12v12h-12zM24 108h12v12h-12zM12 120h12v12h-12zM36 120h12v12h-12zM24 132h12v12h-12zM77 96h3v12h-3zM72 101h12v3h-12zM89 96h3v12h-3zM84 101h12v3h-12zM77 108h3v12h-3zM72 113h12v3h-12zM89 108h3v12h-3zM84 113h12v3h-12zM53 120h3v12h-3zM48 125h12v3h-12zM65 120h3v12h-3zM60 125h12v3h-12zM53 132h3v12h-3zM48 137h12v3h-12zM65 132h3v12h-3zM60 137h12v3h-12zM96 108h12v12h-12zM132 108h12v12h-12zM96 120h12v12h-12zM132 120h12v12h-12zM149 96h3v12h-3zM144 101h12v3h-12zM185 96h3v12h-3zM180 101h12v3h-12zM149 132h3v12h-3zM144 137h12v3h-12zM185 132h3v12h-3zM180 137h12v3h-12zM207 99h6v6h-6zM195 111h6v6h-6zM231 123h6v6h-6zM219 135h6v6h-6zM243 111h6v6h-6zM279 111h6v6h-6zM243 123h6v6h-6zM279 123h6v6h-6zM291 111h6v6h-6zM327 111h6v6h-6zM291 123h6v6h-6zM327 123h6v6h-6zM353 96h3v12h-3zM348 101h12v3h-12zM377 96h3v12h-3zM372 101h12v3h-12zM365 108h3v12h-3zM360 113h12v3h-12zM365 120h3v12h-3zM360 125h12v3h-12zM353 132h3v12h-3zM348 137h12v3h-12zM377 132h3v12h-3zM372 137h12v3h-12zM401 96h3v12h-3zM396 101h12v3h-12zM425 96h3v12h-3zM420 101h12v3h-12zM413 108h3v12h-3zM408 113h12v3h-12zM413 120h3v12h-3zM408 125h12v3h-12zM401 132h3v12h-3zM396 137h12v3h-12zM425 132h3v12h-3zM420 137h12v3h-12zM444 96h12v12h-12zM432 108h12v12h-12zM456 108h12v12h-12zM468 108h12v12h-12zM432 120h12v12h-12zM444 120h12v12h-12zM468 120h12v12h-12zM456 132h12v12h-12zM492 96h12v12h-12zM480 108h12v12h-12zM504 108h12v12h-12zM516 108h12v12h-12zM480 120h12v12h-12zM492 120h12v12h-12zM516 120h12v12h-12zM504 132h12v12h-12zM543 99h6v6h-6zM567 99h6v6h-6zM531 111h6v6h-6zM543 111h6v6h-6zM555 123h6v6h-6zM567 123h6v6h-6zM531 135h6v6h-6zM555 135h6v6h-6zM615 99h6v6h-6zM603 111h6v6h-6zM591 123h6v6h-6zM579 135h6v6h-6zM639 99h6v6h-6zM663 99h6v6h-6zM627 111h6v6h-6zM639 111h6v6h-6zM651 123h6v6h-6zM663 123h6v6h-6zM627 135h6v6h-6zM651 135h6v6h-6zM687 99h6v6h-6zM711 99h6v6h-6zM687 135h6v6h-6zM711 135h6v6h-6zM720 96h12v12h-12zM756 96h12v12h-12zM732 108h12v12h-12zM744 120h12v12h-12zM720 132h12v12h-12zM756 132h12v12h-12zM768 96h12v12h-12zM804 96h12v12h-12zM780 108h12v12h-12zM780 120h12v12h-12zM792 120h12v12h-12zM768 132h12v12h-12zM804 132h12v12h-12zM819 99h6v6h-6zM831 99h6v6h-6zM819 111h6v6h-6zM831 111h6v6h-6zM843 123h6v6h-6zM855 123h6v6h-6zM843 135h6v6h-6zM855 135h6v6h-6zM881 108h3v12h-3zM876 113h12v3h-12zM893 108h3v12h-3zM888 113h12v3h-12zM881 120h3v12h-3zM876 125h12v3h-12zM893 120h3v12h-3zM888 125h12v3h-12zM915 99h6v6h-6zM951 99h6v6h-6zM927 111h6v6h-6zM939 111h6v6h-6zM915 135h6v6h-6zM951 135h6v6h-6zM39 147h6v6h-6zM39 159h6v6h-6zM3 171h6v6h-6zM3 183h6v6h-6zM53 144h3v12h-3zM48 149h12v3h-12zM89 144h3v12h-3zM84 149h12v3h-12zM77 156h3v12h-3zM72 161h12v3h-12zM65 168h3v12h-3zM60 173h12v3h-12zM77 168h3v12h-3zM72 173h12v3h-12zM53 180h3v12h-3zM48 185h12v3h-12zM89 180h3v12h-3zM84 185h12v3h-12zM101 144h3v12h-3zM96 149h12v3h-12zM113 144h3v12h-3zM108 149h12v3h-12zM137 144h3v12h-3zM132 149h12v3h-12zM101 156h3v12h-3zM96 161h12v3h-12zM125 156h3v12h-3zM120 161h12v3h-12zM113 168h3v12h-3zM108 173h12v3h-12zM101 180h3v12h-3zM96 185h12v3h-12zM149 144h3v12h-3zM144 149h12v3h-12zM185 144h3v12h-3zM180 149h12v3h-12zM161 156h3v12h-3zM156 161h12v3h-12zM173 156h3v12h-3zM168 161h12v3h-12zM173 168h3v12h-3zM168 173h12v3h-12zM149 180h3v12h-3zM144 185h12v3h-12zM185 180h3v12h-3zM180 185h12v3h-12zM195 147h6v6h-6zM231 147h6v6h-6zM207 159h6v6h-6zM219 159h6v6h-6zM207 171h6v6h-6zM219 171h6v6h-6zM195 183h6v6h-6zM231 183h6v6h-6zM245 156h3v12h-3zM240 161h12v3h-12zM281 156h3v12h-3zM276 161h12v3h-12zM245 168h3v12h-3zM240 173h12v3h-12zM281 168h3v12h-3zM276 173h12v3h-12zM293 144h3v12h-3zM288 149h12v3h-12zM305 144h3v12h-3zM300 149h12v3h-12zM293 156h3v12h-3zM288 161h12v3h-12zM305 156h3v12h-3zM300 161h12v3h-12zM317 168h3v12h-3zM312 173h12v3h-12zM329 168h3v12h-3zM324 173h12v3h-12zM317 180h3v12h-3zM312 185h12v3h-12zM329 180h3v12h-3zM324 185h12v3h-12zM336 144h12v12h-12zM360 144h12v12h-12zM372 144h12v12h-12zM348 156h12v12h-12zM372 156h12v12h-12zM360 168h12v12h-12zM372 180h12v12h-12zM384 144h12v12h-12zM420 144h12v12h-12zM396 156h12v12h-12zM408 156h12v12h-12zM384 168h12v12h-12zM420 168h12v12h-12zM432 144h12v12h-12zM456 144h12v12h-12zM456 156h12v12h-12zM468 156h12v12h-12zM432 168h12v12h-12zM444 168h12v12h-12zM444 180h12v12h-12zM468 180h12v12h-12zM483 147h6v6h-6zM507 147h6v6h-6zM519 159h6v6h-6zM483 171h6v6h-6zM495 183h6v6h-6zM519 183h6v6h-6zM545 144h3v12h-3zM540 149h12v3h-12zM569 144h3v12h-3zM564 149h12v3h-12zM533 156h3v12h-3zM528 161h12v3h-12zM569 168h3v12h-3zM564 173h12v3h-12zM533 180h3v12h-3zM528 185h12v3h-12zM557 180h3v12h-3zM552 185h12v3h-12zM581 144h3v12h-3zM576 149h12v3h-12zM605 144h3v12h-3zM600 149h12v3h-12zM617 156h3v12h-3zM612 161h12v3h-12zM581 168h3v12h-3zM576 173h12v3h-12zM593 180h3v12h-3zM588 185h12v3h-12zM617 180h3v12h-3zM612 185h12v3h-12zM627 147h6v6h-6zM639 159h6v6h-6zM651 171h6v6h-6zM663 183h6v6h-6zM677 144h3v12h-3zM672 149h12v3h-12zM701 144h3v12h-3zM696 149h12v3h-12zM689 156h3v12h-3zM684 161h12v3h-12zM713 156h3v12h-3zM708 161h12v3h-12zM677 168h3v12h-3zM672 173h12v3h-12zM701 168h3v12h-3zM696 173h12v3h-12zM689 180h3v12h-3zM684 185h12v3h-12zM713 180h3v12h-3zM708 185h12v3h-12zM723 147h6v6h-6zM759 147h6v6h-6zM735 171h6v6h-6zM747 171h6v6h-6zM723 183h6v6h-6zM759 183h6v6h-6zM785 144h3v12h-3zM780 149h12v3h-12zM773 156h3v12h-3zM768 161h12v3h-12zM797 156h3v12h-3zM792 161h12v3h-12zM785 168h3v12h-3zM780 173h12v3h-12zM809 168h3v12h-3zM804 173h12v3h-12zM797 180h3v12h-3zM792 185h12v3h-12zM816 144h12v12h-12zM852 144h12v12h-12zM828 156h12v12h-12zM828 168h12v12h-12zM840 168h12v12h-12zM816 180h12v12h-12zM852 180h12v12h-12zM869 144h3v12h-3zM864 149h12v3h-12zM881 156h3v12h-3zM876 161h12v3h-12zM893 168h3v12h-3zM888 173h12v3h-12zM905 180h3v12h-3zM900 185h12v3h-12zM915 147h6v6h-6zM951 147h6v6h-6zM927 159h6v6h-6zM939 171h6v6h-6zM915 183h6v6h-6zM951 183h6v6h-6zM3 195h6v6h-6zM39 195h6v6h-6zM27 207h6v6h-6zM15 219h6v6h-6zM3 231h6v6h-6zM39 231h6v6h-6zM51 195h6v6h-6zM63 195h6v6h-6zM75 231h6v6h-6zM87 231h6v6h-6zM99 195h6v6h-6zM135 195h6v6h-6zM123 207h6v6h-6zM111 219h6v6h-6zM99 231h6v6h-6zM135 231h6v6h-6zM149 192h3v12h-3zM144 197h12v3h-12zM185 192h3v12h-3zM180 197h12v3h-12zM161 204h3v12h-3zM156 209h12v3h-12zM173 204h3v12h-3zM168 209h12v3h-12zM161 216h3v12h-3zM156 221h12v3h-12zM173 216h3v12h-3zM168 221h12v3h-12zM149 228h3v12h-3zM144 233h12v3h-12zM185 228h3v12h-3zM180 233h12v3h-12zM192 192h12v12h-12zM204 204h12v12h-12zM192 216h12v12h-12zM216 216h12v12h-12zM192 228h12v12h-12zM204 228h12v12h-12zM228 228h12v12h-12zM257 192h3v12h-3zM252 197h12v3h-12zM245 204h3v12h-3zM240 209h12v3h-12zM257 204h3v12h-3zM252 209h12v3h-12zM269 216h3v12h-3zM264 221h12v3h-12zM281 216h3v12h-3zM276 221h12v3h-12zM269 228h3v12h-3zM264 233h12v3h-12zM288 192h12v12h-12zM300 204h12v12h-12zM312 216h12v12h-12zM324 228h12v12h-12zM375 267h6v6h-6zM351 195h6v6h-6zM363 195h6v6h-6zM351 207h6v6h-6zM375 207h6v6h-6zM339 219h6v6h-6zM363 219h6v6h-6zM351 231h6v6h-6zM363 231h6v6h-6zM423 195h6v6h-6zM411 207h6v6h-6zM399 219h6v6h-6zM423 219h6v6h-6zM387 231h6v6h-6zM411 231h6v6h-6zM423 231h6v6h-6zM447 195h6v6h-6zM471 195h6v6h-6zM435 207h6v6h-6zM459 207h6v6h-6zM447 219h6v6h-6zM471 219h6v6h-6zM435 231h6v6h-6zM459 231h6v6h-6zM485 192h3v12h-3zM480 197h12v3h-12zM509 192h3v12h-3zM504 197h12v3h-12zM497 204h3v12h-3zM492 209h12v3h-12zM521 204h3v12h-3zM516 209h12v3h-12zM485 216h3v12h-3zM480 221h12v3h-12zM509 216h3v12h-3zM504 221h12v3h-12zM497 228h3v12h-3zM492 233h12v3h-12zM521 228h3v12h-3zM516 233h12v3h-12zM533 192h3v12h-3zM528 197h12v3h-12zM569 192h3v12h-3zM564 197h12v3h-12zM545 204h3v12h-3zM540 209h12v3h-12zM545 216h3v12h-3zM540 221h12v3h-12zM557 216h3v12h-3zM552 221h12v3h-12zM533 228h3v12h-3zM528 233h12v3h-12zM569 228h3v12h-3zM564 233h12v3h-12zM576 192h12v12h-12zM612 192h12v12h-12zM588 216h12v12h-12zM600 216h12v12h-12zM576 228h12v12h-12zM612 228h12v12h-12zM624 192h12v12h-12zM648 192h12v12h-12zM648 204h12v12h-12zM660 204h12v12h-12zM624 216h12v12h-12zM636 216h12v12h-12zM636 228h12v12h-12zM660 228h12v12h-12zM689 192h3v12h-3zM684 197h12v3h-12zM713 192h3v12h-3zM708 197h12v3h-12zM677 204h3v12h-3zM672 209h12v3h-12zM689 204h3v12h-3zM684 209h12v3h-12zM701 216h3v12h-3zM696 221h12v3h-12zM713 216h3v12h-3zM708 221h12v3h-12zM677 228h3v12h-3zM672 233h12v3h-12zM701 228h3v12h-3zM696 233h12v3h-12zM720 192h12v12h-12zM756 192h12v12h-12zM744 204h12v12h-12zM732 216h12v12h-12zM720 228h12v12h-12zM756 228h12v12h-12zM771 207h6v6h-6zM807 207h6v6h-6zM771 219h6v6h-6zM807 219h6v6h-6zM828 192h12v12h-12zM852 192h12v12h-12zM816 204h12v12h-12zM828 204h12v12h-12zM840 216h12v12h-12zM852 216h12v12h-12zM816 228h12v12h-12zM840 228h12v12h-12zM879 195h6v6h-6zM903 195h6v6h-6zM867 207h6v6h-6zM879 207h6v6h-6zM891 219h6v6h-6zM903 219h6v6h-6zM867 231h6v6h-6zM891 231h6v6h-6zM929 192h3v12h-3zM924 197h12v3h-12zM917 204h3v12h-3zM912 209h12v3h-12zM929 204h3v12h-3zM924 209h12v3h-12zM941 216h3v12h-3zM936 221h12v3h-12zM953 216h3v12h-3zM948 221h12v3h-12zM941 228h3v12h-3zM936 233h12v3h-12zM5 240h3v12h-3zM0 245h12v3h-12zM41 240h3v12h-3zM36 245h12v3h-12zM17 264h3v12h-3zM12 269h12v3h-12zM29 264h3v12h-3zM24 269h12v3h-12zM5 276h3v12h-3zM0 281h12v3h-12zM41 276h3v12h-3zM36 281h12v3h-12zM51 255h6v6h-6zM63 255h6v6h-6zM51 267h6v6h-6zM87 267h6v6h-6zM99 243h6v6h-6zM99 255h6v6h-6zM135 267h6v6h-6zM135 279h6v6h-6zM144 252h12v12h-12zM156 252h12v12h-12zM144 264h12v12h-12zM180 264h12v12h-12zM195 243h6v6h-6zM219 243h6v6h-6zM219 255h6v6h-6zM231 255h6v6h-6zM195 267h6v6h-6zM207 267h6v6h-6zM207 279h6v6h-6zM231 279h6v6h-6zM255 243h6v6h-6zM243 255h6v6h-6zM255 255h6v6h-6zM267 267h6v6h-6zM279 267h6v6h-6zM267 279h6v6h-6zM293 252h3v12h-3zM288 257h12v3h-12zM305 252h3v12h-3zM300 257h12v3h-12zM293 264h3v12h-3zM288 269h12v3h-12zM329 264h3v12h-3zM324 269h12v3h-12zM360 240h12v12h-12zM336 252h12v12h-12zM348 252h12v12h-12zM372 252h12v12h-12zM336 264h12v12h-12zM360 264h12v12h-12zM372 264h12v12h-12zM348 276h12v12h-12zM389 240h3v12h-3zM384 245h12v3h-12zM425 240h3v12h-3zM420 245h12v3h-12zM401 264h3v12h-3zM396 269h12v3h-12zM413 264h3v12h-3zM408 269h12v3h-12zM389 276h3v12h-3zM384 281h12v3h-12zM425 276h3v12h-3zM420 281h12v3h-12zM461 240h3v12h-3zM456 245h12v3h-12zM437 252h3v12h-3zM432 257h12v3h-12zM449 252h3v12h-3zM444 257h12v3h-12zM473 252h3v12h-3zM468 257h12v3h-12zM437 264h3v12h-3zM432 269h12v3h-12zM461 264h3v12h-3zM456 269h12v3h-12zM473 264h3v12h-3zM468 269h12v3h-12zM449 276h3v12h-3zM444 281h12v3h-12zM498 258h12v12h-12zM533 240h3v12h-3zM528 245h12v3h-12zM545 240h3v12h-3zM540 245h12v3h-12zM557 276h3v12h-3zM552 281h12v3h-12zM569 276h3v12h-3zM564 281h12v3h-12zM591 243h6v6h-6zM603 243h6v6h-6zM591 279h6v6h-6zM603 279h6v6h-6zM627 243h6v6h-6zM651 243h6v6h-6zM639 255h6v6h-6zM663 255h6v6h-6zM627 267h6v6h-6zM651 267h6v6h-6zM639 279h6v6h-6zM663 279h6v6h-6zM677 240h3v12h-3zM672 245h12v3h-12zM689 252h3v12h-3zM684 257h12v3h-12zM701 264h3v12h-3zM696 269h12v3h-12zM713 276h3v12h-3zM708 281h12v3h-12zM723 243h6v6h-6zM759 243h6v6h-6zM723 279h6v6h-6zM759 279h6v6h-6zM809 312h3v12h-3zM804 317h12v3h-12zM785 240h3v12h-3zM780 245h12v3h-12zM797 240h3v12h-3zM792 245h12v3h-12zM785 252h3v12h-3zM780 257h12v3h-12zM809 252h3v12h-3zM804 257h12v3h-12zM773 264h3v12h-3zM768 269h12v3h-12zM797 264h3v12h-3zM792 269h12v3h-12zM785 276h3v12h-3zM780 281h12v3h-12zM797 276h3v12h-3zM792 281h12v3h-12zM819 243h6v6h-6zM855 243h6v6h-6zM831 255h6v6h-6zM831 267h6v6h-6zM843 267h6v6h-6zM819 279h6v6h-6zM855 279h6v6h-6zM864 240h12v12h-12zM900 240h12v12h-12zM888 252h12v12h-12zM876 264h12v12h-12zM888 264h12v12h-12zM864 276h12v12h-12zM900 276h12v12h-12zM936 240h12v12h-12zM948 252h12v12h-12zM912 264h12v12h-12zM924 276h12v12h-12zM0 288h12v12h-12zM12 288h12v12h-12zM0 300h12v12h-12zM12 300h12v12h-12zM24 312h12v12h-12zM36 312h12v12h-12zM24 324h12v12h-12zM36 324h12v12h-12zM65 288h3v12h-3zM60 293h12v3h-12zM77 288h3v12h-3zM72 293h12v3h-12zM53 300h3v12h-3zM48 305h12v3h-12zM77 300h3v12h-3zM72 305h12v3h-12zM65 312h3v12h-3zM60 317h12v3h-12zM89 312h3v12h-3zM84 317h12v3h-12zM65 324h3v12h-3zM60 329h12v3h-12zM77 324h3v12h-3zM72 329h12v3h-12zM111 291h6v6h-6zM123 291h6v6h-6zM123 303h6v6h-6zM111 327h6v6h-6zM180 288h12v12h-12zM168 300h12v12h-12zM156 312h12v12h-12zM180 312h12v12h-12zM144 324h12v12h-12zM168 324h12v12h-12zM180 324h12v12h-12zM228 288h12v12h-12zM216 300h12v12h-12zM204 312h12v12h-12zM192 324h12v12h-12zM243 291h6v6h-6zM255 291h6v6h-6zM243 303h6v6h-6zM255 303h6v6h-6zM267 315h6v6h-6zM279 315h6v6h-6zM267 327h6v6h-6zM279 327h6v6h-6zM300 288h12v12h-12zM312 288h12v12h-12zM288 300h12v12h-12zM312 300h12v12h-12zM300 312h12v12h-12zM324 312h12v12h-12zM300 324h12v12h-12zM312 324h12v12h-12zM363 291h6v6h-6zM375 303h6v6h-6zM339 315h6v6h-6zM351 327h6v6h-6zM413 288h3v12h-3zM408 293h12v3h-12zM413 300h3v12h-3zM408 305h12v3h-12zM425 300h3v12h-3zM420 305h12v3h-12zM389 312h3v12h-3zM384 317h12v3h-12zM401 312h3v12h-3zM396 317h12v3h-12zM401 324h3v12h-3zM396 329h12v3h-12zM461 288h3v12h-3zM456 293h12v3h-12zM437 300h3v12h-3zM432 305h12v3h-12zM449 300h3v12h-3zM444 305h12v3h-12zM473 300h3v12h-3zM468 305h12v3h-12zM437 312h3v12h-3zM432 317h12v3h-12zM461 312h3v12h-3zM456 317h12v3h-12zM473 312h3v12h-3zM468 317h12v3h-12zM449 324h3v12h-3zM444 329h12v3h-12zM480 288h12v12h-12zM516 288h12v12h-12zM504 300h12v12h-12zM492 312h12v12h-12zM480 324h12v12h-12zM516 324h12v12h-12zM555 291h6v6h-6zM567 291h6v6h-6zM531 327h6v6h-6zM543 327h6v6h-6zM576 288h12v12h-12zM612 288h12v12h-12zM588 300h12v12h-12zM588 312h12v12h-12zM600 312h12v12h-12zM576 324h12v12h-12zM612 324h12v12h-12zM641 288h3v12h-3zM636 293h12v3h-12zM665 288h3v12h-3zM660 293h12v3h-12zM629 300h3v12h-3zM624 305h12v3h-12zM641 300h3v12h-3zM636 305h12v3h-12zM653 312h3v12h-3zM648 317h12v3h-12zM665 312h3v12h-3zM660 317h12v3h-12zM629 324h3v12h-3zM624 329h12v3h-12zM653 324h3v12h-3zM648 329h12v3h-12zM713 360h3v12h-3zM708 365h12v3h-12zM689 288h3v12h-3zM684 293h12v3h-12zM701 288h3v12h-3zM696 293h12v3h-12zM689 300h3v12h-3zM684 305h12v3h-12zM713 300h3v12h-3zM708 305h12v3h-12zM677 312h3v12h-3zM672 317h12v3h-12zM701 312h3v12h-3zM696 317h12v3h-12zM689 324h3v12h-3zM684 329h12v3h-12zM701 324h3v12h-3zM696 329h12v3h-12zM737 288h3v12h-3zM732 293h12v3h-12zM725 300h3v12h-3zM720 305h12v3h-12zM761 312h3v12h-3zM756 317h12v3h-12zM749 324h3v12h-3zM744 329h12v3h-12zM771 291h6v6h-6zM783 303h6v6h-6zM771 315h6v6h-6zM795 315h6v6h-6zM771 327h6v6h-6zM783 327h6v6h-6zM807 327h6v6h-6zM821 288h3v12h-3zM816 293h12v3h-12zM857 288h3v12h-3zM852 293h12v3h-12zM845 300h3v12h-3zM840 305h12v3h-12zM833 312h3v12h-3zM828 317h12v3h-12zM821 324h3v12h-3zM816 329h12v3h-12zM857 324h3v12h-3zM852 329h12v3h-12zM887 306h3v12h-3zM882 311h12v3h-12zM917 288h3v12h-3zM912 293h12v3h-12zM953 288h3v12h-3zM948 293h12v3h-12zM929 300h3v12h-3zM924 305h12v3h-12zM941 300h3v12h-3zM936 305h12v3h-12zM917 312h3v12h-3zM912 317h12v3h-12zM953 312h3v12h-3zM948 317h12v3h-12zM5 336h3v12h-3zM0 341h12v3h-12zM41 336h3v12h-3zM36 341h12v3h-12zM17 348h3v12h-3zM12 353h12v3h-12zM29 348h3v12h-3zM24 353h12v3h-12zM5 360h3v12h-3zM0 365h12v3h-12zM41 360h3v12h-3zM36 365h12v3h-12zM53 336h3v12h-3zM48 341h12v3h-12zM77 336h3v12h-3zM72 341h12v3h-12zM77 348h3v12h-3zM72 353h12v3h-12zM89 348h3v12h-3zM84 353h12v3h-12zM53 360h3v12h-3zM48 365h12v3h-12zM65 360h3v12h-3zM60 365h12v3h-12zM65 372h3v12h-3zM60 377h12v3h-12zM89 372h3v12h-3zM84 377h12v3h-12zM113 336h3v12h-3zM108 341h12v3h-12zM101 348h3v12h-3zM96 353h12v3h-12zM113 348h3v12h-3zM108 353h12v3h-12zM125 360h3v12h-3zM120 365h12v3h-12zM137 360h3v12h-3zM132 365h12v3h-12zM125 372h3v12h-3zM120 377h12v3h-12zM161 336h3v12h-3zM156 341h12v3h-12zM185 336h3v12h-3zM180 341h12v3h-12zM161 372h3v12h-3zM156 377h12v3h-12zM185 372h3v12h-3zM180 377h12v3h-12zM213 357h6v6h-6zM267 339h6v6h-6zM279 339h6v6h-6zM243 375h6v6h-6zM255 375h6v6h-6zM315 339h6v6h-6zM291 351h6v6h-6zM303 351h6v6h-6zM327 351h6v6h-6zM291 363h6v6h-6zM315 363h6v6h-6zM327 363h6v6h-6zM303 375h6v6h-6zM372 408h12v12h-12zM348 336h12v12h-12zM360 336h12v12h-12zM348 348h12v12h-12zM372 348h12v12h-12zM336 360h12v12h-12zM360 360h12v12h-12zM348 372h12v12h-12zM360 372h12v12h-12zM384 348h12v12h-12zM420 348h12v12h-12zM384 360h12v12h-12zM420 360h12v12h-12zM432 336h12v12h-12zM432 348h12v12h-12zM468 360h12v12h-12zM468 372h12v12h-12zM501 357h6v6h-6zM533 336h3v12h-3zM528 341h12v3h-12zM557 336h3v12h-3zM552 341h12v3h-12zM569 336h3v12h-3zM564 341h12v3h-12zM545 348h3v12h-3zM540 353h12v3h-12zM569 348h3v12h-3zM564 353h12v3h-12zM557 360h3v12h-3zM552 365h12v3h-12zM569 372h3v12h-3zM564 377h12v3h-12zM579 339h6v6h-6zM615 339h6v6h-6zM591 351h6v6h-6zM603 351h6v6h-6zM579 375h6v6h-6zM615 375h6v6h-6zM624 336h12v12h-12zM636 348h12v12h-12zM648 360h12v12h-12zM660 372h12v12h-12zM675 339h6v6h-6zM711 339h6v6h-6zM687 351h6v6h-6zM699 363h6v6h-6zM675 375h6v6h-6zM711 375h6v6h-6zM749 336h3v12h-3zM744 341h12v3h-12zM725 348h3v12h-3zM720 353h12v3h-12zM737 348h3v12h-3zM732 353h12v3h-12zM761 348h3v12h-3zM756 353h12v3h-12zM725 360h3v12h-3zM720 365h12v3h-12zM749 360h3v12h-3zM744 365h12v3h-12zM761 360h3v12h-3zM756 365h12v3h-12zM737 372h3v12h-3zM732 377h12v3h-12zM773 348h3v12h-3zM768 353h12v3h-12zM809 348h3v12h-3zM804 353h12v3h-12zM773 360h3v12h-3zM768 365h12v3h-12zM785 360h3v12h-3zM780 365h12v3h-12zM816 336h12v12h-12zM852 336h12v12h-12zM828 348h12v12h-12zM840 348h12v12h-12zM828 360h12v12h-12zM840 360h12v12h-12zM816 372h12v12h-12zM852 372h12v12h-12zM881 336h3v12h-3zM876 341h12v3h-12zM905 336h3v12h-3zM900 341h12v3h-12zM881 372h3v12h-3zM876 377h12v3h-12zM905 372h3v12h-3zM900 377h12v3h-12zM924 336h12v12h-12zM936 336h12v12h-12zM924 372h12v12h-12zM936 372h12v12h-12zM17 384h3v12h-3zM12 389h12v3h-12zM5 396h3v12h-3zM0 401h12v3h-12zM17 396h3v12h-3zM12 401h12v3h-12zM29 408h3v12h-3zM24 413h12v3h-12zM41 408h3v12h-3zM36 413h12v3h-12zM29 420h3v12h-3zM24 425h12v3h-12zM63 387h6v6h-6zM51 399h6v6h-6zM87 411h6v6h-6zM75 423h6v6h-6zM108 384h12v12h-12zM96 396h12v12h-12zM120 396h12v12h-12zM132 396h12v12h-12zM96 408h12v12h-12zM108 408h12v12h-12zM132 408h12v12h-12zM120 420h12v12h-12zM147 387h6v6h-6zM159 387h6v6h-6zM171 423h6v6h-6zM183 423h6v6h-6zM209 384h3v12h-3zM204 389h12v3h-12zM221 384h3v12h-3zM216 389h12v3h-12zM197 396h3v12h-3zM192 401h12v3h-12zM221 396h3v12h-3zM216 401h12v3h-12zM209 408h3v12h-3zM204 413h12v3h-12zM233 408h3v12h-3zM228 413h12v3h-12zM209 420h3v12h-3zM204 425h12v3h-12zM221 420h3v12h-3zM216 425h12v3h-12zM240 384h12v12h-12zM276 384h12v12h-12zM264 396h12v12h-12zM252 408h12v12h-12zM264 408h12v12h-12zM240 420h12v12h-12zM276 420h12v12h-12zM288 384h12v12h-12zM324 384h12v12h-12zM300 396h12v12h-12zM312 408h12v12h-12zM288 420h12v12h-12zM324 420h12v12h-12zM339 399h6v6h-6zM375 399h6v6h-6zM339 411h6v6h-6zM375 411h6v6h-6zM389 396h3v12h-3zM384 401h12v3h-12zM401 396h3v12h-3zM396 401h12v3h-12zM389 408h3v12h-3zM384 413h12v3h-12zM425 408h3v12h-3zM420 413h12v3h-12zM432 384h12v12h-12zM468 384h12v12h-12zM444 396h12v12h-12zM456 396h12v12h-12zM444 408h12v12h-12zM456 408h12v12h-12zM432 420h12v12h-12zM468 420h12v12h-12zM480 384h12v12h-12zM504 384h12v12h-12zM516 396h12v12h-12zM480 408h12v12h-12zM492 420h12v12h-12zM516 420h12v12h-12zM545 384h3v12h-3zM540 389h12v3h-12zM569 384h3v12h-3zM564 389h12v3h-12zM533 396h3v12h-3zM528 401h12v3h-12zM545 396h3v12h-3zM540 401h12v3h-12zM557 408h3v12h-3zM552 413h12v3h-12zM569 408h3v12h-3zM564 413h12v3h-12zM533 420h3v12h-3zM528 425h12v3h-12zM557 420h3v12h-3zM552 425h12v3h-12zM593 384h3v12h-3zM588 389h12v3h-12zM617 384h3v12h-3zM612 389h12v3h-12zM581 396h3v12h-3zM576 401h12v3h-12zM617 408h3v12h-3zM612 413h12v3h-12zM581 420h3v12h-3zM576 425h12v3h-12zM605 420h3v12h-3zM600 425h12v3h-12zM639 387h6v6h-6zM627 399h6v6h-6zM651 399h6v6h-6zM663 399h6v6h-6zM627 411h6v6h-6zM639 411h6v6h-6zM663 411h6v6h-6zM651 423h6v6h-6zM675 399h6v6h-6zM711 399h6v6h-6zM675 411h6v6h-6zM687 411h6v6h-6zM725 384h3v12h-3zM720 389h12v3h-12zM761 384h3v12h-3zM756 389h12v3h-12zM725 420h3v12h-3zM720 425h12v3h-12zM761 420h3v12h-3zM756 425h12v3h-12zM795 387h6v6h-6zM807 399h6v6h-6zM771 411h6v6h-6zM783 423h6v6h-6zM833 384h3v12h-3zM828 389h12v3h-12zM845 384h3v12h-3zM840 389h12v3h-12zM845 396h3v12h-3zM840 401h12v3h-12zM833 420h3v12h-3zM828 425h12v3h-12zM881 384h3v12h-3zM876 389h12v3h-12zM869 396h3v12h-3zM864 401h12v3h-12zM893 396h3v12h-3zM888 401h12v3h-12zM905 396h3v12h-3zM900 401h12v3h-12zM869 408h3v12h-3zM864 413h12v3h-12zM881 408h3v12h-3zM876 413h12v3h-12zM905 408h3v12h-3zM900 413h12v3h-12zM893 420h3v12h-3zM888 425h12v3h-12zM941 384h3v12h-3zM936 389h12v3h-12zM929 396h3v12h-3zM924 401h12v3h-12zM953 396h3v12h-3zM948 401h12v3h-12zM917 408h3v12h-3zM912 413h12v3h-12zM941 408h3v12h-3zM936 413h12v3h-12zM929 420h3v12h-3zM924 425h12v3h-12zM24 432h12v12h-12zM36 432h12v12h-12zM24 444h12v12h-12zM36 444h12v12h-12zM0 456h12v12h-12zM12 456h12v12h-12zM0 468h12v12h-12zM12 468h12v12h-12zM75 435h6v6h-6zM63 447h6v6h-6zM87 447h6v6h-6zM51 459h6v6h-6zM75 459h6v6h-6zM63 471h6v6h-6zM108 432h12v12h-12zM132 432h12v12h-12zM108 468h12v12h-12zM132 468h12v12h-12zM156 432h12v12h-12zM168 432h12v12h-12zM144 444h12v12h-12zM168 444h12v12h-12zM156 456h12v12h-12zM180 456h12v12h-12zM156 468h12v12h-12zM168 468h12v12h-12zM219 435h6v6h-6zM231 447h6v6h-6zM195 459h6v6h-6zM207 471h6v6h-6zM257 432h3v12h-3zM252 437h12v3h-12zM269 432h3v12h-3zM264 437h12v3h-12zM269 444h3v12h-3zM264 449h12v3h-12zM257 468h3v12h-3zM252 473h12v3h-12zM315 435h6v6h-6zM303 447h6v6h-6zM327 447h6v6h-6zM291 459h6v6h-6zM315 459h6v6h-6zM303 471h6v6h-6zM348 432h12v12h-12zM372 432h12v12h-12zM336 444h12v12h-12zM372 456h12v12h-12zM336 468h12v12h-12zM360 468h12v12h-12zM384 432h12v12h-12zM396 432h12v12h-12zM408 468h12v12h-12zM420 468h12v12h-12zM432 432h12v12h-12zM432 444h12v12h-12zM468 456h12v12h-12zM468 468h12v12h-12zM480 432h12v12h-12zM516 432h12v12h-12zM492 444h12v12h-12zM492 456h12v12h-12zM504 456h12v12h-12zM480 468h12v12h-12zM516 468h12v12h-12zM528 432h12v12h-12zM540 432h12v12h-12zM528 444h12v12h-12zM540 444h12v12h-12zM552 456h12v12h-12zM564 456h12v12h-12zM552 468h12v12h-12zM564 468h12v12h-12zM581 432h3v12h-3zM576 437h12v3h-12zM593 444h3v12h-3zM588 449h12v3h-12zM605 456h3v12h-3zM600 461h12v3h-12zM617 468h3v12h-3zM612 473h12v3h-12zM641 432h3v12h-3zM636 437h12v3h-12zM665 432h3v12h-3zM660 437h12v3h-12zM629 444h3v12h-3zM624 449h12v3h-12zM665 456h3v12h-3zM660 461h12v3h-12zM629 468h3v12h-3zM624 473h12v3h-12zM653 468h3v12h-3zM648 473h12v3h-12zM677 432h3v12h-3zM672 437h12v3h-12zM713 432h3v12h-3zM708 437h12v3h-12zM701 444h3v12h-3zM696 449h12v3h-12zM689 456h3v12h-3zM684 461h12v3h-12zM701 456h3v12h-3zM696 461h12v3h-12zM677 468h3v12h-3zM672 473h12v3h-12zM713 468h3v12h-3zM708 473h12v3h-12zM723 435h6v6h-6zM735 435h6v6h-6zM759 435h6v6h-6zM723 447h6v6h-6zM747 447h6v6h-6zM735 459h6v6h-6zM723 471h6v6h-6zM785 432h3v12h-3zM780 437h12v3h-12zM809 432h3v12h-3zM804 437h12v3h-12zM773 444h3v12h-3zM768 449h12v3h-12zM785 444h3v12h-3zM780 449h12v3h-12zM797 456h3v12h-3zM792 461h12v3h-12zM809 456h3v12h-3zM804 461h12v3h-12zM773 468h3v12h-3zM768 473h12v3h-12zM797 468h3v12h-3zM792 473h12v3h-12zM816 432h12v12h-12zM852 432h12v12h-12zM828 444h12v12h-12zM840 444h12v12h-12zM816 456h12v12h-12zM852 456h12v12h-12zM881 432h3v12h-3zM876 437h12v3h-12zM869 444h3v12h-3zM864 449h12v3h-12zM905 456h3v12h-3zM900 461h12v3h-12zM893 468h3v12h-3zM888 473h12v3h-12zM912 432h12v12h-12zM948 432h12v12h-12zM924 444h12v12h-12zM936 444h12v12h-12zM924 456h12v12h-12zM936 456h12v12h-12zM912 468h12v12h-12zM948 468h12v12h-12zM5 480h3v12h-3zM0 485h12v3h-12zM41 480h3v12h-3zM36 485h12v3h-12zM5 504h3v12h-3zM0 509h12v3h-12zM41 504h3v12h-3zM36 509h12v3h-12zM51 483h6v6h-6zM51 495h6v6h-6zM87 507h6v6h-6zM87 519h6v6h-6zM111 483h6v6h-6zM123 507h6v6h-6zM111 519h6v6h-6zM123 519h6v6h-6zM144 480h12v12h-12zM156 492h12v12h-12zM144 504h12v12h-12zM168 504h12v12h-12zM144 516h12v12h-12zM156 516h12v12h-12zM180 516h12v12h-12zM216 480h12v12h-12zM192 492h12v12h-12zM204 492h12v12h-12zM228 492h12v12h-12zM192 504h12v12h-12zM216 504h12v12h-12zM228 504h12v12h-12zM204 516h12v12h-12zM243 483h6v6h-6zM267 483h6v6h-6zM279 483h6v6h-6zM255 495h6v6h-6zM279 495h6v6h-6zM267 507h6v6h-6zM279 519h6v6h-6zM288 480h12v12h-12zM300 480h12v12h-12zM288 492h12v12h-12zM300 492h12v12h-12zM312 504h12v12h-12zM324 504h12v12h-12zM312 516h12v12h-12zM324 516h12v12h-12zM348 480h12v12h-12zM372 480h12v12h-12zM336 492h12v12h-12zM372 504h12v12h-12zM336 516h12v12h-12zM360 516h12v12h-12zM413 480h3v12h-3zM408 485h12v3h-12zM401 492h3v12h-3zM396 497h12v3h-12zM425 492h3v12h-3zM420 497h12v3h-12zM389 504h3v12h-3zM384 509h12v3h-12zM413 504h3v12h-3zM408 509h12v3h-12zM401 516h3v12h-3zM396 521h12v3h-12zM437 480h3v12h-3zM432 485h12v3h-12zM473 480h3v12h-3zM468 485h12v3h-12zM437 516h3v12h-3zM432 521h12v3h-12zM473 516h3v12h-3zM468 521h12v3h-12zM516 480h12v12h-12zM516 492h12v12h-12zM480 504h12v12h-12zM480 516h12v12h-12zM543 483h6v6h-6zM531 495h6v6h-6zM543 495h6v6h-6zM555 507h6v6h-6zM567 507h6v6h-6zM555 519h6v6h-6zM588 480h12v12h-12zM576 492h12v12h-12zM588 492h12v12h-12zM600 504h12v12h-12zM612 504h12v12h-12zM600 516h12v12h-12zM624 480h12v12h-12zM660 480h12v12h-12zM636 492h12v12h-12zM648 492h12v12h-12zM624 516h12v12h-12zM660 516h12v12h-12zM675 483h6v6h-6zM675 495h6v6h-6zM711 507h6v6h-6zM711 519h6v6h-6zM720 480h12v12h-12zM756 480h12v12h-12zM720 504h12v12h-12zM756 504h12v12h-12zM771 483h6v6h-6zM795 483h6v6h-6zM795 495h6v6h-6zM807 495h6v6h-6zM771 507h6v6h-6zM783 507h6v6h-6zM783 519h6v6h-6zM807 519h6v6h-6zM821 480h3v12h-3zM816 485h12v3h-12zM857 480h3v12h-3zM852 485h12v3h-12zM833 492h3v12h-3zM828 497h12v3h-12zM833 504h3v12h-3zM828 509h12v3h-12zM845 504h3v12h-3zM840 509h12v3h-12zM821 516h3v12h-3zM816 521h12v3h-12zM857 516h3v12h-3zM852 521h12v3h-12zM900 552h12v12h-12zM876 480h12v12h-12zM888 480h12v12h-12zM876 492h12v12h-12zM900 492h12v12h-12zM864 504h12v12h-12zM888 504h12v12h-12zM876 516h12v12h-12zM888 516h12v12h-12zM927 483h6v6h-6zM915 495h6v6h-6zM951 507h6v6h-6zM939 519h6v6h-6zM12 528h12v12h-12zM24 528h12v12h-12zM0 540h12v12h-12zM24 540h12v12h-12zM12 552h12v12h-12zM36 552h12v12h-12zM12 564h12v12h-12zM24 564h12v12h-12zM53 528h3v12h-3zM48 533h12v3h-12zM89 528h3v12h-3zM84 533h12v3h-12zM65 540h3v12h-3zM60 545h12v3h-12zM77 540h3v12h-3zM72 545h12v3h-12zM65 552h3v12h-3zM60 557h12v3h-12zM77 552h3v12h-3zM72 557h12v3h-12zM53 564h3v12h-3zM48 569h12v3h-12zM89 564h3v12h-3zM84 569h12v3h-12zM101 528h3v12h-3zM96 533h12v3h-12zM137 528h3v12h-3zM132 533h12v3h-12zM113 540h3v12h-3zM108 545h12v3h-12zM113 552h3v12h-3zM108 557h12v3h-12zM125 552h3v12h-3zM120 557h12v3h-12zM101 564h3v12h-3zM96 569h12v3h-12zM137 564h3v12h-3zM132 569h12v3h-12zM147 531h6v6h-6zM171 531h6v6h-6zM183 531h6v6h-6zM159 543h6v6h-6zM183 543h6v6h-6zM171 555h6v6h-6zM183 567h6v6h-6zM219 531h6v6h-6zM207 543h6v6h-6zM231 543h6v6h-6zM195 555h6v6h-6zM219 555h6v6h-6zM207 567h6v6h-6zM257 528h3v12h-3zM252 533h12v3h-12zM281 528h3v12h-3zM276 533h12v3h-12zM245 540h3v12h-3zM240 545h12v3h-12zM281 552h3v12h-3zM276 557h12v3h-12zM245 564h3v12h-3zM240 569h12v3h-12zM269 564h3v12h-3zM264 569h12v3h-12zM317 528h3v12h-3zM312 533h12v3h-12zM329 540h3v12h-3zM324 545h12v3h-12zM293 552h3v12h-3zM288 557h12v3h-12zM305 564h3v12h-3zM300 569h12v3h-12zM365 528h3v12h-3zM360 533h12v3h-12zM341 540h3v12h-3zM336 545h12v3h-12zM353 540h3v12h-3zM348 545h12v3h-12zM377 540h3v12h-3zM372 545h12v3h-12zM341 552h3v12h-3zM336 557h12v3h-12zM365 552h3v12h-3zM360 557h12v3h-12zM377 552h3v12h-3zM372 557h12v3h-12zM353 564h3v12h-3zM348 569h12v3h-12zM401 528h3v12h-3zM396 533h12v3h-12zM413 528h3v12h-3zM408 533h12v3h-12zM413 540h3v12h-3zM408 545h12v3h-12zM401 564h3v12h-3zM396 569h12v3h-12zM435 531h6v6h-6zM471 531h6v6h-6zM447 543h6v6h-6zM459 555h6v6h-6zM435 567h6v6h-6zM471 567h6v6h-6zM497 528h3v12h-3zM492 533h12v3h-12zM521 528h3v12h-3zM516 533h12v3h-12zM485 540h3v12h-3zM480 545h12v3h-12zM521 552h3v12h-3zM516 557h12v3h-12zM485 564h3v12h-3zM480 569h12v3h-12zM509 564h3v12h-3zM504 569h12v3h-12zM543 531h6v6h-6zM555 531h6v6h-6zM555 543h6v6h-6zM543 567h6v6h-6zM617 528h3v12h-3zM612 533h12v3h-12zM605 540h3v12h-3zM600 545h12v3h-12zM593 552h3v12h-3zM588 557h12v3h-12zM617 552h3v12h-3zM612 557h12v3h-12zM581 564h3v12h-3zM576 569h12v3h-12zM605 564h3v12h-3zM600 569h12v3h-12zM617 564h3v12h-3zM612 569h12v3h-12zM627 543h6v6h-6zM663 543h6v6h-6zM627 555h6v6h-6zM663 555h6v6h-6zM677 528h3v12h-3zM672 533h12v3h-12zM701 528h3v12h-3zM696 533h12v3h-12zM701 540h3v12h-3zM696 545h12v3h-12zM713 540h3v12h-3zM708 545h12v3h-12zM677 552h3v12h-3zM672 557h12v3h-12zM689 552h3v12h-3zM684 557h12v3h-12zM689 564h3v12h-3zM684 569h12v3h-12zM713 564h3v12h-3zM708 569h12v3h-12zM756 600h12v12h-12zM732 528h12v12h-12zM744 528h12v12h-12zM732 540h12v12h-12zM756 540h12v12h-12zM720 552h12v12h-12zM744 552h12v12h-12zM732 564h12v12h-12zM744 564h12v12h-12zM771 531h6v6h-6zM783 531h6v6h-6zM771 543h6v6h-6zM783 543h6v6h-6zM795 555h6v6h-6zM807 555h6v6h-6zM795 567h6v6h-6zM807 567h6v6h-6zM819 531h6v6h-6zM831 543h6v6h-6zM843 555h6v6h-6zM855 567h6v6h-6zM864 528h12v12h-12zM888 528h12v12h-12zM900 540h12v12h-12zM864 552h12v12h-12zM876 564h12v12h-12zM900 564h12v12h-12zM953 528h3v12h-3zM948 533h12v3h-12zM941 540h3v12h-3zM936 545h12v3h-12zM929 552h3v12h-3zM924 557h12v3h-12zM953 552h3v12h-3zM948 557h12v3h-12zM917 564h3v12h-3zM912 569h12v3h-12zM941 564h3v12h-3zM936 569h12v3h-12zM953 564h3v12h-3zM948 569h12v3h-12zM5 576h3v12h-3zM0 581h12v3h-12zM17 588h3v12h-3zM12 593h12v3h-12zM29 600h3v12h-3zM24 605h12v3h-12zM41 612h3v12h-3zM36 617h12v3h-12zM63 579h6v6h-6zM75 603h6v6h-6zM63 615h6v6h-6zM75 615h6v6h-6zM99 579h6v6h-6zM135 579h6v6h-6zM99 603h6v6h-6zM135 603h6v6h-6zM171 579h6v6h-6zM171 591h6v6h-6zM183 591h6v6h-6zM147 603h6v6h-6zM159 603h6v6h-6zM159 615h6v6h-6zM204 576h12v12h-12zM228 576h12v12h-12zM204 612h12v12h-12zM228 612h12v12h-12zM276 576h12v12h-12zM276 588h12v12h-12zM240 600h12v12h-12zM240 612h12v12h-12zM315 579h6v6h-6zM327 579h6v6h-6zM291 615h6v6h-6zM303 615h6v6h-6zM341 576h3v12h-3zM336 581h12v3h-12zM377 576h3v12h-3zM372 581h12v3h-12zM353 588h3v12h-3zM348 593h12v3h-12zM365 588h3v12h-3zM360 593h12v3h-12zM353 600h3v12h-3zM348 605h12v3h-12zM341 612h3v12h-3zM336 617h12v3h-12zM377 612h3v12h-3zM372 617h12v3h-12zM401 576h3v12h-3zM396 581h12v3h-12zM425 576h3v12h-3zM420 581h12v3h-12zM389 588h3v12h-3zM384 593h12v3h-12zM413 588h3v12h-3zM408 593h12v3h-12zM401 600h3v12h-3zM396 605h12v3h-12zM425 600h3v12h-3zM420 605h12v3h-12zM389 612h3v12h-3zM384 617h12v3h-12zM413 612h3v12h-3zM408 617h12v3h-12zM435 591h6v6h-6zM471 591h6v6h-6zM435 603h6v6h-6zM471 603h6v6h-6zM519 651h6v6h-6zM495 579h6v6h-6zM507 579h6v6h-6zM495 591h6v6h-6zM519 591h6v6h-6zM483 603h6v6h-6zM507 603h6v6h-6zM495 615h6v6h-6zM507 615h6v6h-6zM531 579h6v6h-6zM555 579h6v6h-6zM543 591h6v6h-6zM567 591h6v6h-6zM531 603h6v6h-6zM555 603h6v6h-6zM543 615h6v6h-6zM567 615h6v6h-6zM593 576h3v12h-3zM588 581h12v3h-12zM605 576h3v12h-3zM600 581h12v3h-12zM581 588h3v12h-3zM576 593h12v3h-12zM605 588h3v12h-3zM600 593h12v3h-12zM593 600h3v12h-3zM588 605h12v3h-12zM617 600h3v12h-3zM612 605h12v3h-12zM593 612h3v12h-3zM588 617h12v3h-12zM605 612h3v12h-3zM600 617h12v3h-12zM648 576h12v12h-12zM660 576h12v12h-12zM624 612h12v12h-12zM636 612h12v12h-12zM687 579h6v6h-6zM675 591h6v6h-6zM687 591h6v6h-6zM699 603h6v6h-6zM711 603h6v6h-6zM699 615h6v6h-6zM732 588h12v12h-12zM744 588h12v12h-12zM732 600h12v12h-12zM744 600h12v12h-12zM771 579h6v6h-6zM807 579h6v6h-6zM783 603h6v6h-6zM795 603h6v6h-6zM771 615h6v6h-6zM807 615h6v6h-6zM845 576h3v12h-3zM840 581h12v3h-12zM845 588h3v12h-3zM840 593h12v3h-12zM857 588h3v12h-3zM852 593h12v3h-12zM821 600h3v12h-3zM816 605h12v3h-12zM833 600h3v12h-3zM828 605h12v3h-12zM833 612h3v12h-3zM828 617h12v3h-12zM893 576h3v12h-3zM888 581h12v3h-12zM905 576h3v12h-3zM900 581h12v3h-12zM869 612h3v12h-3zM864 617h12v3h-12zM881 612h3v12h-3zM876 617h12v3h-12zM917 576h3v12h-3zM912 581h12v3h-12zM953 576h3v12h-3zM948 581h12v3h-12zM929 588h3v12h-3zM924 593h12v3h-12zM941 588h3v12h-3zM936 593h12v3h-12zM941 600h3v12h-3zM936 605h12v3h-12zM917 612h3v12h-3zM912 617h12v3h-12zM953 612h3v12h-3zM948 617h12v3h-12zM5 624h3v12h-3zM0 629h12v3h-12zM41 624h3v12h-3zM36 629h12v3h-12zM17 636h3v12h-3zM12 641h12v3h-12zM17 648h3v12h-3zM12 653h12v3h-12zM29 648h3v12h-3zM24 653h12v3h-12zM5 660h3v12h-3zM0 665h12v3h-12zM41 660h3v12h-3zM36 665h12v3h-12zM89 624h3v12h-3zM84 629h12v3h-12zM89 636h3v12h-3zM84 641h12v3h-12zM53 648h3v12h-3zM48 653h12v3h-12zM53 660h3v12h-3zM48 665h12v3h-12zM99 627h6v6h-6zM135 627h6v6h-6zM111 639h6v6h-6zM123 639h6v6h-6zM123 651h6v6h-6zM99 663h6v6h-6zM135 663h6v6h-6zM149 624h3v12h-3zM144 629h12v3h-12zM185 624h3v12h-3zM180 629h12v3h-12zM161 636h3v12h-3zM156 641h12v3h-12zM173 636h3v12h-3zM168 641h12v3h-12zM149 660h3v12h-3zM144 665h12v3h-12zM185 660h3v12h-3zM180 665h12v3h-12zM207 627h6v6h-6zM219 627h6v6h-6zM219 639h6v6h-6zM207 663h6v6h-6zM255 627h6v6h-6zM279 627h6v6h-6zM267 639h6v6h-6zM267 651h6v6h-6zM255 663h6v6h-6zM279 663h6v6h-6zM309 645h6v6h-6zM339 627h6v6h-6zM375 627h6v6h-6zM339 651h6v6h-6zM375 651h6v6h-6zM384 636h12v12h-12zM420 636h12v12h-12zM384 648h12v12h-12zM420 648h12v12h-12zM437 624h3v12h-3zM432 629h12v3h-12zM449 636h3v12h-3zM444 641h12v3h-12zM461 648h3v12h-3zM456 653h12v3h-12zM473 660h3v12h-3zM468 665h12v3h-12zM485 624h3v12h-3zM480 629h12v3h-12zM521 624h3v12h-3zM516 629h12v3h-12zM497 648h3v12h-3zM492 653h12v3h-12zM509 648h3v12h-3zM504 653h12v3h-12zM485 660h3v12h-3zM480 665h12v3h-12zM521 660h3v12h-3zM516 665h12v3h-12zM545 624h3v12h-3zM540 629h12v3h-12zM557 624h3v12h-3zM552 629h12v3h-12zM557 636h3v12h-3zM552 641h12v3h-12zM545 660h3v12h-3zM540 665h12v3h-12zM591 627h6v6h-6zM579 639h6v6h-6zM603 639h6v6h-6zM615 639h6v6h-6zM579 651h6v6h-6zM591 651h6v6h-6zM615 651h6v6h-6zM603 663h6v6h-6zM627 627h6v6h-6zM651 627h6v6h-6zM663 627h6v6h-6zM639 639h6v6h-6zM663 639h6v6h-6zM651 651h6v6h-6zM663 663h6v6h-6zM675 627h6v6h-6zM687 639h6v6h-6zM675 651h6v6h-6zM699 651h6v6h-6zM675 663h6v6h-6zM687 663h6v6h-6zM711 663h6v6h-6zM720 636h12v12h-12zM732 636h12v12h-12zM720 648h12v12h-12zM756 648h12v12h-12zM771 627h6v6h-6zM807 627h6v6h-6zM783 639h6v6h-6zM795 639h6v6h-6zM771 663h6v6h-6zM807 663h6v6h-6zM821 624h3v12h-3zM816 629h12v3h-12zM857 624h3v12h-3zM852 629h12v3h-12zM845 636h3v12h-3zM840 641h12v3h-12zM833 648h3v12h-3zM828 653h12v3h-12zM821 660h3v12h-3zM816 665h12v3h-12zM857 660h3v12h-3zM852 665h12v3h-12zM879 627h6v6h-6zM903 627h6v6h-6zM879 663h6v6h-6zM903 663h6v6h-6zM915 639h6v6h-6zM951 639h6v6h-6zM915 651h6v6h-6zM927 651h6v6h-6zM12 684h12v12h-12zM24 684h12v12h-12zM12 696h12v12h-12zM24 696h12v12h-12zM53 672h3v12h-3zM48 677h12v3h-12zM89 672h3v12h-3zM84 677h12v3h-12zM65 684h3v12h-3zM60 689h12v3h-12zM77 684h3v12h-3zM72 689h12v3h-12zM53 708h3v12h-3zM48 713h12v3h-12zM89 708h3v12h-3zM84 713h12v3h-12zM101 672h3v12h-3zM96 677h12v3h-12zM125 672h3v12h-3zM120 677h12v3h-12zM113 684h3v12h-3zM108 689h12v3h-12zM137 684h3v12h-3zM132 689h12v3h-12zM101 696h3v12h-3zM96 701h12v3h-12zM125 696h3v12h-3zM120 701h12v3h-12zM113 708h3v12h-3zM108 713h12v3h-12zM137 708h3v12h-3zM132 713h12v3h-12zM147 675h6v6h-6zM183 675h6v6h-6zM159 687h6v6h-6zM171 687h6v6h-6zM159 699h6v6h-6zM171 699h6v6h-6zM147 711h6v6h-6zM183 711h6v6h-6zM209 672h3v12h-3zM204 677h12v3h-12zM197 684h3v12h-3zM192 689h12v3h-12zM209 684h3v12h-3zM204 689h12v3h-12zM221 696h3v12h-3zM216 701h12v3h-12zM233 696h3v12h-3zM228 701h12v3h-12zM221 708h3v12h-3zM216 713h12v3h-12zM257 672h3v12h-3zM252 677h12v3h-12zM269 672h3v12h-3zM264 677h12v3h-12zM269 684h3v12h-3zM264 689h12v3h-12zM257 708h3v12h-3zM252 713h12v3h-12zM311 690h3v12h-3zM306 695h12v3h-12zM365 672h3v12h-3zM360 677h12v3h-12zM377 684h3v12h-3zM372 689h12v3h-12zM341 696h3v12h-3zM336 701h12v3h-12zM353 708h3v12h-3zM348 713h12v3h-12zM387 675h6v6h-6zM423 675h6v6h-6zM399 687h6v6h-6zM399 699h6v6h-6zM411 699h6v6h-6zM387 711h6v6h-6zM423 711h6v6h-6zM437 672h3v12h-3zM432 677h12v3h-12zM449 672h3v12h-3zM444 677h12v3h-12zM461 708h3v12h-3zM456 713h12v3h-12zM473 708h3v12h-3zM468 713h12v3h-12zM497 672h3v12h-3zM492 677h12v3h-12zM521 672h3v12h-3zM516 677h12v3h-12zM485 684h3v12h-3zM480 689h12v3h-12zM497 684h3v12h-3zM492 689h12v3h-12zM509 696h3v12h-3zM504 701h12v3h-12zM521 696h3v12h-3zM516 701h12v3h-12zM485 708h3v12h-3zM480 713h12v3h-12zM509 708h3v12h-3zM504 713h12v3h-12zM564 672h12v12h-12zM564 684h12v12h-12zM528 696h12v12h-12zM528 708h12v12h-12zM581 672h3v12h-3zM576 677h12v3h-12zM605 672h3v12h-3zM600 677h12v3h-12zM605 684h3v12h-3zM600 689h12v3h-12zM617 684h3v12h-3zM612 689h12v3h-12zM581 696h3v12h-3zM576 701h12v3h-12zM593 696h3v12h-3zM588 701h12v3h-12zM593 708h3v12h-3zM588 713h12v3h-12zM617 708h3v12h-3zM612 713h12v3h-12zM624 672h12v12h-12zM636 684h12v12h-12zM624 696h12v12h-12zM648 696h12v12h-12zM624 708h12v12h-12zM636 708h12v12h-12zM660 708h12v12h-12zM696 672h12v12h-12zM708 684h12v12h-12zM672 696h12v12h-12zM684 708h12v12h-12zM737 672h3v12h-3zM732 677h12v3h-12zM749 672h3v12h-3zM744 677h12v3h-12zM749 684h3v12h-3zM744 689h12v3h-12zM737 708h3v12h-3zM732 713h12v3h-12zM809 672h3v12h-3zM804 677h12v3h-12zM809 684h3v12h-3zM804 689h12v3h-12zM773 696h3v12h-3zM768 701h12v3h-12zM773 708h3v12h-3zM768 713h12v3h-12zM819 675h6v6h-6zM831 687h6v6h-6zM819 699h6v6h-6zM843 699h6v6h-6zM819 711h6v6h-6zM831 711h6v6h-6zM855 711h6v6h-6zM879 675h6v6h-6zM891 699h6v6h-6zM879 711h6v6h-6zM891 711h6v6h-6zM936 672h12v12h-12zM948 672h12v12h-12zM912 708h12v12h-12zM924 708h12v12h-12zM15 723h6v6h-6zM39 723h6v6h-6zM3 735h6v6h-6zM27 735h6v6h-6zM15 747h6v6h-6zM39 747h6v6h-6zM3 759h6v6h-6zM27 759h6v6h-6zM60 720h12v12h-12zM48 732h12v12h-12zM72 732h12v12h-12zM60 744h12v12h-12zM84 744h12v12h-12zM72 756h12v12h-12zM120 720h12v12h-12zM132 732h12v12h-12zM96 744h12v12h-12zM108 756h12v12h-12zM171 723h6v6h-6zM183 723h6v6h-6zM147 759h6v6h-6zM159 759h6v6h-6zM204 720h12v12h-12zM228 720h12v12h-12zM192 732h12v12h-12zM216 732h12v12h-12zM204 744h12v12h-12zM228 744h12v12h-12zM192 756h12v12h-12zM216 756h12v12h-12zM255 723h6v6h-6zM267 723h6v6h-6zM255 759h6v6h-6zM267 759h6v6h-6zM327 723h6v6h-6zM327 735h6v6h-6zM291 747h6v6h-6zM291 759h6v6h-6zM339 723h6v6h-6zM363 723h6v6h-6zM375 723h6v6h-6zM351 735h6v6h-6zM375 735h6v6h-6zM363 747h6v6h-6zM375 759h6v6h-6zM387 723h6v6h-6zM423 723h6v6h-6zM399 747h6v6h-6zM411 747h6v6h-6zM387 759h6v6h-6zM423 759h6v6h-6zM456 720h12v12h-12zM468 720h12v12h-12zM456 732h12v12h-12zM468 732h12v12h-12zM432 744h12v12h-12zM444 744h12v12h-12zM432 756h12v12h-12zM444 756h12v12h-12zM504 720h12v12h-12zM516 720h12v12h-12zM504 732h12v12h-12zM516 732h12v12h-12zM480 744h12v12h-12zM492 744h12v12h-12zM480 756h12v12h-12zM492 756h12v12h-12zM543 723h6v6h-6zM555 747h6v6h-6zM543 759h6v6h-6zM555 759h6v6h-6zM612 720h12v12h-12zM600 732h12v12h-12zM588 744h12v12h-12zM612 744h12v12h-12zM576 756h12v12h-12zM600 756h12v12h-12zM612 756h12v12h-12zM627 723h6v6h-6zM639 723h6v6h-6zM627 735h6v6h-6zM639 735h6v6h-6zM651 747h6v6h-6zM663 747h6v6h-6zM651 759h6v6h-6zM663 759h6v6h-6zM675 723h6v6h-6zM711 723h6v6h-6zM687 735h6v6h-6zM699 735h6v6h-6zM699 747h6v6h-6zM675 759h6v6h-6zM711 759h6v6h-6zM720 720h12v12h-12zM756 720h12v12h-12zM732 732h12v12h-12zM744 732h12v12h-12zM732 744h12v12h-12zM744 744h12v12h-12zM720 756h12v12h-12zM756 756h12v12h-12zM771 723h6v6h-6zM807 723h6v6h-6zM771 747h6v6h-6zM807 747h6v6h-6zM819 723h6v6h-6zM843 723h6v6h-6zM831 735h6v6h-6zM855 735h6v6h-6zM819 747h6v6h-6zM843 747h6v6h-6zM831 759h6v6h-6zM855 759h6v6h-6zM869 720h3v12h-3zM864 725h12v3h-12zM905 720h3v12h-3zM900 725h12v3h-12zM881 732h3v12h-3zM876 737h12v3h-12zM893 732h3v12h-3zM888 737h12v3h-12zM869 756h3v12h-3zM864 761h12v3h-12zM905 756h3v12h-3zM900 761h12v3h-12zM917 720h3v12h-3zM912 725h12v3h-12zM929 720h3v12h-3zM924 725h12v3h-12zM953 720h3v12h-3zM948 725h12v3h-12zM917 732h3v12h-3zM912 737h12v3h-12zM941 732h3v12h-3zM936 737h12v3h-12zM929 744h3v12h-3zM924 749h12v3h-12zM917 756h3v12h-3zM912 761h12v3h-12zM0 768h12v12h-12zM36 768h12v12h-12zM0 804h12v12h-12zM36 804h12v12h-12zM53 768h3v12h-3zM48 773h12v3h-12zM65 768h3v12h-3zM60 773h12v3h-12zM53 780h3v12h-3zM48 785h12v3h-12zM65 780h3v12h-3zM60 785h12v3h-12zM77 792h3v12h-3zM72 797h12v3h-12zM89 792h3v12h-3zM84 797h12v3h-12zM77 804h3v12h-3zM72 809h12v3h-12zM89 804h3v12h-3zM84 809h12v3h-12zM111 771h6v6h-6zM123 771h6v6h-6zM99 783h6v6h-6zM123 783h6v6h-6zM111 795h6v6h-6zM135 795h6v6h-6zM111 807h6v6h-6zM123 807h6v6h-6zM144 768h12v12h-12zM156 768h12v12h-12zM180 768h12v12h-12zM144 780h12v12h-12zM168 780h12v12h-12zM156 792h12v12h-12zM144 804h12v12h-12zM192 768h12v12h-12zM204 768h12v12h-12zM192 780h12v12h-12zM204 780h12v12h-12zM216 792h12v12h-12zM228 792h12v12h-12zM216 804h12v12h-12zM228 804h12v12h-12zM240 768h12v12h-12zM252 768h12v12h-12zM264 804h12v12h-12zM276 804h12v12h-12zM291 771h6v6h-6zM327 771h6v6h-6zM303 795h6v6h-6zM315 795h6v6h-6zM291 807h6v6h-6zM327 807h6v6h-6zM375 771h6v6h-6zM375 783h6v6h-6zM339 795h6v6h-6zM339 807h6v6h-6zM411 771h6v6h-6zM423 783h6v6h-6zM387 795h6v6h-6zM399 807h6v6h-6zM459 771h6v6h-6zM435 783h6v6h-6zM447 783h6v6h-6zM471 783h6v6h-6zM435 795h6v6h-6zM459 795h6v6h-6zM471 795h6v6h-6zM447 807h6v6h-6zM521 768h3v12h-3zM516 773h12v3h-12zM509 780h3v12h-3zM504 785h12v3h-12zM497 792h3v12h-3zM492 797h12v3h-12zM485 804h3v12h-3zM480 809h12v3h-12zM552 768h12v12h-12zM528 780h12v12h-12zM540 780h12v12h-12zM564 780h12v12h-12zM528 792h12v12h-12zM552 792h12v12h-12zM564 792h12v12h-12zM540 804h12v12h-12zM591 783h6v6h-6zM603 783h6v6h-6zM591 795h6v6h-6zM603 795h6v6h-6zM629 768h3v12h-3zM624 773h12v3h-12zM665 768h3v12h-3zM660 773h12v3h-12zM641 780h3v12h-3zM636 785h12v3h-12zM653 780h3v12h-3zM648 785h12v3h-12zM629 792h3v12h-3zM624 797h12v3h-12zM665 792h3v12h-3zM660 797h12v3h-12zM684 768h12v12h-12zM696 792h12v12h-12zM684 804h12v12h-12zM696 804h12v12h-12zM723 771h6v6h-6zM759 771h6v6h-6zM747 783h6v6h-6zM735 795h6v6h-6zM747 795h6v6h-6zM723 807h6v6h-6zM759 807h6v6h-6zM771 771h6v6h-6zM771 783h6v6h-6zM807 795h6v6h-6zM807 807h6v6h-6zM834 786h12v12h-12zM869 768h3v12h-3zM864 773h12v3h-12zM905 768h3v12h-3zM900 773h12v3h-12zM869 804h3v12h-3zM864 809h12v3h-12zM905 804h3v12h-3zM900 809h12v3h-12zM929 768h3v12h-3zM924 773h12v3h-12zM917 780h3v12h-3zM912 785h12v3h-12zM953 792h3v12h-3zM948 797h12v3h-12zM941 804h3v12h-3zM936 809h12v3h-12zM15 819h6v6h-6zM3 831h6v6h-6zM15 831h6v6h-6zM27 843h6v6h-6zM39 843h6v6h-6zM27 855h6v6h-6zM63 819h6v6h-6zM51 831h6v6h-6zM63 831h6v6h-6zM75 843h6v6h-6zM87 843h6v6h-6zM75 855h6v6h-6zM113 816h3v12h-3zM108 821h12v3h-12zM137 816h3v12h-3zM132 821h12v3h-12zM101 828h3v12h-3zM96 833h12v3h-12zM137 840h3v12h-3zM132 845h12v3h-12zM101 852h3v12h-3zM96 857h12v3h-12zM125 852h3v12h-3zM120 857h12v3h-12zM159 819h6v6h-6zM171 819h6v6h-6zM159 855h6v6h-6zM171 855h6v6h-6zM204 816h12v12h-12zM216 816h12v12h-12zM216 828h12v12h-12zM204 852h12v12h-12zM257 816h3v12h-3zM252 821h12v3h-12zM281 816h3v12h-3zM276 821h12v3h-12zM245 828h3v12h-3zM240 833h12v3h-12zM257 828h3v12h-3zM252 833h12v3h-12zM269 840h3v12h-3zM264 845h12v3h-12zM281 840h3v12h-3zM276 845h12v3h-12zM245 852h3v12h-3zM240 857h12v3h-12zM269 852h3v12h-3zM264 857h12v3h-12zM300 816h12v12h-12zM288 828h12v12h-12zM312 828h12v12h-12zM300 840h12v12h-12zM324 840h12v12h-12zM312 852h12v12h-12zM351 819h6v6h-6zM339 831h6v6h-6zM351 831h6v6h-6zM363 843h6v6h-6zM375 843h6v6h-6zM363 855h6v6h-6zM425 816h3v12h-3zM420 821h12v3h-12zM413 828h3v12h-3zM408 833h12v3h-12zM401 840h3v12h-3zM396 845h12v3h-12zM425 840h3v12h-3zM420 845h12v3h-12zM389 852h3v12h-3zM384 857h12v3h-12zM413 852h3v12h-3zM408 857h12v3h-12zM425 852h3v12h-3zM420 857h12v3h-12zM471 819h6v6h-6zM459 831h6v6h-6zM447 843h6v6h-6zM435 855h6v6h-6zM485 828h3v12h-3zM480 833h12v3h-12zM521 828h3v12h-3zM516 833h12v3h-12zM485 840h3v12h-3zM480 845h12v3h-12zM521 840h3v12h-3zM516 845h12v3h-12zM528 816h12v12h-12zM552 816h12v12h-12zM552 828h12v12h-12zM564 828h12v12h-12zM528 840h12v12h-12zM540 840h12v12h-12zM540 852h12v12h-12zM564 852h12v12h-12zM581 816h3v12h-3zM576 821h12v3h-12zM617 816h3v12h-3zM612 821h12v3h-12zM593 828h3v12h-3zM588 833h12v3h-12zM605 828h3v12h-3zM600 833h12v3h-12zM605 840h3v12h-3zM600 845h12v3h-12zM581 852h3v12h-3zM576 857h12v3h-12zM617 852h3v12h-3zM612 857h12v3h-12zM639 819h6v6h-6zM627 831h6v6h-6zM663 843h6v6h-6zM651 855h6v6h-6zM675 819h6v6h-6zM711 819h6v6h-6zM687 831h6v6h-6zM699 831h6v6h-6zM699 843h6v6h-6zM675 855h6v6h-6zM711 855h6v6h-6zM725 816h3v12h-3zM720 821h12v3h-12zM749 816h3v12h-3zM744 821h12v3h-12zM737 828h3v12h-3zM732 833h12v3h-12zM761 828h3v12h-3zM756 833h12v3h-12zM725 840h3v12h-3zM720 845h12v3h-12zM749 840h3v12h-3zM744 845h12v3h-12zM737 852h3v12h-3zM732 857h12v3h-12zM761 852h3v12h-3zM756 857h12v3h-12zM768 816h12v12h-12zM804 816h12v12h-12zM780 828h12v12h-12zM792 840h12v12h-12zM768 852h12v12h-12zM804 852h12v12h-12zM840 816h12v12h-12zM852 816h12v12h-12zM816 852h12v12h-12zM828 852h12v12h-12zM867 819h6v6h-6zM903 819h6v6h-6zM879 843h6v6h-6zM891 843h6v6h-6zM867 855h6v6h-6zM903 855h6v6h-6zM939 819h6v6h-6zM951 831h6v6h-6zM915 843h6v6h-6zM927 855h6v6h-6zM5 864h3v12h-3zM0 869h12v3h-12zM41 864h3v12h-3zM36 869h12v3h-12zM5 900h3v12h-3zM0 905h12v3h-12zM41 900h3v12h-3zM36 905h12v3h-12zM53 864h3v12h-3zM48 869h12v3h-12zM89 864h3v12h-3zM84 869h12v3h-12zM65 876h3v12h-3zM60 881h12v3h-12zM77 876h3v12h-3zM72 881h12v3h-12zM53 900h3v12h-3zM48 905h12v3h-12zM89 900h3v12h-3zM84 905h12v3h-12zM96 864h12v12h-12zM132 864h12v12h-12zM96 888h12v12h-12zM132 888h12v12h-12zM147 867h6v6h-6zM159 867h6v6h-6zM147 879h6v6h-6zM159 879h6v6h-6zM171 891h6v6h-6zM183 891h6v6h-6zM171 903h6v6h-6zM183 903h6v6h-6zM207 867h6v6h-6zM195 879h6v6h-6zM231 891h6v6h-6zM219 903h6v6h-6zM243 867h6v6h-6zM279 867h6v6h-6zM255 879h6v6h-6zM267 891h6v6h-6zM243 903h6v6h-6zM279 903h6v6h-6zM303 867h6v6h-6zM327 867h6v6h-6zM291 879h6v6h-6zM315 879h6v6h-6zM303 891h6v6h-6zM327 891h6v6h-6zM291 903h6v6h-6zM315 903h6v6h-6zM348 864h12v12h-12zM360 864h12v12h-12zM336 876h12v12h-12zM360 876h12v12h-12zM348 888h12v12h-12zM372 888h12v12h-12zM348 900h12v12h-12zM360 900h12v12h-12zM389 864h3v12h-3zM384 869h12v3h-12zM425 864h3v12h-3zM420 869h12v3h-12zM401 876h3v12h-3zM396 881h12v3h-12zM413 888h3v12h-3zM408 893h12v3h-12zM389 900h3v12h-3zM384 905h12v3h-12zM425 900h3v12h-3zM420 905h12v3h-12zM437 864h3v12h-3zM432 869h12v3h-12zM449 864h3v12h-3zM444 869h12v3h-12zM461 900h3v12h-3zM456 905h12v3h-12zM473 900h3v12h-3zM468 905h12v3h-12zM485 864h3v12h-3zM480 869h12v3h-12zM509 864h3v12h-3zM504 869h12v3h-12zM509 876h3v12h-3zM504 881h12v3h-12zM521 876h3v12h-3zM516 881h12v3h-12zM485 888h3v12h-3zM480 893h12v3h-12zM497 888h3v12h-3zM492 893h12v3h-12zM497 900h3v12h-3zM492 905h12v3h-12zM521 900h3v12h-3zM516 905h12v3h-12zM531 867h6v6h-6zM567 867h6v6h-6zM543 879h6v6h-6zM555 891h6v6h-6zM531 903h6v6h-6zM567 903h6v6h-6zM603 867h6v6h-6zM603 879h6v6h-6zM615 879h6v6h-6zM579 891h6v6h-6zM591 891h6v6h-6zM591 903h6v6h-6zM624 864h12v12h-12zM636 876h12v12h-12zM648 888h12v12h-12zM660 900h12v12h-12zM677 864h3v12h-3zM672 869h12v3h-12zM713 864h3v12h-3zM708 869h12v3h-12zM689 888h3v12h-3zM684 893h12v3h-12zM701 888h3v12h-3zM696 893h12v3h-12zM677 900h3v12h-3zM672 905h12v3h-12zM713 900h3v12h-3zM708 905h12v3h-12zM732 864h12v12h-12zM720 876h12v12h-12zM744 876h12v12h-12zM732 888h12v12h-12zM756 888h12v12h-12zM744 900h12v12h-12zM807 867h6v6h-6zM795 879h6v6h-6zM783 891h6v6h-6zM771 903h6v6h-6zM831 867h6v6h-6zM819 879h6v6h-6zM843 879h6v6h-6zM831 891h6v6h-6zM855 891h6v6h-6zM843 903h6v6h-6zM867 879h6v6h-6zM879 879h6v6h-6zM867 891h6v6h-6zM903 891h6v6h-6zM917 864h3v12h-3zM912 869h12v3h-12zM953 864h3v12h-3zM948 869h12v3h-12zM917 888h3v12h-3zM912 893h12v3h-12zM953 888h3v12h-3zM948 893h12v3h-12zM3 915h6v6h-6zM39 915h6v6h-6zM15 927h6v6h-6zM27 927h6v6h-6zM27 939h6v6h-6zM3 951h6v6h-6zM39 951h6v6h-6zM53 912h3v12h-3zM48 917h12v3h-12zM65 912h3v12h-3zM60 917h12v3h-12zM89 912h3v12h-3zM84 917h12v3h-12zM53 924h3v12h-3zM48 929h12v3h-12zM77 924h3v12h-3zM72 929h12v3h-12zM65 936h3v12h-3zM60 941h12v3h-12zM53 948h3v12h-3zM48 953h12v3h-12zM99 915h6v6h-6zM135 915h6v6h-6zM111 927h6v6h-6zM111 939h6v6h-6zM123 939h6v6h-6zM99 951h6v6h-6zM135 951h6v6h-6zM144 912h12v12h-12zM180 912h12v12h-12zM156 924h12v12h-12zM168 936h12v12h-12zM144 948h12v12h-12zM180 948h12v12h-12zM209 912h3v12h-3zM204 917h12v3h-12zM221 912h3v12h-3zM216 917h12v3h-12zM197 924h3v12h-3zM192 929h12v3h-12zM221 924h3v12h-3zM216 929h12v3h-12zM209 936h3v12h-3zM204 941h12v3h-12zM233 936h3v12h-3zM228 941h12v3h-12zM209 948h3v12h-3zM204 953h12v3h-12zM221 948h3v12h-3zM216 953h12v3h-12zM264 912h12v12h-12zM276 912h12v12h-12zM264 924h12v12h-12zM276 924h12v12h-12zM240 936h12v12h-12zM252 936h12v12h-12zM240 948h12v12h-12zM252 948h12v12h-12zM300 912h12v12h-12zM288 924h12v12h-12zM300 924h12v12h-12zM312 936h12v12h-12zM324 936h12v12h-12zM312 948h12v12h-12zM351 915h6v6h-6zM339 927h6v6h-6zM363 927h6v6h-6zM351 939h6v6h-6zM375 939h6v6h-6zM363 951h6v6h-6zM396 924h12v12h-12zM408 924h12v12h-12zM396 936h12v12h-12zM408 936h12v12h-12zM449 912h3v12h-3zM444 917h12v3h-12zM473 912h3v12h-3zM468 917h12v3h-12zM437 924h3v12h-3zM432 929h12v3h-12zM473 936h3v12h-3zM468 941h12v3h-12zM437 948h3v12h-3zM432 953h12v3h-12zM461 948h3v12h-3zM456 953h12v3h-12zM497 912h3v12h-3zM492 917h12v3h-12zM509 912h3v12h-3zM504 917h12v3h-12zM485 924h3v12h-3zM480 929h12v3h-12zM509 924h3v12h-3zM504 929h12v3h-12zM497 936h3v12h-3zM492 941h12v3h-12zM521 936h3v12h-3zM516 941h12v3h-12zM497 948h3v12h-3zM492 953h12v3h-12zM509 948h3v12h-3zM504 953h12v3h-12zM552 912h12v12h-12zM564 912h12v12h-12zM552 924h12v12h-12zM564 924h12v12h-12zM528 936h12v12h-12zM540 936h12v12h-12zM528 948h12v12h-12zM540 948h12v12h-12zM603 915h6v6h-6zM615 927h6v6h-6zM579 939h6v6h-6zM591 951h6v6h-6zM653 912h3v12h-3zM648 917h12v3h-12zM665 912h3v12h-3zM660 917h12v3h-12zM653 924h3v12h-3zM648 929h12v3h-12zM665 924h3v12h-3zM660 929h12v3h-12zM629 936h3v12h-3zM624 941h12v3h-12zM641 936h3v12h-3zM636 941h12v3h-12zM629 948h3v12h-3zM624 953h12v3h-12zM641 948h3v12h-3zM636 953h12v3h-12zM675 915h6v6h-6zM711 915h6v6h-6zM699 927h6v6h-6zM687 939h6v6h-6zM699 939h6v6h-6zM675 951h6v6h-6zM711 951h6v6h-6zM737 912h3v12h-3zM732 917h12v3h-12zM761 912h3v12h-3zM756 917h12v3h-12zM725 924h3v12h-3zM720 929h12v3h-12zM749 924h3v12h-3zM744 929h12v3h-12zM737 936h3v12h-3zM732 941h12v3h-12zM761 936h3v12h-3zM756 941h12v3h-12zM725 948h3v12h-3zM720 953h12v3h-12zM749 948h3v12h-3zM744 953h12v3h-12zM768 912h12v12h-12zM768 924h12v12h-12zM804 936h12v12h-12zM804 948h12v12h-12zM816 912h12v12h-12zM852 912h12v12h-12zM840 924h12v12h-12zM828 936h12v12h-12zM840 936h12v12h-12zM816 948h12v12h-12zM852 948h12v12h-12zM864 912h12v12h-12zM900 912h12v12h-12zM876 936h12v12h-12zM888 936h12v12h-12zM864 948h12v12h-12zM900 948h12v12h-12zM924 912h12v12h-12zM948 912h12v12h-12zM924 948h12v12h-12zM948 948h12v12h-12z"/><path fill="#fff" d="M384 384h96v96h-96zM384 288h96v96h-96zM384 192h96v96h-96zM288 288h96v96h-96zM192 192h96v96h-96zM96 96h96v96h-96zM0 0h96v96h-96zM288 384h96v96h-96zM192 384h96v96h-96zM96 384h96v96h-96zM96 288h96v96h-96zM96 192h96v96h-96zM96 0h96v96h-96zM192 0h96v96h-96zM288 0h96v96h-96zM192 96h96v96h-96zM288 192h96v96h-96zM480 96h96v96h-96zM480 0h96v96h-96zM576 96h96v96h-96zM672 96h96v96h-96zM768 96h96v96h-96zM672 0h96v96h-96zM864 96h96v96h-96zM864 192h96v96h-96zM864 288h96v96h-96zM864 384h96v96h-96zM768 288h96v96h-96zM672 192h96v96h-96zM576 0h96v96h-96zM384 480h96v96h-96zM384 576h96v96h-96zM384 672h96v96h-96zM288 576h96v96h-96zM192 672h96v96h-96zM96 768h96v96h-96zM0 864h96v96h-96zM288 480h96v96h-96zM192 480h96v96h-96zM96 480h96v96h-96zM96 576h96v96h-96zM96 672h96v96h-96zM96 864h96v96h-96zM192 864h96v96h-96zM288 864h96v96h-96zM192 768h96v96h-96zM288 672h96v96h-96zM480 768h96v96h-96zM480 864h96v96h-96zM576 768h96v96h-96zM672 768h96v96h-96zM768 768h96v96h-96zM672 864h96v96h-96zM864 768h96v96h-96zM864 672h96v96h-96zM864 576h96v96h-96zM864 480h96v96h-96zM768 576h96v96h-96zM672 672h96v96h-96zM576 864h96v96h-96z"/></svg>