<svg xmlns="http://www.w3.org/2000/svg" width="960" height="960" viewBox="0 0 960 960" shape-rendering="crispEdges"><path fill="#000" d="M0 0h960v960h-960z"/><path fill="#17548c" d="M48 0h48v48h-48zM48 48h48v48h-48zM48 96h48v48h-48zM48 144h48v48h-48zM48 192h48v48h-48zM48 240h48v48h-48zM48 288h48v48h-48zM48 336h48v48h-48zM48 384h48v48h-48zM48 432h48v48h-48zM48 480h48v48h-48zM48 528h48v48h-48zM48 576h48v48h-48zM48 624h48v48h-48zM48 672h48v48h-48zM48 720h48v48h-48zM48 768h48v48h-48zM48 816h48v48h-48zM48 864h48v48h-48zM48 912h48v48h-48zM192 0h48v48h-48zM192 48h48v48h-48zM192 96h48v48h-48zM192 144h48v48h-48zM192 192h48v48h-48zM192 240h48v48h-48zM192 288h48v48h-48zM192 336h48v48h-48zM192 384h48v48h-48zM192 432h48v48h-48zM192 480h48v48h-48zM192 528h48v48h-48zM192 576h48v48h-48zM192 624h48v48h-48zM192 672h48v48h-48zM192 720h48v48h-48zM192 768h48v48h-48zM192 816h48v48h-48zM192 864h48v48h-48zM192 912h48v48h-48zM336 0h48v48h-48zM336 48h48v48h-48zM336 96h48v48h-48zM336 144h48v48h-48zM336 192h48v48h-48zM336 240h48v48h-48zM336 288h48v48h-48zM336 336h48v48h-48zM336 384h48v48h-48zM336 432h48v48h-48zM336 480h48v48h-48zM336 528h48v48h-48zM336 576h48v48h-48zM336 624h48v48h-48zM336 672h48v48h-48zM336 720h48v48h-48zM336 768h48v48h-48zM336 816h48v48h-48zM336 864h48v48h-48zM336 912h48v48h-48z"/><path fill="#80b2c6" d="M30 6h12v12h-12zM78 6h12v12h-12zM6 30h12v12h-12zM30 30h12v12h-12zM54 54h12v12h-12zM78 54h12v12h-12zM6 78h12v12h-12zM54 78h12v12h-12zM222 6h12v12h-12zM246 6h12v12h-12zM222 78h12v12h-12zM246 78h12v12h-12zM390 6h12v12h-12zM462 6h12v12h-12zM414 30h12v12h-12zM438 30h12v12h-12zM414 54h12v12h-12zM438 54h12v12h-12zM390 78h12v12h-12zM462 78h12v12h-12zM486 6h12v12h-12zM558 6h12v12h-12zM486 78h12v12h-12zM558 78h12v12h-12zM582 6h12v12h-12zM606 30h12v12h-12zM630 54h12v12h-12zM654 78h12v12h-12zM678 6h12v12h-12zM750 6h12v12h-12zM702 54h12v12h-12zM726 54h12v12h-12zM678 78h12v12h-12zM750 78h12v12h-12zM798 6h12v12h-12zM822 6h12v12h-12zM774 30h12v12h-12zM822 30h12v12h-12zM798 54h12v12h-12zM846 54h12v12h-12zM798 78h12v12h-12zM822 78h12v12h-12zM894 6h12v12h-12zM870 30h12v12h-12zM918 30h12v12h-12zM894 54h12v12h-12zM942 54h12v12h-12zM918 78h12v12h-12zM486 126h12v12h-12zM558 126h12v12h-12zM486 150h12v12h-12zM510 150h12v12h-12zM606 102h12v12h-12zM630 102h12v12h-12zM606 174h12v12h-12zM630 174h12v12h-12zM726 102h12v12h-12zM726 126h12v12h-12zM750 126h12v12h-12zM678 150h12v12h-12zM702 150h12v12h-12zM702 174h12v12h-12zM798 102h12v12h-12zM774 126h12v12h-12zM822 126h12v12h-12zM798 150h12v12h-12zM846 150h12v12h-12zM822 174h12v12h-12zM870 126h12v12h-12zM894 126h12v12h-12zM870 150h12v12h-12zM942 150h12v12h-12zM30 222h12v12h-12zM54 222h12v12h-12zM30 246h12v12h-12zM54 246h12v12h-12zM198 198h12v12h-12zM270 198h12v12h-12zM246 222h12v12h-12zM222 246h12v12h-12zM198 270h12v12h-12zM270 270h12v12h-12zM414 198h12v12h-12zM438 198h12v12h-12zM438 222h12v12h-12zM414 270h12v12h-12zM510 198h12v12h-12zM534 246h12v12h-12zM510 270h12v12h-12zM534 270h12v12h-12zM606 198h12v12h-12zM582 222h12v12h-12zM630 222h12v12h-12zM654 222h12v12h-12zM582 246h12v12h-12zM606 246h12v12h-12zM654 246h12v12h-12zM630 270h12v12h-12zM678 222h12v12h-12zM750 222h12v12h-12zM678 246h12v12h-12zM750 246h12v12h-12zM798 198h12v12h-12zM774 222h12v12h-12zM846 246h12v12h-12zM822 270h12v12h-12zM942 198h12v12h-12zM918 222h12v12h-12zM894 246h12v12h-12zM870 270h12v12h-12zM6 294h12v12h-12zM78 294h12v12h-12zM30 342h12v12h-12zM54 342h12v12h-12zM6 366h12v12h-12zM78 366h12v12h-12zM102 294h12v12h-12zM150 294h12v12h-12zM126 318h12v12h-12zM174 318h12v12h-12zM102 342h12v12h-12zM150 342h12v12h-12zM126 366h12v12h-12zM174 366h12v12h-12zM222 294h12v12h-12zM198 318h12v12h-12zM246 318h12v12h-12zM270 318h12v12h-12zM198 342h12v12h-12zM222 342h12v12h-12zM270 342h12v12h-12zM246 366h12v12h-12zM318 294h12v12h-12zM294 318h12v12h-12zM342 318h12v12h-12zM366 318h12v12h-12zM294 342h12v12h-12zM318 342h12v12h-12zM366 342h12v12h-12zM342 366h12v12h-12zM390 318h12v12h-12zM462 318h12v12h-12zM390 342h12v12h-12zM462 342h12v12h-12zM78 390h12v12h-12zM54 414h12v12h-12zM30 438h12v12h-12zM6 462h12v12h-12zM126 390h12v12h-12zM174 390h12v12h-12zM102 414h12v12h-12zM174 438h12v12h-12zM102 462h12v12h-12zM150 462h12v12h-12zM270 390h12v12h-12zM246 414h12v12h-12zM222 438h12v12h-12zM198 462h12v12h-12zM342 390h12v12h-12zM366 414h12v12h-12zM294 438h12v12h-12zM318 462h12v12h-12zM414 390h12v12h-12zM438 390h12v12h-12zM390 414h12v12h-12zM438 414h12v12h-12zM414 438h12v12h-12zM462 438h12v12h-12zM414 462h12v12h-12zM438 462h12v12h-12zM582 390h12v12h-12zM654 390h12v12h-12zM606 414h12v12h-12zM606 438h12v12h-12zM630 438h12v12h-12zM582 462h12v12h-12zM654 462h12v12h-12zM774 390h12v12h-12zM846 390h12v12h-12zM798 414h12v12h-12zM822 414h12v12h-12zM822 438h12v12h-12zM774 462h12v12h-12zM846 462h12v12h-12zM78 486h12v12h-12zM78 510h12v12h-12zM6 534h12v12h-12zM6 558h12v12h-12zM126 486h12v12h-12zM150 534h12v12h-12zM126 558h12v12h-12zM150 558h12v12h-12zM198 510h12v12h-12zM270 510h12v12h-12zM198 534h12v12h-12zM270 534h12v12h-12zM318 486h12v12h-12zM366 486h12v12h-12zM294 510h12v12h-12zM318 510h12v12h-12zM342 534h12v12h-12zM366 534h12v12h-12zM294 558h12v12h-12zM342 558h12v12h-12zM390 510h12v12h-12zM414 510h12v12h-12zM390 534h12v12h-12zM462 534h12v12h-12zM30 582h12v12h-12zM54 582h12v12h-12zM6 606h12v12h-12zM54 606h12v12h-12zM30 630h12v12h-12zM78 630h12v12h-12zM30 654h12v12h-12zM54 654h12v12h-12zM198 582h12v12h-12zM246 582h12v12h-12zM270 582h12v12h-12zM222 606h12v12h-12zM270 606h12v12h-12zM246 630h12v12h-12zM270 654h12v12h-12zM414 582h12v12h-12zM390 606h12v12h-12zM438 606h12v12h-12zM414 630h12v12h-12zM462 630h12v12h-12zM438 654h12v12h-12zM510 606h12v12h-12zM534 606h12v12h-12zM510 630h12v12h-12zM534 630h12v12h-12zM606 582h12v12h-12zM582 606h12v12h-12zM630 606h12v12h-12zM654 606h12v12h-12zM582 630h12v12h-12zM606 630h12v12h-12zM654 630h12v12h-12zM630 654h12v12h-12zM714 618h12v12h-12zM774 582h12v12h-12zM822 582h12v12h-12zM798 606h12v12h-12zM846 606h12v12h-12zM774 630h12v12h-12zM822 630h12v12h-12zM798 654h12v12h-12zM846 654h12v12h-12zM870 582h12v12h-12zM942 582h12v12h-12zM894 606h12v12h-12zM918 606h12v12h-12zM894 630h12v12h-12zM918 630h12v12h-12zM870 654h12v12h-12zM942 654h12v12h-12zM534 678h12v12h-12zM558 678h12v12h-12zM486 750h12v12h-12zM510 750h12v12h-12zM582 678h12v12h-12zM606 702h12v12h-12zM630 726h12v12h-12zM654 750h12v12h-12zM726 678h12v12h-12zM750 702h12v12h-12zM678 726h12v12h-12zM702 750h12v12h-12zM774 678h12v12h-12zM798 702h12v12h-12zM774 726h12v12h-12zM822 726h12v12h-12zM774 750h12v12h-12zM798 750h12v12h-12zM846 750h12v12h-12zM870 678h12v12h-12zM942 678h12v12h-12zM918 702h12v12h-12zM894 726h12v12h-12zM870 750h12v12h-12zM942 750h12v12h-12zM6 774h12v12h-12zM30 774h12v12h-12zM54 846h12v12h-12zM78 846h12v12h-12zM222 774h12v12h-12zM198 798h12v12h-12zM246 798h12v12h-12zM270 798h12v12h-12zM198 822h12v12h-12zM222 822h12v12h-12zM270 822h12v12h-12zM246 846h12v12h-12zM414 774h12v12h-12zM462 774h12v12h-12zM414 846h12v12h-12zM462 846h12v12h-12zM486 774h12v12h-12zM486 798h12v12h-12zM558 822h12v12h-12zM558 846h12v12h-12zM630 774h12v12h-12zM654 774h12v12h-12zM582 846h12v12h-12zM606 846h12v12h-12zM702 774h12v12h-12zM750 774h12v12h-12zM678 798h12v12h-12zM750 822h12v12h-12zM678 846h12v12h-12zM726 846h12v12h-12zM774 774h12v12h-12zM774 798h12v12h-12zM846 822h12v12h-12zM846 846h12v12h-12zM894 774h12v12h-12zM870 798h12v12h-12zM894 798h12v12h-12zM918 822h12v12h-12zM942 822h12v12h-12zM918 846h12v12h-12zM486 870h12v12h-12zM558 870h12v12h-12zM510 894h12v12h-12zM534 894h12v12h-12zM510 918h12v12h-12zM534 918h12v12h-12zM486 942h12v12h-12zM558 942h12v12h-12zM582 870h12v12h-12zM606 870h12v12h-12zM654 870h12v12h-12zM582 894h12v12h-12zM630 894h12v12h-12zM606 918h12v12h-12zM582 942h12v12h-12zM750 870h12v12h-12zM750 894h12v12h-12zM678 918h12v12h-12zM678 942h12v12h-12zM774 870h12v12h-12zM798 870h12v12h-12zM822 942h12v12h-12zM846 942h12v12h-12zM870 870h12v12h-12zM894 870h12v12h-12zM870 894h12v12h-12zM894 894h12v12h-12zM918 918h12v12h-12zM942 918h12v12h-12zM918 942h12v12h-12zM942 942h12v12h-12zM6 678h12v12h-12zM30 678h12v12h-12zM54 750h12v12h-12zM78 750h12v12h-12zM318 582h12v12h-12zM366 582h12v12h-12zM294 606h12v12h-12zM318 606h12v12h-12zM342 630h12v12h-12zM366 630h12v12h-12zM294 654h12v12h-12zM342 654h12v12h-12zM798 294h12v12h-12zM774 318h12v12h-12zM846 342h12v12h-12zM822 366h12v12h-12zM318 774h12v12h-12zM294 798h12v12h-12zM342 798h12v12h-12zM366 798h12v12h-12zM294 822h12v12h-12zM318 822h12v12h-12zM366 822h12v12h-12zM342 846h12v12h-12zM222 102h12v12h-12zM246 102h12v12h-12zM222 174h12v12h-12zM246 174h12v12h-12zM318 678h12v12h-12zM366 678h12v12h-12zM294 702h12v12h-12zM318 702h12v12h-12zM342 726h12v12h-12zM366 726h12v12h-12zM294 750h12v12h-12zM342 750h12v12h-12zM486 486h12v12h-12zM558 486h12v12h-12zM510 510h12v12h-12zM510 534h12v12h-12zM534 534h12v12h-12zM486 558h12v12h-12zM558 558h12v12h-12zM390 870h12v12h-12zM390 894h12v12h-12zM462 918h12v12h-12zM462 942h12v12h-12z"/><path fill="#fff" d="M0 96h96v96h-96zM0 0h96v96h-96zM96 96h96v96h-96zM192 192h96v96h-96zM288 288h96v96h-96zM384 384h96v96h-96zM288 480h96v96h-96zM192 576h96v96h-96zM96 672h96v96h-96zM0 768h96v96h-96zM0 672h96v96h-96zM0 576h96v96h-96zM0 480h96v96h-96zM0 384h96v96h-96zM0 288h96v96h-96zM96 384h96v96h-96zM192 480h96v96h-96zM288 576h96v96h-96zM384 672h96v96h-96zM384 576h96v96h-96zM384 480h96v96h-96zM384 768h96v96h-96zM864 96h96v96h-96zM864 0h96v96h-96zM768 96h96v96h-96zM672 192h96v96h-96zM576 288h96v96h-96zM480 384h96v96h-96zM576 480h96v96h-96zM672 576h96v96h-96zM768 672h96v96h-96zM864 768h96v96h-96zM864 672h96v96h-96zM864 576h96v96h-96zM864 480h96v96h-96zM864 384h96v96h-96zM864 288h96v96h-96zM768 384h96v96h-96zM672 480h96v96h-96zM576 576h96v96h-96zM480 672h96v96h-96zM480 576h96v96h-96zM480 480h96v96h-96zM480 768h96v96h-96z"/></svg>