<svg xmlns="http://www.w3.org/2000/svg" width="960" height="960" viewBox="0 0 960 960" shape-rendering="crispEdges"><path fill="#fff" d="M0 0h960v960h-960z"/><path fill="#b8bea2" d="M0 0h24v24h-24zM0 48h24v24h-24zM0 96h24v24h-24zM0 144h24v24h-24zM0 192h24v24h-24zM0 240h24v24h-24zM0 288h24v24h-24zM24 24h24v24h-24zM24 72h24v24h-24zM24 120h24v24h-24zM24 168h24v24h-24zM24 216h24v24h-24zM24 264h24v24h-24zM24 312h24v8h-24zM48 0h24v24h-24zM48 48h24v24h-24zM48 96h24v24h-24zM48 144h24v24h-24zM48 192h24v24h-24zM48 240h24v24h-24zM48 288h24v24h-24zM72 24h24v24h-24zM72 72h24v24h-24zM72 120h24v24h-24zM72 168h24v24h-24zM72 216h24v24h-24zM72 264h24v24h-24zM72 312h24v8h-24zM96 0h24v24h-24zM96 48h24v24h-24zM96 96h24v24h-24zM96 144h24v24h-24zM96 192h24v24h-24zM96 240h24v24h-24zM96 288h24v24h-24zM120 24h24v24h-24zM120 72h24v24h-24zM120 120h24v24h-24zM120 168h24v24h-24zM120 216h24v24h-24zM120 264h24v24h-24zM120 312h24v8h-24zM144 0h24v24h-24zM144 48h24v24h-24zM144 96h24v24h-24zM144 144h24v24h-24zM144 192h24v24h-24zM144 240h24v24h-24zM144 288h24v24h-24zM168 24h24v24h-24zM168 72h24v24h-24zM168 120h24v24h-24zM168 168h24v24h-24zM168 216h24v24h-24zM168 264h24v24h-24zM168 312h24v8h-24zM192 0h24v24h-24zM192 48h24v24h-24zM192 96h24v24h-24zM192 144h24v24h-24zM192 192h24v24h-24zM192 240h24v24h-24zM192 288h24v24h-24zM216 24h24v24h-24zM216 72h24v24h-24zM216 120h24v24h-24zM216 168h24v24h-24zM216 216h24v24h-24zM216 264h24v24h-24zM216 312h24v8h-24zM240 0h24v24h-24zM240 48h24v24h-24zM240 96h24v24h-24zM240 144h24v24h-24zM240 192h24v24h-24zM240 240h24v24h-24zM240 288h24v24h-24zM264 24h24v24h-24zM264 72h24v24h-24zM264 120h24v24h-24zM264 168h24v24h-24zM264 216h24v24h-24zM264 264h24v24h-24zM264 312h24v8h-24zM288 0h24v24h-24zM288 48h24v24h-24zM288 96h24v24h-24zM288 144h24v24h-24zM288 192h24v24h-24zM288 240h24v24h-24zM288 288h24v24h-24zM312 24h24v24h-24zM312 72h24v24h-24zM312 120h24v24h-24zM312 168h24v24h-24zM312 216h24v24h-24zM312 264h24v24h-24zM312 312h24v8h-24zM336 0h24v24h-24zM336 48h24v24h-24zM336 96h24v24h-24zM336 144h24v24h-24zM336 192h24v24h-24zM336 240h24v24h-24zM336 288h24v24h-24zM360 24h24v24h-24zM360 72h24v24h-24zM360 120h24v24h-24zM360 168h24v24h-24zM360 216h24v24h-24zM360 264h24v24h-24zM360 312h24v8h-24zM384 0h24v24h-24zM384 48h24v24h-24zM384 96h24v24h-24zM384 144h24v24h-24zM384 192h24v24h-24zM384 240h24v24h-24zM384 288h24v24h-24zM408 24h24v24h-24zM408 72h24v24h-24zM408 120h24v24h-24zM408 168h24v24h-24zM408 216h24v24h-24zM408 264h24v24h-24zM408 312h24v8h-24zM432 0h24v24h-24zM432 48h24v24h-24zM432 96h24v24h-24zM432 144h24v24h-24zM432 192h24v24h-24zM432 240h24v24h-24zM432 288h24v24h-24zM456 24h24v24h-24zM456 72h24v24h-24zM456 120h24v24h-24zM456 168h24v24h-24zM456 216h24v24h-24zM456 264h24v24h-24zM456 312h24v8h-24zM480 0h24v24h-24zM480 48h24v24h-24zM480 96h24v24h-24zM480 144h24v24h-24zM480 192h24v24h-24zM480 240h24v24h-24zM480 288h24v24h-24zM504 24h24v24h-24zM504 72h24v24h-24zM504 120h24v24h-24zM504 168h24v24h-24zM504 216h24v24h-24zM504 264h24v24h-24zM504 312h24v8h-24zM528 0h24v24h-24zM528 48h24v24h-24zM528 96h24v24h-24zM528 144h24v24h-24zM528 192h24v24h-24zM528 240h24v24h-24zM528 288h24v24h-24zM552 24h24v24h-24zM552 72h24v24h-24zM552 120h24v24h-24zM552 168h24v24h-24zM552 216h24v24h-24zM552 264h24v24h-24zM552 312h24v8h-24zM576 0h24v24h-24zM576 48h24v24h-24zM576 96h24v24h-24zM576 144h24v24h-24zM576 192h24v24h-24zM576 240h24v24h-24zM576 288h24v24h-24zM600 24h24v24h-24zM600 72h24v24h-24zM600 120h24v24h-24zM600 168h24v24h-24zM600 216h24v24h-24zM600 264h24v24h-24zM600 312h24v8h-24zM624 0h24v24h-24zM624 48h24v24h-24zM624 96h24v24h-24zM624 144h24v24h-24zM624 192h24v24h-24zM624 240h24v24h-24zM624 288h24v24h-24zM648 24h24v24h-24zM648 72h24v24h-24zM648 120h24v24h-24zM648 168h24v24h-24zM648 216h24v24h-24zM648 264h24v24h-24zM648 312h24v8h-24zM672 0h24v24h-24zM672 48h24v24h-24zM672 96h24v24h-24zM672 144h24v24h-24zM672 192h24v24h-24zM672 240h24v24h-24zM672 288h24v24h-24zM696 24h24v24h-24zM696 72h24v24h-24zM696 120h24v24h-24zM696 168h24v24h-24zM696 216h24v24h-24zM696 264h24v24h-24zM696 312h24v8h-24zM720 0h24v24h-24zM720 48h24v24h-24zM720 96h24v24h-24zM720 144h24v24h-24zM720 192h24v24h-24zM720 240h24v24h-24zM720 288h24v24h-24zM744 24h24v24h-24zM744 72h24v24h-24zM744 120h24v24h-24zM744 168h24v24h-24zM744 216h24v24h-24zM744 264h24v24h-24zM744 312h24v8h-24zM768 0h24v24h-24zM768 48h24v24h-24zM768 96h24v24h-24zM768 144h24v24h-24zM768 192h24v24h-24zM768 240h24v24h-24zM768 288h24v24h-24zM792 24h24v24h-24zM792 72h24v24h-24zM792 120h24v24h-24zM792 168h24v24h-24zM792 216h24v24h-24zM792 264h24v24h-24zM792 312h24v8h-24zM816 0h24v24h-24zM816 48h24v24h-24zM816 96h24v24h-24zM816 144h24v24h-24zM816 192h24v24h-24zM816 240h24v24h-24zM816 288h24v24h-24zM840 24h24v24h-24zM840 72h24v24h-24zM840 120h24v24h-24zM840 168h24v24h-24zM840 216h24v24h-24zM840 264h24v24h-24zM840 312h24v8h-24zM864 0h24v24h-24zM864 48h24v24h-24zM864 96h24v24h-24zM864 144h24v24h-24zM864 192h24v24h-24zM864 240h24v24h-24zM864 288h24v24h-24zM888 24h24v24h-24zM888 72h24v24h-24zM888 120h24v24h-24zM888 168h24v24h-24zM888 216h24v24h-24zM888 264h24v24h-24zM888 312h24v8h-24zM912 0h24v24h-24zM912 48h24v24h-24zM912 96h24v24h-24zM912 144h24v24h-24zM912 192h24v24h-24zM912 240h24v24h-24zM912 288h24v24h-24zM936 24h24v24h-24zM936 72h24v24h-24zM936 120h24v24h-24zM936 168h24v24h-24zM936 216h24v24h-24zM936 264h24v24h-24zM936 312h24v8h-24z"/><path fill="#4d767a" d="M9 0h6v24h-6zM0 9h24v6h-24zM57 0h6v24h-6zM48 9h24v6h-24zM33 24h6v24h-6zM24 33h24v6h-24zM81 24h6v24h-6zM72 33h24v6h-24zM9 48h6v24h-6zM0 57h24v6h-24zM57 48h6v24h-6zM48 57h24v6h-24zM33 72h6v24h-6zM24 81h24v6h-24zM81 72h6v24h-6zM72 81h24v6h-24zM201 0h6v24h-6zM192 9h24v6h-24zM273 0h6v24h-6zM264 9h24v6h-24zM225 24h6v24h-6zM216 33h24v6h-24zM225 48h6v24h-6zM216 57h24v6h-24zM249 48h6v24h-6zM240 57h24v6h-24zM201 72h6v24h-6zM192 81h24v6h-24zM273 72h6v24h-6zM264 81h24v6h-24zM393 0h6v24h-6zM384 9h24v6h-24zM417 24h6v24h-6zM408 33h24v6h-24zM393 48h6v24h-6zM384 57h24v6h-24zM441 48h6v24h-6zM432 57h24v6h-24zM393 72h6v24h-6zM384 81h24v6h-24zM417 72h6v24h-6zM408 81h24v6h-24zM465 72h6v24h-6zM456 81h24v6h-24zM509 0h3v12h-3zM504 5h12v3h-12zM521 0h3v12h-3zM516 5h12v3h-12zM485 36h3v12h-3zM480 41h12v3h-12zM497 36h3v12h-3zM492 41h12v3h-12zM533 0h3v12h-3zM528 5h12v3h-12zM569 0h3v12h-3zM564 5h12v3h-12zM533 36h3v12h-3zM528 41h12v3h-12zM569 36h3v12h-3zM564 41h12v3h-12zM581 0h3v12h-3zM576 5h12v3h-12zM593 12h3v12h-3zM588 17h12v3h-12zM581 24h3v12h-3zM576 29h12v3h-12zM605 24h3v12h-3zM600 29h12v3h-12zM581 36h3v12h-3zM576 41h12v3h-12zM593 36h3v12h-3zM588 41h12v3h-12zM617 36h3v12h-3zM612 41h12v3h-12zM629 0h3v12h-3zM624 5h12v3h-12zM653 0h3v12h-3zM648 5h12v3h-12zM641 12h3v12h-3zM636 17h12v3h-12zM665 12h3v12h-3zM660 17h12v3h-12zM629 24h3v12h-3zM624 29h12v3h-12zM653 24h3v12h-3zM648 29h12v3h-12zM641 36h3v12h-3zM636 41h12v3h-12zM665 36h3v12h-3zM660 41h12v3h-12zM689 0h3v12h-3zM684 5h12v3h-12zM713 0h3v12h-3zM708 5h12v3h-12zM677 12h3v12h-3zM672 17h12v3h-12zM701 12h3v12h-3zM696 17h12v3h-12zM689 24h3v12h-3zM684 29h12v3h-12zM713 24h3v12h-3zM708 29h12v3h-12zM677 36h3v12h-3zM672 41h12v3h-12zM701 36h3v12h-3zM696 41h12v3h-12zM737 0h3v12h-3zM732 5h12v3h-12zM761 0h3v12h-3zM756 5h12v3h-12zM749 12h3v12h-3zM744 17h12v3h-12zM749 24h3v12h-3zM744 29h12v3h-12zM737 36h3v12h-3zM732 41h12v3h-12zM761 36h3v12h-3zM756 41h12v3h-12zM773 0h3v12h-3zM768 5h12v3h-12zM809 0h3v12h-3zM804 5h12v3h-12zM785 12h3v12h-3zM780 17h12v3h-12zM785 24h3v12h-3zM780 29h12v3h-12zM797 24h3v12h-3zM792 29h12v3h-12zM773 36h3v12h-3zM768 41h12v3h-12zM809 36h3v12h-3zM804 41h12v3h-12zM821 0h3v12h-3zM816 5h12v3h-12zM857 0h3v12h-3zM852 5h12v3h-12zM833 12h3v12h-3zM828 17h12v3h-12zM845 12h3v12h-3zM840 17h12v3h-12zM833 24h3v12h-3zM828 29h12v3h-12zM845 24h3v12h-3zM840 29h12v3h-12zM821 36h3v12h-3zM816 41h12v3h-12zM857 36h3v12h-3zM852 41h12v3h-12zM905 0h3v12h-3zM900 5h12v3h-12zM893 12h3v12h-3zM888 17h12v3h-12zM881 24h3v12h-3zM876 29h12v3h-12zM869 36h3v12h-3zM864 41h12v3h-12zM917 0h3v12h-3zM912 5h12v3h-12zM929 0h3v12h-3zM924 5h12v3h-12zM941 36h3v12h-3zM936 41h12v3h-12zM953 36h3v12h-3zM948 41h12v3h-12zM497 48h3v12h-3zM492 53h12v3h-12zM485 60h3v12h-3zM480 65h12v3h-12zM521 72h3v12h-3zM516 77h12v3h-12zM509 84h3v12h-3zM504 89h12v3h-12zM545 48h3v12h-3zM540 53h12v3h-12zM569 48h3v12h-3zM564 53h12v3h-12zM533 60h3v12h-3zM528 65h12v3h-12zM569 72h3v12h-3zM564 77h12v3h-12zM533 84h3v12h-3zM528 89h12v3h-12zM557 84h3v12h-3zM552 89h12v3h-12zM617 48h3v12h-3zM612 53h12v3h-12zM605 60h3v12h-3zM600 65h12v3h-12zM593 72h3v12h-3zM588 77h12v3h-12zM617 72h3v12h-3zM612 77h12v3h-12zM581 84h3v12h-3zM576 89h12v3h-12zM605 84h3v12h-3zM600 89h12v3h-12zM617 84h3v12h-3zM612 89h12v3h-12zM629 48h3v12h-3zM624 53h12v3h-12zM665 48h3v12h-3zM660 53h12v3h-12zM641 60h3v12h-3zM636 65h12v3h-12zM641 72h3v12h-3zM636 77h12v3h-12zM653 72h3v12h-3zM648 77h12v3h-12zM629 84h3v12h-3zM624 89h12v3h-12zM665 84h3v12h-3zM660 89h12v3h-12zM701 48h3v12h-3zM696 53h12v3h-12zM701 60h3v12h-3zM696 65h12v3h-12zM713 60h3v12h-3zM708 65h12v3h-12zM677 72h3v12h-3zM672 77h12v3h-12zM689 72h3v12h-3zM684 77h12v3h-12zM689 84h3v12h-3zM684 89h12v3h-12zM737 48h3v12h-3zM732 53h12v3h-12zM749 72h3v12h-3zM744 77h12v3h-12zM737 84h3v12h-3zM732 89h12v3h-12zM749 84h3v12h-3zM744 89h12v3h-12zM785 48h3v12h-3zM780 53h12v3h-12zM809 48h3v12h-3zM804 53h12v3h-12zM773 60h3v12h-3zM768 65h12v3h-12zM785 60h3v12h-3zM780 65h12v3h-12zM797 72h3v12h-3zM792 77h12v3h-12zM809 72h3v12h-3zM804 77h12v3h-12zM773 84h3v12h-3zM768 89h12v3h-12zM797 84h3v12h-3zM792 89h12v3h-12zM857 48h3v12h-3zM852 53h12v3h-12zM857 60h3v12h-3zM852 65h12v3h-12zM821 72h3v12h-3zM816 77h12v3h-12zM821 84h3v12h-3zM816 89h12v3h-12zM881 48h3v12h-3zM876 53h12v3h-12zM905 48h3v12h-3zM900 53h12v3h-12zM869 60h3v12h-3zM864 65h12v3h-12zM893 60h3v12h-3zM888 65h12v3h-12zM881 72h3v12h-3zM876 77h12v3h-12zM905 72h3v12h-3zM900 77h12v3h-12zM869 84h3v12h-3zM864 89h12v3h-12zM893 84h3v12h-3zM888 89h12v3h-12zM917 48h3v12h-3zM912 53h12v3h-12zM953 48h3v12h-3zM948 53h12v3h-12zM917 72h3v12h-3zM912 77h12v3h-12zM953 72h3v12h-3zM948 77h12v3h-12zM497 96h3v12h-3zM492 101h12v3h-12zM521 96h3v12h-3zM516 101h12v3h-12zM497 132h3v12h-3zM492 137h12v3h-12zM521 132h3v12h-3zM516 137h12v3h-12zM533 96h3v12h-3zM528 101h12v3h-12zM545 96h3v12h-3zM540 101h12v3h-12zM569 96h3v12h-3zM564 101h12v3h-12zM533 108h3v12h-3zM528 113h12v3h-12zM557 108h3v12h-3zM552 113h12v3h-12zM545 120h3v12h-3zM540 125h12v3h-12zM533 132h3v12h-3zM528 137h12v3h-12zM581 96h3v12h-3zM576 101h12v3h-12zM617 96h3v12h-3zM612 101h12v3h-12zM605 108h3v12h-3zM600 113h12v3h-12zM593 120h3v12h-3zM588 125h12v3h-12zM605 120h3v12h-3zM600 125h12v3h-12zM581 132h3v12h-3zM576 137h12v3h-12zM617 132h3v12h-3zM612 137h12v3h-12zM629 96h3v12h-3zM624 101h12v3h-12zM665 96h3v12h-3zM660 101h12v3h-12zM641 120h3v12h-3zM636 125h12v3h-12zM653 120h3v12h-3zM648 125h12v3h-12zM629 132h3v12h-3zM624 137h12v3h-12zM665 132h3v12h-3zM660 137h12v3h-12zM677 96h3v12h-3zM672 101h12v3h-12zM677 108h3v12h-3zM672 113h12v3h-12zM713 120h3v12h-3zM708 125h12v3h-12zM713 132h3v12h-3zM708 137h12v3h-12zM737 96h3v12h-3zM732 101h12v3h-12zM749 120h3v12h-3zM744 125h12v3h-12zM737 132h3v12h-3zM732 137h12v3h-12zM749 132h3v12h-3zM744 137h12v3h-12zM773 96h3v12h-3zM768 101h12v3h-12zM809 96h3v12h-3zM804 101h12v3h-12zM785 108h3v12h-3zM780 113h12v3h-12zM797 108h3v12h-3zM792 113h12v3h-12zM785 120h3v12h-3zM780 125h12v3h-12zM773 132h3v12h-3zM768 137h12v3h-12zM809 132h3v12h-3zM804 137h12v3h-12zM821 96h3v12h-3zM816 101h12v3h-12zM857 96h3v12h-3zM852 101h12v3h-12zM833 120h3v12h-3zM828 125h12v3h-12zM845 120h3v12h-3zM840 125h12v3h-12zM821 132h3v12h-3zM816 137h12v3h-12zM857 132h3v12h-3zM852 137h12v3h-12zM893 96h3v12h-3zM888 101h12v3h-12zM905 96h3v12h-3zM900 101h12v3h-12zM893 108h3v12h-3zM888 113h12v3h-12zM905 108h3v12h-3zM900 113h12v3h-12zM869 120h3v12h-3zM864 125h12v3h-12zM881 120h3v12h-3zM876 125h12v3h-12zM869 132h3v12h-3zM864 137h12v3h-12zM881 132h3v12h-3zM876 137h12v3h-12zM953 168h3v12h-3zM948 173h12v3h-12zM929 96h3v12h-3zM924 101h12v3h-12zM941 96h3v12h-3zM936 101h12v3h-12zM929 108h3v12h-3zM924 113h12v3h-12zM953 108h3v12h-3zM948 113h12v3h-12zM917 120h3v12h-3zM912 125h12v3h-12zM941 120h3v12h-3zM936 125h12v3h-12zM929 132h3v12h-3zM924 137h12v3h-12zM941 132h3v12h-3zM936 137h12v3h-12zM485 144h3v12h-3zM480 149h12v3h-12zM509 144h3v12h-3zM504 149h12v3h-12zM509 156h3v12h-3zM504 161h12v3h-12zM521 156h3v12h-3zM516 161h12v3h-12zM485 168h3v12h-3zM480 173h12v3h-12zM497 168h3v12h-3zM492 173h12v3h-12zM497 180h3v12h-3zM492 185h12v3h-12zM521 180h3v12h-3zM516 185h12v3h-12zM533 144h3v12h-3zM528 149h12v3h-12zM569 144h3v12h-3zM564 149h12v3h-12zM545 168h3v12h-3zM540 173h12v3h-12zM557 168h3v12h-3zM552 173h12v3h-12zM533 180h3v12h-3zM528 185h12v3h-12zM569 180h3v12h-3zM564 185h12v3h-12zM593 144h3v12h-3zM588 149h12v3h-12zM617 144h3v12h-3zM612 149h12v3h-12zM605 156h3v12h-3zM600 161h12v3h-12zM605 168h3v12h-3zM600 173h12v3h-12zM593 180h3v12h-3zM588 185h12v3h-12zM617 180h3v12h-3zM612 185h12v3h-12zM653 144h3v12h-3zM648 149h12v3h-12zM641 156h3v12h-3zM636 161h12v3h-12zM665 156h3v12h-3zM660 161h12v3h-12zM629 168h3v12h-3zM624 173h12v3h-12zM653 168h3v12h-3zM648 173h12v3h-12zM641 180h3v12h-3zM636 185h12v3h-12zM677 144h3v12h-3zM672 149h12v3h-12zM713 144h3v12h-3zM708 149h12v3h-12zM677 180h3v12h-3zM672 185h12v3h-12zM713 180h3v12h-3zM708 185h12v3h-12zM725 156h3v12h-3zM720 161h12v3h-12zM761 156h3v12h-3zM756 161h12v3h-12zM725 168h3v12h-3zM720 173h12v3h-12zM737 168h3v12h-3zM732 173h12v3h-12zM797 144h3v12h-3zM792 149h12v3h-12zM809 144h3v12h-3zM804 149h12v3h-12zM797 156h3v12h-3zM792 161h12v3h-12zM809 156h3v12h-3zM804 161h12v3h-12zM773 168h3v12h-3zM768 173h12v3h-12zM785 168h3v12h-3zM780 173h12v3h-12zM773 180h3v12h-3zM768 185h12v3h-12zM785 180h3v12h-3zM780 185h12v3h-12zM821 144h3v12h-3zM816 149h12v3h-12zM833 156h3v12h-3zM828 161h12v3h-12zM821 168h3v12h-3zM816 173h12v3h-12zM845 168h3v12h-3zM840 173h12v3h-12zM821 180h3v12h-3zM816 185h12v3h-12zM833 180h3v12h-3zM828 185h12v3h-12zM857 180h3v12h-3zM852 185h12v3h-12zM869 144h3v12h-3zM864 149h12v3h-12zM905 144h3v12h-3zM900 149h12v3h-12zM893 156h3v12h-3zM888 161h12v3h-12zM881 168h3v12h-3zM876 173h12v3h-12zM893 168h3v12h-3zM888 173h12v3h-12zM869 180h3v12h-3zM864 185h12v3h-12zM905 180h3v12h-3zM900 185h12v3h-12zM917 144h3v12h-3zM912 149h12v3h-12zM917 156h3v12h-3zM912 161h12v3h-12zM953 168h3v12h-3zM948 173h12v3h-12zM953 180h3v12h-3zM948 185h12v3h-12zM81 336h6v24h-6zM72 345h24v6h-24zM33 192h6v24h-6zM24 201h24v6h-24zM57 192h6v24h-6zM48 201h24v6h-24zM33 216h6v24h-6zM24 225h24v6h-24zM81 216h6v24h-6zM72 225h24v6h-24zM9 240h6v24h-6zM0 249h24v6h-24zM57 240h6v24h-6zM48 249h24v6h-24zM33 264h6v24h-6zM24 273h24v6h-24zM57 264h6v24h-6zM48 273h24v6h-24zM201 192h6v24h-6zM192 201h24v6h-24zM273 192h6v24h-6zM264 201h24v6h-24zM225 216h6v24h-6zM216 225h24v6h-24zM225 240h6v24h-6zM216 249h24v6h-24zM249 240h6v24h-6zM240 249h24v6h-24zM201 264h6v24h-6zM192 273h24v6h-24zM273 264h6v24h-6zM264 273h24v6h-24zM393 192h6v24h-6zM384 201h24v6h-24zM417 216h6v24h-6zM408 225h24v6h-24zM441 240h6v24h-6zM432 249h24v6h-24zM465 264h6v24h-6zM456 273h24v6h-24zM485 192h3v12h-3zM480 197h12v3h-12zM497 204h3v12h-3zM492 209h12v3h-12zM485 216h3v12h-3zM480 221h12v3h-12zM509 216h3v12h-3zM504 221h12v3h-12zM485 228h3v12h-3zM480 233h12v3h-12zM497 228h3v12h-3zM492 233h12v3h-12zM521 228h3v12h-3zM516 233h12v3h-12zM551 210h3v12h-3zM546 215h12v3h-12zM593 192h3v12h-3zM588 197h12v3h-12zM617 192h3v12h-3zM612 197h12v3h-12zM593 228h3v12h-3zM588 233h12v3h-12zM617 228h3v12h-3zM612 233h12v3h-12zM641 192h3v12h-3zM636 197h12v3h-12zM653 216h3v12h-3zM648 221h12v3h-12zM641 228h3v12h-3zM636 233h12v3h-12zM653 228h3v12h-3zM648 233h12v3h-12zM689 192h3v12h-3zM684 197h12v3h-12zM713 192h3v12h-3zM708 197h12v3h-12zM677 204h3v12h-3zM672 209h12v3h-12zM689 204h3v12h-3zM684 209h12v3h-12zM701 216h3v12h-3zM696 221h12v3h-12zM713 216h3v12h-3zM708 221h12v3h-12zM677 228h3v12h-3zM672 233h12v3h-12zM701 228h3v12h-3zM696 233h12v3h-12zM737 192h3v12h-3zM732 197h12v3h-12zM761 192h3v12h-3zM756 197h12v3h-12zM725 204h3v12h-3zM720 209h12v3h-12zM749 204h3v12h-3zM744 209h12v3h-12zM737 216h3v12h-3zM732 221h12v3h-12zM761 216h3v12h-3zM756 221h12v3h-12zM725 228h3v12h-3zM720 233h12v3h-12zM749 228h3v12h-3zM744 233h12v3h-12zM773 192h3v12h-3zM768 197h12v3h-12zM809 192h3v12h-3zM804 197h12v3h-12zM773 216h3v12h-3zM768 221h12v3h-12zM809 216h3v12h-3zM804 221h12v3h-12zM821 192h3v12h-3zM816 197h12v3h-12zM821 204h3v12h-3zM816 209h12v3h-12zM857 216h3v12h-3zM852 221h12v3h-12zM857 228h3v12h-3zM852 233h12v3h-12zM881 204h3v12h-3zM876 209h12v3h-12zM893 204h3v12h-3zM888 209h12v3h-12zM881 216h3v12h-3zM876 221h12v3h-12zM893 216h3v12h-3zM888 221h12v3h-12zM953 192h3v12h-3zM948 197h12v3h-12zM953 204h3v12h-3zM948 209h12v3h-12zM917 216h3v12h-3zM912 221h12v3h-12zM917 228h3v12h-3zM912 233h12v3h-12zM497 240h3v12h-3zM492 245h12v3h-12zM485 252h3v12h-3zM480 257h12v3h-12zM509 252h3v12h-3zM504 257h12v3h-12zM521 252h3v12h-3zM516 257h12v3h-12zM485 264h3v12h-3zM480 269h12v3h-12zM497 264h3v12h-3zM492 269h12v3h-12zM521 264h3v12h-3zM516 269h12v3h-12zM509 276h3v12h-3zM504 281h12v3h-12zM557 240h3v12h-3zM552 245h12v3h-12zM569 240h3v12h-3zM564 245h12v3h-12zM557 252h3v12h-3zM552 257h12v3h-12zM569 252h3v12h-3zM564 257h12v3h-12zM533 264h3v12h-3zM528 269h12v3h-12zM545 264h3v12h-3zM540 269h12v3h-12zM533 276h3v12h-3zM528 281h12v3h-12zM545 276h3v12h-3zM540 281h12v3h-12zM581 240h3v12h-3zM576 245h12v3h-12zM617 240h3v12h-3zM612 245h12v3h-12zM593 252h3v12h-3zM588 257h12v3h-12zM605 252h3v12h-3zM600 257h12v3h-12zM581 276h3v12h-3zM576 281h12v3h-12zM617 276h3v12h-3zM612 281h12v3h-12zM641 240h3v12h-3zM636 245h12v3h-12zM665 240h3v12h-3zM660 245h12v3h-12zM629 252h3v12h-3zM624 257h12v3h-12zM641 252h3v12h-3zM636 257h12v3h-12zM653 264h3v12h-3zM648 269h12v3h-12zM665 264h3v12h-3zM660 269h12v3h-12zM629 276h3v12h-3zM624 281h12v3h-12zM653 276h3v12h-3zM648 281h12v3h-12zM689 240h3v12h-3zM684 245h12v3h-12zM677 252h3v12h-3zM672 257h12v3h-12zM713 264h3v12h-3zM708 269h12v3h-12zM701 276h3v12h-3zM696 281h12v3h-12zM725 240h3v12h-3zM720 245h12v3h-12zM761 240h3v12h-3zM756 245h12v3h-12zM749 252h3v12h-3zM744 257h12v3h-12zM737 264h3v12h-3zM732 269h12v3h-12zM749 264h3v12h-3zM744 269h12v3h-12zM725 276h3v12h-3zM720 281h12v3h-12zM761 276h3v12h-3zM756 281h12v3h-12zM773 240h3v12h-3zM768 245h12v3h-12zM809 240h3v12h-3zM804 245h12v3h-12zM785 252h3v12h-3zM780 257h12v3h-12zM797 252h3v12h-3zM792 257h12v3h-12zM773 276h3v12h-3zM768 281h12v3h-12zM809 276h3v12h-3zM804 281h12v3h-12zM821 240h3v12h-3zM816 245h12v3h-12zM845 240h3v12h-3zM840 245h12v3h-12zM833 252h3v12h-3zM828 257h12v3h-12zM857 252h3v12h-3zM852 257h12v3h-12zM821 264h3v12h-3zM816 269h12v3h-12zM845 264h3v12h-3zM840 269h12v3h-12zM833 276h3v12h-3zM828 281h12v3h-12zM857 276h3v12h-3zM852 281h12v3h-12zM869 240h3v12h-3zM864 245h12v3h-12zM881 240h3v12h-3zM876 245h12v3h-12zM893 276h3v12h-3zM888 281h12v3h-12zM905 276h3v12h-3zM900 281h12v3h-12zM929 240h3v12h-3zM924 245h12v3h-12zM953 240h3v12h-3zM948 245h12v3h-12zM917 252h3v12h-3zM912 257h12v3h-12zM929 252h3v12h-3zM924 257h12v3h-12zM941 264h3v12h-3zM936 269h12v3h-12zM953 264h3v12h-3zM948 269h12v3h-12zM917 276h3v12h-3zM912 281h12v3h-12zM941 276h3v12h-3zM936 281h12v3h-12zM29 288h3v12h-3zM24 293h12v3h-12zM41 300h3v12h-3zM36 305h12v3h-12zM5 312h3v12h-3zM0 317h12v3h-12zM17 324h3v12h-3zM12 329h12v3h-12zM53 288h3v12h-3zM48 293h12v3h-12zM77 288h3v12h-3zM72 293h12v3h-12zM89 288h3v12h-3zM84 293h12v3h-12zM65 300h3v12h-3zM60 305h12v3h-12zM89 300h3v12h-3zM84 305h12v3h-12zM77 312h3v12h-3zM72 317h12v3h-12zM89 324h3v12h-3zM84 329h12v3h-12zM101 288h3v12h-3zM96 293h12v3h-12zM101 300h3v12h-3zM96 305h12v3h-12zM137 312h3v12h-3zM132 317h12v3h-12zM137 324h3v12h-3zM132 329h12v3h-12zM185 288h3v12h-3zM180 293h12v3h-12zM173 300h3v12h-3zM168 305h12v3h-12zM161 312h3v12h-3zM156 317h12v3h-12zM149 324h3v12h-3zM144 329h12v3h-12zM197 288h3v12h-3zM192 293h12v3h-12zM233 288h3v12h-3zM228 293h12v3h-12zM209 300h3v12h-3zM204 305h12v3h-12zM221 300h3v12h-3zM216 305h12v3h-12zM209 312h3v12h-3zM204 317h12v3h-12zM221 312h3v12h-3zM216 317h12v3h-12zM197 324h3v12h-3zM192 329h12v3h-12zM233 324h3v12h-3zM228 329h12v3h-12zM245 288h3v12h-3zM240 293h12v3h-12zM281 288h3v12h-3zM276 293h12v3h-12zM257 300h3v12h-3zM252 305h12v3h-12zM269 312h3v12h-3zM264 317h12v3h-12zM245 324h3v12h-3zM240 329h12v3h-12zM281 324h3v12h-3zM276 329h12v3h-12zM293 288h3v12h-3zM288 293h12v3h-12zM329 288h3v12h-3zM324 293h12v3h-12zM317 300h3v12h-3zM312 305h12v3h-12zM305 312h3v12h-3zM300 317h12v3h-12zM293 324h3v12h-3zM288 329h12v3h-12zM329 324h3v12h-3zM324 329h12v3h-12zM353 288h3v12h-3zM348 293h12v3h-12zM377 288h3v12h-3zM372 293h12v3h-12zM341 300h3v12h-3zM336 305h12v3h-12zM365 300h3v12h-3zM360 305h12v3h-12zM353 312h3v12h-3zM348 317h12v3h-12zM377 312h3v12h-3zM372 317h12v3h-12zM341 324h3v12h-3zM336 329h12v3h-12zM365 324h3v12h-3zM360 329h12v3h-12zM389 288h3v12h-3zM384 293h12v3h-12zM413 288h3v12h-3zM408 293h12v3h-12zM425 288h3v12h-3zM420 293h12v3h-12zM401 300h3v12h-3zM396 305h12v3h-12zM425 300h3v12h-3zM420 305h12v3h-12zM413 312h3v12h-3zM408 317h12v3h-12zM425 324h3v12h-3zM420 329h12v3h-12zM461 288h3v12h-3zM456 293h12v3h-12zM473 300h3v12h-3zM468 305h12v3h-12zM437 312h3v12h-3zM432 317h12v3h-12zM449 324h3v12h-3zM444 329h12v3h-12zM29 336h3v12h-3zM24 341h12v3h-12zM41 336h3v12h-3zM36 341h12v3h-12zM5 372h3v12h-3zM0 377h12v3h-12zM17 372h3v12h-3zM12 377h12v3h-12zM71 354h3v12h-3zM66 359h12v3h-12zM101 348h3v12h-3zM96 353h12v3h-12zM137 348h3v12h-3zM132 353h12v3h-12zM101 360h3v12h-3zM96 365h12v3h-12zM137 360h3v12h-3zM132 365h12v3h-12zM149 336h3v12h-3zM144 341h12v3h-12zM185 336h3v12h-3zM180 341h12v3h-12zM161 348h3v12h-3zM156 353h12v3h-12zM173 348h3v12h-3zM168 353h12v3h-12zM161 360h3v12h-3zM156 365h12v3h-12zM149 372h3v12h-3zM144 377h12v3h-12zM185 372h3v12h-3zM180 377h12v3h-12zM221 336h3v12h-3zM216 341h12v3h-12zM233 348h3v12h-3zM228 353h12v3h-12zM197 360h3v12h-3zM192 365h12v3h-12zM209 372h3v12h-3zM204 377h12v3h-12zM245 336h3v12h-3zM240 341h12v3h-12zM281 336h3v12h-3zM276 341h12v3h-12zM257 348h3v12h-3zM252 353h12v3h-12zM269 348h3v12h-3zM264 353h12v3h-12zM257 360h3v12h-3zM252 365h12v3h-12zM269 360h3v12h-3zM264 365h12v3h-12zM245 372h3v12h-3zM240 377h12v3h-12zM281 372h3v12h-3zM276 377h12v3h-12zM305 336h3v12h-3zM300 341h12v3h-12zM293 348h3v12h-3zM288 353h12v3h-12zM329 360h3v12h-3zM324 365h12v3h-12zM317 372h3v12h-3zM312 377h12v3h-12zM353 336h3v12h-3zM348 341h12v3h-12zM341 348h3v12h-3zM336 353h12v3h-12zM353 348h3v12h-3zM348 353h12v3h-12zM365 360h3v12h-3zM360 365h12v3h-12zM377 360h3v12h-3zM372 365h12v3h-12zM365 372h3v12h-3zM360 377h12v3h-12zM401 336h3v12h-3zM396 341h12v3h-12zM389 348h3v12h-3zM384 353h12v3h-12zM413 348h3v12h-3zM408 353h12v3h-12zM425 348h3v12h-3zM420 353h12v3h-12zM389 360h3v12h-3zM384 365h12v3h-12zM401 360h3v12h-3zM396 365h12v3h-12zM425 360h3v12h-3zM420 365h12v3h-12zM413 372h3v12h-3zM408 377h12v3h-12zM437 336h3v12h-3zM432 341h12v3h-12zM449 336h3v12h-3zM444 341h12v3h-12zM461 372h3v12h-3zM456 377h12v3h-12zM473 372h3v12h-3zM468 377h12v3h-12zM5 384h3v12h-3zM0 389h12v3h-12zM41 384h3v12h-3zM36 389h12v3h-12zM29 396h3v12h-3zM24 401h12v3h-12zM17 408h3v12h-3zM12 413h12v3h-12zM5 420h3v12h-3zM0 425h12v3h-12zM41 420h3v12h-3zM36 425h12v3h-12zM53 384h3v12h-3zM48 389h12v3h-12zM77 384h3v12h-3zM72 389h12v3h-12zM89 396h3v12h-3zM84 401h12v3h-12zM53 408h3v12h-3zM48 413h12v3h-12zM65 420h3v12h-3zM60 425h12v3h-12zM89 420h3v12h-3zM84 425h12v3h-12zM101 396h3v12h-3zM96 401h12v3h-12zM137 396h3v12h-3zM132 401h12v3h-12zM101 408h3v12h-3zM96 413h12v3h-12zM113 408h3v12h-3zM108 413h12v3h-12zM185 456h3v12h-3zM180 461h12v3h-12zM161 384h3v12h-3zM156 389h12v3h-12zM173 384h3v12h-3zM168 389h12v3h-12zM161 396h3v12h-3zM156 401h12v3h-12zM185 396h3v12h-3zM180 401h12v3h-12zM149 408h3v12h-3zM144 413h12v3h-12zM173 408h3v12h-3zM168 413h12v3h-12zM161 420h3v12h-3zM156 425h12v3h-12zM173 420h3v12h-3zM168 425h12v3h-12zM197 384h3v12h-3zM192 389h12v3h-12zM209 384h3v12h-3zM204 389h12v3h-12zM197 396h3v12h-3zM192 401h12v3h-12zM209 396h3v12h-3zM204 401h12v3h-12zM221 408h3v12h-3zM216 413h12v3h-12zM233 408h3v12h-3zM228 413h12v3h-12zM221 420h3v12h-3zM216 425h12v3h-12zM233 420h3v12h-3zM228 425h12v3h-12zM257 384h3v12h-3zM252 389h12v3h-12zM269 384h3v12h-3zM264 389h12v3h-12zM245 396h3v12h-3zM240 401h12v3h-12zM269 396h3v12h-3zM264 401h12v3h-12zM257 408h3v12h-3zM252 413h12v3h-12zM281 408h3v12h-3zM276 413h12v3h-12zM257 420h3v12h-3zM252 425h12v3h-12zM269 420h3v12h-3zM264 425h12v3h-12zM293 384h3v12h-3zM288 389h12v3h-12zM329 384h3v12h-3zM324 389h12v3h-12zM293 408h3v12h-3zM288 413h12v3h-12zM329 408h3v12h-3zM324 413h12v3h-12zM365 384h3v12h-3zM360 389h12v3h-12zM377 384h3v12h-3zM372 389h12v3h-12zM341 420h3v12h-3zM336 425h12v3h-12zM353 420h3v12h-3zM348 425h12v3h-12zM389 384h3v12h-3zM384 389h12v3h-12zM425 384h3v12h-3zM420 389h12v3h-12zM401 396h3v12h-3zM396 401h12v3h-12zM413 396h3v12h-3zM408 401h12v3h-12zM389 420h3v12h-3zM384 425h12v3h-12zM425 420h3v12h-3zM420 425h12v3h-12zM449 384h3v12h-3zM444 389h12v3h-12zM437 396h3v12h-3zM432 401h12v3h-12zM449 396h3v12h-3zM444 401h12v3h-12zM461 408h3v12h-3zM456 413h12v3h-12zM473 408h3v12h-3zM468 413h12v3h-12zM461 420h3v12h-3zM456 425h12v3h-12zM585 384h6v24h-6zM576 393h24v6h-24zM657 384h6v24h-6zM648 393h24v6h-24zM585 456h6v24h-6zM576 465h24v6h-24zM657 456h6v24h-6zM648 465h24v6h-24zM801 384h6v24h-6zM792 393h24v6h-24zM849 384h6v24h-6zM840 393h24v6h-24zM777 408h6v24h-6zM768 417h24v6h-24zM801 408h6v24h-6zM792 417h24v6h-24zM825 432h6v24h-6zM816 441h24v6h-24zM849 432h6v24h-6zM840 441h24v6h-24zM777 456h6v24h-6zM768 465h24v6h-24zM825 456h6v24h-6zM816 465h24v6h-24zM5 444h3v12h-3zM0 449h12v3h-12zM41 444h3v12h-3zM36 449h12v3h-12zM5 456h3v12h-3zM0 461h12v3h-12zM41 456h3v12h-3zM36 461h12v3h-12zM53 432h3v12h-3zM48 437h12v3h-12zM65 432h3v12h-3zM60 437h12v3h-12zM89 432h3v12h-3zM84 437h12v3h-12zM53 444h3v12h-3zM48 449h12v3h-12zM77 444h3v12h-3zM72 449h12v3h-12zM65 456h3v12h-3zM60 461h12v3h-12zM53 468h3v12h-3zM48 473h12v3h-12zM113 432h3v12h-3zM108 437h12v3h-12zM125 456h3v12h-3zM120 461h12v3h-12zM113 468h3v12h-3zM108 473h12v3h-12zM125 468h3v12h-3zM120 473h12v3h-12zM161 432h3v12h-3zM156 437h12v3h-12zM185 432h3v12h-3zM180 437h12v3h-12zM149 444h3v12h-3zM144 449h12v3h-12zM185 456h3v12h-3zM180 461h12v3h-12zM149 468h3v12h-3zM144 473h12v3h-12zM173 468h3v12h-3zM168 473h12v3h-12zM233 504h3v12h-3zM228 509h12v3h-12zM209 432h3v12h-3zM204 437h12v3h-12zM221 432h3v12h-3zM216 437h12v3h-12zM209 444h3v12h-3zM204 449h12v3h-12zM233 444h3v12h-3zM228 449h12v3h-12zM197 456h3v12h-3zM192 461h12v3h-12zM221 456h3v12h-3zM216 461h12v3h-12zM209 468h3v12h-3zM204 473h12v3h-12zM221 468h3v12h-3zM216 473h12v3h-12zM245 432h3v12h-3zM240 437h12v3h-12zM245 444h3v12h-3zM240 449h12v3h-12zM281 456h3v12h-3zM276 461h12v3h-12zM281 468h3v12h-3zM276 473h12v3h-12zM305 432h3v12h-3zM300 437h12v3h-12zM293 444h3v12h-3zM288 449h12v3h-12zM305 444h3v12h-3zM300 449h12v3h-12zM317 456h3v12h-3zM312 461h12v3h-12zM329 456h3v12h-3zM324 461h12v3h-12zM317 468h3v12h-3zM312 473h12v3h-12zM341 444h3v12h-3zM336 449h12v3h-12zM353 444h3v12h-3zM348 449h12v3h-12zM341 456h3v12h-3zM336 461h12v3h-12zM377 456h3v12h-3zM372 461h12v3h-12zM401 432h3v12h-3zM396 437h12v3h-12zM389 444h3v12h-3zM384 449h12v3h-12zM401 444h3v12h-3zM396 449h12v3h-12zM413 456h3v12h-3zM408 461h12v3h-12zM425 456h3v12h-3zM420 461h12v3h-12zM413 468h3v12h-3zM408 473h12v3h-12zM449 432h3v12h-3zM444 437h12v3h-12zM461 456h3v12h-3zM456 461h12v3h-12zM449 468h3v12h-3zM444 473h12v3h-12zM461 468h3v12h-3zM456 473h12v3h-12zM5 480h3v12h-3zM0 485h12v3h-12zM29 480h3v12h-3zM24 485h12v3h-12zM41 480h3v12h-3zM36 485h12v3h-12zM17 492h3v12h-3zM12 497h12v3h-12zM41 492h3v12h-3zM36 497h12v3h-12zM29 504h3v12h-3zM24 509h12v3h-12zM41 516h3v12h-3zM36 521h12v3h-12zM77 480h3v12h-3zM72 485h12v3h-12zM65 492h3v12h-3zM60 497h12v3h-12zM89 492h3v12h-3zM84 497h12v3h-12zM53 504h3v12h-3zM48 509h12v3h-12zM77 504h3v12h-3zM72 509h12v3h-12zM65 516h3v12h-3zM60 521h12v3h-12zM113 480h3v12h-3zM108 485h12v3h-12zM137 480h3v12h-3zM132 485h12v3h-12zM113 516h3v12h-3zM108 521h12v3h-12zM137 516h3v12h-3zM132 521h12v3h-12zM185 480h3v12h-3zM180 485h12v3h-12zM173 492h3v12h-3zM168 497h12v3h-12zM161 504h3v12h-3zM156 509h12v3h-12zM149 516h3v12h-3zM144 521h12v3h-12zM209 480h3v12h-3zM204 485h12v3h-12zM221 480h3v12h-3zM216 485h12v3h-12zM221 492h3v12h-3zM216 497h12v3h-12zM209 516h3v12h-3zM204 521h12v3h-12zM257 480h3v12h-3zM252 485h12v3h-12zM281 480h3v12h-3zM276 485h12v3h-12zM245 492h3v12h-3zM240 497h12v3h-12zM269 492h3v12h-3zM264 497h12v3h-12zM257 504h3v12h-3zM252 509h12v3h-12zM281 504h3v12h-3zM276 509h12v3h-12zM245 516h3v12h-3zM240 521h12v3h-12zM269 516h3v12h-3zM264 521h12v3h-12zM305 480h3v12h-3zM300 485h12v3h-12zM317 480h3v12h-3zM312 485h12v3h-12zM305 516h3v12h-3zM300 521h12v3h-12zM317 516h3v12h-3zM312 521h12v3h-12zM353 480h3v12h-3zM348 485h12v3h-12zM365 480h3v12h-3zM360 485h12v3h-12zM365 492h3v12h-3zM360 497h12v3h-12zM353 516h3v12h-3zM348 521h12v3h-12zM389 480h3v12h-3zM384 485h12v3h-12zM389 492h3v12h-3zM384 497h12v3h-12zM425 504h3v12h-3zM420 509h12v3h-12zM425 516h3v12h-3zM420 521h12v3h-12zM449 480h3v12h-3zM444 485h12v3h-12zM461 504h3v12h-3zM456 509h12v3h-12zM449 516h3v12h-3zM444 521h12v3h-12zM461 516h3v12h-3zM456 521h12v3h-12zM5 528h3v12h-3zM0 533h12v3h-12zM41 528h3v12h-3zM36 533h12v3h-12zM17 552h3v12h-3zM12 557h12v3h-12zM29 552h3v12h-3zM24 557h12v3h-12zM5 564h3v12h-3zM0 569h12v3h-12zM41 564h3v12h-3zM36 569h12v3h-12zM89 528h3v12h-3zM84 533h12v3h-12zM77 540h3v12h-3zM72 545h12v3h-12zM65 552h3v12h-3zM60 557h12v3h-12zM89 552h3v12h-3zM84 557h12v3h-12zM53 564h3v12h-3zM48 569h12v3h-12zM77 564h3v12h-3zM72 569h12v3h-12zM89 564h3v12h-3zM84 569h12v3h-12zM101 528h3v12h-3zM96 533h12v3h-12zM137 528h3v12h-3zM132 533h12v3h-12zM113 540h3v12h-3zM108 545h12v3h-12zM125 540h3v12h-3zM120 545h12v3h-12zM125 552h3v12h-3zM120 557h12v3h-12zM101 564h3v12h-3zM96 569h12v3h-12zM137 564h3v12h-3zM132 569h12v3h-12zM149 528h3v12h-3zM144 533h12v3h-12zM173 528h3v12h-3zM168 533h12v3h-12zM161 540h3v12h-3zM156 545h12v3h-12zM185 540h3v12h-3zM180 545h12v3h-12zM149 552h3v12h-3zM144 557h12v3h-12zM173 552h3v12h-3zM168 557h12v3h-12zM161 564h3v12h-3zM156 569h12v3h-12zM185 564h3v12h-3zM180 569h12v3h-12zM197 528h3v12h-3zM192 533h12v3h-12zM221 528h3v12h-3zM216 533h12v3h-12zM209 540h3v12h-3zM204 545h12v3h-12zM233 540h3v12h-3zM228 545h12v3h-12zM197 552h3v12h-3zM192 557h12v3h-12zM221 552h3v12h-3zM216 557h12v3h-12zM209 564h3v12h-3zM204 569h12v3h-12zM233 564h3v12h-3zM228 569h12v3h-12zM245 528h3v12h-3zM240 533h12v3h-12zM269 528h3v12h-3zM264 533h12v3h-12zM269 540h3v12h-3zM264 545h12v3h-12zM281 540h3v12h-3zM276 545h12v3h-12zM245 552h3v12h-3zM240 557h12v3h-12zM257 552h3v12h-3zM252 557h12v3h-12zM257 564h3v12h-3zM252 569h12v3h-12zM281 564h3v12h-3zM276 569h12v3h-12zM305 528h3v12h-3zM300 533h12v3h-12zM329 528h3v12h-3zM324 533h12v3h-12zM293 540h3v12h-3zM288 545h12v3h-12zM305 540h3v12h-3zM300 545h12v3h-12zM317 552h3v12h-3zM312 557h12v3h-12zM329 552h3v12h-3zM324 557h12v3h-12zM293 564h3v12h-3zM288 569h12v3h-12zM317 564h3v12h-3zM312 569h12v3h-12zM341 528h3v12h-3zM336 533h12v3h-12zM353 540h3v12h-3zM348 545h12v3h-12zM341 552h3v12h-3zM336 557h12v3h-12zM365 552h3v12h-3zM360 557h12v3h-12zM341 564h3v12h-3zM336 569h12v3h-12zM353 564h3v12h-3zM348 569h12v3h-12zM377 564h3v12h-3zM372 569h12v3h-12zM407 546h3v12h-3zM402 551h12v3h-12zM437 528h3v12h-3zM432 533h12v3h-12zM461 528h3v12h-3zM456 533h12v3h-12zM449 540h3v12h-3zM444 545h12v3h-12zM473 540h3v12h-3zM468 545h12v3h-12zM437 552h3v12h-3zM432 557h12v3h-12zM461 552h3v12h-3zM456 557h12v3h-12zM449 564h3v12h-3zM444 569h12v3h-12zM473 564h3v12h-3zM468 569h12v3h-12zM29 576h3v12h-3zM24 581h12v3h-12zM29 588h3v12h-3zM24 593h12v3h-12zM41 588h3v12h-3zM36 593h12v3h-12zM5 600h3v12h-3zM0 605h12v3h-12zM17 600h3v12h-3zM12 605h12v3h-12zM17 612h3v12h-3zM12 617h12v3h-12zM53 576h3v12h-3zM48 581h12v3h-12zM89 576h3v12h-3zM84 581h12v3h-12zM65 588h3v12h-3zM60 593h12v3h-12zM77 588h3v12h-3zM72 593h12v3h-12zM53 612h3v12h-3zM48 617h12v3h-12zM89 612h3v12h-3zM84 617h12v3h-12zM137 576h3v12h-3zM132 581h12v3h-12zM137 588h3v12h-3zM132 593h12v3h-12zM101 600h3v12h-3zM96 605h12v3h-12zM101 612h3v12h-3zM96 617h12v3h-12zM161 576h3v12h-3zM156 581h12v3h-12zM185 576h3v12h-3zM180 581h12v3h-12zM149 588h3v12h-3zM144 593h12v3h-12zM173 588h3v12h-3zM168 593h12v3h-12zM161 600h3v12h-3zM156 605h12v3h-12zM185 600h3v12h-3zM180 605h12v3h-12zM149 612h3v12h-3zM144 617h12v3h-12zM173 612h3v12h-3zM168 617h12v3h-12zM197 576h3v12h-3zM192 581h12v3h-12zM233 576h3v12h-3zM228 581h12v3h-12zM209 588h3v12h-3zM204 593h12v3h-12zM221 588h3v12h-3zM216 593h12v3h-12zM221 600h3v12h-3zM216 605h12v3h-12zM197 612h3v12h-3zM192 617h12v3h-12zM233 612h3v12h-3zM228 617h12v3h-12zM257 576h3v12h-3zM252 581h12v3h-12zM245 588h3v12h-3zM240 593h12v3h-12zM269 588h3v12h-3zM264 593h12v3h-12zM257 600h3v12h-3zM252 605h12v3h-12zM281 600h3v12h-3zM276 605h12v3h-12zM269 612h3v12h-3zM264 617h12v3h-12zM293 576h3v12h-3zM288 581h12v3h-12zM317 576h3v12h-3zM312 581h12v3h-12zM329 588h3v12h-3zM324 593h12v3h-12zM293 600h3v12h-3zM288 605h12v3h-12zM305 612h3v12h-3zM300 617h12v3h-12zM329 612h3v12h-3zM324 617h12v3h-12zM341 576h3v12h-3zM336 581h12v3h-12zM377 576h3v12h-3zM372 581h12v3h-12zM353 588h3v12h-3zM348 593h12v3h-12zM365 588h3v12h-3zM360 593h12v3h-12zM365 600h3v12h-3zM360 605h12v3h-12zM341 612h3v12h-3zM336 617h12v3h-12zM377 612h3v12h-3zM372 617h12v3h-12zM425 576h3v12h-3zM420 581h12v3h-12zM425 588h3v12h-3zM420 593h12v3h-12zM389 600h3v12h-3zM384 605h12v3h-12zM389 612h3v12h-3zM384 617h12v3h-12zM449 588h3v12h-3zM444 593h12v3h-12zM461 588h3v12h-3zM456 593h12v3h-12zM449 600h3v12h-3zM444 605h12v3h-12zM461 600h3v12h-3zM456 605h12v3h-12zM585 576h6v24h-6zM576 585h24v6h-24zM609 600h6v24h-6zM600 609h24v6h-24zM585 624h6v24h-6zM576 633h24v6h-24zM633 624h6v24h-6zM624 633h24v6h-24zM585 648h6v24h-6zM576 657h24v6h-24zM609 648h6v24h-6zM600 657h24v6h-24zM657 648h6v24h-6zM648 657h24v6h-24zM777 600h6v24h-6zM768 609h24v6h-24zM849 600h6v24h-6zM840 609h24v6h-24zM777 624h6v24h-6zM768 633h24v6h-24zM849 624h6v24h-6zM840 633h24v6h-24zM521 624h3v12h-3zM516 629h12v3h-12zM509 636h3v12h-3zM504 641h12v3h-12zM497 648h3v12h-3zM492 653h12v3h-12zM521 648h3v12h-3zM516 653h12v3h-12zM485 660h3v12h-3zM480 665h12v3h-12zM509 660h3v12h-3zM504 665h12v3h-12zM521 660h3v12h-3zM516 665h12v3h-12zM533 636h3v12h-3zM528 641h12v3h-12zM545 636h3v12h-3zM540 641h12v3h-12zM533 648h3v12h-3zM528 653h12v3h-12zM569 648h3v12h-3zM564 653h12v3h-12zM617 624h3v12h-3zM612 629h12v3h-12zM617 636h3v12h-3zM612 641h12v3h-12zM581 648h3v12h-3zM576 653h12v3h-12zM581 660h3v12h-3zM576 665h12v3h-12zM641 636h3v12h-3zM636 641h12v3h-12zM653 636h3v12h-3zM648 641h12v3h-12zM641 648h3v12h-3zM636 653h12v3h-12zM653 648h3v12h-3zM648 653h12v3h-12zM689 624h3v12h-3zM684 629h12v3h-12zM701 648h3v12h-3zM696 653h12v3h-12zM689 660h3v12h-3zM684 665h12v3h-12zM701 660h3v12h-3zM696 665h12v3h-12zM737 624h3v12h-3zM732 629h12v3h-12zM725 636h3v12h-3zM720 641h12v3h-12zM737 636h3v12h-3zM732 641h12v3h-12zM749 648h3v12h-3zM744 653h12v3h-12zM761 648h3v12h-3zM756 653h12v3h-12zM749 660h3v12h-3zM744 665h12v3h-12zM791 642h3v12h-3zM786 647h12v3h-12zM845 624h3v12h-3zM840 629h12v3h-12zM857 636h3v12h-3zM852 641h12v3h-12zM821 648h3v12h-3zM816 653h12v3h-12zM833 660h3v12h-3zM828 665h12v3h-12zM869 636h3v12h-3zM864 641h12v3h-12zM905 636h3v12h-3zM900 641h12v3h-12zM869 648h3v12h-3zM864 653h12v3h-12zM881 648h3v12h-3zM876 653h12v3h-12zM917 624h3v12h-3zM912 629h12v3h-12zM953 624h3v12h-3zM948 629h12v3h-12zM929 636h3v12h-3zM924 641h12v3h-12zM941 636h3v12h-3zM936 641h12v3h-12zM929 648h3v12h-3zM924 653h12v3h-12zM917 660h3v12h-3zM912 665h12v3h-12zM953 660h3v12h-3zM948 665h12v3h-12zM485 672h3v12h-3zM480 677h12v3h-12zM497 684h3v12h-3zM492 689h12v3h-12zM485 696h3v12h-3zM480 701h12v3h-12zM509 696h3v12h-3zM504 701h12v3h-12zM485 708h3v12h-3zM480 713h12v3h-12zM497 708h3v12h-3zM492 713h12v3h-12zM521 708h3v12h-3zM516 713h12v3h-12zM569 672h3v12h-3zM564 677h12v3h-12zM557 684h3v12h-3zM552 689h12v3h-12zM545 696h3v12h-3zM540 701h12v3h-12zM569 696h3v12h-3zM564 701h12v3h-12zM533 708h3v12h-3zM528 713h12v3h-12zM557 708h3v12h-3zM552 713h12v3h-12zM569 708h3v12h-3zM564 713h12v3h-12zM593 672h3v12h-3zM588 677h12v3h-12zM617 672h3v12h-3zM612 677h12v3h-12zM605 684h3v12h-3zM600 689h12v3h-12zM605 696h3v12h-3zM600 701h12v3h-12zM593 708h3v12h-3zM588 713h12v3h-12zM617 708h3v12h-3zM612 713h12v3h-12zM665 672h3v12h-3zM660 677h12v3h-12zM653 684h3v12h-3zM648 689h12v3h-12zM641 696h3v12h-3zM636 701h12v3h-12zM629 708h3v12h-3zM624 713h12v3h-12zM677 672h3v12h-3zM672 677h12v3h-12zM713 672h3v12h-3zM708 677h12v3h-12zM689 696h3v12h-3zM684 701h12v3h-12zM701 696h3v12h-3zM696 701h12v3h-12zM677 708h3v12h-3zM672 713h12v3h-12zM713 708h3v12h-3zM708 713h12v3h-12zM737 672h3v12h-3zM732 677h12v3h-12zM761 672h3v12h-3zM756 677h12v3h-12zM749 684h3v12h-3zM744 689h12v3h-12zM749 696h3v12h-3zM744 701h12v3h-12zM737 708h3v12h-3zM732 713h12v3h-12zM761 708h3v12h-3zM756 713h12v3h-12zM773 672h3v12h-3zM768 677h12v3h-12zM809 672h3v12h-3zM804 677h12v3h-12zM785 684h3v12h-3zM780 689h12v3h-12zM797 696h3v12h-3zM792 701h12v3h-12zM773 708h3v12h-3zM768 713h12v3h-12zM809 708h3v12h-3zM804 713h12v3h-12zM833 672h3v12h-3zM828 677h12v3h-12zM821 684h3v12h-3zM816 689h12v3h-12zM833 684h3v12h-3zM828 689h12v3h-12zM845 696h3v12h-3zM840 701h12v3h-12zM857 696h3v12h-3zM852 701h12v3h-12zM845 708h3v12h-3zM840 713h12v3h-12zM881 672h3v12h-3zM876 677h12v3h-12zM869 684h3v12h-3zM864 689h12v3h-12zM893 684h3v12h-3zM888 689h12v3h-12zM905 684h3v12h-3zM900 689h12v3h-12zM869 696h3v12h-3zM864 701h12v3h-12zM881 696h3v12h-3zM876 701h12v3h-12zM905 696h3v12h-3zM900 701h12v3h-12zM893 708h3v12h-3zM888 713h12v3h-12zM917 672h3v12h-3zM912 677h12v3h-12zM953 672h3v12h-3zM948 677h12v3h-12zM917 696h3v12h-3zM912 701h12v3h-12zM953 696h3v12h-3zM948 701h12v3h-12zM485 720h3v12h-3zM480 725h12v3h-12zM521 720h3v12h-3zM516 725h12v3h-12zM497 732h3v12h-3zM492 737h12v3h-12zM509 732h3v12h-3zM504 737h12v3h-12zM485 756h3v12h-3zM480 761h12v3h-12zM521 756h3v12h-3zM516 761h12v3h-12zM533 720h3v12h-3zM528 725h12v3h-12zM569 720h3v12h-3zM564 725h12v3h-12zM545 732h3v12h-3zM540 737h12v3h-12zM557 732h3v12h-3zM552 737h12v3h-12zM545 744h3v12h-3zM540 749h12v3h-12zM557 744h3v12h-3zM552 749h12v3h-12zM533 756h3v12h-3zM528 761h12v3h-12zM569 756h3v12h-3zM564 761h12v3h-12zM581 720h3v12h-3zM576 725h12v3h-12zM593 720h3v12h-3zM588 725h12v3h-12zM581 732h3v12h-3zM576 737h12v3h-12zM593 732h3v12h-3zM588 737h12v3h-12zM605 744h3v12h-3zM600 749h12v3h-12zM617 744h3v12h-3zM612 749h12v3h-12zM605 756h3v12h-3zM600 761h12v3h-12zM617 756h3v12h-3zM612 761h12v3h-12zM629 720h3v12h-3zM624 725h12v3h-12zM641 732h3v12h-3zM636 737h12v3h-12zM629 744h3v12h-3zM624 749h12v3h-12zM653 744h3v12h-3zM648 749h12v3h-12zM629 756h3v12h-3zM624 761h12v3h-12zM641 756h3v12h-3zM636 761h12v3h-12zM665 756h3v12h-3zM660 761h12v3h-12zM713 720h3v12h-3zM708 725h12v3h-12zM701 732h3v12h-3zM696 737h12v3h-12zM689 744h3v12h-3zM684 749h12v3h-12zM677 756h3v12h-3zM672 761h12v3h-12zM725 720h3v12h-3zM720 725h12v3h-12zM761 720h3v12h-3zM756 725h12v3h-12zM725 744h3v12h-3zM720 749h12v3h-12zM761 744h3v12h-3zM756 749h12v3h-12zM773 720h3v12h-3zM768 725h12v3h-12zM773 732h3v12h-3zM768 737h12v3h-12zM809 744h3v12h-3zM804 749h12v3h-12zM809 756h3v12h-3zM804 761h12v3h-12zM845 720h3v12h-3zM840 725h12v3h-12zM833 732h3v12h-3zM828 737h12v3h-12zM857 732h3v12h-3zM852 737h12v3h-12zM821 744h3v12h-3zM816 749h12v3h-12zM845 744h3v12h-3zM840 749h12v3h-12zM833 756h3v12h-3zM828 761h12v3h-12zM893 720h3v12h-3zM888 725h12v3h-12zM893 732h3v12h-3zM888 737h12v3h-12zM905 732h3v12h-3zM900 737h12v3h-12zM869 744h3v12h-3zM864 749h12v3h-12zM881 744h3v12h-3zM876 749h12v3h-12zM881 756h3v12h-3zM876 761h12v3h-12zM929 720h3v12h-3zM924 725h12v3h-12zM953 720h3v12h-3zM948 725h12v3h-12zM941 732h3v12h-3zM936 737h12v3h-12zM941 744h3v12h-3zM936 749h12v3h-12zM929 756h3v12h-3zM924 761h12v3h-12zM953 756h3v12h-3zM948 761h12v3h-12zM9 768h6v24h-6zM0 777h24v6h-24zM33 792h6v24h-6zM24 801h24v6h-24zM57 816h6v24h-6zM48 825h24v6h-24zM81 840h6v24h-6zM72 849h24v6h-24zM201 768h6v24h-6zM192 777h24v6h-24zM273 768h6v24h-6zM264 777h24v6h-24zM225 792h6v24h-6zM216 801h24v6h-24zM249 816h6v24h-6zM240 825h24v6h-24zM201 840h6v24h-6zM192 849h24v6h-24zM273 840h6v24h-6zM264 849h24v6h-24zM393 768h6v24h-6zM384 777h24v6h-24zM441 768h6v24h-6zM432 777h24v6h-24zM417 792h6v24h-6zM408 801h24v6h-24zM465 792h6v24h-6zM456 801h24v6h-24zM393 816h6v24h-6zM384 825h24v6h-24zM441 816h6v24h-6zM432 825h24v6h-24zM417 840h6v24h-6zM408 849h24v6h-24zM465 840h6v24h-6zM456 849h24v6h-24zM485 768h3v12h-3zM480 773h12v3h-12zM509 768h3v12h-3zM504 773h12v3h-12zM509 780h3v12h-3zM504 785h12v3h-12zM521 780h3v12h-3zM516 785h12v3h-12zM485 792h3v12h-3zM480 797h12v3h-12zM497 792h3v12h-3zM492 797h12v3h-12zM497 804h3v12h-3zM492 809h12v3h-12zM521 804h3v12h-3zM516 809h12v3h-12zM533 768h3v12h-3zM528 773h12v3h-12zM533 780h3v12h-3zM528 785h12v3h-12zM569 792h3v12h-3zM564 797h12v3h-12zM569 804h3v12h-3zM564 809h12v3h-12zM581 768h3v12h-3zM576 773h12v3h-12zM617 768h3v12h-3zM612 773h12v3h-12zM581 804h3v12h-3zM576 809h12v3h-12zM617 804h3v12h-3zM612 809h12v3h-12zM641 768h3v12h-3zM636 773h12v3h-12zM665 768h3v12h-3zM660 773h12v3h-12zM629 780h3v12h-3zM624 785h12v3h-12zM653 780h3v12h-3zM648 785h12v3h-12zM641 792h3v12h-3zM636 797h12v3h-12zM665 792h3v12h-3zM660 797h12v3h-12zM629 804h3v12h-3zM624 809h12v3h-12zM653 804h3v12h-3zM648 809h12v3h-12zM701 768h3v12h-3zM696 773h12v3h-12zM689 780h3v12h-3zM684 785h12v3h-12zM713 780h3v12h-3zM708 785h12v3h-12zM677 792h3v12h-3zM672 797h12v3h-12zM701 792h3v12h-3zM696 797h12v3h-12zM689 804h3v12h-3zM684 809h12v3h-12zM737 768h3v12h-3zM732 773h12v3h-12zM725 780h3v12h-3zM720 785h12v3h-12zM737 780h3v12h-3zM732 785h12v3h-12zM749 792h3v12h-3zM744 797h12v3h-12zM761 792h3v12h-3zM756 797h12v3h-12zM749 804h3v12h-3zM744 809h12v3h-12zM773 768h3v12h-3zM768 773h12v3h-12zM809 768h3v12h-3zM804 773h12v3h-12zM785 780h3v12h-3zM780 785h12v3h-12zM797 780h3v12h-3zM792 785h12v3h-12zM773 804h3v12h-3zM768 809h12v3h-12zM809 804h3v12h-3zM804 809h12v3h-12zM821 768h3v12h-3zM816 773h12v3h-12zM833 780h3v12h-3zM828 785h12v3h-12zM821 792h3v12h-3zM816 797h12v3h-12zM845 792h3v12h-3zM840 797h12v3h-12zM821 804h3v12h-3zM816 809h12v3h-12zM833 804h3v12h-3zM828 809h12v3h-12zM857 804h3v12h-3zM852 809h12v3h-12zM881 768h3v12h-3zM876 773h12v3h-12zM893 768h3v12h-3zM888 773h12v3h-12zM881 804h3v12h-3zM876 809h12v3h-12zM893 804h3v12h-3zM888 809h12v3h-12zM917 768h3v12h-3zM912 773h12v3h-12zM941 768h3v12h-3zM936 773h12v3h-12zM953 768h3v12h-3zM948 773h12v3h-12zM929 780h3v12h-3zM924 785h12v3h-12zM953 780h3v12h-3zM948 785h12v3h-12zM941 792h3v12h-3zM936 797h12v3h-12zM953 804h3v12h-3zM948 809h12v3h-12zM497 816h3v12h-3zM492 821h12v3h-12zM485 828h3v12h-3zM480 833h12v3h-12zM509 828h3v12h-3zM504 833h12v3h-12zM521 828h3v12h-3zM516 833h12v3h-12zM485 840h3v12h-3zM480 845h12v3h-12zM497 840h3v12h-3zM492 845h12v3h-12zM521 840h3v12h-3zM516 845h12v3h-12zM509 852h3v12h-3zM504 857h12v3h-12zM569 888h3v12h-3zM564 893h12v3h-12zM545 816h3v12h-3zM540 821h12v3h-12zM557 816h3v12h-3zM552 821h12v3h-12zM545 828h3v12h-3zM540 833h12v3h-12zM569 828h3v12h-3zM564 833h12v3h-12zM533 840h3v12h-3zM528 845h12v3h-12zM557 840h3v12h-3zM552 845h12v3h-12zM545 852h3v12h-3zM540 857h12v3h-12zM557 852h3v12h-3zM552 857h12v3h-12zM581 816h3v12h-3zM576 821h12v3h-12zM617 816h3v12h-3zM612 821h12v3h-12zM593 828h3v12h-3zM588 833h12v3h-12zM605 828h3v12h-3zM600 833h12v3h-12zM581 852h3v12h-3zM576 857h12v3h-12zM617 852h3v12h-3zM612 857h12v3h-12zM653 816h3v12h-3zM648 821h12v3h-12zM665 828h3v12h-3zM660 833h12v3h-12zM629 840h3v12h-3zM624 845h12v3h-12zM641 852h3v12h-3zM636 857h12v3h-12zM677 816h3v12h-3zM672 821h12v3h-12zM713 816h3v12h-3zM708 821h12v3h-12zM689 828h3v12h-3zM684 833h12v3h-12zM701 828h3v12h-3zM696 833h12v3h-12zM701 840h3v12h-3zM696 845h12v3h-12zM677 852h3v12h-3zM672 857h12v3h-12zM713 852h3v12h-3zM708 857h12v3h-12zM725 816h3v12h-3zM720 821h12v3h-12zM761 816h3v12h-3zM756 821h12v3h-12zM737 828h3v12h-3zM732 833h12v3h-12zM749 828h3v12h-3zM744 833h12v3h-12zM725 852h3v12h-3zM720 857h12v3h-12zM761 852h3v12h-3zM756 857h12v3h-12zM785 816h3v12h-3zM780 821h12v3h-12zM809 816h3v12h-3zM804 821h12v3h-12zM773 828h3v12h-3zM768 833h12v3h-12zM809 840h3v12h-3zM804 845h12v3h-12zM773 852h3v12h-3zM768 857h12v3h-12zM797 852h3v12h-3zM792 857h12v3h-12zM857 816h3v12h-3zM852 821h12v3h-12zM857 828h3v12h-3zM852 833h12v3h-12zM821 840h3v12h-3zM816 845h12v3h-12zM821 852h3v12h-3zM816 857h12v3h-12zM869 828h3v12h-3zM864 833h12v3h-12zM905 828h3v12h-3zM900 833h12v3h-12zM869 840h3v12h-3zM864 845h12v3h-12zM881 840h3v12h-3zM876 845h12v3h-12zM929 816h3v12h-3zM924 821h12v3h-12zM953 816h3v12h-3zM948 821h12v3h-12zM941 828h3v12h-3zM936 833h12v3h-12zM941 840h3v12h-3zM936 845h12v3h-12zM929 852h3v12h-3zM924 857h12v3h-12zM953 852h3v12h-3zM948 857h12v3h-12zM485 864h3v12h-3zM480 869h12v3h-12zM497 864h3v12h-3zM492 869h12v3h-12zM509 900h3v12h-3zM504 905h12v3h-12zM521 900h3v12h-3zM516 905h12v3h-12zM533 864h3v12h-3zM528 869h12v3h-12zM569 864h3v12h-3zM564 869h12v3h-12zM545 876h3v12h-3zM540 881h12v3h-12zM557 888h3v12h-3zM552 893h12v3h-12zM533 900h3v12h-3zM528 905h12v3h-12zM569 900h3v12h-3zM564 905h12v3h-12zM593 864h3v12h-3zM588 869h12v3h-12zM581 876h3v12h-3zM576 881h12v3h-12zM605 876h3v12h-3zM600 881h12v3h-12zM617 876h3v12h-3zM612 881h12v3h-12zM581 888h3v12h-3zM576 893h12v3h-12zM593 888h3v12h-3zM588 893h12v3h-12zM617 888h3v12h-3zM612 893h12v3h-12zM605 900h3v12h-3zM600 905h12v3h-12zM653 864h3v12h-3zM648 869h12v3h-12zM665 876h3v12h-3zM660 881h12v3h-12zM629 888h3v12h-3zM624 893h12v3h-12zM641 900h3v12h-3zM636 905h12v3h-12zM677 864h3v12h-3zM672 869h12v3h-12zM677 876h3v12h-3zM672 881h12v3h-12zM713 888h3v12h-3zM708 893h12v3h-12zM713 900h3v12h-3zM708 905h12v3h-12zM737 864h3v12h-3zM732 869h12v3h-12zM749 864h3v12h-3zM744 869h12v3h-12zM737 900h3v12h-3zM732 905h12v3h-12zM749 900h3v12h-3zM744 905h12v3h-12zM809 864h3v12h-3zM804 869h12v3h-12zM797 876h3v12h-3zM792 881h12v3h-12zM785 888h3v12h-3zM780 893h12v3h-12zM809 888h3v12h-3zM804 893h12v3h-12zM773 900h3v12h-3zM768 905h12v3h-12zM797 900h3v12h-3zM792 905h12v3h-12zM809 900h3v12h-3zM804 905h12v3h-12zM845 864h3v12h-3zM840 869h12v3h-12zM857 864h3v12h-3zM852 869h12v3h-12zM845 876h3v12h-3zM840 881h12v3h-12zM857 876h3v12h-3zM852 881h12v3h-12zM821 888h3v12h-3zM816 893h12v3h-12zM833 888h3v12h-3zM828 893h12v3h-12zM821 900h3v12h-3zM816 905h12v3h-12zM833 900h3v12h-3zM828 905h12v3h-12zM869 864h3v12h-3zM864 869h12v3h-12zM905 864h3v12h-3zM900 869h12v3h-12zM881 876h3v12h-3zM876 881h12v3h-12zM893 876h3v12h-3zM888 881h12v3h-12zM881 888h3v12h-3zM876 893h12v3h-12zM869 900h3v12h-3zM864 905h12v3h-12zM905 900h3v12h-3zM900 905h12v3h-12zM929 864h3v12h-3zM924 869h12v3h-12zM953 864h3v12h-3zM948 869h12v3h-12zM917 876h3v12h-3zM912 881h12v3h-12zM929 876h3v12h-3zM924 881h12v3h-12zM941 888h3v12h-3zM936 893h12v3h-12zM953 888h3v12h-3zM948 893h12v3h-12zM917 900h3v12h-3zM912 905h12v3h-12zM941 900h3v12h-3zM936 905h12v3h-12zM497 912h3v12h-3zM492 917h12v3h-12zM521 912h3v12h-3zM516 917h12v3h-12zM509 924h3v12h-3zM504 929h12v3h-12zM509 936h3v12h-3zM504 941h12v3h-12zM497 948h3v12h-3zM492 953h12v3h-12zM521 948h3v12h-3zM516 953h12v3h-12zM533 912h3v12h-3zM528 917h12v3h-12zM569 912h3v12h-3zM564 917h12v3h-12zM545 924h3v12h-3zM540 929h12v3h-12zM557 936h3v12h-3zM552 941h12v3h-12zM533 948h3v12h-3zM528 953h12v3h-12zM569 948h3v12h-3zM564 953h12v3h-12zM581 912h3v12h-3zM576 917h12v3h-12zM593 924h3v12h-3zM588 929h12v3h-12zM605 936h3v12h-3zM600 941h12v3h-12zM617 948h3v12h-3zM612 953h12v3h-12zM629 924h3v12h-3zM624 929h12v3h-12zM665 924h3v12h-3zM660 929h12v3h-12zM629 936h3v12h-3zM624 941h12v3h-12zM641 936h3v12h-3zM636 941h12v3h-12zM713 912h3v12h-3zM708 917h12v3h-12zM713 924h3v12h-3zM708 929h12v3h-12zM677 936h3v12h-3zM672 941h12v3h-12zM677 948h3v12h-3zM672 953h12v3h-12zM737 912h3v12h-3zM732 917h12v3h-12zM725 924h3v12h-3zM720 929h12v3h-12zM749 924h3v12h-3zM744 929h12v3h-12zM737 936h3v12h-3zM732 941h12v3h-12zM761 936h3v12h-3zM756 941h12v3h-12zM749 948h3v12h-3zM744 953h12v3h-12zM785 912h3v12h-3zM780 917h12v3h-12zM809 912h3v12h-3zM804 917h12v3h-12zM773 924h3v12h-3zM768 929h12v3h-12zM785 924h3v12h-3zM780 929h12v3h-12zM797 936h3v12h-3zM792 941h12v3h-12zM809 936h3v12h-3zM804 941h12v3h-12zM773 948h3v12h-3zM768 953h12v3h-12zM797 948h3v12h-3zM792 953h12v3h-12zM833 912h3v12h-3zM828 917h12v3h-12zM857 912h3v12h-3zM852 917h12v3h-12zM821 924h3v12h-3zM816 929h12v3h-12zM857 936h3v12h-3zM852 941h12v3h-12zM821 948h3v12h-3zM816 953h12v3h-12zM845 948h3v12h-3zM840 953h12v3h-12zM893 912h3v12h-3zM888 917h12v3h-12zM905 912h3v12h-3zM900 917h12v3h-12zM893 924h3v12h-3zM888 929h12v3h-12zM905 924h3v12h-3zM900 929h12v3h-12zM869 936h3v12h-3zM864 941h12v3h-12zM881 936h3v12h-3zM876 941h12v3h-12zM869 948h3v12h-3zM864 953h12v3h-12zM881 948h3v12h-3zM876 953h12v3h-12zM917 912h3v12h-3zM912 917h12v3h-12zM953 912h3v12h-3zM948 917h12v3h-12zM917 936h3v12h-3zM912 941h12v3h-12zM953 936h3v12h-3zM948 941h12v3h-12zM513 600h6v24h-6zM504 609h24v6h-24zM537 600h6v24h-6zM528 609h24v6h-24zM513 624h6v24h-6zM504 633h24v6h-24zM537 624h6v24h-6zM528 633h24v6h-24zM897 288h6v24h-6zM888 297h24v6h-24zM945 288h6v24h-6zM936 297h24v6h-24zM873 312h6v24h-6zM864 321h24v6h-24zM897 312h6v24h-6zM888 321h24v6h-24zM921 336h6v24h-6zM912 345h24v6h-24zM945 336h6v24h-6zM936 345h24v6h-24zM873 360h6v24h-6zM864 369h24v6h-24zM921 360h6v24h-6zM912 369h24v6h-24zM909 420h6v24h-6zM900 429h24v6h-24zM429 708h6v24h-6zM420 717h24v6h-24zM333 132h6v24h-6zM324 141h24v6h-24zM141 804h6v24h-6zM132 813h24v6h-24zM333 708h6v24h-6zM324 717h24v6h-24zM489 288h6v24h-6zM480 297h24v6h-24zM513 288h6v24h-6zM504 297h24v6h-24zM537 360h6v24h-6zM528 369h24v6h-24zM561 360h6v24h-6zM552 369h24v6h-24zM141 132h6v24h-6zM132 141h24v6h-24z"/><path fill="#000" d="M384 192h96v96h-96zM384 288h96v96h-96zM288 288h96v96h-96zM192 288h96v96h-96zM96 288h96v96h-96zM96 384h96v96h-96zM288 384h96v96h-96zM384 384h96v96h-96zM192 192h96v96h-96zM288 192h96v96h-96zM864 96h96v96h-96zM768 192h96v96h-96zM672 96h96v96h-96zM576 0h96v96h-96zM672 0h96v96h-96zM576 96h96v96h-96zM576 192h96v96h-96zM672 288h96v96h-96zM768 288h96v96h-96zM864 288h96v96h-96zM384 672h96v96h-96zM384 576h96v96h-96zM288 576h96v96h-96zM192 576h96v96h-96zM96 576h96v96h-96zM96 480h96v96h-96zM288 480h96v96h-96zM384 480h96v96h-96zM192 672h96v96h-96zM288 672h96v96h-96zM864 768h96v96h-96zM768 672h96v96h-96zM672 768h96v96h-96zM576 864h96v96h-96zM672 864h96v96h-96zM576 768h96v96h-96zM576 672h96v96h-96zM672 576h96v96h-96zM768 576h96v96h-96zM864 576h96v96h-96z"/></svg>