<svg xmlns="http://www.w3.org/2000/svg" width="960" height="960" viewBox="0 0 960 960" shape-rendering="crispEdges"><path fill="#000" d="M0 0h960v960h-960z"/><path fill="#ae5bd7" d="M24 24h24v24h-24zM24 72h24v24h-24zM24 120h24v24h-24zM24 168h24v24h-24zM24 216h24v24h-24zM24 264h24v24h-24zM24 312h24v24h-24zM24 360h24v24h-24zM24 408h24v24h-24zM24 456h24v24h-24zM24 504h24v24h-24zM24 552h24v24h-24zM24 600h24v24h-24zM24 648h24v24h-24zM24 696h24v24h-24zM24 744h24v24h-24zM24 792h24v24h-24zM24 840h24v24h-24zM24 888h24v24h-24zM24 936h24v24h-24zM72 24h24v24h-24zM72 72h24v24h-24zM72 120h24v24h-24zM72 168h24v24h-24zM72 216h24v24h-24zM72 264h24v24h-24zM72 312h24v24h-24zM72 360h24v24h-24zM72 408h24v24h-24zM72 456h24v24h-24zM72 504h24v24h-24zM72 552h24v24h-24zM72 600h24v24h-24zM72 648h24v24h-24zM72 696h24v24h-24zM72 744h24v24h-24zM72 792h24v24h-24zM72 840h24v24h-24zM72 888h24v24h-24zM72 936h24v24h-24zM120 24h24v24h-24zM120 72h24v24h-24zM120 120h24v24h-24zM120 168h24v24h-24zM120 216h24v24h-24zM120 264h24v24h-24zM120 312h24v24h-24zM120 360h24v24h-24zM120 408h24v24h-24zM120 456h24v24h-24zM120 504h24v24h-24zM120 552h24v24h-24zM120 600h24v24h-24zM120 648h24v24h-24zM120 696h24v24h-24zM120 744h24v24h-24zM120 792h24v24h-24zM120 840h24v24h-24zM120 888h24v24h-24zM120 936h24v24h-24zM168 24h24v24h-24zM168 72h24v24h-24zM168 120h24v24h-24zM168 168h24v24h-24zM168 216h24v24h-24zM168 264h24v24h-24zM168 312h24v24h-24zM168 360h24v24h-24zM168 408h24v24h-24zM168 456h24v24h-24zM168 504h24v24h-24zM168 552h24v24h-24zM168 600h24v24h-24zM168 648h24v24h-24zM168 696h24v24h-24zM168 744h24v24h-24zM168 792h24v24h-24zM168 840h24v24h-24zM168 888h24v24h-24zM168 936h24v24h-24zM216 24h24v24h-24zM216 72h24v24h-24zM216 120h24v24h-24zM216 168h24v24h-24zM216 216h24v24h-24zM216 264h24v24h-24zM216 312h24v24h-24zM216 360h24v24h-24zM216 408h24v24h-24zM216 456h24v24h-24zM216 504h24v24h-24zM216 552h24v24h-24zM216 600h24v24h-24zM216 648h24v24h-24zM216 696h24v24h-24zM216 744h24v24h-24zM216 792h24v24h-24zM216 840h24v24h-24zM216 888h24v24h-24zM216 936h24v24h-24zM264 24h24v24h-24zM264 72h24v24h-24zM264 120h24v24h-24zM264 168h24v24h-24zM264 216h24v24h-24zM264 264h24v24h-24zM264 312h24v24h-24zM264 360h24v24h-24zM264 408h24v24h-24zM264 456h24v24h-24zM264 504h24v24h-24zM264 552h24v24h-24zM264 600h24v24h-24zM264 648h24v24h-24zM264 696h24v24h-24zM264 744h24v24h-24zM264 792h24v24h-24zM264 840h24v24h-24zM264 888h24v24h-24zM264 936h24v24h-24zM312 24h24v24h-24zM312 72h24v24h-24zM312 120h24v24h-24zM312 168h24v24h-24zM312 216h24v24h-24zM312 264h24v24h-24zM312 312h24v24h-24zM312 360h24v24h-24zM312 408h24v24h-24zM312 456h24v24h-24zM312 504h24v24h-24zM312 552h24v24h-24zM312 600h24v24h-24zM312 648h24v24h-24zM312 696h24v24h-24zM312 744h24v24h-24zM312 792h24v24h-24zM312 840h24v24h-24zM312 888h24v24h-24zM312 936h24v24h-24zM360 24h24v24h-24zM360 72h24v24h-24zM360 120h24v24h-24zM360 168h24v24h-24zM360 216h24v24h-24zM360 264h24v24h-24zM360 312h24v24h-24zM360 360h24v24h-24zM360 408h24v24h-24zM360 456h24v24h-24zM360 504h24v24h-24zM360 552h24v24h-24zM360 600h24v24h-24zM360 648h24v24h-24zM360 696h24v24h-24zM360 744h24v24h-24zM360 792h24v24h-24zM360 840h24v24h-24zM360 888h24v24h-24zM360 936h24v24h-24zM408 24h24v24h-24zM408 72h24v24h-24zM408 120h24v24h-24zM408 168h24v24h-24zM408 216h24v24h-24zM408 264h24v24h-24zM408 312h24v24h-24zM408 360h24v24h-24zM408 408h24v24h-24zM408 456h24v24h-24zM408 504h24v24h-24zM408 552h24v24h-24zM408 600h24v24h-24zM408 648h24v24h-24zM408 696h24v24h-24zM408 744h24v24h-24zM408 792h24v24h-24zM408 840h24v24h-24zM408 888h24v24h-24zM408 936h24v24h-24zM456 24h24v24h-24zM456 72h24v24h-24zM456 120h24v24h-24zM456 168h24v24h-24zM456 216h24v24h-24zM456 264h24v24h-24zM456 312h24v24h-24zM456 360h24v24h-24zM456 408h24v24h-24zM456 456h24v24h-24zM456 504h24v24h-24zM456 552h24v24h-24zM456 600h24v24h-24zM456 648h24v24h-24zM456 696h24v24h-24zM456 744h24v24h-24zM456 792h24v24h-24zM456 840h24v24h-24zM456 888h24v24h-24zM456 936h24v24h-24zM504 24h24v24h-24zM504 72h24v24h-24zM504 120h24v24h-24zM504 168h24v24h-24zM504 216h24v24h-24zM504 264h24v24h-24zM504 312h24v24h-24zM504 360h24v24h-24zM504 408h24v24h-24zM504 456h24v24h-24zM504 504h24v24h-24zM504 552h24v24h-24zM504 600h24v24h-24zM504 648h24v24h-24zM504 696h24v24h-24zM504 744h24v24h-24zM504 792h24v24h-24zM504 840h24v24h-24zM504 888h24v24h-24zM504 936h24v24h-24zM552 24h24v24h-24zM552 72h24v24h-24zM552 120h24v24h-24zM552 168h24v24h-24zM552 216h24v24h-24zM552 264h24v24h-24zM552 312h24v24h-24zM552 360h24v24h-24zM552 408h24v24h-24zM552 456h24v24h-24zM552 504h24v24h-24zM552 552h24v24h-24zM552 600h24v24h-24zM552 648h24v24h-24zM552 696h24v24h-24zM552 744h24v24h-24zM552 792h24v24h-24zM552 840h24v24h-24zM552 888h24v24h-24zM552 936h24v24h-24zM600 24h24v24h-24zM600 72h24v24h-24zM600 120h24v24h-24zM600 168h24v24h-24zM600 216h24v24h-24zM600 264h24v24h-24zM600 312h24v24h-24zM600 360h24v24h-24zM600 408h24v24h-24zM600 456h24v24h-24zM600 504h24v24h-24zM600 552h24v24h-24zM600 600h24v24h-24zM600 648h24v24h-24zM600 696h24v24h-24zM600 744h24v24h-24zM600 792h24v24h-24zM600 840h24v24h-24zM600 888h24v24h-24zM600 936h24v24h-24zM648 24h24v24h-24zM648 72h24v24h-24zM648 120h24v24h-24zM648 168h24v24h-24zM648 216h24v24h-24zM648 264h24v24h-24zM648 312h24v24h-24zM648 360h24v24h-24zM648 408h24v24h-24zM648 456h24v24h-24zM648 504h24v24h-24zM648 552h24v24h-24zM648 600h24v24h-24zM648 648h24v24h-24zM648 696h24v24h-24zM648 744h24v24h-24zM648 792h24v24h-24zM648 840h24v24h-24zM648 888h24v24h-24zM648 936h24v24h-24zM696 24h24v24h-24zM696 72h24v24h-24zM696 120h24v24h-24zM696 168h24v24h-24zM696 216h24v24h-24zM696 264h24v24h-24zM696 312h24v24h-24zM696 360h24v24h-24zM696 408h24v24h-24zM696 456h24v24h-24zM696 504h24v24h-24zM696 552h24v24h-24zM696 600h24v24h-24zM696 648h24v24h-24zM696 696h24v24h-24zM696 744h24v24h-24zM696 792h24v24h-24zM696 840h24v24h-24zM696 888h24v24h-24zM696 936h24v24h-24zM744 24h24v24h-24zM744 72h24v24h-24zM744 120h24v24h-24zM744 168h24v24h-24zM744 216h24v24h-24zM744 264h24v24h-24zM744 312h24v24h-24zM744 360h24v24h-24zM744 408h24v24h-24zM744 456h24v24h-24zM744 504h24v24h-24zM744 552h24v24h-24zM744 600h24v24h-24zM744 648h24v24h-24zM744 696h24v24h-24zM744 744h24v24h-24zM744 792h24v24h-24zM744 840h24v24h-24zM744 888h24v24h-24zM744 936h24v24h-24zM792 24h24v24h-24zM792 72h24v24h-24zM792 120h24v24h-24zM792 168h24v24h-24zM792 216h24v24h-24zM792 264h24v24h-24zM792 312h24v24h-24zM792 360h24v24h-24zM792 408h24v24h-24zM792 456h24v24h-24zM792 504h24v24h-24zM792 552h24v24h-24zM792 600h24v24h-24zM792 648h24v24h-24zM792 696h24v24h-24zM792 744h24v24h-24zM792 792h24v24h-24zM792 840h24v24h-24zM792 888h24v24h-24zM792 936h24v24h-24zM840 24h24v24h-24zM840 72h24v24h-24zM840 120h24v24h-24zM840 168h24v24h-24zM840 216h24v24h-24zM840 264h24v24h-24zM840 312h24v24h-24zM840 360h24v24h-24zM840 408h24v24h-24zM840 456h24v24h-24zM840 504h24v24h-24zM840 552h24v24h-24zM840 600h24v24h-24zM840 648h24v24h-24zM840 696h24v24h-24zM840 744h24v24h-24zM840 792h24v24h-24zM840 840h24v24h-24zM840 888h24v24h-24zM840 936h24v24h-24zM888 24h24v24h-24zM888 72h24v24h-24zM888 120h24v24h-24zM888 168h24v24h-24zM888 216h24v24h-24zM888 264h24v24h-24zM888 312h24v24h-24zM888 360h24v24h-24zM888 408h24v24h-24zM888 456h24v24h-24zM888 504h24v24h-24zM888 552h24v24h-24zM888 600h24v24h-24zM888 648h24v24h-24zM888 696h24v24h-24zM888 744h24v24h-24zM888 792h24v24h-24zM888 840h24v24h-24zM888 888h24v24h-24zM888 936h24v24h-24zM936 24h24v24h-24zM936 72h24v24h-24zM936 120h24v24h-24zM936 168h24v24h-24zM936 216h24v24h-24zM936 264h24v24h-24zM936 312h24v24h-24zM936 360h24v24h-24zM936 408h24v24h-24zM936 456h24v24h-24zM936 504h24v24h-24zM936 552h24v24h-24zM936 600h24v24h-24zM936 648h24v24h-24zM936 696h24v24h-24zM936 744h24v24h-24zM936 792h24v24h-24zM936 840h24v24h-24zM936 888h24v24h-24zM936 936h24v24h-24z"/><path fill="#073d88" d="M0 0h24v24h-24zM24 24h24v24h-24zM48 48h24v24h-24zM72 72h24v24h-24zM192 0h24v24h-24zM216 0h24v24h-24zM192 24h24v24h-24zM216 24h24v24h-24zM240 48h24v24h-24zM264 48h24v24h-24zM240 72h24v24h-24zM264 72h24v24h-24zM438 6h12v12h-12zM438 30h12v12h-12zM462 30h12v12h-12zM390 54h12v12h-12zM414 54h12v12h-12zM414 78h12v12h-12zM576 0h24v24h-24zM648 0h24v24h-24zM600 24h24v24h-24zM600 48h24v24h-24zM624 48h24v24h-24zM576 72h24v24h-24zM648 72h24v24h-24zM774 6h12v12h-12zM846 6h12v12h-12zM822 30h12v12h-12zM798 54h12v12h-12zM774 78h12v12h-12zM846 78h12v12h-12zM9 216h6v24h-6zM0 225h24v6h-24zM81 216h6v24h-6zM72 225h24v6h-24zM9 240h6v24h-6zM0 249h24v6h-24zM81 240h6v24h-6zM72 249h24v6h-24zM270 198h12v12h-12zM270 222h12v12h-12zM198 246h12v12h-12zM198 270h12v12h-12zM417 192h6v24h-6zM408 201h24v6h-24zM393 216h6v24h-6zM384 225h24v6h-24zM441 216h6v24h-6zM432 225h24v6h-24zM417 240h6v24h-6zM408 249h24v6h-24zM465 240h6v24h-6zM456 249h24v6h-24zM441 264h6v24h-6zM432 273h24v6h-24zM582 222h12v12h-12zM654 222h12v12h-12zM582 246h12v12h-12zM606 246h12v12h-12zM774 198h12v12h-12zM798 198h12v12h-12zM822 270h12v12h-12zM846 270h12v12h-12zM6 390h12v12h-12zM54 390h12v12h-12zM78 414h12v12h-12zM6 438h12v12h-12zM30 462h12v12h-12zM78 462h12v12h-12zM192 384h24v24h-24zM216 384h24v24h-24zM192 408h24v24h-24zM216 408h24v24h-24zM240 432h24v24h-24zM264 432h24v24h-24zM240 456h24v24h-24zM264 456h24v24h-24zM384 384h24v24h-24zM408 408h24v24h-24zM384 432h24v24h-24zM432 432h24v24h-24zM384 456h24v24h-24zM408 456h24v24h-24zM456 456h24v24h-24zM576 384h24v24h-24zM624 384h24v24h-24zM648 384h24v24h-24zM600 408h24v24h-24zM648 408h24v24h-24zM624 432h24v24h-24zM648 456h24v24h-24zM768 384h24v24h-24zM840 384h24v24h-24zM792 408h24v24h-24zM816 408h24v24h-24zM816 432h24v24h-24zM768 456h24v24h-24zM840 456h24v24h-24zM30 486h12v12h-12zM6 510h12v12h-12zM54 510h12v12h-12zM78 510h12v12h-12zM6 534h12v12h-12zM30 534h12v12h-12zM78 534h12v12h-12zM54 558h12v12h-12zM129 480h6v24h-6zM120 489h24v6h-24zM105 504h6v24h-6zM96 513h24v6h-24zM153 504h6v24h-6zM144 513h24v6h-24zM177 504h6v24h-6zM168 513h24v6h-24zM105 528h6v24h-6zM96 537h24v6h-24zM129 528h6v24h-6zM120 537h24v6h-24zM177 528h6v24h-6zM168 537h24v6h-24zM153 552h6v24h-6zM144 561h24v6h-24zM225 480h6v24h-6zM216 489h24v6h-24zM201 504h6v24h-6zM192 513h24v6h-24zM249 504h6v24h-6zM240 513h24v6h-24zM225 528h6v24h-6zM216 537h24v6h-24zM273 528h6v24h-6zM264 537h24v6h-24zM249 552h6v24h-6zM240 561h24v6h-24zM318 486h12v12h-12zM342 534h12v12h-12zM318 558h12v12h-12zM342 558h12v12h-12zM390 486h12v12h-12zM462 486h12v12h-12zM438 510h12v12h-12zM414 534h12v12h-12zM390 558h12v12h-12zM462 558h12v12h-12zM486 486h12v12h-12zM486 510h12v12h-12zM558 534h12v12h-12zM558 558h12v12h-12zM576 480h24v24h-24zM648 480h24v24h-24zM600 528h24v24h-24zM624 528h24v24h-24zM576 552h24v24h-24zM648 552h24v24h-24zM672 480h24v24h-24zM696 480h24v24h-24zM720 552h24v24h-24zM744 552h24v24h-24zM774 486h12v12h-12zM798 486h12v12h-12zM774 510h12v12h-12zM798 510h12v12h-12zM822 534h12v12h-12zM846 534h12v12h-12zM822 558h12v12h-12zM846 558h12v12h-12zM864 480h24v24h-24zM912 480h24v24h-24zM936 504h24v24h-24zM864 528h24v24h-24zM888 552h24v24h-24zM936 552h24v24h-24zM9 576h6v24h-6zM0 585h24v6h-24zM81 576h6v24h-6zM72 585h24v6h-24zM9 624h6v24h-6zM0 633h24v6h-24zM81 624h6v24h-6zM72 633h24v6h-24zM105 576h6v24h-6zM96 585h24v6h-24zM153 576h6v24h-6zM144 585h24v6h-24zM177 576h6v24h-6zM168 585h24v6h-24zM129 600h6v24h-6zM120 609h24v6h-24zM177 600h6v24h-6zM168 609h24v6h-24zM153 624h6v24h-6zM144 633h24v6h-24zM177 648h6v24h-6zM168 657h24v6h-24zM201 576h6v24h-6zM192 585h24v6h-24zM249 576h6v24h-6zM240 585h24v6h-24zM273 600h6v24h-6zM264 609h24v6h-24zM201 624h6v24h-6zM192 633h24v6h-24zM225 648h6v24h-6zM216 657h24v6h-24zM273 648h6v24h-6zM264 657h24v6h-24zM321 576h6v24h-6zM312 585h24v6h-24zM369 576h6v24h-6zM360 585h24v6h-24zM297 600h6v24h-6zM288 609h24v6h-24zM369 624h6v24h-6zM360 633h24v6h-24zM297 648h6v24h-6zM288 657h24v6h-24zM345 648h6v24h-6zM336 657h24v6h-24zM414 582h12v12h-12zM390 606h12v12h-12zM438 606h12v12h-12zM414 630h12v12h-12zM462 630h12v12h-12zM438 654h12v12h-12zM489 576h6v24h-6zM480 585h24v6h-24zM561 576h6v24h-6zM552 585h24v6h-24zM513 600h6v24h-6zM504 609h24v6h-24zM537 600h6v24h-6zM528 609h24v6h-24zM489 648h6v24h-6zM480 657h24v6h-24zM561 648h6v24h-6zM552 657h24v6h-24zM600 576h24v24h-24zM648 576h24v24h-24zM576 600h24v24h-24zM648 624h24v24h-24zM576 648h24v24h-24zM624 648h24v24h-24zM672 600h24v24h-24zM696 600h24v24h-24zM672 624h24v24h-24zM744 624h24v24h-24zM777 576h6v24h-6zM768 585h24v6h-24zM801 576h6v24h-6zM792 585h24v6h-24zM777 600h6v24h-6zM768 609h24v6h-24zM801 600h6v24h-6zM792 609h24v6h-24zM825 624h6v24h-6zM816 633h24v6h-24zM849 624h6v24h-6zM840 633h24v6h-24zM825 648h6v24h-6zM816 657h24v6h-24zM849 648h6v24h-6zM840 657h24v6h-24zM918 582h12v12h-12zM942 582h12v12h-12zM870 654h12v12h-12zM894 654h12v12h-12zM24 672h24v24h-24zM72 672h24v24h-24zM0 696h24v24h-24zM72 720h24v24h-24zM0 744h24v24h-24zM48 744h24v24h-24zM102 678h12v12h-12zM126 702h12v12h-12zM102 726h12v12h-12zM150 726h12v12h-12zM102 750h12v12h-12zM126 750h12v12h-12zM174 750h12v12h-12zM201 672h6v24h-6zM192 681h24v6h-24zM273 672h6v24h-6zM264 681h24v6h-24zM225 696h6v24h-6zM216 705h24v6h-24zM225 720h6v24h-6zM216 729h24v6h-24zM249 720h6v24h-6zM240 729h24v6h-24zM201 744h6v24h-6zM192 753h24v6h-24zM273 744h6v24h-6zM264 753h24v6h-24zM297 672h6v24h-6zM288 681h24v6h-24zM321 696h6v24h-6zM312 705h24v6h-24zM297 720h6v24h-6zM288 729h24v6h-24zM345 720h6v24h-6zM336 729h24v6h-24zM297 744h6v24h-6zM288 753h24v6h-24zM321 744h6v24h-6zM312 753h24v6h-24zM369 744h6v24h-6zM360 753h24v6h-24zM390 702h12v12h-12zM414 702h12v12h-12zM390 726h12v12h-12zM462 726h12v12h-12zM510 678h12v12h-12zM558 678h12v12h-12zM510 750h12v12h-12zM558 750h12v12h-12zM585 672h6v24h-6zM576 681h24v6h-24zM657 672h6v24h-6zM648 681h24v6h-24zM609 696h6v24h-6zM600 705h24v6h-24zM633 696h6v24h-6zM624 705h24v6h-24zM609 720h6v24h-6zM600 729h24v6h-24zM585 744h6v24h-6zM576 753h24v6h-24zM657 744h6v24h-6zM648 753h24v6h-24zM681 672h6v24h-6zM672 681h24v6h-24zM681 696h6v24h-6zM672 705h24v6h-24zM753 720h6v24h-6zM744 729h24v6h-24zM753 744h6v24h-6zM744 753h24v6h-24zM768 672h24v24h-24zM840 672h24v24h-24zM792 696h24v24h-24zM816 696h24v24h-24zM768 720h24v24h-24zM840 720h24v24h-24zM870 678h12v12h-12zM942 678h12v12h-12zM894 702h12v12h-12zM918 702h12v12h-12zM894 726h12v12h-12zM918 726h12v12h-12zM870 750h12v12h-12zM942 750h12v12h-12zM81 768h6v24h-6zM72 777h24v6h-24zM81 792h6v24h-6zM72 801h24v6h-24zM9 816h6v24h-6zM0 825h24v6h-24zM9 840h6v24h-6zM0 849h24v6h-24zM177 768h6v24h-6zM168 777h24v6h-24zM153 792h6v24h-6zM144 801h24v6h-24zM129 816h6v24h-6zM120 825h24v6h-24zM105 840h6v24h-6zM96 849h24v6h-24zM270 774h12v12h-12zM246 798h12v12h-12zM222 822h12v12h-12zM198 846h12v12h-12zM318 774h12v12h-12zM342 774h12v12h-12zM318 846h12v12h-12zM342 846h12v12h-12zM408 768h24v24h-24zM384 792h24v24h-24zM408 792h24v24h-24zM432 816h24v24h-24zM456 816h24v24h-24zM432 840h24v24h-24zM510 774h12v12h-12zM534 774h12v12h-12zM534 798h12v12h-12zM510 846h12v12h-12zM585 768h6v24h-6zM576 777h24v6h-24zM657 768h6v24h-6zM648 777h24v6h-24zM609 792h6v24h-6zM600 801h24v6h-24zM633 792h6v24h-6zM624 801h24v6h-24zM609 816h6v24h-6zM600 825h24v6h-24zM633 816h6v24h-6zM624 825h24v6h-24zM585 840h6v24h-6zM576 849h24v6h-24zM657 840h6v24h-6zM648 849h24v6h-24zM726 774h12v12h-12zM678 798h12v12h-12zM702 798h12v12h-12zM750 798h12v12h-12zM678 822h12v12h-12zM726 822h12v12h-12zM750 822h12v12h-12zM702 846h12v12h-12zM774 774h12v12h-12zM846 774h12v12h-12zM774 822h12v12h-12zM846 822h12v12h-12zM870 774h12v12h-12zM894 798h12v12h-12zM918 822h12v12h-12zM942 846h12v12h-12zM30 870h12v12h-12zM54 870h12v12h-12zM30 942h12v12h-12zM54 942h12v12h-12zM129 864h6v24h-6zM120 873h24v6h-24zM177 864h6v24h-6zM168 873h24v6h-24zM153 888h6v24h-6zM144 897h24v6h-24zM153 912h6v24h-6zM144 921h24v6h-24zM129 936h6v24h-6zM120 945h24v6h-24zM177 936h6v24h-6zM168 945h24v6h-24zM273 1008h6v24h-6zM264 1017h24v6h-24zM225 864h6v24h-6zM216 873h24v6h-24zM249 864h6v24h-6zM240 873h24v6h-24zM225 888h6v24h-6zM216 897h24v6h-24zM273 888h6v24h-6zM264 897h24v6h-24zM201 912h6v24h-6zM192 921h24v6h-24zM249 912h6v24h-6zM240 921h24v6h-24zM225 936h6v24h-6zM216 945h24v6h-24zM249 936h6v24h-6zM240 945h24v6h-24zM294 870h12v12h-12zM318 894h12v12h-12zM294 918h12v12h-12zM342 918h12v12h-12zM294 942h12v12h-12zM318 942h12v12h-12zM366 942h12v12h-12zM384 864h24v24h-24zM456 864h24v24h-24zM408 912h24v24h-24zM432 912h24v24h-24zM384 936h24v24h-24zM456 936h24v24h-24zM528 864h24v24h-24zM528 888h24v24h-24zM552 888h24v24h-24zM480 912h24v24h-24zM504 912h24v24h-24zM504 936h24v24h-24zM582 870h12v12h-12zM606 894h12v12h-12zM630 918h12v12h-12zM654 942h12v12h-12zM726 870h12v12h-12zM678 894h12v12h-12zM702 894h12v12h-12zM750 894h12v12h-12zM678 918h12v12h-12zM726 918h12v12h-12zM750 918h12v12h-12zM702 942h12v12h-12zM849 1008h6v24h-6zM840 1017h24v6h-24zM801 864h6v24h-6zM792 873h24v6h-24zM825 864h6v24h-6zM816 873h24v6h-24zM801 888h6v24h-6zM792 897h24v6h-24zM849 888h6v24h-6zM840 897h24v6h-24zM777 912h6v24h-6zM768 921h24v6h-24zM825 912h6v24h-6zM816 921h24v6h-24zM801 936h6v24h-6zM792 945h24v6h-24zM825 936h6v24h-6zM816 945h24v6h-24zM888 864h24v24h-24zM864 888h24v24h-24zM912 888h24v24h-24zM936 888h24v24h-24zM864 912h24v24h-24zM888 912h24v24h-24zM936 912h24v24h-24zM912 936h24v24h-24zM9 288h6v24h-6zM0 297h24v6h-24zM57 288h6v24h-6zM48 297h24v6h-24zM81 312h6v24h-6zM72 321h24v6h-24zM9 336h6v24h-6zM0 345h24v6h-24zM33 360h6v24h-6zM24 369h24v6h-24zM81 360h6v24h-6zM72 369h24v6h-24zM504 288h24v24h-24zM480 312h24v24h-24zM528 312h24v24h-24zM504 336h24v24h-24zM552 336h24v24h-24zM528 360h24v24h-24zM288 288h24v24h-24zM312 312h24v24h-24zM288 336h24v24h-24zM336 336h24v24h-24zM288 360h24v24h-24zM312 360h24v24h-24zM360 360h24v24h-24zM600 288h24v24h-24zM576 312h24v24h-24zM624 312h24v24h-24zM600 336h24v24h-24zM648 336h24v24h-24zM624 360h24v24h-24zM336 96h24v24h-24zM336 120h24v24h-24zM360 120h24v24h-24zM288 144h24v24h-24zM312 144h24v24h-24zM312 168h24v24h-24zM681 96h6v24h-6zM672 105h24v6h-24zM753 96h6v24h-6zM744 105h24v6h-24zM729 120h6v24h-6zM720 129h24v6h-24zM705 144h6v24h-6zM696 153h24v6h-24zM681 168h6v24h-6zM672 177h24v6h-24zM753 168h6v24h-6zM744 177h24v6h-24zM678 6h12v12h-12zM750 6h12v12h-12zM702 30h12v12h-12zM702 54h12v12h-12zM726 54h12v12h-12zM678 78h12v12h-12zM750 78h12v12h-12z"/><path fill="#fff" d="M144 120h24v24h-24zM168 96h24v24h-24zM192 72h24v24h-24zM216 48h24v24h-24zM240 24h24v24h-24zM264 0h24v24h-24zM288 0h24v24h-24zM312 0h24v24h-24zM336 0h24v24h-24zM360 0h24v24h-24zM384 0h24v24h-24zM408 0h24v24h-24zM432 0h24v24h-24zM456 0h24v24h-24zM384 24h24v24h-24zM360 48h24v24h-24zM336 72h24v24h-24zM312 96h24v24h-24zM336 120h24v24h-24zM360 144h24v24h-24zM384 168h24v24h-24zM360 192h24v24h-24zM336 168h24v24h-24zM312 144h24v24h-24zM288 120h24v24h-24zM264 96h24v24h-24zM240 72h24v24h-24zM240 96h24v24h-24zM240 120h24v24h-24zM240 144h24v24h-24zM240 168h24v24h-24zM240 192h24v24h-24zM240 216h24v24h-24zM216 192h24v24h-24zM192 168h24v24h-24zM168 144h24v24h-24zM120 96h24v24h-24zM96 72h24v24h-24zM72 48h24v24h-24zM48 24h24v24h-24zM24 0h24v24h-24zM24 24h24v24h-24zM24 48h24v24h-24zM24 72h24v24h-24zM24 96h24v24h-24zM24 120h24v24h-24zM24 144h24v24h-24zM48 120h24v24h-24zM48 144h24v24h-24zM48 168h24v24h-24zM48 192h24v24h-24zM48 216h24v24h-24zM48 240h24v24h-24zM48 264h24v24h-24zM48 288h24v24h-24zM48 312h24v24h-24zM48 336h24v24h-24zM48 360h24v24h-24zM48 384h24v24h-24zM48 408h24v24h-24zM48 432h24v24h-24zM48 456h24v24h-24zM48 480h24v24h-24zM48 504h24v24h-24zM48 528h24v24h-24zM48 552h24v24h-24zM48 576h24v24h-24zM48 600h24v24h-24zM48 624h24v24h-24zM72 456h24v24h-24zM72 480h24v24h-24zM72 504h24v24h-24zM72 528h24v24h-24zM72 552h24v24h-24zM72 576h24v24h-24zM72 600h24v24h-24zM72 624h24v24h-24zM72 648h24v24h-24zM72 672h24v24h-24zM72 696h24v24h-24zM72 720h24v24h-24zM72 744h24v24h-24zM72 768h24v24h-24zM72 792h24v24h-24zM72 816h24v24h-24zM72 840h24v24h-24zM72 864h24v24h-24zM96 888h24v24h-24zM120 912h24v24h-24zM144 936h24v24h-24zM168 912h24v24h-24zM192 888h24v24h-24zM216 864h24v24h-24zM240 840h24v24h-24zM264 816h24v24h-24zM288 792h24v24h-24zM312 768h24v24h-24zM336 744h24v24h-24zM360 720h24v24h-24zM384 696h24v24h-24zM408 672h24v24h-24zM432 648h24v24h-24zM432 624h24v24h-24zM432 600h24v24h-24zM432 576h24v24h-24zM432 552h24v24h-24zM432 528h24v24h-24zM432 504h24v24h-24zM432 480h24v24h-24zM432 456h24v24h-24zM432 432h24v24h-24zM432 408h24v24h-24zM432 384h24v24h-24zM432 360h24v24h-24zM432 336h24v24h-24zM432 312h24v24h-24zM432 288h24v24h-24zM432 264h24v24h-24zM432 240h24v24h-24zM432 216h24v24h-24zM432 192h24v24h-24zM432 168h24v24h-24zM432 144h24v24h-24zM432 120h24v24h-24zM408 120h24v24h-24zM384 120h24v24h-24zM360 120h24v24h-24zM312 120h24v24h-24zM264 120h24v24h-24zM216 120h24v24h-24zM192 120h24v24h-24zM192 144h24v24h-24zM192 192h24v24h-24zM192 216h24v24h-24zM192 240h24v24h-24zM192 264h24v24h-24zM192 288h24v24h-24zM192 312h24v24h-24zM192 336h24v24h-24zM192 360h24v24h-24zM192 384h24v24h-24zM192 408h24v24h-24zM192 432h24v24h-24zM192 456h24v24h-24zM192 480h24v24h-24zM192 504h24v24h-24zM192 528h24v24h-24zM192 552h24v24h-24zM192 576h24v24h-24zM192 600h24v24h-24zM192 624h24v24h-24zM192 648h24v24h-24zM192 672h24v24h-24zM192 696h24v24h-24zM192 720h24v24h-24zM192 744h24v24h-24zM192 768h24v24h-24zM192 792h24v24h-24zM192 816h24v24h-24zM192 840h24v24h-24zM192 864h24v24h-24zM168 864h24v24h-24zM144 840h24v24h-24zM120 816h24v24h-24zM144 792h24v24h-24zM168 768h24v24h-24zM216 720h24v24h-24zM240 696h24v24h-24zM264 672h24v24h-24zM264 696h24v24h-24zM264 720h24v24h-24zM264 744h24v24h-24zM264 768h24v24h-24zM264 792h24v24h-24zM288 816h24v24h-24zM312 816h24v24h-24zM336 816h24v24h-24zM360 816h24v24h-24zM384 816h24v24h-24zM408 816h24v24h-24zM432 816h24v24h-24zM240 816h24v24h-24zM216 816h24v24h-24zM264 864h24v24h-24zM288 888h24v24h-24zM312 912h24v24h-24zM336 912h24v24h-24zM360 912h24v24h-24zM384 912h24v24h-24zM384 888h24v24h-24zM384 864h24v24h-24zM384 840h24v24h-24zM384 792h24v24h-24zM384 768h24v24h-24zM384 744h24v24h-24zM384 720h24v24h-24zM384 672h24v24h-24zM384 648h24v24h-24zM384 936h24v24h-24zM384 624h24v24h-24zM384 600h24v24h-24zM384 576h24v24h-24zM384 552h24v24h-24zM384 528h24v24h-24zM384 504h24v24h-24zM384 480h24v24h-24zM384 456h24v24h-24zM384 432h24v24h-24zM384 408h24v24h-24zM384 384h24v24h-24zM384 360h24v24h-24zM384 336h24v24h-24zM384 312h24v24h-24zM384 288h24v24h-24zM384 264h24v24h-24zM384 240h24v24h-24zM384 216h24v24h-24zM384 192h24v24h-24zM384 144h24v24h-24zM384 96h24v24h-24zM384 72h24v24h-24zM384 48h24v24h-24zM360 24h24v24h-24zM336 24h24v24h-24zM312 24h24v24h-24zM336 48h24v24h-24zM360 72h24v24h-24zM168 120h24v24h-24zM120 120h24v24h-24zM96 120h24v24h-24zM72 120h24v24h-24zM24 168h24v24h-24zM24 192h24v24h-24zM24 216h24v24h-24zM24 240h24v24h-24zM24 264h24v24h-24zM24 288h24v24h-24zM24 312h24v24h-24zM24 336h24v24h-24zM24 360h24v24h-24zM24 384h24v24h-24zM24 408h24v24h-24zM24 432h24v24h-24zM24 456h24v24h-24zM24 480h24v24h-24zM24 504h24v24h-24zM24 528h24v24h-24zM24 552h24v24h-24zM24 576h24v24h-24zM24 600h24v24h-24zM24 624h24v24h-24zM48 648h24v24h-24zM96 600h24v24h-24zM120 576h24v24h-24zM144 552h24v24h-24zM168 528h24v24h-24zM216 792h24v24h-24zM216 768h24v24h-24zM216 744h24v24h-24zM216 696h24v24h-24zM216 672h24v24h-24zM216 648h24v24h-24zM216 624h24v24h-24zM216 600h24v24h-24zM216 576h24v24h-24zM216 552h24v24h-24zM216 528h24v24h-24zM216 504h24v24h-24zM216 480h24v24h-24zM216 456h24v24h-24zM216 432h24v24h-24zM216 408h24v24h-24zM216 384h24v24h-24zM216 360h24v24h-24zM216 336h24v24h-24zM216 312h24v24h-24zM216 288h24v24h-24zM216 264h24v24h-24zM216 240h24v24h-24zM216 216h24v24h-24zM240 240h24v24h-24zM264 264h24v24h-24zM288 288h24v24h-24zM312 312h24v24h-24zM336 336h24v24h-24zM360 360h24v24h-24zM408 408h24v24h-24zM360 408h24v24h-24zM336 408h24v24h-24zM312 408h24v24h-24zM288 408h24v24h-24zM264 432h24v24h-24zM240 456h24v24h-24zM792 120h24v24h-24zM768 96h24v24h-24zM744 72h24v24h-24zM720 48h24v24h-24zM696 24h24v24h-24zM672 0h24v24h-24zM648 0h24v24h-24zM624 0h24v24h-24zM600 0h24v24h-24zM576 0h24v24h-24zM552 0h24v24h-24zM528 0h24v24h-24zM504 0h24v24h-24zM480 0h24v24h-24zM552 24h24v24h-24zM576 48h24v24h-24zM600 72h24v24h-24zM624 96h24v24h-24zM600 120h24v24h-24zM576 144h24v24h-24zM552 168h24v24h-24zM576 192h24v24h-24zM600 168h24v24h-24zM624 144h24v24h-24zM648 120h24v24h-24zM672 96h24v24h-24zM696 72h24v24h-24zM696 96h24v24h-24zM696 120h24v24h-24zM696 144h24v24h-24zM696 168h24v24h-24zM696 192h24v24h-24zM696 216h24v24h-24zM720 192h24v24h-24zM744 168h24v24h-24zM768 144h24v24h-24zM816 96h24v24h-24zM840 72h24v24h-24zM864 48h24v24h-24zM888 24h24v24h-24zM912 0h24v24h-24zM912 24h24v24h-24zM912 48h24v24h-24zM912 72h24v24h-24zM912 96h24v24h-24zM912 120h24v24h-24zM912 144h24v24h-24zM888 120h24v24h-24zM888 144h24v24h-24zM888 168h24v24h-24zM888 192h24v24h-24zM888 216h24v24h-24zM888 240h24v24h-24zM888 264h24v24h-24zM888 288h24v24h-24zM888 312h24v24h-24zM888 336h24v24h-24zM888 360h24v24h-24zM888 384h24v24h-24zM888 408h24v24h-24zM888 432h24v24h-24zM888 456h24v24h-24zM888 480h24v24h-24zM888 504h24v24h-24zM888 528h24v24h-24zM888 552h24v24h-24zM888 576h24v24h-24zM888 600h24v24h-24zM888 624h24v24h-24zM864 456h24v24h-24zM864 480h24v24h-24zM864 504h24v24h-24zM864 528h24v24h-24zM864 552h24v24h-24zM864 576h24v24h-24zM864 600h24v24h-24zM864 624h24v24h-24zM864 648h24v24h-24zM864 672h24v24h-24zM864 696h24v24h-24zM864 720h24v24h-24zM864 744h24v24h-24zM864 768h24v24h-24zM864 792h24v24h-24zM864 816h24v24h-24zM864 840h24v24h-24zM864 864h24v24h-24zM840 888h24v24h-24zM816 912h24v24h-24zM792 936h24v24h-24zM768 912h24v24h-24zM744 888h24v24h-24zM720 864h24v24h-24zM696 840h24v24h-24zM672 816h24v24h-24zM648 792h24v24h-24zM624 768h24v24h-24zM600 744h24v24h-24zM576 720h24v24h-24zM552 696h24v24h-24zM528 672h24v24h-24zM504 648h24v24h-24zM504 624h24v24h-24zM504 600h24v24h-24zM504 576h24v24h-24zM504 552h24v24h-24zM504 528h24v24h-24zM504 504h24v24h-24zM504 480h24v24h-24zM504 456h24v24h-24zM504 432h24v24h-24zM504 408h24v24h-24zM504 384h24v24h-24zM504 360h24v24h-24zM504 336h24v24h-24zM504 312h24v24h-24zM504 288h24v24h-24zM504 264h24v24h-24zM504 240h24v24h-24zM504 216h24v24h-24zM504 192h24v24h-24zM504 168h24v24h-24zM504 144h24v24h-24zM504 120h24v24h-24zM528 120h24v24h-24zM552 120h24v24h-24zM576 120h24v24h-24zM624 120h24v24h-24zM672 120h24v24h-24zM720 120h24v24h-24zM744 120h24v24h-24zM744 144h24v24h-24zM744 192h24v24h-24zM744 216h24v24h-24zM744 240h24v24h-24zM744 264h24v24h-24zM744 288h24v24h-24zM744 312h24v24h-24zM744 336h24v24h-24zM744 360h24v24h-24zM744 384h24v24h-24zM744 408h24v24h-24zM744 432h24v24h-24zM744 456h24v24h-24zM744 480h24v24h-24zM744 504h24v24h-24zM744 528h24v24h-24zM744 552h24v24h-24zM744 576h24v24h-24zM744 600h24v24h-24zM744 624h24v24h-24zM744 648h24v24h-24zM744 672h24v24h-24zM744 696h24v24h-24zM744 720h24v24h-24zM744 744h24v24h-24zM744 768h24v24h-24zM744 792h24v24h-24zM744 816h24v24h-24zM744 840h24v24h-24zM744 864h24v24h-24zM768 864h24v24h-24zM792 840h24v24h-24zM816 816h24v24h-24zM792 792h24v24h-24zM768 768h24v24h-24zM720 720h24v24h-24zM696 696h24v24h-24zM672 672h24v24h-24zM672 696h24v24h-24zM672 720h24v24h-24zM672 744h24v24h-24zM672 768h24v24h-24zM672 792h24v24h-24zM648 816h24v24h-24zM624 816h24v24h-24zM600 816h24v24h-24zM576 816h24v24h-24zM552 816h24v24h-24zM528 816h24v24h-24zM504 816h24v24h-24zM696 816h24v24h-24zM720 816h24v24h-24zM672 864h24v24h-24zM648 888h24v24h-24zM624 912h24v24h-24zM600 912h24v24h-24zM576 912h24v24h-24zM552 912h24v24h-24zM552 888h24v24h-24zM552 864h24v24h-24zM552 840h24v24h-24zM552 792h24v24h-24zM552 768h24v24h-24zM552 744h24v24h-24zM552 720h24v24h-24zM552 672h24v24h-24zM552 648h24v24h-24zM552 936h24v24h-24zM552 624h24v24h-24zM552 600h24v24h-24zM552 576h24v24h-24zM552 552h24v24h-24zM552 528h24v24h-24zM552 504h24v24h-24zM552 480h24v24h-24zM552 456h24v24h-24zM552 432h24v24h-24zM552 408h24v24h-24zM552 384h24v24h-24zM552 360h24v24h-24zM552 336h24v24h-24zM552 312h24v24h-24zM552 288h24v24h-24zM552 264h24v24h-24zM552 240h24v24h-24zM552 216h24v24h-24zM552 192h24v24h-24zM552 144h24v24h-24zM552 96h24v24h-24zM552 72h24v24h-24zM552 48h24v24h-24zM576 24h24v24h-24zM600 24h24v24h-24zM624 24h24v24h-24zM600 48h24v24h-24zM576 72h24v24h-24zM768 120h24v24h-24zM816 120h24v24h-24zM840 120h24v24h-24zM864 120h24v24h-24zM912 168h24v24h-24zM912 192h24v24h-24zM912 216h24v24h-24zM912 240h24v24h-24zM912 264h24v24h-24zM912 288h24v24h-24zM912 312h24v24h-24zM912 336h24v24h-24zM912 360h24v24h-24zM912 384h24v24h-24zM912 408h24v24h-24zM912 432h24v24h-24zM912 456h24v24h-24zM912 480h24v24h-24zM912 504h24v24h-24zM912 528h24v24h-24zM912 552h24v24h-24zM912 576h24v24h-24zM912 600h24v24h-24zM912 624h24v24h-24zM888 648h24v24h-24zM840 600h24v24h-24zM816 576h24v24h-24zM792 552h24v24h-24zM768 528h24v24h-24zM720 792h24v24h-24zM720 768h24v24h-24zM720 744h24v24h-24zM720 696h24v24h-24zM720 672h24v24h-24zM720 648h24v24h-24zM720 624h24v24h-24zM720 600h24v24h-24zM720 576h24v24h-24zM720 552h24v24h-24zM720 528h24v24h-24zM720 504h24v24h-24zM720 480h24v24h-24zM720 456h24v24h-24zM720 432h24v24h-24zM720 408h24v24h-24zM720 384h24v24h-24zM720 360h24v24h-24zM720 336h24v24h-24zM720 312h24v24h-24zM720 288h24v24h-24zM720 264h24v24h-24zM720 240h24v24h-24zM720 216h24v24h-24zM696 240h24v24h-24zM672 264h24v24h-24zM648 288h24v24h-24zM624 312h24v24h-24zM600 336h24v24h-24zM576 360h24v24h-24zM528 408h24v24h-24zM576 408h24v24h-24zM600 408h24v24h-24zM624 408h24v24h-24zM648 408h24v24h-24zM672 432h24v24h-24zM696 456h24v24h-24z"/></svg>