<svg xmlns="http://www.w3.org/2000/svg" width="960" height="960" viewBox="0 0 960 960" shape-rendering="crispEdges"><path fill="#fff" d="M0 0h960v960h-960z"/><path fill="#6c98b2" d="M0 0h12v12h-12zM0 36h12v12h-12zM0 72h12v12h-12zM0 108h12v12h-12zM0 144h12v12h-12zM0 180h12v12h-12zM0 216h12v12h-12zM0 252h12v12h-12zM0 288h12v12h-12zM0 324h12v12h-12zM0 360h12v12h-12zM0 396h12v12h-12zM0 432h12v12h-12zM0 468h12v12h-12zM36 0h12v12h-12zM36 36h12v12h-12zM36 72h12v12h-12zM36 108h12v12h-12zM36 144h12v12h-12zM36 180h12v12h-12zM36 216h12v12h-12zM36 252h12v12h-12zM36 288h12v12h-12zM36 324h12v12h-12zM36 360h12v12h-12zM36 396h12v12h-12zM36 432h12v12h-12zM36 468h12v12h-12zM72 0h12v12h-12zM72 36h12v12h-12zM72 72h12v12h-12zM72 108h12v12h-12zM72 144h12v12h-12zM72 180h12v12h-12zM72 216h12v12h-12zM72 252h12v12h-12zM72 288h12v12h-12zM72 324h12v12h-12zM72 360h12v12h-12zM72 396h12v12h-12zM72 432h12v12h-12zM72 468h12v12h-12zM108 0h12v12h-12zM108 36h12v12h-12zM108 72h12v12h-12zM108 108h12v12h-12zM108 144h12v12h-12zM108 180h12v12h-12zM108 216h12v12h-12zM108 252h12v12h-12zM108 288h12v12h-12zM108 324h12v12h-12zM108 360h12v12h-12zM108 396h12v12h-12zM108 432h12v12h-12zM108 468h12v12h-12zM144 0h12v12h-12zM144 36h12v12h-12zM144 72h12v12h-12zM144 108h12v12h-12zM144 144h12v12h-12zM144 180h12v12h-12zM144 216h12v12h-12zM144 252h12v12h-12zM144 288h12v12h-12zM144 324h12v12h-12zM144 360h12v12h-12zM144 396h12v12h-12zM144 432h12v12h-12zM144 468h12v12h-12zM180 0h12v12h-12zM180 36h12v12h-12zM180 72h12v12h-12zM180 108h12v12h-12zM180 144h12v12h-12zM180 180h12v12h-12zM180 216h12v12h-12zM180 252h12v12h-12zM180 288h12v12h-12zM180 324h12v12h-12zM180 360h12v12h-12zM180 396h12v12h-12zM180 432h12v12h-12zM180 468h12v12h-12zM216 0h12v12h-12zM216 36h12v12h-12zM216 72h12v12h-12zM216 108h12v12h-12zM216 144h12v12h-12zM216 180h12v12h-12zM216 216h12v12h-12zM216 252h12v12h-12zM216 288h12v12h-12zM216 324h12v12h-12zM216 360h12v12h-12zM216 396h12v12h-12zM216 432h12v12h-12zM216 468h12v12h-12zM252 0h12v12h-12zM252 36h12v12h-12zM252 72h12v12h-12zM252 108h12v12h-12zM252 144h12v12h-12zM252 180h12v12h-12zM252 216h12v12h-12zM252 252h12v12h-12zM252 288h12v12h-12zM252 324h12v12h-12zM252 360h12v12h-12zM252 396h12v12h-12zM252 432h12v12h-12zM252 468h12v12h-12zM288 0h12v12h-12zM288 36h12v12h-12zM288 72h12v12h-12zM288 108h12v12h-12zM288 144h12v12h-12zM288 180h12v12h-12zM288 216h12v12h-12zM288 252h12v12h-12zM288 288h12v12h-12zM288 324h12v12h-12zM288 360h12v12h-12zM288 396h12v12h-12zM288 432h12v12h-12zM288 468h12v12h-12zM324 0h12v12h-12zM324 36h12v12h-12zM324 72h12v12h-12zM324 108h12v12h-12zM324 144h12v12h-12zM324 180h12v12h-12zM324 216h12v12h-12zM324 252h12v12h-12zM324 288h12v12h-12zM324 324h12v12h-12zM324 360h12v12h-12zM324 396h12v12h-12zM324 432h12v12h-12zM324 468h12v12h-12zM360 0h12v12h-12zM360 36h12v12h-12zM360 72h12v12h-12zM360 108h12v12h-12zM360 144h12v12h-12zM360 180h12v12h-12zM360 216h12v12h-12zM360 252h12v12h-12zM360 288h12v12h-12zM360 324h12v12h-12zM360 360h12v12h-12zM360 396h12v12h-12zM360 432h12v12h-12zM360 468h12v12h-12zM396 0h12v12h-12zM396 36h12v12h-12zM396 72h12v12h-12zM396 108h12v12h-12zM396 144h12v12h-12zM396 180h12v12h-12zM396 216h12v12h-12zM396 252h12v12h-12zM396 288h12v12h-12zM396 324h12v12h-12zM396 360h12v12h-12zM396 396h12v12h-12zM396 432h12v12h-12zM396 468h12v12h-12zM432 0h12v12h-12zM432 36h12v12h-12zM432 72h12v12h-12zM432 108h12v12h-12zM432 144h12v12h-12zM432 180h12v12h-12zM432 216h12v12h-12zM432 252h12v12h-12zM432 288h12v12h-12zM432 324h12v12h-12zM432 360h12v12h-12zM432 396h12v12h-12zM432 432h12v12h-12zM432 468h12v12h-12zM468 0h12v12h-12zM468 36h12v12h-12zM468 72h12v12h-12zM468 108h12v12h-12zM468 144h12v12h-12zM468 180h12v12h-12zM468 216h12v12h-12zM468 252h12v12h-12zM468 288h12v12h-12zM468 324h12v12h-12zM468 360h12v12h-12zM468 396h12v12h-12zM468 432h12v12h-12zM468 468h12v12h-12zM504 0h12v12h-12zM504 36h12v12h-12zM504 72h12v12h-12zM504 108h12v12h-12zM504 144h12v12h-12zM504 180h12v12h-12zM504 216h12v12h-12zM504 252h12v12h-12zM504 288h12v12h-12zM504 324h12v12h-12zM504 360h12v12h-12zM504 396h12v12h-12zM504 432h12v12h-12zM504 468h12v12h-12zM540 0h12v12h-12zM540 36h12v12h-12zM540 72h12v12h-12zM540 108h12v12h-12zM540 144h12v12h-12zM540 180h12v12h-12zM540 216h12v12h-12zM540 252h12v12h-12zM540 288h12v12h-12zM540 324h12v12h-12zM540 360h12v12h-12zM540 396h12v12h-12zM540 432h12v12h-12zM540 468h12v12h-12zM576 0h12v12h-12zM576 36h12v12h-12zM576 72h12v12h-12zM576 108h12v12h-12zM576 144h12v12h-12zM576 180h12v12h-12zM576 216h12v12h-12zM576 252h12v12h-12zM576 288h12v12h-12zM576 324h12v12h-12zM576 360h12v12h-12zM576 396h12v12h-12zM576 432h12v12h-12zM576 468h12v12h-12zM612 0h12v12h-12zM612 36h12v12h-12zM612 72h12v12h-12zM612 108h12v12h-12zM612 144h12v12h-12zM612 180h12v12h-12zM612 216h12v12h-12zM612 252h12v12h-12zM612 288h12v12h-12zM612 324h12v12h-12zM612 360h12v12h-12zM612 396h12v12h-12zM612 432h12v12h-12zM612 468h12v12h-12zM648 0h12v12h-12zM648 36h12v12h-12zM648 72h12v12h-12zM648 108h12v12h-12zM648 144h12v12h-12zM648 180h12v12h-12zM648 216h12v12h-12zM648 252h12v12h-12zM648 288h12v12h-12zM648 324h12v12h-12zM648 360h12v12h-12zM648 396h12v12h-12zM648 432h12v12h-12zM648 468h12v12h-12zM684 0h12v12h-12zM684 36h12v12h-12zM684 72h12v12h-12zM684 108h12v12h-12zM684 144h12v12h-12zM684 180h12v12h-12zM684 216h12v12h-12zM684 252h12v12h-12zM684 288h12v12h-12zM684 324h12v12h-12zM684 360h12v12h-12zM684 396h12v12h-12zM684 432h12v12h-12zM684 468h12v12h-12zM720 0h12v12h-12zM720 36h12v12h-12zM720 72h12v12h-12zM720 108h12v12h-12zM720 144h12v12h-12zM720 180h12v12h-12zM720 216h12v12h-12zM720 252h12v12h-12zM720 288h12v12h-12zM720 324h12v12h-12zM720 360h12v12h-12zM720 396h12v12h-12zM720 432h12v12h-12zM720 468h12v12h-12zM756 0h12v12h-12zM756 36h12v12h-12zM756 72h12v12h-12zM756 108h12v12h-12zM756 144h12v12h-12zM756 180h12v12h-12zM756 216h12v12h-12zM756 252h12v12h-12zM756 288h12v12h-12zM756 324h12v12h-12zM756 360h12v12h-12zM756 396h12v12h-12zM756 432h12v12h-12zM756 468h12v12h-12zM792 0h12v12h-12zM792 36h12v12h-12zM792 72h12v12h-12zM792 108h12v12h-12zM792 144h12v12h-12zM792 180h12v12h-12zM792 216h12v12h-12zM792 252h12v12h-12zM792 288h12v12h-12zM792 324h12v12h-12zM792 360h12v12h-12zM792 396h12v12h-12zM792 432h12v12h-12zM792 468h12v12h-12zM828 0h12v12h-12zM828 36h12v12h-12zM828 72h12v12h-12zM828 108h12v12h-12zM828 144h12v12h-12zM828 180h12v12h-12zM828 216h12v12h-12zM828 252h12v12h-12zM828 288h12v12h-12zM828 324h12v12h-12zM828 360h12v12h-12zM828 396h12v12h-12zM828 432h12v12h-12zM828 468h12v12h-12zM864 0h12v12h-12zM864 36h12v12h-12zM864 72h12v12h-12zM864 108h12v12h-12zM864 144h12v12h-12zM864 180h12v12h-12zM864 216h12v12h-12zM864 252h12v12h-12zM864 288h12v12h-12zM864 324h12v12h-12zM864 360h12v12h-12zM864 396h12v12h-12zM864 432h12v12h-12zM864 468h12v12h-12zM900 0h12v12h-12zM900 36h12v12h-12zM900 72h12v12h-12zM900 108h12v12h-12zM900 144h12v12h-12zM900 180h12v12h-12zM900 216h12v12h-12zM900 252h12v12h-12zM900 288h12v12h-12zM900 324h12v12h-12zM900 360h12v12h-12zM900 396h12v12h-12zM900 432h12v12h-12zM900 468h12v12h-12zM936 0h12v12h-12zM936 36h12v12h-12zM936 72h12v12h-12zM936 108h12v12h-12zM936 144h12v12h-12zM936 180h12v12h-12zM936 216h12v12h-12zM936 252h12v12h-12zM936 288h12v12h-12zM936 324h12v12h-12zM936 360h12v12h-12zM936 396h12v12h-12zM936 432h12v12h-12zM936 468h12v12h-12z"/><path fill="#f8e66d" d="M6 6h12v12h-12zM6 30h12v12h-12zM78 54h12v12h-12zM78 78h12v12h-12zM150 6h12v12h-12zM174 6h12v12h-12zM150 30h12v12h-12zM174 30h12v12h-12zM102 54h12v12h-12zM126 54h12v12h-12zM102 78h12v12h-12zM126 78h12v12h-12zM198 6h12v12h-12zM222 6h12v12h-12zM198 30h12v12h-12zM222 30h12v12h-12zM246 54h12v12h-12zM270 54h12v12h-12zM246 78h12v12h-12zM270 78h12v12h-12zM366 150h12v12h-12zM318 6h12v12h-12zM342 6h12v12h-12zM318 30h12v12h-12zM366 30h12v12h-12zM294 54h12v12h-12zM342 54h12v12h-12zM318 78h12v12h-12zM342 78h12v12h-12zM390 30h12v12h-12zM462 30h12v12h-12zM390 54h12v12h-12zM414 54h12v12h-12zM510 6h12v12h-12zM558 6h12v12h-12zM486 30h12v12h-12zM558 54h12v12h-12zM486 78h12v12h-12zM534 78h12v12h-12zM582 30h12v12h-12zM654 30h12v12h-12zM582 54h12v12h-12zM654 54h12v12h-12zM726 6h12v12h-12zM678 30h12v12h-12zM702 30h12v12h-12zM750 30h12v12h-12zM678 54h12v12h-12zM726 54h12v12h-12zM750 54h12v12h-12zM702 78h12v12h-12zM798 6h12v12h-12zM774 30h12v12h-12zM822 30h12v12h-12zM846 30h12v12h-12zM774 54h12v12h-12zM798 54h12v12h-12zM846 54h12v12h-12zM822 78h12v12h-12zM894 6h12v12h-12zM918 54h12v12h-12zM894 78h12v12h-12zM918 78h12v12h-12zM6 102h12v12h-12zM78 102h12v12h-12zM30 126h12v12h-12zM54 126h12v12h-12zM6 150h12v12h-12zM78 150h12v12h-12zM126 102h12v12h-12zM174 102h12v12h-12zM126 174h12v12h-12zM174 174h12v12h-12zM198 102h12v12h-12zM270 102h12v12h-12zM246 126h12v12h-12zM222 150h12v12h-12zM246 150h12v12h-12zM198 174h12v12h-12zM270 174h12v12h-12zM366 102h12v12h-12zM366 126h12v12h-12zM294 150h12v12h-12zM294 174h12v12h-12zM390 126h12v12h-12zM462 126h12v12h-12zM390 150h12v12h-12zM414 150h12v12h-12zM486 102h12v12h-12zM558 102h12v12h-12zM510 126h12v12h-12zM534 126h12v12h-12zM510 150h12v12h-12zM486 174h12v12h-12zM558 174h12v12h-12zM582 102h12v12h-12zM654 102h12v12h-12zM606 126h12v12h-12zM630 150h12v12h-12zM582 174h12v12h-12zM654 174h12v12h-12zM702 102h12v12h-12zM678 126h12v12h-12zM750 150h12v12h-12zM726 174h12v12h-12zM774 102h12v12h-12zM798 102h12v12h-12zM846 102h12v12h-12zM774 126h12v12h-12zM822 126h12v12h-12zM798 150h12v12h-12zM774 174h12v12h-12zM870 126h12v12h-12zM942 126h12v12h-12zM870 150h12v12h-12zM894 150h12v12h-12zM6 222h12v12h-12zM30 222h12v12h-12zM6 246h12v12h-12zM78 246h12v12h-12zM102 198h12v12h-12zM174 198h12v12h-12zM126 222h12v12h-12zM150 222h12v12h-12zM150 246h12v12h-12zM102 270h12v12h-12zM174 270h12v12h-12zM222 198h12v12h-12zM270 198h12v12h-12zM198 222h12v12h-12zM246 222h12v12h-12zM222 246h12v12h-12zM270 246h12v12h-12zM198 270h12v12h-12zM246 270h12v12h-12zM318 198h12v12h-12zM366 198h12v12h-12zM342 222h12v12h-12zM342 246h12v12h-12zM318 270h12v12h-12zM366 270h12v12h-12zM414 198h12v12h-12zM438 246h12v12h-12zM414 270h12v12h-12zM438 270h12v12h-12zM486 222h12v12h-12zM510 222h12v12h-12zM486 246h12v12h-12zM558 246h12v12h-12zM606 198h12v12h-12zM582 222h12v12h-12zM606 222h12v12h-12zM630 246h12v12h-12zM654 246h12v12h-12zM630 270h12v12h-12zM702 198h12v12h-12zM726 246h12v12h-12zM702 270h12v12h-12zM726 270h12v12h-12zM774 198h12v12h-12zM798 222h12v12h-12zM822 246h12v12h-12zM846 270h12v12h-12zM870 198h12v12h-12zM942 198h12v12h-12zM894 222h12v12h-12zM918 222h12v12h-12zM894 246h12v12h-12zM870 270h12v12h-12zM942 270h12v12h-12zM78 294h12v12h-12zM78 318h12v12h-12zM6 342h12v12h-12zM6 366h12v12h-12zM150 294h12v12h-12zM174 294h12v12h-12zM102 366h12v12h-12zM126 366h12v12h-12zM246 294h12v12h-12zM246 318h12v12h-12zM270 318h12v12h-12zM198 342h12v12h-12zM222 342h12v12h-12zM222 366h12v12h-12zM318 294h12v12h-12zM342 342h12v12h-12zM318 366h12v12h-12zM342 366h12v12h-12zM438 294h12v12h-12zM390 318h12v12h-12zM414 318h12v12h-12zM462 318h12v12h-12zM390 342h12v12h-12zM438 342h12v12h-12zM462 342h12v12h-12zM414 366h12v12h-12zM534 294h12v12h-12zM510 318h12v12h-12zM558 318h12v12h-12zM486 342h12v12h-12zM534 342h12v12h-12zM510 366h12v12h-12zM582 318h12v12h-12zM606 318h12v12h-12zM582 342h12v12h-12zM654 342h12v12h-12zM678 294h12v12h-12zM678 318h12v12h-12zM750 342h12v12h-12zM750 366h12v12h-12zM822 294h12v12h-12zM774 318h12v12h-12zM798 318h12v12h-12zM846 318h12v12h-12zM774 342h12v12h-12zM822 342h12v12h-12zM846 342h12v12h-12zM798 366h12v12h-12zM894 294h12v12h-12zM942 294h12v12h-12zM870 318h12v12h-12zM942 342h12v12h-12zM870 366h12v12h-12zM918 366h12v12h-12zM6 390h12v12h-12zM54 390h12v12h-12zM78 390h12v12h-12zM30 414h12v12h-12zM78 414h12v12h-12zM54 438h12v12h-12zM78 462h12v12h-12zM102 390h12v12h-12zM126 414h12v12h-12zM150 438h12v12h-12zM174 462h12v12h-12zM246 390h12v12h-12zM246 414h12v12h-12zM270 414h12v12h-12zM198 438h12v12h-12zM222 438h12v12h-12zM222 462h12v12h-12zM294 390h12v12h-12zM318 390h12v12h-12zM366 390h12v12h-12zM294 414h12v12h-12zM342 414h12v12h-12zM318 438h12v12h-12zM294 462h12v12h-12zM390 390h12v12h-12zM462 390h12v12h-12zM390 462h12v12h-12zM462 462h12v12h-12zM534 390h12v12h-12zM558 414h12v12h-12zM486 438h12v12h-12zM510 462h12v12h-12zM582 390h12v12h-12zM654 390h12v12h-12zM606 414h12v12h-12zM630 414h12v12h-12zM582 438h12v12h-12zM654 438h12v12h-12zM678 414h12v12h-12zM750 414h12v12h-12zM678 438h12v12h-12zM750 438h12v12h-12zM774 390h12v12h-12zM798 414h12v12h-12zM822 438h12v12h-12zM846 462h12v12h-12zM894 390h12v12h-12zM942 390h12v12h-12zM918 414h12v12h-12zM918 438h12v12h-12zM894 462h12v12h-12zM942 462h12v12h-12zM54 486h12v12h-12zM30 510h12v12h-12zM78 510h12v12h-12zM6 534h12v12h-12zM54 534h12v12h-12zM30 558h12v12h-12zM126 486h12v12h-12zM150 486h12v12h-12zM126 558h12v12h-12zM150 558h12v12h-12zM270 630h12v12h-12zM222 486h12v12h-12zM246 486h12v12h-12zM222 510h12v12h-12zM270 510h12v12h-12zM198 534h12v12h-12zM246 534h12v12h-12zM222 558h12v12h-12zM246 558h12v12h-12zM294 486h12v12h-12zM318 486h12v12h-12zM366 486h12v12h-12zM294 510h12v12h-12zM342 510h12v12h-12zM318 534h12v12h-12zM294 558h12v12h-12zM390 486h12v12h-12zM414 510h12v12h-12zM390 534h12v12h-12zM438 534h12v12h-12zM390 558h12v12h-12zM414 558h12v12h-12zM462 558h12v12h-12zM510 486h12v12h-12zM486 510h12v12h-12zM510 510h12v12h-12zM534 534h12v12h-12zM558 534h12v12h-12zM534 558h12v12h-12zM630 486h12v12h-12zM654 486h12v12h-12zM630 510h12v12h-12zM654 510h12v12h-12zM582 534h12v12h-12zM606 534h12v12h-12zM582 558h12v12h-12zM606 558h12v12h-12zM678 486h12v12h-12zM750 486h12v12h-12zM702 510h12v12h-12zM726 510h12v12h-12zM726 534h12v12h-12zM678 558h12v12h-12zM750 558h12v12h-12zM846 486h12v12h-12zM822 510h12v12h-12zM798 534h12v12h-12zM846 534h12v12h-12zM774 558h12v12h-12zM822 558h12v12h-12zM846 558h12v12h-12zM894 486h12v12h-12zM918 534h12v12h-12zM894 558h12v12h-12zM918 558h12v12h-12zM42 618h12v12h-12zM102 582h12v12h-12zM174 582h12v12h-12zM150 606h12v12h-12zM126 630h12v12h-12zM150 630h12v12h-12zM102 654h12v12h-12zM174 654h12v12h-12zM270 726h12v12h-12zM222 582h12v12h-12zM246 582h12v12h-12zM222 606h12v12h-12zM270 606h12v12h-12zM198 630h12v12h-12zM246 630h12v12h-12zM222 654h12v12h-12zM246 654h12v12h-12zM342 582h12v12h-12zM294 606h12v12h-12zM318 606h12v12h-12zM366 606h12v12h-12zM294 630h12v12h-12zM342 630h12v12h-12zM366 630h12v12h-12zM318 654h12v12h-12zM390 582h12v12h-12zM462 582h12v12h-12zM414 606h12v12h-12zM438 630h12v12h-12zM390 654h12v12h-12zM462 654h12v12h-12zM486 582h12v12h-12zM534 582h12v12h-12zM558 582h12v12h-12zM510 606h12v12h-12zM558 606h12v12h-12zM534 630h12v12h-12zM558 654h12v12h-12zM582 582h12v12h-12zM654 582h12v12h-12zM606 606h12v12h-12zM630 606h12v12h-12zM582 654h12v12h-12zM654 654h12v12h-12zM678 582h12v12h-12zM702 606h12v12h-12zM678 630h12v12h-12zM726 630h12v12h-12zM678 654h12v12h-12zM702 654h12v12h-12zM750 654h12v12h-12zM774 582h12v12h-12zM822 582h12v12h-12zM822 606h12v12h-12zM846 606h12v12h-12zM774 630h12v12h-12zM798 630h12v12h-12zM798 654h12v12h-12zM846 654h12v12h-12zM870 582h12v12h-12zM918 582h12v12h-12zM942 582h12v12h-12zM894 606h12v12h-12zM942 606h12v12h-12zM918 630h12v12h-12zM942 654h12v12h-12zM6 678h12v12h-12zM6 702h12v12h-12zM78 726h12v12h-12zM78 750h12v12h-12zM102 702h12v12h-12zM174 702h12v12h-12zM102 726h12v12h-12zM126 726h12v12h-12zM198 678h12v12h-12zM198 702h12v12h-12zM270 726h12v12h-12zM270 750h12v12h-12zM318 678h12v12h-12zM294 702h12v12h-12zM342 702h12v12h-12zM366 702h12v12h-12zM294 726h12v12h-12zM318 726h12v12h-12zM366 726h12v12h-12zM342 750h12v12h-12zM390 678h12v12h-12zM462 678h12v12h-12zM438 702h12v12h-12zM414 726h12v12h-12zM438 726h12v12h-12zM390 750h12v12h-12zM462 750h12v12h-12zM486 678h12v12h-12zM534 678h12v12h-12zM558 702h12v12h-12zM486 726h12v12h-12zM510 750h12v12h-12zM558 750h12v12h-12zM582 678h12v12h-12zM654 678h12v12h-12zM606 702h12v12h-12zM630 702h12v12h-12zM606 726h12v12h-12zM630 726h12v12h-12zM582 750h12v12h-12zM654 750h12v12h-12zM714 714h12v12h-12zM774 678h12v12h-12zM846 678h12v12h-12zM798 702h12v12h-12zM822 702h12v12h-12zM798 726h12v12h-12zM822 726h12v12h-12zM774 750h12v12h-12zM846 750h12v12h-12zM918 678h12v12h-12zM942 678h12v12h-12zM870 750h12v12h-12zM894 750h12v12h-12zM6 774h12v12h-12zM30 798h12v12h-12zM6 822h12v12h-12zM54 822h12v12h-12zM6 846h12v12h-12zM30 846h12v12h-12zM78 846h12v12h-12zM102 798h12v12h-12zM126 798h12v12h-12zM102 822h12v12h-12zM174 822h12v12h-12zM270 774h12v12h-12zM246 798h12v12h-12zM222 822h12v12h-12zM198 846h12v12h-12zM366 774h12v12h-12zM366 798h12v12h-12zM294 822h12v12h-12zM294 846h12v12h-12zM390 774h12v12h-12zM462 774h12v12h-12zM414 798h12v12h-12zM414 822h12v12h-12zM438 822h12v12h-12zM390 846h12v12h-12zM462 846h12v12h-12zM486 774h12v12h-12zM486 798h12v12h-12zM558 822h12v12h-12zM558 846h12v12h-12zM606 774h12v12h-12zM630 822h12v12h-12zM606 846h12v12h-12zM630 846h12v12h-12zM678 774h12v12h-12zM750 774h12v12h-12zM702 798h12v12h-12zM726 798h12v12h-12zM702 822h12v12h-12zM726 822h12v12h-12zM678 846h12v12h-12zM750 846h12v12h-12zM798 774h12v12h-12zM846 774h12v12h-12zM774 798h12v12h-12zM798 798h12v12h-12zM822 822h12v12h-12zM846 822h12v12h-12zM774 846h12v12h-12zM822 846h12v12h-12zM870 774h12v12h-12zM918 774h12v12h-12zM918 798h12v12h-12zM942 798h12v12h-12zM870 822h12v12h-12zM894 822h12v12h-12zM894 846h12v12h-12zM942 846h12v12h-12zM54 870h12v12h-12zM78 870h12v12h-12zM6 942h12v12h-12zM30 942h12v12h-12zM126 870h12v12h-12zM102 894h12v12h-12zM150 894h12v12h-12zM174 894h12v12h-12zM102 918h12v12h-12zM126 918h12v12h-12zM174 918h12v12h-12zM150 942h12v12h-12zM198 870h12v12h-12zM222 894h12v12h-12zM198 918h12v12h-12zM246 918h12v12h-12zM198 942h12v12h-12zM222 942h12v12h-12zM270 942h12v12h-12zM318 870h12v12h-12zM342 870h12v12h-12zM318 942h12v12h-12zM342 942h12v12h-12zM414 870h12v12h-12zM438 870h12v12h-12zM390 894h12v12h-12zM438 894h12v12h-12zM414 918h12v12h-12zM462 918h12v12h-12zM414 942h12v12h-12zM438 942h12v12h-12zM510 870h12v12h-12zM558 870h12v12h-12zM486 894h12v12h-12zM558 918h12v12h-12zM486 942h12v12h-12zM534 942h12v12h-12zM606 870h12v12h-12zM582 894h12v12h-12zM630 894h12v12h-12zM654 894h12v12h-12zM582 918h12v12h-12zM606 918h12v12h-12zM654 918h12v12h-12zM630 942h12v12h-12zM702 870h12v12h-12zM678 894h12v12h-12zM750 918h12v12h-12zM726 942h12v12h-12zM774 870h12v12h-12zM798 894h12v12h-12zM774 918h12v12h-12zM822 918h12v12h-12zM774 942h12v12h-12zM798 942h12v12h-12zM846 942h12v12h-12zM870 870h12v12h-12zM894 894h12v12h-12zM918 918h12v12h-12zM942 942h12v12h-12z"/><path fill="#000" d="M144 0h48v48h-48zM96 0h48v48h-48zM48 0h48v48h-48zM96 48h48v48h-48zM144 96h48v48h-48zM192 144h48v48h-48zM240 192h48v48h-48zM288 240h48v48h-48zM336 288h48v48h-48zM384 336h48v48h-48zM384 384h48v48h-48zM384 432h48v48h-48zM384 480h48v48h-48zM384 528h48v48h-48zM336 528h48v48h-48zM288 528h48v48h-48zM240 528h48v48h-48zM192 528h48v48h-48zM144 528h48v48h-48zM96 528h48v48h-48zM48 528h48v48h-48zM96 576h48v48h-48zM144 624h48v48h-48zM192 672h48v48h-48zM240 720h48v48h-48zM288 768h48v48h-48zM288 720h48v48h-48zM288 672h48v48h-48zM288 624h48v48h-48zM288 576h48v48h-48zM288 480h48v48h-48zM288 432h48v48h-48zM288 384h48v48h-48zM240 384h48v48h-48zM192 384h48v48h-48zM144 384h48v48h-48zM96 384h48v48h-48zM48 384h48v48h-48zM0 384h48v48h-48zM336 384h48v48h-48zM432 384h48v48h-48zM336 432h48v48h-48zM336 480h48v48h-48zM336 576h48v48h-48zM336 624h48v48h-48zM336 672h48v48h-48zM336 720h48v48h-48zM336 768h48v48h-48zM288 816h48v48h-48zM240 864h48v48h-48zM192 912h48v48h-48zM192 864h48v48h-48zM192 816h48v48h-48zM192 768h48v48h-48zM192 720h48v48h-48zM192 624h48v48h-48zM192 576h48v48h-48zM192 480h48v48h-48zM192 432h48v48h-48zM240 480h48v48h-48zM240 432h48v48h-48zM240 336h48v48h-48zM240 288h48v48h-48zM240 240h48v48h-48zM144 432h48v48h-48zM96 432h48v48h-48zM96 480h48v48h-48zM96 624h48v48h-48zM144 576h48v48h-48zM240 672h48v48h-48zM384 816h48v48h-48zM336 336h48v48h-48zM336 240h48v48h-48zM336 192h48v48h-48zM336 144h48v48h-48zM384 96h48v48h-48zM336 96h48v48h-48zM288 96h48v48h-48zM288 144h48v48h-48zM288 192h48v48h-48zM288 288h48v48h-48zM288 336h48v48h-48zM144 480h48v48h-48zM48 480h48v48h-48zM192 336h48v48h-48zM384 624h48v48h-48zM432 576h48v48h-48zM768 0h48v48h-48zM816 0h48v48h-48zM864 0h48v48h-48zM816 48h48v48h-48zM768 96h48v48h-48zM720 144h48v48h-48zM672 192h48v48h-48zM624 240h48v48h-48zM576 288h48v48h-48zM528 336h48v48h-48zM528 384h48v48h-48zM528 432h48v48h-48zM528 480h48v48h-48zM528 528h48v48h-48zM576 528h48v48h-48zM624 528h48v48h-48zM672 528h48v48h-48zM720 528h48v48h-48zM768 528h48v48h-48zM816 528h48v48h-48zM864 528h48v48h-48zM816 576h48v48h-48zM768 624h48v48h-48zM720 672h48v48h-48zM672 720h48v48h-48zM624 768h48v48h-48zM624 720h48v48h-48zM624 672h48v48h-48zM624 624h48v48h-48zM624 576h48v48h-48zM624 480h48v48h-48zM624 432h48v48h-48zM624 384h48v48h-48zM672 384h48v48h-48zM720 384h48v48h-48zM768 384h48v48h-48zM816 384h48v48h-48zM864 384h48v48h-48zM912 384h48v48h-48zM576 384h48v48h-48zM480 384h48v48h-48zM576 432h48v48h-48zM576 480h48v48h-48zM576 576h48v48h-48zM576 624h48v48h-48zM576 672h48v48h-48zM576 720h48v48h-48zM576 768h48v48h-48zM624 816h48v48h-48zM672 864h48v48h-48zM720 912h48v48h-48zM720 864h48v48h-48zM720 816h48v48h-48zM720 768h48v48h-48zM720 720h48v48h-48zM720 624h48v48h-48zM720 576h48v48h-48zM720 480h48v48h-48zM720 432h48v48h-48zM672 480h48v48h-48zM672 432h48v48h-48zM672 336h48v48h-48zM672 288h48v48h-48zM672 240h48v48h-48zM768 432h48v48h-48zM816 432h48v48h-48zM816 480h48v48h-48zM816 624h48v48h-48zM768 576h48v48h-48zM672 672h48v48h-48zM528 816h48v48h-48zM576 336h48v48h-48zM576 240h48v48h-48zM576 192h48v48h-48zM576 144h48v48h-48zM528 96h48v48h-48zM576 96h48v48h-48zM624 96h48v48h-48zM624 144h48v48h-48zM624 192h48v48h-48zM624 288h48v48h-48zM624 336h48v48h-48zM768 480h48v48h-48zM864 480h48v48h-48zM720 336h48v48h-48zM528 624h48v48h-48zM480 576h48v48h-48z"/></svg>