<svg xmlns="http://www.w3.org/2000/svg" width="960" height="960" viewBox="0 0 960 960" shape-rendering="crispEdges"><path fill="#000" d="M0 0h960v960h-960z"/><path fill="#a9c1bc" d="M0 0h48v48h-48zM0 48h48v48h-48zM0 96h48v48h-48zM0 144h48v48h-48zM0 192h48v48h-48zM0 240h48v48h-48zM0 288h48v48h-48zM0 336h48v48h-48zM0 384h48v48h-48zM0 432h48v48h-48zM0 480h48v48h-48zM0 528h48v48h-48zM0 576h48v48h-48zM0 624h48v48h-48zM0 672h48v48h-48zM0 720h48v48h-48zM0 768h48v48h-48zM0 816h48v48h-48zM0 864h48v48h-48zM0 912h48v48h-48zM48 0h48v48h-48zM48 192h48v48h-48zM48 384h48v48h-48zM48 576h48v48h-48zM48 768h48v48h-48zM96 0h48v48h-48zM96 192h48v48h-48zM96 384h48v48h-48zM96 576h48v48h-48zM96 768h48v48h-48zM144 0h48v48h-48zM144 192h48v48h-48zM144 384h48v48h-48zM144 576h48v48h-48zM144 768h48v48h-48zM192 0h48v48h-48zM192 48h48v48h-48zM192 96h48v48h-48zM192 144h48v48h-48zM192 192h48v48h-48zM192 240h48v48h-48zM192 288h48v48h-48zM192 336h48v48h-48zM192 384h48v48h-48zM192 432h48v48h-48zM192 480h48v48h-48zM192 528h48v48h-48zM192 576h48v48h-48zM192 624h48v48h-48zM192 672h48v48h-48zM192 720h48v48h-48zM192 768h48v48h-48zM192 816h48v48h-48zM192 864h48v48h-48zM192 912h48v48h-48zM240 0h48v48h-48zM240 192h48v48h-48zM240 384h48v48h-48zM240 576h48v48h-48zM240 768h48v48h-48zM288 0h48v48h-48zM288 192h48v48h-48zM288 384h48v48h-48zM288 576h48v48h-48zM288 768h48v48h-48zM336 0h48v48h-48zM336 192h48v48h-48zM336 384h48v48h-48zM336 576h48v48h-48zM336 768h48v48h-48zM384 0h48v48h-48zM384 48h48v48h-48zM384 96h48v48h-48zM384 144h48v48h-48zM384 192h48v48h-48zM384 240h48v48h-48zM384 288h48v48h-48zM384 336h48v48h-48zM384 384h48v48h-48zM384 432h48v48h-48zM384 480h48v48h-48zM384 528h48v48h-48zM384 576h48v48h-48zM384 624h48v48h-48zM384 672h48v48h-48zM384 720h48v48h-48zM384 768h48v48h-48zM384 816h48v48h-48zM384 864h48v48h-48zM384 912h48v48h-48zM432 0h48v48h-48zM432 192h48v48h-48zM432 384h48v48h-48zM432 576h48v48h-48zM432 768h48v48h-48zM480 0h48v48h-48zM480 192h48v48h-48zM480 384h48v48h-48zM480 576h48v48h-48zM480 768h48v48h-48zM528 0h48v48h-48zM528 192h48v48h-48zM528 384h48v48h-48zM528 576h48v48h-48zM528 768h48v48h-48zM576 0h48v48h-48zM576 48h48v48h-48zM576 96h48v48h-48zM576 144h48v48h-48zM576 192h48v48h-48zM576 240h48v48h-48zM576 288h48v48h-48zM576 336h48v48h-48zM576 384h48v48h-48zM576 432h48v48h-48zM576 480h48v48h-48zM576 528h48v48h-48zM576 576h48v48h-48zM576 624h48v48h-48zM576 672h48v48h-48zM576 720h48v48h-48zM576 768h48v48h-48zM576 816h48v48h-48zM576 864h48v48h-48zM576 912h48v48h-48zM624 0h48v48h-48zM624 192h48v48h-48zM624 384h48v48h-48zM624 576h48v48h-48zM624 768h48v48h-48zM672 0h48v48h-48zM672 192h48v48h-48zM672 384h48v48h-48zM672 576h48v48h-48zM672 768h48v48h-48zM720 0h48v48h-48zM720 192h48v48h-48zM720 384h48v48h-48zM720 576h48v48h-48zM720 768h48v48h-48zM768 0h48v48h-48zM768 48h48v48h-48zM768 96h48v48h-48zM768 144h48v48h-48zM768 192h48v48h-48zM768 240h48v48h-48zM768 288h48v48h-48zM768 336h48v48h-48zM768 384h48v48h-48zM768 432h48v48h-48zM768 480h48v48h-48zM768 528h48v48h-48zM768 576h48v48h-48zM768 624h48v48h-48zM768 672h48v48h-48zM768 720h48v48h-48zM768 768h48v48h-48zM768 816h48v48h-48zM768 864h48v48h-48zM768 912h48v48h-48zM816 0h48v48h-48zM816 192h48v48h-48zM816 384h48v48h-48zM816 576h48v48h-48zM816 768h48v48h-48zM864 0h48v48h-48zM864 192h48v48h-48zM864 384h48v48h-48zM864 576h48v48h-48zM864 768h48v48h-48zM912 0h48v48h-48zM912 192h48v48h-48zM912 384h48v48h-48zM912 576h48v48h-48zM912 768h48v48h-48z"/><path fill="#1d4167" d="M33 0h6v24h-6zM24 9h24v6h-24zM9 24h6v24h-6zM0 33h24v6h-24zM33 24h6v24h-6zM24 33h24v6h-24zM57 48h6v24h-6zM48 57h24v6h-24zM81 48h6v24h-6zM72 57h24v6h-24zM57 72h6v24h-6zM48 81h24v6h-24zM129 0h6v24h-6zM120 9h24v6h-24zM153 0h6v24h-6zM144 9h24v6h-24zM105 24h6v24h-6zM96 33h24v6h-24zM153 24h6v24h-6zM144 33h24v6h-24zM129 48h6v24h-6zM120 57h24v6h-24zM177 48h6v24h-6zM168 57h24v6h-24zM129 72h6v24h-6zM120 81h24v6h-24zM153 72h6v24h-6zM144 81h24v6h-24zM225 0h6v24h-6zM216 9h24v6h-24zM249 0h6v24h-6zM240 9h24v6h-24zM249 24h6v24h-6zM240 33h24v6h-24zM225 72h6v24h-6zM216 81h24v6h-24zM321 0h6v24h-6zM312 9h24v6h-24zM369 0h6v24h-6zM360 9h24v6h-24zM321 72h6v24h-6zM312 81h24v6h-24zM369 72h6v24h-6zM360 81h24v6h-24zM417 0h6v24h-6zM408 9h24v6h-24zM441 0h6v24h-6zM432 9h24v6h-24zM441 24h6v24h-6zM432 33h24v6h-24zM417 72h6v24h-6zM408 81h24v6h-24zM513 0h6v24h-6zM504 9h24v6h-24zM537 0h6v24h-6zM528 9h24v6h-24zM489 24h6v24h-6zM480 33h24v6h-24zM537 24h6v24h-6zM528 33h24v6h-24zM513 48h6v24h-6zM504 57h24v6h-24zM561 48h6v24h-6zM552 57h24v6h-24zM513 72h6v24h-6zM504 81h24v6h-24zM537 72h6v24h-6zM528 81h24v6h-24zM609 0h6v24h-6zM600 9h24v6h-24zM633 0h6v24h-6zM624 9h24v6h-24zM609 72h6v24h-6zM600 81h24v6h-24zM633 72h6v24h-6zM624 81h24v6h-24zM705 0h6v24h-6zM696 9h24v6h-24zM681 24h6v24h-6zM672 33h24v6h-24zM729 24h6v24h-6zM720 33h24v6h-24zM705 48h6v24h-6zM696 57h24v6h-24zM753 48h6v24h-6zM744 57h24v6h-24zM729 72h6v24h-6zM720 81h24v6h-24zM777 0h6v24h-6zM768 9h24v6h-24zM849 0h6v24h-6zM840 9h24v6h-24zM777 72h6v24h-6zM768 81h24v6h-24zM849 72h6v24h-6zM840 81h24v6h-24zM873 24h6v24h-6zM864 33h24v6h-24zM945 24h6v24h-6zM936 33h24v6h-24zM873 48h6v24h-6zM864 57h24v6h-24zM945 48h6v24h-6zM936 57h24v6h-24zM57 96h6v24h-6zM48 105h24v6h-24zM57 120h6v24h-6zM48 129h24v6h-24zM81 120h6v24h-6zM72 129h24v6h-24zM9 144h6v24h-6zM0 153h24v6h-24zM33 144h6v24h-6zM24 153h24v6h-24zM33 168h6v24h-6zM24 177h24v6h-24zM129 96h6v24h-6zM120 105h24v6h-24zM177 96h6v24h-6zM168 105h24v6h-24zM153 120h6v24h-6zM144 129h24v6h-24zM153 144h6v24h-6zM144 153h24v6h-24zM129 168h6v24h-6zM120 177h24v6h-24zM177 168h6v24h-6zM168 177h24v6h-24zM201 96h6v24h-6zM192 105h24v6h-24zM225 120h6v24h-6zM216 129h24v6h-24zM201 144h6v24h-6zM192 153h24v6h-24zM249 144h6v24h-6zM240 153h24v6h-24zM201 168h6v24h-6zM192 177h24v6h-24zM225 168h6v24h-6zM216 177h24v6h-24zM273 168h6v24h-6zM264 177h24v6h-24zM321 96h6v24h-6zM312 105h24v6h-24zM297 120h6v24h-6zM288 129h24v6h-24zM345 120h6v24h-6zM336 129h24v6h-24zM321 144h6v24h-6zM312 153h24v6h-24zM369 144h6v24h-6zM360 153h24v6h-24zM345 168h6v24h-6zM336 177h24v6h-24zM417 96h6v24h-6zM408 105h24v6h-24zM465 96h6v24h-6zM456 105h24v6h-24zM393 120h6v24h-6zM384 129h24v6h-24zM465 144h6v24h-6zM456 153h24v6h-24zM393 168h6v24h-6zM384 177h24v6h-24zM441 168h6v24h-6zM432 177h24v6h-24zM489 96h6v24h-6zM480 105h24v6h-24zM561 96h6v24h-6zM552 105h24v6h-24zM537 120h6v24h-6zM528 129h24v6h-24zM513 144h6v24h-6zM504 153h24v6h-24zM537 144h6v24h-6zM528 153h24v6h-24zM489 168h6v24h-6zM480 177h24v6h-24zM561 168h6v24h-6zM552 177h24v6h-24zM633 96h6v24h-6zM624 105h24v6h-24zM657 96h6v24h-6zM648 105h24v6h-24zM633 120h6v24h-6zM624 129h24v6h-24zM657 120h6v24h-6zM648 129h24v6h-24zM585 144h6v24h-6zM576 153h24v6h-24zM609 144h6v24h-6zM600 153h24v6h-24zM585 168h6v24h-6zM576 177h24v6h-24zM609 168h6v24h-6zM600 177h24v6h-24zM681 96h6v24h-6zM672 105h24v6h-24zM729 96h6v24h-6zM720 105h24v6h-24zM753 120h6v24h-6zM744 129h24v6h-24zM681 144h6v24h-6zM672 153h24v6h-24zM705 168h6v24h-6zM696 177h24v6h-24zM753 168h6v24h-6zM744 177h24v6h-24zM825 96h6v24h-6zM816 105h24v6h-24zM849 120h6v24h-6zM840 129h24v6h-24zM777 144h6v24h-6zM768 153h24v6h-24zM801 168h6v24h-6zM792 177h24v6h-24zM945 96h6v24h-6zM936 105h24v6h-24zM945 120h6v24h-6zM936 129h24v6h-24zM873 144h6v24h-6zM864 153h24v6h-24zM873 168h6v24h-6zM864 177h24v6h-24zM9 192h6v24h-6zM0 201h24v6h-24zM57 192h6v24h-6zM48 201h24v6h-24zM33 216h6v24h-6zM24 225h24v6h-24zM81 216h6v24h-6zM72 225h24v6h-24zM9 240h6v24h-6zM0 249h24v6h-24zM57 240h6v24h-6zM48 249h24v6h-24zM33 264h6v24h-6zM24 273h24v6h-24zM81 264h6v24h-6zM72 273h24v6h-24zM129 192h6v24h-6zM120 201h24v6h-24zM153 192h6v24h-6zM144 201h24v6h-24zM129 264h6v24h-6zM120 273h24v6h-24zM153 264h6v24h-6zM144 273h24v6h-24zM201 192h6v24h-6zM192 201h24v6h-24zM273 192h6v24h-6zM264 201h24v6h-24zM201 264h6v24h-6zM192 273h24v6h-24zM273 264h6v24h-6zM264 273h24v6h-24zM297 192h6v24h-6zM288 201h24v6h-24zM369 192h6v24h-6zM360 201h24v6h-24zM345 216h6v24h-6zM336 225h24v6h-24zM321 240h6v24h-6zM312 249h24v6h-24zM345 240h6v24h-6zM336 249h24v6h-24zM297 264h6v24h-6zM288 273h24v6h-24zM369 264h6v24h-6zM360 273h24v6h-24zM465 192h6v24h-6zM456 201h24v6h-24zM441 216h6v24h-6zM432 225h24v6h-24zM417 240h6v24h-6zM408 249h24v6h-24zM393 264h6v24h-6zM384 273h24v6h-24zM537 192h6v24h-6zM528 201h24v6h-24zM561 192h6v24h-6zM552 201h24v6h-24zM537 216h6v24h-6zM528 225h24v6h-24zM561 216h6v24h-6zM552 225h24v6h-24zM489 240h6v24h-6zM480 249h24v6h-24zM513 240h6v24h-6zM504 249h24v6h-24zM489 264h6v24h-6zM480 273h24v6h-24zM513 264h6v24h-6zM504 273h24v6h-24zM585 192h6v24h-6zM576 201h24v6h-24zM609 192h6v24h-6zM600 201h24v6h-24zM633 264h6v24h-6zM624 273h24v6h-24zM657 264h6v24h-6zM648 273h24v6h-24zM681 192h6v24h-6zM672 201h24v6h-24zM729 192h6v24h-6zM720 201h24v6h-24zM729 216h6v24h-6zM720 225h24v6h-24zM753 216h6v24h-6zM744 225h24v6h-24zM681 240h6v24h-6zM672 249h24v6h-24zM705 240h6v24h-6zM696 249h24v6h-24zM705 264h6v24h-6zM696 273h24v6h-24zM753 264h6v24h-6zM744 273h24v6h-24zM777 192h6v24h-6zM768 201h24v6h-24zM849 192h6v24h-6zM840 201h24v6h-24zM801 216h6v24h-6zM792 225h24v6h-24zM801 240h6v24h-6zM792 249h24v6h-24zM825 240h6v24h-6zM816 249h24v6h-24zM777 264h6v24h-6zM768 273h24v6h-24zM849 264h6v24h-6zM840 273h24v6h-24zM873 192h6v24h-6zM864 201h24v6h-24zM945 192h6v24h-6zM936 201h24v6h-24zM873 264h6v24h-6zM864 273h24v6h-24zM945 264h6v24h-6zM936 273h24v6h-24zM81 432h6v24h-6zM72 441h24v6h-24zM33 288h6v24h-6zM24 297h24v6h-24zM57 288h6v24h-6zM48 297h24v6h-24zM33 312h6v24h-6zM24 321h24v6h-24zM81 312h6v24h-6zM72 321h24v6h-24zM9 336h6v24h-6zM0 345h24v6h-24zM57 336h6v24h-6zM48 345h24v6h-24zM33 360h6v24h-6zM24 369h24v6h-24zM57 360h6v24h-6zM48 369h24v6h-24zM177 288h6v24h-6zM168 297h24v6h-24zM177 312h6v24h-6zM168 321h24v6h-24zM105 336h6v24h-6zM96 345h24v6h-24zM105 360h6v24h-6zM96 369h24v6h-24zM201 288h6v24h-6zM192 297h24v6h-24zM273 288h6v24h-6zM264 297h24v6h-24zM201 360h6v24h-6zM192 369h24v6h-24zM273 360h6v24h-6zM264 369h24v6h-24zM345 288h6v24h-6zM336 297h24v6h-24zM297 312h6v24h-6zM288 321h24v6h-24zM321 312h6v24h-6zM312 321h24v6h-24zM369 312h6v24h-6zM360 321h24v6h-24zM297 336h6v24h-6zM288 345h24v6h-24zM345 336h6v24h-6zM336 345h24v6h-24zM369 336h6v24h-6zM360 345h24v6h-24zM321 360h6v24h-6zM312 369h24v6h-24zM393 288h6v24h-6zM384 297h24v6h-24zM465 288h6v24h-6zM456 297h24v6h-24zM393 336h6v24h-6zM384 345h24v6h-24zM465 336h6v24h-6zM456 345h24v6h-24zM489 312h6v24h-6zM480 321h24v6h-24zM561 312h6v24h-6zM552 321h24v6h-24zM489 336h6v24h-6zM480 345h24v6h-24zM513 336h6v24h-6zM504 345h24v6h-24zM585 288h6v24h-6zM576 297h24v6h-24zM657 288h6v24h-6zM648 297h24v6h-24zM609 336h6v24h-6zM600 345h24v6h-24zM633 336h6v24h-6zM624 345h24v6h-24zM585 360h6v24h-6zM576 369h24v6h-24zM657 360h6v24h-6zM648 369h24v6h-24zM705 288h6v24h-6zM696 297h24v6h-24zM753 288h6v24h-6zM744 297h24v6h-24zM729 312h6v24h-6zM720 321h24v6h-24zM729 336h6v24h-6zM720 345h24v6h-24zM705 360h6v24h-6zM696 369h24v6h-24zM753 360h6v24h-6zM744 369h24v6h-24zM801 288h6v24h-6zM792 297h24v6h-24zM825 336h6v24h-6zM816 345h24v6h-24zM801 360h6v24h-6zM792 369h24v6h-24zM825 360h6v24h-6zM816 369h24v6h-24zM897 288h6v24h-6zM888 297h24v6h-24zM921 288h6v24h-6zM912 297h24v6h-24zM897 360h6v24h-6zM888 369h24v6h-24zM921 360h6v24h-6zM912 369h24v6h-24zM33 384h6v24h-6zM24 393h24v6h-24zM81 384h6v24h-6zM72 393h24v6h-24zM9 408h6v24h-6zM0 417h24v6h-24zM81 432h6v24h-6zM72 441h24v6h-24zM9 456h6v24h-6zM0 465h24v6h-24zM57 456h6v24h-6zM48 465h24v6h-24zM129 384h6v24h-6zM120 393h24v6h-24zM177 384h6v24h-6zM168 393h24v6h-24zM153 408h6v24h-6zM144 417h24v6h-24zM153 432h6v24h-6zM144 441h24v6h-24zM129 456h6v24h-6zM120 465h24v6h-24zM177 456h6v24h-6zM168 465h24v6h-24zM225 384h6v24h-6zM216 393h24v6h-24zM273 384h6v24h-6zM264 393h24v6h-24zM225 456h6v24h-6zM216 465h24v6h-24zM273 456h6v24h-6zM264 465h24v6h-24zM297 384h6v24h-6zM288 393h24v6h-24zM321 384h6v24h-6zM312 393h24v6h-24zM345 456h6v24h-6zM336 465h24v6h-24zM369 456h6v24h-6zM360 465h24v6h-24zM465 384h6v24h-6zM456 393h24v6h-24zM441 408h6v24h-6zM432 417h24v6h-24zM417 432h6v24h-6zM408 441h24v6h-24zM393 456h6v24h-6zM384 465h24v6h-24zM489 384h6v24h-6zM480 393h24v6h-24zM537 384h6v24h-6zM528 393h24v6h-24zM561 384h6v24h-6zM552 393h24v6h-24zM513 408h6v24h-6zM504 417h24v6h-24zM561 408h6v24h-6zM552 417h24v6h-24zM537 432h6v24h-6zM528 441h24v6h-24zM561 456h6v24h-6zM552 465h24v6h-24zM585 384h6v24h-6zM576 393h24v6h-24zM585 408h6v24h-6zM576 417h24v6h-24zM657 432h6v24h-6zM648 441h24v6h-24zM657 456h6v24h-6zM648 465h24v6h-24zM681 384h6v24h-6zM672 393h24v6h-24zM705 408h6v24h-6zM696 417h24v6h-24zM681 432h6v24h-6zM672 441h24v6h-24zM729 432h6v24h-6zM720 441h24v6h-24zM681 456h6v24h-6zM672 465h24v6h-24zM705 456h6v24h-6zM696 465h24v6h-24zM753 456h6v24h-6zM744 465h24v6h-24zM849 384h6v24h-6zM840 393h24v6h-24zM825 408h6v24h-6zM816 417h24v6h-24zM801 432h6v24h-6zM792 441h24v6h-24zM849 432h6v24h-6zM840 441h24v6h-24zM777 456h6v24h-6zM768 465h24v6h-24zM825 456h6v24h-6zM816 465h24v6h-24zM849 456h6v24h-6zM840 465h24v6h-24zM897 408h6v24h-6zM888 417h24v6h-24zM921 408h6v24h-6zM912 417h24v6h-24zM897 432h6v24h-6zM888 441h24v6h-24zM921 432h6v24h-6zM912 441h24v6h-24zM9 480h6v24h-6zM0 489h24v6h-24zM57 480h6v24h-6zM48 489h24v6h-24zM81 480h6v24h-6zM72 489h24v6h-24zM33 504h6v24h-6zM24 513h24v6h-24zM81 504h6v24h-6zM72 513h24v6h-24zM57 528h6v24h-6zM48 537h24v6h-24zM81 552h6v24h-6zM72 561h24v6h-24zM105 480h6v24h-6zM96 489h24v6h-24zM153 480h6v24h-6zM144 489h24v6h-24zM177 504h6v24h-6zM168 513h24v6h-24zM105 528h6v24h-6zM96 537h24v6h-24zM129 552h6v24h-6zM120 561h24v6h-24zM177 552h6v24h-6zM168 561h24v6h-24zM201 480h6v24h-6zM192 489h24v6h-24zM249 480h6v24h-6zM240 489h24v6h-24zM225 504h6v24h-6zM216 513h24v6h-24zM273 504h6v24h-6zM264 513h24v6h-24zM201 528h6v24h-6zM192 537h24v6h-24zM249 528h6v24h-6zM240 537h24v6h-24zM225 552h6v24h-6zM216 561h24v6h-24zM273 552h6v24h-6zM264 561h24v6h-24zM297 504h6v24h-6zM288 513h24v6h-24zM369 504h6v24h-6zM360 513h24v6h-24zM297 528h6v24h-6zM288 537h24v6h-24zM321 528h6v24h-6zM312 537h24v6h-24zM393 480h6v24h-6zM384 489h24v6h-24zM465 480h6v24h-6zM456 489h24v6h-24zM417 528h6v24h-6zM408 537h24v6h-24zM441 528h6v24h-6zM432 537h24v6h-24zM393 552h6v24h-6zM384 561h24v6h-24zM465 552h6v24h-6zM456 561h24v6h-24zM513 480h6v24h-6zM504 489h24v6h-24zM489 504h6v24h-6zM480 513h24v6h-24zM537 504h6v24h-6zM528 513h24v6h-24zM513 528h6v24h-6zM504 537h24v6h-24zM561 528h6v24h-6zM552 537h24v6h-24zM537 552h6v24h-6zM528 561h24v6h-24zM633 480h6v24h-6zM624 489h24v6h-24zM585 504h6v24h-6zM576 513h24v6h-24zM609 504h6v24h-6zM600 513h24v6h-24zM657 504h6v24h-6zM648 513h24v6h-24zM585 528h6v24h-6zM576 537h24v6h-24zM633 528h6v24h-6zM624 537h24v6h-24zM657 528h6v24h-6zM648 537h24v6h-24zM609 552h6v24h-6zM600 561h24v6h-24zM681 480h6v24h-6zM672 489h24v6h-24zM753 480h6v24h-6zM744 489h24v6h-24zM729 504h6v24h-6zM720 513h24v6h-24zM705 528h6v24h-6zM696 537h24v6h-24zM681 552h6v24h-6zM672 561h24v6h-24zM753 552h6v24h-6zM744 561h24v6h-24zM777 480h6v24h-6zM768 489h24v6h-24zM825 480h6v24h-6zM816 489h24v6h-24zM849 504h6v24h-6zM840 513h24v6h-24zM777 528h6v24h-6zM768 537h24v6h-24zM801 552h6v24h-6zM792 561h24v6h-24zM849 552h6v24h-6zM840 561h24v6h-24zM873 480h6v24h-6zM864 489h24v6h-24zM897 480h6v24h-6zM888 489h24v6h-24zM945 480h6v24h-6zM936 489h24v6h-24zM873 504h6v24h-6zM864 513h24v6h-24zM921 504h6v24h-6zM912 513h24v6h-24zM897 528h6v24h-6zM888 537h24v6h-24zM873 552h6v24h-6zM864 561h24v6h-24zM9 576h6v24h-6zM0 585h24v6h-24zM57 576h6v24h-6zM48 585h24v6h-24zM81 576h6v24h-6zM72 585h24v6h-24zM33 600h6v24h-6zM24 609h24v6h-24zM81 600h6v24h-6zM72 609h24v6h-24zM57 624h6v24h-6zM48 633h24v6h-24zM81 648h6v24h-6zM72 657h24v6h-24zM129 576h6v24h-6zM120 585h24v6h-24zM153 576h6v24h-6zM144 585h24v6h-24zM153 600h6v24h-6zM144 609h24v6h-24zM129 648h6v24h-6zM120 657h24v6h-24zM201 576h6v24h-6zM192 585h24v6h-24zM273 576h6v24h-6zM264 585h24v6h-24zM201 648h6v24h-6zM192 657h24v6h-24zM273 648h6v24h-6zM264 657h24v6h-24zM297 576h6v24h-6zM288 585h24v6h-24zM321 576h6v24h-6zM312 585h24v6h-24zM297 600h6v24h-6zM288 609h24v6h-24zM321 600h6v24h-6zM312 609h24v6h-24zM345 624h6v24h-6zM336 633h24v6h-24zM369 624h6v24h-6zM360 633h24v6h-24zM345 648h6v24h-6zM336 657h24v6h-24zM369 648h6v24h-6zM360 657h24v6h-24zM465 576h6v24h-6zM456 585h24v6h-24zM441 600h6v24h-6zM432 609h24v6h-24zM417 624h6v24h-6zM408 633h24v6h-24zM393 648h6v24h-6zM384 657h24v6h-24zM513 576h6v24h-6zM504 585h24v6h-24zM561 576h6v24h-6zM552 585h24v6h-24zM489 600h6v24h-6zM480 609h24v6h-24zM513 600h6v24h-6zM504 609h24v6h-24zM537 624h6v24h-6zM528 633h24v6h-24zM561 624h6v24h-6zM552 633h24v6h-24zM489 648h6v24h-6zM480 657h24v6h-24zM537 648h6v24h-6zM528 657h24v6h-24zM585 576h6v24h-6zM576 585h24v6h-24zM657 576h6v24h-6zM648 585h24v6h-24zM609 600h6v24h-6zM600 609h24v6h-24zM609 624h6v24h-6zM600 633h24v6h-24zM633 624h6v24h-6zM624 633h24v6h-24zM585 648h6v24h-6zM576 657h24v6h-24zM657 648h6v24h-6zM648 657h24v6h-24zM681 600h6v24h-6zM672 609h24v6h-24zM705 600h6v24h-6zM696 609h24v6h-24zM681 624h6v24h-6zM672 633h24v6h-24zM753 624h6v24h-6zM744 633h24v6h-24zM825 576h6v24h-6zM816 585h24v6h-24zM777 600h6v24h-6zM768 609h24v6h-24zM801 600h6v24h-6zM792 609h24v6h-24zM849 600h6v24h-6zM840 609h24v6h-24zM777 624h6v24h-6zM768 633h24v6h-24zM825 624h6v24h-6zM816 633h24v6h-24zM849 624h6v24h-6zM840 633h24v6h-24zM801 648h6v24h-6zM792 657h24v6h-24zM873 576h6v24h-6zM864 585h24v6h-24zM921 576h6v24h-6zM912 585h24v6h-24zM945 576h6v24h-6zM936 585h24v6h-24zM897 600h6v24h-6zM888 609h24v6h-24zM945 600h6v24h-6zM936 609h24v6h-24zM921 624h6v24h-6zM912 633h24v6h-24zM945 648h6v24h-6zM936 657h24v6h-24zM33 672h6v24h-6zM24 681h24v6h-24zM9 696h6v24h-6zM0 705h24v6h-24zM57 696h6v24h-6zM48 705h24v6h-24zM33 720h6v24h-6zM24 729h24v6h-24zM81 720h6v24h-6zM72 729h24v6h-24zM57 744h6v24h-6zM48 753h24v6h-24zM153 672h6v24h-6zM144 681h24v6h-24zM177 696h6v24h-6zM168 705h24v6h-24zM105 720h6v24h-6zM96 729h24v6h-24zM129 744h6v24h-6zM120 753h24v6h-24zM225 672h6v24h-6zM216 681h24v6h-24zM249 672h6v24h-6zM240 681h24v6h-24zM201 696h6v24h-6zM192 705h24v6h-24zM249 696h6v24h-6zM240 705h24v6h-24zM225 720h6v24h-6zM216 729h24v6h-24zM273 720h6v24h-6zM264 729h24v6h-24zM225 744h6v24h-6zM216 753h24v6h-24zM249 744h6v24h-6zM240 753h24v6h-24zM297 672h6v24h-6zM288 681h24v6h-24zM369 672h6v24h-6zM360 681h24v6h-24zM321 696h6v24h-6zM312 705h24v6h-24zM321 720h6v24h-6zM312 729h24v6h-24zM345 720h6v24h-6zM336 729h24v6h-24zM297 744h6v24h-6zM288 753h24v6h-24zM369 744h6v24h-6zM360 753h24v6h-24zM441 672h6v24h-6zM432 681h24v6h-24zM393 696h6v24h-6zM384 705h24v6h-24zM417 696h6v24h-6zM408 705h24v6h-24zM465 696h6v24h-6zM456 705h24v6h-24zM393 720h6v24h-6zM384 729h24v6h-24zM441 720h6v24h-6zM432 729h24v6h-24zM465 720h6v24h-6zM456 729h24v6h-24zM417 744h6v24h-6zM408 753h24v6h-24zM513 672h6v24h-6zM504 681h24v6h-24zM537 672h6v24h-6zM528 681h24v6h-24zM513 744h6v24h-6zM504 753h24v6h-24zM537 744h6v24h-6zM528 753h24v6h-24zM633 672h6v24h-6zM624 681h24v6h-24zM657 672h6v24h-6zM648 681h24v6h-24zM585 744h6v24h-6zM576 753h24v6h-24zM609 744h6v24h-6zM600 753h24v6h-24zM753 672h6v24h-6zM744 681h24v6h-24zM753 696h6v24h-6zM744 705h24v6h-24zM681 720h6v24h-6zM672 729h24v6h-24zM681 744h6v24h-6zM672 753h24v6h-24zM825 672h6v24h-6zM816 681h24v6h-24zM849 672h6v24h-6zM840 681h24v6h-24zM825 696h6v24h-6zM816 705h24v6h-24zM849 696h6v24h-6zM840 705h24v6h-24zM777 720h6v24h-6zM768 729h24v6h-24zM801 720h6v24h-6zM792 729h24v6h-24zM777 744h6v24h-6zM768 753h24v6h-24zM801 744h6v24h-6zM792 753h24v6h-24zM873 672h6v24h-6zM864 681h24v6h-24zM921 672h6v24h-6zM912 681h24v6h-24zM897 696h6v24h-6zM888 705h24v6h-24zM945 696h6v24h-6zM936 705h24v6h-24zM873 720h6v24h-6zM864 729h24v6h-24zM921 720h6v24h-6zM912 729h24v6h-24zM897 744h6v24h-6zM888 753h24v6h-24zM945 744h6v24h-6zM936 753h24v6h-24zM9 768h6v24h-6zM0 777h24v6h-24zM57 768h6v24h-6zM48 777h24v6h-24zM81 792h6v24h-6zM72 801h24v6h-24zM9 816h6v24h-6zM0 825h24v6h-24zM33 840h6v24h-6zM24 849h24v6h-24zM81 840h6v24h-6zM72 849h24v6h-24zM129 768h6v24h-6zM120 777h24v6h-24zM153 768h6v24h-6zM144 777h24v6h-24zM129 840h6v24h-6zM120 849h24v6h-24zM153 840h6v24h-6zM144 849h24v6h-24zM201 768h6v24h-6zM192 777h24v6h-24zM273 768h6v24h-6zM264 777h24v6h-24zM225 792h6v24h-6zM216 801h24v6h-24zM249 792h6v24h-6zM240 801h24v6h-24zM225 816h6v24h-6zM216 825h24v6h-24zM249 816h6v24h-6zM240 825h24v6h-24zM201 840h6v24h-6zM192 849h24v6h-24zM273 840h6v24h-6zM264 849h24v6h-24zM321 768h6v24h-6zM312 777h24v6h-24zM297 792h6v24h-6zM288 801h24v6h-24zM321 792h6v24h-6zM312 801h24v6h-24zM345 816h6v24h-6zM336 825h24v6h-24zM369 816h6v24h-6zM360 825h24v6h-24zM345 840h6v24h-6zM336 849h24v6h-24zM393 768h6v24h-6zM384 777h24v6h-24zM441 768h6v24h-6zM432 777h24v6h-24zM465 792h6v24h-6zM456 801h24v6h-24zM393 816h6v24h-6zM384 825h24v6h-24zM417 840h6v24h-6zM408 849h24v6h-24zM465 840h6v24h-6zM456 849h24v6h-24zM513 768h6v24h-6zM504 777h24v6h-24zM537 768h6v24h-6zM528 777h24v6h-24zM489 792h6v24h-6zM480 801h24v6h-24zM537 792h6v24h-6zM528 801h24v6h-24zM513 816h6v24h-6zM504 825h24v6h-24zM561 816h6v24h-6zM552 825h24v6h-24zM513 840h6v24h-6zM504 849h24v6h-24zM537 840h6v24h-6zM528 849h24v6h-24zM585 792h6v24h-6zM576 801h24v6h-24zM609 792h6v24h-6zM600 801h24v6h-24zM585 816h6v24h-6zM576 825h24v6h-24zM657 816h6v24h-6zM648 825h24v6h-24zM681 792h6v24h-6zM672 801h24v6h-24zM753 792h6v24h-6zM744 801h24v6h-24zM681 816h6v24h-6zM672 825h24v6h-24zM705 816h6v24h-6zM696 825h24v6h-24zM801 768h6v24h-6zM792 777h24v6h-24zM849 768h6v24h-6zM840 777h24v6h-24zM777 792h6v24h-6zM768 801h24v6h-24zM849 816h6v24h-6zM840 825h24v6h-24zM777 840h6v24h-6zM768 849h24v6h-24zM825 840h6v24h-6zM816 849h24v6h-24zM873 792h6v24h-6zM864 801h24v6h-24zM945 792h6v24h-6zM936 801h24v6h-24zM873 816h6v24h-6zM864 825h24v6h-24zM897 816h6v24h-6zM888 825h24v6h-24zM9 864h6v24h-6zM0 873h24v6h-24zM57 864h6v24h-6zM48 873h24v6h-24zM57 888h6v24h-6zM48 897h24v6h-24zM81 888h6v24h-6zM72 897h24v6h-24zM9 912h6v24h-6zM0 921h24v6h-24zM33 912h6v24h-6zM24 921h24v6h-24zM33 936h6v24h-6zM24 945h24v6h-24zM81 936h6v24h-6zM72 945h24v6h-24zM177 1008h6v24h-6zM168 1017h24v6h-24zM129 864h6v24h-6zM120 873h24v6h-24zM153 864h6v24h-6zM144 873h24v6h-24zM129 888h6v24h-6zM120 897h24v6h-24zM177 888h6v24h-6zM168 897h24v6h-24zM105 912h6v24h-6zM96 921h24v6h-24zM153 912h6v24h-6zM144 921h24v6h-24zM129 936h6v24h-6zM120 945h24v6h-24zM153 936h6v24h-6zM144 945h24v6h-24zM225 864h6v24h-6zM216 873h24v6h-24zM249 864h6v24h-6zM240 873h24v6h-24zM201 888h6v24h-6zM192 897h24v6h-24zM249 888h6v24h-6zM240 897h24v6h-24zM225 912h6v24h-6zM216 921h24v6h-24zM273 912h6v24h-6zM264 921h24v6h-24zM225 936h6v24h-6zM216 945h24v6h-24zM249 936h6v24h-6zM240 945h24v6h-24zM297 864h6v24h-6zM288 873h24v6h-24zM369 864h6v24h-6zM360 873h24v6h-24zM345 888h6v24h-6zM336 897h24v6h-24zM321 912h6v24h-6zM312 921h24v6h-24zM345 912h6v24h-6zM336 921h24v6h-24zM297 936h6v24h-6zM288 945h24v6h-24zM369 936h6v24h-6zM360 945h24v6h-24zM393 864h6v24h-6zM384 873h24v6h-24zM441 864h6v24h-6zM432 873h24v6h-24zM465 888h6v24h-6zM456 897h24v6h-24zM393 912h6v24h-6zM384 921h24v6h-24zM417 936h6v24h-6zM408 945h24v6h-24zM465 936h6v24h-6zM456 945h24v6h-24zM489 864h6v24h-6zM480 873h24v6h-24zM513 864h6v24h-6zM504 873h24v6h-24zM561 864h6v24h-6zM552 873h24v6h-24zM489 888h6v24h-6zM480 897h24v6h-24zM537 888h6v24h-6zM528 897h24v6h-24zM513 912h6v24h-6zM504 921h24v6h-24zM489 936h6v24h-6zM480 945h24v6h-24zM609 864h6v24h-6zM600 873h24v6h-24zM585 888h6v24h-6zM576 897h24v6h-24zM633 888h6v24h-6zM624 897h24v6h-24zM657 888h6v24h-6zM648 897h24v6h-24zM585 912h6v24h-6zM576 921h24v6h-24zM609 912h6v24h-6zM600 921h24v6h-24zM657 912h6v24h-6zM648 921h24v6h-24zM633 936h6v24h-6zM624 945h24v6h-24zM681 864h6v24h-6zM672 873h24v6h-24zM753 864h6v24h-6zM744 873h24v6h-24zM705 888h6v24h-6zM696 897h24v6h-24zM729 888h6v24h-6zM720 897h24v6h-24zM705 912h6v24h-6zM696 921h24v6h-24zM681 936h6v24h-6zM672 945h24v6h-24zM753 936h6v24h-6zM744 945h24v6h-24zM849 864h6v24h-6zM840 873h24v6h-24zM849 888h6v24h-6zM840 897h24v6h-24zM777 912h6v24h-6zM768 921h24v6h-24zM777 936h6v24h-6zM768 945h24v6h-24zM897 864h6v24h-6zM888 873h24v6h-24zM873 888h6v24h-6zM864 897h24v6h-24zM921 888h6v24h-6zM912 897h24v6h-24zM897 912h6v24h-6zM888 921h24v6h-24zM945 912h6v24h-6zM936 921h24v6h-24zM921 936h6v24h-6zM912 945h24v6h-24z"/><path fill="#fff" d="M384 288h96v96h-96zM288 288h96v96h-96zM192 288h96v96h-96zM192 192h96v96h-96zM192 96h96v96h-96zM192 0h96v96h-96zM192 384h96v96h-96zM96 288h96v96h-96zM0 192h96v96h-96zM96 192h96v96h-96zM288 192h96v96h-96zM384 96h96v96h-96zM384 576h96v96h-96zM288 576h96v96h-96zM192 576h96v96h-96zM192 672h96v96h-96zM192 768h96v96h-96zM192 864h96v96h-96zM192 480h96v96h-96zM96 576h96v96h-96zM0 672h96v96h-96zM96 672h96v96h-96zM288 672h96v96h-96zM384 768h96v96h-96zM480 288h96v96h-96zM576 288h96v96h-96zM672 288h96v96h-96zM672 192h96v96h-96zM672 96h96v96h-96zM672 0h96v96h-96zM672 384h96v96h-96zM768 288h96v96h-96zM864 192h96v96h-96zM768 192h96v96h-96zM576 192h96v96h-96zM480 96h96v96h-96zM480 576h96v96h-96zM576 576h96v96h-96zM672 576h96v96h-96zM672 672h96v96h-96zM672 768h96v96h-96zM672 864h96v96h-96zM672 480h96v96h-96zM768 576h96v96h-96zM864 672h96v96h-96zM768 672h96v96h-96zM576 672h96v96h-96zM480 768h96v96h-96z"/></svg>