<svg xmlns="http://www.w3.org/2000/svg" width="960" height="960" viewBox="0 0 960 960" shape-rendering="crispEdges"><path fill="#fff" d="M0 0h960v960h-960z"/><path fill="#ed8b64" d="M576 0h96v96h-96zM576 192h96v96h-96zM576 384h96v96h-96zM576 576h96v96h-96zM576 768h96v96h-96zM768 0h96v96h-96zM768 192h96v96h-96zM768 384h96v96h-96zM768 576h96v96h-96zM768 768h96v96h-96z"/><path fill="#0088a3" d="M0 0h24v24h-24zM72 0h24v24h-24zM24 24h24v24h-24zM24 48h24v24h-24zM48 48h24v24h-24zM0 72h24v24h-24zM72 72h24v24h-24zM96 0h24v24h-24zM120 0h24v24h-24zM168 0h24v24h-24zM96 24h24v24h-24zM144 24h24v24h-24zM120 48h24v24h-24zM96 72h24v24h-24zM240 0h24v24h-24zM264 0h24v24h-24zM192 72h24v24h-24zM216 72h24v24h-24zM312 0h24v24h-24zM336 0h24v24h-24zM312 72h24v24h-24zM336 72h24v24h-24zM384 0h24v24h-24zM408 24h24v24h-24zM384 48h24v24h-24zM432 48h24v24h-24zM384 72h24v24h-24zM408 72h24v24h-24zM456 72h24v24h-24zM576 0h24v24h-24zM600 0h24v24h-24zM648 0h24v24h-24zM576 24h24v24h-24zM624 24h24v24h-24zM600 48h24v24h-24zM576 72h24v24h-24zM816 0h24v24h-24zM792 24h24v24h-24zM840 24h24v24h-24zM768 48h24v24h-24zM816 48h24v24h-24zM792 72h24v24h-24zM0 96h24v24h-24zM72 96h24v24h-24zM24 120h24v24h-24zM48 120h24v24h-24zM48 144h24v24h-24zM0 168h24v24h-24zM72 168h24v24h-24zM120 96h24v24h-24zM168 96h24v24h-24zM96 120h24v24h-24zM144 120h24v24h-24zM120 144h24v24h-24zM168 144h24v24h-24zM96 168h24v24h-24zM144 168h24v24h-24zM192 96h24v24h-24zM264 96h24v24h-24zM216 120h24v24h-24zM240 120h24v24h-24zM216 144h24v24h-24zM192 168h24v24h-24zM264 168h24v24h-24zM312 96h24v24h-24zM336 96h24v24h-24zM336 120h24v24h-24zM312 168h24v24h-24zM408 96h24v24h-24zM432 96h24v24h-24zM432 120h24v24h-24zM408 168h24v24h-24zM24 192h24v24h-24zM0 216h24v24h-24zM24 216h24v24h-24zM48 240h24v24h-24zM72 240h24v24h-24zM48 264h24v24h-24zM120 192h24v24h-24zM144 192h24v24h-24zM144 216h24v24h-24zM120 264h24v24h-24zM192 192h24v24h-24zM192 216h24v24h-24zM264 240h24v24h-24zM264 264h24v24h-24zM312 192h24v24h-24zM336 192h24v24h-24zM288 216h24v24h-24zM336 216h24v24h-24zM312 240h24v24h-24zM360 240h24v24h-24zM312 264h24v24h-24zM336 264h24v24h-24zM408 192h24v24h-24zM432 192h24v24h-24zM432 216h24v24h-24zM408 264h24v24h-24zM576 192h24v24h-24zM624 192h24v24h-24zM648 192h24v24h-24zM600 216h24v24h-24zM648 216h24v24h-24zM624 240h24v24h-24zM648 264h24v24h-24zM768 192h24v24h-24zM816 192h24v24h-24zM840 192h24v24h-24zM792 216h24v24h-24zM840 216h24v24h-24zM816 240h24v24h-24zM840 264h24v24h-24zM48 288h24v24h-24zM72 288h24v24h-24zM48 312h24v24h-24zM72 312h24v24h-24zM0 336h24v24h-24zM24 336h24v24h-24zM0 360h24v24h-24zM24 360h24v24h-24zM96 288h24v24h-24zM168 288h24v24h-24zM120 312h24v24h-24zM144 312h24v24h-24zM144 336h24v24h-24zM96 360h24v24h-24zM168 360h24v24h-24zM192 288h24v24h-24zM264 288h24v24h-24zM240 312h24v24h-24zM216 336h24v24h-24zM192 360h24v24h-24zM264 360h24v24h-24zM288 288h24v24h-24zM360 288h24v24h-24zM288 336h24v24h-24zM360 336h24v24h-24zM384 312h24v24h-24zM456 312h24v24h-24zM384 336h24v24h-24zM408 336h24v24h-24zM0 384h24v24h-24zM72 384h24v24h-24zM24 408h24v24h-24zM48 432h24v24h-24zM0 456h24v24h-24zM72 456h24v24h-24zM96 384h24v24h-24zM144 384h24v24h-24zM120 408h24v24h-24zM168 408h24v24h-24zM96 432h24v24h-24zM144 432h24v24h-24zM120 456h24v24h-24zM168 456h24v24h-24zM192 384h24v24h-24zM240 384h24v24h-24zM240 408h24v24h-24zM264 408h24v24h-24zM192 432h24v24h-24zM216 432h24v24h-24zM216 456h24v24h-24zM264 456h24v24h-24zM312 384h24v24h-24zM336 384h24v24h-24zM288 408h24v24h-24zM336 408h24v24h-24zM312 432h24v24h-24zM360 432h24v24h-24zM312 456h24v24h-24zM336 456h24v24h-24zM456 384h24v24h-24zM432 408h24v24h-24zM408 432h24v24h-24zM384 456h24v24h-24zM600 384h24v24h-24zM648 384h24v24h-24zM624 408h24v24h-24zM624 432h24v24h-24zM600 456h24v24h-24zM648 456h24v24h-24zM792 408h24v24h-24zM816 408h24v24h-24zM792 432h24v24h-24zM816 432h24v24h-24zM480 480h24v24h-24zM528 480h24v24h-24zM552 504h24v24h-24zM480 528h24v24h-24zM504 552h24v24h-24zM552 552h24v24h-24zM624 480h24v24h-24zM648 480h24v24h-24zM576 552h24v24h-24zM600 552h24v24h-24zM696 480h24v24h-24zM720 528h24v24h-24zM696 552h24v24h-24zM720 552h24v24h-24zM792 480h24v24h-24zM840 480h24v24h-24zM792 552h24v24h-24zM840 552h24v24h-24zM888 480h24v24h-24zM936 480h24v24h-24zM912 504h24v24h-24zM912 528h24v24h-24zM888 552h24v24h-24zM936 552h24v24h-24zM24 576h24v24h-24zM0 600h24v24h-24zM48 600h24v24h-24zM24 624h24v24h-24zM72 624h24v24h-24zM48 648h24v24h-24zM240 576h24v24h-24zM192 600h24v24h-24zM216 600h24v24h-24zM264 600h24v24h-24zM192 624h24v24h-24zM240 624h24v24h-24zM264 624h24v24h-24zM216 648h24v24h-24zM384 576h24v24h-24zM432 576h24v24h-24zM432 600h24v24h-24zM456 600h24v24h-24zM384 624h24v24h-24zM408 624h24v24h-24zM408 648h24v24h-24zM456 648h24v24h-24zM552 720h24v24h-24zM504 576h24v24h-24zM528 576h24v24h-24zM504 600h24v24h-24zM552 600h24v24h-24zM480 624h24v24h-24zM528 624h24v24h-24zM504 648h24v24h-24zM528 648h24v24h-24zM576 576h24v24h-24zM648 576h24v24h-24zM600 600h24v24h-24zM624 600h24v24h-24zM624 624h24v24h-24zM576 648h24v24h-24zM648 648h24v24h-24zM720 576h24v24h-24zM720 600h24v24h-24zM744 600h24v24h-24zM672 624h24v24h-24zM696 624h24v24h-24zM696 648h24v24h-24zM792 576h24v24h-24zM840 576h24v24h-24zM768 600h24v24h-24zM816 600h24v24h-24zM792 624h24v24h-24zM840 624h24v24h-24zM768 648h24v24h-24zM816 648h24v24h-24zM900 612h24v24h-24zM528 672h24v24h-24zM552 672h24v24h-24zM480 744h24v24h-24zM504 744h24v24h-24zM576 696h24v24h-24zM648 696h24v24h-24zM576 720h24v24h-24zM600 720h24v24h-24zM696 672h24v24h-24zM720 720h24v24h-24zM696 744h24v24h-24zM720 744h24v24h-24zM792 672h24v24h-24zM840 672h24v24h-24zM816 696h24v24h-24zM816 720h24v24h-24zM792 744h24v24h-24zM840 744h24v24h-24zM864 672h24v24h-24zM936 672h24v24h-24zM888 720h24v24h-24zM912 720h24v24h-24zM864 744h24v24h-24zM936 744h24v24h-24zM24 768h24v24h-24zM0 792h24v24h-24zM48 792h24v24h-24zM24 816h24v24h-24zM72 816h24v24h-24zM48 840h24v24h-24zM192 768h24v24h-24zM264 768h24v24h-24zM216 816h24v24h-24zM240 816h24v24h-24zM192 840h24v24h-24zM264 840h24v24h-24zM408 768h24v24h-24zM384 792h24v24h-24zM432 792h24v24h-24zM456 792h24v24h-24zM384 816h24v24h-24zM408 816h24v24h-24zM456 816h24v24h-24zM432 840h24v24h-24zM480 768h24v24h-24zM552 768h24v24h-24zM504 792h24v24h-24zM528 792h24v24h-24zM504 816h24v24h-24zM528 816h24v24h-24zM480 840h24v24h-24zM552 840h24v24h-24zM576 768h24v24h-24zM600 768h24v24h-24zM648 768h24v24h-24zM576 792h24v24h-24zM624 792h24v24h-24zM600 816h24v24h-24zM576 840h24v24h-24zM672 792h24v24h-24zM696 792h24v24h-24zM672 816h24v24h-24zM744 816h24v24h-24zM816 768h24v24h-24zM816 792h24v24h-24zM840 792h24v24h-24zM768 816h24v24h-24zM792 816h24v24h-24zM792 840h24v24h-24zM864 768h24v24h-24zM936 768h24v24h-24zM888 792h24v24h-24zM912 816h24v24h-24zM864 840h24v24h-24zM936 840h24v24h-24zM480 864h24v24h-24zM528 864h24v24h-24zM552 864h24v24h-24zM504 888h24v24h-24zM552 888h24v24h-24zM528 912h24v24h-24zM552 936h24v24h-24zM576 864h24v24h-24zM576 888h24v24h-24zM648 912h24v24h-24zM648 936h24v24h-24zM672 864h24v24h-24zM744 864h24v24h-24zM672 912h24v24h-24zM744 912h24v24h-24zM816 864h24v24h-24zM792 888h24v24h-24zM840 888h24v24h-24zM768 912h24v24h-24zM816 912h24v24h-24zM792 936h24v24h-24zM864 864h24v24h-24zM936 864h24v24h-24zM888 888h24v24h-24zM912 888h24v24h-24zM888 912h24v24h-24zM864 936h24v24h-24zM936 936h24v24h-24zM336 576h24v24h-24zM288 600h24v24h-24zM312 600h24v24h-24zM360 600h24v24h-24zM288 624h24v24h-24zM336 624h24v24h-24zM360 624h24v24h-24zM312 648h24v24h-24zM312 864h24v24h-24zM288 888h24v24h-24zM336 888h24v24h-24zM360 888h24v24h-24zM288 912h24v24h-24zM312 912h24v24h-24zM360 912h24v24h-24zM336 936h24v24h-24zM480 192h24v24h-24zM528 192h24v24h-24zM552 192h24v24h-24zM504 216h24v24h-24zM552 216h24v24h-24zM528 240h24v24h-24zM552 264h24v24h-24zM864 192h24v24h-24zM912 192h24v24h-24zM936 192h24v24h-24zM888 216h24v24h-24zM936 216h24v24h-24zM912 240h24v24h-24zM936 264h24v24h-24zM24 864h24v24h-24zM0 888h24v24h-24zM48 888h24v24h-24zM24 912h24v24h-24zM72 912h24v24h-24zM48 936h24v24h-24zM912 0h24v24h-24zM888 24h24v24h-24zM936 24h24v24h-24zM864 48h24v24h-24zM912 48h24v24h-24zM888 72h24v24h-24zM480 0h24v24h-24zM504 24h24v24h-24zM480 48h24v24h-24zM528 48h24v24h-24zM480 72h24v24h-24zM504 72h24v24h-24zM552 72h24v24h-24zM120 864h24v24h-24zM96 888h24v24h-24zM144 888h24v24h-24zM120 912h24v24h-24zM168 912h24v24h-24zM144 936h24v24h-24zM456 816h24v24h-24zM408 672h24v24h-24zM432 672h24v24h-24zM408 696h24v24h-24zM456 696h24v24h-24zM384 720h24v24h-24zM432 720h24v24h-24zM408 744h24v24h-24zM432 744h24v24h-24z"/><path fill="#000" d="M240 144h24v24h-24zM216 120h24v24h-24zM216 144h24v24h-24zM216 168h24v24h-24zM216 192h24v24h-24zM216 216h24v24h-24zM216 240h24v24h-24zM216 264h24v24h-24zM216 288h24v24h-24zM216 312h24v24h-24zM216 336h24v24h-24zM216 360h24v24h-24zM216 384h24v24h-24zM216 408h24v24h-24zM216 432h24v24h-24zM216 456h24v24h-24zM192 432h24v24h-24zM168 408h24v24h-24zM144 384h24v24h-24zM120 360h24v24h-24zM96 336h24v24h-24zM120 336h24v24h-24zM144 336h24v24h-24zM168 336h24v24h-24zM192 336h24v24h-24zM72 336h24v24h-24zM72 312h24v24h-24zM72 288h24v24h-24zM72 264h24v24h-24zM72 240h24v24h-24zM72 216h24v24h-24zM96 216h24v24h-24zM120 216h24v24h-24zM144 216h24v24h-24zM168 216h24v24h-24zM192 216h24v24h-24zM240 216h24v24h-24zM264 216h24v24h-24zM288 216h24v24h-24zM312 216h24v24h-24zM336 216h24v24h-24zM360 216h24v24h-24zM384 216h24v24h-24zM408 216h24v24h-24zM408 240h24v24h-24zM408 264h24v24h-24zM408 288h24v24h-24zM408 312h24v24h-24zM408 336h24v24h-24zM408 360h24v24h-24zM408 384h24v24h-24zM408 408h24v24h-24zM408 432h24v24h-24zM408 456h24v24h-24zM384 456h24v24h-24zM360 456h24v24h-24zM336 456h24v24h-24zM312 456h24v24h-24zM288 456h24v24h-24zM264 456h24v24h-24zM240 456h24v24h-24zM264 192h24v24h-24zM288 168h24v24h-24zM312 144h24v24h-24zM336 120h24v24h-24zM360 96h24v24h-24zM384 72h24v24h-24zM408 48h24v24h-24zM432 24h24v24h-24zM456 0h24v24h-24zM432 0h24v24h-24zM408 0h24v24h-24zM384 0h24v24h-24zM360 0h24v24h-24zM336 0h24v24h-24zM312 0h24v24h-24zM288 0h24v24h-24zM264 0h24v24h-24zM240 0h24v24h-24zM240 24h24v24h-24zM240 48h24v24h-24zM240 72h24v24h-24zM240 96h24v24h-24zM240 120h24v24h-24zM240 168h24v24h-24zM264 168h24v24h-24zM312 168h24v24h-24zM336 168h24v24h-24zM360 168h24v24h-24zM384 168h24v24h-24zM408 168h24v24h-24zM432 168h24v24h-24zM192 168h24v24h-24zM168 168h24v24h-24zM144 168h24v24h-24zM120 168h24v24h-24zM96 168h24v24h-24zM96 192h24v24h-24zM96 240h24v24h-24zM96 264h24v24h-24zM96 288h24v24h-24zM96 312h24v24h-24zM96 360h24v24h-24zM96 384h24v24h-24zM120 312h24v24h-24zM144 312h24v24h-24zM168 312h24v24h-24zM192 312h24v24h-24zM240 312h24v24h-24zM264 312h24v24h-24zM288 312h24v24h-24zM312 312h24v24h-24zM336 312h24v24h-24zM360 312h24v24h-24zM120 288h24v24h-24zM120 264h24v24h-24zM120 240h24v24h-24zM120 192h24v24h-24zM144 144h24v24h-24zM48 240h24v24h-24zM24 264h24v24h-24zM0 240h24v24h-24zM0 216h24v24h-24zM0 192h24v24h-24zM0 168h24v24h-24zM0 144h24v24h-24zM0 120h24v24h-24zM0 96h24v24h-24zM0 264h24v24h-24zM0 288h24v24h-24zM0 312h24v24h-24zM0 336h24v24h-24zM0 360h24v24h-24zM0 384h24v24h-24zM0 408h24v24h-24zM0 432h24v24h-24zM24 312h24v24h-24zM48 312h24v24h-24zM192 288h24v24h-24zM240 240h24v24h-24zM240 408h24v24h-24zM264 384h24v24h-24zM288 360h24v24h-24zM312 336h24v24h-24zM360 288h24v24h-24zM384 264h24v24h-24zM432 216h24v24h-24zM456 192h24v24h-24zM456 168h24v24h-24zM456 144h24v24h-24zM432 120h24v24h-24zM432 144h24v24h-24zM432 192h24v24h-24zM432 240h24v24h-24zM432 264h24v24h-24zM432 288h24v24h-24zM432 96h24v24h-24zM432 72h24v24h-24zM432 48h24v24h-24zM408 24h24v24h-24zM384 48h24v24h-24zM360 72h24v24h-24zM336 96h24v24h-24zM312 120h24v24h-24zM288 144h24v24h-24zM240 192h24v24h-24zM192 240h24v24h-24zM168 264h24v24h-24zM144 264h24v24h-24zM48 264h24v24h-24zM240 792h24v24h-24zM216 816h24v24h-24zM216 792h24v24h-24zM216 768h24v24h-24zM216 744h24v24h-24zM216 720h24v24h-24zM216 696h24v24h-24zM216 672h24v24h-24zM216 648h24v24h-24zM216 624h24v24h-24zM216 600h24v24h-24zM216 576h24v24h-24zM216 552h24v24h-24zM216 528h24v24h-24zM216 504h24v24h-24zM216 480h24v24h-24zM192 504h24v24h-24zM168 528h24v24h-24zM144 552h24v24h-24zM120 576h24v24h-24zM96 600h24v24h-24zM120 600h24v24h-24zM144 600h24v24h-24zM168 600h24v24h-24zM192 600h24v24h-24zM72 600h24v24h-24zM72 624h24v24h-24zM72 648h24v24h-24zM72 672h24v24h-24zM72 696h24v24h-24zM72 720h24v24h-24zM96 720h24v24h-24zM120 720h24v24h-24zM144 720h24v24h-24zM168 720h24v24h-24zM192 720h24v24h-24zM240 720h24v24h-24zM264 720h24v24h-24zM288 720h24v24h-24zM312 720h24v24h-24zM336 720h24v24h-24zM360 720h24v24h-24zM384 720h24v24h-24zM408 720h24v24h-24zM408 696h24v24h-24zM408 672h24v24h-24zM408 648h24v24h-24zM408 624h24v24h-24zM408 600h24v24h-24zM408 576h24v24h-24zM408 552h24v24h-24zM408 528h24v24h-24zM408 504h24v24h-24zM408 480h24v24h-24zM384 480h24v24h-24zM360 480h24v24h-24zM336 480h24v24h-24zM312 480h24v24h-24zM288 480h24v24h-24zM264 480h24v24h-24zM240 480h24v24h-24zM264 744h24v24h-24zM288 768h24v24h-24zM312 792h24v24h-24zM336 816h24v24h-24zM360 840h24v24h-24zM384 864h24v24h-24zM408 888h24v24h-24zM432 912h24v24h-24zM456 936h24v24h-24zM432 936h24v24h-24zM408 936h24v24h-24zM384 936h24v24h-24zM360 936h24v24h-24zM336 936h24v24h-24zM312 936h24v24h-24zM288 936h24v24h-24zM264 936h24v24h-24zM240 936h24v24h-24zM240 912h24v24h-24zM240 888h24v24h-24zM240 864h24v24h-24zM240 840h24v24h-24zM240 816h24v24h-24zM240 768h24v24h-24zM264 768h24v24h-24zM312 768h24v24h-24zM336 768h24v24h-24zM360 768h24v24h-24zM384 768h24v24h-24zM408 768h24v24h-24zM432 768h24v24h-24zM192 768h24v24h-24zM168 768h24v24h-24zM144 768h24v24h-24zM120 768h24v24h-24zM96 768h24v24h-24zM96 744h24v24h-24zM96 696h24v24h-24zM96 672h24v24h-24zM96 648h24v24h-24zM96 624h24v24h-24zM96 576h24v24h-24zM96 552h24v24h-24zM120 624h24v24h-24zM144 624h24v24h-24zM168 624h24v24h-24zM192 624h24v24h-24zM240 624h24v24h-24zM264 624h24v24h-24zM288 624h24v24h-24zM312 624h24v24h-24zM336 624h24v24h-24zM360 624h24v24h-24zM120 648h24v24h-24zM120 672h24v24h-24zM120 696h24v24h-24zM120 744h24v24h-24zM144 792h24v24h-24zM48 696h24v24h-24zM24 672h24v24h-24zM0 696h24v24h-24zM0 720h24v24h-24zM0 744h24v24h-24zM0 768h24v24h-24zM0 792h24v24h-24zM0 816h24v24h-24zM0 840h24v24h-24zM0 672h24v24h-24zM0 648h24v24h-24zM0 624h24v24h-24zM0 600h24v24h-24zM0 576h24v24h-24zM0 552h24v24h-24zM0 528h24v24h-24zM0 504h24v24h-24zM24 624h24v24h-24zM48 624h24v24h-24zM192 648h24v24h-24zM240 696h24v24h-24zM240 528h24v24h-24zM264 552h24v24h-24zM288 576h24v24h-24zM312 600h24v24h-24zM360 648h24v24h-24zM384 672h24v24h-24zM432 720h24v24h-24zM456 744h24v24h-24zM456 768h24v24h-24zM456 792h24v24h-24zM432 816h24v24h-24zM432 792h24v24h-24zM432 744h24v24h-24zM432 696h24v24h-24zM432 672h24v24h-24zM432 648h24v24h-24zM432 840h24v24h-24zM432 864h24v24h-24zM432 888h24v24h-24zM408 912h24v24h-24zM384 888h24v24h-24zM360 864h24v24h-24zM336 840h24v24h-24zM312 816h24v24h-24zM288 792h24v24h-24zM240 744h24v24h-24zM192 696h24v24h-24zM168 672h24v24h-24zM144 672h24v24h-24zM48 672h24v24h-24zM696 144h24v24h-24zM720 120h24v24h-24zM720 144h24v24h-24zM720 168h24v24h-24zM720 192h24v24h-24zM720 216h24v24h-24zM720 240h24v24h-24zM720 264h24v24h-24zM720 288h24v24h-24zM720 312h24v24h-24zM720 336h24v24h-24zM720 360h24v24h-24zM720 384h24v24h-24zM720 408h24v24h-24zM720 432h24v24h-24zM720 456h24v24h-24zM744 432h24v24h-24zM768 408h24v24h-24zM792 384h24v24h-24zM816 360h24v24h-24zM840 336h24v24h-24zM816 336h24v24h-24zM792 336h24v24h-24zM768 336h24v24h-24zM744 336h24v24h-24zM864 336h24v24h-24zM864 312h24v24h-24zM864 288h24v24h-24zM864 264h24v24h-24zM864 240h24v24h-24zM864 216h24v24h-24zM840 216h24v24h-24zM816 216h24v24h-24zM792 216h24v24h-24zM768 216h24v24h-24zM744 216h24v24h-24zM696 216h24v24h-24zM672 216h24v24h-24zM648 216h24v24h-24zM624 216h24v24h-24zM600 216h24v24h-24zM576 216h24v24h-24zM552 216h24v24h-24zM528 216h24v24h-24zM528 240h24v24h-24zM528 264h24v24h-24zM528 288h24v24h-24zM528 312h24v24h-24zM528 336h24v24h-24zM528 360h24v24h-24zM528 384h24v24h-24zM528 408h24v24h-24zM528 432h24v24h-24zM528 456h24v24h-24zM552 456h24v24h-24zM576 456h24v24h-24zM600 456h24v24h-24zM624 456h24v24h-24zM648 456h24v24h-24zM672 456h24v24h-24zM696 456h24v24h-24zM672 192h24v24h-24zM648 168h24v24h-24zM624 144h24v24h-24zM600 120h24v24h-24zM576 96h24v24h-24zM552 72h24v24h-24zM528 48h24v24h-24zM504 24h24v24h-24zM480 0h24v24h-24zM504 0h24v24h-24zM528 0h24v24h-24zM552 0h24v24h-24zM576 0h24v24h-24zM600 0h24v24h-24zM624 0h24v24h-24zM648 0h24v24h-24zM672 0h24v24h-24zM696 0h24v24h-24zM696 24h24v24h-24zM696 48h24v24h-24zM696 72h24v24h-24zM696 96h24v24h-24zM696 120h24v24h-24zM696 168h24v24h-24zM672 168h24v24h-24zM624 168h24v24h-24zM600 168h24v24h-24zM576 168h24v24h-24zM552 168h24v24h-24zM528 168h24v24h-24zM504 168h24v24h-24zM744 168h24v24h-24zM768 168h24v24h-24zM792 168h24v24h-24zM816 168h24v24h-24zM840 168h24v24h-24zM840 192h24v24h-24zM840 240h24v24h-24zM840 264h24v24h-24zM840 288h24v24h-24zM840 312h24v24h-24zM840 360h24v24h-24zM840 384h24v24h-24zM816 312h24v24h-24zM792 312h24v24h-24zM768 312h24v24h-24zM744 312h24v24h-24zM696 312h24v24h-24zM672 312h24v24h-24zM648 312h24v24h-24zM624 312h24v24h-24zM600 312h24v24h-24zM576 312h24v24h-24zM816 288h24v24h-24zM816 264h24v24h-24zM816 240h24v24h-24zM816 192h24v24h-24zM792 144h24v24h-24zM888 240h24v24h-24zM912 264h24v24h-24zM936 240h24v24h-24zM936 216h24v24h-24zM936 192h24v24h-24zM936 168h24v24h-24zM936 144h24v24h-24zM936 120h24v24h-24zM936 96h24v24h-24zM936 264h24v24h-24zM936 288h24v24h-24zM936 312h24v24h-24zM936 336h24v24h-24zM936 360h24v24h-24zM936 384h24v24h-24zM936 408h24v24h-24zM936 432h24v24h-24zM912 312h24v24h-24zM888 312h24v24h-24zM744 288h24v24h-24zM696 240h24v24h-24zM696 408h24v24h-24zM672 384h24v24h-24zM648 360h24v24h-24zM624 336h24v24h-24zM576 288h24v24h-24zM552 264h24v24h-24zM504 216h24v24h-24zM480 192h24v24h-24zM480 168h24v24h-24zM480 144h24v24h-24zM504 120h24v24h-24zM504 144h24v24h-24zM504 192h24v24h-24zM504 240h24v24h-24zM504 264h24v24h-24zM504 288h24v24h-24zM504 96h24v24h-24zM504 72h24v24h-24zM504 48h24v24h-24zM528 24h24v24h-24zM552 48h24v24h-24zM576 72h24v24h-24zM600 96h24v24h-24zM624 120h24v24h-24zM648 144h24v24h-24zM696 192h24v24h-24zM744 240h24v24h-24zM768 264h24v24h-24zM792 264h24v24h-24zM888 264h24v24h-24zM696 792h24v24h-24zM720 816h24v24h-24zM720 792h24v24h-24zM720 768h24v24h-24zM720 744h24v24h-24zM720 720h24v24h-24zM720 696h24v24h-24zM720 672h24v24h-24zM720 648h24v24h-24zM720 624h24v24h-24zM720 600h24v24h-24zM720 576h24v24h-24zM720 552h24v24h-24zM720 528h24v24h-24zM720 504h24v24h-24zM720 480h24v24h-24zM744 504h24v24h-24zM768 528h24v24h-24zM792 552h24v24h-24zM816 576h24v24h-24zM840 600h24v24h-24zM816 600h24v24h-24zM792 600h24v24h-24zM768 600h24v24h-24zM744 600h24v24h-24zM864 600h24v24h-24zM864 624h24v24h-24zM864 648h24v24h-24zM864 672h24v24h-24zM864 696h24v24h-24zM864 720h24v24h-24zM840 720h24v24h-24zM816 720h24v24h-24zM792 720h24v24h-24zM768 720h24v24h-24zM744 720h24v24h-24zM696 720h24v24h-24zM672 720h24v24h-24zM648 720h24v24h-24zM624 720h24v24h-24zM600 720h24v24h-24zM576 720h24v24h-24zM552 720h24v24h-24zM528 720h24v24h-24zM528 696h24v24h-24zM528 672h24v24h-24zM528 648h24v24h-24zM528 624h24v24h-24zM528 600h24v24h-24zM528 576h24v24h-24zM528 552h24v24h-24zM528 528h24v24h-24zM528 504h24v24h-24zM528 480h24v24h-24zM552 480h24v24h-24zM576 480h24v24h-24zM600 480h24v24h-24zM624 480h24v24h-24zM648 480h24v24h-24zM672 480h24v24h-24zM696 480h24v24h-24zM672 744h24v24h-24zM648 768h24v24h-24zM624 792h24v24h-24zM600 816h24v24h-24zM576 840h24v24h-24zM552 864h24v24h-24zM528 888h24v24h-24zM504 912h24v24h-24zM480 936h24v24h-24zM504 936h24v24h-24zM528 936h24v24h-24zM552 936h24v24h-24zM576 936h24v24h-24zM600 936h24v24h-24zM624 936h24v24h-24zM648 936h24v24h-24zM672 936h24v24h-24zM696 936h24v24h-24zM696 912h24v24h-24zM696 888h24v24h-24zM696 864h24v24h-24zM696 840h24v24h-24zM696 816h24v24h-24zM696 768h24v24h-24zM672 768h24v24h-24zM624 768h24v24h-24zM600 768h24v24h-24zM576 768h24v24h-24zM552 768h24v24h-24zM528 768h24v24h-24zM504 768h24v24h-24zM744 768h24v24h-24zM768 768h24v24h-24zM792 768h24v24h-24zM816 768h24v24h-24zM840 768h24v24h-24zM840 744h24v24h-24zM840 696h24v24h-24zM840 672h24v24h-24zM840 648h24v24h-24zM840 624h24v24h-24zM840 576h24v24h-24zM840 552h24v24h-24zM816 624h24v24h-24zM792 624h24v24h-24zM768 624h24v24h-24zM744 624h24v24h-24zM696 624h24v24h-24zM672 624h24v24h-24zM648 624h24v24h-24zM624 624h24v24h-24zM600 624h24v24h-24zM576 624h24v24h-24zM816 648h24v24h-24zM816 672h24v24h-24zM816 696h24v24h-24zM816 744h24v24h-24zM792 792h24v24h-24zM888 696h24v24h-24zM912 672h24v24h-24zM936 696h24v24h-24zM936 720h24v24h-24zM936 744h24v24h-24zM936 768h24v24h-24zM936 792h24v24h-24zM936 816h24v24h-24zM936 840h24v24h-24zM936 672h24v24h-24zM936 648h24v24h-24zM936 624h24v24h-24zM936 600h24v24h-24zM936 576h24v24h-24zM936 552h24v24h-24zM936 528h24v24h-24zM936 504h24v24h-24zM912 624h24v24h-24zM888 624h24v24h-24zM744 648h24v24h-24zM696 696h24v24h-24zM696 528h24v24h-24zM672 552h24v24h-24zM648 576h24v24h-24zM624 600h24v24h-24zM576 648h24v24h-24zM552 672h24v24h-24zM504 720h24v24h-24zM480 744h24v24h-24zM480 768h24v24h-24zM480 792h24v24h-24zM504 816h24v24h-24zM504 792h24v24h-24zM504 744h24v24h-24zM504 696h24v24h-24zM504 672h24v24h-24zM504 648h24v24h-24zM504 840h24v24h-24zM504 864h24v24h-24zM504 888h24v24h-24zM528 912h24v24h-24zM552 888h24v24h-24zM576 864h24v24h-24zM600 840h24v24h-24zM624 816h24v24h-24zM648 792h24v24h-24zM696 744h24v24h-24zM744 696h24v24h-24zM768 672h24v24h-24zM792 672h24v24h-24zM888 672h24v24h-24z"/></svg>