<svg xmlns="http://www.w3.org/2000/svg" width="960" height="960" viewBox="0 0 960 960" shape-rendering="crispEdges"><path fill="#000" d="M0 0h960v960h-960z"/><path fill="#0848a0" d="M0 0h48v48h-48zM0 192h48v48h-48zM0 384h48v48h-48zM48 144h48v48h-48zM48 336h48v48h-48zM96 96h48v48h-48zM96 288h48v48h-48zM144 48h48v48h-48zM144 240h48v48h-48zM144 432h48v48h-48zM192 0h48v48h-48zM192 192h48v48h-48zM192 384h48v48h-48zM240 144h48v48h-48zM240 336h48v48h-48zM288 96h48v48h-48zM288 288h48v48h-48zM336 48h48v48h-48zM336 240h48v48h-48zM336 432h48v48h-48zM384 0h48v48h-48zM384 192h48v48h-48zM384 384h48v48h-48zM432 144h48v48h-48zM432 336h48v48h-48zM480 480h48v48h-48zM480 672h48v48h-48zM480 864h48v48h-48zM528 624h48v48h-48zM528 816h48v48h-48zM576 576h48v48h-48zM576 768h48v48h-48zM624 528h48v48h-48zM624 720h48v48h-48zM624 912h48v48h-48zM672 480h48v48h-48zM672 672h48v48h-48zM672 864h48v48h-48zM720 624h48v48h-48zM720 816h48v48h-48zM768 576h48v48h-48zM768 768h48v48h-48zM816 528h48v48h-48zM816 720h48v48h-48zM816 912h48v48h-48zM864 480h48v48h-48zM864 672h48v48h-48zM864 864h48v48h-48zM912 624h48v48h-48zM912 816h48v48h-48z"/><path fill="#a36048" d="M9 0h6v24h-6zM0 9h24v6h-24zM81 0h6v24h-6zM72 9h24v6h-24zM33 24h6v24h-6zM24 33h24v6h-24zM57 48h6v24h-6zM48 57h24v6h-24zM9 72h6v24h-6zM0 81h24v6h-24zM81 72h6v24h-6zM72 81h24v6h-24zM201 0h6v24h-6zM192 9h24v6h-24zM273 0h6v24h-6zM264 9h24v6h-24zM225 24h6v24h-6zM216 33h24v6h-24zM249 24h6v24h-6zM240 33h24v6h-24zM225 48h6v24h-6zM216 57h24v6h-24zM249 48h6v24h-6zM240 57h24v6h-24zM201 72h6v24h-6zM192 81h24v6h-24zM273 72h6v24h-6zM264 81h24v6h-24zM441 0h6v24h-6zM432 9h24v6h-24zM465 24h6v24h-6zM456 33h24v6h-24zM393 48h6v24h-6zM384 57h24v6h-24zM417 72h6v24h-6zM408 81h24v6h-24zM537 0h6v24h-6zM528 9h24v6h-24zM561 0h6v24h-6zM552 9h24v6h-24zM537 24h6v24h-6zM528 33h24v6h-24zM561 24h6v24h-6zM552 33h24v6h-24zM489 48h6v24h-6zM480 57h24v6h-24zM513 48h6v24h-6zM504 57h24v6h-24zM489 72h6v24h-6zM480 81h24v6h-24zM513 72h6v24h-6zM504 81h24v6h-24zM609 0h6v24h-6zM600 9h24v6h-24zM633 0h6v24h-6zM624 9h24v6h-24zM609 72h6v24h-6zM600 81h24v6h-24zM633 72h6v24h-6zM624 81h24v6h-24zM705 0h6v24h-6zM696 9h24v6h-24zM753 0h6v24h-6zM744 9h24v6h-24zM705 72h6v24h-6zM696 81h24v6h-24zM753 72h6v24h-6zM744 81h24v6h-24zM777 0h6v24h-6zM768 9h24v6h-24zM849 0h6v24h-6zM840 9h24v6h-24zM801 48h6v24h-6zM792 57h24v6h-24zM825 48h6v24h-6zM816 57h24v6h-24zM777 72h6v24h-6zM768 81h24v6h-24zM849 72h6v24h-6zM840 81h24v6h-24zM897 0h6v24h-6zM888 9h24v6h-24zM945 0h6v24h-6zM936 9h24v6h-24zM921 24h6v24h-6zM912 33h24v6h-24zM921 48h6v24h-6zM912 57h24v6h-24zM897 72h6v24h-6zM888 81h24v6h-24zM945 72h6v24h-6zM936 81h24v6h-24zM513 96h6v24h-6zM504 105h24v6h-24zM537 144h6v24h-6zM528 153h24v6h-24zM513 168h6v24h-6zM504 177h24v6h-24zM537 168h6v24h-6zM528 177h24v6h-24zM585 96h6v24h-6zM576 105h24v6h-24zM657 96h6v24h-6zM648 105h24v6h-24zM609 120h6v24h-6zM600 129h24v6h-24zM633 120h6v24h-6zM624 129h24v6h-24zM633 144h6v24h-6zM624 153h24v6h-24zM585 168h6v24h-6zM576 177h24v6h-24zM657 168h6v24h-6zM648 177h24v6h-24zM729 96h6v24h-6zM720 105h24v6h-24zM753 120h6v24h-6zM744 129h24v6h-24zM681 144h6v24h-6zM672 153h24v6h-24zM705 168h6v24h-6zM696 177h24v6h-24zM777 120h6v24h-6zM768 129h24v6h-24zM801 120h6v24h-6zM792 129h24v6h-24zM777 144h6v24h-6zM768 153h24v6h-24zM849 144h6v24h-6zM840 153h24v6h-24zM897 96h6v24h-6zM888 105h24v6h-24zM873 120h6v24h-6zM864 129h24v6h-24zM921 120h6v24h-6zM912 129h24v6h-24zM945 120h6v24h-6zM936 129h24v6h-24zM873 144h6v24h-6zM864 153h24v6h-24zM897 144h6v24h-6zM888 153h24v6h-24zM945 144h6v24h-6zM936 153h24v6h-24zM921 168h6v24h-6zM912 177h24v6h-24zM33 192h6v24h-6zM24 201h24v6h-24zM81 192h6v24h-6zM72 201h24v6h-24zM9 216h6v24h-6zM0 225h24v6h-24zM57 216h6v24h-6zM48 225h24v6h-24zM33 240h6v24h-6zM24 249h24v6h-24zM81 240h6v24h-6zM72 249h24v6h-24zM9 264h6v24h-6zM0 273h24v6h-24zM57 264h6v24h-6zM48 273h24v6h-24zM225 192h6v24h-6zM216 201h24v6h-24zM201 216h6v24h-6zM192 225h24v6h-24zM249 216h6v24h-6zM240 225h24v6h-24zM273 216h6v24h-6zM264 225h24v6h-24zM201 240h6v24h-6zM192 249h24v6h-24zM225 240h6v24h-6zM216 249h24v6h-24zM273 240h6v24h-6zM264 249h24v6h-24zM249 264h6v24h-6zM240 273h24v6h-24zM393 216h6v24h-6zM384 225h24v6h-24zM417 216h6v24h-6zM408 225h24v6h-24zM393 240h6v24h-6zM384 249h24v6h-24zM465 240h6v24h-6zM456 249h24v6h-24zM513 192h6v24h-6zM504 201h24v6h-24zM489 216h6v24h-6zM480 225h24v6h-24zM513 216h6v24h-6zM504 225h24v6h-24zM537 240h6v24h-6zM528 249h24v6h-24zM561 240h6v24h-6zM552 249h24v6h-24zM537 264h6v24h-6zM528 273h24v6h-24zM585 192h6v24h-6zM576 201h24v6h-24zM609 216h6v24h-6zM600 225h24v6h-24zM585 240h6v24h-6zM576 249h24v6h-24zM633 240h6v24h-6zM624 249h24v6h-24zM585 264h6v24h-6zM576 273h24v6h-24zM609 264h6v24h-6zM600 273h24v6h-24zM657 264h6v24h-6zM648 273h24v6h-24zM705 192h6v24h-6zM696 201h24v6h-24zM729 192h6v24h-6zM720 201h24v6h-24zM681 216h6v24h-6zM672 225h24v6h-24zM729 216h6v24h-6zM720 225h24v6h-24zM705 240h6v24h-6zM696 249h24v6h-24zM753 240h6v24h-6zM744 249h24v6h-24zM705 264h6v24h-6zM696 273h24v6h-24zM729 264h6v24h-6zM720 273h24v6h-24zM801 192h6v24h-6zM792 201h24v6h-24zM825 192h6v24h-6zM816 201h24v6h-24zM825 216h6v24h-6zM816 225h24v6h-24zM801 264h6v24h-6zM792 273h24v6h-24zM897 192h6v24h-6zM888 201h24v6h-24zM873 216h6v24h-6zM864 225h24v6h-24zM897 216h6v24h-6zM888 225h24v6h-24zM921 240h6v24h-6zM912 249h24v6h-24zM945 240h6v24h-6zM936 249h24v6h-24zM921 264h6v24h-6zM912 273h24v6h-24zM9 288h6v24h-6zM0 297h24v6h-24zM81 288h6v24h-6zM72 297h24v6h-24zM33 312h6v24h-6zM24 321h24v6h-24zM57 312h6v24h-6zM48 321h24v6h-24zM9 360h6v24h-6zM0 369h24v6h-24zM81 360h6v24h-6zM72 369h24v6h-24zM129 288h6v24h-6zM120 297h24v6h-24zM177 288h6v24h-6zM168 297h24v6h-24zM153 312h6v24h-6zM144 321h24v6h-24zM153 336h6v24h-6zM144 345h24v6h-24zM129 360h6v24h-6zM120 369h24v6h-24zM177 360h6v24h-6zM168 369h24v6h-24zM201 288h6v24h-6zM192 297h24v6h-24zM201 312h6v24h-6zM192 321h24v6h-24zM273 336h6v24h-6zM264 345h24v6h-24zM273 360h6v24h-6zM264 369h24v6h-24zM297 312h6v24h-6zM288 321h24v6h-24zM369 312h6v24h-6zM360 321h24v6h-24zM297 336h6v24h-6zM288 345h24v6h-24zM321 336h6v24h-6zM312 345h24v6h-24zM393 288h6v24h-6zM384 297h24v6h-24zM465 288h6v24h-6zM456 297h24v6h-24zM417 312h6v24h-6zM408 321h24v6h-24zM417 336h6v24h-6zM408 345h24v6h-24zM441 336h6v24h-6zM432 345h24v6h-24zM393 360h6v24h-6zM384 369h24v6h-24zM465 360h6v24h-6zM456 369h24v6h-24zM9 384h6v24h-6zM0 393h24v6h-24zM57 384h6v24h-6zM48 393h24v6h-24zM81 384h6v24h-6zM72 393h24v6h-24zM33 408h6v24h-6zM24 417h24v6h-24zM81 408h6v24h-6zM72 417h24v6h-24zM57 432h6v24h-6zM48 441h24v6h-24zM81 456h6v24h-6zM72 465h24v6h-24zM105 408h6v24h-6zM96 417h24v6h-24zM129 408h6v24h-6zM120 417h24v6h-24zM105 432h6v24h-6zM96 441h24v6h-24zM177 432h6v24h-6zM168 441h24v6h-24zM249 384h6v24h-6zM240 393h24v6h-24zM273 384h6v24h-6zM264 393h24v6h-24zM201 456h6v24h-6zM192 465h24v6h-24zM225 456h6v24h-6zM216 465h24v6h-24zM297 384h6v24h-6zM288 393h24v6h-24zM345 384h6v24h-6zM336 393h24v6h-24zM321 408h6v24h-6zM312 417h24v6h-24zM369 408h6v24h-6zM360 417h24v6h-24zM297 432h6v24h-6zM288 441h24v6h-24zM345 432h6v24h-6zM336 441h24v6h-24zM321 456h6v24h-6zM312 465h24v6h-24zM369 456h6v24h-6zM360 465h24v6h-24zM417 384h6v24h-6zM408 393h24v6h-24zM465 384h6v24h-6zM456 393h24v6h-24zM393 408h6v24h-6zM384 417h24v6h-24zM441 408h6v24h-6zM432 417h24v6h-24zM417 432h6v24h-6zM408 441h24v6h-24zM465 432h6v24h-6zM456 441h24v6h-24zM393 456h6v24h-6zM384 465h24v6h-24zM441 456h6v24h-6zM432 465h24v6h-24zM585 408h6v24h-6zM576 417h24v6h-24zM657 408h6v24h-6zM648 417h24v6h-24zM585 432h6v24h-6zM576 441h24v6h-24zM609 432h6v24h-6zM600 441h24v6h-24zM777 384h6v24h-6zM768 393h24v6h-24zM849 384h6v24h-6zM840 393h24v6h-24zM777 456h6v24h-6zM768 465h24v6h-24zM849 456h6v24h-6zM840 465h24v6h-24zM33 480h6v24h-6zM24 489h24v6h-24zM57 480h6v24h-6zM48 489h24v6h-24zM33 552h6v24h-6zM24 561h24v6h-24zM57 552h6v24h-6zM48 561h24v6h-24zM129 480h6v24h-6zM120 489h24v6h-24zM177 480h6v24h-6zM168 489h24v6h-24zM153 504h6v24h-6zM144 513h24v6h-24zM153 528h6v24h-6zM144 537h24v6h-24zM129 552h6v24h-6zM120 561h24v6h-24zM177 552h6v24h-6zM168 561h24v6h-24zM201 480h6v24h-6zM192 489h24v6h-24zM273 480h6v24h-6zM264 489h24v6h-24zM225 504h6v24h-6zM216 513h24v6h-24zM225 528h6v24h-6zM216 537h24v6h-24zM249 528h6v24h-6zM240 537h24v6h-24zM201 552h6v24h-6zM192 561h24v6h-24zM273 552h6v24h-6zM264 561h24v6h-24zM297 480h6v24h-6zM288 489h24v6h-24zM321 504h6v24h-6zM312 513h24v6h-24zM345 528h6v24h-6zM336 537h24v6h-24zM369 552h6v24h-6zM360 561h24v6h-24zM417 480h6v24h-6zM408 489h24v6h-24zM465 480h6v24h-6zM456 489h24v6h-24zM441 504h6v24h-6zM432 513h24v6h-24zM441 528h6v24h-6zM432 537h24v6h-24zM417 552h6v24h-6zM408 561h24v6h-24zM465 552h6v24h-6zM456 561h24v6h-24zM57 576h6v24h-6zM48 585h24v6h-24zM33 600h6v24h-6zM24 609h24v6h-24zM81 600h6v24h-6zM72 609h24v6h-24zM9 624h6v24h-6zM0 633h24v6h-24zM57 624h6v24h-6zM48 633h24v6h-24zM33 648h6v24h-6zM24 657h24v6h-24zM273 576h6v24h-6zM264 585h24v6h-24zM249 600h6v24h-6zM240 609h24v6h-24zM225 624h6v24h-6zM216 633h24v6h-24zM201 648h6v24h-6zM192 657h24v6h-24zM393 576h6v24h-6zM384 585h24v6h-24zM417 600h6v24h-6zM408 609h24v6h-24zM393 624h6v24h-6zM384 633h24v6h-24zM441 624h6v24h-6zM432 633h24v6h-24zM393 648h6v24h-6zM384 657h24v6h-24zM417 648h6v24h-6zM408 657h24v6h-24zM465 648h6v24h-6zM456 657h24v6h-24zM489 576h6v24h-6zM480 585h24v6h-24zM513 576h6v24h-6zM504 585h24v6h-24zM561 576h6v24h-6zM552 585h24v6h-24zM489 600h6v24h-6zM480 609h24v6h-24zM537 600h6v24h-6zM528 609h24v6h-24zM513 624h6v24h-6zM504 633h24v6h-24zM489 648h6v24h-6zM480 657h24v6h-24zM609 576h6v24h-6zM600 585h24v6h-24zM657 576h6v24h-6zM648 585h24v6h-24zM585 600h6v24h-6zM576 609h24v6h-24zM609 600h6v24h-6zM600 609h24v6h-24zM633 624h6v24h-6zM624 633h24v6h-24zM657 624h6v24h-6zM648 633h24v6h-24zM585 648h6v24h-6zM576 657h24v6h-24zM633 648h6v24h-6zM624 657h24v6h-24zM753 720h6v24h-6zM744 729h24v6h-24zM705 576h6v24h-6zM696 585h24v6h-24zM729 576h6v24h-6zM720 585h24v6h-24zM705 600h6v24h-6zM696 609h24v6h-24zM753 600h6v24h-6zM744 609h24v6h-24zM681 624h6v24h-6zM672 633h24v6h-24zM729 624h6v24h-6zM720 633h24v6h-24zM705 648h6v24h-6zM696 657h24v6h-24zM729 648h6v24h-6zM720 657h24v6h-24zM777 576h6v24h-6zM768 585h24v6h-24zM825 576h6v24h-6zM816 585h24v6h-24zM825 600h6v24h-6zM816 609h24v6h-24zM849 600h6v24h-6zM840 609h24v6h-24zM777 624h6v24h-6zM768 633h24v6h-24zM801 624h6v24h-6zM792 633h24v6h-24zM801 648h6v24h-6zM792 657h24v6h-24zM849 648h6v24h-6zM840 657h24v6h-24zM921 576h6v24h-6zM912 585h24v6h-24zM873 600h6v24h-6zM864 609h24v6h-24zM897 600h6v24h-6zM888 609h24v6h-24zM945 600h6v24h-6zM936 609h24v6h-24zM873 624h6v24h-6zM864 633h24v6h-24zM921 624h6v24h-6zM912 633h24v6h-24zM945 624h6v24h-6zM936 633h24v6h-24zM897 648h6v24h-6zM888 657h24v6h-24zM513 672h6v24h-6zM504 681h24v6h-24zM489 696h6v24h-6zM480 705h24v6h-24zM513 696h6v24h-6zM504 705h24v6h-24zM537 720h6v24h-6zM528 729h24v6h-24zM561 720h6v24h-6zM552 729h24v6h-24zM537 744h6v24h-6zM528 753h24v6h-24zM609 672h6v24h-6zM600 681h24v6h-24zM585 696h6v24h-6zM576 705h24v6h-24zM657 720h6v24h-6zM648 729h24v6h-24zM633 744h6v24h-6zM624 753h24v6h-24zM705 672h6v24h-6zM696 681h24v6h-24zM681 696h6v24h-6zM672 705h24v6h-24zM753 720h6v24h-6zM744 729h24v6h-24zM729 744h6v24h-6zM720 753h24v6h-24zM825 672h6v24h-6zM816 681h24v6h-24zM777 696h6v24h-6zM768 705h24v6h-24zM801 696h6v24h-6zM792 705h24v6h-24zM849 696h6v24h-6zM840 705h24v6h-24zM777 720h6v24h-6zM768 729h24v6h-24zM825 720h6v24h-6zM816 729h24v6h-24zM849 720h6v24h-6zM840 729h24v6h-24zM801 744h6v24h-6zM792 753h24v6h-24zM897 672h6v24h-6zM888 681h24v6h-24zM945 672h6v24h-6zM936 681h24v6h-24zM897 744h6v24h-6zM888 753h24v6h-24zM945 744h6v24h-6zM936 753h24v6h-24zM9 792h6v24h-6zM0 801h24v6h-24zM81 792h6v24h-6zM72 801h24v6h-24zM9 816h6v24h-6zM0 825h24v6h-24zM81 816h6v24h-6zM72 825h24v6h-24zM201 768h6v24h-6zM192 777h24v6h-24zM273 768h6v24h-6zM264 777h24v6h-24zM225 816h6v24h-6zM216 825h24v6h-24zM249 816h6v24h-6zM240 825h24v6h-24zM201 840h6v24h-6zM192 849h24v6h-24zM273 840h6v24h-6zM264 849h24v6h-24zM417 768h6v24h-6zM408 777h24v6h-24zM465 768h6v24h-6zM456 777h24v6h-24zM441 792h6v24h-6zM432 801h24v6h-24zM441 816h6v24h-6zM432 825h24v6h-24zM417 840h6v24h-6zM408 849h24v6h-24zM465 840h6v24h-6zM456 849h24v6h-24zM537 768h6v24h-6zM528 777h24v6h-24zM489 792h6v24h-6zM480 801h24v6h-24zM513 792h6v24h-6zM504 801h24v6h-24zM561 792h6v24h-6zM552 801h24v6h-24zM489 816h6v24h-6zM480 825h24v6h-24zM537 816h6v24h-6zM528 825h24v6h-24zM561 816h6v24h-6zM552 825h24v6h-24zM513 840h6v24h-6zM504 849h24v6h-24zM657 768h6v24h-6zM648 777h24v6h-24zM633 792h6v24h-6zM624 801h24v6h-24zM609 816h6v24h-6zM600 825h24v6h-24zM585 840h6v24h-6zM576 849h24v6h-24zM729 768h6v24h-6zM720 777h24v6h-24zM705 792h6v24h-6zM696 801h24v6h-24zM753 792h6v24h-6zM744 801h24v6h-24zM681 816h6v24h-6zM672 825h24v6h-24zM729 816h6v24h-6zM720 825h24v6h-24zM705 840h6v24h-6zM696 849h24v6h-24zM801 768h6v24h-6zM792 777h24v6h-24zM777 792h6v24h-6zM768 801h24v6h-24zM849 816h6v24h-6zM840 825h24v6h-24zM825 840h6v24h-6zM816 849h24v6h-24zM897 792h6v24h-6zM888 801h24v6h-24zM921 792h6v24h-6zM912 801h24v6h-24zM897 816h6v24h-6zM888 825h24v6h-24zM921 816h6v24h-6zM912 825h24v6h-24zM489 864h6v24h-6zM480 873h24v6h-24zM561 864h6v24h-6zM552 873h24v6h-24zM489 936h6v24h-6zM480 945h24v6h-24zM561 936h6v24h-6zM552 945h24v6h-24zM585 864h6v24h-6zM576 873h24v6h-24zM657 864h6v24h-6zM648 873h24v6h-24zM609 888h6v24h-6zM600 897h24v6h-24zM633 888h6v24h-6zM624 897h24v6h-24zM585 912h6v24h-6zM576 921h24v6h-24zM657 912h6v24h-6zM648 921h24v6h-24zM681 864h6v24h-6zM672 873h24v6h-24zM753 864h6v24h-6zM744 873h24v6h-24zM705 888h6v24h-6zM696 897h24v6h-24zM705 912h6v24h-6zM696 921h24v6h-24zM729 912h6v24h-6zM720 921h24v6h-24zM681 936h6v24h-6zM672 945h24v6h-24zM753 936h6v24h-6zM744 945h24v6h-24zM801 864h6v24h-6zM792 873h24v6h-24zM825 912h6v24h-6zM816 921h24v6h-24zM801 936h6v24h-6zM792 945h24v6h-24zM825 936h6v24h-6zM816 945h24v6h-24zM921 864h6v24h-6zM912 873h24v6h-24zM945 864h6v24h-6zM936 873h24v6h-24zM873 936h6v24h-6zM864 945h24v6h-24zM897 936h6v24h-6zM888 945h24v6h-24zM873 288h6v24h-6zM864 297h24v6h-24zM945 288h6v24h-6zM936 297h24v6h-24zM873 360h6v24h-6zM864 369h24v6h-24zM945 360h6v24h-6zM936 369h24v6h-24zM777 288h6v24h-6zM768 297h24v6h-24zM849 288h6v24h-6zM840 297h24v6h-24zM777 360h6v24h-6zM768 369h24v6h-24zM849 360h6v24h-6zM840 369h24v6h-24zM129 576h6v24h-6zM120 585h24v6h-24zM177 576h6v24h-6zM168 585h24v6h-24zM153 600h6v24h-6zM144 609h24v6h-24zM153 624h6v24h-6zM144 633h24v6h-24zM129 648h6v24h-6zM120 657h24v6h-24zM177 648h6v24h-6zM168 657h24v6h-24zM297 576h6v24h-6zM288 585h24v6h-24zM321 600h6v24h-6zM312 609h24v6h-24zM345 624h6v24h-6zM336 633h24v6h-24zM369 648h6v24h-6zM360 657h24v6h-24zM657 624h6v24h-6zM648 633h24v6h-24zM609 480h6v24h-6zM600 489h24v6h-24zM633 480h6v24h-6zM624 489h24v6h-24zM609 504h6v24h-6zM600 513h24v6h-24zM657 504h6v24h-6zM648 513h24v6h-24zM585 528h6v24h-6zM576 537h24v6h-24zM633 528h6v24h-6zM624 537h24v6h-24zM609 552h6v24h-6zM600 561h24v6h-24zM633 552h6v24h-6zM624 561h24v6h-24zM225 672h6v24h-6zM216 681h24v6h-24zM273 672h6v24h-6zM264 681h24v6h-24zM249 696h6v24h-6zM240 705h24v6h-24zM249 720h6v24h-6zM240 729h24v6h-24zM225 744h6v24h-6zM216 753h24v6h-24zM273 744h6v24h-6zM264 753h24v6h-24zM417 864h6v24h-6zM408 873h24v6h-24zM465 864h6v24h-6zM456 873h24v6h-24zM441 888h6v24h-6zM432 897h24v6h-24zM441 912h6v24h-6zM432 921h24v6h-24zM417 936h6v24h-6zM408 945h24v6h-24zM465 936h6v24h-6zM456 945h24v6h-24zM321 864h6v24h-6zM312 873h24v6h-24zM369 864h6v24h-6zM360 873h24v6h-24zM345 888h6v24h-6zM336 897h24v6h-24zM345 912h6v24h-6zM336 921h24v6h-24zM321 936h6v24h-6zM312 945h24v6h-24zM369 936h6v24h-6zM360 945h24v6h-24z"/><path fill="#fff" d="M168 72h24v24h-24zM168 96h24v24h-24zM168 120h24v24h-24zM168 144h24v24h-24zM168 168h24v24h-24zM168 192h24v24h-24zM168 216h24v24h-24zM168 240h24v24h-24zM168 264h24v24h-24zM168 288h24v24h-24zM168 312h24v24h-24zM168 336h24v24h-24zM168 360h24v24h-24zM168 384h24v24h-24zM168 408h24v24h-24zM168 432h24v24h-24zM144 336h24v24h-24zM120 360h24v24h-24zM144 360h24v24h-24zM192 360h24v24h-24zM216 360h24v24h-24zM240 360h24v24h-24zM264 360h24v24h-24zM288 360h24v24h-24zM312 360h24v24h-24zM336 360h24v24h-24zM360 360h24v24h-24zM384 360h24v24h-24zM408 360h24v24h-24zM432 360h24v24h-24zM432 384h24v24h-24zM432 408h24v24h-24zM432 432h24v24h-24zM432 456h24v24h-24zM432 480h24v24h-24zM432 504h24v24h-24zM432 528h24v24h-24zM432 552h24v24h-24zM432 576h24v24h-24zM408 576h24v24h-24zM384 576h24v24h-24zM360 576h24v24h-24zM336 576h24v24h-24zM312 576h24v24h-24zM288 576h24v24h-24zM264 576h24v24h-24zM240 576h24v24h-24zM216 576h24v24h-24zM192 576h24v24h-24zM168 576h24v24h-24zM144 576h24v24h-24zM120 576h24v24h-24zM96 576h24v24h-24zM72 576h24v24h-24zM48 576h24v24h-24zM24 576h24v24h-24zM24 600h24v24h-24zM24 624h24v24h-24zM24 648h24v24h-24zM24 672h24v24h-24zM24 696h24v24h-24zM24 720h24v24h-24zM24 744h24v24h-24zM24 768h24v24h-24zM24 792h24v24h-24zM48 768h24v24h-24zM72 744h24v24h-24zM96 720h24v24h-24zM120 696h24v24h-24zM144 672h24v24h-24zM168 648h24v24h-24zM192 624h24v24h-24zM216 600h24v24h-24zM216 624h24v24h-24zM216 648h24v24h-24zM216 672h24v24h-24zM216 696h24v24h-24zM216 720h24v24h-24zM216 744h24v24h-24zM216 768h24v24h-24zM216 792h24v24h-24zM216 816h24v24h-24zM216 840h24v24h-24zM192 816h24v24h-24zM168 792h24v24h-24zM144 768h24v24h-24zM120 744h24v24h-24zM120 768h24v24h-24zM120 792h24v24h-24zM120 816h24v24h-24zM120 720h24v24h-24zM120 672h24v24h-24zM120 648h24v24h-24zM120 624h24v24h-24zM120 600h24v24h-24zM120 552h24v24h-24zM120 528h24v24h-24zM120 504h24v24h-24zM120 480h24v24h-24zM120 456h24v24h-24zM120 432h24v24h-24zM144 456h24v24h-24zM168 480h24v24h-24zM168 456h24v24h-24zM168 48h24v24h-24zM168 24h24v24h-24zM144 48h24v24h-24zM120 72h24v24h-24zM96 96h24v24h-24zM72 120h24v24h-24zM48 144h24v24h-24zM72 168h24v24h-24zM96 192h24v24h-24zM120 216h24v24h-24zM144 240h24v24h-24zM192 288h24v24h-24zM216 312h24v24h-24zM216 336h24v24h-24zM216 384h24v24h-24zM216 408h24v24h-24zM216 432h24v24h-24zM216 456h24v24h-24zM216 480h24v24h-24zM216 504h24v24h-24zM216 528h24v24h-24zM216 552h24v24h-24zM216 864h24v24h-24zM240 864h24v24h-24zM264 864h24v24h-24zM288 864h24v24h-24zM312 864h24v24h-24zM336 864h24v24h-24zM360 864h24v24h-24zM384 864h24v24h-24zM408 864h24v24h-24zM384 888h24v24h-24zM360 912h24v24h-24zM336 888h24v24h-24zM288 840h24v24h-24zM264 816h24v24h-24zM240 792h24v24h-24zM240 816h24v24h-24zM240 840h24v24h-24zM240 888h24v24h-24zM264 840h24v24h-24zM312 840h24v24h-24zM336 840h24v24h-24zM360 840h24v24h-24zM384 840h24v24h-24zM384 816h24v24h-24zM384 792h24v24h-24zM384 768h24v24h-24zM384 744h24v24h-24zM384 720h24v24h-24zM384 696h24v24h-24zM360 696h24v24h-24zM336 696h24v24h-24zM312 696h24v24h-24zM288 696h24v24h-24zM264 696h24v24h-24zM240 696h24v24h-24zM192 720h24v24h-24zM168 744h24v24h-24zM96 816h24v24h-24zM96 792h24v24h-24zM96 768h24v24h-24zM96 744h24v24h-24zM96 696h24v24h-24zM96 672h24v24h-24zM96 648h24v24h-24zM96 624h24v24h-24zM96 600h24v24h-24zM96 552h24v24h-24zM96 528h24v24h-24zM96 504h24v24h-24zM96 480h24v24h-24zM96 456h24v24h-24zM96 432h24v24h-24zM96 408h24v24h-24zM96 384h24v24h-24zM96 360h24v24h-24zM96 336h24v24h-24zM96 312h24v24h-24zM96 288h24v24h-24zM96 264h24v24h-24zM96 240h24v24h-24zM120 240h24v24h-24zM192 240h24v24h-24zM216 240h24v24h-24zM240 240h24v24h-24zM264 240h24v24h-24zM288 240h24v24h-24zM312 240h24v24h-24zM336 240h24v24h-24zM360 240h24v24h-24zM360 264h24v24h-24zM360 288h24v24h-24zM360 312h24v24h-24zM360 336h24v24h-24zM360 384h24v24h-24zM360 408h24v24h-24zM360 432h24v24h-24zM360 456h24v24h-24zM360 480h24v24h-24zM360 504h24v24h-24zM360 528h24v24h-24zM360 552h24v24h-24zM360 600h24v24h-24zM360 624h24v24h-24zM360 648h24v24h-24zM360 672h24v24h-24zM360 720h24v24h-24zM360 744h24v24h-24zM408 792h24v24h-24zM360 792h24v24h-24zM336 792h24v24h-24zM312 792h24v24h-24zM288 792h24v24h-24zM264 792h24v24h-24zM192 792h24v24h-24zM144 792h24v24h-24zM72 792h24v24h-24zM48 792h24v24h-24zM0 792h24v24h-24zM0 768h24v24h-24zM0 744h24v24h-24zM0 720h24v24h-24zM0 696h24v24h-24zM0 672h24v24h-24zM0 648h24v24h-24zM0 624h24v24h-24zM0 600h24v24h-24zM0 576h24v24h-24zM0 552h24v24h-24zM0 528h24v24h-24zM0 504h24v24h-24zM0 480h24v24h-24zM0 456h24v24h-24zM0 432h24v24h-24zM0 408h24v24h-24zM0 384h24v24h-24zM0 360h24v24h-24zM0 336h24v24h-24zM0 312h24v24h-24zM0 288h24v24h-24zM0 264h24v24h-24zM0 240h24v24h-24zM0 216h24v24h-24zM24 240h24v24h-24zM48 264h24v24h-24zM72 240h24v24h-24zM96 216h24v24h-24zM120 192h24v24h-24zM144 168h24v24h-24zM192 120h24v24h-24zM216 96h24v24h-24zM240 72h24v24h-24zM264 48h24v24h-24zM288 24h24v24h-24zM312 0h24v24h-24zM144 192h24v24h-24zM144 216h24v24h-24zM144 264h24v24h-24zM144 288h24v24h-24zM144 312h24v24h-24zM144 384h24v24h-24zM144 408h24v24h-24zM144 432h24v24h-24zM72 432h24v24h-24zM48 432h24v24h-24zM24 432h24v24h-24zM192 432h24v24h-24zM240 432h24v24h-24zM264 432h24v24h-24zM288 432h24v24h-24zM312 432h24v24h-24zM336 432h24v24h-24zM264 408h24v24h-24zM264 456h24v24h-24zM264 480h24v24h-24zM264 504h24v24h-24zM264 528h24v24h-24zM264 552h24v24h-24zM264 600h24v24h-24zM264 624h24v24h-24zM264 648h24v24h-24zM264 672h24v24h-24zM264 720h24v24h-24zM264 744h24v24h-24zM264 768h24v24h-24zM312 816h24v24h-24zM312 888h24v24h-24zM408 768h24v24h-24zM408 744h24v24h-24zM408 720h24v24h-24zM408 696h24v24h-24zM408 672h24v24h-24zM408 648h24v24h-24zM408 624h24v24h-24zM408 600h24v24h-24zM408 552h24v24h-24zM408 528h24v24h-24zM384 672h24v24h-24zM336 672h24v24h-24zM312 672h24v24h-24zM288 672h24v24h-24zM240 672h24v24h-24zM192 672h24v24h-24zM168 672h24v24h-24zM384 624h24v24h-24zM288 720h24v24h-24zM240 768h24v24h-24zM768 72h24v24h-24zM768 96h24v24h-24zM768 120h24v24h-24zM768 144h24v24h-24zM768 168h24v24h-24zM768 192h24v24h-24zM768 216h24v24h-24zM768 240h24v24h-24zM768 264h24v24h-24zM768 288h24v24h-24zM768 312h24v24h-24zM768 336h24v24h-24zM768 360h24v24h-24zM768 384h24v24h-24zM768 408h24v24h-24zM768 432h24v24h-24zM792 336h24v24h-24zM816 360h24v24h-24zM792 360h24v24h-24zM744 360h24v24h-24zM720 360h24v24h-24zM696 360h24v24h-24zM672 360h24v24h-24zM648 360h24v24h-24zM624 360h24v24h-24zM600 360h24v24h-24zM576 360h24v24h-24zM552 360h24v24h-24zM528 360h24v24h-24zM504 360h24v24h-24zM504 384h24v24h-24zM504 408h24v24h-24zM504 432h24v24h-24zM504 456h24v24h-24zM504 480h24v24h-24zM504 504h24v24h-24zM504 528h24v24h-24zM504 552h24v24h-24zM504 576h24v24h-24zM528 576h24v24h-24zM552 576h24v24h-24zM576 576h24v24h-24zM600 576h24v24h-24zM624 576h24v24h-24zM648 576h24v24h-24zM672 576h24v24h-24zM696 576h24v24h-24zM720 576h24v24h-24zM744 576h24v24h-24zM768 576h24v24h-24zM792 576h24v24h-24zM816 576h24v24h-24zM840 576h24v24h-24zM864 576h24v24h-24zM888 576h24v24h-24zM912 576h24v24h-24zM912 600h24v24h-24zM912 624h24v24h-24zM912 648h24v24h-24zM912 672h24v24h-24zM912 696h24v24h-24zM912 720h24v24h-24zM912 744h24v24h-24zM912 768h24v24h-24zM912 792h24v24h-24zM888 768h24v24h-24zM864 744h24v24h-24zM840 720h24v24h-24zM816 696h24v24h-24zM792 672h24v24h-24zM768 648h24v24h-24zM744 624h24v24h-24zM720 600h24v24h-24zM720 624h24v24h-24zM720 648h24v24h-24zM720 672h24v24h-24zM720 696h24v24h-24zM720 720h24v24h-24zM720 744h24v24h-24zM720 768h24v24h-24zM720 792h24v24h-24zM720 816h24v24h-24zM720 840h24v24h-24zM744 816h24v24h-24zM768 792h24v24h-24zM792 768h24v24h-24zM816 744h24v24h-24zM816 768h24v24h-24zM816 792h24v24h-24zM816 816h24v24h-24zM816 720h24v24h-24zM816 672h24v24h-24zM816 648h24v24h-24zM816 624h24v24h-24zM816 600h24v24h-24zM816 552h24v24h-24zM816 528h24v24h-24zM816 504h24v24h-24zM816 480h24v24h-24zM816 456h24v24h-24zM816 432h24v24h-24zM792 456h24v24h-24zM768 480h24v24h-24zM768 456h24v24h-24zM768 48h24v24h-24zM768 24h24v24h-24zM792 48h24v24h-24zM816 72h24v24h-24zM840 96h24v24h-24zM864 120h24v24h-24zM888 144h24v24h-24zM864 168h24v24h-24zM840 192h24v24h-24zM816 216h24v24h-24zM792 240h24v24h-24zM744 288h24v24h-24zM720 312h24v24h-24zM720 336h24v24h-24zM720 384h24v24h-24zM720 408h24v24h-24zM720 432h24v24h-24zM720 456h24v24h-24zM720 480h24v24h-24zM720 504h24v24h-24zM720 528h24v24h-24zM720 552h24v24h-24zM720 864h24v24h-24zM696 864h24v24h-24zM672 864h24v24h-24zM648 864h24v24h-24zM624 864h24v24h-24zM600 864h24v24h-24zM576 864h24v24h-24zM552 864h24v24h-24zM528 864h24v24h-24zM552 888h24v24h-24zM576 912h24v24h-24zM600 888h24v24h-24zM648 840h24v24h-24zM672 816h24v24h-24zM696 792h24v24h-24zM696 816h24v24h-24zM696 840h24v24h-24zM696 888h24v24h-24zM672 840h24v24h-24zM624 840h24v24h-24zM600 840h24v24h-24zM576 840h24v24h-24zM552 840h24v24h-24zM552 816h24v24h-24zM552 792h24v24h-24zM552 768h24v24h-24zM552 744h24v24h-24zM552 720h24v24h-24zM552 696h24v24h-24zM576 696h24v24h-24zM600 696h24v24h-24zM624 696h24v24h-24zM648 696h24v24h-24zM672 696h24v24h-24zM696 696h24v24h-24zM744 720h24v24h-24zM768 744h24v24h-24zM840 816h24v24h-24zM840 792h24v24h-24zM840 768h24v24h-24zM840 744h24v24h-24zM840 696h24v24h-24zM840 672h24v24h-24zM840 648h24v24h-24zM840 624h24v24h-24zM840 600h24v24h-24zM840 552h24v24h-24zM840 528h24v24h-24zM840 504h24v24h-24zM840 480h24v24h-24zM840 456h24v24h-24zM840 432h24v24h-24zM840 408h24v24h-24zM840 384h24v24h-24zM840 360h24v24h-24zM840 336h24v24h-24zM840 312h24v24h-24zM840 288h24v24h-24zM840 264h24v24h-24zM840 240h24v24h-24zM816 240h24v24h-24zM744 240h24v24h-24zM720 240h24v24h-24zM696 240h24v24h-24zM672 240h24v24h-24zM648 240h24v24h-24zM624 240h24v24h-24zM600 240h24v24h-24zM576 240h24v24h-24zM576 264h24v24h-24zM576 288h24v24h-24zM576 312h24v24h-24zM576 336h24v24h-24zM576 384h24v24h-24zM576 408h24v24h-24zM576 432h24v24h-24zM576 456h24v24h-24zM576 480h24v24h-24zM576 504h24v24h-24zM576 528h24v24h-24zM576 552h24v24h-24zM576 600h24v24h-24zM576 624h24v24h-24zM576 648h24v24h-24zM576 672h24v24h-24zM576 720h24v24h-24zM576 744h24v24h-24zM528 792h24v24h-24zM576 792h24v24h-24zM600 792h24v24h-24zM624 792h24v24h-24zM648 792h24v24h-24zM672 792h24v24h-24zM744 792h24v24h-24zM792 792h24v24h-24zM864 792h24v24h-24zM888 792h24v24h-24zM936 792h24v24h-24zM936 768h24v24h-24zM936 744h24v24h-24zM936 720h24v24h-24zM936 696h24v24h-24zM936 672h24v24h-24zM936 648h24v24h-24zM936 624h24v24h-24zM936 600h24v24h-24zM936 576h24v24h-24zM936 552h24v24h-24zM936 528h24v24h-24zM936 504h24v24h-24zM936 480h24v24h-24zM936 456h24v24h-24zM936 432h24v24h-24zM936 408h24v24h-24zM936 384h24v24h-24zM936 360h24v24h-24zM936 336h24v24h-24zM936 312h24v24h-24zM936 288h24v24h-24zM936 264h24v24h-24zM936 240h24v24h-24zM936 216h24v24h-24zM912 240h24v24h-24zM888 264h24v24h-24zM864 240h24v24h-24zM840 216h24v24h-24zM816 192h24v24h-24zM792 168h24v24h-24zM744 120h24v24h-24zM720 96h24v24h-24zM696 72h24v24h-24zM672 48h24v24h-24zM648 24h24v24h-24zM624 0h24v24h-24zM792 192h24v24h-24zM792 216h24v24h-24zM792 264h24v24h-24zM792 288h24v24h-24zM792 312h24v24h-24zM792 384h24v24h-24zM792 408h24v24h-24zM792 432h24v24h-24zM864 432h24v24h-24zM888 432h24v24h-24zM912 432h24v24h-24zM744 432h24v24h-24zM696 432h24v24h-24zM672 432h24v24h-24zM648 432h24v24h-24zM624 432h24v24h-24zM600 432h24v24h-24zM672 408h24v24h-24zM672 456h24v24h-24zM672 480h24v24h-24zM672 504h24v24h-24zM672 528h24v24h-24zM672 552h24v24h-24zM672 600h24v24h-24zM672 624h24v24h-24zM672 648h24v24h-24zM672 672h24v24h-24zM672 720h24v24h-24zM672 744h24v24h-24zM672 768h24v24h-24zM624 816h24v24h-24zM624 888h24v24h-24zM528 768h24v24h-24zM528 744h24v24h-24zM528 720h24v24h-24zM528 696h24v24h-24zM528 672h24v24h-24zM528 648h24v24h-24zM528 624h24v24h-24zM528 600h24v24h-24zM528 552h24v24h-24zM528 528h24v24h-24zM552 672h24v24h-24zM600 672h24v24h-24zM624 672h24v24h-24zM648 672h24v24h-24zM696 672h24v24h-24zM744 672h24v24h-24zM768 672h24v24h-24zM552 624h24v24h-24zM648 720h24v24h-24zM696 768h24v24h-24z"/></svg>