<svg xmlns="http://www.w3.org/2000/svg" width="960" height="960" viewBox="0 0 960 960" shape-rendering="crispEdges"><path fill="#000" d="M0 0h960v960h-960z"/><path fill="#e69f41" d="M0 0h960v320h-960z"/><path fill="#6f9fa5" d="M17 0h3v12h-3zM12 5h12v3h-12zM5 12h3v12h-3zM0 17h12v3h-12zM17 12h3v12h-3zM12 17h12v3h-12zM29 24h3v12h-3zM24 29h12v3h-12zM41 24h3v12h-3zM36 29h12v3h-12zM29 36h3v12h-3zM24 41h12v3h-12zM53 12h3v12h-3zM48 17h12v3h-12zM89 12h3v12h-3zM84 17h12v3h-12zM53 24h3v12h-3zM48 29h12v3h-12zM65 24h3v12h-3zM60 29h12v3h-12zM96 0h12v12h-12zM108 12h12v12h-12zM120 24h12v12h-12zM132 36h12v12h-12zM171 3h6v6h-6zM147 15h6v6h-6zM159 15h6v6h-6zM183 15h6v6h-6zM147 27h6v6h-6zM171 27h6v6h-6zM183 27h6v6h-6zM159 39h6v6h-6zM192 0h12v12h-12zM228 0h12v12h-12zM204 12h12v12h-12zM204 24h12v12h-12zM216 24h12v12h-12zM192 36h12v12h-12zM228 36h12v12h-12zM240 12h12v12h-12zM252 12h12v12h-12zM240 24h12v12h-12zM276 24h12v12h-12zM291 3h6v6h-6zM327 3h6v6h-6zM315 15h6v6h-6zM303 27h6v6h-6zM315 27h6v6h-6zM291 39h6v6h-6zM327 39h6v6h-6zM339 3h6v6h-6zM375 3h6v6h-6zM339 39h6v6h-6zM375 39h6v6h-6zM408 0h12v12h-12zM420 0h12v12h-12zM384 36h12v12h-12zM396 36h12v12h-12zM432 0h12v12h-12zM468 0h12v12h-12zM444 12h12v12h-12zM456 24h12v12h-12zM432 36h12v12h-12zM468 36h12v12h-12zM497 0h3v12h-3zM492 5h12v3h-12zM509 0h3v12h-3zM504 5h12v3h-12zM485 12h3v12h-3zM480 17h12v3h-12zM509 12h3v12h-3zM504 17h12v3h-12zM497 24h3v12h-3zM492 29h12v3h-12zM521 24h3v12h-3zM516 29h12v3h-12zM497 36h3v12h-3zM492 41h12v3h-12zM509 36h3v12h-3zM504 41h12v3h-12zM540 0h12v12h-12zM528 12h12v12h-12zM552 12h12v12h-12zM564 12h12v12h-12zM528 24h12v12h-12zM540 24h12v12h-12zM564 24h12v12h-12zM552 36h12v12h-12zM588 0h12v12h-12zM576 12h12v12h-12zM612 24h12v12h-12zM600 36h12v12h-12zM641 0h3v12h-3zM636 5h12v3h-12zM665 0h3v12h-3zM660 5h12v3h-12zM629 12h3v12h-3zM624 17h12v3h-12zM653 12h3v12h-3zM648 17h12v3h-12zM641 24h3v12h-3zM636 29h12v3h-12zM665 24h3v12h-3zM660 29h12v3h-12zM629 36h3v12h-3zM624 41h12v3h-12zM653 36h3v12h-3zM648 41h12v3h-12zM684 0h12v12h-12zM672 12h12v12h-12zM708 24h12v12h-12zM696 36h12v12h-12zM747 3h6v6h-6zM747 15h6v6h-6zM759 15h6v6h-6zM723 27h6v6h-6zM735 27h6v6h-6zM735 39h6v6h-6zM773 0h3v12h-3zM768 5h12v3h-12zM797 0h3v12h-3zM792 5h12v3h-12zM797 12h3v12h-3zM792 17h12v3h-12zM809 12h3v12h-3zM804 17h12v3h-12zM773 24h3v12h-3zM768 29h12v3h-12zM785 24h3v12h-3zM780 29h12v3h-12zM785 36h3v12h-3zM780 41h12v3h-12zM809 36h3v12h-3zM804 41h12v3h-12zM828 0h12v12h-12zM852 0h12v12h-12zM816 12h12v12h-12zM852 24h12v12h-12zM816 36h12v12h-12zM840 36h12v12h-12zM867 3h6v6h-6zM903 3h6v6h-6zM879 15h6v6h-6zM891 15h6v6h-6zM891 27h6v6h-6zM867 39h6v6h-6zM903 39h6v6h-6zM917 0h3v12h-3zM912 5h12v3h-12zM953 0h3v12h-3zM948 5h12v3h-12zM929 12h3v12h-3zM924 17h12v3h-12zM929 24h3v12h-3zM924 29h12v3h-12zM941 24h3v12h-3zM936 29h12v3h-12zM917 36h3v12h-3zM912 41h12v3h-12zM953 36h3v12h-3zM948 41h12v3h-12zM5 48h3v12h-3zM0 53h12v3h-12zM29 48h3v12h-3zM24 53h12v3h-12zM29 60h3v12h-3zM24 65h12v3h-12zM41 60h3v12h-3zM36 65h12v3h-12zM5 72h3v12h-3zM0 77h12v3h-12zM17 72h3v12h-3zM12 77h12v3h-12zM17 84h3v12h-3zM12 89h12v3h-12zM41 84h3v12h-3zM36 89h12v3h-12zM48 48h12v12h-12zM84 48h12v12h-12zM60 60h12v12h-12zM72 60h12v12h-12zM72 72h12v12h-12zM48 84h12v12h-12zM84 84h12v12h-12zM120 48h12v12h-12zM132 48h12v12h-12zM120 60h12v12h-12zM132 60h12v12h-12zM96 72h12v12h-12zM108 72h12v12h-12zM96 84h12v12h-12zM108 84h12v12h-12zM149 60h3v12h-3zM144 65h12v3h-12zM161 60h3v12h-3zM156 65h12v3h-12zM149 72h3v12h-3zM144 77h12v3h-12zM185 72h3v12h-3zM180 77h12v3h-12zM192 48h12v12h-12zM228 48h12v12h-12zM204 60h12v12h-12zM216 60h12v12h-12zM204 72h12v12h-12zM216 72h12v12h-12zM192 84h12v12h-12zM228 84h12v12h-12zM240 48h12v12h-12zM276 48h12v12h-12zM252 60h12v12h-12zM264 60h12v12h-12zM252 72h12v12h-12zM264 72h12v12h-12zM240 84h12v12h-12zM276 84h12v12h-12zM293 48h3v12h-3zM288 53h12v3h-12zM317 48h3v12h-3zM312 53h12v3h-12zM317 60h3v12h-3zM312 65h12v3h-12zM329 60h3v12h-3zM324 65h12v3h-12zM293 72h3v12h-3zM288 77h12v3h-12zM305 72h3v12h-3zM300 77h12v3h-12zM305 84h3v12h-3zM300 89h12v3h-12zM329 84h3v12h-3zM324 89h12v3h-12zM351 51h6v6h-6zM363 75h6v6h-6zM351 87h6v6h-6zM363 87h6v6h-6zM387 51h6v6h-6zM411 51h6v6h-6zM423 63h6v6h-6zM387 75h6v6h-6zM399 87h6v6h-6zM423 87h6v6h-6zM437 48h3v12h-3zM432 53h12v3h-12zM473 48h3v12h-3zM468 53h12v3h-12zM437 72h3v12h-3zM432 77h12v3h-12zM473 72h3v12h-3zM468 77h12v3h-12zM521 48h3v12h-3zM516 53h12v3h-12zM521 60h3v12h-3zM516 65h12v3h-12zM485 72h3v12h-3zM480 77h12v3h-12zM485 84h3v12h-3zM480 89h12v3h-12zM557 48h3v12h-3zM552 53h12v3h-12zM533 60h3v12h-3zM528 65h12v3h-12zM545 60h3v12h-3zM540 65h12v3h-12zM569 60h3v12h-3zM564 65h12v3h-12zM533 72h3v12h-3zM528 77h12v3h-12zM557 72h3v12h-3zM552 77h12v3h-12zM569 72h3v12h-3zM564 77h12v3h-12zM545 84h3v12h-3zM540 89h12v3h-12zM605 48h3v12h-3zM600 53h12v3h-12zM617 48h3v12h-3zM612 53h12v3h-12zM605 60h3v12h-3zM600 65h12v3h-12zM617 60h3v12h-3zM612 65h12v3h-12zM581 72h3v12h-3zM576 77h12v3h-12zM593 72h3v12h-3zM588 77h12v3h-12zM581 84h3v12h-3zM576 89h12v3h-12zM593 84h3v12h-3zM588 89h12v3h-12zM636 48h12v12h-12zM660 48h12v12h-12zM648 60h12v12h-12zM648 72h12v12h-12zM636 84h12v12h-12zM660 84h12v12h-12zM689 48h3v12h-3zM684 53h12v3h-12zM713 48h3v12h-3zM708 53h12v3h-12zM689 84h3v12h-3zM684 89h12v3h-12zM713 84h3v12h-3zM708 89h12v3h-12zM737 48h3v12h-3zM732 53h12v3h-12zM725 60h3v12h-3zM720 65h12v3h-12zM761 72h3v12h-3zM756 77h12v3h-12zM749 84h3v12h-3zM744 89h12v3h-12zM768 60h12v12h-12zM804 60h12v12h-12zM768 72h12v12h-12zM804 72h12v12h-12zM845 48h3v12h-3zM840 53h12v3h-12zM857 48h3v12h-3zM852 53h12v3h-12zM845 60h3v12h-3zM840 65h12v3h-12zM857 60h3v12h-3zM852 65h12v3h-12zM821 72h3v12h-3zM816 77h12v3h-12zM833 72h3v12h-3zM828 77h12v3h-12zM821 84h3v12h-3zM816 89h12v3h-12zM833 84h3v12h-3zM828 89h12v3h-12zM867 51h6v6h-6zM903 51h6v6h-6zM891 63h6v6h-6zM879 75h6v6h-6zM891 75h6v6h-6zM867 87h6v6h-6zM903 87h6v6h-6zM915 51h6v6h-6zM951 51h6v6h-6zM927 63h6v6h-6zM939 75h6v6h-6zM915 87h6v6h-6zM951 87h6v6h-6zM3 99h6v6h-6zM15 111h6v6h-6zM3 123h6v6h-6zM27 123h6v6h-6zM3 135h6v6h-6zM15 135h6v6h-6zM39 135h6v6h-6zM53 96h3v12h-3zM48 101h12v3h-12zM53 108h3v12h-3zM48 113h12v3h-12zM89 120h3v12h-3zM84 125h12v3h-12zM89 132h3v12h-3zM84 137h12v3h-12zM120 96h12v12h-12zM132 96h12v12h-12zM120 108h12v12h-12zM132 108h12v12h-12zM96 120h12v12h-12zM108 120h12v12h-12zM96 132h12v12h-12zM108 132h12v12h-12zM159 99h6v6h-6zM171 99h6v6h-6zM147 111h6v6h-6zM171 111h6v6h-6zM159 123h6v6h-6zM183 123h6v6h-6zM159 135h6v6h-6zM171 135h6v6h-6zM207 99h6v6h-6zM219 99h6v6h-6zM219 111h6v6h-6zM207 135h6v6h-6zM245 96h3v12h-3zM240 101h12v3h-12zM269 96h3v12h-3zM264 101h12v3h-12zM269 108h3v12h-3zM264 113h12v3h-12zM281 108h3v12h-3zM276 113h12v3h-12zM245 120h3v12h-3zM240 125h12v3h-12zM257 120h3v12h-3zM252 125h12v3h-12zM257 132h3v12h-3zM252 137h12v3h-12zM281 132h3v12h-3zM276 137h12v3h-12zM293 96h3v12h-3zM288 101h12v3h-12zM329 96h3v12h-3zM324 101h12v3h-12zM317 108h3v12h-3zM312 113h12v3h-12zM305 120h3v12h-3zM300 125h12v3h-12zM293 132h3v12h-3zM288 137h12v3h-12zM329 132h3v12h-3zM324 137h12v3h-12zM353 96h3v12h-3zM348 101h12v3h-12zM377 96h3v12h-3zM372 101h12v3h-12zM341 108h3v12h-3zM336 113h12v3h-12zM365 108h3v12h-3zM360 113h12v3h-12zM353 120h3v12h-3zM348 125h12v3h-12zM377 120h3v12h-3zM372 125h12v3h-12zM341 132h3v12h-3zM336 137h12v3h-12zM365 132h3v12h-3zM360 137h12v3h-12zM389 96h3v12h-3zM384 101h12v3h-12zM425 96h3v12h-3zM420 101h12v3h-12zM413 108h3v12h-3zM408 113h12v3h-12zM401 120h3v12h-3zM396 125h12v3h-12zM389 132h3v12h-3zM384 137h12v3h-12zM425 132h3v12h-3zM420 137h12v3h-12zM435 99h6v6h-6zM435 111h6v6h-6zM471 123h6v6h-6zM471 135h6v6h-6zM495 99h6v6h-6zM519 99h6v6h-6zM483 111h6v6h-6zM495 111h6v6h-6zM507 123h6v6h-6zM519 123h6v6h-6zM483 135h6v6h-6zM507 135h6v6h-6zM531 99h6v6h-6zM567 99h6v6h-6zM543 111h6v6h-6zM555 111h6v6h-6zM531 123h6v6h-6zM567 123h6v6h-6zM603 99h6v6h-6zM591 111h6v6h-6zM615 111h6v6h-6zM579 123h6v6h-6zM603 123h6v6h-6zM591 135h6v6h-6zM641 96h3v12h-3zM636 101h12v3h-12zM653 120h3v12h-3zM648 125h12v3h-12zM641 132h3v12h-3zM636 137h12v3h-12zM653 132h3v12h-3zM648 137h12v3h-12zM708 96h12v12h-12zM696 108h12v12h-12zM684 120h12v12h-12zM672 132h12v12h-12zM725 96h3v12h-3zM720 101h12v3h-12zM761 96h3v12h-3zM756 101h12v3h-12zM749 108h3v12h-3zM744 113h12v3h-12zM737 120h3v12h-3zM732 125h12v3h-12zM725 132h3v12h-3zM720 137h12v3h-12zM761 132h3v12h-3zM756 137h12v3h-12zM773 108h3v12h-3zM768 113h12v3h-12zM809 108h3v12h-3zM804 113h12v3h-12zM773 120h3v12h-3zM768 125h12v3h-12zM785 120h3v12h-3zM780 125h12v3h-12zM831 111h6v6h-6zM843 111h6v6h-6zM831 123h6v6h-6zM843 123h6v6h-6zM879 99h6v6h-6zM867 111h6v6h-6zM879 111h6v6h-6zM891 123h6v6h-6zM903 123h6v6h-6zM891 135h6v6h-6zM936 96h12v12h-12zM924 108h12v12h-12zM948 108h12v12h-12zM912 120h12v12h-12zM936 120h12v12h-12zM924 132h12v12h-12zM5 144h3v12h-3zM0 149h12v3h-12zM17 144h3v12h-3zM12 149h12v3h-12zM29 180h3v12h-3zM24 185h12v3h-12zM41 180h3v12h-3zM36 185h12v3h-12zM48 144h12v12h-12zM60 144h12v12h-12zM84 144h12v12h-12zM48 156h12v12h-12zM72 156h12v12h-12zM60 168h12v12h-12zM48 180h12v12h-12zM111 147h6v6h-6zM123 147h6v6h-6zM111 183h6v6h-6zM123 183h6v6h-6zM149 156h3v12h-3zM144 161h12v3h-12zM185 156h3v12h-3zM180 161h12v3h-12zM149 168h3v12h-3zM144 173h12v3h-12zM161 168h3v12h-3zM156 173h12v3h-12zM195 159h6v6h-6zM207 159h6v6h-6zM195 171h6v6h-6zM231 171h6v6h-6zM245 144h3v12h-3zM240 149h12v3h-12zM257 156h3v12h-3zM252 161h12v3h-12zM245 168h3v12h-3zM240 173h12v3h-12zM269 168h3v12h-3zM264 173h12v3h-12zM245 180h3v12h-3zM240 185h12v3h-12zM257 180h3v12h-3zM252 185h12v3h-12zM281 180h3v12h-3zM276 185h12v3h-12zM327 147h6v6h-6zM315 159h6v6h-6zM303 171h6v6h-6zM291 183h6v6h-6zM360 144h12v12h-12zM336 156h12v12h-12zM348 156h12v12h-12zM372 156h12v12h-12zM336 168h12v12h-12zM360 168h12v12h-12zM372 168h12v12h-12zM348 180h12v12h-12zM389 144h3v12h-3zM384 149h12v3h-12zM401 144h3v12h-3zM396 149h12v3h-12zM389 156h3v12h-3zM384 161h12v3h-12zM401 156h3v12h-3zM396 161h12v3h-12zM413 168h3v12h-3zM408 173h12v3h-12zM425 168h3v12h-3zM420 173h12v3h-12zM413 180h3v12h-3zM408 185h12v3h-12zM425 180h3v12h-3zM420 185h12v3h-12zM471 147h6v6h-6zM459 159h6v6h-6zM447 171h6v6h-6zM435 183h6v6h-6zM492 144h12v12h-12zM516 144h12v12h-12zM480 156h12v12h-12zM504 156h12v12h-12zM492 168h12v12h-12zM516 168h12v12h-12zM480 180h12v12h-12zM504 180h12v12h-12zM533 144h3v12h-3zM528 149h12v3h-12zM557 144h3v12h-3zM552 149h12v3h-12zM557 156h3v12h-3zM552 161h12v3h-12zM569 156h3v12h-3zM564 161h12v3h-12zM533 168h3v12h-3zM528 173h12v3h-12zM545 168h3v12h-3zM540 173h12v3h-12zM545 180h3v12h-3zM540 185h12v3h-12zM569 180h3v12h-3zM564 185h12v3h-12zM581 144h3v12h-3zM576 149h12v3h-12zM605 144h3v12h-3zM600 149h12v3h-12zM605 156h3v12h-3zM600 161h12v3h-12zM617 156h3v12h-3zM612 161h12v3h-12zM581 168h3v12h-3zM576 173h12v3h-12zM593 168h3v12h-3zM588 173h12v3h-12zM593 180h3v12h-3zM588 185h12v3h-12zM617 180h3v12h-3zM612 185h12v3h-12zM636 144h12v12h-12zM624 156h12v12h-12zM648 156h12v12h-12zM636 168h12v12h-12zM660 168h12v12h-12zM648 180h12v12h-12zM672 144h12v12h-12zM708 144h12v12h-12zM696 156h12v12h-12zM684 168h12v12h-12zM672 180h12v12h-12zM708 180h12v12h-12zM749 144h3v12h-3zM744 149h12v3h-12zM761 144h3v12h-3zM756 149h12v3h-12zM725 180h3v12h-3zM720 185h12v3h-12zM737 180h3v12h-3zM732 185h12v3h-12zM773 144h3v12h-3zM768 149h12v3h-12zM809 144h3v12h-3zM804 149h12v3h-12zM785 156h3v12h-3zM780 161h12v3h-12zM797 168h3v12h-3zM792 173h12v3h-12zM773 180h3v12h-3zM768 185h12v3h-12zM809 180h3v12h-3zM804 185h12v3h-12zM828 144h12v12h-12zM816 156h12v12h-12zM828 156h12v12h-12zM840 168h12v12h-12zM852 168h12v12h-12zM840 180h12v12h-12zM867 147h6v6h-6zM903 147h6v6h-6zM867 183h6v6h-6zM903 183h6v6h-6zM915 147h6v6h-6zM915 159h6v6h-6zM951 171h6v6h-6zM951 183h6v6h-6zM15 195h6v6h-6zM39 195h6v6h-6zM15 231h6v6h-6zM39 231h6v6h-6zM60 192h12v12h-12zM72 216h12v12h-12zM60 228h12v12h-12zM72 228h12v12h-12zM108 192h12v12h-12zM96 204h12v12h-12zM108 204h12v12h-12zM120 216h12v12h-12zM132 216h12v12h-12zM120 228h12v12h-12zM161 192h3v12h-3zM156 197h12v3h-12zM185 192h3v12h-3zM180 197h12v3h-12zM161 228h3v12h-3zM156 233h12v3h-12zM185 228h3v12h-3zM180 233h12v3h-12zM209 192h3v12h-3zM204 197h12v3h-12zM197 204h3v12h-3zM192 209h12v3h-12zM221 204h3v12h-3zM216 209h12v3h-12zM233 204h3v12h-3zM228 209h12v3h-12zM197 216h3v12h-3zM192 221h12v3h-12zM209 216h3v12h-3zM204 221h12v3h-12zM233 216h3v12h-3zM228 221h12v3h-12zM221 228h3v12h-3zM216 233h12v3h-12zM243 207h6v6h-6zM279 207h6v6h-6zM243 219h6v6h-6zM255 219h6v6h-6zM291 195h6v6h-6zM327 195h6v6h-6zM303 207h6v6h-6zM315 207h6v6h-6zM291 231h6v6h-6zM327 231h6v6h-6zM351 195h6v6h-6zM363 195h6v6h-6zM339 207h6v6h-6zM363 207h6v6h-6zM351 219h6v6h-6zM375 219h6v6h-6zM351 231h6v6h-6zM363 231h6v6h-6zM413 192h3v12h-3zM408 197h12v3h-12zM425 192h3v12h-3zM420 197h12v3h-12zM389 228h3v12h-3zM384 233h12v3h-12zM401 228h3v12h-3zM396 233h12v3h-12zM435 195h6v6h-6zM471 195h6v6h-6zM447 219h6v6h-6zM459 219h6v6h-6zM435 231h6v6h-6zM471 231h6v6h-6zM485 192h3v12h-3zM480 197h12v3h-12zM521 192h3v12h-3zM516 197h12v3h-12zM497 204h3v12h-3zM492 209h12v3h-12zM509 216h3v12h-3zM504 221h12v3h-12zM485 228h3v12h-3zM480 233h12v3h-12zM521 228h3v12h-3zM516 233h12v3h-12zM531 195h6v6h-6zM531 207h6v6h-6zM567 219h6v6h-6zM567 231h6v6h-6zM579 195h6v6h-6zM615 195h6v6h-6zM591 207h6v6h-6zM603 207h6v6h-6zM603 219h6v6h-6zM579 231h6v6h-6zM615 231h6v6h-6zM636 192h12v12h-12zM660 192h12v12h-12zM624 204h12v12h-12zM648 204h12v12h-12zM636 216h12v12h-12zM660 216h12v12h-12zM624 228h12v12h-12zM648 228h12v12h-12zM677 192h3v12h-3zM672 197h12v3h-12zM713 192h3v12h-3zM708 197h12v3h-12zM689 204h3v12h-3zM684 209h12v3h-12zM701 204h3v12h-3zM696 209h12v3h-12zM689 216h3v12h-3zM684 221h12v3h-12zM677 228h3v12h-3zM672 233h12v3h-12zM713 228h3v12h-3zM708 233h12v3h-12zM749 192h3v12h-3zM744 197h12v3h-12zM761 192h3v12h-3zM756 197h12v3h-12zM749 204h3v12h-3zM744 209h12v3h-12zM761 204h3v12h-3zM756 209h12v3h-12zM725 216h3v12h-3zM720 221h12v3h-12zM737 216h3v12h-3zM732 221h12v3h-12zM725 228h3v12h-3zM720 233h12v3h-12zM737 228h3v12h-3zM732 233h12v3h-12zM783 195h6v6h-6zM807 195h6v6h-6zM771 207h6v6h-6zM795 207h6v6h-6zM783 219h6v6h-6zM807 219h6v6h-6zM771 231h6v6h-6zM795 231h6v6h-6zM828 192h12v12h-12zM840 192h12v12h-12zM828 228h12v12h-12zM840 228h12v12h-12zM864 192h12v12h-12zM876 204h12v12h-12zM888 216h12v12h-12zM900 228h12v12h-12zM941 192h3v12h-3zM936 197h12v3h-12zM941 204h3v12h-3zM936 209h12v3h-12zM953 204h3v12h-3zM948 209h12v3h-12zM917 216h3v12h-3zM912 221h12v3h-12zM929 216h3v12h-3zM924 221h12v3h-12zM929 228h3v12h-3zM924 233h12v3h-12zM0 240h12v12h-12zM24 240h12v12h-12zM36 240h12v12h-12zM12 252h12v12h-12zM36 252h12v12h-12zM24 264h12v12h-12zM36 276h12v12h-12zM51 243h6v6h-6zM75 243h6v6h-6zM87 255h6v6h-6zM51 267h6v6h-6zM63 279h6v6h-6zM87 279h6v6h-6zM113 240h3v12h-3zM108 245h12v3h-12zM137 240h3v12h-3zM132 245h12v3h-12zM113 276h3v12h-3zM108 281h12v3h-12zM137 276h3v12h-3zM132 281h12v3h-12zM149 240h3v12h-3zM144 245h12v3h-12zM149 252h3v12h-3zM144 257h12v3h-12zM185 264h3v12h-3zM180 269h12v3h-12zM185 276h3v12h-3zM180 281h12v3h-12zM207 243h6v6h-6zM231 243h6v6h-6zM195 255h6v6h-6zM219 255h6v6h-6zM207 267h6v6h-6zM231 267h6v6h-6zM195 279h6v6h-6zM219 279h6v6h-6zM240 240h12v12h-12zM264 240h12v12h-12zM276 240h12v12h-12zM252 252h12v12h-12zM276 252h12v12h-12zM264 264h12v12h-12zM276 276h12v12h-12zM317 240h3v12h-3zM312 245h12v3h-12zM317 252h3v12h-3zM312 257h12v3h-12zM329 252h3v12h-3zM324 257h12v3h-12zM293 264h3v12h-3zM288 269h12v3h-12zM305 264h3v12h-3zM300 269h12v3h-12zM305 276h3v12h-3zM300 281h12v3h-12zM348 252h12v12h-12zM360 252h12v12h-12zM348 264h12v12h-12zM360 264h12v12h-12zM396 240h12v12h-12zM384 252h12v12h-12zM408 252h12v12h-12zM420 252h12v12h-12zM384 264h12v12h-12zM396 264h12v12h-12zM420 264h12v12h-12zM408 276h12v12h-12zM459 243h6v6h-6zM471 243h6v6h-6zM435 279h6v6h-6zM447 279h6v6h-6zM495 243h6v6h-6zM483 255h6v6h-6zM495 255h6v6h-6zM507 267h6v6h-6zM519 267h6v6h-6zM507 279h6v6h-6zM552 240h12v12h-12zM564 240h12v12h-12zM552 252h12v12h-12zM564 252h12v12h-12zM528 264h12v12h-12zM540 264h12v12h-12zM528 276h12v12h-12zM540 276h12v12h-12zM603 243h6v6h-6zM579 255h6v6h-6zM591 255h6v6h-6zM615 255h6v6h-6zM579 267h6v6h-6zM603 267h6v6h-6zM615 267h6v6h-6zM591 279h6v6h-6zM636 240h12v12h-12zM648 240h12v12h-12zM624 252h12v12h-12zM648 252h12v12h-12zM636 264h12v12h-12zM660 264h12v12h-12zM636 276h12v12h-12zM648 276h12v12h-12zM672 240h12v12h-12zM708 240h12v12h-12zM684 252h12v12h-12zM696 252h12v12h-12zM696 264h12v12h-12zM672 276h12v12h-12zM708 276h12v12h-12zM735 243h6v6h-6zM723 255h6v6h-6zM747 255h6v6h-6zM735 267h6v6h-6zM759 267h6v6h-6zM747 279h6v6h-6zM771 243h6v6h-6zM795 243h6v6h-6zM795 255h6v6h-6zM807 255h6v6h-6zM771 267h6v6h-6zM783 267h6v6h-6zM783 279h6v6h-6zM807 279h6v6h-6zM821 240h3v12h-3zM816 245h12v3h-12zM845 240h3v12h-3zM840 245h12v3h-12zM845 252h3v12h-3zM840 257h12v3h-12zM857 252h3v12h-3zM852 257h12v3h-12zM821 264h3v12h-3zM816 269h12v3h-12zM833 264h3v12h-3zM828 269h12v3h-12zM833 276h3v12h-3zM828 281h12v3h-12zM857 276h3v12h-3zM852 281h12v3h-12zM879 243h6v6h-6zM867 255h6v6h-6zM891 255h6v6h-6zM903 255h6v6h-6zM867 267h6v6h-6zM879 267h6v6h-6zM903 267h6v6h-6zM891 279h6v6h-6zM927 243h6v6h-6zM939 243h6v6h-6zM915 255h6v6h-6zM939 255h6v6h-6zM927 267h6v6h-6zM951 267h6v6h-6zM927 279h6v6h-6zM939 279h6v6h-6zM0 288h12v12h-12zM12 288h12v12h-12zM24 324h12v12h-12zM36 324h12v12h-12zM48 288h12v12h-12zM84 288h12v12h-12zM72 300h12v12h-12zM60 312h12v12h-12zM72 312h12v12h-12zM48 324h12v12h-12zM84 324h12v12h-12zM96 300h12v12h-12zM132 300h12v12h-12zM96 312h12v12h-12zM132 312h12v12h-12zM156 288h12v12h-12zM180 288h12v12h-12zM144 300h12v12h-12zM156 300h12v12h-12zM168 312h12v12h-12zM180 312h12v12h-12zM144 324h12v12h-12zM168 324h12v12h-12zM195 291h6v6h-6zM231 291h6v6h-6zM207 303h6v6h-6zM219 315h6v6h-6zM195 327h6v6h-6zM231 327h6v6h-6zM252 300h12v12h-12zM264 300h12v12h-12zM252 312h12v12h-12zM264 312h12v12h-12zM317 288h3v12h-3zM312 293h12v3h-12zM329 288h3v12h-3zM324 293h12v3h-12zM293 324h3v12h-3zM288 329h12v3h-12zM305 324h3v12h-3zM300 329h12v3h-12zM341 288h3v12h-3zM336 293h12v3h-12zM377 288h3v12h-3zM372 293h12v3h-12zM341 324h3v12h-3zM336 329h12v3h-12zM377 324h3v12h-3zM372 329h12v3h-12zM384 288h12v12h-12zM396 288h12v12h-12zM384 300h12v12h-12zM396 300h12v12h-12zM408 312h12v12h-12zM420 312h12v12h-12zM408 324h12v12h-12zM420 324h12v12h-12zM449 288h3v12h-3zM444 293h12v3h-12zM473 288h3v12h-3zM468 293h12v3h-12zM461 300h3v12h-3zM456 305h12v3h-12zM461 312h3v12h-3zM456 317h12v3h-12zM449 324h3v12h-3zM444 329h12v3h-12zM473 324h3v12h-3zM468 329h12v3h-12zM495 291h6v6h-6zM483 303h6v6h-6zM507 303h6v6h-6zM495 315h6v6h-6zM519 315h6v6h-6zM507 327h6v6h-6zM567 291h6v6h-6zM567 303h6v6h-6zM531 315h6v6h-6zM531 327h6v6h-6zM593 288h3v12h-3zM588 293h12v3h-12zM617 288h3v12h-3zM612 293h12v3h-12zM593 324h3v12h-3zM588 329h12v3h-12zM617 324h3v12h-3zM612 329h12v3h-12zM639 291h6v6h-6zM663 291h6v6h-6zM651 303h6v6h-6zM651 315h6v6h-6zM639 327h6v6h-6zM663 327h6v6h-6zM684 288h12v12h-12zM708 288h12v12h-12zM684 324h12v12h-12zM708 324h12v12h-12zM725 288h3v12h-3zM720 293h12v3h-12zM761 288h3v12h-3zM756 293h12v3h-12zM725 324h3v12h-3zM720 329h12v3h-12zM761 324h3v12h-3zM756 329h12v3h-12zM785 288h3v12h-3zM780 293h12v3h-12zM773 300h3v12h-3zM768 305h12v3h-12zM809 312h3v12h-3zM804 317h12v3h-12zM797 324h3v12h-3zM792 329h12v3h-12zM845 288h3v12h-3zM840 293h12v3h-12zM845 300h3v12h-3zM840 305h12v3h-12zM857 300h3v12h-3zM852 305h12v3h-12zM821 312h3v12h-3zM816 317h12v3h-12zM833 312h3v12h-3zM828 317h12v3h-12zM833 324h3v12h-3zM828 329h12v3h-12zM869 288h3v12h-3zM864 293h12v3h-12zM881 288h3v12h-3zM876 293h12v3h-12zM893 324h3v12h-3zM888 329h12v3h-12zM905 324h3v12h-3zM900 329h12v3h-12zM927 291h6v6h-6zM951 291h6v6h-6zM915 303h6v6h-6zM951 315h6v6h-6zM915 327h6v6h-6zM939 327h6v6h-6zM41 336h3v12h-3zM36 341h12v3h-12zM41 348h3v12h-3zM36 353h12v3h-12zM5 360h3v12h-3zM0 365h12v3h-12zM5 372h3v12h-3zM0 377h12v3h-12zM87 411h6v6h-6zM63 339h6v6h-6zM75 339h6v6h-6zM63 351h6v6h-6zM87 351h6v6h-6zM51 363h6v6h-6zM75 363h6v6h-6zM63 375h6v6h-6zM75 375h6v6h-6zM120 336h12v12h-12zM132 336h12v12h-12zM120 348h12v12h-12zM132 348h12v12h-12zM96 360h12v12h-12zM108 360h12v12h-12zM96 372h12v12h-12zM108 372h12v12h-12zM144 336h12v12h-12zM180 336h12v12h-12zM144 360h12v12h-12zM180 360h12v12h-12zM210 354h12v12h-12zM245 336h3v12h-3zM240 341h12v3h-12zM281 336h3v12h-3zM276 341h12v3h-12zM257 348h3v12h-3zM252 353h12v3h-12zM269 348h3v12h-3zM264 353h12v3h-12zM245 360h3v12h-3zM240 365h12v3h-12zM281 360h3v12h-3zM276 365h12v3h-12zM291 339h6v6h-6zM315 339h6v6h-6zM327 351h6v6h-6zM291 363h6v6h-6zM303 375h6v6h-6zM327 375h6v6h-6zM336 336h12v12h-12zM372 336h12v12h-12zM348 348h12v12h-12zM360 348h12v12h-12zM336 372h12v12h-12zM372 372h12v12h-12zM396 336h12v12h-12zM420 336h12v12h-12zM384 348h12v12h-12zM420 360h12v12h-12zM384 372h12v12h-12zM408 372h12v12h-12zM468 408h12v12h-12zM444 336h12v12h-12zM456 336h12v12h-12zM444 348h12v12h-12zM468 348h12v12h-12zM432 360h12v12h-12zM456 360h12v12h-12zM444 372h12v12h-12zM456 372h12v12h-12zM483 339h6v6h-6zM495 351h6v6h-6zM507 363h6v6h-6zM519 375h6v6h-6zM528 336h12v12h-12zM552 336h12v12h-12zM564 348h12v12h-12zM528 360h12v12h-12zM540 372h12v12h-12zM564 372h12v12h-12zM576 336h12v12h-12zM576 348h12v12h-12zM612 360h12v12h-12zM612 372h12v12h-12zM627 339h6v6h-6zM651 339h6v6h-6zM639 351h6v6h-6zM663 351h6v6h-6zM627 363h6v6h-6zM651 363h6v6h-6zM639 375h6v6h-6zM663 375h6v6h-6zM701 336h3v12h-3zM696 341h12v3h-12zM689 348h3v12h-3zM684 353h12v3h-12zM713 348h3v12h-3zM708 353h12v3h-12zM677 360h3v12h-3zM672 365h12v3h-12zM701 360h3v12h-3zM696 365h12v3h-12zM689 372h3v12h-3zM684 377h12v3h-12zM725 336h3v12h-3zM720 341h12v3h-12zM761 336h3v12h-3zM756 341h12v3h-12zM737 360h3v12h-3zM732 365h12v3h-12zM749 360h3v12h-3zM744 365h12v3h-12zM725 372h3v12h-3zM720 377h12v3h-12zM761 372h3v12h-3zM756 377h12v3h-12zM768 336h12v12h-12zM804 336h12v12h-12zM780 348h12v12h-12zM792 360h12v12h-12zM768 372h12v12h-12zM804 372h12v12h-12zM816 348h12v12h-12zM852 348h12v12h-12zM816 360h12v12h-12zM828 360h12v12h-12zM879 339h6v6h-6zM903 339h6v6h-6zM867 351h6v6h-6zM879 351h6v6h-6zM891 363h6v6h-6zM903 363h6v6h-6zM867 375h6v6h-6zM891 375h6v6h-6zM927 339h6v6h-6zM939 339h6v6h-6zM927 375h6v6h-6zM939 375h6v6h-6zM27 387h6v6h-6zM3 399h6v6h-6zM15 399h6v6h-6zM39 399h6v6h-6zM3 411h6v6h-6zM27 411h6v6h-6zM39 411h6v6h-6zM15 423h6v6h-6zM48 384h12v12h-12zM84 384h12v12h-12zM72 396h12v12h-12zM60 408h12v12h-12zM72 408h12v12h-12zM48 420h12v12h-12zM84 420h12v12h-12zM123 387h6v6h-6zM135 387h6v6h-6zM99 423h6v6h-6zM111 423h6v6h-6zM159 387h6v6h-6zM171 387h6v6h-6zM171 399h6v6h-6zM159 423h6v6h-6zM210 402h12v12h-12zM252 384h12v12h-12zM264 384h12v12h-12zM240 396h12v12h-12zM264 396h12v12h-12zM252 408h12v12h-12zM276 408h12v12h-12zM252 420h12v12h-12zM264 420h12v12h-12zM288 384h12v12h-12zM300 384h12v12h-12zM288 396h12v12h-12zM300 396h12v12h-12zM312 408h12v12h-12zM324 408h12v12h-12zM312 420h12v12h-12zM324 420h12v12h-12zM351 387h6v6h-6zM375 387h6v6h-6zM339 399h6v6h-6zM363 399h6v6h-6zM351 411h6v6h-6zM375 411h6v6h-6zM339 423h6v6h-6zM363 423h6v6h-6zM401 384h3v12h-3zM396 389h12v3h-12zM425 384h3v12h-3zM420 389h12v3h-12zM389 396h3v12h-3zM384 401h12v3h-12zM413 396h3v12h-3zM408 401h12v3h-12zM401 408h3v12h-3zM396 413h12v3h-12zM425 408h3v12h-3zM420 413h12v3h-12zM389 420h3v12h-3zM384 425h12v3h-12zM413 420h3v12h-3zM408 425h12v3h-12zM437 384h3v12h-3zM432 389h12v3h-12zM449 396h3v12h-3zM444 401h12v3h-12zM461 408h3v12h-3zM456 413h12v3h-12zM473 420h3v12h-3zM468 425h12v3h-12zM485 384h3v12h-3zM480 389h12v3h-12zM509 384h3v12h-3zM504 389h12v3h-12zM521 396h3v12h-3zM516 401h12v3h-12zM485 408h3v12h-3zM480 413h12v3h-12zM497 420h3v12h-3zM492 425h12v3h-12zM521 420h3v12h-3zM516 425h12v3h-12zM543 387h6v6h-6zM555 411h6v6h-6zM543 423h6v6h-6zM555 423h6v6h-6zM579 387h6v6h-6zM615 387h6v6h-6zM603 399h6v6h-6zM591 411h6v6h-6zM603 411h6v6h-6zM579 423h6v6h-6zM615 423h6v6h-6zM624 384h12v12h-12zM660 384h12v12h-12zM636 396h12v12h-12zM636 408h12v12h-12zM648 408h12v12h-12zM624 420h12v12h-12zM660 420h12v12h-12zM675 387h6v6h-6zM711 387h6v6h-6zM675 411h6v6h-6zM711 411h6v6h-6zM725 384h3v12h-3zM720 389h12v3h-12zM737 396h3v12h-3zM732 401h12v3h-12zM749 408h3v12h-3zM744 413h12v3h-12zM761 420h3v12h-3zM756 425h12v3h-12zM771 387h6v6h-6zM807 387h6v6h-6zM783 399h6v6h-6zM795 399h6v6h-6zM783 411h6v6h-6zM795 411h6v6h-6zM771 423h6v6h-6zM807 423h6v6h-6zM857 384h3v12h-3zM852 389h12v3h-12zM845 396h3v12h-3zM840 401h12v3h-12zM833 408h3v12h-3zM828 413h12v3h-12zM821 420h3v12h-3zM816 425h12v3h-12zM876 384h12v12h-12zM864 396h12v12h-12zM888 396h12v12h-12zM900 396h12v12h-12zM864 408h12v12h-12zM876 408h12v12h-12zM900 408h12v12h-12zM888 420h12v12h-12zM929 384h3v12h-3zM924 389h12v3h-12zM953 384h3v12h-3zM948 389h12v3h-12zM917 396h3v12h-3zM912 401h12v3h-12zM953 408h3v12h-3zM948 413h12v3h-12zM917 420h3v12h-3zM912 425h12v3h-12zM941 420h3v12h-3zM936 425h12v3h-12zM0 432h12v12h-12zM36 432h12v12h-12zM12 444h12v12h-12zM12 456h12v12h-12zM24 456h12v12h-12zM0 468h12v12h-12zM36 468h12v12h-12zM48 432h12v12h-12zM60 432h12v12h-12zM72 468h12v12h-12zM84 468h12v12h-12zM101 432h3v12h-3zM96 437h12v3h-12zM137 432h3v12h-3zM132 437h12v3h-12zM125 444h3v12h-3zM120 449h12v3h-12zM113 456h3v12h-3zM108 461h12v3h-12zM101 468h3v12h-3zM96 473h12v3h-12zM137 468h3v12h-3zM132 473h12v3h-12zM156 432h12v12h-12zM180 432h12v12h-12zM144 444h12v12h-12zM168 444h12v12h-12zM156 456h12v12h-12zM180 456h12v12h-12zM144 468h12v12h-12zM168 468h12v12h-12zM207 435h6v6h-6zM195 447h6v6h-6zM231 459h6v6h-6zM219 471h6v6h-6zM243 435h6v6h-6zM267 435h6v6h-6zM279 435h6v6h-6zM255 447h6v6h-6zM279 447h6v6h-6zM267 459h6v6h-6zM279 471h6v6h-6zM293 432h3v12h-3zM288 437h12v3h-12zM329 432h3v12h-3zM324 437h12v3h-12zM317 444h3v12h-3zM312 449h12v3h-12zM305 456h3v12h-3zM300 461h12v3h-12zM317 456h3v12h-3zM312 461h12v3h-12zM293 468h3v12h-3zM288 473h12v3h-12zM329 468h3v12h-3zM324 473h12v3h-12zM348 432h12v12h-12zM372 432h12v12h-12zM336 444h12v12h-12zM372 456h12v12h-12zM336 468h12v12h-12zM360 468h12v12h-12zM401 432h3v12h-3zM396 437h12v3h-12zM413 432h3v12h-3zM408 437h12v3h-12zM413 444h3v12h-3zM408 449h12v3h-12zM401 468h3v12h-3zM396 473h12v3h-12zM432 432h12v12h-12zM444 432h12v12h-12zM432 444h12v12h-12zM444 444h12v12h-12zM456 456h12v12h-12zM468 456h12v12h-12zM456 468h12v12h-12zM468 468h12v12h-12zM485 432h3v12h-3zM480 437h12v3h-12zM509 432h3v12h-3zM504 437h12v3h-12zM521 444h3v12h-3zM516 449h12v3h-12zM485 456h3v12h-3zM480 461h12v3h-12zM497 468h3v12h-3zM492 473h12v3h-12zM521 468h3v12h-3zM516 473h12v3h-12zM531 435h6v6h-6zM555 435h6v6h-6zM567 435h6v6h-6zM543 447h6v6h-6zM567 447h6v6h-6zM555 459h6v6h-6zM567 471h6v6h-6zM576 444h12v12h-12zM588 444h12v12h-12zM576 456h12v12h-12zM612 456h12v12h-12zM624 432h12v12h-12zM660 432h12v12h-12zM636 444h12v12h-12zM648 444h12v12h-12zM636 456h12v12h-12zM624 468h12v12h-12zM660 468h12v12h-12zM701 432h3v12h-3zM696 437h12v3h-12zM677 444h3v12h-3zM672 449h12v3h-12zM689 444h3v12h-3zM684 449h12v3h-12zM713 444h3v12h-3zM708 449h12v3h-12zM677 456h3v12h-3zM672 461h12v3h-12zM701 456h3v12h-3zM696 461h12v3h-12zM713 456h3v12h-3zM708 461h12v3h-12zM689 468h3v12h-3zM684 473h12v3h-12zM725 432h3v12h-3zM720 437h12v3h-12zM725 444h3v12h-3zM720 449h12v3h-12zM761 456h3v12h-3zM756 461h12v3h-12zM761 468h3v12h-3zM756 473h12v3h-12zM773 432h3v12h-3zM768 437h12v3h-12zM809 432h3v12h-3zM804 437h12v3h-12zM785 444h3v12h-3zM780 449h12v3h-12zM797 456h3v12h-3zM792 461h12v3h-12zM773 468h3v12h-3zM768 473h12v3h-12zM809 468h3v12h-3zM804 473h12v3h-12zM819 435h6v6h-6zM855 435h6v6h-6zM831 459h6v6h-6zM843 459h6v6h-6zM819 471h6v6h-6zM855 471h6v6h-6zM867 435h6v6h-6zM891 435h6v6h-6zM879 447h6v6h-6zM903 447h6v6h-6zM867 459h6v6h-6zM891 459h6v6h-6zM879 471h6v6h-6zM903 471h6v6h-6zM917 444h3v12h-3zM912 449h12v3h-12zM929 444h3v12h-3zM924 449h12v3h-12zM917 456h3v12h-3zM912 461h12v3h-12zM953 456h3v12h-3zM948 461h12v3h-12zM5 480h3v12h-3zM0 485h12v3h-12zM5 492h3v12h-3zM0 497h12v3h-12zM41 504h3v12h-3zM36 509h12v3h-12zM41 516h3v12h-3zM36 521h12v3h-12zM51 495h6v6h-6zM63 495h6v6h-6zM51 507h6v6h-6zM87 507h6v6h-6zM113 480h3v12h-3zM108 485h12v3h-12zM125 480h3v12h-3zM120 485h12v3h-12zM113 516h3v12h-3zM108 521h12v3h-12zM125 516h3v12h-3zM120 521h12v3h-12zM171 483h6v6h-6zM183 495h6v6h-6zM147 507h6v6h-6zM159 519h6v6h-6zM192 480h12v12h-12zM204 492h12v12h-12zM216 504h12v12h-12zM228 516h12v12h-12zM281 480h3v12h-3zM276 485h12v3h-12zM269 492h3v12h-3zM264 497h12v3h-12zM257 504h3v12h-3zM252 509h12v3h-12zM281 504h3v12h-3zM276 509h12v3h-12zM245 516h3v12h-3zM240 521h12v3h-12zM269 516h3v12h-3zM264 521h12v3h-12zM281 516h3v12h-3zM276 521h12v3h-12zM315 483h6v6h-6zM327 483h6v6h-6zM315 495h6v6h-6zM327 495h6v6h-6zM291 507h6v6h-6zM303 507h6v6h-6zM291 519h6v6h-6zM303 519h6v6h-6zM339 483h6v6h-6zM351 483h6v6h-6zM339 495h6v6h-6zM351 495h6v6h-6zM363 507h6v6h-6zM375 507h6v6h-6zM363 519h6v6h-6zM375 519h6v6h-6zM396 480h12v12h-12zM408 480h12v12h-12zM384 492h12v12h-12zM408 492h12v12h-12zM396 504h12v12h-12zM420 504h12v12h-12zM396 516h12v12h-12zM408 516h12v12h-12zM459 483h6v6h-6zM435 495h6v6h-6zM447 495h6v6h-6zM471 495h6v6h-6zM435 507h6v6h-6zM459 507h6v6h-6zM471 507h6v6h-6zM447 519h6v6h-6zM480 480h12v12h-12zM480 492h12v12h-12zM516 504h12v12h-12zM516 516h12v12h-12zM557 480h3v12h-3zM552 485h12v3h-12zM569 480h3v12h-3zM564 485h12v3h-12zM533 516h3v12h-3zM528 521h12v3h-12zM545 516h3v12h-3zM540 521h12v3h-12zM588 480h12v12h-12zM600 480h12v12h-12zM588 516h12v12h-12zM600 516h12v12h-12zM624 480h12v12h-12zM660 480h12v12h-12zM636 504h12v12h-12zM648 504h12v12h-12zM624 516h12v12h-12zM660 516h12v12h-12zM689 480h3v12h-3zM684 485h12v3h-12zM713 480h3v12h-3zM708 485h12v3h-12zM689 516h3v12h-3zM684 521h12v3h-12zM713 516h3v12h-3zM708 521h12v3h-12zM725 480h3v12h-3zM720 485h12v3h-12zM761 480h3v12h-3zM756 485h12v3h-12zM725 516h3v12h-3zM720 521h12v3h-12zM761 516h3v12h-3zM756 521h12v3h-12zM785 480h3v12h-3zM780 485h12v3h-12zM773 492h3v12h-3zM768 497h12v3h-12zM797 492h3v12h-3zM792 497h12v3h-12zM809 492h3v12h-3zM804 497h12v3h-12zM773 504h3v12h-3zM768 509h12v3h-12zM785 504h3v12h-3zM780 509h12v3h-12zM809 504h3v12h-3zM804 509h12v3h-12zM797 516h3v12h-3zM792 521h12v3h-12zM828 480h12v12h-12zM852 480h12v12h-12zM828 516h12v12h-12zM852 516h12v12h-12zM885 501h6v6h-6zM924 480h12v12h-12zM948 480h12v12h-12zM936 492h12v12h-12zM936 504h12v12h-12zM924 516h12v12h-12zM948 516h12v12h-12zM24 528h12v12h-12zM12 540h12v12h-12zM36 540h12v12h-12zM0 552h12v12h-12zM24 552h12v12h-12zM12 564h12v12h-12zM89 528h3v12h-3zM84 533h12v3h-12zM77 540h3v12h-3zM72 545h12v3h-12zM65 552h3v12h-3zM60 557h12v3h-12zM89 552h3v12h-3zM84 557h12v3h-12zM53 564h3v12h-3zM48 569h12v3h-12zM77 564h3v12h-3zM72 569h12v3h-12zM89 564h3v12h-3zM84 569h12v3h-12zM101 528h3v12h-3zM96 533h12v3h-12zM125 528h3v12h-3zM120 533h12v3h-12zM137 540h3v12h-3zM132 545h12v3h-12zM101 552h3v12h-3zM96 557h12v3h-12zM113 564h3v12h-3zM108 569h12v3h-12zM137 564h3v12h-3zM132 569h12v3h-12zM159 531h6v6h-6zM171 555h6v6h-6zM159 567h6v6h-6zM171 567h6v6h-6zM197 528h3v12h-3zM192 533h12v3h-12zM221 528h3v12h-3zM216 533h12v3h-12zM233 528h3v12h-3zM228 533h12v3h-12zM209 540h3v12h-3zM204 545h12v3h-12zM233 540h3v12h-3zM228 545h12v3h-12zM221 552h3v12h-3zM216 557h12v3h-12zM233 564h3v12h-3zM228 569h12v3h-12zM245 540h3v12h-3zM240 545h12v3h-12zM281 540h3v12h-3zM276 545h12v3h-12zM245 552h3v12h-3zM240 557h12v3h-12zM281 552h3v12h-3zM276 557h12v3h-12zM291 531h6v6h-6zM315 531h6v6h-6zM327 543h6v6h-6zM291 555h6v6h-6zM303 567h6v6h-6zM327 567h6v6h-6zM363 531h6v6h-6zM351 543h6v6h-6zM375 543h6v6h-6zM339 555h6v6h-6zM363 555h6v6h-6zM351 567h6v6h-6zM387 531h6v6h-6zM423 531h6v6h-6zM399 543h6v6h-6zM411 543h6v6h-6zM399 555h6v6h-6zM411 555h6v6h-6zM387 567h6v6h-6zM423 567h6v6h-6zM455 546h3v12h-3zM450 551h12v3h-12zM521 528h3v12h-3zM516 533h12v3h-12zM521 540h3v12h-3zM516 545h12v3h-12zM485 552h3v12h-3zM480 557h12v3h-12zM485 564h3v12h-3zM480 569h12v3h-12zM540 528h12v12h-12zM552 528h12v12h-12zM540 564h12v12h-12zM552 564h12v12h-12zM581 540h3v12h-3zM576 545h12v3h-12zM617 540h3v12h-3zM612 545h12v3h-12zM581 552h3v12h-3zM576 557h12v3h-12zM593 552h3v12h-3zM588 557h12v3h-12zM641 528h3v12h-3zM636 533h12v3h-12zM665 528h3v12h-3zM660 533h12v3h-12zM629 540h3v12h-3zM624 545h12v3h-12zM665 552h3v12h-3zM660 557h12v3h-12zM629 564h3v12h-3zM624 569h12v3h-12zM653 564h3v12h-3zM648 569h12v3h-12zM675 531h6v6h-6zM687 543h6v6h-6zM699 555h6v6h-6zM711 567h6v6h-6zM725 528h3v12h-3zM720 533h12v3h-12zM737 528h3v12h-3zM732 533h12v3h-12zM749 564h3v12h-3zM744 569h12v3h-12zM761 564h3v12h-3zM756 569h12v3h-12zM792 528h12v12h-12zM792 540h12v12h-12zM804 540h12v12h-12zM768 552h12v12h-12zM780 552h12v12h-12zM780 564h12v12h-12zM819 531h6v6h-6zM831 531h6v6h-6zM819 543h6v6h-6zM831 543h6v6h-6zM843 555h6v6h-6zM855 555h6v6h-6zM843 567h6v6h-6zM855 567h6v6h-6zM867 531h6v6h-6zM891 531h6v6h-6zM903 543h6v6h-6zM867 555h6v6h-6zM879 567h6v6h-6zM903 567h6v6h-6zM929 528h3v12h-3zM924 533h12v3h-12zM917 540h3v12h-3zM912 545h12v3h-12zM941 540h3v12h-3zM936 545h12v3h-12zM929 552h3v12h-3zM924 557h12v3h-12zM953 552h3v12h-3zM948 557h12v3h-12zM941 564h3v12h-3zM936 569h12v3h-12zM24 576h12v12h-12zM36 576h12v12h-12zM24 588h12v12h-12zM36 588h12v12h-12zM0 600h12v12h-12zM12 600h12v12h-12zM0 612h12v12h-12zM12 612h12v12h-12zM53 576h3v12h-3zM48 581h12v3h-12zM53 588h3v12h-3zM48 593h12v3h-12zM89 600h3v12h-3zM84 605h12v3h-12zM89 612h3v12h-3zM84 617h12v3h-12zM96 576h12v12h-12zM108 576h12v12h-12zM132 576h12v12h-12zM96 588h12v12h-12zM120 588h12v12h-12zM108 600h12v12h-12zM96 612h12v12h-12zM147 579h6v6h-6zM183 579h6v6h-6zM159 603h6v6h-6zM171 603h6v6h-6zM147 615h6v6h-6zM183 615h6v6h-6zM219 579h6v6h-6zM207 591h6v6h-6zM231 591h6v6h-6zM195 603h6v6h-6zM219 603h6v6h-6zM207 615h6v6h-6zM245 588h3v12h-3zM240 593h12v3h-12zM281 588h3v12h-3zM276 593h12v3h-12zM245 600h3v12h-3zM240 605h12v3h-12zM281 600h3v12h-3zM276 605h12v3h-12zM327 579h6v6h-6zM315 591h6v6h-6zM303 603h6v6h-6zM327 603h6v6h-6zM291 615h6v6h-6zM315 615h6v6h-6zM327 615h6v6h-6zM339 579h6v6h-6zM375 579h6v6h-6zM351 591h6v6h-6zM363 603h6v6h-6zM339 615h6v6h-6zM375 615h6v6h-6zM420 576h12v12h-12zM408 588h12v12h-12zM396 600h12v12h-12zM384 612h12v12h-12zM444 576h12v12h-12zM456 576h12v12h-12zM456 588h12v12h-12zM444 612h12v12h-12zM495 591h6v6h-6zM507 591h6v6h-6zM495 603h6v6h-6zM507 603h6v6h-6zM531 579h6v6h-6zM555 579h6v6h-6zM555 591h6v6h-6zM567 591h6v6h-6zM531 603h6v6h-6zM543 603h6v6h-6zM543 615h6v6h-6zM567 615h6v6h-6zM579 579h6v6h-6zM615 579h6v6h-6zM603 591h6v6h-6zM591 603h6v6h-6zM579 615h6v6h-6zM615 615h6v6h-6zM629 588h3v12h-3zM624 593h12v3h-12zM665 588h3v12h-3zM660 593h12v3h-12zM629 600h3v12h-3zM624 605h12v3h-12zM641 600h3v12h-3zM636 605h12v3h-12zM672 576h12v12h-12zM696 576h12v12h-12zM684 588h12v12h-12zM708 588h12v12h-12zM672 600h12v12h-12zM696 600h12v12h-12zM684 612h12v12h-12zM708 612h12v12h-12zM725 576h3v12h-3zM720 581h12v3h-12zM761 576h3v12h-3zM756 581h12v3h-12zM725 600h3v12h-3zM720 605h12v3h-12zM761 600h3v12h-3zM756 605h12v3h-12zM768 576h12v12h-12zM780 576h12v12h-12zM768 588h12v12h-12zM780 588h12v12h-12zM792 600h12v12h-12zM804 600h12v12h-12zM792 612h12v12h-12zM804 612h12v12h-12zM819 579h6v6h-6zM855 579h6v6h-6zM831 591h6v6h-6zM843 591h6v6h-6zM831 603h6v6h-6zM819 615h6v6h-6zM855 615h6v6h-6zM881 576h3v12h-3zM876 581h12v3h-12zM905 576h3v12h-3zM900 581h12v3h-12zM881 612h3v12h-3zM876 617h12v3h-12zM905 612h3v12h-3zM900 617h12v3h-12zM917 576h3v12h-3zM912 581h12v3h-12zM929 576h3v12h-3zM924 581h12v3h-12zM941 612h3v12h-3zM936 617h12v3h-12zM953 612h3v12h-3zM948 617h12v3h-12zM12 624h12v12h-12zM24 624h12v12h-12zM12 660h12v12h-12zM24 660h12v12h-12zM87 627h6v6h-6zM75 639h6v6h-6zM63 651h6v6h-6zM87 651h6v6h-6zM51 663h6v6h-6zM75 663h6v6h-6zM87 663h6v6h-6zM101 624h3v12h-3zM96 629h12v3h-12zM137 624h3v12h-3zM132 629h12v3h-12zM101 660h3v12h-3zM96 665h12v3h-12zM137 660h3v12h-3zM132 665h12v3h-12zM144 624h12v12h-12zM180 624h12v12h-12zM156 636h12v12h-12zM168 636h12v12h-12zM144 660h12v12h-12zM180 660h12v12h-12zM209 624h3v12h-3zM204 629h12v3h-12zM233 624h3v12h-3zM228 629h12v3h-12zM221 636h3v12h-3zM216 641h12v3h-12zM221 648h3v12h-3zM216 653h12v3h-12zM209 660h3v12h-3zM204 665h12v3h-12zM233 660h3v12h-3zM228 665h12v3h-12zM243 639h6v6h-6zM279 639h6v6h-6zM243 651h6v6h-6zM255 651h6v6h-6zM291 627h6v6h-6zM303 639h6v6h-6zM291 651h6v6h-6zM315 651h6v6h-6zM291 663h6v6h-6zM303 663h6v6h-6zM327 663h6v6h-6zM372 624h12v12h-12zM360 636h12v12h-12zM348 648h12v12h-12zM372 648h12v12h-12zM336 660h12v12h-12zM360 660h12v12h-12zM372 660h12v12h-12zM401 624h3v12h-3zM396 629h12v3h-12zM425 624h3v12h-3zM420 629h12v3h-12zM389 636h3v12h-3zM384 641h12v3h-12zM401 636h3v12h-3zM396 641h12v3h-12zM413 648h3v12h-3zM408 653h12v3h-12zM425 648h3v12h-3zM420 653h12v3h-12zM389 660h3v12h-3zM384 665h12v3h-12zM413 660h3v12h-3zM408 665h12v3h-12zM437 624h3v12h-3zM432 629h12v3h-12zM461 624h3v12h-3zM456 629h12v3h-12zM461 636h3v12h-3zM456 641h12v3h-12zM473 636h3v12h-3zM468 641h12v3h-12zM437 648h3v12h-3zM432 653h12v3h-12zM449 648h3v12h-3zM444 653h12v3h-12zM449 660h3v12h-3zM444 665h12v3h-12zM473 660h3v12h-3zM468 665h12v3h-12zM485 624h3v12h-3zM480 629h12v3h-12zM497 624h3v12h-3zM492 629h12v3h-12zM509 660h3v12h-3zM504 665h12v3h-12zM521 660h3v12h-3zM516 665h12v3h-12zM540 624h12v12h-12zM564 624h12v12h-12zM528 636h12v12h-12zM552 636h12v12h-12zM540 648h12v12h-12zM564 648h12v12h-12zM528 660h12v12h-12zM552 660h12v12h-12zM593 624h3v12h-3zM588 629h12v3h-12zM617 624h3v12h-3zM612 629h12v3h-12zM581 636h3v12h-3zM576 641h12v3h-12zM593 636h3v12h-3zM588 641h12v3h-12zM605 648h3v12h-3zM600 653h12v3h-12zM617 648h3v12h-3zM612 653h12v3h-12zM581 660h3v12h-3zM576 665h12v3h-12zM605 660h3v12h-3zM600 665h12v3h-12zM636 624h12v12h-12zM624 636h12v12h-12zM648 636h12v12h-12zM660 636h12v12h-12zM624 648h12v12h-12zM636 648h12v12h-12zM660 648h12v12h-12zM648 660h12v12h-12zM677 624h3v12h-3zM672 629h12v3h-12zM713 624h3v12h-3zM708 629h12v3h-12zM677 648h3v12h-3zM672 653h12v3h-12zM713 648h3v12h-3zM708 653h12v3h-12zM749 624h3v12h-3zM744 629h12v3h-12zM737 636h3v12h-3zM732 641h12v3h-12zM761 636h3v12h-3zM756 641h12v3h-12zM725 648h3v12h-3zM720 653h12v3h-12zM749 648h3v12h-3zM744 653h12v3h-12zM737 660h3v12h-3zM732 665h12v3h-12zM768 624h12v12h-12zM780 636h12v12h-12zM768 648h12v12h-12zM792 648h12v12h-12zM768 660h12v12h-12zM780 660h12v12h-12zM804 660h12v12h-12zM833 624h3v12h-3zM828 629h12v3h-12zM857 624h3v12h-3zM852 629h12v3h-12zM821 636h3v12h-3zM816 641h12v3h-12zM845 636h3v12h-3zM840 641h12v3h-12zM833 648h3v12h-3zM828 653h12v3h-12zM857 648h3v12h-3zM852 653h12v3h-12zM821 660h3v12h-3zM816 665h12v3h-12zM845 660h3v12h-3zM840 665h12v3h-12zM864 624h12v12h-12zM876 624h12v12h-12zM900 624h12v12h-12zM864 636h12v12h-12zM888 636h12v12h-12zM876 648h12v12h-12zM864 660h12v12h-12zM915 627h6v6h-6zM939 627h6v6h-6zM951 639h6v6h-6zM915 651h6v6h-6zM927 663h6v6h-6zM951 663h6v6h-6zM5 672h3v12h-3zM0 677h12v3h-12zM41 672h3v12h-3zM36 677h12v3h-12zM17 684h3v12h-3zM12 689h12v3h-12zM29 696h3v12h-3zM24 701h12v3h-12zM5 708h3v12h-3zM0 713h12v3h-12zM41 708h3v12h-3zM36 713h12v3h-12zM53 672h3v12h-3zM48 677h12v3h-12zM89 672h3v12h-3zM84 677h12v3h-12zM65 684h3v12h-3zM60 689h12v3h-12zM77 684h3v12h-3zM72 689h12v3h-12zM53 696h3v12h-3zM48 701h12v3h-12zM89 696h3v12h-3zM84 701h12v3h-12zM101 672h3v12h-3zM96 677h12v3h-12zM137 672h3v12h-3zM132 677h12v3h-12zM113 684h3v12h-3zM108 689h12v3h-12zM125 684h3v12h-3zM120 689h12v3h-12zM113 696h3v12h-3zM108 701h12v3h-12zM125 696h3v12h-3zM120 701h12v3h-12zM101 708h3v12h-3zM96 713h12v3h-12zM137 708h3v12h-3zM132 713h12v3h-12zM161 672h3v12h-3zM156 677h12v3h-12zM185 672h3v12h-3zM180 677h12v3h-12zM161 708h3v12h-3zM156 713h12v3h-12zM185 708h3v12h-3zM180 713h12v3h-12zM204 672h12v12h-12zM228 672h12v12h-12zM192 684h12v12h-12zM228 696h12v12h-12zM192 708h12v12h-12zM216 708h12v12h-12zM240 684h12v12h-12zM276 684h12v12h-12zM240 696h12v12h-12zM276 696h12v12h-12zM293 672h3v12h-3zM288 677h12v3h-12zM305 672h3v12h-3zM300 677h12v3h-12zM329 672h3v12h-3zM324 677h12v3h-12zM293 684h3v12h-3zM288 689h12v3h-12zM317 684h3v12h-3zM312 689h12v3h-12zM305 696h3v12h-3zM300 701h12v3h-12zM293 708h3v12h-3zM288 713h12v3h-12zM363 675h6v6h-6zM363 687h6v6h-6zM375 687h6v6h-6zM339 699h6v6h-6zM351 699h6v6h-6zM351 711h6v6h-6zM401 672h3v12h-3zM396 677h12v3h-12zM389 684h3v12h-3zM384 689h12v3h-12zM413 684h3v12h-3zM408 689h12v3h-12zM401 696h3v12h-3zM396 701h12v3h-12zM425 696h3v12h-3zM420 701h12v3h-12zM413 708h3v12h-3zM408 713h12v3h-12zM447 687h6v6h-6zM459 687h6v6h-6zM447 699h6v6h-6zM459 699h6v6h-6zM492 672h12v12h-12zM516 672h12v12h-12zM480 684h12v12h-12zM504 684h12v12h-12zM492 696h12v12h-12zM516 696h12v12h-12zM480 708h12v12h-12zM504 708h12v12h-12zM552 672h12v12h-12zM540 684h12v12h-12zM564 684h12v12h-12zM528 696h12v12h-12zM552 696h12v12h-12zM540 708h12v12h-12zM603 675h6v6h-6zM591 687h6v6h-6zM615 687h6v6h-6zM579 699h6v6h-6zM603 699h6v6h-6zM591 711h6v6h-6zM641 672h3v12h-3zM636 677h12v3h-12zM665 672h3v12h-3zM660 677h12v3h-12zM629 684h3v12h-3zM624 689h12v3h-12zM665 696h3v12h-3zM660 701h12v3h-12zM629 708h3v12h-3zM624 713h12v3h-12zM653 708h3v12h-3zM648 713h12v3h-12zM677 672h3v12h-3zM672 677h12v3h-12zM713 672h3v12h-3zM708 677h12v3h-12zM689 684h3v12h-3zM684 689h12v3h-12zM701 684h3v12h-3zM696 689h12v3h-12zM677 708h3v12h-3zM672 713h12v3h-12zM713 708h3v12h-3zM708 713h12v3h-12zM737 672h3v12h-3zM732 677h12v3h-12zM725 684h3v12h-3zM720 689h12v3h-12zM761 696h3v12h-3zM756 701h12v3h-12zM749 708h3v12h-3zM744 713h12v3h-12zM783 675h6v6h-6zM807 675h6v6h-6zM771 687h6v6h-6zM783 687h6v6h-6zM795 699h6v6h-6zM807 699h6v6h-6zM771 711h6v6h-6zM795 711h6v6h-6zM831 675h6v6h-6zM843 699h6v6h-6zM831 711h6v6h-6zM843 711h6v6h-6zM900 744h12v12h-12zM876 672h12v12h-12zM888 672h12v12h-12zM876 684h12v12h-12zM900 684h12v12h-12zM864 696h12v12h-12zM888 696h12v12h-12zM876 708h12v12h-12zM888 708h12v12h-12zM948 672h12v12h-12zM936 684h12v12h-12zM924 696h12v12h-12zM948 696h12v12h-12zM912 708h12v12h-12zM936 708h12v12h-12zM948 708h12v12h-12zM36 720h12v12h-12zM36 732h12v12h-12zM0 744h12v12h-12zM0 756h12v12h-12zM51 723h6v6h-6zM63 723h6v6h-6zM75 759h6v6h-6zM87 759h6v6h-6zM111 723h6v6h-6zM99 735h6v6h-6zM123 735h6v6h-6zM111 747h6v6h-6zM135 747h6v6h-6zM123 759h6v6h-6zM161 720h3v12h-3zM156 725h12v3h-12zM185 720h3v12h-3zM180 725h12v3h-12zM161 756h3v12h-3zM156 761h12v3h-12zM185 756h3v12h-3zM180 761h12v3h-12zM209 720h3v12h-3zM204 725h12v3h-12zM233 720h3v12h-3zM228 725h12v3h-12zM197 732h3v12h-3zM192 737h12v3h-12zM209 732h3v12h-3zM204 737h12v3h-12zM221 744h3v12h-3zM216 749h12v3h-12zM233 744h3v12h-3zM228 749h12v3h-12zM197 756h3v12h-3zM192 761h12v3h-12zM221 756h3v12h-3zM216 761h12v3h-12zM245 720h3v12h-3zM240 725h12v3h-12zM281 720h3v12h-3zM276 725h12v3h-12zM257 732h3v12h-3zM252 737h12v3h-12zM269 732h3v12h-3zM264 737h12v3h-12zM257 744h3v12h-3zM252 749h12v3h-12zM269 744h3v12h-3zM264 749h12v3h-12zM245 756h3v12h-3zM240 761h12v3h-12zM281 756h3v12h-3zM276 761h12v3h-12zM293 720h3v12h-3zM288 725h12v3h-12zM305 720h3v12h-3zM300 725h12v3h-12zM329 720h3v12h-3zM324 725h12v3h-12zM293 732h3v12h-3zM288 737h12v3h-12zM317 732h3v12h-3zM312 737h12v3h-12zM305 744h3v12h-3zM300 749h12v3h-12zM293 756h3v12h-3zM288 761h12v3h-12zM377 720h3v12h-3zM372 725h12v3h-12zM365 732h3v12h-3zM360 737h12v3h-12zM353 744h3v12h-3zM348 749h12v3h-12zM341 756h3v12h-3zM336 761h12v3h-12zM389 720h3v12h-3zM384 725h12v3h-12zM425 720h3v12h-3zM420 725h12v3h-12zM401 744h3v12h-3zM396 749h12v3h-12zM413 744h3v12h-3zM408 749h12v3h-12zM389 756h3v12h-3zM384 761h12v3h-12zM425 756h3v12h-3zM420 761h12v3h-12zM449 720h3v12h-3zM444 725h12v3h-12zM461 720h3v12h-3zM456 725h12v3h-12zM437 732h3v12h-3zM432 737h12v3h-12zM461 732h3v12h-3zM456 737h12v3h-12zM449 744h3v12h-3zM444 749h12v3h-12zM473 744h3v12h-3zM468 749h12v3h-12zM449 756h3v12h-3zM444 761h12v3h-12zM461 756h3v12h-3zM456 761h12v3h-12zM485 720h3v12h-3zM480 725h12v3h-12zM521 720h3v12h-3zM516 725h12v3h-12zM497 732h3v12h-3zM492 737h12v3h-12zM509 732h3v12h-3zM504 737h12v3h-12zM485 756h3v12h-3zM480 761h12v3h-12zM521 756h3v12h-3zM516 761h12v3h-12zM533 720h3v12h-3zM528 725h12v3h-12zM569 720h3v12h-3zM564 725h12v3h-12zM545 732h3v12h-3zM540 737h12v3h-12zM557 744h3v12h-3zM552 749h12v3h-12zM533 756h3v12h-3zM528 761h12v3h-12zM569 756h3v12h-3zM564 761h12v3h-12zM591 723h6v6h-6zM603 747h6v6h-6zM591 759h6v6h-6zM603 759h6v6h-6zM660 720h12v12h-12zM660 732h12v12h-12zM624 744h12v12h-12zM624 756h12v12h-12zM675 723h6v6h-6zM711 723h6v6h-6zM687 735h6v6h-6zM699 735h6v6h-6zM687 747h6v6h-6zM699 747h6v6h-6zM675 759h6v6h-6zM711 759h6v6h-6zM725 720h3v12h-3zM720 725h12v3h-12zM761 720h3v12h-3zM756 725h12v3h-12zM737 732h3v12h-3zM732 737h12v3h-12zM749 732h3v12h-3zM744 737h12v3h-12zM725 756h3v12h-3zM720 761h12v3h-12zM761 756h3v12h-3zM756 761h12v3h-12zM785 720h3v12h-3zM780 725h12v3h-12zM773 732h3v12h-3zM768 737h12v3h-12zM797 732h3v12h-3zM792 737h12v3h-12zM785 744h3v12h-3zM780 749h12v3h-12zM809 744h3v12h-3zM804 749h12v3h-12zM797 756h3v12h-3zM792 761h12v3h-12zM845 720h3v12h-3zM840 725h12v3h-12zM821 732h3v12h-3zM816 737h12v3h-12zM833 732h3v12h-3zM828 737h12v3h-12zM857 732h3v12h-3zM852 737h12v3h-12zM821 744h3v12h-3zM816 749h12v3h-12zM845 744h3v12h-3zM840 749h12v3h-12zM857 744h3v12h-3zM852 749h12v3h-12zM833 756h3v12h-3zM828 761h12v3h-12zM869 732h3v12h-3zM864 737h12v3h-12zM881 732h3v12h-3zM876 737h12v3h-12zM869 744h3v12h-3zM864 749h12v3h-12zM905 744h3v12h-3zM900 749h12v3h-12zM927 723h6v6h-6zM939 747h6v6h-6zM927 759h6v6h-6zM939 759h6v6h-6zM41 768h3v12h-3zM36 773h12v3h-12zM29 780h3v12h-3zM24 785h12v3h-12zM17 792h3v12h-3zM12 797h12v3h-12zM41 792h3v12h-3zM36 797h12v3h-12zM5 804h3v12h-3zM0 809h12v3h-12zM29 804h3v12h-3zM24 809h12v3h-12zM41 804h3v12h-3zM36 809h12v3h-12zM65 768h3v12h-3zM60 773h12v3h-12zM89 768h3v12h-3zM84 773h12v3h-12zM53 780h3v12h-3zM48 785h12v3h-12zM77 780h3v12h-3zM72 785h12v3h-12zM65 792h3v12h-3zM60 797h12v3h-12zM89 792h3v12h-3zM84 797h12v3h-12zM53 804h3v12h-3zM48 809h12v3h-12zM77 804h3v12h-3zM72 809h12v3h-12zM111 771h6v6h-6zM99 783h6v6h-6zM135 795h6v6h-6zM123 807h6v6h-6zM161 768h3v12h-3zM156 773h12v3h-12zM173 768h3v12h-3zM168 773h12v3h-12zM173 780h3v12h-3zM168 785h12v3h-12zM161 804h3v12h-3zM156 809h12v3h-12zM197 768h3v12h-3zM192 773h12v3h-12zM233 768h3v12h-3zM228 773h12v3h-12zM209 792h3v12h-3zM204 797h12v3h-12zM221 792h3v12h-3zM216 797h12v3h-12zM197 804h3v12h-3zM192 809h12v3h-12zM233 804h3v12h-3zM228 809h12v3h-12zM267 771h6v6h-6zM267 783h6v6h-6zM279 783h6v6h-6zM243 795h6v6h-6zM255 795h6v6h-6zM255 807h6v6h-6zM293 768h3v12h-3zM288 773h12v3h-12zM329 768h3v12h-3zM324 773h12v3h-12zM317 780h3v12h-3zM312 785h12v3h-12zM305 792h3v12h-3zM300 797h12v3h-12zM293 804h3v12h-3zM288 809h12v3h-12zM329 804h3v12h-3zM324 809h12v3h-12zM336 768h12v12h-12zM372 768h12v12h-12zM360 780h12v12h-12zM348 792h12v12h-12zM336 804h12v12h-12zM372 804h12v12h-12zM401 768h3v12h-3zM396 773h12v3h-12zM413 768h3v12h-3zM408 773h12v3h-12zM413 780h3v12h-3zM408 785h12v3h-12zM401 804h3v12h-3zM396 809h12v3h-12zM444 768h12v12h-12zM468 768h12v12h-12zM432 780h12v12h-12zM456 780h12v12h-12zM444 792h12v12h-12zM468 792h12v12h-12zM432 804h12v12h-12zM456 804h12v12h-12zM483 783h6v6h-6zM519 783h6v6h-6zM483 795h6v6h-6zM519 795h6v6h-6zM528 768h12v12h-12zM552 768h12v12h-12zM540 780h12v12h-12zM564 780h12v12h-12zM528 792h12v12h-12zM552 792h12v12h-12zM540 804h12v12h-12zM564 804h12v12h-12zM581 780h3v12h-3zM576 785h12v3h-12zM593 780h3v12h-3zM588 785h12v3h-12zM581 792h3v12h-3zM576 797h12v3h-12zM617 792h3v12h-3zM612 797h12v3h-12zM629 768h3v12h-3zM624 773h12v3h-12zM665 768h3v12h-3zM660 773h12v3h-12zM641 780h3v12h-3zM636 785h12v3h-12zM653 780h3v12h-3zM648 785h12v3h-12zM653 792h3v12h-3zM648 797h12v3h-12zM629 804h3v12h-3zM624 809h12v3h-12zM665 804h3v12h-3zM660 809h12v3h-12zM687 771h6v6h-6zM699 771h6v6h-6zM675 783h6v6h-6zM699 783h6v6h-6zM687 795h6v6h-6zM711 795h6v6h-6zM687 807h6v6h-6zM699 807h6v6h-6zM725 768h3v12h-3zM720 773h12v3h-12zM761 768h3v12h-3zM756 773h12v3h-12zM737 780h3v12h-3zM732 785h12v3h-12zM749 780h3v12h-3zM744 785h12v3h-12zM737 792h3v12h-3zM732 797h12v3h-12zM749 792h3v12h-3zM744 797h12v3h-12zM725 804h3v12h-3zM720 809h12v3h-12zM761 804h3v12h-3zM756 809h12v3h-12zM771 771h6v6h-6zM795 771h6v6h-6zM783 783h6v6h-6zM807 783h6v6h-6zM771 795h6v6h-6zM795 795h6v6h-6zM783 807h6v6h-6zM807 807h6v6h-6zM828 768h12v12h-12zM840 768h12v12h-12zM816 780h12v12h-12zM840 780h12v12h-12zM828 792h12v12h-12zM852 792h12v12h-12zM828 804h12v12h-12zM840 804h12v12h-12zM869 768h3v12h-3zM864 773h12v3h-12zM881 780h3v12h-3zM876 785h12v3h-12zM869 792h3v12h-3zM864 797h12v3h-12zM893 792h3v12h-3zM888 797h12v3h-12zM869 804h3v12h-3zM864 809h12v3h-12zM881 804h3v12h-3zM876 809h12v3h-12zM905 804h3v12h-3zM900 809h12v3h-12zM917 768h3v12h-3zM912 773h12v3h-12zM929 780h3v12h-3zM924 785h12v3h-12zM917 792h3v12h-3zM912 797h12v3h-12zM941 792h3v12h-3zM936 797h12v3h-12zM917 804h3v12h-3zM912 809h12v3h-12zM929 804h3v12h-3zM924 809h12v3h-12zM953 804h3v12h-3zM948 809h12v3h-12zM3 819h6v6h-6zM39 819h6v6h-6zM27 831h6v6h-6zM15 843h6v6h-6zM27 843h6v6h-6zM3 855h6v6h-6zM39 855h6v6h-6zM75 819h6v6h-6zM87 831h6v6h-6zM51 843h6v6h-6zM63 855h6v6h-6zM96 816h12v12h-12zM132 816h12v12h-12zM120 828h12v12h-12zM108 840h12v12h-12zM96 852h12v12h-12zM132 852h12v12h-12zM149 816h3v12h-3zM144 821h12v3h-12zM185 816h3v12h-3zM180 821h12v3h-12zM149 840h3v12h-3zM144 845h12v3h-12zM185 840h3v12h-3zM180 845h12v3h-12zM231 819h6v6h-6zM231 831h6v6h-6zM195 843h6v6h-6zM195 855h6v6h-6zM245 816h3v12h-3zM240 821h12v3h-12zM257 828h3v12h-3zM252 833h12v3h-12zM245 840h3v12h-3zM240 845h12v3h-12zM269 840h3v12h-3zM264 845h12v3h-12zM245 852h3v12h-3zM240 857h12v3h-12zM257 852h3v12h-3zM252 857h12v3h-12zM281 852h3v12h-3zM276 857h12v3h-12zM312 816h12v12h-12zM300 828h12v12h-12zM324 828h12v12h-12zM288 840h12v12h-12zM312 840h12v12h-12zM300 852h12v12h-12zM353 816h3v12h-3zM348 821h12v3h-12zM365 840h3v12h-3zM360 845h12v3h-12zM353 852h3v12h-3zM348 857h12v3h-12zM365 852h3v12h-3zM360 857h12v3h-12zM401 816h3v12h-3zM396 821h12v3h-12zM389 828h3v12h-3zM384 833h12v3h-12zM425 840h3v12h-3zM420 845h12v3h-12zM413 852h3v12h-3zM408 857h12v3h-12zM471 819h6v6h-6zM459 831h6v6h-6zM447 843h6v6h-6zM435 855h6v6h-6zM509 816h3v12h-3zM504 821h12v3h-12zM521 828h3v12h-3zM516 833h12v3h-12zM485 840h3v12h-3zM480 845h12v3h-12zM497 852h3v12h-3zM492 857h12v3h-12zM552 816h12v12h-12zM540 828h12v12h-12zM564 828h12v12h-12zM528 840h12v12h-12zM552 840h12v12h-12zM540 852h12v12h-12zM600 816h12v12h-12zM600 828h12v12h-12zM612 828h12v12h-12zM576 840h12v12h-12zM588 840h12v12h-12zM588 852h12v12h-12zM641 816h3v12h-3zM636 821h12v3h-12zM665 816h3v12h-3zM660 821h12v3h-12zM629 828h3v12h-3zM624 833h12v3h-12zM641 828h3v12h-3zM636 833h12v3h-12zM653 840h3v12h-3zM648 845h12v3h-12zM665 840h3v12h-3zM660 845h12v3h-12zM629 852h3v12h-3zM624 857h12v3h-12zM653 852h3v12h-3zM648 857h12v3h-12zM672 816h12v12h-12zM684 816h12v12h-12zM672 828h12v12h-12zM684 828h12v12h-12zM696 840h12v12h-12zM708 840h12v12h-12zM696 852h12v12h-12zM708 852h12v12h-12zM720 816h12v12h-12zM756 816h12v12h-12zM732 828h12v12h-12zM744 828h12v12h-12zM720 852h12v12h-12zM756 852h12v12h-12zM771 831h6v6h-6zM783 831h6v6h-6zM771 843h6v6h-6zM807 843h6v6h-6zM816 816h12v12h-12zM828 816h12v12h-12zM840 852h12v12h-12zM852 852h12v12h-12zM869 816h3v12h-3zM864 821h12v3h-12zM905 816h3v12h-3zM900 821h12v3h-12zM869 840h3v12h-3zM864 845h12v3h-12zM905 840h3v12h-3zM900 845h12v3h-12zM951 819h6v6h-6zM939 831h6v6h-6zM927 843h6v6h-6zM915 855h6v6h-6zM27 867h6v6h-6zM3 879h6v6h-6zM15 879h6v6h-6zM39 879h6v6h-6zM3 891h6v6h-6zM27 891h6v6h-6zM39 891h6v6h-6zM15 903h6v6h-6zM53 876h3v12h-3zM48 881h12v3h-12zM65 876h3v12h-3zM60 881h12v3h-12zM53 888h3v12h-3zM48 893h12v3h-12zM89 888h3v12h-3zM84 893h12v3h-12zM117 885h6v6h-6zM180 936h12v12h-12zM156 864h12v12h-12zM168 864h12v12h-12zM156 876h12v12h-12zM180 876h12v12h-12zM144 888h12v12h-12zM168 888h12v12h-12zM156 900h12v12h-12zM168 900h12v12h-12zM233 936h3v12h-3zM228 941h12v3h-12zM209 864h3v12h-3zM204 869h12v3h-12zM221 864h3v12h-3zM216 869h12v3h-12zM209 876h3v12h-3zM204 881h12v3h-12zM233 876h3v12h-3zM228 881h12v3h-12zM197 888h3v12h-3zM192 893h12v3h-12zM221 888h3v12h-3zM216 893h12v3h-12zM209 900h3v12h-3zM204 905h12v3h-12zM221 900h3v12h-3zM216 905h12v3h-12zM267 867h6v6h-6zM267 879h6v6h-6zM279 879h6v6h-6zM243 891h6v6h-6zM255 891h6v6h-6zM255 903h6v6h-6zM291 867h6v6h-6zM315 867h6v6h-6zM327 879h6v6h-6zM291 891h6v6h-6zM303 903h6v6h-6zM327 903h6v6h-6zM341 876h3v12h-3zM336 881h12v3h-12zM377 876h3v12h-3zM372 881h12v3h-12zM341 888h3v12h-3zM336 893h12v3h-12zM377 888h3v12h-3zM372 893h12v3h-12zM420 864h12v12h-12zM408 876h12v12h-12zM396 888h12v12h-12zM420 888h12v12h-12zM384 900h12v12h-12zM408 900h12v12h-12zM420 900h12v12h-12zM449 864h3v12h-3zM444 869h12v3h-12zM461 864h3v12h-3zM456 869h12v3h-12zM437 876h3v12h-3zM432 881h12v3h-12zM461 876h3v12h-3zM456 881h12v3h-12zM449 888h3v12h-3zM444 893h12v3h-12zM473 888h3v12h-3zM468 893h12v3h-12zM449 900h3v12h-3zM444 905h12v3h-12zM461 900h3v12h-3zM456 905h12v3h-12zM519 867h6v6h-6zM519 879h6v6h-6zM483 891h6v6h-6zM483 903h6v6h-6zM528 864h12v12h-12zM564 864h12v12h-12zM540 876h12v12h-12zM552 876h12v12h-12zM528 888h12v12h-12zM564 888h12v12h-12zM600 864h12v12h-12zM612 864h12v12h-12zM600 876h12v12h-12zM612 876h12v12h-12zM576 888h12v12h-12zM588 888h12v12h-12zM576 900h12v12h-12zM588 900h12v12h-12zM639 867h6v6h-6zM651 891h6v6h-6zM639 903h6v6h-6zM651 903h6v6h-6zM675 867h6v6h-6zM711 867h6v6h-6zM687 879h6v6h-6zM699 879h6v6h-6zM687 891h6v6h-6zM675 903h6v6h-6zM711 903h6v6h-6zM723 867h6v6h-6zM747 867h6v6h-6zM747 879h6v6h-6zM759 879h6v6h-6zM723 891h6v6h-6zM735 891h6v6h-6zM735 903h6v6h-6zM759 903h6v6h-6zM807 867h6v6h-6zM795 879h6v6h-6zM783 891h6v6h-6zM807 891h6v6h-6zM771 903h6v6h-6zM795 903h6v6h-6zM807 903h6v6h-6zM819 867h6v6h-6zM831 867h6v6h-6zM855 867h6v6h-6zM819 879h6v6h-6zM843 879h6v6h-6zM831 891h6v6h-6zM819 903h6v6h-6zM864 864h12v12h-12zM900 864h12v12h-12zM876 876h12v12h-12zM888 876h12v12h-12zM876 888h12v12h-12zM864 900h12v12h-12zM900 900h12v12h-12zM912 864h12v12h-12zM948 864h12v12h-12zM924 876h12v12h-12zM936 876h12v12h-12zM924 888h12v12h-12zM912 900h12v12h-12zM948 900h12v12h-12zM27 915h6v6h-6zM39 915h6v6h-6zM27 927h6v6h-6zM39 927h6v6h-6zM3 939h6v6h-6zM15 939h6v6h-6zM3 951h6v6h-6zM15 951h6v6h-6zM51 915h6v6h-6zM63 915h6v6h-6zM51 927h6v6h-6zM63 927h6v6h-6zM75 939h6v6h-6zM87 939h6v6h-6zM75 951h6v6h-6zM87 951h6v6h-6zM125 912h3v12h-3zM120 917h12v3h-12zM125 924h3v12h-3zM120 929h12v3h-12zM137 924h3v12h-3zM132 929h12v3h-12zM101 936h3v12h-3zM96 941h12v3h-12zM113 936h3v12h-3zM108 941h12v3h-12zM113 948h3v12h-3zM108 953h12v3h-12zM161 912h3v12h-3zM156 917h12v3h-12zM185 912h3v12h-3zM180 917h12v3h-12zM149 924h3v12h-3zM144 929h12v3h-12zM185 936h3v12h-3zM180 941h12v3h-12zM149 948h3v12h-3zM144 953h12v3h-12zM173 948h3v12h-3zM168 953h12v3h-12zM195 915h6v6h-6zM219 915h6v6h-6zM207 927h6v6h-6zM231 927h6v6h-6zM195 939h6v6h-6zM219 939h6v6h-6zM207 951h6v6h-6zM231 951h6v6h-6zM245 912h3v12h-3zM240 917h12v3h-12zM269 912h3v12h-3zM264 917h12v3h-12zM257 924h3v12h-3zM252 929h12v3h-12zM281 924h3v12h-3zM276 929h12v3h-12zM245 936h3v12h-3zM240 941h12v3h-12zM269 936h3v12h-3zM264 941h12v3h-12zM257 948h3v12h-3zM252 953h12v3h-12zM281 948h3v12h-3zM276 953h12v3h-12zM315 915h6v6h-6zM327 915h6v6h-6zM315 927h6v6h-6zM327 927h6v6h-6zM291 939h6v6h-6zM303 939h6v6h-6zM291 951h6v6h-6zM303 951h6v6h-6zM351 915h6v6h-6zM339 927h6v6h-6zM363 927h6v6h-6zM375 927h6v6h-6zM339 939h6v6h-6zM351 939h6v6h-6zM375 939h6v6h-6zM363 951h6v6h-6zM389 912h3v12h-3zM384 917h12v3h-12zM425 912h3v12h-3zM420 917h12v3h-12zM413 924h3v12h-3zM408 929h12v3h-12zM401 936h3v12h-3zM396 941h12v3h-12zM413 936h3v12h-3zM408 941h12v3h-12zM389 948h3v12h-3zM384 953h12v3h-12zM425 948h3v12h-3zM420 953h12v3h-12zM437 912h3v12h-3zM432 917h12v3h-12zM437 924h3v12h-3zM432 929h12v3h-12zM473 936h3v12h-3zM468 941h12v3h-12zM473 948h3v12h-3zM468 953h12v3h-12zM507 915h6v6h-6zM483 927h6v6h-6zM495 927h6v6h-6zM519 927h6v6h-6zM483 939h6v6h-6zM507 939h6v6h-6zM519 939h6v6h-6zM495 951h6v6h-6zM555 915h6v6h-6zM567 915h6v6h-6zM531 951h6v6h-6zM543 951h6v6h-6zM579 915h6v6h-6zM615 915h6v6h-6zM591 927h6v6h-6zM603 939h6v6h-6zM579 951h6v6h-6zM615 951h6v6h-6zM636 912h12v12h-12zM648 912h12v12h-12zM636 948h12v12h-12zM648 948h12v12h-12zM677 924h3v12h-3zM672 929h12v3h-12zM689 924h3v12h-3zM684 929h12v3h-12zM677 936h3v12h-3zM672 941h12v3h-12zM713 936h3v12h-3zM708 941h12v3h-12zM759 987h6v6h-6zM735 915h6v6h-6zM747 915h6v6h-6zM735 927h6v6h-6zM759 927h6v6h-6zM723 939h6v6h-6zM747 939h6v6h-6zM735 951h6v6h-6zM747 951h6v6h-6zM792 912h12v12h-12zM804 912h12v12h-12zM768 948h12v12h-12zM780 948h12v12h-12zM819 915h6v6h-6zM831 927h6v6h-6zM843 939h6v6h-6zM855 951h6v6h-6zM864 912h12v12h-12zM900 912h12v12h-12zM888 924h12v12h-12zM876 936h12v12h-12zM888 936h12v12h-12zM864 948h12v12h-12zM900 948h12v12h-12zM915 915h6v6h-6zM915 927h6v6h-6zM951 939h6v6h-6zM951 951h6v6h-6z"/><path fill="#fff" d="M96 240h48v48h-48zM96 288h48v48h-48zM96 336h48v48h-48zM96 384h48v48h-48zM96 432h48v48h-48zM96 480h48v48h-48zM96 528h48v48h-48zM96 576h48v48h-48zM96 624h48v48h-48zM96 672h48v48h-48zM96 720h48v48h-48zM144 720h48v48h-48zM192 720h48v48h-48zM240 720h48v48h-48zM192 672h48v48h-48zM192 768h48v48h-48zM192 816h48v48h-48zM192 864h48v48h-48zM192 624h48v48h-48zM192 576h48v48h-48zM192 528h48v48h-48zM192 480h48v48h-48zM192 432h48v48h-48zM240 480h48v48h-48zM288 528h48v48h-48zM288 480h48v48h-48zM288 432h48v48h-48zM288 384h48v48h-48zM288 336h48v48h-48zM288 288h48v48h-48zM288 240h48v48h-48zM240 288h48v48h-48zM192 240h48v48h-48zM144 192h48v48h-48zM96 144h48v48h-48zM336 384h48v48h-48zM384 432h48v48h-48zM384 480h48v48h-48zM384 528h48v48h-48zM336 528h48v48h-48zM240 528h48v48h-48zM144 528h48v48h-48zM144 576h48v48h-48zM240 576h48v48h-48zM288 576h48v48h-48zM288 624h48v48h-48zM288 672h48v48h-48zM288 720h48v48h-48zM288 768h48v48h-48zM288 816h48v48h-48zM288 864h48v48h-48zM288 912h48v48h-48zM240 912h48v48h-48zM192 912h48v48h-48zM144 912h48v48h-48zM96 912h48v48h-48zM816 240h48v48h-48zM816 288h48v48h-48zM816 336h48v48h-48zM816 384h48v48h-48zM816 432h48v48h-48zM816 480h48v48h-48zM816 528h48v48h-48zM816 576h48v48h-48zM816 624h48v48h-48zM816 672h48v48h-48zM816 720h48v48h-48zM768 720h48v48h-48zM720 720h48v48h-48zM672 720h48v48h-48zM720 672h48v48h-48zM720 768h48v48h-48zM720 816h48v48h-48zM720 864h48v48h-48zM720 624h48v48h-48zM720 576h48v48h-48zM720 528h48v48h-48zM720 480h48v48h-48zM720 432h48v48h-48zM672 480h48v48h-48zM624 528h48v48h-48zM624 480h48v48h-48zM624 432h48v48h-48zM624 384h48v48h-48zM624 336h48v48h-48zM624 288h48v48h-48zM624 240h48v48h-48zM672 288h48v48h-48zM720 240h48v48h-48zM768 192h48v48h-48zM816 144h48v48h-48zM576 384h48v48h-48zM528 432h48v48h-48zM528 480h48v48h-48zM528 528h48v48h-48zM576 528h48v48h-48zM672 528h48v48h-48zM768 528h48v48h-48zM768 576h48v48h-48zM672 576h48v48h-48zM624 576h48v48h-48zM624 624h48v48h-48zM624 672h48v48h-48zM624 720h48v48h-48zM624 768h48v48h-48zM624 816h48v48h-48zM624 864h48v48h-48zM624 912h48v48h-48zM672 912h48v48h-48zM720 912h48v48h-48zM768 912h48v48h-48zM816 912h48v48h-48z"/></svg>