<svg xmlns="http://www.w3.org/2000/svg" width="960" height="960" viewBox="0 0 960 960" shape-rendering="crispEdges"><path fill="#000" d="M0 0h960v960h-960z"/><path fill="#8f6042" d="M0 0h960v960h-960z"/><path fill="#f9a3fa" d="M5 0h3v12h-3zM0 5h12v3h-12zM29 0h3v12h-3zM24 5h12v3h-12zM17 12h3v12h-3zM12 17h12v3h-12zM41 12h3v12h-3zM36 17h12v3h-12zM5 24h3v12h-3zM0 29h12v3h-12zM29 24h3v12h-3zM24 29h12v3h-12zM17 36h3v12h-3zM12 41h12v3h-12zM41 36h3v12h-3zM36 41h12v3h-12zM99 3h6v6h-6zM123 3h6v6h-6zM111 15h6v6h-6zM135 15h6v6h-6zM99 27h6v6h-6zM123 27h6v6h-6zM111 39h6v6h-6zM135 39h6v6h-6zM195 3h6v6h-6zM231 3h6v6h-6zM195 39h6v6h-6zM231 39h6v6h-6zM311 18h3v12h-3zM306 23h12v3h-12zM387 15h6v6h-6zM423 15h6v6h-6zM387 27h6v6h-6zM423 27h6v6h-6zM480 0h24v24h-24zM552 0h24v24h-24zM480 48h24v24h-24zM552 48h24v24h-24zM576 0h24v24h-24zM648 0h24v24h-24zM624 24h24v24h-24zM600 48h24v24h-24zM624 48h24v24h-24zM576 72h24v24h-24zM648 72h24v24h-24zM696 0h24v24h-24zM720 0h24v24h-24zM696 72h24v24h-24zM720 72h24v24h-24zM822 6h12v12h-12zM846 30h12v12h-12zM774 54h12v12h-12zM798 78h12v12h-12zM912 0h24v24h-24zM888 24h24v24h-24zM936 24h24v24h-24zM864 48h24v24h-24zM912 48h24v24h-24zM888 72h24v24h-24zM0 96h12v12h-12zM36 96h12v12h-12zM0 120h12v12h-12zM36 120h12v12h-12zM101 96h3v12h-3zM96 101h12v3h-12zM113 108h3v12h-3zM108 113h12v3h-12zM101 120h3v12h-3zM96 125h12v3h-12zM125 120h3v12h-3zM120 125h12v3h-12zM101 132h3v12h-3zM96 137h12v3h-12zM113 132h3v12h-3zM108 137h12v3h-12zM137 132h3v12h-3zM132 137h12v3h-12zM195 99h6v6h-6zM207 111h6v6h-6zM219 123h6v6h-6zM231 135h6v6h-6zM311 114h3v12h-3zM306 119h12v3h-12zM389 96h3v12h-3zM384 101h12v3h-12zM401 96h3v12h-3zM396 101h12v3h-12zM425 96h3v12h-3zM420 101h12v3h-12zM389 108h3v12h-3zM384 113h12v3h-12zM413 108h3v12h-3zM408 113h12v3h-12zM401 120h3v12h-3zM396 125h12v3h-12zM389 132h3v12h-3zM384 137h12v3h-12zM486 102h12v12h-12zM558 102h12v12h-12zM510 150h12v12h-12zM534 150h12v12h-12zM486 174h12v12h-12zM558 174h12v12h-12zM618 138h12v12h-12zM678 102h12v12h-12zM750 102h12v12h-12zM678 150h12v12h-12zM750 150h12v12h-12zM840 96h24v24h-24zM840 120h24v24h-24zM768 144h24v24h-24zM768 168h24v24h-24zM864 96h24v24h-24zM912 96h24v24h-24zM936 120h24v24h-24zM864 144h24v24h-24zM888 168h24v24h-24zM936 168h24v24h-24zM3 195h6v6h-6zM39 195h6v6h-6zM15 207h6v6h-6zM27 219h6v6h-6zM3 231h6v6h-6zM39 231h6v6h-6zM111 195h6v6h-6zM99 207h6v6h-6zM111 207h6v6h-6zM123 219h6v6h-6zM135 219h6v6h-6zM123 231h6v6h-6zM204 192h12v12h-12zM192 204h12v12h-12zM204 204h12v12h-12zM216 216h12v12h-12zM228 216h12v12h-12zM216 228h12v12h-12zM315 195h6v6h-6zM327 207h6v6h-6zM291 219h6v6h-6zM303 231h6v6h-6zM399 195h6v6h-6zM411 195h6v6h-6zM387 207h6v6h-6zM411 207h6v6h-6zM399 219h6v6h-6zM423 219h6v6h-6zM399 231h6v6h-6zM411 231h6v6h-6zM480 192h24v24h-24zM552 192h24v24h-24zM504 216h24v24h-24zM528 216h24v24h-24zM480 264h24v24h-24zM552 264h24v24h-24zM630 198h12v12h-12zM654 198h12v12h-12zM630 222h12v12h-12zM654 222h12v12h-12zM582 246h12v12h-12zM606 246h12v12h-12zM582 270h12v12h-12zM606 270h12v12h-12zM717 228h6v24h-6zM708 237h24v6h-24zM777 216h6v24h-6zM768 225h24v6h-24zM849 216h6v24h-6zM840 225h24v6h-24zM777 240h6v24h-6zM768 249h24v6h-24zM849 240h6v24h-6zM840 249h24v6h-24zM870 198h12v12h-12zM942 198h12v12h-12zM894 222h12v12h-12zM918 222h12v12h-12zM918 246h12v12h-12zM870 270h12v12h-12zM942 270h12v12h-12zM30 294h12v12h-12zM54 294h12v12h-12zM54 318h12v12h-12zM30 366h12v12h-12zM126 294h12v12h-12zM150 294h12v12h-12zM150 318h12v12h-12zM126 366h12v12h-12zM222 294h12v12h-12zM270 294h12v12h-12zM198 318h12v12h-12zM270 342h12v12h-12zM198 366h12v12h-12zM246 366h12v12h-12zM321 288h6v24h-6zM312 297h24v6h-24zM297 312h6v24h-6zM288 321h24v6h-24zM345 312h6v24h-6zM336 321h24v6h-24zM321 336h6v24h-6zM312 345h24v6h-24zM369 336h6v24h-6zM360 345h24v6h-24zM345 360h6v24h-6zM336 369h24v6h-24zM390 294h12v12h-12zM462 294h12v12h-12zM414 318h12v12h-12zM438 318h12v12h-12zM414 342h12v12h-12zM390 366h12v12h-12zM462 366h12v12h-12zM483 291h6v6h-6zM507 291h6v6h-6zM507 303h6v6h-6zM519 303h6v6h-6zM483 315h6v6h-6zM495 315h6v6h-6zM495 327h6v6h-6zM519 327h6v6h-6zM591 291h6v6h-6zM603 291h6v6h-6zM591 327h6v6h-6zM603 327h6v6h-6zM677 288h3v12h-3zM672 293h12v3h-12zM713 288h3v12h-3zM708 293h12v3h-12zM689 300h3v12h-3zM684 305h12v3h-12zM701 300h3v12h-3zM696 305h12v3h-12zM701 312h3v12h-3zM696 317h12v3h-12zM677 324h3v12h-3zM672 329h12v3h-12zM713 324h3v12h-3zM708 329h12v3h-12zM773 288h3v12h-3zM768 293h12v3h-12zM809 288h3v12h-3zM804 293h12v3h-12zM773 324h3v12h-3zM768 329h12v3h-12zM809 324h3v12h-3zM804 329h12v3h-12zM879 291h6v6h-6zM891 291h6v6h-6zM879 327h6v6h-6zM891 327h6v6h-6zM6 390h12v12h-12zM30 390h12v12h-12zM6 414h12v12h-12zM30 414h12v12h-12zM54 438h12v12h-12zM78 438h12v12h-12zM54 462h12v12h-12zM78 462h12v12h-12zM105 384h6v24h-6zM96 393h24v6h-24zM177 384h6v24h-6zM168 393h24v6h-24zM129 408h6v24h-6zM120 417h24v6h-24zM129 432h6v24h-6zM120 441h24v6h-24zM153 432h6v24h-6zM144 441h24v6h-24zM105 456h6v24h-6zM96 465h24v6h-24zM177 456h6v24h-6zM168 465h24v6h-24zM246 390h12v12h-12zM246 414h12v12h-12zM270 414h12v12h-12zM198 438h12v12h-12zM222 438h12v12h-12zM222 462h12v12h-12zM321 384h6v24h-6zM312 393h24v6h-24zM369 384h6v24h-6zM360 393h24v6h-24zM345 408h6v24h-6zM336 417h24v6h-24zM345 432h6v24h-6zM336 441h24v6h-24zM321 456h6v24h-6zM312 465h24v6h-24zM369 456h6v24h-6zM360 465h24v6h-24zM390 390h12v12h-12zM462 390h12v12h-12zM414 414h12v12h-12zM414 438h12v12h-12zM438 438h12v12h-12zM390 462h12v12h-12zM462 462h12v12h-12zM519 387h6v6h-6zM519 399h6v6h-6zM483 411h6v6h-6zM483 423h6v6h-6zM605 384h3v12h-3zM600 389h12v3h-12zM617 384h3v12h-3zM612 389h12v3h-12zM605 396h3v12h-3zM600 401h12v3h-12zM617 396h3v12h-3zM612 401h12v3h-12zM581 408h3v12h-3zM576 413h12v3h-12zM593 408h3v12h-3zM588 413h12v3h-12zM581 420h3v12h-3zM576 425h12v3h-12zM593 420h3v12h-3zM588 425h12v3h-12zM675 387h6v6h-6zM699 387h6v6h-6zM687 399h6v6h-6zM711 399h6v6h-6zM675 411h6v6h-6zM699 411h6v6h-6zM687 423h6v6h-6zM711 423h6v6h-6zM795 387h6v6h-6zM807 387h6v6h-6zM795 399h6v6h-6zM807 399h6v6h-6zM771 411h6v6h-6zM783 411h6v6h-6zM771 423h6v6h-6zM783 423h6v6h-6zM867 387h6v6h-6zM903 387h6v6h-6zM891 399h6v6h-6zM879 411h6v6h-6zM891 411h6v6h-6zM867 423h6v6h-6zM903 423h6v6h-6zM9 480h6v24h-6zM0 489h24v6h-24zM81 480h6v24h-6zM72 489h24v6h-24zM33 504h6v24h-6zM24 513h24v6h-24zM57 528h6v24h-6zM48 537h24v6h-24zM9 552h6v24h-6zM0 561h24v6h-24zM81 552h6v24h-6zM72 561h24v6h-24zM105 480h6v24h-6zM96 489h24v6h-24zM177 480h6v24h-6zM168 489h24v6h-24zM129 504h6v24h-6zM120 513h24v6h-24zM153 504h6v24h-6zM144 513h24v6h-24zM105 552h6v24h-6zM96 561h24v6h-24zM177 552h6v24h-6zM168 561h24v6h-24zM192 480h24v24h-24zM240 480h24v24h-24zM240 504h24v24h-24zM264 504h24v24h-24zM192 528h24v24h-24zM216 528h24v24h-24zM216 552h24v24h-24zM264 552h24v24h-24zM321 504h6v24h-6zM312 513h24v6h-24zM345 504h6v24h-6zM336 513h24v6h-24zM321 528h6v24h-6zM312 537h24v6h-24zM345 528h6v24h-6zM336 537h24v6h-24zM384 480h24v24h-24zM408 504h24v24h-24zM384 528h24v24h-24zM432 528h24v24h-24zM384 552h24v24h-24zM408 552h24v24h-24zM456 552h24v24h-24zM485 492h3v12h-3zM480 497h12v3h-12zM521 492h3v12h-3zM516 497h12v3h-12zM485 504h3v12h-3zM480 509h12v3h-12zM497 504h3v12h-3zM492 509h12v3h-12zM579 483h6v6h-6zM615 483h6v6h-6zM591 495h6v6h-6zM603 495h6v6h-6zM603 507h6v6h-6zM579 519h6v6h-6zM615 519h6v6h-6zM672 480h12v12h-12zM696 480h12v12h-12zM696 492h12v12h-12zM708 492h12v12h-12zM672 504h12v12h-12zM684 504h12v12h-12zM684 516h12v12h-12zM708 516h12v12h-12zM780 480h12v12h-12zM804 480h12v12h-12zM780 516h12v12h-12zM804 516h12v12h-12zM869 480h3v12h-3zM864 485h12v3h-12zM905 480h3v12h-3zM900 485h12v3h-12zM881 492h3v12h-3zM876 497h12v3h-12zM893 492h3v12h-3zM888 497h12v3h-12zM881 504h3v12h-3zM876 509h12v3h-12zM869 516h3v12h-3zM864 521h12v3h-12zM905 516h3v12h-3zM900 521h12v3h-12zM6 582h12v12h-12zM54 582h12v12h-12zM30 606h12v12h-12zM78 606h12v12h-12zM6 630h12v12h-12zM54 630h12v12h-12zM30 654h12v12h-12zM78 654h12v12h-12zM174 582h12v12h-12zM150 606h12v12h-12zM126 630h12v12h-12zM174 630h12v12h-12zM102 654h12v12h-12zM150 654h12v12h-12zM174 654h12v12h-12zM222 582h12v12h-12zM270 582h12v12h-12zM222 654h12v12h-12zM270 654h12v12h-12zM294 582h12v12h-12zM366 582h12v12h-12zM318 606h12v12h-12zM318 630h12v12h-12zM342 630h12v12h-12zM294 654h12v12h-12zM366 654h12v12h-12zM390 582h12v12h-12zM438 582h12v12h-12zM414 606h12v12h-12zM462 606h12v12h-12zM390 630h12v12h-12zM438 630h12v12h-12zM414 654h12v12h-12zM462 654h12v12h-12zM497 576h3v12h-3zM492 581h12v3h-12zM485 588h3v12h-3zM480 593h12v3h-12zM509 588h3v12h-3zM504 593h12v3h-12zM521 588h3v12h-3zM516 593h12v3h-12zM485 600h3v12h-3zM480 605h12v3h-12zM497 600h3v12h-3zM492 605h12v3h-12zM521 600h3v12h-3zM516 605h12v3h-12zM509 612h3v12h-3zM504 617h12v3h-12zM591 579h6v6h-6zM615 579h6v6h-6zM579 591h6v6h-6zM615 603h6v6h-6zM579 615h6v6h-6zM603 615h6v6h-6zM677 576h3v12h-3zM672 581h12v3h-12zM689 588h3v12h-3zM684 593h12v3h-12zM701 600h3v12h-3zM696 605h12v3h-12zM713 612h3v12h-3zM708 617h12v3h-12zM780 576h12v12h-12zM792 600h12v12h-12zM780 612h12v12h-12zM792 612h12v12h-12zM881 576h3v12h-3zM876 581h12v3h-12zM869 588h3v12h-3zM864 593h12v3h-12zM905 600h3v12h-3zM900 605h12v3h-12zM893 612h3v12h-3zM888 617h12v3h-12zM39 675h6v6h-6zM39 687h6v6h-6zM3 699h6v6h-6zM3 711h6v6h-6zM99 687h6v6h-6zM111 687h6v6h-6zM99 699h6v6h-6zM135 699h6v6h-6zM192 672h12v12h-12zM228 672h12v12h-12zM192 708h12v12h-12zM228 708h12v12h-12zM300 672h12v12h-12zM288 684h12v12h-12zM300 684h12v12h-12zM312 696h12v12h-12zM324 696h12v12h-12zM312 708h12v12h-12zM384 684h12v12h-12zM396 684h12v12h-12zM384 696h12v12h-12zM420 696h12v12h-12zM528 672h24v24h-24zM504 696h24v24h-24zM552 696h24v24h-24zM480 720h24v24h-24zM528 720h24v24h-24zM504 744h24v24h-24zM600 672h24v24h-24zM624 672h24v24h-24zM600 744h24v24h-24zM624 744h24v24h-24zM672 672h24v24h-24zM696 672h24v24h-24zM744 672h24v24h-24zM672 696h24v24h-24zM720 696h24v24h-24zM696 720h24v24h-24zM672 744h24v24h-24zM777 672h6v24h-6zM768 681h24v6h-24zM849 672h6v24h-6zM840 681h24v6h-24zM825 696h6v24h-6zM816 705h24v6h-24zM801 720h6v24h-6zM792 729h24v6h-24zM825 720h6v24h-6zM816 729h24v6h-24zM777 744h6v24h-6zM768 753h24v6h-24zM849 744h6v24h-6zM840 753h24v6h-24zM888 672h24v24h-24zM864 696h24v24h-24zM936 720h24v24h-24zM912 744h24v24h-24zM17 768h3v12h-3zM12 773h12v3h-12zM29 768h3v12h-3zM24 773h12v3h-12zM5 780h3v12h-3zM0 785h12v3h-12zM29 780h3v12h-3zM24 785h12v3h-12zM17 792h3v12h-3zM12 797h12v3h-12zM41 792h3v12h-3zM36 797h12v3h-12zM17 804h3v12h-3zM12 809h12v3h-12zM29 804h3v12h-3zM24 809h12v3h-12zM113 768h3v12h-3zM108 773h12v3h-12zM125 768h3v12h-3zM120 773h12v3h-12zM101 780h3v12h-3zM96 785h12v3h-12zM125 780h3v12h-3zM120 785h12v3h-12zM113 792h3v12h-3zM108 797h12v3h-12zM137 792h3v12h-3zM132 797h12v3h-12zM113 804h3v12h-3zM108 809h12v3h-12zM125 804h3v12h-3zM120 809h12v3h-12zM209 768h3v12h-3zM204 773h12v3h-12zM221 768h3v12h-3zM216 773h12v3h-12zM197 780h3v12h-3zM192 785h12v3h-12zM221 780h3v12h-3zM216 785h12v3h-12zM209 792h3v12h-3zM204 797h12v3h-12zM233 792h3v12h-3zM228 797h12v3h-12zM209 804h3v12h-3zM204 809h12v3h-12zM221 804h3v12h-3zM216 809h12v3h-12zM305 768h3v12h-3zM300 773h12v3h-12zM329 768h3v12h-3zM324 773h12v3h-12zM293 780h3v12h-3zM288 785h12v3h-12zM329 792h3v12h-3zM324 797h12v3h-12zM293 804h3v12h-3zM288 809h12v3h-12zM317 804h3v12h-3zM312 809h12v3h-12zM384 768h12v12h-12zM420 768h12v12h-12zM396 780h12v12h-12zM408 792h12v12h-12zM384 804h12v12h-12zM420 804h12v12h-12zM552 768h24v24h-24zM552 792h24v24h-24zM480 816h24v24h-24zM480 840h24v24h-24zM606 774h12v12h-12zM654 774h12v12h-12zM606 846h12v12h-12zM654 846h12v12h-12zM681 768h6v24h-6zM672 777h24v6h-24zM753 768h6v24h-6zM744 777h24v6h-24zM729 792h6v24h-6zM720 801h24v6h-24zM705 816h6v24h-6zM696 825h24v6h-24zM729 816h6v24h-6zM720 825h24v6h-24zM681 840h6v24h-6zM672 849h24v6h-24zM753 840h6v24h-6zM744 849h24v6h-24zM774 774h12v12h-12zM798 798h12v12h-12zM774 822h12v12h-12zM822 822h12v12h-12zM774 846h12v12h-12zM798 846h12v12h-12zM846 846h12v12h-12zM918 774h12v12h-12zM918 798h12v12h-12zM942 798h12v12h-12zM870 822h12v12h-12zM894 822h12v12h-12zM894 846h12v12h-12zM5 864h3v12h-3zM0 869h12v3h-12zM41 864h3v12h-3zM36 869h12v3h-12zM17 888h3v12h-3zM12 893h12v3h-12zM29 888h3v12h-3zM24 893h12v3h-12zM5 900h3v12h-3zM0 905h12v3h-12zM41 900h3v12h-3zM36 905h12v3h-12zM113 864h3v12h-3zM108 869h12v3h-12zM137 864h3v12h-3zM132 869h12v3h-12zM101 876h3v12h-3zM96 881h12v3h-12zM137 888h3v12h-3zM132 893h12v3h-12zM101 900h3v12h-3zM96 905h12v3h-12zM125 900h3v12h-3zM120 905h12v3h-12zM195 867h6v6h-6zM207 879h6v6h-6zM219 891h6v6h-6zM231 903h6v6h-6zM288 864h12v12h-12zM312 864h12v12h-12zM324 864h12v12h-12zM300 876h12v12h-12zM324 876h12v12h-12zM312 888h12v12h-12zM324 900h12v12h-12zM384 864h12v12h-12zM396 864h12v12h-12zM384 876h12v12h-12zM396 876h12v12h-12zM408 888h12v12h-12zM420 888h12v12h-12zM408 900h12v12h-12zM420 900h12v12h-12zM510 870h12v12h-12zM534 870h12v12h-12zM486 894h12v12h-12zM534 894h12v12h-12zM510 918h12v12h-12zM558 918h12v12h-12zM510 942h12v12h-12zM534 942h12v12h-12zM606 870h12v12h-12zM630 870h12v12h-12zM630 894h12v12h-12zM606 942h12v12h-12zM678 894h12v12h-12zM702 894h12v12h-12zM678 918h12v12h-12zM750 918h12v12h-12zM774 870h12v12h-12zM846 870h12v12h-12zM798 918h12v12h-12zM822 918h12v12h-12zM774 942h12v12h-12zM846 942h12v12h-12zM870 870h12v12h-12zM942 870h12v12h-12zM894 894h12v12h-12zM918 894h12v12h-12zM894 918h12v12h-12zM870 942h12v12h-12zM942 942h12v12h-12zM132 624h12v12h-12zM120 636h12v12h-12zM108 648h12v12h-12zM132 648h12v12h-12zM96 660h12v12h-12zM120 660h12v12h-12zM132 660h12v12h-12zM336 816h12v12h-12zM360 816h12v12h-12zM372 816h12v12h-12zM348 828h12v12h-12zM372 828h12v12h-12zM360 840h12v12h-12zM372 852h12v12h-12zM797 336h3v12h-3zM792 341h12v3h-12zM809 336h3v12h-3zM804 341h12v3h-12zM797 348h3v12h-3zM792 353h12v3h-12zM809 348h3v12h-3zM804 353h12v3h-12zM773 360h3v12h-3zM768 365h12v3h-12zM785 360h3v12h-3zM780 365h12v3h-12zM773 372h3v12h-3zM768 377h12v3h-12zM785 372h3v12h-3zM780 377h12v3h-12zM437 48h3v12h-3zM432 53h12v3h-12zM473 48h3v12h-3zM468 53h12v3h-12zM437 72h3v12h-3zM432 77h12v3h-12zM473 72h3v12h-3zM468 77h12v3h-12zM339 915h6v6h-6zM363 915h6v6h-6zM375 915h6v6h-6zM351 927h6v6h-6zM375 927h6v6h-6zM363 939h6v6h-6zM375 951h6v6h-6zM48 192h12v12h-12zM84 192h12v12h-12zM60 204h12v12h-12zM72 216h12v12h-12zM48 228h12v12h-12zM84 228h12v12h-12zM144 48h12v12h-12zM168 48h12v12h-12zM156 60h12v12h-12zM180 60h12v12h-12zM144 72h12v12h-12zM168 72h12v12h-12zM156 84h12v12h-12zM180 84h12v12h-12zM51 147h6v6h-6zM87 147h6v6h-6zM63 159h6v6h-6zM75 171h6v6h-6zM51 183h6v6h-6zM87 183h6v6h-6zM263 18h3v12h-3zM258 23h12v3h-12zM843 435h6v6h-6zM855 435h6v6h-6zM843 447h6v6h-6zM855 447h6v6h-6zM819 459h6v6h-6zM831 459h6v6h-6zM819 471h6v6h-6zM831 471h6v6h-6zM912 480h12v12h-12zM948 480h12v12h-12zM924 492h12v12h-12zM936 492h12v12h-12zM924 504h12v12h-12zM912 516h12v12h-12zM948 516h12v12h-12zM396 240h12v12h-12zM408 240h12v12h-12zM384 252h12v12h-12zM408 252h12v12h-12zM396 264h12v12h-12zM420 264h12v12h-12zM396 276h12v12h-12zM408 276h12v12h-12zM723 339h6v6h-6zM759 339h6v6h-6zM723 375h6v6h-6zM759 375h6v6h-6zM336 864h12v12h-12zM360 864h12v12h-12zM372 864h12v12h-12zM348 876h12v12h-12zM372 876h12v12h-12zM360 888h12v12h-12zM372 900h12v12h-12zM449 192h3v12h-3zM444 197h12v3h-12zM461 192h3v12h-3zM456 197h12v3h-12zM437 204h3v12h-3zM432 209h12v3h-12zM461 204h3v12h-3zM456 209h12v3h-12zM449 216h3v12h-3zM444 221h12v3h-12zM473 216h3v12h-3zM468 221h12v3h-12zM449 228h3v12h-3zM444 233h12v3h-12zM461 228h3v12h-3zM456 233h12v3h-12zM480 540h12v12h-12zM516 540h12v12h-12zM480 552h12v12h-12zM492 552h12v12h-12zM5 48h3v12h-3zM0 53h12v3h-12zM29 48h3v12h-3zM24 53h12v3h-12zM17 60h3v12h-3zM12 65h12v3h-12zM41 60h3v12h-3zM36 65h12v3h-12zM5 72h3v12h-3zM0 77h12v3h-12zM29 72h3v12h-3zM24 77h12v3h-12zM17 84h3v12h-3zM12 89h12v3h-12zM41 84h3v12h-3zM36 89h12v3h-12zM521 432h3v12h-3zM516 437h12v3h-12zM521 444h3v12h-3zM516 449h12v3h-12zM485 456h3v12h-3zM480 461h12v3h-12zM485 468h3v12h-3zM480 473h12v3h-12zM159 771h6v6h-6zM171 771h6v6h-6zM147 783h6v6h-6zM171 783h6v6h-6zM159 795h6v6h-6zM183 795h6v6h-6zM159 807h6v6h-6zM171 807h6v6h-6zM306 66h12v12h-12zM341 768h3v12h-3zM336 773h12v3h-12zM377 768h3v12h-3zM372 773h12v3h-12zM353 780h3v12h-3zM348 785h12v3h-12zM365 792h3v12h-3zM360 797h12v3h-12zM341 804h3v12h-3zM336 809h12v3h-12zM377 804h3v12h-3zM372 809h12v3h-12zM288 720h12v12h-12zM324 720h12v12h-12zM300 732h12v12h-12zM312 744h12v12h-12zM288 756h12v12h-12zM324 756h12v12h-12zM48 0h12v12h-12zM72 0h12v12h-12zM60 12h12v12h-12zM84 12h12v12h-12zM48 24h12v12h-12zM72 24h12v12h-12zM60 36h12v12h-12zM84 36h12v12h-12zM447 147h6v6h-6zM459 147h6v6h-6zM435 159h6v6h-6zM459 159h6v6h-6zM447 171h6v6h-6zM471 171h6v6h-6zM447 183h6v6h-6zM459 183h6v6h-6zM204 816h12v12h-12zM216 816h12v12h-12zM192 828h12v12h-12zM216 828h12v12h-12zM204 840h12v12h-12zM228 840h12v12h-12zM204 852h12v12h-12zM216 852h12v12h-12zM927 579h6v6h-6zM915 591h6v6h-6zM951 603h6v6h-6zM939 615h6v6h-6zM915 387h6v6h-6zM951 387h6v6h-6zM939 399h6v6h-6zM927 411h6v6h-6zM939 411h6v6h-6zM915 423h6v6h-6zM951 423h6v6h-6zM389 624h3v12h-3zM384 629h12v3h-12zM413 624h3v12h-3zM408 629h12v3h-12zM401 636h3v12h-3zM396 641h12v3h-12zM425 636h3v12h-3zM420 641h12v3h-12zM389 648h3v12h-3zM384 653h12v3h-12zM413 648h3v12h-3zM408 653h12v3h-12zM401 660h3v12h-3zM396 665h12v3h-12zM425 660h3v12h-3zM420 665h12v3h-12zM725 480h3v12h-3zM720 485h12v3h-12zM749 480h3v12h-3zM744 485h12v3h-12zM749 492h3v12h-3zM744 497h12v3h-12zM761 492h3v12h-3zM756 497h12v3h-12zM725 504h3v12h-3zM720 509h12v3h-12zM737 504h3v12h-3zM732 509h12v3h-12zM737 516h3v12h-3zM732 521h12v3h-12zM761 516h3v12h-3zM756 521h12v3h-12zM3 243h6v6h-6zM39 243h6v6h-6zM15 255h6v6h-6zM27 267h6v6h-6zM3 279h6v6h-6zM39 279h6v6h-6z"/><path fill="#fff" d="M0 96h96v96h-96zM96 192h96v96h-96zM192 288h96v96h-96zM288 192h96v96h-96zM96 384h96v96h-96zM192 384h96v96h-96zM288 384h96v96h-96zM384 384h96v96h-96zM384 288h96v96h-96zM96 288h96v96h-96zM672 96h96v96h-96zM576 192h96v96h-96zM480 288h96v96h-96zM576 384h96v96h-96zM480 384h96v96h-96zM672 384h96v96h-96zM768 384h96v96h-96zM864 384h96v96h-96zM864 288h96v96h-96zM768 288h96v96h-96zM768 192h96v96h-96zM768 96h96v96h-96zM768 0h96v96h-96zM672 192h96v96h-96zM576 288h96v96h-96zM0 768h96v96h-96zM96 672h96v96h-96zM192 576h96v96h-96zM288 672h96v96h-96zM96 480h96v96h-96zM192 480h96v96h-96zM288 480h96v96h-96zM384 480h96v96h-96zM384 576h96v96h-96zM96 576h96v96h-96zM672 768h96v96h-96zM576 672h96v96h-96zM480 576h96v96h-96zM576 480h96v96h-96zM480 480h96v96h-96zM672 480h96v96h-96zM768 480h96v96h-96zM864 480h96v96h-96zM864 576h96v96h-96zM768 576h96v96h-96zM768 672h96v96h-96zM768 768h96v96h-96zM768 864h96v96h-96zM672 672h96v96h-96zM576 576h96v96h-96z"/></svg>