<svg xmlns="http://www.w3.org/2000/svg" width="960" height="960" viewBox="0 0 960 960" shape-rendering="crispEdges"><path fill="#fff" d="M0 0h960v960h-960z"/><path fill="#ffbe0a" d="M0 0h24v24h-24zM0 24h24v24h-24zM0 48h24v24h-24zM0 72h24v24h-24zM0 96h24v24h-24zM0 120h24v24h-24zM0 144h24v24h-24zM0 168h24v24h-24zM0 192h24v24h-24zM0 216h24v24h-24zM0 240h24v24h-24zM0 264h24v24h-24zM0 288h24v24h-24zM0 312h24v8h-24zM24 0h24v24h-24zM24 144h24v24h-24zM24 288h24v24h-24zM48 0h24v24h-24zM48 144h24v24h-24zM48 288h24v24h-24zM72 0h24v24h-24zM72 144h24v24h-24zM72 288h24v24h-24zM96 0h24v24h-24zM96 144h24v24h-24zM96 288h24v24h-24zM120 0h24v24h-24zM120 144h24v24h-24zM120 288h24v24h-24zM144 0h24v24h-24zM144 24h24v24h-24zM144 48h24v24h-24zM144 72h24v24h-24zM144 96h24v24h-24zM144 120h24v24h-24zM144 144h24v24h-24zM144 168h24v24h-24zM144 192h24v24h-24zM144 216h24v24h-24zM144 240h24v24h-24zM144 264h24v24h-24zM144 288h24v24h-24zM144 312h24v8h-24zM168 0h24v24h-24zM168 144h24v24h-24zM168 288h24v24h-24zM192 0h24v24h-24zM192 144h24v24h-24zM192 288h24v24h-24zM216 0h24v24h-24zM216 144h24v24h-24zM216 288h24v24h-24zM240 0h24v24h-24zM240 144h24v24h-24zM240 288h24v24h-24zM264 0h24v24h-24zM264 144h24v24h-24zM264 288h24v24h-24zM288 0h24v24h-24zM288 24h24v24h-24zM288 48h24v24h-24zM288 72h24v24h-24zM288 96h24v24h-24zM288 120h24v24h-24zM288 144h24v24h-24zM288 168h24v24h-24zM288 192h24v24h-24zM288 216h24v24h-24zM288 240h24v24h-24zM288 264h24v24h-24zM288 288h24v24h-24zM288 312h24v8h-24zM312 0h24v24h-24zM312 144h24v24h-24zM312 288h24v24h-24zM336 0h24v24h-24zM336 144h24v24h-24zM336 288h24v24h-24zM360 0h24v24h-24zM360 144h24v24h-24zM360 288h24v24h-24zM384 0h24v24h-24zM384 144h24v24h-24zM384 288h24v24h-24zM408 0h24v24h-24zM408 144h24v24h-24zM408 288h24v24h-24zM432 0h24v24h-24zM432 24h24v24h-24zM432 48h24v24h-24zM432 72h24v24h-24zM432 96h24v24h-24zM432 120h24v24h-24zM432 144h24v24h-24zM432 168h24v24h-24zM432 192h24v24h-24zM432 216h24v24h-24zM432 240h24v24h-24zM432 264h24v24h-24zM432 288h24v24h-24zM432 312h24v8h-24zM456 0h24v24h-24zM456 144h24v24h-24zM456 288h24v24h-24zM480 0h24v24h-24zM480 144h24v24h-24zM480 288h24v24h-24zM504 0h24v24h-24zM504 144h24v24h-24zM504 288h24v24h-24zM528 0h24v24h-24zM528 144h24v24h-24zM528 288h24v24h-24zM552 0h24v24h-24zM552 144h24v24h-24zM552 288h24v24h-24zM576 0h24v24h-24zM576 24h24v24h-24zM576 48h24v24h-24zM576 72h24v24h-24zM576 96h24v24h-24zM576 120h24v24h-24zM576 144h24v24h-24zM576 168h24v24h-24zM576 192h24v24h-24zM576 216h24v24h-24zM576 240h24v24h-24zM576 264h24v24h-24zM576 288h24v24h-24zM576 312h24v8h-24zM600 0h24v24h-24zM600 144h24v24h-24zM600 288h24v24h-24zM624 0h24v24h-24zM624 144h24v24h-24zM624 288h24v24h-24zM648 0h24v24h-24zM648 144h24v24h-24zM648 288h24v24h-24zM672 0h24v24h-24zM672 144h24v24h-24zM672 288h24v24h-24zM696 0h24v24h-24zM696 144h24v24h-24zM696 288h24v24h-24zM720 0h24v24h-24zM720 24h24v24h-24zM720 48h24v24h-24zM720 72h24v24h-24zM720 96h24v24h-24zM720 120h24v24h-24zM720 144h24v24h-24zM720 168h24v24h-24zM720 192h24v24h-24zM720 216h24v24h-24zM720 240h24v24h-24zM720 264h24v24h-24zM720 288h24v24h-24zM720 312h24v8h-24zM744 0h24v24h-24zM744 144h24v24h-24zM744 288h24v24h-24zM768 0h24v24h-24zM768 144h24v24h-24zM768 288h24v24h-24zM792 0h24v24h-24zM792 144h24v24h-24zM792 288h24v24h-24zM816 0h24v24h-24zM816 144h24v24h-24zM816 288h24v24h-24zM840 0h24v24h-24zM840 144h24v24h-24zM840 288h24v24h-24zM864 0h24v24h-24zM864 24h24v24h-24zM864 48h24v24h-24zM864 72h24v24h-24zM864 96h24v24h-24zM864 120h24v24h-24zM864 144h24v24h-24zM864 168h24v24h-24zM864 192h24v24h-24zM864 216h24v24h-24zM864 240h24v24h-24zM864 264h24v24h-24zM864 288h24v24h-24zM864 312h24v8h-24zM888 0h24v24h-24zM888 144h24v24h-24zM888 288h24v24h-24zM912 0h24v24h-24zM912 144h24v24h-24zM912 288h24v24h-24zM936 0h24v24h-24zM936 144h24v24h-24zM936 288h24v24h-24z"/><path fill="#261637" d="M6 6h12v12h-12zM78 6h12v12h-12zM54 30h12v12h-12zM30 54h12v12h-12zM6 78h12v12h-12zM78 78h12v12h-12zM216 0h24v24h-24zM264 0h24v24h-24zM192 24h24v24h-24zM264 48h24v24h-24zM192 72h24v24h-24zM240 72h24v24h-24zM390 6h12v12h-12zM438 6h12v12h-12zM438 30h12v12h-12zM462 30h12v12h-12zM390 54h12v12h-12zM414 54h12v12h-12zM414 78h12v12h-12zM462 78h12v12h-12zM600 0h24v24h-24zM576 24h24v24h-24zM648 48h24v24h-24zM624 72h24v24h-24zM825 0h6v24h-6zM816 9h24v6h-24zM849 0h6v24h-6zM840 9h24v6h-24zM825 24h6v24h-6zM816 33h24v6h-24zM849 24h6v24h-6zM840 33h24v6h-24zM777 48h6v24h-6zM768 57h24v6h-24zM801 48h6v24h-6zM792 57h24v6h-24zM777 72h6v24h-6zM768 81h24v6h-24zM801 72h6v24h-6zM792 81h24v6h-24zM0 216h24v24h-24zM24 216h24v24h-24zM0 240h24v24h-24zM72 240h24v24h-24zM273 336h6v24h-6zM264 345h24v6h-24zM225 192h6v24h-6zM216 201h24v6h-24zM249 192h6v24h-6zM240 201h24v6h-24zM225 216h6v24h-6zM216 225h24v6h-24zM273 216h6v24h-6zM264 225h24v6h-24zM201 240h6v24h-6zM192 249h24v6h-24zM249 240h6v24h-6zM240 249h24v6h-24zM225 264h6v24h-6zM216 273h24v6h-24zM249 264h6v24h-6zM240 273h24v6h-24zM432 192h24v24h-24zM384 216h24v24h-24zM408 216h24v24h-24zM456 216h24v24h-24zM384 240h24v24h-24zM432 240h24v24h-24zM456 240h24v24h-24zM408 264h24v24h-24zM585 192h6v24h-6zM576 201h24v6h-24zM657 192h6v24h-6zM648 201h24v6h-24zM609 216h6v24h-6zM600 225h24v6h-24zM633 216h6v24h-6zM624 225h24v6h-24zM585 264h6v24h-6zM576 273h24v6h-24zM657 264h6v24h-6zM648 273h24v6h-24zM801 192h6v24h-6zM792 201h24v6h-24zM777 216h6v24h-6zM768 225h24v6h-24zM849 240h6v24h-6zM840 249h24v6h-24zM825 264h6v24h-6zM816 273h24v6h-24zM6 390h12v12h-12zM30 414h12v12h-12zM6 438h12v12h-12zM54 438h12v12h-12zM6 462h12v12h-12zM30 462h12v12h-12zM78 462h12v12h-12zM201 384h6v24h-6zM192 393h24v6h-24zM273 384h6v24h-6zM264 393h24v6h-24zM225 408h6v24h-6zM216 417h24v6h-24zM249 408h6v24h-6zM240 417h24v6h-24zM225 432h6v24h-6zM216 441h24v6h-24zM249 432h6v24h-6zM240 441h24v6h-24zM201 456h6v24h-6zM192 465h24v6h-24zM273 456h6v24h-6zM264 465h24v6h-24zM384 384h24v24h-24zM456 384h24v24h-24zM432 408h24v24h-24zM408 432h24v24h-24zM432 432h24v24h-24zM384 456h24v24h-24zM456 456h24v24h-24zM606 390h12v12h-12zM654 390h12v12h-12zM582 414h12v12h-12zM606 414h12v12h-12zM630 438h12v12h-12zM654 438h12v12h-12zM582 462h12v12h-12zM630 462h12v12h-12zM804 420h24v24h-24zM45 516h6v24h-6zM36 525h24v6h-24zM105 480h6v24h-6zM96 489h24v6h-24zM177 480h6v24h-6zM168 489h24v6h-24zM105 552h6v24h-6zM96 561h24v6h-24zM177 552h6v24h-6zM168 561h24v6h-24zM273 480h6v24h-6zM264 489h24v6h-24zM273 504h6v24h-6zM264 513h24v6h-24zM201 528h6v24h-6zM192 537h24v6h-24zM201 552h6v24h-6zM192 561h24v6h-24zM318 486h12v12h-12zM366 486h12v12h-12zM294 510h12v12h-12zM366 534h12v12h-12zM294 558h12v12h-12zM342 558h12v12h-12zM417 480h6v24h-6zM408 489h24v6h-24zM465 480h6v24h-6zM456 489h24v6h-24zM393 504h6v24h-6zM384 513h24v6h-24zM441 504h6v24h-6zM432 513h24v6h-24zM417 528h6v24h-6zM408 537h24v6h-24zM465 528h6v24h-6zM456 537h24v6h-24zM393 552h6v24h-6zM384 561h24v6h-24zM441 552h6v24h-6zM432 561h24v6h-24zM486 486h12v12h-12zM558 486h12v12h-12zM534 510h12v12h-12zM510 534h12v12h-12zM534 534h12v12h-12zM486 558h12v12h-12zM558 558h12v12h-12zM630 486h12v12h-12zM582 510h12v12h-12zM606 510h12v12h-12zM654 510h12v12h-12zM582 534h12v12h-12zM630 534h12v12h-12zM654 534h12v12h-12zM606 558h12v12h-12zM672 480h24v24h-24zM696 480h24v24h-24zM672 504h24v24h-24zM696 504h24v24h-24zM720 528h24v24h-24zM744 528h24v24h-24zM720 552h24v24h-24zM744 552h24v24h-24zM768 480h24v24h-24zM840 480h24v24h-24zM768 528h24v24h-24zM840 528h24v24h-24zM912 480h24v24h-24zM864 504h24v24h-24zM888 504h24v24h-24zM936 504h24v24h-24zM864 528h24v24h-24zM912 528h24v24h-24zM936 528h24v24h-24zM888 552h24v24h-24zM9 600h6v24h-6zM0 609h24v6h-24zM33 600h6v24h-6zM24 609h24v6h-24zM9 624h6v24h-6zM0 633h24v6h-24zM81 624h6v24h-6zM72 633h24v6h-24zM105 600h6v24h-6zM96 609h24v6h-24zM177 600h6v24h-6zM168 609h24v6h-24zM105 624h6v24h-6zM96 633h24v6h-24zM177 624h6v24h-6zM168 633h24v6h-24zM198 582h12v12h-12zM270 582h12v12h-12zM222 606h12v12h-12zM246 606h12v12h-12zM222 630h12v12h-12zM246 630h12v12h-12zM198 654h12v12h-12zM270 654h12v12h-12zM288 576h24v24h-24zM336 576h24v24h-24zM360 576h24v24h-24zM312 600h24v24h-24zM360 600h24v24h-24zM336 624h24v24h-24zM360 648h24v24h-24zM384 576h24v24h-24zM432 576h24v24h-24zM456 576h24v24h-24zM408 600h24v24h-24zM456 600h24v24h-24zM432 624h24v24h-24zM456 648h24v24h-24zM486 582h12v12h-12zM534 582h12v12h-12zM510 606h12v12h-12zM558 606h12v12h-12zM486 630h12v12h-12zM534 630h12v12h-12zM510 654h12v12h-12zM558 654h12v12h-12zM600 576h24v24h-24zM648 576h24v24h-24zM576 600h24v24h-24zM648 624h24v24h-24zM576 648h24v24h-24zM624 648h24v24h-24zM678 582h12v12h-12zM750 582h12v12h-12zM702 630h12v12h-12zM726 630h12v12h-12zM678 654h12v12h-12zM750 654h12v12h-12zM774 606h12v12h-12zM846 606h12v12h-12zM774 630h12v12h-12zM846 630h12v12h-12zM897 576h6v24h-6zM888 585h24v6h-24zM945 576h6v24h-6zM936 585h24v6h-24zM873 600h6v24h-6zM864 609h24v6h-24zM897 600h6v24h-6zM888 609h24v6h-24zM921 624h6v24h-6zM912 633h24v6h-24zM945 624h6v24h-6zM936 633h24v6h-24zM873 648h6v24h-6zM864 657h24v6h-24zM921 648h6v24h-6zM912 657h24v6h-24zM6 678h12v12h-12zM6 702h12v12h-12zM78 726h12v12h-12zM78 750h12v12h-12zM102 678h12v12h-12zM150 678h12v12h-12zM174 702h12v12h-12zM102 726h12v12h-12zM126 750h12v12h-12zM174 750h12v12h-12zM225 672h6v24h-6zM216 681h24v6h-24zM273 672h6v24h-6zM264 681h24v6h-24zM201 696h6v24h-6zM192 705h24v6h-24zM249 696h6v24h-6zM240 705h24v6h-24zM225 720h6v24h-6zM216 729h24v6h-24zM273 720h6v24h-6zM264 729h24v6h-24zM201 744h6v24h-6zM192 753h24v6h-24zM249 744h6v24h-6zM240 753h24v6h-24zM318 678h12v12h-12zM366 678h12v12h-12zM294 702h12v12h-12zM342 702h12v12h-12zM318 726h12v12h-12zM366 726h12v12h-12zM294 750h12v12h-12zM342 750h12v12h-12zM393 672h6v24h-6zM384 681h24v6h-24zM465 672h6v24h-6zM456 681h24v6h-24zM417 720h6v24h-6zM408 729h24v6h-24zM441 720h6v24h-6zM432 729h24v6h-24zM393 744h6v24h-6zM384 753h24v6h-24zM465 744h6v24h-6zM456 753h24v6h-24zM513 672h6v24h-6zM504 681h24v6h-24zM537 720h6v24h-6zM528 729h24v6h-24zM513 744h6v24h-6zM504 753h24v6h-24zM537 744h6v24h-6zM528 753h24v6h-24zM606 678h12v12h-12zM582 702h12v12h-12zM654 726h12v12h-12zM630 750h12v12h-12zM696 672h24v24h-24zM744 672h24v24h-24zM672 696h24v24h-24zM744 720h24v24h-24zM672 744h24v24h-24zM720 744h24v24h-24zM777 672h6v24h-6zM768 681h24v6h-24zM825 672h6v24h-6zM816 681h24v6h-24zM849 672h6v24h-6zM840 681h24v6h-24zM801 696h6v24h-6zM792 705h24v6h-24zM849 696h6v24h-6zM840 705h24v6h-24zM825 720h6v24h-6zM816 729h24v6h-24zM849 744h6v24h-6zM840 753h24v6h-24zM897 696h6v24h-6zM888 705h24v6h-24zM921 696h6v24h-6zM912 705h24v6h-24zM897 720h6v24h-6zM888 729h24v6h-24zM921 720h6v24h-6zM912 729h24v6h-24zM30 774h12v12h-12zM6 798h12v12h-12zM78 822h12v12h-12zM54 846h12v12h-12zM129 768h6v24h-6zM120 777h24v6h-24zM177 768h6v24h-6zM168 777h24v6h-24zM105 792h6v24h-6zM96 801h24v6h-24zM153 792h6v24h-6zM144 801h24v6h-24zM129 816h6v24h-6zM120 825h24v6h-24zM177 816h6v24h-6zM168 825h24v6h-24zM105 840h6v24h-6zM96 849h24v6h-24zM153 840h6v24h-6zM144 849h24v6h-24zM198 774h12v12h-12zM246 774h12v12h-12zM270 774h12v12h-12zM222 798h12v12h-12zM270 798h12v12h-12zM246 822h12v12h-12zM270 846h12v12h-12zM360 768h24v24h-24zM336 792h24v24h-24zM312 816h24v24h-24zM288 840h24v24h-24zM393 768h6v24h-6zM384 777h24v6h-24zM465 768h6v24h-6zM456 777h24v6h-24zM417 792h6v24h-6zM408 801h24v6h-24zM417 816h6v24h-6zM408 825h24v6h-24zM441 816h6v24h-6zM432 825h24v6h-24zM393 840h6v24h-6zM384 849h24v6h-24zM465 840h6v24h-6zM456 849h24v6h-24zM510 774h12v12h-12zM486 798h12v12h-12zM558 822h12v12h-12zM534 846h12v12h-12zM633 768h6v24h-6zM624 777h24v6h-24zM657 768h6v24h-6zM648 777h24v6h-24zM633 792h6v24h-6zM624 801h24v6h-24zM657 792h6v24h-6zM648 801h24v6h-24zM585 816h6v24h-6zM576 825h24v6h-24zM609 816h6v24h-6zM600 825h24v6h-24zM585 840h6v24h-6zM576 849h24v6h-24zM609 840h6v24h-6zM600 849h24v6h-24zM678 774h12v12h-12zM726 774h12v12h-12zM750 798h12v12h-12zM678 822h12v12h-12zM702 846h12v12h-12zM750 846h12v12h-12zM840 768h24v24h-24zM816 792h24v24h-24zM792 816h24v24h-24zM840 816h24v24h-24zM768 840h24v24h-24zM816 840h24v24h-24zM840 840h24v24h-24zM864 792h24v24h-24zM936 792h24v24h-24zM864 816h24v24h-24zM936 816h24v24h-24zM0 864h24v24h-24zM72 864h24v24h-24zM24 888h24v24h-24zM48 888h24v24h-24zM24 912h24v24h-24zM48 912h24v24h-24zM0 936h24v24h-24zM72 936h24v24h-24zM105 864h6v24h-6zM96 873h24v6h-24zM177 864h6v24h-6zM168 873h24v6h-24zM153 888h6v24h-6zM144 897h24v6h-24zM129 912h6v24h-6zM120 921h24v6h-24zM105 936h6v24h-6zM96 945h24v6h-24zM177 936h6v24h-6zM168 945h24v6h-24zM225 864h6v24h-6zM216 873h24v6h-24zM273 864h6v24h-6zM264 873h24v6h-24zM249 888h6v24h-6zM240 897h24v6h-24zM249 912h6v24h-6zM240 921h24v6h-24zM225 936h6v24h-6zM216 945h24v6h-24zM273 936h6v24h-6zM264 945h24v6h-24zM297 888h6v24h-6zM288 897h24v6h-24zM321 888h6v24h-6zM312 897h24v6h-24zM297 912h6v24h-6zM288 921h24v6h-24zM369 912h6v24h-6zM360 921h24v6h-24zM384 864h24v24h-24zM456 864h24v24h-24zM408 888h24v24h-24zM432 888h24v24h-24zM408 912h24v24h-24zM384 936h24v24h-24zM456 936h24v24h-24zM552 864h24v24h-24zM528 888h24v24h-24zM504 912h24v24h-24zM480 936h24v24h-24zM576 864h24v24h-24zM600 864h24v24h-24zM576 888h24v24h-24zM600 888h24v24h-24zM624 912h24v24h-24zM648 912h24v24h-24zM624 936h24v24h-24zM648 936h24v24h-24zM672 864h24v24h-24zM744 864h24v24h-24zM696 912h24v24h-24zM720 912h24v24h-24zM672 936h24v24h-24zM744 936h24v24h-24zM792 864h24v24h-24zM840 864h24v24h-24zM768 888h24v24h-24zM816 888h24v24h-24zM792 912h24v24h-24zM840 912h24v24h-24zM768 936h24v24h-24zM816 936h24v24h-24zM873 888h6v24h-6zM864 897h24v6h-24zM945 888h6v24h-6zM936 897h24v6h-24zM873 912h6v24h-6zM864 921h24v6h-24zM945 912h6v24h-6zM936 921h24v6h-24zM480 192h24v24h-24zM552 192h24v24h-24zM504 216h24v24h-24zM528 216h24v24h-24zM480 264h24v24h-24zM552 264h24v24h-24zM264 432h24v24h-24zM216 288h24v24h-24zM240 288h24v24h-24zM216 312h24v24h-24zM264 312h24v24h-24zM192 336h24v24h-24zM240 336h24v24h-24zM216 360h24v24h-24zM240 360h24v24h-24zM489 0h6v24h-6zM480 9h24v6h-24zM537 0h6v24h-6zM528 9h24v6h-24zM537 24h6v24h-6zM528 33h24v6h-24zM561 24h6v24h-6zM552 33h24v6h-24zM489 48h6v24h-6zM480 57h24v6h-24zM513 48h6v24h-6zM504 57h24v6h-24zM513 72h6v24h-6zM504 81h24v6h-24zM561 72h6v24h-6zM552 81h24v6h-24zM225 96h6v24h-6zM216 105h24v6h-24zM273 96h6v24h-6zM264 105h24v6h-24zM201 120h6v24h-6zM192 129h24v6h-24zM273 144h6v24h-6zM264 153h24v6h-24zM201 168h6v24h-6zM192 177h24v6h-24zM249 168h6v24h-6zM240 177h24v6h-24zM702 390h12v12h-12zM750 390h12v12h-12zM678 414h12v12h-12zM702 414h12v12h-12zM726 438h12v12h-12zM750 438h12v12h-12zM678 462h12v12h-12zM726 462h12v12h-12zM9 312h6v24h-6zM0 321h24v6h-24zM33 312h6v24h-6zM24 321h24v6h-24zM9 336h6v24h-6zM0 345h24v6h-24zM81 336h6v24h-6zM72 345h24v6h-24zM801 96h6v24h-6zM792 105h24v6h-24zM777 120h6v24h-6zM768 129h24v6h-24zM849 144h6v24h-6zM840 153h24v6h-24zM825 168h6v24h-6zM816 177h24v6h-24z"/><path fill="#000" d="M0 288h96v96h-96zM96 288h96v96h-96zM192 288h96v96h-96zM288 288h96v96h-96zM288 192h96v96h-96zM96 384h96v96h-96zM96 192h96v96h-96zM96 96h96v96h-96zM96 0h96v96h-96zM192 0h96v96h-96zM288 0h96v96h-96zM384 0h96v96h-96zM384 96h96v96h-96zM384 192h96v96h-96zM384 288h96v96h-96zM384 384h96v96h-96zM288 384h96v96h-96zM192 384h96v96h-96zM0 384h96v96h-96zM0 576h96v96h-96zM96 576h96v96h-96zM192 576h96v96h-96zM288 576h96v96h-96zM288 672h96v96h-96zM96 480h96v96h-96zM96 672h96v96h-96zM96 768h96v96h-96zM96 864h96v96h-96zM192 864h96v96h-96zM288 864h96v96h-96zM384 864h96v96h-96zM384 768h96v96h-96zM384 672h96v96h-96zM384 576h96v96h-96zM384 480h96v96h-96zM288 480h96v96h-96zM192 480h96v96h-96zM0 480h96v96h-96zM864 288h96v96h-96zM768 288h96v96h-96zM672 288h96v96h-96zM576 288h96v96h-96zM576 192h96v96h-96zM768 384h96v96h-96zM768 192h96v96h-96zM768 96h96v96h-96zM768 0h96v96h-96zM672 0h96v96h-96zM576 0h96v96h-96zM480 0h96v96h-96zM480 96h96v96h-96zM480 192h96v96h-96zM480 288h96v96h-96zM480 384h96v96h-96zM576 384h96v96h-96zM672 384h96v96h-96zM864 384h96v96h-96zM864 576h96v96h-96zM768 576h96v96h-96zM672 576h96v96h-96zM576 576h96v96h-96zM576 672h96v96h-96zM768 480h96v96h-96zM768 672h96v96h-96zM768 768h96v96h-96zM768 864h96v96h-96zM672 864h96v96h-96zM576 864h96v96h-96zM480 864h96v96h-96zM480 768h96v96h-96zM480 672h96v96h-96zM480 576h96v96h-96zM480 480h96v96h-96zM576 480h96v96h-96zM672 480h96v96h-96zM864 480h96v96h-96z"/></svg>