<svg xmlns="http://www.w3.org/2000/svg" width="960" height="960" viewBox="0 0 960 960" shape-rendering="crispEdges"><path fill="#fff" d="M0 0h960v960h-960z"/><path fill="#ce3d03" d="M0 0h12v12h-12zM0 96h12v12h-12zM0 192h12v12h-12zM0 288h12v12h-12zM0 384h12v12h-12zM0 480h12v12h-12zM0 576h12v12h-12zM0 672h12v12h-12zM0 768h12v12h-12zM0 864h12v12h-12zM96 0h12v12h-12zM96 96h12v12h-12zM96 192h12v12h-12zM96 288h12v12h-12zM96 384h12v12h-12zM96 480h12v12h-12zM96 576h12v12h-12zM96 672h12v12h-12zM96 768h12v12h-12zM96 864h12v12h-12zM192 0h12v12h-12zM192 96h12v12h-12zM192 192h12v12h-12zM192 288h12v12h-12zM192 384h12v12h-12zM192 480h12v12h-12zM192 576h12v12h-12zM192 672h12v12h-12zM192 768h12v12h-12zM192 864h12v12h-12zM288 0h12v12h-12zM288 96h12v12h-12zM288 192h12v12h-12zM288 288h12v12h-12zM288 384h12v12h-12zM288 480h12v12h-12zM288 576h12v12h-12zM288 672h12v12h-12zM288 768h12v12h-12zM288 864h12v12h-12zM384 0h12v12h-12zM384 96h12v12h-12zM384 192h12v12h-12zM384 288h12v12h-12zM384 384h12v12h-12zM384 480h12v12h-12zM384 576h12v12h-12zM384 672h12v12h-12zM384 768h12v12h-12zM384 864h12v12h-12zM480 0h12v12h-12zM480 96h12v12h-12zM480 192h12v12h-12zM480 288h12v12h-12zM480 384h12v12h-12zM480 480h12v12h-12zM480 576h12v12h-12zM480 672h12v12h-12zM480 768h12v12h-12zM480 864h12v12h-12zM576 0h12v12h-12zM576 96h12v12h-12zM576 192h12v12h-12zM576 288h12v12h-12zM576 384h12v12h-12zM576 480h12v12h-12zM576 576h12v12h-12zM576 672h12v12h-12zM576 768h12v12h-12zM576 864h12v12h-12zM672 0h12v12h-12zM672 96h12v12h-12zM672 192h12v12h-12zM672 288h12v12h-12zM672 384h12v12h-12zM672 480h12v12h-12zM672 576h12v12h-12zM672 672h12v12h-12zM672 768h12v12h-12zM672 864h12v12h-12zM768 0h12v12h-12zM768 96h12v12h-12zM768 192h12v12h-12zM768 288h12v12h-12zM768 384h12v12h-12zM768 480h12v12h-12zM768 576h12v12h-12zM768 672h12v12h-12zM768 768h12v12h-12zM768 864h12v12h-12zM864 0h12v12h-12zM864 96h12v12h-12zM864 192h12v12h-12zM864 288h12v12h-12zM864 384h12v12h-12zM864 480h12v12h-12zM864 576h12v12h-12zM864 672h12v12h-12zM864 768h12v12h-12zM864 864h12v12h-12z"/><path fill="#f9ea85" d="M17 0h3v12h-3zM12 5h12v3h-12zM29 0h3v12h-3zM24 5h12v3h-12zM17 36h3v12h-3zM12 41h12v3h-12zM29 36h3v12h-3zM24 41h12v3h-12zM53 0h3v12h-3zM48 5h12v3h-12zM89 0h3v12h-3zM84 5h12v3h-12zM53 24h3v12h-3zM48 29h12v3h-12zM89 24h3v12h-3zM84 29h12v3h-12zM101 12h3v12h-3zM96 17h12v3h-12zM113 12h3v12h-3zM108 17h12v3h-12zM101 24h3v12h-3zM96 29h12v3h-12zM137 24h3v12h-3zM132 29h12v3h-12zM149 12h3v12h-3zM144 17h12v3h-12zM185 12h3v12h-3zM180 17h12v3h-12zM149 24h3v12h-3zM144 29h12v3h-12zM161 24h3v12h-3zM156 29h12v3h-12zM197 12h3v12h-3zM192 17h12v3h-12zM209 12h3v12h-3zM204 17h12v3h-12zM197 24h3v12h-3zM192 29h12v3h-12zM233 24h3v12h-3zM228 29h12v3h-12zM245 0h3v12h-3zM240 5h12v3h-12zM281 0h3v12h-3zM276 5h12v3h-12zM269 12h3v12h-3zM264 17h12v3h-12zM257 24h3v12h-3zM252 29h12v3h-12zM245 36h3v12h-3zM240 41h12v3h-12zM281 36h3v12h-3zM276 41h12v3h-12zM305 0h3v12h-3zM300 5h12v3h-12zM329 0h3v12h-3zM324 5h12v3h-12zM293 12h3v12h-3zM288 17h12v3h-12zM329 24h3v12h-3zM324 29h12v3h-12zM293 36h3v12h-3zM288 41h12v3h-12zM317 36h3v12h-3zM312 41h12v3h-12zM341 0h3v12h-3zM336 5h12v3h-12zM365 0h3v12h-3zM360 5h12v3h-12zM377 12h3v12h-3zM372 17h12v3h-12zM341 24h3v12h-3zM336 29h12v3h-12zM353 36h3v12h-3zM348 41h12v3h-12zM377 36h3v12h-3zM372 41h12v3h-12zM413 0h3v12h-3zM408 5h12v3h-12zM413 12h3v12h-3zM408 17h12v3h-12zM425 12h3v12h-3zM420 17h12v3h-12zM389 24h3v12h-3zM384 29h12v3h-12zM401 24h3v12h-3zM396 29h12v3h-12zM401 36h3v12h-3zM396 41h12v3h-12zM449 12h3v12h-3zM444 17h12v3h-12zM461 12h3v12h-3zM456 17h12v3h-12zM449 24h3v12h-3zM444 29h12v3h-12zM461 24h3v12h-3zM456 29h12v3h-12zM585 0h6v24h-6zM576 9h24v6h-24zM633 0h6v24h-6zM624 9h24v6h-24zM657 24h6v24h-6zM648 33h24v6h-24zM585 48h6v24h-6zM576 57h24v6h-24zM609 72h6v24h-6zM600 81h24v6h-24zM657 72h6v24h-6zM648 81h24v6h-24zM801 0h6v24h-6zM792 9h24v6h-24zM849 0h6v24h-6zM840 9h24v6h-24zM801 72h6v24h-6zM792 81h24v6h-24zM849 72h6v24h-6zM840 81h24v6h-24zM5 48h3v12h-3zM0 53h12v3h-12zM41 48h3v12h-3zM36 53h12v3h-12zM29 60h3v12h-3zM24 65h12v3h-12zM17 72h3v12h-3zM12 77h12v3h-12zM5 84h3v12h-3zM0 89h12v3h-12zM41 84h3v12h-3zM36 89h12v3h-12zM89 48h3v12h-3zM84 53h12v3h-12zM77 60h3v12h-3zM72 65h12v3h-12zM65 72h3v12h-3zM60 77h12v3h-12zM53 84h3v12h-3zM48 89h12v3h-12zM125 48h3v12h-3zM120 53h12v3h-12zM137 48h3v12h-3zM132 53h12v3h-12zM101 84h3v12h-3zM96 89h12v3h-12zM113 84h3v12h-3zM108 89h12v3h-12zM149 48h3v12h-3zM144 53h12v3h-12zM185 48h3v12h-3zM180 53h12v3h-12zM161 60h3v12h-3zM156 65h12v3h-12zM173 60h3v12h-3zM168 65h12v3h-12zM173 72h3v12h-3zM168 77h12v3h-12zM149 84h3v12h-3zM144 89h12v3h-12zM185 84h3v12h-3zM180 89h12v3h-12zM221 48h3v12h-3zM216 53h12v3h-12zM197 60h3v12h-3zM192 65h12v3h-12zM209 60h3v12h-3zM204 65h12v3h-12zM233 60h3v12h-3zM228 65h12v3h-12zM197 72h3v12h-3zM192 77h12v3h-12zM221 72h3v12h-3zM216 77h12v3h-12zM233 72h3v12h-3zM228 77h12v3h-12zM209 84h3v12h-3zM204 89h12v3h-12zM257 48h3v12h-3zM252 53h12v3h-12zM269 48h3v12h-3zM264 53h12v3h-12zM269 60h3v12h-3zM264 65h12v3h-12zM257 84h3v12h-3zM252 89h12v3h-12zM293 48h3v12h-3zM288 53h12v3h-12zM305 60h3v12h-3zM300 65h12v3h-12zM293 72h3v12h-3zM288 77h12v3h-12zM317 72h3v12h-3zM312 77h12v3h-12zM293 84h3v12h-3zM288 89h12v3h-12zM305 84h3v12h-3zM300 89h12v3h-12zM329 84h3v12h-3zM324 89h12v3h-12zM353 48h3v12h-3zM348 53h12v3h-12zM377 48h3v12h-3zM372 53h12v3h-12zM365 60h3v12h-3zM360 65h12v3h-12zM365 72h3v12h-3zM360 77h12v3h-12zM353 84h3v12h-3zM348 89h12v3h-12zM377 84h3v12h-3zM372 89h12v3h-12zM389 48h3v12h-3zM384 53h12v3h-12zM425 48h3v12h-3zM420 53h12v3h-12zM401 60h3v12h-3zM396 65h12v3h-12zM413 60h3v12h-3zM408 65h12v3h-12zM389 84h3v12h-3zM384 89h12v3h-12zM425 84h3v12h-3zM420 89h12v3h-12zM449 48h3v12h-3zM444 53h12v3h-12zM473 48h3v12h-3zM468 53h12v3h-12zM449 84h3v12h-3zM444 89h12v3h-12zM473 84h3v12h-3zM468 89h12v3h-12zM17 96h3v12h-3zM12 101h12v3h-12zM41 96h3v12h-3zM36 101h12v3h-12zM5 108h3v12h-3zM0 113h12v3h-12zM17 108h3v12h-3zM12 113h12v3h-12zM29 120h3v12h-3zM24 125h12v3h-12zM41 120h3v12h-3zM36 125h12v3h-12zM5 132h3v12h-3zM0 137h12v3h-12zM29 132h3v12h-3zM24 137h12v3h-12zM53 96h3v12h-3zM48 101h12v3h-12zM77 96h3v12h-3zM72 101h12v3h-12zM77 108h3v12h-3zM72 113h12v3h-12zM89 108h3v12h-3zM84 113h12v3h-12zM53 120h3v12h-3zM48 125h12v3h-12zM65 120h3v12h-3zM60 125h12v3h-12zM65 132h3v12h-3zM60 137h12v3h-12zM89 132h3v12h-3zM84 137h12v3h-12zM101 108h3v12h-3zM96 113h12v3h-12zM137 108h3v12h-3zM132 113h12v3h-12zM101 120h3v12h-3zM96 125h12v3h-12zM137 120h3v12h-3zM132 125h12v3h-12zM149 96h3v12h-3zM144 101h12v3h-12zM185 96h3v12h-3zM180 101h12v3h-12zM161 108h3v12h-3zM156 113h12v3h-12zM173 108h3v12h-3zM168 113h12v3h-12zM149 132h3v12h-3zM144 137h12v3h-12zM185 132h3v12h-3zM180 137h12v3h-12zM221 96h3v12h-3zM216 101h12v3h-12zM209 108h3v12h-3zM204 113h12v3h-12zM233 108h3v12h-3zM228 113h12v3h-12zM197 120h3v12h-3zM192 125h12v3h-12zM221 120h3v12h-3zM216 125h12v3h-12zM209 132h3v12h-3zM204 137h12v3h-12zM245 108h3v12h-3zM240 113h12v3h-12zM257 108h3v12h-3zM252 113h12v3h-12zM245 120h3v12h-3zM240 125h12v3h-12zM281 120h3v12h-3zM276 125h12v3h-12zM305 96h3v12h-3zM300 101h12v3h-12zM293 108h3v12h-3zM288 113h12v3h-12zM329 120h3v12h-3zM324 125h12v3h-12zM317 132h3v12h-3zM312 137h12v3h-12zM341 96h3v12h-3zM336 101h12v3h-12zM365 96h3v12h-3zM360 101h12v3h-12zM365 108h3v12h-3zM360 113h12v3h-12zM377 108h3v12h-3zM372 113h12v3h-12zM341 120h3v12h-3zM336 125h12v3h-12zM353 120h3v12h-3zM348 125h12v3h-12zM353 132h3v12h-3zM348 137h12v3h-12zM377 132h3v12h-3zM372 137h12v3h-12zM389 96h3v12h-3zM384 101h12v3h-12zM425 96h3v12h-3zM420 101h12v3h-12zM401 108h3v12h-3zM396 113h12v3h-12zM413 108h3v12h-3zM408 113h12v3h-12zM389 120h3v12h-3zM384 125h12v3h-12zM425 120h3v12h-3zM420 125h12v3h-12zM449 96h3v12h-3zM444 101h12v3h-12zM461 96h3v12h-3zM456 101h12v3h-12zM437 108h3v12h-3zM432 113h12v3h-12zM461 108h3v12h-3zM456 113h12v3h-12zM449 120h3v12h-3zM444 125h12v3h-12zM473 120h3v12h-3zM468 125h12v3h-12zM449 132h3v12h-3zM444 137h12v3h-12zM461 132h3v12h-3zM456 137h12v3h-12zM5 156h3v12h-3zM0 161h12v3h-12zM41 156h3v12h-3zM36 161h12v3h-12zM5 168h3v12h-3zM0 173h12v3h-12zM41 168h3v12h-3zM36 173h12v3h-12zM65 144h3v12h-3zM60 149h12v3h-12zM53 156h3v12h-3zM48 161h12v3h-12zM65 156h3v12h-3zM60 161h12v3h-12zM77 168h3v12h-3zM72 173h12v3h-12zM89 168h3v12h-3zM84 173h12v3h-12zM77 180h3v12h-3zM72 185h12v3h-12zM101 144h3v12h-3zM96 149h12v3h-12zM137 144h3v12h-3zM132 149h12v3h-12zM113 156h3v12h-3zM108 161h12v3h-12zM125 156h3v12h-3zM120 161h12v3h-12zM101 168h3v12h-3zM96 173h12v3h-12zM137 168h3v12h-3zM132 173h12v3h-12zM149 156h3v12h-3zM144 161h12v3h-12zM185 156h3v12h-3zM180 161h12v3h-12zM149 168h3v12h-3zM144 173h12v3h-12zM161 168h3v12h-3zM156 173h12v3h-12zM209 144h3v12h-3zM204 149h12v3h-12zM233 144h3v12h-3zM228 149h12v3h-12zM221 156h3v12h-3zM216 161h12v3h-12zM221 168h3v12h-3zM216 173h12v3h-12zM209 180h3v12h-3zM204 185h12v3h-12zM233 180h3v12h-3zM228 185h12v3h-12zM263 162h3v12h-3zM258 167h12v3h-12zM293 144h3v12h-3zM288 149h12v3h-12zM329 144h3v12h-3zM324 149h12v3h-12zM305 156h3v12h-3zM300 161h12v3h-12zM317 156h3v12h-3zM312 161h12v3h-12zM305 168h3v12h-3zM300 173h12v3h-12zM293 180h3v12h-3zM288 185h12v3h-12zM329 180h3v12h-3zM324 185h12v3h-12zM341 144h3v12h-3zM336 149h12v3h-12zM377 144h3v12h-3zM372 149h12v3h-12zM365 156h3v12h-3zM360 161h12v3h-12zM353 168h3v12h-3zM348 173h12v3h-12zM365 168h3v12h-3zM360 173h12v3h-12zM341 180h3v12h-3zM336 185h12v3h-12zM377 180h3v12h-3zM372 185h12v3h-12zM401 144h3v12h-3zM396 149h12v3h-12zM413 144h3v12h-3zM408 149h12v3h-12zM413 156h3v12h-3zM408 161h12v3h-12zM401 180h3v12h-3zM396 185h12v3h-12zM449 144h3v12h-3zM444 149h12v3h-12zM437 156h3v12h-3zM432 161h12v3h-12zM473 168h3v12h-3zM468 173h12v3h-12zM461 180h3v12h-3zM456 185h12v3h-12zM29 192h3v12h-3zM24 197h12v3h-12zM41 192h3v12h-3zM36 197h12v3h-12zM29 204h3v12h-3zM24 209h12v3h-12zM41 204h3v12h-3zM36 209h12v3h-12zM5 216h3v12h-3zM0 221h12v3h-12zM17 216h3v12h-3zM12 221h12v3h-12zM5 228h3v12h-3zM0 233h12v3h-12zM17 228h3v12h-3zM12 233h12v3h-12zM53 192h3v12h-3zM48 197h12v3h-12zM89 192h3v12h-3zM84 197h12v3h-12zM65 204h3v12h-3zM60 209h12v3h-12zM77 204h3v12h-3zM72 209h12v3h-12zM77 216h3v12h-3zM72 221h12v3h-12zM53 228h3v12h-3zM48 233h12v3h-12zM89 228h3v12h-3zM84 233h12v3h-12zM101 192h3v12h-3zM96 197h12v3h-12zM125 192h3v12h-3zM120 197h12v3h-12zM137 204h3v12h-3zM132 209h12v3h-12zM101 216h3v12h-3zM96 221h12v3h-12zM113 228h3v12h-3zM108 233h12v3h-12zM137 228h3v12h-3zM132 233h12v3h-12zM149 192h3v12h-3zM144 197h12v3h-12zM161 192h3v12h-3zM156 197h12v3h-12zM173 228h3v12h-3zM168 233h12v3h-12zM185 228h3v12h-3zM180 233h12v3h-12zM197 204h3v12h-3zM192 209h12v3h-12zM209 204h3v12h-3zM204 209h12v3h-12zM197 216h3v12h-3zM192 221h12v3h-12zM233 216h3v12h-3zM228 221h12v3h-12zM263 210h3v12h-3zM258 215h12v3h-12zM293 192h3v12h-3zM288 197h12v3h-12zM305 192h3v12h-3zM300 197h12v3h-12zM329 192h3v12h-3zM324 197h12v3h-12zM293 204h3v12h-3zM288 209h12v3h-12zM317 204h3v12h-3zM312 209h12v3h-12zM305 216h3v12h-3zM300 221h12v3h-12zM293 228h3v12h-3zM288 233h12v3h-12zM353 192h3v12h-3zM348 197h12v3h-12zM365 192h3v12h-3zM360 197h12v3h-12zM353 228h3v12h-3zM348 233h12v3h-12zM365 228h3v12h-3zM360 233h12v3h-12zM389 192h3v12h-3zM384 197h12v3h-12zM425 192h3v12h-3zM420 197h12v3h-12zM401 204h3v12h-3zM396 209h12v3h-12zM413 204h3v12h-3zM408 209h12v3h-12zM389 228h3v12h-3zM384 233h12v3h-12zM425 228h3v12h-3zM420 233h12v3h-12zM473 192h3v12h-3zM468 197h12v3h-12zM461 204h3v12h-3zM456 209h12v3h-12zM449 216h3v12h-3zM444 221h12v3h-12zM437 228h3v12h-3zM432 233h12v3h-12zM585 192h6v24h-6zM576 201h24v6h-24zM657 192h6v24h-6zM648 201h24v6h-24zM609 216h6v24h-6zM600 225h24v6h-24zM633 216h6v24h-6zM624 225h24v6h-24zM633 240h6v24h-6zM624 249h24v6h-24zM585 264h6v24h-6zM576 273h24v6h-24zM657 264h6v24h-6zM648 273h24v6h-24zM801 192h6v24h-6zM792 201h24v6h-24zM825 192h6v24h-6zM816 201h24v6h-24zM825 216h6v24h-6zM816 225h24v6h-24zM801 264h6v24h-6zM792 273h24v6h-24zM5 240h3v12h-3zM0 245h12v3h-12zM41 240h3v12h-3zM36 245h12v3h-12zM5 264h3v12h-3zM0 269h12v3h-12zM41 264h3v12h-3zM36 269h12v3h-12zM53 240h3v12h-3zM48 245h12v3h-12zM65 252h3v12h-3zM60 257h12v3h-12zM53 264h3v12h-3zM48 269h12v3h-12zM77 264h3v12h-3zM72 269h12v3h-12zM53 276h3v12h-3zM48 281h12v3h-12zM65 276h3v12h-3zM60 281h12v3h-12zM89 276h3v12h-3zM84 281h12v3h-12zM101 240h3v12h-3zM96 245h12v3h-12zM137 240h3v12h-3zM132 245h12v3h-12zM101 264h3v12h-3zM96 269h12v3h-12zM137 264h3v12h-3zM132 269h12v3h-12zM173 240h3v12h-3zM168 245h12v3h-12zM161 252h3v12h-3zM156 257h12v3h-12zM185 252h3v12h-3zM180 257h12v3h-12zM149 264h3v12h-3zM144 269h12v3h-12zM173 264h3v12h-3zM168 269h12v3h-12zM161 276h3v12h-3zM156 281h12v3h-12zM197 240h3v12h-3zM192 245h12v3h-12zM233 240h3v12h-3zM228 245h12v3h-12zM209 252h3v12h-3zM204 257h12v3h-12zM221 264h3v12h-3zM216 269h12v3h-12zM197 276h3v12h-3zM192 281h12v3h-12zM233 276h3v12h-3zM228 281h12v3h-12zM245 240h3v12h-3zM240 245h12v3h-12zM269 240h3v12h-3zM264 245h12v3h-12zM281 252h3v12h-3zM276 257h12v3h-12zM245 264h3v12h-3zM240 269h12v3h-12zM257 276h3v12h-3zM252 281h12v3h-12zM281 276h3v12h-3zM276 281h12v3h-12zM311 258h3v12h-3zM306 263h12v3h-12zM377 240h3v12h-3zM372 245h12v3h-12zM365 252h3v12h-3zM360 257h12v3h-12zM353 264h3v12h-3zM348 269h12v3h-12zM377 264h3v12h-3zM372 269h12v3h-12zM341 276h3v12h-3zM336 281h12v3h-12zM365 276h3v12h-3zM360 281h12v3h-12zM377 276h3v12h-3zM372 281h12v3h-12zM401 240h3v12h-3zM396 245h12v3h-12zM389 252h3v12h-3zM384 257h12v3h-12zM413 252h3v12h-3zM408 257h12v3h-12zM401 264h3v12h-3zM396 269h12v3h-12zM425 264h3v12h-3zM420 269h12v3h-12zM413 276h3v12h-3zM408 281h12v3h-12zM437 240h3v12h-3zM432 245h12v3h-12zM473 240h3v12h-3zM468 245h12v3h-12zM449 264h3v12h-3zM444 269h12v3h-12zM461 264h3v12h-3zM456 269h12v3h-12zM437 276h3v12h-3zM432 281h12v3h-12zM473 276h3v12h-3zM468 281h12v3h-12zM5 300h3v12h-3zM0 305h12v3h-12zM41 300h3v12h-3zM36 305h12v3h-12zM5 312h3v12h-3zM0 317h12v3h-12zM41 312h3v12h-3zM36 317h12v3h-12zM65 288h3v12h-3zM60 293h12v3h-12zM89 288h3v12h-3zM84 293h12v3h-12zM53 300h3v12h-3zM48 305h12v3h-12zM65 300h3v12h-3zM60 305h12v3h-12zM77 312h3v12h-3zM72 317h12v3h-12zM89 312h3v12h-3zM84 317h12v3h-12zM53 324h3v12h-3zM48 329h12v3h-12zM77 324h3v12h-3zM72 329h12v3h-12zM101 288h3v12h-3zM96 293h12v3h-12zM113 288h3v12h-3zM108 293h12v3h-12zM137 288h3v12h-3zM132 293h12v3h-12zM101 300h3v12h-3zM96 305h12v3h-12zM125 300h3v12h-3zM120 305h12v3h-12zM113 312h3v12h-3zM108 317h12v3h-12zM101 324h3v12h-3zM96 329h12v3h-12zM161 288h3v12h-3zM156 293h12v3h-12zM185 288h3v12h-3zM180 293h12v3h-12zM161 324h3v12h-3zM156 329h12v3h-12zM185 324h3v12h-3zM180 329h12v3h-12zM221 288h3v12h-3zM216 293h12v3h-12zM233 288h3v12h-3zM228 293h12v3h-12zM197 324h3v12h-3zM192 329h12v3h-12zM209 324h3v12h-3zM204 329h12v3h-12zM245 300h3v12h-3zM240 305h12v3h-12zM257 300h3v12h-3zM252 305h12v3h-12zM245 312h3v12h-3zM240 317h12v3h-12zM281 312h3v12h-3zM276 317h12v3h-12zM293 288h3v12h-3zM288 293h12v3h-12zM305 288h3v12h-3zM300 293h12v3h-12zM329 288h3v12h-3zM324 293h12v3h-12zM293 300h3v12h-3zM288 305h12v3h-12zM317 300h3v12h-3zM312 305h12v3h-12zM305 312h3v12h-3zM300 317h12v3h-12zM293 324h3v12h-3zM288 329h12v3h-12zM341 288h3v12h-3zM336 293h12v3h-12zM365 288h3v12h-3zM360 293h12v3h-12zM377 288h3v12h-3zM372 293h12v3h-12zM353 300h3v12h-3zM348 305h12v3h-12zM377 300h3v12h-3zM372 305h12v3h-12zM365 312h3v12h-3zM360 317h12v3h-12zM377 324h3v12h-3zM372 329h12v3h-12zM425 288h3v12h-3zM420 293h12v3h-12zM425 300h3v12h-3zM420 305h12v3h-12zM389 312h3v12h-3zM384 317h12v3h-12zM389 324h3v12h-3zM384 329h12v3h-12zM461 288h3v12h-3zM456 293h12v3h-12zM449 300h3v12h-3zM444 305h12v3h-12zM473 300h3v12h-3zM468 305h12v3h-12zM437 312h3v12h-3zM432 317h12v3h-12zM461 312h3v12h-3zM456 317h12v3h-12zM449 324h3v12h-3zM444 329h12v3h-12zM5 336h3v12h-3zM0 341h12v3h-12zM41 336h3v12h-3zM36 341h12v3h-12zM17 348h3v12h-3zM12 353h12v3h-12zM29 348h3v12h-3zM24 353h12v3h-12zM5 372h3v12h-3zM0 377h12v3h-12zM41 372h3v12h-3zM36 377h12v3h-12zM65 336h3v12h-3zM60 341h12v3h-12zM89 336h3v12h-3zM84 341h12v3h-12zM65 372h3v12h-3zM60 377h12v3h-12zM89 372h3v12h-3zM84 377h12v3h-12zM113 336h3v12h-3zM108 341h12v3h-12zM101 348h3v12h-3zM96 353h12v3h-12zM113 348h3v12h-3zM108 353h12v3h-12zM125 360h3v12h-3zM120 365h12v3h-12zM137 360h3v12h-3zM132 365h12v3h-12zM125 372h3v12h-3zM120 377h12v3h-12zM167 354h3v12h-3zM162 359h12v3h-12zM209 336h3v12h-3zM204 341h12v3h-12zM197 348h3v12h-3zM192 353h12v3h-12zM221 348h3v12h-3zM216 353h12v3h-12zM233 348h3v12h-3zM228 353h12v3h-12zM197 360h3v12h-3zM192 365h12v3h-12zM209 360h3v12h-3zM204 365h12v3h-12zM233 360h3v12h-3zM228 365h12v3h-12zM221 372h3v12h-3zM216 377h12v3h-12zM245 336h3v12h-3zM240 341h12v3h-12zM281 336h3v12h-3zM276 341h12v3h-12zM245 360h3v12h-3zM240 365h12v3h-12zM281 360h3v12h-3zM276 365h12v3h-12zM329 336h3v12h-3zM324 341h12v3h-12zM317 348h3v12h-3zM312 353h12v3h-12zM305 360h3v12h-3zM300 365h12v3h-12zM293 372h3v12h-3zM288 377h12v3h-12zM365 336h3v12h-3zM360 341h12v3h-12zM365 348h3v12h-3zM360 353h12v3h-12zM377 348h3v12h-3zM372 353h12v3h-12zM341 360h3v12h-3zM336 365h12v3h-12zM353 360h3v12h-3zM348 365h12v3h-12zM353 372h3v12h-3zM348 377h12v3h-12zM413 336h3v12h-3zM408 341h12v3h-12zM389 348h3v12h-3zM384 353h12v3h-12zM401 348h3v12h-3zM396 353h12v3h-12zM425 348h3v12h-3zM420 353h12v3h-12zM389 360h3v12h-3zM384 365h12v3h-12zM413 360h3v12h-3zM408 365h12v3h-12zM425 360h3v12h-3zM420 365h12v3h-12zM401 372h3v12h-3zM396 377h12v3h-12zM461 336h3v12h-3zM456 341h12v3h-12zM473 336h3v12h-3zM468 341h12v3h-12zM437 372h3v12h-3zM432 377h12v3h-12zM449 372h3v12h-3zM444 377h12v3h-12zM5 384h3v12h-3zM0 389h12v3h-12zM41 384h3v12h-3zM36 389h12v3h-12zM17 408h3v12h-3zM12 413h12v3h-12zM29 408h3v12h-3zM24 413h12v3h-12zM5 420h3v12h-3zM0 425h12v3h-12zM41 420h3v12h-3zM36 425h12v3h-12zM77 384h3v12h-3zM72 389h12v3h-12zM53 396h3v12h-3zM48 401h12v3h-12zM65 396h3v12h-3zM60 401h12v3h-12zM89 396h3v12h-3zM84 401h12v3h-12zM53 408h3v12h-3zM48 413h12v3h-12zM77 408h3v12h-3zM72 413h12v3h-12zM89 408h3v12h-3zM84 413h12v3h-12zM65 420h3v12h-3zM60 425h12v3h-12zM113 384h3v12h-3zM108 389h12v3h-12zM101 396h3v12h-3zM96 401h12v3h-12zM125 396h3v12h-3zM120 401h12v3h-12zM113 408h3v12h-3zM108 413h12v3h-12zM137 408h3v12h-3zM132 413h12v3h-12zM125 420h3v12h-3zM120 425h12v3h-12zM173 384h3v12h-3zM168 389h12v3h-12zM149 396h3v12h-3zM144 401h12v3h-12zM161 396h3v12h-3zM156 401h12v3h-12zM185 396h3v12h-3zM180 401h12v3h-12zM149 408h3v12h-3zM144 413h12v3h-12zM173 408h3v12h-3zM168 413h12v3h-12zM185 408h3v12h-3zM180 413h12v3h-12zM161 420h3v12h-3zM156 425h12v3h-12zM197 396h3v12h-3zM192 401h12v3h-12zM233 396h3v12h-3zM228 401h12v3h-12zM197 408h3v12h-3zM192 413h12v3h-12zM209 408h3v12h-3zM204 413h12v3h-12zM245 384h3v12h-3zM240 389h12v3h-12zM281 384h3v12h-3zM276 389h12v3h-12zM257 396h3v12h-3zM252 401h12v3h-12zM269 396h3v12h-3zM264 401h12v3h-12zM245 408h3v12h-3zM240 413h12v3h-12zM281 408h3v12h-3zM276 413h12v3h-12zM311 402h3v12h-3zM306 407h12v3h-12zM353 384h3v12h-3zM348 389h12v3h-12zM341 396h3v12h-3zM336 401h12v3h-12zM365 396h3v12h-3zM360 401h12v3h-12zM353 408h3v12h-3zM348 413h12v3h-12zM377 408h3v12h-3zM372 413h12v3h-12zM365 420h3v12h-3zM360 425h12v3h-12zM425 384h3v12h-3zM420 389h12v3h-12zM425 396h3v12h-3zM420 401h12v3h-12zM389 408h3v12h-3zM384 413h12v3h-12zM389 420h3v12h-3zM384 425h12v3h-12zM437 396h3v12h-3zM432 401h12v3h-12zM473 396h3v12h-3zM468 401h12v3h-12zM437 408h3v12h-3zM432 413h12v3h-12zM473 408h3v12h-3zM468 413h12v3h-12zM609 384h6v24h-6zM600 393h24v6h-24zM633 384h6v24h-6zM624 393h24v6h-24zM609 456h6v24h-6zM600 465h24v6h-24zM633 456h6v24h-6zM624 465h24v6h-24zM801 384h6v24h-6zM792 393h24v6h-24zM849 384h6v24h-6zM840 393h24v6h-24zM777 408h6v24h-6zM768 417h24v6h-24zM801 408h6v24h-6zM792 417h24v6h-24zM825 432h6v24h-6zM816 441h24v6h-24zM849 432h6v24h-6zM840 441h24v6h-24zM777 456h6v24h-6zM768 465h24v6h-24zM825 456h6v24h-6zM816 465h24v6h-24zM5 432h3v12h-3zM0 437h12v3h-12zM41 432h3v12h-3zM36 437h12v3h-12zM17 456h3v12h-3zM12 461h12v3h-12zM29 456h3v12h-3zM24 461h12v3h-12zM5 468h3v12h-3zM0 473h12v3h-12zM41 468h3v12h-3zM36 473h12v3h-12zM53 432h3v12h-3zM48 437h12v3h-12zM77 432h3v12h-3zM72 437h12v3h-12zM65 444h3v12h-3zM60 449h12v3h-12zM89 444h3v12h-3zM84 449h12v3h-12zM53 456h3v12h-3zM48 461h12v3h-12zM77 456h3v12h-3zM72 461h12v3h-12zM65 468h3v12h-3zM60 473h12v3h-12zM89 468h3v12h-3zM84 473h12v3h-12zM101 432h3v12h-3zM96 437h12v3h-12zM113 432h3v12h-3zM108 437h12v3h-12zM125 468h3v12h-3zM120 473h12v3h-12zM137 468h3v12h-3zM132 473h12v3h-12zM161 444h3v12h-3zM156 449h12v3h-12zM173 444h3v12h-3zM168 449h12v3h-12zM161 456h3v12h-3zM156 461h12v3h-12zM173 456h3v12h-3zM168 461h12v3h-12zM233 432h3v12h-3zM228 437h12v3h-12zM221 444h3v12h-3zM216 449h12v3h-12zM209 456h3v12h-3zM204 461h12v3h-12zM233 456h3v12h-3zM228 461h12v3h-12zM197 468h3v12h-3zM192 473h12v3h-12zM221 468h3v12h-3zM216 473h12v3h-12zM233 468h3v12h-3zM228 473h12v3h-12zM245 432h3v12h-3zM240 437h12v3h-12zM269 432h3v12h-3zM264 437h12v3h-12zM281 432h3v12h-3zM276 437h12v3h-12zM257 444h3v12h-3zM252 449h12v3h-12zM281 444h3v12h-3zM276 449h12v3h-12zM269 456h3v12h-3zM264 461h12v3h-12zM281 468h3v12h-3zM276 473h12v3h-12zM293 432h3v12h-3zM288 437h12v3h-12zM305 432h3v12h-3zM300 437h12v3h-12zM329 432h3v12h-3zM324 437h12v3h-12zM293 444h3v12h-3zM288 449h12v3h-12zM317 444h3v12h-3zM312 449h12v3h-12zM305 456h3v12h-3zM300 461h12v3h-12zM293 468h3v12h-3zM288 473h12v3h-12zM341 432h3v12h-3zM336 437h12v3h-12zM353 432h3v12h-3zM348 437h12v3h-12zM377 432h3v12h-3zM372 437h12v3h-12zM341 444h3v12h-3zM336 449h12v3h-12zM365 444h3v12h-3zM360 449h12v3h-12zM353 456h3v12h-3zM348 461h12v3h-12zM341 468h3v12h-3zM336 473h12v3h-12zM401 432h3v12h-3zM396 437h12v3h-12zM425 432h3v12h-3zM420 437h12v3h-12zM413 444h3v12h-3zM408 449h12v3h-12zM413 456h3v12h-3zM408 461h12v3h-12zM401 468h3v12h-3zM396 473h12v3h-12zM425 468h3v12h-3zM420 473h12v3h-12zM449 432h3v12h-3zM444 437h12v3h-12zM461 432h3v12h-3zM456 437h12v3h-12zM449 468h3v12h-3zM444 473h12v3h-12zM461 468h3v12h-3zM456 473h12v3h-12zM5 480h3v12h-3zM0 485h12v3h-12zM17 480h3v12h-3zM12 485h12v3h-12zM5 492h3v12h-3zM0 497h12v3h-12zM17 492h3v12h-3zM12 497h12v3h-12zM29 504h3v12h-3zM24 509h12v3h-12zM41 504h3v12h-3zM36 509h12v3h-12zM29 516h3v12h-3zM24 521h12v3h-12zM41 516h3v12h-3zM36 521h12v3h-12zM53 480h3v12h-3zM48 485h12v3h-12zM65 480h3v12h-3zM60 485h12v3h-12zM89 480h3v12h-3zM84 485h12v3h-12zM53 492h3v12h-3zM48 497h12v3h-12zM77 492h3v12h-3zM72 497h12v3h-12zM65 504h3v12h-3zM60 509h12v3h-12zM53 516h3v12h-3zM48 521h12v3h-12zM101 480h3v12h-3zM96 485h12v3h-12zM101 492h3v12h-3zM96 497h12v3h-12zM137 504h3v12h-3zM132 509h12v3h-12zM137 516h3v12h-3zM132 521h12v3h-12zM161 492h3v12h-3zM156 497h12v3h-12zM173 492h3v12h-3zM168 497h12v3h-12zM161 504h3v12h-3zM156 509h12v3h-12zM173 504h3v12h-3zM168 509h12v3h-12zM197 492h3v12h-3zM192 497h12v3h-12zM209 492h3v12h-3zM204 497h12v3h-12zM197 504h3v12h-3zM192 509h12v3h-12zM233 504h3v12h-3zM228 509h12v3h-12zM245 480h3v12h-3zM240 485h12v3h-12zM257 492h3v12h-3zM252 497h12v3h-12zM245 504h3v12h-3zM240 509h12v3h-12zM269 504h3v12h-3zM264 509h12v3h-12zM245 516h3v12h-3zM240 521h12v3h-12zM257 516h3v12h-3zM252 521h12v3h-12zM281 516h3v12h-3zM276 521h12v3h-12zM317 480h3v12h-3zM312 485h12v3h-12zM329 480h3v12h-3zM324 485h12v3h-12zM293 516h3v12h-3zM288 521h12v3h-12zM305 516h3v12h-3zM300 521h12v3h-12zM365 480h3v12h-3zM360 485h12v3h-12zM341 492h3v12h-3zM336 497h12v3h-12zM353 492h3v12h-3zM348 497h12v3h-12zM377 492h3v12h-3zM372 497h12v3h-12zM341 504h3v12h-3zM336 509h12v3h-12zM365 504h3v12h-3zM360 509h12v3h-12zM377 504h3v12h-3zM372 509h12v3h-12zM353 516h3v12h-3zM348 521h12v3h-12zM389 480h3v12h-3zM384 485h12v3h-12zM401 480h3v12h-3zM396 485h12v3h-12zM413 516h3v12h-3zM408 521h12v3h-12zM425 516h3v12h-3zM420 521h12v3h-12zM437 480h3v12h-3zM432 485h12v3h-12zM473 480h3v12h-3zM468 485h12v3h-12zM449 492h3v12h-3zM444 497h12v3h-12zM461 492h3v12h-3zM456 497h12v3h-12zM437 504h3v12h-3zM432 509h12v3h-12zM473 504h3v12h-3zM468 509h12v3h-12zM5 528h3v12h-3zM0 533h12v3h-12zM29 528h3v12h-3zM24 533h12v3h-12zM41 528h3v12h-3zM36 533h12v3h-12zM17 540h3v12h-3zM12 545h12v3h-12zM41 540h3v12h-3zM36 545h12v3h-12zM29 552h3v12h-3zM24 557h12v3h-12zM41 564h3v12h-3zM36 569h12v3h-12zM53 528h3v12h-3zM48 533h12v3h-12zM89 528h3v12h-3zM84 533h12v3h-12zM53 552h3v12h-3zM48 557h12v3h-12zM89 552h3v12h-3zM84 557h12v3h-12zM125 528h3v12h-3zM120 533h12v3h-12zM101 540h3v12h-3zM96 545h12v3h-12zM113 540h3v12h-3zM108 545h12v3h-12zM137 540h3v12h-3zM132 545h12v3h-12zM101 552h3v12h-3zM96 557h12v3h-12zM125 552h3v12h-3zM120 557h12v3h-12zM137 552h3v12h-3zM132 557h12v3h-12zM113 564h3v12h-3zM108 569h12v3h-12zM149 528h3v12h-3zM144 533h12v3h-12zM161 540h3v12h-3zM156 545h12v3h-12zM149 552h3v12h-3zM144 557h12v3h-12zM173 552h3v12h-3zM168 557h12v3h-12zM149 564h3v12h-3zM144 569h12v3h-12zM161 564h3v12h-3zM156 569h12v3h-12zM185 564h3v12h-3zM180 569h12v3h-12zM209 528h3v12h-3zM204 533h12v3h-12zM221 528h3v12h-3zM216 533h12v3h-12zM209 564h3v12h-3zM204 569h12v3h-12zM221 564h3v12h-3zM216 569h12v3h-12zM269 528h3v12h-3zM264 533h12v3h-12zM269 540h3v12h-3zM264 545h12v3h-12zM281 540h3v12h-3zM276 545h12v3h-12zM245 552h3v12h-3zM240 557h12v3h-12zM257 552h3v12h-3zM252 557h12v3h-12zM257 564h3v12h-3zM252 569h12v3h-12zM293 528h3v12h-3zM288 533h12v3h-12zM329 528h3v12h-3zM324 533h12v3h-12zM305 552h3v12h-3zM300 557h12v3h-12zM317 552h3v12h-3zM312 557h12v3h-12zM293 564h3v12h-3zM288 569h12v3h-12zM329 564h3v12h-3zM324 569h12v3h-12zM353 528h3v12h-3zM348 533h12v3h-12zM341 540h3v12h-3zM336 545h12v3h-12zM353 540h3v12h-3zM348 545h12v3h-12zM365 552h3v12h-3zM360 557h12v3h-12zM377 552h3v12h-3zM372 557h12v3h-12zM365 564h3v12h-3zM360 569h12v3h-12zM389 528h3v12h-3zM384 533h12v3h-12zM401 528h3v12h-3zM396 533h12v3h-12zM413 564h3v12h-3zM408 569h12v3h-12zM425 564h3v12h-3zM420 569h12v3h-12zM449 528h3v12h-3zM444 533h12v3h-12zM437 540h3v12h-3zM432 545h12v3h-12zM461 540h3v12h-3zM456 545h12v3h-12zM473 540h3v12h-3zM468 545h12v3h-12zM437 552h3v12h-3zM432 557h12v3h-12zM449 552h3v12h-3zM444 557h12v3h-12zM473 552h3v12h-3zM468 557h12v3h-12zM461 564h3v12h-3zM456 569h12v3h-12zM5 576h3v12h-3zM0 581h12v3h-12zM29 576h3v12h-3zM24 581h12v3h-12zM29 588h3v12h-3zM24 593h12v3h-12zM41 588h3v12h-3zM36 593h12v3h-12zM5 600h3v12h-3zM0 605h12v3h-12zM17 600h3v12h-3zM12 605h12v3h-12zM17 612h3v12h-3zM12 617h12v3h-12zM41 612h3v12h-3zM36 617h12v3h-12zM65 576h3v12h-3zM60 581h12v3h-12zM53 588h3v12h-3zM48 593h12v3h-12zM89 600h3v12h-3zM84 605h12v3h-12zM77 612h3v12h-3zM72 617h12v3h-12zM101 576h3v12h-3zM96 581h12v3h-12zM125 576h3v12h-3zM120 581h12v3h-12zM113 588h3v12h-3zM108 593h12v3h-12zM137 588h3v12h-3zM132 593h12v3h-12zM101 600h3v12h-3zM96 605h12v3h-12zM125 600h3v12h-3zM120 605h12v3h-12zM113 612h3v12h-3zM108 617h12v3h-12zM137 612h3v12h-3zM132 617h12v3h-12zM161 576h3v12h-3zM156 581h12v3h-12zM185 576h3v12h-3zM180 581h12v3h-12zM149 588h3v12h-3zM144 593h12v3h-12zM185 600h3v12h-3zM180 605h12v3h-12zM149 612h3v12h-3zM144 617h12v3h-12zM173 612h3v12h-3zM168 617h12v3h-12zM209 576h3v12h-3zM204 581h12v3h-12zM197 588h3v12h-3zM192 593h12v3h-12zM233 600h3v12h-3zM228 605h12v3h-12zM221 612h3v12h-3zM216 617h12v3h-12zM245 588h3v12h-3zM240 593h12v3h-12zM281 588h3v12h-3zM276 593h12v3h-12zM245 600h3v12h-3zM240 605h12v3h-12zM257 600h3v12h-3zM252 605h12v3h-12zM305 576h3v12h-3zM300 581h12v3h-12zM329 576h3v12h-3zM324 581h12v3h-12zM293 588h3v12h-3zM288 593h12v3h-12zM329 600h3v12h-3zM324 605h12v3h-12zM293 612h3v12h-3zM288 617h12v3h-12zM317 612h3v12h-3zM312 617h12v3h-12zM341 576h3v12h-3zM336 581h12v3h-12zM377 576h3v12h-3zM372 581h12v3h-12zM353 588h3v12h-3zM348 593h12v3h-12zM365 600h3v12h-3zM360 605h12v3h-12zM341 612h3v12h-3zM336 617h12v3h-12zM377 612h3v12h-3zM372 617h12v3h-12zM401 576h3v12h-3zM396 581h12v3h-12zM413 576h3v12h-3zM408 581h12v3h-12zM401 612h3v12h-3zM396 617h12v3h-12zM413 612h3v12h-3zM408 617h12v3h-12zM437 576h3v12h-3zM432 581h12v3h-12zM473 576h3v12h-3zM468 581h12v3h-12zM449 588h3v12h-3zM444 593h12v3h-12zM461 588h3v12h-3zM456 593h12v3h-12zM449 600h3v12h-3zM444 605h12v3h-12zM461 600h3v12h-3zM456 605h12v3h-12zM437 612h3v12h-3zM432 617h12v3h-12zM473 612h3v12h-3zM468 617h12v3h-12zM585 576h6v24h-6zM576 585h24v6h-24zM657 576h6v24h-6zM648 585h24v6h-24zM585 648h6v24h-6zM576 657h24v6h-24zM657 648h6v24h-6zM648 657h24v6h-24zM801 576h6v24h-6zM792 585h24v6h-24zM777 600h6v24h-6zM768 609h24v6h-24zM825 600h6v24h-6zM816 609h24v6h-24zM801 624h6v24h-6zM792 633h24v6h-24zM849 624h6v24h-6zM840 633h24v6h-24zM825 648h6v24h-6zM816 657h24v6h-24zM17 624h3v12h-3zM12 629h12v3h-12zM41 624h3v12h-3zM36 629h12v3h-12zM29 636h3v12h-3zM24 641h12v3h-12zM29 648h3v12h-3zM24 653h12v3h-12zM17 660h3v12h-3zM12 665h12v3h-12zM41 660h3v12h-3zM36 665h12v3h-12zM53 624h3v12h-3zM48 629h12v3h-12zM77 624h3v12h-3zM72 629h12v3h-12zM89 624h3v12h-3zM84 629h12v3h-12zM65 636h3v12h-3zM60 641h12v3h-12zM89 636h3v12h-3zM84 641h12v3h-12zM77 648h3v12h-3zM72 653h12v3h-12zM89 660h3v12h-3zM84 665h12v3h-12zM113 624h3v12h-3zM108 629h12v3h-12zM137 624h3v12h-3zM132 629h12v3h-12zM113 660h3v12h-3zM108 665h12v3h-12zM137 660h3v12h-3zM132 665h12v3h-12zM161 624h3v12h-3zM156 629h12v3h-12zM185 624h3v12h-3zM180 629h12v3h-12zM149 636h3v12h-3zM144 641h12v3h-12zM185 648h3v12h-3zM180 653h12v3h-12zM149 660h3v12h-3zM144 665h12v3h-12zM173 660h3v12h-3zM168 665h12v3h-12zM197 624h3v12h-3zM192 629h12v3h-12zM233 624h3v12h-3zM228 629h12v3h-12zM209 636h3v12h-3zM204 641h12v3h-12zM209 648h3v12h-3zM204 653h12v3h-12zM221 648h3v12h-3zM216 653h12v3h-12zM197 660h3v12h-3zM192 665h12v3h-12zM233 660h3v12h-3zM228 665h12v3h-12zM245 624h3v12h-3zM240 629h12v3h-12zM281 624h3v12h-3zM276 629h12v3h-12zM245 660h3v12h-3zM240 665h12v3h-12zM281 660h3v12h-3zM276 665h12v3h-12zM293 624h3v12h-3zM288 629h12v3h-12zM329 624h3v12h-3zM324 629h12v3h-12zM305 636h3v12h-3zM300 641h12v3h-12zM317 636h3v12h-3zM312 641h12v3h-12zM293 648h3v12h-3zM288 653h12v3h-12zM329 648h3v12h-3zM324 653h12v3h-12zM341 624h3v12h-3zM336 629h12v3h-12zM353 624h3v12h-3zM348 629h12v3h-12zM377 624h3v12h-3zM372 629h12v3h-12zM341 636h3v12h-3zM336 641h12v3h-12zM365 636h3v12h-3zM360 641h12v3h-12zM353 648h3v12h-3zM348 653h12v3h-12zM341 660h3v12h-3zM336 665h12v3h-12zM401 624h3v12h-3zM396 629h12v3h-12zM425 624h3v12h-3zM420 629h12v3h-12zM389 636h3v12h-3zM384 641h12v3h-12zM401 636h3v12h-3zM396 641h12v3h-12zM413 648h3v12h-3zM408 653h12v3h-12zM425 648h3v12h-3zM420 653h12v3h-12zM389 660h3v12h-3zM384 665h12v3h-12zM413 660h3v12h-3zM408 665h12v3h-12zM473 696h3v12h-3zM468 701h12v3h-12zM449 624h3v12h-3zM444 629h12v3h-12zM461 624h3v12h-3zM456 629h12v3h-12zM449 636h3v12h-3zM444 641h12v3h-12zM473 636h3v12h-3zM468 641h12v3h-12zM437 648h3v12h-3zM432 653h12v3h-12zM461 648h3v12h-3zM456 653h12v3h-12zM449 660h3v12h-3zM444 665h12v3h-12zM461 660h3v12h-3zM456 665h12v3h-12zM5 672h3v12h-3zM0 677h12v3h-12zM41 672h3v12h-3zM36 677h12v3h-12zM17 696h3v12h-3zM12 701h12v3h-12zM29 696h3v12h-3zM24 701h12v3h-12zM5 708h3v12h-3zM0 713h12v3h-12zM41 708h3v12h-3zM36 713h12v3h-12zM53 672h3v12h-3zM48 677h12v3h-12zM89 672h3v12h-3zM84 677h12v3h-12zM65 684h3v12h-3zM60 689h12v3h-12zM77 684h3v12h-3zM72 689h12v3h-12zM77 696h3v12h-3zM72 701h12v3h-12zM53 708h3v12h-3zM48 713h12v3h-12zM89 708h3v12h-3zM84 713h12v3h-12zM101 672h3v12h-3zM96 677h12v3h-12zM137 672h3v12h-3zM132 677h12v3h-12zM113 696h3v12h-3zM108 701h12v3h-12zM125 696h3v12h-3zM120 701h12v3h-12zM101 708h3v12h-3zM96 713h12v3h-12zM137 708h3v12h-3zM132 713h12v3h-12zM167 690h3v12h-3zM162 695h12v3h-12zM221 672h3v12h-3zM216 677h12v3h-12zM197 684h3v12h-3zM192 689h12v3h-12zM209 684h3v12h-3zM204 689h12v3h-12zM233 684h3v12h-3zM228 689h12v3h-12zM197 696h3v12h-3zM192 701h12v3h-12zM221 696h3v12h-3zM216 701h12v3h-12zM233 696h3v12h-3zM228 701h12v3h-12zM209 708h3v12h-3zM204 713h12v3h-12zM245 672h3v12h-3zM240 677h12v3h-12zM281 672h3v12h-3zM276 677h12v3h-12zM257 684h3v12h-3zM252 689h12v3h-12zM269 684h3v12h-3zM264 689h12v3h-12zM269 696h3v12h-3zM264 701h12v3h-12zM245 708h3v12h-3zM240 713h12v3h-12zM281 708h3v12h-3zM276 713h12v3h-12zM293 672h3v12h-3zM288 677h12v3h-12zM329 672h3v12h-3zM324 677h12v3h-12zM305 684h3v12h-3zM300 689h12v3h-12zM317 696h3v12h-3zM312 701h12v3h-12zM293 708h3v12h-3zM288 713h12v3h-12zM329 708h3v12h-3zM324 713h12v3h-12zM341 672h3v12h-3zM336 677h12v3h-12zM365 672h3v12h-3zM360 677h12v3h-12zM377 672h3v12h-3zM372 677h12v3h-12zM353 684h3v12h-3zM348 689h12v3h-12zM377 684h3v12h-3zM372 689h12v3h-12zM365 696h3v12h-3zM360 701h12v3h-12zM377 708h3v12h-3zM372 713h12v3h-12zM389 672h3v12h-3zM384 677h12v3h-12zM425 672h3v12h-3zM420 677h12v3h-12zM401 684h3v12h-3zM396 689h12v3h-12zM413 684h3v12h-3zM408 689h12v3h-12zM389 696h3v12h-3zM384 701h12v3h-12zM425 696h3v12h-3zM420 701h12v3h-12zM473 744h3v12h-3zM468 749h12v3h-12zM449 672h3v12h-3zM444 677h12v3h-12zM461 672h3v12h-3zM456 677h12v3h-12zM449 684h3v12h-3zM444 689h12v3h-12zM473 684h3v12h-3zM468 689h12v3h-12zM437 696h3v12h-3zM432 701h12v3h-12zM461 696h3v12h-3zM456 701h12v3h-12zM449 708h3v12h-3zM444 713h12v3h-12zM461 708h3v12h-3zM456 713h12v3h-12zM5 720h3v12h-3zM0 725h12v3h-12zM41 720h3v12h-3zM36 725h12v3h-12zM17 732h3v12h-3zM12 737h12v3h-12zM29 732h3v12h-3zM24 737h12v3h-12zM29 744h3v12h-3zM24 749h12v3h-12zM5 756h3v12h-3zM0 761h12v3h-12zM41 756h3v12h-3zM36 761h12v3h-12zM71 738h3v12h-3zM66 743h12v3h-12zM113 720h3v12h-3zM108 725h12v3h-12zM125 720h3v12h-3zM120 725h12v3h-12zM113 756h3v12h-3zM108 761h12v3h-12zM125 756h3v12h-3zM120 761h12v3h-12zM149 720h3v12h-3zM144 725h12v3h-12zM185 720h3v12h-3zM180 725h12v3h-12zM173 732h3v12h-3zM168 737h12v3h-12zM161 744h3v12h-3zM156 749h12v3h-12zM149 756h3v12h-3zM144 761h12v3h-12zM185 756h3v12h-3zM180 761h12v3h-12zM209 720h3v12h-3zM204 725h12v3h-12zM233 720h3v12h-3zM228 725h12v3h-12zM197 732h3v12h-3zM192 737h12v3h-12zM209 732h3v12h-3zM204 737h12v3h-12zM221 744h3v12h-3zM216 749h12v3h-12zM233 744h3v12h-3zM228 749h12v3h-12zM197 756h3v12h-3zM192 761h12v3h-12zM221 756h3v12h-3zM216 761h12v3h-12zM245 720h3v12h-3zM240 725h12v3h-12zM257 720h3v12h-3zM252 725h12v3h-12zM269 756h3v12h-3zM264 761h12v3h-12zM281 756h3v12h-3zM276 761h12v3h-12zM317 720h3v12h-3zM312 725h12v3h-12zM329 732h3v12h-3zM324 737h12v3h-12zM293 744h3v12h-3zM288 749h12v3h-12zM305 756h3v12h-3zM300 761h12v3h-12zM377 720h3v12h-3zM372 725h12v3h-12zM365 732h3v12h-3zM360 737h12v3h-12zM353 744h3v12h-3zM348 749h12v3h-12zM341 756h3v12h-3zM336 761h12v3h-12zM389 732h3v12h-3zM384 737h12v3h-12zM425 732h3v12h-3zM420 737h12v3h-12zM389 744h3v12h-3zM384 749h12v3h-12zM425 744h3v12h-3zM420 749h12v3h-12zM437 720h3v12h-3zM432 725h12v3h-12zM473 720h3v12h-3zM468 725h12v3h-12zM461 732h3v12h-3zM456 737h12v3h-12zM449 744h3v12h-3zM444 749h12v3h-12zM437 756h3v12h-3zM432 761h12v3h-12zM473 756h3v12h-3zM468 761h12v3h-12zM41 768h3v12h-3zM36 773h12v3h-12zM41 780h3v12h-3zM36 785h12v3h-12zM5 792h3v12h-3zM0 797h12v3h-12zM5 804h3v12h-3zM0 809h12v3h-12zM53 768h3v12h-3zM48 773h12v3h-12zM89 768h3v12h-3zM84 773h12v3h-12zM65 780h3v12h-3zM60 785h12v3h-12zM77 780h3v12h-3zM72 785h12v3h-12zM65 792h3v12h-3zM60 797h12v3h-12zM77 792h3v12h-3zM72 797h12v3h-12zM53 804h3v12h-3zM48 809h12v3h-12zM89 804h3v12h-3zM84 809h12v3h-12zM101 768h3v12h-3zM96 773h12v3h-12zM137 768h3v12h-3zM132 773h12v3h-12zM113 780h3v12h-3zM108 785h12v3h-12zM125 780h3v12h-3zM120 785h12v3h-12zM101 792h3v12h-3zM96 797h12v3h-12zM137 792h3v12h-3zM132 797h12v3h-12zM149 768h3v12h-3zM144 773h12v3h-12zM173 768h3v12h-3zM168 773h12v3h-12zM185 780h3v12h-3zM180 785h12v3h-12zM149 792h3v12h-3zM144 797h12v3h-12zM161 804h3v12h-3zM156 809h12v3h-12zM185 804h3v12h-3zM180 809h12v3h-12zM197 780h3v12h-3zM192 785h12v3h-12zM233 780h3v12h-3zM228 785h12v3h-12zM197 792h3v12h-3zM192 797h12v3h-12zM209 792h3v12h-3zM204 797h12v3h-12zM257 768h3v12h-3zM252 773h12v3h-12zM269 792h3v12h-3zM264 797h12v3h-12zM257 804h3v12h-3zM252 809h12v3h-12zM269 804h3v12h-3zM264 809h12v3h-12zM305 768h3v12h-3zM300 773h12v3h-12zM293 780h3v12h-3zM288 785h12v3h-12zM305 780h3v12h-3zM300 785h12v3h-12zM317 792h3v12h-3zM312 797h12v3h-12zM329 792h3v12h-3zM324 797h12v3h-12zM317 804h3v12h-3zM312 809h12v3h-12zM353 768h3v12h-3zM348 773h12v3h-12zM341 780h3v12h-3zM336 785h12v3h-12zM365 780h3v12h-3zM360 785h12v3h-12zM353 792h3v12h-3zM348 797h12v3h-12zM377 792h3v12h-3zM372 797h12v3h-12zM365 804h3v12h-3zM360 809h12v3h-12zM425 768h3v12h-3zM420 773h12v3h-12zM425 780h3v12h-3zM420 785h12v3h-12zM389 792h3v12h-3zM384 797h12v3h-12zM389 804h3v12h-3zM384 809h12v3h-12zM437 780h3v12h-3zM432 785h12v3h-12zM473 780h3v12h-3zM468 785h12v3h-12zM437 792h3v12h-3zM432 797h12v3h-12zM473 792h3v12h-3zM468 797h12v3h-12zM657 768h6v24h-6zM648 777h24v6h-24zM657 792h6v24h-6zM648 801h24v6h-24zM585 816h6v24h-6zM576 825h24v6h-24zM585 840h6v24h-6zM576 849h24v6h-24zM777 768h6v24h-6zM768 777h24v6h-24zM801 768h6v24h-6zM792 777h24v6h-24zM825 840h6v24h-6zM816 849h24v6h-24zM849 840h6v24h-6zM840 849h24v6h-24zM41 816h3v12h-3zM36 821h12v3h-12zM29 828h3v12h-3zM24 833h12v3h-12zM17 840h3v12h-3zM12 845h12v3h-12zM5 852h3v12h-3zM0 857h12v3h-12zM65 816h3v12h-3zM60 821h12v3h-12zM89 816h3v12h-3zM84 821h12v3h-12zM53 828h3v12h-3zM48 833h12v3h-12zM65 828h3v12h-3zM60 833h12v3h-12zM77 840h3v12h-3zM72 845h12v3h-12zM89 840h3v12h-3zM84 845h12v3h-12zM53 852h3v12h-3zM48 857h12v3h-12zM77 852h3v12h-3zM72 857h12v3h-12zM101 816h3v12h-3zM96 821h12v3h-12zM137 816h3v12h-3zM132 821h12v3h-12zM113 828h3v12h-3zM108 833h12v3h-12zM113 840h3v12h-3zM108 845h12v3h-12zM125 840h3v12h-3zM120 845h12v3h-12zM101 852h3v12h-3zM96 857h12v3h-12zM137 852h3v12h-3zM132 857h12v3h-12zM149 816h3v12h-3zM144 821h12v3h-12zM185 816h3v12h-3zM180 821h12v3h-12zM173 828h3v12h-3zM168 833h12v3h-12zM161 840h3v12h-3zM156 845h12v3h-12zM173 840h3v12h-3zM168 845h12v3h-12zM149 852h3v12h-3zM144 857h12v3h-12zM185 852h3v12h-3zM180 857h12v3h-12zM233 816h3v12h-3zM228 821h12v3h-12zM221 828h3v12h-3zM216 833h12v3h-12zM209 840h3v12h-3zM204 845h12v3h-12zM233 840h3v12h-3zM228 845h12v3h-12zM197 852h3v12h-3zM192 857h12v3h-12zM221 852h3v12h-3zM216 857h12v3h-12zM233 852h3v12h-3zM228 857h12v3h-12zM257 816h3v12h-3zM252 821h12v3h-12zM269 816h3v12h-3zM264 821h12v3h-12zM269 828h3v12h-3zM264 833h12v3h-12zM257 852h3v12h-3zM252 857h12v3h-12zM293 816h3v12h-3zM288 821h12v3h-12zM329 816h3v12h-3zM324 821h12v3h-12zM317 828h3v12h-3zM312 833h12v3h-12zM305 840h3v12h-3zM300 845h12v3h-12zM293 852h3v12h-3zM288 857h12v3h-12zM329 852h3v12h-3zM324 857h12v3h-12zM341 816h3v12h-3zM336 821h12v3h-12zM377 816h3v12h-3zM372 821h12v3h-12zM353 828h3v12h-3zM348 833h12v3h-12zM365 840h3v12h-3zM360 845h12v3h-12zM341 852h3v12h-3zM336 857h12v3h-12zM377 852h3v12h-3zM372 857h12v3h-12zM401 816h3v12h-3zM396 821h12v3h-12zM425 816h3v12h-3zM420 821h12v3h-12zM413 828h3v12h-3zM408 833h12v3h-12zM413 840h3v12h-3zM408 845h12v3h-12zM401 852h3v12h-3zM396 857h12v3h-12zM425 852h3v12h-3zM420 857h12v3h-12zM449 828h3v12h-3zM444 833h12v3h-12zM461 828h3v12h-3zM456 833h12v3h-12zM449 840h3v12h-3zM444 845h12v3h-12zM461 840h3v12h-3zM456 845h12v3h-12zM29 864h3v12h-3zM24 869h12v3h-12zM41 876h3v12h-3zM36 881h12v3h-12zM5 888h3v12h-3zM0 893h12v3h-12zM17 900h3v12h-3zM12 905h12v3h-12zM65 864h3v12h-3zM60 869h12v3h-12zM53 876h3v12h-3zM48 881h12v3h-12zM89 888h3v12h-3zM84 893h12v3h-12zM77 900h3v12h-3zM72 905h12v3h-12zM113 864h3v12h-3zM108 869h12v3h-12zM125 888h3v12h-3zM120 893h12v3h-12zM113 900h3v12h-3zM108 905h12v3h-12zM125 900h3v12h-3zM120 905h12v3h-12zM161 864h3v12h-3zM156 869h12v3h-12zM185 864h3v12h-3zM180 869h12v3h-12zM149 876h3v12h-3zM144 881h12v3h-12zM161 876h3v12h-3zM156 881h12v3h-12zM173 888h3v12h-3zM168 893h12v3h-12zM185 888h3v12h-3zM180 893h12v3h-12zM149 900h3v12h-3zM144 905h12v3h-12zM173 900h3v12h-3zM168 905h12v3h-12zM197 876h3v12h-3zM192 881h12v3h-12zM233 876h3v12h-3zM228 881h12v3h-12zM197 888h3v12h-3zM192 893h12v3h-12zM209 888h3v12h-3zM204 893h12v3h-12zM281 864h3v12h-3zM276 869h12v3h-12zM269 876h3v12h-3zM264 881h12v3h-12zM257 888h3v12h-3zM252 893h12v3h-12zM245 900h3v12h-3zM240 905h12v3h-12zM293 864h3v12h-3zM288 869h12v3h-12zM317 864h3v12h-3zM312 869h12v3h-12zM317 876h3v12h-3zM312 881h12v3h-12zM329 876h3v12h-3zM324 881h12v3h-12zM293 888h3v12h-3zM288 893h12v3h-12zM305 888h3v12h-3zM300 893h12v3h-12zM305 900h3v12h-3zM300 905h12v3h-12zM329 900h3v12h-3zM324 905h12v3h-12zM353 864h3v12h-3zM348 869h12v3h-12zM377 864h3v12h-3zM372 869h12v3h-12zM353 900h3v12h-3zM348 905h12v3h-12zM377 900h3v12h-3zM372 905h12v3h-12zM389 864h3v12h-3zM384 869h12v3h-12zM413 864h3v12h-3zM408 869h12v3h-12zM425 876h3v12h-3zM420 881h12v3h-12zM389 888h3v12h-3zM384 893h12v3h-12zM401 900h3v12h-3zM396 905h12v3h-12zM425 900h3v12h-3zM420 905h12v3h-12zM437 876h3v12h-3zM432 881h12v3h-12zM473 876h3v12h-3zM468 881h12v3h-12zM437 888h3v12h-3zM432 893h12v3h-12zM473 888h3v12h-3zM468 893h12v3h-12zM17 912h3v12h-3zM12 917h12v3h-12zM5 924h3v12h-3zM0 929h12v3h-12zM29 924h3v12h-3zM24 929h12v3h-12zM41 924h3v12h-3zM36 929h12v3h-12zM5 936h3v12h-3zM0 941h12v3h-12zM17 936h3v12h-3zM12 941h12v3h-12zM41 936h3v12h-3zM36 941h12v3h-12zM29 948h3v12h-3zM24 953h12v3h-12zM89 984h3v12h-3zM84 989h12v3h-12zM65 912h3v12h-3zM60 917h12v3h-12zM77 912h3v12h-3zM72 917h12v3h-12zM65 924h3v12h-3zM60 929h12v3h-12zM89 924h3v12h-3zM84 929h12v3h-12zM53 936h3v12h-3zM48 941h12v3h-12zM77 936h3v12h-3zM72 941h12v3h-12zM65 948h3v12h-3zM60 953h12v3h-12zM77 948h3v12h-3zM72 953h12v3h-12zM101 912h3v12h-3zM96 917h12v3h-12zM125 912h3v12h-3zM120 917h12v3h-12zM113 924h3v12h-3zM108 929h12v3h-12zM137 924h3v12h-3zM132 929h12v3h-12zM101 936h3v12h-3zM96 941h12v3h-12zM125 936h3v12h-3zM120 941h12v3h-12zM113 948h3v12h-3zM108 953h12v3h-12zM137 948h3v12h-3zM132 953h12v3h-12zM149 912h3v12h-3zM144 917h12v3h-12zM185 912h3v12h-3zM180 917h12v3h-12zM161 924h3v12h-3zM156 929h12v3h-12zM173 924h3v12h-3zM168 929h12v3h-12zM173 936h3v12h-3zM168 941h12v3h-12zM149 948h3v12h-3zM144 953h12v3h-12zM185 948h3v12h-3zM180 953h12v3h-12zM209 924h3v12h-3zM204 929h12v3h-12zM221 924h3v12h-3zM216 929h12v3h-12zM209 936h3v12h-3zM204 941h12v3h-12zM221 936h3v12h-3zM216 941h12v3h-12zM245 912h3v12h-3zM240 917h12v3h-12zM281 912h3v12h-3zM276 917h12v3h-12zM257 936h3v12h-3zM252 941h12v3h-12zM269 936h3v12h-3zM264 941h12v3h-12zM245 948h3v12h-3zM240 953h12v3h-12zM281 948h3v12h-3zM276 953h12v3h-12zM293 912h3v12h-3zM288 917h12v3h-12zM317 912h3v12h-3zM312 917h12v3h-12zM329 924h3v12h-3zM324 929h12v3h-12zM293 936h3v12h-3zM288 941h12v3h-12zM305 948h3v12h-3zM300 953h12v3h-12zM329 948h3v12h-3zM324 953h12v3h-12zM341 912h3v12h-3zM336 917h12v3h-12zM377 912h3v12h-3zM372 917h12v3h-12zM353 924h3v12h-3zM348 929h12v3h-12zM365 924h3v12h-3zM360 929h12v3h-12zM341 936h3v12h-3zM336 941h12v3h-12zM377 936h3v12h-3zM372 941h12v3h-12zM401 912h3v12h-3zM396 917h12v3h-12zM425 912h3v12h-3zM420 917h12v3h-12zM389 924h3v12h-3zM384 929h12v3h-12zM425 936h3v12h-3zM420 941h12v3h-12zM389 948h3v12h-3zM384 953h12v3h-12zM413 948h3v12h-3zM408 953h12v3h-12zM437 912h3v12h-3zM432 917h12v3h-12zM449 924h3v12h-3zM444 929h12v3h-12zM461 936h3v12h-3zM456 941h12v3h-12zM473 948h3v12h-3zM468 953h12v3h-12zM813 900h6v24h-6zM804 909h24v6h-24zM513 96h6v24h-6zM504 105h24v6h-24zM537 96h6v24h-6zM528 105h24v6h-24zM489 120h6v24h-6zM480 129h24v6h-24zM537 120h6v24h-6zM528 129h24v6h-24zM513 144h6v24h-6zM504 153h24v6h-24zM561 144h6v24h-6zM552 153h24v6h-24zM513 168h6v24h-6zM504 177h24v6h-24zM537 168h6v24h-6zM528 177h24v6h-24zM621 708h6v24h-6zM612 717h24v6h-24zM513 384h6v24h-6zM504 393h24v6h-24zM537 384h6v24h-6zM528 393h24v6h-24zM513 456h6v24h-6zM504 465h24v6h-24zM537 456h6v24h-6zM528 465h24v6h-24zM909 36h6v24h-6zM900 45h24v6h-24zM717 132h6v24h-6zM708 141h24v6h-24zM717 708h6v24h-6zM708 717h24v6h-24zM909 708h6v24h-6zM900 717h24v6h-24zM909 516h6v24h-6zM900 525h24v6h-24z"/><path fill="#000" d="M96 288h96v96h-96zM96 192h96v96h-96zM96 96h96v96h-96zM192 192h96v96h-96zM96 0h96v96h-96zM192 0h96v96h-96zM288 0h96v96h-96zM384 0h96v96h-96zM0 0h96v96h-96zM0 96h96v96h-96zM0 192h96v96h-96zM0 288h96v96h-96zM0 384h96v96h-96zM288 96h96v96h-96zM96 576h96v96h-96zM96 672h96v96h-96zM96 768h96v96h-96zM192 672h96v96h-96zM96 864h96v96h-96zM192 864h96v96h-96zM288 864h96v96h-96zM384 864h96v96h-96zM0 864h96v96h-96zM0 768h96v96h-96zM0 672h96v96h-96zM0 576h96v96h-96zM0 480h96v96h-96zM288 768h96v96h-96zM768 288h96v96h-96zM768 192h96v96h-96zM768 96h96v96h-96zM672 192h96v96h-96zM768 0h96v96h-96zM672 0h96v96h-96zM576 0h96v96h-96zM480 0h96v96h-96zM864 0h96v96h-96zM864 96h96v96h-96zM864 192h96v96h-96zM864 288h96v96h-96zM864 384h96v96h-96zM576 96h96v96h-96zM768 576h96v96h-96zM768 672h96v96h-96zM768 768h96v96h-96zM672 672h96v96h-96zM768 864h96v96h-96zM672 864h96v96h-96zM576 864h96v96h-96zM480 864h96v96h-96zM864 864h96v96h-96zM864 768h96v96h-96zM864 672h96v96h-96zM864 576h96v96h-96zM864 480h96v96h-96zM576 768h96v96h-96z"/></svg>