<svg xmlns="http://www.w3.org/2000/svg" width="960" height="960" viewBox="0 0 960 960" shape-rendering="crispEdges"><path fill="#000" d="M0 0h960v960h-960z"/><path fill="#97c662" d="M0 0h24v24h-24zM0 48h24v24h-24zM0 96h24v24h-24zM0 144h24v24h-24zM0 192h24v24h-24zM0 240h24v24h-24zM0 288h24v24h-24zM0 640h24v8h-24zM0 672h24v24h-24zM0 720h24v24h-24zM0 768h24v24h-24zM0 816h24v24h-24zM0 864h24v24h-24zM0 912h24v24h-24zM48 0h24v24h-24zM48 48h24v24h-24zM48 96h24v24h-24zM48 144h24v24h-24zM48 192h24v24h-24zM48 240h24v24h-24zM48 288h24v24h-24zM48 640h24v8h-24zM48 672h24v24h-24zM48 720h24v24h-24zM48 768h24v24h-24zM48 816h24v24h-24zM48 864h24v24h-24zM48 912h24v24h-24zM96 0h24v24h-24zM96 48h24v24h-24zM96 96h24v24h-24zM96 144h24v24h-24zM96 192h24v24h-24zM96 240h24v24h-24zM96 288h24v24h-24zM96 640h24v8h-24zM96 672h24v24h-24zM96 720h24v24h-24zM96 768h24v24h-24zM96 816h24v24h-24zM96 864h24v24h-24zM96 912h24v24h-24zM144 0h24v24h-24zM144 48h24v24h-24zM144 96h24v24h-24zM144 144h24v24h-24zM144 192h24v24h-24zM144 240h24v24h-24zM144 288h24v24h-24zM144 640h24v8h-24zM144 672h24v24h-24zM144 720h24v24h-24zM144 768h24v24h-24zM144 816h24v24h-24zM144 864h24v24h-24zM144 912h24v24h-24zM192 0h24v24h-24zM192 48h24v24h-24zM192 96h24v24h-24zM192 144h24v24h-24zM192 192h24v24h-24zM192 240h24v24h-24zM192 288h24v24h-24zM192 640h24v8h-24zM192 672h24v24h-24zM192 720h24v24h-24zM192 768h24v24h-24zM192 816h24v24h-24zM192 864h24v24h-24zM192 912h24v24h-24zM240 0h24v24h-24zM240 48h24v24h-24zM240 96h24v24h-24zM240 144h24v24h-24zM240 192h24v24h-24zM240 240h24v24h-24zM240 288h24v24h-24zM240 640h24v8h-24zM240 672h24v24h-24zM240 720h24v24h-24zM240 768h24v24h-24zM240 816h24v24h-24zM240 864h24v24h-24zM240 912h24v24h-24zM288 0h24v24h-24zM288 48h24v24h-24zM288 96h24v24h-24zM288 144h24v24h-24zM288 192h24v24h-24zM288 240h24v24h-24zM288 288h24v24h-24zM288 640h24v8h-24zM288 672h24v24h-24zM288 720h24v24h-24zM288 768h24v24h-24zM288 816h24v24h-24zM288 864h24v24h-24zM288 912h24v24h-24zM336 0h24v24h-24zM336 48h24v24h-24zM336 96h24v24h-24zM336 144h24v24h-24zM336 192h24v24h-24zM336 240h24v24h-24zM336 288h24v24h-24zM336 640h24v8h-24zM336 672h24v24h-24zM336 720h24v24h-24zM336 768h24v24h-24zM336 816h24v24h-24zM336 864h24v24h-24zM336 912h24v24h-24zM384 0h24v24h-24zM384 48h24v24h-24zM384 96h24v24h-24zM384 144h24v24h-24zM384 192h24v24h-24zM384 240h24v24h-24zM384 288h24v24h-24zM384 640h24v8h-24zM384 672h24v24h-24zM384 720h24v24h-24zM384 768h24v24h-24zM384 816h24v24h-24zM384 864h24v24h-24zM384 912h24v24h-24zM432 0h24v24h-24zM432 48h24v24h-24zM432 96h24v24h-24zM432 144h24v24h-24zM432 192h24v24h-24zM432 240h24v24h-24zM432 288h24v24h-24zM432 640h24v8h-24zM432 672h24v24h-24zM432 720h24v24h-24zM432 768h24v24h-24zM432 816h24v24h-24zM432 864h24v24h-24zM432 912h24v24h-24zM480 0h24v24h-24zM480 48h24v24h-24zM480 96h24v24h-24zM480 144h24v24h-24zM480 192h24v24h-24zM480 240h24v24h-24zM480 288h24v24h-24zM480 640h24v8h-24zM480 672h24v24h-24zM480 720h24v24h-24zM480 768h24v24h-24zM480 816h24v24h-24zM480 864h24v24h-24zM480 912h24v24h-24zM528 0h24v24h-24zM528 48h24v24h-24zM528 96h24v24h-24zM528 144h24v24h-24zM528 192h24v24h-24zM528 240h24v24h-24zM528 288h24v24h-24zM528 640h24v8h-24zM528 672h24v24h-24zM528 720h24v24h-24zM528 768h24v24h-24zM528 816h24v24h-24zM528 864h24v24h-24zM528 912h24v24h-24zM576 0h24v24h-24zM576 48h24v24h-24zM576 96h24v24h-24zM576 144h24v24h-24zM576 192h24v24h-24zM576 240h24v24h-24zM576 288h24v24h-24zM576 640h24v8h-24zM576 672h24v24h-24zM576 720h24v24h-24zM576 768h24v24h-24zM576 816h24v24h-24zM576 864h24v24h-24zM576 912h24v24h-24zM624 0h24v24h-24zM624 48h24v24h-24zM624 96h24v24h-24zM624 144h24v24h-24zM624 192h24v24h-24zM624 240h24v24h-24zM624 288h24v24h-24zM624 640h24v8h-24zM624 672h24v24h-24zM624 720h24v24h-24zM624 768h24v24h-24zM624 816h24v24h-24zM624 864h24v24h-24zM624 912h24v24h-24zM672 0h24v24h-24zM672 48h24v24h-24zM672 96h24v24h-24zM672 144h24v24h-24zM672 192h24v24h-24zM672 240h24v24h-24zM672 288h24v24h-24zM672 640h24v8h-24zM672 672h24v24h-24zM672 720h24v24h-24zM672 768h24v24h-24zM672 816h24v24h-24zM672 864h24v24h-24zM672 912h24v24h-24zM720 0h24v24h-24zM720 48h24v24h-24zM720 96h24v24h-24zM720 144h24v24h-24zM720 192h24v24h-24zM720 240h24v24h-24zM720 288h24v24h-24zM720 640h24v8h-24zM720 672h24v24h-24zM720 720h24v24h-24zM720 768h24v24h-24zM720 816h24v24h-24zM720 864h24v24h-24zM720 912h24v24h-24zM768 0h24v24h-24zM768 48h24v24h-24zM768 96h24v24h-24zM768 144h24v24h-24zM768 192h24v24h-24zM768 240h24v24h-24zM768 288h24v24h-24zM768 640h24v8h-24zM768 672h24v24h-24zM768 720h24v24h-24zM768 768h24v24h-24zM768 816h24v24h-24zM768 864h24v24h-24zM768 912h24v24h-24zM816 0h24v24h-24zM816 48h24v24h-24zM816 96h24v24h-24zM816 144h24v24h-24zM816 192h24v24h-24zM816 240h24v24h-24zM816 288h24v24h-24zM816 640h24v8h-24zM816 672h24v24h-24zM816 720h24v24h-24zM816 768h24v24h-24zM816 816h24v24h-24zM816 864h24v24h-24zM816 912h24v24h-24zM864 0h24v24h-24zM864 48h24v24h-24zM864 96h24v24h-24zM864 144h24v24h-24zM864 192h24v24h-24zM864 240h24v24h-24zM864 288h24v24h-24zM864 640h24v8h-24zM864 672h24v24h-24zM864 720h24v24h-24zM864 768h24v24h-24zM864 816h24v24h-24zM864 864h24v24h-24zM864 912h24v24h-24zM912 0h24v24h-24zM912 48h24v24h-24zM912 96h24v24h-24zM912 144h24v24h-24zM912 192h24v24h-24zM912 240h24v24h-24zM912 288h24v24h-24zM912 640h24v8h-24zM912 672h24v24h-24zM912 720h24v24h-24zM912 768h24v24h-24zM912 816h24v24h-24zM912 864h24v24h-24zM912 912h24v24h-24z"/><path fill="#f3e4d8" d="M0 0h12v12h-12zM36 0h12v12h-12zM12 12h12v12h-12zM24 12h12v12h-12zM12 24h12v12h-12zM24 24h12v12h-12zM0 36h12v12h-12zM36 36h12v12h-12zM96 0h12v12h-12zM132 0h12v12h-12zM96 36h12v12h-12zM132 36h12v12h-12zM192 0h12v12h-12zM228 0h12v12h-12zM204 12h12v12h-12zM216 12h12v12h-12zM204 24h12v12h-12zM192 36h12v12h-12zM228 36h12v12h-12zM300 0h12v12h-12zM324 0h12v12h-12zM288 12h12v12h-12zM312 12h12v12h-12zM300 24h12v12h-12zM324 24h12v12h-12zM288 36h12v12h-12zM312 36h12v12h-12zM384 0h12v12h-12zM420 0h12v12h-12zM384 24h12v12h-12zM420 24h12v12h-12zM492 0h12v12h-12zM480 12h12v12h-12zM504 12h12v12h-12zM516 12h12v12h-12zM480 24h12v12h-12zM492 24h12v12h-12zM516 24h12v12h-12zM504 36h12v12h-12zM528 0h12v12h-12zM564 0h12v12h-12zM540 12h12v12h-12zM552 24h12v12h-12zM528 36h12v12h-12zM564 36h12v12h-12zM576 0h12v12h-12zM600 0h12v12h-12zM612 12h12v12h-12zM576 24h12v12h-12zM588 36h12v12h-12zM612 36h12v12h-12zM624 0h12v12h-12zM636 0h12v12h-12zM648 36h12v12h-12zM660 36h12v12h-12zM672 0h12v12h-12zM708 0h12v12h-12zM684 12h12v12h-12zM696 12h12v12h-12zM672 24h12v12h-12zM708 24h12v12h-12zM720 0h12v12h-12zM744 0h12v12h-12zM756 0h12v12h-12zM732 12h12v12h-12zM756 12h12v12h-12zM744 24h12v12h-12zM756 36h12v12h-12zM780 0h12v12h-12zM792 24h12v12h-12zM780 36h12v12h-12zM792 36h12v12h-12zM816 0h12v12h-12zM840 0h12v12h-12zM852 12h12v12h-12zM816 24h12v12h-12zM828 36h12v12h-12zM852 36h12v12h-12zM900 0h12v12h-12zM888 12h12v12h-12zM876 24h12v12h-12zM864 36h12v12h-12zM924 12h12v12h-12zM936 12h12v12h-12zM924 24h12v12h-12zM936 24h12v12h-12zM492 48h12v12h-12zM504 72h12v12h-12zM492 84h12v12h-12zM504 84h12v12h-12zM528 48h12v12h-12zM552 48h12v12h-12zM540 60h12v12h-12zM564 60h12v12h-12zM528 72h12v12h-12zM552 72h12v12h-12zM540 84h12v12h-12zM564 84h12v12h-12zM576 48h12v12h-12zM576 60h12v12h-12zM612 72h12v12h-12zM612 84h12v12h-12zM624 48h12v12h-12zM624 60h12v12h-12zM660 72h12v12h-12zM660 84h12v12h-12zM696 48h12v12h-12zM696 60h12v12h-12zM708 60h12v12h-12zM672 72h12v12h-12zM684 72h12v12h-12zM684 84h12v12h-12zM720 48h12v12h-12zM744 48h12v12h-12zM732 60h12v12h-12zM756 60h12v12h-12zM720 72h12v12h-12zM744 72h12v12h-12zM732 84h12v12h-12zM756 84h12v12h-12zM768 48h12v12h-12zM804 48h12v12h-12zM780 60h12v12h-12zM780 72h12v12h-12zM792 72h12v12h-12zM768 84h12v12h-12zM804 84h12v12h-12zM816 48h12v12h-12zM828 48h12v12h-12zM840 84h12v12h-12zM852 84h12v12h-12zM876 48h12v12h-12zM864 60h12v12h-12zM888 60h12v12h-12zM900 60h12v12h-12zM864 72h12v12h-12zM876 72h12v12h-12zM900 72h12v12h-12zM888 84h12v12h-12zM912 48h12v12h-12zM948 48h12v12h-12zM924 60h12v12h-12zM936 60h12v12h-12zM912 72h12v12h-12zM948 72h12v12h-12zM12 96h12v12h-12zM36 96h12v12h-12zM0 108h12v12h-12zM12 108h12v12h-12zM24 120h12v12h-12zM36 120h12v12h-12zM0 132h12v12h-12zM24 132h12v12h-12zM96 108h12v12h-12zM132 108h12v12h-12zM96 120h12v12h-12zM132 120h12v12h-12zM216 96h12v12h-12zM228 96h12v12h-12zM216 108h12v12h-12zM228 108h12v12h-12zM192 120h12v12h-12zM204 120h12v12h-12zM192 132h12v12h-12zM204 132h12v12h-12zM288 96h12v12h-12zM324 96h12v12h-12zM300 120h12v12h-12zM312 120h12v12h-12zM288 132h12v12h-12zM324 132h12v12h-12zM420 96h12v12h-12zM408 108h12v12h-12zM396 120h12v12h-12zM420 120h12v12h-12zM384 132h12v12h-12zM408 132h12v12h-12zM420 132h12v12h-12zM492 96h12v12h-12zM516 96h12v12h-12zM480 108h12v12h-12zM516 120h12v12h-12zM480 132h12v12h-12zM504 132h12v12h-12zM564 168h12v12h-12zM540 96h12v12h-12zM552 96h12v12h-12zM540 108h12v12h-12zM564 108h12v12h-12zM528 120h12v12h-12zM552 120h12v12h-12zM540 132h12v12h-12zM552 132h12v12h-12zM588 96h12v12h-12zM612 96h12v12h-12zM588 132h12v12h-12zM612 132h12v12h-12zM636 96h12v12h-12zM624 108h12v12h-12zM660 120h12v12h-12zM648 132h12v12h-12zM672 96h12v12h-12zM708 96h12v12h-12zM684 108h12v12h-12zM696 108h12v12h-12zM672 120h12v12h-12zM708 120h12v12h-12zM720 96h12v12h-12zM732 108h12v12h-12zM720 120h12v12h-12zM744 120h12v12h-12zM720 132h12v12h-12zM732 132h12v12h-12zM756 132h12v12h-12zM780 96h12v12h-12zM792 96h12v12h-12zM768 108h12v12h-12zM792 108h12v12h-12zM780 120h12v12h-12zM804 120h12v12h-12zM780 132h12v12h-12zM792 132h12v12h-12zM828 96h12v12h-12zM852 96h12v12h-12zM816 108h12v12h-12zM840 108h12v12h-12zM828 120h12v12h-12zM852 120h12v12h-12zM816 132h12v12h-12zM840 132h12v12h-12zM888 96h12v12h-12zM900 96h12v12h-12zM864 132h12v12h-12zM876 132h12v12h-12zM912 96h12v12h-12zM948 96h12v12h-12zM912 132h12v12h-12zM948 132h12v12h-12zM480 144h12v12h-12zM504 144h12v12h-12zM504 156h12v12h-12zM516 156h12v12h-12zM480 168h12v12h-12zM492 168h12v12h-12zM492 180h12v12h-12zM516 180h12v12h-12zM552 144h12v12h-12zM552 156h12v12h-12zM564 156h12v12h-12zM528 168h12v12h-12zM540 168h12v12h-12zM540 180h12v12h-12zM576 156h12v12h-12zM612 156h12v12h-12zM576 168h12v12h-12zM588 168h12v12h-12zM624 144h12v12h-12zM660 144h12v12h-12zM648 156h12v12h-12zM636 168h12v12h-12zM648 168h12v12h-12zM624 180h12v12h-12zM660 180h12v12h-12zM708 144h12v12h-12zM708 156h12v12h-12zM672 168h12v12h-12zM672 180h12v12h-12zM732 144h12v12h-12zM720 156h12v12h-12zM744 156h12v12h-12zM732 168h12v12h-12zM756 168h12v12h-12zM744 180h12v12h-12zM780 144h12v12h-12zM804 144h12v12h-12zM792 156h12v12h-12zM792 168h12v12h-12zM780 180h12v12h-12zM804 180h12v12h-12zM816 156h12v12h-12zM828 156h12v12h-12zM816 168h12v12h-12zM852 168h12v12h-12zM864 144h12v12h-12zM888 144h12v12h-12zM900 156h12v12h-12zM864 168h12v12h-12zM876 180h12v12h-12zM900 180h12v12h-12zM936 144h12v12h-12zM948 156h12v12h-12zM912 168h12v12h-12zM924 180h12v12h-12zM36 192h12v12h-12zM24 204h12v12h-12zM12 216h12v12h-12zM0 228h12v12h-12zM96 192h12v12h-12zM120 192h12v12h-12zM132 204h12v12h-12zM96 216h12v12h-12zM108 228h12v12h-12zM132 228h12v12h-12zM192 192h12v12h-12zM228 192h12v12h-12zM216 204h12v12h-12zM204 216h12v12h-12zM216 216h12v12h-12zM192 228h12v12h-12zM228 228h12v12h-12zM312 192h12v12h-12zM300 204h12v12h-12zM324 204h12v12h-12zM288 216h12v12h-12zM312 216h12v12h-12zM300 228h12v12h-12zM408 192h12v12h-12zM420 192h12v12h-12zM384 228h12v12h-12zM396 228h12v12h-12zM498 210h12v12h-12zM528 192h12v12h-12zM540 192h12v12h-12zM564 192h12v12h-12zM528 204h12v12h-12zM552 204h12v12h-12zM540 216h12v12h-12zM528 228h12v12h-12zM588 192h12v12h-12zM600 192h12v12h-12zM600 204h12v12h-12zM588 228h12v12h-12zM624 204h12v12h-12zM660 204h12v12h-12zM624 216h12v12h-12zM660 216h12v12h-12zM672 192h12v12h-12zM696 192h12v12h-12zM684 204h12v12h-12zM708 204h12v12h-12zM672 216h12v12h-12zM696 216h12v12h-12zM684 228h12v12h-12zM708 228h12v12h-12zM720 192h12v12h-12zM732 192h12v12h-12zM756 192h12v12h-12zM720 204h12v12h-12zM744 204h12v12h-12zM732 216h12v12h-12zM720 228h12v12h-12zM768 192h12v12h-12zM780 192h12v12h-12zM768 204h12v12h-12zM780 204h12v12h-12zM792 216h12v12h-12zM804 216h12v12h-12zM792 228h12v12h-12zM804 228h12v12h-12zM828 192h12v12h-12zM852 192h12v12h-12zM840 204h12v12h-12zM840 216h12v12h-12zM828 228h12v12h-12zM852 228h12v12h-12zM864 192h12v12h-12zM888 192h12v12h-12zM876 204h12v12h-12zM900 204h12v12h-12zM864 216h12v12h-12zM888 216h12v12h-12zM876 228h12v12h-12zM900 228h12v12h-12zM948 192h12v12h-12zM948 204h12v12h-12zM912 216h12v12h-12zM912 228h12v12h-12zM480 240h12v12h-12zM516 240h12v12h-12zM480 264h12v12h-12zM516 264h12v12h-12zM528 240h12v12h-12zM552 240h12v12h-12zM564 252h12v12h-12zM528 264h12v12h-12zM540 276h12v12h-12zM564 276h12v12h-12zM576 240h12v12h-12zM612 240h12v12h-12zM600 252h12v12h-12zM588 264h12v12h-12zM600 264h12v12h-12zM576 276h12v12h-12zM612 276h12v12h-12zM624 240h12v12h-12zM660 240h12v12h-12zM636 252h12v12h-12zM636 264h12v12h-12zM648 264h12v12h-12zM624 276h12v12h-12zM660 276h12v12h-12zM708 240h12v12h-12zM696 252h12v12h-12zM684 264h12v12h-12zM708 264h12v12h-12zM672 276h12v12h-12zM696 276h12v12h-12zM708 276h12v12h-12zM720 240h12v12h-12zM756 240h12v12h-12zM732 264h12v12h-12zM744 264h12v12h-12zM720 276h12v12h-12zM756 276h12v12h-12zM780 240h12v12h-12zM768 252h12v12h-12zM792 252h12v12h-12zM804 252h12v12h-12zM768 264h12v12h-12zM780 264h12v12h-12zM804 264h12v12h-12zM792 276h12v12h-12zM840 240h12v12h-12zM852 240h12v12h-12zM816 276h12v12h-12zM828 276h12v12h-12zM864 240h12v12h-12zM900 240h12v12h-12zM876 252h12v12h-12zM888 252h12v12h-12zM876 264h12v12h-12zM888 264h12v12h-12zM864 276h12v12h-12zM900 276h12v12h-12zM924 252h12v12h-12zM936 252h12v12h-12zM924 264h12v12h-12zM936 264h12v12h-12zM0 288h12v12h-12zM24 288h12v12h-12zM24 300h12v12h-12zM36 300h12v12h-12zM0 312h12v12h-12zM12 312h12v12h-12zM12 324h12v12h-12zM36 324h12v12h-12zM108 288h12v12h-12zM120 312h12v12h-12zM108 324h12v12h-12zM120 324h12v12h-12zM192 300h12v12h-12zM228 300h12v12h-12zM192 312h12v12h-12zM228 312h12v12h-12zM288 288h12v12h-12zM324 288h12v12h-12zM300 300h12v12h-12zM312 300h12v12h-12zM300 312h12v12h-12zM312 312h12v12h-12zM288 324h12v12h-12zM324 324h12v12h-12zM396 288h12v12h-12zM408 312h12v12h-12zM396 324h12v12h-12zM408 324h12v12h-12zM516 288h12v12h-12zM504 300h12v12h-12zM492 312h12v12h-12zM480 324h12v12h-12zM528 300h12v12h-12zM540 300h12v12h-12zM528 312h12v12h-12zM564 312h12v12h-12zM576 300h12v12h-12zM612 300h12v12h-12zM576 312h12v12h-12zM612 312h12v12h-12zM660 360h12v12h-12zM636 288h12v12h-12zM648 288h12v12h-12zM636 300h12v12h-12zM660 300h12v12h-12zM624 312h12v12h-12zM648 312h12v12h-12zM636 324h12v12h-12zM648 324h12v12h-12zM672 288h12v12h-12zM708 288h12v12h-12zM684 300h12v12h-12zM684 312h12v12h-12zM696 312h12v12h-12zM672 324h12v12h-12zM708 324h12v12h-12zM720 288h12v12h-12zM744 288h12v12h-12zM756 300h12v12h-12zM720 312h12v12h-12zM732 324h12v12h-12zM756 324h12v12h-12zM780 288h12v12h-12zM768 300h12v12h-12zM780 300h12v12h-12zM792 312h12v12h-12zM804 312h12v12h-12zM792 324h12v12h-12zM840 288h12v12h-12zM816 300h12v12h-12zM828 300h12v12h-12zM852 300h12v12h-12zM816 312h12v12h-12zM840 312h12v12h-12zM852 312h12v12h-12zM828 324h12v12h-12zM864 288h12v12h-12zM888 288h12v12h-12zM900 288h12v12h-12zM876 300h12v12h-12zM900 300h12v12h-12zM888 312h12v12h-12zM900 324h12v12h-12zM912 288h12v12h-12zM912 300h12v12h-12zM948 312h12v12h-12zM948 324h12v12h-12zM480 336h12v12h-12zM516 336h12v12h-12zM480 360h12v12h-12zM516 360h12v12h-12zM528 336h12v12h-12zM540 348h12v12h-12zM552 360h12v12h-12zM564 372h12v12h-12zM576 336h12v12h-12zM612 336h12v12h-12zM576 372h12v12h-12zM612 372h12v12h-12zM648 336h12v12h-12zM624 348h12v12h-12zM636 348h12v12h-12zM660 348h12v12h-12zM624 360h12v12h-12zM648 360h12v12h-12zM660 360h12v12h-12zM636 372h12v12h-12zM672 336h12v12h-12zM708 336h12v12h-12zM684 348h12v12h-12zM696 348h12v12h-12zM672 372h12v12h-12zM708 372h12v12h-12zM744 336h12v12h-12zM732 348h12v12h-12zM756 348h12v12h-12zM720 360h12v12h-12zM744 360h12v12h-12zM732 372h12v12h-12zM780 336h12v12h-12zM804 336h12v12h-12zM768 348h12v12h-12zM780 348h12v12h-12zM792 360h12v12h-12zM804 360h12v12h-12zM768 372h12v12h-12zM792 372h12v12h-12zM816 336h12v12h-12zM852 336h12v12h-12zM828 348h12v12h-12zM840 348h12v12h-12zM828 360h12v12h-12zM840 360h12v12h-12zM816 372h12v12h-12zM852 372h12v12h-12zM876 336h12v12h-12zM864 348h12v12h-12zM888 348h12v12h-12zM876 360h12v12h-12zM900 360h12v12h-12zM888 372h12v12h-12zM912 336h12v12h-12zM948 336h12v12h-12zM936 348h12v12h-12zM924 360h12v12h-12zM936 360h12v12h-12zM912 372h12v12h-12zM948 372h12v12h-12zM36 456h12v12h-12zM12 384h12v12h-12zM24 384h12v12h-12zM12 396h12v12h-12zM36 396h12v12h-12zM0 408h12v12h-12zM24 408h12v12h-12zM12 420h12v12h-12zM24 420h12v12h-12zM120 384h12v12h-12zM132 384h12v12h-12zM120 396h12v12h-12zM132 396h12v12h-12zM96 408h12v12h-12zM108 408h12v12h-12zM96 420h12v12h-12zM108 420h12v12h-12zM192 384h12v12h-12zM204 384h12v12h-12zM228 384h12v12h-12zM192 396h12v12h-12zM216 396h12v12h-12zM204 408h12v12h-12zM192 420h12v12h-12zM288 384h12v12h-12zM324 384h12v12h-12zM300 396h12v12h-12zM312 396h12v12h-12zM300 408h12v12h-12zM312 408h12v12h-12zM288 420h12v12h-12zM324 420h12v12h-12zM396 384h12v12h-12zM384 396h12v12h-12zM396 396h12v12h-12zM408 408h12v12h-12zM420 408h12v12h-12zM408 420h12v12h-12zM492 384h12v12h-12zM516 384h12v12h-12zM504 396h12v12h-12zM504 408h12v12h-12zM492 420h12v12h-12zM516 420h12v12h-12zM552 384h12v12h-12zM552 396h12v12h-12zM564 396h12v12h-12zM528 408h12v12h-12zM540 408h12v12h-12zM540 420h12v12h-12zM588 384h12v12h-12zM576 396h12v12h-12zM612 408h12v12h-12zM600 420h12v12h-12zM624 384h12v12h-12zM636 396h12v12h-12zM624 408h12v12h-12zM648 408h12v12h-12zM624 420h12v12h-12zM636 420h12v12h-12zM660 420h12v12h-12zM672 384h12v12h-12zM708 384h12v12h-12zM696 396h12v12h-12zM684 408h12v12h-12zM696 408h12v12h-12zM672 420h12v12h-12zM708 420h12v12h-12zM720 384h12v12h-12zM732 384h12v12h-12zM756 384h12v12h-12zM720 396h12v12h-12zM744 396h12v12h-12zM732 408h12v12h-12zM720 420h12v12h-12zM768 384h12v12h-12zM804 384h12v12h-12zM780 396h12v12h-12zM792 408h12v12h-12zM768 420h12v12h-12zM804 420h12v12h-12zM828 384h12v12h-12zM816 396h12v12h-12zM840 396h12v12h-12zM828 408h12v12h-12zM852 408h12v12h-12zM840 420h12v12h-12zM864 384h12v12h-12zM876 384h12v12h-12zM900 384h12v12h-12zM864 396h12v12h-12zM888 396h12v12h-12zM876 408h12v12h-12zM864 420h12v12h-12zM948 456h12v12h-12zM924 384h12v12h-12zM936 384h12v12h-12zM924 396h12v12h-12zM948 396h12v12h-12zM912 408h12v12h-12zM936 408h12v12h-12zM924 420h12v12h-12zM936 420h12v12h-12zM480 432h12v12h-12zM516 432h12v12h-12zM492 444h12v12h-12zM504 444h12v12h-12zM480 468h12v12h-12zM516 468h12v12h-12zM552 432h12v12h-12zM540 444h12v12h-12zM564 444h12v12h-12zM528 456h12v12h-12zM552 456h12v12h-12zM540 468h12v12h-12zM588 432h12v12h-12zM600 432h12v12h-12zM600 444h12v12h-12zM588 468h12v12h-12zM624 432h12v12h-12zM660 432h12v12h-12zM624 468h12v12h-12zM660 468h12v12h-12zM672 432h12v12h-12zM708 432h12v12h-12zM696 444h12v12h-12zM684 456h12v12h-12zM696 456h12v12h-12zM672 468h12v12h-12zM708 468h12v12h-12zM744 432h12v12h-12zM720 444h12v12h-12zM732 444h12v12h-12zM756 444h12v12h-12zM720 456h12v12h-12zM744 456h12v12h-12zM756 456h12v12h-12zM732 468h12v12h-12zM768 432h12v12h-12zM780 444h12v12h-12zM768 456h12v12h-12zM792 456h12v12h-12zM768 468h12v12h-12zM780 468h12v12h-12zM804 468h12v12h-12zM816 432h12v12h-12zM828 444h12v12h-12zM816 456h12v12h-12zM840 456h12v12h-12zM816 468h12v12h-12zM828 468h12v12h-12zM852 468h12v12h-12zM888 432h12v12h-12zM900 432h12v12h-12zM864 468h12v12h-12zM876 468h12v12h-12zM912 432h12v12h-12zM948 432h12v12h-12zM924 444h12v12h-12zM936 444h12v12h-12zM912 468h12v12h-12zM948 468h12v12h-12zM0 480h12v12h-12zM36 480h12v12h-12zM12 492h12v12h-12zM24 504h12v12h-12zM0 516h12v12h-12zM36 516h12v12h-12zM96 480h12v12h-12zM132 480h12v12h-12zM108 492h12v12h-12zM120 492h12v12h-12zM108 504h12v12h-12zM96 516h12v12h-12zM132 516h12v12h-12zM192 480h12v12h-12zM228 480h12v12h-12zM204 492h12v12h-12zM216 504h12v12h-12zM192 516h12v12h-12zM228 516h12v12h-12zM288 492h12v12h-12zM324 492h12v12h-12zM288 504h12v12h-12zM324 504h12v12h-12zM408 480h12v12h-12zM420 480h12v12h-12zM408 492h12v12h-12zM420 492h12v12h-12zM384 504h12v12h-12zM396 504h12v12h-12zM384 516h12v12h-12zM396 516h12v12h-12zM504 480h12v12h-12zM492 492h12v12h-12zM516 492h12v12h-12zM480 504h12v12h-12zM504 504h12v12h-12zM492 516h12v12h-12zM552 480h12v12h-12zM564 480h12v12h-12zM552 492h12v12h-12zM564 492h12v12h-12zM528 504h12v12h-12zM540 504h12v12h-12zM528 516h12v12h-12zM540 516h12v12h-12zM588 480h12v12h-12zM576 492h12v12h-12zM612 504h12v12h-12zM600 516h12v12h-12zM636 480h12v12h-12zM648 480h12v12h-12zM636 516h12v12h-12zM648 516h12v12h-12zM690 498h12v12h-12zM720 480h12v12h-12zM756 480h12v12h-12zM732 492h12v12h-12zM732 504h12v12h-12zM744 504h12v12h-12zM720 516h12v12h-12zM756 516h12v12h-12zM786 498h12v12h-12zM852 480h12v12h-12zM840 492h12v12h-12zM828 504h12v12h-12zM816 516h12v12h-12zM864 480h12v12h-12zM900 480h12v12h-12zM876 504h12v12h-12zM888 504h12v12h-12zM864 516h12v12h-12zM900 516h12v12h-12zM924 480h12v12h-12zM912 492h12v12h-12zM924 492h12v12h-12zM936 504h12v12h-12zM948 504h12v12h-12zM936 516h12v12h-12zM504 528h12v12h-12zM480 540h12v12h-12zM492 540h12v12h-12zM516 540h12v12h-12zM480 552h12v12h-12zM504 552h12v12h-12zM516 552h12v12h-12zM492 564h12v12h-12zM528 528h12v12h-12zM540 540h12v12h-12zM552 552h12v12h-12zM564 564h12v12h-12zM576 540h12v12h-12zM588 540h12v12h-12zM576 552h12v12h-12zM612 552h12v12h-12zM624 528h12v12h-12zM660 528h12v12h-12zM636 552h12v12h-12zM648 552h12v12h-12zM624 564h12v12h-12zM660 564h12v12h-12zM672 528h12v12h-12zM708 528h12v12h-12zM684 540h12v12h-12zM696 540h12v12h-12zM684 552h12v12h-12zM696 552h12v12h-12zM672 564h12v12h-12zM708 564h12v12h-12zM732 528h12v12h-12zM720 540h12v12h-12zM732 540h12v12h-12zM744 552h12v12h-12zM756 552h12v12h-12zM744 564h12v12h-12zM768 540h12v12h-12zM804 540h12v12h-12zM768 552h12v12h-12zM804 552h12v12h-12zM840 528h12v12h-12zM840 540h12v12h-12zM852 540h12v12h-12zM816 552h12v12h-12zM828 552h12v12h-12zM828 564h12v12h-12zM864 528h12v12h-12zM900 528h12v12h-12zM876 540h12v12h-12zM888 540h12v12h-12zM864 564h12v12h-12zM900 564h12v12h-12zM912 528h12v12h-12zM912 540h12v12h-12zM948 552h12v12h-12zM948 564h12v12h-12zM0 576h12v12h-12zM36 576h12v12h-12zM24 588h12v12h-12zM12 600h12v12h-12zM24 600h12v12h-12zM0 612h12v12h-12zM36 612h12v12h-12zM132 576h12v12h-12zM132 588h12v12h-12zM96 600h12v12h-12zM96 612h12v12h-12zM192 576h12v12h-12zM204 576h12v12h-12zM192 588h12v12h-12zM204 588h12v12h-12zM216 600h12v12h-12zM228 600h12v12h-12zM216 612h12v12h-12zM228 612h12v12h-12zM288 576h12v12h-12zM324 576h12v12h-12zM312 588h12v12h-12zM300 600h12v12h-12zM312 600h12v12h-12zM288 612h12v12h-12zM324 612h12v12h-12zM384 576h12v12h-12zM420 576h12v12h-12zM396 588h12v12h-12zM408 588h12v12h-12zM384 600h12v12h-12zM420 600h12v12h-12zM480 576h12v12h-12zM492 576h12v12h-12zM504 612h12v12h-12zM516 612h12v12h-12zM528 576h12v12h-12zM528 588h12v12h-12zM564 600h12v12h-12zM564 612h12v12h-12zM576 576h12v12h-12zM588 588h12v12h-12zM600 600h12v12h-12zM612 612h12v12h-12zM624 576h12v12h-12zM660 576h12v12h-12zM636 588h12v12h-12zM636 600h12v12h-12zM648 600h12v12h-12zM624 612h12v12h-12zM660 612h12v12h-12zM684 576h12v12h-12zM696 576h12v12h-12zM696 588h12v12h-12zM684 612h12v12h-12zM732 576h12v12h-12zM720 588h12v12h-12zM756 600h12v12h-12zM744 612h12v12h-12zM804 576h12v12h-12zM792 588h12v12h-12zM780 600h12v12h-12zM768 612h12v12h-12zM816 576h12v12h-12zM840 576h12v12h-12zM840 588h12v12h-12zM852 588h12v12h-12zM816 600h12v12h-12zM828 600h12v12h-12zM828 612h12v12h-12zM852 612h12v12h-12zM876 576h12v12h-12zM900 576h12v12h-12zM864 588h12v12h-12zM876 588h12v12h-12zM888 600h12v12h-12zM900 600h12v12h-12zM864 612h12v12h-12zM888 612h12v12h-12zM912 576h12v12h-12zM948 576h12v12h-12zM924 588h12v12h-12zM936 588h12v12h-12zM924 600h12v12h-12zM936 600h12v12h-12zM912 612h12v12h-12zM948 612h12v12h-12zM492 624h12v12h-12zM504 624h12v12h-12zM492 660h12v12h-12zM504 660h12v12h-12zM528 624h12v12h-12zM540 636h12v12h-12zM528 648h12v12h-12zM552 648h12v12h-12zM528 660h12v12h-12zM540 660h12v12h-12zM564 660h12v12h-12zM576 624h12v12h-12zM600 624h12v12h-12zM612 624h12v12h-12zM588 636h12v12h-12zM612 636h12v12h-12zM600 648h12v12h-12zM612 660h12v12h-12zM636 624h12v12h-12zM660 624h12v12h-12zM648 636h12v12h-12zM648 648h12v12h-12zM636 660h12v12h-12zM660 660h12v12h-12zM672 624h12v12h-12zM696 624h12v12h-12zM696 636h12v12h-12zM708 636h12v12h-12zM672 648h12v12h-12zM684 648h12v12h-12zM684 660h12v12h-12zM708 660h12v12h-12zM756 624h12v12h-12zM744 636h12v12h-12zM732 648h12v12h-12zM720 660h12v12h-12zM780 624h12v12h-12zM804 624h12v12h-12zM768 636h12v12h-12zM792 636h12v12h-12zM780 648h12v12h-12zM804 648h12v12h-12zM768 660h12v12h-12zM792 660h12v12h-12zM828 624h12v12h-12zM840 624h12v12h-12zM828 660h12v12h-12zM840 660h12v12h-12zM864 624h12v12h-12zM900 624h12v12h-12zM876 636h12v12h-12zM888 636h12v12h-12zM888 648h12v12h-12zM864 660h12v12h-12zM900 660h12v12h-12zM912 624h12v12h-12zM936 624h12v12h-12zM936 636h12v12h-12zM948 636h12v12h-12zM912 648h12v12h-12zM924 648h12v12h-12zM924 660h12v12h-12zM948 660h12v12h-12zM0 672h12v12h-12zM36 672h12v12h-12zM12 684h12v12h-12zM12 696h12v12h-12zM24 696h12v12h-12zM0 708h12v12h-12zM36 708h12v12h-12zM96 672h12v12h-12zM108 672h12v12h-12zM120 708h12v12h-12zM132 708h12v12h-12zM204 672h12v12h-12zM216 696h12v12h-12zM204 708h12v12h-12zM216 708h12v12h-12zM312 672h12v12h-12zM288 684h12v12h-12zM300 684h12v12h-12zM324 684h12v12h-12zM288 696h12v12h-12zM312 696h12v12h-12zM324 696h12v12h-12zM300 708h12v12h-12zM396 672h12v12h-12zM408 672h12v12h-12zM396 708h12v12h-12zM408 708h12v12h-12zM480 684h12v12h-12zM516 684h12v12h-12zM480 696h12v12h-12zM516 696h12v12h-12zM528 672h12v12h-12zM528 684h12v12h-12zM564 696h12v12h-12zM564 708h12v12h-12zM600 672h12v12h-12zM612 672h12v12h-12zM600 684h12v12h-12zM612 684h12v12h-12zM576 696h12v12h-12zM588 696h12v12h-12zM576 708h12v12h-12zM588 708h12v12h-12zM636 672h12v12h-12zM660 672h12v12h-12zM624 684h12v12h-12zM636 684h12v12h-12zM648 696h12v12h-12zM660 696h12v12h-12zM624 708h12v12h-12zM648 708h12v12h-12zM696 672h12v12h-12zM708 684h12v12h-12zM672 696h12v12h-12zM684 708h12v12h-12zM720 672h12v12h-12zM756 672h12v12h-12zM744 684h12v12h-12zM732 696h12v12h-12zM720 708h12v12h-12zM756 708h12v12h-12zM768 672h12v12h-12zM804 672h12v12h-12zM780 684h12v12h-12zM792 684h12v12h-12zM768 708h12v12h-12zM804 708h12v12h-12zM816 672h12v12h-12zM828 684h12v12h-12zM816 696h12v12h-12zM840 696h12v12h-12zM816 708h12v12h-12zM828 708h12v12h-12zM852 708h12v12h-12zM864 672h12v12h-12zM876 672h12v12h-12zM888 708h12v12h-12zM900 708h12v12h-12zM912 672h12v12h-12zM948 672h12v12h-12zM924 684h12v12h-12zM936 684h12v12h-12zM912 708h12v12h-12zM948 708h12v12h-12zM480 720h12v12h-12zM492 720h12v12h-12zM480 732h12v12h-12zM492 732h12v12h-12zM504 744h12v12h-12zM516 744h12v12h-12zM504 756h12v12h-12zM516 756h12v12h-12zM528 720h12v12h-12zM564 720h12v12h-12zM540 744h12v12h-12zM552 744h12v12h-12zM528 756h12v12h-12zM564 756h12v12h-12zM576 732h12v12h-12zM612 732h12v12h-12zM576 744h12v12h-12zM588 744h12v12h-12zM624 720h12v12h-12zM648 720h12v12h-12zM660 732h12v12h-12zM624 744h12v12h-12zM636 756h12v12h-12zM660 756h12v12h-12zM684 732h12v12h-12zM696 732h12v12h-12zM684 744h12v12h-12zM696 744h12v12h-12zM732 720h12v12h-12zM720 732h12v12h-12zM744 732h12v12h-12zM732 744h12v12h-12zM756 744h12v12h-12zM744 756h12v12h-12zM768 720h12v12h-12zM780 720h12v12h-12zM768 732h12v12h-12zM780 732h12v12h-12zM792 744h12v12h-12zM804 744h12v12h-12zM792 756h12v12h-12zM804 756h12v12h-12zM840 720h12v12h-12zM816 732h12v12h-12zM828 732h12v12h-12zM852 732h12v12h-12zM816 744h12v12h-12zM840 744h12v12h-12zM852 744h12v12h-12zM828 756h12v12h-12zM888 720h12v12h-12zM864 732h12v12h-12zM876 732h12v12h-12zM900 732h12v12h-12zM864 744h12v12h-12zM888 744h12v12h-12zM900 744h12v12h-12zM876 756h12v12h-12zM924 720h12v12h-12zM948 720h12v12h-12zM936 732h12v12h-12zM936 744h12v12h-12zM924 756h12v12h-12zM948 756h12v12h-12zM0 768h12v12h-12zM36 768h12v12h-12zM24 780h12v12h-12zM12 792h12v12h-12zM0 804h12v12h-12zM36 804h12v12h-12zM96 768h12v12h-12zM108 768h12v12h-12zM96 780h12v12h-12zM108 780h12v12h-12zM120 792h12v12h-12zM132 792h12v12h-12zM120 804h12v12h-12zM132 804h12v12h-12zM228 768h12v12h-12zM228 780h12v12h-12zM192 792h12v12h-12zM192 804h12v12h-12zM288 768h12v12h-12zM288 780h12v12h-12zM324 792h12v12h-12zM324 804h12v12h-12zM384 768h12v12h-12zM396 768h12v12h-12zM408 804h12v12h-12zM420 804h12v12h-12zM492 768h12v12h-12zM480 780h12v12h-12zM504 780h12v12h-12zM492 792h12v12h-12zM516 792h12v12h-12zM504 804h12v12h-12zM528 768h12v12h-12zM564 768h12v12h-12zM540 780h12v12h-12zM552 780h12v12h-12zM540 792h12v12h-12zM552 792h12v12h-12zM528 804h12v12h-12zM564 804h12v12h-12zM576 768h12v12h-12zM600 768h12v12h-12zM612 768h12v12h-12zM588 780h12v12h-12zM612 780h12v12h-12zM600 792h12v12h-12zM612 804h12v12h-12zM660 768h12v12h-12zM648 780h12v12h-12zM636 792h12v12h-12zM624 804h12v12h-12zM672 768h12v12h-12zM708 768h12v12h-12zM696 780h12v12h-12zM684 792h12v12h-12zM696 792h12v12h-12zM672 804h12v12h-12zM708 804h12v12h-12zM720 768h12v12h-12zM732 768h12v12h-12zM744 804h12v12h-12zM756 804h12v12h-12zM792 768h12v12h-12zM804 780h12v12h-12zM768 792h12v12h-12zM780 804h12v12h-12zM816 768h12v12h-12zM840 768h12v12h-12zM852 780h12v12h-12zM816 792h12v12h-12zM828 804h12v12h-12zM852 804h12v12h-12zM864 768h12v12h-12zM876 780h12v12h-12zM864 792h12v12h-12zM888 792h12v12h-12zM864 804h12v12h-12zM876 804h12v12h-12zM900 804h12v12h-12zM924 768h12v12h-12zM936 768h12v12h-12zM924 804h12v12h-12zM936 804h12v12h-12zM480 816h12v12h-12zM516 816h12v12h-12zM492 828h12v12h-12zM504 828h12v12h-12zM480 852h12v12h-12zM516 852h12v12h-12zM528 816h12v12h-12zM528 828h12v12h-12zM564 840h12v12h-12zM564 852h12v12h-12zM576 816h12v12h-12zM576 828h12v12h-12zM612 840h12v12h-12zM612 852h12v12h-12zM624 828h12v12h-12zM636 828h12v12h-12zM624 840h12v12h-12zM660 840h12v12h-12zM672 816h12v12h-12zM684 816h12v12h-12zM672 828h12v12h-12zM684 828h12v12h-12zM696 840h12v12h-12zM708 840h12v12h-12zM696 852h12v12h-12zM708 852h12v12h-12zM738 834h12v12h-12zM768 816h12v12h-12zM792 816h12v12h-12zM780 828h12v12h-12zM804 828h12v12h-12zM768 840h12v12h-12zM792 840h12v12h-12zM780 852h12v12h-12zM804 852h12v12h-12zM816 816h12v12h-12zM852 816h12v12h-12zM828 828h12v12h-12zM840 828h12v12h-12zM828 840h12v12h-12zM840 840h12v12h-12zM816 852h12v12h-12zM852 852h12v12h-12zM864 816h12v12h-12zM876 816h12v12h-12zM888 852h12v12h-12zM900 852h12v12h-12zM924 816h12v12h-12zM936 840h12v12h-12zM924 852h12v12h-12zM936 852h12v12h-12zM0 864h12v12h-12zM24 864h12v12h-12zM36 864h12v12h-12zM12 876h12v12h-12zM36 876h12v12h-12zM24 888h12v12h-12zM36 900h12v12h-12zM108 864h12v12h-12zM132 864h12v12h-12zM96 876h12v12h-12zM108 876h12v12h-12zM120 888h12v12h-12zM132 888h12v12h-12zM96 900h12v12h-12zM120 900h12v12h-12zM192 864h12v12h-12zM228 864h12v12h-12zM204 876h12v12h-12zM216 876h12v12h-12zM204 888h12v12h-12zM192 900h12v12h-12zM228 900h12v12h-12zM288 864h12v12h-12zM324 864h12v12h-12zM300 876h12v12h-12zM312 876h12v12h-12zM288 888h12v12h-12zM324 888h12v12h-12zM384 864h12v12h-12zM408 864h12v12h-12zM420 864h12v12h-12zM396 876h12v12h-12zM420 876h12v12h-12zM408 888h12v12h-12zM420 900h12v12h-12zM480 876h12v12h-12zM516 876h12v12h-12zM480 888h12v12h-12zM516 888h12v12h-12zM546 882h12v12h-12zM588 864h12v12h-12zM612 864h12v12h-12zM600 876h12v12h-12zM600 888h12v12h-12zM588 900h12v12h-12zM612 900h12v12h-12zM624 864h12v12h-12zM636 876h12v12h-12zM624 888h12v12h-12zM648 888h12v12h-12zM624 900h12v12h-12zM636 900h12v12h-12zM660 900h12v12h-12zM672 864h12v12h-12zM708 864h12v12h-12zM696 876h12v12h-12zM684 888h12v12h-12zM672 900h12v12h-12zM708 900h12v12h-12zM732 864h12v12h-12zM756 864h12v12h-12zM720 876h12v12h-12zM756 888h12v12h-12zM720 900h12v12h-12zM744 900h12v12h-12zM768 864h12v12h-12zM804 864h12v12h-12zM780 876h12v12h-12zM792 888h12v12h-12zM768 900h12v12h-12zM804 900h12v12h-12zM816 864h12v12h-12zM852 864h12v12h-12zM840 876h12v12h-12zM828 888h12v12h-12zM816 900h12v12h-12zM852 900h12v12h-12zM900 864h12v12h-12zM900 876h12v12h-12zM864 888h12v12h-12zM864 900h12v12h-12zM924 864h12v12h-12zM912 876h12v12h-12zM924 876h12v12h-12zM936 888h12v12h-12zM948 888h12v12h-12zM936 900h12v12h-12zM498 930h12v12h-12zM564 984h12v12h-12zM540 912h12v12h-12zM552 912h12v12h-12zM540 924h12v12h-12zM564 924h12v12h-12zM528 936h12v12h-12zM552 936h12v12h-12zM540 948h12v12h-12zM552 948h12v12h-12zM588 912h12v12h-12zM612 912h12v12h-12zM576 924h12v12h-12zM612 936h12v12h-12zM576 948h12v12h-12zM600 948h12v12h-12zM636 912h12v12h-12zM660 912h12v12h-12zM624 924h12v12h-12zM636 924h12v12h-12zM648 936h12v12h-12zM660 936h12v12h-12zM624 948h12v12h-12zM648 948h12v12h-12zM684 912h12v12h-12zM708 912h12v12h-12zM672 924h12v12h-12zM684 924h12v12h-12zM696 936h12v12h-12zM708 936h12v12h-12zM672 948h12v12h-12zM696 948h12v12h-12zM720 912h12v12h-12zM756 912h12v12h-12zM720 936h12v12h-12zM756 936h12v12h-12zM768 912h12v12h-12zM780 912h12v12h-12zM792 948h12v12h-12zM804 948h12v12h-12zM828 912h12v12h-12zM852 912h12v12h-12zM816 924h12v12h-12zM852 936h12v12h-12zM816 948h12v12h-12zM840 948h12v12h-12zM876 912h12v12h-12zM900 912h12v12h-12zM864 924h12v12h-12zM876 924h12v12h-12zM888 936h12v12h-12zM900 936h12v12h-12zM864 948h12v12h-12zM888 948h12v12h-12zM912 912h12v12h-12zM924 912h12v12h-12zM936 948h12v12h-12zM948 948h12v12h-12zM252 672h12v12h-12zM264 696h12v12h-12zM252 708h12v12h-12zM264 708h12v12h-12zM12 48h12v12h-12zM36 48h12v12h-12zM0 60h12v12h-12zM12 60h12v12h-12zM24 72h12v12h-12zM36 72h12v12h-12zM0 84h12v12h-12zM24 84h12v12h-12zM312 624h12v12h-12zM288 636h12v12h-12zM300 636h12v12h-12zM324 636h12v12h-12zM288 648h12v12h-12zM312 648h12v12h-12zM324 648h12v12h-12zM300 660h12v12h-12zM48 192h12v12h-12zM72 192h12v12h-12zM84 204h12v12h-12zM48 216h12v12h-12zM60 228h12v12h-12zM84 228h12v12h-12zM48 156h12v12h-12zM84 156h12v12h-12zM48 168h12v12h-12zM84 168h12v12h-12zM432 720h12v12h-12zM444 720h12v12h-12zM432 732h12v12h-12zM444 732h12v12h-12zM456 744h12v12h-12zM468 744h12v12h-12zM456 756h12v12h-12zM468 756h12v12h-12zM240 0h12v12h-12zM276 0h12v12h-12zM252 12h12v12h-12zM264 12h12v12h-12zM252 24h12v12h-12zM240 36h12v12h-12zM276 36h12v12h-12zM144 240h12v12h-12zM168 240h12v12h-12zM180 252h12v12h-12zM144 264h12v12h-12zM156 276h12v12h-12zM180 276h12v12h-12zM48 528h12v12h-12zM84 528h12v12h-12zM72 540h12v12h-12zM60 552h12v12h-12zM72 552h12v12h-12zM48 564h12v12h-12zM84 564h12v12h-12zM168 336h12v12h-12zM180 336h12v12h-12zM168 348h12v12h-12zM180 348h12v12h-12zM144 360h12v12h-12zM156 360h12v12h-12zM144 372h12v12h-12zM156 372h12v12h-12zM168 384h12v12h-12zM180 384h12v12h-12zM168 396h12v12h-12zM180 396h12v12h-12zM144 408h12v12h-12zM156 408h12v12h-12zM144 420h12v12h-12zM156 420h12v12h-12zM396 624h12v12h-12zM408 624h12v12h-12zM396 660h12v12h-12zM408 660h12v12h-12zM240 144h12v12h-12zM276 144h12v12h-12zM264 156h12v12h-12zM252 168h12v12h-12zM264 168h12v12h-12zM240 180h12v12h-12zM276 180h12v12h-12zM144 0h12v12h-12zM180 0h12v12h-12zM156 12h12v12h-12zM168 12h12v12h-12zM156 24h12v12h-12zM144 36h12v12h-12zM180 36h12v12h-12zM432 336h12v12h-12zM468 336h12v12h-12zM432 360h12v12h-12zM468 360h12v12h-12zM48 672h12v12h-12zM60 672h12v12h-12zM72 708h12v12h-12zM84 708h12v12h-12zM192 912h12v12h-12zM228 912h12v12h-12zM204 924h12v12h-12zM216 924h12v12h-12zM204 936h12v12h-12zM192 948h12v12h-12zM228 948h12v12h-12zM0 720h12v12h-12zM36 720h12v12h-12zM12 732h12v12h-12zM12 744h12v12h-12zM24 744h12v12h-12zM0 756h12v12h-12zM36 756h12v12h-12zM288 444h12v12h-12zM324 444h12v12h-12zM288 456h12v12h-12zM324 456h12v12h-12zM276 720h12v12h-12zM276 732h12v12h-12zM240 744h12v12h-12zM240 756h12v12h-12zM336 288h12v12h-12zM372 288h12v12h-12zM348 300h12v12h-12zM360 300h12v12h-12zM348 312h12v12h-12zM360 312h12v12h-12zM336 324h12v12h-12zM372 324h12v12h-12zM240 300h12v12h-12zM276 300h12v12h-12zM240 312h12v12h-12zM276 312h12v12h-12zM432 684h12v12h-12zM468 684h12v12h-12zM432 696h12v12h-12zM468 696h12v12h-12zM96 144h12v12h-12zM120 144h12v12h-12zM132 156h12v12h-12zM96 168h12v12h-12zM108 180h12v12h-12zM132 180h12v12h-12zM360 192h12v12h-12zM372 192h12v12h-12zM336 228h12v12h-12zM348 228h12v12h-12zM204 624h12v12h-12zM216 648h12v12h-12zM204 660h12v12h-12zM216 660h12v12h-12zM450 162h12v12h-12zM240 816h12v12h-12zM276 816h12v12h-12zM252 828h12v12h-12zM264 828h12v12h-12zM240 840h12v12h-12zM276 840h12v12h-12zM96 720h12v12h-12zM108 720h12v12h-12zM96 732h12v12h-12zM108 732h12v12h-12zM120 744h12v12h-12zM132 744h12v12h-12zM120 756h12v12h-12zM132 756h12v12h-12zM144 864h12v12h-12zM180 864h12v12h-12zM156 876h12v12h-12zM168 876h12v12h-12zM156 888h12v12h-12zM144 900h12v12h-12zM180 900h12v12h-12zM96 528h12v12h-12zM132 528h12v12h-12zM108 540h12v12h-12zM120 540h12v12h-12zM108 552h12v12h-12zM96 564h12v12h-12zM132 564h12v12h-12zM228 720h12v12h-12zM228 732h12v12h-12zM192 744h12v12h-12zM192 756h12v12h-12zM360 480h12v12h-12zM372 480h12v12h-12zM360 492h12v12h-12zM372 492h12v12h-12zM336 504h12v12h-12zM348 504h12v12h-12zM336 516h12v12h-12zM348 516h12v12h-12z"/><path fill="#fff" d="M288 384h48v48h-48zM336 336h48v48h-48zM384 288h48v48h-48zM432 240h48v48h-48zM384 192h48v48h-48zM336 144h48v48h-48zM288 96h48v48h-48zM240 48h48v48h-48zM192 48h48v48h-48zM192 96h48v48h-48zM192 144h48v48h-48zM240 144h48v48h-48zM288 144h48v48h-48zM336 192h48v48h-48zM336 240h48v48h-48zM288 192h48v48h-48zM288 240h48v48h-48zM288 288h48v48h-48zM288 336h48v48h-48zM288 432h48v48h-48zM288 480h48v48h-48zM288 528h48v48h-48zM288 576h48v48h-48zM288 624h48v48h-48zM288 672h48v48h-48zM288 720h48v48h-48zM336 720h48v48h-48zM336 672h48v48h-48zM336 624h48v48h-48zM336 576h48v48h-48zM336 768h48v48h-48zM336 816h48v48h-48zM336 864h48v48h-48zM336 912h48v48h-48zM288 912h48v48h-48zM240 912h48v48h-48zM192 912h48v48h-48zM144 912h48v48h-48zM144 864h48v48h-48zM144 816h48v48h-48zM144 768h48v48h-48zM144 720h48v48h-48zM144 672h48v48h-48zM144 624h48v48h-48zM192 672h48v48h-48zM240 720h48v48h-48zM288 768h48v48h-48zM288 816h48v48h-48zM240 816h48v48h-48zM240 768h48v48h-48zM192 816h48v48h-48zM96 816h48v48h-48zM48 768h48v48h-48zM0 720h48v48h-48zM624 384h48v48h-48zM576 336h48v48h-48zM528 288h48v48h-48zM480 240h48v48h-48zM528 192h48v48h-48zM576 144h48v48h-48zM624 96h48v48h-48zM672 48h48v48h-48zM720 48h48v48h-48zM720 96h48v48h-48zM720 144h48v48h-48zM672 144h48v48h-48zM624 144h48v48h-48zM576 192h48v48h-48zM576 240h48v48h-48zM624 192h48v48h-48zM624 240h48v48h-48zM624 288h48v48h-48zM624 336h48v48h-48zM624 432h48v48h-48zM624 480h48v48h-48zM624 528h48v48h-48zM624 576h48v48h-48zM624 624h48v48h-48zM624 672h48v48h-48zM624 720h48v48h-48zM576 720h48v48h-48zM576 672h48v48h-48zM576 624h48v48h-48zM576 576h48v48h-48zM576 768h48v48h-48zM576 816h48v48h-48zM576 864h48v48h-48zM576 912h48v48h-48zM624 912h48v48h-48zM672 912h48v48h-48zM720 912h48v48h-48zM768 912h48v48h-48zM768 864h48v48h-48zM768 816h48v48h-48zM768 768h48v48h-48zM768 720h48v48h-48zM768 672h48v48h-48zM768 624h48v48h-48zM720 672h48v48h-48zM672 720h48v48h-48zM624 768h48v48h-48zM624 816h48v48h-48zM672 816h48v48h-48zM672 768h48v48h-48zM720 816h48v48h-48zM816 816h48v48h-48zM864 768h48v48h-48zM912 720h48v48h-48z"/></svg>